G75*
G70*
%OFA0B0*%
%FSLAX24Y24*%
%IPPOS*%
%LPD*%
%AMOC8*
5,1,8,0,0,1.08239X$1,22.5*
%
%ADD10C,0.0050*%
%ADD11C,0.0040*%
%ADD12C,0.0079*%
%ADD13C,0.0060*%
%ADD14R,0.0100X0.0200*%
%ADD15R,0.0295X0.0689*%
%ADD16R,0.0669X0.0295*%
%ADD17R,0.0689X0.0295*%
%ADD18C,0.0000*%
D10*
X007639Y007069D02*
X007639Y013069D01*
X013639Y013069D01*
X013639Y007069D01*
X007639Y007069D01*
X006889Y014569D02*
X000889Y014569D01*
X000889Y020569D01*
X006889Y020569D01*
X006889Y014569D01*
X008389Y014569D02*
X008389Y020569D01*
X014389Y020569D01*
X014389Y014569D01*
X008389Y014569D01*
X015889Y014569D02*
X015889Y020569D01*
X021889Y020569D01*
X021889Y014569D01*
X015889Y014569D01*
X022889Y013069D02*
X028889Y013069D01*
X028889Y007069D01*
X022889Y007069D01*
X022889Y013069D01*
X023389Y014569D02*
X023389Y020569D01*
X029389Y020569D01*
X029389Y014569D01*
X023389Y014569D01*
X030889Y014569D02*
X030889Y020569D01*
X036889Y020569D01*
X036889Y014569D01*
X030889Y014569D01*
X031389Y013069D02*
X037389Y013069D01*
X037389Y007069D01*
X031389Y007069D01*
X031389Y013069D01*
X038389Y014569D02*
X038389Y020569D01*
X044389Y020569D01*
X044389Y014569D01*
X038389Y014569D01*
X039889Y013069D02*
X045889Y013069D01*
X045889Y007069D01*
X039889Y007069D01*
X039889Y013069D01*
X045889Y014569D02*
X045889Y020569D01*
X051889Y020569D01*
X051889Y014569D01*
X045889Y014569D01*
X049389Y013069D02*
X055389Y013069D01*
X055389Y007069D01*
X049389Y007069D01*
X049389Y013069D01*
X054389Y014569D02*
X054389Y020569D01*
X060389Y020569D01*
X060389Y014569D01*
X054389Y014569D01*
X057889Y013069D02*
X063889Y013069D01*
X063889Y007069D01*
X057889Y007069D01*
X057889Y013069D01*
X056639Y022069D02*
X050639Y022069D01*
X050639Y028069D01*
X056639Y028069D01*
X056639Y022069D01*
X055639Y022069D02*
X055639Y028069D01*
X049639Y028069D01*
X049639Y022069D01*
X055639Y022069D01*
X055389Y029569D02*
X055389Y035569D01*
X061389Y035569D01*
X061389Y029569D01*
X055389Y029569D01*
X053389Y029569D02*
X053389Y035569D01*
X059389Y035569D01*
X059389Y029569D01*
X053389Y029569D01*
X051889Y029569D02*
X051889Y035569D01*
X045889Y035569D01*
X045889Y029569D01*
X051889Y029569D01*
X044389Y029569D02*
X044389Y035569D01*
X038389Y035569D01*
X038389Y029569D01*
X044389Y029569D01*
X044389Y028069D02*
X044389Y022069D01*
X038389Y022069D01*
X038389Y028069D01*
X044389Y028069D01*
X036889Y028069D02*
X036889Y022069D01*
X030889Y022069D01*
X030889Y028069D01*
X036889Y028069D01*
X036889Y029569D02*
X036889Y035569D01*
X030889Y035569D01*
X030889Y029569D01*
X036889Y029569D01*
X029389Y029569D02*
X029389Y035569D01*
X023389Y035569D01*
X023389Y029569D01*
X029389Y029569D01*
X029389Y028069D02*
X029389Y022069D01*
X023389Y022069D01*
X023389Y028069D01*
X029389Y028069D01*
X021889Y028069D02*
X021889Y022069D01*
X015889Y022069D01*
X015889Y028069D01*
X021889Y028069D01*
X021889Y029569D02*
X021889Y035569D01*
X015889Y035569D01*
X015889Y029569D01*
X021889Y029569D01*
X014389Y029569D02*
X014389Y035569D01*
X008389Y035569D01*
X008389Y029569D01*
X014389Y029569D01*
X014389Y028069D02*
X014389Y022069D01*
X008389Y022069D01*
X008389Y028069D01*
X014389Y028069D01*
X006889Y028069D02*
X006889Y022069D01*
X000889Y022069D01*
X000889Y028069D01*
X006889Y028069D01*
X006889Y029569D02*
X006889Y035569D01*
X000889Y035569D01*
X000889Y029569D01*
X006889Y029569D01*
X006889Y037069D02*
X000889Y037069D01*
X000889Y043069D01*
X006889Y043069D01*
X006889Y037069D01*
X008389Y037069D02*
X008389Y043069D01*
X014389Y043069D01*
X014389Y037069D01*
X008389Y037069D01*
X015889Y037069D02*
X015889Y043069D01*
X021889Y043069D01*
X021889Y037069D01*
X015889Y037069D01*
X023389Y037069D02*
X023389Y043069D01*
X029389Y043069D01*
X029389Y037069D01*
X023389Y037069D01*
X030889Y037069D02*
X030889Y043069D01*
X036889Y043069D01*
X036889Y037069D01*
X030889Y037069D01*
X038389Y037069D02*
X038389Y043069D01*
X044389Y043069D01*
X044389Y037069D01*
X038389Y037069D01*
X049639Y037069D02*
X049639Y043069D01*
X055639Y043069D01*
X055639Y037069D01*
X049639Y037069D01*
X047389Y047569D02*
X041389Y047569D01*
X041389Y053569D01*
X047389Y053569D01*
X047389Y047569D01*
X053389Y047569D02*
X053389Y053569D01*
X059389Y053569D01*
X059389Y047569D01*
X053389Y047569D01*
X061264Y051119D02*
X061565Y051419D01*
X061565Y051494D01*
X061490Y051569D01*
X061339Y051569D01*
X061264Y051494D01*
X061264Y051119D02*
X061565Y051119D01*
X061725Y051119D02*
X061725Y051569D01*
X061950Y051569D01*
X062025Y051494D01*
X062025Y051194D01*
X061950Y051119D01*
X061725Y051119D01*
X062185Y051119D02*
X062485Y051119D01*
X062335Y051119D02*
X062335Y051569D01*
X062185Y051419D01*
X039889Y053569D02*
X039889Y047569D01*
X033889Y047569D01*
X033889Y053569D01*
X039889Y053569D01*
X032389Y053569D02*
X032389Y047569D01*
X026389Y047569D01*
X026389Y053569D01*
X032389Y053569D01*
X024889Y053569D02*
X024889Y047569D01*
X018889Y047569D01*
X018889Y053569D01*
X024889Y053569D01*
X016079Y045944D02*
X016004Y046019D01*
X015854Y046019D01*
X015779Y045944D01*
X015619Y045944D02*
X015544Y046019D01*
X015319Y046019D01*
X015319Y045569D01*
X015544Y045569D01*
X015619Y045644D01*
X015619Y045944D01*
X015779Y045569D02*
X016079Y045869D01*
X016079Y045944D01*
X016079Y045569D02*
X015779Y045569D01*
X015158Y045569D02*
X014858Y045569D01*
X015158Y045869D01*
X015158Y045944D01*
X015083Y046019D01*
X014933Y046019D01*
X014858Y045944D01*
X014389Y047569D02*
X014389Y053569D01*
X008389Y053569D01*
X008389Y047569D01*
X014389Y047569D01*
X012775Y046019D02*
X012625Y046019D01*
X012550Y045944D01*
X012775Y046019D02*
X012850Y045944D01*
X012850Y045869D01*
X012550Y045569D01*
X012850Y045569D01*
X012390Y045569D02*
X012089Y045569D01*
X012239Y045569D02*
X012239Y046019D01*
X012089Y045869D01*
X006889Y047569D02*
X006889Y053569D01*
X000889Y053569D01*
X000889Y047569D01*
X006889Y047569D01*
X002239Y046019D02*
X002239Y045569D01*
X002089Y045569D02*
X002390Y045569D01*
X002089Y045869D02*
X002239Y046019D01*
X000839Y045815D02*
X000839Y045514D01*
X000839Y045664D02*
X000389Y045664D01*
X000539Y045514D01*
X000689Y045354D02*
X000389Y045354D01*
X000389Y045054D02*
X000689Y045054D01*
X000839Y045204D01*
X000689Y045354D01*
X000689Y044894D02*
X000764Y044894D01*
X000839Y044819D01*
X000839Y044669D01*
X000764Y044594D01*
X000614Y044669D02*
X000614Y044819D01*
X000689Y044894D01*
X000464Y044894D02*
X000389Y044819D01*
X000389Y044669D01*
X000464Y044594D01*
X000539Y044594D01*
X000614Y044669D01*
D11*
X001355Y049464D02*
X001278Y049540D01*
X001355Y049464D02*
X001508Y049464D01*
X001585Y049540D01*
X001585Y049617D01*
X001508Y049694D01*
X001355Y049694D01*
X001278Y049770D01*
X001278Y049847D01*
X001355Y049924D01*
X001508Y049924D01*
X001585Y049847D01*
X001739Y049694D02*
X002046Y049694D01*
X002199Y049540D02*
X002199Y049464D01*
X002199Y049540D02*
X002506Y049847D01*
X002506Y049924D01*
X002199Y049924D01*
X001969Y049924D02*
X001969Y049464D01*
X001739Y049694D02*
X001969Y049924D01*
X008778Y049847D02*
X008778Y049770D01*
X008855Y049694D01*
X009008Y049694D01*
X009085Y049617D01*
X009085Y049540D01*
X009008Y049464D01*
X008855Y049464D01*
X008778Y049540D01*
X008778Y049847D02*
X008855Y049924D01*
X009008Y049924D01*
X009085Y049847D01*
X009239Y049694D02*
X009546Y049694D01*
X009699Y049770D02*
X009699Y049847D01*
X009776Y049924D01*
X009929Y049924D01*
X010006Y049847D01*
X010006Y049770D01*
X009929Y049694D01*
X009776Y049694D01*
X009699Y049770D01*
X009776Y049694D02*
X009699Y049617D01*
X009699Y049540D01*
X009776Y049464D01*
X009929Y049464D01*
X010006Y049540D01*
X010006Y049617D01*
X009929Y049694D01*
X009469Y049464D02*
X009469Y049924D01*
X009239Y049694D01*
X013705Y045698D02*
X013705Y044939D01*
X014324Y044939D02*
X014324Y045698D01*
X014986Y044924D02*
X014909Y044847D01*
X014909Y044540D01*
X014986Y044464D01*
X015140Y044464D01*
X015216Y044540D01*
X015370Y044464D02*
X015677Y044770D01*
X015677Y044847D01*
X015600Y044924D01*
X015446Y044924D01*
X015370Y044847D01*
X015216Y044847D02*
X015140Y044924D01*
X014986Y044924D01*
X015370Y044464D02*
X015677Y044464D01*
X016730Y039424D02*
X016653Y039347D01*
X016653Y039270D01*
X016730Y039194D01*
X016883Y039194D01*
X016960Y039117D01*
X016960Y039040D01*
X016883Y038964D01*
X016730Y038964D01*
X016653Y039040D01*
X016730Y039424D02*
X016883Y039424D01*
X016960Y039347D01*
X017114Y039424D02*
X017114Y039194D01*
X017267Y039270D01*
X017344Y039270D01*
X017421Y039194D01*
X017421Y039040D01*
X017344Y038964D01*
X017190Y038964D01*
X017114Y039040D01*
X017114Y039424D02*
X017421Y039424D01*
X017574Y039424D02*
X017574Y039194D01*
X017727Y039270D01*
X017804Y039270D01*
X017881Y039194D01*
X017881Y039040D01*
X017804Y038964D01*
X017651Y038964D01*
X017574Y039040D01*
X017574Y039424D02*
X017881Y039424D01*
X024403Y039395D02*
X024480Y039319D01*
X024633Y039319D01*
X024710Y039242D01*
X024710Y039165D01*
X024633Y039089D01*
X024480Y039089D01*
X024403Y039165D01*
X024403Y039395D02*
X024403Y039472D01*
X024480Y039549D01*
X024633Y039549D01*
X024710Y039472D01*
X024864Y039549D02*
X024864Y039319D01*
X025017Y039395D01*
X025094Y039395D01*
X025171Y039319D01*
X025171Y039165D01*
X025094Y039089D01*
X024940Y039089D01*
X024864Y039165D01*
X024864Y039549D02*
X025171Y039549D01*
X025324Y039319D02*
X025324Y039165D01*
X025401Y039089D01*
X025554Y039089D01*
X025631Y039165D01*
X025631Y039242D01*
X025554Y039319D01*
X025324Y039319D01*
X025477Y039472D01*
X025631Y039549D01*
X032153Y039347D02*
X032153Y039270D01*
X032230Y039194D01*
X032383Y039194D01*
X032460Y039117D01*
X032460Y039040D01*
X032383Y038964D01*
X032230Y038964D01*
X032153Y039040D01*
X032153Y039347D02*
X032230Y039424D01*
X032383Y039424D01*
X032460Y039347D01*
X032614Y039424D02*
X032614Y039194D01*
X032767Y039270D01*
X032844Y039270D01*
X032921Y039194D01*
X032921Y039040D01*
X032844Y038964D01*
X032690Y038964D01*
X032614Y039040D01*
X032614Y039424D02*
X032921Y039424D01*
X033074Y039424D02*
X033381Y039424D01*
X033381Y039347D01*
X033074Y039040D01*
X033074Y038964D01*
X038528Y040665D02*
X038605Y040589D01*
X038758Y040589D01*
X038835Y040665D01*
X038835Y040742D01*
X038758Y040819D01*
X038605Y040819D01*
X038528Y040895D01*
X038528Y040972D01*
X038605Y041049D01*
X038758Y041049D01*
X038835Y040972D01*
X038989Y041049D02*
X038989Y040819D01*
X039142Y040895D01*
X039219Y040895D01*
X039296Y040819D01*
X039296Y040665D01*
X039219Y040589D01*
X039065Y040589D01*
X038989Y040665D01*
X038989Y041049D02*
X039296Y041049D01*
X039449Y040972D02*
X039526Y041049D01*
X039679Y041049D01*
X039756Y040972D01*
X039756Y040895D01*
X039679Y040819D01*
X039526Y040819D01*
X039449Y040895D01*
X039449Y040972D01*
X039526Y040819D02*
X039449Y040742D01*
X039449Y040665D01*
X039526Y040589D01*
X039679Y040589D01*
X039756Y040665D01*
X039756Y040742D01*
X039679Y040819D01*
X046230Y033674D02*
X046153Y033597D01*
X046153Y033520D01*
X046230Y033444D01*
X046383Y033444D01*
X046460Y033367D01*
X046460Y033290D01*
X046383Y033214D01*
X046230Y033214D01*
X046153Y033290D01*
X046230Y033674D02*
X046383Y033674D01*
X046460Y033597D01*
X046614Y033444D02*
X046844Y033444D01*
X046921Y033367D01*
X046921Y033290D01*
X046844Y033214D01*
X046690Y033214D01*
X046614Y033290D01*
X046614Y033444D01*
X046767Y033597D01*
X046921Y033674D01*
X047074Y033444D02*
X047304Y033444D01*
X047381Y033367D01*
X047381Y033290D01*
X047304Y033214D01*
X047151Y033214D01*
X047074Y033290D01*
X047074Y033444D01*
X047227Y033597D01*
X047381Y033674D01*
X042506Y030424D02*
X042199Y030424D01*
X042199Y030194D01*
X042352Y030270D01*
X042429Y030270D01*
X042506Y030194D01*
X042506Y030040D01*
X042429Y029964D01*
X042276Y029964D01*
X042199Y030040D01*
X042046Y030040D02*
X042046Y030117D01*
X041969Y030194D01*
X041739Y030194D01*
X041739Y030040D01*
X041815Y029964D01*
X041969Y029964D01*
X042046Y030040D01*
X041892Y030347D02*
X041739Y030194D01*
X041585Y030117D02*
X041508Y030194D01*
X041355Y030194D01*
X041278Y030270D01*
X041278Y030347D01*
X041355Y030424D01*
X041508Y030424D01*
X041585Y030347D01*
X041585Y030117D02*
X041585Y030040D01*
X041508Y029964D01*
X041355Y029964D01*
X041278Y030040D01*
X041892Y030347D02*
X042046Y030424D01*
X039929Y026049D02*
X040006Y025972D01*
X040006Y025895D01*
X039929Y025819D01*
X040006Y025742D01*
X040006Y025665D01*
X039929Y025589D01*
X039776Y025589D01*
X039699Y025665D01*
X039852Y025819D02*
X039929Y025819D01*
X039929Y026049D02*
X039776Y026049D01*
X039699Y025972D01*
X039546Y025972D02*
X039239Y025665D01*
X039239Y025589D01*
X039085Y025665D02*
X039008Y025589D01*
X038855Y025589D01*
X038778Y025665D01*
X038855Y025819D02*
X039008Y025819D01*
X039085Y025742D01*
X039085Y025665D01*
X038855Y025819D02*
X038778Y025895D01*
X038778Y025972D01*
X038855Y026049D01*
X039008Y026049D01*
X039085Y025972D01*
X039239Y026049D02*
X039546Y026049D01*
X039546Y025972D01*
X032756Y024347D02*
X032679Y024424D01*
X032526Y024424D01*
X032449Y024347D01*
X032296Y024347D02*
X031989Y024040D01*
X031989Y023964D01*
X031835Y024040D02*
X031758Y023964D01*
X031605Y023964D01*
X031528Y024040D01*
X031605Y024194D02*
X031528Y024270D01*
X031528Y024347D01*
X031605Y024424D01*
X031758Y024424D01*
X031835Y024347D01*
X031758Y024194D02*
X031835Y024117D01*
X031835Y024040D01*
X031758Y024194D02*
X031605Y024194D01*
X031989Y024424D02*
X032296Y024424D01*
X032296Y024347D01*
X032449Y023964D02*
X032756Y024270D01*
X032756Y024347D01*
X032756Y023964D02*
X032449Y023964D01*
X025631Y024089D02*
X025324Y024089D01*
X025477Y024089D02*
X025477Y024549D01*
X025324Y024395D01*
X025171Y024472D02*
X025171Y024549D01*
X024864Y024549D01*
X024710Y024472D02*
X024633Y024549D01*
X024480Y024549D01*
X024403Y024472D01*
X024403Y024395D01*
X024480Y024319D01*
X024633Y024319D01*
X024710Y024242D01*
X024710Y024165D01*
X024633Y024089D01*
X024480Y024089D01*
X024403Y024165D01*
X024864Y024165D02*
X024864Y024089D01*
X024864Y024165D02*
X025171Y024472D01*
X027605Y029714D02*
X027528Y029790D01*
X027605Y029714D02*
X027758Y029714D01*
X027835Y029790D01*
X027835Y029867D01*
X027758Y029944D01*
X027605Y029944D01*
X027528Y030020D01*
X027528Y030097D01*
X027605Y030174D01*
X027758Y030174D01*
X027835Y030097D01*
X027989Y029944D02*
X028219Y029944D01*
X028296Y029867D01*
X028296Y029790D01*
X028219Y029714D01*
X028065Y029714D01*
X027989Y029790D01*
X027989Y029944D01*
X028142Y030097D01*
X028296Y030174D01*
X028449Y030097D02*
X028526Y030174D01*
X028679Y030174D01*
X028756Y030097D01*
X028756Y030020D01*
X028679Y029944D01*
X028756Y029867D01*
X028756Y029790D01*
X028679Y029714D01*
X028526Y029714D01*
X028449Y029790D01*
X028602Y029944D02*
X028679Y029944D01*
X031230Y033214D02*
X031153Y033290D01*
X031230Y033214D02*
X031383Y033214D01*
X031460Y033290D01*
X031460Y033367D01*
X031383Y033444D01*
X031230Y033444D01*
X031153Y033520D01*
X031153Y033597D01*
X031230Y033674D01*
X031383Y033674D01*
X031460Y033597D01*
X031614Y033444D02*
X031844Y033444D01*
X031921Y033367D01*
X031921Y033290D01*
X031844Y033214D01*
X031690Y033214D01*
X031614Y033290D01*
X031614Y033444D01*
X031767Y033597D01*
X031921Y033674D01*
X032074Y033444D02*
X032381Y033444D01*
X032304Y033214D02*
X032304Y033674D01*
X032074Y033444D01*
X018006Y031847D02*
X017929Y031924D01*
X017776Y031924D01*
X017699Y031847D01*
X017546Y031924D02*
X017392Y031847D01*
X017239Y031694D01*
X017469Y031694D01*
X017546Y031617D01*
X017546Y031540D01*
X017469Y031464D01*
X017315Y031464D01*
X017239Y031540D01*
X017239Y031694D01*
X017085Y031617D02*
X017085Y031540D01*
X017008Y031464D01*
X016855Y031464D01*
X016778Y031540D01*
X016855Y031694D02*
X016778Y031770D01*
X016778Y031847D01*
X016855Y031924D01*
X017008Y031924D01*
X017085Y031847D01*
X017008Y031694D02*
X017085Y031617D01*
X017008Y031694D02*
X016855Y031694D01*
X017699Y031464D02*
X018006Y031770D01*
X018006Y031847D01*
X018006Y031464D02*
X017699Y031464D01*
X017671Y024549D02*
X017364Y024549D01*
X017210Y024472D02*
X017133Y024549D01*
X016980Y024549D01*
X016903Y024472D01*
X016903Y024395D01*
X016980Y024319D01*
X017133Y024319D01*
X017210Y024242D01*
X017210Y024165D01*
X017133Y024089D01*
X016980Y024089D01*
X016903Y024165D01*
X017364Y024165D02*
X017364Y024089D01*
X017364Y024165D02*
X017671Y024472D01*
X017671Y024549D01*
X017824Y024472D02*
X017901Y024549D01*
X018054Y024549D01*
X018131Y024472D01*
X017824Y024165D01*
X017901Y024089D01*
X018054Y024089D01*
X018131Y024165D01*
X018131Y024472D01*
X017824Y024472D02*
X017824Y024165D01*
X017381Y018674D02*
X017381Y018597D01*
X017074Y018290D01*
X017074Y018214D01*
X016921Y018597D02*
X016614Y018290D01*
X016614Y018214D01*
X016460Y018290D02*
X016383Y018214D01*
X016230Y018214D01*
X016153Y018290D01*
X016230Y018444D02*
X016383Y018444D01*
X016460Y018367D01*
X016460Y018290D01*
X016230Y018444D02*
X016153Y018520D01*
X016153Y018597D01*
X016230Y018674D01*
X016383Y018674D01*
X016460Y018597D01*
X016614Y018674D02*
X016921Y018674D01*
X016921Y018597D01*
X017074Y018674D02*
X017381Y018674D01*
X023528Y018597D02*
X023528Y018520D01*
X023605Y018444D01*
X023758Y018444D01*
X023835Y018367D01*
X023835Y018290D01*
X023758Y018214D01*
X023605Y018214D01*
X023528Y018290D01*
X023528Y018597D02*
X023605Y018674D01*
X023758Y018674D01*
X023835Y018597D01*
X023989Y018674D02*
X024296Y018674D01*
X024296Y018597D01*
X023989Y018290D01*
X023989Y018214D01*
X024449Y018290D02*
X024526Y018214D01*
X024679Y018214D01*
X024756Y018290D01*
X024756Y018367D01*
X024679Y018444D01*
X024526Y018444D01*
X024449Y018520D01*
X024449Y018597D01*
X024526Y018674D01*
X024679Y018674D01*
X024756Y018597D01*
X024756Y018520D01*
X024679Y018444D01*
X024526Y018444D02*
X024449Y018367D01*
X024449Y018290D01*
X031528Y016847D02*
X031528Y016770D01*
X031605Y016694D01*
X031758Y016694D01*
X031835Y016617D01*
X031835Y016540D01*
X031758Y016464D01*
X031605Y016464D01*
X031528Y016540D01*
X031528Y016847D02*
X031605Y016924D01*
X031758Y016924D01*
X031835Y016847D01*
X031989Y016924D02*
X032296Y016924D01*
X032296Y016847D01*
X031989Y016540D01*
X031989Y016464D01*
X032449Y016540D02*
X032526Y016464D01*
X032679Y016464D01*
X032756Y016540D01*
X032756Y016847D01*
X032679Y016924D01*
X032526Y016924D01*
X032449Y016847D01*
X032449Y016770D01*
X032526Y016694D01*
X032756Y016694D01*
X038528Y016722D02*
X038528Y016645D01*
X038605Y016569D01*
X038758Y016569D01*
X038835Y016492D01*
X038835Y016415D01*
X038758Y016339D01*
X038605Y016339D01*
X038528Y016415D01*
X038528Y016722D02*
X038605Y016799D01*
X038758Y016799D01*
X038835Y016722D01*
X038989Y016722D02*
X038989Y016645D01*
X039065Y016569D01*
X039219Y016569D01*
X039296Y016492D01*
X039296Y016415D01*
X039219Y016339D01*
X039065Y016339D01*
X038989Y016415D01*
X038989Y016492D01*
X039065Y016569D01*
X039219Y016569D02*
X039296Y016645D01*
X039296Y016722D01*
X039219Y016799D01*
X039065Y016799D01*
X038989Y016722D01*
X039449Y016722D02*
X039449Y016415D01*
X039756Y016722D01*
X039756Y016415D01*
X039679Y016339D01*
X039526Y016339D01*
X039449Y016415D01*
X039449Y016722D02*
X039526Y016799D01*
X039679Y016799D01*
X039756Y016722D01*
X045903Y018415D02*
X045980Y018339D01*
X046133Y018339D01*
X046210Y018415D01*
X046210Y018492D01*
X046133Y018569D01*
X045980Y018569D01*
X045903Y018645D01*
X045903Y018722D01*
X045980Y018799D01*
X046133Y018799D01*
X046210Y018722D01*
X046364Y018569D02*
X046594Y018569D01*
X046671Y018492D01*
X046671Y018415D01*
X046594Y018339D01*
X046440Y018339D01*
X046364Y018415D01*
X046364Y018569D01*
X046517Y018722D01*
X046671Y018799D01*
X046824Y018799D02*
X047131Y018799D01*
X047131Y018722D01*
X046824Y018415D01*
X046824Y018339D01*
X054528Y018290D02*
X054605Y018214D01*
X054758Y018214D01*
X054835Y018290D01*
X054835Y018367D01*
X054758Y018444D01*
X054605Y018444D01*
X054528Y018520D01*
X054528Y018597D01*
X054605Y018674D01*
X054758Y018674D01*
X054835Y018597D01*
X054989Y018597D02*
X054989Y018520D01*
X055065Y018444D01*
X055219Y018444D01*
X055296Y018367D01*
X055296Y018290D01*
X055219Y018214D01*
X055065Y018214D01*
X054989Y018290D01*
X054989Y018367D01*
X055065Y018444D01*
X055219Y018444D02*
X055296Y018520D01*
X055296Y018597D01*
X055219Y018674D01*
X055065Y018674D01*
X054989Y018597D01*
X055449Y018520D02*
X055602Y018674D01*
X055602Y018214D01*
X055449Y018214D02*
X055756Y018214D01*
X057980Y011049D02*
X057903Y010972D01*
X057903Y010895D01*
X057980Y010819D01*
X058133Y010819D01*
X058210Y010742D01*
X058210Y010665D01*
X058133Y010589D01*
X057980Y010589D01*
X057903Y010665D01*
X057980Y011049D02*
X058133Y011049D01*
X058210Y010972D01*
X058364Y010972D02*
X058364Y010895D01*
X058440Y010819D01*
X058594Y010819D01*
X058671Y010742D01*
X058671Y010665D01*
X058594Y010589D01*
X058440Y010589D01*
X058364Y010665D01*
X058364Y010742D01*
X058440Y010819D01*
X058594Y010819D02*
X058671Y010895D01*
X058671Y010972D01*
X058594Y011049D01*
X058440Y011049D01*
X058364Y010972D01*
X058824Y010819D02*
X059054Y010819D01*
X059131Y010742D01*
X059131Y010665D01*
X059054Y010589D01*
X058901Y010589D01*
X058824Y010665D01*
X058824Y010819D01*
X058977Y010972D01*
X059131Y011049D01*
X050756Y010944D02*
X050756Y010790D01*
X050679Y010714D01*
X050526Y010714D01*
X050449Y010790D01*
X050296Y010790D02*
X050219Y010714D01*
X050065Y010714D01*
X049989Y010790D01*
X049989Y010867D01*
X050065Y010944D01*
X050219Y010944D01*
X050296Y010867D01*
X050296Y010790D01*
X050219Y010944D02*
X050296Y011020D01*
X050296Y011097D01*
X050219Y011174D01*
X050065Y011174D01*
X049989Y011097D01*
X049989Y011020D01*
X050065Y010944D01*
X049835Y010867D02*
X049835Y010790D01*
X049758Y010714D01*
X049605Y010714D01*
X049528Y010790D01*
X049605Y010944D02*
X049758Y010944D01*
X049835Y010867D01*
X049835Y011097D02*
X049758Y011174D01*
X049605Y011174D01*
X049528Y011097D01*
X049528Y011020D01*
X049605Y010944D01*
X050449Y010944D02*
X050602Y011020D01*
X050679Y011020D01*
X050756Y010944D01*
X050756Y011174D02*
X050449Y011174D01*
X050449Y010944D01*
X042381Y010819D02*
X042074Y010819D01*
X042304Y011049D01*
X042304Y010589D01*
X041921Y010665D02*
X041844Y010589D01*
X041690Y010589D01*
X041614Y010665D01*
X041614Y010742D01*
X041690Y010819D01*
X041844Y010819D01*
X041921Y010742D01*
X041921Y010665D01*
X041844Y010819D02*
X041921Y010895D01*
X041921Y010972D01*
X041844Y011049D01*
X041690Y011049D01*
X041614Y010972D01*
X041614Y010895D01*
X041690Y010819D01*
X041460Y010742D02*
X041460Y010665D01*
X041383Y010589D01*
X041230Y010589D01*
X041153Y010665D01*
X041230Y010819D02*
X041383Y010819D01*
X041460Y010742D01*
X041460Y010972D02*
X041383Y011049D01*
X041230Y011049D01*
X041153Y010972D01*
X041153Y010895D01*
X041230Y010819D01*
X032756Y010895D02*
X032679Y010819D01*
X032756Y010742D01*
X032756Y010665D01*
X032679Y010589D01*
X032526Y010589D01*
X032449Y010665D01*
X032296Y010665D02*
X032219Y010589D01*
X032065Y010589D01*
X031989Y010665D01*
X031989Y010742D01*
X032065Y010819D01*
X032219Y010819D01*
X032296Y010742D01*
X032296Y010665D01*
X032219Y010819D02*
X032296Y010895D01*
X032296Y010972D01*
X032219Y011049D01*
X032065Y011049D01*
X031989Y010972D01*
X031989Y010895D01*
X032065Y010819D01*
X031835Y010742D02*
X031835Y010665D01*
X031758Y010589D01*
X031605Y010589D01*
X031528Y010665D01*
X031605Y010819D02*
X031528Y010895D01*
X031528Y010972D01*
X031605Y011049D01*
X031758Y011049D01*
X031835Y010972D01*
X031758Y010819D02*
X031835Y010742D01*
X031758Y010819D02*
X031605Y010819D01*
X032449Y010972D02*
X032526Y011049D01*
X032679Y011049D01*
X032756Y010972D01*
X032756Y010895D01*
X032679Y010819D02*
X032602Y010819D01*
X024256Y009299D02*
X024256Y009222D01*
X023949Y008915D01*
X023949Y008839D01*
X023796Y008915D02*
X023719Y008839D01*
X023565Y008839D01*
X023489Y008915D01*
X023489Y008992D01*
X023565Y009069D01*
X023719Y009069D01*
X023796Y008992D01*
X023796Y008915D01*
X023719Y009069D02*
X023796Y009145D01*
X023796Y009222D01*
X023719Y009299D01*
X023565Y009299D01*
X023489Y009222D01*
X023489Y009145D01*
X023565Y009069D01*
X023335Y008992D02*
X023335Y008915D01*
X023258Y008839D01*
X023105Y008839D01*
X023028Y008915D01*
X023105Y009069D02*
X023258Y009069D01*
X023335Y008992D01*
X023335Y009222D02*
X023258Y009299D01*
X023105Y009299D01*
X023028Y009222D01*
X023028Y009145D01*
X023105Y009069D01*
X023949Y009299D02*
X024256Y009299D01*
X009881Y016415D02*
X009881Y016492D01*
X009804Y016569D01*
X009574Y016569D01*
X009574Y016415D01*
X009651Y016339D01*
X009804Y016339D01*
X009881Y016415D01*
X009727Y016722D02*
X009574Y016569D01*
X009727Y016722D02*
X009881Y016799D01*
X009421Y016799D02*
X009421Y016722D01*
X009114Y016415D01*
X009114Y016339D01*
X008960Y016415D02*
X008883Y016339D01*
X008730Y016339D01*
X008653Y016415D01*
X008730Y016569D02*
X008883Y016569D01*
X008960Y016492D01*
X008960Y016415D01*
X008730Y016569D02*
X008653Y016645D01*
X008653Y016722D01*
X008730Y016799D01*
X008883Y016799D01*
X008960Y016722D01*
X009114Y016799D02*
X009421Y016799D01*
X009526Y011049D02*
X009449Y010972D01*
X009526Y011049D02*
X009679Y011049D01*
X009756Y010972D01*
X009756Y010895D01*
X009449Y010589D01*
X009756Y010589D01*
X009296Y010665D02*
X009219Y010589D01*
X009065Y010589D01*
X008989Y010665D01*
X008989Y010742D01*
X009065Y010819D01*
X009219Y010819D01*
X009296Y010742D01*
X009296Y010665D01*
X009219Y010819D02*
X009296Y010895D01*
X009296Y010972D01*
X009219Y011049D01*
X009065Y011049D01*
X008989Y010972D01*
X008989Y010895D01*
X009065Y010819D01*
X008835Y010742D02*
X008835Y010665D01*
X008758Y010589D01*
X008605Y010589D01*
X008528Y010665D01*
X008605Y010819D02*
X008758Y010819D01*
X008835Y010742D01*
X008835Y010972D02*
X008758Y011049D01*
X008605Y011049D01*
X008528Y010972D01*
X008528Y010895D01*
X008605Y010819D01*
X002506Y016540D02*
X002429Y016464D01*
X002276Y016464D01*
X002199Y016540D01*
X002199Y016694D02*
X002352Y016770D01*
X002429Y016770D01*
X002506Y016694D01*
X002506Y016540D01*
X002199Y016694D02*
X002199Y016924D01*
X002506Y016924D01*
X002046Y016924D02*
X002046Y016847D01*
X001739Y016540D01*
X001739Y016464D01*
X001585Y016540D02*
X001508Y016464D01*
X001355Y016464D01*
X001278Y016540D01*
X001355Y016694D02*
X001508Y016694D01*
X001585Y016617D01*
X001585Y016540D01*
X001355Y016694D02*
X001278Y016770D01*
X001278Y016847D01*
X001355Y016924D01*
X001508Y016924D01*
X001585Y016847D01*
X001739Y016924D02*
X002046Y016924D01*
X002008Y023964D02*
X001855Y023964D01*
X001778Y024040D01*
X001855Y024194D02*
X002008Y024194D01*
X002085Y024117D01*
X002085Y024040D01*
X002008Y023964D01*
X002239Y024040D02*
X002315Y023964D01*
X002469Y023964D01*
X002546Y024040D01*
X002546Y024117D01*
X002469Y024194D01*
X002239Y024194D01*
X002239Y024040D01*
X002239Y024194D02*
X002392Y024347D01*
X002546Y024424D01*
X002699Y024347D02*
X002699Y024270D01*
X002776Y024194D01*
X002929Y024194D01*
X003006Y024117D01*
X003006Y024040D01*
X002929Y023964D01*
X002776Y023964D01*
X002699Y024040D01*
X002699Y024117D01*
X002776Y024194D01*
X002929Y024194D02*
X003006Y024270D01*
X003006Y024347D01*
X002929Y024424D01*
X002776Y024424D01*
X002699Y024347D01*
X002085Y024347D02*
X002008Y024424D01*
X001855Y024424D01*
X001778Y024347D01*
X001778Y024270D01*
X001855Y024194D01*
X008403Y025790D02*
X008480Y025714D01*
X008633Y025714D01*
X008710Y025790D01*
X008710Y025867D01*
X008633Y025944D01*
X008480Y025944D01*
X008403Y026020D01*
X008403Y026097D01*
X008480Y026174D01*
X008633Y026174D01*
X008710Y026097D01*
X008864Y025944D02*
X009094Y025944D01*
X009171Y025867D01*
X009171Y025790D01*
X009094Y025714D01*
X008940Y025714D01*
X008864Y025790D01*
X008864Y025944D01*
X009017Y026097D01*
X009171Y026174D01*
X009324Y026097D02*
X009324Y026020D01*
X009401Y025944D01*
X009631Y025944D01*
X009631Y026097D02*
X009554Y026174D01*
X009401Y026174D01*
X009324Y026097D01*
X009324Y025790D02*
X009401Y025714D01*
X009554Y025714D01*
X009631Y025790D01*
X009631Y026097D01*
X002381Y031540D02*
X002304Y031464D01*
X002151Y031464D01*
X002074Y031540D01*
X002381Y031847D01*
X002381Y031540D01*
X002074Y031540D02*
X002074Y031847D01*
X002151Y031924D01*
X002304Y031924D01*
X002381Y031847D01*
X001921Y031924D02*
X001767Y031847D01*
X001614Y031694D01*
X001844Y031694D01*
X001921Y031617D01*
X001921Y031540D01*
X001844Y031464D01*
X001690Y031464D01*
X001614Y031540D01*
X001614Y031694D01*
X001460Y031617D02*
X001460Y031540D01*
X001383Y031464D01*
X001230Y031464D01*
X001153Y031540D01*
X001230Y031694D02*
X001383Y031694D01*
X001460Y031617D01*
X001460Y031847D02*
X001383Y031924D01*
X001230Y031924D01*
X001153Y031847D01*
X001153Y031770D01*
X001230Y031694D01*
X008278Y033290D02*
X008355Y033214D01*
X008508Y033214D01*
X008585Y033290D01*
X008585Y033367D01*
X008508Y033444D01*
X008355Y033444D01*
X008278Y033520D01*
X008278Y033597D01*
X008355Y033674D01*
X008508Y033674D01*
X008585Y033597D01*
X008739Y033444D02*
X008969Y033444D01*
X009046Y033367D01*
X009046Y033290D01*
X008969Y033214D01*
X008815Y033214D01*
X008739Y033290D01*
X008739Y033444D01*
X008892Y033597D01*
X009046Y033674D01*
X009199Y033520D02*
X009352Y033674D01*
X009352Y033214D01*
X009199Y033214D02*
X009506Y033214D01*
X009679Y038964D02*
X009679Y039424D01*
X009449Y039194D01*
X009756Y039194D01*
X009296Y039194D02*
X009296Y039040D01*
X009219Y038964D01*
X009065Y038964D01*
X008989Y039040D01*
X008989Y039194D02*
X009142Y039270D01*
X009219Y039270D01*
X009296Y039194D01*
X009296Y039424D02*
X008989Y039424D01*
X008989Y039194D01*
X008835Y039117D02*
X008835Y039040D01*
X008758Y038964D01*
X008605Y038964D01*
X008528Y039040D01*
X008605Y039194D02*
X008758Y039194D01*
X008835Y039117D01*
X008835Y039347D02*
X008758Y039424D01*
X008605Y039424D01*
X008528Y039347D01*
X008528Y039270D01*
X008605Y039194D01*
X002631Y039270D02*
X002554Y039194D01*
X002631Y039117D01*
X002631Y039040D01*
X002554Y038964D01*
X002401Y038964D01*
X002324Y039040D01*
X002171Y039040D02*
X002094Y038964D01*
X001940Y038964D01*
X001864Y039040D01*
X001864Y039194D02*
X002017Y039270D01*
X002094Y039270D01*
X002171Y039194D01*
X002171Y039040D01*
X002477Y039194D02*
X002554Y039194D01*
X002631Y039270D02*
X002631Y039347D01*
X002554Y039424D01*
X002401Y039424D01*
X002324Y039347D01*
X002171Y039424D02*
X001864Y039424D01*
X001864Y039194D01*
X001710Y039117D02*
X001710Y039040D01*
X001633Y038964D01*
X001480Y038964D01*
X001403Y039040D01*
X001480Y039194D02*
X001633Y039194D01*
X001710Y039117D01*
X001710Y039347D02*
X001633Y039424D01*
X001480Y039424D01*
X001403Y039347D01*
X001403Y039270D01*
X001480Y039194D01*
X022278Y051165D02*
X022355Y051089D01*
X022508Y051089D01*
X022585Y051165D01*
X022585Y051242D01*
X022508Y051319D01*
X022355Y051319D01*
X022278Y051395D01*
X022278Y051472D01*
X022355Y051549D01*
X022508Y051549D01*
X022585Y051472D01*
X022739Y051319D02*
X023046Y051319D01*
X023199Y051395D02*
X023276Y051319D01*
X023506Y051319D01*
X023506Y051472D02*
X023429Y051549D01*
X023276Y051549D01*
X023199Y051472D01*
X023199Y051395D01*
X023199Y051165D02*
X023276Y051089D01*
X023429Y051089D01*
X023506Y051165D01*
X023506Y051472D01*
X022969Y051549D02*
X022969Y051089D01*
X022739Y051319D02*
X022969Y051549D01*
X027028Y051520D02*
X027105Y051444D01*
X027258Y051444D01*
X027335Y051367D01*
X027335Y051290D01*
X027258Y051214D01*
X027105Y051214D01*
X027028Y051290D01*
X027028Y051520D02*
X027028Y051597D01*
X027105Y051674D01*
X027258Y051674D01*
X027335Y051597D01*
X027489Y051674D02*
X027489Y051444D01*
X027642Y051520D01*
X027719Y051520D01*
X027796Y051444D01*
X027796Y051290D01*
X027719Y051214D01*
X027565Y051214D01*
X027489Y051290D01*
X027489Y051674D02*
X027796Y051674D01*
X027949Y051597D02*
X028026Y051674D01*
X028179Y051674D01*
X028256Y051597D01*
X027949Y051290D01*
X028026Y051214D01*
X028179Y051214D01*
X028256Y051290D01*
X028256Y051597D01*
X027949Y051597D02*
X027949Y051290D01*
X034153Y049722D02*
X034153Y049645D01*
X034230Y049569D01*
X034383Y049569D01*
X034460Y049492D01*
X034460Y049415D01*
X034383Y049339D01*
X034230Y049339D01*
X034153Y049415D01*
X034153Y049722D02*
X034230Y049799D01*
X034383Y049799D01*
X034460Y049722D01*
X034614Y049799D02*
X034614Y049569D01*
X034767Y049645D01*
X034844Y049645D01*
X034921Y049569D01*
X034921Y049415D01*
X034844Y049339D01*
X034690Y049339D01*
X034614Y049415D01*
X034614Y049799D02*
X034921Y049799D01*
X035074Y049645D02*
X035227Y049799D01*
X035227Y049339D01*
X035074Y049339D02*
X035381Y049339D01*
X041403Y049415D02*
X041480Y049339D01*
X041633Y049339D01*
X041710Y049415D01*
X041710Y049492D01*
X041633Y049569D01*
X041480Y049569D01*
X041403Y049645D01*
X041403Y049722D01*
X041480Y049799D01*
X041633Y049799D01*
X041710Y049722D01*
X041864Y049799D02*
X041864Y049569D01*
X042017Y049645D01*
X042094Y049645D01*
X042171Y049569D01*
X042171Y049415D01*
X042094Y049339D01*
X041940Y049339D01*
X041864Y049415D01*
X041864Y049799D02*
X042171Y049799D01*
X042324Y049722D02*
X042401Y049799D01*
X042554Y049799D01*
X042631Y049722D01*
X042631Y049645D01*
X042324Y049339D01*
X042631Y049339D01*
X053528Y049415D02*
X053605Y049339D01*
X053758Y049339D01*
X053835Y049415D01*
X053835Y049492D01*
X053758Y049569D01*
X053605Y049569D01*
X053528Y049645D01*
X053528Y049722D01*
X053605Y049799D01*
X053758Y049799D01*
X053835Y049722D01*
X053989Y049799D02*
X054296Y049799D01*
X054296Y049722D01*
X053989Y049415D01*
X053989Y049339D01*
X054449Y049569D02*
X054756Y049569D01*
X054679Y049799D02*
X054449Y049569D01*
X054679Y049339D02*
X054679Y049799D01*
X054776Y037674D02*
X054699Y037597D01*
X054699Y037520D01*
X054776Y037444D01*
X055006Y037444D01*
X055006Y037597D02*
X055006Y037290D01*
X054929Y037214D01*
X054776Y037214D01*
X054699Y037290D01*
X054546Y037290D02*
X054469Y037214D01*
X054315Y037214D01*
X054239Y037290D01*
X054239Y037444D02*
X054392Y037520D01*
X054469Y037520D01*
X054546Y037444D01*
X054546Y037290D01*
X054239Y037444D02*
X054239Y037674D01*
X054546Y037674D01*
X054776Y037674D02*
X054929Y037674D01*
X055006Y037597D01*
X054085Y037597D02*
X054008Y037674D01*
X053855Y037674D01*
X053778Y037597D01*
X053778Y037520D01*
X053855Y037444D01*
X054008Y037444D01*
X054085Y037367D01*
X054085Y037290D01*
X054008Y037214D01*
X053855Y037214D01*
X053778Y037290D01*
X053798Y035049D02*
X053645Y035049D01*
X053568Y034972D01*
X053568Y034895D01*
X053645Y034819D01*
X053798Y034819D01*
X053875Y034742D01*
X053875Y034665D01*
X053798Y034589D01*
X053645Y034589D01*
X053568Y034665D01*
X053875Y034972D02*
X053798Y035049D01*
X054028Y034819D02*
X054028Y034665D01*
X054105Y034589D01*
X054258Y034589D01*
X054335Y034665D01*
X054335Y034742D01*
X054258Y034819D01*
X054028Y034819D01*
X054182Y034972D01*
X054335Y035049D01*
X054489Y035049D02*
X054796Y035049D01*
X054796Y034972D01*
X054489Y034665D01*
X054489Y034589D01*
X054949Y034589D02*
X054949Y035049D01*
X055179Y035049D01*
X055256Y034972D01*
X055256Y034895D01*
X055179Y034819D01*
X054949Y034819D01*
X055179Y034819D02*
X055256Y034742D01*
X055256Y034665D01*
X055179Y034589D01*
X054949Y034589D01*
X061818Y032097D02*
X061818Y032020D01*
X061895Y031944D01*
X062048Y031944D01*
X062125Y031867D01*
X062125Y031790D01*
X062048Y031714D01*
X061895Y031714D01*
X061818Y031790D01*
X061818Y032097D02*
X061895Y032174D01*
X062048Y032174D01*
X062125Y032097D01*
X062278Y031944D02*
X062508Y031944D01*
X062585Y031867D01*
X062585Y031790D01*
X062508Y031714D01*
X062355Y031714D01*
X062278Y031790D01*
X062278Y031944D01*
X062432Y032097D01*
X062585Y032174D01*
X062739Y032174D02*
X063046Y032174D01*
X063046Y032097D01*
X062739Y031790D01*
X062739Y031714D01*
X063199Y031790D02*
X063199Y032097D01*
X063276Y032174D01*
X063429Y032174D01*
X063506Y032097D01*
X063506Y031790D02*
X063429Y031714D01*
X063276Y031714D01*
X063199Y031790D01*
X051381Y027645D02*
X051381Y027339D01*
X051381Y027569D02*
X051074Y027569D01*
X051074Y027645D02*
X051227Y027799D01*
X051381Y027645D01*
X051074Y027645D02*
X051074Y027339D01*
X050844Y027339D02*
X050844Y027799D01*
X050614Y027569D01*
X050921Y027569D01*
X050460Y027722D02*
X050153Y027415D01*
X050153Y027339D01*
X050000Y027415D02*
X049923Y027339D01*
X049770Y027339D01*
X049693Y027415D01*
X049770Y027569D02*
X049693Y027645D01*
X049693Y027722D01*
X049770Y027799D01*
X049923Y027799D01*
X050000Y027722D01*
X050153Y027799D02*
X050460Y027799D01*
X050460Y027722D01*
X050000Y027492D02*
X050000Y027415D01*
X050000Y027492D02*
X049923Y027569D01*
X049770Y027569D01*
X049506Y027645D02*
X049429Y027569D01*
X049199Y027569D01*
X049046Y027569D02*
X048739Y027569D01*
X048969Y027799D01*
X048969Y027339D01*
X049199Y027339D02*
X049199Y027799D01*
X049429Y027799D01*
X049506Y027722D01*
X049506Y027645D01*
X049429Y027569D02*
X049506Y027492D01*
X049506Y027415D01*
X049429Y027339D01*
X049199Y027339D01*
X048585Y027722D02*
X048278Y027415D01*
X048278Y027339D01*
X048125Y027415D02*
X048048Y027339D01*
X047895Y027339D01*
X047818Y027415D01*
X047895Y027569D02*
X048048Y027569D01*
X048125Y027492D01*
X048125Y027415D01*
X047895Y027569D02*
X047818Y027645D01*
X047818Y027722D01*
X047895Y027799D01*
X048048Y027799D01*
X048125Y027722D01*
X048278Y027799D02*
X048585Y027799D01*
X048585Y027722D01*
D12*
X020876Y013612D02*
X000403Y006525D01*
X020876Y006525D01*
X000403Y013612D01*
X000403Y006525D01*
X000403Y013612D02*
X020876Y013612D01*
X020876Y006525D01*
X021362Y006525D02*
X030417Y013612D01*
X030417Y006525D01*
X021362Y013612D01*
X021362Y006525D01*
X030417Y006525D01*
X030846Y006525D02*
X037933Y013612D01*
X037933Y006525D01*
X030846Y013612D01*
X030846Y006525D01*
X037933Y006525D01*
X038362Y006525D02*
X047417Y013612D01*
X047417Y006525D01*
X038362Y013612D01*
X038362Y006525D01*
X047417Y006525D01*
X047862Y006525D02*
X056917Y013612D01*
X056917Y006525D01*
X047862Y013612D01*
X047862Y006525D01*
X056917Y006525D01*
X057346Y006525D02*
X064433Y013612D01*
X064433Y006525D01*
X057346Y013612D01*
X057346Y006525D01*
X064433Y006525D01*
X064433Y013612D02*
X057346Y013612D01*
X056917Y013612D02*
X047862Y013612D01*
X047417Y013612D02*
X038362Y013612D01*
X037933Y013612D02*
X030846Y013612D01*
X030417Y013612D02*
X021362Y013612D01*
X022433Y014025D02*
X015346Y021112D01*
X015346Y014025D01*
X022433Y021112D01*
X022433Y014025D01*
X015346Y014025D01*
X014933Y014025D02*
X007846Y021112D01*
X007846Y014025D01*
X014933Y021112D01*
X014933Y014025D01*
X007846Y014025D01*
X007433Y014025D02*
X000346Y021112D01*
X000346Y014025D01*
X007433Y021112D01*
X007433Y014025D01*
X000346Y014025D01*
X000346Y021112D02*
X007433Y021112D01*
X007846Y021112D02*
X014933Y021112D01*
X015346Y021112D02*
X022433Y021112D01*
X022846Y021112D02*
X029933Y014025D01*
X029933Y021112D01*
X022846Y014025D01*
X029933Y014025D01*
X030346Y014025D02*
X037433Y021112D01*
X037433Y014025D01*
X030346Y021112D01*
X030346Y014025D01*
X037433Y014025D01*
X037846Y014025D02*
X044933Y021112D01*
X044933Y014025D01*
X037846Y021112D01*
X037846Y014025D01*
X044933Y014025D01*
X045346Y014025D02*
X052433Y021112D01*
X052433Y014025D01*
X045346Y021112D01*
X045346Y014025D01*
X052433Y014025D01*
X052862Y014025D02*
X061917Y021112D01*
X061917Y014025D01*
X052862Y021112D01*
X052862Y014025D01*
X061917Y014025D01*
X061917Y021112D02*
X052862Y021112D01*
X052433Y021112D02*
X045346Y021112D01*
X044933Y021112D02*
X037846Y021112D01*
X037846Y021525D02*
X044933Y028612D01*
X044933Y021525D01*
X037846Y028612D01*
X037846Y021525D01*
X044933Y021525D01*
X045372Y021525D02*
X061907Y028612D01*
X061907Y021525D01*
X045372Y028612D01*
X045372Y021525D01*
X061907Y021525D01*
X061907Y028612D02*
X045372Y028612D01*
X045346Y029025D02*
X052433Y036112D01*
X052433Y029025D01*
X045346Y036112D01*
X045346Y029025D01*
X052433Y029025D01*
X052846Y029025D02*
X059933Y036112D01*
X059933Y029025D01*
X052846Y036112D01*
X052846Y029025D01*
X059933Y029025D01*
X052846Y036112D01*
X059933Y036112D01*
X052846Y029025D01*
X059933Y029025D01*
X059933Y036112D01*
X052846Y036112D01*
X052846Y029025D01*
X052878Y029025D02*
X063901Y036112D01*
X063901Y029025D01*
X052878Y036112D01*
X052878Y029025D01*
X063901Y029025D01*
X063901Y036112D02*
X052878Y036112D01*
X052433Y036112D02*
X045346Y036112D01*
X045356Y036525D02*
X059923Y043612D01*
X059923Y036525D01*
X045356Y043612D01*
X045356Y036525D01*
X059923Y036525D01*
X059923Y043612D02*
X045356Y043612D01*
X044933Y043612D02*
X037846Y036525D01*
X044933Y036525D01*
X037846Y043612D01*
X037846Y036525D01*
X037846Y036112D02*
X044933Y029025D01*
X044933Y036112D01*
X037846Y029025D01*
X044933Y029025D01*
X044933Y028612D02*
X037846Y028612D01*
X037846Y029025D02*
X037846Y036112D01*
X044933Y036112D01*
X044933Y036525D02*
X044933Y043612D01*
X037846Y043612D01*
X037433Y043612D02*
X030346Y036525D01*
X037433Y036525D01*
X030346Y043612D01*
X030346Y036525D01*
X030346Y036112D02*
X037433Y029025D01*
X037433Y036112D01*
X030346Y029025D01*
X037433Y029025D01*
X037433Y028612D02*
X030346Y021525D01*
X037433Y021525D01*
X030346Y028612D01*
X030346Y021525D01*
X030346Y021112D02*
X037433Y021112D01*
X037433Y021525D02*
X037433Y028612D01*
X030346Y028612D01*
X030346Y029025D02*
X030346Y036112D01*
X037433Y036112D01*
X037433Y036525D02*
X037433Y043612D01*
X030346Y043612D01*
X029933Y043612D02*
X022846Y036525D01*
X029933Y036525D01*
X022846Y043612D01*
X022846Y036525D01*
X022846Y036112D02*
X029933Y029025D01*
X029933Y036112D01*
X022846Y029025D01*
X029933Y029025D01*
X029933Y028612D02*
X022846Y021525D01*
X029933Y021525D01*
X022846Y028612D01*
X022846Y021525D01*
X022846Y021112D02*
X022846Y014025D01*
X022846Y021112D02*
X029933Y021112D01*
X029933Y021525D02*
X029933Y028612D01*
X022846Y028612D01*
X022846Y029025D02*
X022846Y036112D01*
X029933Y036112D01*
X029933Y036525D02*
X029933Y043612D01*
X022846Y043612D01*
X022433Y043612D02*
X015346Y036525D01*
X022433Y036525D01*
X015346Y043612D01*
X015346Y036525D01*
X015346Y036112D02*
X022433Y029025D01*
X022433Y036112D01*
X015346Y029025D01*
X022433Y029025D01*
X022433Y028612D02*
X015346Y021525D01*
X022433Y021525D01*
X015346Y028612D01*
X015346Y021525D01*
X014933Y021525D02*
X007846Y028612D01*
X007846Y021525D01*
X014933Y028612D01*
X014933Y021525D01*
X007846Y021525D01*
X007433Y021525D02*
X000346Y028612D01*
X000346Y021525D01*
X007433Y028612D01*
X007433Y021525D01*
X000346Y021525D01*
X000346Y028612D02*
X007433Y028612D01*
X007846Y028612D02*
X014933Y028612D01*
X015346Y028612D02*
X022433Y028612D01*
X022433Y021525D01*
X015346Y029025D02*
X015346Y036112D01*
X022433Y036112D01*
X022433Y036525D02*
X022433Y043612D01*
X015346Y043612D01*
X014933Y043612D02*
X007846Y036525D01*
X014933Y036525D01*
X007846Y043612D01*
X007846Y036525D01*
X007846Y036112D02*
X014933Y029025D01*
X014933Y036112D01*
X007846Y029025D01*
X014933Y029025D01*
X007846Y029025D02*
X007846Y036112D01*
X014933Y036112D01*
X014933Y036525D02*
X014933Y043612D01*
X007846Y043612D01*
X007433Y043612D02*
X000346Y036525D01*
X007433Y036525D01*
X000346Y043612D01*
X000346Y036525D01*
X000346Y036112D02*
X007433Y029025D01*
X007433Y036112D01*
X000346Y029025D01*
X007433Y029025D01*
X000346Y029025D02*
X000346Y036112D01*
X007433Y036112D01*
X007433Y036525D02*
X007433Y043612D01*
X000346Y043612D01*
X000346Y047025D02*
X007433Y054112D01*
X007433Y047025D01*
X000346Y054112D01*
X000346Y047025D01*
X007433Y047025D01*
X007846Y047025D02*
X014933Y054112D01*
X014933Y047025D01*
X007846Y054112D01*
X007846Y047025D01*
X014933Y047025D01*
X018346Y047025D02*
X025433Y054112D01*
X025433Y047025D01*
X018346Y054112D01*
X018346Y047025D01*
X025433Y047025D01*
X025846Y047025D02*
X032933Y054112D01*
X032933Y047025D01*
X025846Y054112D01*
X025846Y047025D01*
X032933Y047025D01*
X033346Y047025D02*
X040433Y054112D01*
X040433Y047025D01*
X033346Y054112D01*
X033346Y047025D01*
X040433Y047025D01*
X040846Y047025D02*
X047933Y054112D01*
X047933Y047025D01*
X040846Y054112D01*
X040846Y047025D01*
X047933Y047025D01*
X052846Y047025D02*
X059933Y054112D01*
X059933Y047025D01*
X052846Y054112D01*
X052846Y047025D01*
X059933Y047025D01*
X059933Y054112D02*
X052846Y054112D01*
X047933Y054112D02*
X040846Y054112D01*
X040433Y054112D02*
X033346Y054112D01*
X032933Y054112D02*
X025846Y054112D01*
X025433Y054112D02*
X018346Y054112D01*
X014933Y054112D02*
X007846Y054112D01*
X007433Y054112D02*
X000346Y054112D01*
D13*
X001764Y045444D02*
X002664Y045444D01*
X002764Y045344D01*
X002864Y045444D01*
X003664Y045444D01*
X003764Y045344D01*
X003864Y045444D01*
X004664Y045444D01*
X004764Y045344D01*
X004864Y045444D01*
X005664Y045444D01*
X005764Y045344D01*
X005864Y045444D01*
X006664Y045444D01*
X006764Y045344D01*
X006864Y045444D01*
X007664Y045444D01*
X007764Y045344D01*
X007864Y045444D01*
X008664Y045444D01*
X008764Y045344D01*
X008864Y045444D01*
X009664Y045444D01*
X009764Y045344D01*
X009864Y045444D01*
X010664Y045444D01*
X010764Y045344D01*
X010864Y045444D01*
X011664Y045444D01*
X011764Y045344D01*
X011864Y045444D01*
X012757Y045444D01*
X012764Y045444D02*
X012764Y044444D01*
X012757Y044444D02*
X011864Y044444D01*
X011764Y044544D01*
X011664Y044444D01*
X010864Y044444D01*
X010764Y044544D01*
X010664Y044444D01*
X009864Y044444D01*
X009764Y044544D01*
X009664Y044444D01*
X008864Y044444D01*
X008764Y044544D01*
X008664Y044444D01*
X007864Y044444D01*
X007764Y044544D01*
X007664Y044444D01*
X006864Y044444D01*
X006764Y044544D01*
X006664Y044444D01*
X005864Y044444D01*
X005764Y044544D01*
X005664Y044444D01*
X004864Y044444D01*
X004764Y044544D01*
X004664Y044444D01*
X003864Y044444D01*
X003764Y044544D01*
X003664Y044444D01*
X002864Y044444D01*
X002764Y044544D01*
X002664Y044444D01*
X001764Y044444D01*
X001764Y045444D01*
X002064Y045144D02*
X002064Y044744D01*
X002164Y044744D01*
X002164Y044644D01*
X002364Y044644D01*
X002364Y044744D01*
X002464Y044744D01*
X002464Y045144D01*
X002364Y045144D01*
X002364Y045244D01*
X002164Y045244D01*
X002164Y045144D01*
X002064Y045144D01*
X003064Y045144D02*
X003064Y044744D01*
X003164Y044744D01*
X003164Y044644D01*
X003364Y044644D01*
X003364Y044744D01*
X003464Y044744D01*
X003464Y045144D01*
X003364Y045144D01*
X003364Y045244D01*
X003164Y045244D01*
X003164Y045144D01*
X003064Y045144D01*
X004064Y045144D02*
X004064Y044744D01*
X004164Y044744D01*
X004164Y044644D01*
X004364Y044644D01*
X004364Y044744D01*
X004464Y044744D01*
X004464Y045144D01*
X004364Y045144D01*
X004364Y045244D01*
X004164Y045244D01*
X004164Y045144D01*
X004064Y045144D01*
X005064Y045144D02*
X005064Y044744D01*
X005164Y044744D01*
X005164Y044644D01*
X005364Y044644D01*
X005364Y044744D01*
X005464Y044744D01*
X005464Y045144D01*
X005364Y045144D01*
X005364Y045244D01*
X005164Y045244D01*
X005164Y045144D01*
X005064Y045144D01*
X006064Y045144D02*
X006064Y044744D01*
X006164Y044744D01*
X006164Y044644D01*
X006364Y044644D01*
X006364Y044744D01*
X006464Y044744D01*
X006464Y045144D01*
X006364Y045144D01*
X006364Y045244D01*
X006164Y045244D01*
X006164Y045144D01*
X006064Y045144D01*
X007064Y045144D02*
X007064Y044744D01*
X007164Y044744D01*
X007164Y044644D01*
X007364Y044644D01*
X007364Y044744D01*
X007464Y044744D01*
X007464Y045144D01*
X007364Y045144D01*
X007364Y045244D01*
X007164Y045244D01*
X007164Y045144D01*
X007064Y045144D01*
X008064Y045144D02*
X008064Y044744D01*
X008164Y044744D01*
X008164Y044644D01*
X008364Y044644D01*
X008364Y044744D01*
X008464Y044744D01*
X008464Y045144D01*
X008364Y045144D01*
X008364Y045244D01*
X008164Y045244D01*
X008164Y045144D01*
X008064Y045144D01*
X009064Y045144D02*
X009064Y044744D01*
X009164Y044744D01*
X009164Y044644D01*
X009364Y044644D01*
X009364Y044744D01*
X009464Y044744D01*
X009464Y045144D01*
X009364Y045144D01*
X009364Y045244D01*
X009164Y045244D01*
X009164Y045144D01*
X009064Y045144D01*
X010064Y045144D02*
X010064Y044744D01*
X010164Y044744D01*
X010164Y044644D01*
X010364Y044644D01*
X010364Y044744D01*
X010464Y044744D01*
X010464Y045144D01*
X010364Y045144D01*
X010364Y045244D01*
X010164Y045244D01*
X010164Y045144D01*
X010064Y045144D01*
X011064Y045144D02*
X011064Y044744D01*
X011164Y044744D01*
X011164Y044644D01*
X011364Y044644D01*
X011364Y044744D01*
X011464Y044744D01*
X011464Y045144D01*
X011364Y045144D01*
X011364Y045244D01*
X011164Y045244D01*
X011164Y045144D01*
X011064Y045144D01*
X012064Y045144D02*
X012064Y044744D01*
X012164Y044744D01*
X012164Y044644D01*
X012364Y044644D01*
X012364Y044744D01*
X012464Y044744D01*
X012464Y045144D01*
X012364Y045144D01*
X012364Y045244D01*
X012164Y045244D01*
X012164Y045144D01*
X012064Y045144D01*
X014514Y044919D02*
X014553Y044921D01*
X014592Y044927D01*
X014630Y044936D01*
X014667Y044949D01*
X014703Y044966D01*
X014736Y044986D01*
X014768Y045010D01*
X014797Y045036D01*
X014823Y045065D01*
X014847Y045097D01*
X014867Y045130D01*
X014884Y045166D01*
X014897Y045203D01*
X014906Y045241D01*
X014912Y045280D01*
X014914Y045319D01*
X014912Y045358D01*
X014906Y045397D01*
X014897Y045435D01*
X014884Y045472D01*
X014867Y045508D01*
X014847Y045541D01*
X014823Y045573D01*
X014797Y045602D01*
X014768Y045628D01*
X014736Y045652D01*
X014703Y045672D01*
X014667Y045689D01*
X014630Y045702D01*
X014592Y045711D01*
X014553Y045717D01*
X014514Y045719D01*
X014514Y046469D01*
X021514Y046469D01*
X021514Y044169D01*
X014514Y044169D01*
X014514Y044919D01*
X014579Y042543D02*
X014579Y041834D01*
X013949Y041834D02*
X013949Y042543D01*
X015290Y047504D02*
X015999Y047504D01*
X015999Y048133D02*
X015290Y048133D01*
X015290Y048254D02*
X015999Y048254D01*
X015999Y048883D02*
X015290Y048883D01*
X015290Y049004D02*
X015999Y049004D01*
X015999Y049633D02*
X015290Y049633D01*
X017290Y049633D02*
X017999Y049633D01*
X017999Y049004D02*
X017290Y049004D01*
X017540Y048133D02*
X018249Y048133D01*
X018249Y047504D02*
X017540Y047504D01*
X018665Y051254D02*
X019374Y051254D01*
X019374Y051883D02*
X018665Y051883D01*
X017954Y051781D02*
X017954Y052490D01*
X017324Y052490D02*
X017324Y051781D01*
X015954Y052219D02*
X015954Y052928D01*
X015324Y052928D02*
X015324Y052219D01*
X027655Y046758D02*
X028364Y046758D01*
X028364Y046129D02*
X027655Y046129D01*
X027530Y045883D02*
X028239Y045883D01*
X028239Y045254D02*
X027530Y045254D01*
X027405Y045008D02*
X028114Y045008D01*
X028114Y044379D02*
X027405Y044379D01*
X027415Y044133D02*
X028124Y044133D01*
X028124Y043504D02*
X027415Y043504D01*
X035280Y044379D02*
X035989Y044379D01*
X035989Y045008D02*
X035280Y045008D01*
X035280Y045254D02*
X035989Y045254D01*
X035989Y045883D02*
X035280Y045883D01*
X035280Y046129D02*
X035989Y046129D01*
X035989Y046758D02*
X035280Y046758D01*
X036790Y042008D02*
X037499Y042008D01*
X037499Y041379D02*
X036790Y041379D01*
X035614Y037258D02*
X034905Y037258D01*
X034905Y036629D02*
X035614Y036629D01*
X042280Y036883D02*
X042989Y036883D01*
X042989Y036254D02*
X042280Y036254D01*
X044727Y031258D02*
X045436Y031258D01*
X045436Y030629D02*
X044727Y030629D01*
X037489Y026883D02*
X036780Y026883D01*
X036780Y026254D02*
X037489Y026254D01*
X042540Y022383D02*
X043249Y022383D01*
X043249Y021754D02*
X042540Y021754D01*
X037801Y019133D02*
X037092Y019133D01*
X037092Y018504D02*
X037801Y018504D01*
X032741Y013975D02*
X032240Y014476D01*
X031794Y014031D02*
X032296Y013529D01*
X029489Y011258D02*
X028780Y011258D01*
X028780Y010629D02*
X029489Y010629D01*
X018749Y013129D02*
X018040Y013129D01*
X018040Y013758D02*
X018749Y013758D01*
X020040Y029254D02*
X020749Y029254D01*
X020749Y029883D02*
X020040Y029883D01*
X022324Y033459D02*
X022324Y034168D01*
X022954Y034168D02*
X022954Y033459D01*
X019999Y036629D02*
X019290Y036629D01*
X019290Y037258D02*
X019999Y037258D01*
X042780Y044379D02*
X043489Y044379D01*
X043489Y045008D02*
X042780Y045008D01*
X042780Y045254D02*
X043489Y045254D01*
X043489Y045883D02*
X042780Y045883D01*
X042780Y046129D02*
X043489Y046129D01*
X043489Y046758D02*
X042780Y046758D01*
X047655Y046758D02*
X048364Y046758D01*
X048364Y047004D02*
X047655Y047004D01*
X047655Y047633D02*
X048364Y047633D01*
X048364Y046129D02*
X047655Y046129D01*
X047655Y045883D02*
X048364Y045883D01*
X048364Y045254D02*
X047655Y045254D01*
X047655Y045008D02*
X048364Y045008D01*
X048364Y044379D02*
X047655Y044379D01*
X048574Y050459D02*
X048574Y051168D01*
X049204Y051168D02*
X049204Y050459D01*
X049449Y050459D02*
X049449Y051168D01*
X050079Y051168D02*
X050079Y050459D01*
X050124Y052004D02*
X049415Y052004D01*
X049415Y052633D02*
X050124Y052633D01*
X055155Y046633D02*
X055864Y046633D01*
X055864Y046004D02*
X055155Y046004D01*
X055155Y045633D02*
X055864Y045633D01*
X055864Y045004D02*
X055155Y045004D01*
X055155Y044633D02*
X055864Y044633D01*
X055864Y044004D02*
X055155Y044004D01*
X059074Y039678D02*
X059074Y038969D01*
X059704Y038969D02*
X059704Y039678D01*
X060449Y039428D02*
X060449Y038719D01*
X061079Y038719D02*
X061079Y039428D01*
X060864Y040819D02*
X063164Y040819D01*
X063164Y048819D01*
X062414Y048819D01*
X062412Y048780D01*
X062406Y048741D01*
X062397Y048703D01*
X062384Y048666D01*
X062367Y048630D01*
X062347Y048597D01*
X062323Y048565D01*
X062297Y048536D01*
X062268Y048510D01*
X062236Y048486D01*
X062203Y048466D01*
X062167Y048449D01*
X062130Y048436D01*
X062092Y048427D01*
X062053Y048421D01*
X062014Y048419D01*
X061975Y048421D01*
X061936Y048427D01*
X061898Y048436D01*
X061861Y048449D01*
X061825Y048466D01*
X061792Y048486D01*
X061760Y048510D01*
X061731Y048536D01*
X061705Y048565D01*
X061681Y048597D01*
X061661Y048630D01*
X061644Y048666D01*
X061631Y048703D01*
X061622Y048741D01*
X061616Y048780D01*
X061614Y048819D01*
X060864Y048819D01*
X060864Y040819D01*
X060124Y052004D02*
X059415Y052004D01*
X059415Y052633D02*
X060124Y052633D01*
X057829Y029168D02*
X057829Y028459D01*
X057199Y028459D02*
X057199Y029168D01*
X057436Y022258D02*
X056727Y022258D01*
X056727Y021629D02*
X057436Y021629D01*
X046811Y011633D02*
X046102Y011633D01*
X046102Y011004D02*
X046811Y011004D01*
X055824Y007928D02*
X055824Y007219D01*
X056454Y007219D02*
X056454Y007928D01*
X056665Y010254D02*
X057374Y010254D01*
X057374Y010883D02*
X056665Y010883D01*
D14*
X012264Y044744D03*
X012264Y045144D03*
X011264Y045144D03*
X011264Y044744D03*
X010264Y044744D03*
X010264Y045144D03*
X009264Y045144D03*
X009264Y044744D03*
X008264Y044744D03*
X008264Y045144D03*
X007264Y045144D03*
X007264Y044744D03*
X006264Y044744D03*
X006264Y045144D03*
X005264Y045144D03*
X005264Y044744D03*
X004264Y044744D03*
X004264Y045144D03*
X003264Y045144D03*
X003264Y044744D03*
X002264Y044744D03*
X002264Y045144D03*
D15*
X015142Y047819D03*
X015142Y048569D03*
X015142Y049319D03*
X016142Y049319D03*
X016142Y048569D03*
X017142Y049319D03*
X018142Y049319D03*
X018392Y047819D03*
X017392Y047819D03*
X016142Y047819D03*
X018517Y051569D03*
X019517Y051569D03*
X027512Y046443D03*
X027387Y045568D03*
X028387Y045568D03*
X028512Y046443D03*
X028262Y044693D03*
X028267Y043819D03*
X027267Y043819D03*
X027262Y044693D03*
X035137Y044693D03*
X036137Y044693D03*
X036137Y045568D03*
X036137Y046443D03*
X035137Y046443D03*
X035137Y045568D03*
X036642Y041694D03*
X037642Y041694D03*
X042637Y044693D03*
X042637Y045568D03*
X042637Y046443D03*
X043637Y046443D03*
X043637Y045568D03*
X043637Y044693D03*
X047512Y044693D03*
X047512Y045568D03*
X047512Y046443D03*
X047512Y047318D03*
X048512Y047318D03*
X048512Y046443D03*
X048512Y045568D03*
X048512Y044693D03*
X055012Y044318D03*
X056012Y044318D03*
X056012Y045318D03*
X055012Y045318D03*
X055012Y046318D03*
X056012Y046318D03*
X059267Y052319D03*
X060267Y052319D03*
X050267Y052319D03*
X049267Y052319D03*
X043137Y036568D03*
X042137Y036568D03*
X035762Y036943D03*
X034762Y036943D03*
X044579Y030944D03*
X045579Y030944D03*
X037637Y026568D03*
X036637Y026568D03*
X042392Y022069D03*
X043392Y022069D03*
X037950Y018818D03*
X036950Y018818D03*
G36*
X032052Y014705D02*
X032260Y014497D01*
X031774Y014011D01*
X031566Y014219D01*
X032052Y014705D01*
G37*
G36*
X032759Y013998D02*
X032967Y013790D01*
X032481Y013304D01*
X032273Y013512D01*
X032759Y013998D01*
G37*
X029637Y010943D03*
X028637Y010943D03*
X018892Y013444D03*
X017892Y013444D03*
X019892Y029569D03*
X020892Y029569D03*
X020142Y036944D03*
X019142Y036944D03*
X045954Y011319D03*
X046954Y011319D03*
X056517Y010569D03*
X057517Y010569D03*
X057579Y021944D03*
X056579Y021944D03*
D16*
X014015Y044796D03*
X014014Y045841D03*
D17*
X014265Y042691D03*
X014265Y041691D03*
X022640Y034316D03*
X022640Y033316D03*
X017639Y051633D03*
X017639Y052633D03*
X015639Y053071D03*
X015639Y052071D03*
X048890Y051316D03*
X049765Y051316D03*
X049765Y050316D03*
X048890Y050316D03*
X059389Y039821D03*
X059389Y038821D03*
X060764Y038571D03*
X060764Y039571D03*
X057515Y029316D03*
X057515Y028316D03*
X056139Y008071D03*
X056139Y007071D03*
D18*
X015174Y041819D02*
X013055Y044551D01*
M02*
