G75*
G70*
%OFA0B0*%
%FSLAX24Y24*%
%IPPOS*%
%LPD*%
%AMOC8*
5,1,8,0,0,1.08239X$1,22.5*
%
%ADD10C,0.0050*%
%ADD11C,0.0040*%
%ADD12C,0.0079*%
%ADD13C,0.0060*%
%ADD14R,0.0100X0.0200*%
%ADD15R,0.0295X0.0689*%
%ADD16R,0.0689X0.0295*%
%ADD17R,0.0669X0.0295*%
D10*
X015626Y069251D02*
X015626Y075251D01*
X021626Y075251D01*
X021626Y069251D01*
X015626Y069251D01*
X016376Y076751D02*
X016376Y082751D01*
X022376Y082751D01*
X022376Y076751D01*
X016376Y076751D01*
X014876Y076751D02*
X014876Y082751D01*
X008876Y082751D01*
X008876Y076751D01*
X014876Y076751D01*
X014876Y084251D02*
X014876Y090251D01*
X008876Y090251D01*
X008876Y084251D01*
X014876Y084251D01*
X016376Y084251D02*
X016376Y090251D01*
X022376Y090251D01*
X022376Y084251D01*
X016376Y084251D01*
X016376Y091751D02*
X016376Y097751D01*
X022376Y097751D01*
X022376Y091751D01*
X016376Y091751D01*
X014876Y091751D02*
X014876Y097751D01*
X008876Y097751D01*
X008876Y091751D01*
X014876Y091751D01*
X014876Y099251D02*
X014876Y105251D01*
X008876Y105251D01*
X008876Y099251D01*
X014876Y099251D01*
X016376Y099251D02*
X016376Y105251D01*
X022376Y105251D01*
X022376Y099251D01*
X016376Y099251D01*
X020076Y107751D02*
X020376Y107751D01*
X020226Y107751D02*
X020226Y108201D01*
X020076Y108051D01*
X020536Y108126D02*
X020611Y108201D01*
X020761Y108201D01*
X020836Y108126D01*
X020836Y108051D01*
X020536Y107751D01*
X020836Y107751D01*
X022376Y109751D02*
X022376Y115751D01*
X016376Y115751D01*
X016376Y109751D01*
X022376Y109751D01*
X023544Y107826D02*
X023469Y107751D01*
X023544Y107826D02*
X023695Y107826D01*
X023770Y107751D01*
X023770Y107676D01*
X023469Y107376D01*
X023770Y107376D01*
X023930Y107376D02*
X024155Y107376D01*
X024230Y107451D01*
X024230Y107751D01*
X024155Y107826D01*
X023930Y107826D01*
X023930Y107376D01*
X024390Y107376D02*
X024690Y107676D01*
X024690Y107751D01*
X024615Y107826D01*
X024465Y107826D01*
X024390Y107751D01*
X024390Y107376D02*
X024690Y107376D01*
X023876Y105251D02*
X029876Y105251D01*
X029876Y099251D01*
X023876Y099251D01*
X023876Y105251D01*
X026876Y109751D02*
X026876Y115751D01*
X032876Y115751D01*
X032876Y109751D01*
X026876Y109751D01*
X031376Y105251D02*
X037376Y105251D01*
X037376Y099251D01*
X031376Y099251D01*
X031376Y105251D01*
X034376Y109751D02*
X034376Y115751D01*
X040376Y115751D01*
X040376Y109751D01*
X034376Y109751D01*
X038876Y105251D02*
X044876Y105251D01*
X044876Y099251D01*
X038876Y099251D01*
X038876Y105251D01*
X041876Y109751D02*
X041876Y115751D01*
X047876Y115751D01*
X047876Y109751D01*
X041876Y109751D01*
X046376Y105251D02*
X052376Y105251D01*
X052376Y099251D01*
X046376Y099251D01*
X046376Y105251D01*
X049376Y109751D02*
X049376Y115751D01*
X055376Y115751D01*
X055376Y109751D01*
X049376Y109751D01*
X057626Y105251D02*
X057626Y099251D01*
X063626Y099251D01*
X063626Y105251D01*
X057626Y105251D01*
X061376Y109751D02*
X061376Y115751D01*
X067376Y115751D01*
X067376Y109751D01*
X061376Y109751D01*
X068376Y112176D02*
X068676Y112476D01*
X068676Y112551D01*
X068601Y112626D01*
X068451Y112626D01*
X068376Y112551D01*
X068376Y112176D02*
X068676Y112176D01*
X068836Y112176D02*
X069061Y112176D01*
X069136Y112251D01*
X069136Y112551D01*
X069061Y112626D01*
X068836Y112626D01*
X068836Y112176D01*
X069296Y112176D02*
X069597Y112176D01*
X069447Y112176D02*
X069447Y112626D01*
X069296Y112476D01*
X069376Y097751D02*
X063376Y097751D01*
X063376Y091751D01*
X069376Y091751D01*
X069376Y097751D01*
X067376Y097751D02*
X067376Y091751D01*
X061376Y091751D01*
X061376Y097751D01*
X067376Y097751D01*
X064626Y090251D02*
X064626Y084251D01*
X058626Y084251D01*
X058626Y090251D01*
X064626Y090251D01*
X063626Y090251D02*
X063626Y084251D01*
X057626Y084251D01*
X057626Y090251D01*
X063626Y090251D01*
X059876Y091751D02*
X059876Y097751D01*
X053876Y097751D01*
X053876Y091751D01*
X059876Y091751D01*
X059876Y082751D02*
X053876Y082751D01*
X053876Y076751D01*
X059876Y076751D01*
X059876Y082751D01*
X063376Y082751D02*
X063376Y076751D01*
X069376Y076751D01*
X069376Y082751D01*
X063376Y082751D01*
X063376Y075251D02*
X063376Y069251D01*
X057376Y069251D01*
X057376Y075251D01*
X063376Y075251D01*
X065876Y075251D02*
X071876Y075251D01*
X071876Y069251D01*
X065876Y069251D01*
X065876Y075251D01*
X053876Y075251D02*
X053876Y069251D01*
X047876Y069251D01*
X047876Y075251D01*
X053876Y075251D01*
X052376Y076751D02*
X052376Y082751D01*
X046376Y082751D01*
X046376Y076751D01*
X052376Y076751D01*
X052376Y084251D02*
X052376Y090251D01*
X046376Y090251D01*
X046376Y084251D01*
X052376Y084251D01*
X052376Y091751D02*
X052376Y097751D01*
X046376Y097751D01*
X046376Y091751D01*
X052376Y091751D01*
X044876Y091751D02*
X044876Y097751D01*
X038876Y097751D01*
X038876Y091751D01*
X044876Y091751D01*
X044876Y090251D02*
X044876Y084251D01*
X038876Y084251D01*
X038876Y090251D01*
X044876Y090251D01*
X044876Y082751D02*
X044876Y076751D01*
X038876Y076751D01*
X038876Y082751D01*
X044876Y082751D01*
X044376Y075251D02*
X044376Y069251D01*
X038376Y069251D01*
X038376Y075251D01*
X044376Y075251D01*
X037376Y076751D02*
X037376Y082751D01*
X031376Y082751D01*
X031376Y076751D01*
X037376Y076751D01*
X035876Y075251D02*
X035876Y069251D01*
X029876Y069251D01*
X029876Y075251D01*
X035876Y075251D01*
X029876Y076751D02*
X029876Y082751D01*
X023876Y082751D01*
X023876Y076751D01*
X029876Y076751D01*
X029876Y084251D02*
X029876Y090251D01*
X023876Y090251D01*
X023876Y084251D01*
X029876Y084251D01*
X031376Y084251D02*
X031376Y090251D01*
X037376Y090251D01*
X037376Y084251D01*
X031376Y084251D01*
X031376Y091751D02*
X031376Y097751D01*
X037376Y097751D01*
X037376Y091751D01*
X031376Y091751D01*
X029876Y091751D02*
X029876Y097751D01*
X023876Y097751D01*
X023876Y091751D01*
X029876Y091751D01*
X014876Y109751D02*
X014876Y115751D01*
X008876Y115751D01*
X008876Y109751D01*
X014876Y109751D01*
X010226Y108201D02*
X010226Y107751D01*
X010076Y107751D02*
X010376Y107751D01*
X010076Y108051D02*
X010226Y108201D01*
X008826Y107997D02*
X008826Y107696D01*
X008826Y107847D02*
X008375Y107847D01*
X008525Y107696D01*
X008675Y107536D02*
X008375Y107536D01*
X008375Y107236D02*
X008675Y107236D01*
X008826Y107386D01*
X008675Y107536D01*
X008675Y107076D02*
X008751Y107076D01*
X008826Y107001D01*
X008826Y106851D01*
X008751Y106776D01*
X008600Y106851D02*
X008600Y107001D01*
X008675Y107076D01*
X008450Y107076D02*
X008375Y107001D01*
X008375Y106851D01*
X008450Y106776D01*
X008525Y106776D01*
X008600Y106851D01*
D11*
X009341Y111646D02*
X009264Y111722D01*
X009341Y111646D02*
X009495Y111646D01*
X009571Y111722D01*
X009571Y111799D01*
X009495Y111876D01*
X009341Y111876D01*
X009264Y111953D01*
X009264Y112029D01*
X009341Y112106D01*
X009495Y112106D01*
X009571Y112029D01*
X009725Y111876D02*
X009955Y112106D01*
X009955Y111646D01*
X010185Y111646D02*
X010185Y111722D01*
X010492Y112029D01*
X010492Y112106D01*
X010185Y112106D01*
X010032Y111876D02*
X009725Y111876D01*
X009620Y101606D02*
X009466Y101606D01*
X009389Y101529D01*
X009389Y101453D01*
X009466Y101376D01*
X009620Y101376D01*
X009696Y101299D01*
X009696Y101222D01*
X009620Y101146D01*
X009466Y101146D01*
X009389Y101222D01*
X009696Y101529D02*
X009620Y101606D01*
X009850Y101606D02*
X009850Y101376D01*
X010003Y101453D01*
X010080Y101453D01*
X010157Y101376D01*
X010157Y101222D01*
X010080Y101146D01*
X009927Y101146D01*
X009850Y101222D01*
X009850Y101606D02*
X010157Y101606D01*
X010310Y101529D02*
X010387Y101606D01*
X010540Y101606D01*
X010617Y101529D01*
X010617Y101453D01*
X010540Y101376D01*
X010617Y101299D01*
X010617Y101222D01*
X010540Y101146D01*
X010387Y101146D01*
X010310Y101222D01*
X010464Y101376D02*
X010540Y101376D01*
X010290Y094106D02*
X010137Y094106D01*
X010060Y094029D01*
X010060Y093722D01*
X010367Y094029D01*
X010367Y093722D01*
X010290Y093646D01*
X010137Y093646D01*
X010060Y093722D01*
X009907Y093722D02*
X009907Y093799D01*
X009830Y093876D01*
X009600Y093876D01*
X009600Y093722D01*
X009677Y093646D01*
X009830Y093646D01*
X009907Y093722D01*
X009753Y094029D02*
X009600Y093876D01*
X009446Y093799D02*
X009446Y093722D01*
X009370Y093646D01*
X009216Y093646D01*
X009139Y093722D01*
X009216Y093876D02*
X009370Y093876D01*
X009446Y093799D01*
X009446Y094029D02*
X009370Y094106D01*
X009216Y094106D01*
X009139Y094029D01*
X009139Y093953D01*
X009216Y093876D01*
X009753Y094029D02*
X009907Y094106D01*
X010290Y094106D02*
X010367Y094029D01*
X013091Y084856D02*
X013014Y084779D01*
X013014Y084703D01*
X013091Y084626D01*
X013245Y084626D01*
X013321Y084549D01*
X013321Y084472D01*
X013245Y084396D01*
X013091Y084396D01*
X013014Y084472D01*
X013091Y084856D02*
X013245Y084856D01*
X013321Y084779D01*
X013475Y084626D02*
X013705Y084626D01*
X013782Y084549D01*
X013782Y084472D01*
X013705Y084396D01*
X013552Y084396D01*
X013475Y084472D01*
X013475Y084626D01*
X013628Y084779D01*
X013782Y084856D01*
X013935Y084779D02*
X013935Y084703D01*
X014012Y084626D01*
X014165Y084626D01*
X014242Y084549D01*
X014242Y084472D01*
X014165Y084396D01*
X014012Y084396D01*
X013935Y084472D01*
X013935Y084549D01*
X014012Y084626D01*
X014165Y084626D02*
X014242Y084703D01*
X014242Y084779D01*
X014165Y084856D01*
X014012Y084856D01*
X013935Y084779D01*
X013935Y077356D02*
X013935Y077126D01*
X014089Y077203D01*
X014165Y077203D01*
X014242Y077126D01*
X014242Y076972D01*
X014165Y076896D01*
X014012Y076896D01*
X013935Y076972D01*
X013782Y077279D02*
X013475Y076972D01*
X013475Y076896D01*
X013321Y076972D02*
X013245Y076896D01*
X013091Y076896D01*
X013014Y076972D01*
X013091Y077126D02*
X013245Y077126D01*
X013321Y077049D01*
X013321Y076972D01*
X013091Y077126D02*
X013014Y077203D01*
X013014Y077279D01*
X013091Y077356D01*
X013245Y077356D01*
X013321Y077279D01*
X013475Y077356D02*
X013782Y077356D01*
X013782Y077279D01*
X013935Y077356D02*
X014242Y077356D01*
X020264Y073279D02*
X020264Y073203D01*
X020341Y073126D01*
X020495Y073126D01*
X020571Y073049D01*
X020571Y072972D01*
X020495Y072896D01*
X020341Y072896D01*
X020264Y072972D01*
X020264Y073279D02*
X020341Y073356D01*
X020495Y073356D01*
X020571Y073279D01*
X020725Y073279D02*
X020725Y073203D01*
X020802Y073126D01*
X020955Y073126D01*
X021032Y073049D01*
X021032Y072972D01*
X020955Y072896D01*
X020802Y072896D01*
X020725Y072972D01*
X020725Y073049D01*
X020802Y073126D01*
X020955Y073126D02*
X021032Y073203D01*
X021032Y073279D01*
X020955Y073356D01*
X020802Y073356D01*
X020725Y073279D01*
X021185Y073279D02*
X021262Y073356D01*
X021415Y073356D01*
X021492Y073279D01*
X021492Y073203D01*
X021185Y072896D01*
X021492Y072896D01*
X021512Y076896D02*
X021665Y076896D01*
X021742Y076972D01*
X021742Y077049D01*
X021665Y077126D01*
X021435Y077126D01*
X021435Y076972D01*
X021512Y076896D01*
X021435Y077126D02*
X021589Y077279D01*
X021742Y077356D01*
X021282Y077356D02*
X021282Y077279D01*
X020975Y076972D01*
X020975Y076896D01*
X020821Y076972D02*
X020745Y076896D01*
X020591Y076896D01*
X020514Y076972D01*
X020591Y077126D02*
X020745Y077126D01*
X020821Y077049D01*
X020821Y076972D01*
X020591Y077126D02*
X020514Y077203D01*
X020514Y077279D01*
X020591Y077356D01*
X020745Y077356D01*
X020821Y077279D01*
X020975Y077356D02*
X021282Y077356D01*
X021205Y084396D02*
X021052Y084396D01*
X020975Y084472D01*
X020975Y084626D01*
X021205Y084626D01*
X021282Y084549D01*
X021282Y084472D01*
X021205Y084396D01*
X021435Y084472D02*
X021512Y084396D01*
X021665Y084396D01*
X021742Y084472D01*
X021742Y084779D01*
X021665Y084856D01*
X021512Y084856D01*
X021435Y084779D01*
X021435Y084703D01*
X021512Y084626D01*
X021742Y084626D01*
X021282Y084856D02*
X021128Y084779D01*
X020975Y084626D01*
X020821Y084549D02*
X020745Y084626D01*
X020591Y084626D01*
X020514Y084703D01*
X020514Y084779D01*
X020591Y084856D01*
X020745Y084856D01*
X020821Y084779D01*
X020821Y084549D02*
X020821Y084472D01*
X020745Y084396D01*
X020591Y084396D01*
X020514Y084472D01*
X020591Y091896D02*
X020514Y091972D01*
X020591Y091896D02*
X020745Y091896D01*
X020821Y091972D01*
X020821Y092049D01*
X020745Y092126D01*
X020591Y092126D01*
X020514Y092203D01*
X020514Y092279D01*
X020591Y092356D01*
X020745Y092356D01*
X020821Y092279D01*
X020975Y092126D02*
X021205Y092126D01*
X021282Y092049D01*
X021282Y091972D01*
X021205Y091896D01*
X021052Y091896D01*
X020975Y091972D01*
X020975Y092126D01*
X021128Y092279D01*
X021282Y092356D01*
X021435Y092203D02*
X021589Y092356D01*
X021589Y091896D01*
X021742Y091896D02*
X021435Y091896D01*
X017665Y101146D02*
X017665Y101606D01*
X017435Y101376D01*
X017742Y101376D01*
X017282Y101376D02*
X017282Y101222D01*
X017205Y101146D01*
X017052Y101146D01*
X016975Y101222D01*
X016821Y101222D02*
X016745Y101146D01*
X016591Y101146D01*
X016514Y101222D01*
X016591Y101376D02*
X016745Y101376D01*
X016821Y101299D01*
X016821Y101222D01*
X016975Y101376D02*
X017128Y101453D01*
X017205Y101453D01*
X017282Y101376D01*
X017282Y101606D02*
X016975Y101606D01*
X016975Y101376D01*
X016821Y101529D02*
X016745Y101606D01*
X016591Y101606D01*
X016514Y101529D01*
X016514Y101453D01*
X016591Y101376D01*
X021691Y107121D02*
X021691Y107881D01*
X022310Y107881D02*
X022310Y107121D01*
X022038Y109271D02*
X021731Y109271D01*
X022038Y109578D01*
X022038Y109654D01*
X021961Y109731D01*
X021808Y109731D01*
X021731Y109654D01*
X021578Y109654D02*
X021501Y109731D01*
X021347Y109731D01*
X021271Y109654D01*
X021271Y109347D01*
X021347Y109271D01*
X021501Y109271D01*
X021578Y109347D01*
X017992Y111722D02*
X017915Y111646D01*
X017762Y111646D01*
X017685Y111722D01*
X017685Y111799D01*
X017762Y111876D01*
X017915Y111876D01*
X017992Y111799D01*
X017992Y111722D01*
X017915Y111876D02*
X017992Y111953D01*
X017992Y112029D01*
X017915Y112106D01*
X017762Y112106D01*
X017685Y112029D01*
X017685Y111953D01*
X017762Y111876D01*
X017532Y111876D02*
X017225Y111876D01*
X017455Y112106D01*
X017455Y111646D01*
X017071Y111722D02*
X016995Y111646D01*
X016841Y111646D01*
X016764Y111722D01*
X016841Y111876D02*
X016995Y111876D01*
X017071Y111799D01*
X017071Y111722D01*
X016841Y111876D02*
X016764Y111953D01*
X016764Y112029D01*
X016841Y112106D01*
X016995Y112106D01*
X017071Y112029D01*
X028091Y099856D02*
X028014Y099779D01*
X028014Y099703D01*
X028091Y099626D01*
X028245Y099626D01*
X028321Y099549D01*
X028321Y099472D01*
X028245Y099396D01*
X028091Y099396D01*
X028014Y099472D01*
X028091Y099856D02*
X028245Y099856D01*
X028321Y099779D01*
X028475Y099856D02*
X028475Y099626D01*
X028628Y099703D01*
X028705Y099703D01*
X028782Y099626D01*
X028782Y099472D01*
X028705Y099396D01*
X028552Y099396D01*
X028475Y099472D01*
X028475Y099856D02*
X028782Y099856D01*
X028935Y099856D02*
X028935Y099626D01*
X029089Y099703D01*
X029165Y099703D01*
X029242Y099626D01*
X029242Y099472D01*
X029165Y099396D01*
X029012Y099396D01*
X028935Y099472D01*
X028935Y099856D02*
X029242Y099856D01*
X029165Y092356D02*
X029012Y092356D01*
X028935Y092279D01*
X028782Y092356D02*
X028628Y092279D01*
X028475Y092126D01*
X028705Y092126D01*
X028782Y092049D01*
X028782Y091972D01*
X028705Y091896D01*
X028552Y091896D01*
X028475Y091972D01*
X028475Y092126D01*
X028321Y092049D02*
X028321Y091972D01*
X028245Y091896D01*
X028091Y091896D01*
X028014Y091972D01*
X028091Y092126D02*
X028245Y092126D01*
X028321Y092049D01*
X028321Y092279D02*
X028245Y092356D01*
X028091Y092356D01*
X028014Y092279D01*
X028014Y092203D01*
X028091Y092126D01*
X028935Y091896D02*
X029242Y092203D01*
X029242Y092279D01*
X029165Y092356D01*
X029242Y091896D02*
X028935Y091896D01*
X029012Y088231D02*
X029165Y088231D01*
X029242Y088154D01*
X028935Y087847D01*
X029012Y087771D01*
X029165Y087771D01*
X029242Y087847D01*
X029242Y088154D01*
X029012Y088231D02*
X028935Y088154D01*
X028935Y087847D01*
X028782Y088154D02*
X028782Y088231D01*
X028475Y088231D01*
X028321Y088154D02*
X028245Y088231D01*
X028091Y088231D01*
X028014Y088154D01*
X028014Y088078D01*
X028091Y088001D01*
X028245Y088001D01*
X028321Y087924D01*
X028321Y087847D01*
X028245Y087771D01*
X028091Y087771D01*
X028014Y087847D01*
X028475Y087847D02*
X028475Y087771D01*
X028475Y087847D02*
X028782Y088154D01*
X028725Y077856D02*
X029032Y077856D01*
X029032Y077779D01*
X028725Y077472D01*
X028725Y077396D01*
X028571Y077472D02*
X028495Y077396D01*
X028341Y077396D01*
X028264Y077472D01*
X028341Y077626D02*
X028495Y077626D01*
X028571Y077549D01*
X028571Y077472D01*
X028341Y077626D02*
X028264Y077703D01*
X028264Y077779D01*
X028341Y077856D01*
X028495Y077856D01*
X028571Y077779D01*
X029185Y077856D02*
X029492Y077856D01*
X029492Y077779D01*
X029185Y077472D01*
X029185Y077396D01*
X033170Y069856D02*
X033094Y069779D01*
X033094Y069703D01*
X033170Y069626D01*
X033324Y069626D01*
X033401Y069549D01*
X033401Y069472D01*
X033324Y069396D01*
X033170Y069396D01*
X033094Y069472D01*
X033170Y069856D02*
X033324Y069856D01*
X033401Y069779D01*
X033554Y069626D02*
X033784Y069626D01*
X033861Y069549D01*
X033861Y069472D01*
X033784Y069396D01*
X033631Y069396D01*
X033554Y069472D01*
X033554Y069626D01*
X033707Y069779D01*
X033861Y069856D01*
X034014Y069856D02*
X034321Y069856D01*
X034321Y069779D01*
X034014Y069472D01*
X034014Y069396D01*
X034475Y069472D02*
X034552Y069396D01*
X034705Y069396D01*
X034782Y069472D01*
X034935Y069396D02*
X035242Y069396D01*
X035089Y069396D02*
X035089Y069856D01*
X034935Y069703D01*
X034782Y069779D02*
X034705Y069856D01*
X034552Y069856D01*
X034475Y069779D01*
X034475Y069472D01*
X035591Y076896D02*
X035514Y076972D01*
X035591Y076896D02*
X035745Y076896D01*
X035821Y076972D01*
X035821Y077049D01*
X035745Y077126D01*
X035591Y077126D01*
X035514Y077203D01*
X035514Y077279D01*
X035591Y077356D01*
X035745Y077356D01*
X035821Y077279D01*
X035975Y077356D02*
X036282Y077356D01*
X036282Y077279D01*
X035975Y076972D01*
X035975Y076896D01*
X036435Y076972D02*
X036435Y077049D01*
X036512Y077126D01*
X036665Y077126D01*
X036742Y077049D01*
X036742Y076972D01*
X036665Y076896D01*
X036512Y076896D01*
X036435Y076972D01*
X036512Y077126D02*
X036435Y077203D01*
X036435Y077279D01*
X036512Y077356D01*
X036665Y077356D01*
X036742Y077279D01*
X036742Y077203D01*
X036665Y077126D01*
X036589Y084396D02*
X036589Y084856D01*
X036435Y084703D01*
X036282Y084779D02*
X035975Y084472D01*
X035975Y084396D01*
X035821Y084472D02*
X035745Y084396D01*
X035591Y084396D01*
X035514Y084472D01*
X035591Y084626D02*
X035745Y084626D01*
X035821Y084549D01*
X035821Y084472D01*
X035591Y084626D02*
X035514Y084703D01*
X035514Y084779D01*
X035591Y084856D01*
X035745Y084856D01*
X035821Y084779D01*
X035975Y084856D02*
X036282Y084856D01*
X036282Y084779D01*
X036435Y084396D02*
X036742Y084396D01*
X036665Y091896D02*
X036512Y091896D01*
X036435Y091972D01*
X036282Y091972D02*
X036282Y092049D01*
X036205Y092126D01*
X035975Y092126D01*
X035975Y091972D01*
X036052Y091896D01*
X036205Y091896D01*
X036282Y091972D01*
X036589Y092126D02*
X036665Y092126D01*
X036742Y092049D01*
X036742Y091972D01*
X036665Y091896D01*
X036665Y092126D02*
X036742Y092203D01*
X036742Y092279D01*
X036665Y092356D01*
X036512Y092356D01*
X036435Y092279D01*
X036282Y092356D02*
X036128Y092279D01*
X035975Y092126D01*
X035821Y092049D02*
X035821Y091972D01*
X035745Y091896D01*
X035591Y091896D01*
X035514Y091972D01*
X035591Y092126D02*
X035745Y092126D01*
X035821Y092049D01*
X035821Y092279D02*
X035745Y092356D01*
X035591Y092356D01*
X035514Y092279D01*
X035514Y092203D01*
X035591Y092126D01*
X035591Y099396D02*
X035514Y099472D01*
X035591Y099396D02*
X035745Y099396D01*
X035821Y099472D01*
X035821Y099549D01*
X035745Y099626D01*
X035591Y099626D01*
X035514Y099703D01*
X035514Y099779D01*
X035591Y099856D01*
X035745Y099856D01*
X035821Y099779D01*
X035975Y099856D02*
X035975Y099626D01*
X036128Y099703D01*
X036205Y099703D01*
X036282Y099626D01*
X036282Y099472D01*
X036205Y099396D01*
X036052Y099396D01*
X035975Y099472D01*
X035975Y099856D02*
X036282Y099856D01*
X036435Y099626D02*
X036665Y099626D01*
X036742Y099549D01*
X036742Y099472D01*
X036665Y099396D01*
X036512Y099396D01*
X036435Y099472D01*
X036435Y099626D01*
X036589Y099779D01*
X036742Y099856D01*
X043014Y099779D02*
X043014Y099703D01*
X043091Y099626D01*
X043245Y099626D01*
X043321Y099549D01*
X043321Y099472D01*
X043245Y099396D01*
X043091Y099396D01*
X043014Y099472D01*
X043014Y099779D02*
X043091Y099856D01*
X043245Y099856D01*
X043321Y099779D01*
X043475Y099856D02*
X043475Y099626D01*
X043628Y099703D01*
X043705Y099703D01*
X043782Y099626D01*
X043782Y099472D01*
X043705Y099396D01*
X043552Y099396D01*
X043475Y099472D01*
X043475Y099856D02*
X043782Y099856D01*
X043935Y099856D02*
X044242Y099856D01*
X044242Y099779D01*
X043935Y099472D01*
X043935Y099396D01*
X043782Y092356D02*
X043628Y092279D01*
X043475Y092126D01*
X043705Y092126D01*
X043782Y092049D01*
X043782Y091972D01*
X043705Y091896D01*
X043552Y091896D01*
X043475Y091972D01*
X043475Y092126D01*
X043321Y092049D02*
X043321Y091972D01*
X043245Y091896D01*
X043091Y091896D01*
X043014Y091972D01*
X043091Y092126D02*
X043245Y092126D01*
X043321Y092049D01*
X043321Y092279D02*
X043245Y092356D01*
X043091Y092356D01*
X043014Y092279D01*
X043014Y092203D01*
X043091Y092126D01*
X043935Y092126D02*
X044242Y092126D01*
X044165Y092356D02*
X043935Y092126D01*
X044165Y091896D02*
X044165Y092356D01*
X044165Y084856D02*
X044012Y084856D01*
X043935Y084779D01*
X043782Y084779D02*
X043475Y084472D01*
X043475Y084396D01*
X043321Y084472D02*
X043245Y084396D01*
X043091Y084396D01*
X043014Y084472D01*
X043091Y084626D02*
X043245Y084626D01*
X043321Y084549D01*
X043321Y084472D01*
X043091Y084626D02*
X043014Y084703D01*
X043014Y084779D01*
X043091Y084856D01*
X043245Y084856D01*
X043321Y084779D01*
X043475Y084856D02*
X043782Y084856D01*
X043782Y084779D01*
X044165Y084856D02*
X044242Y084779D01*
X044242Y084703D01*
X043935Y084396D01*
X044242Y084396D01*
X044165Y077356D02*
X044012Y077356D01*
X043935Y077279D01*
X043935Y077203D01*
X044012Y077126D01*
X044242Y077126D01*
X044242Y077279D02*
X044165Y077356D01*
X044242Y077279D02*
X044242Y076972D01*
X044165Y076896D01*
X044012Y076896D01*
X043935Y076972D01*
X043782Y077279D02*
X043475Y076972D01*
X043475Y076896D01*
X043321Y076972D02*
X043245Y076896D01*
X043091Y076896D01*
X043014Y076972D01*
X043091Y077126D02*
X043245Y077126D01*
X043321Y077049D01*
X043321Y076972D01*
X043091Y077126D02*
X043014Y077203D01*
X043014Y077279D01*
X043091Y077356D01*
X043245Y077356D01*
X043321Y077279D01*
X043475Y077356D02*
X043782Y077356D01*
X043782Y077279D01*
X048014Y073029D02*
X048014Y072953D01*
X048091Y072876D01*
X048245Y072876D01*
X048321Y072799D01*
X048321Y072722D01*
X048245Y072646D01*
X048091Y072646D01*
X048014Y072722D01*
X048014Y073029D02*
X048091Y073106D01*
X048245Y073106D01*
X048321Y073029D01*
X048475Y073029D02*
X048475Y072953D01*
X048552Y072876D01*
X048705Y072876D01*
X048782Y072799D01*
X048782Y072722D01*
X048705Y072646D01*
X048552Y072646D01*
X048475Y072722D01*
X048475Y072799D01*
X048552Y072876D01*
X048705Y072876D02*
X048782Y072953D01*
X048782Y073029D01*
X048705Y073106D01*
X048552Y073106D01*
X048475Y073029D01*
X048935Y072876D02*
X049242Y072876D01*
X049165Y072646D02*
X049165Y073106D01*
X048935Y072876D01*
X050841Y076896D02*
X050764Y076972D01*
X050841Y076896D02*
X050995Y076896D01*
X051071Y076972D01*
X051071Y077049D01*
X050995Y077126D01*
X050841Y077126D01*
X050764Y077203D01*
X050764Y077279D01*
X050841Y077356D01*
X050995Y077356D01*
X051071Y077279D01*
X051225Y077279D02*
X051225Y077203D01*
X051302Y077126D01*
X051455Y077126D01*
X051532Y077049D01*
X051532Y076972D01*
X051455Y076896D01*
X051302Y076896D01*
X051225Y076972D01*
X051225Y077049D01*
X051302Y077126D01*
X051455Y077126D02*
X051532Y077203D01*
X051532Y077279D01*
X051455Y077356D01*
X051302Y077356D01*
X051225Y077279D01*
X051685Y077279D02*
X051762Y077356D01*
X051915Y077356D01*
X051992Y077279D01*
X051685Y076972D01*
X051762Y076896D01*
X051915Y076896D01*
X051992Y076972D01*
X051992Y077279D01*
X051685Y077279D02*
X051685Y076972D01*
X051665Y084396D02*
X051512Y084396D01*
X051435Y084472D01*
X051589Y084626D02*
X051665Y084626D01*
X051742Y084549D01*
X051742Y084472D01*
X051665Y084396D01*
X051665Y084626D02*
X051742Y084703D01*
X051742Y084779D01*
X051665Y084856D01*
X051512Y084856D01*
X051435Y084779D01*
X051282Y084779D02*
X050975Y084472D01*
X050975Y084396D01*
X050821Y084472D02*
X050745Y084396D01*
X050591Y084396D01*
X050514Y084472D01*
X050591Y084626D02*
X050745Y084626D01*
X050821Y084549D01*
X050821Y084472D01*
X050591Y084626D02*
X050514Y084703D01*
X050514Y084779D01*
X050591Y084856D01*
X050745Y084856D01*
X050821Y084779D01*
X050975Y084856D02*
X051282Y084856D01*
X051282Y084779D01*
X055881Y089521D02*
X055804Y089597D01*
X055881Y089521D02*
X056034Y089521D01*
X056111Y089597D01*
X056111Y089674D01*
X056034Y089751D01*
X055881Y089751D01*
X055804Y089828D01*
X055804Y089904D01*
X055881Y089981D01*
X056034Y089981D01*
X056111Y089904D01*
X056264Y089981D02*
X056571Y089981D01*
X056571Y089904D01*
X056264Y089597D01*
X056264Y089521D01*
X056725Y089751D02*
X057032Y089751D01*
X057185Y089751D02*
X057415Y089751D01*
X057492Y089674D01*
X057492Y089597D01*
X057415Y089521D01*
X057185Y089521D01*
X057185Y089981D01*
X057415Y089981D01*
X057492Y089904D01*
X057492Y089828D01*
X057415Y089751D01*
X057679Y089828D02*
X057756Y089751D01*
X057909Y089751D01*
X057986Y089674D01*
X057986Y089597D01*
X057909Y089521D01*
X057756Y089521D01*
X057679Y089597D01*
X057679Y089828D02*
X057679Y089904D01*
X057756Y089981D01*
X057909Y089981D01*
X057986Y089904D01*
X058139Y089981D02*
X058446Y089981D01*
X058446Y089904D01*
X058139Y089597D01*
X058139Y089521D01*
X058600Y089751D02*
X058907Y089751D01*
X059060Y089751D02*
X059367Y089751D01*
X059367Y089828D02*
X059367Y089521D01*
X059367Y089828D02*
X059214Y089981D01*
X059060Y089828D01*
X059060Y089521D01*
X058830Y089521D02*
X058830Y089981D01*
X058600Y089751D01*
X058591Y092396D02*
X058514Y092472D01*
X058591Y092396D02*
X058745Y092396D01*
X058821Y092472D01*
X058821Y092549D01*
X058745Y092626D01*
X058591Y092626D01*
X058514Y092703D01*
X058514Y092779D01*
X058591Y092856D01*
X058745Y092856D01*
X058821Y092779D01*
X058975Y092626D02*
X059205Y092626D01*
X059282Y092549D01*
X059282Y092472D01*
X059205Y092396D01*
X059052Y092396D01*
X058975Y092472D01*
X058975Y092626D01*
X059128Y092779D01*
X059282Y092856D01*
X059435Y092626D02*
X059665Y092626D01*
X059742Y092549D01*
X059742Y092472D01*
X059665Y092396D01*
X059512Y092396D01*
X059435Y092472D01*
X059435Y092626D01*
X059589Y092779D01*
X059742Y092856D01*
X056955Y089981D02*
X056725Y089751D01*
X056955Y089521D02*
X056955Y089981D01*
X061631Y096771D02*
X061554Y096847D01*
X061631Y096771D02*
X061784Y096771D01*
X061861Y096847D01*
X061861Y096924D01*
X061784Y097001D01*
X061631Y097001D01*
X061554Y097078D01*
X061554Y097154D01*
X061631Y097231D01*
X061784Y097231D01*
X061861Y097154D01*
X062014Y097001D02*
X062245Y097001D01*
X062321Y096924D01*
X062321Y096847D01*
X062245Y096771D01*
X062091Y096771D01*
X062014Y096847D01*
X062014Y097001D01*
X062168Y097154D01*
X062321Y097231D01*
X062475Y097231D02*
X062782Y097231D01*
X062782Y097154D01*
X062475Y096847D01*
X062475Y096771D01*
X062935Y096771D02*
X063165Y096771D01*
X063242Y096847D01*
X063242Y096924D01*
X063165Y097001D01*
X062935Y097001D01*
X062935Y097231D02*
X063165Y097231D01*
X063242Y097154D01*
X063242Y097078D01*
X063165Y097001D01*
X062935Y096771D02*
X062935Y097231D01*
X062915Y099396D02*
X062992Y099472D01*
X062992Y099779D01*
X062915Y099856D01*
X062762Y099856D01*
X062685Y099779D01*
X062685Y099703D01*
X062762Y099626D01*
X062992Y099626D01*
X062915Y099396D02*
X062762Y099396D01*
X062685Y099472D01*
X062532Y099472D02*
X062455Y099396D01*
X062302Y099396D01*
X062225Y099472D01*
X062071Y099472D02*
X061995Y099396D01*
X061841Y099396D01*
X061764Y099472D01*
X061841Y099626D02*
X061995Y099626D01*
X062071Y099549D01*
X062071Y099472D01*
X062225Y099626D02*
X062378Y099703D01*
X062455Y099703D01*
X062532Y099626D01*
X062532Y099472D01*
X062225Y099626D02*
X062225Y099856D01*
X062532Y099856D01*
X062071Y099779D02*
X061995Y099856D01*
X061841Y099856D01*
X061764Y099779D01*
X061764Y099703D01*
X061841Y099626D01*
X054742Y109896D02*
X054435Y109896D01*
X054742Y110203D01*
X054742Y110279D01*
X054665Y110356D01*
X054512Y110356D01*
X054435Y110279D01*
X054282Y110356D02*
X053975Y110356D01*
X053975Y110126D01*
X054128Y110203D01*
X054205Y110203D01*
X054282Y110126D01*
X054282Y109972D01*
X054205Y109896D01*
X054052Y109896D01*
X053975Y109972D01*
X053821Y109972D02*
X053745Y109896D01*
X053591Y109896D01*
X053514Y109972D01*
X053591Y110126D02*
X053745Y110126D01*
X053821Y110049D01*
X053821Y109972D01*
X053591Y110126D02*
X053514Y110203D01*
X053514Y110279D01*
X053591Y110356D01*
X053745Y110356D01*
X053821Y110279D01*
X047742Y110646D02*
X047435Y110646D01*
X047589Y110646D02*
X047589Y111106D01*
X047435Y110953D01*
X047282Y110876D02*
X047282Y110722D01*
X047205Y110646D01*
X047052Y110646D01*
X046975Y110722D01*
X046821Y110722D02*
X046745Y110646D01*
X046591Y110646D01*
X046514Y110722D01*
X046591Y110876D02*
X046745Y110876D01*
X046821Y110799D01*
X046821Y110722D01*
X046975Y110876D02*
X047128Y110953D01*
X047205Y110953D01*
X047282Y110876D01*
X047282Y111106D02*
X046975Y111106D01*
X046975Y110876D01*
X046821Y111029D02*
X046745Y111106D01*
X046591Y111106D01*
X046514Y111029D01*
X046514Y110953D01*
X046591Y110876D01*
X039742Y110279D02*
X039435Y109972D01*
X039512Y109896D01*
X039665Y109896D01*
X039742Y109972D01*
X039742Y110279D01*
X039665Y110356D01*
X039512Y110356D01*
X039435Y110279D01*
X039435Y109972D01*
X039282Y109972D02*
X039205Y109896D01*
X039052Y109896D01*
X038975Y109972D01*
X038821Y109972D02*
X038745Y109896D01*
X038591Y109896D01*
X038514Y109972D01*
X038591Y110126D02*
X038745Y110126D01*
X038821Y110049D01*
X038821Y109972D01*
X038975Y110126D02*
X039128Y110203D01*
X039205Y110203D01*
X039282Y110126D01*
X039282Y109972D01*
X038975Y110126D02*
X038975Y110356D01*
X039282Y110356D01*
X038821Y110279D02*
X038745Y110356D01*
X038591Y110356D01*
X038514Y110279D01*
X038514Y110203D01*
X038591Y110126D01*
X032242Y110126D02*
X032012Y110126D01*
X031935Y110203D01*
X031935Y110279D01*
X032012Y110356D01*
X032165Y110356D01*
X032242Y110279D01*
X032242Y109972D01*
X032165Y109896D01*
X032012Y109896D01*
X031935Y109972D01*
X031782Y110126D02*
X031475Y110126D01*
X031705Y110356D01*
X031705Y109896D01*
X031321Y109972D02*
X031245Y109896D01*
X031091Y109896D01*
X031014Y109972D01*
X031091Y110126D02*
X031245Y110126D01*
X031321Y110049D01*
X031321Y109972D01*
X031091Y110126D02*
X031014Y110203D01*
X031014Y110279D01*
X031091Y110356D01*
X031245Y110356D01*
X031321Y110279D01*
X049264Y092529D02*
X049264Y092453D01*
X049341Y092376D01*
X049495Y092376D01*
X049571Y092299D01*
X049571Y092222D01*
X049495Y092146D01*
X049341Y092146D01*
X049264Y092222D01*
X049264Y092529D02*
X049341Y092606D01*
X049495Y092606D01*
X049571Y092529D01*
X049725Y092376D02*
X049955Y092376D01*
X050032Y092299D01*
X050032Y092222D01*
X049955Y092146D01*
X049802Y092146D01*
X049725Y092222D01*
X049725Y092376D01*
X049878Y092529D01*
X050032Y092606D01*
X050185Y092606D02*
X050185Y092376D01*
X050339Y092453D01*
X050415Y092453D01*
X050492Y092376D01*
X050492Y092222D01*
X050415Y092146D01*
X050262Y092146D01*
X050185Y092222D01*
X050185Y092606D02*
X050492Y092606D01*
X050591Y099396D02*
X050514Y099472D01*
X050591Y099396D02*
X050745Y099396D01*
X050821Y099472D01*
X050821Y099549D01*
X050745Y099626D01*
X050591Y099626D01*
X050514Y099703D01*
X050514Y099779D01*
X050591Y099856D01*
X050745Y099856D01*
X050821Y099779D01*
X050975Y099856D02*
X050975Y099626D01*
X051128Y099703D01*
X051205Y099703D01*
X051282Y099626D01*
X051282Y099472D01*
X051205Y099396D01*
X051052Y099396D01*
X050975Y099472D01*
X050975Y099856D02*
X051282Y099856D01*
X051435Y099779D02*
X051435Y099703D01*
X051512Y099626D01*
X051665Y099626D01*
X051742Y099549D01*
X051742Y099472D01*
X051665Y099396D01*
X051512Y099396D01*
X051435Y099472D01*
X051435Y099549D01*
X051512Y099626D01*
X051665Y099626D02*
X051742Y099703D01*
X051742Y099779D01*
X051665Y099856D01*
X051512Y099856D01*
X051435Y099779D01*
X065764Y113472D02*
X065841Y113396D01*
X065995Y113396D01*
X066071Y113472D01*
X066071Y113549D01*
X065995Y113626D01*
X065841Y113626D01*
X065764Y113703D01*
X065764Y113779D01*
X065841Y113856D01*
X065995Y113856D01*
X066071Y113779D01*
X066225Y113856D02*
X066532Y113856D01*
X066532Y113779D01*
X066225Y113472D01*
X066225Y113396D01*
X066685Y113626D02*
X066992Y113626D01*
X066915Y113856D02*
X066685Y113626D01*
X066915Y113396D02*
X066915Y113856D01*
X069881Y094356D02*
X069804Y094279D01*
X069804Y094203D01*
X069881Y094126D01*
X070034Y094126D01*
X070111Y094049D01*
X070111Y093972D01*
X070034Y093896D01*
X069881Y093896D01*
X069804Y093972D01*
X069881Y094356D02*
X070034Y094356D01*
X070111Y094279D01*
X070264Y094126D02*
X070495Y094126D01*
X070571Y094049D01*
X070571Y093972D01*
X070495Y093896D01*
X070341Y093896D01*
X070264Y093972D01*
X070264Y094126D01*
X070418Y094279D01*
X070571Y094356D01*
X070725Y094356D02*
X071032Y094356D01*
X071032Y094279D01*
X070725Y093972D01*
X070725Y093896D01*
X071185Y093972D02*
X071185Y094279D01*
X071262Y094356D01*
X071415Y094356D01*
X071492Y094279D01*
X071492Y093972D02*
X071415Y093896D01*
X071262Y093896D01*
X071185Y093972D01*
X068839Y077356D02*
X068685Y077203D01*
X068532Y077203D02*
X068455Y077126D01*
X068302Y077126D01*
X068225Y077203D01*
X068225Y077279D01*
X068302Y077356D01*
X068455Y077356D01*
X068532Y077279D01*
X068532Y077203D01*
X068455Y077126D02*
X068532Y077049D01*
X068532Y076972D01*
X068455Y076896D01*
X068302Y076896D01*
X068225Y076972D01*
X068225Y077049D01*
X068302Y077126D01*
X068071Y077049D02*
X068071Y076972D01*
X067995Y076896D01*
X067841Y076896D01*
X067764Y076972D01*
X067841Y077126D02*
X067995Y077126D01*
X068071Y077049D01*
X068071Y077279D02*
X067995Y077356D01*
X067841Y077356D01*
X067764Y077279D01*
X067764Y077203D01*
X067841Y077126D01*
X068685Y076896D02*
X068992Y076896D01*
X068839Y076896D02*
X068839Y077356D01*
X070341Y073356D02*
X070264Y073279D01*
X070264Y073203D01*
X070341Y073126D01*
X070495Y073126D01*
X070571Y073049D01*
X070571Y072972D01*
X070495Y072896D01*
X070341Y072896D01*
X070264Y072972D01*
X070341Y073356D02*
X070495Y073356D01*
X070571Y073279D01*
X070725Y073279D02*
X070725Y073203D01*
X070802Y073126D01*
X070955Y073126D01*
X071032Y073049D01*
X071032Y072972D01*
X070955Y072896D01*
X070802Y072896D01*
X070725Y072972D01*
X070725Y073049D01*
X070802Y073126D01*
X070955Y073126D02*
X071032Y073203D01*
X071032Y073279D01*
X070955Y073356D01*
X070802Y073356D01*
X070725Y073279D01*
X071185Y073126D02*
X071415Y073126D01*
X071492Y073049D01*
X071492Y072972D01*
X071415Y072896D01*
X071262Y072896D01*
X071185Y072972D01*
X071185Y073126D01*
X071339Y073279D01*
X071492Y073356D01*
X062992Y069856D02*
X062685Y069856D01*
X062685Y069626D01*
X062839Y069703D01*
X062915Y069703D01*
X062992Y069626D01*
X062992Y069472D01*
X062915Y069396D01*
X062762Y069396D01*
X062685Y069472D01*
X062532Y069472D02*
X062455Y069396D01*
X062302Y069396D01*
X062225Y069472D01*
X062225Y069549D01*
X062302Y069626D01*
X062455Y069626D01*
X062532Y069549D01*
X062532Y069472D01*
X062455Y069626D02*
X062532Y069703D01*
X062532Y069779D01*
X062455Y069856D01*
X062302Y069856D01*
X062225Y069779D01*
X062225Y069703D01*
X062302Y069626D01*
X062071Y069549D02*
X062071Y069472D01*
X061995Y069396D01*
X061841Y069396D01*
X061764Y069472D01*
X061841Y069626D02*
X061995Y069626D01*
X062071Y069549D01*
X062071Y069779D02*
X061995Y069856D01*
X061841Y069856D01*
X061764Y069779D01*
X061764Y069703D01*
X061841Y069626D01*
X058935Y076896D02*
X058935Y076972D01*
X059242Y077279D01*
X059242Y077356D01*
X058935Y077356D01*
X058782Y077356D02*
X058628Y077279D01*
X058475Y077126D01*
X058705Y077126D01*
X058782Y077049D01*
X058782Y076972D01*
X058705Y076896D01*
X058552Y076896D01*
X058475Y076972D01*
X058475Y077126D01*
X058321Y077049D02*
X058321Y076972D01*
X058245Y076896D01*
X058091Y076896D01*
X058014Y076972D01*
X058091Y077126D02*
X058245Y077126D01*
X058321Y077049D01*
X058321Y077279D02*
X058245Y077356D01*
X058091Y077356D01*
X058014Y077279D01*
X058014Y077203D01*
X058091Y077126D01*
X043742Y069779D02*
X043742Y069703D01*
X043665Y069626D01*
X043742Y069549D01*
X043742Y069472D01*
X043665Y069396D01*
X043512Y069396D01*
X043435Y069472D01*
X043282Y069472D02*
X043205Y069396D01*
X043052Y069396D01*
X042975Y069472D01*
X042975Y069549D01*
X043052Y069626D01*
X043205Y069626D01*
X043282Y069549D01*
X043282Y069472D01*
X043205Y069626D02*
X043282Y069703D01*
X043282Y069779D01*
X043205Y069856D01*
X043052Y069856D01*
X042975Y069779D01*
X042975Y069703D01*
X043052Y069626D01*
X042821Y069549D02*
X042821Y069472D01*
X042745Y069396D01*
X042591Y069396D01*
X042514Y069472D01*
X042591Y069626D02*
X042745Y069626D01*
X042821Y069549D01*
X042821Y069779D02*
X042745Y069856D01*
X042591Y069856D01*
X042514Y069779D01*
X042514Y069703D01*
X042591Y069626D01*
X043435Y069779D02*
X043512Y069856D01*
X043665Y069856D01*
X043742Y069779D01*
X043665Y069626D02*
X043589Y069626D01*
D12*
X028862Y075794D02*
X008389Y068707D01*
X028862Y068707D01*
X008389Y075794D01*
X008389Y068707D01*
X008389Y075794D02*
X028862Y075794D01*
X028862Y068707D01*
X029332Y068707D02*
X036419Y075794D01*
X036419Y068707D01*
X029332Y075794D01*
X029332Y068707D01*
X036419Y068707D01*
X036848Y068707D02*
X045903Y075794D01*
X045903Y068707D01*
X036848Y075794D01*
X036848Y068707D01*
X045903Y068707D01*
X046348Y068707D02*
X055403Y075794D01*
X055403Y068707D01*
X046348Y075794D01*
X046348Y068707D01*
X055403Y068707D01*
X055848Y068707D02*
X064903Y075794D01*
X064903Y068707D01*
X055848Y075794D01*
X055848Y068707D01*
X064903Y068707D01*
X065332Y068707D02*
X072419Y075794D01*
X072419Y068707D01*
X065332Y075794D01*
X065332Y068707D01*
X072419Y068707D01*
X072419Y075794D02*
X065332Y075794D01*
X064903Y075794D02*
X055848Y075794D01*
X055403Y075794D02*
X046348Y075794D01*
X045903Y075794D02*
X036848Y075794D01*
X036419Y075794D02*
X029332Y075794D01*
X030419Y076207D02*
X023332Y083294D01*
X023332Y076207D01*
X030419Y083294D01*
X030419Y076207D01*
X023332Y076207D01*
X022919Y076207D02*
X015832Y083294D01*
X015832Y076207D01*
X022919Y083294D01*
X022919Y076207D01*
X015832Y076207D01*
X015419Y076207D02*
X008332Y083294D01*
X008332Y076207D01*
X015419Y083294D01*
X015419Y076207D01*
X008332Y076207D01*
X008332Y083294D02*
X015419Y083294D01*
X015419Y083707D02*
X008332Y090794D01*
X008332Y083707D01*
X015419Y090794D01*
X015419Y083707D01*
X008332Y083707D01*
X008332Y090794D02*
X015419Y090794D01*
X015419Y091207D02*
X008332Y098294D01*
X008332Y091207D01*
X015419Y098294D01*
X015419Y091207D01*
X008332Y091207D01*
X008332Y098294D02*
X015419Y098294D01*
X015419Y098707D02*
X008332Y105794D01*
X008332Y098707D01*
X015419Y105794D01*
X015419Y098707D01*
X008332Y098707D01*
X008332Y105794D02*
X015419Y105794D01*
X015832Y105794D02*
X022919Y098707D01*
X022919Y105794D01*
X015832Y098707D01*
X022919Y098707D01*
X022919Y098294D02*
X015832Y091207D01*
X022919Y091207D01*
X015832Y098294D01*
X015832Y091207D01*
X015832Y090794D02*
X022919Y083707D01*
X022919Y090794D01*
X015832Y083707D01*
X022919Y083707D01*
X022919Y083294D02*
X015832Y083294D01*
X015832Y083707D02*
X015832Y090794D01*
X022919Y090794D01*
X023332Y090794D02*
X030419Y083707D01*
X030419Y090794D01*
X023332Y083707D01*
X030419Y083707D01*
X030419Y083294D02*
X023332Y083294D01*
X023332Y083707D02*
X023332Y090794D01*
X030419Y090794D01*
X030419Y091207D02*
X023332Y098294D01*
X023332Y091207D01*
X030419Y098294D01*
X030419Y091207D01*
X023332Y091207D01*
X022919Y091207D02*
X022919Y098294D01*
X015832Y098294D01*
X015832Y098707D02*
X015832Y105794D01*
X022919Y105794D01*
X023332Y105794D02*
X030419Y098707D01*
X030419Y105794D01*
X023332Y098707D01*
X030419Y098707D01*
X030419Y098294D02*
X023332Y098294D01*
X023332Y098707D02*
X023332Y105794D01*
X030419Y105794D01*
X030832Y105794D02*
X037919Y098707D01*
X037919Y105794D01*
X030832Y098707D01*
X037919Y098707D01*
X037919Y098294D02*
X030832Y091207D01*
X037919Y091207D01*
X030832Y098294D01*
X030832Y091207D01*
X030832Y090794D02*
X037919Y083707D01*
X037919Y090794D01*
X030832Y083707D01*
X037919Y083707D01*
X037919Y083294D02*
X030832Y076207D01*
X037919Y076207D01*
X030832Y083294D01*
X030832Y076207D01*
X030832Y083294D02*
X037919Y083294D01*
X037919Y076207D01*
X038332Y076207D02*
X045419Y083294D01*
X045419Y076207D01*
X038332Y083294D01*
X038332Y076207D01*
X045419Y076207D01*
X045832Y076207D02*
X052919Y083294D01*
X052919Y076207D01*
X045832Y083294D01*
X045832Y076207D01*
X052919Y076207D01*
X053332Y076207D02*
X060419Y083294D01*
X060419Y076207D01*
X053332Y083294D01*
X053332Y076207D01*
X060419Y076207D01*
X060864Y076207D02*
X071887Y083294D01*
X071887Y076207D01*
X060864Y083294D01*
X060864Y076207D01*
X071887Y076207D01*
X071887Y083294D02*
X060864Y083294D01*
X060419Y083294D02*
X053332Y083294D01*
X052919Y083294D02*
X045832Y083294D01*
X045419Y083294D02*
X038332Y083294D01*
X038332Y083707D02*
X045419Y090794D01*
X045419Y083707D01*
X038332Y090794D01*
X038332Y083707D01*
X045419Y083707D01*
X045832Y083707D02*
X052919Y090794D01*
X052919Y083707D01*
X045832Y090794D01*
X045832Y083707D01*
X052919Y083707D01*
X053342Y083707D02*
X067909Y090794D01*
X067909Y083707D01*
X053342Y090794D01*
X053342Y083707D01*
X067909Y083707D01*
X069893Y083707D02*
X053358Y090794D01*
X053358Y083707D01*
X069893Y090794D01*
X069893Y083707D01*
X053358Y083707D01*
X053358Y090794D02*
X069893Y090794D01*
X067909Y090794D02*
X053342Y090794D01*
X053332Y091207D02*
X060419Y098294D01*
X060419Y091207D01*
X053332Y098294D01*
X053332Y091207D01*
X060419Y091207D01*
X060832Y091207D02*
X067919Y098294D01*
X067919Y091207D01*
X060832Y098294D01*
X060832Y091207D01*
X067919Y091207D01*
X071887Y091207D02*
X071887Y098294D01*
X060864Y091207D01*
X071887Y091207D01*
X060864Y098294D01*
X060864Y091207D01*
X060864Y098294D02*
X071887Y098294D01*
X067919Y098294D02*
X060832Y098294D01*
X060419Y098294D02*
X053332Y098294D01*
X052919Y098294D02*
X045832Y091207D01*
X052919Y091207D01*
X045832Y098294D01*
X045832Y091207D01*
X045832Y090794D02*
X052919Y090794D01*
X052919Y091207D02*
X052919Y098294D01*
X045832Y098294D01*
X045419Y098294D02*
X038332Y091207D01*
X045419Y091207D01*
X038332Y098294D01*
X038332Y091207D01*
X038332Y090794D02*
X045419Y090794D01*
X045419Y091207D02*
X045419Y098294D01*
X038332Y098294D01*
X037919Y098294D02*
X037919Y091207D01*
X037919Y090794D02*
X030832Y090794D01*
X030832Y083707D01*
X030832Y098294D02*
X037919Y098294D01*
X038332Y098707D02*
X045419Y105794D01*
X045419Y098707D01*
X038332Y105794D01*
X038332Y098707D01*
X045419Y098707D01*
X045832Y098707D02*
X052919Y105794D01*
X052919Y098707D01*
X045832Y105794D01*
X045832Y098707D01*
X052919Y098707D01*
X053342Y098707D02*
X067909Y105794D01*
X067909Y098707D01*
X053342Y105794D01*
X053342Y098707D01*
X067909Y098707D01*
X067909Y105794D02*
X053342Y105794D01*
X052919Y105794D02*
X045832Y105794D01*
X045419Y105794D02*
X038332Y105794D01*
X037919Y105794D02*
X030832Y105794D01*
X030832Y098707D01*
X033419Y109207D02*
X026332Y109207D01*
X033419Y116294D01*
X033419Y109207D01*
X026332Y116294D01*
X026332Y109207D01*
X022919Y109207D02*
X015832Y116294D01*
X015832Y109207D01*
X022919Y116294D01*
X022919Y109207D01*
X015832Y109207D01*
X015419Y109207D02*
X008332Y116294D01*
X008332Y109207D01*
X015419Y116294D01*
X015419Y109207D01*
X008332Y109207D01*
X008332Y116294D02*
X015419Y116294D01*
X015832Y116294D02*
X022919Y116294D01*
X026332Y116294D02*
X033419Y116294D01*
X033832Y116294D02*
X040919Y109207D01*
X040919Y116294D01*
X033832Y109207D01*
X040919Y109207D01*
X041332Y109207D02*
X048419Y116294D01*
X048419Y109207D01*
X041332Y116294D01*
X041332Y109207D01*
X048419Y109207D01*
X048832Y109207D02*
X055919Y116294D01*
X055919Y109207D01*
X048832Y116294D01*
X048832Y109207D01*
X055919Y109207D01*
X060832Y109207D02*
X060832Y116294D01*
X067919Y109207D01*
X067919Y116294D01*
X060832Y109207D01*
X067919Y109207D01*
X067919Y116294D02*
X060832Y116294D01*
X055919Y116294D02*
X048832Y116294D01*
X048419Y116294D02*
X041332Y116294D01*
X040919Y116294D02*
X033832Y116294D01*
X033832Y109207D01*
D13*
X035641Y108941D02*
X036350Y108941D01*
X036350Y108311D02*
X035641Y108311D01*
X035516Y108066D02*
X036225Y108066D01*
X036225Y107436D02*
X035516Y107436D01*
X035391Y107191D02*
X036100Y107191D01*
X036100Y106561D02*
X035391Y106561D01*
X035401Y106316D02*
X036110Y106316D01*
X036110Y105686D02*
X035401Y105686D01*
X030941Y096600D02*
X030941Y095891D01*
X030311Y095891D02*
X030311Y096600D01*
X028735Y092066D02*
X028026Y092066D01*
X028026Y091436D02*
X028735Y091436D01*
X024941Y099016D02*
X024941Y099725D01*
X024311Y099725D02*
X024311Y099016D01*
X023316Y104016D02*
X023316Y104725D01*
X022686Y104725D02*
X022686Y104016D01*
X022501Y106351D02*
X022501Y107101D01*
X022540Y107103D01*
X022579Y107109D01*
X022617Y107118D01*
X022654Y107131D01*
X022690Y107148D01*
X022723Y107168D01*
X022755Y107192D01*
X022784Y107218D01*
X022810Y107247D01*
X022834Y107279D01*
X022854Y107312D01*
X022871Y107348D01*
X022884Y107385D01*
X022893Y107423D01*
X022899Y107462D01*
X022901Y107501D01*
X022899Y107540D01*
X022893Y107579D01*
X022884Y107617D01*
X022871Y107654D01*
X022854Y107690D01*
X022834Y107723D01*
X022810Y107755D01*
X022784Y107784D01*
X022755Y107810D01*
X022723Y107834D01*
X022690Y107854D01*
X022654Y107871D01*
X022617Y107884D01*
X022579Y107893D01*
X022540Y107899D01*
X022501Y107901D01*
X022501Y108651D01*
X029501Y108651D01*
X029501Y106351D01*
X022501Y106351D01*
X020751Y106626D02*
X020751Y107626D01*
X020743Y107626D02*
X019851Y107626D01*
X019751Y107526D01*
X019651Y107626D01*
X018851Y107626D01*
X018751Y107526D01*
X018651Y107626D01*
X017851Y107626D01*
X017751Y107526D01*
X017651Y107626D01*
X016851Y107626D01*
X016751Y107526D01*
X016651Y107626D01*
X015851Y107626D01*
X015751Y107526D01*
X015651Y107626D01*
X014851Y107626D01*
X014751Y107526D01*
X014651Y107626D01*
X013851Y107626D01*
X013751Y107526D01*
X013651Y107626D01*
X012851Y107626D01*
X012751Y107526D01*
X012651Y107626D01*
X011851Y107626D01*
X011751Y107526D01*
X011651Y107626D01*
X010851Y107626D01*
X010751Y107526D01*
X010651Y107626D01*
X009751Y107626D01*
X009751Y106626D01*
X010651Y106626D01*
X010751Y106726D01*
X010851Y106626D01*
X011651Y106626D01*
X011751Y106726D01*
X011851Y106626D01*
X012651Y106626D01*
X012751Y106726D01*
X012851Y106626D01*
X013651Y106626D01*
X013751Y106726D01*
X013851Y106626D01*
X014651Y106626D01*
X014751Y106726D01*
X014851Y106626D01*
X015651Y106626D01*
X015751Y106726D01*
X015851Y106626D01*
X016651Y106626D01*
X016751Y106726D01*
X016851Y106626D01*
X017651Y106626D01*
X017751Y106726D01*
X017851Y106626D01*
X018651Y106626D01*
X018751Y106726D01*
X018851Y106626D01*
X019651Y106626D01*
X019751Y106726D01*
X019851Y106626D01*
X020743Y106626D01*
X020451Y106926D02*
X020451Y107326D01*
X020351Y107326D01*
X020351Y107426D01*
X020151Y107426D01*
X020151Y107326D01*
X020051Y107326D01*
X020051Y106926D01*
X020151Y106926D01*
X020151Y106826D01*
X020351Y106826D01*
X020351Y106926D01*
X020451Y106926D01*
X019451Y106926D02*
X019451Y107326D01*
X019351Y107326D01*
X019351Y107426D01*
X019151Y107426D01*
X019151Y107326D01*
X019051Y107326D01*
X019051Y106926D01*
X019151Y106926D01*
X019151Y106826D01*
X019351Y106826D01*
X019351Y106926D01*
X019451Y106926D01*
X018451Y106926D02*
X018451Y107326D01*
X018351Y107326D01*
X018351Y107426D01*
X018151Y107426D01*
X018151Y107326D01*
X018051Y107326D01*
X018051Y106926D01*
X018151Y106926D01*
X018151Y106826D01*
X018351Y106826D01*
X018351Y106926D01*
X018451Y106926D01*
X017451Y106926D02*
X017451Y107326D01*
X017351Y107326D01*
X017351Y107426D01*
X017151Y107426D01*
X017151Y107326D01*
X017051Y107326D01*
X017051Y106926D01*
X017151Y106926D01*
X017151Y106826D01*
X017351Y106826D01*
X017351Y106926D01*
X017451Y106926D01*
X016451Y106926D02*
X016451Y107326D01*
X016351Y107326D01*
X016351Y107426D01*
X016151Y107426D01*
X016151Y107326D01*
X016051Y107326D01*
X016051Y106926D01*
X016151Y106926D01*
X016151Y106826D01*
X016351Y106826D01*
X016351Y106926D01*
X016451Y106926D01*
X015451Y106926D02*
X015451Y107326D01*
X015351Y107326D01*
X015351Y107426D01*
X015151Y107426D01*
X015151Y107326D01*
X015051Y107326D01*
X015051Y106926D01*
X015151Y106926D01*
X015151Y106826D01*
X015351Y106826D01*
X015351Y106926D01*
X015451Y106926D01*
X014451Y106926D02*
X014451Y107326D01*
X014351Y107326D01*
X014351Y107426D01*
X014151Y107426D01*
X014151Y107326D01*
X014051Y107326D01*
X014051Y106926D01*
X014151Y106926D01*
X014151Y106826D01*
X014351Y106826D01*
X014351Y106926D01*
X014451Y106926D01*
X013451Y106926D02*
X013451Y107326D01*
X013351Y107326D01*
X013351Y107426D01*
X013151Y107426D01*
X013151Y107326D01*
X013051Y107326D01*
X013051Y106926D01*
X013151Y106926D01*
X013151Y106826D01*
X013351Y106826D01*
X013351Y106926D01*
X013451Y106926D01*
X012451Y106926D02*
X012451Y107326D01*
X012351Y107326D01*
X012351Y107426D01*
X012151Y107426D01*
X012151Y107326D01*
X012051Y107326D01*
X012051Y106926D01*
X012151Y106926D01*
X012151Y106826D01*
X012351Y106826D01*
X012351Y106926D01*
X012451Y106926D01*
X011451Y106926D02*
X011451Y107326D01*
X011351Y107326D01*
X011351Y107426D01*
X011151Y107426D01*
X011151Y107326D01*
X011051Y107326D01*
X011051Y106926D01*
X011151Y106926D01*
X011151Y106826D01*
X011351Y106826D01*
X011351Y106926D01*
X011451Y106926D01*
X010451Y106926D02*
X010451Y107326D01*
X010351Y107326D01*
X010351Y107426D01*
X010151Y107426D01*
X010151Y107326D01*
X010051Y107326D01*
X010051Y106926D01*
X010151Y106926D01*
X010151Y106826D01*
X010351Y106826D01*
X010351Y106926D01*
X010451Y106926D01*
X023276Y109686D02*
X023985Y109686D01*
X023985Y110316D02*
X023276Y110316D01*
X023276Y110561D02*
X023985Y110561D01*
X023985Y111191D02*
X023276Y111191D01*
X023276Y111436D02*
X023985Y111436D01*
X023985Y112066D02*
X023276Y112066D01*
X024061Y113776D02*
X024061Y114485D01*
X024691Y114485D02*
X024691Y113776D01*
X024936Y113901D02*
X024936Y114610D01*
X025566Y114610D02*
X025566Y113901D01*
X026526Y114066D02*
X027235Y114066D01*
X027235Y113436D02*
X026526Y113436D01*
X025985Y112066D02*
X025276Y112066D01*
X025276Y111436D02*
X025985Y111436D01*
X026235Y110316D02*
X025526Y110316D01*
X025526Y109686D02*
X026235Y109686D01*
X043266Y108941D02*
X043975Y108941D01*
X043975Y108311D02*
X043266Y108311D01*
X043266Y108066D02*
X043975Y108066D01*
X043975Y107436D02*
X043266Y107436D01*
X043266Y107191D02*
X043975Y107191D01*
X043975Y106561D02*
X043266Y106561D01*
X044776Y104191D02*
X045485Y104191D01*
X045485Y103561D02*
X044776Y103561D01*
X043725Y099066D02*
X043016Y099066D01*
X043016Y098436D02*
X043725Y098436D01*
X050266Y098436D02*
X050975Y098436D01*
X050975Y099066D02*
X050266Y099066D01*
X052713Y093441D02*
X053423Y093441D01*
X053423Y092811D02*
X052713Y092811D01*
X051235Y084566D02*
X050526Y084566D01*
X050526Y083936D02*
X051235Y083936D01*
X045788Y081316D02*
X045079Y081316D01*
X045079Y080686D02*
X045788Y080686D01*
X045475Y088436D02*
X044766Y088436D01*
X044766Y089066D02*
X045475Y089066D01*
X039816Y076600D02*
X039816Y075891D01*
X039186Y075891D02*
X039186Y076600D01*
X036475Y074066D02*
X035766Y074066D01*
X035766Y073436D02*
X036475Y073436D01*
X026860Y075186D02*
X026151Y075186D01*
X026151Y075816D02*
X026860Y075816D01*
X050766Y106561D02*
X051475Y106561D01*
X051475Y107191D02*
X050766Y107191D01*
X050766Y107436D02*
X051475Y107436D01*
X051475Y108066D02*
X050766Y108066D01*
X050766Y108311D02*
X051475Y108311D01*
X051475Y108941D02*
X050766Y108941D01*
X055641Y108941D02*
X056350Y108941D01*
X056350Y109186D02*
X055641Y109186D01*
X055641Y109816D02*
X056350Y109816D01*
X056350Y108311D02*
X055641Y108311D01*
X055641Y108066D02*
X056350Y108066D01*
X056350Y107436D02*
X055641Y107436D01*
X055641Y107191D02*
X056350Y107191D01*
X056350Y106561D02*
X055641Y106561D01*
X056561Y113766D02*
X056561Y114475D01*
X057191Y114475D02*
X057191Y113766D01*
X057436Y113766D02*
X057436Y114475D01*
X058066Y114475D02*
X058066Y113766D01*
X058110Y115311D02*
X057401Y115311D01*
X057401Y115941D02*
X058110Y115941D01*
X063141Y108816D02*
X063850Y108816D01*
X063850Y108186D02*
X063141Y108186D01*
X063141Y107816D02*
X063850Y107816D01*
X063850Y107186D02*
X063141Y107186D01*
X063141Y106816D02*
X063850Y106816D01*
X063850Y106186D02*
X063141Y106186D01*
X067061Y101860D02*
X067061Y101151D01*
X067691Y101151D02*
X067691Y101860D01*
X068436Y101610D02*
X068436Y100901D01*
X069066Y100901D02*
X069066Y101610D01*
X068851Y103001D02*
X071151Y103001D01*
X071151Y111001D01*
X070401Y111001D01*
X070399Y110962D01*
X070393Y110923D01*
X070384Y110885D01*
X070371Y110848D01*
X070354Y110812D01*
X070334Y110779D01*
X070310Y110747D01*
X070284Y110718D01*
X070255Y110692D01*
X070223Y110668D01*
X070190Y110648D01*
X070154Y110631D01*
X070117Y110618D01*
X070079Y110609D01*
X070040Y110603D01*
X070001Y110601D01*
X069962Y110603D01*
X069923Y110609D01*
X069885Y110618D01*
X069848Y110631D01*
X069812Y110648D01*
X069779Y110668D01*
X069747Y110692D01*
X069718Y110718D01*
X069692Y110747D01*
X069668Y110779D01*
X069648Y110812D01*
X069631Y110848D01*
X069618Y110885D01*
X069609Y110923D01*
X069603Y110962D01*
X069601Y111001D01*
X068851Y111001D01*
X068851Y103001D01*
X068110Y114186D02*
X067401Y114186D01*
X067401Y114816D02*
X068110Y114816D01*
X065423Y084441D02*
X064713Y084441D01*
X064713Y083811D02*
X065423Y083811D01*
X065360Y073066D02*
X064651Y073066D01*
X064651Y072436D02*
X065360Y072436D01*
X064441Y069860D02*
X064441Y069151D01*
X063811Y069151D02*
X063811Y069860D01*
X054798Y073186D02*
X054088Y073186D01*
X054088Y073816D02*
X054798Y073816D01*
D14*
X020251Y106926D03*
X020251Y107326D03*
X019251Y107326D03*
X019251Y106926D03*
X018251Y106926D03*
X018251Y107326D03*
X017251Y107326D03*
X017251Y106926D03*
X016251Y106926D03*
X016251Y107326D03*
X015251Y107326D03*
X015251Y106926D03*
X014251Y106926D03*
X014251Y107326D03*
X013251Y107326D03*
X013251Y106926D03*
X012251Y106926D03*
X012251Y107326D03*
X011251Y107326D03*
X011251Y106926D03*
X010251Y106926D03*
X010251Y107326D03*
D15*
X023128Y110001D03*
X023128Y110876D03*
X023128Y111751D03*
X024128Y111751D03*
X024128Y110876D03*
X024128Y110001D03*
X025378Y110001D03*
X026378Y110001D03*
X026128Y111751D03*
X025128Y111751D03*
X026378Y113751D03*
X027378Y113751D03*
X035498Y108625D03*
X035373Y107750D03*
X035248Y106875D03*
X035253Y106001D03*
X036253Y106001D03*
X036248Y106875D03*
X036373Y107750D03*
X036498Y108625D03*
X043123Y108625D03*
X043123Y107750D03*
X043123Y106875D03*
X044123Y106875D03*
X044123Y107750D03*
X044123Y108625D03*
X044628Y103876D03*
X045628Y103876D03*
X043873Y098750D03*
X042873Y098750D03*
X044623Y088750D03*
X045623Y088750D03*
X050378Y084251D03*
X051378Y084251D03*
X045936Y081000D03*
X044936Y081000D03*
X036623Y073750D03*
X035623Y073750D03*
X027003Y075501D03*
X026003Y075501D03*
X027878Y091751D03*
X028878Y091751D03*
X050123Y098750D03*
X051123Y098750D03*
X052565Y093126D03*
X053565Y093126D03*
X055498Y106875D03*
X055498Y107750D03*
X055498Y108625D03*
X055498Y109500D03*
X056498Y109500D03*
X056498Y108625D03*
X056498Y107750D03*
X056498Y106875D03*
X051623Y106875D03*
X051623Y107750D03*
X051623Y108625D03*
X050623Y108625D03*
X050623Y107750D03*
X050623Y106875D03*
X057253Y115626D03*
X058253Y115626D03*
X062998Y108500D03*
X062998Y107500D03*
X062998Y106500D03*
X063998Y106500D03*
X063998Y107500D03*
X063998Y108500D03*
X067253Y114501D03*
X068253Y114501D03*
X065565Y084126D03*
X064565Y084126D03*
X064503Y072751D03*
X065503Y072751D03*
X054940Y073501D03*
X053940Y073501D03*
D16*
X064125Y070003D03*
X064125Y069003D03*
X068750Y100753D03*
X068750Y101753D03*
X067375Y102003D03*
X067375Y101003D03*
X057751Y113623D03*
X056876Y113623D03*
X056876Y114623D03*
X057751Y114623D03*
X039501Y076748D03*
X039501Y075748D03*
X030626Y095748D03*
X030626Y096748D03*
X024626Y098873D03*
X024626Y099873D03*
X023001Y103873D03*
X023001Y104873D03*
X024375Y113628D03*
X025250Y113753D03*
X025250Y114753D03*
X024375Y114628D03*
D17*
X022000Y108023D03*
X022001Y106978D03*
M02*
