G75*
G70*
%OFA0B0*%
%FSLAX24Y24*%
%IPPOS*%
%LPD*%
%AMOC8*
5,1,8,0,0,1.08239X$1,22.5*
%
%ADD10C,0.0051*%
%ADD11C,0.0110*%
%ADD12C,0.0100*%
%ADD13C,0.0160*%
%ADD14C,0.0050*%
%ADD15C,0.0040*%
%ADD16C,0.0079*%
%ADD17C,0.0060*%
%ADD18R,0.0100X0.0200*%
%ADD19R,0.0295X0.0689*%
%ADD20R,0.0669X0.0295*%
%ADD21R,0.0689X0.0295*%
%ADD22C,0.0000*%
D10*
X004002Y000913D02*
X006050Y000913D01*
X005026Y000811D01*
X005026Y000787D02*
X006050Y000913D01*
X005026Y001015D01*
X005026Y001039D02*
X005026Y000787D01*
X005026Y000862D02*
X006050Y000913D01*
X005026Y000964D01*
X005026Y001039D02*
X006050Y000913D01*
X006050Y001038D02*
X006050Y000126D01*
X006050Y001251D02*
X006050Y006538D01*
X005957Y005249D02*
X005705Y005249D01*
X005831Y004225D01*
X005933Y005249D01*
X005957Y005249D02*
X005831Y004225D01*
X005729Y005249D01*
X005780Y005249D02*
X005831Y004225D01*
X005882Y005249D01*
X005831Y004225D02*
X005831Y057225D01*
X005933Y056202D01*
X005957Y056202D02*
X005831Y057225D01*
X005729Y056202D01*
X005705Y056202D02*
X005957Y056202D01*
X005882Y056202D02*
X005831Y057225D01*
X005780Y056202D01*
X005705Y056202D02*
X005831Y057225D01*
X005044Y057225D02*
X008300Y057225D01*
X008237Y057413D02*
X008237Y059263D01*
X008237Y058475D02*
X009261Y058373D01*
X009261Y058350D02*
X008237Y058475D01*
X009261Y058578D01*
X009261Y058601D02*
X009261Y058350D01*
X009261Y058424D02*
X008237Y058475D01*
X009261Y058527D01*
X009261Y058601D02*
X008237Y058475D01*
X072800Y058475D01*
X071776Y058373D01*
X071776Y058350D02*
X072800Y058475D01*
X071776Y058578D01*
X071776Y058601D02*
X071776Y058350D01*
X071776Y058424D02*
X072800Y058475D01*
X071776Y058527D01*
X071776Y058601D02*
X072800Y058475D01*
X072800Y059263D02*
X072800Y056975D01*
X072800Y004538D02*
X072800Y001251D01*
X072800Y002038D02*
X071776Y001936D01*
X071776Y001912D02*
X072800Y002038D01*
X071776Y002140D01*
X071776Y002164D02*
X071776Y001912D01*
X071776Y001987D02*
X072800Y002038D01*
X071776Y002089D01*
X071776Y002164D02*
X072800Y002038D01*
X006050Y002038D01*
X007073Y001936D01*
X007073Y001912D02*
X006050Y002038D01*
X007073Y002140D01*
X007073Y002164D02*
X007073Y001912D01*
X007073Y001987D02*
X006050Y002038D01*
X007073Y002089D01*
X007073Y002164D02*
X006050Y002038D01*
X005044Y004225D02*
X008237Y004225D01*
X008237Y003913D02*
X008237Y000126D01*
X008237Y000913D02*
X009261Y000811D01*
X009261Y000787D02*
X008237Y000913D01*
X009261Y001015D01*
X009261Y001039D02*
X009261Y000787D01*
X009261Y000862D02*
X008237Y000913D01*
X009261Y000964D01*
X009261Y001039D02*
X008237Y000913D01*
X013098Y000913D01*
X004737Y004225D02*
X001544Y004225D01*
X002331Y004225D02*
X002433Y005249D01*
X002457Y005249D02*
X002331Y004225D01*
X002229Y005249D01*
X002205Y005249D02*
X002457Y005249D01*
X002382Y005249D02*
X002331Y004225D01*
X002280Y005249D01*
X002205Y005249D02*
X002331Y004225D01*
X002331Y014100D01*
X002433Y013077D01*
X002457Y013077D02*
X002331Y014100D01*
X002229Y013077D01*
X002205Y013077D02*
X002457Y013077D01*
X002382Y013077D02*
X002331Y014100D01*
X002280Y013077D01*
X002205Y013077D02*
X002331Y014100D01*
X001544Y014100D02*
X005550Y014100D01*
D11*
X001882Y011826D02*
X001882Y011403D01*
X001671Y011192D01*
X001459Y011192D01*
X001248Y011403D01*
X001248Y011826D01*
X001459Y012038D01*
X001671Y012038D01*
X001882Y011826D01*
X001248Y011826D02*
X001036Y012038D01*
X000825Y012038D01*
X000613Y011826D01*
X000613Y011403D01*
X000825Y011192D01*
X001036Y011192D01*
X001248Y011403D01*
X000825Y010769D02*
X001671Y010769D01*
X001882Y010558D01*
X001882Y010135D01*
X001671Y009923D01*
X000825Y010769D01*
X000613Y010558D01*
X000613Y010135D01*
X000825Y009923D01*
X001671Y009923D01*
X001671Y009500D02*
X001882Y009500D01*
X001882Y009289D01*
X001671Y009289D01*
X001671Y009500D01*
X001671Y008866D02*
X001248Y008866D01*
X001036Y008654D01*
X001036Y008443D01*
X001248Y008020D01*
X000613Y008020D01*
X000613Y008866D01*
X001671Y008866D02*
X001882Y008654D01*
X001882Y008231D01*
X001671Y008020D01*
X001882Y007597D02*
X001882Y006751D01*
X001036Y007597D01*
X000825Y007597D01*
X000613Y007386D01*
X000613Y006963D01*
X000825Y006751D01*
X009316Y002631D02*
X009316Y001996D01*
X009739Y002208D01*
X009950Y002208D01*
X010162Y001996D01*
X010162Y001573D01*
X009950Y001362D01*
X009527Y001362D01*
X009316Y001573D01*
X009316Y002631D02*
X010162Y002631D01*
X011219Y002631D02*
X011219Y001996D01*
X011642Y002208D01*
X011854Y002208D01*
X012065Y001996D01*
X012065Y001573D01*
X011854Y001362D01*
X011431Y001362D01*
X011219Y001573D01*
X010796Y001573D02*
X010796Y001362D01*
X010585Y001362D01*
X010585Y001573D01*
X010796Y001573D01*
X011219Y002631D02*
X012065Y002631D01*
X012488Y001996D02*
X013122Y001996D01*
X013334Y001785D01*
X013334Y001573D01*
X013122Y001362D01*
X012699Y001362D01*
X012488Y001573D01*
X012488Y001996D01*
X012911Y002419D01*
X013334Y002631D01*
X036465Y002487D02*
X037311Y002487D01*
X036888Y002487D02*
X036888Y003756D01*
X036465Y003333D01*
X037733Y003121D02*
X037733Y002698D01*
X037945Y002487D01*
X038368Y002487D01*
X038579Y002698D01*
X038579Y002910D01*
X038368Y003121D01*
X037733Y003121D01*
X038156Y003544D01*
X038579Y003756D01*
X039002Y003544D02*
X039002Y003333D01*
X039214Y003121D01*
X039848Y003121D01*
X039848Y002698D02*
X039848Y003544D01*
X039637Y003756D01*
X039214Y003756D01*
X039002Y003544D01*
X039002Y002698D02*
X039214Y002487D01*
X039637Y002487D01*
X039848Y002698D01*
X040271Y002698D02*
X040483Y002698D01*
X040483Y002487D01*
X040271Y002487D01*
X040271Y002698D01*
X040905Y002698D02*
X041117Y002487D01*
X041540Y002487D01*
X041751Y002698D01*
X041751Y003121D01*
X041540Y003333D01*
X041328Y003333D01*
X040905Y003121D01*
X040905Y003756D01*
X041751Y003756D01*
X042174Y003756D02*
X042174Y003121D01*
X042597Y003333D01*
X042809Y003333D01*
X043020Y003121D01*
X043020Y002698D01*
X042809Y002487D01*
X042386Y002487D01*
X042174Y002698D01*
X042174Y003756D02*
X043020Y003756D01*
X005382Y027765D02*
X005382Y028611D01*
X005382Y028188D02*
X004113Y028188D01*
X004536Y027765D01*
X004325Y029034D02*
X004113Y029246D01*
X004113Y029669D01*
X004325Y029880D01*
X004536Y029880D01*
X004748Y029669D01*
X004959Y029880D01*
X005171Y029880D01*
X005382Y029669D01*
X005382Y029246D01*
X005171Y029034D01*
X004748Y029457D02*
X004748Y029669D01*
X004748Y030303D02*
X004748Y031149D01*
X005171Y031572D02*
X005171Y031783D01*
X005382Y031783D01*
X005382Y031572D01*
X005171Y031572D01*
X005171Y032206D02*
X004748Y032206D01*
X004748Y032841D01*
X004959Y033052D01*
X005171Y033052D01*
X005382Y032841D01*
X005382Y032418D01*
X005171Y032206D01*
X004748Y032206D02*
X004325Y032629D01*
X004113Y033052D01*
X004325Y033475D02*
X004113Y033686D01*
X004113Y034109D01*
X004325Y034321D01*
X004536Y034321D01*
X005382Y033475D01*
X005382Y034321D01*
X005382Y030937D02*
X004113Y030937D01*
X004748Y030303D01*
X037558Y058924D02*
X038404Y058924D01*
X037981Y058924D02*
X037981Y060193D01*
X037558Y059770D01*
X038827Y059559D02*
X039462Y059559D01*
X039673Y059347D01*
X039673Y059136D01*
X039462Y058924D01*
X039039Y058924D01*
X038827Y059136D01*
X038827Y059559D01*
X039250Y059982D01*
X039673Y060193D01*
X040096Y059982D02*
X040307Y060193D01*
X040730Y060193D01*
X040942Y059982D01*
X040942Y059770D01*
X040730Y059559D01*
X040942Y059347D01*
X040942Y059136D01*
X040730Y058924D01*
X040307Y058924D01*
X040096Y059136D01*
X040519Y059559D02*
X040730Y059559D01*
X041365Y059136D02*
X041365Y058924D01*
X041576Y058924D01*
X041576Y059136D01*
X041365Y059136D01*
X041999Y059136D02*
X042211Y058924D01*
X042634Y058924D01*
X042845Y059136D01*
X042845Y059982D01*
X042634Y060193D01*
X042211Y060193D01*
X041999Y059982D01*
X041999Y059770D01*
X042211Y059559D01*
X042845Y059559D01*
X043268Y059770D02*
X043479Y059559D01*
X044114Y059559D01*
X044114Y059136D02*
X044114Y059982D01*
X043902Y060193D01*
X043479Y060193D01*
X043268Y059982D01*
X043268Y059770D01*
X043268Y059136D02*
X043479Y058924D01*
X043902Y058924D01*
X044114Y059136D01*
D12*
X014753Y036725D02*
X014755Y036787D01*
X014761Y036850D01*
X014771Y036911D01*
X014785Y036972D01*
X014802Y037032D01*
X014823Y037091D01*
X014849Y037148D01*
X014877Y037203D01*
X014909Y037257D01*
X014945Y037308D01*
X014983Y037358D01*
X015025Y037404D01*
X015069Y037448D01*
X015117Y037489D01*
X015166Y037527D01*
X015218Y037561D01*
X015272Y037592D01*
X015328Y037620D01*
X015386Y037644D01*
X015445Y037665D01*
X015505Y037681D01*
X015566Y037694D01*
X015628Y037703D01*
X015690Y037708D01*
X015753Y037709D01*
X015815Y037706D01*
X015877Y037699D01*
X015939Y037688D01*
X015999Y037673D01*
X016059Y037655D01*
X016117Y037633D01*
X016174Y037607D01*
X016229Y037577D01*
X016282Y037544D01*
X016333Y037508D01*
X016381Y037469D01*
X016427Y037426D01*
X016470Y037381D01*
X016510Y037333D01*
X016547Y037283D01*
X016581Y037230D01*
X016612Y037176D01*
X016638Y037120D01*
X016662Y037062D01*
X016681Y037002D01*
X016697Y036942D01*
X016709Y036880D01*
X016717Y036819D01*
X016721Y036756D01*
X016721Y036694D01*
X016717Y036631D01*
X016709Y036570D01*
X016697Y036508D01*
X016681Y036448D01*
X016662Y036388D01*
X016638Y036330D01*
X016612Y036274D01*
X016581Y036220D01*
X016547Y036167D01*
X016510Y036117D01*
X016470Y036069D01*
X016427Y036024D01*
X016381Y035981D01*
X016333Y035942D01*
X016282Y035906D01*
X016229Y035873D01*
X016174Y035843D01*
X016117Y035817D01*
X016059Y035795D01*
X015999Y035777D01*
X015939Y035762D01*
X015877Y035751D01*
X015815Y035744D01*
X015753Y035741D01*
X015690Y035742D01*
X015628Y035747D01*
X015566Y035756D01*
X015505Y035769D01*
X015445Y035785D01*
X015386Y035806D01*
X015328Y035830D01*
X015272Y035858D01*
X015218Y035889D01*
X015166Y035923D01*
X015117Y035961D01*
X015069Y036002D01*
X015025Y036046D01*
X014983Y036092D01*
X014945Y036142D01*
X014909Y036193D01*
X014877Y036247D01*
X014849Y036302D01*
X014823Y036359D01*
X014802Y036418D01*
X014785Y036478D01*
X014771Y036539D01*
X014761Y036600D01*
X014755Y036663D01*
X014753Y036725D01*
X014753Y029225D02*
X014755Y029287D01*
X014761Y029350D01*
X014771Y029411D01*
X014785Y029472D01*
X014802Y029532D01*
X014823Y029591D01*
X014849Y029648D01*
X014877Y029703D01*
X014909Y029757D01*
X014945Y029808D01*
X014983Y029858D01*
X015025Y029904D01*
X015069Y029948D01*
X015117Y029989D01*
X015166Y030027D01*
X015218Y030061D01*
X015272Y030092D01*
X015328Y030120D01*
X015386Y030144D01*
X015445Y030165D01*
X015505Y030181D01*
X015566Y030194D01*
X015628Y030203D01*
X015690Y030208D01*
X015753Y030209D01*
X015815Y030206D01*
X015877Y030199D01*
X015939Y030188D01*
X015999Y030173D01*
X016059Y030155D01*
X016117Y030133D01*
X016174Y030107D01*
X016229Y030077D01*
X016282Y030044D01*
X016333Y030008D01*
X016381Y029969D01*
X016427Y029926D01*
X016470Y029881D01*
X016510Y029833D01*
X016547Y029783D01*
X016581Y029730D01*
X016612Y029676D01*
X016638Y029620D01*
X016662Y029562D01*
X016681Y029502D01*
X016697Y029442D01*
X016709Y029380D01*
X016717Y029319D01*
X016721Y029256D01*
X016721Y029194D01*
X016717Y029131D01*
X016709Y029070D01*
X016697Y029008D01*
X016681Y028948D01*
X016662Y028888D01*
X016638Y028830D01*
X016612Y028774D01*
X016581Y028720D01*
X016547Y028667D01*
X016510Y028617D01*
X016470Y028569D01*
X016427Y028524D01*
X016381Y028481D01*
X016333Y028442D01*
X016282Y028406D01*
X016229Y028373D01*
X016174Y028343D01*
X016117Y028317D01*
X016059Y028295D01*
X015999Y028277D01*
X015939Y028262D01*
X015877Y028251D01*
X015815Y028244D01*
X015753Y028241D01*
X015690Y028242D01*
X015628Y028247D01*
X015566Y028256D01*
X015505Y028269D01*
X015445Y028285D01*
X015386Y028306D01*
X015328Y028330D01*
X015272Y028358D01*
X015218Y028389D01*
X015166Y028423D01*
X015117Y028461D01*
X015069Y028502D01*
X015025Y028546D01*
X014983Y028592D01*
X014945Y028642D01*
X014909Y028693D01*
X014877Y028747D01*
X014849Y028802D01*
X014823Y028859D01*
X014802Y028918D01*
X014785Y028978D01*
X014771Y029039D01*
X014761Y029100D01*
X014755Y029163D01*
X014753Y029225D01*
X014753Y021725D02*
X014755Y021787D01*
X014761Y021850D01*
X014771Y021911D01*
X014785Y021972D01*
X014802Y022032D01*
X014823Y022091D01*
X014849Y022148D01*
X014877Y022203D01*
X014909Y022257D01*
X014945Y022308D01*
X014983Y022358D01*
X015025Y022404D01*
X015069Y022448D01*
X015117Y022489D01*
X015166Y022527D01*
X015218Y022561D01*
X015272Y022592D01*
X015328Y022620D01*
X015386Y022644D01*
X015445Y022665D01*
X015505Y022681D01*
X015566Y022694D01*
X015628Y022703D01*
X015690Y022708D01*
X015753Y022709D01*
X015815Y022706D01*
X015877Y022699D01*
X015939Y022688D01*
X015999Y022673D01*
X016059Y022655D01*
X016117Y022633D01*
X016174Y022607D01*
X016229Y022577D01*
X016282Y022544D01*
X016333Y022508D01*
X016381Y022469D01*
X016427Y022426D01*
X016470Y022381D01*
X016510Y022333D01*
X016547Y022283D01*
X016581Y022230D01*
X016612Y022176D01*
X016638Y022120D01*
X016662Y022062D01*
X016681Y022002D01*
X016697Y021942D01*
X016709Y021880D01*
X016717Y021819D01*
X016721Y021756D01*
X016721Y021694D01*
X016717Y021631D01*
X016709Y021570D01*
X016697Y021508D01*
X016681Y021448D01*
X016662Y021388D01*
X016638Y021330D01*
X016612Y021274D01*
X016581Y021220D01*
X016547Y021167D01*
X016510Y021117D01*
X016470Y021069D01*
X016427Y021024D01*
X016381Y020981D01*
X016333Y020942D01*
X016282Y020906D01*
X016229Y020873D01*
X016174Y020843D01*
X016117Y020817D01*
X016059Y020795D01*
X015999Y020777D01*
X015939Y020762D01*
X015877Y020751D01*
X015815Y020744D01*
X015753Y020741D01*
X015690Y020742D01*
X015628Y020747D01*
X015566Y020756D01*
X015505Y020769D01*
X015445Y020785D01*
X015386Y020806D01*
X015328Y020830D01*
X015272Y020858D01*
X015218Y020889D01*
X015166Y020923D01*
X015117Y020961D01*
X015069Y021002D01*
X015025Y021046D01*
X014983Y021092D01*
X014945Y021142D01*
X014909Y021193D01*
X014877Y021247D01*
X014849Y021302D01*
X014823Y021359D01*
X014802Y021418D01*
X014785Y021478D01*
X014771Y021539D01*
X014761Y021600D01*
X014755Y021663D01*
X014753Y021725D01*
X014753Y014225D02*
X014755Y014287D01*
X014761Y014350D01*
X014771Y014411D01*
X014785Y014472D01*
X014802Y014532D01*
X014823Y014591D01*
X014849Y014648D01*
X014877Y014703D01*
X014909Y014757D01*
X014945Y014808D01*
X014983Y014858D01*
X015025Y014904D01*
X015069Y014948D01*
X015117Y014989D01*
X015166Y015027D01*
X015218Y015061D01*
X015272Y015092D01*
X015328Y015120D01*
X015386Y015144D01*
X015445Y015165D01*
X015505Y015181D01*
X015566Y015194D01*
X015628Y015203D01*
X015690Y015208D01*
X015753Y015209D01*
X015815Y015206D01*
X015877Y015199D01*
X015939Y015188D01*
X015999Y015173D01*
X016059Y015155D01*
X016117Y015133D01*
X016174Y015107D01*
X016229Y015077D01*
X016282Y015044D01*
X016333Y015008D01*
X016381Y014969D01*
X016427Y014926D01*
X016470Y014881D01*
X016510Y014833D01*
X016547Y014783D01*
X016581Y014730D01*
X016612Y014676D01*
X016638Y014620D01*
X016662Y014562D01*
X016681Y014502D01*
X016697Y014442D01*
X016709Y014380D01*
X016717Y014319D01*
X016721Y014256D01*
X016721Y014194D01*
X016717Y014131D01*
X016709Y014070D01*
X016697Y014008D01*
X016681Y013948D01*
X016662Y013888D01*
X016638Y013830D01*
X016612Y013774D01*
X016581Y013720D01*
X016547Y013667D01*
X016510Y013617D01*
X016470Y013569D01*
X016427Y013524D01*
X016381Y013481D01*
X016333Y013442D01*
X016282Y013406D01*
X016229Y013373D01*
X016174Y013343D01*
X016117Y013317D01*
X016059Y013295D01*
X015999Y013277D01*
X015939Y013262D01*
X015877Y013251D01*
X015815Y013244D01*
X015753Y013241D01*
X015690Y013242D01*
X015628Y013247D01*
X015566Y013256D01*
X015505Y013269D01*
X015445Y013285D01*
X015386Y013306D01*
X015328Y013330D01*
X015272Y013358D01*
X015218Y013389D01*
X015166Y013423D01*
X015117Y013461D01*
X015069Y013502D01*
X015025Y013546D01*
X014983Y013592D01*
X014945Y013642D01*
X014909Y013693D01*
X014877Y013747D01*
X014849Y013802D01*
X014823Y013859D01*
X014802Y013918D01*
X014785Y013978D01*
X014771Y014039D01*
X014761Y014100D01*
X014755Y014163D01*
X014753Y014225D01*
D13*
X023237Y039725D02*
X023237Y040133D01*
X023237Y040527D02*
X023237Y040935D01*
X023237Y041329D02*
X023237Y041736D01*
X023237Y042130D02*
X023237Y042538D01*
X022887Y042880D01*
X022606Y043156D02*
X022256Y043498D01*
X021975Y043773D02*
X021625Y044115D01*
X021343Y044391D02*
X020994Y044733D01*
X020712Y045008D02*
X020362Y045350D01*
D14*
X020337Y045975D02*
X020337Y046426D01*
X020187Y046276D01*
X020187Y045975D02*
X020487Y045975D01*
X020648Y045975D02*
X020948Y046276D01*
X020948Y046351D01*
X020873Y046426D01*
X020723Y046426D01*
X020648Y046351D01*
X020648Y045975D02*
X020948Y045975D01*
X022956Y045975D02*
X023256Y046276D01*
X023256Y046351D01*
X023181Y046426D01*
X023031Y046426D01*
X022956Y046351D01*
X022956Y045975D02*
X023256Y045975D01*
X023416Y045975D02*
X023416Y046426D01*
X023642Y046426D01*
X023717Y046351D01*
X023717Y046051D01*
X023642Y045975D01*
X023416Y045975D01*
X023877Y045975D02*
X024177Y046276D01*
X024177Y046351D01*
X024102Y046426D01*
X023952Y046426D01*
X023877Y046351D01*
X023877Y045975D02*
X024177Y045975D01*
X022487Y047975D02*
X022487Y053975D01*
X016487Y053975D01*
X016487Y047975D01*
X022487Y047975D01*
X026987Y047975D02*
X026987Y053975D01*
X032987Y053975D01*
X032987Y047975D01*
X026987Y047975D01*
X023987Y043475D02*
X029987Y043475D01*
X029987Y037475D01*
X023987Y037475D01*
X023987Y043475D01*
X022487Y043475D02*
X022487Y037475D01*
X016487Y037475D01*
X016487Y043475D01*
X022487Y043475D01*
X014987Y043475D02*
X014987Y037475D01*
X008987Y037475D01*
X008987Y043475D01*
X014987Y043475D01*
X010487Y045975D02*
X010187Y045975D01*
X010337Y045975D02*
X010337Y046426D01*
X010187Y046276D01*
X008937Y046146D02*
X008487Y046146D01*
X008712Y045921D01*
X008712Y046222D01*
X008787Y045761D02*
X008487Y045761D01*
X008787Y045761D02*
X008937Y045611D01*
X008787Y045461D01*
X008487Y045461D01*
X008562Y045301D02*
X008487Y045226D01*
X008487Y045076D01*
X008562Y045000D01*
X008637Y045000D01*
X008712Y045076D01*
X008712Y045226D01*
X008787Y045301D01*
X008862Y045301D01*
X008937Y045226D01*
X008937Y045076D01*
X008862Y045000D01*
X008987Y047975D02*
X008987Y053975D01*
X014987Y053975D01*
X014987Y047975D01*
X008987Y047975D01*
X008987Y035975D02*
X014987Y035975D01*
X014987Y029975D01*
X008987Y029975D01*
X008987Y035975D01*
X016487Y035975D02*
X016487Y029975D01*
X022487Y029975D01*
X022487Y035975D01*
X016487Y035975D01*
X023987Y035975D02*
X023987Y029975D01*
X029987Y029975D01*
X029987Y035975D01*
X023987Y035975D01*
X031487Y035975D02*
X031487Y029975D01*
X037487Y029975D01*
X037487Y035975D01*
X031487Y035975D01*
X031487Y037475D02*
X031487Y043475D01*
X037487Y043475D01*
X037487Y037475D01*
X031487Y037475D01*
X038987Y037475D02*
X038987Y043475D01*
X044987Y043475D01*
X044987Y037475D01*
X038987Y037475D01*
X038987Y035975D02*
X044987Y035975D01*
X044987Y029975D01*
X038987Y029975D01*
X038987Y035975D01*
X046487Y035975D02*
X046487Y029975D01*
X052487Y029975D01*
X052487Y035975D01*
X046487Y035975D01*
X046487Y037475D02*
X046487Y043475D01*
X052487Y043475D01*
X052487Y037475D01*
X046487Y037475D01*
X053987Y035975D02*
X059987Y035975D01*
X059987Y029975D01*
X053987Y029975D01*
X053987Y035975D01*
X057737Y037475D02*
X057737Y043475D01*
X063737Y043475D01*
X063737Y037475D01*
X057737Y037475D01*
X061487Y035975D02*
X067487Y035975D01*
X067487Y029975D01*
X061487Y029975D01*
X061487Y035975D01*
X058737Y028475D02*
X064737Y028475D01*
X064737Y022475D01*
X058737Y022475D01*
X058737Y028475D01*
X052487Y028475D02*
X052487Y022475D01*
X046487Y022475D01*
X046487Y028475D01*
X052487Y028475D01*
X044987Y028475D02*
X044987Y022475D01*
X038987Y022475D01*
X038987Y028475D01*
X044987Y028475D01*
X037487Y028475D02*
X037487Y022475D01*
X031487Y022475D01*
X031487Y028475D01*
X037487Y028475D01*
X029987Y028475D02*
X029987Y022475D01*
X023987Y022475D01*
X023987Y028475D01*
X029987Y028475D01*
X022487Y028475D02*
X022487Y022475D01*
X016487Y022475D01*
X016487Y028475D01*
X022487Y028475D01*
X014987Y028475D02*
X014987Y022475D01*
X008987Y022475D01*
X008987Y028475D01*
X014987Y028475D01*
X014987Y020975D02*
X008987Y020975D01*
X008987Y014975D01*
X014987Y014975D01*
X014987Y020975D01*
X016487Y020975D02*
X022487Y020975D01*
X022487Y014975D01*
X016487Y014975D01*
X016487Y020975D01*
X023987Y020975D02*
X023987Y014975D01*
X029987Y014975D01*
X029987Y020975D01*
X023987Y020975D01*
X031487Y020975D02*
X031487Y014975D01*
X037487Y014975D01*
X037487Y020975D01*
X031487Y020975D01*
X038987Y020975D02*
X038987Y014975D01*
X044987Y014975D01*
X044987Y020975D01*
X038987Y020975D01*
X046487Y020975D02*
X046487Y014975D01*
X052487Y014975D01*
X052487Y020975D01*
X046487Y020975D01*
X045487Y013475D02*
X051487Y013475D01*
X051487Y007475D01*
X045487Y007475D01*
X045487Y013475D01*
X042987Y013475D02*
X042987Y007475D01*
X036987Y007475D01*
X036987Y013475D01*
X042987Y013475D01*
X041925Y013475D02*
X041925Y007475D01*
X035925Y007475D01*
X035925Y013475D01*
X041925Y013475D01*
X034487Y013475D02*
X034487Y007475D01*
X028487Y007475D01*
X028487Y013475D01*
X034487Y013475D01*
X033550Y013475D02*
X033550Y007475D01*
X027550Y007475D01*
X027550Y013475D01*
X033550Y013475D01*
X021362Y013475D02*
X021362Y007475D01*
X015362Y007475D01*
X015362Y013475D01*
X021362Y013475D01*
X019362Y013475D02*
X019362Y007475D01*
X013362Y007475D01*
X013362Y013475D01*
X019362Y013475D01*
X054987Y013475D02*
X054987Y007475D01*
X060987Y007475D01*
X060987Y013475D01*
X054987Y013475D01*
X054987Y014975D02*
X054987Y020975D01*
X060987Y020975D01*
X060987Y014975D01*
X054987Y014975D01*
X063487Y014975D02*
X063487Y020975D01*
X069487Y020975D01*
X069487Y014975D01*
X063487Y014975D01*
X063487Y013475D02*
X069487Y013475D01*
X069487Y007475D01*
X063487Y007475D01*
X063487Y013475D01*
X063362Y046525D02*
X063662Y046826D01*
X063662Y046901D01*
X063587Y046976D01*
X063437Y046976D01*
X063362Y046901D01*
X063362Y046525D02*
X063662Y046525D01*
X063823Y046525D02*
X064048Y046525D01*
X064123Y046601D01*
X064123Y046901D01*
X064048Y046976D01*
X063823Y046976D01*
X063823Y046525D01*
X064283Y046525D02*
X064583Y046525D01*
X064433Y046525D02*
X064433Y046976D01*
X064283Y046826D01*
X063487Y047975D02*
X063487Y053975D01*
X069487Y053975D01*
X069487Y047975D01*
X063487Y047975D01*
X055487Y047975D02*
X055487Y053975D01*
X049487Y053975D01*
X049487Y047975D01*
X055487Y047975D01*
X047987Y047975D02*
X047987Y053975D01*
X041987Y053975D01*
X041987Y047975D01*
X047987Y047975D01*
X040487Y047975D02*
X040487Y053975D01*
X034487Y053975D01*
X034487Y047975D01*
X040487Y047975D01*
D15*
X042328Y049745D02*
X042251Y049822D01*
X042328Y049745D02*
X042481Y049745D01*
X042558Y049822D01*
X042558Y049899D01*
X042481Y049976D01*
X042328Y049976D01*
X042251Y050052D01*
X042251Y050129D01*
X042328Y050206D01*
X042481Y050206D01*
X042558Y050129D01*
X042711Y050206D02*
X042711Y049976D01*
X042865Y050052D01*
X042942Y050052D01*
X043018Y049976D01*
X043018Y049822D01*
X042942Y049745D01*
X042788Y049745D01*
X042711Y049822D01*
X042711Y050206D02*
X043018Y050206D01*
X043172Y050052D02*
X043325Y050206D01*
X043325Y049745D01*
X043172Y049745D02*
X043479Y049745D01*
X049501Y049822D02*
X049578Y049745D01*
X049731Y049745D01*
X049808Y049822D01*
X049808Y049899D01*
X049731Y049976D01*
X049578Y049976D01*
X049501Y050052D01*
X049501Y050129D01*
X049578Y050206D01*
X049731Y050206D01*
X049808Y050129D01*
X049961Y050206D02*
X049961Y049976D01*
X050115Y050052D01*
X050192Y050052D01*
X050268Y049976D01*
X050268Y049822D01*
X050192Y049745D01*
X050038Y049745D01*
X049961Y049822D01*
X049961Y050206D02*
X050268Y050206D01*
X050422Y050129D02*
X050499Y050206D01*
X050652Y050206D01*
X050729Y050129D01*
X050729Y050052D01*
X050422Y049745D01*
X050729Y049745D01*
X047777Y041456D02*
X047854Y041379D01*
X047854Y041302D01*
X047777Y041226D01*
X047624Y041226D01*
X047547Y041302D01*
X047547Y041379D01*
X047624Y041456D01*
X047777Y041456D01*
X047777Y041226D02*
X047854Y041149D01*
X047854Y041072D01*
X047777Y040995D01*
X047624Y040995D01*
X047547Y041072D01*
X047547Y041149D01*
X047624Y041226D01*
X047393Y041226D02*
X047393Y041072D01*
X047317Y040995D01*
X047163Y040995D01*
X047086Y041072D01*
X046933Y041072D02*
X046856Y040995D01*
X046703Y040995D01*
X046626Y041072D01*
X046703Y041226D02*
X046626Y041302D01*
X046626Y041379D01*
X046703Y041456D01*
X046856Y041456D01*
X046933Y041379D01*
X046856Y041226D02*
X046933Y041149D01*
X046933Y041072D01*
X046856Y041226D02*
X046703Y041226D01*
X047086Y041226D02*
X047240Y041302D01*
X047317Y041302D01*
X047393Y041226D01*
X047393Y041456D02*
X047086Y041456D01*
X047086Y041226D01*
X041479Y039831D02*
X041479Y039754D01*
X041172Y039447D01*
X041172Y039370D01*
X041018Y039447D02*
X040942Y039370D01*
X040788Y039370D01*
X040711Y039447D01*
X040558Y039447D02*
X040481Y039370D01*
X040328Y039370D01*
X040251Y039447D01*
X040328Y039601D02*
X040481Y039601D01*
X040558Y039524D01*
X040558Y039447D01*
X040711Y039601D02*
X040865Y039677D01*
X040942Y039677D01*
X041018Y039601D01*
X041018Y039447D01*
X040711Y039601D02*
X040711Y039831D01*
X041018Y039831D01*
X041172Y039831D02*
X041479Y039831D01*
X040558Y039754D02*
X040481Y039831D01*
X040328Y039831D01*
X040251Y039754D01*
X040251Y039677D01*
X040328Y039601D01*
X040402Y034081D02*
X040172Y033851D01*
X040479Y033851D01*
X040402Y034081D02*
X040402Y033620D01*
X040018Y033697D02*
X040018Y033774D01*
X039942Y033851D01*
X039711Y033851D01*
X039711Y033697D01*
X039788Y033620D01*
X039942Y033620D01*
X040018Y033697D01*
X039865Y034004D02*
X039711Y033851D01*
X039558Y033774D02*
X039558Y033697D01*
X039481Y033620D01*
X039328Y033620D01*
X039251Y033697D01*
X039328Y033851D02*
X039481Y033851D01*
X039558Y033774D01*
X039558Y034004D02*
X039481Y034081D01*
X039328Y034081D01*
X039251Y034004D01*
X039251Y033927D01*
X039328Y033851D01*
X039865Y034004D02*
X040018Y034081D01*
X036777Y030581D02*
X036854Y030504D01*
X036854Y030427D01*
X036777Y030351D01*
X036854Y030274D01*
X036854Y030197D01*
X036777Y030120D01*
X036624Y030120D01*
X036547Y030197D01*
X036393Y030197D02*
X036393Y030274D01*
X036317Y030351D01*
X036086Y030351D01*
X036086Y030197D01*
X036163Y030120D01*
X036317Y030120D01*
X036393Y030197D01*
X036240Y030504D02*
X036086Y030351D01*
X035933Y030274D02*
X035933Y030197D01*
X035856Y030120D01*
X035703Y030120D01*
X035626Y030197D01*
X035703Y030351D02*
X035856Y030351D01*
X035933Y030274D01*
X035933Y030504D02*
X035856Y030581D01*
X035703Y030581D01*
X035626Y030504D01*
X035626Y030427D01*
X035703Y030351D01*
X036240Y030504D02*
X036393Y030581D01*
X036547Y030504D02*
X036624Y030581D01*
X036777Y030581D01*
X036777Y030351D02*
X036700Y030351D01*
X033575Y024956D02*
X033575Y024495D01*
X033422Y024495D02*
X033729Y024495D01*
X033422Y024802D02*
X033575Y024956D01*
X033268Y024956D02*
X033268Y024879D01*
X032961Y024572D01*
X032961Y024495D01*
X032808Y024572D02*
X032731Y024495D01*
X032578Y024495D01*
X032501Y024572D01*
X032578Y024726D02*
X032731Y024726D01*
X032808Y024649D01*
X032808Y024572D01*
X032578Y024726D02*
X032501Y024802D01*
X032501Y024879D01*
X032578Y024956D01*
X032731Y024956D01*
X032808Y024879D01*
X032961Y024956D02*
X033268Y024956D01*
X039626Y024754D02*
X039626Y024677D01*
X039703Y024601D01*
X039856Y024601D01*
X039933Y024524D01*
X039933Y024447D01*
X039856Y024370D01*
X039703Y024370D01*
X039626Y024447D01*
X039626Y024754D02*
X039703Y024831D01*
X039856Y024831D01*
X039933Y024754D01*
X040086Y024831D02*
X040393Y024831D01*
X040393Y024754D01*
X040086Y024447D01*
X040086Y024370D01*
X040547Y024370D02*
X040854Y024677D01*
X040854Y024754D01*
X040777Y024831D01*
X040624Y024831D01*
X040547Y024754D01*
X040547Y024370D02*
X040854Y024370D01*
X046876Y026072D02*
X046953Y025995D01*
X047106Y025995D01*
X047183Y026072D01*
X047183Y026149D01*
X047106Y026226D01*
X046953Y026226D01*
X046876Y026302D01*
X046876Y026379D01*
X046953Y026456D01*
X047106Y026456D01*
X047183Y026379D01*
X047336Y026456D02*
X047643Y026456D01*
X047643Y026379D01*
X047336Y026072D01*
X047336Y025995D01*
X047797Y026072D02*
X047874Y025995D01*
X048027Y025995D01*
X048104Y026072D01*
X048104Y026149D01*
X048027Y026226D01*
X047950Y026226D01*
X048027Y026226D02*
X048104Y026302D01*
X048104Y026379D01*
X048027Y026456D01*
X047874Y026456D01*
X047797Y026379D01*
X049453Y030370D02*
X049376Y030447D01*
X049453Y030370D02*
X049606Y030370D01*
X049683Y030447D01*
X049683Y030524D01*
X049606Y030601D01*
X049453Y030601D01*
X049376Y030677D01*
X049376Y030754D01*
X049453Y030831D01*
X049606Y030831D01*
X049683Y030754D01*
X049836Y030601D02*
X050067Y030601D01*
X050143Y030524D01*
X050143Y030447D01*
X050067Y030370D01*
X049913Y030370D01*
X049836Y030447D01*
X049836Y030601D01*
X049990Y030754D01*
X050143Y030831D01*
X050297Y030831D02*
X050297Y030601D01*
X050450Y030677D01*
X050527Y030677D01*
X050604Y030601D01*
X050604Y030447D01*
X050527Y030370D01*
X050374Y030370D01*
X050297Y030447D01*
X050297Y030831D02*
X050604Y030831D01*
X054251Y033697D02*
X054328Y033620D01*
X054481Y033620D01*
X054558Y033697D01*
X054558Y033774D01*
X054481Y033851D01*
X054328Y033851D01*
X054251Y033927D01*
X054251Y034004D01*
X054328Y034081D01*
X054481Y034081D01*
X054558Y034004D01*
X054711Y033851D02*
X054942Y033851D01*
X055018Y033774D01*
X055018Y033697D01*
X054942Y033620D01*
X054788Y033620D01*
X054711Y033697D01*
X054711Y033851D01*
X054865Y034004D01*
X055018Y034081D01*
X055172Y033851D02*
X055402Y033851D01*
X055479Y033774D01*
X055479Y033697D01*
X055402Y033620D01*
X055249Y033620D01*
X055172Y033697D01*
X055172Y033851D01*
X055325Y034004D01*
X055479Y034081D01*
X062041Y033879D02*
X062041Y033802D01*
X062117Y033726D01*
X062271Y033726D01*
X062348Y033649D01*
X062348Y033572D01*
X062271Y033495D01*
X062117Y033495D01*
X062041Y033572D01*
X062041Y033879D02*
X062117Y033956D01*
X062271Y033956D01*
X062348Y033879D01*
X062501Y033726D02*
X062731Y033726D01*
X062808Y033649D01*
X062808Y033572D01*
X062731Y033495D01*
X062578Y033495D01*
X062501Y033572D01*
X062501Y033726D01*
X062655Y033879D01*
X062808Y033956D01*
X062961Y033956D02*
X063268Y033956D01*
X063268Y033879D01*
X062961Y033572D01*
X062961Y033495D01*
X063422Y033572D02*
X063499Y033495D01*
X063652Y033495D01*
X063729Y033572D01*
X063729Y033879D02*
X063652Y033956D01*
X063499Y033956D01*
X063422Y033879D01*
X063422Y033572D01*
X059325Y028206D02*
X059479Y028052D01*
X059479Y027745D01*
X059479Y027976D02*
X059172Y027976D01*
X059172Y028052D02*
X059325Y028206D01*
X059172Y028052D02*
X059172Y027745D01*
X058942Y027745D02*
X058942Y028206D01*
X058711Y027976D01*
X059018Y027976D01*
X058558Y028129D02*
X058251Y027822D01*
X058251Y027745D01*
X058098Y027822D02*
X058021Y027745D01*
X057867Y027745D01*
X057791Y027822D01*
X057867Y027976D02*
X058021Y027976D01*
X058098Y027899D01*
X058098Y027822D01*
X057867Y027976D02*
X057791Y028052D01*
X057791Y028129D01*
X057867Y028206D01*
X058021Y028206D01*
X058098Y028129D01*
X058251Y028206D02*
X058558Y028206D01*
X058558Y028129D01*
X056200Y018956D02*
X056200Y018495D01*
X056047Y018495D02*
X056354Y018495D01*
X056047Y018802D02*
X056200Y018956D01*
X055893Y018879D02*
X055893Y018802D01*
X055817Y018726D01*
X055663Y018726D01*
X055586Y018802D01*
X055586Y018879D01*
X055663Y018956D01*
X055817Y018956D01*
X055893Y018879D01*
X055817Y018726D02*
X055893Y018649D01*
X055893Y018572D01*
X055817Y018495D01*
X055663Y018495D01*
X055586Y018572D01*
X055586Y018649D01*
X055663Y018726D01*
X055433Y018649D02*
X055433Y018572D01*
X055356Y018495D01*
X055203Y018495D01*
X055126Y018572D01*
X055203Y018726D02*
X055356Y018726D01*
X055433Y018649D01*
X055433Y018879D02*
X055356Y018956D01*
X055203Y018956D01*
X055126Y018879D01*
X055126Y018802D01*
X055203Y018726D01*
X047854Y017129D02*
X047547Y016822D01*
X047624Y016745D01*
X047777Y016745D01*
X047854Y016822D01*
X047854Y017129D01*
X047777Y017206D01*
X047624Y017206D01*
X047547Y017129D01*
X047547Y016822D01*
X047393Y016822D02*
X047317Y016745D01*
X047163Y016745D01*
X047086Y016822D01*
X047086Y016899D01*
X047163Y016976D01*
X047317Y016976D01*
X047393Y016899D01*
X047393Y016822D01*
X047317Y016976D02*
X047393Y017052D01*
X047393Y017129D01*
X047317Y017206D01*
X047163Y017206D01*
X047086Y017129D01*
X047086Y017052D01*
X047163Y016976D01*
X046933Y016899D02*
X046933Y016822D01*
X046856Y016745D01*
X046703Y016745D01*
X046626Y016822D01*
X046703Y016976D02*
X046626Y017052D01*
X046626Y017129D01*
X046703Y017206D01*
X046856Y017206D01*
X046933Y017129D01*
X046856Y016976D02*
X046933Y016899D01*
X046856Y016976D02*
X046703Y016976D01*
X043277Y012456D02*
X043354Y012379D01*
X043354Y012302D01*
X043277Y012226D01*
X043354Y012149D01*
X043354Y012072D01*
X043277Y011995D01*
X043124Y011995D01*
X043047Y012072D01*
X042893Y012072D02*
X042817Y011995D01*
X042663Y011995D01*
X042586Y012072D01*
X042586Y012149D01*
X042663Y012226D01*
X042817Y012226D01*
X042893Y012149D01*
X042893Y012072D01*
X042817Y012226D02*
X042893Y012302D01*
X042893Y012379D01*
X042817Y012456D01*
X042663Y012456D01*
X042586Y012379D01*
X042586Y012302D01*
X042663Y012226D01*
X042433Y012149D02*
X042356Y012226D01*
X042203Y012226D01*
X042126Y012302D01*
X042126Y012379D01*
X042203Y012456D01*
X042356Y012456D01*
X042433Y012379D01*
X042433Y012149D02*
X042433Y012072D01*
X042356Y011995D01*
X042203Y011995D01*
X042126Y012072D01*
X043047Y012379D02*
X043124Y012456D01*
X043277Y012456D01*
X043277Y012226D02*
X043200Y012226D01*
X046751Y011379D02*
X046751Y011302D01*
X046828Y011226D01*
X046981Y011226D01*
X047058Y011149D01*
X047058Y011072D01*
X046981Y010995D01*
X046828Y010995D01*
X046751Y011072D01*
X046751Y011379D02*
X046828Y011456D01*
X046981Y011456D01*
X047058Y011379D01*
X047211Y011379D02*
X047211Y011302D01*
X047288Y011226D01*
X047442Y011226D01*
X047518Y011149D01*
X047518Y011072D01*
X047442Y010995D01*
X047288Y010995D01*
X047211Y011072D01*
X047211Y011149D01*
X047288Y011226D01*
X047442Y011226D02*
X047518Y011302D01*
X047518Y011379D01*
X047442Y011456D01*
X047288Y011456D01*
X047211Y011379D01*
X047672Y011226D02*
X047979Y011226D01*
X047902Y011456D02*
X047672Y011226D01*
X047902Y010995D02*
X047902Y011456D01*
X040854Y016947D02*
X040854Y017254D01*
X040777Y017331D01*
X040624Y017331D01*
X040547Y017254D01*
X040547Y017177D01*
X040624Y017101D01*
X040854Y017101D01*
X040854Y016947D02*
X040777Y016870D01*
X040624Y016870D01*
X040547Y016947D01*
X040393Y017254D02*
X040086Y016947D01*
X040086Y016870D01*
X039933Y016947D02*
X039856Y016870D01*
X039703Y016870D01*
X039626Y016947D01*
X039703Y017101D02*
X039856Y017101D01*
X039933Y017024D01*
X039933Y016947D01*
X039703Y017101D02*
X039626Y017177D01*
X039626Y017254D01*
X039703Y017331D01*
X039856Y017331D01*
X039933Y017254D01*
X040086Y017331D02*
X040393Y017331D01*
X040393Y017254D01*
X037715Y011706D02*
X037791Y011629D01*
X037791Y011552D01*
X037715Y011476D01*
X037484Y011476D01*
X037331Y011552D02*
X037254Y011476D01*
X037331Y011399D01*
X037331Y011322D01*
X037254Y011245D01*
X037101Y011245D01*
X037024Y011322D01*
X036870Y011322D02*
X036794Y011245D01*
X036640Y011245D01*
X036564Y011322D01*
X036564Y011399D01*
X036640Y011476D01*
X036794Y011476D01*
X036870Y011399D01*
X036870Y011322D01*
X036794Y011476D02*
X036870Y011552D01*
X036870Y011629D01*
X036794Y011706D01*
X036640Y011706D01*
X036564Y011629D01*
X036564Y011552D01*
X036640Y011476D01*
X036410Y011399D02*
X036410Y011322D01*
X036333Y011245D01*
X036180Y011245D01*
X036103Y011322D01*
X036180Y011476D02*
X036333Y011476D01*
X036410Y011399D01*
X036410Y011629D02*
X036333Y011706D01*
X036180Y011706D01*
X036103Y011629D01*
X036103Y011552D01*
X036180Y011476D01*
X037024Y011629D02*
X037101Y011706D01*
X037254Y011706D01*
X037331Y011629D01*
X037331Y011552D01*
X037254Y011476D02*
X037177Y011476D01*
X037484Y011706D02*
X037715Y011706D01*
X037715Y011476D02*
X037791Y011399D01*
X037791Y011322D01*
X037715Y011245D01*
X037484Y011245D01*
X037484Y011706D01*
X034104Y011456D02*
X034104Y011379D01*
X033797Y011072D01*
X033797Y010995D01*
X033643Y011072D02*
X033567Y010995D01*
X033413Y010995D01*
X033336Y011072D01*
X033336Y011149D01*
X033413Y011226D01*
X033567Y011226D01*
X033643Y011149D01*
X033643Y011072D01*
X033567Y011226D02*
X033643Y011302D01*
X033643Y011379D01*
X033567Y011456D01*
X033413Y011456D01*
X033336Y011379D01*
X033336Y011302D01*
X033413Y011226D01*
X033183Y011149D02*
X033183Y011072D01*
X033106Y010995D01*
X032953Y010995D01*
X032876Y011072D01*
X032953Y011226D02*
X033106Y011226D01*
X033183Y011149D01*
X033183Y011379D02*
X033106Y011456D01*
X032953Y011456D01*
X032876Y011379D01*
X032876Y011302D01*
X032953Y011226D01*
X033797Y011456D02*
X034104Y011456D01*
X029166Y013072D02*
X029090Y012995D01*
X028859Y012995D01*
X028859Y013456D01*
X029090Y013456D01*
X029166Y013379D01*
X029166Y013302D01*
X029090Y013226D01*
X028859Y013226D01*
X028706Y013379D02*
X028399Y013072D01*
X028399Y012995D01*
X028245Y013072D02*
X028169Y012995D01*
X028015Y012995D01*
X027939Y013072D01*
X027939Y013149D01*
X028015Y013226D01*
X028169Y013226D01*
X028245Y013149D01*
X028245Y013072D01*
X028169Y013226D02*
X028245Y013302D01*
X028245Y013379D01*
X028169Y013456D01*
X028015Y013456D01*
X027939Y013379D01*
X027939Y013302D01*
X028015Y013226D01*
X027785Y013149D02*
X027785Y013072D01*
X027708Y012995D01*
X027555Y012995D01*
X027478Y013072D01*
X027555Y013226D02*
X027708Y013226D01*
X027785Y013149D01*
X027785Y013379D02*
X027708Y013456D01*
X027555Y013456D01*
X027478Y013379D01*
X027478Y013302D01*
X027555Y013226D01*
X028399Y013456D02*
X028706Y013456D01*
X028706Y013379D01*
X029090Y013226D02*
X029166Y013149D01*
X029166Y013072D01*
X031703Y018620D02*
X031626Y018697D01*
X031703Y018620D02*
X031856Y018620D01*
X031933Y018697D01*
X031933Y018774D01*
X031856Y018851D01*
X031703Y018851D01*
X031626Y018927D01*
X031626Y019004D01*
X031703Y019081D01*
X031856Y019081D01*
X031933Y019004D01*
X032086Y019081D02*
X032393Y019081D01*
X032393Y019004D01*
X032086Y018697D01*
X032086Y018620D01*
X032547Y018697D02*
X032547Y018774D01*
X032624Y018851D01*
X032777Y018851D01*
X032854Y018774D01*
X032854Y018697D01*
X032777Y018620D01*
X032624Y018620D01*
X032547Y018697D01*
X032624Y018851D02*
X032547Y018927D01*
X032547Y019004D01*
X032624Y019081D01*
X032777Y019081D01*
X032854Y019004D01*
X032854Y018927D01*
X032777Y018851D01*
X026229Y024572D02*
X026152Y024495D01*
X025999Y024495D01*
X025922Y024572D01*
X026229Y024879D01*
X026229Y024572D01*
X026229Y024879D02*
X026152Y024956D01*
X025999Y024956D01*
X025922Y024879D01*
X025922Y024572D01*
X025768Y024879D02*
X025461Y024572D01*
X025461Y024495D01*
X025308Y024572D02*
X025231Y024495D01*
X025078Y024495D01*
X025001Y024572D01*
X025078Y024726D02*
X025231Y024726D01*
X025308Y024649D01*
X025308Y024572D01*
X025078Y024726D02*
X025001Y024802D01*
X025001Y024879D01*
X025078Y024956D01*
X025231Y024956D01*
X025308Y024879D01*
X025461Y024956D02*
X025768Y024956D01*
X025768Y024879D01*
X025479Y019081D02*
X025479Y019004D01*
X025172Y018697D01*
X025172Y018620D01*
X025018Y019004D02*
X024711Y018697D01*
X024711Y018620D01*
X024558Y018697D02*
X024481Y018620D01*
X024328Y018620D01*
X024251Y018697D01*
X024328Y018851D02*
X024481Y018851D01*
X024558Y018774D01*
X024558Y018697D01*
X024328Y018851D02*
X024251Y018927D01*
X024251Y019004D01*
X024328Y019081D01*
X024481Y019081D01*
X024558Y019004D01*
X024711Y019081D02*
X025018Y019081D01*
X025018Y019004D01*
X025172Y019081D02*
X025479Y019081D01*
X020825Y012956D02*
X020979Y012802D01*
X020979Y012495D01*
X020979Y012726D02*
X020672Y012726D01*
X020672Y012802D02*
X020672Y012495D01*
X020518Y012495D02*
X020211Y012495D01*
X020518Y012802D01*
X020518Y012879D01*
X020442Y012956D01*
X020288Y012956D01*
X020211Y012879D01*
X020058Y012879D02*
X020058Y012802D01*
X019981Y012726D01*
X019828Y012726D01*
X019751Y012802D01*
X019751Y012879D01*
X019828Y012956D01*
X019981Y012956D01*
X020058Y012879D01*
X019981Y012726D02*
X020058Y012649D01*
X020058Y012572D01*
X019981Y012495D01*
X019828Y012495D01*
X019751Y012572D01*
X019751Y012649D01*
X019828Y012726D01*
X019598Y012649D02*
X019598Y012572D01*
X019521Y012495D01*
X019367Y012495D01*
X019291Y012572D01*
X019367Y012726D02*
X019521Y012726D01*
X019598Y012649D01*
X019598Y012879D02*
X019521Y012956D01*
X019367Y012956D01*
X019291Y012879D01*
X019291Y012802D01*
X019367Y012726D01*
X020672Y012802D02*
X020825Y012956D01*
X017902Y016745D02*
X017979Y016822D01*
X017979Y016899D01*
X017902Y016976D01*
X017672Y016976D01*
X017672Y016822D01*
X017749Y016745D01*
X017902Y016745D01*
X017672Y016976D02*
X017825Y017129D01*
X017979Y017206D01*
X017518Y017206D02*
X017518Y017129D01*
X017211Y016822D01*
X017211Y016745D01*
X017058Y016822D02*
X016981Y016745D01*
X016828Y016745D01*
X016751Y016822D01*
X016828Y016976D02*
X016751Y017052D01*
X016751Y017129D01*
X016828Y017206D01*
X016981Y017206D01*
X017058Y017129D01*
X016981Y016976D02*
X017058Y016899D01*
X017058Y016822D01*
X016981Y016976D02*
X016828Y016976D01*
X017211Y017206D02*
X017518Y017206D01*
X015402Y011456D02*
X015249Y011456D01*
X015172Y011379D01*
X015018Y011379D02*
X015018Y011302D01*
X014942Y011226D01*
X014788Y011226D01*
X014711Y011302D01*
X014711Y011379D01*
X014788Y011456D01*
X014942Y011456D01*
X015018Y011379D01*
X014942Y011226D02*
X015018Y011149D01*
X015018Y011072D01*
X014942Y010995D01*
X014788Y010995D01*
X014711Y011072D01*
X014711Y011149D01*
X014788Y011226D01*
X014558Y011149D02*
X014558Y011072D01*
X014481Y010995D01*
X014328Y010995D01*
X014251Y011072D01*
X014328Y011226D02*
X014481Y011226D01*
X014558Y011149D01*
X014558Y011379D02*
X014481Y011456D01*
X014328Y011456D01*
X014251Y011379D01*
X014251Y011302D01*
X014328Y011226D01*
X015172Y010995D02*
X015479Y011302D01*
X015479Y011379D01*
X015402Y011456D01*
X015479Y010995D02*
X015172Y010995D01*
X010527Y016870D02*
X010374Y016870D01*
X010297Y016947D01*
X010297Y017101D02*
X010450Y017177D01*
X010527Y017177D01*
X010604Y017101D01*
X010604Y016947D01*
X010527Y016870D01*
X010297Y017101D02*
X010297Y017331D01*
X010604Y017331D01*
X010143Y017331D02*
X010143Y017254D01*
X009836Y016947D01*
X009836Y016870D01*
X009683Y016947D02*
X009606Y016870D01*
X009453Y016870D01*
X009376Y016947D01*
X009453Y017101D02*
X009606Y017101D01*
X009683Y017024D01*
X009683Y016947D01*
X009453Y017101D02*
X009376Y017177D01*
X009376Y017254D01*
X009453Y017331D01*
X009606Y017331D01*
X009683Y017254D01*
X009836Y017331D02*
X010143Y017331D01*
X010106Y024370D02*
X009953Y024370D01*
X009876Y024447D01*
X009953Y024601D02*
X010106Y024601D01*
X010183Y024524D01*
X010183Y024447D01*
X010106Y024370D01*
X010336Y024447D02*
X010413Y024370D01*
X010567Y024370D01*
X010643Y024447D01*
X010643Y024524D01*
X010567Y024601D01*
X010336Y024601D01*
X010336Y024447D01*
X010336Y024601D02*
X010490Y024754D01*
X010643Y024831D01*
X010797Y024754D02*
X010797Y024677D01*
X010874Y024601D01*
X011027Y024601D01*
X011104Y024524D01*
X011104Y024447D01*
X011027Y024370D01*
X010874Y024370D01*
X010797Y024447D01*
X010797Y024524D01*
X010874Y024601D01*
X011027Y024601D02*
X011104Y024677D01*
X011104Y024754D01*
X011027Y024831D01*
X010874Y024831D01*
X010797Y024754D01*
X010183Y024754D02*
X010106Y024831D01*
X009953Y024831D01*
X009876Y024754D01*
X009876Y024677D01*
X009953Y024601D01*
X016501Y026197D02*
X016578Y026120D01*
X016731Y026120D01*
X016808Y026197D01*
X016808Y026274D01*
X016731Y026351D01*
X016578Y026351D01*
X016501Y026427D01*
X016501Y026504D01*
X016578Y026581D01*
X016731Y026581D01*
X016808Y026504D01*
X016961Y026351D02*
X017192Y026351D01*
X017268Y026274D01*
X017268Y026197D01*
X017192Y026120D01*
X017038Y026120D01*
X016961Y026197D01*
X016961Y026351D01*
X017115Y026504D01*
X017268Y026581D01*
X017422Y026504D02*
X017422Y026427D01*
X017499Y026351D01*
X017729Y026351D01*
X017729Y026504D02*
X017652Y026581D01*
X017499Y026581D01*
X017422Y026504D01*
X017729Y026504D02*
X017729Y026197D01*
X017652Y026120D01*
X017499Y026120D01*
X017422Y026197D01*
X010479Y031947D02*
X010402Y031870D01*
X010249Y031870D01*
X010172Y031947D01*
X010479Y032254D01*
X010479Y031947D01*
X010479Y032254D02*
X010402Y032331D01*
X010249Y032331D01*
X010172Y032254D01*
X010172Y031947D01*
X010018Y031947D02*
X010018Y032024D01*
X009942Y032101D01*
X009711Y032101D01*
X009711Y031947D01*
X009788Y031870D01*
X009942Y031870D01*
X010018Y031947D01*
X009865Y032254D02*
X009711Y032101D01*
X009558Y032024D02*
X009558Y031947D01*
X009481Y031870D01*
X009328Y031870D01*
X009251Y031947D01*
X009328Y032101D02*
X009481Y032101D01*
X009558Y032024D01*
X009558Y032254D02*
X009481Y032331D01*
X009328Y032331D01*
X009251Y032254D01*
X009251Y032177D01*
X009328Y032101D01*
X009865Y032254D02*
X010018Y032331D01*
X016376Y033697D02*
X016453Y033620D01*
X016606Y033620D01*
X016683Y033697D01*
X016683Y033774D01*
X016606Y033851D01*
X016453Y033851D01*
X016376Y033927D01*
X016376Y034004D01*
X016453Y034081D01*
X016606Y034081D01*
X016683Y034004D01*
X016836Y033851D02*
X017067Y033851D01*
X017143Y033774D01*
X017143Y033697D01*
X017067Y033620D01*
X016913Y033620D01*
X016836Y033697D01*
X016836Y033851D01*
X016990Y034004D01*
X017143Y034081D01*
X017297Y033927D02*
X017450Y034081D01*
X017450Y033620D01*
X017297Y033620D02*
X017604Y033620D01*
X017777Y039370D02*
X017777Y039831D01*
X017547Y039601D01*
X017854Y039601D01*
X017393Y039601D02*
X017393Y039447D01*
X017317Y039370D01*
X017163Y039370D01*
X017086Y039447D01*
X016933Y039447D02*
X016856Y039370D01*
X016703Y039370D01*
X016626Y039447D01*
X016703Y039601D02*
X016856Y039601D01*
X016933Y039524D01*
X016933Y039447D01*
X017086Y039601D02*
X017240Y039677D01*
X017317Y039677D01*
X017393Y039601D01*
X017393Y039831D02*
X017086Y039831D01*
X017086Y039601D01*
X016933Y039754D02*
X016856Y039831D01*
X016703Y039831D01*
X016626Y039754D01*
X016626Y039677D01*
X016703Y039601D01*
X010729Y039677D02*
X010652Y039601D01*
X010729Y039524D01*
X010729Y039447D01*
X010652Y039370D01*
X010499Y039370D01*
X010422Y039447D01*
X010268Y039447D02*
X010192Y039370D01*
X010038Y039370D01*
X009961Y039447D01*
X009808Y039447D02*
X009731Y039370D01*
X009578Y039370D01*
X009501Y039447D01*
X009578Y039601D02*
X009731Y039601D01*
X009808Y039524D01*
X009808Y039447D01*
X009961Y039601D02*
X010115Y039677D01*
X010192Y039677D01*
X010268Y039601D01*
X010268Y039447D01*
X009961Y039601D02*
X009961Y039831D01*
X010268Y039831D01*
X010422Y039754D02*
X010499Y039831D01*
X010652Y039831D01*
X010729Y039754D01*
X010729Y039677D01*
X010652Y039601D02*
X010575Y039601D01*
X009808Y039754D02*
X009731Y039831D01*
X009578Y039831D01*
X009501Y039754D01*
X009501Y039677D01*
X009578Y039601D01*
X021802Y045346D02*
X021802Y046105D01*
X022422Y046105D02*
X022422Y045346D01*
X023007Y045254D02*
X023084Y045331D01*
X023237Y045331D01*
X023314Y045254D01*
X023314Y045177D01*
X023007Y044870D01*
X023314Y044870D01*
X023468Y044947D02*
X023468Y045254D01*
X023544Y045331D01*
X023698Y045331D01*
X023775Y045254D01*
X023928Y045177D02*
X024081Y045331D01*
X024081Y044870D01*
X023928Y044870D02*
X024235Y044870D01*
X023775Y044947D02*
X023698Y044870D01*
X023544Y044870D01*
X023468Y044947D01*
X024828Y039831D02*
X024751Y039754D01*
X024751Y039677D01*
X024828Y039601D01*
X024981Y039601D01*
X025058Y039524D01*
X025058Y039447D01*
X024981Y039370D01*
X024828Y039370D01*
X024751Y039447D01*
X024828Y039831D02*
X024981Y039831D01*
X025058Y039754D01*
X025211Y039831D02*
X025211Y039601D01*
X025365Y039677D01*
X025442Y039677D01*
X025518Y039601D01*
X025518Y039447D01*
X025442Y039370D01*
X025288Y039370D01*
X025211Y039447D01*
X025211Y039831D02*
X025518Y039831D01*
X025672Y039831D02*
X025672Y039601D01*
X025825Y039677D01*
X025902Y039677D01*
X025979Y039601D01*
X025979Y039447D01*
X025902Y039370D01*
X025749Y039370D01*
X025672Y039447D01*
X025672Y039831D02*
X025979Y039831D01*
X032501Y039802D02*
X032578Y039726D01*
X032731Y039726D01*
X032808Y039649D01*
X032808Y039572D01*
X032731Y039495D01*
X032578Y039495D01*
X032501Y039572D01*
X032501Y039802D02*
X032501Y039879D01*
X032578Y039956D01*
X032731Y039956D01*
X032808Y039879D01*
X032961Y039956D02*
X032961Y039726D01*
X033115Y039802D01*
X033192Y039802D01*
X033268Y039726D01*
X033268Y039572D01*
X033192Y039495D01*
X033038Y039495D01*
X032961Y039572D01*
X032961Y039956D02*
X033268Y039956D01*
X033422Y039726D02*
X033652Y039726D01*
X033729Y039649D01*
X033729Y039572D01*
X033652Y039495D01*
X033499Y039495D01*
X033422Y039572D01*
X033422Y039726D01*
X033575Y039879D01*
X033729Y039956D01*
X026104Y032254D02*
X026027Y032331D01*
X025874Y032331D01*
X025797Y032254D01*
X025643Y032331D02*
X025490Y032254D01*
X025336Y032101D01*
X025567Y032101D01*
X025643Y032024D01*
X025643Y031947D01*
X025567Y031870D01*
X025413Y031870D01*
X025336Y031947D01*
X025336Y032101D01*
X025183Y032024D02*
X025183Y031947D01*
X025106Y031870D01*
X024953Y031870D01*
X024876Y031947D01*
X024953Y032101D02*
X025106Y032101D01*
X025183Y032024D01*
X025183Y032254D02*
X025106Y032331D01*
X024953Y032331D01*
X024876Y032254D01*
X024876Y032177D01*
X024953Y032101D01*
X025797Y031870D02*
X026104Y032177D01*
X026104Y032254D01*
X026104Y031870D02*
X025797Y031870D01*
X018027Y049870D02*
X017874Y049870D01*
X017797Y049947D01*
X017797Y050024D01*
X017874Y050101D01*
X018027Y050101D01*
X018104Y050024D01*
X018104Y049947D01*
X018027Y049870D01*
X018027Y050101D02*
X018104Y050177D01*
X018104Y050254D01*
X018027Y050331D01*
X017874Y050331D01*
X017797Y050254D01*
X017797Y050177D01*
X017874Y050101D01*
X017643Y050101D02*
X017336Y050101D01*
X017567Y050331D01*
X017567Y049870D01*
X017183Y049947D02*
X017106Y049870D01*
X016953Y049870D01*
X016876Y049947D01*
X016953Y050101D02*
X017106Y050101D01*
X017183Y050024D01*
X017183Y049947D01*
X016953Y050101D02*
X016876Y050177D01*
X016876Y050254D01*
X016953Y050331D01*
X017106Y050331D01*
X017183Y050254D01*
X010604Y050254D02*
X010297Y049947D01*
X010297Y049870D01*
X010067Y049870D02*
X010067Y050331D01*
X009836Y050101D01*
X010143Y050101D01*
X010297Y050331D02*
X010604Y050331D01*
X010604Y050254D01*
X009683Y050254D02*
X009606Y050331D01*
X009453Y050331D01*
X009376Y050254D01*
X009376Y050177D01*
X009453Y050101D01*
X009606Y050101D01*
X009683Y050024D01*
X009683Y049947D01*
X009606Y049870D01*
X009453Y049870D01*
X009376Y049947D01*
X030376Y051572D02*
X030453Y051495D01*
X030606Y051495D01*
X030683Y051572D01*
X030683Y051649D01*
X030606Y051726D01*
X030453Y051726D01*
X030376Y051802D01*
X030376Y051879D01*
X030453Y051956D01*
X030606Y051956D01*
X030683Y051879D01*
X030836Y051726D02*
X031143Y051726D01*
X031297Y051802D02*
X031374Y051726D01*
X031604Y051726D01*
X031604Y051879D02*
X031527Y051956D01*
X031374Y051956D01*
X031297Y051879D01*
X031297Y051802D01*
X031297Y051572D02*
X031374Y051495D01*
X031527Y051495D01*
X031604Y051572D01*
X031604Y051879D01*
X031067Y051956D02*
X031067Y051495D01*
X030836Y051726D02*
X031067Y051956D01*
X035126Y051927D02*
X035203Y051851D01*
X035356Y051851D01*
X035433Y051774D01*
X035433Y051697D01*
X035356Y051620D01*
X035203Y051620D01*
X035126Y051697D01*
X035126Y051927D02*
X035126Y052004D01*
X035203Y052081D01*
X035356Y052081D01*
X035433Y052004D01*
X035586Y052081D02*
X035586Y051851D01*
X035740Y051927D01*
X035817Y051927D01*
X035893Y051851D01*
X035893Y051697D01*
X035817Y051620D01*
X035663Y051620D01*
X035586Y051697D01*
X035586Y052081D02*
X035893Y052081D01*
X036047Y052004D02*
X036124Y052081D01*
X036277Y052081D01*
X036354Y052004D01*
X036047Y051697D01*
X036124Y051620D01*
X036277Y051620D01*
X036354Y051697D01*
X036354Y052004D01*
X036047Y052004D02*
X036047Y051697D01*
X058626Y041379D02*
X058626Y041302D01*
X058703Y041226D01*
X058856Y041226D01*
X058933Y041149D01*
X058933Y041072D01*
X058856Y040995D01*
X058703Y040995D01*
X058626Y041072D01*
X058626Y041379D02*
X058703Y041456D01*
X058856Y041456D01*
X058933Y041379D01*
X059086Y041456D02*
X059086Y041226D01*
X059240Y041302D01*
X059317Y041302D01*
X059393Y041226D01*
X059393Y041072D01*
X059317Y040995D01*
X059163Y040995D01*
X059086Y041072D01*
X059086Y041456D02*
X059393Y041456D01*
X059547Y041379D02*
X059547Y041302D01*
X059624Y041226D01*
X059854Y041226D01*
X059854Y041379D02*
X059854Y041072D01*
X059777Y040995D01*
X059624Y040995D01*
X059547Y041072D01*
X059547Y041379D02*
X059624Y041456D01*
X059777Y041456D01*
X059854Y041379D01*
X064078Y051495D02*
X064001Y051572D01*
X064078Y051495D02*
X064231Y051495D01*
X064308Y051572D01*
X064308Y051649D01*
X064231Y051726D01*
X064078Y051726D01*
X064001Y051802D01*
X064001Y051879D01*
X064078Y051956D01*
X064231Y051956D01*
X064308Y051879D01*
X064461Y051956D02*
X064768Y051956D01*
X064768Y051879D01*
X064461Y051572D01*
X064461Y051495D01*
X064922Y051726D02*
X065229Y051726D01*
X065152Y051956D02*
X064922Y051726D01*
X065152Y051495D02*
X065152Y051956D01*
X065393Y018956D02*
X065240Y018879D01*
X065086Y018726D01*
X065317Y018726D01*
X065393Y018649D01*
X065393Y018572D01*
X065317Y018495D01*
X065163Y018495D01*
X065086Y018572D01*
X065086Y018726D01*
X064933Y018649D02*
X064933Y018572D01*
X064856Y018495D01*
X064703Y018495D01*
X064626Y018572D01*
X064703Y018726D02*
X064856Y018726D01*
X064933Y018649D01*
X064933Y018879D02*
X064856Y018956D01*
X064703Y018956D01*
X064626Y018879D01*
X064626Y018802D01*
X064703Y018726D01*
X065547Y018572D02*
X065547Y018495D01*
X065547Y018572D02*
X065854Y018879D01*
X065854Y018956D01*
X065547Y018956D01*
X067828Y011581D02*
X067751Y011504D01*
X067751Y011427D01*
X067828Y011351D01*
X067981Y011351D01*
X068058Y011274D01*
X068058Y011197D01*
X067981Y011120D01*
X067828Y011120D01*
X067751Y011197D01*
X067828Y011581D02*
X067981Y011581D01*
X068058Y011504D01*
X068211Y011504D02*
X068211Y011427D01*
X068288Y011351D01*
X068442Y011351D01*
X068518Y011274D01*
X068518Y011197D01*
X068442Y011120D01*
X068288Y011120D01*
X068211Y011197D01*
X068211Y011274D01*
X068288Y011351D01*
X068442Y011351D02*
X068518Y011427D01*
X068518Y011504D01*
X068442Y011581D01*
X068288Y011581D01*
X068211Y011504D01*
X068672Y011351D02*
X068902Y011351D01*
X068979Y011274D01*
X068979Y011197D01*
X068902Y011120D01*
X068749Y011120D01*
X068672Y011197D01*
X068672Y011351D01*
X068825Y011504D01*
X068979Y011581D01*
X056354Y011581D02*
X056047Y011581D01*
X056047Y011351D01*
X056200Y011427D01*
X056277Y011427D01*
X056354Y011351D01*
X056354Y011197D01*
X056277Y011120D01*
X056124Y011120D01*
X056047Y011197D01*
X055893Y011197D02*
X055817Y011120D01*
X055663Y011120D01*
X055586Y011197D01*
X055586Y011274D01*
X055663Y011351D01*
X055817Y011351D01*
X055893Y011274D01*
X055893Y011197D01*
X055817Y011351D02*
X055893Y011427D01*
X055893Y011504D01*
X055817Y011581D01*
X055663Y011581D01*
X055586Y011504D01*
X055586Y011427D01*
X055663Y011351D01*
X055433Y011274D02*
X055433Y011197D01*
X055356Y011120D01*
X055203Y011120D01*
X055126Y011197D01*
X055203Y011351D02*
X055356Y011351D01*
X055433Y011274D01*
X055433Y011504D02*
X055356Y011581D01*
X055203Y011581D01*
X055126Y011504D01*
X055126Y011427D01*
X055203Y011351D01*
D16*
X053460Y014019D02*
X062515Y006932D01*
X062515Y014019D01*
X053460Y006932D01*
X062515Y006932D01*
X062944Y006932D02*
X070031Y014019D01*
X070031Y006932D01*
X062944Y014019D01*
X062944Y006932D01*
X070031Y006932D01*
X070031Y014019D02*
X062944Y014019D01*
X062944Y014432D02*
X070031Y021519D01*
X070031Y014432D01*
X062944Y021519D01*
X062944Y014432D01*
X070031Y014432D01*
X062515Y014432D02*
X053460Y021519D01*
X053460Y014432D01*
X062515Y021519D01*
X062515Y014432D01*
X053460Y014432D01*
X053460Y014019D02*
X053460Y006932D01*
X053015Y006932D02*
X043960Y014019D01*
X043960Y006932D01*
X053015Y014019D01*
X053015Y006932D01*
X043960Y006932D01*
X043531Y006932D02*
X036444Y014019D01*
X036444Y006932D01*
X043531Y014019D01*
X043531Y006932D01*
X036444Y006932D01*
X036015Y006932D02*
X026960Y014019D01*
X026960Y006932D01*
X036015Y014019D01*
X036015Y006932D01*
X026960Y006932D01*
X026630Y006932D02*
X010095Y014019D01*
X010095Y006932D01*
X026630Y014019D01*
X010095Y014019D01*
X008444Y014432D02*
X015531Y021519D01*
X015531Y014432D01*
X008444Y021519D01*
X008444Y014432D01*
X015531Y014432D01*
X015944Y014432D02*
X023031Y021519D01*
X023031Y014432D01*
X015944Y021519D01*
X015944Y014432D01*
X023031Y014432D01*
X023444Y014432D02*
X030531Y021519D01*
X030531Y014432D01*
X023444Y021519D01*
X023444Y014432D01*
X030531Y014432D01*
X030944Y014432D02*
X038031Y021519D01*
X038031Y014432D01*
X030944Y021519D01*
X030944Y014432D01*
X038031Y014432D01*
X038444Y014432D02*
X045531Y021519D01*
X045531Y014432D01*
X038444Y021519D01*
X038444Y014432D01*
X045531Y014432D01*
X045944Y014432D02*
X053031Y021519D01*
X053031Y014432D01*
X045944Y021519D01*
X045944Y014432D01*
X053031Y014432D01*
X053015Y014019D02*
X043960Y014019D01*
X043531Y014019D02*
X036444Y014019D01*
X036015Y014019D02*
X026960Y014019D01*
X026630Y014019D02*
X026630Y006932D01*
X010095Y006932D01*
X006126Y006932D02*
X026598Y014019D01*
X026598Y006932D01*
X006126Y014019D01*
X006126Y006932D01*
X026598Y006932D01*
X026598Y014019D02*
X006126Y014019D01*
X008444Y021519D02*
X015531Y021519D01*
X015944Y021519D02*
X023031Y021519D01*
X023444Y021519D02*
X030531Y021519D01*
X030944Y021519D02*
X038031Y021519D01*
X038444Y021519D02*
X045531Y021519D01*
X045944Y021519D02*
X053031Y021519D01*
X053031Y021932D02*
X045944Y029019D01*
X045944Y021932D01*
X053031Y029019D01*
X053031Y021932D01*
X045944Y021932D01*
X045531Y021932D02*
X038444Y029019D01*
X038444Y021932D01*
X045531Y029019D01*
X045531Y021932D01*
X038444Y021932D01*
X038031Y021932D02*
X030944Y029019D01*
X030944Y021932D01*
X038031Y029019D01*
X038031Y021932D01*
X030944Y021932D01*
X030531Y021932D02*
X023444Y029019D01*
X023444Y021932D01*
X030531Y029019D01*
X030531Y021932D01*
X023444Y021932D01*
X023031Y021932D02*
X015944Y029019D01*
X015944Y021932D01*
X023031Y029019D01*
X023031Y021932D01*
X015944Y021932D01*
X015531Y021932D02*
X008444Y029019D01*
X008444Y021932D01*
X015531Y029019D01*
X015531Y021932D01*
X008444Y021932D01*
X008444Y029019D02*
X015531Y029019D01*
X015944Y029019D02*
X023031Y029019D01*
X023444Y029019D02*
X030531Y029019D01*
X030944Y029019D02*
X038031Y029019D01*
X038444Y029019D02*
X045531Y029019D01*
X045944Y029019D02*
X053031Y029019D01*
X053031Y029432D02*
X045944Y036519D01*
X045944Y029432D01*
X053031Y036519D01*
X053031Y029432D01*
X045944Y029432D01*
X045531Y029432D02*
X038444Y036519D01*
X038444Y029432D01*
X045531Y036519D01*
X045531Y029432D01*
X038444Y029432D01*
X038031Y029432D02*
X030944Y036519D01*
X030944Y029432D01*
X038031Y036519D01*
X038031Y029432D01*
X030944Y029432D01*
X030531Y029432D02*
X023444Y036519D01*
X023444Y029432D01*
X030531Y036519D01*
X030531Y029432D01*
X023444Y029432D01*
X023031Y029432D02*
X015944Y036519D01*
X015944Y029432D01*
X023031Y036519D01*
X023031Y029432D01*
X015944Y029432D01*
X015531Y029432D02*
X008444Y036519D01*
X008444Y029432D01*
X015531Y036519D01*
X015531Y029432D01*
X008444Y029432D01*
X008444Y036519D02*
X015531Y036519D01*
X015944Y036519D02*
X023031Y036519D01*
X023444Y036519D02*
X030531Y036519D01*
X030944Y036519D02*
X038031Y036519D01*
X038444Y036519D02*
X045531Y036519D01*
X045944Y036519D02*
X053031Y036519D01*
X053444Y036519D02*
X060531Y029432D01*
X060531Y036519D01*
X053444Y029432D01*
X060531Y029432D01*
X060944Y029432D02*
X068031Y036519D01*
X068031Y029432D01*
X060944Y036519D01*
X060944Y029432D01*
X068031Y029432D01*
X070005Y029019D02*
X053470Y021932D01*
X070005Y021932D01*
X053470Y029019D01*
X053470Y021932D01*
X053460Y021519D02*
X062515Y021519D01*
X062944Y021519D02*
X070031Y021519D01*
X070005Y021932D02*
X070005Y029019D01*
X053470Y029019D01*
X053444Y029432D02*
X053444Y036519D01*
X060531Y036519D01*
X060944Y036519D02*
X068031Y036519D01*
X068021Y036932D02*
X053454Y044019D01*
X053454Y036932D01*
X068021Y044019D01*
X068021Y036932D01*
X053454Y036932D01*
X053031Y036932D02*
X045944Y044019D01*
X045944Y036932D01*
X053031Y044019D01*
X053031Y036932D01*
X045944Y036932D01*
X045531Y036932D02*
X038444Y044019D01*
X038444Y036932D01*
X045531Y044019D01*
X045531Y036932D01*
X038444Y036932D01*
X038031Y036932D02*
X030944Y044019D01*
X030944Y036932D01*
X038031Y044019D01*
X038031Y036932D01*
X030944Y036932D01*
X030531Y036932D02*
X023444Y044019D01*
X023444Y036932D01*
X030531Y044019D01*
X030531Y036932D01*
X023444Y036932D01*
X023031Y036932D02*
X015944Y044019D01*
X015944Y036932D01*
X023031Y044019D01*
X023031Y036932D01*
X015944Y036932D01*
X015531Y036932D02*
X008444Y044019D01*
X008444Y036932D01*
X015531Y044019D01*
X015531Y036932D01*
X008444Y036932D01*
X008444Y044019D02*
X015531Y044019D01*
X015944Y044019D02*
X023031Y044019D01*
X023444Y044019D02*
X030531Y044019D01*
X030944Y044019D02*
X038031Y044019D01*
X038444Y044019D02*
X045531Y044019D01*
X045944Y044019D02*
X053031Y044019D01*
X053454Y044019D02*
X068021Y044019D01*
X070031Y047432D02*
X062944Y054519D01*
X062944Y047432D01*
X070031Y054519D01*
X070031Y047432D01*
X062944Y047432D01*
X056031Y047432D02*
X048944Y054519D01*
X048944Y047432D01*
X056031Y054519D01*
X056031Y047432D01*
X048944Y047432D01*
X048531Y047432D02*
X041444Y054519D01*
X041444Y047432D01*
X048531Y054519D01*
X048531Y047432D01*
X041444Y047432D01*
X041031Y047432D02*
X033944Y054519D01*
X033944Y047432D01*
X041031Y054519D01*
X041031Y047432D01*
X033944Y047432D01*
X033531Y047432D02*
X026444Y054519D01*
X026444Y047432D01*
X033531Y054519D01*
X033531Y047432D01*
X026444Y047432D01*
X023031Y047432D02*
X015944Y054519D01*
X015944Y047432D01*
X023031Y054519D01*
X023031Y047432D01*
X015944Y047432D01*
X015531Y047432D02*
X008444Y054519D01*
X008444Y047432D01*
X015531Y054519D01*
X015531Y047432D01*
X008444Y047432D01*
X008444Y054519D02*
X015531Y054519D01*
X015944Y054519D02*
X023031Y054519D01*
X026444Y054519D02*
X033531Y054519D01*
X033944Y054519D02*
X041031Y054519D01*
X041444Y054519D02*
X048531Y054519D01*
X048944Y054519D02*
X056031Y054519D01*
X062944Y054519D02*
X070031Y054519D01*
X062515Y014019D02*
X053460Y014019D01*
D17*
X053450Y016223D02*
X054159Y016223D01*
X054159Y016853D02*
X053450Y016853D01*
X051347Y022161D02*
X050638Y022161D01*
X050638Y022790D02*
X051347Y022790D01*
X045774Y019040D02*
X045065Y019040D01*
X045065Y018411D02*
X045774Y018411D01*
X041339Y014382D02*
X040838Y014883D01*
X040392Y014437D02*
X040894Y013936D01*
X036337Y013040D02*
X035628Y013040D01*
X035628Y012411D02*
X036337Y012411D01*
X026847Y014161D02*
X026138Y014161D01*
X026138Y014790D02*
X026847Y014790D01*
X028138Y029661D02*
X028847Y029661D01*
X028847Y030290D02*
X028138Y030290D01*
X030422Y033866D02*
X030422Y034575D01*
X031052Y034575D02*
X031052Y033866D01*
X028097Y037036D02*
X027388Y037036D01*
X027388Y037665D02*
X028097Y037665D01*
X022677Y042241D02*
X022677Y042950D01*
X022047Y042950D02*
X022047Y042241D01*
X022612Y044575D02*
X022612Y045325D01*
X022651Y045327D01*
X022690Y045333D01*
X022728Y045342D01*
X022765Y045355D01*
X022801Y045372D01*
X022834Y045392D01*
X022866Y045416D01*
X022895Y045442D01*
X022921Y045471D01*
X022945Y045503D01*
X022965Y045536D01*
X022982Y045572D01*
X022995Y045609D01*
X023004Y045647D01*
X023010Y045686D01*
X023012Y045725D01*
X023010Y045764D01*
X023004Y045803D01*
X022995Y045841D01*
X022982Y045878D01*
X022965Y045914D01*
X022945Y045947D01*
X022921Y045979D01*
X022895Y046008D01*
X022866Y046034D01*
X022834Y046058D01*
X022801Y046078D01*
X022765Y046095D01*
X022728Y046108D01*
X022690Y046117D01*
X022651Y046123D01*
X022612Y046125D01*
X022612Y046875D01*
X029612Y046875D01*
X029612Y044575D01*
X022612Y044575D01*
X020862Y044850D02*
X020862Y045850D01*
X020855Y045850D02*
X019962Y045850D01*
X019862Y045750D01*
X019762Y045850D01*
X018962Y045850D01*
X018862Y045750D01*
X018762Y045850D01*
X017962Y045850D01*
X017862Y045750D01*
X017762Y045850D01*
X016962Y045850D01*
X016862Y045750D01*
X016762Y045850D01*
X015962Y045850D01*
X015862Y045750D01*
X015762Y045850D01*
X014962Y045850D01*
X014862Y045750D01*
X014762Y045850D01*
X013962Y045850D01*
X013862Y045750D01*
X013762Y045850D01*
X012962Y045850D01*
X012862Y045750D01*
X012762Y045850D01*
X011962Y045850D01*
X011862Y045750D01*
X011762Y045850D01*
X010962Y045850D01*
X010862Y045750D01*
X010762Y045850D01*
X009862Y045850D01*
X009862Y044850D01*
X010762Y044850D01*
X010862Y044950D01*
X010962Y044850D01*
X011762Y044850D01*
X011862Y044950D01*
X011962Y044850D01*
X012762Y044850D01*
X012862Y044950D01*
X012962Y044850D01*
X013762Y044850D01*
X013862Y044950D01*
X013962Y044850D01*
X014762Y044850D01*
X014862Y044950D01*
X014962Y044850D01*
X015762Y044850D01*
X015862Y044950D01*
X015962Y044850D01*
X016762Y044850D01*
X016862Y044950D01*
X016962Y044850D01*
X017762Y044850D01*
X017862Y044950D01*
X017962Y044850D01*
X018762Y044850D01*
X018862Y044950D01*
X018962Y044850D01*
X019762Y044850D01*
X019862Y044950D01*
X019962Y044850D01*
X020855Y044850D01*
X020562Y045150D02*
X020562Y045550D01*
X020462Y045550D01*
X020462Y045650D01*
X020262Y045650D01*
X020262Y045550D01*
X020162Y045550D01*
X020162Y045150D01*
X020262Y045150D01*
X020262Y045050D01*
X020462Y045050D01*
X020462Y045150D01*
X020562Y045150D01*
X019562Y045150D02*
X019562Y045550D01*
X019462Y045550D01*
X019462Y045650D01*
X019262Y045650D01*
X019262Y045550D01*
X019162Y045550D01*
X019162Y045150D01*
X019262Y045150D01*
X019262Y045050D01*
X019462Y045050D01*
X019462Y045150D01*
X019562Y045150D01*
X018562Y045150D02*
X018562Y045550D01*
X018462Y045550D01*
X018462Y045650D01*
X018262Y045650D01*
X018262Y045550D01*
X018162Y045550D01*
X018162Y045150D01*
X018262Y045150D01*
X018262Y045050D01*
X018462Y045050D01*
X018462Y045150D01*
X018562Y045150D01*
X017562Y045150D02*
X017562Y045550D01*
X017462Y045550D01*
X017462Y045650D01*
X017262Y045650D01*
X017262Y045550D01*
X017162Y045550D01*
X017162Y045150D01*
X017262Y045150D01*
X017262Y045050D01*
X017462Y045050D01*
X017462Y045150D01*
X017562Y045150D01*
X016562Y045150D02*
X016562Y045550D01*
X016462Y045550D01*
X016462Y045650D01*
X016262Y045650D01*
X016262Y045550D01*
X016162Y045550D01*
X016162Y045150D01*
X016262Y045150D01*
X016262Y045050D01*
X016462Y045050D01*
X016462Y045150D01*
X016562Y045150D01*
X015562Y045150D02*
X015562Y045550D01*
X015462Y045550D01*
X015462Y045650D01*
X015262Y045650D01*
X015262Y045550D01*
X015162Y045550D01*
X015162Y045150D01*
X015262Y045150D01*
X015262Y045050D01*
X015462Y045050D01*
X015462Y045150D01*
X015562Y045150D01*
X014562Y045150D02*
X014562Y045550D01*
X014462Y045550D01*
X014462Y045650D01*
X014262Y045650D01*
X014262Y045550D01*
X014162Y045550D01*
X014162Y045150D01*
X014262Y045150D01*
X014262Y045050D01*
X014462Y045050D01*
X014462Y045150D01*
X014562Y045150D01*
X013562Y045150D02*
X013562Y045550D01*
X013462Y045550D01*
X013462Y045650D01*
X013262Y045650D01*
X013262Y045550D01*
X013162Y045550D01*
X013162Y045150D01*
X013262Y045150D01*
X013262Y045050D01*
X013462Y045050D01*
X013462Y045150D01*
X013562Y045150D01*
X012562Y045150D02*
X012562Y045550D01*
X012462Y045550D01*
X012462Y045650D01*
X012262Y045650D01*
X012262Y045550D01*
X012162Y045550D01*
X012162Y045150D01*
X012262Y045150D01*
X012262Y045050D01*
X012462Y045050D01*
X012462Y045150D01*
X012562Y045150D01*
X011562Y045150D02*
X011562Y045550D01*
X011462Y045550D01*
X011462Y045650D01*
X011262Y045650D01*
X011262Y045550D01*
X011162Y045550D01*
X011162Y045150D01*
X011262Y045150D01*
X011262Y045050D01*
X011462Y045050D01*
X011462Y045150D01*
X011562Y045150D01*
X010562Y045150D02*
X010562Y045550D01*
X010462Y045550D01*
X010462Y045650D01*
X010262Y045650D01*
X010262Y045550D01*
X010162Y045550D01*
X010162Y045150D01*
X010262Y045150D01*
X010262Y045050D01*
X010462Y045050D01*
X010462Y045150D01*
X010562Y045150D01*
X023388Y047911D02*
X024097Y047911D01*
X024097Y048540D02*
X023388Y048540D01*
X023388Y048661D02*
X024097Y048661D01*
X024097Y049290D02*
X023388Y049290D01*
X023388Y049411D02*
X024097Y049411D01*
X024097Y050040D02*
X023388Y050040D01*
X025388Y050040D02*
X026097Y050040D01*
X026097Y049411D02*
X025388Y049411D01*
X025638Y048540D02*
X026347Y048540D01*
X026347Y047911D02*
X025638Y047911D01*
X026763Y051661D02*
X027472Y051661D01*
X027472Y052290D02*
X026763Y052290D01*
X026052Y052188D02*
X026052Y052897D01*
X025422Y052897D02*
X025422Y052188D01*
X024052Y052626D02*
X024052Y053335D01*
X023422Y053335D02*
X023422Y052626D01*
X035628Y046290D02*
X036337Y046290D01*
X036462Y046536D02*
X035753Y046536D01*
X035753Y047165D02*
X036462Y047165D01*
X036337Y045661D02*
X035628Y045661D01*
X035503Y045415D02*
X036212Y045415D01*
X036212Y044786D02*
X035503Y044786D01*
X035513Y044540D02*
X036222Y044540D01*
X036222Y043911D02*
X035513Y043911D01*
X043378Y044786D02*
X044087Y044786D01*
X044087Y045415D02*
X043378Y045415D01*
X043378Y045661D02*
X044087Y045661D01*
X044087Y046290D02*
X043378Y046290D01*
X043378Y046536D02*
X044087Y046536D01*
X044087Y047165D02*
X043378Y047165D01*
X044888Y042415D02*
X045597Y042415D01*
X045597Y041786D02*
X044888Y041786D01*
X043712Y037665D02*
X043003Y037665D01*
X043003Y037036D02*
X043712Y037036D01*
X050378Y037290D02*
X051087Y037290D01*
X051087Y036661D02*
X050378Y036661D01*
X053263Y039536D02*
X053972Y039536D01*
X053972Y040165D02*
X053263Y040165D01*
X053462Y044911D02*
X052753Y044911D01*
X052753Y045540D02*
X053462Y045540D01*
X053462Y045786D02*
X052753Y045786D01*
X052753Y046415D02*
X053462Y046415D01*
X053462Y046661D02*
X052753Y046661D01*
X052753Y047290D02*
X053462Y047290D01*
X053462Y047536D02*
X052753Y047536D01*
X052753Y048165D02*
X053462Y048165D01*
X051587Y047165D02*
X050878Y047165D01*
X050878Y046536D02*
X051587Y046536D01*
X051587Y046290D02*
X050878Y046290D01*
X050878Y045661D02*
X051587Y045661D01*
X051587Y045415D02*
X050878Y045415D01*
X050878Y044786D02*
X051587Y044786D01*
X059212Y044600D02*
X061512Y044600D01*
X061512Y052600D01*
X060762Y052600D01*
X060677Y052751D02*
X060677Y053460D01*
X060047Y053460D02*
X060047Y052751D01*
X059962Y052600D02*
X059212Y052600D01*
X059212Y044600D01*
X059922Y050751D02*
X059922Y051460D01*
X060552Y051460D02*
X060552Y050751D01*
X060672Y050751D02*
X060672Y051460D01*
X061302Y051460D02*
X061302Y050751D01*
X060762Y052600D02*
X060760Y052561D01*
X060754Y052522D01*
X060745Y052484D01*
X060732Y052447D01*
X060715Y052411D01*
X060695Y052378D01*
X060671Y052346D01*
X060645Y052317D01*
X060616Y052291D01*
X060584Y052267D01*
X060551Y052247D01*
X060515Y052230D01*
X060478Y052217D01*
X060440Y052208D01*
X060401Y052202D01*
X060362Y052200D01*
X060323Y052202D01*
X060284Y052208D01*
X060246Y052217D01*
X060209Y052230D01*
X060173Y052247D01*
X060140Y052267D01*
X060108Y052291D01*
X060079Y052317D01*
X060053Y052346D01*
X060029Y052378D01*
X060009Y052411D01*
X059992Y052447D01*
X059979Y052484D01*
X059970Y052522D01*
X059964Y052561D01*
X059962Y052600D01*
X057302Y052491D02*
X057302Y053200D01*
X056672Y053200D02*
X056672Y052491D01*
X056427Y052366D02*
X056427Y053075D01*
X055797Y053075D02*
X055797Y052366D01*
X056638Y053911D02*
X057347Y053911D01*
X057347Y054540D02*
X056638Y054540D01*
X065638Y037540D02*
X066347Y037540D01*
X066347Y036911D02*
X065638Y036911D01*
X053534Y031665D02*
X052825Y031665D01*
X052825Y031036D02*
X053534Y031036D01*
X045587Y027290D02*
X044878Y027290D01*
X044878Y026661D02*
X045587Y026661D01*
X062075Y022040D02*
X062784Y022040D01*
X062784Y021411D02*
X062075Y021411D01*
X062138Y011790D02*
X062847Y011790D01*
X062847Y011161D02*
X062138Y011161D01*
X062427Y008335D02*
X062427Y007626D01*
X061797Y007626D02*
X061797Y008335D01*
D18*
X020362Y045150D03*
X020362Y045550D03*
X019362Y045550D03*
X019362Y045150D03*
X018362Y045150D03*
X018362Y045550D03*
X017362Y045550D03*
X017362Y045150D03*
X016362Y045150D03*
X016362Y045550D03*
X015362Y045550D03*
X015362Y045150D03*
X014362Y045150D03*
X014362Y045550D03*
X013362Y045550D03*
X013362Y045150D03*
X012362Y045150D03*
X012362Y045550D03*
X011362Y045550D03*
X011362Y045150D03*
X010362Y045150D03*
X010362Y045550D03*
D19*
X023240Y048226D03*
X023240Y048976D03*
X023240Y049726D03*
X024240Y049726D03*
X024240Y048976D03*
X024240Y048226D03*
X025490Y048226D03*
X026490Y048226D03*
X026240Y049726D03*
X025240Y049726D03*
X026615Y051976D03*
X027615Y051976D03*
X035610Y046850D03*
X035485Y045975D03*
X035360Y045100D03*
X036360Y045100D03*
X036485Y045975D03*
X036610Y046850D03*
X036365Y044226D03*
X035365Y044226D03*
X043235Y045100D03*
X043235Y045975D03*
X044235Y045975D03*
X044235Y045100D03*
X044235Y046850D03*
X043235Y046850D03*
X044740Y042101D03*
X045740Y042101D03*
X050735Y045100D03*
X050735Y045975D03*
X051735Y045975D03*
X051735Y045100D03*
X052610Y045225D03*
X052610Y046100D03*
X053610Y046100D03*
X053610Y045225D03*
X053610Y046975D03*
X053610Y047850D03*
X052610Y047850D03*
X052610Y046975D03*
X051735Y046850D03*
X050735Y046850D03*
X053115Y039851D03*
X054115Y039851D03*
X051235Y036975D03*
X050235Y036975D03*
X043860Y037350D03*
X042860Y037350D03*
X052677Y031351D03*
X053677Y031351D03*
X045735Y026975D03*
X044735Y026975D03*
X050490Y022476D03*
X051490Y022476D03*
X045922Y018725D03*
X044922Y018725D03*
G36*
X040650Y015112D02*
X040858Y014904D01*
X040372Y014418D01*
X040164Y014626D01*
X040650Y015112D01*
G37*
G36*
X041357Y014405D02*
X041565Y014197D01*
X041079Y013711D01*
X040871Y013919D01*
X041357Y014405D01*
G37*
X036485Y012725D03*
X035485Y012725D03*
X026990Y014476D03*
X025990Y014476D03*
X027990Y029976D03*
X028990Y029976D03*
X028240Y037351D03*
X027240Y037351D03*
X053302Y016538D03*
X054302Y016538D03*
X061990Y011476D03*
X062990Y011476D03*
X062927Y021726D03*
X061927Y021726D03*
X065490Y037226D03*
X066490Y037226D03*
X057490Y054226D03*
X056490Y054226D03*
D20*
X022112Y046248D03*
X022113Y045203D03*
D21*
X022363Y043098D03*
X022363Y042098D03*
X030738Y034723D03*
X030738Y033723D03*
X025737Y052040D03*
X025737Y053040D03*
X023737Y053478D03*
X023737Y052478D03*
X056113Y052223D03*
X056988Y052348D03*
X056988Y053348D03*
X056113Y053223D03*
X060362Y053603D03*
X060362Y052603D03*
X060237Y051603D03*
X060987Y051603D03*
X060987Y050603D03*
X060237Y050603D03*
X062112Y008478D03*
X062112Y007478D03*
D22*
X023272Y042225D02*
X021153Y044958D01*
M02*
