G75*
G70*
%OFA0B0*%
%FSLAX24Y24*%
%IPPOS*%
%LPD*%
%AMOC8*
5,1,8,0,0,1.08239X$1,22.5*
%
%ADD10C,0.0100*%
%ADD11C,0.0160*%
%ADD12C,0.0051*%
%ADD13C,0.0110*%
%ADD14C,0.0050*%
%ADD15C,0.0040*%
%ADD16C,0.0079*%
%ADD17C,0.0060*%
%ADD18R,0.0100X0.0200*%
%ADD19R,0.0295X0.0689*%
%ADD20R,0.0669X0.0295*%
%ADD21R,0.0689X0.0295*%
%ADD22C,0.0059*%
%ADD23C,0.0000*%
D10*
X014755Y015206D02*
X014757Y015268D01*
X014763Y015331D01*
X014773Y015392D01*
X014787Y015453D01*
X014804Y015513D01*
X014825Y015572D01*
X014851Y015629D01*
X014879Y015684D01*
X014911Y015738D01*
X014947Y015789D01*
X014985Y015839D01*
X015027Y015885D01*
X015071Y015929D01*
X015119Y015970D01*
X015168Y016008D01*
X015220Y016042D01*
X015274Y016073D01*
X015330Y016101D01*
X015388Y016125D01*
X015447Y016146D01*
X015507Y016162D01*
X015568Y016175D01*
X015630Y016184D01*
X015692Y016189D01*
X015755Y016190D01*
X015817Y016187D01*
X015879Y016180D01*
X015941Y016169D01*
X016001Y016154D01*
X016061Y016136D01*
X016119Y016114D01*
X016176Y016088D01*
X016231Y016058D01*
X016284Y016025D01*
X016335Y015989D01*
X016383Y015950D01*
X016429Y015907D01*
X016472Y015862D01*
X016512Y015814D01*
X016549Y015764D01*
X016583Y015711D01*
X016614Y015657D01*
X016640Y015601D01*
X016664Y015543D01*
X016683Y015483D01*
X016699Y015423D01*
X016711Y015361D01*
X016719Y015300D01*
X016723Y015237D01*
X016723Y015175D01*
X016719Y015112D01*
X016711Y015051D01*
X016699Y014989D01*
X016683Y014929D01*
X016664Y014869D01*
X016640Y014811D01*
X016614Y014755D01*
X016583Y014701D01*
X016549Y014648D01*
X016512Y014598D01*
X016472Y014550D01*
X016429Y014505D01*
X016383Y014462D01*
X016335Y014423D01*
X016284Y014387D01*
X016231Y014354D01*
X016176Y014324D01*
X016119Y014298D01*
X016061Y014276D01*
X016001Y014258D01*
X015941Y014243D01*
X015879Y014232D01*
X015817Y014225D01*
X015755Y014222D01*
X015692Y014223D01*
X015630Y014228D01*
X015568Y014237D01*
X015507Y014250D01*
X015447Y014266D01*
X015388Y014287D01*
X015330Y014311D01*
X015274Y014339D01*
X015220Y014370D01*
X015168Y014404D01*
X015119Y014442D01*
X015071Y014483D01*
X015027Y014527D01*
X014985Y014573D01*
X014947Y014623D01*
X014911Y014674D01*
X014879Y014728D01*
X014851Y014783D01*
X014825Y014840D01*
X014804Y014899D01*
X014787Y014959D01*
X014773Y015020D01*
X014763Y015081D01*
X014757Y015144D01*
X014755Y015206D01*
X014755Y022706D02*
X014757Y022768D01*
X014763Y022831D01*
X014773Y022892D01*
X014787Y022953D01*
X014804Y023013D01*
X014825Y023072D01*
X014851Y023129D01*
X014879Y023184D01*
X014911Y023238D01*
X014947Y023289D01*
X014985Y023339D01*
X015027Y023385D01*
X015071Y023429D01*
X015119Y023470D01*
X015168Y023508D01*
X015220Y023542D01*
X015274Y023573D01*
X015330Y023601D01*
X015388Y023625D01*
X015447Y023646D01*
X015507Y023662D01*
X015568Y023675D01*
X015630Y023684D01*
X015692Y023689D01*
X015755Y023690D01*
X015817Y023687D01*
X015879Y023680D01*
X015941Y023669D01*
X016001Y023654D01*
X016061Y023636D01*
X016119Y023614D01*
X016176Y023588D01*
X016231Y023558D01*
X016284Y023525D01*
X016335Y023489D01*
X016383Y023450D01*
X016429Y023407D01*
X016472Y023362D01*
X016512Y023314D01*
X016549Y023264D01*
X016583Y023211D01*
X016614Y023157D01*
X016640Y023101D01*
X016664Y023043D01*
X016683Y022983D01*
X016699Y022923D01*
X016711Y022861D01*
X016719Y022800D01*
X016723Y022737D01*
X016723Y022675D01*
X016719Y022612D01*
X016711Y022551D01*
X016699Y022489D01*
X016683Y022429D01*
X016664Y022369D01*
X016640Y022311D01*
X016614Y022255D01*
X016583Y022201D01*
X016549Y022148D01*
X016512Y022098D01*
X016472Y022050D01*
X016429Y022005D01*
X016383Y021962D01*
X016335Y021923D01*
X016284Y021887D01*
X016231Y021854D01*
X016176Y021824D01*
X016119Y021798D01*
X016061Y021776D01*
X016001Y021758D01*
X015941Y021743D01*
X015879Y021732D01*
X015817Y021725D01*
X015755Y021722D01*
X015692Y021723D01*
X015630Y021728D01*
X015568Y021737D01*
X015507Y021750D01*
X015447Y021766D01*
X015388Y021787D01*
X015330Y021811D01*
X015274Y021839D01*
X015220Y021870D01*
X015168Y021904D01*
X015119Y021942D01*
X015071Y021983D01*
X015027Y022027D01*
X014985Y022073D01*
X014947Y022123D01*
X014911Y022174D01*
X014879Y022228D01*
X014851Y022283D01*
X014825Y022340D01*
X014804Y022399D01*
X014787Y022459D01*
X014773Y022520D01*
X014763Y022581D01*
X014757Y022644D01*
X014755Y022706D01*
X014755Y030206D02*
X014757Y030268D01*
X014763Y030331D01*
X014773Y030392D01*
X014787Y030453D01*
X014804Y030513D01*
X014825Y030572D01*
X014851Y030629D01*
X014879Y030684D01*
X014911Y030738D01*
X014947Y030789D01*
X014985Y030839D01*
X015027Y030885D01*
X015071Y030929D01*
X015119Y030970D01*
X015168Y031008D01*
X015220Y031042D01*
X015274Y031073D01*
X015330Y031101D01*
X015388Y031125D01*
X015447Y031146D01*
X015507Y031162D01*
X015568Y031175D01*
X015630Y031184D01*
X015692Y031189D01*
X015755Y031190D01*
X015817Y031187D01*
X015879Y031180D01*
X015941Y031169D01*
X016001Y031154D01*
X016061Y031136D01*
X016119Y031114D01*
X016176Y031088D01*
X016231Y031058D01*
X016284Y031025D01*
X016335Y030989D01*
X016383Y030950D01*
X016429Y030907D01*
X016472Y030862D01*
X016512Y030814D01*
X016549Y030764D01*
X016583Y030711D01*
X016614Y030657D01*
X016640Y030601D01*
X016664Y030543D01*
X016683Y030483D01*
X016699Y030423D01*
X016711Y030361D01*
X016719Y030300D01*
X016723Y030237D01*
X016723Y030175D01*
X016719Y030112D01*
X016711Y030051D01*
X016699Y029989D01*
X016683Y029929D01*
X016664Y029869D01*
X016640Y029811D01*
X016614Y029755D01*
X016583Y029701D01*
X016549Y029648D01*
X016512Y029598D01*
X016472Y029550D01*
X016429Y029505D01*
X016383Y029462D01*
X016335Y029423D01*
X016284Y029387D01*
X016231Y029354D01*
X016176Y029324D01*
X016119Y029298D01*
X016061Y029276D01*
X016001Y029258D01*
X015941Y029243D01*
X015879Y029232D01*
X015817Y029225D01*
X015755Y029222D01*
X015692Y029223D01*
X015630Y029228D01*
X015568Y029237D01*
X015507Y029250D01*
X015447Y029266D01*
X015388Y029287D01*
X015330Y029311D01*
X015274Y029339D01*
X015220Y029370D01*
X015168Y029404D01*
X015119Y029442D01*
X015071Y029483D01*
X015027Y029527D01*
X014985Y029573D01*
X014947Y029623D01*
X014911Y029674D01*
X014879Y029728D01*
X014851Y029783D01*
X014825Y029840D01*
X014804Y029899D01*
X014787Y029959D01*
X014773Y030020D01*
X014763Y030081D01*
X014757Y030144D01*
X014755Y030206D01*
X014755Y037706D02*
X014757Y037768D01*
X014763Y037831D01*
X014773Y037892D01*
X014787Y037953D01*
X014804Y038013D01*
X014825Y038072D01*
X014851Y038129D01*
X014879Y038184D01*
X014911Y038238D01*
X014947Y038289D01*
X014985Y038339D01*
X015027Y038385D01*
X015071Y038429D01*
X015119Y038470D01*
X015168Y038508D01*
X015220Y038542D01*
X015274Y038573D01*
X015330Y038601D01*
X015388Y038625D01*
X015447Y038646D01*
X015507Y038662D01*
X015568Y038675D01*
X015630Y038684D01*
X015692Y038689D01*
X015755Y038690D01*
X015817Y038687D01*
X015879Y038680D01*
X015941Y038669D01*
X016001Y038654D01*
X016061Y038636D01*
X016119Y038614D01*
X016176Y038588D01*
X016231Y038558D01*
X016284Y038525D01*
X016335Y038489D01*
X016383Y038450D01*
X016429Y038407D01*
X016472Y038362D01*
X016512Y038314D01*
X016549Y038264D01*
X016583Y038211D01*
X016614Y038157D01*
X016640Y038101D01*
X016664Y038043D01*
X016683Y037983D01*
X016699Y037923D01*
X016711Y037861D01*
X016719Y037800D01*
X016723Y037737D01*
X016723Y037675D01*
X016719Y037612D01*
X016711Y037551D01*
X016699Y037489D01*
X016683Y037429D01*
X016664Y037369D01*
X016640Y037311D01*
X016614Y037255D01*
X016583Y037201D01*
X016549Y037148D01*
X016512Y037098D01*
X016472Y037050D01*
X016429Y037005D01*
X016383Y036962D01*
X016335Y036923D01*
X016284Y036887D01*
X016231Y036854D01*
X016176Y036824D01*
X016119Y036798D01*
X016061Y036776D01*
X016001Y036758D01*
X015941Y036743D01*
X015879Y036732D01*
X015817Y036725D01*
X015755Y036722D01*
X015692Y036723D01*
X015630Y036728D01*
X015568Y036737D01*
X015507Y036750D01*
X015447Y036766D01*
X015388Y036787D01*
X015330Y036811D01*
X015274Y036839D01*
X015220Y036870D01*
X015168Y036904D01*
X015119Y036942D01*
X015071Y036983D01*
X015027Y037027D01*
X014985Y037073D01*
X014947Y037123D01*
X014911Y037174D01*
X014879Y037228D01*
X014851Y037283D01*
X014825Y037340D01*
X014804Y037399D01*
X014787Y037459D01*
X014773Y037520D01*
X014763Y037581D01*
X014757Y037644D01*
X014755Y037706D01*
D11*
X022258Y044478D02*
X022608Y044136D01*
X022889Y043861D02*
X023239Y043518D01*
X023239Y043110D01*
X023239Y042717D02*
X023239Y042309D01*
X023239Y041915D02*
X023239Y041507D01*
X023239Y041114D02*
X023239Y040706D01*
X021977Y044753D02*
X021627Y045096D01*
X021345Y045371D02*
X020995Y045713D01*
X020714Y045989D02*
X020364Y046331D01*
D12*
X006052Y003018D02*
X004004Y003018D01*
X005028Y002967D02*
X006052Y003018D01*
X005028Y002916D01*
X005028Y002893D02*
X006052Y003018D01*
X005028Y003121D01*
X005028Y003144D02*
X005028Y002893D01*
X005028Y003069D02*
X006052Y003018D01*
X005028Y003144D01*
X006052Y002251D02*
X006052Y004893D01*
X005833Y005206D02*
X005935Y006229D01*
X005959Y006229D02*
X005833Y005206D01*
X005731Y006229D01*
X005707Y006229D02*
X005959Y006229D01*
X005884Y006229D02*
X005833Y005206D01*
X005782Y006229D01*
X005707Y006229D02*
X005833Y005206D01*
X005833Y058206D01*
X005935Y057182D01*
X005959Y057182D02*
X005833Y058206D01*
X005731Y057182D01*
X005707Y057182D02*
X005959Y057182D01*
X005884Y057182D02*
X005833Y058206D01*
X005782Y057182D01*
X005707Y057182D02*
X005833Y058206D01*
X005065Y058206D02*
X008302Y058206D01*
X008239Y058393D02*
X008239Y060224D01*
X008239Y059456D02*
X009263Y059353D01*
X009263Y059330D02*
X008239Y059456D01*
X009263Y059558D01*
X009263Y059581D02*
X009263Y059330D01*
X009263Y059405D02*
X008239Y059456D01*
X009263Y059507D01*
X009263Y059581D02*
X008239Y059456D01*
X072802Y059456D01*
X071778Y059353D01*
X071778Y059330D02*
X072802Y059456D01*
X071778Y059558D01*
X071778Y059581D02*
X071778Y059330D01*
X071778Y059405D02*
X072802Y059456D01*
X071778Y059507D01*
X071778Y059581D02*
X072802Y059456D01*
X072802Y060224D02*
X072802Y057956D01*
X072802Y004518D02*
X072802Y000126D01*
X072802Y000893D02*
X071778Y000791D01*
X071778Y000768D02*
X072802Y000893D01*
X071778Y000996D01*
X071778Y001019D02*
X071778Y000768D01*
X071778Y000842D02*
X072802Y000893D01*
X071778Y000944D01*
X071778Y001019D02*
X072802Y000893D01*
X006052Y000893D01*
X007075Y000791D01*
X007075Y000768D02*
X006052Y000893D01*
X007075Y000996D01*
X007075Y001019D02*
X007075Y000768D01*
X007075Y000842D02*
X006052Y000893D01*
X007075Y000944D01*
X007075Y001019D02*
X006052Y000893D01*
X006052Y000126D02*
X006052Y001768D01*
X008114Y002251D02*
X008114Y004893D01*
X008239Y005206D02*
X005065Y005206D01*
X004739Y005206D02*
X001565Y005206D01*
X002333Y005206D02*
X002435Y006229D01*
X002459Y006229D02*
X002333Y005206D01*
X002231Y006229D01*
X002207Y006229D02*
X002459Y006229D01*
X002384Y006229D02*
X002333Y005206D01*
X002282Y006229D01*
X002207Y006229D02*
X002333Y005206D01*
X002333Y015081D01*
X002435Y014057D01*
X002459Y014057D02*
X002333Y015081D01*
X002231Y014057D01*
X002207Y014057D02*
X002459Y014057D01*
X002384Y014057D02*
X002333Y015081D01*
X002282Y014057D01*
X002207Y014057D02*
X002333Y015081D01*
X001565Y015081D02*
X005552Y015081D01*
X008114Y003018D02*
X009138Y003121D01*
X009138Y003144D02*
X009138Y002893D01*
X008114Y003018D01*
X009138Y002916D01*
X009138Y002967D02*
X008114Y003018D01*
X009138Y003069D01*
X009138Y003144D02*
X008114Y003018D01*
X012975Y003018D01*
D13*
X012999Y003469D02*
X012999Y004738D01*
X012365Y004103D01*
X013211Y004103D01*
X011942Y004315D02*
X011942Y004527D01*
X011731Y004738D01*
X011308Y004738D01*
X011096Y004527D01*
X011942Y004315D02*
X011096Y003469D01*
X011942Y003469D01*
X010673Y003469D02*
X010462Y003469D01*
X010462Y003680D01*
X010673Y003680D01*
X010673Y003469D01*
X010039Y003680D02*
X010039Y004103D01*
X009827Y004315D01*
X009616Y004315D01*
X009193Y004103D01*
X009193Y004738D01*
X010039Y004738D01*
X010039Y003680D02*
X009827Y003469D01*
X009404Y003469D01*
X009193Y003680D01*
X001882Y007731D02*
X001036Y008577D01*
X000825Y008577D01*
X000613Y008366D01*
X000613Y007943D01*
X000825Y007731D01*
X001882Y007731D02*
X001882Y008577D01*
X001671Y009000D02*
X001882Y009212D01*
X001882Y009635D01*
X001671Y009846D01*
X001248Y009846D01*
X001036Y009635D01*
X001036Y009423D01*
X001248Y009000D01*
X000613Y009000D01*
X000613Y009846D01*
X000825Y010903D02*
X000613Y011115D01*
X000613Y011538D01*
X000825Y011749D01*
X001671Y010903D01*
X001882Y011115D01*
X001882Y011538D01*
X001671Y011749D01*
X000825Y011749D01*
X000825Y012172D02*
X001036Y012172D01*
X001248Y012384D01*
X001248Y012807D01*
X001459Y013018D01*
X001671Y013018D01*
X001882Y012807D01*
X001882Y012384D01*
X001671Y012172D01*
X001459Y012172D01*
X001248Y012384D01*
X001248Y012807D02*
X001036Y013018D01*
X000825Y013018D01*
X000613Y012807D01*
X000613Y012384D01*
X000825Y012172D01*
X000825Y010903D02*
X001671Y010903D01*
X001671Y010480D02*
X001882Y010480D01*
X001882Y010269D01*
X001671Y010269D01*
X001671Y010480D01*
X004536Y028746D02*
X004113Y029169D01*
X005382Y029169D01*
X005382Y028746D02*
X005382Y029592D01*
X005171Y030014D02*
X005382Y030226D01*
X005382Y030649D01*
X005171Y030861D01*
X004959Y030861D01*
X004748Y030649D01*
X004748Y030438D01*
X004748Y030649D02*
X004536Y030861D01*
X004325Y030861D01*
X004113Y030649D01*
X004113Y030226D01*
X004325Y030014D01*
X004748Y031283D02*
X004748Y032129D01*
X005171Y032552D02*
X005171Y032764D01*
X005382Y032764D01*
X005382Y032552D01*
X005171Y032552D01*
X005171Y033186D02*
X004748Y033186D01*
X004748Y033821D01*
X004959Y034033D01*
X005171Y034033D01*
X005382Y033821D01*
X005382Y033398D01*
X005171Y033186D01*
X004748Y033186D02*
X004325Y033610D01*
X004113Y034033D01*
X004325Y034455D02*
X004113Y034667D01*
X004113Y035090D01*
X004325Y035301D01*
X004536Y035301D01*
X005382Y034455D01*
X005382Y035301D01*
X005382Y031918D02*
X004113Y031918D01*
X004748Y031283D01*
X036467Y002190D02*
X036890Y002613D01*
X036890Y001344D01*
X036467Y001344D02*
X037313Y001344D01*
X037735Y001555D02*
X037947Y001344D01*
X038370Y001344D01*
X038581Y001555D01*
X038581Y001767D01*
X038370Y001978D01*
X037735Y001978D01*
X037735Y001555D01*
X037735Y001978D02*
X038158Y002402D01*
X038581Y002613D01*
X039004Y002402D02*
X039004Y002190D01*
X039216Y001978D01*
X039850Y001978D01*
X039850Y001555D02*
X039850Y002402D01*
X039639Y002613D01*
X039216Y002613D01*
X039004Y002402D01*
X039004Y001555D02*
X039216Y001344D01*
X039639Y001344D01*
X039850Y001555D01*
X040273Y001555D02*
X040484Y001555D01*
X040484Y001344D01*
X040273Y001344D01*
X040273Y001555D01*
X040907Y001555D02*
X041119Y001344D01*
X041542Y001344D01*
X041753Y001555D01*
X041753Y001978D01*
X041542Y002190D01*
X041330Y002190D01*
X040907Y001978D01*
X040907Y002613D01*
X041753Y002613D01*
X042176Y002613D02*
X042176Y001978D01*
X042599Y002190D01*
X042811Y002190D01*
X043022Y001978D01*
X043022Y001555D01*
X042811Y001344D01*
X042388Y001344D01*
X042176Y001555D01*
X042176Y002613D02*
X043022Y002613D01*
X042636Y059906D02*
X042213Y059906D01*
X042001Y060118D01*
X041578Y060118D02*
X041578Y059906D01*
X041367Y059906D01*
X041367Y060118D01*
X041578Y060118D01*
X040944Y060118D02*
X040732Y059906D01*
X040309Y059906D01*
X040098Y060118D01*
X039675Y060118D02*
X039675Y060329D01*
X039464Y060541D01*
X038829Y060541D01*
X038829Y060118D01*
X039041Y059906D01*
X039464Y059906D01*
X039675Y060118D01*
X039252Y060964D02*
X038829Y060541D01*
X039252Y060964D02*
X039675Y061176D01*
X040098Y060964D02*
X040309Y061176D01*
X040732Y061176D01*
X040944Y060964D01*
X040944Y060753D01*
X040732Y060541D01*
X040944Y060329D01*
X040944Y060118D01*
X040732Y060541D02*
X040521Y060541D01*
X042001Y060753D02*
X042213Y060541D01*
X042847Y060541D01*
X042847Y060118D02*
X042847Y060964D01*
X042636Y061176D01*
X042213Y061176D01*
X042001Y060964D01*
X042001Y060753D01*
X042847Y060118D02*
X042636Y059906D01*
X043270Y060118D02*
X043481Y059906D01*
X043904Y059906D01*
X044116Y060118D01*
X044116Y060964D01*
X043904Y061176D01*
X043481Y061176D01*
X043270Y060964D01*
X043270Y060753D01*
X043481Y060541D01*
X044116Y060541D01*
X038406Y059906D02*
X037560Y059906D01*
X037983Y059906D02*
X037983Y061176D01*
X037560Y060753D01*
D14*
X040489Y054956D02*
X034489Y054956D01*
X034489Y048956D01*
X040489Y048956D01*
X040489Y054956D01*
X041989Y054956D02*
X047989Y054956D01*
X047989Y048956D01*
X041989Y048956D01*
X041989Y054956D01*
X049489Y054956D02*
X049489Y048956D01*
X055489Y048956D01*
X055489Y054956D01*
X049489Y054956D01*
X046489Y044456D02*
X052489Y044456D01*
X052489Y038456D01*
X046489Y038456D01*
X046489Y044456D01*
X044989Y044456D02*
X044989Y038456D01*
X038989Y038456D01*
X038989Y044456D01*
X044989Y044456D01*
X037489Y044456D02*
X037489Y038456D01*
X031489Y038456D01*
X031489Y044456D01*
X037489Y044456D01*
X032989Y048956D02*
X032989Y054956D01*
X026989Y054956D01*
X026989Y048956D01*
X032989Y048956D01*
X029989Y044456D02*
X029989Y038456D01*
X023989Y038456D01*
X023989Y044456D01*
X029989Y044456D01*
X024179Y046956D02*
X023879Y046956D01*
X024179Y047256D01*
X024179Y047331D01*
X024104Y047406D01*
X023954Y047406D01*
X023879Y047331D01*
X023719Y047331D02*
X023644Y047406D01*
X023418Y047406D01*
X023418Y046956D01*
X023644Y046956D01*
X023719Y047031D01*
X023719Y047331D01*
X023258Y047331D02*
X023183Y047406D01*
X023033Y047406D01*
X022958Y047331D01*
X023258Y047331D02*
X023258Y047256D01*
X022958Y046956D01*
X023258Y046956D01*
X020950Y046956D02*
X020650Y046956D01*
X020950Y047256D01*
X020950Y047331D01*
X020875Y047406D01*
X020725Y047406D01*
X020650Y047331D01*
X020339Y047406D02*
X020339Y046956D01*
X020189Y046956D02*
X020489Y046956D01*
X020189Y047256D02*
X020339Y047406D01*
X022489Y048956D02*
X022489Y054956D01*
X016489Y054956D01*
X016489Y048956D01*
X022489Y048956D01*
X022489Y044456D02*
X016489Y044456D01*
X016489Y038456D01*
X022489Y038456D01*
X022489Y044456D01*
X014989Y044456D02*
X014989Y038456D01*
X008989Y038456D01*
X008989Y044456D01*
X014989Y044456D01*
X010489Y046956D02*
X010189Y046956D01*
X010339Y046956D02*
X010339Y047406D01*
X010189Y047256D01*
X008939Y047127D02*
X008489Y047127D01*
X008714Y046902D01*
X008714Y047202D01*
X008789Y046741D02*
X008489Y046741D01*
X008489Y046441D02*
X008789Y046441D01*
X008939Y046591D01*
X008789Y046741D01*
X008789Y046281D02*
X008714Y046206D01*
X008714Y046056D01*
X008639Y045981D01*
X008564Y045981D01*
X008489Y046056D01*
X008489Y046206D01*
X008564Y046281D01*
X008789Y046281D02*
X008864Y046281D01*
X008939Y046206D01*
X008939Y046056D01*
X008864Y045981D01*
X008989Y048956D02*
X008989Y054956D01*
X014989Y054956D01*
X014989Y048956D01*
X008989Y048956D01*
X008989Y036956D02*
X014989Y036956D01*
X014989Y030956D01*
X008989Y030956D01*
X008989Y036956D01*
X016489Y036956D02*
X016489Y030956D01*
X022489Y030956D01*
X022489Y036956D01*
X016489Y036956D01*
X023989Y036956D02*
X023989Y030956D01*
X029989Y030956D01*
X029989Y036956D01*
X023989Y036956D01*
X031489Y036956D02*
X031489Y030956D01*
X037489Y030956D01*
X037489Y036956D01*
X031489Y036956D01*
X038989Y036956D02*
X038989Y030956D01*
X044989Y030956D01*
X044989Y036956D01*
X038989Y036956D01*
X046489Y036956D02*
X046489Y030956D01*
X052489Y030956D01*
X052489Y036956D01*
X046489Y036956D01*
X053989Y036956D02*
X053989Y030956D01*
X059989Y030956D01*
X059989Y036956D01*
X053989Y036956D01*
X057739Y038456D02*
X057739Y044456D01*
X063739Y044456D01*
X063739Y038456D01*
X057739Y038456D01*
X061489Y036956D02*
X067489Y036956D01*
X067489Y030956D01*
X061489Y030956D01*
X061489Y036956D01*
X058739Y029456D02*
X064739Y029456D01*
X064739Y023456D01*
X058739Y023456D01*
X058739Y029456D01*
X052489Y029456D02*
X052489Y023456D01*
X046489Y023456D01*
X046489Y029456D01*
X052489Y029456D01*
X044989Y029456D02*
X044989Y023456D01*
X038989Y023456D01*
X038989Y029456D01*
X044989Y029456D01*
X037489Y029456D02*
X037489Y023456D01*
X031489Y023456D01*
X031489Y029456D01*
X037489Y029456D01*
X029989Y029456D02*
X029989Y023456D01*
X023989Y023456D01*
X023989Y029456D01*
X029989Y029456D01*
X022489Y029456D02*
X022489Y023456D01*
X016489Y023456D01*
X016489Y029456D01*
X022489Y029456D01*
X014989Y029456D02*
X014989Y023456D01*
X008989Y023456D01*
X008989Y029456D01*
X014989Y029456D01*
X014989Y021956D02*
X008989Y021956D01*
X008989Y015956D01*
X014989Y015956D01*
X014989Y021956D01*
X016489Y021956D02*
X022489Y021956D01*
X022489Y015956D01*
X016489Y015956D01*
X016489Y021956D01*
X023989Y021956D02*
X023989Y015956D01*
X029989Y015956D01*
X029989Y021956D01*
X023989Y021956D01*
X031489Y021956D02*
X031489Y015956D01*
X037489Y015956D01*
X037489Y021956D01*
X031489Y021956D01*
X038989Y021956D02*
X038989Y015956D01*
X044989Y015956D01*
X044989Y021956D01*
X038989Y021956D01*
X046489Y021956D02*
X046489Y015956D01*
X052489Y015956D01*
X052489Y021956D01*
X046489Y021956D01*
X045489Y014456D02*
X051489Y014456D01*
X051489Y008456D01*
X045489Y008456D01*
X045489Y014456D01*
X042989Y014456D02*
X042989Y008456D01*
X036989Y008456D01*
X036989Y014456D01*
X042989Y014456D01*
X041927Y014456D02*
X041927Y008456D01*
X035927Y008456D01*
X035927Y014456D01*
X041927Y014456D01*
X034489Y014456D02*
X034489Y008456D01*
X028489Y008456D01*
X028489Y014456D01*
X034489Y014456D01*
X033552Y014456D02*
X033552Y008456D01*
X027552Y008456D01*
X027552Y014456D01*
X033552Y014456D01*
X021364Y014456D02*
X021364Y008456D01*
X015364Y008456D01*
X015364Y014456D01*
X021364Y014456D01*
X019364Y014456D02*
X019364Y008456D01*
X013364Y008456D01*
X013364Y014456D01*
X019364Y014456D01*
X054989Y014456D02*
X054989Y008456D01*
X060989Y008456D01*
X060989Y014456D01*
X054989Y014456D01*
X054989Y015956D02*
X054989Y021956D01*
X060989Y021956D01*
X060989Y015956D01*
X054989Y015956D01*
X063489Y015956D02*
X063489Y021956D01*
X069489Y021956D01*
X069489Y015956D01*
X063489Y015956D01*
X063489Y014456D02*
X069489Y014456D01*
X069489Y008456D01*
X063489Y008456D01*
X063489Y014456D01*
X063364Y047506D02*
X063664Y047806D01*
X063664Y047881D01*
X063589Y047956D01*
X063439Y047956D01*
X063364Y047881D01*
X063364Y047506D02*
X063664Y047506D01*
X063825Y047506D02*
X064050Y047506D01*
X064125Y047581D01*
X064125Y047881D01*
X064050Y047956D01*
X063825Y047956D01*
X063825Y047506D01*
X064285Y047506D02*
X064585Y047506D01*
X064435Y047506D02*
X064435Y047956D01*
X064285Y047806D01*
X063489Y048956D02*
X063489Y054956D01*
X069489Y054956D01*
X069489Y048956D01*
X063489Y048956D01*
D15*
X064080Y052476D02*
X064003Y052553D01*
X064080Y052476D02*
X064233Y052476D01*
X064310Y052553D01*
X064310Y052629D01*
X064233Y052706D01*
X064080Y052706D01*
X064003Y052783D01*
X064003Y052859D01*
X064080Y052936D01*
X064233Y052936D01*
X064310Y052859D01*
X064463Y052936D02*
X064770Y052936D01*
X064770Y052859D01*
X064463Y052553D01*
X064463Y052476D01*
X064924Y052706D02*
X065231Y052706D01*
X065154Y052476D02*
X065154Y052936D01*
X064924Y052706D01*
X059779Y042436D02*
X059626Y042436D01*
X059549Y042359D01*
X059549Y042283D01*
X059626Y042206D01*
X059856Y042206D01*
X059856Y042053D02*
X059856Y042359D01*
X059779Y042436D01*
X059395Y042436D02*
X059088Y042436D01*
X059088Y042206D01*
X059242Y042283D01*
X059319Y042283D01*
X059395Y042206D01*
X059395Y042053D01*
X059319Y041976D01*
X059165Y041976D01*
X059088Y042053D01*
X058935Y042053D02*
X058858Y041976D01*
X058705Y041976D01*
X058628Y042053D01*
X058705Y042206D02*
X058858Y042206D01*
X058935Y042129D01*
X058935Y042053D01*
X058705Y042206D02*
X058628Y042283D01*
X058628Y042359D01*
X058705Y042436D01*
X058858Y042436D01*
X058935Y042359D01*
X059549Y042053D02*
X059626Y041976D01*
X059779Y041976D01*
X059856Y042053D01*
X062119Y034936D02*
X062043Y034859D01*
X062043Y034783D01*
X062119Y034706D01*
X062273Y034706D01*
X062350Y034629D01*
X062350Y034553D01*
X062273Y034476D01*
X062119Y034476D01*
X062043Y034553D01*
X062119Y034936D02*
X062273Y034936D01*
X062350Y034859D01*
X062503Y034706D02*
X062733Y034706D01*
X062810Y034629D01*
X062810Y034553D01*
X062733Y034476D01*
X062580Y034476D01*
X062503Y034553D01*
X062503Y034706D01*
X062656Y034859D01*
X062810Y034936D01*
X062963Y034936D02*
X063270Y034936D01*
X063270Y034859D01*
X062963Y034553D01*
X062963Y034476D01*
X063424Y034553D02*
X063501Y034476D01*
X063654Y034476D01*
X063731Y034553D01*
X063731Y034859D02*
X063654Y034936D01*
X063501Y034936D01*
X063424Y034859D01*
X063424Y034553D01*
X059327Y029186D02*
X059481Y029033D01*
X059481Y028726D01*
X059481Y028956D02*
X059174Y028956D01*
X059174Y029033D02*
X059327Y029186D01*
X059174Y029033D02*
X059174Y028726D01*
X058944Y028726D02*
X058944Y029186D01*
X058713Y028956D01*
X059020Y028956D01*
X058560Y029109D02*
X058253Y028803D01*
X058253Y028726D01*
X058100Y028803D02*
X058023Y028726D01*
X057869Y028726D01*
X057793Y028803D01*
X057869Y028956D02*
X058023Y028956D01*
X058100Y028879D01*
X058100Y028803D01*
X057869Y028956D02*
X057793Y029033D01*
X057793Y029109D01*
X057869Y029186D01*
X058023Y029186D01*
X058100Y029109D01*
X058253Y029186D02*
X058560Y029186D01*
X058560Y029109D01*
X055404Y034601D02*
X055481Y034678D01*
X055481Y034754D01*
X055404Y034831D01*
X055174Y034831D01*
X055174Y034678D01*
X055251Y034601D01*
X055404Y034601D01*
X055174Y034831D02*
X055327Y034984D01*
X055481Y035061D01*
X055020Y035061D02*
X054867Y034984D01*
X054713Y034831D01*
X054944Y034831D01*
X055020Y034754D01*
X055020Y034678D01*
X054944Y034601D01*
X054790Y034601D01*
X054713Y034678D01*
X054713Y034831D01*
X054560Y034754D02*
X054560Y034678D01*
X054483Y034601D01*
X054330Y034601D01*
X054253Y034678D01*
X054330Y034831D02*
X054483Y034831D01*
X054560Y034754D01*
X054560Y034984D02*
X054483Y035061D01*
X054330Y035061D01*
X054253Y034984D01*
X054253Y034908D01*
X054330Y034831D01*
X050606Y031811D02*
X050299Y031811D01*
X050299Y031581D01*
X050452Y031658D01*
X050529Y031658D01*
X050606Y031581D01*
X050606Y031428D01*
X050529Y031351D01*
X050376Y031351D01*
X050299Y031428D01*
X050145Y031428D02*
X050145Y031504D01*
X050069Y031581D01*
X049838Y031581D01*
X049838Y031428D01*
X049915Y031351D01*
X050069Y031351D01*
X050145Y031428D01*
X049992Y031734D02*
X049838Y031581D01*
X049685Y031504D02*
X049608Y031581D01*
X049455Y031581D01*
X049378Y031658D01*
X049378Y031734D01*
X049455Y031811D01*
X049608Y031811D01*
X049685Y031734D01*
X049685Y031504D02*
X049685Y031428D01*
X049608Y031351D01*
X049455Y031351D01*
X049378Y031428D01*
X049992Y031734D02*
X050145Y031811D01*
X048029Y027436D02*
X048106Y027359D01*
X048106Y027283D01*
X048029Y027206D01*
X048106Y027129D01*
X048106Y027053D01*
X048029Y026976D01*
X047876Y026976D01*
X047799Y027053D01*
X047952Y027206D02*
X048029Y027206D01*
X048029Y027436D02*
X047876Y027436D01*
X047799Y027359D01*
X047645Y027359D02*
X047338Y027053D01*
X047338Y026976D01*
X047185Y027053D02*
X047108Y026976D01*
X046955Y026976D01*
X046878Y027053D01*
X046955Y027206D02*
X047108Y027206D01*
X047185Y027129D01*
X047185Y027053D01*
X046955Y027206D02*
X046878Y027283D01*
X046878Y027359D01*
X046955Y027436D01*
X047108Y027436D01*
X047185Y027359D01*
X047338Y027436D02*
X047645Y027436D01*
X047645Y027359D01*
X040856Y025734D02*
X040779Y025811D01*
X040626Y025811D01*
X040549Y025734D01*
X040395Y025734D02*
X040088Y025428D01*
X040088Y025351D01*
X039935Y025428D02*
X039858Y025351D01*
X039705Y025351D01*
X039628Y025428D01*
X039705Y025581D02*
X039858Y025581D01*
X039935Y025504D01*
X039935Y025428D01*
X039705Y025581D02*
X039628Y025658D01*
X039628Y025734D01*
X039705Y025811D01*
X039858Y025811D01*
X039935Y025734D01*
X040088Y025811D02*
X040395Y025811D01*
X040395Y025734D01*
X040549Y025351D02*
X040856Y025658D01*
X040856Y025734D01*
X040856Y025351D02*
X040549Y025351D01*
X033731Y025476D02*
X033424Y025476D01*
X033577Y025476D02*
X033577Y025936D01*
X033424Y025783D01*
X033270Y025859D02*
X032963Y025553D01*
X032963Y025476D01*
X032810Y025553D02*
X032733Y025476D01*
X032580Y025476D01*
X032503Y025553D01*
X032580Y025706D02*
X032733Y025706D01*
X032810Y025629D01*
X032810Y025553D01*
X032580Y025706D02*
X032503Y025783D01*
X032503Y025859D01*
X032580Y025936D01*
X032733Y025936D01*
X032810Y025859D01*
X032963Y025936D02*
X033270Y025936D01*
X033270Y025859D01*
X035705Y031101D02*
X035628Y031178D01*
X035705Y031101D02*
X035858Y031101D01*
X035935Y031178D01*
X035935Y031254D01*
X035858Y031331D01*
X035705Y031331D01*
X035628Y031408D01*
X035628Y031484D01*
X035705Y031561D01*
X035858Y031561D01*
X035935Y031484D01*
X036088Y031331D02*
X036319Y031331D01*
X036395Y031254D01*
X036395Y031178D01*
X036319Y031101D01*
X036165Y031101D01*
X036088Y031178D01*
X036088Y031331D01*
X036242Y031484D01*
X036395Y031561D01*
X036549Y031484D02*
X036626Y031561D01*
X036779Y031561D01*
X036856Y031484D01*
X036856Y031408D01*
X036779Y031331D01*
X036856Y031254D01*
X036856Y031178D01*
X036779Y031101D01*
X036626Y031101D01*
X036549Y031178D01*
X036702Y031331D02*
X036779Y031331D01*
X039330Y034601D02*
X039253Y034678D01*
X039330Y034601D02*
X039483Y034601D01*
X039560Y034678D01*
X039560Y034754D01*
X039483Y034831D01*
X039330Y034831D01*
X039253Y034908D01*
X039253Y034984D01*
X039330Y035061D01*
X039483Y035061D01*
X039560Y034984D01*
X039713Y034831D02*
X039944Y034831D01*
X040020Y034754D01*
X040020Y034678D01*
X039944Y034601D01*
X039790Y034601D01*
X039713Y034678D01*
X039713Y034831D01*
X039867Y034984D01*
X040020Y035061D01*
X040174Y034831D02*
X040481Y034831D01*
X040404Y034601D02*
X040404Y035061D01*
X040174Y034831D01*
X040330Y040351D02*
X040253Y040428D01*
X040330Y040351D02*
X040483Y040351D01*
X040560Y040428D01*
X040560Y040504D01*
X040483Y040581D01*
X040330Y040581D01*
X040253Y040658D01*
X040253Y040734D01*
X040330Y040811D01*
X040483Y040811D01*
X040560Y040734D01*
X040713Y040811D02*
X040713Y040581D01*
X040867Y040658D01*
X040944Y040658D01*
X041020Y040581D01*
X041020Y040428D01*
X040944Y040351D01*
X040790Y040351D01*
X040713Y040428D01*
X040713Y040811D02*
X041020Y040811D01*
X041174Y040811D02*
X041481Y040811D01*
X041481Y040734D01*
X041174Y040428D01*
X041174Y040351D01*
X046628Y042053D02*
X046705Y041976D01*
X046858Y041976D01*
X046935Y042053D01*
X046935Y042129D01*
X046858Y042206D01*
X046705Y042206D01*
X046628Y042283D01*
X046628Y042359D01*
X046705Y042436D01*
X046858Y042436D01*
X046935Y042359D01*
X047088Y042436D02*
X047088Y042206D01*
X047242Y042283D01*
X047319Y042283D01*
X047395Y042206D01*
X047395Y042053D01*
X047319Y041976D01*
X047165Y041976D01*
X047088Y042053D01*
X047088Y042436D02*
X047395Y042436D01*
X047549Y042359D02*
X047549Y042283D01*
X047626Y042206D01*
X047779Y042206D01*
X047856Y042129D01*
X047856Y042053D01*
X047779Y041976D01*
X047626Y041976D01*
X047549Y042053D01*
X047549Y042129D01*
X047626Y042206D01*
X047779Y042206D02*
X047856Y042283D01*
X047856Y042359D01*
X047779Y042436D01*
X047626Y042436D01*
X047549Y042359D01*
X049580Y050726D02*
X049503Y050803D01*
X049580Y050726D02*
X049733Y050726D01*
X049810Y050803D01*
X049810Y050879D01*
X049733Y050956D01*
X049580Y050956D01*
X049503Y051033D01*
X049503Y051109D01*
X049580Y051186D01*
X049733Y051186D01*
X049810Y051109D01*
X049963Y051186D02*
X049963Y050956D01*
X050117Y051033D01*
X050194Y051033D01*
X050270Y050956D01*
X050270Y050803D01*
X050194Y050726D01*
X050040Y050726D01*
X049963Y050803D01*
X049963Y051186D02*
X050270Y051186D01*
X050424Y051109D02*
X050501Y051186D01*
X050654Y051186D01*
X050731Y051109D01*
X050731Y051033D01*
X050424Y050726D01*
X050731Y050726D01*
X043481Y050726D02*
X043174Y050726D01*
X043327Y050726D02*
X043327Y051186D01*
X043174Y051033D01*
X043020Y050956D02*
X043020Y050803D01*
X042944Y050726D01*
X042790Y050726D01*
X042713Y050803D01*
X042713Y050956D02*
X042867Y051033D01*
X042944Y051033D01*
X043020Y050956D01*
X043020Y051186D02*
X042713Y051186D01*
X042713Y050956D01*
X042560Y050879D02*
X042560Y050803D01*
X042483Y050726D01*
X042330Y050726D01*
X042253Y050803D01*
X042330Y050956D02*
X042253Y051033D01*
X042253Y051109D01*
X042330Y051186D01*
X042483Y051186D01*
X042560Y051109D01*
X042483Y050956D02*
X042560Y050879D01*
X042483Y050956D02*
X042330Y050956D01*
X036356Y052678D02*
X036279Y052601D01*
X036126Y052601D01*
X036049Y052678D01*
X036356Y052984D01*
X036356Y052678D01*
X036356Y052984D02*
X036279Y053061D01*
X036126Y053061D01*
X036049Y052984D01*
X036049Y052678D01*
X035895Y052678D02*
X035819Y052601D01*
X035665Y052601D01*
X035588Y052678D01*
X035588Y052831D02*
X035742Y052908D01*
X035819Y052908D01*
X035895Y052831D01*
X035895Y052678D01*
X035588Y052831D02*
X035588Y053061D01*
X035895Y053061D01*
X035435Y052984D02*
X035358Y053061D01*
X035205Y053061D01*
X035128Y052984D01*
X035128Y052908D01*
X035205Y052831D01*
X035358Y052831D01*
X035435Y052754D01*
X035435Y052678D01*
X035358Y052601D01*
X035205Y052601D01*
X035128Y052678D01*
X031606Y052706D02*
X031376Y052706D01*
X031299Y052783D01*
X031299Y052859D01*
X031376Y052936D01*
X031529Y052936D01*
X031606Y052859D01*
X031606Y052553D01*
X031529Y052476D01*
X031376Y052476D01*
X031299Y052553D01*
X031145Y052706D02*
X030838Y052706D01*
X031069Y052936D01*
X031069Y052476D01*
X030685Y052553D02*
X030608Y052476D01*
X030455Y052476D01*
X030378Y052553D01*
X030455Y052706D02*
X030608Y052706D01*
X030685Y052629D01*
X030685Y052553D01*
X030455Y052706D02*
X030378Y052783D01*
X030378Y052859D01*
X030455Y052936D01*
X030608Y052936D01*
X030685Y052859D01*
X024083Y046311D02*
X023930Y046158D01*
X023777Y046234D02*
X023700Y046311D01*
X023546Y046311D01*
X023470Y046234D01*
X023470Y045928D01*
X023546Y045851D01*
X023700Y045851D01*
X023777Y045928D01*
X023930Y045851D02*
X024237Y045851D01*
X024083Y045851D02*
X024083Y046311D01*
X023316Y046234D02*
X023239Y046311D01*
X023086Y046311D01*
X023009Y046234D01*
X023316Y046234D02*
X023316Y046158D01*
X023009Y045851D01*
X023316Y045851D01*
X022424Y046326D02*
X022424Y047086D01*
X021804Y047086D02*
X021804Y046326D01*
X017154Y042749D02*
X016924Y042519D01*
X017231Y042519D01*
X017154Y042749D02*
X017154Y042288D01*
X016770Y042365D02*
X016694Y042288D01*
X016540Y042288D01*
X016463Y042365D01*
X016310Y042365D02*
X016233Y042288D01*
X016080Y042288D01*
X016003Y042365D01*
X016080Y042519D02*
X016003Y042595D01*
X016003Y042672D01*
X016080Y042749D01*
X016233Y042749D01*
X016310Y042672D01*
X016463Y042749D02*
X016463Y042519D01*
X016617Y042595D01*
X016694Y042595D01*
X016770Y042519D01*
X016770Y042365D01*
X016770Y042749D02*
X016463Y042749D01*
X016233Y042519D02*
X016310Y042442D01*
X016310Y042365D01*
X016233Y042519D02*
X016080Y042519D01*
X010731Y040734D02*
X010731Y040658D01*
X010654Y040581D01*
X010731Y040504D01*
X010731Y040428D01*
X010654Y040351D01*
X010501Y040351D01*
X010424Y040428D01*
X010270Y040428D02*
X010194Y040351D01*
X010040Y040351D01*
X009963Y040428D01*
X009963Y040581D02*
X010117Y040658D01*
X010194Y040658D01*
X010270Y040581D01*
X010270Y040428D01*
X009963Y040581D02*
X009963Y040811D01*
X010270Y040811D01*
X010424Y040734D02*
X010501Y040811D01*
X010654Y040811D01*
X010731Y040734D01*
X010654Y040581D02*
X010577Y040581D01*
X009810Y040504D02*
X009810Y040428D01*
X009733Y040351D01*
X009580Y040351D01*
X009503Y040428D01*
X009580Y040581D02*
X009733Y040581D01*
X009810Y040504D01*
X009810Y040734D02*
X009733Y040811D01*
X009580Y040811D01*
X009503Y040734D01*
X009503Y040658D01*
X009580Y040581D01*
X016378Y034984D02*
X016378Y034908D01*
X016455Y034831D01*
X016608Y034831D01*
X016685Y034754D01*
X016685Y034678D01*
X016608Y034601D01*
X016455Y034601D01*
X016378Y034678D01*
X016378Y034984D02*
X016455Y035061D01*
X016608Y035061D01*
X016685Y034984D01*
X016838Y034831D02*
X017069Y034831D01*
X017145Y034754D01*
X017145Y034678D01*
X017069Y034601D01*
X016915Y034601D01*
X016838Y034678D01*
X016838Y034831D01*
X016992Y034984D01*
X017145Y035061D01*
X017299Y034908D02*
X017452Y035061D01*
X017452Y034601D01*
X017299Y034601D02*
X017606Y034601D01*
X010481Y033234D02*
X010174Y032928D01*
X010251Y032851D01*
X010404Y032851D01*
X010481Y032928D01*
X010481Y033234D01*
X010404Y033311D01*
X010251Y033311D01*
X010174Y033234D01*
X010174Y032928D01*
X010020Y032928D02*
X010020Y033004D01*
X009944Y033081D01*
X009713Y033081D01*
X009713Y032928D01*
X009790Y032851D01*
X009944Y032851D01*
X010020Y032928D01*
X009867Y033234D02*
X009713Y033081D01*
X009560Y033004D02*
X009560Y032928D01*
X009483Y032851D01*
X009330Y032851D01*
X009253Y032928D01*
X009330Y033081D02*
X009483Y033081D01*
X009560Y033004D01*
X009560Y033234D02*
X009483Y033311D01*
X009330Y033311D01*
X009253Y033234D01*
X009253Y033158D01*
X009330Y033081D01*
X009867Y033234D02*
X010020Y033311D01*
X016503Y027484D02*
X016503Y027408D01*
X016580Y027331D01*
X016733Y027331D01*
X016810Y027254D01*
X016810Y027178D01*
X016733Y027101D01*
X016580Y027101D01*
X016503Y027178D01*
X016503Y027484D02*
X016580Y027561D01*
X016733Y027561D01*
X016810Y027484D01*
X016963Y027331D02*
X017194Y027331D01*
X017270Y027254D01*
X017270Y027178D01*
X017194Y027101D01*
X017040Y027101D01*
X016963Y027178D01*
X016963Y027331D01*
X017117Y027484D01*
X017270Y027561D01*
X017424Y027484D02*
X017424Y027408D01*
X017501Y027331D01*
X017731Y027331D01*
X017731Y027178D02*
X017731Y027484D01*
X017654Y027561D01*
X017501Y027561D01*
X017424Y027484D01*
X017424Y027178D02*
X017501Y027101D01*
X017654Y027101D01*
X017731Y027178D01*
X011106Y025734D02*
X011106Y025658D01*
X011029Y025581D01*
X010876Y025581D01*
X010799Y025658D01*
X010799Y025734D01*
X010876Y025811D01*
X011029Y025811D01*
X011106Y025734D01*
X011029Y025581D02*
X011106Y025504D01*
X011106Y025428D01*
X011029Y025351D01*
X010876Y025351D01*
X010799Y025428D01*
X010799Y025504D01*
X010876Y025581D01*
X010645Y025504D02*
X010569Y025581D01*
X010338Y025581D01*
X010338Y025428D01*
X010415Y025351D01*
X010569Y025351D01*
X010645Y025428D01*
X010645Y025504D01*
X010492Y025734D02*
X010338Y025581D01*
X010185Y025504D02*
X010185Y025428D01*
X010108Y025351D01*
X009955Y025351D01*
X009878Y025428D01*
X009955Y025581D02*
X010108Y025581D01*
X010185Y025504D01*
X010185Y025734D02*
X010108Y025811D01*
X009955Y025811D01*
X009878Y025734D01*
X009878Y025658D01*
X009955Y025581D01*
X010492Y025734D02*
X010645Y025811D01*
X010606Y018311D02*
X010299Y018311D01*
X010299Y018081D01*
X010452Y018158D01*
X010529Y018158D01*
X010606Y018081D01*
X010606Y017928D01*
X010529Y017851D01*
X010376Y017851D01*
X010299Y017928D01*
X010145Y018234D02*
X009838Y017928D01*
X009838Y017851D01*
X009685Y017928D02*
X009608Y017851D01*
X009455Y017851D01*
X009378Y017928D01*
X009455Y018081D02*
X009608Y018081D01*
X009685Y018004D01*
X009685Y017928D01*
X009455Y018081D02*
X009378Y018158D01*
X009378Y018234D01*
X009455Y018311D01*
X009608Y018311D01*
X009685Y018234D01*
X009838Y018311D02*
X010145Y018311D01*
X010145Y018234D01*
X016753Y018109D02*
X016753Y018033D01*
X016830Y017956D01*
X016983Y017956D01*
X017060Y017879D01*
X017060Y017803D01*
X016983Y017726D01*
X016830Y017726D01*
X016753Y017803D01*
X016753Y018109D02*
X016830Y018186D01*
X016983Y018186D01*
X017060Y018109D01*
X017213Y018186D02*
X017520Y018186D01*
X017520Y018109D01*
X017213Y017803D01*
X017213Y017726D01*
X017674Y017803D02*
X017674Y017956D01*
X017904Y017956D01*
X017981Y017879D01*
X017981Y017803D01*
X017904Y017726D01*
X017751Y017726D01*
X017674Y017803D01*
X017674Y017956D02*
X017827Y018109D01*
X017981Y018186D01*
X019369Y013936D02*
X019293Y013859D01*
X019293Y013783D01*
X019369Y013706D01*
X019523Y013706D01*
X019600Y013629D01*
X019600Y013553D01*
X019523Y013476D01*
X019369Y013476D01*
X019293Y013553D01*
X019369Y013936D02*
X019523Y013936D01*
X019600Y013859D01*
X019753Y013859D02*
X019753Y013783D01*
X019830Y013706D01*
X019983Y013706D01*
X020060Y013629D01*
X020060Y013553D01*
X019983Y013476D01*
X019830Y013476D01*
X019753Y013553D01*
X019753Y013629D01*
X019830Y013706D01*
X019983Y013706D02*
X020060Y013783D01*
X020060Y013859D01*
X019983Y013936D01*
X019830Y013936D01*
X019753Y013859D01*
X020213Y013859D02*
X020290Y013936D01*
X020444Y013936D01*
X020520Y013859D01*
X020520Y013783D01*
X020213Y013476D01*
X020520Y013476D01*
X020674Y013476D02*
X020674Y013783D01*
X020827Y013936D01*
X020981Y013783D01*
X020981Y013476D01*
X020981Y013706D02*
X020674Y013706D01*
X015481Y012359D02*
X015481Y012283D01*
X015174Y011976D01*
X015481Y011976D01*
X015481Y012359D02*
X015404Y012436D01*
X015251Y012436D01*
X015174Y012359D01*
X015020Y012359D02*
X015020Y012283D01*
X014944Y012206D01*
X014790Y012206D01*
X014713Y012283D01*
X014713Y012359D01*
X014790Y012436D01*
X014944Y012436D01*
X015020Y012359D01*
X014944Y012206D02*
X015020Y012129D01*
X015020Y012053D01*
X014944Y011976D01*
X014790Y011976D01*
X014713Y012053D01*
X014713Y012129D01*
X014790Y012206D01*
X014560Y012129D02*
X014560Y012053D01*
X014483Y011976D01*
X014330Y011976D01*
X014253Y012053D01*
X014330Y012206D02*
X014483Y012206D01*
X014560Y012129D01*
X014560Y012359D02*
X014483Y012436D01*
X014330Y012436D01*
X014253Y012359D01*
X014253Y012283D01*
X014330Y012206D01*
X024253Y019678D02*
X024330Y019601D01*
X024483Y019601D01*
X024560Y019678D01*
X024560Y019754D01*
X024483Y019831D01*
X024330Y019831D01*
X024253Y019908D01*
X024253Y019984D01*
X024330Y020061D01*
X024483Y020061D01*
X024560Y019984D01*
X024713Y020061D02*
X025020Y020061D01*
X025020Y019984D01*
X024713Y019678D01*
X024713Y019601D01*
X025174Y019601D02*
X025174Y019678D01*
X025481Y019984D01*
X025481Y020061D01*
X025174Y020061D01*
X025233Y025476D02*
X025080Y025476D01*
X025003Y025553D01*
X025080Y025706D02*
X025233Y025706D01*
X025310Y025629D01*
X025310Y025553D01*
X025233Y025476D01*
X025463Y025476D02*
X025463Y025553D01*
X025770Y025859D01*
X025770Y025936D01*
X025463Y025936D01*
X025310Y025859D02*
X025233Y025936D01*
X025080Y025936D01*
X025003Y025859D01*
X025003Y025783D01*
X025080Y025706D01*
X025924Y025553D02*
X026231Y025859D01*
X026231Y025553D01*
X026154Y025476D01*
X026001Y025476D01*
X025924Y025553D01*
X025924Y025859D01*
X026001Y025936D01*
X026154Y025936D01*
X026231Y025859D01*
X031705Y020061D02*
X031628Y019984D01*
X031628Y019908D01*
X031705Y019831D01*
X031858Y019831D01*
X031935Y019754D01*
X031935Y019678D01*
X031858Y019601D01*
X031705Y019601D01*
X031628Y019678D01*
X031705Y020061D02*
X031858Y020061D01*
X031935Y019984D01*
X032088Y020061D02*
X032395Y020061D01*
X032395Y019984D01*
X032088Y019678D01*
X032088Y019601D01*
X032549Y019678D02*
X032549Y019754D01*
X032626Y019831D01*
X032779Y019831D01*
X032856Y019754D01*
X032856Y019678D01*
X032779Y019601D01*
X032626Y019601D01*
X032549Y019678D01*
X032626Y019831D02*
X032549Y019908D01*
X032549Y019984D01*
X032626Y020061D01*
X032779Y020061D01*
X032856Y019984D01*
X032856Y019908D01*
X032779Y019831D01*
X029091Y014436D02*
X029168Y014359D01*
X029168Y014283D01*
X029091Y014206D01*
X028861Y014206D01*
X028708Y014359D02*
X028401Y014053D01*
X028401Y013976D01*
X028247Y014053D02*
X028171Y013976D01*
X028017Y013976D01*
X027941Y014053D01*
X027941Y014129D01*
X028017Y014206D01*
X028171Y014206D01*
X028247Y014129D01*
X028247Y014053D01*
X028171Y014206D02*
X028247Y014283D01*
X028247Y014359D01*
X028171Y014436D01*
X028017Y014436D01*
X027941Y014359D01*
X027941Y014283D01*
X028017Y014206D01*
X027787Y014129D02*
X027787Y014053D01*
X027710Y013976D01*
X027557Y013976D01*
X027480Y014053D01*
X027557Y014206D02*
X027710Y014206D01*
X027787Y014129D01*
X027787Y014359D02*
X027710Y014436D01*
X027557Y014436D01*
X027480Y014359D01*
X027480Y014283D01*
X027557Y014206D01*
X028401Y014436D02*
X028708Y014436D01*
X028708Y014359D01*
X028861Y014436D02*
X029091Y014436D01*
X028861Y014436D02*
X028861Y013976D01*
X029091Y013976D01*
X029168Y014053D01*
X029168Y014129D01*
X029091Y014206D01*
X032878Y012359D02*
X032878Y012283D01*
X032955Y012206D01*
X033108Y012206D01*
X033185Y012129D01*
X033185Y012053D01*
X033108Y011976D01*
X032955Y011976D01*
X032878Y012053D01*
X032878Y012359D02*
X032955Y012436D01*
X033108Y012436D01*
X033185Y012359D01*
X033338Y012359D02*
X033338Y012283D01*
X033415Y012206D01*
X033569Y012206D01*
X033645Y012129D01*
X033645Y012053D01*
X033569Y011976D01*
X033415Y011976D01*
X033338Y012053D01*
X033338Y012129D01*
X033415Y012206D01*
X033569Y012206D02*
X033645Y012283D01*
X033645Y012359D01*
X033569Y012436D01*
X033415Y012436D01*
X033338Y012359D01*
X033799Y012436D02*
X034106Y012436D01*
X034106Y012359D01*
X033799Y012053D01*
X033799Y011976D01*
X036105Y012303D02*
X036182Y012226D01*
X036335Y012226D01*
X036412Y012303D01*
X036412Y012379D01*
X036335Y012456D01*
X036182Y012456D01*
X036105Y012533D01*
X036105Y012609D01*
X036182Y012686D01*
X036335Y012686D01*
X036412Y012609D01*
X036566Y012609D02*
X036566Y012533D01*
X036642Y012456D01*
X036796Y012456D01*
X036872Y012379D01*
X036872Y012303D01*
X036796Y012226D01*
X036642Y012226D01*
X036566Y012303D01*
X036566Y012379D01*
X036642Y012456D01*
X036796Y012456D02*
X036872Y012533D01*
X036872Y012609D01*
X036796Y012686D01*
X036642Y012686D01*
X036566Y012609D01*
X037026Y012609D02*
X037103Y012686D01*
X037256Y012686D01*
X037333Y012609D01*
X037333Y012533D01*
X037256Y012456D01*
X037333Y012379D01*
X037333Y012303D01*
X037256Y012226D01*
X037103Y012226D01*
X037026Y012303D01*
X037179Y012456D02*
X037256Y012456D01*
X037486Y012456D02*
X037716Y012456D01*
X037793Y012379D01*
X037793Y012303D01*
X037716Y012226D01*
X037486Y012226D01*
X037486Y012686D01*
X037716Y012686D01*
X037793Y012609D01*
X037793Y012533D01*
X037716Y012456D01*
X042128Y013053D02*
X042205Y012976D01*
X042358Y012976D01*
X042435Y013053D01*
X042435Y013129D01*
X042358Y013206D01*
X042205Y013206D01*
X042128Y013283D01*
X042128Y013359D01*
X042205Y013436D01*
X042358Y013436D01*
X042435Y013359D01*
X042588Y013359D02*
X042588Y013283D01*
X042665Y013206D01*
X042819Y013206D01*
X042895Y013129D01*
X042895Y013053D01*
X042819Y012976D01*
X042665Y012976D01*
X042588Y013053D01*
X042588Y013129D01*
X042665Y013206D01*
X042819Y013206D02*
X042895Y013283D01*
X042895Y013359D01*
X042819Y013436D01*
X042665Y013436D01*
X042588Y013359D01*
X043049Y013359D02*
X043126Y013436D01*
X043279Y013436D01*
X043356Y013359D01*
X043356Y013283D01*
X043279Y013206D01*
X043356Y013129D01*
X043356Y013053D01*
X043279Y012976D01*
X043126Y012976D01*
X043049Y013053D01*
X043202Y013206D02*
X043279Y013206D01*
X046753Y012359D02*
X046753Y012283D01*
X046830Y012206D01*
X046983Y012206D01*
X047060Y012129D01*
X047060Y012053D01*
X046983Y011976D01*
X046830Y011976D01*
X046753Y012053D01*
X046753Y012359D02*
X046830Y012436D01*
X046983Y012436D01*
X047060Y012359D01*
X047213Y012359D02*
X047213Y012283D01*
X047290Y012206D01*
X047444Y012206D01*
X047520Y012129D01*
X047520Y012053D01*
X047444Y011976D01*
X047290Y011976D01*
X047213Y012053D01*
X047213Y012129D01*
X047290Y012206D01*
X047444Y012206D02*
X047520Y012283D01*
X047520Y012359D01*
X047444Y012436D01*
X047290Y012436D01*
X047213Y012359D01*
X047674Y012206D02*
X047981Y012206D01*
X047904Y011976D02*
X047904Y012436D01*
X047674Y012206D01*
X047626Y017726D02*
X047549Y017803D01*
X047856Y018109D01*
X047856Y017803D01*
X047779Y017726D01*
X047626Y017726D01*
X047549Y017803D02*
X047549Y018109D01*
X047626Y018186D01*
X047779Y018186D01*
X047856Y018109D01*
X047395Y018109D02*
X047395Y018033D01*
X047319Y017956D01*
X047165Y017956D01*
X047088Y018033D01*
X047088Y018109D01*
X047165Y018186D01*
X047319Y018186D01*
X047395Y018109D01*
X047319Y017956D02*
X047395Y017879D01*
X047395Y017803D01*
X047319Y017726D01*
X047165Y017726D01*
X047088Y017803D01*
X047088Y017879D01*
X047165Y017956D01*
X046935Y017879D02*
X046858Y017956D01*
X046705Y017956D01*
X046628Y018033D01*
X046628Y018109D01*
X046705Y018186D01*
X046858Y018186D01*
X046935Y018109D01*
X046935Y017879D02*
X046935Y017803D01*
X046858Y017726D01*
X046705Y017726D01*
X046628Y017803D01*
X040856Y017928D02*
X040856Y018234D01*
X040779Y018311D01*
X040626Y018311D01*
X040549Y018234D01*
X040549Y018158D01*
X040626Y018081D01*
X040856Y018081D01*
X040856Y017928D02*
X040779Y017851D01*
X040626Y017851D01*
X040549Y017928D01*
X040395Y018234D02*
X040088Y017928D01*
X040088Y017851D01*
X039935Y017928D02*
X039858Y017851D01*
X039705Y017851D01*
X039628Y017928D01*
X039705Y018081D02*
X039858Y018081D01*
X039935Y018004D01*
X039935Y017928D01*
X039705Y018081D02*
X039628Y018158D01*
X039628Y018234D01*
X039705Y018311D01*
X039858Y018311D01*
X039935Y018234D01*
X040088Y018311D02*
X040395Y018311D01*
X040395Y018234D01*
X055128Y019553D02*
X055205Y019476D01*
X055358Y019476D01*
X055435Y019553D01*
X055435Y019629D01*
X055358Y019706D01*
X055205Y019706D01*
X055128Y019783D01*
X055128Y019859D01*
X055205Y019936D01*
X055358Y019936D01*
X055435Y019859D01*
X055588Y019859D02*
X055588Y019783D01*
X055665Y019706D01*
X055819Y019706D01*
X055895Y019629D01*
X055895Y019553D01*
X055819Y019476D01*
X055665Y019476D01*
X055588Y019553D01*
X055588Y019629D01*
X055665Y019706D01*
X055819Y019706D02*
X055895Y019783D01*
X055895Y019859D01*
X055819Y019936D01*
X055665Y019936D01*
X055588Y019859D01*
X056049Y019783D02*
X056202Y019936D01*
X056202Y019476D01*
X056049Y019476D02*
X056356Y019476D01*
X056356Y012561D02*
X056049Y012561D01*
X056049Y012331D01*
X056202Y012408D01*
X056279Y012408D01*
X056356Y012331D01*
X056356Y012178D01*
X056279Y012101D01*
X056126Y012101D01*
X056049Y012178D01*
X055895Y012178D02*
X055819Y012101D01*
X055665Y012101D01*
X055588Y012178D01*
X055588Y012254D01*
X055665Y012331D01*
X055819Y012331D01*
X055895Y012254D01*
X055895Y012178D01*
X055819Y012331D02*
X055895Y012408D01*
X055895Y012484D01*
X055819Y012561D01*
X055665Y012561D01*
X055588Y012484D01*
X055588Y012408D01*
X055665Y012331D01*
X055435Y012254D02*
X055435Y012178D01*
X055358Y012101D01*
X055205Y012101D01*
X055128Y012178D01*
X055205Y012331D02*
X055358Y012331D01*
X055435Y012254D01*
X055435Y012484D02*
X055358Y012561D01*
X055205Y012561D01*
X055128Y012484D01*
X055128Y012408D01*
X055205Y012331D01*
X064628Y019553D02*
X064705Y019476D01*
X064858Y019476D01*
X064935Y019553D01*
X064935Y019629D01*
X064858Y019706D01*
X064705Y019706D01*
X064628Y019783D01*
X064628Y019859D01*
X064705Y019936D01*
X064858Y019936D01*
X064935Y019859D01*
X065088Y019706D02*
X065242Y019859D01*
X065395Y019936D01*
X065549Y019936D02*
X065856Y019936D01*
X065856Y019859D01*
X065549Y019553D01*
X065549Y019476D01*
X065395Y019553D02*
X065395Y019629D01*
X065319Y019706D01*
X065088Y019706D01*
X065088Y019553D01*
X065165Y019476D01*
X065319Y019476D01*
X065395Y019553D01*
X067830Y012561D02*
X067753Y012484D01*
X067753Y012408D01*
X067830Y012331D01*
X067983Y012331D01*
X068060Y012254D01*
X068060Y012178D01*
X067983Y012101D01*
X067830Y012101D01*
X067753Y012178D01*
X067830Y012561D02*
X067983Y012561D01*
X068060Y012484D01*
X068213Y012484D02*
X068213Y012408D01*
X068290Y012331D01*
X068444Y012331D01*
X068520Y012254D01*
X068520Y012178D01*
X068444Y012101D01*
X068290Y012101D01*
X068213Y012178D01*
X068213Y012254D01*
X068290Y012331D01*
X068444Y012331D02*
X068520Y012408D01*
X068520Y012484D01*
X068444Y012561D01*
X068290Y012561D01*
X068213Y012484D01*
X068674Y012331D02*
X068904Y012331D01*
X068981Y012254D01*
X068981Y012178D01*
X068904Y012101D01*
X068751Y012101D01*
X068674Y012178D01*
X068674Y012331D01*
X068827Y012484D01*
X068981Y012561D01*
X033793Y040803D02*
X033716Y040726D01*
X033563Y040726D01*
X033486Y040803D01*
X033486Y040956D01*
X033716Y040956D01*
X033793Y040879D01*
X033793Y040803D01*
X033640Y041109D02*
X033486Y040956D01*
X033333Y040956D02*
X033333Y040803D01*
X033256Y040726D01*
X033103Y040726D01*
X033026Y040803D01*
X033026Y040956D02*
X033179Y041033D01*
X033256Y041033D01*
X033333Y040956D01*
X033333Y041186D02*
X033026Y041186D01*
X033026Y040956D01*
X032872Y040879D02*
X032872Y040803D01*
X032796Y040726D01*
X032642Y040726D01*
X032566Y040803D01*
X032642Y040956D02*
X032796Y040956D01*
X032872Y040879D01*
X032872Y041109D02*
X032796Y041186D01*
X032642Y041186D01*
X032566Y041109D01*
X032566Y041033D01*
X032642Y040956D01*
X033640Y041109D02*
X033793Y041186D01*
X025981Y040811D02*
X025674Y040811D01*
X025674Y040581D01*
X025827Y040658D01*
X025904Y040658D01*
X025981Y040581D01*
X025981Y040428D01*
X025904Y040351D01*
X025751Y040351D01*
X025674Y040428D01*
X025520Y040428D02*
X025444Y040351D01*
X025290Y040351D01*
X025213Y040428D01*
X025213Y040581D02*
X025367Y040658D01*
X025444Y040658D01*
X025520Y040581D01*
X025520Y040428D01*
X025213Y040581D02*
X025213Y040811D01*
X025520Y040811D01*
X025060Y040734D02*
X024983Y040811D01*
X024830Y040811D01*
X024753Y040734D01*
X024753Y040658D01*
X024830Y040581D01*
X024983Y040581D01*
X025060Y040504D01*
X025060Y040428D01*
X024983Y040351D01*
X024830Y040351D01*
X024753Y040428D01*
X024955Y033311D02*
X024878Y033234D01*
X024878Y033158D01*
X024955Y033081D01*
X025108Y033081D01*
X025185Y033004D01*
X025185Y032928D01*
X025108Y032851D01*
X024955Y032851D01*
X024878Y032928D01*
X024955Y033311D02*
X025108Y033311D01*
X025185Y033234D01*
X025338Y033081D02*
X025569Y033081D01*
X025645Y033004D01*
X025645Y032928D01*
X025569Y032851D01*
X025415Y032851D01*
X025338Y032928D01*
X025338Y033081D01*
X025492Y033234D01*
X025645Y033311D01*
X025799Y033234D02*
X025876Y033311D01*
X026029Y033311D01*
X026106Y033234D01*
X026106Y033158D01*
X025799Y032851D01*
X026106Y032851D01*
X018029Y050851D02*
X017876Y050851D01*
X017799Y050928D01*
X017799Y051004D01*
X017876Y051081D01*
X018029Y051081D01*
X018106Y051004D01*
X018106Y050928D01*
X018029Y050851D01*
X018029Y051081D02*
X018106Y051158D01*
X018106Y051234D01*
X018029Y051311D01*
X017876Y051311D01*
X017799Y051234D01*
X017799Y051158D01*
X017876Y051081D01*
X017645Y051081D02*
X017338Y051081D01*
X017569Y051311D01*
X017569Y050851D01*
X017185Y050928D02*
X017108Y050851D01*
X016955Y050851D01*
X016878Y050928D01*
X016955Y051081D02*
X017108Y051081D01*
X017185Y051004D01*
X017185Y050928D01*
X016955Y051081D02*
X016878Y051158D01*
X016878Y051234D01*
X016955Y051311D01*
X017108Y051311D01*
X017185Y051234D01*
X010606Y051234D02*
X010299Y050928D01*
X010299Y050851D01*
X010069Y050851D02*
X010069Y051311D01*
X009838Y051081D01*
X010145Y051081D01*
X010299Y051311D02*
X010606Y051311D01*
X010606Y051234D01*
X009685Y051234D02*
X009608Y051311D01*
X009455Y051311D01*
X009378Y051234D01*
X009378Y051158D01*
X009455Y051081D01*
X009608Y051081D01*
X009685Y051004D01*
X009685Y050928D01*
X009608Y050851D01*
X009455Y050851D01*
X009378Y050928D01*
D16*
X008446Y048413D02*
X015532Y055499D01*
X015532Y048413D01*
X008446Y055499D01*
X008446Y048413D01*
X015532Y048413D01*
X015946Y048413D02*
X023032Y055499D01*
X023032Y048413D01*
X015946Y055499D01*
X015946Y048413D01*
X023032Y048413D01*
X026446Y048413D02*
X033532Y055499D01*
X033532Y048413D01*
X026446Y055499D01*
X026446Y048413D01*
X033532Y048413D01*
X033946Y048413D02*
X041032Y055499D01*
X041032Y048413D01*
X033946Y055499D01*
X033946Y048413D01*
X041032Y048413D01*
X041446Y048413D02*
X048532Y055499D01*
X048532Y048413D01*
X041446Y055499D01*
X041446Y048413D01*
X048532Y048413D01*
X048946Y048413D02*
X056032Y055499D01*
X056032Y048413D01*
X048946Y055499D01*
X048946Y048413D01*
X056032Y048413D01*
X053456Y044999D02*
X068023Y037913D01*
X068023Y044999D01*
X053456Y037913D01*
X068023Y037913D01*
X068032Y037499D02*
X060946Y030413D01*
X068032Y030413D01*
X060946Y037499D01*
X060946Y030413D01*
X060532Y030413D02*
X053446Y037499D01*
X053446Y030413D01*
X060532Y037499D01*
X060532Y030413D01*
X053446Y030413D01*
X053032Y030413D02*
X045946Y037499D01*
X045946Y030413D01*
X053032Y037499D01*
X053032Y030413D01*
X045946Y030413D01*
X045532Y030413D02*
X038446Y037499D01*
X038446Y030413D01*
X045532Y037499D01*
X045532Y030413D01*
X038446Y030413D01*
X038032Y030413D02*
X030946Y037499D01*
X030946Y030413D01*
X038032Y037499D01*
X038032Y030413D01*
X030946Y030413D01*
X030532Y030413D02*
X023446Y037499D01*
X023446Y030413D01*
X030532Y037499D01*
X030532Y030413D01*
X023446Y030413D01*
X023032Y030413D02*
X015946Y037499D01*
X015946Y030413D01*
X023032Y037499D01*
X023032Y030413D01*
X015946Y030413D01*
X015532Y030413D02*
X008446Y037499D01*
X008446Y030413D01*
X015532Y037499D01*
X015532Y030413D01*
X008446Y030413D01*
X008446Y029999D02*
X015532Y022913D01*
X015532Y029999D01*
X008446Y022913D01*
X015532Y022913D01*
X015946Y022913D02*
X023032Y029999D01*
X023032Y022913D01*
X015946Y029999D01*
X015946Y022913D01*
X023032Y022913D01*
X023446Y022913D02*
X030532Y029999D01*
X030532Y022913D01*
X023446Y029999D01*
X023446Y022913D01*
X030532Y022913D01*
X030946Y022913D02*
X038032Y029999D01*
X038032Y022913D01*
X030946Y029999D01*
X030946Y022913D01*
X038032Y022913D01*
X038446Y022913D02*
X045532Y029999D01*
X045532Y022913D01*
X038446Y029999D01*
X038446Y022913D01*
X045532Y022913D01*
X045946Y022913D02*
X053032Y029999D01*
X053032Y022913D01*
X045946Y029999D01*
X045946Y022913D01*
X053032Y022913D01*
X053032Y022499D02*
X045946Y015413D01*
X053032Y015413D01*
X045946Y022499D01*
X045946Y015413D01*
X045532Y015413D02*
X038446Y022499D01*
X038446Y015413D01*
X045532Y022499D01*
X045532Y015413D01*
X038446Y015413D01*
X038032Y015413D02*
X030946Y022499D01*
X030946Y015413D01*
X038032Y022499D01*
X038032Y015413D01*
X030946Y015413D01*
X030532Y015413D02*
X023446Y022499D01*
X023446Y015413D01*
X030532Y022499D01*
X030532Y015413D01*
X023446Y015413D01*
X023032Y015413D02*
X015946Y022499D01*
X015946Y015413D01*
X023032Y022499D01*
X023032Y015413D01*
X015946Y015413D01*
X015532Y015413D02*
X008446Y022499D01*
X008446Y015413D01*
X015532Y022499D01*
X015532Y015413D01*
X008446Y015413D01*
X010096Y014999D02*
X026632Y007913D01*
X026632Y014999D01*
X010096Y007913D01*
X010096Y014999D01*
X026632Y014999D01*
X026600Y014999D02*
X006128Y007913D01*
X026600Y007913D01*
X006128Y014999D01*
X006128Y007913D01*
X010096Y007913D02*
X026632Y007913D01*
X026600Y007913D02*
X026600Y014999D01*
X006128Y014999D01*
X008446Y022499D02*
X015532Y022499D01*
X015946Y022499D02*
X023032Y022499D01*
X023446Y022499D02*
X030532Y022499D01*
X030946Y022499D02*
X038032Y022499D01*
X038446Y022499D02*
X045532Y022499D01*
X045946Y022499D02*
X053032Y022499D01*
X053032Y015413D01*
X053017Y014999D02*
X043962Y007913D01*
X053017Y007913D01*
X043962Y014999D01*
X043962Y007913D01*
X043532Y007913D02*
X036446Y014999D01*
X036446Y007913D01*
X043532Y014999D01*
X043532Y007913D01*
X036446Y007913D01*
X036017Y007913D02*
X026962Y014999D01*
X026962Y007913D01*
X036017Y014999D01*
X036017Y007913D01*
X026962Y007913D01*
X026962Y014999D02*
X036017Y014999D01*
X036446Y014999D02*
X043532Y014999D01*
X043962Y014999D02*
X053017Y014999D01*
X053017Y007913D01*
X053462Y007913D02*
X062517Y014999D01*
X062517Y007913D01*
X053462Y014999D01*
X053462Y007913D01*
X062517Y007913D01*
X062946Y007913D02*
X070032Y014999D01*
X070032Y007913D01*
X062946Y014999D01*
X062946Y007913D01*
X070032Y007913D01*
X070032Y014999D02*
X062946Y014999D01*
X062946Y015413D02*
X070032Y022499D01*
X070032Y015413D01*
X062946Y022499D01*
X062946Y015413D01*
X070032Y015413D01*
X062517Y015413D02*
X053462Y022499D01*
X053462Y015413D01*
X062517Y022499D01*
X062517Y015413D01*
X053462Y015413D01*
X053462Y014999D02*
X062517Y014999D01*
X062517Y022499D02*
X053462Y022499D01*
X053471Y022913D02*
X070007Y029999D01*
X070007Y022913D01*
X053471Y029999D01*
X053471Y022913D01*
X070007Y022913D01*
X070032Y022499D02*
X062946Y022499D01*
X070007Y029999D02*
X053471Y029999D01*
X053032Y029999D02*
X045946Y029999D01*
X045532Y029999D02*
X038446Y029999D01*
X038032Y029999D02*
X030946Y029999D01*
X030532Y029999D02*
X023446Y029999D01*
X023032Y029999D02*
X015946Y029999D01*
X015532Y029999D02*
X008446Y029999D01*
X008446Y022913D01*
X008446Y037499D02*
X015532Y037499D01*
X015532Y037913D02*
X008446Y044999D01*
X008446Y037913D01*
X015532Y044999D01*
X015532Y037913D01*
X008446Y037913D01*
X015946Y037913D02*
X023032Y044999D01*
X023032Y037913D01*
X015946Y044999D01*
X015946Y037913D01*
X023032Y037913D01*
X023446Y037913D02*
X030532Y044999D01*
X030532Y037913D01*
X023446Y044999D01*
X023446Y037913D01*
X030532Y037913D01*
X030946Y037913D02*
X038032Y044999D01*
X038032Y037913D01*
X030946Y044999D01*
X030946Y037913D01*
X038032Y037913D01*
X038446Y037913D02*
X045532Y044999D01*
X045532Y037913D01*
X038446Y044999D01*
X038446Y037913D01*
X045532Y037913D01*
X045946Y037913D02*
X053032Y044999D01*
X053032Y037913D01*
X045946Y044999D01*
X045946Y037913D01*
X053032Y037913D01*
X053032Y037499D02*
X045946Y037499D01*
X045532Y037499D02*
X038446Y037499D01*
X038032Y037499D02*
X030946Y037499D01*
X030532Y037499D02*
X023446Y037499D01*
X023032Y037499D02*
X015946Y037499D01*
X015946Y044999D02*
X023032Y044999D01*
X023446Y044999D02*
X030532Y044999D01*
X030946Y044999D02*
X038032Y044999D01*
X038446Y044999D02*
X045532Y044999D01*
X045946Y044999D02*
X053032Y044999D01*
X053456Y044999D02*
X053456Y037913D01*
X053446Y037499D02*
X060532Y037499D01*
X060946Y037499D02*
X068032Y037499D01*
X068032Y030413D01*
X068023Y044999D02*
X053456Y044999D01*
X062946Y048413D02*
X070032Y055499D01*
X070032Y048413D01*
X062946Y055499D01*
X062946Y048413D01*
X070032Y048413D01*
X070032Y055499D02*
X062946Y055499D01*
X056032Y055499D02*
X048946Y055499D01*
X048532Y055499D02*
X041446Y055499D01*
X041032Y055499D02*
X033946Y055499D01*
X033532Y055499D02*
X026446Y055499D01*
X023032Y055499D02*
X015946Y055499D01*
X015532Y055499D02*
X008446Y055499D01*
X008446Y044999D02*
X015532Y044999D01*
D17*
X015764Y045831D02*
X014964Y045831D01*
X014864Y045931D01*
X014764Y045831D01*
X013964Y045831D01*
X013864Y045931D01*
X013764Y045831D01*
X012964Y045831D01*
X012864Y045931D01*
X012764Y045831D01*
X011964Y045831D01*
X011864Y045931D01*
X011764Y045831D01*
X010964Y045831D01*
X010864Y045931D01*
X010764Y045831D01*
X009864Y045831D01*
X009864Y046831D01*
X010764Y046831D01*
X010864Y046731D01*
X010964Y046831D01*
X011764Y046831D01*
X011864Y046731D01*
X011964Y046831D01*
X012764Y046831D01*
X012864Y046731D01*
X012964Y046831D01*
X013764Y046831D01*
X013864Y046731D01*
X013964Y046831D01*
X014764Y046831D01*
X014864Y046731D01*
X014964Y046831D01*
X015764Y046831D01*
X015864Y046731D01*
X015964Y046831D01*
X016764Y046831D01*
X016864Y046731D01*
X016964Y046831D01*
X017764Y046831D01*
X017864Y046731D01*
X017964Y046831D01*
X018764Y046831D01*
X018864Y046731D01*
X018964Y046831D01*
X019764Y046831D01*
X019864Y046731D01*
X019964Y046831D01*
X020857Y046831D01*
X020864Y046831D02*
X020864Y045831D01*
X020857Y045831D02*
X019964Y045831D01*
X019864Y045931D01*
X019764Y045831D01*
X018964Y045831D01*
X018864Y045931D01*
X018764Y045831D01*
X017964Y045831D01*
X017864Y045931D01*
X017764Y045831D01*
X016964Y045831D01*
X016864Y045931D01*
X016764Y045831D01*
X015964Y045831D01*
X015864Y045931D01*
X015764Y045831D01*
X015564Y046131D02*
X015564Y046531D01*
X015464Y046531D01*
X015464Y046631D01*
X015264Y046631D01*
X015264Y046531D01*
X015164Y046531D01*
X015164Y046131D01*
X015264Y046131D01*
X015264Y046031D01*
X015464Y046031D01*
X015464Y046131D01*
X015564Y046131D01*
X016164Y046131D02*
X016164Y046531D01*
X016264Y046531D01*
X016264Y046631D01*
X016464Y046631D01*
X016464Y046531D01*
X016564Y046531D01*
X016564Y046131D01*
X016464Y046131D01*
X016464Y046031D01*
X016264Y046031D01*
X016264Y046131D01*
X016164Y046131D01*
X017164Y046131D02*
X017164Y046531D01*
X017264Y046531D01*
X017264Y046631D01*
X017464Y046631D01*
X017464Y046531D01*
X017564Y046531D01*
X017564Y046131D01*
X017464Y046131D01*
X017464Y046031D01*
X017264Y046031D01*
X017264Y046131D01*
X017164Y046131D01*
X018164Y046131D02*
X018164Y046531D01*
X018264Y046531D01*
X018264Y046631D01*
X018464Y046631D01*
X018464Y046531D01*
X018564Y046531D01*
X018564Y046131D01*
X018464Y046131D01*
X018464Y046031D01*
X018264Y046031D01*
X018264Y046131D01*
X018164Y046131D01*
X019164Y046131D02*
X019264Y046131D01*
X019264Y046031D01*
X019464Y046031D01*
X019464Y046131D01*
X019564Y046131D01*
X019564Y046531D01*
X019464Y046531D01*
X019464Y046631D01*
X019264Y046631D01*
X019264Y046531D01*
X019164Y046531D01*
X019164Y046131D01*
X020164Y046131D02*
X020164Y046531D01*
X020264Y046531D01*
X020264Y046631D01*
X020464Y046631D01*
X020464Y046531D01*
X020564Y046531D01*
X020564Y046131D01*
X020464Y046131D01*
X020464Y046031D01*
X020264Y046031D01*
X020264Y046131D01*
X020164Y046131D01*
X022049Y043930D02*
X022049Y043221D01*
X022679Y043221D02*
X022679Y043930D01*
X022614Y045556D02*
X022614Y046306D01*
X022653Y046308D01*
X022692Y046314D01*
X022730Y046323D01*
X022767Y046336D01*
X022803Y046353D01*
X022836Y046373D01*
X022868Y046397D01*
X022897Y046423D01*
X022923Y046452D01*
X022947Y046484D01*
X022967Y046517D01*
X022984Y046553D01*
X022997Y046590D01*
X023006Y046628D01*
X023012Y046667D01*
X023014Y046706D01*
X023012Y046745D01*
X023006Y046784D01*
X022997Y046822D01*
X022984Y046859D01*
X022967Y046895D01*
X022947Y046928D01*
X022923Y046960D01*
X022897Y046989D01*
X022868Y047015D01*
X022836Y047039D01*
X022803Y047059D01*
X022767Y047076D01*
X022730Y047089D01*
X022692Y047098D01*
X022653Y047104D01*
X022614Y047106D01*
X022614Y047856D01*
X029614Y047856D01*
X029614Y045556D01*
X022614Y045556D01*
X023390Y048891D02*
X024099Y048891D01*
X024099Y049521D02*
X023390Y049521D01*
X023390Y049641D02*
X024099Y049641D01*
X024099Y050271D02*
X023390Y050271D01*
X023390Y050391D02*
X024099Y050391D01*
X024099Y051021D02*
X023390Y051021D01*
X025390Y051021D02*
X026099Y051021D01*
X026099Y050391D02*
X025390Y050391D01*
X025640Y049521D02*
X026349Y049521D01*
X026349Y048891D02*
X025640Y048891D01*
X026765Y052641D02*
X027474Y052641D01*
X027474Y053271D02*
X026765Y053271D01*
X026054Y053169D02*
X026054Y053878D01*
X025424Y053878D02*
X025424Y053169D01*
X024054Y053606D02*
X024054Y054315D01*
X023424Y054315D02*
X023424Y053606D01*
X014564Y046531D02*
X014564Y046131D01*
X014464Y046131D01*
X014464Y046031D01*
X014264Y046031D01*
X014264Y046131D01*
X014164Y046131D01*
X014164Y046531D01*
X014264Y046531D01*
X014264Y046631D01*
X014464Y046631D01*
X014464Y046531D01*
X014564Y046531D01*
X013564Y046531D02*
X013564Y046131D01*
X013464Y046131D01*
X013464Y046031D01*
X013264Y046031D01*
X013264Y046131D01*
X013164Y046131D01*
X013164Y046531D01*
X013264Y046531D01*
X013264Y046631D01*
X013464Y046631D01*
X013464Y046531D01*
X013564Y046531D01*
X012564Y046531D02*
X012564Y046131D01*
X012464Y046131D01*
X012464Y046031D01*
X012264Y046031D01*
X012264Y046131D01*
X012164Y046131D01*
X012164Y046531D01*
X012264Y046531D01*
X012264Y046631D01*
X012464Y046631D01*
X012464Y046531D01*
X012564Y046531D01*
X011564Y046531D02*
X011564Y046131D01*
X011464Y046131D01*
X011464Y046031D01*
X011264Y046031D01*
X011264Y046131D01*
X011164Y046131D01*
X011164Y046531D01*
X011264Y046531D01*
X011264Y046631D01*
X011464Y046631D01*
X011464Y046531D01*
X011564Y046531D01*
X010564Y046531D02*
X010564Y046131D01*
X010464Y046131D01*
X010464Y046031D01*
X010264Y046031D01*
X010264Y046131D01*
X010164Y046131D01*
X010164Y046531D01*
X010264Y046531D01*
X010264Y046631D01*
X010464Y046631D01*
X010464Y046531D01*
X010564Y046531D01*
X027390Y038646D02*
X028099Y038646D01*
X028099Y038016D02*
X027390Y038016D01*
X030424Y035555D02*
X030424Y034846D01*
X031054Y034846D02*
X031054Y035555D01*
X028849Y031271D02*
X028140Y031271D01*
X028140Y030641D02*
X028849Y030641D01*
X043005Y038016D02*
X043714Y038016D01*
X043714Y038646D02*
X043005Y038646D01*
X044890Y042766D02*
X045599Y042766D01*
X045599Y043396D02*
X044890Y043396D01*
X044089Y045766D02*
X043380Y045766D01*
X043380Y046396D02*
X044089Y046396D01*
X044089Y046641D02*
X043380Y046641D01*
X043380Y047271D02*
X044089Y047271D01*
X044089Y047516D02*
X043380Y047516D01*
X043380Y048146D02*
X044089Y048146D01*
X050880Y048146D02*
X051589Y048146D01*
X051589Y047516D02*
X050880Y047516D01*
X050880Y047271D02*
X051589Y047271D01*
X051589Y046641D02*
X050880Y046641D01*
X050880Y046396D02*
X051589Y046396D01*
X051589Y045766D02*
X050880Y045766D01*
X052755Y045891D02*
X053464Y045891D01*
X053464Y046521D02*
X052755Y046521D01*
X052755Y046766D02*
X053464Y046766D01*
X053464Y047396D02*
X052755Y047396D01*
X052755Y047641D02*
X053464Y047641D01*
X053464Y048271D02*
X052755Y048271D01*
X052755Y048516D02*
X053464Y048516D01*
X053464Y049146D02*
X052755Y049146D01*
X055799Y053346D02*
X055799Y054055D01*
X056429Y054055D02*
X056429Y053346D01*
X056674Y053471D02*
X056674Y054180D01*
X057304Y054180D02*
X057304Y053471D01*
X057349Y054891D02*
X056640Y054891D01*
X056640Y055521D02*
X057349Y055521D01*
X059214Y053581D02*
X059964Y053581D01*
X060049Y053731D02*
X060049Y054440D01*
X060679Y054440D02*
X060679Y053731D01*
X060764Y053581D02*
X061514Y053581D01*
X061514Y045581D01*
X059214Y045581D01*
X059214Y053581D01*
X059964Y053581D02*
X059966Y053542D01*
X059972Y053503D01*
X059981Y053465D01*
X059994Y053428D01*
X060011Y053392D01*
X060031Y053359D01*
X060055Y053327D01*
X060081Y053298D01*
X060110Y053272D01*
X060142Y053248D01*
X060175Y053228D01*
X060211Y053211D01*
X060248Y053198D01*
X060286Y053189D01*
X060325Y053183D01*
X060364Y053181D01*
X060403Y053183D01*
X060442Y053189D01*
X060480Y053198D01*
X060517Y053211D01*
X060553Y053228D01*
X060586Y053248D01*
X060618Y053272D01*
X060647Y053298D01*
X060673Y053327D01*
X060697Y053359D01*
X060717Y053392D01*
X060734Y053428D01*
X060747Y053465D01*
X060756Y053503D01*
X060762Y053542D01*
X060764Y053581D01*
X060674Y052440D02*
X060674Y051731D01*
X060554Y051731D02*
X060554Y052440D01*
X059924Y052440D02*
X059924Y051731D01*
X061304Y051731D02*
X061304Y052440D01*
X054617Y041565D02*
X054617Y040856D01*
X053987Y040856D02*
X053987Y041565D01*
X051089Y038271D02*
X050380Y038271D01*
X050380Y037641D02*
X051089Y037641D01*
X052827Y032646D02*
X053536Y032646D01*
X053536Y032016D02*
X052827Y032016D01*
X045589Y028271D02*
X044880Y028271D01*
X044880Y027641D02*
X045589Y027641D01*
X050640Y023771D02*
X051349Y023771D01*
X051349Y023141D02*
X050640Y023141D01*
X045776Y020021D02*
X045067Y020021D01*
X045067Y019391D02*
X045776Y019391D01*
X041341Y015362D02*
X040840Y015863D01*
X040394Y015418D02*
X040896Y014916D01*
X036339Y014021D02*
X035630Y014021D01*
X035630Y013391D02*
X036339Y013391D01*
X027224Y015141D02*
X026515Y015141D01*
X026515Y015771D02*
X027224Y015771D01*
X053452Y017203D02*
X054161Y017203D01*
X054161Y017833D02*
X053452Y017833D01*
X062077Y022391D02*
X062786Y022391D01*
X062786Y023021D02*
X062077Y023021D01*
X062140Y012771D02*
X062849Y012771D01*
X062849Y012141D02*
X062140Y012141D01*
X062429Y009315D02*
X062429Y008606D01*
X061799Y008606D02*
X061799Y009315D01*
X064987Y040544D02*
X064987Y041253D01*
X065617Y041253D02*
X065617Y040544D01*
X036224Y044891D02*
X035515Y044891D01*
X035515Y045521D02*
X036224Y045521D01*
X036214Y045766D02*
X035505Y045766D01*
X035505Y046396D02*
X036214Y046396D01*
X036339Y046641D02*
X035630Y046641D01*
X035630Y047271D02*
X036339Y047271D01*
X036464Y047516D02*
X035755Y047516D01*
X035755Y048146D02*
X036464Y048146D01*
D18*
X020364Y046531D03*
X020364Y046131D03*
X019364Y046131D03*
X019364Y046531D03*
X018364Y046531D03*
X018364Y046131D03*
X017364Y046131D03*
X017364Y046531D03*
X016364Y046531D03*
X016364Y046131D03*
X015364Y046131D03*
X015364Y046531D03*
X014364Y046531D03*
X014364Y046131D03*
X013364Y046131D03*
X013364Y046531D03*
X012364Y046531D03*
X012364Y046131D03*
X011364Y046131D03*
X011364Y046531D03*
X010364Y046531D03*
X010364Y046131D03*
D19*
X023242Y049206D03*
X023242Y049956D03*
X023242Y050706D03*
X024242Y050706D03*
X025242Y050706D03*
X026242Y050706D03*
X024242Y049956D03*
X024242Y049206D03*
X025492Y049206D03*
X026492Y049206D03*
X026617Y052956D03*
X027617Y052956D03*
X035612Y047830D03*
X035487Y046955D03*
X035362Y046080D03*
X035367Y045206D03*
X036367Y045206D03*
X036362Y046080D03*
X036487Y046955D03*
X036612Y047830D03*
X043237Y047830D03*
X044237Y047830D03*
X044237Y046955D03*
X044237Y046080D03*
X043237Y046080D03*
X043237Y046955D03*
X044742Y043081D03*
X045742Y043081D03*
X043862Y038330D03*
X042862Y038330D03*
X050237Y037955D03*
X051237Y037955D03*
X052679Y032331D03*
X053679Y032331D03*
X045737Y027955D03*
X044737Y027955D03*
X050492Y023456D03*
X051492Y023456D03*
X045924Y019705D03*
X044924Y019705D03*
G36*
X040652Y016093D02*
X040860Y015885D01*
X040374Y015399D01*
X040166Y015607D01*
X040652Y016093D01*
G37*
G36*
X041359Y015385D02*
X041567Y015177D01*
X041081Y014691D01*
X040873Y014899D01*
X041359Y015385D01*
G37*
X036487Y013705D03*
X035487Y013705D03*
X027367Y015456D03*
X026367Y015456D03*
X027992Y030956D03*
X028992Y030956D03*
X028242Y038331D03*
X027242Y038331D03*
X050737Y046080D03*
X050737Y046955D03*
X051737Y046955D03*
X051737Y046080D03*
X052612Y046205D03*
X053612Y046205D03*
X053612Y047080D03*
X053612Y047955D03*
X052612Y047955D03*
X052612Y047080D03*
X051737Y047830D03*
X050737Y047830D03*
X052612Y048830D03*
X053612Y048830D03*
X056492Y055206D03*
X057492Y055206D03*
X061929Y022706D03*
X062929Y022706D03*
X054304Y017519D03*
X053304Y017519D03*
X061992Y012456D03*
X062992Y012456D03*
D20*
X022115Y046183D03*
X022114Y047228D03*
D21*
X022365Y044078D03*
X022365Y043078D03*
X030740Y035703D03*
X030740Y034703D03*
X025739Y053021D03*
X025739Y054021D03*
X023739Y054458D03*
X023739Y053458D03*
X054301Y041708D03*
X054301Y040708D03*
X065301Y040396D03*
X065301Y041396D03*
X060989Y051583D03*
X060239Y051583D03*
X060239Y052583D03*
X060989Y052583D03*
X060364Y053583D03*
X060364Y054583D03*
X056990Y054328D03*
X056990Y053328D03*
X056115Y053203D03*
X056115Y054203D03*
X062114Y009458D03*
X062114Y008458D03*
D22*
X064023Y023385D02*
X064416Y023385D01*
X064455Y023387D01*
X064493Y023393D01*
X064530Y023402D01*
X064567Y023415D01*
X064602Y023432D01*
X064635Y023451D01*
X064666Y023474D01*
X064695Y023500D01*
X064721Y023529D01*
X064744Y023560D01*
X064763Y023593D01*
X064780Y023628D01*
X064793Y023665D01*
X064802Y023702D01*
X064808Y023740D01*
X064810Y023779D01*
X064810Y024172D01*
X064810Y028739D02*
X064810Y029133D01*
X064808Y029172D01*
X064802Y029210D01*
X064793Y029247D01*
X064780Y029284D01*
X064763Y029319D01*
X064744Y029352D01*
X064721Y029383D01*
X064695Y029412D01*
X064666Y029438D01*
X064635Y029461D01*
X064602Y029480D01*
X064567Y029497D01*
X064530Y029510D01*
X064493Y029519D01*
X064455Y029525D01*
X064416Y029527D01*
X064023Y029527D01*
X059456Y029527D02*
X059062Y029527D01*
X059023Y029525D01*
X058985Y029519D01*
X058948Y029510D01*
X058911Y029497D01*
X058876Y029480D01*
X058843Y029461D01*
X058812Y029438D01*
X058783Y029412D01*
X058757Y029383D01*
X058734Y029352D01*
X058715Y029319D01*
X058698Y029284D01*
X058685Y029247D01*
X058676Y029210D01*
X058670Y029172D01*
X058668Y029133D01*
X058668Y028739D01*
X058668Y024172D02*
X058668Y023779D01*
X058670Y023740D01*
X058676Y023702D01*
X058685Y023665D01*
X058698Y023628D01*
X058715Y023593D01*
X058734Y023560D01*
X058757Y023529D01*
X058783Y023500D01*
X058812Y023474D01*
X058843Y023451D01*
X058876Y023432D01*
X058911Y023415D01*
X058948Y023402D01*
X058985Y023393D01*
X059023Y023387D01*
X059062Y023385D01*
X059456Y023385D01*
X058456Y038385D02*
X058062Y038385D01*
X058023Y038387D01*
X057985Y038393D01*
X057948Y038402D01*
X057911Y038415D01*
X057876Y038432D01*
X057843Y038451D01*
X057812Y038474D01*
X057783Y038500D01*
X057757Y038529D01*
X057734Y038560D01*
X057715Y038593D01*
X057698Y038628D01*
X057685Y038665D01*
X057676Y038702D01*
X057670Y038740D01*
X057668Y038779D01*
X057668Y039172D01*
X057668Y043739D02*
X057668Y044133D01*
X057670Y044172D01*
X057676Y044210D01*
X057685Y044247D01*
X057698Y044284D01*
X057715Y044319D01*
X057734Y044352D01*
X057757Y044383D01*
X057783Y044412D01*
X057812Y044438D01*
X057843Y044461D01*
X057876Y044480D01*
X057911Y044497D01*
X057948Y044510D01*
X057985Y044519D01*
X058023Y044525D01*
X058062Y044527D01*
X058456Y044527D01*
X063023Y044527D02*
X063416Y044527D01*
X063455Y044525D01*
X063493Y044519D01*
X063530Y044510D01*
X063567Y044497D01*
X063602Y044480D01*
X063635Y044461D01*
X063666Y044438D01*
X063695Y044412D01*
X063721Y044383D01*
X063744Y044352D01*
X063763Y044319D01*
X063780Y044284D01*
X063793Y044247D01*
X063802Y044210D01*
X063808Y044172D01*
X063810Y044133D01*
X063810Y043739D01*
X063810Y039172D02*
X063810Y038779D01*
X063808Y038740D01*
X063802Y038702D01*
X063793Y038665D01*
X063780Y038628D01*
X063763Y038593D01*
X063744Y038560D01*
X063721Y038529D01*
X063695Y038500D01*
X063666Y038474D01*
X063635Y038451D01*
X063602Y038432D01*
X063567Y038415D01*
X063530Y038402D01*
X063493Y038393D01*
X063455Y038387D01*
X063416Y038385D01*
X063023Y038385D01*
X019435Y014133D02*
X019435Y013739D01*
X019435Y014133D02*
X019433Y014172D01*
X019427Y014210D01*
X019418Y014247D01*
X019405Y014284D01*
X019388Y014319D01*
X019369Y014352D01*
X019346Y014383D01*
X019320Y014412D01*
X019291Y014438D01*
X019260Y014461D01*
X019227Y014480D01*
X019192Y014497D01*
X019155Y014510D01*
X019118Y014519D01*
X019080Y014525D01*
X019041Y014527D01*
X018648Y014527D01*
X014081Y014527D02*
X013687Y014527D01*
X013648Y014525D01*
X013610Y014519D01*
X013573Y014510D01*
X013536Y014497D01*
X013501Y014480D01*
X013468Y014461D01*
X013437Y014438D01*
X013408Y014412D01*
X013382Y014383D01*
X013359Y014352D01*
X013340Y014319D01*
X013323Y014284D01*
X013310Y014247D01*
X013301Y014210D01*
X013295Y014172D01*
X013293Y014133D01*
X013293Y013739D01*
X013293Y009172D02*
X013293Y008779D01*
X013295Y008740D01*
X013301Y008702D01*
X013310Y008665D01*
X013323Y008628D01*
X013340Y008593D01*
X013359Y008560D01*
X013382Y008529D01*
X013408Y008500D01*
X013437Y008474D01*
X013468Y008451D01*
X013501Y008432D01*
X013536Y008415D01*
X013573Y008402D01*
X013610Y008393D01*
X013648Y008387D01*
X013687Y008385D01*
X014081Y008385D01*
X018648Y008385D02*
X019041Y008385D01*
X019080Y008387D01*
X019118Y008393D01*
X019155Y008402D01*
X019192Y008415D01*
X019227Y008432D01*
X019260Y008451D01*
X019291Y008474D01*
X019320Y008500D01*
X019346Y008529D01*
X019369Y008560D01*
X019388Y008593D01*
X019405Y008628D01*
X019418Y008665D01*
X019427Y008702D01*
X019433Y008740D01*
X019435Y008779D01*
X019435Y009172D01*
D23*
X023274Y043206D02*
X021155Y045939D01*
M02*
