G75*
G70*
%OFA0B0*%
%FSLAX24Y24*%
%IPPOS*%
%LPD*%
%AMOC8*
5,1,8,0,0,1.08239X$1,22.5*
%
%ADD10C,0.1580*%
%ADD11C,0.1092*%
%ADD12C,0.0474*%
%ADD13C,0.0940*%
%ADD14C,0.1261*%
%ADD15R,0.0720X0.0060*%
%ADD16R,0.0060X0.0720*%
%ADD17R,0.0907X0.0907*%
%ADD18C,0.0907*%
%ADD19C,0.0907*%
%ADD20R,0.0789X0.0710*%
%ADD21C,0.2049*%
%ADD22C,0.0867*%
%ADD23R,0.0986X0.0986*%
D10*
X011862Y007350D03*
X013862Y007350D03*
X014362Y008350D03*
X016362Y008350D03*
X014987Y014850D03*
X017487Y015850D03*
X022487Y014850D03*
X024987Y015850D03*
X029987Y014850D03*
X032487Y015850D03*
X037487Y014850D03*
X039987Y015850D03*
X044987Y014850D03*
X047487Y015850D03*
X053487Y014850D03*
X055987Y015850D03*
X061987Y014850D03*
X064487Y015850D03*
X057237Y022350D03*
X059737Y023350D03*
X059987Y029850D03*
X062487Y030850D03*
X054987Y030850D03*
X052487Y029850D03*
X047487Y030850D03*
X044987Y029850D03*
X039987Y030850D03*
X037487Y029850D03*
X032487Y030850D03*
X029987Y029850D03*
X024987Y030850D03*
X022487Y029850D03*
X017487Y030850D03*
X014987Y029850D03*
X009987Y030850D03*
X007487Y029850D03*
X009987Y023350D03*
X007487Y022350D03*
X009987Y015850D03*
X007487Y014850D03*
X014987Y022350D03*
X017487Y023350D03*
X022487Y022350D03*
X024987Y023350D03*
X029987Y022350D03*
X032487Y023350D03*
X037487Y022350D03*
X039987Y023350D03*
X044987Y022350D03*
X047487Y023350D03*
X044987Y037350D03*
X047487Y038350D03*
X039987Y038350D03*
X037487Y037350D03*
X032487Y038350D03*
X029987Y037350D03*
X024987Y038350D03*
X022487Y037350D03*
X017487Y038350D03*
X014987Y037350D03*
X009987Y038350D03*
X007487Y037350D03*
X007487Y047850D03*
X009987Y048850D03*
X014987Y047850D03*
X017487Y048850D03*
X025487Y047850D03*
X027987Y048850D03*
X032987Y047850D03*
X035487Y048850D03*
X040487Y047850D03*
X042987Y048850D03*
X047987Y047850D03*
X050487Y048850D03*
X061987Y047850D03*
X064487Y048850D03*
X058737Y038350D03*
X056237Y037350D03*
X055987Y008350D03*
X053487Y007350D03*
X046487Y008350D03*
X043987Y007350D03*
X037987Y008350D03*
X036925Y008350D03*
X035487Y007350D03*
X034425Y007350D03*
X029487Y008350D03*
X028550Y008350D03*
X026987Y007350D03*
X026050Y007350D03*
X061987Y007350D03*
X064487Y008350D03*
D11*
X064987Y009350D03*
X060987Y009350D03*
X056487Y009350D03*
X052487Y009350D03*
X046987Y009350D03*
X042987Y009350D03*
X038487Y009350D03*
X037425Y009350D03*
X034487Y009350D03*
X033425Y009350D03*
X029987Y009350D03*
X029050Y009350D03*
X025987Y009350D03*
X025050Y009350D03*
X016862Y009350D03*
X014862Y009350D03*
X012862Y009350D03*
X010862Y009350D03*
X010487Y016850D03*
X013987Y016850D03*
X017987Y016850D03*
X021487Y016850D03*
X025487Y016850D03*
X028987Y016850D03*
X032987Y016850D03*
X036487Y016850D03*
X040487Y016850D03*
X043987Y016850D03*
X047987Y016850D03*
X052487Y016850D03*
X056487Y016850D03*
X060987Y016850D03*
X064987Y016850D03*
X060237Y024350D03*
X056237Y024350D03*
X047987Y024350D03*
X043987Y024350D03*
X040487Y024350D03*
X036487Y024350D03*
X032987Y024350D03*
X028987Y024350D03*
X025487Y024350D03*
X021487Y024350D03*
X017987Y024350D03*
X013987Y024350D03*
X010487Y024350D03*
X006487Y024350D03*
X006487Y031850D03*
X010487Y031850D03*
X013987Y031850D03*
X017987Y031850D03*
X021487Y031850D03*
X025487Y031850D03*
X028987Y031850D03*
X032987Y031850D03*
X036487Y031850D03*
X040487Y031850D03*
X043987Y031850D03*
X047987Y031850D03*
X051487Y031850D03*
X055487Y031850D03*
X058987Y031850D03*
X062987Y031850D03*
X059237Y039350D03*
X055237Y039350D03*
X047987Y039350D03*
X043987Y039350D03*
X040487Y039350D03*
X036487Y039350D03*
X032987Y039350D03*
X028987Y039350D03*
X025487Y039350D03*
X021487Y039350D03*
X017987Y039350D03*
X013987Y039350D03*
X010487Y039350D03*
X006487Y039350D03*
X006487Y049850D03*
X010487Y049850D03*
X013987Y049850D03*
X017987Y049850D03*
X024487Y049850D03*
X028487Y049850D03*
X031987Y049850D03*
X035987Y049850D03*
X039487Y049850D03*
X043487Y049850D03*
X046987Y049850D03*
X050987Y049850D03*
X060987Y049850D03*
X064987Y049850D03*
X006487Y016850D03*
D12*
X008487Y016850D03*
X015987Y016850D03*
X023487Y016850D03*
X030987Y016850D03*
X038487Y016850D03*
X045987Y016850D03*
X054487Y016850D03*
X062987Y016850D03*
X062987Y009350D03*
X054487Y009350D03*
X044987Y009350D03*
X036487Y009350D03*
X035425Y009350D03*
X027987Y009350D03*
X027050Y009350D03*
X014862Y009350D03*
X012862Y009350D03*
X015987Y024350D03*
X023487Y024350D03*
X030987Y024350D03*
X038487Y024350D03*
X045987Y024350D03*
X045987Y031850D03*
X038487Y031850D03*
X030987Y031850D03*
X023487Y031850D03*
X015987Y031850D03*
X008487Y031850D03*
X008487Y024350D03*
X008487Y039350D03*
X015987Y039350D03*
X023487Y039350D03*
X030987Y039350D03*
X038487Y039350D03*
X045987Y039350D03*
X053487Y031850D03*
X060987Y031850D03*
X058237Y024350D03*
X057237Y039350D03*
X062987Y049850D03*
X048987Y049850D03*
X041487Y049850D03*
X033987Y049850D03*
X026487Y049850D03*
X015987Y049850D03*
X008487Y049850D03*
D13*
X007987Y051420D02*
X007987Y052280D01*
X006987Y052280D02*
X006987Y051420D01*
X008987Y051420D02*
X008987Y052280D01*
X009987Y052280D02*
X009987Y051420D01*
X014487Y051420D02*
X014487Y052280D01*
X015487Y052280D02*
X015487Y051420D01*
X016487Y051420D02*
X016487Y052280D01*
X017487Y052280D02*
X017487Y051420D01*
X024987Y051420D02*
X024987Y052280D01*
X025987Y052280D02*
X025987Y051420D01*
X026987Y051420D02*
X026987Y052280D01*
X027987Y052280D02*
X027987Y051420D01*
X032487Y051420D02*
X032487Y052280D01*
X033487Y052280D02*
X033487Y051420D01*
X034487Y051420D02*
X034487Y052280D01*
X035487Y052280D02*
X035487Y051420D01*
X039987Y051420D02*
X039987Y052280D01*
X040987Y052280D02*
X040987Y051420D01*
X041987Y051420D02*
X041987Y052280D01*
X042987Y052280D02*
X042987Y051420D01*
X047487Y051420D02*
X047487Y052280D01*
X048487Y052280D02*
X048487Y051420D01*
X049487Y051420D02*
X049487Y052280D01*
X050487Y052280D02*
X050487Y051420D01*
X061487Y051420D02*
X061487Y052280D01*
X062487Y052280D02*
X062487Y051420D01*
X063487Y051420D02*
X063487Y052280D01*
X064487Y052280D02*
X064487Y051420D01*
X058737Y041780D02*
X058737Y040920D01*
X057737Y040920D02*
X057737Y041780D01*
X056737Y041780D02*
X056737Y040920D01*
X055737Y040920D02*
X055737Y041780D01*
X047487Y041780D02*
X047487Y040920D01*
X046487Y040920D02*
X046487Y041780D01*
X045487Y041780D02*
X045487Y040920D01*
X044487Y040920D02*
X044487Y041780D01*
X039987Y041780D02*
X039987Y040920D01*
X038987Y040920D02*
X038987Y041780D01*
X037987Y041780D02*
X037987Y040920D01*
X036987Y040920D02*
X036987Y041780D01*
X032487Y041780D02*
X032487Y040920D01*
X031487Y040920D02*
X031487Y041780D01*
X030487Y041780D02*
X030487Y040920D01*
X029487Y040920D02*
X029487Y041780D01*
X024987Y041780D02*
X024987Y040920D01*
X023987Y040920D02*
X023987Y041780D01*
X022987Y041780D02*
X022987Y040920D01*
X021987Y040920D02*
X021987Y041780D01*
X017487Y041780D02*
X017487Y040920D01*
X016487Y040920D02*
X016487Y041780D01*
X015487Y041780D02*
X015487Y040920D01*
X014487Y040920D02*
X014487Y041780D01*
X009987Y041780D02*
X009987Y040920D01*
X008987Y040920D02*
X008987Y041780D01*
X007987Y041780D02*
X007987Y040920D01*
X006987Y040920D02*
X006987Y041780D01*
X006987Y034280D02*
X006987Y033420D01*
X007987Y033420D02*
X007987Y034280D01*
X008987Y034280D02*
X008987Y033420D01*
X009987Y033420D02*
X009987Y034280D01*
X014487Y034280D02*
X014487Y033420D01*
X015487Y033420D02*
X015487Y034280D01*
X016487Y034280D02*
X016487Y033420D01*
X017487Y033420D02*
X017487Y034280D01*
X021987Y034280D02*
X021987Y033420D01*
X022987Y033420D02*
X022987Y034280D01*
X023987Y034280D02*
X023987Y033420D01*
X024987Y033420D02*
X024987Y034280D01*
X029487Y034280D02*
X029487Y033420D01*
X030487Y033420D02*
X030487Y034280D01*
X031487Y034280D02*
X031487Y033420D01*
X032487Y033420D02*
X032487Y034280D01*
X036987Y034280D02*
X036987Y033420D01*
X037987Y033420D02*
X037987Y034280D01*
X038987Y034280D02*
X038987Y033420D01*
X039987Y033420D02*
X039987Y034280D01*
X044487Y034280D02*
X044487Y033420D01*
X045487Y033420D02*
X045487Y034280D01*
X046487Y034280D02*
X046487Y033420D01*
X047487Y033420D02*
X047487Y034280D01*
X051987Y034280D02*
X051987Y033420D01*
X052987Y033420D02*
X052987Y034280D01*
X053987Y034280D02*
X053987Y033420D01*
X054987Y033420D02*
X054987Y034280D01*
X059487Y034280D02*
X059487Y033420D01*
X060487Y033420D02*
X060487Y034280D01*
X061487Y034280D02*
X061487Y033420D01*
X062487Y033420D02*
X062487Y034280D01*
X059737Y026780D02*
X059737Y025920D01*
X058737Y025920D02*
X058737Y026780D01*
X057737Y026780D02*
X057737Y025920D01*
X056737Y025920D02*
X056737Y026780D01*
X055987Y019280D02*
X055987Y018420D01*
X054987Y018420D02*
X054987Y019280D01*
X053987Y019280D02*
X053987Y018420D01*
X052987Y018420D02*
X052987Y019280D01*
X047487Y019280D02*
X047487Y018420D01*
X046487Y018420D02*
X046487Y019280D01*
X045487Y019280D02*
X045487Y018420D01*
X044487Y018420D02*
X044487Y019280D01*
X039987Y019280D02*
X039987Y018420D01*
X038987Y018420D02*
X038987Y019280D01*
X037987Y019280D02*
X037987Y018420D01*
X036987Y018420D02*
X036987Y019280D01*
X032487Y019280D02*
X032487Y018420D01*
X031487Y018420D02*
X031487Y019280D01*
X030487Y019280D02*
X030487Y018420D01*
X029487Y018420D02*
X029487Y019280D01*
X024987Y019280D02*
X024987Y018420D01*
X023987Y018420D02*
X023987Y019280D01*
X022987Y019280D02*
X022987Y018420D01*
X021987Y018420D02*
X021987Y019280D01*
X017487Y019280D02*
X017487Y018420D01*
X016487Y018420D02*
X016487Y019280D01*
X015487Y019280D02*
X015487Y018420D01*
X014487Y018420D02*
X014487Y019280D01*
X009987Y019280D02*
X009987Y018420D01*
X008987Y018420D02*
X008987Y019280D01*
X007987Y019280D02*
X007987Y018420D01*
X006987Y018420D02*
X006987Y019280D01*
X006987Y025920D02*
X006987Y026780D01*
X007987Y026780D02*
X007987Y025920D01*
X008987Y025920D02*
X008987Y026780D01*
X009987Y026780D02*
X009987Y025920D01*
X014487Y025920D02*
X014487Y026780D01*
X015487Y026780D02*
X015487Y025920D01*
X016487Y025920D02*
X016487Y026780D01*
X017487Y026780D02*
X017487Y025920D01*
X021987Y025920D02*
X021987Y026780D01*
X022987Y026780D02*
X022987Y025920D01*
X023987Y025920D02*
X023987Y026780D01*
X024987Y026780D02*
X024987Y025920D01*
X029487Y025920D02*
X029487Y026780D01*
X030487Y026780D02*
X030487Y025920D01*
X031487Y025920D02*
X031487Y026780D01*
X032487Y026780D02*
X032487Y025920D01*
X036987Y025920D02*
X036987Y026780D01*
X037987Y026780D02*
X037987Y025920D01*
X038987Y025920D02*
X038987Y026780D01*
X039987Y026780D02*
X039987Y025920D01*
X044487Y025920D02*
X044487Y026780D01*
X045487Y026780D02*
X045487Y025920D01*
X046487Y025920D02*
X046487Y026780D01*
X047487Y026780D02*
X047487Y025920D01*
X061487Y019280D02*
X061487Y018420D01*
X062487Y018420D02*
X062487Y019280D01*
X063487Y019280D02*
X063487Y018420D01*
X064487Y018420D02*
X064487Y019280D01*
X064487Y011780D02*
X064487Y010920D01*
X063487Y010920D02*
X063487Y011780D01*
X062487Y011780D02*
X062487Y010920D01*
X061487Y010920D02*
X061487Y011780D01*
X055987Y011780D02*
X055987Y010920D01*
X054987Y010920D02*
X054987Y011780D01*
X053987Y011780D02*
X053987Y010920D01*
X052987Y010920D02*
X052987Y011780D01*
X046487Y011780D02*
X046487Y010920D01*
X045487Y010920D02*
X045487Y011780D01*
X044487Y011780D02*
X044487Y010920D01*
X043487Y010920D02*
X043487Y011780D01*
X037987Y011780D02*
X037987Y010920D01*
X036987Y010920D02*
X036987Y011780D01*
X035987Y011780D02*
X035987Y010920D01*
X034987Y010920D02*
X034987Y011780D01*
X029487Y011780D02*
X029487Y010920D01*
X028487Y010920D02*
X028487Y011780D01*
X027487Y011780D02*
X027487Y010920D01*
X026487Y010920D02*
X026487Y011780D01*
X014362Y011780D02*
X014362Y010920D01*
X013362Y010920D02*
X013362Y011780D01*
X012362Y011780D02*
X012362Y010920D01*
X011362Y010920D02*
X011362Y011780D01*
D14*
X012862Y009350D03*
X014862Y009350D03*
X015987Y016850D03*
X023487Y016850D03*
X030987Y016850D03*
X038487Y016850D03*
X045987Y016850D03*
X054487Y016850D03*
X062987Y016850D03*
X062987Y009350D03*
X054487Y009350D03*
X044987Y009350D03*
X036487Y009350D03*
X035425Y009350D03*
X027987Y009350D03*
X027050Y009350D03*
X008487Y016850D03*
X008487Y024350D03*
X015987Y024350D03*
X023487Y024350D03*
X030987Y024350D03*
X038487Y024350D03*
X045987Y024350D03*
X045987Y031850D03*
X038487Y031850D03*
X030987Y031850D03*
X023487Y031850D03*
X015987Y031850D03*
X008487Y031850D03*
X008487Y039350D03*
X015987Y039350D03*
X023487Y039350D03*
X030987Y039350D03*
X038487Y039350D03*
X045987Y039350D03*
X053487Y031850D03*
X060987Y031850D03*
X058237Y024350D03*
X057237Y039350D03*
X062987Y049850D03*
X048987Y049850D03*
X041487Y049850D03*
X033987Y049850D03*
X026487Y049850D03*
X015987Y049850D03*
X008487Y049850D03*
D15*
X008862Y047475D03*
X012237Y050225D03*
X019112Y050600D03*
X009550Y036850D03*
X009987Y029350D03*
X016612Y029600D03*
X020987Y029725D03*
X009987Y021850D03*
X009112Y014350D03*
X023862Y014850D03*
X031112Y013600D03*
X032237Y014350D03*
X031112Y009100D03*
X035987Y022725D03*
X049050Y016475D03*
X056175Y014288D03*
X063550Y014600D03*
X063487Y007100D03*
X055987Y021725D03*
X058862Y021975D03*
X062300Y029350D03*
X046487Y037350D03*
X042237Y047600D03*
X052112Y049725D03*
X064487Y047350D03*
D16*
X060362Y048600D03*
X049487Y047600D03*
X038987Y047850D03*
X036987Y048850D03*
X031737Y048600D03*
X028987Y047850D03*
X023987Y048725D03*
X026862Y039600D03*
X028487Y038225D03*
X023987Y037100D03*
X017362Y037100D03*
X013675Y038225D03*
X005987Y037350D03*
X013425Y030725D03*
X005987Y029850D03*
X013487Y023100D03*
X019487Y024600D03*
X021112Y023100D03*
X024862Y021975D03*
X028487Y023100D03*
X033987Y023350D03*
X041487Y023350D03*
X043487Y023350D03*
X048987Y023350D03*
X054112Y029475D03*
X051237Y030850D03*
X049362Y031225D03*
X043487Y030600D03*
X041487Y030850D03*
X035987Y030600D03*
X033987Y030850D03*
X028487Y030600D03*
X026487Y030850D03*
X034112Y038350D03*
X036237Y038288D03*
X041487Y038350D03*
X043487Y038100D03*
X054737Y036725D03*
X059925Y037288D03*
X058612Y030788D03*
X041612Y015850D03*
X038925Y014663D03*
X045862Y013725D03*
X052112Y015725D03*
X060612Y015663D03*
X060612Y008100D03*
X058112Y008350D03*
X052237Y007600D03*
X047987Y008350D03*
X042612Y008225D03*
X039487Y008350D03*
X033112Y008225D03*
X024612Y008100D03*
X016612Y014475D03*
X018987Y015725D03*
X020862Y015725D03*
X015487Y006975D03*
X010362Y007350D03*
X005987Y014850D03*
X005987Y022350D03*
X005987Y047850D03*
D17*
X013862Y044225D03*
X014862Y044225D03*
X015862Y044225D03*
X019612Y043100D03*
X020612Y043100D03*
X021612Y043100D03*
X022612Y043100D03*
X023612Y043100D03*
X024612Y043100D03*
X025612Y043100D03*
X025612Y046100D03*
X024612Y046100D03*
X023612Y046100D03*
X022612Y046100D03*
X021612Y046100D03*
X020612Y046100D03*
X019612Y046100D03*
X055362Y045975D03*
X055362Y044975D03*
X055362Y043975D03*
X058362Y043975D03*
X058362Y045975D03*
X058362Y046975D03*
X058362Y047975D03*
X058362Y048975D03*
X058362Y049975D03*
X058362Y050975D03*
X055362Y050975D03*
X055362Y049975D03*
X055362Y048975D03*
X055362Y047975D03*
X055362Y046975D03*
D18*
X057949Y044975D02*
X058776Y044975D01*
X012862Y044639D02*
X012862Y043812D01*
X011862Y043812D02*
X011862Y044639D01*
X010862Y044639D02*
X010862Y043812D01*
X009862Y043812D02*
X009862Y044639D01*
X008862Y044639D02*
X008862Y043812D01*
X007862Y043812D02*
X007862Y044639D01*
X006862Y044639D02*
X006862Y043812D01*
D19*
X016862Y044225D03*
D20*
X018612Y044049D03*
X018612Y045152D03*
D21*
X005987Y004350D03*
X012237Y004350D03*
X015987Y004350D03*
X025737Y004350D03*
X033237Y004350D03*
X042737Y004350D03*
X052237Y004350D03*
X060112Y004350D03*
X068050Y004350D03*
X068050Y013100D03*
X068050Y020600D03*
X068050Y028100D03*
X068050Y035600D03*
X068050Y044600D03*
X068050Y054850D03*
X056675Y054850D03*
X045237Y054850D03*
X037737Y054850D03*
X030237Y054850D03*
X021237Y054850D03*
X012237Y054850D03*
X005987Y054850D03*
D22*
X012237Y047850D03*
X012237Y035600D03*
X019737Y035600D03*
X027612Y035725D03*
X034737Y035600D03*
X042237Y035600D03*
X049737Y035600D03*
X057050Y035538D03*
X050612Y042350D03*
X045175Y046225D03*
X042362Y042913D03*
X037737Y046163D03*
X034737Y043288D03*
X030175Y046225D03*
X027487Y043038D03*
X027612Y028100D03*
X034737Y028100D03*
X042237Y028100D03*
X050112Y028100D03*
X057237Y028100D03*
X049737Y020600D03*
X042237Y020600D03*
X034675Y021100D03*
X027237Y020600D03*
X019737Y020600D03*
X012237Y020600D03*
X012237Y013100D03*
X019737Y013100D03*
X026987Y013350D03*
X034487Y013225D03*
X042612Y013100D03*
X049737Y013100D03*
X059237Y013100D03*
X019737Y028100D03*
X012237Y028100D03*
D23*
X019737Y038600D03*
X025612Y043976D03*
X020737Y050225D03*
X053362Y043975D03*
X058362Y051850D03*
M02*
