G75*
G70*
%OFA0B0*%
%FSLAX24Y24*%
%IPPOS*%
%LPD*%
%AMOC8*
5,1,8,0,0,1.08239X$1,22.5*
%
%ADD10C,0.1500*%
%ADD11C,0.1012*%
%ADD12C,0.0860*%
%ADD13C,0.1181*%
%ADD14R,0.0827X0.0827*%
%ADD15C,0.0827*%
%ADD16C,0.0827*%
%ADD17R,0.0709X0.0630*%
%ADD18C,0.0515*%
%ADD19C,0.1969*%
%ADD20C,0.0787*%
%ADD21C,0.0240*%
%ADD22R,0.0906X0.0906*%
D10*
X009452Y204350D03*
X011452Y204350D03*
X011952Y205350D03*
X013952Y205350D03*
X012577Y211850D03*
X012577Y219350D03*
X012577Y226850D03*
X012577Y234350D03*
X015077Y235350D03*
X015077Y227850D03*
X015077Y220350D03*
X015077Y212850D03*
X020077Y211850D03*
X022577Y212850D03*
X020077Y219350D03*
X022577Y220350D03*
X020077Y226850D03*
X020077Y234350D03*
X022577Y235350D03*
X022577Y227850D03*
X027577Y226850D03*
X027577Y234350D03*
X030077Y235350D03*
X030077Y227850D03*
X030077Y220350D03*
X030077Y212850D03*
X027577Y211850D03*
X027077Y205350D03*
X024577Y204350D03*
X027577Y219350D03*
X033077Y204350D03*
X035077Y211850D03*
X035577Y205350D03*
X037577Y212850D03*
X037577Y220350D03*
X037577Y227850D03*
X037577Y235350D03*
X035077Y234350D03*
X035077Y226850D03*
X035077Y219350D03*
X041577Y204350D03*
X042577Y211850D03*
X045077Y212850D03*
X042577Y219350D03*
X045077Y220350D03*
X042577Y226850D03*
X042577Y234350D03*
X045077Y235350D03*
X045077Y227850D03*
X050077Y226850D03*
X050077Y234350D03*
X052577Y235350D03*
X052577Y227850D03*
X054827Y219350D03*
X057327Y220350D03*
X057577Y226850D03*
X058577Y234350D03*
X060077Y227850D03*
X061077Y235350D03*
X059577Y244850D03*
X062077Y245850D03*
X057327Y212850D03*
X054827Y211850D03*
X054077Y205100D03*
X051577Y204100D03*
X044077Y205350D03*
X045577Y244850D03*
X048077Y245850D03*
X040577Y245850D03*
X038077Y244850D03*
X033077Y245850D03*
X030577Y244850D03*
X025577Y245850D03*
X023077Y244850D03*
X015077Y245850D03*
X012577Y244850D03*
X007577Y245850D03*
X005077Y244850D03*
X007577Y235350D03*
X005077Y234350D03*
X005077Y226850D03*
X007577Y227850D03*
X007577Y220350D03*
X005077Y219350D03*
X007577Y212850D03*
X005077Y211850D03*
X059577Y204350D03*
X062077Y205350D03*
D11*
X062577Y206350D03*
X058577Y206350D03*
X057827Y213850D03*
X057827Y221350D03*
X056577Y228850D03*
X057577Y236350D03*
X060577Y228850D03*
X061577Y236350D03*
X062577Y246850D03*
X058577Y246850D03*
X053077Y236350D03*
X053077Y228850D03*
X053827Y221350D03*
X053827Y213850D03*
X054577Y206100D03*
X050577Y206100D03*
X045577Y213850D03*
X044577Y206350D03*
X041577Y213850D03*
X040577Y206350D03*
X038077Y213850D03*
X038077Y221350D03*
X038077Y228850D03*
X038077Y236350D03*
X037077Y246850D03*
X034077Y236350D03*
X034077Y228850D03*
X034077Y221350D03*
X034077Y213850D03*
X036077Y206350D03*
X032077Y206350D03*
X030577Y213850D03*
X030577Y221350D03*
X030577Y228850D03*
X030577Y236350D03*
X029577Y246850D03*
X026577Y236350D03*
X026577Y228850D03*
X026577Y221350D03*
X026577Y213850D03*
X027577Y206350D03*
X023577Y206350D03*
X023077Y213850D03*
X023077Y221350D03*
X023077Y228850D03*
X023077Y236350D03*
X022077Y246850D03*
X026077Y246850D03*
X019077Y236350D03*
X019077Y228850D03*
X019077Y221350D03*
X019077Y213850D03*
X015577Y213850D03*
X014452Y206350D03*
X012452Y206350D03*
X011577Y213850D03*
X010452Y206350D03*
X008452Y206350D03*
X008077Y213850D03*
X008077Y221350D03*
X008077Y228850D03*
X008077Y236350D03*
X008077Y246850D03*
X011577Y246850D03*
X011577Y236350D03*
X011577Y228850D03*
X011577Y221350D03*
X015577Y221350D03*
X015577Y228850D03*
X015577Y236350D03*
X015577Y246850D03*
X004077Y246850D03*
X004077Y236350D03*
X004077Y228850D03*
X004077Y221350D03*
X004077Y213850D03*
X033577Y246850D03*
X041077Y246850D03*
X041577Y236350D03*
X041577Y228850D03*
X041577Y221350D03*
X045577Y221350D03*
X045577Y228850D03*
X045577Y236350D03*
X044577Y246850D03*
X048577Y246850D03*
X049077Y236350D03*
X049077Y228850D03*
D12*
X049577Y230420D02*
X049577Y231280D01*
X050577Y231280D02*
X050577Y230420D01*
X051577Y230420D02*
X051577Y231280D01*
X052577Y231280D02*
X052577Y230420D01*
X054327Y223780D02*
X054327Y222920D01*
X055327Y222920D02*
X055327Y223780D01*
X056327Y223780D02*
X056327Y222920D01*
X057327Y222920D02*
X057327Y223780D01*
X057077Y230420D02*
X057077Y231280D01*
X058077Y231280D02*
X058077Y230420D01*
X059077Y230420D02*
X059077Y231280D01*
X060077Y231280D02*
X060077Y230420D01*
X060077Y237920D02*
X060077Y238780D01*
X059077Y238780D02*
X059077Y237920D01*
X058077Y237920D02*
X058077Y238780D01*
X059077Y248420D02*
X059077Y249280D01*
X060077Y249280D02*
X060077Y248420D01*
X061077Y248420D02*
X061077Y249280D01*
X062077Y249280D02*
X062077Y248420D01*
X061077Y238780D02*
X061077Y237920D01*
X057327Y216280D02*
X057327Y215420D01*
X056327Y215420D02*
X056327Y216280D01*
X055327Y216280D02*
X055327Y215420D01*
X054327Y215420D02*
X054327Y216280D01*
X054077Y208530D02*
X054077Y207670D01*
X053077Y207670D02*
X053077Y208530D01*
X052077Y208530D02*
X052077Y207670D01*
X051077Y207670D02*
X051077Y208530D01*
X045077Y215420D02*
X045077Y216280D01*
X044077Y216280D02*
X044077Y215420D01*
X043077Y215420D02*
X043077Y216280D01*
X042077Y216280D02*
X042077Y215420D01*
X042077Y208780D02*
X042077Y207920D01*
X043077Y207920D02*
X043077Y208780D01*
X044077Y208780D02*
X044077Y207920D01*
X041077Y207920D02*
X041077Y208780D01*
X037577Y215420D02*
X037577Y216280D01*
X036577Y216280D02*
X036577Y215420D01*
X035577Y215420D02*
X035577Y216280D01*
X034577Y216280D02*
X034577Y215420D01*
X034577Y208780D02*
X034577Y207920D01*
X033577Y207920D02*
X033577Y208780D01*
X032577Y208780D02*
X032577Y207920D01*
X030077Y215420D02*
X030077Y216280D01*
X029077Y216280D02*
X029077Y215420D01*
X028077Y215420D02*
X028077Y216280D01*
X027077Y216280D02*
X027077Y215420D01*
X027077Y208780D02*
X027077Y207920D01*
X026077Y207920D02*
X026077Y208780D01*
X025077Y208780D02*
X025077Y207920D01*
X024077Y207920D02*
X024077Y208780D01*
X022577Y215420D02*
X022577Y216280D01*
X021577Y216280D02*
X021577Y215420D01*
X020577Y215420D02*
X020577Y216280D01*
X019577Y216280D02*
X019577Y215420D01*
X019577Y222920D02*
X019577Y223780D01*
X020577Y223780D02*
X020577Y222920D01*
X021577Y222920D02*
X021577Y223780D01*
X022577Y223780D02*
X022577Y222920D01*
X022577Y230420D02*
X022577Y231280D01*
X021577Y231280D02*
X021577Y230420D01*
X020577Y230420D02*
X020577Y231280D01*
X019577Y231280D02*
X019577Y230420D01*
X019577Y237920D02*
X019577Y238780D01*
X020577Y238780D02*
X020577Y237920D01*
X021577Y237920D02*
X021577Y238780D01*
X022577Y238780D02*
X022577Y237920D01*
X022577Y248420D02*
X022577Y249280D01*
X023577Y249280D02*
X023577Y248420D01*
X024577Y248420D02*
X024577Y249280D01*
X025577Y249280D02*
X025577Y248420D01*
X027077Y238780D02*
X027077Y237920D01*
X028077Y237920D02*
X028077Y238780D01*
X029077Y238780D02*
X029077Y237920D01*
X030077Y237920D02*
X030077Y238780D01*
X030077Y231280D02*
X030077Y230420D01*
X029077Y230420D02*
X029077Y231280D01*
X028077Y231280D02*
X028077Y230420D01*
X027077Y230420D02*
X027077Y231280D01*
X027077Y223780D02*
X027077Y222920D01*
X028077Y222920D02*
X028077Y223780D01*
X029077Y223780D02*
X029077Y222920D01*
X030077Y222920D02*
X030077Y223780D01*
X034577Y223780D02*
X034577Y222920D01*
X035577Y222920D02*
X035577Y223780D01*
X036577Y223780D02*
X036577Y222920D01*
X037577Y222920D02*
X037577Y223780D01*
X037577Y230420D02*
X037577Y231280D01*
X036577Y231280D02*
X036577Y230420D01*
X035577Y230420D02*
X035577Y231280D01*
X034577Y231280D02*
X034577Y230420D01*
X034577Y237920D02*
X034577Y238780D01*
X035577Y238780D02*
X035577Y237920D01*
X036577Y237920D02*
X036577Y238780D01*
X037577Y238780D02*
X037577Y237920D01*
X037577Y248420D02*
X037577Y249280D01*
X038577Y249280D02*
X038577Y248420D01*
X039577Y248420D02*
X039577Y249280D01*
X040577Y249280D02*
X040577Y248420D01*
X042077Y238780D02*
X042077Y237920D01*
X043077Y237920D02*
X043077Y238780D01*
X044077Y238780D02*
X044077Y237920D01*
X045077Y237920D02*
X045077Y238780D01*
X045077Y231280D02*
X045077Y230420D01*
X044077Y230420D02*
X044077Y231280D01*
X043077Y231280D02*
X043077Y230420D01*
X042077Y230420D02*
X042077Y231280D01*
X042077Y223780D02*
X042077Y222920D01*
X043077Y222920D02*
X043077Y223780D01*
X044077Y223780D02*
X044077Y222920D01*
X045077Y222920D02*
X045077Y223780D01*
X049577Y237920D02*
X049577Y238780D01*
X050577Y238780D02*
X050577Y237920D01*
X051577Y237920D02*
X051577Y238780D01*
X052577Y238780D02*
X052577Y237920D01*
X048077Y248420D02*
X048077Y249280D01*
X047077Y249280D02*
X047077Y248420D01*
X046077Y248420D02*
X046077Y249280D01*
X045077Y249280D02*
X045077Y248420D01*
X035577Y208780D02*
X035577Y207920D01*
X033077Y248420D02*
X033077Y249280D01*
X032077Y249280D02*
X032077Y248420D01*
X031077Y248420D02*
X031077Y249280D01*
X030077Y249280D02*
X030077Y248420D01*
X015077Y248420D02*
X015077Y249280D01*
X014077Y249280D02*
X014077Y248420D01*
X013077Y248420D02*
X013077Y249280D01*
X012077Y249280D02*
X012077Y248420D01*
X012077Y238780D02*
X012077Y237920D01*
X013077Y237920D02*
X013077Y238780D01*
X014077Y238780D02*
X014077Y237920D01*
X015077Y237920D02*
X015077Y238780D01*
X015077Y231280D02*
X015077Y230420D01*
X014077Y230420D02*
X014077Y231280D01*
X013077Y231280D02*
X013077Y230420D01*
X012077Y230420D02*
X012077Y231280D01*
X012077Y223780D02*
X012077Y222920D01*
X013077Y222920D02*
X013077Y223780D01*
X014077Y223780D02*
X014077Y222920D01*
X015077Y222920D02*
X015077Y223780D01*
X015077Y216280D02*
X015077Y215420D01*
X014077Y215420D02*
X014077Y216280D01*
X013077Y216280D02*
X013077Y215420D01*
X012077Y215420D02*
X012077Y216280D01*
X011952Y208780D02*
X011952Y207920D01*
X010952Y207920D02*
X010952Y208780D01*
X009952Y208780D02*
X009952Y207920D01*
X008952Y207920D02*
X008952Y208780D01*
X007577Y215420D02*
X007577Y216280D01*
X006577Y216280D02*
X006577Y215420D01*
X005577Y215420D02*
X005577Y216280D01*
X004577Y216280D02*
X004577Y215420D01*
X004577Y222920D02*
X004577Y223780D01*
X005577Y223780D02*
X005577Y222920D01*
X006577Y222920D02*
X006577Y223780D01*
X007577Y223780D02*
X007577Y222920D01*
X007577Y230420D02*
X007577Y231280D01*
X006577Y231280D02*
X006577Y230420D01*
X005577Y230420D02*
X005577Y231280D01*
X004577Y231280D02*
X004577Y230420D01*
X004577Y237920D02*
X004577Y238780D01*
X005577Y238780D02*
X005577Y237920D01*
X006577Y237920D02*
X006577Y238780D01*
X007577Y238780D02*
X007577Y237920D01*
X007577Y248420D02*
X007577Y249280D01*
X006577Y249280D02*
X006577Y248420D01*
X005577Y248420D02*
X005577Y249280D01*
X004577Y249280D02*
X004577Y248420D01*
X059077Y208780D02*
X059077Y207920D01*
X060077Y207920D02*
X060077Y208780D01*
X061077Y208780D02*
X061077Y207920D01*
X062077Y207920D02*
X062077Y208780D01*
D13*
X060577Y206350D03*
X055827Y213850D03*
X055827Y221350D03*
X058577Y228850D03*
X059577Y236350D03*
X060577Y246850D03*
X051077Y236350D03*
X051077Y228850D03*
X046577Y246850D03*
X043577Y236350D03*
X043577Y228850D03*
X043577Y221350D03*
X043577Y213850D03*
X042577Y206350D03*
X036077Y213850D03*
X034077Y206350D03*
X036077Y221350D03*
X036077Y228850D03*
X036077Y236350D03*
X039077Y246850D03*
X031577Y246850D03*
X028577Y236350D03*
X028577Y228850D03*
X028577Y221350D03*
X028577Y213850D03*
X025577Y206350D03*
X021077Y213850D03*
X021077Y221350D03*
X021077Y228850D03*
X021077Y236350D03*
X024077Y246850D03*
X013577Y246850D03*
X013577Y236350D03*
X013577Y228850D03*
X013577Y221350D03*
X013577Y213850D03*
X010452Y206350D03*
X006077Y213850D03*
X006077Y221350D03*
X006077Y228850D03*
X006077Y236350D03*
X006077Y246850D03*
X052577Y206100D03*
D14*
X052952Y240975D03*
X052952Y241975D03*
X052952Y242975D03*
X052952Y243975D03*
X052952Y244975D03*
X052952Y245975D03*
X052952Y246975D03*
X052952Y247975D03*
X055952Y247975D03*
X055952Y246975D03*
X055952Y245975D03*
X055952Y244975D03*
X055952Y243975D03*
X055952Y242975D03*
X055952Y240975D03*
X023202Y240100D03*
X022202Y240100D03*
X022202Y243100D03*
X023202Y243100D03*
X021202Y243100D03*
X020202Y243100D03*
X019202Y243100D03*
X019202Y240100D03*
X020202Y240100D03*
X021202Y240100D03*
X018202Y240100D03*
X017202Y240100D03*
X017202Y243100D03*
X018202Y243100D03*
X013452Y241225D03*
X012452Y241225D03*
X011452Y241225D03*
D15*
X010452Y240812D02*
X010452Y241638D01*
X009452Y241638D02*
X009452Y240812D01*
X008452Y240812D02*
X008452Y241638D01*
X007452Y241638D02*
X007452Y240812D01*
X006452Y240812D02*
X006452Y241638D01*
X005452Y241638D02*
X005452Y240812D01*
X004452Y240812D02*
X004452Y241638D01*
X055538Y241975D02*
X056365Y241975D01*
D16*
X014452Y241225D03*
D17*
X016202Y241049D03*
X016202Y242151D03*
D18*
X012452Y206350D03*
D19*
X003577Y201350D03*
X009827Y201350D03*
X013577Y201350D03*
X023327Y201350D03*
X030827Y201350D03*
X040327Y201350D03*
X049827Y201350D03*
X059327Y201350D03*
X065639Y201350D03*
X065639Y210100D03*
X065639Y217600D03*
X065639Y225100D03*
X065639Y232600D03*
X065639Y241600D03*
X065639Y251850D03*
X055327Y251850D03*
X042827Y251850D03*
X035327Y251850D03*
X027827Y251850D03*
X018827Y251850D03*
X009827Y251850D03*
X003577Y251850D03*
D20*
X009827Y244850D03*
X009827Y232600D03*
X009827Y225100D03*
X009827Y217600D03*
X009827Y210100D03*
X017327Y210100D03*
X017327Y217600D03*
X017327Y225100D03*
X017327Y232600D03*
X024577Y210350D03*
X024827Y217600D03*
X025202Y225100D03*
X025202Y232725D03*
X025077Y240038D03*
X027764Y243225D03*
X032327Y240288D03*
X032327Y232600D03*
X032327Y225100D03*
X032264Y218100D03*
X032077Y210225D03*
X040202Y210100D03*
X039827Y217600D03*
X039827Y225100D03*
X039827Y232600D03*
X039952Y239913D03*
X042764Y243225D03*
X047327Y232600D03*
X048202Y239350D03*
X047702Y225100D03*
X047327Y217600D03*
X047327Y210100D03*
X054827Y225100D03*
X054889Y232288D03*
X061202Y210475D03*
X035327Y243163D03*
D21*
X033702Y241850D02*
X033702Y241350D01*
X038702Y241350D01*
X038702Y242225D01*
X041077Y242225D01*
X041077Y241350D01*
X050952Y241350D01*
X050952Y240975D01*
X055952Y248850D02*
X055952Y250475D01*
X018327Y250475D01*
X018327Y247225D01*
X018327Y244600D01*
X014452Y244600D01*
X014452Y241225D01*
X016202Y241049D02*
X016202Y239600D01*
X004452Y239600D01*
X004452Y241225D01*
X016202Y241049D02*
X017452Y241601D01*
X023202Y241601D01*
X023702Y241601D01*
X023702Y241850D01*
X026202Y241850D01*
X026202Y241350D01*
X030952Y241350D01*
X030952Y241850D01*
X033702Y241850D01*
X023202Y241601D02*
X023202Y240976D01*
X017202Y243100D02*
X016202Y242151D01*
D22*
X017327Y235600D03*
X018327Y247225D03*
X023202Y240976D03*
X050952Y240975D03*
X055952Y248850D03*
M02*
