G75*
G70*
%OFA0B0*%
%FSLAX24Y24*%
%IPPOS*%
%LPD*%
%AMOC8*
5,1,8,0,0,1.08239X$1,22.5*
%
%ADD10C,0.1580*%
%ADD11C,0.1092*%
%ADD12C,0.0474*%
%ADD13C,0.0940*%
%ADD14C,0.1261*%
%ADD15R,0.0720X0.0060*%
%ADD16R,0.0060X0.0720*%
%ADD17C,0.0907*%
%ADD18R,0.0907X0.0907*%
%ADD19C,0.1655*%
%ADD20C,0.0595*%
%ADD21R,0.0789X0.0710*%
%ADD22C,0.2049*%
%ADD23C,0.0867*%
D10*
X017626Y070251D03*
X020126Y071251D03*
X018376Y077751D03*
X020876Y078751D03*
X018376Y085251D03*
X020876Y086251D03*
X018376Y092751D03*
X020876Y093751D03*
X018376Y100251D03*
X020876Y101251D03*
X025876Y100251D03*
X028376Y101251D03*
X033376Y100251D03*
X035876Y101251D03*
X035876Y093751D03*
X033376Y092751D03*
X035876Y086251D03*
X033376Y085251D03*
X035876Y078751D03*
X033376Y077751D03*
X028376Y078751D03*
X025876Y077751D03*
X025876Y085251D03*
X028376Y086251D03*
X025876Y092751D03*
X028376Y093751D03*
X028876Y110751D03*
X031376Y111751D03*
X036376Y110751D03*
X038876Y111751D03*
X043876Y110751D03*
X046376Y111751D03*
X051376Y110751D03*
X053876Y111751D03*
X050876Y101251D03*
X048376Y100251D03*
X043376Y101251D03*
X040876Y100251D03*
X043376Y093751D03*
X040876Y092751D03*
X043376Y086251D03*
X040876Y085251D03*
X043376Y078751D03*
X040876Y077751D03*
X042876Y071251D03*
X040376Y070251D03*
X034376Y071251D03*
X031876Y070251D03*
X048376Y077751D03*
X050876Y078751D03*
X048376Y085251D03*
X050876Y086251D03*
X048376Y092751D03*
X050876Y093751D03*
X055876Y092751D03*
X058376Y093751D03*
X059626Y100251D03*
X062126Y101251D03*
X065876Y093751D03*
X065376Y092751D03*
X063376Y092751D03*
X067876Y093751D03*
X063126Y086251D03*
X062126Y086251D03*
X060626Y085251D03*
X059626Y085251D03*
X058376Y078751D03*
X055876Y077751D03*
X052376Y071251D03*
X049876Y070251D03*
X059376Y070251D03*
X061876Y071251D03*
X065376Y077751D03*
X067876Y078751D03*
X070376Y071251D03*
X067876Y070251D03*
X063376Y110751D03*
X065876Y111751D03*
X020876Y111751D03*
X018376Y110751D03*
X013376Y111751D03*
X010876Y110751D03*
X013376Y101251D03*
X010876Y100251D03*
X013376Y093751D03*
X010876Y092751D03*
X013376Y086251D03*
X010876Y085251D03*
X013376Y078751D03*
X010876Y077751D03*
D11*
X009876Y079751D03*
X013876Y079751D03*
X017376Y079751D03*
X021376Y079751D03*
X024876Y079751D03*
X028876Y079751D03*
X032376Y079751D03*
X036376Y079751D03*
X039876Y079751D03*
X043876Y079751D03*
X047376Y079751D03*
X051376Y079751D03*
X054876Y079751D03*
X058876Y079751D03*
X058376Y072251D03*
X062376Y072251D03*
X066876Y072251D03*
X070876Y072251D03*
X068376Y079751D03*
X064376Y079751D03*
X063626Y087251D03*
X062626Y087251D03*
X059626Y087251D03*
X058626Y087251D03*
X058876Y094751D03*
X062376Y094751D03*
X064376Y094751D03*
X066376Y094751D03*
X068376Y094751D03*
X062626Y102251D03*
X058626Y102251D03*
X054876Y094751D03*
X051376Y094751D03*
X047376Y094751D03*
X043876Y094751D03*
X039876Y094751D03*
X036376Y094751D03*
X032376Y094751D03*
X028876Y094751D03*
X024876Y094751D03*
X021376Y094751D03*
X017376Y094751D03*
X013876Y094751D03*
X009876Y094751D03*
X009876Y102251D03*
X013876Y102251D03*
X017376Y102251D03*
X021376Y102251D03*
X024876Y102251D03*
X028876Y102251D03*
X032376Y102251D03*
X036376Y102251D03*
X039876Y102251D03*
X043876Y102251D03*
X047376Y102251D03*
X051376Y102251D03*
X050376Y112751D03*
X046876Y112751D03*
X042876Y112751D03*
X039376Y112751D03*
X035376Y112751D03*
X031876Y112751D03*
X027876Y112751D03*
X021376Y112751D03*
X017376Y112751D03*
X013876Y112751D03*
X009876Y112751D03*
X009876Y087251D03*
X013876Y087251D03*
X017376Y087251D03*
X021376Y087251D03*
X024876Y087251D03*
X028876Y087251D03*
X032376Y087251D03*
X036376Y087251D03*
X039876Y087251D03*
X043876Y087251D03*
X047376Y087251D03*
X051376Y087251D03*
X052876Y072251D03*
X048876Y072251D03*
X043376Y072251D03*
X039376Y072251D03*
X034876Y072251D03*
X030876Y072251D03*
X020626Y072251D03*
X016626Y072251D03*
X054376Y112751D03*
X062376Y112751D03*
X066376Y112751D03*
D12*
X064376Y112751D03*
X060626Y102251D03*
X056876Y094751D03*
X061626Y087251D03*
X066376Y094751D03*
X066376Y079751D03*
X068876Y072251D03*
X060376Y072251D03*
X056876Y079751D03*
X050876Y072251D03*
X049376Y079751D03*
X049376Y087251D03*
X049376Y094751D03*
X049376Y102251D03*
X052376Y112751D03*
X044876Y112751D03*
X041876Y102251D03*
X041876Y094751D03*
X041876Y087251D03*
X041876Y079751D03*
X041376Y072251D03*
X034376Y079751D03*
X032876Y072251D03*
X026876Y079751D03*
X026876Y087251D03*
X026876Y094751D03*
X026876Y102251D03*
X029876Y112751D03*
X037376Y112751D03*
X034376Y102251D03*
X034376Y094751D03*
X034376Y087251D03*
X019376Y087251D03*
X019376Y094751D03*
X019376Y102251D03*
X011876Y102251D03*
X011876Y094751D03*
X011876Y087251D03*
X011876Y079751D03*
X018626Y072251D03*
X019376Y079751D03*
X019376Y112751D03*
X011876Y112751D03*
D13*
X012376Y114321D02*
X012376Y115181D01*
X011376Y115181D02*
X011376Y114321D01*
X010376Y114321D02*
X010376Y115181D01*
X013376Y115181D02*
X013376Y114321D01*
X017876Y114321D02*
X017876Y115181D01*
X018876Y115181D02*
X018876Y114321D01*
X019876Y114321D02*
X019876Y115181D01*
X020876Y115181D02*
X020876Y114321D01*
X020876Y104681D02*
X020876Y103821D01*
X019876Y103821D02*
X019876Y104681D01*
X018876Y104681D02*
X018876Y103821D01*
X017876Y103821D02*
X017876Y104681D01*
X013376Y104681D02*
X013376Y103821D01*
X012376Y103821D02*
X012376Y104681D01*
X011376Y104681D02*
X011376Y103821D01*
X010376Y103821D02*
X010376Y104681D01*
X010376Y097181D02*
X010376Y096321D01*
X011376Y096321D02*
X011376Y097181D01*
X012376Y097181D02*
X012376Y096321D01*
X013376Y096321D02*
X013376Y097181D01*
X017876Y097181D02*
X017876Y096321D01*
X018876Y096321D02*
X018876Y097181D01*
X019876Y097181D02*
X019876Y096321D01*
X020876Y096321D02*
X020876Y097181D01*
X025376Y097181D02*
X025376Y096321D01*
X026376Y096321D02*
X026376Y097181D01*
X027376Y097181D02*
X027376Y096321D01*
X028376Y096321D02*
X028376Y097181D01*
X032876Y097181D02*
X032876Y096321D01*
X033876Y096321D02*
X033876Y097181D01*
X034876Y097181D02*
X034876Y096321D01*
X035876Y096321D02*
X035876Y097181D01*
X040376Y097181D02*
X040376Y096321D01*
X041376Y096321D02*
X041376Y097181D01*
X042376Y097181D02*
X042376Y096321D01*
X043376Y096321D02*
X043376Y097181D01*
X047876Y097181D02*
X047876Y096321D01*
X048876Y096321D02*
X048876Y097181D01*
X049876Y097181D02*
X049876Y096321D01*
X050876Y096321D02*
X050876Y097181D01*
X055376Y097181D02*
X055376Y096321D01*
X056376Y096321D02*
X056376Y097181D01*
X057376Y097181D02*
X057376Y096321D01*
X058376Y096321D02*
X058376Y097181D01*
X059126Y103821D02*
X059126Y104681D01*
X060126Y104681D02*
X060126Y103821D01*
X061126Y103821D02*
X061126Y104681D01*
X062126Y104681D02*
X062126Y103821D01*
X064876Y097181D02*
X064876Y096321D01*
X065876Y096321D02*
X065876Y097181D01*
X066876Y097181D02*
X066876Y096321D01*
X067876Y096321D02*
X067876Y097181D01*
X063126Y089681D02*
X063126Y088821D01*
X062126Y088821D02*
X062126Y089681D01*
X061126Y089681D02*
X061126Y088821D01*
X060126Y088821D02*
X060126Y089681D01*
X058376Y082181D02*
X058376Y081321D01*
X057376Y081321D02*
X057376Y082181D01*
X056376Y082181D02*
X056376Y081321D01*
X055376Y081321D02*
X055376Y082181D01*
X050876Y082181D02*
X050876Y081321D01*
X049876Y081321D02*
X049876Y082181D01*
X048876Y082181D02*
X048876Y081321D01*
X047876Y081321D02*
X047876Y082181D01*
X043376Y082181D02*
X043376Y081321D01*
X042376Y081321D02*
X042376Y082181D01*
X041376Y082181D02*
X041376Y081321D01*
X040376Y081321D02*
X040376Y082181D01*
X035876Y082181D02*
X035876Y081321D01*
X034876Y081321D02*
X034876Y082181D01*
X033876Y082181D02*
X033876Y081321D01*
X032876Y081321D02*
X032876Y082181D01*
X028376Y082181D02*
X028376Y081321D01*
X027376Y081321D02*
X027376Y082181D01*
X026376Y082181D02*
X026376Y081321D01*
X025376Y081321D02*
X025376Y082181D01*
X020876Y082181D02*
X020876Y081321D01*
X019876Y081321D02*
X019876Y082181D01*
X018876Y082181D02*
X018876Y081321D01*
X017876Y081321D02*
X017876Y082181D01*
X013376Y082181D02*
X013376Y081321D01*
X012376Y081321D02*
X012376Y082181D01*
X011376Y082181D02*
X011376Y081321D01*
X010376Y081321D02*
X010376Y082181D01*
X010376Y088821D02*
X010376Y089681D01*
X011376Y089681D02*
X011376Y088821D01*
X012376Y088821D02*
X012376Y089681D01*
X013376Y089681D02*
X013376Y088821D01*
X017876Y088821D02*
X017876Y089681D01*
X018876Y089681D02*
X018876Y088821D01*
X019876Y088821D02*
X019876Y089681D01*
X020876Y089681D02*
X020876Y088821D01*
X025376Y088821D02*
X025376Y089681D01*
X026376Y089681D02*
X026376Y088821D01*
X027376Y088821D02*
X027376Y089681D01*
X028376Y089681D02*
X028376Y088821D01*
X032876Y088821D02*
X032876Y089681D01*
X033876Y089681D02*
X033876Y088821D01*
X034876Y088821D02*
X034876Y089681D01*
X035876Y089681D02*
X035876Y088821D01*
X040376Y088821D02*
X040376Y089681D01*
X041376Y089681D02*
X041376Y088821D01*
X042376Y088821D02*
X042376Y089681D01*
X043376Y089681D02*
X043376Y088821D01*
X047876Y088821D02*
X047876Y089681D01*
X048876Y089681D02*
X048876Y088821D01*
X049876Y088821D02*
X049876Y089681D01*
X050876Y089681D02*
X050876Y088821D01*
X051376Y074681D02*
X051376Y073821D01*
X050376Y073821D02*
X050376Y074681D01*
X049376Y074681D02*
X049376Y073821D01*
X052376Y073821D02*
X052376Y074681D01*
X058876Y074681D02*
X058876Y073821D01*
X059876Y073821D02*
X059876Y074681D01*
X060876Y074681D02*
X060876Y073821D01*
X061876Y073821D02*
X061876Y074681D01*
X064876Y081321D02*
X064876Y082181D01*
X065876Y082181D02*
X065876Y081321D01*
X066876Y081321D02*
X066876Y082181D01*
X067876Y082181D02*
X067876Y081321D01*
X068376Y074681D02*
X068376Y073821D01*
X069376Y073821D02*
X069376Y074681D01*
X070376Y074681D02*
X070376Y073821D01*
X067376Y073821D02*
X067376Y074681D01*
X050876Y103821D02*
X050876Y104681D01*
X049876Y104681D02*
X049876Y103821D01*
X048876Y103821D02*
X048876Y104681D01*
X047876Y104681D02*
X047876Y103821D01*
X043376Y103821D02*
X043376Y104681D01*
X042376Y104681D02*
X042376Y103821D01*
X041376Y103821D02*
X041376Y104681D01*
X040376Y104681D02*
X040376Y103821D01*
X035876Y103821D02*
X035876Y104681D01*
X034876Y104681D02*
X034876Y103821D01*
X033876Y103821D02*
X033876Y104681D01*
X032876Y104681D02*
X032876Y103821D01*
X028376Y103821D02*
X028376Y104681D01*
X027376Y104681D02*
X027376Y103821D01*
X026376Y103821D02*
X026376Y104681D01*
X025376Y104681D02*
X025376Y103821D01*
X028376Y114321D02*
X028376Y115181D01*
X029376Y115181D02*
X029376Y114321D01*
X030376Y114321D02*
X030376Y115181D01*
X031376Y115181D02*
X031376Y114321D01*
X035876Y114321D02*
X035876Y115181D01*
X036876Y115181D02*
X036876Y114321D01*
X037876Y114321D02*
X037876Y115181D01*
X038876Y115181D02*
X038876Y114321D01*
X043376Y114321D02*
X043376Y115181D01*
X044376Y115181D02*
X044376Y114321D01*
X045376Y114321D02*
X045376Y115181D01*
X046376Y115181D02*
X046376Y114321D01*
X050876Y114321D02*
X050876Y115181D01*
X051876Y115181D02*
X051876Y114321D01*
X052876Y114321D02*
X052876Y115181D01*
X053876Y115181D02*
X053876Y114321D01*
X062876Y114321D02*
X062876Y115181D01*
X063876Y115181D02*
X063876Y114321D01*
X064876Y114321D02*
X064876Y115181D01*
X065876Y115181D02*
X065876Y114321D01*
X042876Y074681D02*
X042876Y073821D01*
X041876Y073821D02*
X041876Y074681D01*
X040876Y074681D02*
X040876Y073821D01*
X039876Y073821D02*
X039876Y074681D01*
X034376Y074681D02*
X034376Y073821D01*
X033376Y073821D02*
X033376Y074681D01*
X032376Y074681D02*
X032376Y073821D01*
X031376Y073821D02*
X031376Y074681D01*
X020126Y074681D02*
X020126Y073821D01*
X019126Y073821D02*
X019126Y074681D01*
X018126Y074681D02*
X018126Y073821D01*
X017126Y073821D02*
X017126Y074681D01*
D14*
X018626Y072251D03*
X019376Y079751D03*
X019376Y087251D03*
X019376Y094751D03*
X019376Y102251D03*
X011876Y102251D03*
X011876Y094751D03*
X011876Y087251D03*
X011876Y079751D03*
X026876Y079751D03*
X026876Y087251D03*
X026876Y094751D03*
X026876Y102251D03*
X029876Y112751D03*
X037376Y112751D03*
X034376Y102251D03*
X034376Y094751D03*
X034376Y087251D03*
X034376Y079751D03*
X032876Y072251D03*
X041376Y072251D03*
X041876Y079751D03*
X041876Y087251D03*
X041876Y094751D03*
X041876Y102251D03*
X044876Y112751D03*
X049376Y102251D03*
X049376Y094751D03*
X049376Y087251D03*
X049376Y079751D03*
X050876Y072251D03*
X056876Y079751D03*
X060376Y072251D03*
X066376Y079751D03*
X068876Y072251D03*
X061626Y087251D03*
X056876Y094751D03*
X060626Y102251D03*
X066376Y094751D03*
X064376Y112751D03*
X052376Y112751D03*
X019376Y112751D03*
X011876Y112751D03*
D15*
X012251Y110376D03*
X015626Y113126D03*
X022876Y113376D03*
X019751Y100001D03*
X017126Y099876D03*
X013376Y099751D03*
X013376Y092251D03*
X013376Y084751D03*
X012501Y077251D03*
X019501Y069876D03*
X027501Y077376D03*
X034876Y077251D03*
X039376Y085501D03*
X047126Y077251D03*
X058376Y084501D03*
X054501Y093376D03*
X049876Y100251D03*
X045626Y110501D03*
X065001Y110501D03*
X067876Y092251D03*
X067876Y077251D03*
X069501Y070001D03*
X024376Y092626D03*
X020126Y092501D03*
D16*
X016813Y093626D03*
X016876Y086001D03*
X022376Y078626D03*
X024251Y078626D03*
X020001Y077376D03*
X016126Y070251D03*
X009376Y077751D03*
X009376Y085251D03*
X009376Y092751D03*
X009376Y100251D03*
X009376Y110751D03*
X022876Y087501D03*
X024376Y085751D03*
X028251Y084876D03*
X031876Y086001D03*
X031876Y093501D03*
X029876Y093751D03*
X027376Y100001D03*
X030376Y102251D03*
X031876Y100751D03*
X037376Y093751D03*
X039376Y093501D03*
X039376Y100251D03*
X037501Y101251D03*
X042376Y110751D03*
X040376Y111751D03*
X035126Y111501D03*
X032376Y110751D03*
X027376Y111626D03*
X037376Y086251D03*
X031876Y078501D03*
X035876Y071251D03*
X033626Y069751D03*
X042126Y069876D03*
X044626Y071501D03*
X048376Y071001D03*
X045126Y078751D03*
X042126Y077751D03*
X044876Y086251D03*
X046876Y086251D03*
X046876Y093501D03*
X044876Y093751D03*
X044876Y101251D03*
X046876Y101001D03*
X052751Y094126D03*
X057501Y092376D03*
X061501Y093501D03*
X064126Y091501D03*
X064751Y086251D03*
X060126Y079001D03*
X063626Y078251D03*
X063626Y071251D03*
X066251Y070876D03*
X057876Y070751D03*
X054126Y071251D03*
X054376Y078501D03*
X052626Y078751D03*
X052376Y086251D03*
X057876Y100251D03*
X063876Y101251D03*
X061626Y110751D03*
X055376Y111751D03*
X053001Y110501D03*
D17*
X067674Y103501D02*
X068501Y103501D01*
X068914Y104501D02*
X068087Y104501D01*
X068087Y105501D02*
X068914Y105501D01*
X068914Y106501D02*
X068087Y106501D01*
X068087Y108501D02*
X068914Y108501D01*
X068914Y109501D02*
X068087Y109501D01*
X068087Y110501D02*
X068914Y110501D01*
X071087Y109501D02*
X071914Y109501D01*
X071914Y108501D02*
X071087Y108501D01*
X071087Y107501D02*
X071914Y107501D01*
X071914Y104501D02*
X071087Y104501D01*
X071501Y103501D02*
X071501Y102674D01*
X017251Y106712D02*
X017251Y107539D01*
X016251Y107539D02*
X016251Y106712D01*
X015251Y106712D02*
X015251Y107539D01*
X014251Y107539D02*
X014251Y106712D01*
X013251Y106712D02*
X013251Y107539D01*
X012251Y107539D02*
X012251Y106712D01*
X011251Y106712D02*
X011251Y107539D01*
X010251Y107539D02*
X010251Y106712D01*
D18*
X018251Y107126D03*
X019251Y107126D03*
X020251Y107126D03*
X023001Y106001D03*
X024001Y106001D03*
X025001Y106001D03*
X026001Y106001D03*
X027001Y106001D03*
X028001Y106001D03*
X029001Y106001D03*
X029001Y109001D03*
X028001Y109001D03*
X027001Y109001D03*
X026001Y109001D03*
X025001Y109001D03*
X024001Y109001D03*
X023001Y109001D03*
X068501Y107501D03*
X071501Y106501D03*
X071501Y105501D03*
X071501Y110501D03*
D19*
X064376Y094751D03*
X060626Y087251D03*
D20*
X060626Y087251D03*
X064376Y094751D03*
D21*
X022001Y106949D03*
X022001Y108052D03*
D22*
X009376Y067251D03*
X015626Y067251D03*
X019376Y067251D03*
X029126Y067251D03*
X036626Y067251D03*
X046126Y067251D03*
X055626Y067251D03*
X065126Y067251D03*
X073626Y067251D03*
X073626Y076001D03*
X073626Y083501D03*
X073626Y091001D03*
X073626Y098501D03*
X073626Y107501D03*
X073626Y117751D03*
X061126Y117751D03*
X048626Y117751D03*
X041126Y117751D03*
X033626Y117751D03*
X024626Y117751D03*
X015626Y117751D03*
X009376Y117751D03*
D23*
X015626Y110626D03*
X015626Y098501D03*
X015626Y091001D03*
X015626Y083501D03*
X015626Y075751D03*
X023126Y076001D03*
X023126Y083501D03*
X023126Y091001D03*
X023126Y098501D03*
X030626Y098501D03*
X030626Y106001D03*
X033626Y109001D03*
X038126Y106126D03*
X041126Y109001D03*
X045626Y105876D03*
X048626Y109001D03*
X053126Y105876D03*
X053126Y098501D03*
X053126Y091001D03*
X053126Y083501D03*
X055626Y076001D03*
X060626Y076001D03*
X064626Y075876D03*
X061126Y083501D03*
X060626Y091001D03*
X060626Y098501D03*
X060876Y109001D03*
X068001Y098501D03*
X070126Y089001D03*
X070126Y083501D03*
X045626Y083501D03*
X045626Y091001D03*
X045626Y098501D03*
X038126Y098501D03*
X038126Y091001D03*
X038126Y083501D03*
X037126Y076001D03*
X030626Y083501D03*
X030626Y091001D03*
X029126Y076001D03*
X045626Y076001D03*
M02*
