G75*
G70*
%OFA0B0*%
%FSLAX24Y24*%
%IPPOS*%
%LPD*%
%AMOC8*
5,1,8,0,0,1.08239X$1,22.5*
%
%ADD10C,0.0079*%
D10*
X000785Y001376D02*
X000787Y001424D01*
X000793Y001472D01*
X000803Y001519D01*
X000816Y001565D01*
X000834Y001610D01*
X000854Y001654D01*
X000879Y001696D01*
X000907Y001735D01*
X000937Y001772D01*
X000971Y001806D01*
X001008Y001838D01*
X001046Y001867D01*
X001087Y001892D01*
X001130Y001914D01*
X001175Y001932D01*
X001221Y001946D01*
X001268Y001957D01*
X001316Y001964D01*
X001364Y001967D01*
X001412Y001966D01*
X001460Y001961D01*
X001508Y001952D01*
X001554Y001940D01*
X001599Y001923D01*
X001643Y001903D01*
X001685Y001880D01*
X001725Y001853D01*
X001763Y001823D01*
X001798Y001790D01*
X001830Y001754D01*
X001860Y001716D01*
X001886Y001675D01*
X001908Y001632D01*
X001928Y001588D01*
X001943Y001543D01*
X001955Y001496D01*
X001963Y001448D01*
X001967Y001400D01*
X001967Y001352D01*
X001963Y001304D01*
X001955Y001256D01*
X001943Y001209D01*
X001928Y001164D01*
X001908Y001120D01*
X001886Y001077D01*
X001860Y001036D01*
X001830Y000998D01*
X001798Y000962D01*
X001763Y000929D01*
X001725Y000899D01*
X001685Y000872D01*
X001643Y000849D01*
X001599Y000829D01*
X001554Y000812D01*
X001508Y000800D01*
X001460Y000791D01*
X001412Y000786D01*
X001364Y000785D01*
X001316Y000788D01*
X001268Y000795D01*
X001221Y000806D01*
X001175Y000820D01*
X001130Y000838D01*
X001087Y000860D01*
X001046Y000885D01*
X001008Y000914D01*
X000971Y000946D01*
X000937Y000980D01*
X000907Y001017D01*
X000879Y001056D01*
X000854Y001098D01*
X000834Y001142D01*
X000816Y001187D01*
X000803Y001233D01*
X000793Y001280D01*
X000787Y001328D01*
X000785Y001376D01*
X000785Y010126D02*
X000787Y010174D01*
X000793Y010222D01*
X000803Y010269D01*
X000816Y010315D01*
X000834Y010360D01*
X000854Y010404D01*
X000879Y010446D01*
X000907Y010485D01*
X000937Y010522D01*
X000971Y010556D01*
X001008Y010588D01*
X001046Y010617D01*
X001087Y010642D01*
X001130Y010664D01*
X001175Y010682D01*
X001221Y010696D01*
X001268Y010707D01*
X001316Y010714D01*
X001364Y010717D01*
X001412Y010716D01*
X001460Y010711D01*
X001508Y010702D01*
X001554Y010690D01*
X001599Y010673D01*
X001643Y010653D01*
X001685Y010630D01*
X001725Y010603D01*
X001763Y010573D01*
X001798Y010540D01*
X001830Y010504D01*
X001860Y010466D01*
X001886Y010425D01*
X001908Y010382D01*
X001928Y010338D01*
X001943Y010293D01*
X001955Y010246D01*
X001963Y010198D01*
X001967Y010150D01*
X001967Y010102D01*
X001963Y010054D01*
X001955Y010006D01*
X001943Y009959D01*
X001928Y009914D01*
X001908Y009870D01*
X001886Y009827D01*
X001860Y009786D01*
X001830Y009748D01*
X001798Y009712D01*
X001763Y009679D01*
X001725Y009649D01*
X001685Y009622D01*
X001643Y009599D01*
X001599Y009579D01*
X001554Y009562D01*
X001508Y009550D01*
X001460Y009541D01*
X001412Y009536D01*
X001364Y009535D01*
X001316Y009538D01*
X001268Y009545D01*
X001221Y009556D01*
X001175Y009570D01*
X001130Y009588D01*
X001087Y009610D01*
X001046Y009635D01*
X001008Y009664D01*
X000971Y009696D01*
X000937Y009730D01*
X000907Y009767D01*
X000879Y009806D01*
X000854Y009848D01*
X000834Y009892D01*
X000816Y009937D01*
X000803Y009983D01*
X000793Y010030D01*
X000787Y010078D01*
X000785Y010126D01*
X000785Y017626D02*
X000787Y017674D01*
X000793Y017722D01*
X000803Y017769D01*
X000816Y017815D01*
X000834Y017860D01*
X000854Y017904D01*
X000879Y017946D01*
X000907Y017985D01*
X000937Y018022D01*
X000971Y018056D01*
X001008Y018088D01*
X001046Y018117D01*
X001087Y018142D01*
X001130Y018164D01*
X001175Y018182D01*
X001221Y018196D01*
X001268Y018207D01*
X001316Y018214D01*
X001364Y018217D01*
X001412Y018216D01*
X001460Y018211D01*
X001508Y018202D01*
X001554Y018190D01*
X001599Y018173D01*
X001643Y018153D01*
X001685Y018130D01*
X001725Y018103D01*
X001763Y018073D01*
X001798Y018040D01*
X001830Y018004D01*
X001860Y017966D01*
X001886Y017925D01*
X001908Y017882D01*
X001928Y017838D01*
X001943Y017793D01*
X001955Y017746D01*
X001963Y017698D01*
X001967Y017650D01*
X001967Y017602D01*
X001963Y017554D01*
X001955Y017506D01*
X001943Y017459D01*
X001928Y017414D01*
X001908Y017370D01*
X001886Y017327D01*
X001860Y017286D01*
X001830Y017248D01*
X001798Y017212D01*
X001763Y017179D01*
X001725Y017149D01*
X001685Y017122D01*
X001643Y017099D01*
X001599Y017079D01*
X001554Y017062D01*
X001508Y017050D01*
X001460Y017041D01*
X001412Y017036D01*
X001364Y017035D01*
X001316Y017038D01*
X001268Y017045D01*
X001221Y017056D01*
X001175Y017070D01*
X001130Y017088D01*
X001087Y017110D01*
X001046Y017135D01*
X001008Y017164D01*
X000971Y017196D01*
X000937Y017230D01*
X000907Y017267D01*
X000879Y017306D01*
X000854Y017348D01*
X000834Y017392D01*
X000816Y017437D01*
X000803Y017483D01*
X000793Y017530D01*
X000787Y017578D01*
X000785Y017626D01*
X000785Y025126D02*
X000787Y025174D01*
X000793Y025222D01*
X000803Y025269D01*
X000816Y025315D01*
X000834Y025360D01*
X000854Y025404D01*
X000879Y025446D01*
X000907Y025485D01*
X000937Y025522D01*
X000971Y025556D01*
X001008Y025588D01*
X001046Y025617D01*
X001087Y025642D01*
X001130Y025664D01*
X001175Y025682D01*
X001221Y025696D01*
X001268Y025707D01*
X001316Y025714D01*
X001364Y025717D01*
X001412Y025716D01*
X001460Y025711D01*
X001508Y025702D01*
X001554Y025690D01*
X001599Y025673D01*
X001643Y025653D01*
X001685Y025630D01*
X001725Y025603D01*
X001763Y025573D01*
X001798Y025540D01*
X001830Y025504D01*
X001860Y025466D01*
X001886Y025425D01*
X001908Y025382D01*
X001928Y025338D01*
X001943Y025293D01*
X001955Y025246D01*
X001963Y025198D01*
X001967Y025150D01*
X001967Y025102D01*
X001963Y025054D01*
X001955Y025006D01*
X001943Y024959D01*
X001928Y024914D01*
X001908Y024870D01*
X001886Y024827D01*
X001860Y024786D01*
X001830Y024748D01*
X001798Y024712D01*
X001763Y024679D01*
X001725Y024649D01*
X001685Y024622D01*
X001643Y024599D01*
X001599Y024579D01*
X001554Y024562D01*
X001508Y024550D01*
X001460Y024541D01*
X001412Y024536D01*
X001364Y024535D01*
X001316Y024538D01*
X001268Y024545D01*
X001221Y024556D01*
X001175Y024570D01*
X001130Y024588D01*
X001087Y024610D01*
X001046Y024635D01*
X001008Y024664D01*
X000971Y024696D01*
X000937Y024730D01*
X000907Y024767D01*
X000879Y024806D01*
X000854Y024848D01*
X000834Y024892D01*
X000816Y024937D01*
X000803Y024983D01*
X000793Y025030D01*
X000787Y025078D01*
X000785Y025126D01*
X000785Y032626D02*
X000787Y032674D01*
X000793Y032722D01*
X000803Y032769D01*
X000816Y032815D01*
X000834Y032860D01*
X000854Y032904D01*
X000879Y032946D01*
X000907Y032985D01*
X000937Y033022D01*
X000971Y033056D01*
X001008Y033088D01*
X001046Y033117D01*
X001087Y033142D01*
X001130Y033164D01*
X001175Y033182D01*
X001221Y033196D01*
X001268Y033207D01*
X001316Y033214D01*
X001364Y033217D01*
X001412Y033216D01*
X001460Y033211D01*
X001508Y033202D01*
X001554Y033190D01*
X001599Y033173D01*
X001643Y033153D01*
X001685Y033130D01*
X001725Y033103D01*
X001763Y033073D01*
X001798Y033040D01*
X001830Y033004D01*
X001860Y032966D01*
X001886Y032925D01*
X001908Y032882D01*
X001928Y032838D01*
X001943Y032793D01*
X001955Y032746D01*
X001963Y032698D01*
X001967Y032650D01*
X001967Y032602D01*
X001963Y032554D01*
X001955Y032506D01*
X001943Y032459D01*
X001928Y032414D01*
X001908Y032370D01*
X001886Y032327D01*
X001860Y032286D01*
X001830Y032248D01*
X001798Y032212D01*
X001763Y032179D01*
X001725Y032149D01*
X001685Y032122D01*
X001643Y032099D01*
X001599Y032079D01*
X001554Y032062D01*
X001508Y032050D01*
X001460Y032041D01*
X001412Y032036D01*
X001364Y032035D01*
X001316Y032038D01*
X001268Y032045D01*
X001221Y032056D01*
X001175Y032070D01*
X001130Y032088D01*
X001087Y032110D01*
X001046Y032135D01*
X001008Y032164D01*
X000971Y032196D01*
X000937Y032230D01*
X000907Y032267D01*
X000879Y032306D01*
X000854Y032348D01*
X000834Y032392D01*
X000816Y032437D01*
X000803Y032483D01*
X000793Y032530D01*
X000787Y032578D01*
X000785Y032626D01*
X000785Y040126D02*
X000787Y040174D01*
X000793Y040222D01*
X000803Y040269D01*
X000816Y040315D01*
X000834Y040360D01*
X000854Y040404D01*
X000879Y040446D01*
X000907Y040485D01*
X000937Y040522D01*
X000971Y040556D01*
X001008Y040588D01*
X001046Y040617D01*
X001087Y040642D01*
X001130Y040664D01*
X001175Y040682D01*
X001221Y040696D01*
X001268Y040707D01*
X001316Y040714D01*
X001364Y040717D01*
X001412Y040716D01*
X001460Y040711D01*
X001508Y040702D01*
X001554Y040690D01*
X001599Y040673D01*
X001643Y040653D01*
X001685Y040630D01*
X001725Y040603D01*
X001763Y040573D01*
X001798Y040540D01*
X001830Y040504D01*
X001860Y040466D01*
X001886Y040425D01*
X001908Y040382D01*
X001928Y040338D01*
X001943Y040293D01*
X001955Y040246D01*
X001963Y040198D01*
X001967Y040150D01*
X001967Y040102D01*
X001963Y040054D01*
X001955Y040006D01*
X001943Y039959D01*
X001928Y039914D01*
X001908Y039870D01*
X001886Y039827D01*
X001860Y039786D01*
X001830Y039748D01*
X001798Y039712D01*
X001763Y039679D01*
X001725Y039649D01*
X001685Y039622D01*
X001643Y039599D01*
X001599Y039579D01*
X001554Y039562D01*
X001508Y039550D01*
X001460Y039541D01*
X001412Y039536D01*
X001364Y039535D01*
X001316Y039538D01*
X001268Y039545D01*
X001221Y039556D01*
X001175Y039570D01*
X001130Y039588D01*
X001087Y039610D01*
X001046Y039635D01*
X001008Y039664D01*
X000971Y039696D01*
X000937Y039730D01*
X000907Y039767D01*
X000879Y039806D01*
X000854Y039848D01*
X000834Y039892D01*
X000816Y039937D01*
X000803Y039983D01*
X000793Y040030D01*
X000787Y040078D01*
X000785Y040126D01*
X000785Y047626D02*
X000787Y047674D01*
X000793Y047722D01*
X000803Y047769D01*
X000816Y047815D01*
X000834Y047860D01*
X000854Y047904D01*
X000879Y047946D01*
X000907Y047985D01*
X000937Y048022D01*
X000971Y048056D01*
X001008Y048088D01*
X001046Y048117D01*
X001087Y048142D01*
X001130Y048164D01*
X001175Y048182D01*
X001221Y048196D01*
X001268Y048207D01*
X001316Y048214D01*
X001364Y048217D01*
X001412Y048216D01*
X001460Y048211D01*
X001508Y048202D01*
X001554Y048190D01*
X001599Y048173D01*
X001643Y048153D01*
X001685Y048130D01*
X001725Y048103D01*
X001763Y048073D01*
X001798Y048040D01*
X001830Y048004D01*
X001860Y047966D01*
X001886Y047925D01*
X001908Y047882D01*
X001928Y047838D01*
X001943Y047793D01*
X001955Y047746D01*
X001963Y047698D01*
X001967Y047650D01*
X001967Y047602D01*
X001963Y047554D01*
X001955Y047506D01*
X001943Y047459D01*
X001928Y047414D01*
X001908Y047370D01*
X001886Y047327D01*
X001860Y047286D01*
X001830Y047248D01*
X001798Y047212D01*
X001763Y047179D01*
X001725Y047149D01*
X001685Y047122D01*
X001643Y047099D01*
X001599Y047079D01*
X001554Y047062D01*
X001508Y047050D01*
X001460Y047041D01*
X001412Y047036D01*
X001364Y047035D01*
X001316Y047038D01*
X001268Y047045D01*
X001221Y047056D01*
X001175Y047070D01*
X001130Y047088D01*
X001087Y047110D01*
X001046Y047135D01*
X001008Y047164D01*
X000971Y047196D01*
X000937Y047230D01*
X000907Y047267D01*
X000879Y047306D01*
X000854Y047348D01*
X000834Y047392D01*
X000816Y047437D01*
X000803Y047483D01*
X000793Y047530D01*
X000787Y047578D01*
X000785Y047626D01*
X000785Y055126D02*
X000787Y055174D01*
X000793Y055222D01*
X000803Y055269D01*
X000816Y055315D01*
X000834Y055360D01*
X000854Y055404D01*
X000879Y055446D01*
X000907Y055485D01*
X000937Y055522D01*
X000971Y055556D01*
X001008Y055588D01*
X001046Y055617D01*
X001087Y055642D01*
X001130Y055664D01*
X001175Y055682D01*
X001221Y055696D01*
X001268Y055707D01*
X001316Y055714D01*
X001364Y055717D01*
X001412Y055716D01*
X001460Y055711D01*
X001508Y055702D01*
X001554Y055690D01*
X001599Y055673D01*
X001643Y055653D01*
X001685Y055630D01*
X001725Y055603D01*
X001763Y055573D01*
X001798Y055540D01*
X001830Y055504D01*
X001860Y055466D01*
X001886Y055425D01*
X001908Y055382D01*
X001928Y055338D01*
X001943Y055293D01*
X001955Y055246D01*
X001963Y055198D01*
X001967Y055150D01*
X001967Y055102D01*
X001963Y055054D01*
X001955Y055006D01*
X001943Y054959D01*
X001928Y054914D01*
X001908Y054870D01*
X001886Y054827D01*
X001860Y054786D01*
X001830Y054748D01*
X001798Y054712D01*
X001763Y054679D01*
X001725Y054649D01*
X001685Y054622D01*
X001643Y054599D01*
X001599Y054579D01*
X001554Y054562D01*
X001508Y054550D01*
X001460Y054541D01*
X001412Y054536D01*
X001364Y054535D01*
X001316Y054538D01*
X001268Y054545D01*
X001221Y054556D01*
X001175Y054570D01*
X001130Y054588D01*
X001087Y054610D01*
X001046Y054635D01*
X001008Y054664D01*
X000971Y054696D01*
X000937Y054730D01*
X000907Y054767D01*
X000879Y054806D01*
X000854Y054848D01*
X000834Y054892D01*
X000816Y054937D01*
X000803Y054983D01*
X000793Y055030D01*
X000787Y055078D01*
X000785Y055126D01*
X009535Y055126D02*
X009537Y055174D01*
X009543Y055222D01*
X009553Y055269D01*
X009566Y055315D01*
X009584Y055360D01*
X009604Y055404D01*
X009629Y055446D01*
X009657Y055485D01*
X009687Y055522D01*
X009721Y055556D01*
X009758Y055588D01*
X009796Y055617D01*
X009837Y055642D01*
X009880Y055664D01*
X009925Y055682D01*
X009971Y055696D01*
X010018Y055707D01*
X010066Y055714D01*
X010114Y055717D01*
X010162Y055716D01*
X010210Y055711D01*
X010258Y055702D01*
X010304Y055690D01*
X010349Y055673D01*
X010393Y055653D01*
X010435Y055630D01*
X010475Y055603D01*
X010513Y055573D01*
X010548Y055540D01*
X010580Y055504D01*
X010610Y055466D01*
X010636Y055425D01*
X010658Y055382D01*
X010678Y055338D01*
X010693Y055293D01*
X010705Y055246D01*
X010713Y055198D01*
X010717Y055150D01*
X010717Y055102D01*
X010713Y055054D01*
X010705Y055006D01*
X010693Y054959D01*
X010678Y054914D01*
X010658Y054870D01*
X010636Y054827D01*
X010610Y054786D01*
X010580Y054748D01*
X010548Y054712D01*
X010513Y054679D01*
X010475Y054649D01*
X010435Y054622D01*
X010393Y054599D01*
X010349Y054579D01*
X010304Y054562D01*
X010258Y054550D01*
X010210Y054541D01*
X010162Y054536D01*
X010114Y054535D01*
X010066Y054538D01*
X010018Y054545D01*
X009971Y054556D01*
X009925Y054570D01*
X009880Y054588D01*
X009837Y054610D01*
X009796Y054635D01*
X009758Y054664D01*
X009721Y054696D01*
X009687Y054730D01*
X009657Y054767D01*
X009629Y054806D01*
X009604Y054848D01*
X009584Y054892D01*
X009566Y054937D01*
X009553Y054983D01*
X009543Y055030D01*
X009537Y055078D01*
X009535Y055126D01*
X017035Y055126D02*
X017037Y055174D01*
X017043Y055222D01*
X017053Y055269D01*
X017066Y055315D01*
X017084Y055360D01*
X017104Y055404D01*
X017129Y055446D01*
X017157Y055485D01*
X017187Y055522D01*
X017221Y055556D01*
X017258Y055588D01*
X017296Y055617D01*
X017337Y055642D01*
X017380Y055664D01*
X017425Y055682D01*
X017471Y055696D01*
X017518Y055707D01*
X017566Y055714D01*
X017614Y055717D01*
X017662Y055716D01*
X017710Y055711D01*
X017758Y055702D01*
X017804Y055690D01*
X017849Y055673D01*
X017893Y055653D01*
X017935Y055630D01*
X017975Y055603D01*
X018013Y055573D01*
X018048Y055540D01*
X018080Y055504D01*
X018110Y055466D01*
X018136Y055425D01*
X018158Y055382D01*
X018178Y055338D01*
X018193Y055293D01*
X018205Y055246D01*
X018213Y055198D01*
X018217Y055150D01*
X018217Y055102D01*
X018213Y055054D01*
X018205Y055006D01*
X018193Y054959D01*
X018178Y054914D01*
X018158Y054870D01*
X018136Y054827D01*
X018110Y054786D01*
X018080Y054748D01*
X018048Y054712D01*
X018013Y054679D01*
X017975Y054649D01*
X017935Y054622D01*
X017893Y054599D01*
X017849Y054579D01*
X017804Y054562D01*
X017758Y054550D01*
X017710Y054541D01*
X017662Y054536D01*
X017614Y054535D01*
X017566Y054538D01*
X017518Y054545D01*
X017471Y054556D01*
X017425Y054570D01*
X017380Y054588D01*
X017337Y054610D01*
X017296Y054635D01*
X017258Y054664D01*
X017221Y054696D01*
X017187Y054730D01*
X017157Y054767D01*
X017129Y054806D01*
X017104Y054848D01*
X017084Y054892D01*
X017066Y054937D01*
X017053Y054983D01*
X017043Y055030D01*
X017037Y055078D01*
X017035Y055126D01*
X024535Y055126D02*
X024537Y055174D01*
X024543Y055222D01*
X024553Y055269D01*
X024566Y055315D01*
X024584Y055360D01*
X024604Y055404D01*
X024629Y055446D01*
X024657Y055485D01*
X024687Y055522D01*
X024721Y055556D01*
X024758Y055588D01*
X024796Y055617D01*
X024837Y055642D01*
X024880Y055664D01*
X024925Y055682D01*
X024971Y055696D01*
X025018Y055707D01*
X025066Y055714D01*
X025114Y055717D01*
X025162Y055716D01*
X025210Y055711D01*
X025258Y055702D01*
X025304Y055690D01*
X025349Y055673D01*
X025393Y055653D01*
X025435Y055630D01*
X025475Y055603D01*
X025513Y055573D01*
X025548Y055540D01*
X025580Y055504D01*
X025610Y055466D01*
X025636Y055425D01*
X025658Y055382D01*
X025678Y055338D01*
X025693Y055293D01*
X025705Y055246D01*
X025713Y055198D01*
X025717Y055150D01*
X025717Y055102D01*
X025713Y055054D01*
X025705Y055006D01*
X025693Y054959D01*
X025678Y054914D01*
X025658Y054870D01*
X025636Y054827D01*
X025610Y054786D01*
X025580Y054748D01*
X025548Y054712D01*
X025513Y054679D01*
X025475Y054649D01*
X025435Y054622D01*
X025393Y054599D01*
X025349Y054579D01*
X025304Y054562D01*
X025258Y054550D01*
X025210Y054541D01*
X025162Y054536D01*
X025114Y054535D01*
X025066Y054538D01*
X025018Y054545D01*
X024971Y054556D01*
X024925Y054570D01*
X024880Y054588D01*
X024837Y054610D01*
X024796Y054635D01*
X024758Y054664D01*
X024721Y054696D01*
X024687Y054730D01*
X024657Y054767D01*
X024629Y054806D01*
X024604Y054848D01*
X024584Y054892D01*
X024566Y054937D01*
X024553Y054983D01*
X024543Y055030D01*
X024537Y055078D01*
X024535Y055126D01*
X033285Y055126D02*
X033287Y055174D01*
X033293Y055222D01*
X033303Y055269D01*
X033316Y055315D01*
X033334Y055360D01*
X033354Y055404D01*
X033379Y055446D01*
X033407Y055485D01*
X033437Y055522D01*
X033471Y055556D01*
X033508Y055588D01*
X033546Y055617D01*
X033587Y055642D01*
X033630Y055664D01*
X033675Y055682D01*
X033721Y055696D01*
X033768Y055707D01*
X033816Y055714D01*
X033864Y055717D01*
X033912Y055716D01*
X033960Y055711D01*
X034008Y055702D01*
X034054Y055690D01*
X034099Y055673D01*
X034143Y055653D01*
X034185Y055630D01*
X034225Y055603D01*
X034263Y055573D01*
X034298Y055540D01*
X034330Y055504D01*
X034360Y055466D01*
X034386Y055425D01*
X034408Y055382D01*
X034428Y055338D01*
X034443Y055293D01*
X034455Y055246D01*
X034463Y055198D01*
X034467Y055150D01*
X034467Y055102D01*
X034463Y055054D01*
X034455Y055006D01*
X034443Y054959D01*
X034428Y054914D01*
X034408Y054870D01*
X034386Y054827D01*
X034360Y054786D01*
X034330Y054748D01*
X034298Y054712D01*
X034263Y054679D01*
X034225Y054649D01*
X034185Y054622D01*
X034143Y054599D01*
X034099Y054579D01*
X034054Y054562D01*
X034008Y054550D01*
X033960Y054541D01*
X033912Y054536D01*
X033864Y054535D01*
X033816Y054538D01*
X033768Y054545D01*
X033721Y054556D01*
X033675Y054570D01*
X033630Y054588D01*
X033587Y054610D01*
X033546Y054635D01*
X033508Y054664D01*
X033471Y054696D01*
X033437Y054730D01*
X033407Y054767D01*
X033379Y054806D01*
X033354Y054848D01*
X033334Y054892D01*
X033316Y054937D01*
X033303Y054983D01*
X033293Y055030D01*
X033287Y055078D01*
X033285Y055126D01*
X033285Y047626D02*
X033287Y047674D01*
X033293Y047722D01*
X033303Y047769D01*
X033316Y047815D01*
X033334Y047860D01*
X033354Y047904D01*
X033379Y047946D01*
X033407Y047985D01*
X033437Y048022D01*
X033471Y048056D01*
X033508Y048088D01*
X033546Y048117D01*
X033587Y048142D01*
X033630Y048164D01*
X033675Y048182D01*
X033721Y048196D01*
X033768Y048207D01*
X033816Y048214D01*
X033864Y048217D01*
X033912Y048216D01*
X033960Y048211D01*
X034008Y048202D01*
X034054Y048190D01*
X034099Y048173D01*
X034143Y048153D01*
X034185Y048130D01*
X034225Y048103D01*
X034263Y048073D01*
X034298Y048040D01*
X034330Y048004D01*
X034360Y047966D01*
X034386Y047925D01*
X034408Y047882D01*
X034428Y047838D01*
X034443Y047793D01*
X034455Y047746D01*
X034463Y047698D01*
X034467Y047650D01*
X034467Y047602D01*
X034463Y047554D01*
X034455Y047506D01*
X034443Y047459D01*
X034428Y047414D01*
X034408Y047370D01*
X034386Y047327D01*
X034360Y047286D01*
X034330Y047248D01*
X034298Y047212D01*
X034263Y047179D01*
X034225Y047149D01*
X034185Y047122D01*
X034143Y047099D01*
X034099Y047079D01*
X034054Y047062D01*
X034008Y047050D01*
X033960Y047041D01*
X033912Y047036D01*
X033864Y047035D01*
X033816Y047038D01*
X033768Y047045D01*
X033721Y047056D01*
X033675Y047070D01*
X033630Y047088D01*
X033587Y047110D01*
X033546Y047135D01*
X033508Y047164D01*
X033471Y047196D01*
X033437Y047230D01*
X033407Y047267D01*
X033379Y047306D01*
X033354Y047348D01*
X033334Y047392D01*
X033316Y047437D01*
X033303Y047483D01*
X033293Y047530D01*
X033287Y047578D01*
X033285Y047626D01*
X033285Y040126D02*
X033287Y040174D01*
X033293Y040222D01*
X033303Y040269D01*
X033316Y040315D01*
X033334Y040360D01*
X033354Y040404D01*
X033379Y040446D01*
X033407Y040485D01*
X033437Y040522D01*
X033471Y040556D01*
X033508Y040588D01*
X033546Y040617D01*
X033587Y040642D01*
X033630Y040664D01*
X033675Y040682D01*
X033721Y040696D01*
X033768Y040707D01*
X033816Y040714D01*
X033864Y040717D01*
X033912Y040716D01*
X033960Y040711D01*
X034008Y040702D01*
X034054Y040690D01*
X034099Y040673D01*
X034143Y040653D01*
X034185Y040630D01*
X034225Y040603D01*
X034263Y040573D01*
X034298Y040540D01*
X034330Y040504D01*
X034360Y040466D01*
X034386Y040425D01*
X034408Y040382D01*
X034428Y040338D01*
X034443Y040293D01*
X034455Y040246D01*
X034463Y040198D01*
X034467Y040150D01*
X034467Y040102D01*
X034463Y040054D01*
X034455Y040006D01*
X034443Y039959D01*
X034428Y039914D01*
X034408Y039870D01*
X034386Y039827D01*
X034360Y039786D01*
X034330Y039748D01*
X034298Y039712D01*
X034263Y039679D01*
X034225Y039649D01*
X034185Y039622D01*
X034143Y039599D01*
X034099Y039579D01*
X034054Y039562D01*
X034008Y039550D01*
X033960Y039541D01*
X033912Y039536D01*
X033864Y039535D01*
X033816Y039538D01*
X033768Y039545D01*
X033721Y039556D01*
X033675Y039570D01*
X033630Y039588D01*
X033587Y039610D01*
X033546Y039635D01*
X033508Y039664D01*
X033471Y039696D01*
X033437Y039730D01*
X033407Y039767D01*
X033379Y039806D01*
X033354Y039848D01*
X033334Y039892D01*
X033316Y039937D01*
X033303Y039983D01*
X033293Y040030D01*
X033287Y040078D01*
X033285Y040126D01*
X033285Y032626D02*
X033287Y032674D01*
X033293Y032722D01*
X033303Y032769D01*
X033316Y032815D01*
X033334Y032860D01*
X033354Y032904D01*
X033379Y032946D01*
X033407Y032985D01*
X033437Y033022D01*
X033471Y033056D01*
X033508Y033088D01*
X033546Y033117D01*
X033587Y033142D01*
X033630Y033164D01*
X033675Y033182D01*
X033721Y033196D01*
X033768Y033207D01*
X033816Y033214D01*
X033864Y033217D01*
X033912Y033216D01*
X033960Y033211D01*
X034008Y033202D01*
X034054Y033190D01*
X034099Y033173D01*
X034143Y033153D01*
X034185Y033130D01*
X034225Y033103D01*
X034263Y033073D01*
X034298Y033040D01*
X034330Y033004D01*
X034360Y032966D01*
X034386Y032925D01*
X034408Y032882D01*
X034428Y032838D01*
X034443Y032793D01*
X034455Y032746D01*
X034463Y032698D01*
X034467Y032650D01*
X034467Y032602D01*
X034463Y032554D01*
X034455Y032506D01*
X034443Y032459D01*
X034428Y032414D01*
X034408Y032370D01*
X034386Y032327D01*
X034360Y032286D01*
X034330Y032248D01*
X034298Y032212D01*
X034263Y032179D01*
X034225Y032149D01*
X034185Y032122D01*
X034143Y032099D01*
X034099Y032079D01*
X034054Y032062D01*
X034008Y032050D01*
X033960Y032041D01*
X033912Y032036D01*
X033864Y032035D01*
X033816Y032038D01*
X033768Y032045D01*
X033721Y032056D01*
X033675Y032070D01*
X033630Y032088D01*
X033587Y032110D01*
X033546Y032135D01*
X033508Y032164D01*
X033471Y032196D01*
X033437Y032230D01*
X033407Y032267D01*
X033379Y032306D01*
X033354Y032348D01*
X033334Y032392D01*
X033316Y032437D01*
X033303Y032483D01*
X033293Y032530D01*
X033287Y032578D01*
X033285Y032626D01*
X033285Y025126D02*
X033287Y025174D01*
X033293Y025222D01*
X033303Y025269D01*
X033316Y025315D01*
X033334Y025360D01*
X033354Y025404D01*
X033379Y025446D01*
X033407Y025485D01*
X033437Y025522D01*
X033471Y025556D01*
X033508Y025588D01*
X033546Y025617D01*
X033587Y025642D01*
X033630Y025664D01*
X033675Y025682D01*
X033721Y025696D01*
X033768Y025707D01*
X033816Y025714D01*
X033864Y025717D01*
X033912Y025716D01*
X033960Y025711D01*
X034008Y025702D01*
X034054Y025690D01*
X034099Y025673D01*
X034143Y025653D01*
X034185Y025630D01*
X034225Y025603D01*
X034263Y025573D01*
X034298Y025540D01*
X034330Y025504D01*
X034360Y025466D01*
X034386Y025425D01*
X034408Y025382D01*
X034428Y025338D01*
X034443Y025293D01*
X034455Y025246D01*
X034463Y025198D01*
X034467Y025150D01*
X034467Y025102D01*
X034463Y025054D01*
X034455Y025006D01*
X034443Y024959D01*
X034428Y024914D01*
X034408Y024870D01*
X034386Y024827D01*
X034360Y024786D01*
X034330Y024748D01*
X034298Y024712D01*
X034263Y024679D01*
X034225Y024649D01*
X034185Y024622D01*
X034143Y024599D01*
X034099Y024579D01*
X034054Y024562D01*
X034008Y024550D01*
X033960Y024541D01*
X033912Y024536D01*
X033864Y024535D01*
X033816Y024538D01*
X033768Y024545D01*
X033721Y024556D01*
X033675Y024570D01*
X033630Y024588D01*
X033587Y024610D01*
X033546Y024635D01*
X033508Y024664D01*
X033471Y024696D01*
X033437Y024730D01*
X033407Y024767D01*
X033379Y024806D01*
X033354Y024848D01*
X033334Y024892D01*
X033316Y024937D01*
X033303Y024983D01*
X033293Y025030D01*
X033287Y025078D01*
X033285Y025126D01*
X033285Y017626D02*
X033287Y017674D01*
X033293Y017722D01*
X033303Y017769D01*
X033316Y017815D01*
X033334Y017860D01*
X033354Y017904D01*
X033379Y017946D01*
X033407Y017985D01*
X033437Y018022D01*
X033471Y018056D01*
X033508Y018088D01*
X033546Y018117D01*
X033587Y018142D01*
X033630Y018164D01*
X033675Y018182D01*
X033721Y018196D01*
X033768Y018207D01*
X033816Y018214D01*
X033864Y018217D01*
X033912Y018216D01*
X033960Y018211D01*
X034008Y018202D01*
X034054Y018190D01*
X034099Y018173D01*
X034143Y018153D01*
X034185Y018130D01*
X034225Y018103D01*
X034263Y018073D01*
X034298Y018040D01*
X034330Y018004D01*
X034360Y017966D01*
X034386Y017925D01*
X034408Y017882D01*
X034428Y017838D01*
X034443Y017793D01*
X034455Y017746D01*
X034463Y017698D01*
X034467Y017650D01*
X034467Y017602D01*
X034463Y017554D01*
X034455Y017506D01*
X034443Y017459D01*
X034428Y017414D01*
X034408Y017370D01*
X034386Y017327D01*
X034360Y017286D01*
X034330Y017248D01*
X034298Y017212D01*
X034263Y017179D01*
X034225Y017149D01*
X034185Y017122D01*
X034143Y017099D01*
X034099Y017079D01*
X034054Y017062D01*
X034008Y017050D01*
X033960Y017041D01*
X033912Y017036D01*
X033864Y017035D01*
X033816Y017038D01*
X033768Y017045D01*
X033721Y017056D01*
X033675Y017070D01*
X033630Y017088D01*
X033587Y017110D01*
X033546Y017135D01*
X033508Y017164D01*
X033471Y017196D01*
X033437Y017230D01*
X033407Y017267D01*
X033379Y017306D01*
X033354Y017348D01*
X033334Y017392D01*
X033316Y017437D01*
X033303Y017483D01*
X033293Y017530D01*
X033287Y017578D01*
X033285Y017626D01*
X033285Y010126D02*
X033287Y010174D01*
X033293Y010222D01*
X033303Y010269D01*
X033316Y010315D01*
X033334Y010360D01*
X033354Y010404D01*
X033379Y010446D01*
X033407Y010485D01*
X033437Y010522D01*
X033471Y010556D01*
X033508Y010588D01*
X033546Y010617D01*
X033587Y010642D01*
X033630Y010664D01*
X033675Y010682D01*
X033721Y010696D01*
X033768Y010707D01*
X033816Y010714D01*
X033864Y010717D01*
X033912Y010716D01*
X033960Y010711D01*
X034008Y010702D01*
X034054Y010690D01*
X034099Y010673D01*
X034143Y010653D01*
X034185Y010630D01*
X034225Y010603D01*
X034263Y010573D01*
X034298Y010540D01*
X034330Y010504D01*
X034360Y010466D01*
X034386Y010425D01*
X034408Y010382D01*
X034428Y010338D01*
X034443Y010293D01*
X034455Y010246D01*
X034463Y010198D01*
X034467Y010150D01*
X034467Y010102D01*
X034463Y010054D01*
X034455Y010006D01*
X034443Y009959D01*
X034428Y009914D01*
X034408Y009870D01*
X034386Y009827D01*
X034360Y009786D01*
X034330Y009748D01*
X034298Y009712D01*
X034263Y009679D01*
X034225Y009649D01*
X034185Y009622D01*
X034143Y009599D01*
X034099Y009579D01*
X034054Y009562D01*
X034008Y009550D01*
X033960Y009541D01*
X033912Y009536D01*
X033864Y009535D01*
X033816Y009538D01*
X033768Y009545D01*
X033721Y009556D01*
X033675Y009570D01*
X033630Y009588D01*
X033587Y009610D01*
X033546Y009635D01*
X033508Y009664D01*
X033471Y009696D01*
X033437Y009730D01*
X033407Y009767D01*
X033379Y009806D01*
X033354Y009848D01*
X033334Y009892D01*
X033316Y009937D01*
X033303Y009983D01*
X033293Y010030D01*
X033287Y010078D01*
X033285Y010126D01*
X033285Y001376D02*
X033287Y001424D01*
X033293Y001472D01*
X033303Y001519D01*
X033316Y001565D01*
X033334Y001610D01*
X033354Y001654D01*
X033379Y001696D01*
X033407Y001735D01*
X033437Y001772D01*
X033471Y001806D01*
X033508Y001838D01*
X033546Y001867D01*
X033587Y001892D01*
X033630Y001914D01*
X033675Y001932D01*
X033721Y001946D01*
X033768Y001957D01*
X033816Y001964D01*
X033864Y001967D01*
X033912Y001966D01*
X033960Y001961D01*
X034008Y001952D01*
X034054Y001940D01*
X034099Y001923D01*
X034143Y001903D01*
X034185Y001880D01*
X034225Y001853D01*
X034263Y001823D01*
X034298Y001790D01*
X034330Y001754D01*
X034360Y001716D01*
X034386Y001675D01*
X034408Y001632D01*
X034428Y001588D01*
X034443Y001543D01*
X034455Y001496D01*
X034463Y001448D01*
X034467Y001400D01*
X034467Y001352D01*
X034463Y001304D01*
X034455Y001256D01*
X034443Y001209D01*
X034428Y001164D01*
X034408Y001120D01*
X034386Y001077D01*
X034360Y001036D01*
X034330Y000998D01*
X034298Y000962D01*
X034263Y000929D01*
X034225Y000899D01*
X034185Y000872D01*
X034143Y000849D01*
X034099Y000829D01*
X034054Y000812D01*
X034008Y000800D01*
X033960Y000791D01*
X033912Y000786D01*
X033864Y000785D01*
X033816Y000788D01*
X033768Y000795D01*
X033721Y000806D01*
X033675Y000820D01*
X033630Y000838D01*
X033587Y000860D01*
X033546Y000885D01*
X033508Y000914D01*
X033471Y000946D01*
X033437Y000980D01*
X033407Y001017D01*
X033379Y001056D01*
X033354Y001098D01*
X033334Y001142D01*
X033316Y001187D01*
X033303Y001233D01*
X033293Y001280D01*
X033287Y001328D01*
X033285Y001376D01*
X024535Y001376D02*
X024537Y001424D01*
X024543Y001472D01*
X024553Y001519D01*
X024566Y001565D01*
X024584Y001610D01*
X024604Y001654D01*
X024629Y001696D01*
X024657Y001735D01*
X024687Y001772D01*
X024721Y001806D01*
X024758Y001838D01*
X024796Y001867D01*
X024837Y001892D01*
X024880Y001914D01*
X024925Y001932D01*
X024971Y001946D01*
X025018Y001957D01*
X025066Y001964D01*
X025114Y001967D01*
X025162Y001966D01*
X025210Y001961D01*
X025258Y001952D01*
X025304Y001940D01*
X025349Y001923D01*
X025393Y001903D01*
X025435Y001880D01*
X025475Y001853D01*
X025513Y001823D01*
X025548Y001790D01*
X025580Y001754D01*
X025610Y001716D01*
X025636Y001675D01*
X025658Y001632D01*
X025678Y001588D01*
X025693Y001543D01*
X025705Y001496D01*
X025713Y001448D01*
X025717Y001400D01*
X025717Y001352D01*
X025713Y001304D01*
X025705Y001256D01*
X025693Y001209D01*
X025678Y001164D01*
X025658Y001120D01*
X025636Y001077D01*
X025610Y001036D01*
X025580Y000998D01*
X025548Y000962D01*
X025513Y000929D01*
X025475Y000899D01*
X025435Y000872D01*
X025393Y000849D01*
X025349Y000829D01*
X025304Y000812D01*
X025258Y000800D01*
X025210Y000791D01*
X025162Y000786D01*
X025114Y000785D01*
X025066Y000788D01*
X025018Y000795D01*
X024971Y000806D01*
X024925Y000820D01*
X024880Y000838D01*
X024837Y000860D01*
X024796Y000885D01*
X024758Y000914D01*
X024721Y000946D01*
X024687Y000980D01*
X024657Y001017D01*
X024629Y001056D01*
X024604Y001098D01*
X024584Y001142D01*
X024566Y001187D01*
X024553Y001233D01*
X024543Y001280D01*
X024537Y001328D01*
X024535Y001376D01*
X017035Y001376D02*
X017037Y001424D01*
X017043Y001472D01*
X017053Y001519D01*
X017066Y001565D01*
X017084Y001610D01*
X017104Y001654D01*
X017129Y001696D01*
X017157Y001735D01*
X017187Y001772D01*
X017221Y001806D01*
X017258Y001838D01*
X017296Y001867D01*
X017337Y001892D01*
X017380Y001914D01*
X017425Y001932D01*
X017471Y001946D01*
X017518Y001957D01*
X017566Y001964D01*
X017614Y001967D01*
X017662Y001966D01*
X017710Y001961D01*
X017758Y001952D01*
X017804Y001940D01*
X017849Y001923D01*
X017893Y001903D01*
X017935Y001880D01*
X017975Y001853D01*
X018013Y001823D01*
X018048Y001790D01*
X018080Y001754D01*
X018110Y001716D01*
X018136Y001675D01*
X018158Y001632D01*
X018178Y001588D01*
X018193Y001543D01*
X018205Y001496D01*
X018213Y001448D01*
X018217Y001400D01*
X018217Y001352D01*
X018213Y001304D01*
X018205Y001256D01*
X018193Y001209D01*
X018178Y001164D01*
X018158Y001120D01*
X018136Y001077D01*
X018110Y001036D01*
X018080Y000998D01*
X018048Y000962D01*
X018013Y000929D01*
X017975Y000899D01*
X017935Y000872D01*
X017893Y000849D01*
X017849Y000829D01*
X017804Y000812D01*
X017758Y000800D01*
X017710Y000791D01*
X017662Y000786D01*
X017614Y000785D01*
X017566Y000788D01*
X017518Y000795D01*
X017471Y000806D01*
X017425Y000820D01*
X017380Y000838D01*
X017337Y000860D01*
X017296Y000885D01*
X017258Y000914D01*
X017221Y000946D01*
X017187Y000980D01*
X017157Y001017D01*
X017129Y001056D01*
X017104Y001098D01*
X017084Y001142D01*
X017066Y001187D01*
X017053Y001233D01*
X017043Y001280D01*
X017037Y001328D01*
X017035Y001376D01*
X009535Y001376D02*
X009537Y001424D01*
X009543Y001472D01*
X009553Y001519D01*
X009566Y001565D01*
X009584Y001610D01*
X009604Y001654D01*
X009629Y001696D01*
X009657Y001735D01*
X009687Y001772D01*
X009721Y001806D01*
X009758Y001838D01*
X009796Y001867D01*
X009837Y001892D01*
X009880Y001914D01*
X009925Y001932D01*
X009971Y001946D01*
X010018Y001957D01*
X010066Y001964D01*
X010114Y001967D01*
X010162Y001966D01*
X010210Y001961D01*
X010258Y001952D01*
X010304Y001940D01*
X010349Y001923D01*
X010393Y001903D01*
X010435Y001880D01*
X010475Y001853D01*
X010513Y001823D01*
X010548Y001790D01*
X010580Y001754D01*
X010610Y001716D01*
X010636Y001675D01*
X010658Y001632D01*
X010678Y001588D01*
X010693Y001543D01*
X010705Y001496D01*
X010713Y001448D01*
X010717Y001400D01*
X010717Y001352D01*
X010713Y001304D01*
X010705Y001256D01*
X010693Y001209D01*
X010678Y001164D01*
X010658Y001120D01*
X010636Y001077D01*
X010610Y001036D01*
X010580Y000998D01*
X010548Y000962D01*
X010513Y000929D01*
X010475Y000899D01*
X010435Y000872D01*
X010393Y000849D01*
X010349Y000829D01*
X010304Y000812D01*
X010258Y000800D01*
X010210Y000791D01*
X010162Y000786D01*
X010114Y000785D01*
X010066Y000788D01*
X010018Y000795D01*
X009971Y000806D01*
X009925Y000820D01*
X009880Y000838D01*
X009837Y000860D01*
X009796Y000885D01*
X009758Y000914D01*
X009721Y000946D01*
X009687Y000980D01*
X009657Y001017D01*
X009629Y001056D01*
X009604Y001098D01*
X009584Y001142D01*
X009566Y001187D01*
X009553Y001233D01*
X009543Y001280D01*
X009537Y001328D01*
X009535Y001376D01*
M02*
