G75*
G70*
%OFA0B0*%
%FSLAX24Y24*%
%IPPOS*%
%LPD*%
%AMOC8*
5,1,8,0,0,1.08239X$1,22.5*
%
%ADD10C,0.0079*%
%ADD11C,0.0100*%
%ADD12C,0.0000*%
D10*
X003577Y200100D02*
X065639Y200100D01*
X065707Y200102D01*
X065774Y200107D01*
X065841Y200116D01*
X065908Y200129D01*
X065973Y200146D01*
X066038Y200165D01*
X066102Y200189D01*
X066164Y200216D01*
X066225Y200246D01*
X066283Y200279D01*
X066340Y200315D01*
X066395Y200355D01*
X066448Y200397D01*
X066499Y200443D01*
X066546Y200490D01*
X066592Y200541D01*
X066634Y200594D01*
X066674Y200649D01*
X066710Y200706D01*
X066743Y200764D01*
X066773Y200825D01*
X066800Y200887D01*
X066824Y200951D01*
X066843Y201016D01*
X066860Y201081D01*
X066873Y201148D01*
X066882Y201215D01*
X066887Y201282D01*
X066889Y201350D01*
X066889Y251850D01*
X066887Y251918D01*
X066882Y251985D01*
X066873Y252052D01*
X066860Y252119D01*
X066843Y252184D01*
X066824Y252249D01*
X066800Y252313D01*
X066773Y252375D01*
X066743Y252436D01*
X066710Y252494D01*
X066674Y252551D01*
X066634Y252606D01*
X066592Y252659D01*
X066546Y252710D01*
X066499Y252757D01*
X066448Y252803D01*
X066395Y252845D01*
X066340Y252885D01*
X066283Y252921D01*
X066225Y252954D01*
X066164Y252984D01*
X066102Y253011D01*
X066038Y253035D01*
X065973Y253054D01*
X065908Y253071D01*
X065841Y253084D01*
X065774Y253093D01*
X065707Y253098D01*
X065639Y253100D01*
X003577Y253100D01*
X003509Y253098D01*
X003442Y253093D01*
X003375Y253084D01*
X003308Y253071D01*
X003243Y253054D01*
X003178Y253035D01*
X003114Y253011D01*
X003052Y252984D01*
X002991Y252954D01*
X002933Y252921D01*
X002876Y252885D01*
X002821Y252845D01*
X002768Y252803D01*
X002717Y252757D01*
X002670Y252710D01*
X002624Y252659D01*
X002582Y252606D01*
X002542Y252551D01*
X002506Y252494D01*
X002473Y252436D01*
X002443Y252375D01*
X002416Y252313D01*
X002392Y252249D01*
X002373Y252184D01*
X002356Y252119D01*
X002343Y252052D01*
X002334Y251985D01*
X002329Y251918D01*
X002327Y251850D01*
X002327Y209975D01*
X000139Y209975D01*
X000139Y202663D01*
X002327Y202663D01*
X002327Y201350D01*
X002329Y201282D01*
X002334Y201215D01*
X002343Y201148D01*
X002356Y201081D01*
X002373Y201016D01*
X002392Y200951D01*
X002416Y200887D01*
X002443Y200825D01*
X002473Y200764D01*
X002506Y200706D01*
X002542Y200649D01*
X002582Y200594D01*
X002624Y200541D01*
X002670Y200490D01*
X002717Y200443D01*
X002768Y200397D01*
X002821Y200355D01*
X002876Y200315D01*
X002933Y200279D01*
X002991Y200246D01*
X003052Y200216D01*
X003114Y200189D01*
X003178Y200165D01*
X003243Y200146D01*
X003308Y200129D01*
X003375Y200116D01*
X003442Y200107D01*
X003509Y200102D01*
X003577Y200100D01*
D11*
X009236Y210100D02*
X009238Y210148D01*
X009244Y210196D01*
X009254Y210243D01*
X009267Y210289D01*
X009285Y210334D01*
X009305Y210378D01*
X009330Y210420D01*
X009358Y210459D01*
X009388Y210496D01*
X009422Y210530D01*
X009459Y210562D01*
X009497Y210591D01*
X009538Y210616D01*
X009581Y210638D01*
X009626Y210656D01*
X009672Y210670D01*
X009719Y210681D01*
X009767Y210688D01*
X009815Y210691D01*
X009863Y210690D01*
X009911Y210685D01*
X009959Y210676D01*
X010005Y210664D01*
X010050Y210647D01*
X010094Y210627D01*
X010136Y210604D01*
X010176Y210577D01*
X010214Y210547D01*
X010249Y210514D01*
X010281Y210478D01*
X010311Y210440D01*
X010337Y210399D01*
X010359Y210356D01*
X010379Y210312D01*
X010394Y210267D01*
X010406Y210220D01*
X010414Y210172D01*
X010418Y210124D01*
X010418Y210076D01*
X010414Y210028D01*
X010406Y209980D01*
X010394Y209933D01*
X010379Y209888D01*
X010359Y209844D01*
X010337Y209801D01*
X010311Y209760D01*
X010281Y209722D01*
X010249Y209686D01*
X010214Y209653D01*
X010176Y209623D01*
X010136Y209596D01*
X010094Y209573D01*
X010050Y209553D01*
X010005Y209536D01*
X009959Y209524D01*
X009911Y209515D01*
X009863Y209510D01*
X009815Y209509D01*
X009767Y209512D01*
X009719Y209519D01*
X009672Y209530D01*
X009626Y209544D01*
X009581Y209562D01*
X009538Y209584D01*
X009497Y209609D01*
X009459Y209638D01*
X009422Y209670D01*
X009388Y209704D01*
X009358Y209741D01*
X009330Y209780D01*
X009305Y209822D01*
X009285Y209866D01*
X009267Y209911D01*
X009254Y209957D01*
X009244Y210004D01*
X009238Y210052D01*
X009236Y210100D01*
X009236Y217600D02*
X009238Y217648D01*
X009244Y217696D01*
X009254Y217743D01*
X009267Y217789D01*
X009285Y217834D01*
X009305Y217878D01*
X009330Y217920D01*
X009358Y217959D01*
X009388Y217996D01*
X009422Y218030D01*
X009459Y218062D01*
X009497Y218091D01*
X009538Y218116D01*
X009581Y218138D01*
X009626Y218156D01*
X009672Y218170D01*
X009719Y218181D01*
X009767Y218188D01*
X009815Y218191D01*
X009863Y218190D01*
X009911Y218185D01*
X009959Y218176D01*
X010005Y218164D01*
X010050Y218147D01*
X010094Y218127D01*
X010136Y218104D01*
X010176Y218077D01*
X010214Y218047D01*
X010249Y218014D01*
X010281Y217978D01*
X010311Y217940D01*
X010337Y217899D01*
X010359Y217856D01*
X010379Y217812D01*
X010394Y217767D01*
X010406Y217720D01*
X010414Y217672D01*
X010418Y217624D01*
X010418Y217576D01*
X010414Y217528D01*
X010406Y217480D01*
X010394Y217433D01*
X010379Y217388D01*
X010359Y217344D01*
X010337Y217301D01*
X010311Y217260D01*
X010281Y217222D01*
X010249Y217186D01*
X010214Y217153D01*
X010176Y217123D01*
X010136Y217096D01*
X010094Y217073D01*
X010050Y217053D01*
X010005Y217036D01*
X009959Y217024D01*
X009911Y217015D01*
X009863Y217010D01*
X009815Y217009D01*
X009767Y217012D01*
X009719Y217019D01*
X009672Y217030D01*
X009626Y217044D01*
X009581Y217062D01*
X009538Y217084D01*
X009497Y217109D01*
X009459Y217138D01*
X009422Y217170D01*
X009388Y217204D01*
X009358Y217241D01*
X009330Y217280D01*
X009305Y217322D01*
X009285Y217366D01*
X009267Y217411D01*
X009254Y217457D01*
X009244Y217504D01*
X009238Y217552D01*
X009236Y217600D01*
X009236Y225100D02*
X009238Y225148D01*
X009244Y225196D01*
X009254Y225243D01*
X009267Y225289D01*
X009285Y225334D01*
X009305Y225378D01*
X009330Y225420D01*
X009358Y225459D01*
X009388Y225496D01*
X009422Y225530D01*
X009459Y225562D01*
X009497Y225591D01*
X009538Y225616D01*
X009581Y225638D01*
X009626Y225656D01*
X009672Y225670D01*
X009719Y225681D01*
X009767Y225688D01*
X009815Y225691D01*
X009863Y225690D01*
X009911Y225685D01*
X009959Y225676D01*
X010005Y225664D01*
X010050Y225647D01*
X010094Y225627D01*
X010136Y225604D01*
X010176Y225577D01*
X010214Y225547D01*
X010249Y225514D01*
X010281Y225478D01*
X010311Y225440D01*
X010337Y225399D01*
X010359Y225356D01*
X010379Y225312D01*
X010394Y225267D01*
X010406Y225220D01*
X010414Y225172D01*
X010418Y225124D01*
X010418Y225076D01*
X010414Y225028D01*
X010406Y224980D01*
X010394Y224933D01*
X010379Y224888D01*
X010359Y224844D01*
X010337Y224801D01*
X010311Y224760D01*
X010281Y224722D01*
X010249Y224686D01*
X010214Y224653D01*
X010176Y224623D01*
X010136Y224596D01*
X010094Y224573D01*
X010050Y224553D01*
X010005Y224536D01*
X009959Y224524D01*
X009911Y224515D01*
X009863Y224510D01*
X009815Y224509D01*
X009767Y224512D01*
X009719Y224519D01*
X009672Y224530D01*
X009626Y224544D01*
X009581Y224562D01*
X009538Y224584D01*
X009497Y224609D01*
X009459Y224638D01*
X009422Y224670D01*
X009388Y224704D01*
X009358Y224741D01*
X009330Y224780D01*
X009305Y224822D01*
X009285Y224866D01*
X009267Y224911D01*
X009254Y224957D01*
X009244Y225004D01*
X009238Y225052D01*
X009236Y225100D01*
X009236Y232600D02*
X009238Y232648D01*
X009244Y232696D01*
X009254Y232743D01*
X009267Y232789D01*
X009285Y232834D01*
X009305Y232878D01*
X009330Y232920D01*
X009358Y232959D01*
X009388Y232996D01*
X009422Y233030D01*
X009459Y233062D01*
X009497Y233091D01*
X009538Y233116D01*
X009581Y233138D01*
X009626Y233156D01*
X009672Y233170D01*
X009719Y233181D01*
X009767Y233188D01*
X009815Y233191D01*
X009863Y233190D01*
X009911Y233185D01*
X009959Y233176D01*
X010005Y233164D01*
X010050Y233147D01*
X010094Y233127D01*
X010136Y233104D01*
X010176Y233077D01*
X010214Y233047D01*
X010249Y233014D01*
X010281Y232978D01*
X010311Y232940D01*
X010337Y232899D01*
X010359Y232856D01*
X010379Y232812D01*
X010394Y232767D01*
X010406Y232720D01*
X010414Y232672D01*
X010418Y232624D01*
X010418Y232576D01*
X010414Y232528D01*
X010406Y232480D01*
X010394Y232433D01*
X010379Y232388D01*
X010359Y232344D01*
X010337Y232301D01*
X010311Y232260D01*
X010281Y232222D01*
X010249Y232186D01*
X010214Y232153D01*
X010176Y232123D01*
X010136Y232096D01*
X010094Y232073D01*
X010050Y232053D01*
X010005Y232036D01*
X009959Y232024D01*
X009911Y232015D01*
X009863Y232010D01*
X009815Y232009D01*
X009767Y232012D01*
X009719Y232019D01*
X009672Y232030D01*
X009626Y232044D01*
X009581Y232062D01*
X009538Y232084D01*
X009497Y232109D01*
X009459Y232138D01*
X009422Y232170D01*
X009388Y232204D01*
X009358Y232241D01*
X009330Y232280D01*
X009305Y232322D01*
X009285Y232366D01*
X009267Y232411D01*
X009254Y232457D01*
X009244Y232504D01*
X009238Y232552D01*
X009236Y232600D01*
X008843Y244850D02*
X008845Y244912D01*
X008851Y244975D01*
X008861Y245036D01*
X008875Y245097D01*
X008892Y245157D01*
X008913Y245216D01*
X008939Y245273D01*
X008967Y245328D01*
X008999Y245382D01*
X009035Y245433D01*
X009073Y245483D01*
X009115Y245529D01*
X009159Y245573D01*
X009207Y245614D01*
X009256Y245652D01*
X009308Y245686D01*
X009362Y245717D01*
X009418Y245745D01*
X009476Y245769D01*
X009535Y245790D01*
X009595Y245806D01*
X009656Y245819D01*
X009718Y245828D01*
X009780Y245833D01*
X009843Y245834D01*
X009905Y245831D01*
X009967Y245824D01*
X010029Y245813D01*
X010089Y245798D01*
X010149Y245780D01*
X010207Y245758D01*
X010264Y245732D01*
X010319Y245702D01*
X010372Y245669D01*
X010423Y245633D01*
X010471Y245594D01*
X010517Y245551D01*
X010560Y245506D01*
X010600Y245458D01*
X010637Y245408D01*
X010671Y245355D01*
X010702Y245301D01*
X010728Y245245D01*
X010752Y245187D01*
X010771Y245127D01*
X010787Y245067D01*
X010799Y245005D01*
X010807Y244944D01*
X010811Y244881D01*
X010811Y244819D01*
X010807Y244756D01*
X010799Y244695D01*
X010787Y244633D01*
X010771Y244573D01*
X010752Y244513D01*
X010728Y244455D01*
X010702Y244399D01*
X010671Y244345D01*
X010637Y244292D01*
X010600Y244242D01*
X010560Y244194D01*
X010517Y244149D01*
X010471Y244106D01*
X010423Y244067D01*
X010372Y244031D01*
X010319Y243998D01*
X010264Y243968D01*
X010207Y243942D01*
X010149Y243920D01*
X010089Y243902D01*
X010029Y243887D01*
X009967Y243876D01*
X009905Y243869D01*
X009843Y243866D01*
X009780Y243867D01*
X009718Y243872D01*
X009656Y243881D01*
X009595Y243894D01*
X009535Y243910D01*
X009476Y243931D01*
X009418Y243955D01*
X009362Y243983D01*
X009308Y244014D01*
X009256Y244048D01*
X009207Y244086D01*
X009159Y244127D01*
X009115Y244171D01*
X009073Y244217D01*
X009035Y244267D01*
X008999Y244318D01*
X008967Y244372D01*
X008939Y244427D01*
X008913Y244484D01*
X008892Y244543D01*
X008875Y244603D01*
X008861Y244664D01*
X008851Y244725D01*
X008845Y244788D01*
X008843Y244850D01*
X016343Y232600D02*
X016345Y232662D01*
X016351Y232725D01*
X016361Y232786D01*
X016375Y232847D01*
X016392Y232907D01*
X016413Y232966D01*
X016439Y233023D01*
X016467Y233078D01*
X016499Y233132D01*
X016535Y233183D01*
X016573Y233233D01*
X016615Y233279D01*
X016659Y233323D01*
X016707Y233364D01*
X016756Y233402D01*
X016808Y233436D01*
X016862Y233467D01*
X016918Y233495D01*
X016976Y233519D01*
X017035Y233540D01*
X017095Y233556D01*
X017156Y233569D01*
X017218Y233578D01*
X017280Y233583D01*
X017343Y233584D01*
X017405Y233581D01*
X017467Y233574D01*
X017529Y233563D01*
X017589Y233548D01*
X017649Y233530D01*
X017707Y233508D01*
X017764Y233482D01*
X017819Y233452D01*
X017872Y233419D01*
X017923Y233383D01*
X017971Y233344D01*
X018017Y233301D01*
X018060Y233256D01*
X018100Y233208D01*
X018137Y233158D01*
X018171Y233105D01*
X018202Y233051D01*
X018228Y232995D01*
X018252Y232937D01*
X018271Y232877D01*
X018287Y232817D01*
X018299Y232755D01*
X018307Y232694D01*
X018311Y232631D01*
X018311Y232569D01*
X018307Y232506D01*
X018299Y232445D01*
X018287Y232383D01*
X018271Y232323D01*
X018252Y232263D01*
X018228Y232205D01*
X018202Y232149D01*
X018171Y232095D01*
X018137Y232042D01*
X018100Y231992D01*
X018060Y231944D01*
X018017Y231899D01*
X017971Y231856D01*
X017923Y231817D01*
X017872Y231781D01*
X017819Y231748D01*
X017764Y231718D01*
X017707Y231692D01*
X017649Y231670D01*
X017589Y231652D01*
X017529Y231637D01*
X017467Y231626D01*
X017405Y231619D01*
X017343Y231616D01*
X017280Y231617D01*
X017218Y231622D01*
X017156Y231631D01*
X017095Y231644D01*
X017035Y231660D01*
X016976Y231681D01*
X016918Y231705D01*
X016862Y231733D01*
X016808Y231764D01*
X016756Y231798D01*
X016707Y231836D01*
X016659Y231877D01*
X016615Y231921D01*
X016573Y231967D01*
X016535Y232017D01*
X016499Y232068D01*
X016467Y232122D01*
X016439Y232177D01*
X016413Y232234D01*
X016392Y232293D01*
X016375Y232353D01*
X016361Y232414D01*
X016351Y232475D01*
X016345Y232538D01*
X016343Y232600D01*
X016343Y225100D02*
X016345Y225162D01*
X016351Y225225D01*
X016361Y225286D01*
X016375Y225347D01*
X016392Y225407D01*
X016413Y225466D01*
X016439Y225523D01*
X016467Y225578D01*
X016499Y225632D01*
X016535Y225683D01*
X016573Y225733D01*
X016615Y225779D01*
X016659Y225823D01*
X016707Y225864D01*
X016756Y225902D01*
X016808Y225936D01*
X016862Y225967D01*
X016918Y225995D01*
X016976Y226019D01*
X017035Y226040D01*
X017095Y226056D01*
X017156Y226069D01*
X017218Y226078D01*
X017280Y226083D01*
X017343Y226084D01*
X017405Y226081D01*
X017467Y226074D01*
X017529Y226063D01*
X017589Y226048D01*
X017649Y226030D01*
X017707Y226008D01*
X017764Y225982D01*
X017819Y225952D01*
X017872Y225919D01*
X017923Y225883D01*
X017971Y225844D01*
X018017Y225801D01*
X018060Y225756D01*
X018100Y225708D01*
X018137Y225658D01*
X018171Y225605D01*
X018202Y225551D01*
X018228Y225495D01*
X018252Y225437D01*
X018271Y225377D01*
X018287Y225317D01*
X018299Y225255D01*
X018307Y225194D01*
X018311Y225131D01*
X018311Y225069D01*
X018307Y225006D01*
X018299Y224945D01*
X018287Y224883D01*
X018271Y224823D01*
X018252Y224763D01*
X018228Y224705D01*
X018202Y224649D01*
X018171Y224595D01*
X018137Y224542D01*
X018100Y224492D01*
X018060Y224444D01*
X018017Y224399D01*
X017971Y224356D01*
X017923Y224317D01*
X017872Y224281D01*
X017819Y224248D01*
X017764Y224218D01*
X017707Y224192D01*
X017649Y224170D01*
X017589Y224152D01*
X017529Y224137D01*
X017467Y224126D01*
X017405Y224119D01*
X017343Y224116D01*
X017280Y224117D01*
X017218Y224122D01*
X017156Y224131D01*
X017095Y224144D01*
X017035Y224160D01*
X016976Y224181D01*
X016918Y224205D01*
X016862Y224233D01*
X016808Y224264D01*
X016756Y224298D01*
X016707Y224336D01*
X016659Y224377D01*
X016615Y224421D01*
X016573Y224467D01*
X016535Y224517D01*
X016499Y224568D01*
X016467Y224622D01*
X016439Y224677D01*
X016413Y224734D01*
X016392Y224793D01*
X016375Y224853D01*
X016361Y224914D01*
X016351Y224975D01*
X016345Y225038D01*
X016343Y225100D01*
X016343Y217600D02*
X016345Y217662D01*
X016351Y217725D01*
X016361Y217786D01*
X016375Y217847D01*
X016392Y217907D01*
X016413Y217966D01*
X016439Y218023D01*
X016467Y218078D01*
X016499Y218132D01*
X016535Y218183D01*
X016573Y218233D01*
X016615Y218279D01*
X016659Y218323D01*
X016707Y218364D01*
X016756Y218402D01*
X016808Y218436D01*
X016862Y218467D01*
X016918Y218495D01*
X016976Y218519D01*
X017035Y218540D01*
X017095Y218556D01*
X017156Y218569D01*
X017218Y218578D01*
X017280Y218583D01*
X017343Y218584D01*
X017405Y218581D01*
X017467Y218574D01*
X017529Y218563D01*
X017589Y218548D01*
X017649Y218530D01*
X017707Y218508D01*
X017764Y218482D01*
X017819Y218452D01*
X017872Y218419D01*
X017923Y218383D01*
X017971Y218344D01*
X018017Y218301D01*
X018060Y218256D01*
X018100Y218208D01*
X018137Y218158D01*
X018171Y218105D01*
X018202Y218051D01*
X018228Y217995D01*
X018252Y217937D01*
X018271Y217877D01*
X018287Y217817D01*
X018299Y217755D01*
X018307Y217694D01*
X018311Y217631D01*
X018311Y217569D01*
X018307Y217506D01*
X018299Y217445D01*
X018287Y217383D01*
X018271Y217323D01*
X018252Y217263D01*
X018228Y217205D01*
X018202Y217149D01*
X018171Y217095D01*
X018137Y217042D01*
X018100Y216992D01*
X018060Y216944D01*
X018017Y216899D01*
X017971Y216856D01*
X017923Y216817D01*
X017872Y216781D01*
X017819Y216748D01*
X017764Y216718D01*
X017707Y216692D01*
X017649Y216670D01*
X017589Y216652D01*
X017529Y216637D01*
X017467Y216626D01*
X017405Y216619D01*
X017343Y216616D01*
X017280Y216617D01*
X017218Y216622D01*
X017156Y216631D01*
X017095Y216644D01*
X017035Y216660D01*
X016976Y216681D01*
X016918Y216705D01*
X016862Y216733D01*
X016808Y216764D01*
X016756Y216798D01*
X016707Y216836D01*
X016659Y216877D01*
X016615Y216921D01*
X016573Y216967D01*
X016535Y217017D01*
X016499Y217068D01*
X016467Y217122D01*
X016439Y217177D01*
X016413Y217234D01*
X016392Y217293D01*
X016375Y217353D01*
X016361Y217414D01*
X016351Y217475D01*
X016345Y217538D01*
X016343Y217600D01*
X016343Y210100D02*
X016345Y210162D01*
X016351Y210225D01*
X016361Y210286D01*
X016375Y210347D01*
X016392Y210407D01*
X016413Y210466D01*
X016439Y210523D01*
X016467Y210578D01*
X016499Y210632D01*
X016535Y210683D01*
X016573Y210733D01*
X016615Y210779D01*
X016659Y210823D01*
X016707Y210864D01*
X016756Y210902D01*
X016808Y210936D01*
X016862Y210967D01*
X016918Y210995D01*
X016976Y211019D01*
X017035Y211040D01*
X017095Y211056D01*
X017156Y211069D01*
X017218Y211078D01*
X017280Y211083D01*
X017343Y211084D01*
X017405Y211081D01*
X017467Y211074D01*
X017529Y211063D01*
X017589Y211048D01*
X017649Y211030D01*
X017707Y211008D01*
X017764Y210982D01*
X017819Y210952D01*
X017872Y210919D01*
X017923Y210883D01*
X017971Y210844D01*
X018017Y210801D01*
X018060Y210756D01*
X018100Y210708D01*
X018137Y210658D01*
X018171Y210605D01*
X018202Y210551D01*
X018228Y210495D01*
X018252Y210437D01*
X018271Y210377D01*
X018287Y210317D01*
X018299Y210255D01*
X018307Y210194D01*
X018311Y210131D01*
X018311Y210069D01*
X018307Y210006D01*
X018299Y209945D01*
X018287Y209883D01*
X018271Y209823D01*
X018252Y209763D01*
X018228Y209705D01*
X018202Y209649D01*
X018171Y209595D01*
X018137Y209542D01*
X018100Y209492D01*
X018060Y209444D01*
X018017Y209399D01*
X017971Y209356D01*
X017923Y209317D01*
X017872Y209281D01*
X017819Y209248D01*
X017764Y209218D01*
X017707Y209192D01*
X017649Y209170D01*
X017589Y209152D01*
X017529Y209137D01*
X017467Y209126D01*
X017405Y209119D01*
X017343Y209116D01*
X017280Y209117D01*
X017218Y209122D01*
X017156Y209131D01*
X017095Y209144D01*
X017035Y209160D01*
X016976Y209181D01*
X016918Y209205D01*
X016862Y209233D01*
X016808Y209264D01*
X016756Y209298D01*
X016707Y209336D01*
X016659Y209377D01*
X016615Y209421D01*
X016573Y209467D01*
X016535Y209517D01*
X016499Y209568D01*
X016467Y209622D01*
X016439Y209677D01*
X016413Y209734D01*
X016392Y209793D01*
X016375Y209853D01*
X016361Y209914D01*
X016351Y209975D01*
X016345Y210038D01*
X016343Y210100D01*
X023593Y210350D02*
X023595Y210412D01*
X023601Y210475D01*
X023611Y210536D01*
X023625Y210597D01*
X023642Y210657D01*
X023663Y210716D01*
X023689Y210773D01*
X023717Y210828D01*
X023749Y210882D01*
X023785Y210933D01*
X023823Y210983D01*
X023865Y211029D01*
X023909Y211073D01*
X023957Y211114D01*
X024006Y211152D01*
X024058Y211186D01*
X024112Y211217D01*
X024168Y211245D01*
X024226Y211269D01*
X024285Y211290D01*
X024345Y211306D01*
X024406Y211319D01*
X024468Y211328D01*
X024530Y211333D01*
X024593Y211334D01*
X024655Y211331D01*
X024717Y211324D01*
X024779Y211313D01*
X024839Y211298D01*
X024899Y211280D01*
X024957Y211258D01*
X025014Y211232D01*
X025069Y211202D01*
X025122Y211169D01*
X025173Y211133D01*
X025221Y211094D01*
X025267Y211051D01*
X025310Y211006D01*
X025350Y210958D01*
X025387Y210908D01*
X025421Y210855D01*
X025452Y210801D01*
X025478Y210745D01*
X025502Y210687D01*
X025521Y210627D01*
X025537Y210567D01*
X025549Y210505D01*
X025557Y210444D01*
X025561Y210381D01*
X025561Y210319D01*
X025557Y210256D01*
X025549Y210195D01*
X025537Y210133D01*
X025521Y210073D01*
X025502Y210013D01*
X025478Y209955D01*
X025452Y209899D01*
X025421Y209845D01*
X025387Y209792D01*
X025350Y209742D01*
X025310Y209694D01*
X025267Y209649D01*
X025221Y209606D01*
X025173Y209567D01*
X025122Y209531D01*
X025069Y209498D01*
X025014Y209468D01*
X024957Y209442D01*
X024899Y209420D01*
X024839Y209402D01*
X024779Y209387D01*
X024717Y209376D01*
X024655Y209369D01*
X024593Y209366D01*
X024530Y209367D01*
X024468Y209372D01*
X024406Y209381D01*
X024345Y209394D01*
X024285Y209410D01*
X024226Y209431D01*
X024168Y209455D01*
X024112Y209483D01*
X024058Y209514D01*
X024006Y209548D01*
X023957Y209586D01*
X023909Y209627D01*
X023865Y209671D01*
X023823Y209717D01*
X023785Y209767D01*
X023749Y209818D01*
X023717Y209872D01*
X023689Y209927D01*
X023663Y209984D01*
X023642Y210043D01*
X023625Y210103D01*
X023611Y210164D01*
X023601Y210225D01*
X023595Y210288D01*
X023593Y210350D01*
X023843Y217600D02*
X023845Y217662D01*
X023851Y217725D01*
X023861Y217786D01*
X023875Y217847D01*
X023892Y217907D01*
X023913Y217966D01*
X023939Y218023D01*
X023967Y218078D01*
X023999Y218132D01*
X024035Y218183D01*
X024073Y218233D01*
X024115Y218279D01*
X024159Y218323D01*
X024207Y218364D01*
X024256Y218402D01*
X024308Y218436D01*
X024362Y218467D01*
X024418Y218495D01*
X024476Y218519D01*
X024535Y218540D01*
X024595Y218556D01*
X024656Y218569D01*
X024718Y218578D01*
X024780Y218583D01*
X024843Y218584D01*
X024905Y218581D01*
X024967Y218574D01*
X025029Y218563D01*
X025089Y218548D01*
X025149Y218530D01*
X025207Y218508D01*
X025264Y218482D01*
X025319Y218452D01*
X025372Y218419D01*
X025423Y218383D01*
X025471Y218344D01*
X025517Y218301D01*
X025560Y218256D01*
X025600Y218208D01*
X025637Y218158D01*
X025671Y218105D01*
X025702Y218051D01*
X025728Y217995D01*
X025752Y217937D01*
X025771Y217877D01*
X025787Y217817D01*
X025799Y217755D01*
X025807Y217694D01*
X025811Y217631D01*
X025811Y217569D01*
X025807Y217506D01*
X025799Y217445D01*
X025787Y217383D01*
X025771Y217323D01*
X025752Y217263D01*
X025728Y217205D01*
X025702Y217149D01*
X025671Y217095D01*
X025637Y217042D01*
X025600Y216992D01*
X025560Y216944D01*
X025517Y216899D01*
X025471Y216856D01*
X025423Y216817D01*
X025372Y216781D01*
X025319Y216748D01*
X025264Y216718D01*
X025207Y216692D01*
X025149Y216670D01*
X025089Y216652D01*
X025029Y216637D01*
X024967Y216626D01*
X024905Y216619D01*
X024843Y216616D01*
X024780Y216617D01*
X024718Y216622D01*
X024656Y216631D01*
X024595Y216644D01*
X024535Y216660D01*
X024476Y216681D01*
X024418Y216705D01*
X024362Y216733D01*
X024308Y216764D01*
X024256Y216798D01*
X024207Y216836D01*
X024159Y216877D01*
X024115Y216921D01*
X024073Y216967D01*
X024035Y217017D01*
X023999Y217068D01*
X023967Y217122D01*
X023939Y217177D01*
X023913Y217234D01*
X023892Y217293D01*
X023875Y217353D01*
X023861Y217414D01*
X023851Y217475D01*
X023845Y217538D01*
X023843Y217600D01*
X024218Y225100D02*
X024220Y225162D01*
X024226Y225225D01*
X024236Y225286D01*
X024250Y225347D01*
X024267Y225407D01*
X024288Y225466D01*
X024314Y225523D01*
X024342Y225578D01*
X024374Y225632D01*
X024410Y225683D01*
X024448Y225733D01*
X024490Y225779D01*
X024534Y225823D01*
X024582Y225864D01*
X024631Y225902D01*
X024683Y225936D01*
X024737Y225967D01*
X024793Y225995D01*
X024851Y226019D01*
X024910Y226040D01*
X024970Y226056D01*
X025031Y226069D01*
X025093Y226078D01*
X025155Y226083D01*
X025218Y226084D01*
X025280Y226081D01*
X025342Y226074D01*
X025404Y226063D01*
X025464Y226048D01*
X025524Y226030D01*
X025582Y226008D01*
X025639Y225982D01*
X025694Y225952D01*
X025747Y225919D01*
X025798Y225883D01*
X025846Y225844D01*
X025892Y225801D01*
X025935Y225756D01*
X025975Y225708D01*
X026012Y225658D01*
X026046Y225605D01*
X026077Y225551D01*
X026103Y225495D01*
X026127Y225437D01*
X026146Y225377D01*
X026162Y225317D01*
X026174Y225255D01*
X026182Y225194D01*
X026186Y225131D01*
X026186Y225069D01*
X026182Y225006D01*
X026174Y224945D01*
X026162Y224883D01*
X026146Y224823D01*
X026127Y224763D01*
X026103Y224705D01*
X026077Y224649D01*
X026046Y224595D01*
X026012Y224542D01*
X025975Y224492D01*
X025935Y224444D01*
X025892Y224399D01*
X025846Y224356D01*
X025798Y224317D01*
X025747Y224281D01*
X025694Y224248D01*
X025639Y224218D01*
X025582Y224192D01*
X025524Y224170D01*
X025464Y224152D01*
X025404Y224137D01*
X025342Y224126D01*
X025280Y224119D01*
X025218Y224116D01*
X025155Y224117D01*
X025093Y224122D01*
X025031Y224131D01*
X024970Y224144D01*
X024910Y224160D01*
X024851Y224181D01*
X024793Y224205D01*
X024737Y224233D01*
X024683Y224264D01*
X024631Y224298D01*
X024582Y224336D01*
X024534Y224377D01*
X024490Y224421D01*
X024448Y224467D01*
X024410Y224517D01*
X024374Y224568D01*
X024342Y224622D01*
X024314Y224677D01*
X024288Y224734D01*
X024267Y224793D01*
X024250Y224853D01*
X024236Y224914D01*
X024226Y224975D01*
X024220Y225038D01*
X024218Y225100D01*
X024218Y232725D02*
X024220Y232787D01*
X024226Y232850D01*
X024236Y232911D01*
X024250Y232972D01*
X024267Y233032D01*
X024288Y233091D01*
X024314Y233148D01*
X024342Y233203D01*
X024374Y233257D01*
X024410Y233308D01*
X024448Y233358D01*
X024490Y233404D01*
X024534Y233448D01*
X024582Y233489D01*
X024631Y233527D01*
X024683Y233561D01*
X024737Y233592D01*
X024793Y233620D01*
X024851Y233644D01*
X024910Y233665D01*
X024970Y233681D01*
X025031Y233694D01*
X025093Y233703D01*
X025155Y233708D01*
X025218Y233709D01*
X025280Y233706D01*
X025342Y233699D01*
X025404Y233688D01*
X025464Y233673D01*
X025524Y233655D01*
X025582Y233633D01*
X025639Y233607D01*
X025694Y233577D01*
X025747Y233544D01*
X025798Y233508D01*
X025846Y233469D01*
X025892Y233426D01*
X025935Y233381D01*
X025975Y233333D01*
X026012Y233283D01*
X026046Y233230D01*
X026077Y233176D01*
X026103Y233120D01*
X026127Y233062D01*
X026146Y233002D01*
X026162Y232942D01*
X026174Y232880D01*
X026182Y232819D01*
X026186Y232756D01*
X026186Y232694D01*
X026182Y232631D01*
X026174Y232570D01*
X026162Y232508D01*
X026146Y232448D01*
X026127Y232388D01*
X026103Y232330D01*
X026077Y232274D01*
X026046Y232220D01*
X026012Y232167D01*
X025975Y232117D01*
X025935Y232069D01*
X025892Y232024D01*
X025846Y231981D01*
X025798Y231942D01*
X025747Y231906D01*
X025694Y231873D01*
X025639Y231843D01*
X025582Y231817D01*
X025524Y231795D01*
X025464Y231777D01*
X025404Y231762D01*
X025342Y231751D01*
X025280Y231744D01*
X025218Y231741D01*
X025155Y231742D01*
X025093Y231747D01*
X025031Y231756D01*
X024970Y231769D01*
X024910Y231785D01*
X024851Y231806D01*
X024793Y231830D01*
X024737Y231858D01*
X024683Y231889D01*
X024631Y231923D01*
X024582Y231961D01*
X024534Y232002D01*
X024490Y232046D01*
X024448Y232092D01*
X024410Y232142D01*
X024374Y232193D01*
X024342Y232247D01*
X024314Y232302D01*
X024288Y232359D01*
X024267Y232418D01*
X024250Y232478D01*
X024236Y232539D01*
X024226Y232600D01*
X024220Y232663D01*
X024218Y232725D01*
X024093Y240038D02*
X024095Y240100D01*
X024101Y240163D01*
X024111Y240224D01*
X024125Y240285D01*
X024142Y240345D01*
X024163Y240404D01*
X024189Y240461D01*
X024217Y240516D01*
X024249Y240570D01*
X024285Y240621D01*
X024323Y240671D01*
X024365Y240717D01*
X024409Y240761D01*
X024457Y240802D01*
X024506Y240840D01*
X024558Y240874D01*
X024612Y240905D01*
X024668Y240933D01*
X024726Y240957D01*
X024785Y240978D01*
X024845Y240994D01*
X024906Y241007D01*
X024968Y241016D01*
X025030Y241021D01*
X025093Y241022D01*
X025155Y241019D01*
X025217Y241012D01*
X025279Y241001D01*
X025339Y240986D01*
X025399Y240968D01*
X025457Y240946D01*
X025514Y240920D01*
X025569Y240890D01*
X025622Y240857D01*
X025673Y240821D01*
X025721Y240782D01*
X025767Y240739D01*
X025810Y240694D01*
X025850Y240646D01*
X025887Y240596D01*
X025921Y240543D01*
X025952Y240489D01*
X025978Y240433D01*
X026002Y240375D01*
X026021Y240315D01*
X026037Y240255D01*
X026049Y240193D01*
X026057Y240132D01*
X026061Y240069D01*
X026061Y240007D01*
X026057Y239944D01*
X026049Y239883D01*
X026037Y239821D01*
X026021Y239761D01*
X026002Y239701D01*
X025978Y239643D01*
X025952Y239587D01*
X025921Y239533D01*
X025887Y239480D01*
X025850Y239430D01*
X025810Y239382D01*
X025767Y239337D01*
X025721Y239294D01*
X025673Y239255D01*
X025622Y239219D01*
X025569Y239186D01*
X025514Y239156D01*
X025457Y239130D01*
X025399Y239108D01*
X025339Y239090D01*
X025279Y239075D01*
X025217Y239064D01*
X025155Y239057D01*
X025093Y239054D01*
X025030Y239055D01*
X024968Y239060D01*
X024906Y239069D01*
X024845Y239082D01*
X024785Y239098D01*
X024726Y239119D01*
X024668Y239143D01*
X024612Y239171D01*
X024558Y239202D01*
X024506Y239236D01*
X024457Y239274D01*
X024409Y239315D01*
X024365Y239359D01*
X024323Y239405D01*
X024285Y239455D01*
X024249Y239506D01*
X024217Y239560D01*
X024189Y239615D01*
X024163Y239672D01*
X024142Y239731D01*
X024125Y239791D01*
X024111Y239852D01*
X024101Y239913D01*
X024095Y239976D01*
X024093Y240038D01*
X026780Y243225D02*
X026782Y243287D01*
X026788Y243350D01*
X026798Y243411D01*
X026812Y243472D01*
X026829Y243532D01*
X026850Y243591D01*
X026876Y243648D01*
X026904Y243703D01*
X026936Y243757D01*
X026972Y243808D01*
X027010Y243858D01*
X027052Y243904D01*
X027096Y243948D01*
X027144Y243989D01*
X027193Y244027D01*
X027245Y244061D01*
X027299Y244092D01*
X027355Y244120D01*
X027413Y244144D01*
X027472Y244165D01*
X027532Y244181D01*
X027593Y244194D01*
X027655Y244203D01*
X027717Y244208D01*
X027780Y244209D01*
X027842Y244206D01*
X027904Y244199D01*
X027966Y244188D01*
X028026Y244173D01*
X028086Y244155D01*
X028144Y244133D01*
X028201Y244107D01*
X028256Y244077D01*
X028309Y244044D01*
X028360Y244008D01*
X028408Y243969D01*
X028454Y243926D01*
X028497Y243881D01*
X028537Y243833D01*
X028574Y243783D01*
X028608Y243730D01*
X028639Y243676D01*
X028665Y243620D01*
X028689Y243562D01*
X028708Y243502D01*
X028724Y243442D01*
X028736Y243380D01*
X028744Y243319D01*
X028748Y243256D01*
X028748Y243194D01*
X028744Y243131D01*
X028736Y243070D01*
X028724Y243008D01*
X028708Y242948D01*
X028689Y242888D01*
X028665Y242830D01*
X028639Y242774D01*
X028608Y242720D01*
X028574Y242667D01*
X028537Y242617D01*
X028497Y242569D01*
X028454Y242524D01*
X028408Y242481D01*
X028360Y242442D01*
X028309Y242406D01*
X028256Y242373D01*
X028201Y242343D01*
X028144Y242317D01*
X028086Y242295D01*
X028026Y242277D01*
X027966Y242262D01*
X027904Y242251D01*
X027842Y242244D01*
X027780Y242241D01*
X027717Y242242D01*
X027655Y242247D01*
X027593Y242256D01*
X027532Y242269D01*
X027472Y242285D01*
X027413Y242306D01*
X027355Y242330D01*
X027299Y242358D01*
X027245Y242389D01*
X027193Y242423D01*
X027144Y242461D01*
X027096Y242502D01*
X027052Y242546D01*
X027010Y242592D01*
X026972Y242642D01*
X026936Y242693D01*
X026904Y242747D01*
X026876Y242802D01*
X026850Y242859D01*
X026829Y242918D01*
X026812Y242978D01*
X026798Y243039D01*
X026788Y243100D01*
X026782Y243163D01*
X026780Y243225D01*
X031343Y240288D02*
X031345Y240350D01*
X031351Y240413D01*
X031361Y240474D01*
X031375Y240535D01*
X031392Y240595D01*
X031413Y240654D01*
X031439Y240711D01*
X031467Y240766D01*
X031499Y240820D01*
X031535Y240871D01*
X031573Y240921D01*
X031615Y240967D01*
X031659Y241011D01*
X031707Y241052D01*
X031756Y241090D01*
X031808Y241124D01*
X031862Y241155D01*
X031918Y241183D01*
X031976Y241207D01*
X032035Y241228D01*
X032095Y241244D01*
X032156Y241257D01*
X032218Y241266D01*
X032280Y241271D01*
X032343Y241272D01*
X032405Y241269D01*
X032467Y241262D01*
X032529Y241251D01*
X032589Y241236D01*
X032649Y241218D01*
X032707Y241196D01*
X032764Y241170D01*
X032819Y241140D01*
X032872Y241107D01*
X032923Y241071D01*
X032971Y241032D01*
X033017Y240989D01*
X033060Y240944D01*
X033100Y240896D01*
X033137Y240846D01*
X033171Y240793D01*
X033202Y240739D01*
X033228Y240683D01*
X033252Y240625D01*
X033271Y240565D01*
X033287Y240505D01*
X033299Y240443D01*
X033307Y240382D01*
X033311Y240319D01*
X033311Y240257D01*
X033307Y240194D01*
X033299Y240133D01*
X033287Y240071D01*
X033271Y240011D01*
X033252Y239951D01*
X033228Y239893D01*
X033202Y239837D01*
X033171Y239783D01*
X033137Y239730D01*
X033100Y239680D01*
X033060Y239632D01*
X033017Y239587D01*
X032971Y239544D01*
X032923Y239505D01*
X032872Y239469D01*
X032819Y239436D01*
X032764Y239406D01*
X032707Y239380D01*
X032649Y239358D01*
X032589Y239340D01*
X032529Y239325D01*
X032467Y239314D01*
X032405Y239307D01*
X032343Y239304D01*
X032280Y239305D01*
X032218Y239310D01*
X032156Y239319D01*
X032095Y239332D01*
X032035Y239348D01*
X031976Y239369D01*
X031918Y239393D01*
X031862Y239421D01*
X031808Y239452D01*
X031756Y239486D01*
X031707Y239524D01*
X031659Y239565D01*
X031615Y239609D01*
X031573Y239655D01*
X031535Y239705D01*
X031499Y239756D01*
X031467Y239810D01*
X031439Y239865D01*
X031413Y239922D01*
X031392Y239981D01*
X031375Y240041D01*
X031361Y240102D01*
X031351Y240163D01*
X031345Y240226D01*
X031343Y240288D01*
X031343Y232600D02*
X031345Y232662D01*
X031351Y232725D01*
X031361Y232786D01*
X031375Y232847D01*
X031392Y232907D01*
X031413Y232966D01*
X031439Y233023D01*
X031467Y233078D01*
X031499Y233132D01*
X031535Y233183D01*
X031573Y233233D01*
X031615Y233279D01*
X031659Y233323D01*
X031707Y233364D01*
X031756Y233402D01*
X031808Y233436D01*
X031862Y233467D01*
X031918Y233495D01*
X031976Y233519D01*
X032035Y233540D01*
X032095Y233556D01*
X032156Y233569D01*
X032218Y233578D01*
X032280Y233583D01*
X032343Y233584D01*
X032405Y233581D01*
X032467Y233574D01*
X032529Y233563D01*
X032589Y233548D01*
X032649Y233530D01*
X032707Y233508D01*
X032764Y233482D01*
X032819Y233452D01*
X032872Y233419D01*
X032923Y233383D01*
X032971Y233344D01*
X033017Y233301D01*
X033060Y233256D01*
X033100Y233208D01*
X033137Y233158D01*
X033171Y233105D01*
X033202Y233051D01*
X033228Y232995D01*
X033252Y232937D01*
X033271Y232877D01*
X033287Y232817D01*
X033299Y232755D01*
X033307Y232694D01*
X033311Y232631D01*
X033311Y232569D01*
X033307Y232506D01*
X033299Y232445D01*
X033287Y232383D01*
X033271Y232323D01*
X033252Y232263D01*
X033228Y232205D01*
X033202Y232149D01*
X033171Y232095D01*
X033137Y232042D01*
X033100Y231992D01*
X033060Y231944D01*
X033017Y231899D01*
X032971Y231856D01*
X032923Y231817D01*
X032872Y231781D01*
X032819Y231748D01*
X032764Y231718D01*
X032707Y231692D01*
X032649Y231670D01*
X032589Y231652D01*
X032529Y231637D01*
X032467Y231626D01*
X032405Y231619D01*
X032343Y231616D01*
X032280Y231617D01*
X032218Y231622D01*
X032156Y231631D01*
X032095Y231644D01*
X032035Y231660D01*
X031976Y231681D01*
X031918Y231705D01*
X031862Y231733D01*
X031808Y231764D01*
X031756Y231798D01*
X031707Y231836D01*
X031659Y231877D01*
X031615Y231921D01*
X031573Y231967D01*
X031535Y232017D01*
X031499Y232068D01*
X031467Y232122D01*
X031439Y232177D01*
X031413Y232234D01*
X031392Y232293D01*
X031375Y232353D01*
X031361Y232414D01*
X031351Y232475D01*
X031345Y232538D01*
X031343Y232600D01*
X031343Y225100D02*
X031345Y225162D01*
X031351Y225225D01*
X031361Y225286D01*
X031375Y225347D01*
X031392Y225407D01*
X031413Y225466D01*
X031439Y225523D01*
X031467Y225578D01*
X031499Y225632D01*
X031535Y225683D01*
X031573Y225733D01*
X031615Y225779D01*
X031659Y225823D01*
X031707Y225864D01*
X031756Y225902D01*
X031808Y225936D01*
X031862Y225967D01*
X031918Y225995D01*
X031976Y226019D01*
X032035Y226040D01*
X032095Y226056D01*
X032156Y226069D01*
X032218Y226078D01*
X032280Y226083D01*
X032343Y226084D01*
X032405Y226081D01*
X032467Y226074D01*
X032529Y226063D01*
X032589Y226048D01*
X032649Y226030D01*
X032707Y226008D01*
X032764Y225982D01*
X032819Y225952D01*
X032872Y225919D01*
X032923Y225883D01*
X032971Y225844D01*
X033017Y225801D01*
X033060Y225756D01*
X033100Y225708D01*
X033137Y225658D01*
X033171Y225605D01*
X033202Y225551D01*
X033228Y225495D01*
X033252Y225437D01*
X033271Y225377D01*
X033287Y225317D01*
X033299Y225255D01*
X033307Y225194D01*
X033311Y225131D01*
X033311Y225069D01*
X033307Y225006D01*
X033299Y224945D01*
X033287Y224883D01*
X033271Y224823D01*
X033252Y224763D01*
X033228Y224705D01*
X033202Y224649D01*
X033171Y224595D01*
X033137Y224542D01*
X033100Y224492D01*
X033060Y224444D01*
X033017Y224399D01*
X032971Y224356D01*
X032923Y224317D01*
X032872Y224281D01*
X032819Y224248D01*
X032764Y224218D01*
X032707Y224192D01*
X032649Y224170D01*
X032589Y224152D01*
X032529Y224137D01*
X032467Y224126D01*
X032405Y224119D01*
X032343Y224116D01*
X032280Y224117D01*
X032218Y224122D01*
X032156Y224131D01*
X032095Y224144D01*
X032035Y224160D01*
X031976Y224181D01*
X031918Y224205D01*
X031862Y224233D01*
X031808Y224264D01*
X031756Y224298D01*
X031707Y224336D01*
X031659Y224377D01*
X031615Y224421D01*
X031573Y224467D01*
X031535Y224517D01*
X031499Y224568D01*
X031467Y224622D01*
X031439Y224677D01*
X031413Y224734D01*
X031392Y224793D01*
X031375Y224853D01*
X031361Y224914D01*
X031351Y224975D01*
X031345Y225038D01*
X031343Y225100D01*
X031280Y218100D02*
X031282Y218162D01*
X031288Y218225D01*
X031298Y218286D01*
X031312Y218347D01*
X031329Y218407D01*
X031350Y218466D01*
X031376Y218523D01*
X031404Y218578D01*
X031436Y218632D01*
X031472Y218683D01*
X031510Y218733D01*
X031552Y218779D01*
X031596Y218823D01*
X031644Y218864D01*
X031693Y218902D01*
X031745Y218936D01*
X031799Y218967D01*
X031855Y218995D01*
X031913Y219019D01*
X031972Y219040D01*
X032032Y219056D01*
X032093Y219069D01*
X032155Y219078D01*
X032217Y219083D01*
X032280Y219084D01*
X032342Y219081D01*
X032404Y219074D01*
X032466Y219063D01*
X032526Y219048D01*
X032586Y219030D01*
X032644Y219008D01*
X032701Y218982D01*
X032756Y218952D01*
X032809Y218919D01*
X032860Y218883D01*
X032908Y218844D01*
X032954Y218801D01*
X032997Y218756D01*
X033037Y218708D01*
X033074Y218658D01*
X033108Y218605D01*
X033139Y218551D01*
X033165Y218495D01*
X033189Y218437D01*
X033208Y218377D01*
X033224Y218317D01*
X033236Y218255D01*
X033244Y218194D01*
X033248Y218131D01*
X033248Y218069D01*
X033244Y218006D01*
X033236Y217945D01*
X033224Y217883D01*
X033208Y217823D01*
X033189Y217763D01*
X033165Y217705D01*
X033139Y217649D01*
X033108Y217595D01*
X033074Y217542D01*
X033037Y217492D01*
X032997Y217444D01*
X032954Y217399D01*
X032908Y217356D01*
X032860Y217317D01*
X032809Y217281D01*
X032756Y217248D01*
X032701Y217218D01*
X032644Y217192D01*
X032586Y217170D01*
X032526Y217152D01*
X032466Y217137D01*
X032404Y217126D01*
X032342Y217119D01*
X032280Y217116D01*
X032217Y217117D01*
X032155Y217122D01*
X032093Y217131D01*
X032032Y217144D01*
X031972Y217160D01*
X031913Y217181D01*
X031855Y217205D01*
X031799Y217233D01*
X031745Y217264D01*
X031693Y217298D01*
X031644Y217336D01*
X031596Y217377D01*
X031552Y217421D01*
X031510Y217467D01*
X031472Y217517D01*
X031436Y217568D01*
X031404Y217622D01*
X031376Y217677D01*
X031350Y217734D01*
X031329Y217793D01*
X031312Y217853D01*
X031298Y217914D01*
X031288Y217975D01*
X031282Y218038D01*
X031280Y218100D01*
X031093Y210225D02*
X031095Y210287D01*
X031101Y210350D01*
X031111Y210411D01*
X031125Y210472D01*
X031142Y210532D01*
X031163Y210591D01*
X031189Y210648D01*
X031217Y210703D01*
X031249Y210757D01*
X031285Y210808D01*
X031323Y210858D01*
X031365Y210904D01*
X031409Y210948D01*
X031457Y210989D01*
X031506Y211027D01*
X031558Y211061D01*
X031612Y211092D01*
X031668Y211120D01*
X031726Y211144D01*
X031785Y211165D01*
X031845Y211181D01*
X031906Y211194D01*
X031968Y211203D01*
X032030Y211208D01*
X032093Y211209D01*
X032155Y211206D01*
X032217Y211199D01*
X032279Y211188D01*
X032339Y211173D01*
X032399Y211155D01*
X032457Y211133D01*
X032514Y211107D01*
X032569Y211077D01*
X032622Y211044D01*
X032673Y211008D01*
X032721Y210969D01*
X032767Y210926D01*
X032810Y210881D01*
X032850Y210833D01*
X032887Y210783D01*
X032921Y210730D01*
X032952Y210676D01*
X032978Y210620D01*
X033002Y210562D01*
X033021Y210502D01*
X033037Y210442D01*
X033049Y210380D01*
X033057Y210319D01*
X033061Y210256D01*
X033061Y210194D01*
X033057Y210131D01*
X033049Y210070D01*
X033037Y210008D01*
X033021Y209948D01*
X033002Y209888D01*
X032978Y209830D01*
X032952Y209774D01*
X032921Y209720D01*
X032887Y209667D01*
X032850Y209617D01*
X032810Y209569D01*
X032767Y209524D01*
X032721Y209481D01*
X032673Y209442D01*
X032622Y209406D01*
X032569Y209373D01*
X032514Y209343D01*
X032457Y209317D01*
X032399Y209295D01*
X032339Y209277D01*
X032279Y209262D01*
X032217Y209251D01*
X032155Y209244D01*
X032093Y209241D01*
X032030Y209242D01*
X031968Y209247D01*
X031906Y209256D01*
X031845Y209269D01*
X031785Y209285D01*
X031726Y209306D01*
X031668Y209330D01*
X031612Y209358D01*
X031558Y209389D01*
X031506Y209423D01*
X031457Y209461D01*
X031409Y209502D01*
X031365Y209546D01*
X031323Y209592D01*
X031285Y209642D01*
X031249Y209693D01*
X031217Y209747D01*
X031189Y209802D01*
X031163Y209859D01*
X031142Y209918D01*
X031125Y209978D01*
X031111Y210039D01*
X031101Y210100D01*
X031095Y210163D01*
X031093Y210225D01*
X039218Y210100D02*
X039220Y210162D01*
X039226Y210225D01*
X039236Y210286D01*
X039250Y210347D01*
X039267Y210407D01*
X039288Y210466D01*
X039314Y210523D01*
X039342Y210578D01*
X039374Y210632D01*
X039410Y210683D01*
X039448Y210733D01*
X039490Y210779D01*
X039534Y210823D01*
X039582Y210864D01*
X039631Y210902D01*
X039683Y210936D01*
X039737Y210967D01*
X039793Y210995D01*
X039851Y211019D01*
X039910Y211040D01*
X039970Y211056D01*
X040031Y211069D01*
X040093Y211078D01*
X040155Y211083D01*
X040218Y211084D01*
X040280Y211081D01*
X040342Y211074D01*
X040404Y211063D01*
X040464Y211048D01*
X040524Y211030D01*
X040582Y211008D01*
X040639Y210982D01*
X040694Y210952D01*
X040747Y210919D01*
X040798Y210883D01*
X040846Y210844D01*
X040892Y210801D01*
X040935Y210756D01*
X040975Y210708D01*
X041012Y210658D01*
X041046Y210605D01*
X041077Y210551D01*
X041103Y210495D01*
X041127Y210437D01*
X041146Y210377D01*
X041162Y210317D01*
X041174Y210255D01*
X041182Y210194D01*
X041186Y210131D01*
X041186Y210069D01*
X041182Y210006D01*
X041174Y209945D01*
X041162Y209883D01*
X041146Y209823D01*
X041127Y209763D01*
X041103Y209705D01*
X041077Y209649D01*
X041046Y209595D01*
X041012Y209542D01*
X040975Y209492D01*
X040935Y209444D01*
X040892Y209399D01*
X040846Y209356D01*
X040798Y209317D01*
X040747Y209281D01*
X040694Y209248D01*
X040639Y209218D01*
X040582Y209192D01*
X040524Y209170D01*
X040464Y209152D01*
X040404Y209137D01*
X040342Y209126D01*
X040280Y209119D01*
X040218Y209116D01*
X040155Y209117D01*
X040093Y209122D01*
X040031Y209131D01*
X039970Y209144D01*
X039910Y209160D01*
X039851Y209181D01*
X039793Y209205D01*
X039737Y209233D01*
X039683Y209264D01*
X039631Y209298D01*
X039582Y209336D01*
X039534Y209377D01*
X039490Y209421D01*
X039448Y209467D01*
X039410Y209517D01*
X039374Y209568D01*
X039342Y209622D01*
X039314Y209677D01*
X039288Y209734D01*
X039267Y209793D01*
X039250Y209853D01*
X039236Y209914D01*
X039226Y209975D01*
X039220Y210038D01*
X039218Y210100D01*
X038843Y217600D02*
X038845Y217662D01*
X038851Y217725D01*
X038861Y217786D01*
X038875Y217847D01*
X038892Y217907D01*
X038913Y217966D01*
X038939Y218023D01*
X038967Y218078D01*
X038999Y218132D01*
X039035Y218183D01*
X039073Y218233D01*
X039115Y218279D01*
X039159Y218323D01*
X039207Y218364D01*
X039256Y218402D01*
X039308Y218436D01*
X039362Y218467D01*
X039418Y218495D01*
X039476Y218519D01*
X039535Y218540D01*
X039595Y218556D01*
X039656Y218569D01*
X039718Y218578D01*
X039780Y218583D01*
X039843Y218584D01*
X039905Y218581D01*
X039967Y218574D01*
X040029Y218563D01*
X040089Y218548D01*
X040149Y218530D01*
X040207Y218508D01*
X040264Y218482D01*
X040319Y218452D01*
X040372Y218419D01*
X040423Y218383D01*
X040471Y218344D01*
X040517Y218301D01*
X040560Y218256D01*
X040600Y218208D01*
X040637Y218158D01*
X040671Y218105D01*
X040702Y218051D01*
X040728Y217995D01*
X040752Y217937D01*
X040771Y217877D01*
X040787Y217817D01*
X040799Y217755D01*
X040807Y217694D01*
X040811Y217631D01*
X040811Y217569D01*
X040807Y217506D01*
X040799Y217445D01*
X040787Y217383D01*
X040771Y217323D01*
X040752Y217263D01*
X040728Y217205D01*
X040702Y217149D01*
X040671Y217095D01*
X040637Y217042D01*
X040600Y216992D01*
X040560Y216944D01*
X040517Y216899D01*
X040471Y216856D01*
X040423Y216817D01*
X040372Y216781D01*
X040319Y216748D01*
X040264Y216718D01*
X040207Y216692D01*
X040149Y216670D01*
X040089Y216652D01*
X040029Y216637D01*
X039967Y216626D01*
X039905Y216619D01*
X039843Y216616D01*
X039780Y216617D01*
X039718Y216622D01*
X039656Y216631D01*
X039595Y216644D01*
X039535Y216660D01*
X039476Y216681D01*
X039418Y216705D01*
X039362Y216733D01*
X039308Y216764D01*
X039256Y216798D01*
X039207Y216836D01*
X039159Y216877D01*
X039115Y216921D01*
X039073Y216967D01*
X039035Y217017D01*
X038999Y217068D01*
X038967Y217122D01*
X038939Y217177D01*
X038913Y217234D01*
X038892Y217293D01*
X038875Y217353D01*
X038861Y217414D01*
X038851Y217475D01*
X038845Y217538D01*
X038843Y217600D01*
X038843Y225100D02*
X038845Y225162D01*
X038851Y225225D01*
X038861Y225286D01*
X038875Y225347D01*
X038892Y225407D01*
X038913Y225466D01*
X038939Y225523D01*
X038967Y225578D01*
X038999Y225632D01*
X039035Y225683D01*
X039073Y225733D01*
X039115Y225779D01*
X039159Y225823D01*
X039207Y225864D01*
X039256Y225902D01*
X039308Y225936D01*
X039362Y225967D01*
X039418Y225995D01*
X039476Y226019D01*
X039535Y226040D01*
X039595Y226056D01*
X039656Y226069D01*
X039718Y226078D01*
X039780Y226083D01*
X039843Y226084D01*
X039905Y226081D01*
X039967Y226074D01*
X040029Y226063D01*
X040089Y226048D01*
X040149Y226030D01*
X040207Y226008D01*
X040264Y225982D01*
X040319Y225952D01*
X040372Y225919D01*
X040423Y225883D01*
X040471Y225844D01*
X040517Y225801D01*
X040560Y225756D01*
X040600Y225708D01*
X040637Y225658D01*
X040671Y225605D01*
X040702Y225551D01*
X040728Y225495D01*
X040752Y225437D01*
X040771Y225377D01*
X040787Y225317D01*
X040799Y225255D01*
X040807Y225194D01*
X040811Y225131D01*
X040811Y225069D01*
X040807Y225006D01*
X040799Y224945D01*
X040787Y224883D01*
X040771Y224823D01*
X040752Y224763D01*
X040728Y224705D01*
X040702Y224649D01*
X040671Y224595D01*
X040637Y224542D01*
X040600Y224492D01*
X040560Y224444D01*
X040517Y224399D01*
X040471Y224356D01*
X040423Y224317D01*
X040372Y224281D01*
X040319Y224248D01*
X040264Y224218D01*
X040207Y224192D01*
X040149Y224170D01*
X040089Y224152D01*
X040029Y224137D01*
X039967Y224126D01*
X039905Y224119D01*
X039843Y224116D01*
X039780Y224117D01*
X039718Y224122D01*
X039656Y224131D01*
X039595Y224144D01*
X039535Y224160D01*
X039476Y224181D01*
X039418Y224205D01*
X039362Y224233D01*
X039308Y224264D01*
X039256Y224298D01*
X039207Y224336D01*
X039159Y224377D01*
X039115Y224421D01*
X039073Y224467D01*
X039035Y224517D01*
X038999Y224568D01*
X038967Y224622D01*
X038939Y224677D01*
X038913Y224734D01*
X038892Y224793D01*
X038875Y224853D01*
X038861Y224914D01*
X038851Y224975D01*
X038845Y225038D01*
X038843Y225100D01*
X038843Y232600D02*
X038845Y232662D01*
X038851Y232725D01*
X038861Y232786D01*
X038875Y232847D01*
X038892Y232907D01*
X038913Y232966D01*
X038939Y233023D01*
X038967Y233078D01*
X038999Y233132D01*
X039035Y233183D01*
X039073Y233233D01*
X039115Y233279D01*
X039159Y233323D01*
X039207Y233364D01*
X039256Y233402D01*
X039308Y233436D01*
X039362Y233467D01*
X039418Y233495D01*
X039476Y233519D01*
X039535Y233540D01*
X039595Y233556D01*
X039656Y233569D01*
X039718Y233578D01*
X039780Y233583D01*
X039843Y233584D01*
X039905Y233581D01*
X039967Y233574D01*
X040029Y233563D01*
X040089Y233548D01*
X040149Y233530D01*
X040207Y233508D01*
X040264Y233482D01*
X040319Y233452D01*
X040372Y233419D01*
X040423Y233383D01*
X040471Y233344D01*
X040517Y233301D01*
X040560Y233256D01*
X040600Y233208D01*
X040637Y233158D01*
X040671Y233105D01*
X040702Y233051D01*
X040728Y232995D01*
X040752Y232937D01*
X040771Y232877D01*
X040787Y232817D01*
X040799Y232755D01*
X040807Y232694D01*
X040811Y232631D01*
X040811Y232569D01*
X040807Y232506D01*
X040799Y232445D01*
X040787Y232383D01*
X040771Y232323D01*
X040752Y232263D01*
X040728Y232205D01*
X040702Y232149D01*
X040671Y232095D01*
X040637Y232042D01*
X040600Y231992D01*
X040560Y231944D01*
X040517Y231899D01*
X040471Y231856D01*
X040423Y231817D01*
X040372Y231781D01*
X040319Y231748D01*
X040264Y231718D01*
X040207Y231692D01*
X040149Y231670D01*
X040089Y231652D01*
X040029Y231637D01*
X039967Y231626D01*
X039905Y231619D01*
X039843Y231616D01*
X039780Y231617D01*
X039718Y231622D01*
X039656Y231631D01*
X039595Y231644D01*
X039535Y231660D01*
X039476Y231681D01*
X039418Y231705D01*
X039362Y231733D01*
X039308Y231764D01*
X039256Y231798D01*
X039207Y231836D01*
X039159Y231877D01*
X039115Y231921D01*
X039073Y231967D01*
X039035Y232017D01*
X038999Y232068D01*
X038967Y232122D01*
X038939Y232177D01*
X038913Y232234D01*
X038892Y232293D01*
X038875Y232353D01*
X038861Y232414D01*
X038851Y232475D01*
X038845Y232538D01*
X038843Y232600D01*
X038968Y239913D02*
X038970Y239975D01*
X038976Y240038D01*
X038986Y240099D01*
X039000Y240160D01*
X039017Y240220D01*
X039038Y240279D01*
X039064Y240336D01*
X039092Y240391D01*
X039124Y240445D01*
X039160Y240496D01*
X039198Y240546D01*
X039240Y240592D01*
X039284Y240636D01*
X039332Y240677D01*
X039381Y240715D01*
X039433Y240749D01*
X039487Y240780D01*
X039543Y240808D01*
X039601Y240832D01*
X039660Y240853D01*
X039720Y240869D01*
X039781Y240882D01*
X039843Y240891D01*
X039905Y240896D01*
X039968Y240897D01*
X040030Y240894D01*
X040092Y240887D01*
X040154Y240876D01*
X040214Y240861D01*
X040274Y240843D01*
X040332Y240821D01*
X040389Y240795D01*
X040444Y240765D01*
X040497Y240732D01*
X040548Y240696D01*
X040596Y240657D01*
X040642Y240614D01*
X040685Y240569D01*
X040725Y240521D01*
X040762Y240471D01*
X040796Y240418D01*
X040827Y240364D01*
X040853Y240308D01*
X040877Y240250D01*
X040896Y240190D01*
X040912Y240130D01*
X040924Y240068D01*
X040932Y240007D01*
X040936Y239944D01*
X040936Y239882D01*
X040932Y239819D01*
X040924Y239758D01*
X040912Y239696D01*
X040896Y239636D01*
X040877Y239576D01*
X040853Y239518D01*
X040827Y239462D01*
X040796Y239408D01*
X040762Y239355D01*
X040725Y239305D01*
X040685Y239257D01*
X040642Y239212D01*
X040596Y239169D01*
X040548Y239130D01*
X040497Y239094D01*
X040444Y239061D01*
X040389Y239031D01*
X040332Y239005D01*
X040274Y238983D01*
X040214Y238965D01*
X040154Y238950D01*
X040092Y238939D01*
X040030Y238932D01*
X039968Y238929D01*
X039905Y238930D01*
X039843Y238935D01*
X039781Y238944D01*
X039720Y238957D01*
X039660Y238973D01*
X039601Y238994D01*
X039543Y239018D01*
X039487Y239046D01*
X039433Y239077D01*
X039381Y239111D01*
X039332Y239149D01*
X039284Y239190D01*
X039240Y239234D01*
X039198Y239280D01*
X039160Y239330D01*
X039124Y239381D01*
X039092Y239435D01*
X039064Y239490D01*
X039038Y239547D01*
X039017Y239606D01*
X039000Y239666D01*
X038986Y239727D01*
X038976Y239788D01*
X038970Y239851D01*
X038968Y239913D01*
X041780Y243225D02*
X041782Y243287D01*
X041788Y243350D01*
X041798Y243411D01*
X041812Y243472D01*
X041829Y243532D01*
X041850Y243591D01*
X041876Y243648D01*
X041904Y243703D01*
X041936Y243757D01*
X041972Y243808D01*
X042010Y243858D01*
X042052Y243904D01*
X042096Y243948D01*
X042144Y243989D01*
X042193Y244027D01*
X042245Y244061D01*
X042299Y244092D01*
X042355Y244120D01*
X042413Y244144D01*
X042472Y244165D01*
X042532Y244181D01*
X042593Y244194D01*
X042655Y244203D01*
X042717Y244208D01*
X042780Y244209D01*
X042842Y244206D01*
X042904Y244199D01*
X042966Y244188D01*
X043026Y244173D01*
X043086Y244155D01*
X043144Y244133D01*
X043201Y244107D01*
X043256Y244077D01*
X043309Y244044D01*
X043360Y244008D01*
X043408Y243969D01*
X043454Y243926D01*
X043497Y243881D01*
X043537Y243833D01*
X043574Y243783D01*
X043608Y243730D01*
X043639Y243676D01*
X043665Y243620D01*
X043689Y243562D01*
X043708Y243502D01*
X043724Y243442D01*
X043736Y243380D01*
X043744Y243319D01*
X043748Y243256D01*
X043748Y243194D01*
X043744Y243131D01*
X043736Y243070D01*
X043724Y243008D01*
X043708Y242948D01*
X043689Y242888D01*
X043665Y242830D01*
X043639Y242774D01*
X043608Y242720D01*
X043574Y242667D01*
X043537Y242617D01*
X043497Y242569D01*
X043454Y242524D01*
X043408Y242481D01*
X043360Y242442D01*
X043309Y242406D01*
X043256Y242373D01*
X043201Y242343D01*
X043144Y242317D01*
X043086Y242295D01*
X043026Y242277D01*
X042966Y242262D01*
X042904Y242251D01*
X042842Y242244D01*
X042780Y242241D01*
X042717Y242242D01*
X042655Y242247D01*
X042593Y242256D01*
X042532Y242269D01*
X042472Y242285D01*
X042413Y242306D01*
X042355Y242330D01*
X042299Y242358D01*
X042245Y242389D01*
X042193Y242423D01*
X042144Y242461D01*
X042096Y242502D01*
X042052Y242546D01*
X042010Y242592D01*
X041972Y242642D01*
X041936Y242693D01*
X041904Y242747D01*
X041876Y242802D01*
X041850Y242859D01*
X041829Y242918D01*
X041812Y242978D01*
X041798Y243039D01*
X041788Y243100D01*
X041782Y243163D01*
X041780Y243225D01*
X046343Y232600D02*
X046345Y232662D01*
X046351Y232725D01*
X046361Y232786D01*
X046375Y232847D01*
X046392Y232907D01*
X046413Y232966D01*
X046439Y233023D01*
X046467Y233078D01*
X046499Y233132D01*
X046535Y233183D01*
X046573Y233233D01*
X046615Y233279D01*
X046659Y233323D01*
X046707Y233364D01*
X046756Y233402D01*
X046808Y233436D01*
X046862Y233467D01*
X046918Y233495D01*
X046976Y233519D01*
X047035Y233540D01*
X047095Y233556D01*
X047156Y233569D01*
X047218Y233578D01*
X047280Y233583D01*
X047343Y233584D01*
X047405Y233581D01*
X047467Y233574D01*
X047529Y233563D01*
X047589Y233548D01*
X047649Y233530D01*
X047707Y233508D01*
X047764Y233482D01*
X047819Y233452D01*
X047872Y233419D01*
X047923Y233383D01*
X047971Y233344D01*
X048017Y233301D01*
X048060Y233256D01*
X048100Y233208D01*
X048137Y233158D01*
X048171Y233105D01*
X048202Y233051D01*
X048228Y232995D01*
X048252Y232937D01*
X048271Y232877D01*
X048287Y232817D01*
X048299Y232755D01*
X048307Y232694D01*
X048311Y232631D01*
X048311Y232569D01*
X048307Y232506D01*
X048299Y232445D01*
X048287Y232383D01*
X048271Y232323D01*
X048252Y232263D01*
X048228Y232205D01*
X048202Y232149D01*
X048171Y232095D01*
X048137Y232042D01*
X048100Y231992D01*
X048060Y231944D01*
X048017Y231899D01*
X047971Y231856D01*
X047923Y231817D01*
X047872Y231781D01*
X047819Y231748D01*
X047764Y231718D01*
X047707Y231692D01*
X047649Y231670D01*
X047589Y231652D01*
X047529Y231637D01*
X047467Y231626D01*
X047405Y231619D01*
X047343Y231616D01*
X047280Y231617D01*
X047218Y231622D01*
X047156Y231631D01*
X047095Y231644D01*
X047035Y231660D01*
X046976Y231681D01*
X046918Y231705D01*
X046862Y231733D01*
X046808Y231764D01*
X046756Y231798D01*
X046707Y231836D01*
X046659Y231877D01*
X046615Y231921D01*
X046573Y231967D01*
X046535Y232017D01*
X046499Y232068D01*
X046467Y232122D01*
X046439Y232177D01*
X046413Y232234D01*
X046392Y232293D01*
X046375Y232353D01*
X046361Y232414D01*
X046351Y232475D01*
X046345Y232538D01*
X046343Y232600D01*
X047218Y239350D02*
X047220Y239412D01*
X047226Y239475D01*
X047236Y239536D01*
X047250Y239597D01*
X047267Y239657D01*
X047288Y239716D01*
X047314Y239773D01*
X047342Y239828D01*
X047374Y239882D01*
X047410Y239933D01*
X047448Y239983D01*
X047490Y240029D01*
X047534Y240073D01*
X047582Y240114D01*
X047631Y240152D01*
X047683Y240186D01*
X047737Y240217D01*
X047793Y240245D01*
X047851Y240269D01*
X047910Y240290D01*
X047970Y240306D01*
X048031Y240319D01*
X048093Y240328D01*
X048155Y240333D01*
X048218Y240334D01*
X048280Y240331D01*
X048342Y240324D01*
X048404Y240313D01*
X048464Y240298D01*
X048524Y240280D01*
X048582Y240258D01*
X048639Y240232D01*
X048694Y240202D01*
X048747Y240169D01*
X048798Y240133D01*
X048846Y240094D01*
X048892Y240051D01*
X048935Y240006D01*
X048975Y239958D01*
X049012Y239908D01*
X049046Y239855D01*
X049077Y239801D01*
X049103Y239745D01*
X049127Y239687D01*
X049146Y239627D01*
X049162Y239567D01*
X049174Y239505D01*
X049182Y239444D01*
X049186Y239381D01*
X049186Y239319D01*
X049182Y239256D01*
X049174Y239195D01*
X049162Y239133D01*
X049146Y239073D01*
X049127Y239013D01*
X049103Y238955D01*
X049077Y238899D01*
X049046Y238845D01*
X049012Y238792D01*
X048975Y238742D01*
X048935Y238694D01*
X048892Y238649D01*
X048846Y238606D01*
X048798Y238567D01*
X048747Y238531D01*
X048694Y238498D01*
X048639Y238468D01*
X048582Y238442D01*
X048524Y238420D01*
X048464Y238402D01*
X048404Y238387D01*
X048342Y238376D01*
X048280Y238369D01*
X048218Y238366D01*
X048155Y238367D01*
X048093Y238372D01*
X048031Y238381D01*
X047970Y238394D01*
X047910Y238410D01*
X047851Y238431D01*
X047793Y238455D01*
X047737Y238483D01*
X047683Y238514D01*
X047631Y238548D01*
X047582Y238586D01*
X047534Y238627D01*
X047490Y238671D01*
X047448Y238717D01*
X047410Y238767D01*
X047374Y238818D01*
X047342Y238872D01*
X047314Y238927D01*
X047288Y238984D01*
X047267Y239043D01*
X047250Y239103D01*
X047236Y239164D01*
X047226Y239225D01*
X047220Y239288D01*
X047218Y239350D01*
X046718Y225100D02*
X046720Y225162D01*
X046726Y225225D01*
X046736Y225286D01*
X046750Y225347D01*
X046767Y225407D01*
X046788Y225466D01*
X046814Y225523D01*
X046842Y225578D01*
X046874Y225632D01*
X046910Y225683D01*
X046948Y225733D01*
X046990Y225779D01*
X047034Y225823D01*
X047082Y225864D01*
X047131Y225902D01*
X047183Y225936D01*
X047237Y225967D01*
X047293Y225995D01*
X047351Y226019D01*
X047410Y226040D01*
X047470Y226056D01*
X047531Y226069D01*
X047593Y226078D01*
X047655Y226083D01*
X047718Y226084D01*
X047780Y226081D01*
X047842Y226074D01*
X047904Y226063D01*
X047964Y226048D01*
X048024Y226030D01*
X048082Y226008D01*
X048139Y225982D01*
X048194Y225952D01*
X048247Y225919D01*
X048298Y225883D01*
X048346Y225844D01*
X048392Y225801D01*
X048435Y225756D01*
X048475Y225708D01*
X048512Y225658D01*
X048546Y225605D01*
X048577Y225551D01*
X048603Y225495D01*
X048627Y225437D01*
X048646Y225377D01*
X048662Y225317D01*
X048674Y225255D01*
X048682Y225194D01*
X048686Y225131D01*
X048686Y225069D01*
X048682Y225006D01*
X048674Y224945D01*
X048662Y224883D01*
X048646Y224823D01*
X048627Y224763D01*
X048603Y224705D01*
X048577Y224649D01*
X048546Y224595D01*
X048512Y224542D01*
X048475Y224492D01*
X048435Y224444D01*
X048392Y224399D01*
X048346Y224356D01*
X048298Y224317D01*
X048247Y224281D01*
X048194Y224248D01*
X048139Y224218D01*
X048082Y224192D01*
X048024Y224170D01*
X047964Y224152D01*
X047904Y224137D01*
X047842Y224126D01*
X047780Y224119D01*
X047718Y224116D01*
X047655Y224117D01*
X047593Y224122D01*
X047531Y224131D01*
X047470Y224144D01*
X047410Y224160D01*
X047351Y224181D01*
X047293Y224205D01*
X047237Y224233D01*
X047183Y224264D01*
X047131Y224298D01*
X047082Y224336D01*
X047034Y224377D01*
X046990Y224421D01*
X046948Y224467D01*
X046910Y224517D01*
X046874Y224568D01*
X046842Y224622D01*
X046814Y224677D01*
X046788Y224734D01*
X046767Y224793D01*
X046750Y224853D01*
X046736Y224914D01*
X046726Y224975D01*
X046720Y225038D01*
X046718Y225100D01*
X046343Y217600D02*
X046345Y217662D01*
X046351Y217725D01*
X046361Y217786D01*
X046375Y217847D01*
X046392Y217907D01*
X046413Y217966D01*
X046439Y218023D01*
X046467Y218078D01*
X046499Y218132D01*
X046535Y218183D01*
X046573Y218233D01*
X046615Y218279D01*
X046659Y218323D01*
X046707Y218364D01*
X046756Y218402D01*
X046808Y218436D01*
X046862Y218467D01*
X046918Y218495D01*
X046976Y218519D01*
X047035Y218540D01*
X047095Y218556D01*
X047156Y218569D01*
X047218Y218578D01*
X047280Y218583D01*
X047343Y218584D01*
X047405Y218581D01*
X047467Y218574D01*
X047529Y218563D01*
X047589Y218548D01*
X047649Y218530D01*
X047707Y218508D01*
X047764Y218482D01*
X047819Y218452D01*
X047872Y218419D01*
X047923Y218383D01*
X047971Y218344D01*
X048017Y218301D01*
X048060Y218256D01*
X048100Y218208D01*
X048137Y218158D01*
X048171Y218105D01*
X048202Y218051D01*
X048228Y217995D01*
X048252Y217937D01*
X048271Y217877D01*
X048287Y217817D01*
X048299Y217755D01*
X048307Y217694D01*
X048311Y217631D01*
X048311Y217569D01*
X048307Y217506D01*
X048299Y217445D01*
X048287Y217383D01*
X048271Y217323D01*
X048252Y217263D01*
X048228Y217205D01*
X048202Y217149D01*
X048171Y217095D01*
X048137Y217042D01*
X048100Y216992D01*
X048060Y216944D01*
X048017Y216899D01*
X047971Y216856D01*
X047923Y216817D01*
X047872Y216781D01*
X047819Y216748D01*
X047764Y216718D01*
X047707Y216692D01*
X047649Y216670D01*
X047589Y216652D01*
X047529Y216637D01*
X047467Y216626D01*
X047405Y216619D01*
X047343Y216616D01*
X047280Y216617D01*
X047218Y216622D01*
X047156Y216631D01*
X047095Y216644D01*
X047035Y216660D01*
X046976Y216681D01*
X046918Y216705D01*
X046862Y216733D01*
X046808Y216764D01*
X046756Y216798D01*
X046707Y216836D01*
X046659Y216877D01*
X046615Y216921D01*
X046573Y216967D01*
X046535Y217017D01*
X046499Y217068D01*
X046467Y217122D01*
X046439Y217177D01*
X046413Y217234D01*
X046392Y217293D01*
X046375Y217353D01*
X046361Y217414D01*
X046351Y217475D01*
X046345Y217538D01*
X046343Y217600D01*
X046343Y210100D02*
X046345Y210162D01*
X046351Y210225D01*
X046361Y210286D01*
X046375Y210347D01*
X046392Y210407D01*
X046413Y210466D01*
X046439Y210523D01*
X046467Y210578D01*
X046499Y210632D01*
X046535Y210683D01*
X046573Y210733D01*
X046615Y210779D01*
X046659Y210823D01*
X046707Y210864D01*
X046756Y210902D01*
X046808Y210936D01*
X046862Y210967D01*
X046918Y210995D01*
X046976Y211019D01*
X047035Y211040D01*
X047095Y211056D01*
X047156Y211069D01*
X047218Y211078D01*
X047280Y211083D01*
X047343Y211084D01*
X047405Y211081D01*
X047467Y211074D01*
X047529Y211063D01*
X047589Y211048D01*
X047649Y211030D01*
X047707Y211008D01*
X047764Y210982D01*
X047819Y210952D01*
X047872Y210919D01*
X047923Y210883D01*
X047971Y210844D01*
X048017Y210801D01*
X048060Y210756D01*
X048100Y210708D01*
X048137Y210658D01*
X048171Y210605D01*
X048202Y210551D01*
X048228Y210495D01*
X048252Y210437D01*
X048271Y210377D01*
X048287Y210317D01*
X048299Y210255D01*
X048307Y210194D01*
X048311Y210131D01*
X048311Y210069D01*
X048307Y210006D01*
X048299Y209945D01*
X048287Y209883D01*
X048271Y209823D01*
X048252Y209763D01*
X048228Y209705D01*
X048202Y209649D01*
X048171Y209595D01*
X048137Y209542D01*
X048100Y209492D01*
X048060Y209444D01*
X048017Y209399D01*
X047971Y209356D01*
X047923Y209317D01*
X047872Y209281D01*
X047819Y209248D01*
X047764Y209218D01*
X047707Y209192D01*
X047649Y209170D01*
X047589Y209152D01*
X047529Y209137D01*
X047467Y209126D01*
X047405Y209119D01*
X047343Y209116D01*
X047280Y209117D01*
X047218Y209122D01*
X047156Y209131D01*
X047095Y209144D01*
X047035Y209160D01*
X046976Y209181D01*
X046918Y209205D01*
X046862Y209233D01*
X046808Y209264D01*
X046756Y209298D01*
X046707Y209336D01*
X046659Y209377D01*
X046615Y209421D01*
X046573Y209467D01*
X046535Y209517D01*
X046499Y209568D01*
X046467Y209622D01*
X046439Y209677D01*
X046413Y209734D01*
X046392Y209793D01*
X046375Y209853D01*
X046361Y209914D01*
X046351Y209975D01*
X046345Y210038D01*
X046343Y210100D01*
X053843Y225100D02*
X053845Y225162D01*
X053851Y225225D01*
X053861Y225286D01*
X053875Y225347D01*
X053892Y225407D01*
X053913Y225466D01*
X053939Y225523D01*
X053967Y225578D01*
X053999Y225632D01*
X054035Y225683D01*
X054073Y225733D01*
X054115Y225779D01*
X054159Y225823D01*
X054207Y225864D01*
X054256Y225902D01*
X054308Y225936D01*
X054362Y225967D01*
X054418Y225995D01*
X054476Y226019D01*
X054535Y226040D01*
X054595Y226056D01*
X054656Y226069D01*
X054718Y226078D01*
X054780Y226083D01*
X054843Y226084D01*
X054905Y226081D01*
X054967Y226074D01*
X055029Y226063D01*
X055089Y226048D01*
X055149Y226030D01*
X055207Y226008D01*
X055264Y225982D01*
X055319Y225952D01*
X055372Y225919D01*
X055423Y225883D01*
X055471Y225844D01*
X055517Y225801D01*
X055560Y225756D01*
X055600Y225708D01*
X055637Y225658D01*
X055671Y225605D01*
X055702Y225551D01*
X055728Y225495D01*
X055752Y225437D01*
X055771Y225377D01*
X055787Y225317D01*
X055799Y225255D01*
X055807Y225194D01*
X055811Y225131D01*
X055811Y225069D01*
X055807Y225006D01*
X055799Y224945D01*
X055787Y224883D01*
X055771Y224823D01*
X055752Y224763D01*
X055728Y224705D01*
X055702Y224649D01*
X055671Y224595D01*
X055637Y224542D01*
X055600Y224492D01*
X055560Y224444D01*
X055517Y224399D01*
X055471Y224356D01*
X055423Y224317D01*
X055372Y224281D01*
X055319Y224248D01*
X055264Y224218D01*
X055207Y224192D01*
X055149Y224170D01*
X055089Y224152D01*
X055029Y224137D01*
X054967Y224126D01*
X054905Y224119D01*
X054843Y224116D01*
X054780Y224117D01*
X054718Y224122D01*
X054656Y224131D01*
X054595Y224144D01*
X054535Y224160D01*
X054476Y224181D01*
X054418Y224205D01*
X054362Y224233D01*
X054308Y224264D01*
X054256Y224298D01*
X054207Y224336D01*
X054159Y224377D01*
X054115Y224421D01*
X054073Y224467D01*
X054035Y224517D01*
X053999Y224568D01*
X053967Y224622D01*
X053939Y224677D01*
X053913Y224734D01*
X053892Y224793D01*
X053875Y224853D01*
X053861Y224914D01*
X053851Y224975D01*
X053845Y225038D01*
X053843Y225100D01*
X053905Y232288D02*
X053907Y232350D01*
X053913Y232413D01*
X053923Y232474D01*
X053937Y232535D01*
X053954Y232595D01*
X053975Y232654D01*
X054001Y232711D01*
X054029Y232766D01*
X054061Y232820D01*
X054097Y232871D01*
X054135Y232921D01*
X054177Y232967D01*
X054221Y233011D01*
X054269Y233052D01*
X054318Y233090D01*
X054370Y233124D01*
X054424Y233155D01*
X054480Y233183D01*
X054538Y233207D01*
X054597Y233228D01*
X054657Y233244D01*
X054718Y233257D01*
X054780Y233266D01*
X054842Y233271D01*
X054905Y233272D01*
X054967Y233269D01*
X055029Y233262D01*
X055091Y233251D01*
X055151Y233236D01*
X055211Y233218D01*
X055269Y233196D01*
X055326Y233170D01*
X055381Y233140D01*
X055434Y233107D01*
X055485Y233071D01*
X055533Y233032D01*
X055579Y232989D01*
X055622Y232944D01*
X055662Y232896D01*
X055699Y232846D01*
X055733Y232793D01*
X055764Y232739D01*
X055790Y232683D01*
X055814Y232625D01*
X055833Y232565D01*
X055849Y232505D01*
X055861Y232443D01*
X055869Y232382D01*
X055873Y232319D01*
X055873Y232257D01*
X055869Y232194D01*
X055861Y232133D01*
X055849Y232071D01*
X055833Y232011D01*
X055814Y231951D01*
X055790Y231893D01*
X055764Y231837D01*
X055733Y231783D01*
X055699Y231730D01*
X055662Y231680D01*
X055622Y231632D01*
X055579Y231587D01*
X055533Y231544D01*
X055485Y231505D01*
X055434Y231469D01*
X055381Y231436D01*
X055326Y231406D01*
X055269Y231380D01*
X055211Y231358D01*
X055151Y231340D01*
X055091Y231325D01*
X055029Y231314D01*
X054967Y231307D01*
X054905Y231304D01*
X054842Y231305D01*
X054780Y231310D01*
X054718Y231319D01*
X054657Y231332D01*
X054597Y231348D01*
X054538Y231369D01*
X054480Y231393D01*
X054424Y231421D01*
X054370Y231452D01*
X054318Y231486D01*
X054269Y231524D01*
X054221Y231565D01*
X054177Y231609D01*
X054135Y231655D01*
X054097Y231705D01*
X054061Y231756D01*
X054029Y231810D01*
X054001Y231865D01*
X053975Y231922D01*
X053954Y231981D01*
X053937Y232041D01*
X053923Y232102D01*
X053913Y232163D01*
X053907Y232226D01*
X053905Y232288D01*
X060218Y210475D02*
X060220Y210537D01*
X060226Y210600D01*
X060236Y210661D01*
X060250Y210722D01*
X060267Y210782D01*
X060288Y210841D01*
X060314Y210898D01*
X060342Y210953D01*
X060374Y211007D01*
X060410Y211058D01*
X060448Y211108D01*
X060490Y211154D01*
X060534Y211198D01*
X060582Y211239D01*
X060631Y211277D01*
X060683Y211311D01*
X060737Y211342D01*
X060793Y211370D01*
X060851Y211394D01*
X060910Y211415D01*
X060970Y211431D01*
X061031Y211444D01*
X061093Y211453D01*
X061155Y211458D01*
X061218Y211459D01*
X061280Y211456D01*
X061342Y211449D01*
X061404Y211438D01*
X061464Y211423D01*
X061524Y211405D01*
X061582Y211383D01*
X061639Y211357D01*
X061694Y211327D01*
X061747Y211294D01*
X061798Y211258D01*
X061846Y211219D01*
X061892Y211176D01*
X061935Y211131D01*
X061975Y211083D01*
X062012Y211033D01*
X062046Y210980D01*
X062077Y210926D01*
X062103Y210870D01*
X062127Y210812D01*
X062146Y210752D01*
X062162Y210692D01*
X062174Y210630D01*
X062182Y210569D01*
X062186Y210506D01*
X062186Y210444D01*
X062182Y210381D01*
X062174Y210320D01*
X062162Y210258D01*
X062146Y210198D01*
X062127Y210138D01*
X062103Y210080D01*
X062077Y210024D01*
X062046Y209970D01*
X062012Y209917D01*
X061975Y209867D01*
X061935Y209819D01*
X061892Y209774D01*
X061846Y209731D01*
X061798Y209692D01*
X061747Y209656D01*
X061694Y209623D01*
X061639Y209593D01*
X061582Y209567D01*
X061524Y209545D01*
X061464Y209527D01*
X061404Y209512D01*
X061342Y209501D01*
X061280Y209494D01*
X061218Y209491D01*
X061155Y209492D01*
X061093Y209497D01*
X061031Y209506D01*
X060970Y209519D01*
X060910Y209535D01*
X060851Y209556D01*
X060793Y209580D01*
X060737Y209608D01*
X060683Y209639D01*
X060631Y209673D01*
X060582Y209711D01*
X060534Y209752D01*
X060490Y209796D01*
X060448Y209842D01*
X060410Y209892D01*
X060374Y209943D01*
X060342Y209997D01*
X060314Y210052D01*
X060288Y210109D01*
X060267Y210168D01*
X060250Y210228D01*
X060236Y210289D01*
X060226Y210350D01*
X060220Y210413D01*
X060218Y210475D01*
X034343Y243163D02*
X034345Y243225D01*
X034351Y243288D01*
X034361Y243349D01*
X034375Y243410D01*
X034392Y243470D01*
X034413Y243529D01*
X034439Y243586D01*
X034467Y243641D01*
X034499Y243695D01*
X034535Y243746D01*
X034573Y243796D01*
X034615Y243842D01*
X034659Y243886D01*
X034707Y243927D01*
X034756Y243965D01*
X034808Y243999D01*
X034862Y244030D01*
X034918Y244058D01*
X034976Y244082D01*
X035035Y244103D01*
X035095Y244119D01*
X035156Y244132D01*
X035218Y244141D01*
X035280Y244146D01*
X035343Y244147D01*
X035405Y244144D01*
X035467Y244137D01*
X035529Y244126D01*
X035589Y244111D01*
X035649Y244093D01*
X035707Y244071D01*
X035764Y244045D01*
X035819Y244015D01*
X035872Y243982D01*
X035923Y243946D01*
X035971Y243907D01*
X036017Y243864D01*
X036060Y243819D01*
X036100Y243771D01*
X036137Y243721D01*
X036171Y243668D01*
X036202Y243614D01*
X036228Y243558D01*
X036252Y243500D01*
X036271Y243440D01*
X036287Y243380D01*
X036299Y243318D01*
X036307Y243257D01*
X036311Y243194D01*
X036311Y243132D01*
X036307Y243069D01*
X036299Y243008D01*
X036287Y242946D01*
X036271Y242886D01*
X036252Y242826D01*
X036228Y242768D01*
X036202Y242712D01*
X036171Y242658D01*
X036137Y242605D01*
X036100Y242555D01*
X036060Y242507D01*
X036017Y242462D01*
X035971Y242419D01*
X035923Y242380D01*
X035872Y242344D01*
X035819Y242311D01*
X035764Y242281D01*
X035707Y242255D01*
X035649Y242233D01*
X035589Y242215D01*
X035529Y242200D01*
X035467Y242189D01*
X035405Y242182D01*
X035343Y242179D01*
X035280Y242180D01*
X035218Y242185D01*
X035156Y242194D01*
X035095Y242207D01*
X035035Y242223D01*
X034976Y242244D01*
X034918Y242268D01*
X034862Y242296D01*
X034808Y242327D01*
X034756Y242361D01*
X034707Y242399D01*
X034659Y242440D01*
X034615Y242484D01*
X034573Y242530D01*
X034535Y242580D01*
X034499Y242631D01*
X034467Y242685D01*
X034439Y242740D01*
X034413Y242797D01*
X034392Y242856D01*
X034375Y242916D01*
X034361Y242977D01*
X034351Y243038D01*
X034345Y243101D01*
X034343Y243163D01*
D12*
X035880Y236350D02*
X035882Y236377D01*
X035888Y236404D01*
X035897Y236430D01*
X035910Y236454D01*
X035926Y236477D01*
X035945Y236496D01*
X035967Y236513D01*
X035991Y236527D01*
X036016Y236537D01*
X036043Y236544D01*
X036070Y236547D01*
X036098Y236546D01*
X036125Y236541D01*
X036151Y236533D01*
X036175Y236521D01*
X036198Y236505D01*
X036219Y236487D01*
X036236Y236466D01*
X036251Y236442D01*
X036262Y236417D01*
X036270Y236391D01*
X036274Y236364D01*
X036274Y236336D01*
X036270Y236309D01*
X036262Y236283D01*
X036251Y236258D01*
X036236Y236234D01*
X036219Y236213D01*
X036198Y236195D01*
X036176Y236179D01*
X036151Y236167D01*
X036125Y236159D01*
X036098Y236154D01*
X036070Y236153D01*
X036043Y236156D01*
X036016Y236163D01*
X035991Y236173D01*
X035967Y236187D01*
X035945Y236204D01*
X035926Y236223D01*
X035910Y236246D01*
X035897Y236270D01*
X035888Y236296D01*
X035882Y236323D01*
X035880Y236350D01*
X035880Y228850D02*
X035882Y228877D01*
X035888Y228904D01*
X035897Y228930D01*
X035910Y228954D01*
X035926Y228977D01*
X035945Y228996D01*
X035967Y229013D01*
X035991Y229027D01*
X036016Y229037D01*
X036043Y229044D01*
X036070Y229047D01*
X036098Y229046D01*
X036125Y229041D01*
X036151Y229033D01*
X036175Y229021D01*
X036198Y229005D01*
X036219Y228987D01*
X036236Y228966D01*
X036251Y228942D01*
X036262Y228917D01*
X036270Y228891D01*
X036274Y228864D01*
X036274Y228836D01*
X036270Y228809D01*
X036262Y228783D01*
X036251Y228758D01*
X036236Y228734D01*
X036219Y228713D01*
X036198Y228695D01*
X036176Y228679D01*
X036151Y228667D01*
X036125Y228659D01*
X036098Y228654D01*
X036070Y228653D01*
X036043Y228656D01*
X036016Y228663D01*
X035991Y228673D01*
X035967Y228687D01*
X035945Y228704D01*
X035926Y228723D01*
X035910Y228746D01*
X035897Y228770D01*
X035888Y228796D01*
X035882Y228823D01*
X035880Y228850D01*
X035880Y221350D02*
X035882Y221377D01*
X035888Y221404D01*
X035897Y221430D01*
X035910Y221454D01*
X035926Y221477D01*
X035945Y221496D01*
X035967Y221513D01*
X035991Y221527D01*
X036016Y221537D01*
X036043Y221544D01*
X036070Y221547D01*
X036098Y221546D01*
X036125Y221541D01*
X036151Y221533D01*
X036175Y221521D01*
X036198Y221505D01*
X036219Y221487D01*
X036236Y221466D01*
X036251Y221442D01*
X036262Y221417D01*
X036270Y221391D01*
X036274Y221364D01*
X036274Y221336D01*
X036270Y221309D01*
X036262Y221283D01*
X036251Y221258D01*
X036236Y221234D01*
X036219Y221213D01*
X036198Y221195D01*
X036176Y221179D01*
X036151Y221167D01*
X036125Y221159D01*
X036098Y221154D01*
X036070Y221153D01*
X036043Y221156D01*
X036016Y221163D01*
X035991Y221173D01*
X035967Y221187D01*
X035945Y221204D01*
X035926Y221223D01*
X035910Y221246D01*
X035897Y221270D01*
X035888Y221296D01*
X035882Y221323D01*
X035880Y221350D01*
X035880Y213850D02*
X035882Y213877D01*
X035888Y213904D01*
X035897Y213930D01*
X035910Y213954D01*
X035926Y213977D01*
X035945Y213996D01*
X035967Y214013D01*
X035991Y214027D01*
X036016Y214037D01*
X036043Y214044D01*
X036070Y214047D01*
X036098Y214046D01*
X036125Y214041D01*
X036151Y214033D01*
X036175Y214021D01*
X036198Y214005D01*
X036219Y213987D01*
X036236Y213966D01*
X036251Y213942D01*
X036262Y213917D01*
X036270Y213891D01*
X036274Y213864D01*
X036274Y213836D01*
X036270Y213809D01*
X036262Y213783D01*
X036251Y213758D01*
X036236Y213734D01*
X036219Y213713D01*
X036198Y213695D01*
X036176Y213679D01*
X036151Y213667D01*
X036125Y213659D01*
X036098Y213654D01*
X036070Y213653D01*
X036043Y213656D01*
X036016Y213663D01*
X035991Y213673D01*
X035967Y213687D01*
X035945Y213704D01*
X035926Y213723D01*
X035910Y213746D01*
X035897Y213770D01*
X035888Y213796D01*
X035882Y213823D01*
X035880Y213850D01*
X033880Y206350D02*
X033882Y206377D01*
X033888Y206404D01*
X033897Y206430D01*
X033910Y206454D01*
X033926Y206477D01*
X033945Y206496D01*
X033967Y206513D01*
X033991Y206527D01*
X034016Y206537D01*
X034043Y206544D01*
X034070Y206547D01*
X034098Y206546D01*
X034125Y206541D01*
X034151Y206533D01*
X034175Y206521D01*
X034198Y206505D01*
X034219Y206487D01*
X034236Y206466D01*
X034251Y206442D01*
X034262Y206417D01*
X034270Y206391D01*
X034274Y206364D01*
X034274Y206336D01*
X034270Y206309D01*
X034262Y206283D01*
X034251Y206258D01*
X034236Y206234D01*
X034219Y206213D01*
X034198Y206195D01*
X034176Y206179D01*
X034151Y206167D01*
X034125Y206159D01*
X034098Y206154D01*
X034070Y206153D01*
X034043Y206156D01*
X034016Y206163D01*
X033991Y206173D01*
X033967Y206187D01*
X033945Y206204D01*
X033926Y206223D01*
X033910Y206246D01*
X033897Y206270D01*
X033888Y206296D01*
X033882Y206323D01*
X033880Y206350D01*
X028380Y213850D02*
X028382Y213877D01*
X028388Y213904D01*
X028397Y213930D01*
X028410Y213954D01*
X028426Y213977D01*
X028445Y213996D01*
X028467Y214013D01*
X028491Y214027D01*
X028516Y214037D01*
X028543Y214044D01*
X028570Y214047D01*
X028598Y214046D01*
X028625Y214041D01*
X028651Y214033D01*
X028675Y214021D01*
X028698Y214005D01*
X028719Y213987D01*
X028736Y213966D01*
X028751Y213942D01*
X028762Y213917D01*
X028770Y213891D01*
X028774Y213864D01*
X028774Y213836D01*
X028770Y213809D01*
X028762Y213783D01*
X028751Y213758D01*
X028736Y213734D01*
X028719Y213713D01*
X028698Y213695D01*
X028676Y213679D01*
X028651Y213667D01*
X028625Y213659D01*
X028598Y213654D01*
X028570Y213653D01*
X028543Y213656D01*
X028516Y213663D01*
X028491Y213673D01*
X028467Y213687D01*
X028445Y213704D01*
X028426Y213723D01*
X028410Y213746D01*
X028397Y213770D01*
X028388Y213796D01*
X028382Y213823D01*
X028380Y213850D01*
X028380Y221350D02*
X028382Y221377D01*
X028388Y221404D01*
X028397Y221430D01*
X028410Y221454D01*
X028426Y221477D01*
X028445Y221496D01*
X028467Y221513D01*
X028491Y221527D01*
X028516Y221537D01*
X028543Y221544D01*
X028570Y221547D01*
X028598Y221546D01*
X028625Y221541D01*
X028651Y221533D01*
X028675Y221521D01*
X028698Y221505D01*
X028719Y221487D01*
X028736Y221466D01*
X028751Y221442D01*
X028762Y221417D01*
X028770Y221391D01*
X028774Y221364D01*
X028774Y221336D01*
X028770Y221309D01*
X028762Y221283D01*
X028751Y221258D01*
X028736Y221234D01*
X028719Y221213D01*
X028698Y221195D01*
X028676Y221179D01*
X028651Y221167D01*
X028625Y221159D01*
X028598Y221154D01*
X028570Y221153D01*
X028543Y221156D01*
X028516Y221163D01*
X028491Y221173D01*
X028467Y221187D01*
X028445Y221204D01*
X028426Y221223D01*
X028410Y221246D01*
X028397Y221270D01*
X028388Y221296D01*
X028382Y221323D01*
X028380Y221350D01*
X028380Y228850D02*
X028382Y228877D01*
X028388Y228904D01*
X028397Y228930D01*
X028410Y228954D01*
X028426Y228977D01*
X028445Y228996D01*
X028467Y229013D01*
X028491Y229027D01*
X028516Y229037D01*
X028543Y229044D01*
X028570Y229047D01*
X028598Y229046D01*
X028625Y229041D01*
X028651Y229033D01*
X028675Y229021D01*
X028698Y229005D01*
X028719Y228987D01*
X028736Y228966D01*
X028751Y228942D01*
X028762Y228917D01*
X028770Y228891D01*
X028774Y228864D01*
X028774Y228836D01*
X028770Y228809D01*
X028762Y228783D01*
X028751Y228758D01*
X028736Y228734D01*
X028719Y228713D01*
X028698Y228695D01*
X028676Y228679D01*
X028651Y228667D01*
X028625Y228659D01*
X028598Y228654D01*
X028570Y228653D01*
X028543Y228656D01*
X028516Y228663D01*
X028491Y228673D01*
X028467Y228687D01*
X028445Y228704D01*
X028426Y228723D01*
X028410Y228746D01*
X028397Y228770D01*
X028388Y228796D01*
X028382Y228823D01*
X028380Y228850D01*
X028380Y236350D02*
X028382Y236377D01*
X028388Y236404D01*
X028397Y236430D01*
X028410Y236454D01*
X028426Y236477D01*
X028445Y236496D01*
X028467Y236513D01*
X028491Y236527D01*
X028516Y236537D01*
X028543Y236544D01*
X028570Y236547D01*
X028598Y236546D01*
X028625Y236541D01*
X028651Y236533D01*
X028675Y236521D01*
X028698Y236505D01*
X028719Y236487D01*
X028736Y236466D01*
X028751Y236442D01*
X028762Y236417D01*
X028770Y236391D01*
X028774Y236364D01*
X028774Y236336D01*
X028770Y236309D01*
X028762Y236283D01*
X028751Y236258D01*
X028736Y236234D01*
X028719Y236213D01*
X028698Y236195D01*
X028676Y236179D01*
X028651Y236167D01*
X028625Y236159D01*
X028598Y236154D01*
X028570Y236153D01*
X028543Y236156D01*
X028516Y236163D01*
X028491Y236173D01*
X028467Y236187D01*
X028445Y236204D01*
X028426Y236223D01*
X028410Y236246D01*
X028397Y236270D01*
X028388Y236296D01*
X028382Y236323D01*
X028380Y236350D01*
X031380Y246850D02*
X031382Y246877D01*
X031388Y246904D01*
X031397Y246930D01*
X031410Y246954D01*
X031426Y246977D01*
X031445Y246996D01*
X031467Y247013D01*
X031491Y247027D01*
X031516Y247037D01*
X031543Y247044D01*
X031570Y247047D01*
X031598Y247046D01*
X031625Y247041D01*
X031651Y247033D01*
X031675Y247021D01*
X031698Y247005D01*
X031719Y246987D01*
X031736Y246966D01*
X031751Y246942D01*
X031762Y246917D01*
X031770Y246891D01*
X031774Y246864D01*
X031774Y246836D01*
X031770Y246809D01*
X031762Y246783D01*
X031751Y246758D01*
X031736Y246734D01*
X031719Y246713D01*
X031698Y246695D01*
X031676Y246679D01*
X031651Y246667D01*
X031625Y246659D01*
X031598Y246654D01*
X031570Y246653D01*
X031543Y246656D01*
X031516Y246663D01*
X031491Y246673D01*
X031467Y246687D01*
X031445Y246704D01*
X031426Y246723D01*
X031410Y246746D01*
X031397Y246770D01*
X031388Y246796D01*
X031382Y246823D01*
X031380Y246850D01*
X023880Y246850D02*
X023882Y246877D01*
X023888Y246904D01*
X023897Y246930D01*
X023910Y246954D01*
X023926Y246977D01*
X023945Y246996D01*
X023967Y247013D01*
X023991Y247027D01*
X024016Y247037D01*
X024043Y247044D01*
X024070Y247047D01*
X024098Y247046D01*
X024125Y247041D01*
X024151Y247033D01*
X024175Y247021D01*
X024198Y247005D01*
X024219Y246987D01*
X024236Y246966D01*
X024251Y246942D01*
X024262Y246917D01*
X024270Y246891D01*
X024274Y246864D01*
X024274Y246836D01*
X024270Y246809D01*
X024262Y246783D01*
X024251Y246758D01*
X024236Y246734D01*
X024219Y246713D01*
X024198Y246695D01*
X024176Y246679D01*
X024151Y246667D01*
X024125Y246659D01*
X024098Y246654D01*
X024070Y246653D01*
X024043Y246656D01*
X024016Y246663D01*
X023991Y246673D01*
X023967Y246687D01*
X023945Y246704D01*
X023926Y246723D01*
X023910Y246746D01*
X023897Y246770D01*
X023888Y246796D01*
X023882Y246823D01*
X023880Y246850D01*
X020880Y236350D02*
X020882Y236377D01*
X020888Y236404D01*
X020897Y236430D01*
X020910Y236454D01*
X020926Y236477D01*
X020945Y236496D01*
X020967Y236513D01*
X020991Y236527D01*
X021016Y236537D01*
X021043Y236544D01*
X021070Y236547D01*
X021098Y236546D01*
X021125Y236541D01*
X021151Y236533D01*
X021175Y236521D01*
X021198Y236505D01*
X021219Y236487D01*
X021236Y236466D01*
X021251Y236442D01*
X021262Y236417D01*
X021270Y236391D01*
X021274Y236364D01*
X021274Y236336D01*
X021270Y236309D01*
X021262Y236283D01*
X021251Y236258D01*
X021236Y236234D01*
X021219Y236213D01*
X021198Y236195D01*
X021176Y236179D01*
X021151Y236167D01*
X021125Y236159D01*
X021098Y236154D01*
X021070Y236153D01*
X021043Y236156D01*
X021016Y236163D01*
X020991Y236173D01*
X020967Y236187D01*
X020945Y236204D01*
X020926Y236223D01*
X020910Y236246D01*
X020897Y236270D01*
X020888Y236296D01*
X020882Y236323D01*
X020880Y236350D01*
X020880Y228850D02*
X020882Y228877D01*
X020888Y228904D01*
X020897Y228930D01*
X020910Y228954D01*
X020926Y228977D01*
X020945Y228996D01*
X020967Y229013D01*
X020991Y229027D01*
X021016Y229037D01*
X021043Y229044D01*
X021070Y229047D01*
X021098Y229046D01*
X021125Y229041D01*
X021151Y229033D01*
X021175Y229021D01*
X021198Y229005D01*
X021219Y228987D01*
X021236Y228966D01*
X021251Y228942D01*
X021262Y228917D01*
X021270Y228891D01*
X021274Y228864D01*
X021274Y228836D01*
X021270Y228809D01*
X021262Y228783D01*
X021251Y228758D01*
X021236Y228734D01*
X021219Y228713D01*
X021198Y228695D01*
X021176Y228679D01*
X021151Y228667D01*
X021125Y228659D01*
X021098Y228654D01*
X021070Y228653D01*
X021043Y228656D01*
X021016Y228663D01*
X020991Y228673D01*
X020967Y228687D01*
X020945Y228704D01*
X020926Y228723D01*
X020910Y228746D01*
X020897Y228770D01*
X020888Y228796D01*
X020882Y228823D01*
X020880Y228850D01*
X020880Y221350D02*
X020882Y221377D01*
X020888Y221404D01*
X020897Y221430D01*
X020910Y221454D01*
X020926Y221477D01*
X020945Y221496D01*
X020967Y221513D01*
X020991Y221527D01*
X021016Y221537D01*
X021043Y221544D01*
X021070Y221547D01*
X021098Y221546D01*
X021125Y221541D01*
X021151Y221533D01*
X021175Y221521D01*
X021198Y221505D01*
X021219Y221487D01*
X021236Y221466D01*
X021251Y221442D01*
X021262Y221417D01*
X021270Y221391D01*
X021274Y221364D01*
X021274Y221336D01*
X021270Y221309D01*
X021262Y221283D01*
X021251Y221258D01*
X021236Y221234D01*
X021219Y221213D01*
X021198Y221195D01*
X021176Y221179D01*
X021151Y221167D01*
X021125Y221159D01*
X021098Y221154D01*
X021070Y221153D01*
X021043Y221156D01*
X021016Y221163D01*
X020991Y221173D01*
X020967Y221187D01*
X020945Y221204D01*
X020926Y221223D01*
X020910Y221246D01*
X020897Y221270D01*
X020888Y221296D01*
X020882Y221323D01*
X020880Y221350D01*
X020880Y213850D02*
X020882Y213877D01*
X020888Y213904D01*
X020897Y213930D01*
X020910Y213954D01*
X020926Y213977D01*
X020945Y213996D01*
X020967Y214013D01*
X020991Y214027D01*
X021016Y214037D01*
X021043Y214044D01*
X021070Y214047D01*
X021098Y214046D01*
X021125Y214041D01*
X021151Y214033D01*
X021175Y214021D01*
X021198Y214005D01*
X021219Y213987D01*
X021236Y213966D01*
X021251Y213942D01*
X021262Y213917D01*
X021270Y213891D01*
X021274Y213864D01*
X021274Y213836D01*
X021270Y213809D01*
X021262Y213783D01*
X021251Y213758D01*
X021236Y213734D01*
X021219Y213713D01*
X021198Y213695D01*
X021176Y213679D01*
X021151Y213667D01*
X021125Y213659D01*
X021098Y213654D01*
X021070Y213653D01*
X021043Y213656D01*
X021016Y213663D01*
X020991Y213673D01*
X020967Y213687D01*
X020945Y213704D01*
X020926Y213723D01*
X020910Y213746D01*
X020897Y213770D01*
X020888Y213796D01*
X020882Y213823D01*
X020880Y213850D01*
X025380Y206350D02*
X025382Y206377D01*
X025388Y206404D01*
X025397Y206430D01*
X025410Y206454D01*
X025426Y206477D01*
X025445Y206496D01*
X025467Y206513D01*
X025491Y206527D01*
X025516Y206537D01*
X025543Y206544D01*
X025570Y206547D01*
X025598Y206546D01*
X025625Y206541D01*
X025651Y206533D01*
X025675Y206521D01*
X025698Y206505D01*
X025719Y206487D01*
X025736Y206466D01*
X025751Y206442D01*
X025762Y206417D01*
X025770Y206391D01*
X025774Y206364D01*
X025774Y206336D01*
X025770Y206309D01*
X025762Y206283D01*
X025751Y206258D01*
X025736Y206234D01*
X025719Y206213D01*
X025698Y206195D01*
X025676Y206179D01*
X025651Y206167D01*
X025625Y206159D01*
X025598Y206154D01*
X025570Y206153D01*
X025543Y206156D01*
X025516Y206163D01*
X025491Y206173D01*
X025467Y206187D01*
X025445Y206204D01*
X025426Y206223D01*
X025410Y206246D01*
X025397Y206270D01*
X025388Y206296D01*
X025382Y206323D01*
X025380Y206350D01*
X013380Y213850D02*
X013382Y213877D01*
X013388Y213904D01*
X013397Y213930D01*
X013410Y213954D01*
X013426Y213977D01*
X013445Y213996D01*
X013467Y214013D01*
X013491Y214027D01*
X013516Y214037D01*
X013543Y214044D01*
X013570Y214047D01*
X013598Y214046D01*
X013625Y214041D01*
X013651Y214033D01*
X013675Y214021D01*
X013698Y214005D01*
X013719Y213987D01*
X013736Y213966D01*
X013751Y213942D01*
X013762Y213917D01*
X013770Y213891D01*
X013774Y213864D01*
X013774Y213836D01*
X013770Y213809D01*
X013762Y213783D01*
X013751Y213758D01*
X013736Y213734D01*
X013719Y213713D01*
X013698Y213695D01*
X013676Y213679D01*
X013651Y213667D01*
X013625Y213659D01*
X013598Y213654D01*
X013570Y213653D01*
X013543Y213656D01*
X013516Y213663D01*
X013491Y213673D01*
X013467Y213687D01*
X013445Y213704D01*
X013426Y213723D01*
X013410Y213746D01*
X013397Y213770D01*
X013388Y213796D01*
X013382Y213823D01*
X013380Y213850D01*
X011665Y206350D02*
X011667Y206406D01*
X011673Y206461D01*
X011683Y206515D01*
X011696Y206569D01*
X011714Y206622D01*
X011735Y206673D01*
X011759Y206723D01*
X011787Y206771D01*
X011819Y206817D01*
X011853Y206861D01*
X011891Y206902D01*
X011931Y206940D01*
X011974Y206975D01*
X012019Y207007D01*
X012067Y207036D01*
X012116Y207062D01*
X012167Y207084D01*
X012219Y207102D01*
X012273Y207116D01*
X012328Y207127D01*
X012383Y207134D01*
X012438Y207137D01*
X012494Y207136D01*
X012549Y207131D01*
X012604Y207122D01*
X012658Y207110D01*
X012711Y207093D01*
X012763Y207073D01*
X012813Y207049D01*
X012861Y207022D01*
X012908Y206992D01*
X012952Y206958D01*
X012994Y206921D01*
X013032Y206881D01*
X013069Y206839D01*
X013102Y206794D01*
X013131Y206748D01*
X013158Y206699D01*
X013180Y206648D01*
X013200Y206596D01*
X013215Y206542D01*
X013227Y206488D01*
X013235Y206433D01*
X013239Y206378D01*
X013239Y206322D01*
X013235Y206267D01*
X013227Y206212D01*
X013215Y206158D01*
X013200Y206104D01*
X013180Y206052D01*
X013158Y206001D01*
X013131Y205952D01*
X013102Y205906D01*
X013069Y205861D01*
X013032Y205819D01*
X012994Y205779D01*
X012952Y205742D01*
X012908Y205708D01*
X012861Y205678D01*
X012813Y205651D01*
X012763Y205627D01*
X012711Y205607D01*
X012658Y205590D01*
X012604Y205578D01*
X012549Y205569D01*
X012494Y205564D01*
X012438Y205563D01*
X012383Y205566D01*
X012328Y205573D01*
X012273Y205584D01*
X012219Y205598D01*
X012167Y205616D01*
X012116Y205638D01*
X012067Y205664D01*
X012019Y205693D01*
X011974Y205725D01*
X011931Y205760D01*
X011891Y205798D01*
X011853Y205839D01*
X011819Y205883D01*
X011787Y205929D01*
X011759Y205977D01*
X011735Y206027D01*
X011714Y206078D01*
X011696Y206131D01*
X011683Y206185D01*
X011673Y206239D01*
X011667Y206294D01*
X011665Y206350D01*
X010255Y206350D02*
X010257Y206377D01*
X010263Y206404D01*
X010272Y206430D01*
X010285Y206454D01*
X010301Y206477D01*
X010320Y206496D01*
X010342Y206513D01*
X010366Y206527D01*
X010391Y206537D01*
X010418Y206544D01*
X010445Y206547D01*
X010473Y206546D01*
X010500Y206541D01*
X010526Y206533D01*
X010550Y206521D01*
X010573Y206505D01*
X010594Y206487D01*
X010611Y206466D01*
X010626Y206442D01*
X010637Y206417D01*
X010645Y206391D01*
X010649Y206364D01*
X010649Y206336D01*
X010645Y206309D01*
X010637Y206283D01*
X010626Y206258D01*
X010611Y206234D01*
X010594Y206213D01*
X010573Y206195D01*
X010551Y206179D01*
X010526Y206167D01*
X010500Y206159D01*
X010473Y206154D01*
X010445Y206153D01*
X010418Y206156D01*
X010391Y206163D01*
X010366Y206173D01*
X010342Y206187D01*
X010320Y206204D01*
X010301Y206223D01*
X010285Y206246D01*
X010272Y206270D01*
X010263Y206296D01*
X010257Y206323D01*
X010255Y206350D01*
X013380Y221350D02*
X013382Y221377D01*
X013388Y221404D01*
X013397Y221430D01*
X013410Y221454D01*
X013426Y221477D01*
X013445Y221496D01*
X013467Y221513D01*
X013491Y221527D01*
X013516Y221537D01*
X013543Y221544D01*
X013570Y221547D01*
X013598Y221546D01*
X013625Y221541D01*
X013651Y221533D01*
X013675Y221521D01*
X013698Y221505D01*
X013719Y221487D01*
X013736Y221466D01*
X013751Y221442D01*
X013762Y221417D01*
X013770Y221391D01*
X013774Y221364D01*
X013774Y221336D01*
X013770Y221309D01*
X013762Y221283D01*
X013751Y221258D01*
X013736Y221234D01*
X013719Y221213D01*
X013698Y221195D01*
X013676Y221179D01*
X013651Y221167D01*
X013625Y221159D01*
X013598Y221154D01*
X013570Y221153D01*
X013543Y221156D01*
X013516Y221163D01*
X013491Y221173D01*
X013467Y221187D01*
X013445Y221204D01*
X013426Y221223D01*
X013410Y221246D01*
X013397Y221270D01*
X013388Y221296D01*
X013382Y221323D01*
X013380Y221350D01*
X013380Y228850D02*
X013382Y228877D01*
X013388Y228904D01*
X013397Y228930D01*
X013410Y228954D01*
X013426Y228977D01*
X013445Y228996D01*
X013467Y229013D01*
X013491Y229027D01*
X013516Y229037D01*
X013543Y229044D01*
X013570Y229047D01*
X013598Y229046D01*
X013625Y229041D01*
X013651Y229033D01*
X013675Y229021D01*
X013698Y229005D01*
X013719Y228987D01*
X013736Y228966D01*
X013751Y228942D01*
X013762Y228917D01*
X013770Y228891D01*
X013774Y228864D01*
X013774Y228836D01*
X013770Y228809D01*
X013762Y228783D01*
X013751Y228758D01*
X013736Y228734D01*
X013719Y228713D01*
X013698Y228695D01*
X013676Y228679D01*
X013651Y228667D01*
X013625Y228659D01*
X013598Y228654D01*
X013570Y228653D01*
X013543Y228656D01*
X013516Y228663D01*
X013491Y228673D01*
X013467Y228687D01*
X013445Y228704D01*
X013426Y228723D01*
X013410Y228746D01*
X013397Y228770D01*
X013388Y228796D01*
X013382Y228823D01*
X013380Y228850D01*
X013380Y236350D02*
X013382Y236377D01*
X013388Y236404D01*
X013397Y236430D01*
X013410Y236454D01*
X013426Y236477D01*
X013445Y236496D01*
X013467Y236513D01*
X013491Y236527D01*
X013516Y236537D01*
X013543Y236544D01*
X013570Y236547D01*
X013598Y236546D01*
X013625Y236541D01*
X013651Y236533D01*
X013675Y236521D01*
X013698Y236505D01*
X013719Y236487D01*
X013736Y236466D01*
X013751Y236442D01*
X013762Y236417D01*
X013770Y236391D01*
X013774Y236364D01*
X013774Y236336D01*
X013770Y236309D01*
X013762Y236283D01*
X013751Y236258D01*
X013736Y236234D01*
X013719Y236213D01*
X013698Y236195D01*
X013676Y236179D01*
X013651Y236167D01*
X013625Y236159D01*
X013598Y236154D01*
X013570Y236153D01*
X013543Y236156D01*
X013516Y236163D01*
X013491Y236173D01*
X013467Y236187D01*
X013445Y236204D01*
X013426Y236223D01*
X013410Y236246D01*
X013397Y236270D01*
X013388Y236296D01*
X013382Y236323D01*
X013380Y236350D01*
X013380Y246850D02*
X013382Y246877D01*
X013388Y246904D01*
X013397Y246930D01*
X013410Y246954D01*
X013426Y246977D01*
X013445Y246996D01*
X013467Y247013D01*
X013491Y247027D01*
X013516Y247037D01*
X013543Y247044D01*
X013570Y247047D01*
X013598Y247046D01*
X013625Y247041D01*
X013651Y247033D01*
X013675Y247021D01*
X013698Y247005D01*
X013719Y246987D01*
X013736Y246966D01*
X013751Y246942D01*
X013762Y246917D01*
X013770Y246891D01*
X013774Y246864D01*
X013774Y246836D01*
X013770Y246809D01*
X013762Y246783D01*
X013751Y246758D01*
X013736Y246734D01*
X013719Y246713D01*
X013698Y246695D01*
X013676Y246679D01*
X013651Y246667D01*
X013625Y246659D01*
X013598Y246654D01*
X013570Y246653D01*
X013543Y246656D01*
X013516Y246663D01*
X013491Y246673D01*
X013467Y246687D01*
X013445Y246704D01*
X013426Y246723D01*
X013410Y246746D01*
X013397Y246770D01*
X013388Y246796D01*
X013382Y246823D01*
X013380Y246850D01*
X005880Y246850D02*
X005882Y246877D01*
X005888Y246904D01*
X005897Y246930D01*
X005910Y246954D01*
X005926Y246977D01*
X005945Y246996D01*
X005967Y247013D01*
X005991Y247027D01*
X006016Y247037D01*
X006043Y247044D01*
X006070Y247047D01*
X006098Y247046D01*
X006125Y247041D01*
X006151Y247033D01*
X006175Y247021D01*
X006198Y247005D01*
X006219Y246987D01*
X006236Y246966D01*
X006251Y246942D01*
X006262Y246917D01*
X006270Y246891D01*
X006274Y246864D01*
X006274Y246836D01*
X006270Y246809D01*
X006262Y246783D01*
X006251Y246758D01*
X006236Y246734D01*
X006219Y246713D01*
X006198Y246695D01*
X006176Y246679D01*
X006151Y246667D01*
X006125Y246659D01*
X006098Y246654D01*
X006070Y246653D01*
X006043Y246656D01*
X006016Y246663D01*
X005991Y246673D01*
X005967Y246687D01*
X005945Y246704D01*
X005926Y246723D01*
X005910Y246746D01*
X005897Y246770D01*
X005888Y246796D01*
X005882Y246823D01*
X005880Y246850D01*
X005880Y236350D02*
X005882Y236377D01*
X005888Y236404D01*
X005897Y236430D01*
X005910Y236454D01*
X005926Y236477D01*
X005945Y236496D01*
X005967Y236513D01*
X005991Y236527D01*
X006016Y236537D01*
X006043Y236544D01*
X006070Y236547D01*
X006098Y236546D01*
X006125Y236541D01*
X006151Y236533D01*
X006175Y236521D01*
X006198Y236505D01*
X006219Y236487D01*
X006236Y236466D01*
X006251Y236442D01*
X006262Y236417D01*
X006270Y236391D01*
X006274Y236364D01*
X006274Y236336D01*
X006270Y236309D01*
X006262Y236283D01*
X006251Y236258D01*
X006236Y236234D01*
X006219Y236213D01*
X006198Y236195D01*
X006176Y236179D01*
X006151Y236167D01*
X006125Y236159D01*
X006098Y236154D01*
X006070Y236153D01*
X006043Y236156D01*
X006016Y236163D01*
X005991Y236173D01*
X005967Y236187D01*
X005945Y236204D01*
X005926Y236223D01*
X005910Y236246D01*
X005897Y236270D01*
X005888Y236296D01*
X005882Y236323D01*
X005880Y236350D01*
X005880Y228850D02*
X005882Y228877D01*
X005888Y228904D01*
X005897Y228930D01*
X005910Y228954D01*
X005926Y228977D01*
X005945Y228996D01*
X005967Y229013D01*
X005991Y229027D01*
X006016Y229037D01*
X006043Y229044D01*
X006070Y229047D01*
X006098Y229046D01*
X006125Y229041D01*
X006151Y229033D01*
X006175Y229021D01*
X006198Y229005D01*
X006219Y228987D01*
X006236Y228966D01*
X006251Y228942D01*
X006262Y228917D01*
X006270Y228891D01*
X006274Y228864D01*
X006274Y228836D01*
X006270Y228809D01*
X006262Y228783D01*
X006251Y228758D01*
X006236Y228734D01*
X006219Y228713D01*
X006198Y228695D01*
X006176Y228679D01*
X006151Y228667D01*
X006125Y228659D01*
X006098Y228654D01*
X006070Y228653D01*
X006043Y228656D01*
X006016Y228663D01*
X005991Y228673D01*
X005967Y228687D01*
X005945Y228704D01*
X005926Y228723D01*
X005910Y228746D01*
X005897Y228770D01*
X005888Y228796D01*
X005882Y228823D01*
X005880Y228850D01*
X005880Y221350D02*
X005882Y221377D01*
X005888Y221404D01*
X005897Y221430D01*
X005910Y221454D01*
X005926Y221477D01*
X005945Y221496D01*
X005967Y221513D01*
X005991Y221527D01*
X006016Y221537D01*
X006043Y221544D01*
X006070Y221547D01*
X006098Y221546D01*
X006125Y221541D01*
X006151Y221533D01*
X006175Y221521D01*
X006198Y221505D01*
X006219Y221487D01*
X006236Y221466D01*
X006251Y221442D01*
X006262Y221417D01*
X006270Y221391D01*
X006274Y221364D01*
X006274Y221336D01*
X006270Y221309D01*
X006262Y221283D01*
X006251Y221258D01*
X006236Y221234D01*
X006219Y221213D01*
X006198Y221195D01*
X006176Y221179D01*
X006151Y221167D01*
X006125Y221159D01*
X006098Y221154D01*
X006070Y221153D01*
X006043Y221156D01*
X006016Y221163D01*
X005991Y221173D01*
X005967Y221187D01*
X005945Y221204D01*
X005926Y221223D01*
X005910Y221246D01*
X005897Y221270D01*
X005888Y221296D01*
X005882Y221323D01*
X005880Y221350D01*
X005880Y213850D02*
X005882Y213877D01*
X005888Y213904D01*
X005897Y213930D01*
X005910Y213954D01*
X005926Y213977D01*
X005945Y213996D01*
X005967Y214013D01*
X005991Y214027D01*
X006016Y214037D01*
X006043Y214044D01*
X006070Y214047D01*
X006098Y214046D01*
X006125Y214041D01*
X006151Y214033D01*
X006175Y214021D01*
X006198Y214005D01*
X006219Y213987D01*
X006236Y213966D01*
X006251Y213942D01*
X006262Y213917D01*
X006270Y213891D01*
X006274Y213864D01*
X006274Y213836D01*
X006270Y213809D01*
X006262Y213783D01*
X006251Y213758D01*
X006236Y213734D01*
X006219Y213713D01*
X006198Y213695D01*
X006176Y213679D01*
X006151Y213667D01*
X006125Y213659D01*
X006098Y213654D01*
X006070Y213653D01*
X006043Y213656D01*
X006016Y213663D01*
X005991Y213673D01*
X005967Y213687D01*
X005945Y213704D01*
X005926Y213723D01*
X005910Y213746D01*
X005897Y213770D01*
X005888Y213796D01*
X005882Y213823D01*
X005880Y213850D01*
X038880Y246850D02*
X038882Y246877D01*
X038888Y246904D01*
X038897Y246930D01*
X038910Y246954D01*
X038926Y246977D01*
X038945Y246996D01*
X038967Y247013D01*
X038991Y247027D01*
X039016Y247037D01*
X039043Y247044D01*
X039070Y247047D01*
X039098Y247046D01*
X039125Y247041D01*
X039151Y247033D01*
X039175Y247021D01*
X039198Y247005D01*
X039219Y246987D01*
X039236Y246966D01*
X039251Y246942D01*
X039262Y246917D01*
X039270Y246891D01*
X039274Y246864D01*
X039274Y246836D01*
X039270Y246809D01*
X039262Y246783D01*
X039251Y246758D01*
X039236Y246734D01*
X039219Y246713D01*
X039198Y246695D01*
X039176Y246679D01*
X039151Y246667D01*
X039125Y246659D01*
X039098Y246654D01*
X039070Y246653D01*
X039043Y246656D01*
X039016Y246663D01*
X038991Y246673D01*
X038967Y246687D01*
X038945Y246704D01*
X038926Y246723D01*
X038910Y246746D01*
X038897Y246770D01*
X038888Y246796D01*
X038882Y246823D01*
X038880Y246850D01*
X043380Y236350D02*
X043382Y236377D01*
X043388Y236404D01*
X043397Y236430D01*
X043410Y236454D01*
X043426Y236477D01*
X043445Y236496D01*
X043467Y236513D01*
X043491Y236527D01*
X043516Y236537D01*
X043543Y236544D01*
X043570Y236547D01*
X043598Y236546D01*
X043625Y236541D01*
X043651Y236533D01*
X043675Y236521D01*
X043698Y236505D01*
X043719Y236487D01*
X043736Y236466D01*
X043751Y236442D01*
X043762Y236417D01*
X043770Y236391D01*
X043774Y236364D01*
X043774Y236336D01*
X043770Y236309D01*
X043762Y236283D01*
X043751Y236258D01*
X043736Y236234D01*
X043719Y236213D01*
X043698Y236195D01*
X043676Y236179D01*
X043651Y236167D01*
X043625Y236159D01*
X043598Y236154D01*
X043570Y236153D01*
X043543Y236156D01*
X043516Y236163D01*
X043491Y236173D01*
X043467Y236187D01*
X043445Y236204D01*
X043426Y236223D01*
X043410Y236246D01*
X043397Y236270D01*
X043388Y236296D01*
X043382Y236323D01*
X043380Y236350D01*
X043380Y228850D02*
X043382Y228877D01*
X043388Y228904D01*
X043397Y228930D01*
X043410Y228954D01*
X043426Y228977D01*
X043445Y228996D01*
X043467Y229013D01*
X043491Y229027D01*
X043516Y229037D01*
X043543Y229044D01*
X043570Y229047D01*
X043598Y229046D01*
X043625Y229041D01*
X043651Y229033D01*
X043675Y229021D01*
X043698Y229005D01*
X043719Y228987D01*
X043736Y228966D01*
X043751Y228942D01*
X043762Y228917D01*
X043770Y228891D01*
X043774Y228864D01*
X043774Y228836D01*
X043770Y228809D01*
X043762Y228783D01*
X043751Y228758D01*
X043736Y228734D01*
X043719Y228713D01*
X043698Y228695D01*
X043676Y228679D01*
X043651Y228667D01*
X043625Y228659D01*
X043598Y228654D01*
X043570Y228653D01*
X043543Y228656D01*
X043516Y228663D01*
X043491Y228673D01*
X043467Y228687D01*
X043445Y228704D01*
X043426Y228723D01*
X043410Y228746D01*
X043397Y228770D01*
X043388Y228796D01*
X043382Y228823D01*
X043380Y228850D01*
X043380Y221350D02*
X043382Y221377D01*
X043388Y221404D01*
X043397Y221430D01*
X043410Y221454D01*
X043426Y221477D01*
X043445Y221496D01*
X043467Y221513D01*
X043491Y221527D01*
X043516Y221537D01*
X043543Y221544D01*
X043570Y221547D01*
X043598Y221546D01*
X043625Y221541D01*
X043651Y221533D01*
X043675Y221521D01*
X043698Y221505D01*
X043719Y221487D01*
X043736Y221466D01*
X043751Y221442D01*
X043762Y221417D01*
X043770Y221391D01*
X043774Y221364D01*
X043774Y221336D01*
X043770Y221309D01*
X043762Y221283D01*
X043751Y221258D01*
X043736Y221234D01*
X043719Y221213D01*
X043698Y221195D01*
X043676Y221179D01*
X043651Y221167D01*
X043625Y221159D01*
X043598Y221154D01*
X043570Y221153D01*
X043543Y221156D01*
X043516Y221163D01*
X043491Y221173D01*
X043467Y221187D01*
X043445Y221204D01*
X043426Y221223D01*
X043410Y221246D01*
X043397Y221270D01*
X043388Y221296D01*
X043382Y221323D01*
X043380Y221350D01*
X043380Y213850D02*
X043382Y213877D01*
X043388Y213904D01*
X043397Y213930D01*
X043410Y213954D01*
X043426Y213977D01*
X043445Y213996D01*
X043467Y214013D01*
X043491Y214027D01*
X043516Y214037D01*
X043543Y214044D01*
X043570Y214047D01*
X043598Y214046D01*
X043625Y214041D01*
X043651Y214033D01*
X043675Y214021D01*
X043698Y214005D01*
X043719Y213987D01*
X043736Y213966D01*
X043751Y213942D01*
X043762Y213917D01*
X043770Y213891D01*
X043774Y213864D01*
X043774Y213836D01*
X043770Y213809D01*
X043762Y213783D01*
X043751Y213758D01*
X043736Y213734D01*
X043719Y213713D01*
X043698Y213695D01*
X043676Y213679D01*
X043651Y213667D01*
X043625Y213659D01*
X043598Y213654D01*
X043570Y213653D01*
X043543Y213656D01*
X043516Y213663D01*
X043491Y213673D01*
X043467Y213687D01*
X043445Y213704D01*
X043426Y213723D01*
X043410Y213746D01*
X043397Y213770D01*
X043388Y213796D01*
X043382Y213823D01*
X043380Y213850D01*
X042380Y206350D02*
X042382Y206377D01*
X042388Y206404D01*
X042397Y206430D01*
X042410Y206454D01*
X042426Y206477D01*
X042445Y206496D01*
X042467Y206513D01*
X042491Y206527D01*
X042516Y206537D01*
X042543Y206544D01*
X042570Y206547D01*
X042598Y206546D01*
X042625Y206541D01*
X042651Y206533D01*
X042675Y206521D01*
X042698Y206505D01*
X042719Y206487D01*
X042736Y206466D01*
X042751Y206442D01*
X042762Y206417D01*
X042770Y206391D01*
X042774Y206364D01*
X042774Y206336D01*
X042770Y206309D01*
X042762Y206283D01*
X042751Y206258D01*
X042736Y206234D01*
X042719Y206213D01*
X042698Y206195D01*
X042676Y206179D01*
X042651Y206167D01*
X042625Y206159D01*
X042598Y206154D01*
X042570Y206153D01*
X042543Y206156D01*
X042516Y206163D01*
X042491Y206173D01*
X042467Y206187D01*
X042445Y206204D01*
X042426Y206223D01*
X042410Y206246D01*
X042397Y206270D01*
X042388Y206296D01*
X042382Y206323D01*
X042380Y206350D01*
X050880Y228850D02*
X050882Y228877D01*
X050888Y228904D01*
X050897Y228930D01*
X050910Y228954D01*
X050926Y228977D01*
X050945Y228996D01*
X050967Y229013D01*
X050991Y229027D01*
X051016Y229037D01*
X051043Y229044D01*
X051070Y229047D01*
X051098Y229046D01*
X051125Y229041D01*
X051151Y229033D01*
X051175Y229021D01*
X051198Y229005D01*
X051219Y228987D01*
X051236Y228966D01*
X051251Y228942D01*
X051262Y228917D01*
X051270Y228891D01*
X051274Y228864D01*
X051274Y228836D01*
X051270Y228809D01*
X051262Y228783D01*
X051251Y228758D01*
X051236Y228734D01*
X051219Y228713D01*
X051198Y228695D01*
X051176Y228679D01*
X051151Y228667D01*
X051125Y228659D01*
X051098Y228654D01*
X051070Y228653D01*
X051043Y228656D01*
X051016Y228663D01*
X050991Y228673D01*
X050967Y228687D01*
X050945Y228704D01*
X050926Y228723D01*
X050910Y228746D01*
X050897Y228770D01*
X050888Y228796D01*
X050882Y228823D01*
X050880Y228850D01*
X050880Y236350D02*
X050882Y236377D01*
X050888Y236404D01*
X050897Y236430D01*
X050910Y236454D01*
X050926Y236477D01*
X050945Y236496D01*
X050967Y236513D01*
X050991Y236527D01*
X051016Y236537D01*
X051043Y236544D01*
X051070Y236547D01*
X051098Y236546D01*
X051125Y236541D01*
X051151Y236533D01*
X051175Y236521D01*
X051198Y236505D01*
X051219Y236487D01*
X051236Y236466D01*
X051251Y236442D01*
X051262Y236417D01*
X051270Y236391D01*
X051274Y236364D01*
X051274Y236336D01*
X051270Y236309D01*
X051262Y236283D01*
X051251Y236258D01*
X051236Y236234D01*
X051219Y236213D01*
X051198Y236195D01*
X051176Y236179D01*
X051151Y236167D01*
X051125Y236159D01*
X051098Y236154D01*
X051070Y236153D01*
X051043Y236156D01*
X051016Y236163D01*
X050991Y236173D01*
X050967Y236187D01*
X050945Y236204D01*
X050926Y236223D01*
X050910Y236246D01*
X050897Y236270D01*
X050888Y236296D01*
X050882Y236323D01*
X050880Y236350D01*
X046380Y246850D02*
X046382Y246877D01*
X046388Y246904D01*
X046397Y246930D01*
X046410Y246954D01*
X046426Y246977D01*
X046445Y246996D01*
X046467Y247013D01*
X046491Y247027D01*
X046516Y247037D01*
X046543Y247044D01*
X046570Y247047D01*
X046598Y247046D01*
X046625Y247041D01*
X046651Y247033D01*
X046675Y247021D01*
X046698Y247005D01*
X046719Y246987D01*
X046736Y246966D01*
X046751Y246942D01*
X046762Y246917D01*
X046770Y246891D01*
X046774Y246864D01*
X046774Y246836D01*
X046770Y246809D01*
X046762Y246783D01*
X046751Y246758D01*
X046736Y246734D01*
X046719Y246713D01*
X046698Y246695D01*
X046676Y246679D01*
X046651Y246667D01*
X046625Y246659D01*
X046598Y246654D01*
X046570Y246653D01*
X046543Y246656D01*
X046516Y246663D01*
X046491Y246673D01*
X046467Y246687D01*
X046445Y246704D01*
X046426Y246723D01*
X046410Y246746D01*
X046397Y246770D01*
X046388Y246796D01*
X046382Y246823D01*
X046380Y246850D01*
X055630Y221350D02*
X055632Y221377D01*
X055638Y221404D01*
X055647Y221430D01*
X055660Y221454D01*
X055676Y221477D01*
X055695Y221496D01*
X055717Y221513D01*
X055741Y221527D01*
X055766Y221537D01*
X055793Y221544D01*
X055820Y221547D01*
X055848Y221546D01*
X055875Y221541D01*
X055901Y221533D01*
X055925Y221521D01*
X055948Y221505D01*
X055969Y221487D01*
X055986Y221466D01*
X056001Y221442D01*
X056012Y221417D01*
X056020Y221391D01*
X056024Y221364D01*
X056024Y221336D01*
X056020Y221309D01*
X056012Y221283D01*
X056001Y221258D01*
X055986Y221234D01*
X055969Y221213D01*
X055948Y221195D01*
X055926Y221179D01*
X055901Y221167D01*
X055875Y221159D01*
X055848Y221154D01*
X055820Y221153D01*
X055793Y221156D01*
X055766Y221163D01*
X055741Y221173D01*
X055717Y221187D01*
X055695Y221204D01*
X055676Y221223D01*
X055660Y221246D01*
X055647Y221270D01*
X055638Y221296D01*
X055632Y221323D01*
X055630Y221350D01*
X055630Y213850D02*
X055632Y213877D01*
X055638Y213904D01*
X055647Y213930D01*
X055660Y213954D01*
X055676Y213977D01*
X055695Y213996D01*
X055717Y214013D01*
X055741Y214027D01*
X055766Y214037D01*
X055793Y214044D01*
X055820Y214047D01*
X055848Y214046D01*
X055875Y214041D01*
X055901Y214033D01*
X055925Y214021D01*
X055948Y214005D01*
X055969Y213987D01*
X055986Y213966D01*
X056001Y213942D01*
X056012Y213917D01*
X056020Y213891D01*
X056024Y213864D01*
X056024Y213836D01*
X056020Y213809D01*
X056012Y213783D01*
X056001Y213758D01*
X055986Y213734D01*
X055969Y213713D01*
X055948Y213695D01*
X055926Y213679D01*
X055901Y213667D01*
X055875Y213659D01*
X055848Y213654D01*
X055820Y213653D01*
X055793Y213656D01*
X055766Y213663D01*
X055741Y213673D01*
X055717Y213687D01*
X055695Y213704D01*
X055676Y213723D01*
X055660Y213746D01*
X055647Y213770D01*
X055638Y213796D01*
X055632Y213823D01*
X055630Y213850D01*
X052380Y206100D02*
X052382Y206127D01*
X052388Y206154D01*
X052397Y206180D01*
X052410Y206204D01*
X052426Y206227D01*
X052445Y206246D01*
X052467Y206263D01*
X052491Y206277D01*
X052516Y206287D01*
X052543Y206294D01*
X052570Y206297D01*
X052598Y206296D01*
X052625Y206291D01*
X052651Y206283D01*
X052675Y206271D01*
X052698Y206255D01*
X052719Y206237D01*
X052736Y206216D01*
X052751Y206192D01*
X052762Y206167D01*
X052770Y206141D01*
X052774Y206114D01*
X052774Y206086D01*
X052770Y206059D01*
X052762Y206033D01*
X052751Y206008D01*
X052736Y205984D01*
X052719Y205963D01*
X052698Y205945D01*
X052676Y205929D01*
X052651Y205917D01*
X052625Y205909D01*
X052598Y205904D01*
X052570Y205903D01*
X052543Y205906D01*
X052516Y205913D01*
X052491Y205923D01*
X052467Y205937D01*
X052445Y205954D01*
X052426Y205973D01*
X052410Y205996D01*
X052397Y206020D01*
X052388Y206046D01*
X052382Y206073D01*
X052380Y206100D01*
X058380Y228850D02*
X058382Y228877D01*
X058388Y228904D01*
X058397Y228930D01*
X058410Y228954D01*
X058426Y228977D01*
X058445Y228996D01*
X058467Y229013D01*
X058491Y229027D01*
X058516Y229037D01*
X058543Y229044D01*
X058570Y229047D01*
X058598Y229046D01*
X058625Y229041D01*
X058651Y229033D01*
X058675Y229021D01*
X058698Y229005D01*
X058719Y228987D01*
X058736Y228966D01*
X058751Y228942D01*
X058762Y228917D01*
X058770Y228891D01*
X058774Y228864D01*
X058774Y228836D01*
X058770Y228809D01*
X058762Y228783D01*
X058751Y228758D01*
X058736Y228734D01*
X058719Y228713D01*
X058698Y228695D01*
X058676Y228679D01*
X058651Y228667D01*
X058625Y228659D01*
X058598Y228654D01*
X058570Y228653D01*
X058543Y228656D01*
X058516Y228663D01*
X058491Y228673D01*
X058467Y228687D01*
X058445Y228704D01*
X058426Y228723D01*
X058410Y228746D01*
X058397Y228770D01*
X058388Y228796D01*
X058382Y228823D01*
X058380Y228850D01*
X059380Y236350D02*
X059382Y236377D01*
X059388Y236404D01*
X059397Y236430D01*
X059410Y236454D01*
X059426Y236477D01*
X059445Y236496D01*
X059467Y236513D01*
X059491Y236527D01*
X059516Y236537D01*
X059543Y236544D01*
X059570Y236547D01*
X059598Y236546D01*
X059625Y236541D01*
X059651Y236533D01*
X059675Y236521D01*
X059698Y236505D01*
X059719Y236487D01*
X059736Y236466D01*
X059751Y236442D01*
X059762Y236417D01*
X059770Y236391D01*
X059774Y236364D01*
X059774Y236336D01*
X059770Y236309D01*
X059762Y236283D01*
X059751Y236258D01*
X059736Y236234D01*
X059719Y236213D01*
X059698Y236195D01*
X059676Y236179D01*
X059651Y236167D01*
X059625Y236159D01*
X059598Y236154D01*
X059570Y236153D01*
X059543Y236156D01*
X059516Y236163D01*
X059491Y236173D01*
X059467Y236187D01*
X059445Y236204D01*
X059426Y236223D01*
X059410Y236246D01*
X059397Y236270D01*
X059388Y236296D01*
X059382Y236323D01*
X059380Y236350D01*
X060380Y246850D02*
X060382Y246877D01*
X060388Y246904D01*
X060397Y246930D01*
X060410Y246954D01*
X060426Y246977D01*
X060445Y246996D01*
X060467Y247013D01*
X060491Y247027D01*
X060516Y247037D01*
X060543Y247044D01*
X060570Y247047D01*
X060598Y247046D01*
X060625Y247041D01*
X060651Y247033D01*
X060675Y247021D01*
X060698Y247005D01*
X060719Y246987D01*
X060736Y246966D01*
X060751Y246942D01*
X060762Y246917D01*
X060770Y246891D01*
X060774Y246864D01*
X060774Y246836D01*
X060770Y246809D01*
X060762Y246783D01*
X060751Y246758D01*
X060736Y246734D01*
X060719Y246713D01*
X060698Y246695D01*
X060676Y246679D01*
X060651Y246667D01*
X060625Y246659D01*
X060598Y246654D01*
X060570Y246653D01*
X060543Y246656D01*
X060516Y246663D01*
X060491Y246673D01*
X060467Y246687D01*
X060445Y246704D01*
X060426Y246723D01*
X060410Y246746D01*
X060397Y246770D01*
X060388Y246796D01*
X060382Y246823D01*
X060380Y246850D01*
X060380Y206350D02*
X060382Y206377D01*
X060388Y206404D01*
X060397Y206430D01*
X060410Y206454D01*
X060426Y206477D01*
X060445Y206496D01*
X060467Y206513D01*
X060491Y206527D01*
X060516Y206537D01*
X060543Y206544D01*
X060570Y206547D01*
X060598Y206546D01*
X060625Y206541D01*
X060651Y206533D01*
X060675Y206521D01*
X060698Y206505D01*
X060719Y206487D01*
X060736Y206466D01*
X060751Y206442D01*
X060762Y206417D01*
X060770Y206391D01*
X060774Y206364D01*
X060774Y206336D01*
X060770Y206309D01*
X060762Y206283D01*
X060751Y206258D01*
X060736Y206234D01*
X060719Y206213D01*
X060698Y206195D01*
X060676Y206179D01*
X060651Y206167D01*
X060625Y206159D01*
X060598Y206154D01*
X060570Y206153D01*
X060543Y206156D01*
X060516Y206163D01*
X060491Y206173D01*
X060467Y206187D01*
X060445Y206204D01*
X060426Y206223D01*
X060410Y206246D01*
X060397Y206270D01*
X060388Y206296D01*
X060382Y206323D01*
X060380Y206350D01*
M02*
