G75*
G70*
%OFA0B0*%
%FSLAX24Y24*%
%IPPOS*%
%LPD*%
%AMOC8*
5,1,8,0,0,1.08239X$1,22.5*
%
%ADD10C,0.0079*%
%ADD11C,0.0100*%
%ADD12C,0.0000*%
D10*
X009376Y066001D02*
X073626Y066001D01*
X073694Y066003D01*
X073761Y066008D01*
X073828Y066017D01*
X073895Y066030D01*
X073960Y066047D01*
X074025Y066066D01*
X074089Y066090D01*
X074151Y066117D01*
X074212Y066147D01*
X074270Y066180D01*
X074327Y066216D01*
X074382Y066256D01*
X074435Y066298D01*
X074486Y066344D01*
X074533Y066391D01*
X074579Y066442D01*
X074621Y066495D01*
X074661Y066550D01*
X074697Y066607D01*
X074730Y066665D01*
X074760Y066726D01*
X074787Y066788D01*
X074811Y066852D01*
X074830Y066917D01*
X074847Y066982D01*
X074860Y067049D01*
X074869Y067116D01*
X074874Y067183D01*
X074876Y067251D01*
X074876Y117751D01*
X074874Y117819D01*
X074869Y117886D01*
X074860Y117953D01*
X074847Y118020D01*
X074830Y118085D01*
X074811Y118150D01*
X074787Y118214D01*
X074760Y118276D01*
X074730Y118337D01*
X074697Y118395D01*
X074661Y118452D01*
X074621Y118507D01*
X074579Y118560D01*
X074533Y118611D01*
X074486Y118658D01*
X074435Y118704D01*
X074382Y118746D01*
X074327Y118786D01*
X074270Y118822D01*
X074212Y118855D01*
X074151Y118885D01*
X074089Y118912D01*
X074025Y118936D01*
X073960Y118955D01*
X073895Y118972D01*
X073828Y118985D01*
X073761Y118994D01*
X073694Y118999D01*
X073626Y119001D01*
X009376Y119001D01*
X009308Y118999D01*
X009241Y118994D01*
X009174Y118985D01*
X009107Y118972D01*
X009042Y118955D01*
X008977Y118936D01*
X008913Y118912D01*
X008851Y118885D01*
X008790Y118855D01*
X008732Y118822D01*
X008675Y118786D01*
X008620Y118746D01*
X008567Y118704D01*
X008516Y118658D01*
X008469Y118611D01*
X008423Y118560D01*
X008381Y118507D01*
X008341Y118452D01*
X008305Y118395D01*
X008272Y118337D01*
X008242Y118276D01*
X008215Y118214D01*
X008191Y118150D01*
X008172Y118085D01*
X008155Y118020D01*
X008142Y117953D01*
X008133Y117886D01*
X008128Y117819D01*
X008126Y117751D01*
X008126Y067251D01*
X008128Y067183D01*
X008133Y067116D01*
X008142Y067049D01*
X008155Y066982D01*
X008172Y066917D01*
X008191Y066852D01*
X008215Y066788D01*
X008242Y066726D01*
X008272Y066665D01*
X008305Y066607D01*
X008341Y066550D01*
X008381Y066495D01*
X008423Y066442D01*
X008469Y066391D01*
X008516Y066344D01*
X008567Y066298D01*
X008620Y066256D01*
X008675Y066216D01*
X008732Y066180D01*
X008790Y066147D01*
X008851Y066117D01*
X008913Y066090D01*
X008977Y066066D01*
X009042Y066047D01*
X009107Y066030D01*
X009174Y066017D01*
X009241Y066008D01*
X009308Y066003D01*
X009376Y066001D01*
D11*
X014642Y075751D02*
X014644Y075813D01*
X014650Y075876D01*
X014660Y075937D01*
X014674Y075998D01*
X014691Y076058D01*
X014712Y076117D01*
X014738Y076174D01*
X014766Y076229D01*
X014798Y076283D01*
X014834Y076334D01*
X014872Y076384D01*
X014914Y076430D01*
X014958Y076474D01*
X015006Y076515D01*
X015055Y076553D01*
X015107Y076587D01*
X015161Y076618D01*
X015217Y076646D01*
X015275Y076670D01*
X015334Y076691D01*
X015394Y076707D01*
X015455Y076720D01*
X015517Y076729D01*
X015579Y076734D01*
X015642Y076735D01*
X015704Y076732D01*
X015766Y076725D01*
X015828Y076714D01*
X015888Y076699D01*
X015948Y076681D01*
X016006Y076659D01*
X016063Y076633D01*
X016118Y076603D01*
X016171Y076570D01*
X016222Y076534D01*
X016270Y076495D01*
X016316Y076452D01*
X016359Y076407D01*
X016399Y076359D01*
X016436Y076309D01*
X016470Y076256D01*
X016501Y076202D01*
X016527Y076146D01*
X016551Y076088D01*
X016570Y076028D01*
X016586Y075968D01*
X016598Y075906D01*
X016606Y075845D01*
X016610Y075782D01*
X016610Y075720D01*
X016606Y075657D01*
X016598Y075596D01*
X016586Y075534D01*
X016570Y075474D01*
X016551Y075414D01*
X016527Y075356D01*
X016501Y075300D01*
X016470Y075246D01*
X016436Y075193D01*
X016399Y075143D01*
X016359Y075095D01*
X016316Y075050D01*
X016270Y075007D01*
X016222Y074968D01*
X016171Y074932D01*
X016118Y074899D01*
X016063Y074869D01*
X016006Y074843D01*
X015948Y074821D01*
X015888Y074803D01*
X015828Y074788D01*
X015766Y074777D01*
X015704Y074770D01*
X015642Y074767D01*
X015579Y074768D01*
X015517Y074773D01*
X015455Y074782D01*
X015394Y074795D01*
X015334Y074811D01*
X015275Y074832D01*
X015217Y074856D01*
X015161Y074884D01*
X015107Y074915D01*
X015055Y074949D01*
X015006Y074987D01*
X014958Y075028D01*
X014914Y075072D01*
X014872Y075118D01*
X014834Y075168D01*
X014798Y075219D01*
X014766Y075273D01*
X014738Y075328D01*
X014712Y075385D01*
X014691Y075444D01*
X014674Y075504D01*
X014660Y075565D01*
X014650Y075626D01*
X014644Y075689D01*
X014642Y075751D01*
X014642Y083501D02*
X014644Y083563D01*
X014650Y083626D01*
X014660Y083687D01*
X014674Y083748D01*
X014691Y083808D01*
X014712Y083867D01*
X014738Y083924D01*
X014766Y083979D01*
X014798Y084033D01*
X014834Y084084D01*
X014872Y084134D01*
X014914Y084180D01*
X014958Y084224D01*
X015006Y084265D01*
X015055Y084303D01*
X015107Y084337D01*
X015161Y084368D01*
X015217Y084396D01*
X015275Y084420D01*
X015334Y084441D01*
X015394Y084457D01*
X015455Y084470D01*
X015517Y084479D01*
X015579Y084484D01*
X015642Y084485D01*
X015704Y084482D01*
X015766Y084475D01*
X015828Y084464D01*
X015888Y084449D01*
X015948Y084431D01*
X016006Y084409D01*
X016063Y084383D01*
X016118Y084353D01*
X016171Y084320D01*
X016222Y084284D01*
X016270Y084245D01*
X016316Y084202D01*
X016359Y084157D01*
X016399Y084109D01*
X016436Y084059D01*
X016470Y084006D01*
X016501Y083952D01*
X016527Y083896D01*
X016551Y083838D01*
X016570Y083778D01*
X016586Y083718D01*
X016598Y083656D01*
X016606Y083595D01*
X016610Y083532D01*
X016610Y083470D01*
X016606Y083407D01*
X016598Y083346D01*
X016586Y083284D01*
X016570Y083224D01*
X016551Y083164D01*
X016527Y083106D01*
X016501Y083050D01*
X016470Y082996D01*
X016436Y082943D01*
X016399Y082893D01*
X016359Y082845D01*
X016316Y082800D01*
X016270Y082757D01*
X016222Y082718D01*
X016171Y082682D01*
X016118Y082649D01*
X016063Y082619D01*
X016006Y082593D01*
X015948Y082571D01*
X015888Y082553D01*
X015828Y082538D01*
X015766Y082527D01*
X015704Y082520D01*
X015642Y082517D01*
X015579Y082518D01*
X015517Y082523D01*
X015455Y082532D01*
X015394Y082545D01*
X015334Y082561D01*
X015275Y082582D01*
X015217Y082606D01*
X015161Y082634D01*
X015107Y082665D01*
X015055Y082699D01*
X015006Y082737D01*
X014958Y082778D01*
X014914Y082822D01*
X014872Y082868D01*
X014834Y082918D01*
X014798Y082969D01*
X014766Y083023D01*
X014738Y083078D01*
X014712Y083135D01*
X014691Y083194D01*
X014674Y083254D01*
X014660Y083315D01*
X014650Y083376D01*
X014644Y083439D01*
X014642Y083501D01*
X014642Y091001D02*
X014644Y091063D01*
X014650Y091126D01*
X014660Y091187D01*
X014674Y091248D01*
X014691Y091308D01*
X014712Y091367D01*
X014738Y091424D01*
X014766Y091479D01*
X014798Y091533D01*
X014834Y091584D01*
X014872Y091634D01*
X014914Y091680D01*
X014958Y091724D01*
X015006Y091765D01*
X015055Y091803D01*
X015107Y091837D01*
X015161Y091868D01*
X015217Y091896D01*
X015275Y091920D01*
X015334Y091941D01*
X015394Y091957D01*
X015455Y091970D01*
X015517Y091979D01*
X015579Y091984D01*
X015642Y091985D01*
X015704Y091982D01*
X015766Y091975D01*
X015828Y091964D01*
X015888Y091949D01*
X015948Y091931D01*
X016006Y091909D01*
X016063Y091883D01*
X016118Y091853D01*
X016171Y091820D01*
X016222Y091784D01*
X016270Y091745D01*
X016316Y091702D01*
X016359Y091657D01*
X016399Y091609D01*
X016436Y091559D01*
X016470Y091506D01*
X016501Y091452D01*
X016527Y091396D01*
X016551Y091338D01*
X016570Y091278D01*
X016586Y091218D01*
X016598Y091156D01*
X016606Y091095D01*
X016610Y091032D01*
X016610Y090970D01*
X016606Y090907D01*
X016598Y090846D01*
X016586Y090784D01*
X016570Y090724D01*
X016551Y090664D01*
X016527Y090606D01*
X016501Y090550D01*
X016470Y090496D01*
X016436Y090443D01*
X016399Y090393D01*
X016359Y090345D01*
X016316Y090300D01*
X016270Y090257D01*
X016222Y090218D01*
X016171Y090182D01*
X016118Y090149D01*
X016063Y090119D01*
X016006Y090093D01*
X015948Y090071D01*
X015888Y090053D01*
X015828Y090038D01*
X015766Y090027D01*
X015704Y090020D01*
X015642Y090017D01*
X015579Y090018D01*
X015517Y090023D01*
X015455Y090032D01*
X015394Y090045D01*
X015334Y090061D01*
X015275Y090082D01*
X015217Y090106D01*
X015161Y090134D01*
X015107Y090165D01*
X015055Y090199D01*
X015006Y090237D01*
X014958Y090278D01*
X014914Y090322D01*
X014872Y090368D01*
X014834Y090418D01*
X014798Y090469D01*
X014766Y090523D01*
X014738Y090578D01*
X014712Y090635D01*
X014691Y090694D01*
X014674Y090754D01*
X014660Y090815D01*
X014650Y090876D01*
X014644Y090939D01*
X014642Y091001D01*
X014642Y098501D02*
X014644Y098563D01*
X014650Y098626D01*
X014660Y098687D01*
X014674Y098748D01*
X014691Y098808D01*
X014712Y098867D01*
X014738Y098924D01*
X014766Y098979D01*
X014798Y099033D01*
X014834Y099084D01*
X014872Y099134D01*
X014914Y099180D01*
X014958Y099224D01*
X015006Y099265D01*
X015055Y099303D01*
X015107Y099337D01*
X015161Y099368D01*
X015217Y099396D01*
X015275Y099420D01*
X015334Y099441D01*
X015394Y099457D01*
X015455Y099470D01*
X015517Y099479D01*
X015579Y099484D01*
X015642Y099485D01*
X015704Y099482D01*
X015766Y099475D01*
X015828Y099464D01*
X015888Y099449D01*
X015948Y099431D01*
X016006Y099409D01*
X016063Y099383D01*
X016118Y099353D01*
X016171Y099320D01*
X016222Y099284D01*
X016270Y099245D01*
X016316Y099202D01*
X016359Y099157D01*
X016399Y099109D01*
X016436Y099059D01*
X016470Y099006D01*
X016501Y098952D01*
X016527Y098896D01*
X016551Y098838D01*
X016570Y098778D01*
X016586Y098718D01*
X016598Y098656D01*
X016606Y098595D01*
X016610Y098532D01*
X016610Y098470D01*
X016606Y098407D01*
X016598Y098346D01*
X016586Y098284D01*
X016570Y098224D01*
X016551Y098164D01*
X016527Y098106D01*
X016501Y098050D01*
X016470Y097996D01*
X016436Y097943D01*
X016399Y097893D01*
X016359Y097845D01*
X016316Y097800D01*
X016270Y097757D01*
X016222Y097718D01*
X016171Y097682D01*
X016118Y097649D01*
X016063Y097619D01*
X016006Y097593D01*
X015948Y097571D01*
X015888Y097553D01*
X015828Y097538D01*
X015766Y097527D01*
X015704Y097520D01*
X015642Y097517D01*
X015579Y097518D01*
X015517Y097523D01*
X015455Y097532D01*
X015394Y097545D01*
X015334Y097561D01*
X015275Y097582D01*
X015217Y097606D01*
X015161Y097634D01*
X015107Y097665D01*
X015055Y097699D01*
X015006Y097737D01*
X014958Y097778D01*
X014914Y097822D01*
X014872Y097868D01*
X014834Y097918D01*
X014798Y097969D01*
X014766Y098023D01*
X014738Y098078D01*
X014712Y098135D01*
X014691Y098194D01*
X014674Y098254D01*
X014660Y098315D01*
X014650Y098376D01*
X014644Y098439D01*
X014642Y098501D01*
X014642Y110626D02*
X014644Y110688D01*
X014650Y110751D01*
X014660Y110812D01*
X014674Y110873D01*
X014691Y110933D01*
X014712Y110992D01*
X014738Y111049D01*
X014766Y111104D01*
X014798Y111158D01*
X014834Y111209D01*
X014872Y111259D01*
X014914Y111305D01*
X014958Y111349D01*
X015006Y111390D01*
X015055Y111428D01*
X015107Y111462D01*
X015161Y111493D01*
X015217Y111521D01*
X015275Y111545D01*
X015334Y111566D01*
X015394Y111582D01*
X015455Y111595D01*
X015517Y111604D01*
X015579Y111609D01*
X015642Y111610D01*
X015704Y111607D01*
X015766Y111600D01*
X015828Y111589D01*
X015888Y111574D01*
X015948Y111556D01*
X016006Y111534D01*
X016063Y111508D01*
X016118Y111478D01*
X016171Y111445D01*
X016222Y111409D01*
X016270Y111370D01*
X016316Y111327D01*
X016359Y111282D01*
X016399Y111234D01*
X016436Y111184D01*
X016470Y111131D01*
X016501Y111077D01*
X016527Y111021D01*
X016551Y110963D01*
X016570Y110903D01*
X016586Y110843D01*
X016598Y110781D01*
X016606Y110720D01*
X016610Y110657D01*
X016610Y110595D01*
X016606Y110532D01*
X016598Y110471D01*
X016586Y110409D01*
X016570Y110349D01*
X016551Y110289D01*
X016527Y110231D01*
X016501Y110175D01*
X016470Y110121D01*
X016436Y110068D01*
X016399Y110018D01*
X016359Y109970D01*
X016316Y109925D01*
X016270Y109882D01*
X016222Y109843D01*
X016171Y109807D01*
X016118Y109774D01*
X016063Y109744D01*
X016006Y109718D01*
X015948Y109696D01*
X015888Y109678D01*
X015828Y109663D01*
X015766Y109652D01*
X015704Y109645D01*
X015642Y109642D01*
X015579Y109643D01*
X015517Y109648D01*
X015455Y109657D01*
X015394Y109670D01*
X015334Y109686D01*
X015275Y109707D01*
X015217Y109731D01*
X015161Y109759D01*
X015107Y109790D01*
X015055Y109824D01*
X015006Y109862D01*
X014958Y109903D01*
X014914Y109947D01*
X014872Y109993D01*
X014834Y110043D01*
X014798Y110094D01*
X014766Y110148D01*
X014738Y110203D01*
X014712Y110260D01*
X014691Y110319D01*
X014674Y110379D01*
X014660Y110440D01*
X014650Y110501D01*
X014644Y110564D01*
X014642Y110626D01*
X022142Y098501D02*
X022144Y098563D01*
X022150Y098626D01*
X022160Y098687D01*
X022174Y098748D01*
X022191Y098808D01*
X022212Y098867D01*
X022238Y098924D01*
X022266Y098979D01*
X022298Y099033D01*
X022334Y099084D01*
X022372Y099134D01*
X022414Y099180D01*
X022458Y099224D01*
X022506Y099265D01*
X022555Y099303D01*
X022607Y099337D01*
X022661Y099368D01*
X022717Y099396D01*
X022775Y099420D01*
X022834Y099441D01*
X022894Y099457D01*
X022955Y099470D01*
X023017Y099479D01*
X023079Y099484D01*
X023142Y099485D01*
X023204Y099482D01*
X023266Y099475D01*
X023328Y099464D01*
X023388Y099449D01*
X023448Y099431D01*
X023506Y099409D01*
X023563Y099383D01*
X023618Y099353D01*
X023671Y099320D01*
X023722Y099284D01*
X023770Y099245D01*
X023816Y099202D01*
X023859Y099157D01*
X023899Y099109D01*
X023936Y099059D01*
X023970Y099006D01*
X024001Y098952D01*
X024027Y098896D01*
X024051Y098838D01*
X024070Y098778D01*
X024086Y098718D01*
X024098Y098656D01*
X024106Y098595D01*
X024110Y098532D01*
X024110Y098470D01*
X024106Y098407D01*
X024098Y098346D01*
X024086Y098284D01*
X024070Y098224D01*
X024051Y098164D01*
X024027Y098106D01*
X024001Y098050D01*
X023970Y097996D01*
X023936Y097943D01*
X023899Y097893D01*
X023859Y097845D01*
X023816Y097800D01*
X023770Y097757D01*
X023722Y097718D01*
X023671Y097682D01*
X023618Y097649D01*
X023563Y097619D01*
X023506Y097593D01*
X023448Y097571D01*
X023388Y097553D01*
X023328Y097538D01*
X023266Y097527D01*
X023204Y097520D01*
X023142Y097517D01*
X023079Y097518D01*
X023017Y097523D01*
X022955Y097532D01*
X022894Y097545D01*
X022834Y097561D01*
X022775Y097582D01*
X022717Y097606D01*
X022661Y097634D01*
X022607Y097665D01*
X022555Y097699D01*
X022506Y097737D01*
X022458Y097778D01*
X022414Y097822D01*
X022372Y097868D01*
X022334Y097918D01*
X022298Y097969D01*
X022266Y098023D01*
X022238Y098078D01*
X022212Y098135D01*
X022191Y098194D01*
X022174Y098254D01*
X022160Y098315D01*
X022150Y098376D01*
X022144Y098439D01*
X022142Y098501D01*
X022142Y091001D02*
X022144Y091063D01*
X022150Y091126D01*
X022160Y091187D01*
X022174Y091248D01*
X022191Y091308D01*
X022212Y091367D01*
X022238Y091424D01*
X022266Y091479D01*
X022298Y091533D01*
X022334Y091584D01*
X022372Y091634D01*
X022414Y091680D01*
X022458Y091724D01*
X022506Y091765D01*
X022555Y091803D01*
X022607Y091837D01*
X022661Y091868D01*
X022717Y091896D01*
X022775Y091920D01*
X022834Y091941D01*
X022894Y091957D01*
X022955Y091970D01*
X023017Y091979D01*
X023079Y091984D01*
X023142Y091985D01*
X023204Y091982D01*
X023266Y091975D01*
X023328Y091964D01*
X023388Y091949D01*
X023448Y091931D01*
X023506Y091909D01*
X023563Y091883D01*
X023618Y091853D01*
X023671Y091820D01*
X023722Y091784D01*
X023770Y091745D01*
X023816Y091702D01*
X023859Y091657D01*
X023899Y091609D01*
X023936Y091559D01*
X023970Y091506D01*
X024001Y091452D01*
X024027Y091396D01*
X024051Y091338D01*
X024070Y091278D01*
X024086Y091218D01*
X024098Y091156D01*
X024106Y091095D01*
X024110Y091032D01*
X024110Y090970D01*
X024106Y090907D01*
X024098Y090846D01*
X024086Y090784D01*
X024070Y090724D01*
X024051Y090664D01*
X024027Y090606D01*
X024001Y090550D01*
X023970Y090496D01*
X023936Y090443D01*
X023899Y090393D01*
X023859Y090345D01*
X023816Y090300D01*
X023770Y090257D01*
X023722Y090218D01*
X023671Y090182D01*
X023618Y090149D01*
X023563Y090119D01*
X023506Y090093D01*
X023448Y090071D01*
X023388Y090053D01*
X023328Y090038D01*
X023266Y090027D01*
X023204Y090020D01*
X023142Y090017D01*
X023079Y090018D01*
X023017Y090023D01*
X022955Y090032D01*
X022894Y090045D01*
X022834Y090061D01*
X022775Y090082D01*
X022717Y090106D01*
X022661Y090134D01*
X022607Y090165D01*
X022555Y090199D01*
X022506Y090237D01*
X022458Y090278D01*
X022414Y090322D01*
X022372Y090368D01*
X022334Y090418D01*
X022298Y090469D01*
X022266Y090523D01*
X022238Y090578D01*
X022212Y090635D01*
X022191Y090694D01*
X022174Y090754D01*
X022160Y090815D01*
X022150Y090876D01*
X022144Y090939D01*
X022142Y091001D01*
X022142Y083501D02*
X022144Y083563D01*
X022150Y083626D01*
X022160Y083687D01*
X022174Y083748D01*
X022191Y083808D01*
X022212Y083867D01*
X022238Y083924D01*
X022266Y083979D01*
X022298Y084033D01*
X022334Y084084D01*
X022372Y084134D01*
X022414Y084180D01*
X022458Y084224D01*
X022506Y084265D01*
X022555Y084303D01*
X022607Y084337D01*
X022661Y084368D01*
X022717Y084396D01*
X022775Y084420D01*
X022834Y084441D01*
X022894Y084457D01*
X022955Y084470D01*
X023017Y084479D01*
X023079Y084484D01*
X023142Y084485D01*
X023204Y084482D01*
X023266Y084475D01*
X023328Y084464D01*
X023388Y084449D01*
X023448Y084431D01*
X023506Y084409D01*
X023563Y084383D01*
X023618Y084353D01*
X023671Y084320D01*
X023722Y084284D01*
X023770Y084245D01*
X023816Y084202D01*
X023859Y084157D01*
X023899Y084109D01*
X023936Y084059D01*
X023970Y084006D01*
X024001Y083952D01*
X024027Y083896D01*
X024051Y083838D01*
X024070Y083778D01*
X024086Y083718D01*
X024098Y083656D01*
X024106Y083595D01*
X024110Y083532D01*
X024110Y083470D01*
X024106Y083407D01*
X024098Y083346D01*
X024086Y083284D01*
X024070Y083224D01*
X024051Y083164D01*
X024027Y083106D01*
X024001Y083050D01*
X023970Y082996D01*
X023936Y082943D01*
X023899Y082893D01*
X023859Y082845D01*
X023816Y082800D01*
X023770Y082757D01*
X023722Y082718D01*
X023671Y082682D01*
X023618Y082649D01*
X023563Y082619D01*
X023506Y082593D01*
X023448Y082571D01*
X023388Y082553D01*
X023328Y082538D01*
X023266Y082527D01*
X023204Y082520D01*
X023142Y082517D01*
X023079Y082518D01*
X023017Y082523D01*
X022955Y082532D01*
X022894Y082545D01*
X022834Y082561D01*
X022775Y082582D01*
X022717Y082606D01*
X022661Y082634D01*
X022607Y082665D01*
X022555Y082699D01*
X022506Y082737D01*
X022458Y082778D01*
X022414Y082822D01*
X022372Y082868D01*
X022334Y082918D01*
X022298Y082969D01*
X022266Y083023D01*
X022238Y083078D01*
X022212Y083135D01*
X022191Y083194D01*
X022174Y083254D01*
X022160Y083315D01*
X022150Y083376D01*
X022144Y083439D01*
X022142Y083501D01*
X022142Y076001D02*
X022144Y076063D01*
X022150Y076126D01*
X022160Y076187D01*
X022174Y076248D01*
X022191Y076308D01*
X022212Y076367D01*
X022238Y076424D01*
X022266Y076479D01*
X022298Y076533D01*
X022334Y076584D01*
X022372Y076634D01*
X022414Y076680D01*
X022458Y076724D01*
X022506Y076765D01*
X022555Y076803D01*
X022607Y076837D01*
X022661Y076868D01*
X022717Y076896D01*
X022775Y076920D01*
X022834Y076941D01*
X022894Y076957D01*
X022955Y076970D01*
X023017Y076979D01*
X023079Y076984D01*
X023142Y076985D01*
X023204Y076982D01*
X023266Y076975D01*
X023328Y076964D01*
X023388Y076949D01*
X023448Y076931D01*
X023506Y076909D01*
X023563Y076883D01*
X023618Y076853D01*
X023671Y076820D01*
X023722Y076784D01*
X023770Y076745D01*
X023816Y076702D01*
X023859Y076657D01*
X023899Y076609D01*
X023936Y076559D01*
X023970Y076506D01*
X024001Y076452D01*
X024027Y076396D01*
X024051Y076338D01*
X024070Y076278D01*
X024086Y076218D01*
X024098Y076156D01*
X024106Y076095D01*
X024110Y076032D01*
X024110Y075970D01*
X024106Y075907D01*
X024098Y075846D01*
X024086Y075784D01*
X024070Y075724D01*
X024051Y075664D01*
X024027Y075606D01*
X024001Y075550D01*
X023970Y075496D01*
X023936Y075443D01*
X023899Y075393D01*
X023859Y075345D01*
X023816Y075300D01*
X023770Y075257D01*
X023722Y075218D01*
X023671Y075182D01*
X023618Y075149D01*
X023563Y075119D01*
X023506Y075093D01*
X023448Y075071D01*
X023388Y075053D01*
X023328Y075038D01*
X023266Y075027D01*
X023204Y075020D01*
X023142Y075017D01*
X023079Y075018D01*
X023017Y075023D01*
X022955Y075032D01*
X022894Y075045D01*
X022834Y075061D01*
X022775Y075082D01*
X022717Y075106D01*
X022661Y075134D01*
X022607Y075165D01*
X022555Y075199D01*
X022506Y075237D01*
X022458Y075278D01*
X022414Y075322D01*
X022372Y075368D01*
X022334Y075418D01*
X022298Y075469D01*
X022266Y075523D01*
X022238Y075578D01*
X022212Y075635D01*
X022191Y075694D01*
X022174Y075754D01*
X022160Y075815D01*
X022150Y075876D01*
X022144Y075939D01*
X022142Y076001D01*
X028142Y076001D02*
X028144Y076063D01*
X028150Y076126D01*
X028160Y076187D01*
X028174Y076248D01*
X028191Y076308D01*
X028212Y076367D01*
X028238Y076424D01*
X028266Y076479D01*
X028298Y076533D01*
X028334Y076584D01*
X028372Y076634D01*
X028414Y076680D01*
X028458Y076724D01*
X028506Y076765D01*
X028555Y076803D01*
X028607Y076837D01*
X028661Y076868D01*
X028717Y076896D01*
X028775Y076920D01*
X028834Y076941D01*
X028894Y076957D01*
X028955Y076970D01*
X029017Y076979D01*
X029079Y076984D01*
X029142Y076985D01*
X029204Y076982D01*
X029266Y076975D01*
X029328Y076964D01*
X029388Y076949D01*
X029448Y076931D01*
X029506Y076909D01*
X029563Y076883D01*
X029618Y076853D01*
X029671Y076820D01*
X029722Y076784D01*
X029770Y076745D01*
X029816Y076702D01*
X029859Y076657D01*
X029899Y076609D01*
X029936Y076559D01*
X029970Y076506D01*
X030001Y076452D01*
X030027Y076396D01*
X030051Y076338D01*
X030070Y076278D01*
X030086Y076218D01*
X030098Y076156D01*
X030106Y076095D01*
X030110Y076032D01*
X030110Y075970D01*
X030106Y075907D01*
X030098Y075846D01*
X030086Y075784D01*
X030070Y075724D01*
X030051Y075664D01*
X030027Y075606D01*
X030001Y075550D01*
X029970Y075496D01*
X029936Y075443D01*
X029899Y075393D01*
X029859Y075345D01*
X029816Y075300D01*
X029770Y075257D01*
X029722Y075218D01*
X029671Y075182D01*
X029618Y075149D01*
X029563Y075119D01*
X029506Y075093D01*
X029448Y075071D01*
X029388Y075053D01*
X029328Y075038D01*
X029266Y075027D01*
X029204Y075020D01*
X029142Y075017D01*
X029079Y075018D01*
X029017Y075023D01*
X028955Y075032D01*
X028894Y075045D01*
X028834Y075061D01*
X028775Y075082D01*
X028717Y075106D01*
X028661Y075134D01*
X028607Y075165D01*
X028555Y075199D01*
X028506Y075237D01*
X028458Y075278D01*
X028414Y075322D01*
X028372Y075368D01*
X028334Y075418D01*
X028298Y075469D01*
X028266Y075523D01*
X028238Y075578D01*
X028212Y075635D01*
X028191Y075694D01*
X028174Y075754D01*
X028160Y075815D01*
X028150Y075876D01*
X028144Y075939D01*
X028142Y076001D01*
X029642Y083501D02*
X029644Y083563D01*
X029650Y083626D01*
X029660Y083687D01*
X029674Y083748D01*
X029691Y083808D01*
X029712Y083867D01*
X029738Y083924D01*
X029766Y083979D01*
X029798Y084033D01*
X029834Y084084D01*
X029872Y084134D01*
X029914Y084180D01*
X029958Y084224D01*
X030006Y084265D01*
X030055Y084303D01*
X030107Y084337D01*
X030161Y084368D01*
X030217Y084396D01*
X030275Y084420D01*
X030334Y084441D01*
X030394Y084457D01*
X030455Y084470D01*
X030517Y084479D01*
X030579Y084484D01*
X030642Y084485D01*
X030704Y084482D01*
X030766Y084475D01*
X030828Y084464D01*
X030888Y084449D01*
X030948Y084431D01*
X031006Y084409D01*
X031063Y084383D01*
X031118Y084353D01*
X031171Y084320D01*
X031222Y084284D01*
X031270Y084245D01*
X031316Y084202D01*
X031359Y084157D01*
X031399Y084109D01*
X031436Y084059D01*
X031470Y084006D01*
X031501Y083952D01*
X031527Y083896D01*
X031551Y083838D01*
X031570Y083778D01*
X031586Y083718D01*
X031598Y083656D01*
X031606Y083595D01*
X031610Y083532D01*
X031610Y083470D01*
X031606Y083407D01*
X031598Y083346D01*
X031586Y083284D01*
X031570Y083224D01*
X031551Y083164D01*
X031527Y083106D01*
X031501Y083050D01*
X031470Y082996D01*
X031436Y082943D01*
X031399Y082893D01*
X031359Y082845D01*
X031316Y082800D01*
X031270Y082757D01*
X031222Y082718D01*
X031171Y082682D01*
X031118Y082649D01*
X031063Y082619D01*
X031006Y082593D01*
X030948Y082571D01*
X030888Y082553D01*
X030828Y082538D01*
X030766Y082527D01*
X030704Y082520D01*
X030642Y082517D01*
X030579Y082518D01*
X030517Y082523D01*
X030455Y082532D01*
X030394Y082545D01*
X030334Y082561D01*
X030275Y082582D01*
X030217Y082606D01*
X030161Y082634D01*
X030107Y082665D01*
X030055Y082699D01*
X030006Y082737D01*
X029958Y082778D01*
X029914Y082822D01*
X029872Y082868D01*
X029834Y082918D01*
X029798Y082969D01*
X029766Y083023D01*
X029738Y083078D01*
X029712Y083135D01*
X029691Y083194D01*
X029674Y083254D01*
X029660Y083315D01*
X029650Y083376D01*
X029644Y083439D01*
X029642Y083501D01*
X029642Y091001D02*
X029644Y091063D01*
X029650Y091126D01*
X029660Y091187D01*
X029674Y091248D01*
X029691Y091308D01*
X029712Y091367D01*
X029738Y091424D01*
X029766Y091479D01*
X029798Y091533D01*
X029834Y091584D01*
X029872Y091634D01*
X029914Y091680D01*
X029958Y091724D01*
X030006Y091765D01*
X030055Y091803D01*
X030107Y091837D01*
X030161Y091868D01*
X030217Y091896D01*
X030275Y091920D01*
X030334Y091941D01*
X030394Y091957D01*
X030455Y091970D01*
X030517Y091979D01*
X030579Y091984D01*
X030642Y091985D01*
X030704Y091982D01*
X030766Y091975D01*
X030828Y091964D01*
X030888Y091949D01*
X030948Y091931D01*
X031006Y091909D01*
X031063Y091883D01*
X031118Y091853D01*
X031171Y091820D01*
X031222Y091784D01*
X031270Y091745D01*
X031316Y091702D01*
X031359Y091657D01*
X031399Y091609D01*
X031436Y091559D01*
X031470Y091506D01*
X031501Y091452D01*
X031527Y091396D01*
X031551Y091338D01*
X031570Y091278D01*
X031586Y091218D01*
X031598Y091156D01*
X031606Y091095D01*
X031610Y091032D01*
X031610Y090970D01*
X031606Y090907D01*
X031598Y090846D01*
X031586Y090784D01*
X031570Y090724D01*
X031551Y090664D01*
X031527Y090606D01*
X031501Y090550D01*
X031470Y090496D01*
X031436Y090443D01*
X031399Y090393D01*
X031359Y090345D01*
X031316Y090300D01*
X031270Y090257D01*
X031222Y090218D01*
X031171Y090182D01*
X031118Y090149D01*
X031063Y090119D01*
X031006Y090093D01*
X030948Y090071D01*
X030888Y090053D01*
X030828Y090038D01*
X030766Y090027D01*
X030704Y090020D01*
X030642Y090017D01*
X030579Y090018D01*
X030517Y090023D01*
X030455Y090032D01*
X030394Y090045D01*
X030334Y090061D01*
X030275Y090082D01*
X030217Y090106D01*
X030161Y090134D01*
X030107Y090165D01*
X030055Y090199D01*
X030006Y090237D01*
X029958Y090278D01*
X029914Y090322D01*
X029872Y090368D01*
X029834Y090418D01*
X029798Y090469D01*
X029766Y090523D01*
X029738Y090578D01*
X029712Y090635D01*
X029691Y090694D01*
X029674Y090754D01*
X029660Y090815D01*
X029650Y090876D01*
X029644Y090939D01*
X029642Y091001D01*
X029642Y098501D02*
X029644Y098563D01*
X029650Y098626D01*
X029660Y098687D01*
X029674Y098748D01*
X029691Y098808D01*
X029712Y098867D01*
X029738Y098924D01*
X029766Y098979D01*
X029798Y099033D01*
X029834Y099084D01*
X029872Y099134D01*
X029914Y099180D01*
X029958Y099224D01*
X030006Y099265D01*
X030055Y099303D01*
X030107Y099337D01*
X030161Y099368D01*
X030217Y099396D01*
X030275Y099420D01*
X030334Y099441D01*
X030394Y099457D01*
X030455Y099470D01*
X030517Y099479D01*
X030579Y099484D01*
X030642Y099485D01*
X030704Y099482D01*
X030766Y099475D01*
X030828Y099464D01*
X030888Y099449D01*
X030948Y099431D01*
X031006Y099409D01*
X031063Y099383D01*
X031118Y099353D01*
X031171Y099320D01*
X031222Y099284D01*
X031270Y099245D01*
X031316Y099202D01*
X031359Y099157D01*
X031399Y099109D01*
X031436Y099059D01*
X031470Y099006D01*
X031501Y098952D01*
X031527Y098896D01*
X031551Y098838D01*
X031570Y098778D01*
X031586Y098718D01*
X031598Y098656D01*
X031606Y098595D01*
X031610Y098532D01*
X031610Y098470D01*
X031606Y098407D01*
X031598Y098346D01*
X031586Y098284D01*
X031570Y098224D01*
X031551Y098164D01*
X031527Y098106D01*
X031501Y098050D01*
X031470Y097996D01*
X031436Y097943D01*
X031399Y097893D01*
X031359Y097845D01*
X031316Y097800D01*
X031270Y097757D01*
X031222Y097718D01*
X031171Y097682D01*
X031118Y097649D01*
X031063Y097619D01*
X031006Y097593D01*
X030948Y097571D01*
X030888Y097553D01*
X030828Y097538D01*
X030766Y097527D01*
X030704Y097520D01*
X030642Y097517D01*
X030579Y097518D01*
X030517Y097523D01*
X030455Y097532D01*
X030394Y097545D01*
X030334Y097561D01*
X030275Y097582D01*
X030217Y097606D01*
X030161Y097634D01*
X030107Y097665D01*
X030055Y097699D01*
X030006Y097737D01*
X029958Y097778D01*
X029914Y097822D01*
X029872Y097868D01*
X029834Y097918D01*
X029798Y097969D01*
X029766Y098023D01*
X029738Y098078D01*
X029712Y098135D01*
X029691Y098194D01*
X029674Y098254D01*
X029660Y098315D01*
X029650Y098376D01*
X029644Y098439D01*
X029642Y098501D01*
X029642Y106001D02*
X029644Y106063D01*
X029650Y106126D01*
X029660Y106187D01*
X029674Y106248D01*
X029691Y106308D01*
X029712Y106367D01*
X029738Y106424D01*
X029766Y106479D01*
X029798Y106533D01*
X029834Y106584D01*
X029872Y106634D01*
X029914Y106680D01*
X029958Y106724D01*
X030006Y106765D01*
X030055Y106803D01*
X030107Y106837D01*
X030161Y106868D01*
X030217Y106896D01*
X030275Y106920D01*
X030334Y106941D01*
X030394Y106957D01*
X030455Y106970D01*
X030517Y106979D01*
X030579Y106984D01*
X030642Y106985D01*
X030704Y106982D01*
X030766Y106975D01*
X030828Y106964D01*
X030888Y106949D01*
X030948Y106931D01*
X031006Y106909D01*
X031063Y106883D01*
X031118Y106853D01*
X031171Y106820D01*
X031222Y106784D01*
X031270Y106745D01*
X031316Y106702D01*
X031359Y106657D01*
X031399Y106609D01*
X031436Y106559D01*
X031470Y106506D01*
X031501Y106452D01*
X031527Y106396D01*
X031551Y106338D01*
X031570Y106278D01*
X031586Y106218D01*
X031598Y106156D01*
X031606Y106095D01*
X031610Y106032D01*
X031610Y105970D01*
X031606Y105907D01*
X031598Y105846D01*
X031586Y105784D01*
X031570Y105724D01*
X031551Y105664D01*
X031527Y105606D01*
X031501Y105550D01*
X031470Y105496D01*
X031436Y105443D01*
X031399Y105393D01*
X031359Y105345D01*
X031316Y105300D01*
X031270Y105257D01*
X031222Y105218D01*
X031171Y105182D01*
X031118Y105149D01*
X031063Y105119D01*
X031006Y105093D01*
X030948Y105071D01*
X030888Y105053D01*
X030828Y105038D01*
X030766Y105027D01*
X030704Y105020D01*
X030642Y105017D01*
X030579Y105018D01*
X030517Y105023D01*
X030455Y105032D01*
X030394Y105045D01*
X030334Y105061D01*
X030275Y105082D01*
X030217Y105106D01*
X030161Y105134D01*
X030107Y105165D01*
X030055Y105199D01*
X030006Y105237D01*
X029958Y105278D01*
X029914Y105322D01*
X029872Y105368D01*
X029834Y105418D01*
X029798Y105469D01*
X029766Y105523D01*
X029738Y105578D01*
X029712Y105635D01*
X029691Y105694D01*
X029674Y105754D01*
X029660Y105815D01*
X029650Y105876D01*
X029644Y105939D01*
X029642Y106001D01*
X032642Y109001D02*
X032644Y109063D01*
X032650Y109126D01*
X032660Y109187D01*
X032674Y109248D01*
X032691Y109308D01*
X032712Y109367D01*
X032738Y109424D01*
X032766Y109479D01*
X032798Y109533D01*
X032834Y109584D01*
X032872Y109634D01*
X032914Y109680D01*
X032958Y109724D01*
X033006Y109765D01*
X033055Y109803D01*
X033107Y109837D01*
X033161Y109868D01*
X033217Y109896D01*
X033275Y109920D01*
X033334Y109941D01*
X033394Y109957D01*
X033455Y109970D01*
X033517Y109979D01*
X033579Y109984D01*
X033642Y109985D01*
X033704Y109982D01*
X033766Y109975D01*
X033828Y109964D01*
X033888Y109949D01*
X033948Y109931D01*
X034006Y109909D01*
X034063Y109883D01*
X034118Y109853D01*
X034171Y109820D01*
X034222Y109784D01*
X034270Y109745D01*
X034316Y109702D01*
X034359Y109657D01*
X034399Y109609D01*
X034436Y109559D01*
X034470Y109506D01*
X034501Y109452D01*
X034527Y109396D01*
X034551Y109338D01*
X034570Y109278D01*
X034586Y109218D01*
X034598Y109156D01*
X034606Y109095D01*
X034610Y109032D01*
X034610Y108970D01*
X034606Y108907D01*
X034598Y108846D01*
X034586Y108784D01*
X034570Y108724D01*
X034551Y108664D01*
X034527Y108606D01*
X034501Y108550D01*
X034470Y108496D01*
X034436Y108443D01*
X034399Y108393D01*
X034359Y108345D01*
X034316Y108300D01*
X034270Y108257D01*
X034222Y108218D01*
X034171Y108182D01*
X034118Y108149D01*
X034063Y108119D01*
X034006Y108093D01*
X033948Y108071D01*
X033888Y108053D01*
X033828Y108038D01*
X033766Y108027D01*
X033704Y108020D01*
X033642Y108017D01*
X033579Y108018D01*
X033517Y108023D01*
X033455Y108032D01*
X033394Y108045D01*
X033334Y108061D01*
X033275Y108082D01*
X033217Y108106D01*
X033161Y108134D01*
X033107Y108165D01*
X033055Y108199D01*
X033006Y108237D01*
X032958Y108278D01*
X032914Y108322D01*
X032872Y108368D01*
X032834Y108418D01*
X032798Y108469D01*
X032766Y108523D01*
X032738Y108578D01*
X032712Y108635D01*
X032691Y108694D01*
X032674Y108754D01*
X032660Y108815D01*
X032650Y108876D01*
X032644Y108939D01*
X032642Y109001D01*
X037142Y106126D02*
X037144Y106188D01*
X037150Y106251D01*
X037160Y106312D01*
X037174Y106373D01*
X037191Y106433D01*
X037212Y106492D01*
X037238Y106549D01*
X037266Y106604D01*
X037298Y106658D01*
X037334Y106709D01*
X037372Y106759D01*
X037414Y106805D01*
X037458Y106849D01*
X037506Y106890D01*
X037555Y106928D01*
X037607Y106962D01*
X037661Y106993D01*
X037717Y107021D01*
X037775Y107045D01*
X037834Y107066D01*
X037894Y107082D01*
X037955Y107095D01*
X038017Y107104D01*
X038079Y107109D01*
X038142Y107110D01*
X038204Y107107D01*
X038266Y107100D01*
X038328Y107089D01*
X038388Y107074D01*
X038448Y107056D01*
X038506Y107034D01*
X038563Y107008D01*
X038618Y106978D01*
X038671Y106945D01*
X038722Y106909D01*
X038770Y106870D01*
X038816Y106827D01*
X038859Y106782D01*
X038899Y106734D01*
X038936Y106684D01*
X038970Y106631D01*
X039001Y106577D01*
X039027Y106521D01*
X039051Y106463D01*
X039070Y106403D01*
X039086Y106343D01*
X039098Y106281D01*
X039106Y106220D01*
X039110Y106157D01*
X039110Y106095D01*
X039106Y106032D01*
X039098Y105971D01*
X039086Y105909D01*
X039070Y105849D01*
X039051Y105789D01*
X039027Y105731D01*
X039001Y105675D01*
X038970Y105621D01*
X038936Y105568D01*
X038899Y105518D01*
X038859Y105470D01*
X038816Y105425D01*
X038770Y105382D01*
X038722Y105343D01*
X038671Y105307D01*
X038618Y105274D01*
X038563Y105244D01*
X038506Y105218D01*
X038448Y105196D01*
X038388Y105178D01*
X038328Y105163D01*
X038266Y105152D01*
X038204Y105145D01*
X038142Y105142D01*
X038079Y105143D01*
X038017Y105148D01*
X037955Y105157D01*
X037894Y105170D01*
X037834Y105186D01*
X037775Y105207D01*
X037717Y105231D01*
X037661Y105259D01*
X037607Y105290D01*
X037555Y105324D01*
X037506Y105362D01*
X037458Y105403D01*
X037414Y105447D01*
X037372Y105493D01*
X037334Y105543D01*
X037298Y105594D01*
X037266Y105648D01*
X037238Y105703D01*
X037212Y105760D01*
X037191Y105819D01*
X037174Y105879D01*
X037160Y105940D01*
X037150Y106001D01*
X037144Y106064D01*
X037142Y106126D01*
X040142Y109001D02*
X040144Y109063D01*
X040150Y109126D01*
X040160Y109187D01*
X040174Y109248D01*
X040191Y109308D01*
X040212Y109367D01*
X040238Y109424D01*
X040266Y109479D01*
X040298Y109533D01*
X040334Y109584D01*
X040372Y109634D01*
X040414Y109680D01*
X040458Y109724D01*
X040506Y109765D01*
X040555Y109803D01*
X040607Y109837D01*
X040661Y109868D01*
X040717Y109896D01*
X040775Y109920D01*
X040834Y109941D01*
X040894Y109957D01*
X040955Y109970D01*
X041017Y109979D01*
X041079Y109984D01*
X041142Y109985D01*
X041204Y109982D01*
X041266Y109975D01*
X041328Y109964D01*
X041388Y109949D01*
X041448Y109931D01*
X041506Y109909D01*
X041563Y109883D01*
X041618Y109853D01*
X041671Y109820D01*
X041722Y109784D01*
X041770Y109745D01*
X041816Y109702D01*
X041859Y109657D01*
X041899Y109609D01*
X041936Y109559D01*
X041970Y109506D01*
X042001Y109452D01*
X042027Y109396D01*
X042051Y109338D01*
X042070Y109278D01*
X042086Y109218D01*
X042098Y109156D01*
X042106Y109095D01*
X042110Y109032D01*
X042110Y108970D01*
X042106Y108907D01*
X042098Y108846D01*
X042086Y108784D01*
X042070Y108724D01*
X042051Y108664D01*
X042027Y108606D01*
X042001Y108550D01*
X041970Y108496D01*
X041936Y108443D01*
X041899Y108393D01*
X041859Y108345D01*
X041816Y108300D01*
X041770Y108257D01*
X041722Y108218D01*
X041671Y108182D01*
X041618Y108149D01*
X041563Y108119D01*
X041506Y108093D01*
X041448Y108071D01*
X041388Y108053D01*
X041328Y108038D01*
X041266Y108027D01*
X041204Y108020D01*
X041142Y108017D01*
X041079Y108018D01*
X041017Y108023D01*
X040955Y108032D01*
X040894Y108045D01*
X040834Y108061D01*
X040775Y108082D01*
X040717Y108106D01*
X040661Y108134D01*
X040607Y108165D01*
X040555Y108199D01*
X040506Y108237D01*
X040458Y108278D01*
X040414Y108322D01*
X040372Y108368D01*
X040334Y108418D01*
X040298Y108469D01*
X040266Y108523D01*
X040238Y108578D01*
X040212Y108635D01*
X040191Y108694D01*
X040174Y108754D01*
X040160Y108815D01*
X040150Y108876D01*
X040144Y108939D01*
X040142Y109001D01*
X044642Y105876D02*
X044644Y105938D01*
X044650Y106001D01*
X044660Y106062D01*
X044674Y106123D01*
X044691Y106183D01*
X044712Y106242D01*
X044738Y106299D01*
X044766Y106354D01*
X044798Y106408D01*
X044834Y106459D01*
X044872Y106509D01*
X044914Y106555D01*
X044958Y106599D01*
X045006Y106640D01*
X045055Y106678D01*
X045107Y106712D01*
X045161Y106743D01*
X045217Y106771D01*
X045275Y106795D01*
X045334Y106816D01*
X045394Y106832D01*
X045455Y106845D01*
X045517Y106854D01*
X045579Y106859D01*
X045642Y106860D01*
X045704Y106857D01*
X045766Y106850D01*
X045828Y106839D01*
X045888Y106824D01*
X045948Y106806D01*
X046006Y106784D01*
X046063Y106758D01*
X046118Y106728D01*
X046171Y106695D01*
X046222Y106659D01*
X046270Y106620D01*
X046316Y106577D01*
X046359Y106532D01*
X046399Y106484D01*
X046436Y106434D01*
X046470Y106381D01*
X046501Y106327D01*
X046527Y106271D01*
X046551Y106213D01*
X046570Y106153D01*
X046586Y106093D01*
X046598Y106031D01*
X046606Y105970D01*
X046610Y105907D01*
X046610Y105845D01*
X046606Y105782D01*
X046598Y105721D01*
X046586Y105659D01*
X046570Y105599D01*
X046551Y105539D01*
X046527Y105481D01*
X046501Y105425D01*
X046470Y105371D01*
X046436Y105318D01*
X046399Y105268D01*
X046359Y105220D01*
X046316Y105175D01*
X046270Y105132D01*
X046222Y105093D01*
X046171Y105057D01*
X046118Y105024D01*
X046063Y104994D01*
X046006Y104968D01*
X045948Y104946D01*
X045888Y104928D01*
X045828Y104913D01*
X045766Y104902D01*
X045704Y104895D01*
X045642Y104892D01*
X045579Y104893D01*
X045517Y104898D01*
X045455Y104907D01*
X045394Y104920D01*
X045334Y104936D01*
X045275Y104957D01*
X045217Y104981D01*
X045161Y105009D01*
X045107Y105040D01*
X045055Y105074D01*
X045006Y105112D01*
X044958Y105153D01*
X044914Y105197D01*
X044872Y105243D01*
X044834Y105293D01*
X044798Y105344D01*
X044766Y105398D01*
X044738Y105453D01*
X044712Y105510D01*
X044691Y105569D01*
X044674Y105629D01*
X044660Y105690D01*
X044650Y105751D01*
X044644Y105814D01*
X044642Y105876D01*
X047642Y109001D02*
X047644Y109063D01*
X047650Y109126D01*
X047660Y109187D01*
X047674Y109248D01*
X047691Y109308D01*
X047712Y109367D01*
X047738Y109424D01*
X047766Y109479D01*
X047798Y109533D01*
X047834Y109584D01*
X047872Y109634D01*
X047914Y109680D01*
X047958Y109724D01*
X048006Y109765D01*
X048055Y109803D01*
X048107Y109837D01*
X048161Y109868D01*
X048217Y109896D01*
X048275Y109920D01*
X048334Y109941D01*
X048394Y109957D01*
X048455Y109970D01*
X048517Y109979D01*
X048579Y109984D01*
X048642Y109985D01*
X048704Y109982D01*
X048766Y109975D01*
X048828Y109964D01*
X048888Y109949D01*
X048948Y109931D01*
X049006Y109909D01*
X049063Y109883D01*
X049118Y109853D01*
X049171Y109820D01*
X049222Y109784D01*
X049270Y109745D01*
X049316Y109702D01*
X049359Y109657D01*
X049399Y109609D01*
X049436Y109559D01*
X049470Y109506D01*
X049501Y109452D01*
X049527Y109396D01*
X049551Y109338D01*
X049570Y109278D01*
X049586Y109218D01*
X049598Y109156D01*
X049606Y109095D01*
X049610Y109032D01*
X049610Y108970D01*
X049606Y108907D01*
X049598Y108846D01*
X049586Y108784D01*
X049570Y108724D01*
X049551Y108664D01*
X049527Y108606D01*
X049501Y108550D01*
X049470Y108496D01*
X049436Y108443D01*
X049399Y108393D01*
X049359Y108345D01*
X049316Y108300D01*
X049270Y108257D01*
X049222Y108218D01*
X049171Y108182D01*
X049118Y108149D01*
X049063Y108119D01*
X049006Y108093D01*
X048948Y108071D01*
X048888Y108053D01*
X048828Y108038D01*
X048766Y108027D01*
X048704Y108020D01*
X048642Y108017D01*
X048579Y108018D01*
X048517Y108023D01*
X048455Y108032D01*
X048394Y108045D01*
X048334Y108061D01*
X048275Y108082D01*
X048217Y108106D01*
X048161Y108134D01*
X048107Y108165D01*
X048055Y108199D01*
X048006Y108237D01*
X047958Y108278D01*
X047914Y108322D01*
X047872Y108368D01*
X047834Y108418D01*
X047798Y108469D01*
X047766Y108523D01*
X047738Y108578D01*
X047712Y108635D01*
X047691Y108694D01*
X047674Y108754D01*
X047660Y108815D01*
X047650Y108876D01*
X047644Y108939D01*
X047642Y109001D01*
X052142Y105876D02*
X052144Y105938D01*
X052150Y106001D01*
X052160Y106062D01*
X052174Y106123D01*
X052191Y106183D01*
X052212Y106242D01*
X052238Y106299D01*
X052266Y106354D01*
X052298Y106408D01*
X052334Y106459D01*
X052372Y106509D01*
X052414Y106555D01*
X052458Y106599D01*
X052506Y106640D01*
X052555Y106678D01*
X052607Y106712D01*
X052661Y106743D01*
X052717Y106771D01*
X052775Y106795D01*
X052834Y106816D01*
X052894Y106832D01*
X052955Y106845D01*
X053017Y106854D01*
X053079Y106859D01*
X053142Y106860D01*
X053204Y106857D01*
X053266Y106850D01*
X053328Y106839D01*
X053388Y106824D01*
X053448Y106806D01*
X053506Y106784D01*
X053563Y106758D01*
X053618Y106728D01*
X053671Y106695D01*
X053722Y106659D01*
X053770Y106620D01*
X053816Y106577D01*
X053859Y106532D01*
X053899Y106484D01*
X053936Y106434D01*
X053970Y106381D01*
X054001Y106327D01*
X054027Y106271D01*
X054051Y106213D01*
X054070Y106153D01*
X054086Y106093D01*
X054098Y106031D01*
X054106Y105970D01*
X054110Y105907D01*
X054110Y105845D01*
X054106Y105782D01*
X054098Y105721D01*
X054086Y105659D01*
X054070Y105599D01*
X054051Y105539D01*
X054027Y105481D01*
X054001Y105425D01*
X053970Y105371D01*
X053936Y105318D01*
X053899Y105268D01*
X053859Y105220D01*
X053816Y105175D01*
X053770Y105132D01*
X053722Y105093D01*
X053671Y105057D01*
X053618Y105024D01*
X053563Y104994D01*
X053506Y104968D01*
X053448Y104946D01*
X053388Y104928D01*
X053328Y104913D01*
X053266Y104902D01*
X053204Y104895D01*
X053142Y104892D01*
X053079Y104893D01*
X053017Y104898D01*
X052955Y104907D01*
X052894Y104920D01*
X052834Y104936D01*
X052775Y104957D01*
X052717Y104981D01*
X052661Y105009D01*
X052607Y105040D01*
X052555Y105074D01*
X052506Y105112D01*
X052458Y105153D01*
X052414Y105197D01*
X052372Y105243D01*
X052334Y105293D01*
X052298Y105344D01*
X052266Y105398D01*
X052238Y105453D01*
X052212Y105510D01*
X052191Y105569D01*
X052174Y105629D01*
X052160Y105690D01*
X052150Y105751D01*
X052144Y105814D01*
X052142Y105876D01*
X052142Y098501D02*
X052144Y098563D01*
X052150Y098626D01*
X052160Y098687D01*
X052174Y098748D01*
X052191Y098808D01*
X052212Y098867D01*
X052238Y098924D01*
X052266Y098979D01*
X052298Y099033D01*
X052334Y099084D01*
X052372Y099134D01*
X052414Y099180D01*
X052458Y099224D01*
X052506Y099265D01*
X052555Y099303D01*
X052607Y099337D01*
X052661Y099368D01*
X052717Y099396D01*
X052775Y099420D01*
X052834Y099441D01*
X052894Y099457D01*
X052955Y099470D01*
X053017Y099479D01*
X053079Y099484D01*
X053142Y099485D01*
X053204Y099482D01*
X053266Y099475D01*
X053328Y099464D01*
X053388Y099449D01*
X053448Y099431D01*
X053506Y099409D01*
X053563Y099383D01*
X053618Y099353D01*
X053671Y099320D01*
X053722Y099284D01*
X053770Y099245D01*
X053816Y099202D01*
X053859Y099157D01*
X053899Y099109D01*
X053936Y099059D01*
X053970Y099006D01*
X054001Y098952D01*
X054027Y098896D01*
X054051Y098838D01*
X054070Y098778D01*
X054086Y098718D01*
X054098Y098656D01*
X054106Y098595D01*
X054110Y098532D01*
X054110Y098470D01*
X054106Y098407D01*
X054098Y098346D01*
X054086Y098284D01*
X054070Y098224D01*
X054051Y098164D01*
X054027Y098106D01*
X054001Y098050D01*
X053970Y097996D01*
X053936Y097943D01*
X053899Y097893D01*
X053859Y097845D01*
X053816Y097800D01*
X053770Y097757D01*
X053722Y097718D01*
X053671Y097682D01*
X053618Y097649D01*
X053563Y097619D01*
X053506Y097593D01*
X053448Y097571D01*
X053388Y097553D01*
X053328Y097538D01*
X053266Y097527D01*
X053204Y097520D01*
X053142Y097517D01*
X053079Y097518D01*
X053017Y097523D01*
X052955Y097532D01*
X052894Y097545D01*
X052834Y097561D01*
X052775Y097582D01*
X052717Y097606D01*
X052661Y097634D01*
X052607Y097665D01*
X052555Y097699D01*
X052506Y097737D01*
X052458Y097778D01*
X052414Y097822D01*
X052372Y097868D01*
X052334Y097918D01*
X052298Y097969D01*
X052266Y098023D01*
X052238Y098078D01*
X052212Y098135D01*
X052191Y098194D01*
X052174Y098254D01*
X052160Y098315D01*
X052150Y098376D01*
X052144Y098439D01*
X052142Y098501D01*
X052142Y091001D02*
X052144Y091063D01*
X052150Y091126D01*
X052160Y091187D01*
X052174Y091248D01*
X052191Y091308D01*
X052212Y091367D01*
X052238Y091424D01*
X052266Y091479D01*
X052298Y091533D01*
X052334Y091584D01*
X052372Y091634D01*
X052414Y091680D01*
X052458Y091724D01*
X052506Y091765D01*
X052555Y091803D01*
X052607Y091837D01*
X052661Y091868D01*
X052717Y091896D01*
X052775Y091920D01*
X052834Y091941D01*
X052894Y091957D01*
X052955Y091970D01*
X053017Y091979D01*
X053079Y091984D01*
X053142Y091985D01*
X053204Y091982D01*
X053266Y091975D01*
X053328Y091964D01*
X053388Y091949D01*
X053448Y091931D01*
X053506Y091909D01*
X053563Y091883D01*
X053618Y091853D01*
X053671Y091820D01*
X053722Y091784D01*
X053770Y091745D01*
X053816Y091702D01*
X053859Y091657D01*
X053899Y091609D01*
X053936Y091559D01*
X053970Y091506D01*
X054001Y091452D01*
X054027Y091396D01*
X054051Y091338D01*
X054070Y091278D01*
X054086Y091218D01*
X054098Y091156D01*
X054106Y091095D01*
X054110Y091032D01*
X054110Y090970D01*
X054106Y090907D01*
X054098Y090846D01*
X054086Y090784D01*
X054070Y090724D01*
X054051Y090664D01*
X054027Y090606D01*
X054001Y090550D01*
X053970Y090496D01*
X053936Y090443D01*
X053899Y090393D01*
X053859Y090345D01*
X053816Y090300D01*
X053770Y090257D01*
X053722Y090218D01*
X053671Y090182D01*
X053618Y090149D01*
X053563Y090119D01*
X053506Y090093D01*
X053448Y090071D01*
X053388Y090053D01*
X053328Y090038D01*
X053266Y090027D01*
X053204Y090020D01*
X053142Y090017D01*
X053079Y090018D01*
X053017Y090023D01*
X052955Y090032D01*
X052894Y090045D01*
X052834Y090061D01*
X052775Y090082D01*
X052717Y090106D01*
X052661Y090134D01*
X052607Y090165D01*
X052555Y090199D01*
X052506Y090237D01*
X052458Y090278D01*
X052414Y090322D01*
X052372Y090368D01*
X052334Y090418D01*
X052298Y090469D01*
X052266Y090523D01*
X052238Y090578D01*
X052212Y090635D01*
X052191Y090694D01*
X052174Y090754D01*
X052160Y090815D01*
X052150Y090876D01*
X052144Y090939D01*
X052142Y091001D01*
X052142Y083501D02*
X052144Y083563D01*
X052150Y083626D01*
X052160Y083687D01*
X052174Y083748D01*
X052191Y083808D01*
X052212Y083867D01*
X052238Y083924D01*
X052266Y083979D01*
X052298Y084033D01*
X052334Y084084D01*
X052372Y084134D01*
X052414Y084180D01*
X052458Y084224D01*
X052506Y084265D01*
X052555Y084303D01*
X052607Y084337D01*
X052661Y084368D01*
X052717Y084396D01*
X052775Y084420D01*
X052834Y084441D01*
X052894Y084457D01*
X052955Y084470D01*
X053017Y084479D01*
X053079Y084484D01*
X053142Y084485D01*
X053204Y084482D01*
X053266Y084475D01*
X053328Y084464D01*
X053388Y084449D01*
X053448Y084431D01*
X053506Y084409D01*
X053563Y084383D01*
X053618Y084353D01*
X053671Y084320D01*
X053722Y084284D01*
X053770Y084245D01*
X053816Y084202D01*
X053859Y084157D01*
X053899Y084109D01*
X053936Y084059D01*
X053970Y084006D01*
X054001Y083952D01*
X054027Y083896D01*
X054051Y083838D01*
X054070Y083778D01*
X054086Y083718D01*
X054098Y083656D01*
X054106Y083595D01*
X054110Y083532D01*
X054110Y083470D01*
X054106Y083407D01*
X054098Y083346D01*
X054086Y083284D01*
X054070Y083224D01*
X054051Y083164D01*
X054027Y083106D01*
X054001Y083050D01*
X053970Y082996D01*
X053936Y082943D01*
X053899Y082893D01*
X053859Y082845D01*
X053816Y082800D01*
X053770Y082757D01*
X053722Y082718D01*
X053671Y082682D01*
X053618Y082649D01*
X053563Y082619D01*
X053506Y082593D01*
X053448Y082571D01*
X053388Y082553D01*
X053328Y082538D01*
X053266Y082527D01*
X053204Y082520D01*
X053142Y082517D01*
X053079Y082518D01*
X053017Y082523D01*
X052955Y082532D01*
X052894Y082545D01*
X052834Y082561D01*
X052775Y082582D01*
X052717Y082606D01*
X052661Y082634D01*
X052607Y082665D01*
X052555Y082699D01*
X052506Y082737D01*
X052458Y082778D01*
X052414Y082822D01*
X052372Y082868D01*
X052334Y082918D01*
X052298Y082969D01*
X052266Y083023D01*
X052238Y083078D01*
X052212Y083135D01*
X052191Y083194D01*
X052174Y083254D01*
X052160Y083315D01*
X052150Y083376D01*
X052144Y083439D01*
X052142Y083501D01*
X054642Y076001D02*
X054644Y076063D01*
X054650Y076126D01*
X054660Y076187D01*
X054674Y076248D01*
X054691Y076308D01*
X054712Y076367D01*
X054738Y076424D01*
X054766Y076479D01*
X054798Y076533D01*
X054834Y076584D01*
X054872Y076634D01*
X054914Y076680D01*
X054958Y076724D01*
X055006Y076765D01*
X055055Y076803D01*
X055107Y076837D01*
X055161Y076868D01*
X055217Y076896D01*
X055275Y076920D01*
X055334Y076941D01*
X055394Y076957D01*
X055455Y076970D01*
X055517Y076979D01*
X055579Y076984D01*
X055642Y076985D01*
X055704Y076982D01*
X055766Y076975D01*
X055828Y076964D01*
X055888Y076949D01*
X055948Y076931D01*
X056006Y076909D01*
X056063Y076883D01*
X056118Y076853D01*
X056171Y076820D01*
X056222Y076784D01*
X056270Y076745D01*
X056316Y076702D01*
X056359Y076657D01*
X056399Y076609D01*
X056436Y076559D01*
X056470Y076506D01*
X056501Y076452D01*
X056527Y076396D01*
X056551Y076338D01*
X056570Y076278D01*
X056586Y076218D01*
X056598Y076156D01*
X056606Y076095D01*
X056610Y076032D01*
X056610Y075970D01*
X056606Y075907D01*
X056598Y075846D01*
X056586Y075784D01*
X056570Y075724D01*
X056551Y075664D01*
X056527Y075606D01*
X056501Y075550D01*
X056470Y075496D01*
X056436Y075443D01*
X056399Y075393D01*
X056359Y075345D01*
X056316Y075300D01*
X056270Y075257D01*
X056222Y075218D01*
X056171Y075182D01*
X056118Y075149D01*
X056063Y075119D01*
X056006Y075093D01*
X055948Y075071D01*
X055888Y075053D01*
X055828Y075038D01*
X055766Y075027D01*
X055704Y075020D01*
X055642Y075017D01*
X055579Y075018D01*
X055517Y075023D01*
X055455Y075032D01*
X055394Y075045D01*
X055334Y075061D01*
X055275Y075082D01*
X055217Y075106D01*
X055161Y075134D01*
X055107Y075165D01*
X055055Y075199D01*
X055006Y075237D01*
X054958Y075278D01*
X054914Y075322D01*
X054872Y075368D01*
X054834Y075418D01*
X054798Y075469D01*
X054766Y075523D01*
X054738Y075578D01*
X054712Y075635D01*
X054691Y075694D01*
X054674Y075754D01*
X054660Y075815D01*
X054650Y075876D01*
X054644Y075939D01*
X054642Y076001D01*
X059642Y076001D02*
X059644Y076063D01*
X059650Y076126D01*
X059660Y076187D01*
X059674Y076248D01*
X059691Y076308D01*
X059712Y076367D01*
X059738Y076424D01*
X059766Y076479D01*
X059798Y076533D01*
X059834Y076584D01*
X059872Y076634D01*
X059914Y076680D01*
X059958Y076724D01*
X060006Y076765D01*
X060055Y076803D01*
X060107Y076837D01*
X060161Y076868D01*
X060217Y076896D01*
X060275Y076920D01*
X060334Y076941D01*
X060394Y076957D01*
X060455Y076970D01*
X060517Y076979D01*
X060579Y076984D01*
X060642Y076985D01*
X060704Y076982D01*
X060766Y076975D01*
X060828Y076964D01*
X060888Y076949D01*
X060948Y076931D01*
X061006Y076909D01*
X061063Y076883D01*
X061118Y076853D01*
X061171Y076820D01*
X061222Y076784D01*
X061270Y076745D01*
X061316Y076702D01*
X061359Y076657D01*
X061399Y076609D01*
X061436Y076559D01*
X061470Y076506D01*
X061501Y076452D01*
X061527Y076396D01*
X061551Y076338D01*
X061570Y076278D01*
X061586Y076218D01*
X061598Y076156D01*
X061606Y076095D01*
X061610Y076032D01*
X061610Y075970D01*
X061606Y075907D01*
X061598Y075846D01*
X061586Y075784D01*
X061570Y075724D01*
X061551Y075664D01*
X061527Y075606D01*
X061501Y075550D01*
X061470Y075496D01*
X061436Y075443D01*
X061399Y075393D01*
X061359Y075345D01*
X061316Y075300D01*
X061270Y075257D01*
X061222Y075218D01*
X061171Y075182D01*
X061118Y075149D01*
X061063Y075119D01*
X061006Y075093D01*
X060948Y075071D01*
X060888Y075053D01*
X060828Y075038D01*
X060766Y075027D01*
X060704Y075020D01*
X060642Y075017D01*
X060579Y075018D01*
X060517Y075023D01*
X060455Y075032D01*
X060394Y075045D01*
X060334Y075061D01*
X060275Y075082D01*
X060217Y075106D01*
X060161Y075134D01*
X060107Y075165D01*
X060055Y075199D01*
X060006Y075237D01*
X059958Y075278D01*
X059914Y075322D01*
X059872Y075368D01*
X059834Y075418D01*
X059798Y075469D01*
X059766Y075523D01*
X059738Y075578D01*
X059712Y075635D01*
X059691Y075694D01*
X059674Y075754D01*
X059660Y075815D01*
X059650Y075876D01*
X059644Y075939D01*
X059642Y076001D01*
X063642Y075876D02*
X063644Y075938D01*
X063650Y076001D01*
X063660Y076062D01*
X063674Y076123D01*
X063691Y076183D01*
X063712Y076242D01*
X063738Y076299D01*
X063766Y076354D01*
X063798Y076408D01*
X063834Y076459D01*
X063872Y076509D01*
X063914Y076555D01*
X063958Y076599D01*
X064006Y076640D01*
X064055Y076678D01*
X064107Y076712D01*
X064161Y076743D01*
X064217Y076771D01*
X064275Y076795D01*
X064334Y076816D01*
X064394Y076832D01*
X064455Y076845D01*
X064517Y076854D01*
X064579Y076859D01*
X064642Y076860D01*
X064704Y076857D01*
X064766Y076850D01*
X064828Y076839D01*
X064888Y076824D01*
X064948Y076806D01*
X065006Y076784D01*
X065063Y076758D01*
X065118Y076728D01*
X065171Y076695D01*
X065222Y076659D01*
X065270Y076620D01*
X065316Y076577D01*
X065359Y076532D01*
X065399Y076484D01*
X065436Y076434D01*
X065470Y076381D01*
X065501Y076327D01*
X065527Y076271D01*
X065551Y076213D01*
X065570Y076153D01*
X065586Y076093D01*
X065598Y076031D01*
X065606Y075970D01*
X065610Y075907D01*
X065610Y075845D01*
X065606Y075782D01*
X065598Y075721D01*
X065586Y075659D01*
X065570Y075599D01*
X065551Y075539D01*
X065527Y075481D01*
X065501Y075425D01*
X065470Y075371D01*
X065436Y075318D01*
X065399Y075268D01*
X065359Y075220D01*
X065316Y075175D01*
X065270Y075132D01*
X065222Y075093D01*
X065171Y075057D01*
X065118Y075024D01*
X065063Y074994D01*
X065006Y074968D01*
X064948Y074946D01*
X064888Y074928D01*
X064828Y074913D01*
X064766Y074902D01*
X064704Y074895D01*
X064642Y074892D01*
X064579Y074893D01*
X064517Y074898D01*
X064455Y074907D01*
X064394Y074920D01*
X064334Y074936D01*
X064275Y074957D01*
X064217Y074981D01*
X064161Y075009D01*
X064107Y075040D01*
X064055Y075074D01*
X064006Y075112D01*
X063958Y075153D01*
X063914Y075197D01*
X063872Y075243D01*
X063834Y075293D01*
X063798Y075344D01*
X063766Y075398D01*
X063738Y075453D01*
X063712Y075510D01*
X063691Y075569D01*
X063674Y075629D01*
X063660Y075690D01*
X063650Y075751D01*
X063644Y075814D01*
X063642Y075876D01*
X060142Y083501D02*
X060144Y083563D01*
X060150Y083626D01*
X060160Y083687D01*
X060174Y083748D01*
X060191Y083808D01*
X060212Y083867D01*
X060238Y083924D01*
X060266Y083979D01*
X060298Y084033D01*
X060334Y084084D01*
X060372Y084134D01*
X060414Y084180D01*
X060458Y084224D01*
X060506Y084265D01*
X060555Y084303D01*
X060607Y084337D01*
X060661Y084368D01*
X060717Y084396D01*
X060775Y084420D01*
X060834Y084441D01*
X060894Y084457D01*
X060955Y084470D01*
X061017Y084479D01*
X061079Y084484D01*
X061142Y084485D01*
X061204Y084482D01*
X061266Y084475D01*
X061328Y084464D01*
X061388Y084449D01*
X061448Y084431D01*
X061506Y084409D01*
X061563Y084383D01*
X061618Y084353D01*
X061671Y084320D01*
X061722Y084284D01*
X061770Y084245D01*
X061816Y084202D01*
X061859Y084157D01*
X061899Y084109D01*
X061936Y084059D01*
X061970Y084006D01*
X062001Y083952D01*
X062027Y083896D01*
X062051Y083838D01*
X062070Y083778D01*
X062086Y083718D01*
X062098Y083656D01*
X062106Y083595D01*
X062110Y083532D01*
X062110Y083470D01*
X062106Y083407D01*
X062098Y083346D01*
X062086Y083284D01*
X062070Y083224D01*
X062051Y083164D01*
X062027Y083106D01*
X062001Y083050D01*
X061970Y082996D01*
X061936Y082943D01*
X061899Y082893D01*
X061859Y082845D01*
X061816Y082800D01*
X061770Y082757D01*
X061722Y082718D01*
X061671Y082682D01*
X061618Y082649D01*
X061563Y082619D01*
X061506Y082593D01*
X061448Y082571D01*
X061388Y082553D01*
X061328Y082538D01*
X061266Y082527D01*
X061204Y082520D01*
X061142Y082517D01*
X061079Y082518D01*
X061017Y082523D01*
X060955Y082532D01*
X060894Y082545D01*
X060834Y082561D01*
X060775Y082582D01*
X060717Y082606D01*
X060661Y082634D01*
X060607Y082665D01*
X060555Y082699D01*
X060506Y082737D01*
X060458Y082778D01*
X060414Y082822D01*
X060372Y082868D01*
X060334Y082918D01*
X060298Y082969D01*
X060266Y083023D01*
X060238Y083078D01*
X060212Y083135D01*
X060191Y083194D01*
X060174Y083254D01*
X060160Y083315D01*
X060150Y083376D01*
X060144Y083439D01*
X060142Y083501D01*
X059642Y091001D02*
X059644Y091063D01*
X059650Y091126D01*
X059660Y091187D01*
X059674Y091248D01*
X059691Y091308D01*
X059712Y091367D01*
X059738Y091424D01*
X059766Y091479D01*
X059798Y091533D01*
X059834Y091584D01*
X059872Y091634D01*
X059914Y091680D01*
X059958Y091724D01*
X060006Y091765D01*
X060055Y091803D01*
X060107Y091837D01*
X060161Y091868D01*
X060217Y091896D01*
X060275Y091920D01*
X060334Y091941D01*
X060394Y091957D01*
X060455Y091970D01*
X060517Y091979D01*
X060579Y091984D01*
X060642Y091985D01*
X060704Y091982D01*
X060766Y091975D01*
X060828Y091964D01*
X060888Y091949D01*
X060948Y091931D01*
X061006Y091909D01*
X061063Y091883D01*
X061118Y091853D01*
X061171Y091820D01*
X061222Y091784D01*
X061270Y091745D01*
X061316Y091702D01*
X061359Y091657D01*
X061399Y091609D01*
X061436Y091559D01*
X061470Y091506D01*
X061501Y091452D01*
X061527Y091396D01*
X061551Y091338D01*
X061570Y091278D01*
X061586Y091218D01*
X061598Y091156D01*
X061606Y091095D01*
X061610Y091032D01*
X061610Y090970D01*
X061606Y090907D01*
X061598Y090846D01*
X061586Y090784D01*
X061570Y090724D01*
X061551Y090664D01*
X061527Y090606D01*
X061501Y090550D01*
X061470Y090496D01*
X061436Y090443D01*
X061399Y090393D01*
X061359Y090345D01*
X061316Y090300D01*
X061270Y090257D01*
X061222Y090218D01*
X061171Y090182D01*
X061118Y090149D01*
X061063Y090119D01*
X061006Y090093D01*
X060948Y090071D01*
X060888Y090053D01*
X060828Y090038D01*
X060766Y090027D01*
X060704Y090020D01*
X060642Y090017D01*
X060579Y090018D01*
X060517Y090023D01*
X060455Y090032D01*
X060394Y090045D01*
X060334Y090061D01*
X060275Y090082D01*
X060217Y090106D01*
X060161Y090134D01*
X060107Y090165D01*
X060055Y090199D01*
X060006Y090237D01*
X059958Y090278D01*
X059914Y090322D01*
X059872Y090368D01*
X059834Y090418D01*
X059798Y090469D01*
X059766Y090523D01*
X059738Y090578D01*
X059712Y090635D01*
X059691Y090694D01*
X059674Y090754D01*
X059660Y090815D01*
X059650Y090876D01*
X059644Y090939D01*
X059642Y091001D01*
X059642Y098501D02*
X059644Y098563D01*
X059650Y098626D01*
X059660Y098687D01*
X059674Y098748D01*
X059691Y098808D01*
X059712Y098867D01*
X059738Y098924D01*
X059766Y098979D01*
X059798Y099033D01*
X059834Y099084D01*
X059872Y099134D01*
X059914Y099180D01*
X059958Y099224D01*
X060006Y099265D01*
X060055Y099303D01*
X060107Y099337D01*
X060161Y099368D01*
X060217Y099396D01*
X060275Y099420D01*
X060334Y099441D01*
X060394Y099457D01*
X060455Y099470D01*
X060517Y099479D01*
X060579Y099484D01*
X060642Y099485D01*
X060704Y099482D01*
X060766Y099475D01*
X060828Y099464D01*
X060888Y099449D01*
X060948Y099431D01*
X061006Y099409D01*
X061063Y099383D01*
X061118Y099353D01*
X061171Y099320D01*
X061222Y099284D01*
X061270Y099245D01*
X061316Y099202D01*
X061359Y099157D01*
X061399Y099109D01*
X061436Y099059D01*
X061470Y099006D01*
X061501Y098952D01*
X061527Y098896D01*
X061551Y098838D01*
X061570Y098778D01*
X061586Y098718D01*
X061598Y098656D01*
X061606Y098595D01*
X061610Y098532D01*
X061610Y098470D01*
X061606Y098407D01*
X061598Y098346D01*
X061586Y098284D01*
X061570Y098224D01*
X061551Y098164D01*
X061527Y098106D01*
X061501Y098050D01*
X061470Y097996D01*
X061436Y097943D01*
X061399Y097893D01*
X061359Y097845D01*
X061316Y097800D01*
X061270Y097757D01*
X061222Y097718D01*
X061171Y097682D01*
X061118Y097649D01*
X061063Y097619D01*
X061006Y097593D01*
X060948Y097571D01*
X060888Y097553D01*
X060828Y097538D01*
X060766Y097527D01*
X060704Y097520D01*
X060642Y097517D01*
X060579Y097518D01*
X060517Y097523D01*
X060455Y097532D01*
X060394Y097545D01*
X060334Y097561D01*
X060275Y097582D01*
X060217Y097606D01*
X060161Y097634D01*
X060107Y097665D01*
X060055Y097699D01*
X060006Y097737D01*
X059958Y097778D01*
X059914Y097822D01*
X059872Y097868D01*
X059834Y097918D01*
X059798Y097969D01*
X059766Y098023D01*
X059738Y098078D01*
X059712Y098135D01*
X059691Y098194D01*
X059674Y098254D01*
X059660Y098315D01*
X059650Y098376D01*
X059644Y098439D01*
X059642Y098501D01*
X059892Y109001D02*
X059894Y109063D01*
X059900Y109126D01*
X059910Y109187D01*
X059924Y109248D01*
X059941Y109308D01*
X059962Y109367D01*
X059988Y109424D01*
X060016Y109479D01*
X060048Y109533D01*
X060084Y109584D01*
X060122Y109634D01*
X060164Y109680D01*
X060208Y109724D01*
X060256Y109765D01*
X060305Y109803D01*
X060357Y109837D01*
X060411Y109868D01*
X060467Y109896D01*
X060525Y109920D01*
X060584Y109941D01*
X060644Y109957D01*
X060705Y109970D01*
X060767Y109979D01*
X060829Y109984D01*
X060892Y109985D01*
X060954Y109982D01*
X061016Y109975D01*
X061078Y109964D01*
X061138Y109949D01*
X061198Y109931D01*
X061256Y109909D01*
X061313Y109883D01*
X061368Y109853D01*
X061421Y109820D01*
X061472Y109784D01*
X061520Y109745D01*
X061566Y109702D01*
X061609Y109657D01*
X061649Y109609D01*
X061686Y109559D01*
X061720Y109506D01*
X061751Y109452D01*
X061777Y109396D01*
X061801Y109338D01*
X061820Y109278D01*
X061836Y109218D01*
X061848Y109156D01*
X061856Y109095D01*
X061860Y109032D01*
X061860Y108970D01*
X061856Y108907D01*
X061848Y108846D01*
X061836Y108784D01*
X061820Y108724D01*
X061801Y108664D01*
X061777Y108606D01*
X061751Y108550D01*
X061720Y108496D01*
X061686Y108443D01*
X061649Y108393D01*
X061609Y108345D01*
X061566Y108300D01*
X061520Y108257D01*
X061472Y108218D01*
X061421Y108182D01*
X061368Y108149D01*
X061313Y108119D01*
X061256Y108093D01*
X061198Y108071D01*
X061138Y108053D01*
X061078Y108038D01*
X061016Y108027D01*
X060954Y108020D01*
X060892Y108017D01*
X060829Y108018D01*
X060767Y108023D01*
X060705Y108032D01*
X060644Y108045D01*
X060584Y108061D01*
X060525Y108082D01*
X060467Y108106D01*
X060411Y108134D01*
X060357Y108165D01*
X060305Y108199D01*
X060256Y108237D01*
X060208Y108278D01*
X060164Y108322D01*
X060122Y108368D01*
X060084Y108418D01*
X060048Y108469D01*
X060016Y108523D01*
X059988Y108578D01*
X059962Y108635D01*
X059941Y108694D01*
X059924Y108754D01*
X059910Y108815D01*
X059900Y108876D01*
X059894Y108939D01*
X059892Y109001D01*
X067017Y098501D02*
X067019Y098563D01*
X067025Y098626D01*
X067035Y098687D01*
X067049Y098748D01*
X067066Y098808D01*
X067087Y098867D01*
X067113Y098924D01*
X067141Y098979D01*
X067173Y099033D01*
X067209Y099084D01*
X067247Y099134D01*
X067289Y099180D01*
X067333Y099224D01*
X067381Y099265D01*
X067430Y099303D01*
X067482Y099337D01*
X067536Y099368D01*
X067592Y099396D01*
X067650Y099420D01*
X067709Y099441D01*
X067769Y099457D01*
X067830Y099470D01*
X067892Y099479D01*
X067954Y099484D01*
X068017Y099485D01*
X068079Y099482D01*
X068141Y099475D01*
X068203Y099464D01*
X068263Y099449D01*
X068323Y099431D01*
X068381Y099409D01*
X068438Y099383D01*
X068493Y099353D01*
X068546Y099320D01*
X068597Y099284D01*
X068645Y099245D01*
X068691Y099202D01*
X068734Y099157D01*
X068774Y099109D01*
X068811Y099059D01*
X068845Y099006D01*
X068876Y098952D01*
X068902Y098896D01*
X068926Y098838D01*
X068945Y098778D01*
X068961Y098718D01*
X068973Y098656D01*
X068981Y098595D01*
X068985Y098532D01*
X068985Y098470D01*
X068981Y098407D01*
X068973Y098346D01*
X068961Y098284D01*
X068945Y098224D01*
X068926Y098164D01*
X068902Y098106D01*
X068876Y098050D01*
X068845Y097996D01*
X068811Y097943D01*
X068774Y097893D01*
X068734Y097845D01*
X068691Y097800D01*
X068645Y097757D01*
X068597Y097718D01*
X068546Y097682D01*
X068493Y097649D01*
X068438Y097619D01*
X068381Y097593D01*
X068323Y097571D01*
X068263Y097553D01*
X068203Y097538D01*
X068141Y097527D01*
X068079Y097520D01*
X068017Y097517D01*
X067954Y097518D01*
X067892Y097523D01*
X067830Y097532D01*
X067769Y097545D01*
X067709Y097561D01*
X067650Y097582D01*
X067592Y097606D01*
X067536Y097634D01*
X067482Y097665D01*
X067430Y097699D01*
X067381Y097737D01*
X067333Y097778D01*
X067289Y097822D01*
X067247Y097868D01*
X067209Y097918D01*
X067173Y097969D01*
X067141Y098023D01*
X067113Y098078D01*
X067087Y098135D01*
X067066Y098194D01*
X067049Y098254D01*
X067035Y098315D01*
X067025Y098376D01*
X067019Y098439D01*
X067017Y098501D01*
X069142Y089001D02*
X069144Y089063D01*
X069150Y089126D01*
X069160Y089187D01*
X069174Y089248D01*
X069191Y089308D01*
X069212Y089367D01*
X069238Y089424D01*
X069266Y089479D01*
X069298Y089533D01*
X069334Y089584D01*
X069372Y089634D01*
X069414Y089680D01*
X069458Y089724D01*
X069506Y089765D01*
X069555Y089803D01*
X069607Y089837D01*
X069661Y089868D01*
X069717Y089896D01*
X069775Y089920D01*
X069834Y089941D01*
X069894Y089957D01*
X069955Y089970D01*
X070017Y089979D01*
X070079Y089984D01*
X070142Y089985D01*
X070204Y089982D01*
X070266Y089975D01*
X070328Y089964D01*
X070388Y089949D01*
X070448Y089931D01*
X070506Y089909D01*
X070563Y089883D01*
X070618Y089853D01*
X070671Y089820D01*
X070722Y089784D01*
X070770Y089745D01*
X070816Y089702D01*
X070859Y089657D01*
X070899Y089609D01*
X070936Y089559D01*
X070970Y089506D01*
X071001Y089452D01*
X071027Y089396D01*
X071051Y089338D01*
X071070Y089278D01*
X071086Y089218D01*
X071098Y089156D01*
X071106Y089095D01*
X071110Y089032D01*
X071110Y088970D01*
X071106Y088907D01*
X071098Y088846D01*
X071086Y088784D01*
X071070Y088724D01*
X071051Y088664D01*
X071027Y088606D01*
X071001Y088550D01*
X070970Y088496D01*
X070936Y088443D01*
X070899Y088393D01*
X070859Y088345D01*
X070816Y088300D01*
X070770Y088257D01*
X070722Y088218D01*
X070671Y088182D01*
X070618Y088149D01*
X070563Y088119D01*
X070506Y088093D01*
X070448Y088071D01*
X070388Y088053D01*
X070328Y088038D01*
X070266Y088027D01*
X070204Y088020D01*
X070142Y088017D01*
X070079Y088018D01*
X070017Y088023D01*
X069955Y088032D01*
X069894Y088045D01*
X069834Y088061D01*
X069775Y088082D01*
X069717Y088106D01*
X069661Y088134D01*
X069607Y088165D01*
X069555Y088199D01*
X069506Y088237D01*
X069458Y088278D01*
X069414Y088322D01*
X069372Y088368D01*
X069334Y088418D01*
X069298Y088469D01*
X069266Y088523D01*
X069238Y088578D01*
X069212Y088635D01*
X069191Y088694D01*
X069174Y088754D01*
X069160Y088815D01*
X069150Y088876D01*
X069144Y088939D01*
X069142Y089001D01*
X069142Y083501D02*
X069144Y083563D01*
X069150Y083626D01*
X069160Y083687D01*
X069174Y083748D01*
X069191Y083808D01*
X069212Y083867D01*
X069238Y083924D01*
X069266Y083979D01*
X069298Y084033D01*
X069334Y084084D01*
X069372Y084134D01*
X069414Y084180D01*
X069458Y084224D01*
X069506Y084265D01*
X069555Y084303D01*
X069607Y084337D01*
X069661Y084368D01*
X069717Y084396D01*
X069775Y084420D01*
X069834Y084441D01*
X069894Y084457D01*
X069955Y084470D01*
X070017Y084479D01*
X070079Y084484D01*
X070142Y084485D01*
X070204Y084482D01*
X070266Y084475D01*
X070328Y084464D01*
X070388Y084449D01*
X070448Y084431D01*
X070506Y084409D01*
X070563Y084383D01*
X070618Y084353D01*
X070671Y084320D01*
X070722Y084284D01*
X070770Y084245D01*
X070816Y084202D01*
X070859Y084157D01*
X070899Y084109D01*
X070936Y084059D01*
X070970Y084006D01*
X071001Y083952D01*
X071027Y083896D01*
X071051Y083838D01*
X071070Y083778D01*
X071086Y083718D01*
X071098Y083656D01*
X071106Y083595D01*
X071110Y083532D01*
X071110Y083470D01*
X071106Y083407D01*
X071098Y083346D01*
X071086Y083284D01*
X071070Y083224D01*
X071051Y083164D01*
X071027Y083106D01*
X071001Y083050D01*
X070970Y082996D01*
X070936Y082943D01*
X070899Y082893D01*
X070859Y082845D01*
X070816Y082800D01*
X070770Y082757D01*
X070722Y082718D01*
X070671Y082682D01*
X070618Y082649D01*
X070563Y082619D01*
X070506Y082593D01*
X070448Y082571D01*
X070388Y082553D01*
X070328Y082538D01*
X070266Y082527D01*
X070204Y082520D01*
X070142Y082517D01*
X070079Y082518D01*
X070017Y082523D01*
X069955Y082532D01*
X069894Y082545D01*
X069834Y082561D01*
X069775Y082582D01*
X069717Y082606D01*
X069661Y082634D01*
X069607Y082665D01*
X069555Y082699D01*
X069506Y082737D01*
X069458Y082778D01*
X069414Y082822D01*
X069372Y082868D01*
X069334Y082918D01*
X069298Y082969D01*
X069266Y083023D01*
X069238Y083078D01*
X069212Y083135D01*
X069191Y083194D01*
X069174Y083254D01*
X069160Y083315D01*
X069150Y083376D01*
X069144Y083439D01*
X069142Y083501D01*
X044642Y083501D02*
X044644Y083563D01*
X044650Y083626D01*
X044660Y083687D01*
X044674Y083748D01*
X044691Y083808D01*
X044712Y083867D01*
X044738Y083924D01*
X044766Y083979D01*
X044798Y084033D01*
X044834Y084084D01*
X044872Y084134D01*
X044914Y084180D01*
X044958Y084224D01*
X045006Y084265D01*
X045055Y084303D01*
X045107Y084337D01*
X045161Y084368D01*
X045217Y084396D01*
X045275Y084420D01*
X045334Y084441D01*
X045394Y084457D01*
X045455Y084470D01*
X045517Y084479D01*
X045579Y084484D01*
X045642Y084485D01*
X045704Y084482D01*
X045766Y084475D01*
X045828Y084464D01*
X045888Y084449D01*
X045948Y084431D01*
X046006Y084409D01*
X046063Y084383D01*
X046118Y084353D01*
X046171Y084320D01*
X046222Y084284D01*
X046270Y084245D01*
X046316Y084202D01*
X046359Y084157D01*
X046399Y084109D01*
X046436Y084059D01*
X046470Y084006D01*
X046501Y083952D01*
X046527Y083896D01*
X046551Y083838D01*
X046570Y083778D01*
X046586Y083718D01*
X046598Y083656D01*
X046606Y083595D01*
X046610Y083532D01*
X046610Y083470D01*
X046606Y083407D01*
X046598Y083346D01*
X046586Y083284D01*
X046570Y083224D01*
X046551Y083164D01*
X046527Y083106D01*
X046501Y083050D01*
X046470Y082996D01*
X046436Y082943D01*
X046399Y082893D01*
X046359Y082845D01*
X046316Y082800D01*
X046270Y082757D01*
X046222Y082718D01*
X046171Y082682D01*
X046118Y082649D01*
X046063Y082619D01*
X046006Y082593D01*
X045948Y082571D01*
X045888Y082553D01*
X045828Y082538D01*
X045766Y082527D01*
X045704Y082520D01*
X045642Y082517D01*
X045579Y082518D01*
X045517Y082523D01*
X045455Y082532D01*
X045394Y082545D01*
X045334Y082561D01*
X045275Y082582D01*
X045217Y082606D01*
X045161Y082634D01*
X045107Y082665D01*
X045055Y082699D01*
X045006Y082737D01*
X044958Y082778D01*
X044914Y082822D01*
X044872Y082868D01*
X044834Y082918D01*
X044798Y082969D01*
X044766Y083023D01*
X044738Y083078D01*
X044712Y083135D01*
X044691Y083194D01*
X044674Y083254D01*
X044660Y083315D01*
X044650Y083376D01*
X044644Y083439D01*
X044642Y083501D01*
X044642Y091001D02*
X044644Y091063D01*
X044650Y091126D01*
X044660Y091187D01*
X044674Y091248D01*
X044691Y091308D01*
X044712Y091367D01*
X044738Y091424D01*
X044766Y091479D01*
X044798Y091533D01*
X044834Y091584D01*
X044872Y091634D01*
X044914Y091680D01*
X044958Y091724D01*
X045006Y091765D01*
X045055Y091803D01*
X045107Y091837D01*
X045161Y091868D01*
X045217Y091896D01*
X045275Y091920D01*
X045334Y091941D01*
X045394Y091957D01*
X045455Y091970D01*
X045517Y091979D01*
X045579Y091984D01*
X045642Y091985D01*
X045704Y091982D01*
X045766Y091975D01*
X045828Y091964D01*
X045888Y091949D01*
X045948Y091931D01*
X046006Y091909D01*
X046063Y091883D01*
X046118Y091853D01*
X046171Y091820D01*
X046222Y091784D01*
X046270Y091745D01*
X046316Y091702D01*
X046359Y091657D01*
X046399Y091609D01*
X046436Y091559D01*
X046470Y091506D01*
X046501Y091452D01*
X046527Y091396D01*
X046551Y091338D01*
X046570Y091278D01*
X046586Y091218D01*
X046598Y091156D01*
X046606Y091095D01*
X046610Y091032D01*
X046610Y090970D01*
X046606Y090907D01*
X046598Y090846D01*
X046586Y090784D01*
X046570Y090724D01*
X046551Y090664D01*
X046527Y090606D01*
X046501Y090550D01*
X046470Y090496D01*
X046436Y090443D01*
X046399Y090393D01*
X046359Y090345D01*
X046316Y090300D01*
X046270Y090257D01*
X046222Y090218D01*
X046171Y090182D01*
X046118Y090149D01*
X046063Y090119D01*
X046006Y090093D01*
X045948Y090071D01*
X045888Y090053D01*
X045828Y090038D01*
X045766Y090027D01*
X045704Y090020D01*
X045642Y090017D01*
X045579Y090018D01*
X045517Y090023D01*
X045455Y090032D01*
X045394Y090045D01*
X045334Y090061D01*
X045275Y090082D01*
X045217Y090106D01*
X045161Y090134D01*
X045107Y090165D01*
X045055Y090199D01*
X045006Y090237D01*
X044958Y090278D01*
X044914Y090322D01*
X044872Y090368D01*
X044834Y090418D01*
X044798Y090469D01*
X044766Y090523D01*
X044738Y090578D01*
X044712Y090635D01*
X044691Y090694D01*
X044674Y090754D01*
X044660Y090815D01*
X044650Y090876D01*
X044644Y090939D01*
X044642Y091001D01*
X044642Y098501D02*
X044644Y098563D01*
X044650Y098626D01*
X044660Y098687D01*
X044674Y098748D01*
X044691Y098808D01*
X044712Y098867D01*
X044738Y098924D01*
X044766Y098979D01*
X044798Y099033D01*
X044834Y099084D01*
X044872Y099134D01*
X044914Y099180D01*
X044958Y099224D01*
X045006Y099265D01*
X045055Y099303D01*
X045107Y099337D01*
X045161Y099368D01*
X045217Y099396D01*
X045275Y099420D01*
X045334Y099441D01*
X045394Y099457D01*
X045455Y099470D01*
X045517Y099479D01*
X045579Y099484D01*
X045642Y099485D01*
X045704Y099482D01*
X045766Y099475D01*
X045828Y099464D01*
X045888Y099449D01*
X045948Y099431D01*
X046006Y099409D01*
X046063Y099383D01*
X046118Y099353D01*
X046171Y099320D01*
X046222Y099284D01*
X046270Y099245D01*
X046316Y099202D01*
X046359Y099157D01*
X046399Y099109D01*
X046436Y099059D01*
X046470Y099006D01*
X046501Y098952D01*
X046527Y098896D01*
X046551Y098838D01*
X046570Y098778D01*
X046586Y098718D01*
X046598Y098656D01*
X046606Y098595D01*
X046610Y098532D01*
X046610Y098470D01*
X046606Y098407D01*
X046598Y098346D01*
X046586Y098284D01*
X046570Y098224D01*
X046551Y098164D01*
X046527Y098106D01*
X046501Y098050D01*
X046470Y097996D01*
X046436Y097943D01*
X046399Y097893D01*
X046359Y097845D01*
X046316Y097800D01*
X046270Y097757D01*
X046222Y097718D01*
X046171Y097682D01*
X046118Y097649D01*
X046063Y097619D01*
X046006Y097593D01*
X045948Y097571D01*
X045888Y097553D01*
X045828Y097538D01*
X045766Y097527D01*
X045704Y097520D01*
X045642Y097517D01*
X045579Y097518D01*
X045517Y097523D01*
X045455Y097532D01*
X045394Y097545D01*
X045334Y097561D01*
X045275Y097582D01*
X045217Y097606D01*
X045161Y097634D01*
X045107Y097665D01*
X045055Y097699D01*
X045006Y097737D01*
X044958Y097778D01*
X044914Y097822D01*
X044872Y097868D01*
X044834Y097918D01*
X044798Y097969D01*
X044766Y098023D01*
X044738Y098078D01*
X044712Y098135D01*
X044691Y098194D01*
X044674Y098254D01*
X044660Y098315D01*
X044650Y098376D01*
X044644Y098439D01*
X044642Y098501D01*
X037142Y098501D02*
X037144Y098563D01*
X037150Y098626D01*
X037160Y098687D01*
X037174Y098748D01*
X037191Y098808D01*
X037212Y098867D01*
X037238Y098924D01*
X037266Y098979D01*
X037298Y099033D01*
X037334Y099084D01*
X037372Y099134D01*
X037414Y099180D01*
X037458Y099224D01*
X037506Y099265D01*
X037555Y099303D01*
X037607Y099337D01*
X037661Y099368D01*
X037717Y099396D01*
X037775Y099420D01*
X037834Y099441D01*
X037894Y099457D01*
X037955Y099470D01*
X038017Y099479D01*
X038079Y099484D01*
X038142Y099485D01*
X038204Y099482D01*
X038266Y099475D01*
X038328Y099464D01*
X038388Y099449D01*
X038448Y099431D01*
X038506Y099409D01*
X038563Y099383D01*
X038618Y099353D01*
X038671Y099320D01*
X038722Y099284D01*
X038770Y099245D01*
X038816Y099202D01*
X038859Y099157D01*
X038899Y099109D01*
X038936Y099059D01*
X038970Y099006D01*
X039001Y098952D01*
X039027Y098896D01*
X039051Y098838D01*
X039070Y098778D01*
X039086Y098718D01*
X039098Y098656D01*
X039106Y098595D01*
X039110Y098532D01*
X039110Y098470D01*
X039106Y098407D01*
X039098Y098346D01*
X039086Y098284D01*
X039070Y098224D01*
X039051Y098164D01*
X039027Y098106D01*
X039001Y098050D01*
X038970Y097996D01*
X038936Y097943D01*
X038899Y097893D01*
X038859Y097845D01*
X038816Y097800D01*
X038770Y097757D01*
X038722Y097718D01*
X038671Y097682D01*
X038618Y097649D01*
X038563Y097619D01*
X038506Y097593D01*
X038448Y097571D01*
X038388Y097553D01*
X038328Y097538D01*
X038266Y097527D01*
X038204Y097520D01*
X038142Y097517D01*
X038079Y097518D01*
X038017Y097523D01*
X037955Y097532D01*
X037894Y097545D01*
X037834Y097561D01*
X037775Y097582D01*
X037717Y097606D01*
X037661Y097634D01*
X037607Y097665D01*
X037555Y097699D01*
X037506Y097737D01*
X037458Y097778D01*
X037414Y097822D01*
X037372Y097868D01*
X037334Y097918D01*
X037298Y097969D01*
X037266Y098023D01*
X037238Y098078D01*
X037212Y098135D01*
X037191Y098194D01*
X037174Y098254D01*
X037160Y098315D01*
X037150Y098376D01*
X037144Y098439D01*
X037142Y098501D01*
X037142Y091001D02*
X037144Y091063D01*
X037150Y091126D01*
X037160Y091187D01*
X037174Y091248D01*
X037191Y091308D01*
X037212Y091367D01*
X037238Y091424D01*
X037266Y091479D01*
X037298Y091533D01*
X037334Y091584D01*
X037372Y091634D01*
X037414Y091680D01*
X037458Y091724D01*
X037506Y091765D01*
X037555Y091803D01*
X037607Y091837D01*
X037661Y091868D01*
X037717Y091896D01*
X037775Y091920D01*
X037834Y091941D01*
X037894Y091957D01*
X037955Y091970D01*
X038017Y091979D01*
X038079Y091984D01*
X038142Y091985D01*
X038204Y091982D01*
X038266Y091975D01*
X038328Y091964D01*
X038388Y091949D01*
X038448Y091931D01*
X038506Y091909D01*
X038563Y091883D01*
X038618Y091853D01*
X038671Y091820D01*
X038722Y091784D01*
X038770Y091745D01*
X038816Y091702D01*
X038859Y091657D01*
X038899Y091609D01*
X038936Y091559D01*
X038970Y091506D01*
X039001Y091452D01*
X039027Y091396D01*
X039051Y091338D01*
X039070Y091278D01*
X039086Y091218D01*
X039098Y091156D01*
X039106Y091095D01*
X039110Y091032D01*
X039110Y090970D01*
X039106Y090907D01*
X039098Y090846D01*
X039086Y090784D01*
X039070Y090724D01*
X039051Y090664D01*
X039027Y090606D01*
X039001Y090550D01*
X038970Y090496D01*
X038936Y090443D01*
X038899Y090393D01*
X038859Y090345D01*
X038816Y090300D01*
X038770Y090257D01*
X038722Y090218D01*
X038671Y090182D01*
X038618Y090149D01*
X038563Y090119D01*
X038506Y090093D01*
X038448Y090071D01*
X038388Y090053D01*
X038328Y090038D01*
X038266Y090027D01*
X038204Y090020D01*
X038142Y090017D01*
X038079Y090018D01*
X038017Y090023D01*
X037955Y090032D01*
X037894Y090045D01*
X037834Y090061D01*
X037775Y090082D01*
X037717Y090106D01*
X037661Y090134D01*
X037607Y090165D01*
X037555Y090199D01*
X037506Y090237D01*
X037458Y090278D01*
X037414Y090322D01*
X037372Y090368D01*
X037334Y090418D01*
X037298Y090469D01*
X037266Y090523D01*
X037238Y090578D01*
X037212Y090635D01*
X037191Y090694D01*
X037174Y090754D01*
X037160Y090815D01*
X037150Y090876D01*
X037144Y090939D01*
X037142Y091001D01*
X037142Y083501D02*
X037144Y083563D01*
X037150Y083626D01*
X037160Y083687D01*
X037174Y083748D01*
X037191Y083808D01*
X037212Y083867D01*
X037238Y083924D01*
X037266Y083979D01*
X037298Y084033D01*
X037334Y084084D01*
X037372Y084134D01*
X037414Y084180D01*
X037458Y084224D01*
X037506Y084265D01*
X037555Y084303D01*
X037607Y084337D01*
X037661Y084368D01*
X037717Y084396D01*
X037775Y084420D01*
X037834Y084441D01*
X037894Y084457D01*
X037955Y084470D01*
X038017Y084479D01*
X038079Y084484D01*
X038142Y084485D01*
X038204Y084482D01*
X038266Y084475D01*
X038328Y084464D01*
X038388Y084449D01*
X038448Y084431D01*
X038506Y084409D01*
X038563Y084383D01*
X038618Y084353D01*
X038671Y084320D01*
X038722Y084284D01*
X038770Y084245D01*
X038816Y084202D01*
X038859Y084157D01*
X038899Y084109D01*
X038936Y084059D01*
X038970Y084006D01*
X039001Y083952D01*
X039027Y083896D01*
X039051Y083838D01*
X039070Y083778D01*
X039086Y083718D01*
X039098Y083656D01*
X039106Y083595D01*
X039110Y083532D01*
X039110Y083470D01*
X039106Y083407D01*
X039098Y083346D01*
X039086Y083284D01*
X039070Y083224D01*
X039051Y083164D01*
X039027Y083106D01*
X039001Y083050D01*
X038970Y082996D01*
X038936Y082943D01*
X038899Y082893D01*
X038859Y082845D01*
X038816Y082800D01*
X038770Y082757D01*
X038722Y082718D01*
X038671Y082682D01*
X038618Y082649D01*
X038563Y082619D01*
X038506Y082593D01*
X038448Y082571D01*
X038388Y082553D01*
X038328Y082538D01*
X038266Y082527D01*
X038204Y082520D01*
X038142Y082517D01*
X038079Y082518D01*
X038017Y082523D01*
X037955Y082532D01*
X037894Y082545D01*
X037834Y082561D01*
X037775Y082582D01*
X037717Y082606D01*
X037661Y082634D01*
X037607Y082665D01*
X037555Y082699D01*
X037506Y082737D01*
X037458Y082778D01*
X037414Y082822D01*
X037372Y082868D01*
X037334Y082918D01*
X037298Y082969D01*
X037266Y083023D01*
X037238Y083078D01*
X037212Y083135D01*
X037191Y083194D01*
X037174Y083254D01*
X037160Y083315D01*
X037150Y083376D01*
X037144Y083439D01*
X037142Y083501D01*
X036142Y076001D02*
X036144Y076063D01*
X036150Y076126D01*
X036160Y076187D01*
X036174Y076248D01*
X036191Y076308D01*
X036212Y076367D01*
X036238Y076424D01*
X036266Y076479D01*
X036298Y076533D01*
X036334Y076584D01*
X036372Y076634D01*
X036414Y076680D01*
X036458Y076724D01*
X036506Y076765D01*
X036555Y076803D01*
X036607Y076837D01*
X036661Y076868D01*
X036717Y076896D01*
X036775Y076920D01*
X036834Y076941D01*
X036894Y076957D01*
X036955Y076970D01*
X037017Y076979D01*
X037079Y076984D01*
X037142Y076985D01*
X037204Y076982D01*
X037266Y076975D01*
X037328Y076964D01*
X037388Y076949D01*
X037448Y076931D01*
X037506Y076909D01*
X037563Y076883D01*
X037618Y076853D01*
X037671Y076820D01*
X037722Y076784D01*
X037770Y076745D01*
X037816Y076702D01*
X037859Y076657D01*
X037899Y076609D01*
X037936Y076559D01*
X037970Y076506D01*
X038001Y076452D01*
X038027Y076396D01*
X038051Y076338D01*
X038070Y076278D01*
X038086Y076218D01*
X038098Y076156D01*
X038106Y076095D01*
X038110Y076032D01*
X038110Y075970D01*
X038106Y075907D01*
X038098Y075846D01*
X038086Y075784D01*
X038070Y075724D01*
X038051Y075664D01*
X038027Y075606D01*
X038001Y075550D01*
X037970Y075496D01*
X037936Y075443D01*
X037899Y075393D01*
X037859Y075345D01*
X037816Y075300D01*
X037770Y075257D01*
X037722Y075218D01*
X037671Y075182D01*
X037618Y075149D01*
X037563Y075119D01*
X037506Y075093D01*
X037448Y075071D01*
X037388Y075053D01*
X037328Y075038D01*
X037266Y075027D01*
X037204Y075020D01*
X037142Y075017D01*
X037079Y075018D01*
X037017Y075023D01*
X036955Y075032D01*
X036894Y075045D01*
X036834Y075061D01*
X036775Y075082D01*
X036717Y075106D01*
X036661Y075134D01*
X036607Y075165D01*
X036555Y075199D01*
X036506Y075237D01*
X036458Y075278D01*
X036414Y075322D01*
X036372Y075368D01*
X036334Y075418D01*
X036298Y075469D01*
X036266Y075523D01*
X036238Y075578D01*
X036212Y075635D01*
X036191Y075694D01*
X036174Y075754D01*
X036160Y075815D01*
X036150Y075876D01*
X036144Y075939D01*
X036142Y076001D01*
X044642Y076001D02*
X044644Y076063D01*
X044650Y076126D01*
X044660Y076187D01*
X044674Y076248D01*
X044691Y076308D01*
X044712Y076367D01*
X044738Y076424D01*
X044766Y076479D01*
X044798Y076533D01*
X044834Y076584D01*
X044872Y076634D01*
X044914Y076680D01*
X044958Y076724D01*
X045006Y076765D01*
X045055Y076803D01*
X045107Y076837D01*
X045161Y076868D01*
X045217Y076896D01*
X045275Y076920D01*
X045334Y076941D01*
X045394Y076957D01*
X045455Y076970D01*
X045517Y076979D01*
X045579Y076984D01*
X045642Y076985D01*
X045704Y076982D01*
X045766Y076975D01*
X045828Y076964D01*
X045888Y076949D01*
X045948Y076931D01*
X046006Y076909D01*
X046063Y076883D01*
X046118Y076853D01*
X046171Y076820D01*
X046222Y076784D01*
X046270Y076745D01*
X046316Y076702D01*
X046359Y076657D01*
X046399Y076609D01*
X046436Y076559D01*
X046470Y076506D01*
X046501Y076452D01*
X046527Y076396D01*
X046551Y076338D01*
X046570Y076278D01*
X046586Y076218D01*
X046598Y076156D01*
X046606Y076095D01*
X046610Y076032D01*
X046610Y075970D01*
X046606Y075907D01*
X046598Y075846D01*
X046586Y075784D01*
X046570Y075724D01*
X046551Y075664D01*
X046527Y075606D01*
X046501Y075550D01*
X046470Y075496D01*
X046436Y075443D01*
X046399Y075393D01*
X046359Y075345D01*
X046316Y075300D01*
X046270Y075257D01*
X046222Y075218D01*
X046171Y075182D01*
X046118Y075149D01*
X046063Y075119D01*
X046006Y075093D01*
X045948Y075071D01*
X045888Y075053D01*
X045828Y075038D01*
X045766Y075027D01*
X045704Y075020D01*
X045642Y075017D01*
X045579Y075018D01*
X045517Y075023D01*
X045455Y075032D01*
X045394Y075045D01*
X045334Y075061D01*
X045275Y075082D01*
X045217Y075106D01*
X045161Y075134D01*
X045107Y075165D01*
X045055Y075199D01*
X045006Y075237D01*
X044958Y075278D01*
X044914Y075322D01*
X044872Y075368D01*
X044834Y075418D01*
X044798Y075469D01*
X044766Y075523D01*
X044738Y075578D01*
X044712Y075635D01*
X044691Y075694D01*
X044674Y075754D01*
X044660Y075815D01*
X044650Y075876D01*
X044644Y075939D01*
X044642Y076001D01*
D12*
X041679Y079751D02*
X041681Y079778D01*
X041687Y079805D01*
X041696Y079831D01*
X041709Y079855D01*
X041725Y079878D01*
X041744Y079897D01*
X041766Y079914D01*
X041790Y079928D01*
X041815Y079938D01*
X041842Y079945D01*
X041869Y079948D01*
X041897Y079947D01*
X041924Y079942D01*
X041950Y079934D01*
X041974Y079922D01*
X041997Y079906D01*
X042018Y079888D01*
X042035Y079867D01*
X042050Y079843D01*
X042061Y079818D01*
X042069Y079792D01*
X042073Y079765D01*
X042073Y079737D01*
X042069Y079710D01*
X042061Y079684D01*
X042050Y079659D01*
X042035Y079635D01*
X042018Y079614D01*
X041997Y079596D01*
X041975Y079580D01*
X041950Y079568D01*
X041924Y079560D01*
X041897Y079555D01*
X041869Y079554D01*
X041842Y079557D01*
X041815Y079564D01*
X041790Y079574D01*
X041766Y079588D01*
X041744Y079605D01*
X041725Y079624D01*
X041709Y079647D01*
X041696Y079671D01*
X041687Y079697D01*
X041681Y079724D01*
X041679Y079751D01*
X041179Y072251D02*
X041181Y072278D01*
X041187Y072305D01*
X041196Y072331D01*
X041209Y072355D01*
X041225Y072378D01*
X041244Y072397D01*
X041266Y072414D01*
X041290Y072428D01*
X041315Y072438D01*
X041342Y072445D01*
X041369Y072448D01*
X041397Y072447D01*
X041424Y072442D01*
X041450Y072434D01*
X041474Y072422D01*
X041497Y072406D01*
X041518Y072388D01*
X041535Y072367D01*
X041550Y072343D01*
X041561Y072318D01*
X041569Y072292D01*
X041573Y072265D01*
X041573Y072237D01*
X041569Y072210D01*
X041561Y072184D01*
X041550Y072159D01*
X041535Y072135D01*
X041518Y072114D01*
X041497Y072096D01*
X041475Y072080D01*
X041450Y072068D01*
X041424Y072060D01*
X041397Y072055D01*
X041369Y072054D01*
X041342Y072057D01*
X041315Y072064D01*
X041290Y072074D01*
X041266Y072088D01*
X041244Y072105D01*
X041225Y072124D01*
X041209Y072147D01*
X041196Y072171D01*
X041187Y072197D01*
X041181Y072224D01*
X041179Y072251D01*
X034179Y079751D02*
X034181Y079778D01*
X034187Y079805D01*
X034196Y079831D01*
X034209Y079855D01*
X034225Y079878D01*
X034244Y079897D01*
X034266Y079914D01*
X034290Y079928D01*
X034315Y079938D01*
X034342Y079945D01*
X034369Y079948D01*
X034397Y079947D01*
X034424Y079942D01*
X034450Y079934D01*
X034474Y079922D01*
X034497Y079906D01*
X034518Y079888D01*
X034535Y079867D01*
X034550Y079843D01*
X034561Y079818D01*
X034569Y079792D01*
X034573Y079765D01*
X034573Y079737D01*
X034569Y079710D01*
X034561Y079684D01*
X034550Y079659D01*
X034535Y079635D01*
X034518Y079614D01*
X034497Y079596D01*
X034475Y079580D01*
X034450Y079568D01*
X034424Y079560D01*
X034397Y079555D01*
X034369Y079554D01*
X034342Y079557D01*
X034315Y079564D01*
X034290Y079574D01*
X034266Y079588D01*
X034244Y079605D01*
X034225Y079624D01*
X034209Y079647D01*
X034196Y079671D01*
X034187Y079697D01*
X034181Y079724D01*
X034179Y079751D01*
X032679Y072251D02*
X032681Y072278D01*
X032687Y072305D01*
X032696Y072331D01*
X032709Y072355D01*
X032725Y072378D01*
X032744Y072397D01*
X032766Y072414D01*
X032790Y072428D01*
X032815Y072438D01*
X032842Y072445D01*
X032869Y072448D01*
X032897Y072447D01*
X032924Y072442D01*
X032950Y072434D01*
X032974Y072422D01*
X032997Y072406D01*
X033018Y072388D01*
X033035Y072367D01*
X033050Y072343D01*
X033061Y072318D01*
X033069Y072292D01*
X033073Y072265D01*
X033073Y072237D01*
X033069Y072210D01*
X033061Y072184D01*
X033050Y072159D01*
X033035Y072135D01*
X033018Y072114D01*
X032997Y072096D01*
X032975Y072080D01*
X032950Y072068D01*
X032924Y072060D01*
X032897Y072055D01*
X032869Y072054D01*
X032842Y072057D01*
X032815Y072064D01*
X032790Y072074D01*
X032766Y072088D01*
X032744Y072105D01*
X032725Y072124D01*
X032709Y072147D01*
X032696Y072171D01*
X032687Y072197D01*
X032681Y072224D01*
X032679Y072251D01*
X026679Y079751D02*
X026681Y079778D01*
X026687Y079805D01*
X026696Y079831D01*
X026709Y079855D01*
X026725Y079878D01*
X026744Y079897D01*
X026766Y079914D01*
X026790Y079928D01*
X026815Y079938D01*
X026842Y079945D01*
X026869Y079948D01*
X026897Y079947D01*
X026924Y079942D01*
X026950Y079934D01*
X026974Y079922D01*
X026997Y079906D01*
X027018Y079888D01*
X027035Y079867D01*
X027050Y079843D01*
X027061Y079818D01*
X027069Y079792D01*
X027073Y079765D01*
X027073Y079737D01*
X027069Y079710D01*
X027061Y079684D01*
X027050Y079659D01*
X027035Y079635D01*
X027018Y079614D01*
X026997Y079596D01*
X026975Y079580D01*
X026950Y079568D01*
X026924Y079560D01*
X026897Y079555D01*
X026869Y079554D01*
X026842Y079557D01*
X026815Y079564D01*
X026790Y079574D01*
X026766Y079588D01*
X026744Y079605D01*
X026725Y079624D01*
X026709Y079647D01*
X026696Y079671D01*
X026687Y079697D01*
X026681Y079724D01*
X026679Y079751D01*
X026679Y087251D02*
X026681Y087278D01*
X026687Y087305D01*
X026696Y087331D01*
X026709Y087355D01*
X026725Y087378D01*
X026744Y087397D01*
X026766Y087414D01*
X026790Y087428D01*
X026815Y087438D01*
X026842Y087445D01*
X026869Y087448D01*
X026897Y087447D01*
X026924Y087442D01*
X026950Y087434D01*
X026974Y087422D01*
X026997Y087406D01*
X027018Y087388D01*
X027035Y087367D01*
X027050Y087343D01*
X027061Y087318D01*
X027069Y087292D01*
X027073Y087265D01*
X027073Y087237D01*
X027069Y087210D01*
X027061Y087184D01*
X027050Y087159D01*
X027035Y087135D01*
X027018Y087114D01*
X026997Y087096D01*
X026975Y087080D01*
X026950Y087068D01*
X026924Y087060D01*
X026897Y087055D01*
X026869Y087054D01*
X026842Y087057D01*
X026815Y087064D01*
X026790Y087074D01*
X026766Y087088D01*
X026744Y087105D01*
X026725Y087124D01*
X026709Y087147D01*
X026696Y087171D01*
X026687Y087197D01*
X026681Y087224D01*
X026679Y087251D01*
X026679Y094751D02*
X026681Y094778D01*
X026687Y094805D01*
X026696Y094831D01*
X026709Y094855D01*
X026725Y094878D01*
X026744Y094897D01*
X026766Y094914D01*
X026790Y094928D01*
X026815Y094938D01*
X026842Y094945D01*
X026869Y094948D01*
X026897Y094947D01*
X026924Y094942D01*
X026950Y094934D01*
X026974Y094922D01*
X026997Y094906D01*
X027018Y094888D01*
X027035Y094867D01*
X027050Y094843D01*
X027061Y094818D01*
X027069Y094792D01*
X027073Y094765D01*
X027073Y094737D01*
X027069Y094710D01*
X027061Y094684D01*
X027050Y094659D01*
X027035Y094635D01*
X027018Y094614D01*
X026997Y094596D01*
X026975Y094580D01*
X026950Y094568D01*
X026924Y094560D01*
X026897Y094555D01*
X026869Y094554D01*
X026842Y094557D01*
X026815Y094564D01*
X026790Y094574D01*
X026766Y094588D01*
X026744Y094605D01*
X026725Y094624D01*
X026709Y094647D01*
X026696Y094671D01*
X026687Y094697D01*
X026681Y094724D01*
X026679Y094751D01*
X026679Y102251D02*
X026681Y102278D01*
X026687Y102305D01*
X026696Y102331D01*
X026709Y102355D01*
X026725Y102378D01*
X026744Y102397D01*
X026766Y102414D01*
X026790Y102428D01*
X026815Y102438D01*
X026842Y102445D01*
X026869Y102448D01*
X026897Y102447D01*
X026924Y102442D01*
X026950Y102434D01*
X026974Y102422D01*
X026997Y102406D01*
X027018Y102388D01*
X027035Y102367D01*
X027050Y102343D01*
X027061Y102318D01*
X027069Y102292D01*
X027073Y102265D01*
X027073Y102237D01*
X027069Y102210D01*
X027061Y102184D01*
X027050Y102159D01*
X027035Y102135D01*
X027018Y102114D01*
X026997Y102096D01*
X026975Y102080D01*
X026950Y102068D01*
X026924Y102060D01*
X026897Y102055D01*
X026869Y102054D01*
X026842Y102057D01*
X026815Y102064D01*
X026790Y102074D01*
X026766Y102088D01*
X026744Y102105D01*
X026725Y102124D01*
X026709Y102147D01*
X026696Y102171D01*
X026687Y102197D01*
X026681Y102224D01*
X026679Y102251D01*
X029679Y112751D02*
X029681Y112778D01*
X029687Y112805D01*
X029696Y112831D01*
X029709Y112855D01*
X029725Y112878D01*
X029744Y112897D01*
X029766Y112914D01*
X029790Y112928D01*
X029815Y112938D01*
X029842Y112945D01*
X029869Y112948D01*
X029897Y112947D01*
X029924Y112942D01*
X029950Y112934D01*
X029974Y112922D01*
X029997Y112906D01*
X030018Y112888D01*
X030035Y112867D01*
X030050Y112843D01*
X030061Y112818D01*
X030069Y112792D01*
X030073Y112765D01*
X030073Y112737D01*
X030069Y112710D01*
X030061Y112684D01*
X030050Y112659D01*
X030035Y112635D01*
X030018Y112614D01*
X029997Y112596D01*
X029975Y112580D01*
X029950Y112568D01*
X029924Y112560D01*
X029897Y112555D01*
X029869Y112554D01*
X029842Y112557D01*
X029815Y112564D01*
X029790Y112574D01*
X029766Y112588D01*
X029744Y112605D01*
X029725Y112624D01*
X029709Y112647D01*
X029696Y112671D01*
X029687Y112697D01*
X029681Y112724D01*
X029679Y112751D01*
X037179Y112751D02*
X037181Y112778D01*
X037187Y112805D01*
X037196Y112831D01*
X037209Y112855D01*
X037225Y112878D01*
X037244Y112897D01*
X037266Y112914D01*
X037290Y112928D01*
X037315Y112938D01*
X037342Y112945D01*
X037369Y112948D01*
X037397Y112947D01*
X037424Y112942D01*
X037450Y112934D01*
X037474Y112922D01*
X037497Y112906D01*
X037518Y112888D01*
X037535Y112867D01*
X037550Y112843D01*
X037561Y112818D01*
X037569Y112792D01*
X037573Y112765D01*
X037573Y112737D01*
X037569Y112710D01*
X037561Y112684D01*
X037550Y112659D01*
X037535Y112635D01*
X037518Y112614D01*
X037497Y112596D01*
X037475Y112580D01*
X037450Y112568D01*
X037424Y112560D01*
X037397Y112555D01*
X037369Y112554D01*
X037342Y112557D01*
X037315Y112564D01*
X037290Y112574D01*
X037266Y112588D01*
X037244Y112605D01*
X037225Y112624D01*
X037209Y112647D01*
X037196Y112671D01*
X037187Y112697D01*
X037181Y112724D01*
X037179Y112751D01*
X034179Y102251D02*
X034181Y102278D01*
X034187Y102305D01*
X034196Y102331D01*
X034209Y102355D01*
X034225Y102378D01*
X034244Y102397D01*
X034266Y102414D01*
X034290Y102428D01*
X034315Y102438D01*
X034342Y102445D01*
X034369Y102448D01*
X034397Y102447D01*
X034424Y102442D01*
X034450Y102434D01*
X034474Y102422D01*
X034497Y102406D01*
X034518Y102388D01*
X034535Y102367D01*
X034550Y102343D01*
X034561Y102318D01*
X034569Y102292D01*
X034573Y102265D01*
X034573Y102237D01*
X034569Y102210D01*
X034561Y102184D01*
X034550Y102159D01*
X034535Y102135D01*
X034518Y102114D01*
X034497Y102096D01*
X034475Y102080D01*
X034450Y102068D01*
X034424Y102060D01*
X034397Y102055D01*
X034369Y102054D01*
X034342Y102057D01*
X034315Y102064D01*
X034290Y102074D01*
X034266Y102088D01*
X034244Y102105D01*
X034225Y102124D01*
X034209Y102147D01*
X034196Y102171D01*
X034187Y102197D01*
X034181Y102224D01*
X034179Y102251D01*
X034179Y094751D02*
X034181Y094778D01*
X034187Y094805D01*
X034196Y094831D01*
X034209Y094855D01*
X034225Y094878D01*
X034244Y094897D01*
X034266Y094914D01*
X034290Y094928D01*
X034315Y094938D01*
X034342Y094945D01*
X034369Y094948D01*
X034397Y094947D01*
X034424Y094942D01*
X034450Y094934D01*
X034474Y094922D01*
X034497Y094906D01*
X034518Y094888D01*
X034535Y094867D01*
X034550Y094843D01*
X034561Y094818D01*
X034569Y094792D01*
X034573Y094765D01*
X034573Y094737D01*
X034569Y094710D01*
X034561Y094684D01*
X034550Y094659D01*
X034535Y094635D01*
X034518Y094614D01*
X034497Y094596D01*
X034475Y094580D01*
X034450Y094568D01*
X034424Y094560D01*
X034397Y094555D01*
X034369Y094554D01*
X034342Y094557D01*
X034315Y094564D01*
X034290Y094574D01*
X034266Y094588D01*
X034244Y094605D01*
X034225Y094624D01*
X034209Y094647D01*
X034196Y094671D01*
X034187Y094697D01*
X034181Y094724D01*
X034179Y094751D01*
X034179Y087251D02*
X034181Y087278D01*
X034187Y087305D01*
X034196Y087331D01*
X034209Y087355D01*
X034225Y087378D01*
X034244Y087397D01*
X034266Y087414D01*
X034290Y087428D01*
X034315Y087438D01*
X034342Y087445D01*
X034369Y087448D01*
X034397Y087447D01*
X034424Y087442D01*
X034450Y087434D01*
X034474Y087422D01*
X034497Y087406D01*
X034518Y087388D01*
X034535Y087367D01*
X034550Y087343D01*
X034561Y087318D01*
X034569Y087292D01*
X034573Y087265D01*
X034573Y087237D01*
X034569Y087210D01*
X034561Y087184D01*
X034550Y087159D01*
X034535Y087135D01*
X034518Y087114D01*
X034497Y087096D01*
X034475Y087080D01*
X034450Y087068D01*
X034424Y087060D01*
X034397Y087055D01*
X034369Y087054D01*
X034342Y087057D01*
X034315Y087064D01*
X034290Y087074D01*
X034266Y087088D01*
X034244Y087105D01*
X034225Y087124D01*
X034209Y087147D01*
X034196Y087171D01*
X034187Y087197D01*
X034181Y087224D01*
X034179Y087251D01*
X041679Y087251D02*
X041681Y087278D01*
X041687Y087305D01*
X041696Y087331D01*
X041709Y087355D01*
X041725Y087378D01*
X041744Y087397D01*
X041766Y087414D01*
X041790Y087428D01*
X041815Y087438D01*
X041842Y087445D01*
X041869Y087448D01*
X041897Y087447D01*
X041924Y087442D01*
X041950Y087434D01*
X041974Y087422D01*
X041997Y087406D01*
X042018Y087388D01*
X042035Y087367D01*
X042050Y087343D01*
X042061Y087318D01*
X042069Y087292D01*
X042073Y087265D01*
X042073Y087237D01*
X042069Y087210D01*
X042061Y087184D01*
X042050Y087159D01*
X042035Y087135D01*
X042018Y087114D01*
X041997Y087096D01*
X041975Y087080D01*
X041950Y087068D01*
X041924Y087060D01*
X041897Y087055D01*
X041869Y087054D01*
X041842Y087057D01*
X041815Y087064D01*
X041790Y087074D01*
X041766Y087088D01*
X041744Y087105D01*
X041725Y087124D01*
X041709Y087147D01*
X041696Y087171D01*
X041687Y087197D01*
X041681Y087224D01*
X041679Y087251D01*
X041679Y094751D02*
X041681Y094778D01*
X041687Y094805D01*
X041696Y094831D01*
X041709Y094855D01*
X041725Y094878D01*
X041744Y094897D01*
X041766Y094914D01*
X041790Y094928D01*
X041815Y094938D01*
X041842Y094945D01*
X041869Y094948D01*
X041897Y094947D01*
X041924Y094942D01*
X041950Y094934D01*
X041974Y094922D01*
X041997Y094906D01*
X042018Y094888D01*
X042035Y094867D01*
X042050Y094843D01*
X042061Y094818D01*
X042069Y094792D01*
X042073Y094765D01*
X042073Y094737D01*
X042069Y094710D01*
X042061Y094684D01*
X042050Y094659D01*
X042035Y094635D01*
X042018Y094614D01*
X041997Y094596D01*
X041975Y094580D01*
X041950Y094568D01*
X041924Y094560D01*
X041897Y094555D01*
X041869Y094554D01*
X041842Y094557D01*
X041815Y094564D01*
X041790Y094574D01*
X041766Y094588D01*
X041744Y094605D01*
X041725Y094624D01*
X041709Y094647D01*
X041696Y094671D01*
X041687Y094697D01*
X041681Y094724D01*
X041679Y094751D01*
X041679Y102251D02*
X041681Y102278D01*
X041687Y102305D01*
X041696Y102331D01*
X041709Y102355D01*
X041725Y102378D01*
X041744Y102397D01*
X041766Y102414D01*
X041790Y102428D01*
X041815Y102438D01*
X041842Y102445D01*
X041869Y102448D01*
X041897Y102447D01*
X041924Y102442D01*
X041950Y102434D01*
X041974Y102422D01*
X041997Y102406D01*
X042018Y102388D01*
X042035Y102367D01*
X042050Y102343D01*
X042061Y102318D01*
X042069Y102292D01*
X042073Y102265D01*
X042073Y102237D01*
X042069Y102210D01*
X042061Y102184D01*
X042050Y102159D01*
X042035Y102135D01*
X042018Y102114D01*
X041997Y102096D01*
X041975Y102080D01*
X041950Y102068D01*
X041924Y102060D01*
X041897Y102055D01*
X041869Y102054D01*
X041842Y102057D01*
X041815Y102064D01*
X041790Y102074D01*
X041766Y102088D01*
X041744Y102105D01*
X041725Y102124D01*
X041709Y102147D01*
X041696Y102171D01*
X041687Y102197D01*
X041681Y102224D01*
X041679Y102251D01*
X044679Y112751D02*
X044681Y112778D01*
X044687Y112805D01*
X044696Y112831D01*
X044709Y112855D01*
X044725Y112878D01*
X044744Y112897D01*
X044766Y112914D01*
X044790Y112928D01*
X044815Y112938D01*
X044842Y112945D01*
X044869Y112948D01*
X044897Y112947D01*
X044924Y112942D01*
X044950Y112934D01*
X044974Y112922D01*
X044997Y112906D01*
X045018Y112888D01*
X045035Y112867D01*
X045050Y112843D01*
X045061Y112818D01*
X045069Y112792D01*
X045073Y112765D01*
X045073Y112737D01*
X045069Y112710D01*
X045061Y112684D01*
X045050Y112659D01*
X045035Y112635D01*
X045018Y112614D01*
X044997Y112596D01*
X044975Y112580D01*
X044950Y112568D01*
X044924Y112560D01*
X044897Y112555D01*
X044869Y112554D01*
X044842Y112557D01*
X044815Y112564D01*
X044790Y112574D01*
X044766Y112588D01*
X044744Y112605D01*
X044725Y112624D01*
X044709Y112647D01*
X044696Y112671D01*
X044687Y112697D01*
X044681Y112724D01*
X044679Y112751D01*
X049179Y102251D02*
X049181Y102278D01*
X049187Y102305D01*
X049196Y102331D01*
X049209Y102355D01*
X049225Y102378D01*
X049244Y102397D01*
X049266Y102414D01*
X049290Y102428D01*
X049315Y102438D01*
X049342Y102445D01*
X049369Y102448D01*
X049397Y102447D01*
X049424Y102442D01*
X049450Y102434D01*
X049474Y102422D01*
X049497Y102406D01*
X049518Y102388D01*
X049535Y102367D01*
X049550Y102343D01*
X049561Y102318D01*
X049569Y102292D01*
X049573Y102265D01*
X049573Y102237D01*
X049569Y102210D01*
X049561Y102184D01*
X049550Y102159D01*
X049535Y102135D01*
X049518Y102114D01*
X049497Y102096D01*
X049475Y102080D01*
X049450Y102068D01*
X049424Y102060D01*
X049397Y102055D01*
X049369Y102054D01*
X049342Y102057D01*
X049315Y102064D01*
X049290Y102074D01*
X049266Y102088D01*
X049244Y102105D01*
X049225Y102124D01*
X049209Y102147D01*
X049196Y102171D01*
X049187Y102197D01*
X049181Y102224D01*
X049179Y102251D01*
X049179Y094751D02*
X049181Y094778D01*
X049187Y094805D01*
X049196Y094831D01*
X049209Y094855D01*
X049225Y094878D01*
X049244Y094897D01*
X049266Y094914D01*
X049290Y094928D01*
X049315Y094938D01*
X049342Y094945D01*
X049369Y094948D01*
X049397Y094947D01*
X049424Y094942D01*
X049450Y094934D01*
X049474Y094922D01*
X049497Y094906D01*
X049518Y094888D01*
X049535Y094867D01*
X049550Y094843D01*
X049561Y094818D01*
X049569Y094792D01*
X049573Y094765D01*
X049573Y094737D01*
X049569Y094710D01*
X049561Y094684D01*
X049550Y094659D01*
X049535Y094635D01*
X049518Y094614D01*
X049497Y094596D01*
X049475Y094580D01*
X049450Y094568D01*
X049424Y094560D01*
X049397Y094555D01*
X049369Y094554D01*
X049342Y094557D01*
X049315Y094564D01*
X049290Y094574D01*
X049266Y094588D01*
X049244Y094605D01*
X049225Y094624D01*
X049209Y094647D01*
X049196Y094671D01*
X049187Y094697D01*
X049181Y094724D01*
X049179Y094751D01*
X049179Y087251D02*
X049181Y087278D01*
X049187Y087305D01*
X049196Y087331D01*
X049209Y087355D01*
X049225Y087378D01*
X049244Y087397D01*
X049266Y087414D01*
X049290Y087428D01*
X049315Y087438D01*
X049342Y087445D01*
X049369Y087448D01*
X049397Y087447D01*
X049424Y087442D01*
X049450Y087434D01*
X049474Y087422D01*
X049497Y087406D01*
X049518Y087388D01*
X049535Y087367D01*
X049550Y087343D01*
X049561Y087318D01*
X049569Y087292D01*
X049573Y087265D01*
X049573Y087237D01*
X049569Y087210D01*
X049561Y087184D01*
X049550Y087159D01*
X049535Y087135D01*
X049518Y087114D01*
X049497Y087096D01*
X049475Y087080D01*
X049450Y087068D01*
X049424Y087060D01*
X049397Y087055D01*
X049369Y087054D01*
X049342Y087057D01*
X049315Y087064D01*
X049290Y087074D01*
X049266Y087088D01*
X049244Y087105D01*
X049225Y087124D01*
X049209Y087147D01*
X049196Y087171D01*
X049187Y087197D01*
X049181Y087224D01*
X049179Y087251D01*
X049179Y079751D02*
X049181Y079778D01*
X049187Y079805D01*
X049196Y079831D01*
X049209Y079855D01*
X049225Y079878D01*
X049244Y079897D01*
X049266Y079914D01*
X049290Y079928D01*
X049315Y079938D01*
X049342Y079945D01*
X049369Y079948D01*
X049397Y079947D01*
X049424Y079942D01*
X049450Y079934D01*
X049474Y079922D01*
X049497Y079906D01*
X049518Y079888D01*
X049535Y079867D01*
X049550Y079843D01*
X049561Y079818D01*
X049569Y079792D01*
X049573Y079765D01*
X049573Y079737D01*
X049569Y079710D01*
X049561Y079684D01*
X049550Y079659D01*
X049535Y079635D01*
X049518Y079614D01*
X049497Y079596D01*
X049475Y079580D01*
X049450Y079568D01*
X049424Y079560D01*
X049397Y079555D01*
X049369Y079554D01*
X049342Y079557D01*
X049315Y079564D01*
X049290Y079574D01*
X049266Y079588D01*
X049244Y079605D01*
X049225Y079624D01*
X049209Y079647D01*
X049196Y079671D01*
X049187Y079697D01*
X049181Y079724D01*
X049179Y079751D01*
X050679Y072251D02*
X050681Y072278D01*
X050687Y072305D01*
X050696Y072331D01*
X050709Y072355D01*
X050725Y072378D01*
X050744Y072397D01*
X050766Y072414D01*
X050790Y072428D01*
X050815Y072438D01*
X050842Y072445D01*
X050869Y072448D01*
X050897Y072447D01*
X050924Y072442D01*
X050950Y072434D01*
X050974Y072422D01*
X050997Y072406D01*
X051018Y072388D01*
X051035Y072367D01*
X051050Y072343D01*
X051061Y072318D01*
X051069Y072292D01*
X051073Y072265D01*
X051073Y072237D01*
X051069Y072210D01*
X051061Y072184D01*
X051050Y072159D01*
X051035Y072135D01*
X051018Y072114D01*
X050997Y072096D01*
X050975Y072080D01*
X050950Y072068D01*
X050924Y072060D01*
X050897Y072055D01*
X050869Y072054D01*
X050842Y072057D01*
X050815Y072064D01*
X050790Y072074D01*
X050766Y072088D01*
X050744Y072105D01*
X050725Y072124D01*
X050709Y072147D01*
X050696Y072171D01*
X050687Y072197D01*
X050681Y072224D01*
X050679Y072251D01*
X056679Y079751D02*
X056681Y079778D01*
X056687Y079805D01*
X056696Y079831D01*
X056709Y079855D01*
X056725Y079878D01*
X056744Y079897D01*
X056766Y079914D01*
X056790Y079928D01*
X056815Y079938D01*
X056842Y079945D01*
X056869Y079948D01*
X056897Y079947D01*
X056924Y079942D01*
X056950Y079934D01*
X056974Y079922D01*
X056997Y079906D01*
X057018Y079888D01*
X057035Y079867D01*
X057050Y079843D01*
X057061Y079818D01*
X057069Y079792D01*
X057073Y079765D01*
X057073Y079737D01*
X057069Y079710D01*
X057061Y079684D01*
X057050Y079659D01*
X057035Y079635D01*
X057018Y079614D01*
X056997Y079596D01*
X056975Y079580D01*
X056950Y079568D01*
X056924Y079560D01*
X056897Y079555D01*
X056869Y079554D01*
X056842Y079557D01*
X056815Y079564D01*
X056790Y079574D01*
X056766Y079588D01*
X056744Y079605D01*
X056725Y079624D01*
X056709Y079647D01*
X056696Y079671D01*
X056687Y079697D01*
X056681Y079724D01*
X056679Y079751D01*
X060179Y072251D02*
X060181Y072278D01*
X060187Y072305D01*
X060196Y072331D01*
X060209Y072355D01*
X060225Y072378D01*
X060244Y072397D01*
X060266Y072414D01*
X060290Y072428D01*
X060315Y072438D01*
X060342Y072445D01*
X060369Y072448D01*
X060397Y072447D01*
X060424Y072442D01*
X060450Y072434D01*
X060474Y072422D01*
X060497Y072406D01*
X060518Y072388D01*
X060535Y072367D01*
X060550Y072343D01*
X060561Y072318D01*
X060569Y072292D01*
X060573Y072265D01*
X060573Y072237D01*
X060569Y072210D01*
X060561Y072184D01*
X060550Y072159D01*
X060535Y072135D01*
X060518Y072114D01*
X060497Y072096D01*
X060475Y072080D01*
X060450Y072068D01*
X060424Y072060D01*
X060397Y072055D01*
X060369Y072054D01*
X060342Y072057D01*
X060315Y072064D01*
X060290Y072074D01*
X060266Y072088D01*
X060244Y072105D01*
X060225Y072124D01*
X060209Y072147D01*
X060196Y072171D01*
X060187Y072197D01*
X060181Y072224D01*
X060179Y072251D01*
X066179Y079751D02*
X066181Y079778D01*
X066187Y079805D01*
X066196Y079831D01*
X066209Y079855D01*
X066225Y079878D01*
X066244Y079897D01*
X066266Y079914D01*
X066290Y079928D01*
X066315Y079938D01*
X066342Y079945D01*
X066369Y079948D01*
X066397Y079947D01*
X066424Y079942D01*
X066450Y079934D01*
X066474Y079922D01*
X066497Y079906D01*
X066518Y079888D01*
X066535Y079867D01*
X066550Y079843D01*
X066561Y079818D01*
X066569Y079792D01*
X066573Y079765D01*
X066573Y079737D01*
X066569Y079710D01*
X066561Y079684D01*
X066550Y079659D01*
X066535Y079635D01*
X066518Y079614D01*
X066497Y079596D01*
X066475Y079580D01*
X066450Y079568D01*
X066424Y079560D01*
X066397Y079555D01*
X066369Y079554D01*
X066342Y079557D01*
X066315Y079564D01*
X066290Y079574D01*
X066266Y079588D01*
X066244Y079605D01*
X066225Y079624D01*
X066209Y079647D01*
X066196Y079671D01*
X066187Y079697D01*
X066181Y079724D01*
X066179Y079751D01*
X068679Y072251D02*
X068681Y072278D01*
X068687Y072305D01*
X068696Y072331D01*
X068709Y072355D01*
X068725Y072378D01*
X068744Y072397D01*
X068766Y072414D01*
X068790Y072428D01*
X068815Y072438D01*
X068842Y072445D01*
X068869Y072448D01*
X068897Y072447D01*
X068924Y072442D01*
X068950Y072434D01*
X068974Y072422D01*
X068997Y072406D01*
X069018Y072388D01*
X069035Y072367D01*
X069050Y072343D01*
X069061Y072318D01*
X069069Y072292D01*
X069073Y072265D01*
X069073Y072237D01*
X069069Y072210D01*
X069061Y072184D01*
X069050Y072159D01*
X069035Y072135D01*
X069018Y072114D01*
X068997Y072096D01*
X068975Y072080D01*
X068950Y072068D01*
X068924Y072060D01*
X068897Y072055D01*
X068869Y072054D01*
X068842Y072057D01*
X068815Y072064D01*
X068790Y072074D01*
X068766Y072088D01*
X068744Y072105D01*
X068725Y072124D01*
X068709Y072147D01*
X068696Y072171D01*
X068687Y072197D01*
X068681Y072224D01*
X068679Y072251D01*
X061429Y087251D02*
X061431Y087278D01*
X061437Y087305D01*
X061446Y087331D01*
X061459Y087355D01*
X061475Y087378D01*
X061494Y087397D01*
X061516Y087414D01*
X061540Y087428D01*
X061565Y087438D01*
X061592Y087445D01*
X061619Y087448D01*
X061647Y087447D01*
X061674Y087442D01*
X061700Y087434D01*
X061724Y087422D01*
X061747Y087406D01*
X061768Y087388D01*
X061785Y087367D01*
X061800Y087343D01*
X061811Y087318D01*
X061819Y087292D01*
X061823Y087265D01*
X061823Y087237D01*
X061819Y087210D01*
X061811Y087184D01*
X061800Y087159D01*
X061785Y087135D01*
X061768Y087114D01*
X061747Y087096D01*
X061725Y087080D01*
X061700Y087068D01*
X061674Y087060D01*
X061647Y087055D01*
X061619Y087054D01*
X061592Y087057D01*
X061565Y087064D01*
X061540Y087074D01*
X061516Y087088D01*
X061494Y087105D01*
X061475Y087124D01*
X061459Y087147D01*
X061446Y087171D01*
X061437Y087197D01*
X061431Y087224D01*
X061429Y087251D01*
X059839Y087251D02*
X059841Y087307D01*
X059847Y087362D01*
X059857Y087416D01*
X059870Y087470D01*
X059888Y087523D01*
X059909Y087574D01*
X059933Y087624D01*
X059961Y087672D01*
X059993Y087718D01*
X060027Y087762D01*
X060065Y087803D01*
X060105Y087841D01*
X060148Y087876D01*
X060193Y087908D01*
X060241Y087937D01*
X060290Y087963D01*
X060341Y087985D01*
X060393Y088003D01*
X060447Y088017D01*
X060502Y088028D01*
X060557Y088035D01*
X060612Y088038D01*
X060668Y088037D01*
X060723Y088032D01*
X060778Y088023D01*
X060832Y088011D01*
X060885Y087994D01*
X060937Y087974D01*
X060987Y087950D01*
X061035Y087923D01*
X061082Y087893D01*
X061126Y087859D01*
X061168Y087822D01*
X061206Y087782D01*
X061243Y087740D01*
X061276Y087695D01*
X061305Y087649D01*
X061332Y087600D01*
X061354Y087549D01*
X061374Y087497D01*
X061389Y087443D01*
X061401Y087389D01*
X061409Y087334D01*
X061413Y087279D01*
X061413Y087223D01*
X061409Y087168D01*
X061401Y087113D01*
X061389Y087059D01*
X061374Y087005D01*
X061354Y086953D01*
X061332Y086902D01*
X061305Y086853D01*
X061276Y086807D01*
X061243Y086762D01*
X061206Y086720D01*
X061168Y086680D01*
X061126Y086643D01*
X061082Y086609D01*
X061035Y086579D01*
X060987Y086552D01*
X060937Y086528D01*
X060885Y086508D01*
X060832Y086491D01*
X060778Y086479D01*
X060723Y086470D01*
X060668Y086465D01*
X060612Y086464D01*
X060557Y086467D01*
X060502Y086474D01*
X060447Y086485D01*
X060393Y086499D01*
X060341Y086517D01*
X060290Y086539D01*
X060241Y086565D01*
X060193Y086594D01*
X060148Y086626D01*
X060105Y086661D01*
X060065Y086699D01*
X060027Y086740D01*
X059993Y086784D01*
X059961Y086830D01*
X059933Y086878D01*
X059909Y086928D01*
X059888Y086979D01*
X059870Y087032D01*
X059857Y087086D01*
X059847Y087140D01*
X059841Y087195D01*
X059839Y087251D01*
X056679Y094751D02*
X056681Y094778D01*
X056687Y094805D01*
X056696Y094831D01*
X056709Y094855D01*
X056725Y094878D01*
X056744Y094897D01*
X056766Y094914D01*
X056790Y094928D01*
X056815Y094938D01*
X056842Y094945D01*
X056869Y094948D01*
X056897Y094947D01*
X056924Y094942D01*
X056950Y094934D01*
X056974Y094922D01*
X056997Y094906D01*
X057018Y094888D01*
X057035Y094867D01*
X057050Y094843D01*
X057061Y094818D01*
X057069Y094792D01*
X057073Y094765D01*
X057073Y094737D01*
X057069Y094710D01*
X057061Y094684D01*
X057050Y094659D01*
X057035Y094635D01*
X057018Y094614D01*
X056997Y094596D01*
X056975Y094580D01*
X056950Y094568D01*
X056924Y094560D01*
X056897Y094555D01*
X056869Y094554D01*
X056842Y094557D01*
X056815Y094564D01*
X056790Y094574D01*
X056766Y094588D01*
X056744Y094605D01*
X056725Y094624D01*
X056709Y094647D01*
X056696Y094671D01*
X056687Y094697D01*
X056681Y094724D01*
X056679Y094751D01*
X060429Y102251D02*
X060431Y102278D01*
X060437Y102305D01*
X060446Y102331D01*
X060459Y102355D01*
X060475Y102378D01*
X060494Y102397D01*
X060516Y102414D01*
X060540Y102428D01*
X060565Y102438D01*
X060592Y102445D01*
X060619Y102448D01*
X060647Y102447D01*
X060674Y102442D01*
X060700Y102434D01*
X060724Y102422D01*
X060747Y102406D01*
X060768Y102388D01*
X060785Y102367D01*
X060800Y102343D01*
X060811Y102318D01*
X060819Y102292D01*
X060823Y102265D01*
X060823Y102237D01*
X060819Y102210D01*
X060811Y102184D01*
X060800Y102159D01*
X060785Y102135D01*
X060768Y102114D01*
X060747Y102096D01*
X060725Y102080D01*
X060700Y102068D01*
X060674Y102060D01*
X060647Y102055D01*
X060619Y102054D01*
X060592Y102057D01*
X060565Y102064D01*
X060540Y102074D01*
X060516Y102088D01*
X060494Y102105D01*
X060475Y102124D01*
X060459Y102147D01*
X060446Y102171D01*
X060437Y102197D01*
X060431Y102224D01*
X060429Y102251D01*
X063589Y094751D02*
X063591Y094807D01*
X063597Y094862D01*
X063607Y094916D01*
X063620Y094970D01*
X063638Y095023D01*
X063659Y095074D01*
X063683Y095124D01*
X063711Y095172D01*
X063743Y095218D01*
X063777Y095262D01*
X063815Y095303D01*
X063855Y095341D01*
X063898Y095376D01*
X063943Y095408D01*
X063991Y095437D01*
X064040Y095463D01*
X064091Y095485D01*
X064143Y095503D01*
X064197Y095517D01*
X064252Y095528D01*
X064307Y095535D01*
X064362Y095538D01*
X064418Y095537D01*
X064473Y095532D01*
X064528Y095523D01*
X064582Y095511D01*
X064635Y095494D01*
X064687Y095474D01*
X064737Y095450D01*
X064785Y095423D01*
X064832Y095393D01*
X064876Y095359D01*
X064918Y095322D01*
X064956Y095282D01*
X064993Y095240D01*
X065026Y095195D01*
X065055Y095149D01*
X065082Y095100D01*
X065104Y095049D01*
X065124Y094997D01*
X065139Y094943D01*
X065151Y094889D01*
X065159Y094834D01*
X065163Y094779D01*
X065163Y094723D01*
X065159Y094668D01*
X065151Y094613D01*
X065139Y094559D01*
X065124Y094505D01*
X065104Y094453D01*
X065082Y094402D01*
X065055Y094353D01*
X065026Y094307D01*
X064993Y094262D01*
X064956Y094220D01*
X064918Y094180D01*
X064876Y094143D01*
X064832Y094109D01*
X064785Y094079D01*
X064737Y094052D01*
X064687Y094028D01*
X064635Y094008D01*
X064582Y093991D01*
X064528Y093979D01*
X064473Y093970D01*
X064418Y093965D01*
X064362Y093964D01*
X064307Y093967D01*
X064252Y093974D01*
X064197Y093985D01*
X064143Y093999D01*
X064091Y094017D01*
X064040Y094039D01*
X063991Y094065D01*
X063943Y094094D01*
X063898Y094126D01*
X063855Y094161D01*
X063815Y094199D01*
X063777Y094240D01*
X063743Y094284D01*
X063711Y094330D01*
X063683Y094378D01*
X063659Y094428D01*
X063638Y094479D01*
X063620Y094532D01*
X063607Y094586D01*
X063597Y094640D01*
X063591Y094695D01*
X063589Y094751D01*
X066179Y094751D02*
X066181Y094778D01*
X066187Y094805D01*
X066196Y094831D01*
X066209Y094855D01*
X066225Y094878D01*
X066244Y094897D01*
X066266Y094914D01*
X066290Y094928D01*
X066315Y094938D01*
X066342Y094945D01*
X066369Y094948D01*
X066397Y094947D01*
X066424Y094942D01*
X066450Y094934D01*
X066474Y094922D01*
X066497Y094906D01*
X066518Y094888D01*
X066535Y094867D01*
X066550Y094843D01*
X066561Y094818D01*
X066569Y094792D01*
X066573Y094765D01*
X066573Y094737D01*
X066569Y094710D01*
X066561Y094684D01*
X066550Y094659D01*
X066535Y094635D01*
X066518Y094614D01*
X066497Y094596D01*
X066475Y094580D01*
X066450Y094568D01*
X066424Y094560D01*
X066397Y094555D01*
X066369Y094554D01*
X066342Y094557D01*
X066315Y094564D01*
X066290Y094574D01*
X066266Y094588D01*
X066244Y094605D01*
X066225Y094624D01*
X066209Y094647D01*
X066196Y094671D01*
X066187Y094697D01*
X066181Y094724D01*
X066179Y094751D01*
X064179Y112751D02*
X064181Y112778D01*
X064187Y112805D01*
X064196Y112831D01*
X064209Y112855D01*
X064225Y112878D01*
X064244Y112897D01*
X064266Y112914D01*
X064290Y112928D01*
X064315Y112938D01*
X064342Y112945D01*
X064369Y112948D01*
X064397Y112947D01*
X064424Y112942D01*
X064450Y112934D01*
X064474Y112922D01*
X064497Y112906D01*
X064518Y112888D01*
X064535Y112867D01*
X064550Y112843D01*
X064561Y112818D01*
X064569Y112792D01*
X064573Y112765D01*
X064573Y112737D01*
X064569Y112710D01*
X064561Y112684D01*
X064550Y112659D01*
X064535Y112635D01*
X064518Y112614D01*
X064497Y112596D01*
X064475Y112580D01*
X064450Y112568D01*
X064424Y112560D01*
X064397Y112555D01*
X064369Y112554D01*
X064342Y112557D01*
X064315Y112564D01*
X064290Y112574D01*
X064266Y112588D01*
X064244Y112605D01*
X064225Y112624D01*
X064209Y112647D01*
X064196Y112671D01*
X064187Y112697D01*
X064181Y112724D01*
X064179Y112751D01*
X052179Y112751D02*
X052181Y112778D01*
X052187Y112805D01*
X052196Y112831D01*
X052209Y112855D01*
X052225Y112878D01*
X052244Y112897D01*
X052266Y112914D01*
X052290Y112928D01*
X052315Y112938D01*
X052342Y112945D01*
X052369Y112948D01*
X052397Y112947D01*
X052424Y112942D01*
X052450Y112934D01*
X052474Y112922D01*
X052497Y112906D01*
X052518Y112888D01*
X052535Y112867D01*
X052550Y112843D01*
X052561Y112818D01*
X052569Y112792D01*
X052573Y112765D01*
X052573Y112737D01*
X052569Y112710D01*
X052561Y112684D01*
X052550Y112659D01*
X052535Y112635D01*
X052518Y112614D01*
X052497Y112596D01*
X052475Y112580D01*
X052450Y112568D01*
X052424Y112560D01*
X052397Y112555D01*
X052369Y112554D01*
X052342Y112557D01*
X052315Y112564D01*
X052290Y112574D01*
X052266Y112588D01*
X052244Y112605D01*
X052225Y112624D01*
X052209Y112647D01*
X052196Y112671D01*
X052187Y112697D01*
X052181Y112724D01*
X052179Y112751D01*
X019179Y112751D02*
X019181Y112778D01*
X019187Y112805D01*
X019196Y112831D01*
X019209Y112855D01*
X019225Y112878D01*
X019244Y112897D01*
X019266Y112914D01*
X019290Y112928D01*
X019315Y112938D01*
X019342Y112945D01*
X019369Y112948D01*
X019397Y112947D01*
X019424Y112942D01*
X019450Y112934D01*
X019474Y112922D01*
X019497Y112906D01*
X019518Y112888D01*
X019535Y112867D01*
X019550Y112843D01*
X019561Y112818D01*
X019569Y112792D01*
X019573Y112765D01*
X019573Y112737D01*
X019569Y112710D01*
X019561Y112684D01*
X019550Y112659D01*
X019535Y112635D01*
X019518Y112614D01*
X019497Y112596D01*
X019475Y112580D01*
X019450Y112568D01*
X019424Y112560D01*
X019397Y112555D01*
X019369Y112554D01*
X019342Y112557D01*
X019315Y112564D01*
X019290Y112574D01*
X019266Y112588D01*
X019244Y112605D01*
X019225Y112624D01*
X019209Y112647D01*
X019196Y112671D01*
X019187Y112697D01*
X019181Y112724D01*
X019179Y112751D01*
X011679Y112751D02*
X011681Y112778D01*
X011687Y112805D01*
X011696Y112831D01*
X011709Y112855D01*
X011725Y112878D01*
X011744Y112897D01*
X011766Y112914D01*
X011790Y112928D01*
X011815Y112938D01*
X011842Y112945D01*
X011869Y112948D01*
X011897Y112947D01*
X011924Y112942D01*
X011950Y112934D01*
X011974Y112922D01*
X011997Y112906D01*
X012018Y112888D01*
X012035Y112867D01*
X012050Y112843D01*
X012061Y112818D01*
X012069Y112792D01*
X012073Y112765D01*
X012073Y112737D01*
X012069Y112710D01*
X012061Y112684D01*
X012050Y112659D01*
X012035Y112635D01*
X012018Y112614D01*
X011997Y112596D01*
X011975Y112580D01*
X011950Y112568D01*
X011924Y112560D01*
X011897Y112555D01*
X011869Y112554D01*
X011842Y112557D01*
X011815Y112564D01*
X011790Y112574D01*
X011766Y112588D01*
X011744Y112605D01*
X011725Y112624D01*
X011709Y112647D01*
X011696Y112671D01*
X011687Y112697D01*
X011681Y112724D01*
X011679Y112751D01*
X011679Y102251D02*
X011681Y102278D01*
X011687Y102305D01*
X011696Y102331D01*
X011709Y102355D01*
X011725Y102378D01*
X011744Y102397D01*
X011766Y102414D01*
X011790Y102428D01*
X011815Y102438D01*
X011842Y102445D01*
X011869Y102448D01*
X011897Y102447D01*
X011924Y102442D01*
X011950Y102434D01*
X011974Y102422D01*
X011997Y102406D01*
X012018Y102388D01*
X012035Y102367D01*
X012050Y102343D01*
X012061Y102318D01*
X012069Y102292D01*
X012073Y102265D01*
X012073Y102237D01*
X012069Y102210D01*
X012061Y102184D01*
X012050Y102159D01*
X012035Y102135D01*
X012018Y102114D01*
X011997Y102096D01*
X011975Y102080D01*
X011950Y102068D01*
X011924Y102060D01*
X011897Y102055D01*
X011869Y102054D01*
X011842Y102057D01*
X011815Y102064D01*
X011790Y102074D01*
X011766Y102088D01*
X011744Y102105D01*
X011725Y102124D01*
X011709Y102147D01*
X011696Y102171D01*
X011687Y102197D01*
X011681Y102224D01*
X011679Y102251D01*
X011679Y094751D02*
X011681Y094778D01*
X011687Y094805D01*
X011696Y094831D01*
X011709Y094855D01*
X011725Y094878D01*
X011744Y094897D01*
X011766Y094914D01*
X011790Y094928D01*
X011815Y094938D01*
X011842Y094945D01*
X011869Y094948D01*
X011897Y094947D01*
X011924Y094942D01*
X011950Y094934D01*
X011974Y094922D01*
X011997Y094906D01*
X012018Y094888D01*
X012035Y094867D01*
X012050Y094843D01*
X012061Y094818D01*
X012069Y094792D01*
X012073Y094765D01*
X012073Y094737D01*
X012069Y094710D01*
X012061Y094684D01*
X012050Y094659D01*
X012035Y094635D01*
X012018Y094614D01*
X011997Y094596D01*
X011975Y094580D01*
X011950Y094568D01*
X011924Y094560D01*
X011897Y094555D01*
X011869Y094554D01*
X011842Y094557D01*
X011815Y094564D01*
X011790Y094574D01*
X011766Y094588D01*
X011744Y094605D01*
X011725Y094624D01*
X011709Y094647D01*
X011696Y094671D01*
X011687Y094697D01*
X011681Y094724D01*
X011679Y094751D01*
X011679Y087251D02*
X011681Y087278D01*
X011687Y087305D01*
X011696Y087331D01*
X011709Y087355D01*
X011725Y087378D01*
X011744Y087397D01*
X011766Y087414D01*
X011790Y087428D01*
X011815Y087438D01*
X011842Y087445D01*
X011869Y087448D01*
X011897Y087447D01*
X011924Y087442D01*
X011950Y087434D01*
X011974Y087422D01*
X011997Y087406D01*
X012018Y087388D01*
X012035Y087367D01*
X012050Y087343D01*
X012061Y087318D01*
X012069Y087292D01*
X012073Y087265D01*
X012073Y087237D01*
X012069Y087210D01*
X012061Y087184D01*
X012050Y087159D01*
X012035Y087135D01*
X012018Y087114D01*
X011997Y087096D01*
X011975Y087080D01*
X011950Y087068D01*
X011924Y087060D01*
X011897Y087055D01*
X011869Y087054D01*
X011842Y087057D01*
X011815Y087064D01*
X011790Y087074D01*
X011766Y087088D01*
X011744Y087105D01*
X011725Y087124D01*
X011709Y087147D01*
X011696Y087171D01*
X011687Y087197D01*
X011681Y087224D01*
X011679Y087251D01*
X011679Y079751D02*
X011681Y079778D01*
X011687Y079805D01*
X011696Y079831D01*
X011709Y079855D01*
X011725Y079878D01*
X011744Y079897D01*
X011766Y079914D01*
X011790Y079928D01*
X011815Y079938D01*
X011842Y079945D01*
X011869Y079948D01*
X011897Y079947D01*
X011924Y079942D01*
X011950Y079934D01*
X011974Y079922D01*
X011997Y079906D01*
X012018Y079888D01*
X012035Y079867D01*
X012050Y079843D01*
X012061Y079818D01*
X012069Y079792D01*
X012073Y079765D01*
X012073Y079737D01*
X012069Y079710D01*
X012061Y079684D01*
X012050Y079659D01*
X012035Y079635D01*
X012018Y079614D01*
X011997Y079596D01*
X011975Y079580D01*
X011950Y079568D01*
X011924Y079560D01*
X011897Y079555D01*
X011869Y079554D01*
X011842Y079557D01*
X011815Y079564D01*
X011790Y079574D01*
X011766Y079588D01*
X011744Y079605D01*
X011725Y079624D01*
X011709Y079647D01*
X011696Y079671D01*
X011687Y079697D01*
X011681Y079724D01*
X011679Y079751D01*
X018429Y072251D02*
X018431Y072278D01*
X018437Y072305D01*
X018446Y072331D01*
X018459Y072355D01*
X018475Y072378D01*
X018494Y072397D01*
X018516Y072414D01*
X018540Y072428D01*
X018565Y072438D01*
X018592Y072445D01*
X018619Y072448D01*
X018647Y072447D01*
X018674Y072442D01*
X018700Y072434D01*
X018724Y072422D01*
X018747Y072406D01*
X018768Y072388D01*
X018785Y072367D01*
X018800Y072343D01*
X018811Y072318D01*
X018819Y072292D01*
X018823Y072265D01*
X018823Y072237D01*
X018819Y072210D01*
X018811Y072184D01*
X018800Y072159D01*
X018785Y072135D01*
X018768Y072114D01*
X018747Y072096D01*
X018725Y072080D01*
X018700Y072068D01*
X018674Y072060D01*
X018647Y072055D01*
X018619Y072054D01*
X018592Y072057D01*
X018565Y072064D01*
X018540Y072074D01*
X018516Y072088D01*
X018494Y072105D01*
X018475Y072124D01*
X018459Y072147D01*
X018446Y072171D01*
X018437Y072197D01*
X018431Y072224D01*
X018429Y072251D01*
X019179Y079751D02*
X019181Y079778D01*
X019187Y079805D01*
X019196Y079831D01*
X019209Y079855D01*
X019225Y079878D01*
X019244Y079897D01*
X019266Y079914D01*
X019290Y079928D01*
X019315Y079938D01*
X019342Y079945D01*
X019369Y079948D01*
X019397Y079947D01*
X019424Y079942D01*
X019450Y079934D01*
X019474Y079922D01*
X019497Y079906D01*
X019518Y079888D01*
X019535Y079867D01*
X019550Y079843D01*
X019561Y079818D01*
X019569Y079792D01*
X019573Y079765D01*
X019573Y079737D01*
X019569Y079710D01*
X019561Y079684D01*
X019550Y079659D01*
X019535Y079635D01*
X019518Y079614D01*
X019497Y079596D01*
X019475Y079580D01*
X019450Y079568D01*
X019424Y079560D01*
X019397Y079555D01*
X019369Y079554D01*
X019342Y079557D01*
X019315Y079564D01*
X019290Y079574D01*
X019266Y079588D01*
X019244Y079605D01*
X019225Y079624D01*
X019209Y079647D01*
X019196Y079671D01*
X019187Y079697D01*
X019181Y079724D01*
X019179Y079751D01*
X019179Y087251D02*
X019181Y087278D01*
X019187Y087305D01*
X019196Y087331D01*
X019209Y087355D01*
X019225Y087378D01*
X019244Y087397D01*
X019266Y087414D01*
X019290Y087428D01*
X019315Y087438D01*
X019342Y087445D01*
X019369Y087448D01*
X019397Y087447D01*
X019424Y087442D01*
X019450Y087434D01*
X019474Y087422D01*
X019497Y087406D01*
X019518Y087388D01*
X019535Y087367D01*
X019550Y087343D01*
X019561Y087318D01*
X019569Y087292D01*
X019573Y087265D01*
X019573Y087237D01*
X019569Y087210D01*
X019561Y087184D01*
X019550Y087159D01*
X019535Y087135D01*
X019518Y087114D01*
X019497Y087096D01*
X019475Y087080D01*
X019450Y087068D01*
X019424Y087060D01*
X019397Y087055D01*
X019369Y087054D01*
X019342Y087057D01*
X019315Y087064D01*
X019290Y087074D01*
X019266Y087088D01*
X019244Y087105D01*
X019225Y087124D01*
X019209Y087147D01*
X019196Y087171D01*
X019187Y087197D01*
X019181Y087224D01*
X019179Y087251D01*
X019179Y094751D02*
X019181Y094778D01*
X019187Y094805D01*
X019196Y094831D01*
X019209Y094855D01*
X019225Y094878D01*
X019244Y094897D01*
X019266Y094914D01*
X019290Y094928D01*
X019315Y094938D01*
X019342Y094945D01*
X019369Y094948D01*
X019397Y094947D01*
X019424Y094942D01*
X019450Y094934D01*
X019474Y094922D01*
X019497Y094906D01*
X019518Y094888D01*
X019535Y094867D01*
X019550Y094843D01*
X019561Y094818D01*
X019569Y094792D01*
X019573Y094765D01*
X019573Y094737D01*
X019569Y094710D01*
X019561Y094684D01*
X019550Y094659D01*
X019535Y094635D01*
X019518Y094614D01*
X019497Y094596D01*
X019475Y094580D01*
X019450Y094568D01*
X019424Y094560D01*
X019397Y094555D01*
X019369Y094554D01*
X019342Y094557D01*
X019315Y094564D01*
X019290Y094574D01*
X019266Y094588D01*
X019244Y094605D01*
X019225Y094624D01*
X019209Y094647D01*
X019196Y094671D01*
X019187Y094697D01*
X019181Y094724D01*
X019179Y094751D01*
X019179Y102251D02*
X019181Y102278D01*
X019187Y102305D01*
X019196Y102331D01*
X019209Y102355D01*
X019225Y102378D01*
X019244Y102397D01*
X019266Y102414D01*
X019290Y102428D01*
X019315Y102438D01*
X019342Y102445D01*
X019369Y102448D01*
X019397Y102447D01*
X019424Y102442D01*
X019450Y102434D01*
X019474Y102422D01*
X019497Y102406D01*
X019518Y102388D01*
X019535Y102367D01*
X019550Y102343D01*
X019561Y102318D01*
X019569Y102292D01*
X019573Y102265D01*
X019573Y102237D01*
X019569Y102210D01*
X019561Y102184D01*
X019550Y102159D01*
X019535Y102135D01*
X019518Y102114D01*
X019497Y102096D01*
X019475Y102080D01*
X019450Y102068D01*
X019424Y102060D01*
X019397Y102055D01*
X019369Y102054D01*
X019342Y102057D01*
X019315Y102064D01*
X019290Y102074D01*
X019266Y102088D01*
X019244Y102105D01*
X019225Y102124D01*
X019209Y102147D01*
X019196Y102171D01*
X019187Y102197D01*
X019181Y102224D01*
X019179Y102251D01*
M02*
