G75*
G70*
%OFA0B0*%
%FSLAX24Y24*%
%IPPOS*%
%LPD*%
%AMOC8*
5,1,8,0,0,1.08239X$1,22.5*
%
%ADD10C,0.1500*%
%ADD11C,0.1012*%
%ADD12C,0.0860*%
%ADD13C,0.1181*%
%ADD14R,0.0827X0.0827*%
%ADD15C,0.0827*%
%ADD16C,0.0827*%
%ADD17R,0.0709X0.0630*%
%ADD18C,0.0515*%
%ADD19C,0.1969*%
%ADD20C,0.0787*%
%ADD21C,0.0240*%
%ADD22R,0.0906X0.0906*%
D10*
X012487Y010850D03*
X014487Y010850D03*
X014987Y011850D03*
X016987Y011850D03*
X015612Y018350D03*
X018112Y019350D03*
X023112Y018350D03*
X025612Y019350D03*
X030612Y018350D03*
X033112Y019350D03*
X038112Y018350D03*
X040612Y019350D03*
X045612Y018350D03*
X048112Y019350D03*
X045612Y025850D03*
X048112Y026850D03*
X045612Y033350D03*
X048112Y034350D03*
X053112Y033350D03*
X055612Y034350D03*
X060612Y033350D03*
X063112Y034350D03*
X060362Y026850D03*
X057862Y025850D03*
X056612Y019350D03*
X054112Y018350D03*
X056612Y011850D03*
X054112Y010850D03*
X047112Y011850D03*
X044612Y010850D03*
X038612Y011850D03*
X037550Y011850D03*
X036112Y010850D03*
X035050Y010850D03*
X030112Y011850D03*
X029175Y011850D03*
X027612Y010850D03*
X026675Y010850D03*
X023112Y025850D03*
X025612Y026850D03*
X030612Y025850D03*
X033112Y026850D03*
X038112Y025850D03*
X040612Y026850D03*
X038112Y033350D03*
X040612Y034350D03*
X038112Y040850D03*
X040612Y041850D03*
X045612Y040850D03*
X048112Y041850D03*
X056862Y040850D03*
X059362Y041850D03*
X062612Y051350D03*
X065112Y052350D03*
X051112Y052350D03*
X048612Y051350D03*
X043612Y052350D03*
X041112Y051350D03*
X036112Y052350D03*
X033612Y051350D03*
X028612Y052350D03*
X026112Y051350D03*
X018112Y052350D03*
X015612Y051350D03*
X010612Y052350D03*
X008112Y051350D03*
X010612Y041850D03*
X008112Y040850D03*
X010612Y034350D03*
X008112Y033350D03*
X010612Y026850D03*
X008112Y025850D03*
X010612Y019350D03*
X008112Y018350D03*
X015612Y025850D03*
X018112Y026850D03*
X015612Y033350D03*
X018112Y034350D03*
X023112Y033350D03*
X025612Y034350D03*
X030612Y033350D03*
X033112Y034350D03*
X030612Y040850D03*
X033112Y041850D03*
X025612Y041850D03*
X023112Y040850D03*
X018112Y041850D03*
X015612Y040850D03*
X062612Y018350D03*
X065112Y019350D03*
X065112Y011850D03*
X062612Y010850D03*
D11*
X061612Y012850D03*
X065612Y012850D03*
X065612Y020350D03*
X061612Y020350D03*
X057112Y020350D03*
X053112Y020350D03*
X048612Y020350D03*
X044612Y020350D03*
X041112Y020350D03*
X037112Y020350D03*
X033612Y020350D03*
X029612Y020350D03*
X026112Y020350D03*
X022112Y020350D03*
X018612Y020350D03*
X014612Y020350D03*
X011112Y020350D03*
X007112Y020350D03*
X007112Y027850D03*
X011112Y027850D03*
X014612Y027850D03*
X018612Y027850D03*
X022112Y027850D03*
X026112Y027850D03*
X029612Y027850D03*
X033612Y027850D03*
X037112Y027850D03*
X041112Y027850D03*
X044612Y027850D03*
X048612Y027850D03*
X048612Y035350D03*
X052112Y035350D03*
X056112Y035350D03*
X059612Y035350D03*
X063612Y035350D03*
X059862Y042850D03*
X055862Y042850D03*
X048612Y042850D03*
X044612Y042850D03*
X041112Y042850D03*
X037112Y042850D03*
X033612Y042850D03*
X029612Y042850D03*
X026112Y042850D03*
X022112Y042850D03*
X018612Y042850D03*
X014612Y042850D03*
X011112Y042850D03*
X007112Y042850D03*
X007112Y035350D03*
X011112Y035350D03*
X014612Y035350D03*
X018612Y035350D03*
X022112Y035350D03*
X026112Y035350D03*
X029612Y035350D03*
X033612Y035350D03*
X037112Y035350D03*
X041112Y035350D03*
X044612Y035350D03*
X056862Y027850D03*
X060862Y027850D03*
X057112Y012850D03*
X053112Y012850D03*
X047612Y012850D03*
X043612Y012850D03*
X039112Y012850D03*
X038050Y012850D03*
X035112Y012850D03*
X034050Y012850D03*
X030612Y012850D03*
X029675Y012850D03*
X026612Y012850D03*
X025675Y012850D03*
X017487Y012850D03*
X015487Y012850D03*
X013487Y012850D03*
X011487Y012850D03*
X011112Y053350D03*
X014612Y053350D03*
X018612Y053350D03*
X025112Y053350D03*
X029112Y053350D03*
X032612Y053350D03*
X036612Y053350D03*
X040112Y053350D03*
X044112Y053350D03*
X047612Y053350D03*
X051612Y053350D03*
X061612Y053350D03*
X065612Y053350D03*
X007112Y053350D03*
D12*
X007612Y054920D02*
X007612Y055780D01*
X008612Y055780D02*
X008612Y054920D01*
X009612Y054920D02*
X009612Y055780D01*
X010612Y055780D02*
X010612Y054920D01*
X015112Y054920D02*
X015112Y055780D01*
X016112Y055780D02*
X016112Y054920D01*
X017112Y054920D02*
X017112Y055780D01*
X018112Y055780D02*
X018112Y054920D01*
X025612Y054920D02*
X025612Y055780D01*
X026612Y055780D02*
X026612Y054920D01*
X027612Y054920D02*
X027612Y055780D01*
X028612Y055780D02*
X028612Y054920D01*
X033112Y054920D02*
X033112Y055780D01*
X034112Y055780D02*
X034112Y054920D01*
X035112Y054920D02*
X035112Y055780D01*
X036112Y055780D02*
X036112Y054920D01*
X040612Y054920D02*
X040612Y055780D01*
X041612Y055780D02*
X041612Y054920D01*
X042612Y054920D02*
X042612Y055780D01*
X043612Y055780D02*
X043612Y054920D01*
X048112Y054920D02*
X048112Y055780D01*
X049112Y055780D02*
X049112Y054920D01*
X050112Y054920D02*
X050112Y055780D01*
X051112Y055780D02*
X051112Y054920D01*
X048112Y045280D02*
X048112Y044420D01*
X047112Y044420D02*
X047112Y045280D01*
X046112Y045280D02*
X046112Y044420D01*
X045112Y044420D02*
X045112Y045280D01*
X040612Y045280D02*
X040612Y044420D01*
X039612Y044420D02*
X039612Y045280D01*
X038612Y045280D02*
X038612Y044420D01*
X037612Y044420D02*
X037612Y045280D01*
X033112Y045280D02*
X033112Y044420D01*
X032112Y044420D02*
X032112Y045280D01*
X031112Y045280D02*
X031112Y044420D01*
X030112Y044420D02*
X030112Y045280D01*
X025612Y045280D02*
X025612Y044420D01*
X024612Y044420D02*
X024612Y045280D01*
X023612Y045280D02*
X023612Y044420D01*
X022612Y044420D02*
X022612Y045280D01*
X018112Y045280D02*
X018112Y044420D01*
X017112Y044420D02*
X017112Y045280D01*
X016112Y045280D02*
X016112Y044420D01*
X015112Y044420D02*
X015112Y045280D01*
X010612Y045280D02*
X010612Y044420D01*
X009612Y044420D02*
X009612Y045280D01*
X008612Y045280D02*
X008612Y044420D01*
X007612Y044420D02*
X007612Y045280D01*
X007612Y037780D02*
X007612Y036920D01*
X008612Y036920D02*
X008612Y037780D01*
X009612Y037780D02*
X009612Y036920D01*
X010612Y036920D02*
X010612Y037780D01*
X015112Y037780D02*
X015112Y036920D01*
X016112Y036920D02*
X016112Y037780D01*
X017112Y037780D02*
X017112Y036920D01*
X018112Y036920D02*
X018112Y037780D01*
X022612Y037780D02*
X022612Y036920D01*
X023612Y036920D02*
X023612Y037780D01*
X024612Y037780D02*
X024612Y036920D01*
X025612Y036920D02*
X025612Y037780D01*
X030112Y037780D02*
X030112Y036920D01*
X031112Y036920D02*
X031112Y037780D01*
X032112Y037780D02*
X032112Y036920D01*
X033112Y036920D02*
X033112Y037780D01*
X037612Y037780D02*
X037612Y036920D01*
X038612Y036920D02*
X038612Y037780D01*
X039612Y037780D02*
X039612Y036920D01*
X040612Y036920D02*
X040612Y037780D01*
X045112Y037780D02*
X045112Y036920D01*
X046112Y036920D02*
X046112Y037780D01*
X047112Y037780D02*
X047112Y036920D01*
X048112Y036920D02*
X048112Y037780D01*
X052612Y037780D02*
X052612Y036920D01*
X053612Y036920D02*
X053612Y037780D01*
X054612Y037780D02*
X054612Y036920D01*
X055612Y036920D02*
X055612Y037780D01*
X060112Y037780D02*
X060112Y036920D01*
X061112Y036920D02*
X061112Y037780D01*
X062112Y037780D02*
X062112Y036920D01*
X063112Y036920D02*
X063112Y037780D01*
X059362Y044420D02*
X059362Y045280D01*
X058362Y045280D02*
X058362Y044420D01*
X057362Y044420D02*
X057362Y045280D01*
X056362Y045280D02*
X056362Y044420D01*
X062112Y054920D02*
X062112Y055780D01*
X063112Y055780D02*
X063112Y054920D01*
X064112Y054920D02*
X064112Y055780D01*
X065112Y055780D02*
X065112Y054920D01*
X060362Y030280D02*
X060362Y029420D01*
X059362Y029420D02*
X059362Y030280D01*
X058362Y030280D02*
X058362Y029420D01*
X057362Y029420D02*
X057362Y030280D01*
X056612Y022780D02*
X056612Y021920D01*
X055612Y021920D02*
X055612Y022780D01*
X054612Y022780D02*
X054612Y021920D01*
X053612Y021920D02*
X053612Y022780D01*
X048112Y022780D02*
X048112Y021920D01*
X047112Y021920D02*
X047112Y022780D01*
X046112Y022780D02*
X046112Y021920D01*
X045112Y021920D02*
X045112Y022780D01*
X040612Y022780D02*
X040612Y021920D01*
X039612Y021920D02*
X039612Y022780D01*
X038612Y022780D02*
X038612Y021920D01*
X037612Y021920D02*
X037612Y022780D01*
X033112Y022780D02*
X033112Y021920D01*
X032112Y021920D02*
X032112Y022780D01*
X031112Y022780D02*
X031112Y021920D01*
X030112Y021920D02*
X030112Y022780D01*
X025612Y022780D02*
X025612Y021920D01*
X024612Y021920D02*
X024612Y022780D01*
X023612Y022780D02*
X023612Y021920D01*
X022612Y021920D02*
X022612Y022780D01*
X018112Y022780D02*
X018112Y021920D01*
X017112Y021920D02*
X017112Y022780D01*
X016112Y022780D02*
X016112Y021920D01*
X015112Y021920D02*
X015112Y022780D01*
X010612Y022780D02*
X010612Y021920D01*
X009612Y021920D02*
X009612Y022780D01*
X008612Y022780D02*
X008612Y021920D01*
X007612Y021920D02*
X007612Y022780D01*
X007612Y029420D02*
X007612Y030280D01*
X008612Y030280D02*
X008612Y029420D01*
X009612Y029420D02*
X009612Y030280D01*
X010612Y030280D02*
X010612Y029420D01*
X015112Y029420D02*
X015112Y030280D01*
X016112Y030280D02*
X016112Y029420D01*
X017112Y029420D02*
X017112Y030280D01*
X018112Y030280D02*
X018112Y029420D01*
X022612Y029420D02*
X022612Y030280D01*
X023612Y030280D02*
X023612Y029420D01*
X024612Y029420D02*
X024612Y030280D01*
X025612Y030280D02*
X025612Y029420D01*
X030112Y029420D02*
X030112Y030280D01*
X031112Y030280D02*
X031112Y029420D01*
X032112Y029420D02*
X032112Y030280D01*
X033112Y030280D02*
X033112Y029420D01*
X037612Y029420D02*
X037612Y030280D01*
X038612Y030280D02*
X038612Y029420D01*
X039612Y029420D02*
X039612Y030280D01*
X040612Y030280D02*
X040612Y029420D01*
X045112Y029420D02*
X045112Y030280D01*
X046112Y030280D02*
X046112Y029420D01*
X047112Y029420D02*
X047112Y030280D01*
X048112Y030280D02*
X048112Y029420D01*
X047112Y015280D02*
X047112Y014420D01*
X046112Y014420D02*
X046112Y015280D01*
X045112Y015280D02*
X045112Y014420D01*
X044112Y014420D02*
X044112Y015280D01*
X038612Y015280D02*
X038612Y014420D01*
X037612Y014420D02*
X037612Y015280D01*
X036612Y015280D02*
X036612Y014420D01*
X035612Y014420D02*
X035612Y015280D01*
X030112Y015280D02*
X030112Y014420D01*
X029112Y014420D02*
X029112Y015280D01*
X028112Y015280D02*
X028112Y014420D01*
X027112Y014420D02*
X027112Y015280D01*
X014987Y015280D02*
X014987Y014420D01*
X013987Y014420D02*
X013987Y015280D01*
X012987Y015280D02*
X012987Y014420D01*
X011987Y014420D02*
X011987Y015280D01*
X053612Y015280D02*
X053612Y014420D01*
X054612Y014420D02*
X054612Y015280D01*
X055612Y015280D02*
X055612Y014420D01*
X056612Y014420D02*
X056612Y015280D01*
X062112Y015280D02*
X062112Y014420D01*
X063112Y014420D02*
X063112Y015280D01*
X064112Y015280D02*
X064112Y014420D01*
X065112Y014420D02*
X065112Y015280D01*
X065112Y021920D02*
X065112Y022780D01*
X064112Y022780D02*
X064112Y021920D01*
X063112Y021920D02*
X063112Y022780D01*
X062112Y022780D02*
X062112Y021920D01*
D13*
X063612Y020350D03*
X063612Y012850D03*
X055112Y012850D03*
X055112Y020350D03*
X058862Y027850D03*
X061612Y035350D03*
X057862Y042850D03*
X054112Y035350D03*
X046612Y035350D03*
X046612Y042850D03*
X039112Y042850D03*
X039112Y035350D03*
X039112Y027850D03*
X039112Y020350D03*
X031612Y020350D03*
X031612Y027850D03*
X031612Y035350D03*
X031612Y042850D03*
X024112Y042850D03*
X024112Y035350D03*
X024112Y027850D03*
X024112Y020350D03*
X028612Y012850D03*
X037112Y012850D03*
X045612Y012850D03*
X046612Y020350D03*
X046612Y027850D03*
X049612Y053350D03*
X042112Y053350D03*
X034612Y053350D03*
X027112Y053350D03*
X016612Y053350D03*
X009112Y053350D03*
X009112Y042850D03*
X009112Y035350D03*
X009112Y027850D03*
X009112Y020350D03*
X016612Y020350D03*
X016612Y027850D03*
X016612Y035350D03*
X016612Y042850D03*
X013487Y012850D03*
X063612Y053350D03*
D14*
X058987Y053475D03*
X058987Y052475D03*
X058987Y051475D03*
X058987Y050475D03*
X058987Y049475D03*
X058987Y047475D03*
X055987Y047475D03*
X055987Y048475D03*
X055987Y049475D03*
X055987Y050475D03*
X055987Y051475D03*
X055987Y052475D03*
X055987Y053475D03*
X055987Y054475D03*
X058987Y054475D03*
X026237Y049600D03*
X025237Y049600D03*
X024237Y049600D03*
X023237Y049600D03*
X022237Y049600D03*
X021237Y049600D03*
X020237Y049600D03*
X020237Y046600D03*
X021237Y046600D03*
X022237Y046600D03*
X023237Y046600D03*
X024237Y046600D03*
X025237Y046600D03*
X026237Y046600D03*
X016487Y047725D03*
X015487Y047725D03*
X014487Y047725D03*
D15*
X013487Y047312D02*
X013487Y048139D01*
X012487Y048139D02*
X012487Y047312D01*
X011487Y047312D02*
X011487Y048139D01*
X010487Y048139D02*
X010487Y047312D01*
X009487Y047312D02*
X009487Y048139D01*
X008487Y048139D02*
X008487Y047312D01*
X007487Y047312D02*
X007487Y048139D01*
X058574Y048475D02*
X059401Y048475D01*
D16*
X017487Y047725D03*
D17*
X019237Y047549D03*
X019237Y048652D03*
D18*
X015487Y012850D03*
X027675Y012850D03*
X036050Y012850D03*
D19*
X006612Y007850D03*
X012862Y007850D03*
X016612Y007850D03*
X026362Y007850D03*
X033862Y007850D03*
X043362Y007850D03*
X052862Y007850D03*
X060737Y007850D03*
X068675Y007850D03*
X068675Y016600D03*
X068675Y024100D03*
X068675Y031600D03*
X068675Y039100D03*
X068675Y048100D03*
X068675Y058350D03*
X057300Y058350D03*
X045862Y058350D03*
X038362Y058350D03*
X030862Y058350D03*
X021862Y058350D03*
X012862Y058350D03*
X006612Y058350D03*
D20*
X012862Y051350D03*
X012862Y039100D03*
X012862Y031600D03*
X012862Y024100D03*
X012862Y016600D03*
X020362Y016600D03*
X027612Y016850D03*
X027862Y024100D03*
X020362Y024100D03*
X020362Y031600D03*
X020362Y039100D03*
X028237Y039225D03*
X028112Y046538D03*
X030800Y049725D03*
X035362Y046788D03*
X038362Y049663D03*
X042987Y046413D03*
X045800Y049725D03*
X051237Y045850D03*
X050362Y039100D03*
X042862Y039100D03*
X042862Y031600D03*
X042862Y024100D03*
X050362Y024100D03*
X050362Y016600D03*
X043237Y016600D03*
X035112Y016725D03*
X035300Y024600D03*
X035362Y031600D03*
X028237Y031600D03*
X035362Y039100D03*
X050737Y031600D03*
X057862Y031600D03*
X057675Y039038D03*
X059862Y016600D03*
D21*
X053987Y047475D02*
X053987Y047850D01*
X044112Y047850D01*
X044112Y048725D01*
X041737Y048725D01*
X041737Y047850D01*
X036737Y047850D01*
X036737Y048350D01*
X033987Y048350D01*
X033987Y047850D01*
X029237Y047850D01*
X029237Y048350D01*
X026737Y048350D01*
X026737Y048101D01*
X026237Y048101D01*
X026237Y047476D01*
X026237Y048101D02*
X020487Y048101D01*
X019237Y047549D01*
X019237Y046100D01*
X007487Y046100D01*
X007487Y047725D01*
X017487Y047725D02*
X017487Y051100D01*
X021362Y051100D01*
X021362Y053725D01*
X021362Y056975D01*
X058987Y056975D01*
X058987Y055350D01*
X020237Y049600D02*
X019237Y048652D01*
D22*
X021362Y053725D03*
X026237Y047476D03*
X020362Y042100D03*
X053987Y047475D03*
X058987Y055350D03*
M02*
