G75*
G70*
%OFA0B0*%
%FSLAX24Y24*%
%IPPOS*%
%LPD*%
%AMOC8*
5,1,8,0,0,1.08239X$1,22.5*
%
%ADD10C,0.1580*%
%ADD11C,0.1092*%
%ADD12C,0.0474*%
%ADD13C,0.0940*%
%ADD14C,0.1261*%
%ADD15R,0.0720X0.0060*%
%ADD16R,0.0060X0.0720*%
%ADD17C,0.0907*%
%ADD18R,0.0907X0.0907*%
%ADD19C,0.1655*%
%ADD20C,0.0595*%
%ADD21R,0.0789X0.0710*%
%ADD22C,0.2049*%
%ADD23C,0.0867*%
%ADD24R,0.0986X0.0986*%
D10*
X009639Y008069D03*
X012139Y009069D03*
X010389Y015569D03*
X012889Y016569D03*
X017889Y015569D03*
X020389Y016569D03*
X025389Y015569D03*
X027889Y016569D03*
X032889Y015569D03*
X035389Y016569D03*
X040389Y015569D03*
X042889Y016569D03*
X047889Y015569D03*
X050389Y016569D03*
X056389Y015569D03*
X058889Y016569D03*
X052639Y023069D03*
X051639Y023069D03*
X054139Y024069D03*
X055139Y024069D03*
X055389Y030569D03*
X057389Y030569D03*
X057889Y031569D03*
X059889Y031569D03*
X050389Y031569D03*
X047889Y030569D03*
X042889Y031569D03*
X040389Y030569D03*
X035389Y031569D03*
X032889Y030569D03*
X027889Y031569D03*
X025389Y030569D03*
X020389Y031569D03*
X017889Y030569D03*
X012889Y031569D03*
X010389Y030569D03*
X005389Y031569D03*
X002889Y030569D03*
X005389Y024069D03*
X002889Y023069D03*
X010389Y023069D03*
X012889Y024069D03*
X017889Y023069D03*
X020389Y024069D03*
X025389Y023069D03*
X027889Y024069D03*
X032889Y023069D03*
X035389Y024069D03*
X040389Y023069D03*
X042889Y024069D03*
X040389Y038069D03*
X042889Y039069D03*
X035389Y039069D03*
X032889Y038069D03*
X027889Y039069D03*
X025389Y038069D03*
X020389Y039069D03*
X017889Y038069D03*
X012889Y039069D03*
X010389Y038069D03*
X005389Y039069D03*
X002889Y038069D03*
X002889Y048569D03*
X005389Y049569D03*
X010389Y048569D03*
X012889Y049569D03*
X020889Y048569D03*
X023389Y049569D03*
X028389Y048569D03*
X030889Y049569D03*
X035889Y048569D03*
X038389Y049569D03*
X043389Y048569D03*
X045889Y049569D03*
X055389Y048569D03*
X057889Y049569D03*
X054139Y039069D03*
X051639Y038069D03*
X053889Y009069D03*
X051389Y008069D03*
X044389Y009069D03*
X041889Y008069D03*
X035889Y009069D03*
X033389Y008069D03*
X027389Y009069D03*
X024889Y008069D03*
X005389Y016569D03*
X002889Y015569D03*
X059889Y008069D03*
X062389Y009069D03*
D11*
X062889Y010069D03*
X058889Y010069D03*
X054389Y010069D03*
X050389Y010069D03*
X044889Y010069D03*
X040889Y010069D03*
X036389Y010069D03*
X032389Y010069D03*
X027889Y010069D03*
X023889Y010069D03*
X024389Y017569D03*
X020889Y017569D03*
X016889Y017569D03*
X013389Y017569D03*
X009389Y017569D03*
X005889Y017569D03*
X001889Y017569D03*
X008639Y010069D03*
X012639Y010069D03*
X028389Y017569D03*
X031889Y017569D03*
X035889Y017569D03*
X039389Y017569D03*
X043389Y017569D03*
X046889Y017569D03*
X050889Y017569D03*
X055389Y017569D03*
X059389Y017569D03*
X055639Y025069D03*
X054639Y025069D03*
X051639Y025069D03*
X050639Y025069D03*
X043389Y025069D03*
X039389Y025069D03*
X035889Y025069D03*
X031889Y025069D03*
X028389Y025069D03*
X024389Y025069D03*
X020889Y025069D03*
X016889Y025069D03*
X013389Y025069D03*
X009389Y025069D03*
X005889Y025069D03*
X001889Y025069D03*
X001889Y032569D03*
X005889Y032569D03*
X009389Y032569D03*
X013389Y032569D03*
X016889Y032569D03*
X020889Y032569D03*
X024389Y032569D03*
X028389Y032569D03*
X031889Y032569D03*
X035889Y032569D03*
X039389Y032569D03*
X043389Y032569D03*
X046889Y032569D03*
X050889Y032569D03*
X054389Y032569D03*
X056389Y032569D03*
X058389Y032569D03*
X060389Y032569D03*
X054639Y040069D03*
X050639Y040069D03*
X043389Y040069D03*
X039389Y040069D03*
X035889Y040069D03*
X031889Y040069D03*
X028389Y040069D03*
X024389Y040069D03*
X020889Y040069D03*
X016889Y040069D03*
X013389Y040069D03*
X009389Y040069D03*
X005889Y040069D03*
X001889Y040069D03*
X001889Y050569D03*
X005889Y050569D03*
X009389Y050569D03*
X013389Y050569D03*
X019889Y050569D03*
X023889Y050569D03*
X027389Y050569D03*
X031389Y050569D03*
X034889Y050569D03*
X038889Y050569D03*
X042389Y050569D03*
X046389Y050569D03*
X054389Y050569D03*
X058389Y050569D03*
D12*
X056389Y050569D03*
X044389Y050569D03*
X036889Y050569D03*
X029389Y050569D03*
X021889Y050569D03*
X011389Y050569D03*
X003889Y050569D03*
X003889Y040069D03*
X011389Y040069D03*
X018889Y040069D03*
X026389Y040069D03*
X033889Y040069D03*
X041389Y040069D03*
X041389Y032569D03*
X033889Y032569D03*
X026389Y032569D03*
X018889Y032569D03*
X011389Y032569D03*
X003889Y032569D03*
X003889Y025069D03*
X011389Y025069D03*
X018889Y025069D03*
X026389Y025069D03*
X033889Y025069D03*
X041389Y025069D03*
X048889Y032569D03*
X058389Y032569D03*
X053639Y025069D03*
X057389Y017569D03*
X048889Y017569D03*
X041389Y017569D03*
X033889Y017569D03*
X026389Y017569D03*
X018889Y017569D03*
X011389Y017569D03*
X003889Y017569D03*
X010639Y010069D03*
X025889Y010069D03*
X034389Y010069D03*
X042889Y010069D03*
X052389Y010069D03*
X060889Y010069D03*
X052639Y040069D03*
D13*
X052139Y041639D02*
X052139Y042499D01*
X051139Y042499D02*
X051139Y041639D01*
X053139Y041639D02*
X053139Y042499D01*
X054139Y042499D02*
X054139Y041639D01*
X056889Y034999D02*
X056889Y034139D01*
X057889Y034139D02*
X057889Y034999D01*
X058889Y034999D02*
X058889Y034139D01*
X059889Y034139D02*
X059889Y034999D01*
X050389Y034999D02*
X050389Y034139D01*
X049389Y034139D02*
X049389Y034999D01*
X048389Y034999D02*
X048389Y034139D01*
X047389Y034139D02*
X047389Y034999D01*
X042889Y034999D02*
X042889Y034139D01*
X041889Y034139D02*
X041889Y034999D01*
X040889Y034999D02*
X040889Y034139D01*
X039889Y034139D02*
X039889Y034999D01*
X035389Y034999D02*
X035389Y034139D01*
X034389Y034139D02*
X034389Y034999D01*
X033389Y034999D02*
X033389Y034139D01*
X032389Y034139D02*
X032389Y034999D01*
X027889Y034999D02*
X027889Y034139D01*
X026889Y034139D02*
X026889Y034999D01*
X025889Y034999D02*
X025889Y034139D01*
X024889Y034139D02*
X024889Y034999D01*
X020389Y034999D02*
X020389Y034139D01*
X019389Y034139D02*
X019389Y034999D01*
X018389Y034999D02*
X018389Y034139D01*
X017389Y034139D02*
X017389Y034999D01*
X012889Y034999D02*
X012889Y034139D01*
X011889Y034139D02*
X011889Y034999D01*
X010889Y034999D02*
X010889Y034139D01*
X009889Y034139D02*
X009889Y034999D01*
X005389Y034999D02*
X005389Y034139D01*
X004389Y034139D02*
X004389Y034999D01*
X003389Y034999D02*
X003389Y034139D01*
X002389Y034139D02*
X002389Y034999D01*
X002389Y041639D02*
X002389Y042499D01*
X003389Y042499D02*
X003389Y041639D01*
X004389Y041639D02*
X004389Y042499D01*
X005389Y042499D02*
X005389Y041639D01*
X009889Y041639D02*
X009889Y042499D01*
X010889Y042499D02*
X010889Y041639D01*
X011889Y041639D02*
X011889Y042499D01*
X012889Y042499D02*
X012889Y041639D01*
X017389Y041639D02*
X017389Y042499D01*
X018389Y042499D02*
X018389Y041639D01*
X019389Y041639D02*
X019389Y042499D01*
X020389Y042499D02*
X020389Y041639D01*
X024889Y041639D02*
X024889Y042499D01*
X025889Y042499D02*
X025889Y041639D01*
X026889Y041639D02*
X026889Y042499D01*
X027889Y042499D02*
X027889Y041639D01*
X032389Y041639D02*
X032389Y042499D01*
X033389Y042499D02*
X033389Y041639D01*
X034389Y041639D02*
X034389Y042499D01*
X035389Y042499D02*
X035389Y041639D01*
X039889Y041639D02*
X039889Y042499D01*
X040889Y042499D02*
X040889Y041639D01*
X041889Y041639D02*
X041889Y042499D01*
X042889Y042499D02*
X042889Y041639D01*
X042889Y052139D02*
X042889Y052999D01*
X043889Y052999D02*
X043889Y052139D01*
X044889Y052139D02*
X044889Y052999D01*
X045889Y052999D02*
X045889Y052139D01*
X038389Y052139D02*
X038389Y052999D01*
X037389Y052999D02*
X037389Y052139D01*
X036389Y052139D02*
X036389Y052999D01*
X035389Y052999D02*
X035389Y052139D01*
X030889Y052139D02*
X030889Y052999D01*
X029889Y052999D02*
X029889Y052139D01*
X028889Y052139D02*
X028889Y052999D01*
X027889Y052999D02*
X027889Y052139D01*
X023389Y052139D02*
X023389Y052999D01*
X022389Y052999D02*
X022389Y052139D01*
X021389Y052139D02*
X021389Y052999D01*
X020389Y052999D02*
X020389Y052139D01*
X012889Y052139D02*
X012889Y052999D01*
X011889Y052999D02*
X011889Y052139D01*
X010889Y052139D02*
X010889Y052999D01*
X009889Y052999D02*
X009889Y052139D01*
X005389Y052139D02*
X005389Y052999D01*
X004389Y052999D02*
X004389Y052139D01*
X003389Y052139D02*
X003389Y052999D01*
X002389Y052999D02*
X002389Y052139D01*
X002389Y027499D02*
X002389Y026639D01*
X003389Y026639D02*
X003389Y027499D01*
X004389Y027499D02*
X004389Y026639D01*
X005389Y026639D02*
X005389Y027499D01*
X009889Y027499D02*
X009889Y026639D01*
X010889Y026639D02*
X010889Y027499D01*
X011889Y027499D02*
X011889Y026639D01*
X012889Y026639D02*
X012889Y027499D01*
X017389Y027499D02*
X017389Y026639D01*
X018389Y026639D02*
X018389Y027499D01*
X019389Y027499D02*
X019389Y026639D01*
X020389Y026639D02*
X020389Y027499D01*
X024889Y027499D02*
X024889Y026639D01*
X025889Y026639D02*
X025889Y027499D01*
X026889Y027499D02*
X026889Y026639D01*
X027889Y026639D02*
X027889Y027499D01*
X032389Y027499D02*
X032389Y026639D01*
X033389Y026639D02*
X033389Y027499D01*
X034389Y027499D02*
X034389Y026639D01*
X035389Y026639D02*
X035389Y027499D01*
X039889Y027499D02*
X039889Y026639D01*
X040889Y026639D02*
X040889Y027499D01*
X041889Y027499D02*
X041889Y026639D01*
X042889Y026639D02*
X042889Y027499D01*
X052139Y027499D02*
X052139Y026639D01*
X053139Y026639D02*
X053139Y027499D01*
X054139Y027499D02*
X054139Y026639D01*
X055139Y026639D02*
X055139Y027499D01*
X055889Y019999D02*
X055889Y019139D01*
X056889Y019139D02*
X056889Y019999D01*
X057889Y019999D02*
X057889Y019139D01*
X058889Y019139D02*
X058889Y019999D01*
X050389Y019999D02*
X050389Y019139D01*
X049389Y019139D02*
X049389Y019999D01*
X048389Y019999D02*
X048389Y019139D01*
X047389Y019139D02*
X047389Y019999D01*
X042889Y019999D02*
X042889Y019139D01*
X041889Y019139D02*
X041889Y019999D01*
X040889Y019999D02*
X040889Y019139D01*
X039889Y019139D02*
X039889Y019999D01*
X035389Y019999D02*
X035389Y019139D01*
X034389Y019139D02*
X034389Y019999D01*
X033389Y019999D02*
X033389Y019139D01*
X032389Y019139D02*
X032389Y019999D01*
X027889Y019999D02*
X027889Y019139D01*
X026889Y019139D02*
X026889Y019999D01*
X025889Y019999D02*
X025889Y019139D01*
X024889Y019139D02*
X024889Y019999D01*
X020389Y019999D02*
X020389Y019139D01*
X019389Y019139D02*
X019389Y019999D01*
X018389Y019999D02*
X018389Y019139D01*
X017389Y019139D02*
X017389Y019999D01*
X012889Y019999D02*
X012889Y019139D01*
X011889Y019139D02*
X011889Y019999D01*
X010889Y019999D02*
X010889Y019139D01*
X009889Y019139D02*
X009889Y019999D01*
X005389Y019999D02*
X005389Y019139D01*
X004389Y019139D02*
X004389Y019999D01*
X003389Y019999D02*
X003389Y019139D01*
X002389Y019139D02*
X002389Y019999D01*
X009139Y012499D02*
X009139Y011639D01*
X010139Y011639D02*
X010139Y012499D01*
X011139Y012499D02*
X011139Y011639D01*
X012139Y011639D02*
X012139Y012499D01*
X024389Y012499D02*
X024389Y011639D01*
X025389Y011639D02*
X025389Y012499D01*
X026389Y012499D02*
X026389Y011639D01*
X027389Y011639D02*
X027389Y012499D01*
X032889Y012499D02*
X032889Y011639D01*
X033889Y011639D02*
X033889Y012499D01*
X034889Y012499D02*
X034889Y011639D01*
X035889Y011639D02*
X035889Y012499D01*
X041389Y012499D02*
X041389Y011639D01*
X042389Y011639D02*
X042389Y012499D01*
X043389Y012499D02*
X043389Y011639D01*
X044389Y011639D02*
X044389Y012499D01*
X050889Y012499D02*
X050889Y011639D01*
X051889Y011639D02*
X051889Y012499D01*
X052889Y012499D02*
X052889Y011639D01*
X053889Y011639D02*
X053889Y012499D01*
X059389Y012499D02*
X059389Y011639D01*
X060389Y011639D02*
X060389Y012499D01*
X061389Y012499D02*
X061389Y011639D01*
X062389Y011639D02*
X062389Y012499D01*
X057889Y052139D02*
X057889Y052999D01*
X056889Y052999D02*
X056889Y052139D01*
X055889Y052139D02*
X055889Y052999D01*
X054889Y052999D02*
X054889Y052139D01*
D14*
X056389Y050569D03*
X044389Y050569D03*
X036889Y050569D03*
X029389Y050569D03*
X021889Y050569D03*
X011389Y050569D03*
X003889Y050569D03*
X003889Y040069D03*
X011389Y040069D03*
X018889Y040069D03*
X026389Y040069D03*
X033889Y040069D03*
X041389Y040069D03*
X041389Y032569D03*
X033889Y032569D03*
X026389Y032569D03*
X018889Y032569D03*
X011389Y032569D03*
X003889Y032569D03*
X003889Y025069D03*
X011389Y025069D03*
X018889Y025069D03*
X026389Y025069D03*
X033889Y025069D03*
X041389Y025069D03*
X048889Y032569D03*
X058389Y032569D03*
X053639Y025069D03*
X057389Y017569D03*
X048889Y017569D03*
X041389Y017569D03*
X033889Y017569D03*
X026389Y017569D03*
X018889Y017569D03*
X011389Y017569D03*
X003889Y017569D03*
X010639Y010069D03*
X025889Y010069D03*
X034389Y010069D03*
X042889Y010069D03*
X052389Y010069D03*
X060889Y010069D03*
X052639Y040069D03*
D15*
X041889Y038069D03*
X046514Y031194D03*
X050389Y022319D03*
X059889Y015069D03*
X061514Y007819D03*
X031389Y023444D03*
X019264Y015569D03*
X026889Y015069D03*
X011514Y007694D03*
X004514Y015069D03*
X005389Y022569D03*
X005389Y030069D03*
X012014Y030319D03*
X016389Y030444D03*
X004952Y037569D03*
X004264Y048194D03*
X007639Y050944D03*
X014514Y051319D03*
X037639Y048319D03*
X057014Y048319D03*
X059889Y030069D03*
D16*
X056139Y029319D03*
X053514Y031319D03*
X049514Y030194D03*
X044764Y031944D03*
X038889Y031319D03*
X036889Y031569D03*
X031389Y031319D03*
X029389Y031569D03*
X023889Y031319D03*
X021889Y031569D03*
X019389Y037819D03*
X022264Y040319D03*
X023889Y038944D03*
X029514Y039069D03*
X031639Y039006D03*
X036889Y039069D03*
X038889Y038819D03*
X049889Y038069D03*
X055889Y039069D03*
X045014Y048319D03*
X047389Y049194D03*
X053639Y048569D03*
X034389Y048569D03*
X032389Y049569D03*
X027139Y049319D03*
X024389Y048569D03*
X019389Y049444D03*
X009077Y038944D03*
X012764Y037819D03*
X008827Y031444D03*
X001389Y030569D03*
X008889Y023819D03*
X014889Y025319D03*
X016514Y023819D03*
X020264Y022694D03*
X023889Y023819D03*
X029389Y024069D03*
X036889Y024069D03*
X038889Y024069D03*
X044389Y024069D03*
X044639Y016569D03*
X046389Y016319D03*
X052139Y016819D03*
X054639Y016069D03*
X055639Y009069D03*
X058264Y008694D03*
X049889Y008569D03*
X046139Y009069D03*
X040389Y008819D03*
X037389Y009069D03*
X032139Y008944D03*
X028889Y009069D03*
X026389Y007694D03*
X034389Y015381D03*
X037139Y016569D03*
G36*
X039781Y013919D02*
X039739Y013961D01*
X040247Y014469D01*
X040289Y014427D01*
X039781Y013919D01*
G37*
X023889Y016319D03*
X016264Y016444D03*
X014389Y016444D03*
X012014Y015194D03*
X008139Y008069D03*
X001389Y015569D03*
X001389Y023069D03*
X001389Y038069D03*
X001389Y048569D03*
X056764Y024069D03*
D17*
X063514Y040492D02*
X063514Y041319D01*
X063101Y042319D02*
X063928Y042319D01*
X060928Y042319D02*
X060101Y042319D01*
X060101Y043319D02*
X060928Y043319D01*
X060928Y044319D02*
X060101Y044319D01*
X060101Y046319D02*
X060928Y046319D01*
X060928Y047319D02*
X060101Y047319D01*
X060101Y048319D02*
X060928Y048319D01*
X063101Y047319D02*
X063928Y047319D01*
X063928Y046319D02*
X063101Y046319D01*
X063101Y045319D02*
X063928Y045319D01*
X060514Y041319D02*
X059688Y041319D01*
X009264Y044530D02*
X009264Y045357D01*
X008264Y045357D02*
X008264Y044530D01*
X007264Y044530D02*
X007264Y045357D01*
X006264Y045357D02*
X006264Y044530D01*
X005264Y044530D02*
X005264Y045357D01*
X004264Y045357D02*
X004264Y044530D01*
X003264Y044530D02*
X003264Y045357D01*
X002264Y045357D02*
X002264Y044530D01*
D18*
X010264Y044944D03*
X011264Y044944D03*
X012264Y044944D03*
X015014Y043819D03*
X016014Y043819D03*
X017014Y043819D03*
X018014Y043819D03*
X019014Y043819D03*
X020014Y043819D03*
X021014Y043819D03*
X021014Y046819D03*
X020014Y046819D03*
X019014Y046819D03*
X018014Y046819D03*
X017014Y046819D03*
X016014Y046819D03*
X015014Y046819D03*
X060514Y045319D03*
X063514Y044319D03*
X063514Y043319D03*
X063514Y048319D03*
D19*
X056389Y032569D03*
X052639Y025069D03*
D20*
X052639Y025069D03*
X056389Y032569D03*
D21*
X014014Y044767D03*
X014014Y045870D03*
D22*
X001389Y005069D03*
X007639Y005069D03*
X011389Y005069D03*
X021139Y005069D03*
X028639Y005069D03*
X038139Y005069D03*
X047639Y005069D03*
X057139Y005069D03*
X065639Y005069D03*
X065639Y013819D03*
X065639Y021319D03*
X065639Y028819D03*
X065639Y036319D03*
X065639Y045319D03*
X065639Y055569D03*
X053139Y055569D03*
X040639Y055569D03*
X033139Y055569D03*
X025639Y055569D03*
X016639Y055569D03*
X007639Y055569D03*
X001389Y055569D03*
D23*
X007639Y048444D03*
X022889Y043756D03*
X025577Y046944D03*
X030139Y044006D03*
X033139Y046881D03*
X037764Y043631D03*
X040577Y046944D03*
X045264Y043694D03*
X052889Y046819D03*
X052702Y036256D03*
X060014Y036444D03*
X052639Y028819D03*
X045139Y028819D03*
X037639Y028819D03*
X030139Y028819D03*
X023014Y028819D03*
X015139Y028819D03*
X007514Y028694D03*
X007639Y021319D03*
X015139Y021319D03*
X022639Y021319D03*
X030077Y021819D03*
X037639Y021319D03*
X045139Y021319D03*
X052889Y021319D03*
X062014Y022194D03*
X062014Y026569D03*
X045139Y036319D03*
X037639Y036319D03*
X030139Y036319D03*
X023014Y036444D03*
X015139Y036319D03*
X007639Y036756D03*
X015139Y013819D03*
X021139Y013819D03*
X029889Y013944D03*
X038014Y013819D03*
X047764Y013819D03*
X052639Y013819D03*
X056639Y013694D03*
X007514Y013569D03*
D24*
X015139Y039319D03*
X016139Y050944D03*
M02*
