G75*
G70*
%OFA0B0*%
%FSLAX24Y24*%
%IPPOS*%
%LPD*%
%AMOC8*
5,1,8,0,0,1.08239X$1,22.5*
%
%ADD10C,0.0051*%
%ADD11C,0.0110*%
%ADD12C,0.0100*%
%ADD13C,0.0160*%
%ADD14C,0.0050*%
%ADD15C,0.0040*%
%ADD16C,0.0079*%
%ADD17C,0.0060*%
%ADD18R,0.0100X0.0200*%
%ADD19R,0.0295X0.0689*%
%ADD20R,0.0669X0.0295*%
%ADD21R,0.0689X0.0295*%
%ADD22C,0.0000*%
D10*
X003175Y000126D02*
X003175Y005475D01*
X002457Y004124D02*
X002331Y003100D01*
X002433Y004124D01*
X002457Y004124D02*
X002205Y004124D01*
X002331Y003100D01*
X002229Y004124D01*
X002280Y004124D02*
X002331Y003100D01*
X002382Y004124D01*
X002331Y003100D02*
X002331Y056100D01*
X002433Y055077D01*
X002457Y055077D02*
X002331Y056100D01*
X002229Y055077D01*
X002205Y055077D02*
X002457Y055077D01*
X002382Y055077D02*
X002331Y056100D01*
X002280Y055077D01*
X002205Y055077D02*
X002331Y056100D01*
X001544Y056100D02*
X005425Y056100D01*
X069925Y003413D02*
X069925Y000126D01*
X069925Y000913D02*
X068901Y000811D01*
X068901Y000787D02*
X069925Y000913D01*
X068901Y001015D01*
X068901Y001039D02*
X068901Y000787D01*
X068901Y000862D02*
X069925Y000913D01*
X068901Y000964D01*
X068901Y001039D02*
X069925Y000913D01*
X003175Y000913D01*
X004198Y000811D01*
X004198Y000787D02*
X003175Y000913D01*
X004198Y001015D01*
X004198Y001039D02*
X004198Y000787D01*
X004198Y000862D02*
X003175Y000913D01*
X004198Y000964D01*
X004198Y001039D02*
X003175Y000913D01*
X001544Y003100D02*
X005362Y003100D01*
D11*
X033590Y002208D02*
X034013Y002631D01*
X034013Y001362D01*
X033590Y001362D02*
X034436Y001362D01*
X034858Y001573D02*
X034858Y001996D01*
X035493Y001996D01*
X035704Y001785D01*
X035704Y001573D01*
X035493Y001362D01*
X035070Y001362D01*
X034858Y001573D01*
X034858Y001996D02*
X035281Y002419D01*
X035704Y002631D01*
X036127Y002419D02*
X036127Y002208D01*
X036339Y001996D01*
X036973Y001996D01*
X036973Y001573D02*
X036973Y002419D01*
X036762Y002631D01*
X036339Y002631D01*
X036127Y002419D01*
X036127Y001573D02*
X036339Y001362D01*
X036762Y001362D01*
X036973Y001573D01*
X037396Y001573D02*
X037608Y001573D01*
X037608Y001362D01*
X037396Y001362D01*
X037396Y001573D01*
X038030Y001573D02*
X038242Y001362D01*
X038665Y001362D01*
X038876Y001573D01*
X038876Y001996D01*
X038665Y002208D01*
X038453Y002208D01*
X038030Y001996D01*
X038030Y002631D01*
X038876Y002631D01*
X039299Y002631D02*
X039299Y001996D01*
X039722Y002208D01*
X039934Y002208D01*
X040145Y001996D01*
X040145Y001573D01*
X039934Y001362D01*
X039511Y001362D01*
X039299Y001573D01*
X039299Y002631D02*
X040145Y002631D01*
X001882Y026640D02*
X001882Y027486D01*
X001882Y027063D02*
X000613Y027063D01*
X001036Y026640D01*
X000825Y027909D02*
X000613Y028121D01*
X000613Y028544D01*
X000825Y028755D01*
X001036Y028755D01*
X001248Y028544D01*
X001459Y028755D01*
X001671Y028755D01*
X001882Y028544D01*
X001882Y028121D01*
X001671Y027909D01*
X001248Y028332D02*
X001248Y028544D01*
X001248Y029178D02*
X001248Y030024D01*
X001671Y030447D02*
X001671Y030658D01*
X001882Y030658D01*
X001882Y030447D01*
X001671Y030447D01*
X001671Y031081D02*
X001248Y031081D01*
X001248Y031716D01*
X001459Y031927D01*
X001671Y031927D01*
X001882Y031716D01*
X001882Y031293D01*
X001671Y031081D01*
X001248Y031081D02*
X000825Y031504D01*
X000613Y031927D01*
X000825Y032350D02*
X000613Y032561D01*
X000613Y032984D01*
X000825Y033196D01*
X001036Y033196D01*
X001882Y032350D01*
X001882Y033196D01*
X001882Y029812D02*
X000613Y029812D01*
X001248Y029178D01*
D12*
X011878Y028100D02*
X011880Y028162D01*
X011886Y028225D01*
X011896Y028286D01*
X011910Y028347D01*
X011927Y028407D01*
X011948Y028466D01*
X011974Y028523D01*
X012002Y028578D01*
X012034Y028632D01*
X012070Y028683D01*
X012108Y028733D01*
X012150Y028779D01*
X012194Y028823D01*
X012242Y028864D01*
X012291Y028902D01*
X012343Y028936D01*
X012397Y028967D01*
X012453Y028995D01*
X012511Y029019D01*
X012570Y029040D01*
X012630Y029056D01*
X012691Y029069D01*
X012753Y029078D01*
X012815Y029083D01*
X012878Y029084D01*
X012940Y029081D01*
X013002Y029074D01*
X013064Y029063D01*
X013124Y029048D01*
X013184Y029030D01*
X013242Y029008D01*
X013299Y028982D01*
X013354Y028952D01*
X013407Y028919D01*
X013458Y028883D01*
X013506Y028844D01*
X013552Y028801D01*
X013595Y028756D01*
X013635Y028708D01*
X013672Y028658D01*
X013706Y028605D01*
X013737Y028551D01*
X013763Y028495D01*
X013787Y028437D01*
X013806Y028377D01*
X013822Y028317D01*
X013834Y028255D01*
X013842Y028194D01*
X013846Y028131D01*
X013846Y028069D01*
X013842Y028006D01*
X013834Y027945D01*
X013822Y027883D01*
X013806Y027823D01*
X013787Y027763D01*
X013763Y027705D01*
X013737Y027649D01*
X013706Y027595D01*
X013672Y027542D01*
X013635Y027492D01*
X013595Y027444D01*
X013552Y027399D01*
X013506Y027356D01*
X013458Y027317D01*
X013407Y027281D01*
X013354Y027248D01*
X013299Y027218D01*
X013242Y027192D01*
X013184Y027170D01*
X013124Y027152D01*
X013064Y027137D01*
X013002Y027126D01*
X012940Y027119D01*
X012878Y027116D01*
X012815Y027117D01*
X012753Y027122D01*
X012691Y027131D01*
X012630Y027144D01*
X012570Y027160D01*
X012511Y027181D01*
X012453Y027205D01*
X012397Y027233D01*
X012343Y027264D01*
X012291Y027298D01*
X012242Y027336D01*
X012194Y027377D01*
X012150Y027421D01*
X012108Y027467D01*
X012070Y027517D01*
X012034Y027568D01*
X012002Y027622D01*
X011974Y027677D01*
X011948Y027734D01*
X011927Y027793D01*
X011910Y027853D01*
X011896Y027914D01*
X011886Y027975D01*
X011880Y028038D01*
X011878Y028100D01*
X011878Y020600D02*
X011880Y020662D01*
X011886Y020725D01*
X011896Y020786D01*
X011910Y020847D01*
X011927Y020907D01*
X011948Y020966D01*
X011974Y021023D01*
X012002Y021078D01*
X012034Y021132D01*
X012070Y021183D01*
X012108Y021233D01*
X012150Y021279D01*
X012194Y021323D01*
X012242Y021364D01*
X012291Y021402D01*
X012343Y021436D01*
X012397Y021467D01*
X012453Y021495D01*
X012511Y021519D01*
X012570Y021540D01*
X012630Y021556D01*
X012691Y021569D01*
X012753Y021578D01*
X012815Y021583D01*
X012878Y021584D01*
X012940Y021581D01*
X013002Y021574D01*
X013064Y021563D01*
X013124Y021548D01*
X013184Y021530D01*
X013242Y021508D01*
X013299Y021482D01*
X013354Y021452D01*
X013407Y021419D01*
X013458Y021383D01*
X013506Y021344D01*
X013552Y021301D01*
X013595Y021256D01*
X013635Y021208D01*
X013672Y021158D01*
X013706Y021105D01*
X013737Y021051D01*
X013763Y020995D01*
X013787Y020937D01*
X013806Y020877D01*
X013822Y020817D01*
X013834Y020755D01*
X013842Y020694D01*
X013846Y020631D01*
X013846Y020569D01*
X013842Y020506D01*
X013834Y020445D01*
X013822Y020383D01*
X013806Y020323D01*
X013787Y020263D01*
X013763Y020205D01*
X013737Y020149D01*
X013706Y020095D01*
X013672Y020042D01*
X013635Y019992D01*
X013595Y019944D01*
X013552Y019899D01*
X013506Y019856D01*
X013458Y019817D01*
X013407Y019781D01*
X013354Y019748D01*
X013299Y019718D01*
X013242Y019692D01*
X013184Y019670D01*
X013124Y019652D01*
X013064Y019637D01*
X013002Y019626D01*
X012940Y019619D01*
X012878Y019616D01*
X012815Y019617D01*
X012753Y019622D01*
X012691Y019631D01*
X012630Y019644D01*
X012570Y019660D01*
X012511Y019681D01*
X012453Y019705D01*
X012397Y019733D01*
X012343Y019764D01*
X012291Y019798D01*
X012242Y019836D01*
X012194Y019877D01*
X012150Y019921D01*
X012108Y019967D01*
X012070Y020017D01*
X012034Y020068D01*
X012002Y020122D01*
X011974Y020177D01*
X011948Y020234D01*
X011927Y020293D01*
X011910Y020353D01*
X011896Y020414D01*
X011886Y020475D01*
X011880Y020538D01*
X011878Y020600D01*
X011878Y013100D02*
X011880Y013162D01*
X011886Y013225D01*
X011896Y013286D01*
X011910Y013347D01*
X011927Y013407D01*
X011948Y013466D01*
X011974Y013523D01*
X012002Y013578D01*
X012034Y013632D01*
X012070Y013683D01*
X012108Y013733D01*
X012150Y013779D01*
X012194Y013823D01*
X012242Y013864D01*
X012291Y013902D01*
X012343Y013936D01*
X012397Y013967D01*
X012453Y013995D01*
X012511Y014019D01*
X012570Y014040D01*
X012630Y014056D01*
X012691Y014069D01*
X012753Y014078D01*
X012815Y014083D01*
X012878Y014084D01*
X012940Y014081D01*
X013002Y014074D01*
X013064Y014063D01*
X013124Y014048D01*
X013184Y014030D01*
X013242Y014008D01*
X013299Y013982D01*
X013354Y013952D01*
X013407Y013919D01*
X013458Y013883D01*
X013506Y013844D01*
X013552Y013801D01*
X013595Y013756D01*
X013635Y013708D01*
X013672Y013658D01*
X013706Y013605D01*
X013737Y013551D01*
X013763Y013495D01*
X013787Y013437D01*
X013806Y013377D01*
X013822Y013317D01*
X013834Y013255D01*
X013842Y013194D01*
X013846Y013131D01*
X013846Y013069D01*
X013842Y013006D01*
X013834Y012945D01*
X013822Y012883D01*
X013806Y012823D01*
X013787Y012763D01*
X013763Y012705D01*
X013737Y012649D01*
X013706Y012595D01*
X013672Y012542D01*
X013635Y012492D01*
X013595Y012444D01*
X013552Y012399D01*
X013506Y012356D01*
X013458Y012317D01*
X013407Y012281D01*
X013354Y012248D01*
X013299Y012218D01*
X013242Y012192D01*
X013184Y012170D01*
X013124Y012152D01*
X013064Y012137D01*
X013002Y012126D01*
X012940Y012119D01*
X012878Y012116D01*
X012815Y012117D01*
X012753Y012122D01*
X012691Y012131D01*
X012630Y012144D01*
X012570Y012160D01*
X012511Y012181D01*
X012453Y012205D01*
X012397Y012233D01*
X012343Y012264D01*
X012291Y012298D01*
X012242Y012336D01*
X012194Y012377D01*
X012150Y012421D01*
X012108Y012467D01*
X012070Y012517D01*
X012034Y012568D01*
X012002Y012622D01*
X011974Y012677D01*
X011948Y012734D01*
X011927Y012793D01*
X011910Y012853D01*
X011896Y012914D01*
X011886Y012975D01*
X011880Y013038D01*
X011878Y013100D01*
X011878Y035600D02*
X011880Y035662D01*
X011886Y035725D01*
X011896Y035786D01*
X011910Y035847D01*
X011927Y035907D01*
X011948Y035966D01*
X011974Y036023D01*
X012002Y036078D01*
X012034Y036132D01*
X012070Y036183D01*
X012108Y036233D01*
X012150Y036279D01*
X012194Y036323D01*
X012242Y036364D01*
X012291Y036402D01*
X012343Y036436D01*
X012397Y036467D01*
X012453Y036495D01*
X012511Y036519D01*
X012570Y036540D01*
X012630Y036556D01*
X012691Y036569D01*
X012753Y036578D01*
X012815Y036583D01*
X012878Y036584D01*
X012940Y036581D01*
X013002Y036574D01*
X013064Y036563D01*
X013124Y036548D01*
X013184Y036530D01*
X013242Y036508D01*
X013299Y036482D01*
X013354Y036452D01*
X013407Y036419D01*
X013458Y036383D01*
X013506Y036344D01*
X013552Y036301D01*
X013595Y036256D01*
X013635Y036208D01*
X013672Y036158D01*
X013706Y036105D01*
X013737Y036051D01*
X013763Y035995D01*
X013787Y035937D01*
X013806Y035877D01*
X013822Y035817D01*
X013834Y035755D01*
X013842Y035694D01*
X013846Y035631D01*
X013846Y035569D01*
X013842Y035506D01*
X013834Y035445D01*
X013822Y035383D01*
X013806Y035323D01*
X013787Y035263D01*
X013763Y035205D01*
X013737Y035149D01*
X013706Y035095D01*
X013672Y035042D01*
X013635Y034992D01*
X013595Y034944D01*
X013552Y034899D01*
X013506Y034856D01*
X013458Y034817D01*
X013407Y034781D01*
X013354Y034748D01*
X013299Y034718D01*
X013242Y034692D01*
X013184Y034670D01*
X013124Y034652D01*
X013064Y034637D01*
X013002Y034626D01*
X012940Y034619D01*
X012878Y034616D01*
X012815Y034617D01*
X012753Y034622D01*
X012691Y034631D01*
X012630Y034644D01*
X012570Y034660D01*
X012511Y034681D01*
X012453Y034705D01*
X012397Y034733D01*
X012343Y034764D01*
X012291Y034798D01*
X012242Y034836D01*
X012194Y034877D01*
X012150Y034921D01*
X012108Y034967D01*
X012070Y035017D01*
X012034Y035068D01*
X012002Y035122D01*
X011974Y035177D01*
X011948Y035234D01*
X011927Y035293D01*
X011910Y035353D01*
X011896Y035414D01*
X011886Y035475D01*
X011880Y035538D01*
X011878Y035600D01*
D13*
X020362Y038600D02*
X020362Y039008D01*
X020362Y039402D02*
X020362Y039810D01*
X020362Y040204D02*
X020362Y040611D01*
X020362Y041005D02*
X020362Y041413D01*
X020012Y041755D01*
X019731Y042031D02*
X019381Y042373D01*
X019100Y042648D02*
X018750Y042990D01*
X018468Y043266D02*
X018119Y043608D01*
X017837Y043883D02*
X017487Y044225D01*
D14*
X017462Y044850D02*
X017462Y045301D01*
X017312Y045151D01*
X017312Y044850D02*
X017612Y044850D01*
X017773Y044850D02*
X018073Y045151D01*
X018073Y045226D01*
X017998Y045301D01*
X017848Y045301D01*
X017773Y045226D01*
X017773Y044850D02*
X018073Y044850D01*
X020081Y044850D02*
X020381Y045151D01*
X020381Y045226D01*
X020306Y045301D01*
X020156Y045301D01*
X020081Y045226D01*
X020081Y044850D02*
X020381Y044850D01*
X020541Y044850D02*
X020767Y044850D01*
X020842Y044926D01*
X020842Y045226D01*
X020767Y045301D01*
X020541Y045301D01*
X020541Y044850D01*
X021002Y044850D02*
X021302Y045151D01*
X021302Y045226D01*
X021227Y045301D01*
X021077Y045301D01*
X021002Y045226D01*
X021002Y044850D02*
X021302Y044850D01*
X021112Y042350D02*
X027112Y042350D01*
X027112Y036350D01*
X021112Y036350D01*
X021112Y042350D01*
X019612Y042350D02*
X019612Y036350D01*
X013612Y036350D01*
X013612Y042350D01*
X019612Y042350D01*
X019612Y046850D02*
X013612Y046850D01*
X013612Y052850D01*
X019612Y052850D01*
X019612Y046850D01*
X024112Y046850D02*
X024112Y052850D01*
X030112Y052850D01*
X030112Y046850D01*
X024112Y046850D01*
X028612Y042350D02*
X034612Y042350D01*
X034612Y036350D01*
X028612Y036350D01*
X028612Y042350D01*
X031612Y046850D02*
X031612Y052850D01*
X037612Y052850D01*
X037612Y046850D01*
X031612Y046850D01*
X036112Y042350D02*
X042112Y042350D01*
X042112Y036350D01*
X036112Y036350D01*
X036112Y042350D01*
X039112Y046850D02*
X039112Y052850D01*
X045112Y052850D01*
X045112Y046850D01*
X039112Y046850D01*
X043612Y042350D02*
X049612Y042350D01*
X049612Y036350D01*
X043612Y036350D01*
X043612Y042350D01*
X046612Y046850D02*
X046612Y052850D01*
X052612Y052850D01*
X052612Y046850D01*
X046612Y046850D01*
X051112Y042350D02*
X057112Y042350D01*
X057112Y036350D01*
X051112Y036350D01*
X051112Y042350D01*
X059612Y042350D02*
X059612Y036350D01*
X065612Y036350D01*
X065612Y042350D01*
X059612Y042350D01*
X060487Y045400D02*
X060787Y045701D01*
X060787Y045776D01*
X060712Y045851D01*
X060562Y045851D01*
X060487Y045776D01*
X060487Y045400D02*
X060787Y045400D01*
X060948Y045400D02*
X061173Y045400D01*
X061248Y045476D01*
X061248Y045776D01*
X061173Y045851D01*
X060948Y045851D01*
X060948Y045400D01*
X061408Y045400D02*
X061708Y045400D01*
X061558Y045400D02*
X061558Y045851D01*
X061408Y045701D01*
X060612Y046850D02*
X060612Y052850D01*
X066612Y052850D01*
X066612Y046850D01*
X060612Y046850D01*
X058612Y034850D02*
X064612Y034850D01*
X064612Y028850D01*
X058612Y028850D01*
X058612Y034850D01*
X057112Y034850D02*
X057112Y028850D01*
X051112Y028850D01*
X051112Y034850D01*
X057112Y034850D01*
X049612Y034850D02*
X049612Y028850D01*
X043612Y028850D01*
X043612Y034850D01*
X049612Y034850D01*
X042112Y034850D02*
X042112Y028850D01*
X036112Y028850D01*
X036112Y034850D01*
X042112Y034850D01*
X034612Y034850D02*
X034612Y028850D01*
X028612Y028850D01*
X028612Y034850D01*
X034612Y034850D01*
X027112Y034850D02*
X027112Y028850D01*
X021112Y028850D01*
X021112Y034850D01*
X027112Y034850D01*
X019612Y034850D02*
X019612Y028850D01*
X013612Y028850D01*
X013612Y034850D01*
X019612Y034850D01*
X012112Y034850D02*
X012112Y028850D01*
X006112Y028850D01*
X006112Y034850D01*
X012112Y034850D01*
X012112Y036350D02*
X012112Y042350D01*
X006112Y042350D01*
X006112Y036350D01*
X012112Y036350D01*
X005987Y043875D02*
X006062Y043951D01*
X006062Y044101D01*
X005987Y044176D01*
X005912Y044176D01*
X005837Y044101D01*
X005837Y043951D01*
X005762Y043875D01*
X005687Y043875D01*
X005612Y043951D01*
X005612Y044101D01*
X005687Y044176D01*
X005612Y044336D02*
X005912Y044336D01*
X006062Y044486D01*
X005912Y044636D01*
X005612Y044636D01*
X005837Y044796D02*
X005612Y045021D01*
X006062Y045021D01*
X005837Y045097D02*
X005837Y044796D01*
X007312Y044850D02*
X007612Y044850D01*
X007462Y044850D02*
X007462Y045301D01*
X007312Y045151D01*
X006112Y046850D02*
X006112Y052850D01*
X012112Y052850D01*
X012112Y046850D01*
X006112Y046850D01*
X006112Y027350D02*
X012112Y027350D01*
X012112Y021350D01*
X006112Y021350D01*
X006112Y027350D01*
X013612Y027350D02*
X019612Y027350D01*
X019612Y021350D01*
X013612Y021350D01*
X013612Y027350D01*
X021112Y027350D02*
X027112Y027350D01*
X027112Y021350D01*
X021112Y021350D01*
X021112Y027350D01*
X028612Y027350D02*
X034612Y027350D01*
X034612Y021350D01*
X028612Y021350D01*
X028612Y027350D01*
X036112Y027350D02*
X042112Y027350D01*
X042112Y021350D01*
X036112Y021350D01*
X036112Y027350D01*
X043612Y027350D02*
X049612Y027350D01*
X049612Y021350D01*
X043612Y021350D01*
X043612Y027350D01*
X043612Y019850D02*
X049612Y019850D01*
X049612Y013850D01*
X043612Y013850D01*
X043612Y019850D01*
X042112Y019850D02*
X042112Y013850D01*
X036112Y013850D01*
X036112Y019850D01*
X042112Y019850D01*
X034612Y019850D02*
X034612Y013850D01*
X028612Y013850D01*
X028612Y019850D01*
X034612Y019850D01*
X027112Y019850D02*
X027112Y013850D01*
X021112Y013850D01*
X021112Y019850D01*
X027112Y019850D01*
X019612Y019850D02*
X019612Y013850D01*
X013612Y013850D01*
X013612Y019850D01*
X019612Y019850D01*
X012112Y019850D02*
X012112Y013850D01*
X006112Y013850D01*
X006112Y019850D01*
X012112Y019850D01*
X012487Y012350D02*
X018487Y012350D01*
X018487Y006350D01*
X012487Y006350D01*
X012487Y012350D01*
X010487Y012350D02*
X016487Y012350D01*
X016487Y006350D01*
X010487Y006350D01*
X010487Y012350D01*
X024675Y012350D02*
X024675Y006350D01*
X030675Y006350D01*
X030675Y012350D01*
X024675Y012350D01*
X025612Y012350D02*
X031612Y012350D01*
X031612Y006350D01*
X025612Y006350D01*
X025612Y012350D01*
X033050Y012350D02*
X039050Y012350D01*
X039050Y006350D01*
X033050Y006350D01*
X033050Y012350D01*
X034112Y012350D02*
X040112Y012350D01*
X040112Y006350D01*
X034112Y006350D01*
X034112Y012350D01*
X042612Y012350D02*
X042612Y006350D01*
X048612Y006350D01*
X048612Y012350D01*
X042612Y012350D01*
X052112Y012350D02*
X052112Y006350D01*
X058112Y006350D01*
X058112Y012350D01*
X052112Y012350D01*
X055862Y013850D02*
X055862Y019850D01*
X061862Y019850D01*
X061862Y013850D01*
X055862Y013850D01*
X060612Y012350D02*
X066612Y012350D01*
X066612Y006350D01*
X060612Y006350D01*
X060612Y012350D01*
X061862Y021350D02*
X055862Y021350D01*
X055862Y027350D01*
X061862Y027350D01*
X061862Y021350D01*
D15*
X056950Y017706D02*
X056950Y017245D01*
X056797Y017245D02*
X057104Y017245D01*
X056797Y017552D02*
X056950Y017706D01*
X056643Y017629D02*
X056643Y017552D01*
X056567Y017476D01*
X056413Y017476D01*
X056336Y017552D01*
X056336Y017629D01*
X056413Y017706D01*
X056567Y017706D01*
X056643Y017629D01*
X056567Y017476D02*
X056643Y017399D01*
X056643Y017322D01*
X056567Y017245D01*
X056413Y017245D01*
X056336Y017322D01*
X056336Y017399D01*
X056413Y017476D01*
X056183Y017399D02*
X056106Y017476D01*
X055953Y017476D01*
X055876Y017552D01*
X055876Y017629D01*
X055953Y017706D01*
X056106Y017706D01*
X056183Y017629D01*
X056183Y017399D02*
X056183Y017322D01*
X056106Y017245D01*
X055953Y017245D01*
X055876Y017322D01*
X053479Y010456D02*
X053172Y010456D01*
X053172Y010226D01*
X053325Y010302D01*
X053402Y010302D01*
X053479Y010226D01*
X053479Y010072D01*
X053402Y009995D01*
X053249Y009995D01*
X053172Y010072D01*
X053018Y010072D02*
X052942Y009995D01*
X052788Y009995D01*
X052711Y010072D01*
X052711Y010149D01*
X052788Y010226D01*
X052942Y010226D01*
X053018Y010149D01*
X053018Y010072D01*
X052942Y010226D02*
X053018Y010302D01*
X053018Y010379D01*
X052942Y010456D01*
X052788Y010456D01*
X052711Y010379D01*
X052711Y010302D01*
X052788Y010226D01*
X052558Y010149D02*
X052558Y010072D01*
X052481Y009995D01*
X052328Y009995D01*
X052251Y010072D01*
X052328Y010226D02*
X052481Y010226D01*
X052558Y010149D01*
X052558Y010379D02*
X052481Y010456D01*
X052328Y010456D01*
X052251Y010379D01*
X052251Y010302D01*
X052328Y010226D01*
X045104Y010101D02*
X044797Y010101D01*
X045027Y010331D01*
X045027Y009870D01*
X044643Y009947D02*
X044567Y009870D01*
X044413Y009870D01*
X044336Y009947D01*
X044336Y010024D01*
X044413Y010101D01*
X044567Y010101D01*
X044643Y010024D01*
X044643Y009947D01*
X044567Y010101D02*
X044643Y010177D01*
X044643Y010254D01*
X044567Y010331D01*
X044413Y010331D01*
X044336Y010254D01*
X044336Y010177D01*
X044413Y010101D01*
X044183Y010024D02*
X044183Y009947D01*
X044106Y009870D01*
X043953Y009870D01*
X043876Y009947D01*
X043953Y010101D02*
X044106Y010101D01*
X044183Y010024D01*
X044183Y010254D02*
X044106Y010331D01*
X043953Y010331D01*
X043876Y010254D01*
X043876Y010177D01*
X043953Y010101D01*
X040479Y010947D02*
X040402Y010870D01*
X040249Y010870D01*
X040172Y010947D01*
X040018Y010947D02*
X039942Y010870D01*
X039788Y010870D01*
X039711Y010947D01*
X039711Y011024D01*
X039788Y011101D01*
X039942Y011101D01*
X040018Y011024D01*
X040018Y010947D01*
X039942Y011101D02*
X040018Y011177D01*
X040018Y011254D01*
X039942Y011331D01*
X039788Y011331D01*
X039711Y011254D01*
X039711Y011177D01*
X039788Y011101D01*
X039558Y011024D02*
X039558Y010947D01*
X039481Y010870D01*
X039328Y010870D01*
X039251Y010947D01*
X039328Y011101D02*
X039481Y011101D01*
X039558Y011024D01*
X039558Y011254D02*
X039481Y011331D01*
X039328Y011331D01*
X039251Y011254D01*
X039251Y011177D01*
X039328Y011101D01*
X040172Y011254D02*
X040249Y011331D01*
X040402Y011331D01*
X040479Y011254D01*
X040479Y011177D01*
X040402Y011101D01*
X040479Y011024D01*
X040479Y010947D01*
X040402Y011101D02*
X040325Y011101D01*
X034916Y010504D02*
X034916Y010427D01*
X034840Y010351D01*
X034609Y010351D01*
X034456Y010427D02*
X034379Y010351D01*
X034456Y010274D01*
X034456Y010197D01*
X034379Y010120D01*
X034226Y010120D01*
X034149Y010197D01*
X033995Y010197D02*
X033919Y010120D01*
X033765Y010120D01*
X033689Y010197D01*
X033689Y010274D01*
X033765Y010351D01*
X033919Y010351D01*
X033995Y010274D01*
X033995Y010197D01*
X033919Y010351D02*
X033995Y010427D01*
X033995Y010504D01*
X033919Y010581D01*
X033765Y010581D01*
X033689Y010504D01*
X033689Y010427D01*
X033765Y010351D01*
X033535Y010274D02*
X033535Y010197D01*
X033458Y010120D01*
X033305Y010120D01*
X033228Y010197D01*
X033305Y010351D02*
X033458Y010351D01*
X033535Y010274D01*
X033535Y010504D02*
X033458Y010581D01*
X033305Y010581D01*
X033228Y010504D01*
X033228Y010427D01*
X033305Y010351D01*
X034149Y010504D02*
X034226Y010581D01*
X034379Y010581D01*
X034456Y010504D01*
X034456Y010427D01*
X034379Y010351D02*
X034302Y010351D01*
X034609Y010581D02*
X034840Y010581D01*
X034916Y010504D01*
X034840Y010351D02*
X034916Y010274D01*
X034916Y010197D01*
X034840Y010120D01*
X034609Y010120D01*
X034609Y010581D01*
X031229Y010331D02*
X031229Y010254D01*
X030922Y009947D01*
X030922Y009870D01*
X030768Y009947D02*
X030692Y009870D01*
X030538Y009870D01*
X030461Y009947D01*
X030461Y010024D01*
X030538Y010101D01*
X030692Y010101D01*
X030768Y010024D01*
X030768Y009947D01*
X030692Y010101D02*
X030768Y010177D01*
X030768Y010254D01*
X030692Y010331D01*
X030538Y010331D01*
X030461Y010254D01*
X030461Y010177D01*
X030538Y010101D01*
X030308Y010024D02*
X030308Y009947D01*
X030231Y009870D01*
X030078Y009870D01*
X030001Y009947D01*
X030078Y010101D02*
X030231Y010101D01*
X030308Y010024D01*
X030308Y010254D02*
X030231Y010331D01*
X030078Y010331D01*
X030001Y010254D01*
X030001Y010177D01*
X030078Y010101D01*
X030922Y010331D02*
X031229Y010331D01*
X026291Y011947D02*
X026215Y011870D01*
X025984Y011870D01*
X025984Y012331D01*
X026215Y012331D01*
X026291Y012254D01*
X026291Y012177D01*
X026215Y012101D01*
X025984Y012101D01*
X025831Y012254D02*
X025524Y011947D01*
X025524Y011870D01*
X025370Y011947D02*
X025294Y011870D01*
X025140Y011870D01*
X025064Y011947D01*
X025064Y012024D01*
X025140Y012101D01*
X025294Y012101D01*
X025370Y012024D01*
X025370Y011947D01*
X025294Y012101D02*
X025370Y012177D01*
X025370Y012254D01*
X025294Y012331D01*
X025140Y012331D01*
X025064Y012254D01*
X025064Y012177D01*
X025140Y012101D01*
X024910Y012024D02*
X024910Y011947D01*
X024833Y011870D01*
X024680Y011870D01*
X024603Y011947D01*
X024680Y012101D02*
X024833Y012101D01*
X024910Y012024D01*
X024910Y012254D02*
X024833Y012331D01*
X024680Y012331D01*
X024603Y012254D01*
X024603Y012177D01*
X024680Y012101D01*
X025524Y012331D02*
X025831Y012331D01*
X025831Y012254D01*
X026215Y012101D02*
X026291Y012024D01*
X026291Y011947D01*
X028828Y017495D02*
X028751Y017572D01*
X028828Y017495D02*
X028981Y017495D01*
X029058Y017572D01*
X029058Y017649D01*
X028981Y017726D01*
X028828Y017726D01*
X028751Y017802D01*
X028751Y017879D01*
X028828Y017956D01*
X028981Y017956D01*
X029058Y017879D01*
X029211Y017956D02*
X029518Y017956D01*
X029518Y017879D01*
X029211Y017572D01*
X029211Y017495D01*
X029672Y017572D02*
X029672Y017649D01*
X029749Y017726D01*
X029902Y017726D01*
X029979Y017649D01*
X029979Y017572D01*
X029902Y017495D01*
X029749Y017495D01*
X029672Y017572D01*
X029749Y017726D02*
X029672Y017802D01*
X029672Y017879D01*
X029749Y017956D01*
X029902Y017956D01*
X029979Y017879D01*
X029979Y017802D01*
X029902Y017726D01*
X036751Y016129D02*
X036751Y016052D01*
X036828Y015976D01*
X036981Y015976D01*
X037058Y015899D01*
X037058Y015822D01*
X036981Y015745D01*
X036828Y015745D01*
X036751Y015822D01*
X036751Y016129D02*
X036828Y016206D01*
X036981Y016206D01*
X037058Y016129D01*
X037211Y016206D02*
X037518Y016206D01*
X037518Y016129D01*
X037211Y015822D01*
X037211Y015745D01*
X037672Y015822D02*
X037749Y015745D01*
X037902Y015745D01*
X037979Y015822D01*
X037979Y016129D01*
X037902Y016206D01*
X037749Y016206D01*
X037672Y016129D01*
X037672Y016052D01*
X037749Y015976D01*
X037979Y015976D01*
X043751Y016004D02*
X043751Y015927D01*
X043828Y015851D01*
X043981Y015851D01*
X044058Y015774D01*
X044058Y015697D01*
X043981Y015620D01*
X043828Y015620D01*
X043751Y015697D01*
X043751Y016004D02*
X043828Y016081D01*
X043981Y016081D01*
X044058Y016004D01*
X044211Y016004D02*
X044211Y015927D01*
X044288Y015851D01*
X044442Y015851D01*
X044518Y015774D01*
X044518Y015697D01*
X044442Y015620D01*
X044288Y015620D01*
X044211Y015697D01*
X044211Y015774D01*
X044288Y015851D01*
X044442Y015851D02*
X044518Y015927D01*
X044518Y016004D01*
X044442Y016081D01*
X044288Y016081D01*
X044211Y016004D01*
X044672Y016004D02*
X044672Y015697D01*
X044979Y016004D01*
X044979Y015697D01*
X044902Y015620D01*
X044749Y015620D01*
X044672Y015697D01*
X044672Y016004D02*
X044749Y016081D01*
X044902Y016081D01*
X044979Y016004D01*
X037979Y023245D02*
X037672Y023245D01*
X037979Y023552D01*
X037979Y023629D01*
X037902Y023706D01*
X037749Y023706D01*
X037672Y023629D01*
X037518Y023629D02*
X037211Y023322D01*
X037211Y023245D01*
X037058Y023322D02*
X036981Y023245D01*
X036828Y023245D01*
X036751Y023322D01*
X036828Y023476D02*
X036981Y023476D01*
X037058Y023399D01*
X037058Y023322D01*
X036828Y023476D02*
X036751Y023552D01*
X036751Y023629D01*
X036828Y023706D01*
X036981Y023706D01*
X037058Y023629D01*
X037211Y023706D02*
X037518Y023706D01*
X037518Y023629D01*
X044001Y024947D02*
X044078Y024870D01*
X044231Y024870D01*
X044308Y024947D01*
X044308Y025024D01*
X044231Y025101D01*
X044078Y025101D01*
X044001Y025177D01*
X044001Y025254D01*
X044078Y025331D01*
X044231Y025331D01*
X044308Y025254D01*
X044461Y025331D02*
X044768Y025331D01*
X044768Y025254D01*
X044461Y024947D01*
X044461Y024870D01*
X044922Y024947D02*
X044999Y024870D01*
X045152Y024870D01*
X045229Y024947D01*
X045229Y025024D01*
X045152Y025101D01*
X045075Y025101D01*
X045152Y025101D02*
X045229Y025177D01*
X045229Y025254D01*
X045152Y025331D01*
X044999Y025331D01*
X044922Y025254D01*
X046578Y029245D02*
X046501Y029322D01*
X046578Y029245D02*
X046731Y029245D01*
X046808Y029322D01*
X046808Y029399D01*
X046731Y029476D01*
X046578Y029476D01*
X046501Y029552D01*
X046501Y029629D01*
X046578Y029706D01*
X046731Y029706D01*
X046808Y029629D01*
X046961Y029476D02*
X047192Y029476D01*
X047268Y029399D01*
X047268Y029322D01*
X047192Y029245D01*
X047038Y029245D01*
X046961Y029322D01*
X046961Y029476D01*
X047115Y029629D01*
X047268Y029706D01*
X047422Y029706D02*
X047422Y029476D01*
X047575Y029552D01*
X047652Y029552D01*
X047729Y029476D01*
X047729Y029322D01*
X047652Y029245D01*
X047499Y029245D01*
X047422Y029322D01*
X047422Y029706D02*
X047729Y029706D01*
X051376Y032572D02*
X051453Y032495D01*
X051606Y032495D01*
X051683Y032572D01*
X051683Y032649D01*
X051606Y032726D01*
X051453Y032726D01*
X051376Y032802D01*
X051376Y032879D01*
X051453Y032956D01*
X051606Y032956D01*
X051683Y032879D01*
X051836Y032726D02*
X052067Y032726D01*
X052143Y032649D01*
X052143Y032572D01*
X052067Y032495D01*
X051913Y032495D01*
X051836Y032572D01*
X051836Y032726D01*
X051990Y032879D01*
X052143Y032956D01*
X052297Y032726D02*
X052527Y032726D01*
X052604Y032649D01*
X052604Y032572D01*
X052527Y032495D01*
X052374Y032495D01*
X052297Y032572D01*
X052297Y032726D01*
X052450Y032879D01*
X052604Y032956D01*
X059751Y032754D02*
X059751Y032677D01*
X059828Y032601D01*
X059981Y032601D01*
X060058Y032524D01*
X060058Y032447D01*
X059981Y032370D01*
X059828Y032370D01*
X059751Y032447D01*
X059751Y032754D02*
X059828Y032831D01*
X059981Y032831D01*
X060058Y032754D01*
X060211Y032601D02*
X060442Y032601D01*
X060518Y032524D01*
X060518Y032447D01*
X060442Y032370D01*
X060288Y032370D01*
X060211Y032447D01*
X060211Y032601D01*
X060365Y032754D01*
X060518Y032831D01*
X060672Y032831D02*
X060979Y032831D01*
X060979Y032754D01*
X060672Y032447D01*
X060672Y032370D01*
X056450Y027081D02*
X056604Y026927D01*
X056604Y026620D01*
X056604Y026851D02*
X056297Y026851D01*
X056297Y026927D02*
X056450Y027081D01*
X056297Y026927D02*
X056297Y026620D01*
X056067Y026620D02*
X056067Y027081D01*
X055836Y026851D01*
X056143Y026851D01*
X055683Y027004D02*
X055376Y026697D01*
X055376Y026620D01*
X055223Y026697D02*
X055146Y026620D01*
X054992Y026620D01*
X054916Y026697D01*
X054992Y026851D02*
X055146Y026851D01*
X055223Y026774D01*
X055223Y026697D01*
X054992Y026851D02*
X054916Y026927D01*
X054916Y027004D01*
X054992Y027081D01*
X055146Y027081D01*
X055223Y027004D01*
X055376Y027081D02*
X055683Y027081D01*
X055683Y027004D01*
X038604Y038629D02*
X038297Y038322D01*
X038297Y038245D01*
X038143Y038322D02*
X038067Y038245D01*
X037913Y038245D01*
X037836Y038322D01*
X037683Y038322D02*
X037606Y038245D01*
X037453Y038245D01*
X037376Y038322D01*
X037453Y038476D02*
X037606Y038476D01*
X037683Y038399D01*
X037683Y038322D01*
X037836Y038476D02*
X037990Y038552D01*
X038067Y038552D01*
X038143Y038476D01*
X038143Y038322D01*
X037836Y038476D02*
X037836Y038706D01*
X038143Y038706D01*
X038297Y038706D02*
X038604Y038706D01*
X038604Y038629D01*
X037683Y038629D02*
X037606Y038706D01*
X037453Y038706D01*
X037376Y038629D01*
X037376Y038552D01*
X037453Y038476D01*
X043751Y039947D02*
X043828Y039870D01*
X043981Y039870D01*
X044058Y039947D01*
X044058Y040024D01*
X043981Y040101D01*
X043828Y040101D01*
X043751Y040177D01*
X043751Y040254D01*
X043828Y040331D01*
X043981Y040331D01*
X044058Y040254D01*
X044211Y040331D02*
X044211Y040101D01*
X044365Y040177D01*
X044442Y040177D01*
X044518Y040101D01*
X044518Y039947D01*
X044442Y039870D01*
X044288Y039870D01*
X044211Y039947D01*
X044211Y040331D02*
X044518Y040331D01*
X044672Y040254D02*
X044672Y040177D01*
X044749Y040101D01*
X044902Y040101D01*
X044979Y040024D01*
X044979Y039947D01*
X044902Y039870D01*
X044749Y039870D01*
X044672Y039947D01*
X044672Y040024D01*
X044749Y040101D01*
X044902Y040101D02*
X044979Y040177D01*
X044979Y040254D01*
X044902Y040331D01*
X044749Y040331D01*
X044672Y040254D01*
X051666Y040254D02*
X051666Y040177D01*
X051742Y040101D01*
X051896Y040101D01*
X051973Y040024D01*
X051973Y039947D01*
X051896Y039870D01*
X051742Y039870D01*
X051666Y039947D01*
X051666Y040254D02*
X051742Y040331D01*
X051896Y040331D01*
X051973Y040254D01*
X052126Y040101D02*
X052356Y040101D01*
X052433Y040024D01*
X052433Y039947D01*
X052356Y039870D01*
X052203Y039870D01*
X052126Y039947D01*
X052126Y040101D01*
X052280Y040254D01*
X052433Y040331D01*
X052586Y040331D02*
X052893Y040331D01*
X052893Y040254D01*
X052586Y039947D01*
X052586Y039870D01*
X053047Y039947D02*
X053124Y039870D01*
X053277Y039870D01*
X053354Y039947D01*
X053354Y040254D02*
X053277Y040331D01*
X053124Y040331D01*
X053047Y040254D01*
X053047Y039947D01*
X060501Y039947D02*
X060578Y039870D01*
X060731Y039870D01*
X060808Y039947D01*
X060808Y040024D01*
X060731Y040101D01*
X060578Y040101D01*
X060501Y040177D01*
X060501Y040254D01*
X060578Y040331D01*
X060731Y040331D01*
X060808Y040254D01*
X060961Y040331D02*
X060961Y040101D01*
X061115Y040177D01*
X061192Y040177D01*
X061268Y040101D01*
X061268Y039947D01*
X061192Y039870D01*
X061038Y039870D01*
X060961Y039947D01*
X060961Y040331D02*
X061268Y040331D01*
X061422Y040254D02*
X061422Y040177D01*
X061499Y040101D01*
X061729Y040101D01*
X061729Y040254D02*
X061652Y040331D01*
X061499Y040331D01*
X061422Y040254D01*
X061729Y040254D02*
X061729Y039947D01*
X061652Y039870D01*
X061499Y039870D01*
X061422Y039947D01*
X047854Y048620D02*
X047547Y048620D01*
X047854Y048927D01*
X047854Y049004D01*
X047777Y049081D01*
X047624Y049081D01*
X047547Y049004D01*
X047393Y049081D02*
X047086Y049081D01*
X047086Y048851D01*
X047240Y048927D01*
X047317Y048927D01*
X047393Y048851D01*
X047393Y048697D01*
X047317Y048620D01*
X047163Y048620D01*
X047086Y048697D01*
X046933Y048697D02*
X046856Y048620D01*
X046703Y048620D01*
X046626Y048697D01*
X046703Y048851D02*
X046856Y048851D01*
X046933Y048774D01*
X046933Y048697D01*
X046703Y048851D02*
X046626Y048927D01*
X046626Y049004D01*
X046703Y049081D01*
X046856Y049081D01*
X046933Y049004D01*
X040604Y048620D02*
X040297Y048620D01*
X040450Y048620D02*
X040450Y049081D01*
X040297Y048927D01*
X040143Y048851D02*
X040143Y048697D01*
X040067Y048620D01*
X039913Y048620D01*
X039836Y048697D01*
X039683Y048697D02*
X039606Y048620D01*
X039453Y048620D01*
X039376Y048697D01*
X039453Y048851D02*
X039606Y048851D01*
X039683Y048774D01*
X039683Y048697D01*
X039836Y048851D02*
X039990Y048927D01*
X040067Y048927D01*
X040143Y048851D01*
X040143Y049081D02*
X039836Y049081D01*
X039836Y048851D01*
X039683Y049004D02*
X039606Y049081D01*
X039453Y049081D01*
X039376Y049004D01*
X039376Y048927D01*
X039453Y048851D01*
X033479Y050572D02*
X033402Y050495D01*
X033249Y050495D01*
X033172Y050572D01*
X033479Y050879D01*
X033479Y050572D01*
X033479Y050879D02*
X033402Y050956D01*
X033249Y050956D01*
X033172Y050879D01*
X033172Y050572D01*
X033018Y050572D02*
X032942Y050495D01*
X032788Y050495D01*
X032711Y050572D01*
X032558Y050572D02*
X032481Y050495D01*
X032328Y050495D01*
X032251Y050572D01*
X032328Y050726D02*
X032481Y050726D01*
X032558Y050649D01*
X032558Y050572D01*
X032711Y050726D02*
X032865Y050802D01*
X032942Y050802D01*
X033018Y050726D01*
X033018Y050572D01*
X032711Y050726D02*
X032711Y050956D01*
X033018Y050956D01*
X032558Y050879D02*
X032481Y050956D01*
X032328Y050956D01*
X032251Y050879D01*
X032251Y050802D01*
X032328Y050726D01*
X028729Y050754D02*
X028729Y050447D01*
X028652Y050370D01*
X028499Y050370D01*
X028422Y050447D01*
X028499Y050601D02*
X028729Y050601D01*
X028729Y050754D02*
X028652Y050831D01*
X028499Y050831D01*
X028422Y050754D01*
X028422Y050677D01*
X028499Y050601D01*
X028268Y050601D02*
X027961Y050601D01*
X028192Y050831D01*
X028192Y050370D01*
X027808Y050447D02*
X027731Y050370D01*
X027578Y050370D01*
X027501Y050447D01*
X027578Y050601D02*
X027731Y050601D01*
X027808Y050524D01*
X027808Y050447D01*
X027578Y050601D02*
X027501Y050677D01*
X027501Y050754D01*
X027578Y050831D01*
X027731Y050831D01*
X027808Y050754D01*
X019547Y044980D02*
X019547Y044221D01*
X020132Y044129D02*
X020209Y044206D01*
X020362Y044206D01*
X020439Y044129D01*
X020439Y044052D01*
X020132Y043745D01*
X020439Y043745D01*
X020593Y043822D02*
X020669Y043745D01*
X020823Y043745D01*
X020900Y043822D01*
X021053Y043745D02*
X021360Y043745D01*
X021206Y043745D02*
X021206Y044206D01*
X021053Y044052D01*
X020900Y044129D02*
X020823Y044206D01*
X020669Y044206D01*
X020593Y044129D01*
X020593Y043822D01*
X018927Y044221D02*
X018927Y044980D01*
X015152Y048745D02*
X014999Y048745D01*
X014922Y048822D01*
X014922Y048899D01*
X014999Y048976D01*
X015152Y048976D01*
X015229Y048899D01*
X015229Y048822D01*
X015152Y048745D01*
X015152Y048976D02*
X015229Y049052D01*
X015229Y049129D01*
X015152Y049206D01*
X014999Y049206D01*
X014922Y049129D01*
X014922Y049052D01*
X014999Y048976D01*
X014768Y048976D02*
X014461Y048976D01*
X014692Y049206D01*
X014692Y048745D01*
X014308Y048822D02*
X014231Y048745D01*
X014078Y048745D01*
X014001Y048822D01*
X014078Y048976D02*
X014001Y049052D01*
X014001Y049129D01*
X014078Y049206D01*
X014231Y049206D01*
X014308Y049129D01*
X014231Y048976D02*
X014308Y048899D01*
X014308Y048822D01*
X014231Y048976D02*
X014078Y048976D01*
X007729Y049129D02*
X007422Y048822D01*
X007422Y048745D01*
X007192Y048745D02*
X007192Y049206D01*
X006961Y048976D01*
X007268Y048976D01*
X007422Y049206D02*
X007729Y049206D01*
X007729Y049129D01*
X006808Y049129D02*
X006731Y049206D01*
X006578Y049206D01*
X006501Y049129D01*
X006501Y049052D01*
X006578Y048976D01*
X006731Y048976D01*
X006808Y048899D01*
X006808Y048822D01*
X006731Y048745D01*
X006578Y048745D01*
X006501Y048822D01*
X006703Y038706D02*
X006626Y038629D01*
X006626Y038552D01*
X006703Y038476D01*
X006856Y038476D01*
X006933Y038399D01*
X006933Y038322D01*
X006856Y038245D01*
X006703Y038245D01*
X006626Y038322D01*
X006703Y038706D02*
X006856Y038706D01*
X006933Y038629D01*
X007086Y038706D02*
X007086Y038476D01*
X007240Y038552D01*
X007317Y038552D01*
X007393Y038476D01*
X007393Y038322D01*
X007317Y038245D01*
X007163Y038245D01*
X007086Y038322D01*
X007086Y038706D02*
X007393Y038706D01*
X007547Y038629D02*
X007624Y038706D01*
X007777Y038706D01*
X007854Y038629D01*
X007854Y038552D01*
X007777Y038476D01*
X007854Y038399D01*
X007854Y038322D01*
X007777Y038245D01*
X007624Y038245D01*
X007547Y038322D01*
X007700Y038476D02*
X007777Y038476D01*
X013751Y038552D02*
X013828Y038476D01*
X013981Y038476D01*
X014058Y038399D01*
X014058Y038322D01*
X013981Y038245D01*
X013828Y038245D01*
X013751Y038322D01*
X013751Y038552D02*
X013751Y038629D01*
X013828Y038706D01*
X013981Y038706D01*
X014058Y038629D01*
X014211Y038706D02*
X014211Y038476D01*
X014365Y038552D01*
X014442Y038552D01*
X014518Y038476D01*
X014518Y038322D01*
X014442Y038245D01*
X014288Y038245D01*
X014211Y038322D01*
X014211Y038706D02*
X014518Y038706D01*
X014672Y038476D02*
X014979Y038476D01*
X014902Y038706D02*
X014672Y038476D01*
X014902Y038245D02*
X014902Y038706D01*
X021876Y038629D02*
X021876Y038552D01*
X021953Y038476D01*
X022106Y038476D01*
X022183Y038399D01*
X022183Y038322D01*
X022106Y038245D01*
X021953Y038245D01*
X021876Y038322D01*
X021876Y038629D02*
X021953Y038706D01*
X022106Y038706D01*
X022183Y038629D01*
X022336Y038706D02*
X022336Y038476D01*
X022490Y038552D01*
X022567Y038552D01*
X022643Y038476D01*
X022643Y038322D01*
X022567Y038245D01*
X022413Y038245D01*
X022336Y038322D01*
X022336Y038706D02*
X022643Y038706D01*
X022797Y038706D02*
X022797Y038476D01*
X022950Y038552D01*
X023027Y038552D01*
X023104Y038476D01*
X023104Y038322D01*
X023027Y038245D01*
X022874Y038245D01*
X022797Y038322D01*
X022797Y038706D02*
X023104Y038706D01*
X029626Y038677D02*
X029703Y038601D01*
X029856Y038601D01*
X029933Y038524D01*
X029933Y038447D01*
X029856Y038370D01*
X029703Y038370D01*
X029626Y038447D01*
X029626Y038677D02*
X029626Y038754D01*
X029703Y038831D01*
X029856Y038831D01*
X029933Y038754D01*
X030086Y038831D02*
X030086Y038601D01*
X030240Y038677D01*
X030317Y038677D01*
X030393Y038601D01*
X030393Y038447D01*
X030317Y038370D01*
X030163Y038370D01*
X030086Y038447D01*
X030086Y038831D02*
X030393Y038831D01*
X030547Y038601D02*
X030777Y038601D01*
X030854Y038524D01*
X030854Y038447D01*
X030777Y038370D01*
X030624Y038370D01*
X030547Y038447D01*
X030547Y038601D01*
X030700Y038754D01*
X030854Y038831D01*
X036453Y032956D02*
X036376Y032879D01*
X036376Y032802D01*
X036453Y032726D01*
X036606Y032726D01*
X036683Y032649D01*
X036683Y032572D01*
X036606Y032495D01*
X036453Y032495D01*
X036376Y032572D01*
X036453Y032956D02*
X036606Y032956D01*
X036683Y032879D01*
X036836Y032726D02*
X037067Y032726D01*
X037143Y032649D01*
X037143Y032572D01*
X037067Y032495D01*
X036913Y032495D01*
X036836Y032572D01*
X036836Y032726D01*
X036990Y032879D01*
X037143Y032956D01*
X037297Y032726D02*
X037604Y032726D01*
X037527Y032956D02*
X037297Y032726D01*
X037527Y032495D02*
X037527Y032956D01*
X033979Y029379D02*
X033979Y029302D01*
X033902Y029226D01*
X033979Y029149D01*
X033979Y029072D01*
X033902Y028995D01*
X033749Y028995D01*
X033672Y029072D01*
X033518Y029072D02*
X033518Y029149D01*
X033442Y029226D01*
X033211Y029226D01*
X033211Y029072D01*
X033288Y028995D01*
X033442Y028995D01*
X033518Y029072D01*
X033365Y029379D02*
X033211Y029226D01*
X033058Y029149D02*
X033058Y029072D01*
X032981Y028995D01*
X032828Y028995D01*
X032751Y029072D01*
X032828Y029226D02*
X032981Y029226D01*
X033058Y029149D01*
X033058Y029379D02*
X032981Y029456D01*
X032828Y029456D01*
X032751Y029379D01*
X032751Y029302D01*
X032828Y029226D01*
X033365Y029379D02*
X033518Y029456D01*
X033672Y029379D02*
X033749Y029456D01*
X033902Y029456D01*
X033979Y029379D01*
X033902Y029226D02*
X033825Y029226D01*
X030700Y023831D02*
X030700Y023370D01*
X030547Y023370D02*
X030854Y023370D01*
X030547Y023677D02*
X030700Y023831D01*
X030393Y023831D02*
X030393Y023754D01*
X030086Y023447D01*
X030086Y023370D01*
X029933Y023447D02*
X029856Y023370D01*
X029703Y023370D01*
X029626Y023447D01*
X029703Y023601D02*
X029626Y023677D01*
X029626Y023754D01*
X029703Y023831D01*
X029856Y023831D01*
X029933Y023754D01*
X029856Y023601D02*
X029933Y023524D01*
X029933Y023447D01*
X029856Y023601D02*
X029703Y023601D01*
X030086Y023831D02*
X030393Y023831D01*
X023354Y023754D02*
X023354Y023447D01*
X023277Y023370D01*
X023124Y023370D01*
X023047Y023447D01*
X023354Y023754D01*
X023277Y023831D01*
X023124Y023831D01*
X023047Y023754D01*
X023047Y023447D01*
X022893Y023754D02*
X022586Y023447D01*
X022586Y023370D01*
X022433Y023447D02*
X022356Y023370D01*
X022203Y023370D01*
X022126Y023447D01*
X022203Y023601D02*
X022356Y023601D01*
X022433Y023524D01*
X022433Y023447D01*
X022203Y023601D02*
X022126Y023677D01*
X022126Y023754D01*
X022203Y023831D01*
X022356Y023831D01*
X022433Y023754D01*
X022586Y023831D02*
X022893Y023831D01*
X022893Y023754D01*
X014854Y025072D02*
X014854Y025379D01*
X014777Y025456D01*
X014624Y025456D01*
X014547Y025379D01*
X014547Y025302D01*
X014624Y025226D01*
X014854Y025226D01*
X014854Y025072D02*
X014777Y024995D01*
X014624Y024995D01*
X014547Y025072D01*
X014393Y025072D02*
X014393Y025149D01*
X014317Y025226D01*
X014086Y025226D01*
X014086Y025072D01*
X014163Y024995D01*
X014317Y024995D01*
X014393Y025072D01*
X014240Y025379D02*
X014086Y025226D01*
X013933Y025149D02*
X013933Y025072D01*
X013856Y024995D01*
X013703Y024995D01*
X013626Y025072D01*
X013703Y025226D02*
X013856Y025226D01*
X013933Y025149D01*
X013933Y025379D02*
X013856Y025456D01*
X013703Y025456D01*
X013626Y025379D01*
X013626Y025302D01*
X013703Y025226D01*
X014240Y025379D02*
X014393Y025456D01*
X008229Y023629D02*
X008229Y023552D01*
X008152Y023476D01*
X007999Y023476D01*
X007922Y023552D01*
X007922Y023629D01*
X007999Y023706D01*
X008152Y023706D01*
X008229Y023629D01*
X008152Y023476D02*
X008229Y023399D01*
X008229Y023322D01*
X008152Y023245D01*
X007999Y023245D01*
X007922Y023322D01*
X007922Y023399D01*
X007999Y023476D01*
X007768Y023399D02*
X007692Y023476D01*
X007461Y023476D01*
X007461Y023322D01*
X007538Y023245D01*
X007692Y023245D01*
X007768Y023322D01*
X007768Y023399D01*
X007615Y023629D02*
X007461Y023476D01*
X007308Y023399D02*
X007308Y023322D01*
X007231Y023245D01*
X007078Y023245D01*
X007001Y023322D01*
X007078Y023476D02*
X007231Y023476D01*
X007308Y023399D01*
X007308Y023629D02*
X007231Y023706D01*
X007078Y023706D01*
X007001Y023629D01*
X007001Y023552D01*
X007078Y023476D01*
X007615Y023629D02*
X007768Y023706D01*
X007527Y030745D02*
X007374Y030745D01*
X007297Y030822D01*
X007604Y031129D01*
X007604Y030822D01*
X007527Y030745D01*
X007297Y030822D02*
X007297Y031129D01*
X007374Y031206D01*
X007527Y031206D01*
X007604Y031129D01*
X007143Y031206D02*
X006990Y031129D01*
X006836Y030976D01*
X007067Y030976D01*
X007143Y030899D01*
X007143Y030822D01*
X007067Y030745D01*
X006913Y030745D01*
X006836Y030822D01*
X006836Y030976D01*
X006683Y030899D02*
X006606Y030976D01*
X006453Y030976D01*
X006376Y031052D01*
X006376Y031129D01*
X006453Y031206D01*
X006606Y031206D01*
X006683Y031129D01*
X006683Y030899D02*
X006683Y030822D01*
X006606Y030745D01*
X006453Y030745D01*
X006376Y030822D01*
X013501Y032572D02*
X013578Y032495D01*
X013731Y032495D01*
X013808Y032572D01*
X013808Y032649D01*
X013731Y032726D01*
X013578Y032726D01*
X013501Y032802D01*
X013501Y032879D01*
X013578Y032956D01*
X013731Y032956D01*
X013808Y032879D01*
X013961Y032726D02*
X014192Y032726D01*
X014268Y032649D01*
X014268Y032572D01*
X014192Y032495D01*
X014038Y032495D01*
X013961Y032572D01*
X013961Y032726D01*
X014115Y032879D01*
X014268Y032956D01*
X014422Y032802D02*
X014575Y032956D01*
X014575Y032495D01*
X014422Y032495D02*
X014729Y032495D01*
X022001Y031129D02*
X022001Y031052D01*
X022078Y030976D01*
X022231Y030976D01*
X022308Y030899D01*
X022308Y030822D01*
X022231Y030745D01*
X022078Y030745D01*
X022001Y030822D01*
X022001Y031129D02*
X022078Y031206D01*
X022231Y031206D01*
X022308Y031129D01*
X022461Y030976D02*
X022692Y030976D01*
X022768Y030899D01*
X022768Y030822D01*
X022692Y030745D01*
X022538Y030745D01*
X022461Y030822D01*
X022461Y030976D01*
X022615Y031129D01*
X022768Y031206D01*
X022922Y031129D02*
X022999Y031206D01*
X023152Y031206D01*
X023229Y031129D01*
X023229Y031052D01*
X022922Y030745D01*
X023229Y030745D01*
X022604Y017956D02*
X022604Y017879D01*
X022297Y017572D01*
X022297Y017495D01*
X022143Y017879D02*
X021836Y017572D01*
X021836Y017495D01*
X021683Y017572D02*
X021606Y017495D01*
X021453Y017495D01*
X021376Y017572D01*
X021453Y017726D02*
X021376Y017802D01*
X021376Y017879D01*
X021453Y017956D01*
X021606Y017956D01*
X021683Y017879D01*
X021606Y017726D02*
X021683Y017649D01*
X021683Y017572D01*
X021606Y017726D02*
X021453Y017726D01*
X021836Y017956D02*
X022143Y017956D01*
X022143Y017879D01*
X022297Y017956D02*
X022604Y017956D01*
X015104Y016081D02*
X014950Y016004D01*
X014797Y015851D01*
X015027Y015851D01*
X015104Y015774D01*
X015104Y015697D01*
X015027Y015620D01*
X014874Y015620D01*
X014797Y015697D01*
X014797Y015851D01*
X014643Y016004D02*
X014336Y015697D01*
X014336Y015620D01*
X014183Y015697D02*
X014106Y015620D01*
X013953Y015620D01*
X013876Y015697D01*
X013953Y015851D02*
X014106Y015851D01*
X014183Y015774D01*
X014183Y015697D01*
X013953Y015851D02*
X013876Y015927D01*
X013876Y016004D01*
X013953Y016081D01*
X014106Y016081D01*
X014183Y016004D01*
X014336Y016081D02*
X014643Y016081D01*
X014643Y016004D01*
X016492Y011831D02*
X016416Y011754D01*
X016416Y011677D01*
X016492Y011601D01*
X016646Y011601D01*
X016723Y011524D01*
X016723Y011447D01*
X016646Y011370D01*
X016492Y011370D01*
X016416Y011447D01*
X016492Y011831D02*
X016646Y011831D01*
X016723Y011754D01*
X016876Y011754D02*
X016876Y011677D01*
X016953Y011601D01*
X017106Y011601D01*
X017183Y011524D01*
X017183Y011447D01*
X017106Y011370D01*
X016953Y011370D01*
X016876Y011447D01*
X016876Y011524D01*
X016953Y011601D01*
X017106Y011601D02*
X017183Y011677D01*
X017183Y011754D01*
X017106Y011831D01*
X016953Y011831D01*
X016876Y011754D01*
X017336Y011754D02*
X017413Y011831D01*
X017567Y011831D01*
X017643Y011754D01*
X017643Y011677D01*
X017336Y011370D01*
X017643Y011370D01*
X017797Y011370D02*
X017797Y011677D01*
X017950Y011831D01*
X018104Y011677D01*
X018104Y011370D01*
X018104Y011601D02*
X017797Y011601D01*
X012604Y010254D02*
X012527Y010331D01*
X012374Y010331D01*
X012297Y010254D01*
X012143Y010254D02*
X012143Y010177D01*
X012067Y010101D01*
X011913Y010101D01*
X011836Y010177D01*
X011836Y010254D01*
X011913Y010331D01*
X012067Y010331D01*
X012143Y010254D01*
X012067Y010101D02*
X012143Y010024D01*
X012143Y009947D01*
X012067Y009870D01*
X011913Y009870D01*
X011836Y009947D01*
X011836Y010024D01*
X011913Y010101D01*
X011683Y010024D02*
X011683Y009947D01*
X011606Y009870D01*
X011453Y009870D01*
X011376Y009947D01*
X011453Y010101D02*
X011606Y010101D01*
X011683Y010024D01*
X011683Y010254D02*
X011606Y010331D01*
X011453Y010331D01*
X011376Y010254D01*
X011376Y010177D01*
X011453Y010101D01*
X012297Y009870D02*
X012604Y010177D01*
X012604Y010254D01*
X012604Y009870D02*
X012297Y009870D01*
X007652Y015745D02*
X007499Y015745D01*
X007422Y015822D01*
X007422Y015976D02*
X007575Y016052D01*
X007652Y016052D01*
X007729Y015976D01*
X007729Y015822D01*
X007652Y015745D01*
X007422Y015976D02*
X007422Y016206D01*
X007729Y016206D01*
X007268Y016206D02*
X007268Y016129D01*
X006961Y015822D01*
X006961Y015745D01*
X006808Y015822D02*
X006731Y015745D01*
X006578Y015745D01*
X006501Y015822D01*
X006578Y015976D02*
X006731Y015976D01*
X006808Y015899D01*
X006808Y015822D01*
X006578Y015976D02*
X006501Y016052D01*
X006501Y016129D01*
X006578Y016206D01*
X006731Y016206D01*
X006808Y016129D01*
X006961Y016206D02*
X007268Y016206D01*
X061126Y050447D02*
X061203Y050370D01*
X061356Y050370D01*
X061433Y050447D01*
X061433Y050524D01*
X061356Y050601D01*
X061203Y050601D01*
X061126Y050677D01*
X061126Y050754D01*
X061203Y050831D01*
X061356Y050831D01*
X061433Y050754D01*
X061586Y050831D02*
X061893Y050831D01*
X061893Y050754D01*
X061586Y050447D01*
X061586Y050370D01*
X062047Y050601D02*
X062277Y050831D01*
X062277Y050370D01*
X062354Y050601D02*
X062047Y050601D01*
X064953Y010456D02*
X064876Y010379D01*
X064876Y010302D01*
X064953Y010226D01*
X065106Y010226D01*
X065183Y010149D01*
X065183Y010072D01*
X065106Y009995D01*
X064953Y009995D01*
X064876Y010072D01*
X064953Y010456D02*
X065106Y010456D01*
X065183Y010379D01*
X065336Y010379D02*
X065336Y010302D01*
X065413Y010226D01*
X065567Y010226D01*
X065643Y010149D01*
X065643Y010072D01*
X065567Y009995D01*
X065413Y009995D01*
X065336Y010072D01*
X065336Y010149D01*
X065413Y010226D01*
X065567Y010226D02*
X065643Y010302D01*
X065643Y010379D01*
X065567Y010456D01*
X065413Y010456D01*
X065336Y010379D01*
X065797Y010226D02*
X066027Y010226D01*
X066104Y010149D01*
X066104Y010072D01*
X066027Y009995D01*
X065874Y009995D01*
X065797Y010072D01*
X065797Y010226D01*
X065950Y010379D01*
X066104Y010456D01*
D16*
X067156Y012894D02*
X060069Y005807D01*
X067156Y005807D01*
X060069Y012894D01*
X060069Y005807D01*
X059640Y005807D02*
X050585Y012894D01*
X050585Y005807D01*
X059640Y012894D01*
X059640Y005807D01*
X050585Y005807D01*
X050140Y005807D02*
X041085Y012894D01*
X041085Y005807D01*
X050140Y012894D01*
X050140Y005807D01*
X041085Y005807D01*
X040656Y005807D02*
X033569Y012894D01*
X033569Y005807D01*
X040656Y012894D01*
X040656Y005807D01*
X033569Y005807D01*
X033140Y005807D02*
X024085Y012894D01*
X024085Y005807D01*
X033140Y012894D01*
X033140Y005807D01*
X024085Y005807D01*
X023755Y005807D02*
X007220Y012894D01*
X007220Y005807D01*
X023755Y012894D01*
X007220Y012894D01*
X005569Y013307D02*
X012656Y020394D01*
X012656Y013307D01*
X005569Y020394D01*
X005569Y013307D01*
X012656Y013307D01*
X013069Y013307D02*
X020156Y020394D01*
X020156Y013307D01*
X013069Y020394D01*
X013069Y013307D01*
X020156Y013307D01*
X020569Y013307D02*
X027656Y020394D01*
X027656Y013307D01*
X020569Y020394D01*
X020569Y013307D01*
X027656Y013307D01*
X028069Y013307D02*
X035156Y020394D01*
X035156Y013307D01*
X028069Y020394D01*
X028069Y013307D01*
X035156Y013307D01*
X035569Y013307D02*
X042656Y020394D01*
X042656Y013307D01*
X035569Y020394D01*
X035569Y013307D01*
X042656Y013307D01*
X043069Y013307D02*
X050156Y020394D01*
X050156Y013307D01*
X043069Y020394D01*
X043069Y013307D01*
X050156Y013307D01*
X050140Y012894D02*
X041085Y012894D01*
X040656Y012894D02*
X033569Y012894D01*
X033140Y012894D02*
X024085Y012894D01*
X023755Y012894D02*
X023755Y005807D01*
X007220Y005807D01*
X003251Y005807D02*
X023723Y012894D01*
X023723Y005807D01*
X003251Y012894D01*
X003251Y005807D01*
X023723Y005807D01*
X023723Y012894D02*
X003251Y012894D01*
X005569Y020394D02*
X012656Y020394D01*
X013069Y020394D02*
X020156Y020394D01*
X020569Y020394D02*
X027656Y020394D01*
X028069Y020394D02*
X035156Y020394D01*
X035569Y020394D02*
X042656Y020394D01*
X043069Y020394D02*
X050156Y020394D01*
X050156Y020807D02*
X043069Y027894D01*
X043069Y020807D01*
X050156Y027894D01*
X050156Y020807D01*
X043069Y020807D01*
X042656Y020807D02*
X035569Y027894D01*
X035569Y020807D01*
X042656Y027894D01*
X042656Y020807D01*
X035569Y020807D01*
X035156Y020807D02*
X028069Y027894D01*
X028069Y020807D01*
X035156Y027894D01*
X035156Y020807D01*
X028069Y020807D01*
X027656Y020807D02*
X020569Y027894D01*
X020569Y020807D01*
X027656Y027894D01*
X027656Y020807D01*
X020569Y020807D01*
X020156Y020807D02*
X013069Y027894D01*
X013069Y020807D01*
X020156Y027894D01*
X020156Y020807D01*
X013069Y020807D01*
X012656Y020807D02*
X005569Y027894D01*
X005569Y020807D01*
X012656Y027894D01*
X012656Y020807D01*
X005569Y020807D01*
X005569Y027894D02*
X012656Y027894D01*
X013069Y027894D02*
X020156Y027894D01*
X020569Y027894D02*
X027656Y027894D01*
X028069Y027894D02*
X035156Y027894D01*
X035569Y027894D02*
X042656Y027894D01*
X043069Y027894D02*
X050156Y027894D01*
X050156Y028307D02*
X043069Y035394D01*
X043069Y028307D01*
X050156Y035394D01*
X050156Y028307D01*
X043069Y028307D01*
X042656Y028307D02*
X035569Y035394D01*
X035569Y028307D01*
X042656Y035394D01*
X042656Y028307D01*
X035569Y028307D01*
X035156Y028307D02*
X028069Y035394D01*
X028069Y028307D01*
X035156Y035394D01*
X035156Y028307D01*
X028069Y028307D01*
X027656Y028307D02*
X020569Y035394D01*
X020569Y028307D01*
X027656Y035394D01*
X027656Y028307D01*
X020569Y028307D01*
X020156Y028307D02*
X013069Y035394D01*
X013069Y028307D01*
X020156Y035394D01*
X020156Y028307D01*
X013069Y028307D01*
X012656Y028307D02*
X005569Y035394D01*
X005569Y028307D01*
X012656Y035394D01*
X012656Y028307D01*
X005569Y028307D01*
X005569Y035394D02*
X012656Y035394D01*
X013069Y035394D02*
X020156Y035394D01*
X020569Y035394D02*
X027656Y035394D01*
X028069Y035394D02*
X035156Y035394D01*
X035569Y035394D02*
X042656Y035394D01*
X043069Y035394D02*
X050156Y035394D01*
X050569Y035394D02*
X057656Y028307D01*
X057656Y035394D01*
X050569Y028307D01*
X057656Y028307D01*
X058069Y028307D02*
X065156Y035394D01*
X065156Y028307D01*
X058069Y035394D01*
X058069Y028307D01*
X065156Y028307D01*
X067130Y027894D02*
X050595Y020807D01*
X067130Y020807D01*
X050595Y027894D01*
X050595Y020807D01*
X050595Y020394D02*
X067130Y013307D01*
X067130Y020394D01*
X050595Y013307D01*
X067130Y013307D01*
X067156Y012894D02*
X067156Y005807D01*
X067156Y012894D02*
X060069Y012894D01*
X059640Y012894D02*
X050585Y012894D01*
X050595Y013307D02*
X050595Y020394D01*
X067130Y020394D01*
X067130Y020807D02*
X067130Y027894D01*
X050595Y027894D01*
X050569Y028307D02*
X050569Y035394D01*
X057656Y035394D01*
X058069Y035394D02*
X065156Y035394D01*
X067390Y035807D02*
X058335Y042894D01*
X058335Y035807D01*
X067390Y042894D01*
X067390Y035807D01*
X058335Y035807D01*
X057656Y035807D02*
X050569Y042894D01*
X050569Y035807D01*
X057656Y042894D01*
X057656Y035807D01*
X050569Y035807D01*
X050156Y035807D02*
X043069Y042894D01*
X043069Y035807D01*
X050156Y042894D01*
X050156Y035807D01*
X043069Y035807D01*
X042656Y035807D02*
X035569Y042894D01*
X035569Y035807D01*
X042656Y042894D01*
X042656Y035807D01*
X035569Y035807D01*
X035156Y035807D02*
X028069Y042894D01*
X028069Y035807D01*
X035156Y042894D01*
X035156Y035807D01*
X028069Y035807D01*
X027656Y035807D02*
X020569Y042894D01*
X020569Y035807D01*
X027656Y042894D01*
X027656Y035807D01*
X020569Y035807D01*
X020156Y035807D02*
X013069Y042894D01*
X013069Y035807D01*
X020156Y042894D01*
X020156Y035807D01*
X013069Y035807D01*
X012656Y035807D02*
X005569Y042894D01*
X005569Y035807D01*
X012656Y042894D01*
X012656Y035807D01*
X005569Y035807D01*
X005569Y042894D02*
X012656Y042894D01*
X013069Y042894D02*
X020156Y042894D01*
X020569Y042894D02*
X027656Y042894D01*
X028069Y042894D02*
X035156Y042894D01*
X035569Y042894D02*
X042656Y042894D01*
X043069Y042894D02*
X050156Y042894D01*
X050569Y042894D02*
X057656Y042894D01*
X058335Y042894D02*
X067390Y042894D01*
X067156Y046307D02*
X060069Y053394D01*
X060069Y046307D01*
X067156Y053394D01*
X067156Y046307D01*
X060069Y046307D01*
X053156Y046307D02*
X046069Y053394D01*
X046069Y046307D01*
X053156Y053394D01*
X053156Y046307D01*
X046069Y046307D01*
X045656Y046307D02*
X038569Y053394D01*
X038569Y046307D01*
X045656Y053394D01*
X045656Y046307D01*
X038569Y046307D01*
X038156Y046307D02*
X031069Y053394D01*
X031069Y046307D01*
X038156Y053394D01*
X038156Y046307D01*
X031069Y046307D01*
X030656Y046307D02*
X023569Y053394D01*
X023569Y046307D01*
X030656Y053394D01*
X030656Y046307D01*
X023569Y046307D01*
X020156Y046307D02*
X013069Y053394D01*
X013069Y046307D01*
X020156Y053394D01*
X020156Y046307D01*
X013069Y046307D01*
X012656Y046307D02*
X005569Y053394D01*
X005569Y046307D01*
X012656Y053394D01*
X012656Y046307D01*
X005569Y046307D01*
X005569Y053394D02*
X012656Y053394D01*
X013069Y053394D02*
X020156Y053394D01*
X023569Y053394D02*
X030656Y053394D01*
X031069Y053394D02*
X038156Y053394D01*
X038569Y053394D02*
X045656Y053394D01*
X046069Y053394D02*
X053156Y053394D01*
X060069Y053394D02*
X067156Y053394D01*
D17*
X058637Y051475D02*
X057887Y051475D01*
X057802Y051626D02*
X057802Y052335D01*
X057172Y052335D02*
X057172Y051626D01*
X057087Y051475D02*
X056337Y051475D01*
X056337Y043475D01*
X058637Y043475D01*
X058637Y051475D01*
X057887Y051475D02*
X057885Y051436D01*
X057879Y051397D01*
X057870Y051359D01*
X057857Y051322D01*
X057840Y051286D01*
X057820Y051253D01*
X057796Y051221D01*
X057770Y051192D01*
X057741Y051166D01*
X057709Y051142D01*
X057676Y051122D01*
X057640Y051105D01*
X057603Y051092D01*
X057565Y051083D01*
X057526Y051077D01*
X057487Y051075D01*
X057448Y051077D01*
X057409Y051083D01*
X057371Y051092D01*
X057334Y051105D01*
X057298Y051122D01*
X057265Y051142D01*
X057233Y051166D01*
X057204Y051192D01*
X057178Y051221D01*
X057154Y051253D01*
X057134Y051286D01*
X057117Y051322D01*
X057104Y051359D01*
X057095Y051397D01*
X057089Y051436D01*
X057087Y051475D01*
X057047Y050335D02*
X057047Y049626D01*
X057677Y049626D02*
X057677Y050335D01*
X057797Y050335D02*
X057797Y049626D01*
X058427Y049626D02*
X058427Y050335D01*
X054427Y051366D02*
X054427Y052075D01*
X053797Y052075D02*
X053797Y051366D01*
X053552Y051241D02*
X053552Y051950D01*
X052922Y051950D02*
X052922Y051241D01*
X053763Y052786D02*
X054472Y052786D01*
X054472Y053415D02*
X053763Y053415D01*
X050587Y047040D02*
X049878Y047040D01*
X049878Y046411D02*
X050587Y046411D01*
X050587Y046165D02*
X049878Y046165D01*
X048712Y046040D02*
X048003Y046040D01*
X048003Y045411D02*
X048712Y045411D01*
X048712Y045165D02*
X048003Y045165D01*
X048003Y044536D02*
X048712Y044536D01*
X048712Y044290D02*
X048003Y044290D01*
X048003Y043661D02*
X048712Y043661D01*
X049878Y043786D02*
X050587Y043786D01*
X050587Y044415D02*
X049878Y044415D01*
X049878Y044661D02*
X050587Y044661D01*
X050587Y045290D02*
X049878Y045290D01*
X049878Y045536D02*
X050587Y045536D01*
X058297Y040710D02*
X058297Y040001D01*
X058927Y040001D02*
X058927Y040710D01*
X058927Y038710D02*
X058927Y038001D01*
X058297Y038001D02*
X058297Y038710D01*
X062763Y036415D02*
X063472Y036415D01*
X063472Y035786D02*
X062763Y035786D01*
X050659Y030540D02*
X049950Y030540D01*
X049950Y029911D02*
X050659Y029911D01*
X048212Y035536D02*
X047503Y035536D01*
X047503Y036165D02*
X048212Y036165D01*
X042722Y040661D02*
X042013Y040661D01*
X042013Y041290D02*
X042722Y041290D01*
X041212Y043661D02*
X040503Y043661D01*
X040503Y044290D02*
X041212Y044290D01*
X041212Y044536D02*
X040503Y044536D01*
X040503Y045165D02*
X041212Y045165D01*
X041212Y045411D02*
X040503Y045411D01*
X040503Y046040D02*
X041212Y046040D01*
X033587Y046040D02*
X032878Y046040D01*
X032878Y045411D02*
X033587Y045411D01*
X033462Y045165D02*
X032753Y045165D01*
X032753Y044536D02*
X033462Y044536D01*
X033337Y044290D02*
X032628Y044290D01*
X032628Y043661D02*
X033337Y043661D01*
X033347Y043415D02*
X032638Y043415D01*
X032638Y042786D02*
X033347Y042786D01*
X026737Y043450D02*
X026737Y045750D01*
X019737Y045750D01*
X019737Y045000D01*
X019776Y044998D01*
X019815Y044992D01*
X019853Y044983D01*
X019890Y044970D01*
X019926Y044953D01*
X019959Y044933D01*
X019991Y044909D01*
X020020Y044883D01*
X020046Y044854D01*
X020070Y044822D01*
X020090Y044789D01*
X020107Y044753D01*
X020120Y044716D01*
X020129Y044678D01*
X020135Y044639D01*
X020137Y044600D01*
X020135Y044561D01*
X020129Y044522D01*
X020120Y044484D01*
X020107Y044447D01*
X020090Y044411D01*
X020070Y044378D01*
X020046Y044346D01*
X020020Y044317D01*
X019991Y044291D01*
X019959Y044267D01*
X019926Y044247D01*
X019890Y044230D01*
X019853Y044217D01*
X019815Y044208D01*
X019776Y044202D01*
X019737Y044200D01*
X019737Y043450D01*
X026737Y043450D01*
X023472Y046786D02*
X022763Y046786D01*
X022763Y047415D02*
X023472Y047415D01*
X023222Y048286D02*
X022513Y048286D01*
X022513Y048915D02*
X023222Y048915D01*
X023888Y050536D02*
X024597Y050536D01*
X024597Y051165D02*
X023888Y051165D01*
X023177Y051063D02*
X023177Y051772D01*
X022547Y051772D02*
X022547Y051063D01*
X021177Y051501D02*
X021177Y052210D01*
X020547Y052210D02*
X020547Y051501D01*
X020513Y048915D02*
X021222Y048915D01*
X021222Y048286D02*
X020513Y048286D01*
X020513Y048165D02*
X021222Y048165D01*
X021222Y047536D02*
X020513Y047536D01*
X020513Y047415D02*
X021222Y047415D01*
X021222Y046786D02*
X020513Y046786D01*
X017987Y044725D02*
X017987Y043725D01*
X017980Y043725D02*
X017087Y043725D01*
X016987Y043825D01*
X016887Y043725D01*
X016087Y043725D01*
X015987Y043825D01*
X015887Y043725D01*
X015087Y043725D01*
X014987Y043825D01*
X014887Y043725D01*
X014087Y043725D01*
X013987Y043825D01*
X013887Y043725D01*
X013087Y043725D01*
X012987Y043825D01*
X012887Y043725D01*
X012087Y043725D01*
X011987Y043825D01*
X011887Y043725D01*
X011087Y043725D01*
X010987Y043825D01*
X010887Y043725D01*
X010087Y043725D01*
X009987Y043825D01*
X009887Y043725D01*
X009087Y043725D01*
X008987Y043825D01*
X008887Y043725D01*
X008087Y043725D01*
X007987Y043825D01*
X007887Y043725D01*
X006987Y043725D01*
X006987Y044725D01*
X007887Y044725D01*
X007987Y044625D01*
X008087Y044725D01*
X008887Y044725D01*
X008987Y044625D01*
X009087Y044725D01*
X009887Y044725D01*
X009987Y044625D01*
X010087Y044725D01*
X010887Y044725D01*
X010987Y044625D01*
X011087Y044725D01*
X011887Y044725D01*
X011987Y044625D01*
X012087Y044725D01*
X012887Y044725D01*
X012987Y044625D01*
X013087Y044725D01*
X013887Y044725D01*
X013987Y044625D01*
X014087Y044725D01*
X014887Y044725D01*
X014987Y044625D01*
X015087Y044725D01*
X015887Y044725D01*
X015987Y044625D01*
X016087Y044725D01*
X016887Y044725D01*
X016987Y044625D01*
X017087Y044725D01*
X017980Y044725D01*
X017687Y044425D02*
X017587Y044425D01*
X017587Y044525D01*
X017387Y044525D01*
X017387Y044425D01*
X017287Y044425D01*
X017287Y044025D01*
X017387Y044025D01*
X017387Y043925D01*
X017587Y043925D01*
X017587Y044025D01*
X017687Y044025D01*
X017687Y044425D01*
X016687Y044425D02*
X016587Y044425D01*
X016587Y044525D01*
X016387Y044525D01*
X016387Y044425D01*
X016287Y044425D01*
X016287Y044025D01*
X016387Y044025D01*
X016387Y043925D01*
X016587Y043925D01*
X016587Y044025D01*
X016687Y044025D01*
X016687Y044425D01*
X015687Y044425D02*
X015587Y044425D01*
X015587Y044525D01*
X015387Y044525D01*
X015387Y044425D01*
X015287Y044425D01*
X015287Y044025D01*
X015387Y044025D01*
X015387Y043925D01*
X015587Y043925D01*
X015587Y044025D01*
X015687Y044025D01*
X015687Y044425D01*
X014687Y044425D02*
X014587Y044425D01*
X014587Y044525D01*
X014387Y044525D01*
X014387Y044425D01*
X014287Y044425D01*
X014287Y044025D01*
X014387Y044025D01*
X014387Y043925D01*
X014587Y043925D01*
X014587Y044025D01*
X014687Y044025D01*
X014687Y044425D01*
X013687Y044425D02*
X013587Y044425D01*
X013587Y044525D01*
X013387Y044525D01*
X013387Y044425D01*
X013287Y044425D01*
X013287Y044025D01*
X013387Y044025D01*
X013387Y043925D01*
X013587Y043925D01*
X013587Y044025D01*
X013687Y044025D01*
X013687Y044425D01*
X012687Y044425D02*
X012587Y044425D01*
X012587Y044525D01*
X012387Y044525D01*
X012387Y044425D01*
X012287Y044425D01*
X012287Y044025D01*
X012387Y044025D01*
X012387Y043925D01*
X012587Y043925D01*
X012587Y044025D01*
X012687Y044025D01*
X012687Y044425D01*
X011687Y044425D02*
X011587Y044425D01*
X011587Y044525D01*
X011387Y044525D01*
X011387Y044425D01*
X011287Y044425D01*
X011287Y044025D01*
X011387Y044025D01*
X011387Y043925D01*
X011587Y043925D01*
X011587Y044025D01*
X011687Y044025D01*
X011687Y044425D01*
X010687Y044425D02*
X010587Y044425D01*
X010587Y044525D01*
X010387Y044525D01*
X010387Y044425D01*
X010287Y044425D01*
X010287Y044025D01*
X010387Y044025D01*
X010387Y043925D01*
X010587Y043925D01*
X010587Y044025D01*
X010687Y044025D01*
X010687Y044425D01*
X009687Y044425D02*
X009587Y044425D01*
X009587Y044525D01*
X009387Y044525D01*
X009387Y044425D01*
X009287Y044425D01*
X009287Y044025D01*
X009387Y044025D01*
X009387Y043925D01*
X009587Y043925D01*
X009587Y044025D01*
X009687Y044025D01*
X009687Y044425D01*
X008687Y044425D02*
X008587Y044425D01*
X008587Y044525D01*
X008387Y044525D01*
X008387Y044425D01*
X008287Y044425D01*
X008287Y044025D01*
X008387Y044025D01*
X008387Y043925D01*
X008587Y043925D01*
X008587Y044025D01*
X008687Y044025D01*
X008687Y044425D01*
X007687Y044425D02*
X007587Y044425D01*
X007587Y044525D01*
X007387Y044525D01*
X007387Y044425D01*
X007287Y044425D01*
X007287Y044025D01*
X007387Y044025D01*
X007387Y043925D01*
X007587Y043925D01*
X007587Y044025D01*
X007687Y044025D01*
X007687Y044425D01*
X019172Y041825D02*
X019172Y041116D01*
X019802Y041116D02*
X019802Y041825D01*
X024513Y036540D02*
X025222Y036540D01*
X025222Y035911D02*
X024513Y035911D01*
X027547Y033450D02*
X027547Y032741D01*
X028177Y032741D02*
X028177Y033450D01*
X025972Y029165D02*
X025263Y029165D01*
X025263Y028536D02*
X025972Y028536D01*
X040128Y035911D02*
X040837Y035911D01*
X040837Y036540D02*
X040128Y036540D01*
X042003Y026165D02*
X042712Y026165D01*
X042712Y025536D02*
X042003Y025536D01*
X047763Y021665D02*
X048472Y021665D01*
X048472Y021036D02*
X047763Y021036D01*
X042899Y017915D02*
X042190Y017915D01*
X042190Y017286D02*
X042899Y017286D01*
X038464Y013257D02*
X037963Y013758D01*
X037517Y013312D02*
X038019Y012811D01*
X033462Y011915D02*
X032753Y011915D01*
X032753Y011286D02*
X033462Y011286D01*
X023972Y013036D02*
X023263Y013036D01*
X023263Y013665D02*
X023972Y013665D01*
X052388Y013411D02*
X053097Y013411D01*
X053097Y014040D02*
X052388Y014040D01*
X059263Y010665D02*
X059972Y010665D01*
X059972Y010036D02*
X059263Y010036D01*
X059552Y007210D02*
X059552Y006501D01*
X058922Y006501D02*
X058922Y007210D01*
X061075Y020286D02*
X061784Y020286D01*
X061784Y020915D02*
X061075Y020915D01*
D18*
X017487Y044025D03*
X017487Y044425D03*
X016487Y044425D03*
X016487Y044025D03*
X015487Y044025D03*
X015487Y044425D03*
X014487Y044425D03*
X014487Y044025D03*
X013487Y044025D03*
X013487Y044425D03*
X012487Y044425D03*
X012487Y044025D03*
X011487Y044025D03*
X011487Y044425D03*
X010487Y044425D03*
X010487Y044025D03*
X009487Y044025D03*
X009487Y044425D03*
X008487Y044425D03*
X008487Y044025D03*
X007487Y044025D03*
X007487Y044425D03*
D19*
X020365Y047101D03*
X021365Y047101D03*
X021365Y047851D03*
X021365Y048601D03*
X020365Y048601D03*
X020365Y047851D03*
X022365Y048601D03*
X023365Y048601D03*
X023615Y047101D03*
X022615Y047101D03*
X023740Y050851D03*
X024740Y050851D03*
X032735Y045725D03*
X033735Y045725D03*
X033610Y044850D03*
X033485Y043975D03*
X032485Y043975D03*
X032610Y044850D03*
X032490Y043101D03*
X033490Y043101D03*
X040360Y043975D03*
X040360Y044850D03*
X040360Y045725D03*
X041360Y045725D03*
X041360Y044850D03*
X041360Y043975D03*
X041865Y040976D03*
X042865Y040976D03*
X047860Y043975D03*
X047860Y044850D03*
X048860Y044850D03*
X048860Y043975D03*
X049735Y044100D03*
X049735Y044975D03*
X050735Y044975D03*
X050735Y044100D03*
X050735Y045850D03*
X049735Y045850D03*
X048860Y045725D03*
X047860Y045725D03*
X049735Y046725D03*
X050735Y046725D03*
X053615Y053101D03*
X054615Y053101D03*
X062615Y036101D03*
X063615Y036101D03*
X050802Y030226D03*
X049802Y030226D03*
X042860Y025850D03*
X041860Y025850D03*
X047615Y021351D03*
X048615Y021351D03*
X043047Y017600D03*
X042047Y017600D03*
G36*
X037775Y013987D02*
X037983Y013779D01*
X037497Y013293D01*
X037289Y013501D01*
X037775Y013987D01*
G37*
G36*
X038482Y013280D02*
X038690Y013072D01*
X038204Y012586D01*
X037996Y012794D01*
X038482Y013280D01*
G37*
X033610Y011600D03*
X032610Y011600D03*
X024115Y013351D03*
X023115Y013351D03*
X025115Y028851D03*
X026115Y028851D03*
X025365Y036226D03*
X024365Y036226D03*
X039985Y036225D03*
X040985Y036225D03*
X047360Y035850D03*
X048360Y035850D03*
X060927Y020601D03*
X061927Y020601D03*
X053240Y013726D03*
X052240Y013726D03*
X059115Y010351D03*
X060115Y010351D03*
D20*
X019238Y044078D03*
X019237Y045123D03*
D21*
X019488Y041973D03*
X019488Y040973D03*
X027863Y033598D03*
X027863Y032598D03*
X022862Y050915D03*
X022862Y051915D03*
X020862Y052353D03*
X020862Y051353D03*
X053238Y051098D03*
X054113Y051223D03*
X054113Y052223D03*
X053238Y052098D03*
X057487Y052478D03*
X057487Y051478D03*
X057362Y050478D03*
X058112Y050478D03*
X058112Y049478D03*
X057362Y049478D03*
X058612Y040853D03*
X058612Y039853D03*
X058612Y038853D03*
X058612Y037853D03*
X059237Y007353D03*
X059237Y006353D03*
D22*
X020397Y041100D02*
X018278Y043833D01*
M02*
