G75*
G70*
%OFA0B0*%
%FSLAX24Y24*%
%IPPOS*%
%LPD*%
%AMOC8*
5,1,8,0,0,1.08239X$1,22.5*
%
%ADD10C,0.0079*%
%ADD11C,0.0100*%
%ADD12C,0.0000*%
D10*
X004737Y004350D02*
X004737Y005663D01*
X002550Y005663D01*
X002550Y012975D01*
X004737Y012975D01*
X004737Y054850D01*
X004739Y054918D01*
X004744Y054985D01*
X004753Y055052D01*
X004766Y055119D01*
X004783Y055184D01*
X004802Y055249D01*
X004826Y055313D01*
X004853Y055375D01*
X004883Y055436D01*
X004916Y055494D01*
X004952Y055551D01*
X004992Y055606D01*
X005034Y055659D01*
X005080Y055710D01*
X005127Y055757D01*
X005178Y055803D01*
X005231Y055845D01*
X005286Y055885D01*
X005343Y055921D01*
X005401Y055954D01*
X005462Y055984D01*
X005524Y056011D01*
X005588Y056035D01*
X005653Y056054D01*
X005718Y056071D01*
X005785Y056084D01*
X005852Y056093D01*
X005919Y056098D01*
X005987Y056100D01*
X068050Y056100D01*
X068118Y056098D01*
X068185Y056093D01*
X068252Y056084D01*
X068319Y056071D01*
X068384Y056054D01*
X068449Y056035D01*
X068513Y056011D01*
X068575Y055984D01*
X068636Y055954D01*
X068694Y055921D01*
X068751Y055885D01*
X068806Y055845D01*
X068859Y055803D01*
X068910Y055757D01*
X068957Y055710D01*
X069003Y055659D01*
X069045Y055606D01*
X069085Y055551D01*
X069121Y055494D01*
X069154Y055436D01*
X069184Y055375D01*
X069211Y055313D01*
X069235Y055249D01*
X069254Y055184D01*
X069271Y055119D01*
X069284Y055052D01*
X069293Y054985D01*
X069298Y054918D01*
X069300Y054850D01*
X069300Y004350D01*
X069298Y004282D01*
X069293Y004215D01*
X069284Y004148D01*
X069271Y004081D01*
X069254Y004016D01*
X069235Y003951D01*
X069211Y003887D01*
X069184Y003825D01*
X069154Y003764D01*
X069121Y003706D01*
X069085Y003649D01*
X069045Y003594D01*
X069003Y003541D01*
X068957Y003490D01*
X068910Y003443D01*
X068859Y003397D01*
X068806Y003355D01*
X068751Y003315D01*
X068694Y003279D01*
X068636Y003246D01*
X068575Y003216D01*
X068513Y003189D01*
X068449Y003165D01*
X068384Y003146D01*
X068319Y003129D01*
X068252Y003116D01*
X068185Y003107D01*
X068118Y003102D01*
X068050Y003100D01*
X005987Y003100D01*
X005919Y003102D01*
X005852Y003107D01*
X005785Y003116D01*
X005718Y003129D01*
X005653Y003146D01*
X005588Y003165D01*
X005524Y003189D01*
X005462Y003216D01*
X005401Y003246D01*
X005343Y003279D01*
X005286Y003315D01*
X005231Y003355D01*
X005178Y003397D01*
X005127Y003443D01*
X005080Y003490D01*
X005034Y003541D01*
X004992Y003594D01*
X004952Y003649D01*
X004916Y003706D01*
X004883Y003764D01*
X004853Y003825D01*
X004826Y003887D01*
X004802Y003951D01*
X004783Y004016D01*
X004766Y004081D01*
X004753Y004148D01*
X004744Y004215D01*
X004739Y004282D01*
X004737Y004350D01*
D11*
X011646Y013100D02*
X011648Y013148D01*
X011654Y013196D01*
X011664Y013243D01*
X011677Y013289D01*
X011695Y013334D01*
X011715Y013378D01*
X011740Y013420D01*
X011768Y013459D01*
X011798Y013496D01*
X011832Y013530D01*
X011869Y013562D01*
X011907Y013591D01*
X011948Y013616D01*
X011991Y013638D01*
X012036Y013656D01*
X012082Y013670D01*
X012129Y013681D01*
X012177Y013688D01*
X012225Y013691D01*
X012273Y013690D01*
X012321Y013685D01*
X012369Y013676D01*
X012415Y013664D01*
X012460Y013647D01*
X012504Y013627D01*
X012546Y013604D01*
X012586Y013577D01*
X012624Y013547D01*
X012659Y013514D01*
X012691Y013478D01*
X012721Y013440D01*
X012747Y013399D01*
X012769Y013356D01*
X012789Y013312D01*
X012804Y013267D01*
X012816Y013220D01*
X012824Y013172D01*
X012828Y013124D01*
X012828Y013076D01*
X012824Y013028D01*
X012816Y012980D01*
X012804Y012933D01*
X012789Y012888D01*
X012769Y012844D01*
X012747Y012801D01*
X012721Y012760D01*
X012691Y012722D01*
X012659Y012686D01*
X012624Y012653D01*
X012586Y012623D01*
X012546Y012596D01*
X012504Y012573D01*
X012460Y012553D01*
X012415Y012536D01*
X012369Y012524D01*
X012321Y012515D01*
X012273Y012510D01*
X012225Y012509D01*
X012177Y012512D01*
X012129Y012519D01*
X012082Y012530D01*
X012036Y012544D01*
X011991Y012562D01*
X011948Y012584D01*
X011907Y012609D01*
X011869Y012638D01*
X011832Y012670D01*
X011798Y012704D01*
X011768Y012741D01*
X011740Y012780D01*
X011715Y012822D01*
X011695Y012866D01*
X011677Y012911D01*
X011664Y012957D01*
X011654Y013004D01*
X011648Y013052D01*
X011646Y013100D01*
X018753Y013100D02*
X018755Y013162D01*
X018761Y013225D01*
X018771Y013286D01*
X018785Y013347D01*
X018802Y013407D01*
X018823Y013466D01*
X018849Y013523D01*
X018877Y013578D01*
X018909Y013632D01*
X018945Y013683D01*
X018983Y013733D01*
X019025Y013779D01*
X019069Y013823D01*
X019117Y013864D01*
X019166Y013902D01*
X019218Y013936D01*
X019272Y013967D01*
X019328Y013995D01*
X019386Y014019D01*
X019445Y014040D01*
X019505Y014056D01*
X019566Y014069D01*
X019628Y014078D01*
X019690Y014083D01*
X019753Y014084D01*
X019815Y014081D01*
X019877Y014074D01*
X019939Y014063D01*
X019999Y014048D01*
X020059Y014030D01*
X020117Y014008D01*
X020174Y013982D01*
X020229Y013952D01*
X020282Y013919D01*
X020333Y013883D01*
X020381Y013844D01*
X020427Y013801D01*
X020470Y013756D01*
X020510Y013708D01*
X020547Y013658D01*
X020581Y013605D01*
X020612Y013551D01*
X020638Y013495D01*
X020662Y013437D01*
X020681Y013377D01*
X020697Y013317D01*
X020709Y013255D01*
X020717Y013194D01*
X020721Y013131D01*
X020721Y013069D01*
X020717Y013006D01*
X020709Y012945D01*
X020697Y012883D01*
X020681Y012823D01*
X020662Y012763D01*
X020638Y012705D01*
X020612Y012649D01*
X020581Y012595D01*
X020547Y012542D01*
X020510Y012492D01*
X020470Y012444D01*
X020427Y012399D01*
X020381Y012356D01*
X020333Y012317D01*
X020282Y012281D01*
X020229Y012248D01*
X020174Y012218D01*
X020117Y012192D01*
X020059Y012170D01*
X019999Y012152D01*
X019939Y012137D01*
X019877Y012126D01*
X019815Y012119D01*
X019753Y012116D01*
X019690Y012117D01*
X019628Y012122D01*
X019566Y012131D01*
X019505Y012144D01*
X019445Y012160D01*
X019386Y012181D01*
X019328Y012205D01*
X019272Y012233D01*
X019218Y012264D01*
X019166Y012298D01*
X019117Y012336D01*
X019069Y012377D01*
X019025Y012421D01*
X018983Y012467D01*
X018945Y012517D01*
X018909Y012568D01*
X018877Y012622D01*
X018849Y012677D01*
X018823Y012734D01*
X018802Y012793D01*
X018785Y012853D01*
X018771Y012914D01*
X018761Y012975D01*
X018755Y013038D01*
X018753Y013100D01*
X026003Y013350D02*
X026005Y013412D01*
X026011Y013475D01*
X026021Y013536D01*
X026035Y013597D01*
X026052Y013657D01*
X026073Y013716D01*
X026099Y013773D01*
X026127Y013828D01*
X026159Y013882D01*
X026195Y013933D01*
X026233Y013983D01*
X026275Y014029D01*
X026319Y014073D01*
X026367Y014114D01*
X026416Y014152D01*
X026468Y014186D01*
X026522Y014217D01*
X026578Y014245D01*
X026636Y014269D01*
X026695Y014290D01*
X026755Y014306D01*
X026816Y014319D01*
X026878Y014328D01*
X026940Y014333D01*
X027003Y014334D01*
X027065Y014331D01*
X027127Y014324D01*
X027189Y014313D01*
X027249Y014298D01*
X027309Y014280D01*
X027367Y014258D01*
X027424Y014232D01*
X027479Y014202D01*
X027532Y014169D01*
X027583Y014133D01*
X027631Y014094D01*
X027677Y014051D01*
X027720Y014006D01*
X027760Y013958D01*
X027797Y013908D01*
X027831Y013855D01*
X027862Y013801D01*
X027888Y013745D01*
X027912Y013687D01*
X027931Y013627D01*
X027947Y013567D01*
X027959Y013505D01*
X027967Y013444D01*
X027971Y013381D01*
X027971Y013319D01*
X027967Y013256D01*
X027959Y013195D01*
X027947Y013133D01*
X027931Y013073D01*
X027912Y013013D01*
X027888Y012955D01*
X027862Y012899D01*
X027831Y012845D01*
X027797Y012792D01*
X027760Y012742D01*
X027720Y012694D01*
X027677Y012649D01*
X027631Y012606D01*
X027583Y012567D01*
X027532Y012531D01*
X027479Y012498D01*
X027424Y012468D01*
X027367Y012442D01*
X027309Y012420D01*
X027249Y012402D01*
X027189Y012387D01*
X027127Y012376D01*
X027065Y012369D01*
X027003Y012366D01*
X026940Y012367D01*
X026878Y012372D01*
X026816Y012381D01*
X026755Y012394D01*
X026695Y012410D01*
X026636Y012431D01*
X026578Y012455D01*
X026522Y012483D01*
X026468Y012514D01*
X026416Y012548D01*
X026367Y012586D01*
X026319Y012627D01*
X026275Y012671D01*
X026233Y012717D01*
X026195Y012767D01*
X026159Y012818D01*
X026127Y012872D01*
X026099Y012927D01*
X026073Y012984D01*
X026052Y013043D01*
X026035Y013103D01*
X026021Y013164D01*
X026011Y013225D01*
X026005Y013288D01*
X026003Y013350D01*
X033503Y013225D02*
X033505Y013287D01*
X033511Y013350D01*
X033521Y013411D01*
X033535Y013472D01*
X033552Y013532D01*
X033573Y013591D01*
X033599Y013648D01*
X033627Y013703D01*
X033659Y013757D01*
X033695Y013808D01*
X033733Y013858D01*
X033775Y013904D01*
X033819Y013948D01*
X033867Y013989D01*
X033916Y014027D01*
X033968Y014061D01*
X034022Y014092D01*
X034078Y014120D01*
X034136Y014144D01*
X034195Y014165D01*
X034255Y014181D01*
X034316Y014194D01*
X034378Y014203D01*
X034440Y014208D01*
X034503Y014209D01*
X034565Y014206D01*
X034627Y014199D01*
X034689Y014188D01*
X034749Y014173D01*
X034809Y014155D01*
X034867Y014133D01*
X034924Y014107D01*
X034979Y014077D01*
X035032Y014044D01*
X035083Y014008D01*
X035131Y013969D01*
X035177Y013926D01*
X035220Y013881D01*
X035260Y013833D01*
X035297Y013783D01*
X035331Y013730D01*
X035362Y013676D01*
X035388Y013620D01*
X035412Y013562D01*
X035431Y013502D01*
X035447Y013442D01*
X035459Y013380D01*
X035467Y013319D01*
X035471Y013256D01*
X035471Y013194D01*
X035467Y013131D01*
X035459Y013070D01*
X035447Y013008D01*
X035431Y012948D01*
X035412Y012888D01*
X035388Y012830D01*
X035362Y012774D01*
X035331Y012720D01*
X035297Y012667D01*
X035260Y012617D01*
X035220Y012569D01*
X035177Y012524D01*
X035131Y012481D01*
X035083Y012442D01*
X035032Y012406D01*
X034979Y012373D01*
X034924Y012343D01*
X034867Y012317D01*
X034809Y012295D01*
X034749Y012277D01*
X034689Y012262D01*
X034627Y012251D01*
X034565Y012244D01*
X034503Y012241D01*
X034440Y012242D01*
X034378Y012247D01*
X034316Y012256D01*
X034255Y012269D01*
X034195Y012285D01*
X034136Y012306D01*
X034078Y012330D01*
X034022Y012358D01*
X033968Y012389D01*
X033916Y012423D01*
X033867Y012461D01*
X033819Y012502D01*
X033775Y012546D01*
X033733Y012592D01*
X033695Y012642D01*
X033659Y012693D01*
X033627Y012747D01*
X033599Y012802D01*
X033573Y012859D01*
X033552Y012918D01*
X033535Y012978D01*
X033521Y013039D01*
X033511Y013100D01*
X033505Y013163D01*
X033503Y013225D01*
X041628Y013100D02*
X041630Y013162D01*
X041636Y013225D01*
X041646Y013286D01*
X041660Y013347D01*
X041677Y013407D01*
X041698Y013466D01*
X041724Y013523D01*
X041752Y013578D01*
X041784Y013632D01*
X041820Y013683D01*
X041858Y013733D01*
X041900Y013779D01*
X041944Y013823D01*
X041992Y013864D01*
X042041Y013902D01*
X042093Y013936D01*
X042147Y013967D01*
X042203Y013995D01*
X042261Y014019D01*
X042320Y014040D01*
X042380Y014056D01*
X042441Y014069D01*
X042503Y014078D01*
X042565Y014083D01*
X042628Y014084D01*
X042690Y014081D01*
X042752Y014074D01*
X042814Y014063D01*
X042874Y014048D01*
X042934Y014030D01*
X042992Y014008D01*
X043049Y013982D01*
X043104Y013952D01*
X043157Y013919D01*
X043208Y013883D01*
X043256Y013844D01*
X043302Y013801D01*
X043345Y013756D01*
X043385Y013708D01*
X043422Y013658D01*
X043456Y013605D01*
X043487Y013551D01*
X043513Y013495D01*
X043537Y013437D01*
X043556Y013377D01*
X043572Y013317D01*
X043584Y013255D01*
X043592Y013194D01*
X043596Y013131D01*
X043596Y013069D01*
X043592Y013006D01*
X043584Y012945D01*
X043572Y012883D01*
X043556Y012823D01*
X043537Y012763D01*
X043513Y012705D01*
X043487Y012649D01*
X043456Y012595D01*
X043422Y012542D01*
X043385Y012492D01*
X043345Y012444D01*
X043302Y012399D01*
X043256Y012356D01*
X043208Y012317D01*
X043157Y012281D01*
X043104Y012248D01*
X043049Y012218D01*
X042992Y012192D01*
X042934Y012170D01*
X042874Y012152D01*
X042814Y012137D01*
X042752Y012126D01*
X042690Y012119D01*
X042628Y012116D01*
X042565Y012117D01*
X042503Y012122D01*
X042441Y012131D01*
X042380Y012144D01*
X042320Y012160D01*
X042261Y012181D01*
X042203Y012205D01*
X042147Y012233D01*
X042093Y012264D01*
X042041Y012298D01*
X041992Y012336D01*
X041944Y012377D01*
X041900Y012421D01*
X041858Y012467D01*
X041820Y012517D01*
X041784Y012568D01*
X041752Y012622D01*
X041724Y012677D01*
X041698Y012734D01*
X041677Y012793D01*
X041660Y012853D01*
X041646Y012914D01*
X041636Y012975D01*
X041630Y013038D01*
X041628Y013100D01*
X048753Y013100D02*
X048755Y013162D01*
X048761Y013225D01*
X048771Y013286D01*
X048785Y013347D01*
X048802Y013407D01*
X048823Y013466D01*
X048849Y013523D01*
X048877Y013578D01*
X048909Y013632D01*
X048945Y013683D01*
X048983Y013733D01*
X049025Y013779D01*
X049069Y013823D01*
X049117Y013864D01*
X049166Y013902D01*
X049218Y013936D01*
X049272Y013967D01*
X049328Y013995D01*
X049386Y014019D01*
X049445Y014040D01*
X049505Y014056D01*
X049566Y014069D01*
X049628Y014078D01*
X049690Y014083D01*
X049753Y014084D01*
X049815Y014081D01*
X049877Y014074D01*
X049939Y014063D01*
X049999Y014048D01*
X050059Y014030D01*
X050117Y014008D01*
X050174Y013982D01*
X050229Y013952D01*
X050282Y013919D01*
X050333Y013883D01*
X050381Y013844D01*
X050427Y013801D01*
X050470Y013756D01*
X050510Y013708D01*
X050547Y013658D01*
X050581Y013605D01*
X050612Y013551D01*
X050638Y013495D01*
X050662Y013437D01*
X050681Y013377D01*
X050697Y013317D01*
X050709Y013255D01*
X050717Y013194D01*
X050721Y013131D01*
X050721Y013069D01*
X050717Y013006D01*
X050709Y012945D01*
X050697Y012883D01*
X050681Y012823D01*
X050662Y012763D01*
X050638Y012705D01*
X050612Y012649D01*
X050581Y012595D01*
X050547Y012542D01*
X050510Y012492D01*
X050470Y012444D01*
X050427Y012399D01*
X050381Y012356D01*
X050333Y012317D01*
X050282Y012281D01*
X050229Y012248D01*
X050174Y012218D01*
X050117Y012192D01*
X050059Y012170D01*
X049999Y012152D01*
X049939Y012137D01*
X049877Y012126D01*
X049815Y012119D01*
X049753Y012116D01*
X049690Y012117D01*
X049628Y012122D01*
X049566Y012131D01*
X049505Y012144D01*
X049445Y012160D01*
X049386Y012181D01*
X049328Y012205D01*
X049272Y012233D01*
X049218Y012264D01*
X049166Y012298D01*
X049117Y012336D01*
X049069Y012377D01*
X049025Y012421D01*
X048983Y012467D01*
X048945Y012517D01*
X048909Y012568D01*
X048877Y012622D01*
X048849Y012677D01*
X048823Y012734D01*
X048802Y012793D01*
X048785Y012853D01*
X048771Y012914D01*
X048761Y012975D01*
X048755Y013038D01*
X048753Y013100D01*
X048753Y020600D02*
X048755Y020662D01*
X048761Y020725D01*
X048771Y020786D01*
X048785Y020847D01*
X048802Y020907D01*
X048823Y020966D01*
X048849Y021023D01*
X048877Y021078D01*
X048909Y021132D01*
X048945Y021183D01*
X048983Y021233D01*
X049025Y021279D01*
X049069Y021323D01*
X049117Y021364D01*
X049166Y021402D01*
X049218Y021436D01*
X049272Y021467D01*
X049328Y021495D01*
X049386Y021519D01*
X049445Y021540D01*
X049505Y021556D01*
X049566Y021569D01*
X049628Y021578D01*
X049690Y021583D01*
X049753Y021584D01*
X049815Y021581D01*
X049877Y021574D01*
X049939Y021563D01*
X049999Y021548D01*
X050059Y021530D01*
X050117Y021508D01*
X050174Y021482D01*
X050229Y021452D01*
X050282Y021419D01*
X050333Y021383D01*
X050381Y021344D01*
X050427Y021301D01*
X050470Y021256D01*
X050510Y021208D01*
X050547Y021158D01*
X050581Y021105D01*
X050612Y021051D01*
X050638Y020995D01*
X050662Y020937D01*
X050681Y020877D01*
X050697Y020817D01*
X050709Y020755D01*
X050717Y020694D01*
X050721Y020631D01*
X050721Y020569D01*
X050717Y020506D01*
X050709Y020445D01*
X050697Y020383D01*
X050681Y020323D01*
X050662Y020263D01*
X050638Y020205D01*
X050612Y020149D01*
X050581Y020095D01*
X050547Y020042D01*
X050510Y019992D01*
X050470Y019944D01*
X050427Y019899D01*
X050381Y019856D01*
X050333Y019817D01*
X050282Y019781D01*
X050229Y019748D01*
X050174Y019718D01*
X050117Y019692D01*
X050059Y019670D01*
X049999Y019652D01*
X049939Y019637D01*
X049877Y019626D01*
X049815Y019619D01*
X049753Y019616D01*
X049690Y019617D01*
X049628Y019622D01*
X049566Y019631D01*
X049505Y019644D01*
X049445Y019660D01*
X049386Y019681D01*
X049328Y019705D01*
X049272Y019733D01*
X049218Y019764D01*
X049166Y019798D01*
X049117Y019836D01*
X049069Y019877D01*
X049025Y019921D01*
X048983Y019967D01*
X048945Y020017D01*
X048909Y020068D01*
X048877Y020122D01*
X048849Y020177D01*
X048823Y020234D01*
X048802Y020293D01*
X048785Y020353D01*
X048771Y020414D01*
X048761Y020475D01*
X048755Y020538D01*
X048753Y020600D01*
X041253Y020600D02*
X041255Y020662D01*
X041261Y020725D01*
X041271Y020786D01*
X041285Y020847D01*
X041302Y020907D01*
X041323Y020966D01*
X041349Y021023D01*
X041377Y021078D01*
X041409Y021132D01*
X041445Y021183D01*
X041483Y021233D01*
X041525Y021279D01*
X041569Y021323D01*
X041617Y021364D01*
X041666Y021402D01*
X041718Y021436D01*
X041772Y021467D01*
X041828Y021495D01*
X041886Y021519D01*
X041945Y021540D01*
X042005Y021556D01*
X042066Y021569D01*
X042128Y021578D01*
X042190Y021583D01*
X042253Y021584D01*
X042315Y021581D01*
X042377Y021574D01*
X042439Y021563D01*
X042499Y021548D01*
X042559Y021530D01*
X042617Y021508D01*
X042674Y021482D01*
X042729Y021452D01*
X042782Y021419D01*
X042833Y021383D01*
X042881Y021344D01*
X042927Y021301D01*
X042970Y021256D01*
X043010Y021208D01*
X043047Y021158D01*
X043081Y021105D01*
X043112Y021051D01*
X043138Y020995D01*
X043162Y020937D01*
X043181Y020877D01*
X043197Y020817D01*
X043209Y020755D01*
X043217Y020694D01*
X043221Y020631D01*
X043221Y020569D01*
X043217Y020506D01*
X043209Y020445D01*
X043197Y020383D01*
X043181Y020323D01*
X043162Y020263D01*
X043138Y020205D01*
X043112Y020149D01*
X043081Y020095D01*
X043047Y020042D01*
X043010Y019992D01*
X042970Y019944D01*
X042927Y019899D01*
X042881Y019856D01*
X042833Y019817D01*
X042782Y019781D01*
X042729Y019748D01*
X042674Y019718D01*
X042617Y019692D01*
X042559Y019670D01*
X042499Y019652D01*
X042439Y019637D01*
X042377Y019626D01*
X042315Y019619D01*
X042253Y019616D01*
X042190Y019617D01*
X042128Y019622D01*
X042066Y019631D01*
X042005Y019644D01*
X041945Y019660D01*
X041886Y019681D01*
X041828Y019705D01*
X041772Y019733D01*
X041718Y019764D01*
X041666Y019798D01*
X041617Y019836D01*
X041569Y019877D01*
X041525Y019921D01*
X041483Y019967D01*
X041445Y020017D01*
X041409Y020068D01*
X041377Y020122D01*
X041349Y020177D01*
X041323Y020234D01*
X041302Y020293D01*
X041285Y020353D01*
X041271Y020414D01*
X041261Y020475D01*
X041255Y020538D01*
X041253Y020600D01*
X033691Y021100D02*
X033693Y021162D01*
X033699Y021225D01*
X033709Y021286D01*
X033723Y021347D01*
X033740Y021407D01*
X033761Y021466D01*
X033787Y021523D01*
X033815Y021578D01*
X033847Y021632D01*
X033883Y021683D01*
X033921Y021733D01*
X033963Y021779D01*
X034007Y021823D01*
X034055Y021864D01*
X034104Y021902D01*
X034156Y021936D01*
X034210Y021967D01*
X034266Y021995D01*
X034324Y022019D01*
X034383Y022040D01*
X034443Y022056D01*
X034504Y022069D01*
X034566Y022078D01*
X034628Y022083D01*
X034691Y022084D01*
X034753Y022081D01*
X034815Y022074D01*
X034877Y022063D01*
X034937Y022048D01*
X034997Y022030D01*
X035055Y022008D01*
X035112Y021982D01*
X035167Y021952D01*
X035220Y021919D01*
X035271Y021883D01*
X035319Y021844D01*
X035365Y021801D01*
X035408Y021756D01*
X035448Y021708D01*
X035485Y021658D01*
X035519Y021605D01*
X035550Y021551D01*
X035576Y021495D01*
X035600Y021437D01*
X035619Y021377D01*
X035635Y021317D01*
X035647Y021255D01*
X035655Y021194D01*
X035659Y021131D01*
X035659Y021069D01*
X035655Y021006D01*
X035647Y020945D01*
X035635Y020883D01*
X035619Y020823D01*
X035600Y020763D01*
X035576Y020705D01*
X035550Y020649D01*
X035519Y020595D01*
X035485Y020542D01*
X035448Y020492D01*
X035408Y020444D01*
X035365Y020399D01*
X035319Y020356D01*
X035271Y020317D01*
X035220Y020281D01*
X035167Y020248D01*
X035112Y020218D01*
X035055Y020192D01*
X034997Y020170D01*
X034937Y020152D01*
X034877Y020137D01*
X034815Y020126D01*
X034753Y020119D01*
X034691Y020116D01*
X034628Y020117D01*
X034566Y020122D01*
X034504Y020131D01*
X034443Y020144D01*
X034383Y020160D01*
X034324Y020181D01*
X034266Y020205D01*
X034210Y020233D01*
X034156Y020264D01*
X034104Y020298D01*
X034055Y020336D01*
X034007Y020377D01*
X033963Y020421D01*
X033921Y020467D01*
X033883Y020517D01*
X033847Y020568D01*
X033815Y020622D01*
X033787Y020677D01*
X033761Y020734D01*
X033740Y020793D01*
X033723Y020853D01*
X033709Y020914D01*
X033699Y020975D01*
X033693Y021038D01*
X033691Y021100D01*
X026253Y020600D02*
X026255Y020662D01*
X026261Y020725D01*
X026271Y020786D01*
X026285Y020847D01*
X026302Y020907D01*
X026323Y020966D01*
X026349Y021023D01*
X026377Y021078D01*
X026409Y021132D01*
X026445Y021183D01*
X026483Y021233D01*
X026525Y021279D01*
X026569Y021323D01*
X026617Y021364D01*
X026666Y021402D01*
X026718Y021436D01*
X026772Y021467D01*
X026828Y021495D01*
X026886Y021519D01*
X026945Y021540D01*
X027005Y021556D01*
X027066Y021569D01*
X027128Y021578D01*
X027190Y021583D01*
X027253Y021584D01*
X027315Y021581D01*
X027377Y021574D01*
X027439Y021563D01*
X027499Y021548D01*
X027559Y021530D01*
X027617Y021508D01*
X027674Y021482D01*
X027729Y021452D01*
X027782Y021419D01*
X027833Y021383D01*
X027881Y021344D01*
X027927Y021301D01*
X027970Y021256D01*
X028010Y021208D01*
X028047Y021158D01*
X028081Y021105D01*
X028112Y021051D01*
X028138Y020995D01*
X028162Y020937D01*
X028181Y020877D01*
X028197Y020817D01*
X028209Y020755D01*
X028217Y020694D01*
X028221Y020631D01*
X028221Y020569D01*
X028217Y020506D01*
X028209Y020445D01*
X028197Y020383D01*
X028181Y020323D01*
X028162Y020263D01*
X028138Y020205D01*
X028112Y020149D01*
X028081Y020095D01*
X028047Y020042D01*
X028010Y019992D01*
X027970Y019944D01*
X027927Y019899D01*
X027881Y019856D01*
X027833Y019817D01*
X027782Y019781D01*
X027729Y019748D01*
X027674Y019718D01*
X027617Y019692D01*
X027559Y019670D01*
X027499Y019652D01*
X027439Y019637D01*
X027377Y019626D01*
X027315Y019619D01*
X027253Y019616D01*
X027190Y019617D01*
X027128Y019622D01*
X027066Y019631D01*
X027005Y019644D01*
X026945Y019660D01*
X026886Y019681D01*
X026828Y019705D01*
X026772Y019733D01*
X026718Y019764D01*
X026666Y019798D01*
X026617Y019836D01*
X026569Y019877D01*
X026525Y019921D01*
X026483Y019967D01*
X026445Y020017D01*
X026409Y020068D01*
X026377Y020122D01*
X026349Y020177D01*
X026323Y020234D01*
X026302Y020293D01*
X026285Y020353D01*
X026271Y020414D01*
X026261Y020475D01*
X026255Y020538D01*
X026253Y020600D01*
X018753Y020600D02*
X018755Y020662D01*
X018761Y020725D01*
X018771Y020786D01*
X018785Y020847D01*
X018802Y020907D01*
X018823Y020966D01*
X018849Y021023D01*
X018877Y021078D01*
X018909Y021132D01*
X018945Y021183D01*
X018983Y021233D01*
X019025Y021279D01*
X019069Y021323D01*
X019117Y021364D01*
X019166Y021402D01*
X019218Y021436D01*
X019272Y021467D01*
X019328Y021495D01*
X019386Y021519D01*
X019445Y021540D01*
X019505Y021556D01*
X019566Y021569D01*
X019628Y021578D01*
X019690Y021583D01*
X019753Y021584D01*
X019815Y021581D01*
X019877Y021574D01*
X019939Y021563D01*
X019999Y021548D01*
X020059Y021530D01*
X020117Y021508D01*
X020174Y021482D01*
X020229Y021452D01*
X020282Y021419D01*
X020333Y021383D01*
X020381Y021344D01*
X020427Y021301D01*
X020470Y021256D01*
X020510Y021208D01*
X020547Y021158D01*
X020581Y021105D01*
X020612Y021051D01*
X020638Y020995D01*
X020662Y020937D01*
X020681Y020877D01*
X020697Y020817D01*
X020709Y020755D01*
X020717Y020694D01*
X020721Y020631D01*
X020721Y020569D01*
X020717Y020506D01*
X020709Y020445D01*
X020697Y020383D01*
X020681Y020323D01*
X020662Y020263D01*
X020638Y020205D01*
X020612Y020149D01*
X020581Y020095D01*
X020547Y020042D01*
X020510Y019992D01*
X020470Y019944D01*
X020427Y019899D01*
X020381Y019856D01*
X020333Y019817D01*
X020282Y019781D01*
X020229Y019748D01*
X020174Y019718D01*
X020117Y019692D01*
X020059Y019670D01*
X019999Y019652D01*
X019939Y019637D01*
X019877Y019626D01*
X019815Y019619D01*
X019753Y019616D01*
X019690Y019617D01*
X019628Y019622D01*
X019566Y019631D01*
X019505Y019644D01*
X019445Y019660D01*
X019386Y019681D01*
X019328Y019705D01*
X019272Y019733D01*
X019218Y019764D01*
X019166Y019798D01*
X019117Y019836D01*
X019069Y019877D01*
X019025Y019921D01*
X018983Y019967D01*
X018945Y020017D01*
X018909Y020068D01*
X018877Y020122D01*
X018849Y020177D01*
X018823Y020234D01*
X018802Y020293D01*
X018785Y020353D01*
X018771Y020414D01*
X018761Y020475D01*
X018755Y020538D01*
X018753Y020600D01*
X011646Y020600D02*
X011648Y020648D01*
X011654Y020696D01*
X011664Y020743D01*
X011677Y020789D01*
X011695Y020834D01*
X011715Y020878D01*
X011740Y020920D01*
X011768Y020959D01*
X011798Y020996D01*
X011832Y021030D01*
X011869Y021062D01*
X011907Y021091D01*
X011948Y021116D01*
X011991Y021138D01*
X012036Y021156D01*
X012082Y021170D01*
X012129Y021181D01*
X012177Y021188D01*
X012225Y021191D01*
X012273Y021190D01*
X012321Y021185D01*
X012369Y021176D01*
X012415Y021164D01*
X012460Y021147D01*
X012504Y021127D01*
X012546Y021104D01*
X012586Y021077D01*
X012624Y021047D01*
X012659Y021014D01*
X012691Y020978D01*
X012721Y020940D01*
X012747Y020899D01*
X012769Y020856D01*
X012789Y020812D01*
X012804Y020767D01*
X012816Y020720D01*
X012824Y020672D01*
X012828Y020624D01*
X012828Y020576D01*
X012824Y020528D01*
X012816Y020480D01*
X012804Y020433D01*
X012789Y020388D01*
X012769Y020344D01*
X012747Y020301D01*
X012721Y020260D01*
X012691Y020222D01*
X012659Y020186D01*
X012624Y020153D01*
X012586Y020123D01*
X012546Y020096D01*
X012504Y020073D01*
X012460Y020053D01*
X012415Y020036D01*
X012369Y020024D01*
X012321Y020015D01*
X012273Y020010D01*
X012225Y020009D01*
X012177Y020012D01*
X012129Y020019D01*
X012082Y020030D01*
X012036Y020044D01*
X011991Y020062D01*
X011948Y020084D01*
X011907Y020109D01*
X011869Y020138D01*
X011832Y020170D01*
X011798Y020204D01*
X011768Y020241D01*
X011740Y020280D01*
X011715Y020322D01*
X011695Y020366D01*
X011677Y020411D01*
X011664Y020457D01*
X011654Y020504D01*
X011648Y020552D01*
X011646Y020600D01*
X011646Y028100D02*
X011648Y028148D01*
X011654Y028196D01*
X011664Y028243D01*
X011677Y028289D01*
X011695Y028334D01*
X011715Y028378D01*
X011740Y028420D01*
X011768Y028459D01*
X011798Y028496D01*
X011832Y028530D01*
X011869Y028562D01*
X011907Y028591D01*
X011948Y028616D01*
X011991Y028638D01*
X012036Y028656D01*
X012082Y028670D01*
X012129Y028681D01*
X012177Y028688D01*
X012225Y028691D01*
X012273Y028690D01*
X012321Y028685D01*
X012369Y028676D01*
X012415Y028664D01*
X012460Y028647D01*
X012504Y028627D01*
X012546Y028604D01*
X012586Y028577D01*
X012624Y028547D01*
X012659Y028514D01*
X012691Y028478D01*
X012721Y028440D01*
X012747Y028399D01*
X012769Y028356D01*
X012789Y028312D01*
X012804Y028267D01*
X012816Y028220D01*
X012824Y028172D01*
X012828Y028124D01*
X012828Y028076D01*
X012824Y028028D01*
X012816Y027980D01*
X012804Y027933D01*
X012789Y027888D01*
X012769Y027844D01*
X012747Y027801D01*
X012721Y027760D01*
X012691Y027722D01*
X012659Y027686D01*
X012624Y027653D01*
X012586Y027623D01*
X012546Y027596D01*
X012504Y027573D01*
X012460Y027553D01*
X012415Y027536D01*
X012369Y027524D01*
X012321Y027515D01*
X012273Y027510D01*
X012225Y027509D01*
X012177Y027512D01*
X012129Y027519D01*
X012082Y027530D01*
X012036Y027544D01*
X011991Y027562D01*
X011948Y027584D01*
X011907Y027609D01*
X011869Y027638D01*
X011832Y027670D01*
X011798Y027704D01*
X011768Y027741D01*
X011740Y027780D01*
X011715Y027822D01*
X011695Y027866D01*
X011677Y027911D01*
X011664Y027957D01*
X011654Y028004D01*
X011648Y028052D01*
X011646Y028100D01*
X018753Y028100D02*
X018755Y028162D01*
X018761Y028225D01*
X018771Y028286D01*
X018785Y028347D01*
X018802Y028407D01*
X018823Y028466D01*
X018849Y028523D01*
X018877Y028578D01*
X018909Y028632D01*
X018945Y028683D01*
X018983Y028733D01*
X019025Y028779D01*
X019069Y028823D01*
X019117Y028864D01*
X019166Y028902D01*
X019218Y028936D01*
X019272Y028967D01*
X019328Y028995D01*
X019386Y029019D01*
X019445Y029040D01*
X019505Y029056D01*
X019566Y029069D01*
X019628Y029078D01*
X019690Y029083D01*
X019753Y029084D01*
X019815Y029081D01*
X019877Y029074D01*
X019939Y029063D01*
X019999Y029048D01*
X020059Y029030D01*
X020117Y029008D01*
X020174Y028982D01*
X020229Y028952D01*
X020282Y028919D01*
X020333Y028883D01*
X020381Y028844D01*
X020427Y028801D01*
X020470Y028756D01*
X020510Y028708D01*
X020547Y028658D01*
X020581Y028605D01*
X020612Y028551D01*
X020638Y028495D01*
X020662Y028437D01*
X020681Y028377D01*
X020697Y028317D01*
X020709Y028255D01*
X020717Y028194D01*
X020721Y028131D01*
X020721Y028069D01*
X020717Y028006D01*
X020709Y027945D01*
X020697Y027883D01*
X020681Y027823D01*
X020662Y027763D01*
X020638Y027705D01*
X020612Y027649D01*
X020581Y027595D01*
X020547Y027542D01*
X020510Y027492D01*
X020470Y027444D01*
X020427Y027399D01*
X020381Y027356D01*
X020333Y027317D01*
X020282Y027281D01*
X020229Y027248D01*
X020174Y027218D01*
X020117Y027192D01*
X020059Y027170D01*
X019999Y027152D01*
X019939Y027137D01*
X019877Y027126D01*
X019815Y027119D01*
X019753Y027116D01*
X019690Y027117D01*
X019628Y027122D01*
X019566Y027131D01*
X019505Y027144D01*
X019445Y027160D01*
X019386Y027181D01*
X019328Y027205D01*
X019272Y027233D01*
X019218Y027264D01*
X019166Y027298D01*
X019117Y027336D01*
X019069Y027377D01*
X019025Y027421D01*
X018983Y027467D01*
X018945Y027517D01*
X018909Y027568D01*
X018877Y027622D01*
X018849Y027677D01*
X018823Y027734D01*
X018802Y027793D01*
X018785Y027853D01*
X018771Y027914D01*
X018761Y027975D01*
X018755Y028038D01*
X018753Y028100D01*
X026628Y028100D02*
X026630Y028162D01*
X026636Y028225D01*
X026646Y028286D01*
X026660Y028347D01*
X026677Y028407D01*
X026698Y028466D01*
X026724Y028523D01*
X026752Y028578D01*
X026784Y028632D01*
X026820Y028683D01*
X026858Y028733D01*
X026900Y028779D01*
X026944Y028823D01*
X026992Y028864D01*
X027041Y028902D01*
X027093Y028936D01*
X027147Y028967D01*
X027203Y028995D01*
X027261Y029019D01*
X027320Y029040D01*
X027380Y029056D01*
X027441Y029069D01*
X027503Y029078D01*
X027565Y029083D01*
X027628Y029084D01*
X027690Y029081D01*
X027752Y029074D01*
X027814Y029063D01*
X027874Y029048D01*
X027934Y029030D01*
X027992Y029008D01*
X028049Y028982D01*
X028104Y028952D01*
X028157Y028919D01*
X028208Y028883D01*
X028256Y028844D01*
X028302Y028801D01*
X028345Y028756D01*
X028385Y028708D01*
X028422Y028658D01*
X028456Y028605D01*
X028487Y028551D01*
X028513Y028495D01*
X028537Y028437D01*
X028556Y028377D01*
X028572Y028317D01*
X028584Y028255D01*
X028592Y028194D01*
X028596Y028131D01*
X028596Y028069D01*
X028592Y028006D01*
X028584Y027945D01*
X028572Y027883D01*
X028556Y027823D01*
X028537Y027763D01*
X028513Y027705D01*
X028487Y027649D01*
X028456Y027595D01*
X028422Y027542D01*
X028385Y027492D01*
X028345Y027444D01*
X028302Y027399D01*
X028256Y027356D01*
X028208Y027317D01*
X028157Y027281D01*
X028104Y027248D01*
X028049Y027218D01*
X027992Y027192D01*
X027934Y027170D01*
X027874Y027152D01*
X027814Y027137D01*
X027752Y027126D01*
X027690Y027119D01*
X027628Y027116D01*
X027565Y027117D01*
X027503Y027122D01*
X027441Y027131D01*
X027380Y027144D01*
X027320Y027160D01*
X027261Y027181D01*
X027203Y027205D01*
X027147Y027233D01*
X027093Y027264D01*
X027041Y027298D01*
X026992Y027336D01*
X026944Y027377D01*
X026900Y027421D01*
X026858Y027467D01*
X026820Y027517D01*
X026784Y027568D01*
X026752Y027622D01*
X026724Y027677D01*
X026698Y027734D01*
X026677Y027793D01*
X026660Y027853D01*
X026646Y027914D01*
X026636Y027975D01*
X026630Y028038D01*
X026628Y028100D01*
X033753Y028100D02*
X033755Y028162D01*
X033761Y028225D01*
X033771Y028286D01*
X033785Y028347D01*
X033802Y028407D01*
X033823Y028466D01*
X033849Y028523D01*
X033877Y028578D01*
X033909Y028632D01*
X033945Y028683D01*
X033983Y028733D01*
X034025Y028779D01*
X034069Y028823D01*
X034117Y028864D01*
X034166Y028902D01*
X034218Y028936D01*
X034272Y028967D01*
X034328Y028995D01*
X034386Y029019D01*
X034445Y029040D01*
X034505Y029056D01*
X034566Y029069D01*
X034628Y029078D01*
X034690Y029083D01*
X034753Y029084D01*
X034815Y029081D01*
X034877Y029074D01*
X034939Y029063D01*
X034999Y029048D01*
X035059Y029030D01*
X035117Y029008D01*
X035174Y028982D01*
X035229Y028952D01*
X035282Y028919D01*
X035333Y028883D01*
X035381Y028844D01*
X035427Y028801D01*
X035470Y028756D01*
X035510Y028708D01*
X035547Y028658D01*
X035581Y028605D01*
X035612Y028551D01*
X035638Y028495D01*
X035662Y028437D01*
X035681Y028377D01*
X035697Y028317D01*
X035709Y028255D01*
X035717Y028194D01*
X035721Y028131D01*
X035721Y028069D01*
X035717Y028006D01*
X035709Y027945D01*
X035697Y027883D01*
X035681Y027823D01*
X035662Y027763D01*
X035638Y027705D01*
X035612Y027649D01*
X035581Y027595D01*
X035547Y027542D01*
X035510Y027492D01*
X035470Y027444D01*
X035427Y027399D01*
X035381Y027356D01*
X035333Y027317D01*
X035282Y027281D01*
X035229Y027248D01*
X035174Y027218D01*
X035117Y027192D01*
X035059Y027170D01*
X034999Y027152D01*
X034939Y027137D01*
X034877Y027126D01*
X034815Y027119D01*
X034753Y027116D01*
X034690Y027117D01*
X034628Y027122D01*
X034566Y027131D01*
X034505Y027144D01*
X034445Y027160D01*
X034386Y027181D01*
X034328Y027205D01*
X034272Y027233D01*
X034218Y027264D01*
X034166Y027298D01*
X034117Y027336D01*
X034069Y027377D01*
X034025Y027421D01*
X033983Y027467D01*
X033945Y027517D01*
X033909Y027568D01*
X033877Y027622D01*
X033849Y027677D01*
X033823Y027734D01*
X033802Y027793D01*
X033785Y027853D01*
X033771Y027914D01*
X033761Y027975D01*
X033755Y028038D01*
X033753Y028100D01*
X041253Y028100D02*
X041255Y028162D01*
X041261Y028225D01*
X041271Y028286D01*
X041285Y028347D01*
X041302Y028407D01*
X041323Y028466D01*
X041349Y028523D01*
X041377Y028578D01*
X041409Y028632D01*
X041445Y028683D01*
X041483Y028733D01*
X041525Y028779D01*
X041569Y028823D01*
X041617Y028864D01*
X041666Y028902D01*
X041718Y028936D01*
X041772Y028967D01*
X041828Y028995D01*
X041886Y029019D01*
X041945Y029040D01*
X042005Y029056D01*
X042066Y029069D01*
X042128Y029078D01*
X042190Y029083D01*
X042253Y029084D01*
X042315Y029081D01*
X042377Y029074D01*
X042439Y029063D01*
X042499Y029048D01*
X042559Y029030D01*
X042617Y029008D01*
X042674Y028982D01*
X042729Y028952D01*
X042782Y028919D01*
X042833Y028883D01*
X042881Y028844D01*
X042927Y028801D01*
X042970Y028756D01*
X043010Y028708D01*
X043047Y028658D01*
X043081Y028605D01*
X043112Y028551D01*
X043138Y028495D01*
X043162Y028437D01*
X043181Y028377D01*
X043197Y028317D01*
X043209Y028255D01*
X043217Y028194D01*
X043221Y028131D01*
X043221Y028069D01*
X043217Y028006D01*
X043209Y027945D01*
X043197Y027883D01*
X043181Y027823D01*
X043162Y027763D01*
X043138Y027705D01*
X043112Y027649D01*
X043081Y027595D01*
X043047Y027542D01*
X043010Y027492D01*
X042970Y027444D01*
X042927Y027399D01*
X042881Y027356D01*
X042833Y027317D01*
X042782Y027281D01*
X042729Y027248D01*
X042674Y027218D01*
X042617Y027192D01*
X042559Y027170D01*
X042499Y027152D01*
X042439Y027137D01*
X042377Y027126D01*
X042315Y027119D01*
X042253Y027116D01*
X042190Y027117D01*
X042128Y027122D01*
X042066Y027131D01*
X042005Y027144D01*
X041945Y027160D01*
X041886Y027181D01*
X041828Y027205D01*
X041772Y027233D01*
X041718Y027264D01*
X041666Y027298D01*
X041617Y027336D01*
X041569Y027377D01*
X041525Y027421D01*
X041483Y027467D01*
X041445Y027517D01*
X041409Y027568D01*
X041377Y027622D01*
X041349Y027677D01*
X041323Y027734D01*
X041302Y027793D01*
X041285Y027853D01*
X041271Y027914D01*
X041261Y027975D01*
X041255Y028038D01*
X041253Y028100D01*
X049128Y028100D02*
X049130Y028162D01*
X049136Y028225D01*
X049146Y028286D01*
X049160Y028347D01*
X049177Y028407D01*
X049198Y028466D01*
X049224Y028523D01*
X049252Y028578D01*
X049284Y028632D01*
X049320Y028683D01*
X049358Y028733D01*
X049400Y028779D01*
X049444Y028823D01*
X049492Y028864D01*
X049541Y028902D01*
X049593Y028936D01*
X049647Y028967D01*
X049703Y028995D01*
X049761Y029019D01*
X049820Y029040D01*
X049880Y029056D01*
X049941Y029069D01*
X050003Y029078D01*
X050065Y029083D01*
X050128Y029084D01*
X050190Y029081D01*
X050252Y029074D01*
X050314Y029063D01*
X050374Y029048D01*
X050434Y029030D01*
X050492Y029008D01*
X050549Y028982D01*
X050604Y028952D01*
X050657Y028919D01*
X050708Y028883D01*
X050756Y028844D01*
X050802Y028801D01*
X050845Y028756D01*
X050885Y028708D01*
X050922Y028658D01*
X050956Y028605D01*
X050987Y028551D01*
X051013Y028495D01*
X051037Y028437D01*
X051056Y028377D01*
X051072Y028317D01*
X051084Y028255D01*
X051092Y028194D01*
X051096Y028131D01*
X051096Y028069D01*
X051092Y028006D01*
X051084Y027945D01*
X051072Y027883D01*
X051056Y027823D01*
X051037Y027763D01*
X051013Y027705D01*
X050987Y027649D01*
X050956Y027595D01*
X050922Y027542D01*
X050885Y027492D01*
X050845Y027444D01*
X050802Y027399D01*
X050756Y027356D01*
X050708Y027317D01*
X050657Y027281D01*
X050604Y027248D01*
X050549Y027218D01*
X050492Y027192D01*
X050434Y027170D01*
X050374Y027152D01*
X050314Y027137D01*
X050252Y027126D01*
X050190Y027119D01*
X050128Y027116D01*
X050065Y027117D01*
X050003Y027122D01*
X049941Y027131D01*
X049880Y027144D01*
X049820Y027160D01*
X049761Y027181D01*
X049703Y027205D01*
X049647Y027233D01*
X049593Y027264D01*
X049541Y027298D01*
X049492Y027336D01*
X049444Y027377D01*
X049400Y027421D01*
X049358Y027467D01*
X049320Y027517D01*
X049284Y027568D01*
X049252Y027622D01*
X049224Y027677D01*
X049198Y027734D01*
X049177Y027793D01*
X049160Y027853D01*
X049146Y027914D01*
X049136Y027975D01*
X049130Y028038D01*
X049128Y028100D01*
X056253Y028100D02*
X056255Y028162D01*
X056261Y028225D01*
X056271Y028286D01*
X056285Y028347D01*
X056302Y028407D01*
X056323Y028466D01*
X056349Y028523D01*
X056377Y028578D01*
X056409Y028632D01*
X056445Y028683D01*
X056483Y028733D01*
X056525Y028779D01*
X056569Y028823D01*
X056617Y028864D01*
X056666Y028902D01*
X056718Y028936D01*
X056772Y028967D01*
X056828Y028995D01*
X056886Y029019D01*
X056945Y029040D01*
X057005Y029056D01*
X057066Y029069D01*
X057128Y029078D01*
X057190Y029083D01*
X057253Y029084D01*
X057315Y029081D01*
X057377Y029074D01*
X057439Y029063D01*
X057499Y029048D01*
X057559Y029030D01*
X057617Y029008D01*
X057674Y028982D01*
X057729Y028952D01*
X057782Y028919D01*
X057833Y028883D01*
X057881Y028844D01*
X057927Y028801D01*
X057970Y028756D01*
X058010Y028708D01*
X058047Y028658D01*
X058081Y028605D01*
X058112Y028551D01*
X058138Y028495D01*
X058162Y028437D01*
X058181Y028377D01*
X058197Y028317D01*
X058209Y028255D01*
X058217Y028194D01*
X058221Y028131D01*
X058221Y028069D01*
X058217Y028006D01*
X058209Y027945D01*
X058197Y027883D01*
X058181Y027823D01*
X058162Y027763D01*
X058138Y027705D01*
X058112Y027649D01*
X058081Y027595D01*
X058047Y027542D01*
X058010Y027492D01*
X057970Y027444D01*
X057927Y027399D01*
X057881Y027356D01*
X057833Y027317D01*
X057782Y027281D01*
X057729Y027248D01*
X057674Y027218D01*
X057617Y027192D01*
X057559Y027170D01*
X057499Y027152D01*
X057439Y027137D01*
X057377Y027126D01*
X057315Y027119D01*
X057253Y027116D01*
X057190Y027117D01*
X057128Y027122D01*
X057066Y027131D01*
X057005Y027144D01*
X056945Y027160D01*
X056886Y027181D01*
X056828Y027205D01*
X056772Y027233D01*
X056718Y027264D01*
X056666Y027298D01*
X056617Y027336D01*
X056569Y027377D01*
X056525Y027421D01*
X056483Y027467D01*
X056445Y027517D01*
X056409Y027568D01*
X056377Y027622D01*
X056349Y027677D01*
X056323Y027734D01*
X056302Y027793D01*
X056285Y027853D01*
X056271Y027914D01*
X056261Y027975D01*
X056255Y028038D01*
X056253Y028100D01*
X056066Y035538D02*
X056068Y035600D01*
X056074Y035663D01*
X056084Y035724D01*
X056098Y035785D01*
X056115Y035845D01*
X056136Y035904D01*
X056162Y035961D01*
X056190Y036016D01*
X056222Y036070D01*
X056258Y036121D01*
X056296Y036171D01*
X056338Y036217D01*
X056382Y036261D01*
X056430Y036302D01*
X056479Y036340D01*
X056531Y036374D01*
X056585Y036405D01*
X056641Y036433D01*
X056699Y036457D01*
X056758Y036478D01*
X056818Y036494D01*
X056879Y036507D01*
X056941Y036516D01*
X057003Y036521D01*
X057066Y036522D01*
X057128Y036519D01*
X057190Y036512D01*
X057252Y036501D01*
X057312Y036486D01*
X057372Y036468D01*
X057430Y036446D01*
X057487Y036420D01*
X057542Y036390D01*
X057595Y036357D01*
X057646Y036321D01*
X057694Y036282D01*
X057740Y036239D01*
X057783Y036194D01*
X057823Y036146D01*
X057860Y036096D01*
X057894Y036043D01*
X057925Y035989D01*
X057951Y035933D01*
X057975Y035875D01*
X057994Y035815D01*
X058010Y035755D01*
X058022Y035693D01*
X058030Y035632D01*
X058034Y035569D01*
X058034Y035507D01*
X058030Y035444D01*
X058022Y035383D01*
X058010Y035321D01*
X057994Y035261D01*
X057975Y035201D01*
X057951Y035143D01*
X057925Y035087D01*
X057894Y035033D01*
X057860Y034980D01*
X057823Y034930D01*
X057783Y034882D01*
X057740Y034837D01*
X057694Y034794D01*
X057646Y034755D01*
X057595Y034719D01*
X057542Y034686D01*
X057487Y034656D01*
X057430Y034630D01*
X057372Y034608D01*
X057312Y034590D01*
X057252Y034575D01*
X057190Y034564D01*
X057128Y034557D01*
X057066Y034554D01*
X057003Y034555D01*
X056941Y034560D01*
X056879Y034569D01*
X056818Y034582D01*
X056758Y034598D01*
X056699Y034619D01*
X056641Y034643D01*
X056585Y034671D01*
X056531Y034702D01*
X056479Y034736D01*
X056430Y034774D01*
X056382Y034815D01*
X056338Y034859D01*
X056296Y034905D01*
X056258Y034955D01*
X056222Y035006D01*
X056190Y035060D01*
X056162Y035115D01*
X056136Y035172D01*
X056115Y035231D01*
X056098Y035291D01*
X056084Y035352D01*
X056074Y035413D01*
X056068Y035476D01*
X056066Y035538D01*
X048753Y035600D02*
X048755Y035662D01*
X048761Y035725D01*
X048771Y035786D01*
X048785Y035847D01*
X048802Y035907D01*
X048823Y035966D01*
X048849Y036023D01*
X048877Y036078D01*
X048909Y036132D01*
X048945Y036183D01*
X048983Y036233D01*
X049025Y036279D01*
X049069Y036323D01*
X049117Y036364D01*
X049166Y036402D01*
X049218Y036436D01*
X049272Y036467D01*
X049328Y036495D01*
X049386Y036519D01*
X049445Y036540D01*
X049505Y036556D01*
X049566Y036569D01*
X049628Y036578D01*
X049690Y036583D01*
X049753Y036584D01*
X049815Y036581D01*
X049877Y036574D01*
X049939Y036563D01*
X049999Y036548D01*
X050059Y036530D01*
X050117Y036508D01*
X050174Y036482D01*
X050229Y036452D01*
X050282Y036419D01*
X050333Y036383D01*
X050381Y036344D01*
X050427Y036301D01*
X050470Y036256D01*
X050510Y036208D01*
X050547Y036158D01*
X050581Y036105D01*
X050612Y036051D01*
X050638Y035995D01*
X050662Y035937D01*
X050681Y035877D01*
X050697Y035817D01*
X050709Y035755D01*
X050717Y035694D01*
X050721Y035631D01*
X050721Y035569D01*
X050717Y035506D01*
X050709Y035445D01*
X050697Y035383D01*
X050681Y035323D01*
X050662Y035263D01*
X050638Y035205D01*
X050612Y035149D01*
X050581Y035095D01*
X050547Y035042D01*
X050510Y034992D01*
X050470Y034944D01*
X050427Y034899D01*
X050381Y034856D01*
X050333Y034817D01*
X050282Y034781D01*
X050229Y034748D01*
X050174Y034718D01*
X050117Y034692D01*
X050059Y034670D01*
X049999Y034652D01*
X049939Y034637D01*
X049877Y034626D01*
X049815Y034619D01*
X049753Y034616D01*
X049690Y034617D01*
X049628Y034622D01*
X049566Y034631D01*
X049505Y034644D01*
X049445Y034660D01*
X049386Y034681D01*
X049328Y034705D01*
X049272Y034733D01*
X049218Y034764D01*
X049166Y034798D01*
X049117Y034836D01*
X049069Y034877D01*
X049025Y034921D01*
X048983Y034967D01*
X048945Y035017D01*
X048909Y035068D01*
X048877Y035122D01*
X048849Y035177D01*
X048823Y035234D01*
X048802Y035293D01*
X048785Y035353D01*
X048771Y035414D01*
X048761Y035475D01*
X048755Y035538D01*
X048753Y035600D01*
X041253Y035600D02*
X041255Y035662D01*
X041261Y035725D01*
X041271Y035786D01*
X041285Y035847D01*
X041302Y035907D01*
X041323Y035966D01*
X041349Y036023D01*
X041377Y036078D01*
X041409Y036132D01*
X041445Y036183D01*
X041483Y036233D01*
X041525Y036279D01*
X041569Y036323D01*
X041617Y036364D01*
X041666Y036402D01*
X041718Y036436D01*
X041772Y036467D01*
X041828Y036495D01*
X041886Y036519D01*
X041945Y036540D01*
X042005Y036556D01*
X042066Y036569D01*
X042128Y036578D01*
X042190Y036583D01*
X042253Y036584D01*
X042315Y036581D01*
X042377Y036574D01*
X042439Y036563D01*
X042499Y036548D01*
X042559Y036530D01*
X042617Y036508D01*
X042674Y036482D01*
X042729Y036452D01*
X042782Y036419D01*
X042833Y036383D01*
X042881Y036344D01*
X042927Y036301D01*
X042970Y036256D01*
X043010Y036208D01*
X043047Y036158D01*
X043081Y036105D01*
X043112Y036051D01*
X043138Y035995D01*
X043162Y035937D01*
X043181Y035877D01*
X043197Y035817D01*
X043209Y035755D01*
X043217Y035694D01*
X043221Y035631D01*
X043221Y035569D01*
X043217Y035506D01*
X043209Y035445D01*
X043197Y035383D01*
X043181Y035323D01*
X043162Y035263D01*
X043138Y035205D01*
X043112Y035149D01*
X043081Y035095D01*
X043047Y035042D01*
X043010Y034992D01*
X042970Y034944D01*
X042927Y034899D01*
X042881Y034856D01*
X042833Y034817D01*
X042782Y034781D01*
X042729Y034748D01*
X042674Y034718D01*
X042617Y034692D01*
X042559Y034670D01*
X042499Y034652D01*
X042439Y034637D01*
X042377Y034626D01*
X042315Y034619D01*
X042253Y034616D01*
X042190Y034617D01*
X042128Y034622D01*
X042066Y034631D01*
X042005Y034644D01*
X041945Y034660D01*
X041886Y034681D01*
X041828Y034705D01*
X041772Y034733D01*
X041718Y034764D01*
X041666Y034798D01*
X041617Y034836D01*
X041569Y034877D01*
X041525Y034921D01*
X041483Y034967D01*
X041445Y035017D01*
X041409Y035068D01*
X041377Y035122D01*
X041349Y035177D01*
X041323Y035234D01*
X041302Y035293D01*
X041285Y035353D01*
X041271Y035414D01*
X041261Y035475D01*
X041255Y035538D01*
X041253Y035600D01*
X033753Y035600D02*
X033755Y035662D01*
X033761Y035725D01*
X033771Y035786D01*
X033785Y035847D01*
X033802Y035907D01*
X033823Y035966D01*
X033849Y036023D01*
X033877Y036078D01*
X033909Y036132D01*
X033945Y036183D01*
X033983Y036233D01*
X034025Y036279D01*
X034069Y036323D01*
X034117Y036364D01*
X034166Y036402D01*
X034218Y036436D01*
X034272Y036467D01*
X034328Y036495D01*
X034386Y036519D01*
X034445Y036540D01*
X034505Y036556D01*
X034566Y036569D01*
X034628Y036578D01*
X034690Y036583D01*
X034753Y036584D01*
X034815Y036581D01*
X034877Y036574D01*
X034939Y036563D01*
X034999Y036548D01*
X035059Y036530D01*
X035117Y036508D01*
X035174Y036482D01*
X035229Y036452D01*
X035282Y036419D01*
X035333Y036383D01*
X035381Y036344D01*
X035427Y036301D01*
X035470Y036256D01*
X035510Y036208D01*
X035547Y036158D01*
X035581Y036105D01*
X035612Y036051D01*
X035638Y035995D01*
X035662Y035937D01*
X035681Y035877D01*
X035697Y035817D01*
X035709Y035755D01*
X035717Y035694D01*
X035721Y035631D01*
X035721Y035569D01*
X035717Y035506D01*
X035709Y035445D01*
X035697Y035383D01*
X035681Y035323D01*
X035662Y035263D01*
X035638Y035205D01*
X035612Y035149D01*
X035581Y035095D01*
X035547Y035042D01*
X035510Y034992D01*
X035470Y034944D01*
X035427Y034899D01*
X035381Y034856D01*
X035333Y034817D01*
X035282Y034781D01*
X035229Y034748D01*
X035174Y034718D01*
X035117Y034692D01*
X035059Y034670D01*
X034999Y034652D01*
X034939Y034637D01*
X034877Y034626D01*
X034815Y034619D01*
X034753Y034616D01*
X034690Y034617D01*
X034628Y034622D01*
X034566Y034631D01*
X034505Y034644D01*
X034445Y034660D01*
X034386Y034681D01*
X034328Y034705D01*
X034272Y034733D01*
X034218Y034764D01*
X034166Y034798D01*
X034117Y034836D01*
X034069Y034877D01*
X034025Y034921D01*
X033983Y034967D01*
X033945Y035017D01*
X033909Y035068D01*
X033877Y035122D01*
X033849Y035177D01*
X033823Y035234D01*
X033802Y035293D01*
X033785Y035353D01*
X033771Y035414D01*
X033761Y035475D01*
X033755Y035538D01*
X033753Y035600D01*
X026628Y035725D02*
X026630Y035787D01*
X026636Y035850D01*
X026646Y035911D01*
X026660Y035972D01*
X026677Y036032D01*
X026698Y036091D01*
X026724Y036148D01*
X026752Y036203D01*
X026784Y036257D01*
X026820Y036308D01*
X026858Y036358D01*
X026900Y036404D01*
X026944Y036448D01*
X026992Y036489D01*
X027041Y036527D01*
X027093Y036561D01*
X027147Y036592D01*
X027203Y036620D01*
X027261Y036644D01*
X027320Y036665D01*
X027380Y036681D01*
X027441Y036694D01*
X027503Y036703D01*
X027565Y036708D01*
X027628Y036709D01*
X027690Y036706D01*
X027752Y036699D01*
X027814Y036688D01*
X027874Y036673D01*
X027934Y036655D01*
X027992Y036633D01*
X028049Y036607D01*
X028104Y036577D01*
X028157Y036544D01*
X028208Y036508D01*
X028256Y036469D01*
X028302Y036426D01*
X028345Y036381D01*
X028385Y036333D01*
X028422Y036283D01*
X028456Y036230D01*
X028487Y036176D01*
X028513Y036120D01*
X028537Y036062D01*
X028556Y036002D01*
X028572Y035942D01*
X028584Y035880D01*
X028592Y035819D01*
X028596Y035756D01*
X028596Y035694D01*
X028592Y035631D01*
X028584Y035570D01*
X028572Y035508D01*
X028556Y035448D01*
X028537Y035388D01*
X028513Y035330D01*
X028487Y035274D01*
X028456Y035220D01*
X028422Y035167D01*
X028385Y035117D01*
X028345Y035069D01*
X028302Y035024D01*
X028256Y034981D01*
X028208Y034942D01*
X028157Y034906D01*
X028104Y034873D01*
X028049Y034843D01*
X027992Y034817D01*
X027934Y034795D01*
X027874Y034777D01*
X027814Y034762D01*
X027752Y034751D01*
X027690Y034744D01*
X027628Y034741D01*
X027565Y034742D01*
X027503Y034747D01*
X027441Y034756D01*
X027380Y034769D01*
X027320Y034785D01*
X027261Y034806D01*
X027203Y034830D01*
X027147Y034858D01*
X027093Y034889D01*
X027041Y034923D01*
X026992Y034961D01*
X026944Y035002D01*
X026900Y035046D01*
X026858Y035092D01*
X026820Y035142D01*
X026784Y035193D01*
X026752Y035247D01*
X026724Y035302D01*
X026698Y035359D01*
X026677Y035418D01*
X026660Y035478D01*
X026646Y035539D01*
X026636Y035600D01*
X026630Y035663D01*
X026628Y035725D01*
X018753Y035600D02*
X018755Y035662D01*
X018761Y035725D01*
X018771Y035786D01*
X018785Y035847D01*
X018802Y035907D01*
X018823Y035966D01*
X018849Y036023D01*
X018877Y036078D01*
X018909Y036132D01*
X018945Y036183D01*
X018983Y036233D01*
X019025Y036279D01*
X019069Y036323D01*
X019117Y036364D01*
X019166Y036402D01*
X019218Y036436D01*
X019272Y036467D01*
X019328Y036495D01*
X019386Y036519D01*
X019445Y036540D01*
X019505Y036556D01*
X019566Y036569D01*
X019628Y036578D01*
X019690Y036583D01*
X019753Y036584D01*
X019815Y036581D01*
X019877Y036574D01*
X019939Y036563D01*
X019999Y036548D01*
X020059Y036530D01*
X020117Y036508D01*
X020174Y036482D01*
X020229Y036452D01*
X020282Y036419D01*
X020333Y036383D01*
X020381Y036344D01*
X020427Y036301D01*
X020470Y036256D01*
X020510Y036208D01*
X020547Y036158D01*
X020581Y036105D01*
X020612Y036051D01*
X020638Y035995D01*
X020662Y035937D01*
X020681Y035877D01*
X020697Y035817D01*
X020709Y035755D01*
X020717Y035694D01*
X020721Y035631D01*
X020721Y035569D01*
X020717Y035506D01*
X020709Y035445D01*
X020697Y035383D01*
X020681Y035323D01*
X020662Y035263D01*
X020638Y035205D01*
X020612Y035149D01*
X020581Y035095D01*
X020547Y035042D01*
X020510Y034992D01*
X020470Y034944D01*
X020427Y034899D01*
X020381Y034856D01*
X020333Y034817D01*
X020282Y034781D01*
X020229Y034748D01*
X020174Y034718D01*
X020117Y034692D01*
X020059Y034670D01*
X019999Y034652D01*
X019939Y034637D01*
X019877Y034626D01*
X019815Y034619D01*
X019753Y034616D01*
X019690Y034617D01*
X019628Y034622D01*
X019566Y034631D01*
X019505Y034644D01*
X019445Y034660D01*
X019386Y034681D01*
X019328Y034705D01*
X019272Y034733D01*
X019218Y034764D01*
X019166Y034798D01*
X019117Y034836D01*
X019069Y034877D01*
X019025Y034921D01*
X018983Y034967D01*
X018945Y035017D01*
X018909Y035068D01*
X018877Y035122D01*
X018849Y035177D01*
X018823Y035234D01*
X018802Y035293D01*
X018785Y035353D01*
X018771Y035414D01*
X018761Y035475D01*
X018755Y035538D01*
X018753Y035600D01*
X011646Y035600D02*
X011648Y035648D01*
X011654Y035696D01*
X011664Y035743D01*
X011677Y035789D01*
X011695Y035834D01*
X011715Y035878D01*
X011740Y035920D01*
X011768Y035959D01*
X011798Y035996D01*
X011832Y036030D01*
X011869Y036062D01*
X011907Y036091D01*
X011948Y036116D01*
X011991Y036138D01*
X012036Y036156D01*
X012082Y036170D01*
X012129Y036181D01*
X012177Y036188D01*
X012225Y036191D01*
X012273Y036190D01*
X012321Y036185D01*
X012369Y036176D01*
X012415Y036164D01*
X012460Y036147D01*
X012504Y036127D01*
X012546Y036104D01*
X012586Y036077D01*
X012624Y036047D01*
X012659Y036014D01*
X012691Y035978D01*
X012721Y035940D01*
X012747Y035899D01*
X012769Y035856D01*
X012789Y035812D01*
X012804Y035767D01*
X012816Y035720D01*
X012824Y035672D01*
X012828Y035624D01*
X012828Y035576D01*
X012824Y035528D01*
X012816Y035480D01*
X012804Y035433D01*
X012789Y035388D01*
X012769Y035344D01*
X012747Y035301D01*
X012721Y035260D01*
X012691Y035222D01*
X012659Y035186D01*
X012624Y035153D01*
X012586Y035123D01*
X012546Y035096D01*
X012504Y035073D01*
X012460Y035053D01*
X012415Y035036D01*
X012369Y035024D01*
X012321Y035015D01*
X012273Y035010D01*
X012225Y035009D01*
X012177Y035012D01*
X012129Y035019D01*
X012082Y035030D01*
X012036Y035044D01*
X011991Y035062D01*
X011948Y035084D01*
X011907Y035109D01*
X011869Y035138D01*
X011832Y035170D01*
X011798Y035204D01*
X011768Y035241D01*
X011740Y035280D01*
X011715Y035322D01*
X011695Y035366D01*
X011677Y035411D01*
X011664Y035457D01*
X011654Y035504D01*
X011648Y035552D01*
X011646Y035600D01*
X011253Y047850D02*
X011255Y047912D01*
X011261Y047975D01*
X011271Y048036D01*
X011285Y048097D01*
X011302Y048157D01*
X011323Y048216D01*
X011349Y048273D01*
X011377Y048328D01*
X011409Y048382D01*
X011445Y048433D01*
X011483Y048483D01*
X011525Y048529D01*
X011569Y048573D01*
X011617Y048614D01*
X011666Y048652D01*
X011718Y048686D01*
X011772Y048717D01*
X011828Y048745D01*
X011886Y048769D01*
X011945Y048790D01*
X012005Y048806D01*
X012066Y048819D01*
X012128Y048828D01*
X012190Y048833D01*
X012253Y048834D01*
X012315Y048831D01*
X012377Y048824D01*
X012439Y048813D01*
X012499Y048798D01*
X012559Y048780D01*
X012617Y048758D01*
X012674Y048732D01*
X012729Y048702D01*
X012782Y048669D01*
X012833Y048633D01*
X012881Y048594D01*
X012927Y048551D01*
X012970Y048506D01*
X013010Y048458D01*
X013047Y048408D01*
X013081Y048355D01*
X013112Y048301D01*
X013138Y048245D01*
X013162Y048187D01*
X013181Y048127D01*
X013197Y048067D01*
X013209Y048005D01*
X013217Y047944D01*
X013221Y047881D01*
X013221Y047819D01*
X013217Y047756D01*
X013209Y047695D01*
X013197Y047633D01*
X013181Y047573D01*
X013162Y047513D01*
X013138Y047455D01*
X013112Y047399D01*
X013081Y047345D01*
X013047Y047292D01*
X013010Y047242D01*
X012970Y047194D01*
X012927Y047149D01*
X012881Y047106D01*
X012833Y047067D01*
X012782Y047031D01*
X012729Y046998D01*
X012674Y046968D01*
X012617Y046942D01*
X012559Y046920D01*
X012499Y046902D01*
X012439Y046887D01*
X012377Y046876D01*
X012315Y046869D01*
X012253Y046866D01*
X012190Y046867D01*
X012128Y046872D01*
X012066Y046881D01*
X012005Y046894D01*
X011945Y046910D01*
X011886Y046931D01*
X011828Y046955D01*
X011772Y046983D01*
X011718Y047014D01*
X011666Y047048D01*
X011617Y047086D01*
X011569Y047127D01*
X011525Y047171D01*
X011483Y047217D01*
X011445Y047267D01*
X011409Y047318D01*
X011377Y047372D01*
X011349Y047427D01*
X011323Y047484D01*
X011302Y047543D01*
X011285Y047603D01*
X011271Y047664D01*
X011261Y047725D01*
X011255Y047788D01*
X011253Y047850D01*
X026503Y043038D02*
X026505Y043100D01*
X026511Y043163D01*
X026521Y043224D01*
X026535Y043285D01*
X026552Y043345D01*
X026573Y043404D01*
X026599Y043461D01*
X026627Y043516D01*
X026659Y043570D01*
X026695Y043621D01*
X026733Y043671D01*
X026775Y043717D01*
X026819Y043761D01*
X026867Y043802D01*
X026916Y043840D01*
X026968Y043874D01*
X027022Y043905D01*
X027078Y043933D01*
X027136Y043957D01*
X027195Y043978D01*
X027255Y043994D01*
X027316Y044007D01*
X027378Y044016D01*
X027440Y044021D01*
X027503Y044022D01*
X027565Y044019D01*
X027627Y044012D01*
X027689Y044001D01*
X027749Y043986D01*
X027809Y043968D01*
X027867Y043946D01*
X027924Y043920D01*
X027979Y043890D01*
X028032Y043857D01*
X028083Y043821D01*
X028131Y043782D01*
X028177Y043739D01*
X028220Y043694D01*
X028260Y043646D01*
X028297Y043596D01*
X028331Y043543D01*
X028362Y043489D01*
X028388Y043433D01*
X028412Y043375D01*
X028431Y043315D01*
X028447Y043255D01*
X028459Y043193D01*
X028467Y043132D01*
X028471Y043069D01*
X028471Y043007D01*
X028467Y042944D01*
X028459Y042883D01*
X028447Y042821D01*
X028431Y042761D01*
X028412Y042701D01*
X028388Y042643D01*
X028362Y042587D01*
X028331Y042533D01*
X028297Y042480D01*
X028260Y042430D01*
X028220Y042382D01*
X028177Y042337D01*
X028131Y042294D01*
X028083Y042255D01*
X028032Y042219D01*
X027979Y042186D01*
X027924Y042156D01*
X027867Y042130D01*
X027809Y042108D01*
X027749Y042090D01*
X027689Y042075D01*
X027627Y042064D01*
X027565Y042057D01*
X027503Y042054D01*
X027440Y042055D01*
X027378Y042060D01*
X027316Y042069D01*
X027255Y042082D01*
X027195Y042098D01*
X027136Y042119D01*
X027078Y042143D01*
X027022Y042171D01*
X026968Y042202D01*
X026916Y042236D01*
X026867Y042274D01*
X026819Y042315D01*
X026775Y042359D01*
X026733Y042405D01*
X026695Y042455D01*
X026659Y042506D01*
X026627Y042560D01*
X026599Y042615D01*
X026573Y042672D01*
X026552Y042731D01*
X026535Y042791D01*
X026521Y042852D01*
X026511Y042913D01*
X026505Y042976D01*
X026503Y043038D01*
X029191Y046225D02*
X029193Y046287D01*
X029199Y046350D01*
X029209Y046411D01*
X029223Y046472D01*
X029240Y046532D01*
X029261Y046591D01*
X029287Y046648D01*
X029315Y046703D01*
X029347Y046757D01*
X029383Y046808D01*
X029421Y046858D01*
X029463Y046904D01*
X029507Y046948D01*
X029555Y046989D01*
X029604Y047027D01*
X029656Y047061D01*
X029710Y047092D01*
X029766Y047120D01*
X029824Y047144D01*
X029883Y047165D01*
X029943Y047181D01*
X030004Y047194D01*
X030066Y047203D01*
X030128Y047208D01*
X030191Y047209D01*
X030253Y047206D01*
X030315Y047199D01*
X030377Y047188D01*
X030437Y047173D01*
X030497Y047155D01*
X030555Y047133D01*
X030612Y047107D01*
X030667Y047077D01*
X030720Y047044D01*
X030771Y047008D01*
X030819Y046969D01*
X030865Y046926D01*
X030908Y046881D01*
X030948Y046833D01*
X030985Y046783D01*
X031019Y046730D01*
X031050Y046676D01*
X031076Y046620D01*
X031100Y046562D01*
X031119Y046502D01*
X031135Y046442D01*
X031147Y046380D01*
X031155Y046319D01*
X031159Y046256D01*
X031159Y046194D01*
X031155Y046131D01*
X031147Y046070D01*
X031135Y046008D01*
X031119Y045948D01*
X031100Y045888D01*
X031076Y045830D01*
X031050Y045774D01*
X031019Y045720D01*
X030985Y045667D01*
X030948Y045617D01*
X030908Y045569D01*
X030865Y045524D01*
X030819Y045481D01*
X030771Y045442D01*
X030720Y045406D01*
X030667Y045373D01*
X030612Y045343D01*
X030555Y045317D01*
X030497Y045295D01*
X030437Y045277D01*
X030377Y045262D01*
X030315Y045251D01*
X030253Y045244D01*
X030191Y045241D01*
X030128Y045242D01*
X030066Y045247D01*
X030004Y045256D01*
X029943Y045269D01*
X029883Y045285D01*
X029824Y045306D01*
X029766Y045330D01*
X029710Y045358D01*
X029656Y045389D01*
X029604Y045423D01*
X029555Y045461D01*
X029507Y045502D01*
X029463Y045546D01*
X029421Y045592D01*
X029383Y045642D01*
X029347Y045693D01*
X029315Y045747D01*
X029287Y045802D01*
X029261Y045859D01*
X029240Y045918D01*
X029223Y045978D01*
X029209Y046039D01*
X029199Y046100D01*
X029193Y046163D01*
X029191Y046225D01*
X033753Y043288D02*
X033755Y043350D01*
X033761Y043413D01*
X033771Y043474D01*
X033785Y043535D01*
X033802Y043595D01*
X033823Y043654D01*
X033849Y043711D01*
X033877Y043766D01*
X033909Y043820D01*
X033945Y043871D01*
X033983Y043921D01*
X034025Y043967D01*
X034069Y044011D01*
X034117Y044052D01*
X034166Y044090D01*
X034218Y044124D01*
X034272Y044155D01*
X034328Y044183D01*
X034386Y044207D01*
X034445Y044228D01*
X034505Y044244D01*
X034566Y044257D01*
X034628Y044266D01*
X034690Y044271D01*
X034753Y044272D01*
X034815Y044269D01*
X034877Y044262D01*
X034939Y044251D01*
X034999Y044236D01*
X035059Y044218D01*
X035117Y044196D01*
X035174Y044170D01*
X035229Y044140D01*
X035282Y044107D01*
X035333Y044071D01*
X035381Y044032D01*
X035427Y043989D01*
X035470Y043944D01*
X035510Y043896D01*
X035547Y043846D01*
X035581Y043793D01*
X035612Y043739D01*
X035638Y043683D01*
X035662Y043625D01*
X035681Y043565D01*
X035697Y043505D01*
X035709Y043443D01*
X035717Y043382D01*
X035721Y043319D01*
X035721Y043257D01*
X035717Y043194D01*
X035709Y043133D01*
X035697Y043071D01*
X035681Y043011D01*
X035662Y042951D01*
X035638Y042893D01*
X035612Y042837D01*
X035581Y042783D01*
X035547Y042730D01*
X035510Y042680D01*
X035470Y042632D01*
X035427Y042587D01*
X035381Y042544D01*
X035333Y042505D01*
X035282Y042469D01*
X035229Y042436D01*
X035174Y042406D01*
X035117Y042380D01*
X035059Y042358D01*
X034999Y042340D01*
X034939Y042325D01*
X034877Y042314D01*
X034815Y042307D01*
X034753Y042304D01*
X034690Y042305D01*
X034628Y042310D01*
X034566Y042319D01*
X034505Y042332D01*
X034445Y042348D01*
X034386Y042369D01*
X034328Y042393D01*
X034272Y042421D01*
X034218Y042452D01*
X034166Y042486D01*
X034117Y042524D01*
X034069Y042565D01*
X034025Y042609D01*
X033983Y042655D01*
X033945Y042705D01*
X033909Y042756D01*
X033877Y042810D01*
X033849Y042865D01*
X033823Y042922D01*
X033802Y042981D01*
X033785Y043041D01*
X033771Y043102D01*
X033761Y043163D01*
X033755Y043226D01*
X033753Y043288D01*
X036753Y046163D02*
X036755Y046225D01*
X036761Y046288D01*
X036771Y046349D01*
X036785Y046410D01*
X036802Y046470D01*
X036823Y046529D01*
X036849Y046586D01*
X036877Y046641D01*
X036909Y046695D01*
X036945Y046746D01*
X036983Y046796D01*
X037025Y046842D01*
X037069Y046886D01*
X037117Y046927D01*
X037166Y046965D01*
X037218Y046999D01*
X037272Y047030D01*
X037328Y047058D01*
X037386Y047082D01*
X037445Y047103D01*
X037505Y047119D01*
X037566Y047132D01*
X037628Y047141D01*
X037690Y047146D01*
X037753Y047147D01*
X037815Y047144D01*
X037877Y047137D01*
X037939Y047126D01*
X037999Y047111D01*
X038059Y047093D01*
X038117Y047071D01*
X038174Y047045D01*
X038229Y047015D01*
X038282Y046982D01*
X038333Y046946D01*
X038381Y046907D01*
X038427Y046864D01*
X038470Y046819D01*
X038510Y046771D01*
X038547Y046721D01*
X038581Y046668D01*
X038612Y046614D01*
X038638Y046558D01*
X038662Y046500D01*
X038681Y046440D01*
X038697Y046380D01*
X038709Y046318D01*
X038717Y046257D01*
X038721Y046194D01*
X038721Y046132D01*
X038717Y046069D01*
X038709Y046008D01*
X038697Y045946D01*
X038681Y045886D01*
X038662Y045826D01*
X038638Y045768D01*
X038612Y045712D01*
X038581Y045658D01*
X038547Y045605D01*
X038510Y045555D01*
X038470Y045507D01*
X038427Y045462D01*
X038381Y045419D01*
X038333Y045380D01*
X038282Y045344D01*
X038229Y045311D01*
X038174Y045281D01*
X038117Y045255D01*
X038059Y045233D01*
X037999Y045215D01*
X037939Y045200D01*
X037877Y045189D01*
X037815Y045182D01*
X037753Y045179D01*
X037690Y045180D01*
X037628Y045185D01*
X037566Y045194D01*
X037505Y045207D01*
X037445Y045223D01*
X037386Y045244D01*
X037328Y045268D01*
X037272Y045296D01*
X037218Y045327D01*
X037166Y045361D01*
X037117Y045399D01*
X037069Y045440D01*
X037025Y045484D01*
X036983Y045530D01*
X036945Y045580D01*
X036909Y045631D01*
X036877Y045685D01*
X036849Y045740D01*
X036823Y045797D01*
X036802Y045856D01*
X036785Y045916D01*
X036771Y045977D01*
X036761Y046038D01*
X036755Y046101D01*
X036753Y046163D01*
X041378Y042913D02*
X041380Y042975D01*
X041386Y043038D01*
X041396Y043099D01*
X041410Y043160D01*
X041427Y043220D01*
X041448Y043279D01*
X041474Y043336D01*
X041502Y043391D01*
X041534Y043445D01*
X041570Y043496D01*
X041608Y043546D01*
X041650Y043592D01*
X041694Y043636D01*
X041742Y043677D01*
X041791Y043715D01*
X041843Y043749D01*
X041897Y043780D01*
X041953Y043808D01*
X042011Y043832D01*
X042070Y043853D01*
X042130Y043869D01*
X042191Y043882D01*
X042253Y043891D01*
X042315Y043896D01*
X042378Y043897D01*
X042440Y043894D01*
X042502Y043887D01*
X042564Y043876D01*
X042624Y043861D01*
X042684Y043843D01*
X042742Y043821D01*
X042799Y043795D01*
X042854Y043765D01*
X042907Y043732D01*
X042958Y043696D01*
X043006Y043657D01*
X043052Y043614D01*
X043095Y043569D01*
X043135Y043521D01*
X043172Y043471D01*
X043206Y043418D01*
X043237Y043364D01*
X043263Y043308D01*
X043287Y043250D01*
X043306Y043190D01*
X043322Y043130D01*
X043334Y043068D01*
X043342Y043007D01*
X043346Y042944D01*
X043346Y042882D01*
X043342Y042819D01*
X043334Y042758D01*
X043322Y042696D01*
X043306Y042636D01*
X043287Y042576D01*
X043263Y042518D01*
X043237Y042462D01*
X043206Y042408D01*
X043172Y042355D01*
X043135Y042305D01*
X043095Y042257D01*
X043052Y042212D01*
X043006Y042169D01*
X042958Y042130D01*
X042907Y042094D01*
X042854Y042061D01*
X042799Y042031D01*
X042742Y042005D01*
X042684Y041983D01*
X042624Y041965D01*
X042564Y041950D01*
X042502Y041939D01*
X042440Y041932D01*
X042378Y041929D01*
X042315Y041930D01*
X042253Y041935D01*
X042191Y041944D01*
X042130Y041957D01*
X042070Y041973D01*
X042011Y041994D01*
X041953Y042018D01*
X041897Y042046D01*
X041843Y042077D01*
X041791Y042111D01*
X041742Y042149D01*
X041694Y042190D01*
X041650Y042234D01*
X041608Y042280D01*
X041570Y042330D01*
X041534Y042381D01*
X041502Y042435D01*
X041474Y042490D01*
X041448Y042547D01*
X041427Y042606D01*
X041410Y042666D01*
X041396Y042727D01*
X041386Y042788D01*
X041380Y042851D01*
X041378Y042913D01*
X044191Y046225D02*
X044193Y046287D01*
X044199Y046350D01*
X044209Y046411D01*
X044223Y046472D01*
X044240Y046532D01*
X044261Y046591D01*
X044287Y046648D01*
X044315Y046703D01*
X044347Y046757D01*
X044383Y046808D01*
X044421Y046858D01*
X044463Y046904D01*
X044507Y046948D01*
X044555Y046989D01*
X044604Y047027D01*
X044656Y047061D01*
X044710Y047092D01*
X044766Y047120D01*
X044824Y047144D01*
X044883Y047165D01*
X044943Y047181D01*
X045004Y047194D01*
X045066Y047203D01*
X045128Y047208D01*
X045191Y047209D01*
X045253Y047206D01*
X045315Y047199D01*
X045377Y047188D01*
X045437Y047173D01*
X045497Y047155D01*
X045555Y047133D01*
X045612Y047107D01*
X045667Y047077D01*
X045720Y047044D01*
X045771Y047008D01*
X045819Y046969D01*
X045865Y046926D01*
X045908Y046881D01*
X045948Y046833D01*
X045985Y046783D01*
X046019Y046730D01*
X046050Y046676D01*
X046076Y046620D01*
X046100Y046562D01*
X046119Y046502D01*
X046135Y046442D01*
X046147Y046380D01*
X046155Y046319D01*
X046159Y046256D01*
X046159Y046194D01*
X046155Y046131D01*
X046147Y046070D01*
X046135Y046008D01*
X046119Y045948D01*
X046100Y045888D01*
X046076Y045830D01*
X046050Y045774D01*
X046019Y045720D01*
X045985Y045667D01*
X045948Y045617D01*
X045908Y045569D01*
X045865Y045524D01*
X045819Y045481D01*
X045771Y045442D01*
X045720Y045406D01*
X045667Y045373D01*
X045612Y045343D01*
X045555Y045317D01*
X045497Y045295D01*
X045437Y045277D01*
X045377Y045262D01*
X045315Y045251D01*
X045253Y045244D01*
X045191Y045241D01*
X045128Y045242D01*
X045066Y045247D01*
X045004Y045256D01*
X044943Y045269D01*
X044883Y045285D01*
X044824Y045306D01*
X044766Y045330D01*
X044710Y045358D01*
X044656Y045389D01*
X044604Y045423D01*
X044555Y045461D01*
X044507Y045502D01*
X044463Y045546D01*
X044421Y045592D01*
X044383Y045642D01*
X044347Y045693D01*
X044315Y045747D01*
X044287Y045802D01*
X044261Y045859D01*
X044240Y045918D01*
X044223Y045978D01*
X044209Y046039D01*
X044199Y046100D01*
X044193Y046163D01*
X044191Y046225D01*
X049628Y042350D02*
X049630Y042412D01*
X049636Y042475D01*
X049646Y042536D01*
X049660Y042597D01*
X049677Y042657D01*
X049698Y042716D01*
X049724Y042773D01*
X049752Y042828D01*
X049784Y042882D01*
X049820Y042933D01*
X049858Y042983D01*
X049900Y043029D01*
X049944Y043073D01*
X049992Y043114D01*
X050041Y043152D01*
X050093Y043186D01*
X050147Y043217D01*
X050203Y043245D01*
X050261Y043269D01*
X050320Y043290D01*
X050380Y043306D01*
X050441Y043319D01*
X050503Y043328D01*
X050565Y043333D01*
X050628Y043334D01*
X050690Y043331D01*
X050752Y043324D01*
X050814Y043313D01*
X050874Y043298D01*
X050934Y043280D01*
X050992Y043258D01*
X051049Y043232D01*
X051104Y043202D01*
X051157Y043169D01*
X051208Y043133D01*
X051256Y043094D01*
X051302Y043051D01*
X051345Y043006D01*
X051385Y042958D01*
X051422Y042908D01*
X051456Y042855D01*
X051487Y042801D01*
X051513Y042745D01*
X051537Y042687D01*
X051556Y042627D01*
X051572Y042567D01*
X051584Y042505D01*
X051592Y042444D01*
X051596Y042381D01*
X051596Y042319D01*
X051592Y042256D01*
X051584Y042195D01*
X051572Y042133D01*
X051556Y042073D01*
X051537Y042013D01*
X051513Y041955D01*
X051487Y041899D01*
X051456Y041845D01*
X051422Y041792D01*
X051385Y041742D01*
X051345Y041694D01*
X051302Y041649D01*
X051256Y041606D01*
X051208Y041567D01*
X051157Y041531D01*
X051104Y041498D01*
X051049Y041468D01*
X050992Y041442D01*
X050934Y041420D01*
X050874Y041402D01*
X050814Y041387D01*
X050752Y041376D01*
X050690Y041369D01*
X050628Y041366D01*
X050565Y041367D01*
X050503Y041372D01*
X050441Y041381D01*
X050380Y041394D01*
X050320Y041410D01*
X050261Y041431D01*
X050203Y041455D01*
X050147Y041483D01*
X050093Y041514D01*
X050041Y041548D01*
X049992Y041586D01*
X049944Y041627D01*
X049900Y041671D01*
X049858Y041717D01*
X049820Y041767D01*
X049784Y041818D01*
X049752Y041872D01*
X049724Y041927D01*
X049698Y041984D01*
X049677Y042043D01*
X049660Y042103D01*
X049646Y042164D01*
X049636Y042225D01*
X049630Y042288D01*
X049628Y042350D01*
X058253Y013100D02*
X058255Y013162D01*
X058261Y013225D01*
X058271Y013286D01*
X058285Y013347D01*
X058302Y013407D01*
X058323Y013466D01*
X058349Y013523D01*
X058377Y013578D01*
X058409Y013632D01*
X058445Y013683D01*
X058483Y013733D01*
X058525Y013779D01*
X058569Y013823D01*
X058617Y013864D01*
X058666Y013902D01*
X058718Y013936D01*
X058772Y013967D01*
X058828Y013995D01*
X058886Y014019D01*
X058945Y014040D01*
X059005Y014056D01*
X059066Y014069D01*
X059128Y014078D01*
X059190Y014083D01*
X059253Y014084D01*
X059315Y014081D01*
X059377Y014074D01*
X059439Y014063D01*
X059499Y014048D01*
X059559Y014030D01*
X059617Y014008D01*
X059674Y013982D01*
X059729Y013952D01*
X059782Y013919D01*
X059833Y013883D01*
X059881Y013844D01*
X059927Y013801D01*
X059970Y013756D01*
X060010Y013708D01*
X060047Y013658D01*
X060081Y013605D01*
X060112Y013551D01*
X060138Y013495D01*
X060162Y013437D01*
X060181Y013377D01*
X060197Y013317D01*
X060209Y013255D01*
X060217Y013194D01*
X060221Y013131D01*
X060221Y013069D01*
X060217Y013006D01*
X060209Y012945D01*
X060197Y012883D01*
X060181Y012823D01*
X060162Y012763D01*
X060138Y012705D01*
X060112Y012649D01*
X060081Y012595D01*
X060047Y012542D01*
X060010Y012492D01*
X059970Y012444D01*
X059927Y012399D01*
X059881Y012356D01*
X059833Y012317D01*
X059782Y012281D01*
X059729Y012248D01*
X059674Y012218D01*
X059617Y012192D01*
X059559Y012170D01*
X059499Y012152D01*
X059439Y012137D01*
X059377Y012126D01*
X059315Y012119D01*
X059253Y012116D01*
X059190Y012117D01*
X059128Y012122D01*
X059066Y012131D01*
X059005Y012144D01*
X058945Y012160D01*
X058886Y012181D01*
X058828Y012205D01*
X058772Y012233D01*
X058718Y012264D01*
X058666Y012298D01*
X058617Y012336D01*
X058569Y012377D01*
X058525Y012421D01*
X058483Y012467D01*
X058445Y012517D01*
X058409Y012568D01*
X058377Y012622D01*
X058349Y012677D01*
X058323Y012734D01*
X058302Y012793D01*
X058285Y012853D01*
X058271Y012914D01*
X058261Y012975D01*
X058255Y013038D01*
X058253Y013100D01*
D12*
X054290Y016850D02*
X054292Y016877D01*
X054298Y016904D01*
X054307Y016930D01*
X054320Y016954D01*
X054336Y016977D01*
X054355Y016996D01*
X054377Y017013D01*
X054401Y017027D01*
X054426Y017037D01*
X054453Y017044D01*
X054480Y017047D01*
X054508Y017046D01*
X054535Y017041D01*
X054561Y017033D01*
X054585Y017021D01*
X054608Y017005D01*
X054629Y016987D01*
X054646Y016966D01*
X054661Y016942D01*
X054672Y016917D01*
X054680Y016891D01*
X054684Y016864D01*
X054684Y016836D01*
X054680Y016809D01*
X054672Y016783D01*
X054661Y016758D01*
X054646Y016734D01*
X054629Y016713D01*
X054608Y016695D01*
X054586Y016679D01*
X054561Y016667D01*
X054535Y016659D01*
X054508Y016654D01*
X054480Y016653D01*
X054453Y016656D01*
X054426Y016663D01*
X054401Y016673D01*
X054377Y016687D01*
X054355Y016704D01*
X054336Y016723D01*
X054320Y016746D01*
X054307Y016770D01*
X054298Y016796D01*
X054292Y016823D01*
X054290Y016850D01*
X045790Y016850D02*
X045792Y016877D01*
X045798Y016904D01*
X045807Y016930D01*
X045820Y016954D01*
X045836Y016977D01*
X045855Y016996D01*
X045877Y017013D01*
X045901Y017027D01*
X045926Y017037D01*
X045953Y017044D01*
X045980Y017047D01*
X046008Y017046D01*
X046035Y017041D01*
X046061Y017033D01*
X046085Y017021D01*
X046108Y017005D01*
X046129Y016987D01*
X046146Y016966D01*
X046161Y016942D01*
X046172Y016917D01*
X046180Y016891D01*
X046184Y016864D01*
X046184Y016836D01*
X046180Y016809D01*
X046172Y016783D01*
X046161Y016758D01*
X046146Y016734D01*
X046129Y016713D01*
X046108Y016695D01*
X046086Y016679D01*
X046061Y016667D01*
X046035Y016659D01*
X046008Y016654D01*
X045980Y016653D01*
X045953Y016656D01*
X045926Y016663D01*
X045901Y016673D01*
X045877Y016687D01*
X045855Y016704D01*
X045836Y016723D01*
X045820Y016746D01*
X045807Y016770D01*
X045798Y016796D01*
X045792Y016823D01*
X045790Y016850D01*
X038290Y016850D02*
X038292Y016877D01*
X038298Y016904D01*
X038307Y016930D01*
X038320Y016954D01*
X038336Y016977D01*
X038355Y016996D01*
X038377Y017013D01*
X038401Y017027D01*
X038426Y017037D01*
X038453Y017044D01*
X038480Y017047D01*
X038508Y017046D01*
X038535Y017041D01*
X038561Y017033D01*
X038585Y017021D01*
X038608Y017005D01*
X038629Y016987D01*
X038646Y016966D01*
X038661Y016942D01*
X038672Y016917D01*
X038680Y016891D01*
X038684Y016864D01*
X038684Y016836D01*
X038680Y016809D01*
X038672Y016783D01*
X038661Y016758D01*
X038646Y016734D01*
X038629Y016713D01*
X038608Y016695D01*
X038586Y016679D01*
X038561Y016667D01*
X038535Y016659D01*
X038508Y016654D01*
X038480Y016653D01*
X038453Y016656D01*
X038426Y016663D01*
X038401Y016673D01*
X038377Y016687D01*
X038355Y016704D01*
X038336Y016723D01*
X038320Y016746D01*
X038307Y016770D01*
X038298Y016796D01*
X038292Y016823D01*
X038290Y016850D01*
X030790Y016850D02*
X030792Y016877D01*
X030798Y016904D01*
X030807Y016930D01*
X030820Y016954D01*
X030836Y016977D01*
X030855Y016996D01*
X030877Y017013D01*
X030901Y017027D01*
X030926Y017037D01*
X030953Y017044D01*
X030980Y017047D01*
X031008Y017046D01*
X031035Y017041D01*
X031061Y017033D01*
X031085Y017021D01*
X031108Y017005D01*
X031129Y016987D01*
X031146Y016966D01*
X031161Y016942D01*
X031172Y016917D01*
X031180Y016891D01*
X031184Y016864D01*
X031184Y016836D01*
X031180Y016809D01*
X031172Y016783D01*
X031161Y016758D01*
X031146Y016734D01*
X031129Y016713D01*
X031108Y016695D01*
X031086Y016679D01*
X031061Y016667D01*
X031035Y016659D01*
X031008Y016654D01*
X030980Y016653D01*
X030953Y016656D01*
X030926Y016663D01*
X030901Y016673D01*
X030877Y016687D01*
X030855Y016704D01*
X030836Y016723D01*
X030820Y016746D01*
X030807Y016770D01*
X030798Y016796D01*
X030792Y016823D01*
X030790Y016850D01*
X023290Y016850D02*
X023292Y016877D01*
X023298Y016904D01*
X023307Y016930D01*
X023320Y016954D01*
X023336Y016977D01*
X023355Y016996D01*
X023377Y017013D01*
X023401Y017027D01*
X023426Y017037D01*
X023453Y017044D01*
X023480Y017047D01*
X023508Y017046D01*
X023535Y017041D01*
X023561Y017033D01*
X023585Y017021D01*
X023608Y017005D01*
X023629Y016987D01*
X023646Y016966D01*
X023661Y016942D01*
X023672Y016917D01*
X023680Y016891D01*
X023684Y016864D01*
X023684Y016836D01*
X023680Y016809D01*
X023672Y016783D01*
X023661Y016758D01*
X023646Y016734D01*
X023629Y016713D01*
X023608Y016695D01*
X023586Y016679D01*
X023561Y016667D01*
X023535Y016659D01*
X023508Y016654D01*
X023480Y016653D01*
X023453Y016656D01*
X023426Y016663D01*
X023401Y016673D01*
X023377Y016687D01*
X023355Y016704D01*
X023336Y016723D01*
X023320Y016746D01*
X023307Y016770D01*
X023298Y016796D01*
X023292Y016823D01*
X023290Y016850D01*
X015790Y016850D02*
X015792Y016877D01*
X015798Y016904D01*
X015807Y016930D01*
X015820Y016954D01*
X015836Y016977D01*
X015855Y016996D01*
X015877Y017013D01*
X015901Y017027D01*
X015926Y017037D01*
X015953Y017044D01*
X015980Y017047D01*
X016008Y017046D01*
X016035Y017041D01*
X016061Y017033D01*
X016085Y017021D01*
X016108Y017005D01*
X016129Y016987D01*
X016146Y016966D01*
X016161Y016942D01*
X016172Y016917D01*
X016180Y016891D01*
X016184Y016864D01*
X016184Y016836D01*
X016180Y016809D01*
X016172Y016783D01*
X016161Y016758D01*
X016146Y016734D01*
X016129Y016713D01*
X016108Y016695D01*
X016086Y016679D01*
X016061Y016667D01*
X016035Y016659D01*
X016008Y016654D01*
X015980Y016653D01*
X015953Y016656D01*
X015926Y016663D01*
X015901Y016673D01*
X015877Y016687D01*
X015855Y016704D01*
X015836Y016723D01*
X015820Y016746D01*
X015807Y016770D01*
X015798Y016796D01*
X015792Y016823D01*
X015790Y016850D01*
X008290Y016850D02*
X008292Y016877D01*
X008298Y016904D01*
X008307Y016930D01*
X008320Y016954D01*
X008336Y016977D01*
X008355Y016996D01*
X008377Y017013D01*
X008401Y017027D01*
X008426Y017037D01*
X008453Y017044D01*
X008480Y017047D01*
X008508Y017046D01*
X008535Y017041D01*
X008561Y017033D01*
X008585Y017021D01*
X008608Y017005D01*
X008629Y016987D01*
X008646Y016966D01*
X008661Y016942D01*
X008672Y016917D01*
X008680Y016891D01*
X008684Y016864D01*
X008684Y016836D01*
X008680Y016809D01*
X008672Y016783D01*
X008661Y016758D01*
X008646Y016734D01*
X008629Y016713D01*
X008608Y016695D01*
X008586Y016679D01*
X008561Y016667D01*
X008535Y016659D01*
X008508Y016654D01*
X008480Y016653D01*
X008453Y016656D01*
X008426Y016663D01*
X008401Y016673D01*
X008377Y016687D01*
X008355Y016704D01*
X008336Y016723D01*
X008320Y016746D01*
X008307Y016770D01*
X008298Y016796D01*
X008292Y016823D01*
X008290Y016850D01*
X012665Y009350D02*
X012667Y009377D01*
X012673Y009404D01*
X012682Y009430D01*
X012695Y009454D01*
X012711Y009477D01*
X012730Y009496D01*
X012752Y009513D01*
X012776Y009527D01*
X012801Y009537D01*
X012828Y009544D01*
X012855Y009547D01*
X012883Y009546D01*
X012910Y009541D01*
X012936Y009533D01*
X012960Y009521D01*
X012983Y009505D01*
X013004Y009487D01*
X013021Y009466D01*
X013036Y009442D01*
X013047Y009417D01*
X013055Y009391D01*
X013059Y009364D01*
X013059Y009336D01*
X013055Y009309D01*
X013047Y009283D01*
X013036Y009258D01*
X013021Y009234D01*
X013004Y009213D01*
X012983Y009195D01*
X012961Y009179D01*
X012936Y009167D01*
X012910Y009159D01*
X012883Y009154D01*
X012855Y009153D01*
X012828Y009156D01*
X012801Y009163D01*
X012776Y009173D01*
X012752Y009187D01*
X012730Y009204D01*
X012711Y009223D01*
X012695Y009246D01*
X012682Y009270D01*
X012673Y009296D01*
X012667Y009323D01*
X012665Y009350D01*
X014665Y009350D02*
X014667Y009377D01*
X014673Y009404D01*
X014682Y009430D01*
X014695Y009454D01*
X014711Y009477D01*
X014730Y009496D01*
X014752Y009513D01*
X014776Y009527D01*
X014801Y009537D01*
X014828Y009544D01*
X014855Y009547D01*
X014883Y009546D01*
X014910Y009541D01*
X014936Y009533D01*
X014960Y009521D01*
X014983Y009505D01*
X015004Y009487D01*
X015021Y009466D01*
X015036Y009442D01*
X015047Y009417D01*
X015055Y009391D01*
X015059Y009364D01*
X015059Y009336D01*
X015055Y009309D01*
X015047Y009283D01*
X015036Y009258D01*
X015021Y009234D01*
X015004Y009213D01*
X014983Y009195D01*
X014961Y009179D01*
X014936Y009167D01*
X014910Y009159D01*
X014883Y009154D01*
X014855Y009153D01*
X014828Y009156D01*
X014801Y009163D01*
X014776Y009173D01*
X014752Y009187D01*
X014730Y009204D01*
X014711Y009223D01*
X014695Y009246D01*
X014682Y009270D01*
X014673Y009296D01*
X014667Y009323D01*
X014665Y009350D01*
X026853Y009350D02*
X026855Y009377D01*
X026861Y009404D01*
X026870Y009430D01*
X026883Y009454D01*
X026899Y009477D01*
X026918Y009496D01*
X026940Y009513D01*
X026964Y009527D01*
X026989Y009537D01*
X027016Y009544D01*
X027043Y009547D01*
X027071Y009546D01*
X027098Y009541D01*
X027124Y009533D01*
X027148Y009521D01*
X027171Y009505D01*
X027192Y009487D01*
X027209Y009466D01*
X027224Y009442D01*
X027235Y009417D01*
X027243Y009391D01*
X027247Y009364D01*
X027247Y009336D01*
X027243Y009309D01*
X027235Y009283D01*
X027224Y009258D01*
X027209Y009234D01*
X027192Y009213D01*
X027171Y009195D01*
X027149Y009179D01*
X027124Y009167D01*
X027098Y009159D01*
X027071Y009154D01*
X027043Y009153D01*
X027016Y009156D01*
X026989Y009163D01*
X026964Y009173D01*
X026940Y009187D01*
X026918Y009204D01*
X026899Y009223D01*
X026883Y009246D01*
X026870Y009270D01*
X026861Y009296D01*
X026855Y009323D01*
X026853Y009350D01*
X027790Y009350D02*
X027792Y009377D01*
X027798Y009404D01*
X027807Y009430D01*
X027820Y009454D01*
X027836Y009477D01*
X027855Y009496D01*
X027877Y009513D01*
X027901Y009527D01*
X027926Y009537D01*
X027953Y009544D01*
X027980Y009547D01*
X028008Y009546D01*
X028035Y009541D01*
X028061Y009533D01*
X028085Y009521D01*
X028108Y009505D01*
X028129Y009487D01*
X028146Y009466D01*
X028161Y009442D01*
X028172Y009417D01*
X028180Y009391D01*
X028184Y009364D01*
X028184Y009336D01*
X028180Y009309D01*
X028172Y009283D01*
X028161Y009258D01*
X028146Y009234D01*
X028129Y009213D01*
X028108Y009195D01*
X028086Y009179D01*
X028061Y009167D01*
X028035Y009159D01*
X028008Y009154D01*
X027980Y009153D01*
X027953Y009156D01*
X027926Y009163D01*
X027901Y009173D01*
X027877Y009187D01*
X027855Y009204D01*
X027836Y009223D01*
X027820Y009246D01*
X027807Y009270D01*
X027798Y009296D01*
X027792Y009323D01*
X027790Y009350D01*
X035228Y009350D02*
X035230Y009377D01*
X035236Y009404D01*
X035245Y009430D01*
X035258Y009454D01*
X035274Y009477D01*
X035293Y009496D01*
X035315Y009513D01*
X035339Y009527D01*
X035364Y009537D01*
X035391Y009544D01*
X035418Y009547D01*
X035446Y009546D01*
X035473Y009541D01*
X035499Y009533D01*
X035523Y009521D01*
X035546Y009505D01*
X035567Y009487D01*
X035584Y009466D01*
X035599Y009442D01*
X035610Y009417D01*
X035618Y009391D01*
X035622Y009364D01*
X035622Y009336D01*
X035618Y009309D01*
X035610Y009283D01*
X035599Y009258D01*
X035584Y009234D01*
X035567Y009213D01*
X035546Y009195D01*
X035524Y009179D01*
X035499Y009167D01*
X035473Y009159D01*
X035446Y009154D01*
X035418Y009153D01*
X035391Y009156D01*
X035364Y009163D01*
X035339Y009173D01*
X035315Y009187D01*
X035293Y009204D01*
X035274Y009223D01*
X035258Y009246D01*
X035245Y009270D01*
X035236Y009296D01*
X035230Y009323D01*
X035228Y009350D01*
X036290Y009350D02*
X036292Y009377D01*
X036298Y009404D01*
X036307Y009430D01*
X036320Y009454D01*
X036336Y009477D01*
X036355Y009496D01*
X036377Y009513D01*
X036401Y009527D01*
X036426Y009537D01*
X036453Y009544D01*
X036480Y009547D01*
X036508Y009546D01*
X036535Y009541D01*
X036561Y009533D01*
X036585Y009521D01*
X036608Y009505D01*
X036629Y009487D01*
X036646Y009466D01*
X036661Y009442D01*
X036672Y009417D01*
X036680Y009391D01*
X036684Y009364D01*
X036684Y009336D01*
X036680Y009309D01*
X036672Y009283D01*
X036661Y009258D01*
X036646Y009234D01*
X036629Y009213D01*
X036608Y009195D01*
X036586Y009179D01*
X036561Y009167D01*
X036535Y009159D01*
X036508Y009154D01*
X036480Y009153D01*
X036453Y009156D01*
X036426Y009163D01*
X036401Y009173D01*
X036377Y009187D01*
X036355Y009204D01*
X036336Y009223D01*
X036320Y009246D01*
X036307Y009270D01*
X036298Y009296D01*
X036292Y009323D01*
X036290Y009350D01*
X044790Y009350D02*
X044792Y009377D01*
X044798Y009404D01*
X044807Y009430D01*
X044820Y009454D01*
X044836Y009477D01*
X044855Y009496D01*
X044877Y009513D01*
X044901Y009527D01*
X044926Y009537D01*
X044953Y009544D01*
X044980Y009547D01*
X045008Y009546D01*
X045035Y009541D01*
X045061Y009533D01*
X045085Y009521D01*
X045108Y009505D01*
X045129Y009487D01*
X045146Y009466D01*
X045161Y009442D01*
X045172Y009417D01*
X045180Y009391D01*
X045184Y009364D01*
X045184Y009336D01*
X045180Y009309D01*
X045172Y009283D01*
X045161Y009258D01*
X045146Y009234D01*
X045129Y009213D01*
X045108Y009195D01*
X045086Y009179D01*
X045061Y009167D01*
X045035Y009159D01*
X045008Y009154D01*
X044980Y009153D01*
X044953Y009156D01*
X044926Y009163D01*
X044901Y009173D01*
X044877Y009187D01*
X044855Y009204D01*
X044836Y009223D01*
X044820Y009246D01*
X044807Y009270D01*
X044798Y009296D01*
X044792Y009323D01*
X044790Y009350D01*
X054290Y009350D02*
X054292Y009377D01*
X054298Y009404D01*
X054307Y009430D01*
X054320Y009454D01*
X054336Y009477D01*
X054355Y009496D01*
X054377Y009513D01*
X054401Y009527D01*
X054426Y009537D01*
X054453Y009544D01*
X054480Y009547D01*
X054508Y009546D01*
X054535Y009541D01*
X054561Y009533D01*
X054585Y009521D01*
X054608Y009505D01*
X054629Y009487D01*
X054646Y009466D01*
X054661Y009442D01*
X054672Y009417D01*
X054680Y009391D01*
X054684Y009364D01*
X054684Y009336D01*
X054680Y009309D01*
X054672Y009283D01*
X054661Y009258D01*
X054646Y009234D01*
X054629Y009213D01*
X054608Y009195D01*
X054586Y009179D01*
X054561Y009167D01*
X054535Y009159D01*
X054508Y009154D01*
X054480Y009153D01*
X054453Y009156D01*
X054426Y009163D01*
X054401Y009173D01*
X054377Y009187D01*
X054355Y009204D01*
X054336Y009223D01*
X054320Y009246D01*
X054307Y009270D01*
X054298Y009296D01*
X054292Y009323D01*
X054290Y009350D01*
X062790Y009350D02*
X062792Y009377D01*
X062798Y009404D01*
X062807Y009430D01*
X062820Y009454D01*
X062836Y009477D01*
X062855Y009496D01*
X062877Y009513D01*
X062901Y009527D01*
X062926Y009537D01*
X062953Y009544D01*
X062980Y009547D01*
X063008Y009546D01*
X063035Y009541D01*
X063061Y009533D01*
X063085Y009521D01*
X063108Y009505D01*
X063129Y009487D01*
X063146Y009466D01*
X063161Y009442D01*
X063172Y009417D01*
X063180Y009391D01*
X063184Y009364D01*
X063184Y009336D01*
X063180Y009309D01*
X063172Y009283D01*
X063161Y009258D01*
X063146Y009234D01*
X063129Y009213D01*
X063108Y009195D01*
X063086Y009179D01*
X063061Y009167D01*
X063035Y009159D01*
X063008Y009154D01*
X062980Y009153D01*
X062953Y009156D01*
X062926Y009163D01*
X062901Y009173D01*
X062877Y009187D01*
X062855Y009204D01*
X062836Y009223D01*
X062820Y009246D01*
X062807Y009270D01*
X062798Y009296D01*
X062792Y009323D01*
X062790Y009350D01*
X062790Y016850D02*
X062792Y016877D01*
X062798Y016904D01*
X062807Y016930D01*
X062820Y016954D01*
X062836Y016977D01*
X062855Y016996D01*
X062877Y017013D01*
X062901Y017027D01*
X062926Y017037D01*
X062953Y017044D01*
X062980Y017047D01*
X063008Y017046D01*
X063035Y017041D01*
X063061Y017033D01*
X063085Y017021D01*
X063108Y017005D01*
X063129Y016987D01*
X063146Y016966D01*
X063161Y016942D01*
X063172Y016917D01*
X063180Y016891D01*
X063184Y016864D01*
X063184Y016836D01*
X063180Y016809D01*
X063172Y016783D01*
X063161Y016758D01*
X063146Y016734D01*
X063129Y016713D01*
X063108Y016695D01*
X063086Y016679D01*
X063061Y016667D01*
X063035Y016659D01*
X063008Y016654D01*
X062980Y016653D01*
X062953Y016656D01*
X062926Y016663D01*
X062901Y016673D01*
X062877Y016687D01*
X062855Y016704D01*
X062836Y016723D01*
X062820Y016746D01*
X062807Y016770D01*
X062798Y016796D01*
X062792Y016823D01*
X062790Y016850D01*
X058040Y024350D02*
X058042Y024377D01*
X058048Y024404D01*
X058057Y024430D01*
X058070Y024454D01*
X058086Y024477D01*
X058105Y024496D01*
X058127Y024513D01*
X058151Y024527D01*
X058176Y024537D01*
X058203Y024544D01*
X058230Y024547D01*
X058258Y024546D01*
X058285Y024541D01*
X058311Y024533D01*
X058335Y024521D01*
X058358Y024505D01*
X058379Y024487D01*
X058396Y024466D01*
X058411Y024442D01*
X058422Y024417D01*
X058430Y024391D01*
X058434Y024364D01*
X058434Y024336D01*
X058430Y024309D01*
X058422Y024283D01*
X058411Y024258D01*
X058396Y024234D01*
X058379Y024213D01*
X058358Y024195D01*
X058336Y024179D01*
X058311Y024167D01*
X058285Y024159D01*
X058258Y024154D01*
X058230Y024153D01*
X058203Y024156D01*
X058176Y024163D01*
X058151Y024173D01*
X058127Y024187D01*
X058105Y024204D01*
X058086Y024223D01*
X058070Y024246D01*
X058057Y024270D01*
X058048Y024296D01*
X058042Y024323D01*
X058040Y024350D01*
X060790Y031850D02*
X060792Y031877D01*
X060798Y031904D01*
X060807Y031930D01*
X060820Y031954D01*
X060836Y031977D01*
X060855Y031996D01*
X060877Y032013D01*
X060901Y032027D01*
X060926Y032037D01*
X060953Y032044D01*
X060980Y032047D01*
X061008Y032046D01*
X061035Y032041D01*
X061061Y032033D01*
X061085Y032021D01*
X061108Y032005D01*
X061129Y031987D01*
X061146Y031966D01*
X061161Y031942D01*
X061172Y031917D01*
X061180Y031891D01*
X061184Y031864D01*
X061184Y031836D01*
X061180Y031809D01*
X061172Y031783D01*
X061161Y031758D01*
X061146Y031734D01*
X061129Y031713D01*
X061108Y031695D01*
X061086Y031679D01*
X061061Y031667D01*
X061035Y031659D01*
X061008Y031654D01*
X060980Y031653D01*
X060953Y031656D01*
X060926Y031663D01*
X060901Y031673D01*
X060877Y031687D01*
X060855Y031704D01*
X060836Y031723D01*
X060820Y031746D01*
X060807Y031770D01*
X060798Y031796D01*
X060792Y031823D01*
X060790Y031850D01*
X053290Y031850D02*
X053292Y031877D01*
X053298Y031904D01*
X053307Y031930D01*
X053320Y031954D01*
X053336Y031977D01*
X053355Y031996D01*
X053377Y032013D01*
X053401Y032027D01*
X053426Y032037D01*
X053453Y032044D01*
X053480Y032047D01*
X053508Y032046D01*
X053535Y032041D01*
X053561Y032033D01*
X053585Y032021D01*
X053608Y032005D01*
X053629Y031987D01*
X053646Y031966D01*
X053661Y031942D01*
X053672Y031917D01*
X053680Y031891D01*
X053684Y031864D01*
X053684Y031836D01*
X053680Y031809D01*
X053672Y031783D01*
X053661Y031758D01*
X053646Y031734D01*
X053629Y031713D01*
X053608Y031695D01*
X053586Y031679D01*
X053561Y031667D01*
X053535Y031659D01*
X053508Y031654D01*
X053480Y031653D01*
X053453Y031656D01*
X053426Y031663D01*
X053401Y031673D01*
X053377Y031687D01*
X053355Y031704D01*
X053336Y031723D01*
X053320Y031746D01*
X053307Y031770D01*
X053298Y031796D01*
X053292Y031823D01*
X053290Y031850D01*
X045790Y031850D02*
X045792Y031877D01*
X045798Y031904D01*
X045807Y031930D01*
X045820Y031954D01*
X045836Y031977D01*
X045855Y031996D01*
X045877Y032013D01*
X045901Y032027D01*
X045926Y032037D01*
X045953Y032044D01*
X045980Y032047D01*
X046008Y032046D01*
X046035Y032041D01*
X046061Y032033D01*
X046085Y032021D01*
X046108Y032005D01*
X046129Y031987D01*
X046146Y031966D01*
X046161Y031942D01*
X046172Y031917D01*
X046180Y031891D01*
X046184Y031864D01*
X046184Y031836D01*
X046180Y031809D01*
X046172Y031783D01*
X046161Y031758D01*
X046146Y031734D01*
X046129Y031713D01*
X046108Y031695D01*
X046086Y031679D01*
X046061Y031667D01*
X046035Y031659D01*
X046008Y031654D01*
X045980Y031653D01*
X045953Y031656D01*
X045926Y031663D01*
X045901Y031673D01*
X045877Y031687D01*
X045855Y031704D01*
X045836Y031723D01*
X045820Y031746D01*
X045807Y031770D01*
X045798Y031796D01*
X045792Y031823D01*
X045790Y031850D01*
X038290Y031850D02*
X038292Y031877D01*
X038298Y031904D01*
X038307Y031930D01*
X038320Y031954D01*
X038336Y031977D01*
X038355Y031996D01*
X038377Y032013D01*
X038401Y032027D01*
X038426Y032037D01*
X038453Y032044D01*
X038480Y032047D01*
X038508Y032046D01*
X038535Y032041D01*
X038561Y032033D01*
X038585Y032021D01*
X038608Y032005D01*
X038629Y031987D01*
X038646Y031966D01*
X038661Y031942D01*
X038672Y031917D01*
X038680Y031891D01*
X038684Y031864D01*
X038684Y031836D01*
X038680Y031809D01*
X038672Y031783D01*
X038661Y031758D01*
X038646Y031734D01*
X038629Y031713D01*
X038608Y031695D01*
X038586Y031679D01*
X038561Y031667D01*
X038535Y031659D01*
X038508Y031654D01*
X038480Y031653D01*
X038453Y031656D01*
X038426Y031663D01*
X038401Y031673D01*
X038377Y031687D01*
X038355Y031704D01*
X038336Y031723D01*
X038320Y031746D01*
X038307Y031770D01*
X038298Y031796D01*
X038292Y031823D01*
X038290Y031850D01*
X030790Y031850D02*
X030792Y031877D01*
X030798Y031904D01*
X030807Y031930D01*
X030820Y031954D01*
X030836Y031977D01*
X030855Y031996D01*
X030877Y032013D01*
X030901Y032027D01*
X030926Y032037D01*
X030953Y032044D01*
X030980Y032047D01*
X031008Y032046D01*
X031035Y032041D01*
X031061Y032033D01*
X031085Y032021D01*
X031108Y032005D01*
X031129Y031987D01*
X031146Y031966D01*
X031161Y031942D01*
X031172Y031917D01*
X031180Y031891D01*
X031184Y031864D01*
X031184Y031836D01*
X031180Y031809D01*
X031172Y031783D01*
X031161Y031758D01*
X031146Y031734D01*
X031129Y031713D01*
X031108Y031695D01*
X031086Y031679D01*
X031061Y031667D01*
X031035Y031659D01*
X031008Y031654D01*
X030980Y031653D01*
X030953Y031656D01*
X030926Y031663D01*
X030901Y031673D01*
X030877Y031687D01*
X030855Y031704D01*
X030836Y031723D01*
X030820Y031746D01*
X030807Y031770D01*
X030798Y031796D01*
X030792Y031823D01*
X030790Y031850D01*
X023290Y031850D02*
X023292Y031877D01*
X023298Y031904D01*
X023307Y031930D01*
X023320Y031954D01*
X023336Y031977D01*
X023355Y031996D01*
X023377Y032013D01*
X023401Y032027D01*
X023426Y032037D01*
X023453Y032044D01*
X023480Y032047D01*
X023508Y032046D01*
X023535Y032041D01*
X023561Y032033D01*
X023585Y032021D01*
X023608Y032005D01*
X023629Y031987D01*
X023646Y031966D01*
X023661Y031942D01*
X023672Y031917D01*
X023680Y031891D01*
X023684Y031864D01*
X023684Y031836D01*
X023680Y031809D01*
X023672Y031783D01*
X023661Y031758D01*
X023646Y031734D01*
X023629Y031713D01*
X023608Y031695D01*
X023586Y031679D01*
X023561Y031667D01*
X023535Y031659D01*
X023508Y031654D01*
X023480Y031653D01*
X023453Y031656D01*
X023426Y031663D01*
X023401Y031673D01*
X023377Y031687D01*
X023355Y031704D01*
X023336Y031723D01*
X023320Y031746D01*
X023307Y031770D01*
X023298Y031796D01*
X023292Y031823D01*
X023290Y031850D01*
X015790Y031850D02*
X015792Y031877D01*
X015798Y031904D01*
X015807Y031930D01*
X015820Y031954D01*
X015836Y031977D01*
X015855Y031996D01*
X015877Y032013D01*
X015901Y032027D01*
X015926Y032037D01*
X015953Y032044D01*
X015980Y032047D01*
X016008Y032046D01*
X016035Y032041D01*
X016061Y032033D01*
X016085Y032021D01*
X016108Y032005D01*
X016129Y031987D01*
X016146Y031966D01*
X016161Y031942D01*
X016172Y031917D01*
X016180Y031891D01*
X016184Y031864D01*
X016184Y031836D01*
X016180Y031809D01*
X016172Y031783D01*
X016161Y031758D01*
X016146Y031734D01*
X016129Y031713D01*
X016108Y031695D01*
X016086Y031679D01*
X016061Y031667D01*
X016035Y031659D01*
X016008Y031654D01*
X015980Y031653D01*
X015953Y031656D01*
X015926Y031663D01*
X015901Y031673D01*
X015877Y031687D01*
X015855Y031704D01*
X015836Y031723D01*
X015820Y031746D01*
X015807Y031770D01*
X015798Y031796D01*
X015792Y031823D01*
X015790Y031850D01*
X008290Y031850D02*
X008292Y031877D01*
X008298Y031904D01*
X008307Y031930D01*
X008320Y031954D01*
X008336Y031977D01*
X008355Y031996D01*
X008377Y032013D01*
X008401Y032027D01*
X008426Y032037D01*
X008453Y032044D01*
X008480Y032047D01*
X008508Y032046D01*
X008535Y032041D01*
X008561Y032033D01*
X008585Y032021D01*
X008608Y032005D01*
X008629Y031987D01*
X008646Y031966D01*
X008661Y031942D01*
X008672Y031917D01*
X008680Y031891D01*
X008684Y031864D01*
X008684Y031836D01*
X008680Y031809D01*
X008672Y031783D01*
X008661Y031758D01*
X008646Y031734D01*
X008629Y031713D01*
X008608Y031695D01*
X008586Y031679D01*
X008561Y031667D01*
X008535Y031659D01*
X008508Y031654D01*
X008480Y031653D01*
X008453Y031656D01*
X008426Y031663D01*
X008401Y031673D01*
X008377Y031687D01*
X008355Y031704D01*
X008336Y031723D01*
X008320Y031746D01*
X008307Y031770D01*
X008298Y031796D01*
X008292Y031823D01*
X008290Y031850D01*
X008290Y024350D02*
X008292Y024377D01*
X008298Y024404D01*
X008307Y024430D01*
X008320Y024454D01*
X008336Y024477D01*
X008355Y024496D01*
X008377Y024513D01*
X008401Y024527D01*
X008426Y024537D01*
X008453Y024544D01*
X008480Y024547D01*
X008508Y024546D01*
X008535Y024541D01*
X008561Y024533D01*
X008585Y024521D01*
X008608Y024505D01*
X008629Y024487D01*
X008646Y024466D01*
X008661Y024442D01*
X008672Y024417D01*
X008680Y024391D01*
X008684Y024364D01*
X008684Y024336D01*
X008680Y024309D01*
X008672Y024283D01*
X008661Y024258D01*
X008646Y024234D01*
X008629Y024213D01*
X008608Y024195D01*
X008586Y024179D01*
X008561Y024167D01*
X008535Y024159D01*
X008508Y024154D01*
X008480Y024153D01*
X008453Y024156D01*
X008426Y024163D01*
X008401Y024173D01*
X008377Y024187D01*
X008355Y024204D01*
X008336Y024223D01*
X008320Y024246D01*
X008307Y024270D01*
X008298Y024296D01*
X008292Y024323D01*
X008290Y024350D01*
X015790Y024350D02*
X015792Y024377D01*
X015798Y024404D01*
X015807Y024430D01*
X015820Y024454D01*
X015836Y024477D01*
X015855Y024496D01*
X015877Y024513D01*
X015901Y024527D01*
X015926Y024537D01*
X015953Y024544D01*
X015980Y024547D01*
X016008Y024546D01*
X016035Y024541D01*
X016061Y024533D01*
X016085Y024521D01*
X016108Y024505D01*
X016129Y024487D01*
X016146Y024466D01*
X016161Y024442D01*
X016172Y024417D01*
X016180Y024391D01*
X016184Y024364D01*
X016184Y024336D01*
X016180Y024309D01*
X016172Y024283D01*
X016161Y024258D01*
X016146Y024234D01*
X016129Y024213D01*
X016108Y024195D01*
X016086Y024179D01*
X016061Y024167D01*
X016035Y024159D01*
X016008Y024154D01*
X015980Y024153D01*
X015953Y024156D01*
X015926Y024163D01*
X015901Y024173D01*
X015877Y024187D01*
X015855Y024204D01*
X015836Y024223D01*
X015820Y024246D01*
X015807Y024270D01*
X015798Y024296D01*
X015792Y024323D01*
X015790Y024350D01*
X023290Y024350D02*
X023292Y024377D01*
X023298Y024404D01*
X023307Y024430D01*
X023320Y024454D01*
X023336Y024477D01*
X023355Y024496D01*
X023377Y024513D01*
X023401Y024527D01*
X023426Y024537D01*
X023453Y024544D01*
X023480Y024547D01*
X023508Y024546D01*
X023535Y024541D01*
X023561Y024533D01*
X023585Y024521D01*
X023608Y024505D01*
X023629Y024487D01*
X023646Y024466D01*
X023661Y024442D01*
X023672Y024417D01*
X023680Y024391D01*
X023684Y024364D01*
X023684Y024336D01*
X023680Y024309D01*
X023672Y024283D01*
X023661Y024258D01*
X023646Y024234D01*
X023629Y024213D01*
X023608Y024195D01*
X023586Y024179D01*
X023561Y024167D01*
X023535Y024159D01*
X023508Y024154D01*
X023480Y024153D01*
X023453Y024156D01*
X023426Y024163D01*
X023401Y024173D01*
X023377Y024187D01*
X023355Y024204D01*
X023336Y024223D01*
X023320Y024246D01*
X023307Y024270D01*
X023298Y024296D01*
X023292Y024323D01*
X023290Y024350D01*
X030790Y024350D02*
X030792Y024377D01*
X030798Y024404D01*
X030807Y024430D01*
X030820Y024454D01*
X030836Y024477D01*
X030855Y024496D01*
X030877Y024513D01*
X030901Y024527D01*
X030926Y024537D01*
X030953Y024544D01*
X030980Y024547D01*
X031008Y024546D01*
X031035Y024541D01*
X031061Y024533D01*
X031085Y024521D01*
X031108Y024505D01*
X031129Y024487D01*
X031146Y024466D01*
X031161Y024442D01*
X031172Y024417D01*
X031180Y024391D01*
X031184Y024364D01*
X031184Y024336D01*
X031180Y024309D01*
X031172Y024283D01*
X031161Y024258D01*
X031146Y024234D01*
X031129Y024213D01*
X031108Y024195D01*
X031086Y024179D01*
X031061Y024167D01*
X031035Y024159D01*
X031008Y024154D01*
X030980Y024153D01*
X030953Y024156D01*
X030926Y024163D01*
X030901Y024173D01*
X030877Y024187D01*
X030855Y024204D01*
X030836Y024223D01*
X030820Y024246D01*
X030807Y024270D01*
X030798Y024296D01*
X030792Y024323D01*
X030790Y024350D01*
X038290Y024350D02*
X038292Y024377D01*
X038298Y024404D01*
X038307Y024430D01*
X038320Y024454D01*
X038336Y024477D01*
X038355Y024496D01*
X038377Y024513D01*
X038401Y024527D01*
X038426Y024537D01*
X038453Y024544D01*
X038480Y024547D01*
X038508Y024546D01*
X038535Y024541D01*
X038561Y024533D01*
X038585Y024521D01*
X038608Y024505D01*
X038629Y024487D01*
X038646Y024466D01*
X038661Y024442D01*
X038672Y024417D01*
X038680Y024391D01*
X038684Y024364D01*
X038684Y024336D01*
X038680Y024309D01*
X038672Y024283D01*
X038661Y024258D01*
X038646Y024234D01*
X038629Y024213D01*
X038608Y024195D01*
X038586Y024179D01*
X038561Y024167D01*
X038535Y024159D01*
X038508Y024154D01*
X038480Y024153D01*
X038453Y024156D01*
X038426Y024163D01*
X038401Y024173D01*
X038377Y024187D01*
X038355Y024204D01*
X038336Y024223D01*
X038320Y024246D01*
X038307Y024270D01*
X038298Y024296D01*
X038292Y024323D01*
X038290Y024350D01*
X045790Y024350D02*
X045792Y024377D01*
X045798Y024404D01*
X045807Y024430D01*
X045820Y024454D01*
X045836Y024477D01*
X045855Y024496D01*
X045877Y024513D01*
X045901Y024527D01*
X045926Y024537D01*
X045953Y024544D01*
X045980Y024547D01*
X046008Y024546D01*
X046035Y024541D01*
X046061Y024533D01*
X046085Y024521D01*
X046108Y024505D01*
X046129Y024487D01*
X046146Y024466D01*
X046161Y024442D01*
X046172Y024417D01*
X046180Y024391D01*
X046184Y024364D01*
X046184Y024336D01*
X046180Y024309D01*
X046172Y024283D01*
X046161Y024258D01*
X046146Y024234D01*
X046129Y024213D01*
X046108Y024195D01*
X046086Y024179D01*
X046061Y024167D01*
X046035Y024159D01*
X046008Y024154D01*
X045980Y024153D01*
X045953Y024156D01*
X045926Y024163D01*
X045901Y024173D01*
X045877Y024187D01*
X045855Y024204D01*
X045836Y024223D01*
X045820Y024246D01*
X045807Y024270D01*
X045798Y024296D01*
X045792Y024323D01*
X045790Y024350D01*
X045790Y039350D02*
X045792Y039377D01*
X045798Y039404D01*
X045807Y039430D01*
X045820Y039454D01*
X045836Y039477D01*
X045855Y039496D01*
X045877Y039513D01*
X045901Y039527D01*
X045926Y039537D01*
X045953Y039544D01*
X045980Y039547D01*
X046008Y039546D01*
X046035Y039541D01*
X046061Y039533D01*
X046085Y039521D01*
X046108Y039505D01*
X046129Y039487D01*
X046146Y039466D01*
X046161Y039442D01*
X046172Y039417D01*
X046180Y039391D01*
X046184Y039364D01*
X046184Y039336D01*
X046180Y039309D01*
X046172Y039283D01*
X046161Y039258D01*
X046146Y039234D01*
X046129Y039213D01*
X046108Y039195D01*
X046086Y039179D01*
X046061Y039167D01*
X046035Y039159D01*
X046008Y039154D01*
X045980Y039153D01*
X045953Y039156D01*
X045926Y039163D01*
X045901Y039173D01*
X045877Y039187D01*
X045855Y039204D01*
X045836Y039223D01*
X045820Y039246D01*
X045807Y039270D01*
X045798Y039296D01*
X045792Y039323D01*
X045790Y039350D01*
X038290Y039350D02*
X038292Y039377D01*
X038298Y039404D01*
X038307Y039430D01*
X038320Y039454D01*
X038336Y039477D01*
X038355Y039496D01*
X038377Y039513D01*
X038401Y039527D01*
X038426Y039537D01*
X038453Y039544D01*
X038480Y039547D01*
X038508Y039546D01*
X038535Y039541D01*
X038561Y039533D01*
X038585Y039521D01*
X038608Y039505D01*
X038629Y039487D01*
X038646Y039466D01*
X038661Y039442D01*
X038672Y039417D01*
X038680Y039391D01*
X038684Y039364D01*
X038684Y039336D01*
X038680Y039309D01*
X038672Y039283D01*
X038661Y039258D01*
X038646Y039234D01*
X038629Y039213D01*
X038608Y039195D01*
X038586Y039179D01*
X038561Y039167D01*
X038535Y039159D01*
X038508Y039154D01*
X038480Y039153D01*
X038453Y039156D01*
X038426Y039163D01*
X038401Y039173D01*
X038377Y039187D01*
X038355Y039204D01*
X038336Y039223D01*
X038320Y039246D01*
X038307Y039270D01*
X038298Y039296D01*
X038292Y039323D01*
X038290Y039350D01*
X030790Y039350D02*
X030792Y039377D01*
X030798Y039404D01*
X030807Y039430D01*
X030820Y039454D01*
X030836Y039477D01*
X030855Y039496D01*
X030877Y039513D01*
X030901Y039527D01*
X030926Y039537D01*
X030953Y039544D01*
X030980Y039547D01*
X031008Y039546D01*
X031035Y039541D01*
X031061Y039533D01*
X031085Y039521D01*
X031108Y039505D01*
X031129Y039487D01*
X031146Y039466D01*
X031161Y039442D01*
X031172Y039417D01*
X031180Y039391D01*
X031184Y039364D01*
X031184Y039336D01*
X031180Y039309D01*
X031172Y039283D01*
X031161Y039258D01*
X031146Y039234D01*
X031129Y039213D01*
X031108Y039195D01*
X031086Y039179D01*
X031061Y039167D01*
X031035Y039159D01*
X031008Y039154D01*
X030980Y039153D01*
X030953Y039156D01*
X030926Y039163D01*
X030901Y039173D01*
X030877Y039187D01*
X030855Y039204D01*
X030836Y039223D01*
X030820Y039246D01*
X030807Y039270D01*
X030798Y039296D01*
X030792Y039323D01*
X030790Y039350D01*
X023290Y039350D02*
X023292Y039377D01*
X023298Y039404D01*
X023307Y039430D01*
X023320Y039454D01*
X023336Y039477D01*
X023355Y039496D01*
X023377Y039513D01*
X023401Y039527D01*
X023426Y039537D01*
X023453Y039544D01*
X023480Y039547D01*
X023508Y039546D01*
X023535Y039541D01*
X023561Y039533D01*
X023585Y039521D01*
X023608Y039505D01*
X023629Y039487D01*
X023646Y039466D01*
X023661Y039442D01*
X023672Y039417D01*
X023680Y039391D01*
X023684Y039364D01*
X023684Y039336D01*
X023680Y039309D01*
X023672Y039283D01*
X023661Y039258D01*
X023646Y039234D01*
X023629Y039213D01*
X023608Y039195D01*
X023586Y039179D01*
X023561Y039167D01*
X023535Y039159D01*
X023508Y039154D01*
X023480Y039153D01*
X023453Y039156D01*
X023426Y039163D01*
X023401Y039173D01*
X023377Y039187D01*
X023355Y039204D01*
X023336Y039223D01*
X023320Y039246D01*
X023307Y039270D01*
X023298Y039296D01*
X023292Y039323D01*
X023290Y039350D01*
X015790Y039350D02*
X015792Y039377D01*
X015798Y039404D01*
X015807Y039430D01*
X015820Y039454D01*
X015836Y039477D01*
X015855Y039496D01*
X015877Y039513D01*
X015901Y039527D01*
X015926Y039537D01*
X015953Y039544D01*
X015980Y039547D01*
X016008Y039546D01*
X016035Y039541D01*
X016061Y039533D01*
X016085Y039521D01*
X016108Y039505D01*
X016129Y039487D01*
X016146Y039466D01*
X016161Y039442D01*
X016172Y039417D01*
X016180Y039391D01*
X016184Y039364D01*
X016184Y039336D01*
X016180Y039309D01*
X016172Y039283D01*
X016161Y039258D01*
X016146Y039234D01*
X016129Y039213D01*
X016108Y039195D01*
X016086Y039179D01*
X016061Y039167D01*
X016035Y039159D01*
X016008Y039154D01*
X015980Y039153D01*
X015953Y039156D01*
X015926Y039163D01*
X015901Y039173D01*
X015877Y039187D01*
X015855Y039204D01*
X015836Y039223D01*
X015820Y039246D01*
X015807Y039270D01*
X015798Y039296D01*
X015792Y039323D01*
X015790Y039350D01*
X008290Y039350D02*
X008292Y039377D01*
X008298Y039404D01*
X008307Y039430D01*
X008320Y039454D01*
X008336Y039477D01*
X008355Y039496D01*
X008377Y039513D01*
X008401Y039527D01*
X008426Y039537D01*
X008453Y039544D01*
X008480Y039547D01*
X008508Y039546D01*
X008535Y039541D01*
X008561Y039533D01*
X008585Y039521D01*
X008608Y039505D01*
X008629Y039487D01*
X008646Y039466D01*
X008661Y039442D01*
X008672Y039417D01*
X008680Y039391D01*
X008684Y039364D01*
X008684Y039336D01*
X008680Y039309D01*
X008672Y039283D01*
X008661Y039258D01*
X008646Y039234D01*
X008629Y039213D01*
X008608Y039195D01*
X008586Y039179D01*
X008561Y039167D01*
X008535Y039159D01*
X008508Y039154D01*
X008480Y039153D01*
X008453Y039156D01*
X008426Y039163D01*
X008401Y039173D01*
X008377Y039187D01*
X008355Y039204D01*
X008336Y039223D01*
X008320Y039246D01*
X008307Y039270D01*
X008298Y039296D01*
X008292Y039323D01*
X008290Y039350D01*
X008290Y049850D02*
X008292Y049877D01*
X008298Y049904D01*
X008307Y049930D01*
X008320Y049954D01*
X008336Y049977D01*
X008355Y049996D01*
X008377Y050013D01*
X008401Y050027D01*
X008426Y050037D01*
X008453Y050044D01*
X008480Y050047D01*
X008508Y050046D01*
X008535Y050041D01*
X008561Y050033D01*
X008585Y050021D01*
X008608Y050005D01*
X008629Y049987D01*
X008646Y049966D01*
X008661Y049942D01*
X008672Y049917D01*
X008680Y049891D01*
X008684Y049864D01*
X008684Y049836D01*
X008680Y049809D01*
X008672Y049783D01*
X008661Y049758D01*
X008646Y049734D01*
X008629Y049713D01*
X008608Y049695D01*
X008586Y049679D01*
X008561Y049667D01*
X008535Y049659D01*
X008508Y049654D01*
X008480Y049653D01*
X008453Y049656D01*
X008426Y049663D01*
X008401Y049673D01*
X008377Y049687D01*
X008355Y049704D01*
X008336Y049723D01*
X008320Y049746D01*
X008307Y049770D01*
X008298Y049796D01*
X008292Y049823D01*
X008290Y049850D01*
X015790Y049850D02*
X015792Y049877D01*
X015798Y049904D01*
X015807Y049930D01*
X015820Y049954D01*
X015836Y049977D01*
X015855Y049996D01*
X015877Y050013D01*
X015901Y050027D01*
X015926Y050037D01*
X015953Y050044D01*
X015980Y050047D01*
X016008Y050046D01*
X016035Y050041D01*
X016061Y050033D01*
X016085Y050021D01*
X016108Y050005D01*
X016129Y049987D01*
X016146Y049966D01*
X016161Y049942D01*
X016172Y049917D01*
X016180Y049891D01*
X016184Y049864D01*
X016184Y049836D01*
X016180Y049809D01*
X016172Y049783D01*
X016161Y049758D01*
X016146Y049734D01*
X016129Y049713D01*
X016108Y049695D01*
X016086Y049679D01*
X016061Y049667D01*
X016035Y049659D01*
X016008Y049654D01*
X015980Y049653D01*
X015953Y049656D01*
X015926Y049663D01*
X015901Y049673D01*
X015877Y049687D01*
X015855Y049704D01*
X015836Y049723D01*
X015820Y049746D01*
X015807Y049770D01*
X015798Y049796D01*
X015792Y049823D01*
X015790Y049850D01*
X026290Y049850D02*
X026292Y049877D01*
X026298Y049904D01*
X026307Y049930D01*
X026320Y049954D01*
X026336Y049977D01*
X026355Y049996D01*
X026377Y050013D01*
X026401Y050027D01*
X026426Y050037D01*
X026453Y050044D01*
X026480Y050047D01*
X026508Y050046D01*
X026535Y050041D01*
X026561Y050033D01*
X026585Y050021D01*
X026608Y050005D01*
X026629Y049987D01*
X026646Y049966D01*
X026661Y049942D01*
X026672Y049917D01*
X026680Y049891D01*
X026684Y049864D01*
X026684Y049836D01*
X026680Y049809D01*
X026672Y049783D01*
X026661Y049758D01*
X026646Y049734D01*
X026629Y049713D01*
X026608Y049695D01*
X026586Y049679D01*
X026561Y049667D01*
X026535Y049659D01*
X026508Y049654D01*
X026480Y049653D01*
X026453Y049656D01*
X026426Y049663D01*
X026401Y049673D01*
X026377Y049687D01*
X026355Y049704D01*
X026336Y049723D01*
X026320Y049746D01*
X026307Y049770D01*
X026298Y049796D01*
X026292Y049823D01*
X026290Y049850D01*
X033790Y049850D02*
X033792Y049877D01*
X033798Y049904D01*
X033807Y049930D01*
X033820Y049954D01*
X033836Y049977D01*
X033855Y049996D01*
X033877Y050013D01*
X033901Y050027D01*
X033926Y050037D01*
X033953Y050044D01*
X033980Y050047D01*
X034008Y050046D01*
X034035Y050041D01*
X034061Y050033D01*
X034085Y050021D01*
X034108Y050005D01*
X034129Y049987D01*
X034146Y049966D01*
X034161Y049942D01*
X034172Y049917D01*
X034180Y049891D01*
X034184Y049864D01*
X034184Y049836D01*
X034180Y049809D01*
X034172Y049783D01*
X034161Y049758D01*
X034146Y049734D01*
X034129Y049713D01*
X034108Y049695D01*
X034086Y049679D01*
X034061Y049667D01*
X034035Y049659D01*
X034008Y049654D01*
X033980Y049653D01*
X033953Y049656D01*
X033926Y049663D01*
X033901Y049673D01*
X033877Y049687D01*
X033855Y049704D01*
X033836Y049723D01*
X033820Y049746D01*
X033807Y049770D01*
X033798Y049796D01*
X033792Y049823D01*
X033790Y049850D01*
X041290Y049850D02*
X041292Y049877D01*
X041298Y049904D01*
X041307Y049930D01*
X041320Y049954D01*
X041336Y049977D01*
X041355Y049996D01*
X041377Y050013D01*
X041401Y050027D01*
X041426Y050037D01*
X041453Y050044D01*
X041480Y050047D01*
X041508Y050046D01*
X041535Y050041D01*
X041561Y050033D01*
X041585Y050021D01*
X041608Y050005D01*
X041629Y049987D01*
X041646Y049966D01*
X041661Y049942D01*
X041672Y049917D01*
X041680Y049891D01*
X041684Y049864D01*
X041684Y049836D01*
X041680Y049809D01*
X041672Y049783D01*
X041661Y049758D01*
X041646Y049734D01*
X041629Y049713D01*
X041608Y049695D01*
X041586Y049679D01*
X041561Y049667D01*
X041535Y049659D01*
X041508Y049654D01*
X041480Y049653D01*
X041453Y049656D01*
X041426Y049663D01*
X041401Y049673D01*
X041377Y049687D01*
X041355Y049704D01*
X041336Y049723D01*
X041320Y049746D01*
X041307Y049770D01*
X041298Y049796D01*
X041292Y049823D01*
X041290Y049850D01*
X048790Y049850D02*
X048792Y049877D01*
X048798Y049904D01*
X048807Y049930D01*
X048820Y049954D01*
X048836Y049977D01*
X048855Y049996D01*
X048877Y050013D01*
X048901Y050027D01*
X048926Y050037D01*
X048953Y050044D01*
X048980Y050047D01*
X049008Y050046D01*
X049035Y050041D01*
X049061Y050033D01*
X049085Y050021D01*
X049108Y050005D01*
X049129Y049987D01*
X049146Y049966D01*
X049161Y049942D01*
X049172Y049917D01*
X049180Y049891D01*
X049184Y049864D01*
X049184Y049836D01*
X049180Y049809D01*
X049172Y049783D01*
X049161Y049758D01*
X049146Y049734D01*
X049129Y049713D01*
X049108Y049695D01*
X049086Y049679D01*
X049061Y049667D01*
X049035Y049659D01*
X049008Y049654D01*
X048980Y049653D01*
X048953Y049656D01*
X048926Y049663D01*
X048901Y049673D01*
X048877Y049687D01*
X048855Y049704D01*
X048836Y049723D01*
X048820Y049746D01*
X048807Y049770D01*
X048798Y049796D01*
X048792Y049823D01*
X048790Y049850D01*
X057040Y039350D02*
X057042Y039377D01*
X057048Y039404D01*
X057057Y039430D01*
X057070Y039454D01*
X057086Y039477D01*
X057105Y039496D01*
X057127Y039513D01*
X057151Y039527D01*
X057176Y039537D01*
X057203Y039544D01*
X057230Y039547D01*
X057258Y039546D01*
X057285Y039541D01*
X057311Y039533D01*
X057335Y039521D01*
X057358Y039505D01*
X057379Y039487D01*
X057396Y039466D01*
X057411Y039442D01*
X057422Y039417D01*
X057430Y039391D01*
X057434Y039364D01*
X057434Y039336D01*
X057430Y039309D01*
X057422Y039283D01*
X057411Y039258D01*
X057396Y039234D01*
X057379Y039213D01*
X057358Y039195D01*
X057336Y039179D01*
X057311Y039167D01*
X057285Y039159D01*
X057258Y039154D01*
X057230Y039153D01*
X057203Y039156D01*
X057176Y039163D01*
X057151Y039173D01*
X057127Y039187D01*
X057105Y039204D01*
X057086Y039223D01*
X057070Y039246D01*
X057057Y039270D01*
X057048Y039296D01*
X057042Y039323D01*
X057040Y039350D01*
X062790Y049850D02*
X062792Y049877D01*
X062798Y049904D01*
X062807Y049930D01*
X062820Y049954D01*
X062836Y049977D01*
X062855Y049996D01*
X062877Y050013D01*
X062901Y050027D01*
X062926Y050037D01*
X062953Y050044D01*
X062980Y050047D01*
X063008Y050046D01*
X063035Y050041D01*
X063061Y050033D01*
X063085Y050021D01*
X063108Y050005D01*
X063129Y049987D01*
X063146Y049966D01*
X063161Y049942D01*
X063172Y049917D01*
X063180Y049891D01*
X063184Y049864D01*
X063184Y049836D01*
X063180Y049809D01*
X063172Y049783D01*
X063161Y049758D01*
X063146Y049734D01*
X063129Y049713D01*
X063108Y049695D01*
X063086Y049679D01*
X063061Y049667D01*
X063035Y049659D01*
X063008Y049654D01*
X062980Y049653D01*
X062953Y049656D01*
X062926Y049663D01*
X062901Y049673D01*
X062877Y049687D01*
X062855Y049704D01*
X062836Y049723D01*
X062820Y049746D01*
X062807Y049770D01*
X062798Y049796D01*
X062792Y049823D01*
X062790Y049850D01*
M02*
