G75*
G70*
%OFA0B0*%
%FSLAX24Y24*%
%IPPOS*%
%LPD*%
%AMOC8*
5,1,8,0,0,1.08239X$1,22.5*
%
%ADD10C,0.0140*%
%ADD11C,0.1500*%
%ADD12C,0.1012*%
%ADD13C,0.0860*%
%ADD14C,0.1181*%
%ADD15R,0.0630X0.0460*%
%ADD16C,0.0320*%
%ADD17R,0.0460X0.0630*%
%ADD18R,0.0551X0.0709*%
%ADD19R,0.0709X0.0551*%
%ADD20R,0.0827X0.0827*%
%ADD21C,0.0827*%
%ADD22C,0.0827*%
%ADD23R,0.0591X0.0472*%
%ADD24R,0.0709X0.0472*%
%ADD25R,0.0591X0.0787*%
%ADD26R,0.0472X0.0591*%
%ADD27R,0.0591X0.0512*%
%ADD28R,0.0512X0.0591*%
%ADD29C,0.0515*%
%ADD30C,0.0500*%
%ADD31C,0.0400*%
%ADD32C,0.0240*%
%ADD33C,0.1969*%
%ADD34C,0.0787*%
%ADD35C,0.0560*%
%ADD36C,0.0160*%
%ADD37R,0.0906X0.0906*%
%ADD38C,0.0120*%
D10*
X018813Y007672D02*
X018813Y007799D01*
X018940Y007926D01*
X019320Y007926D01*
X019320Y007672D01*
X019193Y007545D01*
X018940Y007545D01*
X018813Y007672D01*
X019066Y008179D02*
X019320Y007926D01*
X019066Y008179D02*
X018813Y008306D01*
X019895Y008306D02*
X019895Y007545D01*
X019642Y007545D02*
X020149Y007545D01*
X020470Y007926D02*
X020977Y007926D01*
X021299Y008179D02*
X021806Y007672D01*
X021806Y007545D01*
X022128Y008179D02*
X022635Y007672D01*
X022635Y007545D01*
X022956Y007545D02*
X023464Y007545D01*
X023210Y007545D02*
X023210Y008306D01*
X023464Y008053D01*
X023785Y007545D02*
X024292Y007545D01*
X024039Y007545D02*
X024039Y008306D01*
X024292Y008053D01*
X022635Y008306D02*
X022128Y008306D01*
X022128Y008179D01*
X021806Y008306D02*
X021299Y008306D01*
X021299Y008179D01*
X020149Y008053D02*
X019895Y008306D01*
D11*
X016987Y011850D03*
X014987Y011850D03*
X014487Y010850D03*
X012487Y010850D03*
X015612Y018350D03*
X018112Y019350D03*
X023112Y018350D03*
X025612Y019350D03*
X030612Y018350D03*
X033112Y019350D03*
X038112Y018350D03*
X040612Y019350D03*
X045612Y018350D03*
X048112Y019350D03*
X045612Y025850D03*
X048112Y026850D03*
X045612Y033350D03*
X048112Y034350D03*
X053112Y033350D03*
X055612Y034350D03*
X060612Y033350D03*
X063112Y034350D03*
X060362Y026850D03*
X057862Y025850D03*
X056612Y019350D03*
X054112Y018350D03*
X056612Y011850D03*
X054112Y010850D03*
X047112Y011850D03*
X044612Y010850D03*
X038612Y011850D03*
X037550Y011850D03*
X036112Y010850D03*
X035050Y010850D03*
X030112Y011850D03*
X029175Y011850D03*
X027612Y010850D03*
X026675Y010850D03*
X023112Y025850D03*
X025612Y026850D03*
X030612Y025850D03*
X033112Y026850D03*
X038112Y025850D03*
X040612Y026850D03*
X038112Y033350D03*
X040612Y034350D03*
X038112Y040850D03*
X040612Y041850D03*
X045612Y040850D03*
X048112Y041850D03*
X056862Y040850D03*
X059362Y041850D03*
X062612Y051350D03*
X065112Y052350D03*
X051112Y052350D03*
X048612Y051350D03*
X043612Y052350D03*
X041112Y051350D03*
X036112Y052350D03*
X033612Y051350D03*
X028612Y052350D03*
X026112Y051350D03*
X018112Y052350D03*
X015612Y051350D03*
X010612Y052350D03*
X008112Y051350D03*
X010612Y041850D03*
X008112Y040850D03*
X010612Y034350D03*
X008112Y033350D03*
X010612Y026850D03*
X008112Y025850D03*
X010612Y019350D03*
X008112Y018350D03*
X015612Y025850D03*
X018112Y026850D03*
X015612Y033350D03*
X018112Y034350D03*
X023112Y033350D03*
X025612Y034350D03*
X030612Y033350D03*
X033112Y034350D03*
X030612Y040850D03*
X033112Y041850D03*
X025612Y041850D03*
X023112Y040850D03*
X018112Y041850D03*
X015612Y040850D03*
X062612Y018350D03*
X065112Y019350D03*
X065112Y011850D03*
X062612Y010850D03*
D12*
X061612Y012850D03*
X065612Y012850D03*
X065612Y020350D03*
X061612Y020350D03*
X057112Y020350D03*
X053112Y020350D03*
X048612Y020350D03*
X044612Y020350D03*
X041112Y020350D03*
X037112Y020350D03*
X033612Y020350D03*
X029612Y020350D03*
X026112Y020350D03*
X022112Y020350D03*
X018612Y020350D03*
X014612Y020350D03*
X011112Y020350D03*
X007112Y020350D03*
X007112Y027850D03*
X011112Y027850D03*
X014612Y027850D03*
X018612Y027850D03*
X022112Y027850D03*
X026112Y027850D03*
X029612Y027850D03*
X033612Y027850D03*
X037112Y027850D03*
X041112Y027850D03*
X044612Y027850D03*
X048612Y027850D03*
X048612Y035350D03*
X052112Y035350D03*
X056112Y035350D03*
X059612Y035350D03*
X063612Y035350D03*
X059862Y042850D03*
X055862Y042850D03*
X048612Y042850D03*
X044612Y042850D03*
X041112Y042850D03*
X037112Y042850D03*
X033612Y042850D03*
X029612Y042850D03*
X026112Y042850D03*
X022112Y042850D03*
X018612Y042850D03*
X014612Y042850D03*
X011112Y042850D03*
X007112Y042850D03*
X007112Y035350D03*
X011112Y035350D03*
X014612Y035350D03*
X018612Y035350D03*
X022112Y035350D03*
X026112Y035350D03*
X029612Y035350D03*
X033612Y035350D03*
X037112Y035350D03*
X041112Y035350D03*
X044612Y035350D03*
X056862Y027850D03*
X060862Y027850D03*
X057112Y012850D03*
X053112Y012850D03*
X047612Y012850D03*
X043612Y012850D03*
X039112Y012850D03*
X038050Y012850D03*
X035112Y012850D03*
X034050Y012850D03*
X030612Y012850D03*
X029675Y012850D03*
X026612Y012850D03*
X025675Y012850D03*
X017487Y012850D03*
X015487Y012850D03*
X013487Y012850D03*
X011487Y012850D03*
X011112Y053350D03*
X014612Y053350D03*
X018612Y053350D03*
X025112Y053350D03*
X029112Y053350D03*
X032612Y053350D03*
X036612Y053350D03*
X040112Y053350D03*
X044112Y053350D03*
X047612Y053350D03*
X051612Y053350D03*
X061612Y053350D03*
X065612Y053350D03*
X007112Y053350D03*
D13*
X007612Y054920D02*
X007612Y055780D01*
X008612Y055780D02*
X008612Y054920D01*
X009612Y054920D02*
X009612Y055780D01*
X010612Y055780D02*
X010612Y054920D01*
X015112Y054920D02*
X015112Y055780D01*
X016112Y055780D02*
X016112Y054920D01*
X017112Y054920D02*
X017112Y055780D01*
X018112Y055780D02*
X018112Y054920D01*
X025612Y054920D02*
X025612Y055780D01*
X026612Y055780D02*
X026612Y054920D01*
X027612Y054920D02*
X027612Y055780D01*
X028612Y055780D02*
X028612Y054920D01*
X033112Y054920D02*
X033112Y055780D01*
X034112Y055780D02*
X034112Y054920D01*
X035112Y054920D02*
X035112Y055780D01*
X036112Y055780D02*
X036112Y054920D01*
X040612Y054920D02*
X040612Y055780D01*
X041612Y055780D02*
X041612Y054920D01*
X042612Y054920D02*
X042612Y055780D01*
X043612Y055780D02*
X043612Y054920D01*
X048112Y054920D02*
X048112Y055780D01*
X049112Y055780D02*
X049112Y054920D01*
X050112Y054920D02*
X050112Y055780D01*
X051112Y055780D02*
X051112Y054920D01*
X048112Y045280D02*
X048112Y044420D01*
X047112Y044420D02*
X047112Y045280D01*
X046112Y045280D02*
X046112Y044420D01*
X045112Y044420D02*
X045112Y045280D01*
X040612Y045280D02*
X040612Y044420D01*
X039612Y044420D02*
X039612Y045280D01*
X038612Y045280D02*
X038612Y044420D01*
X037612Y044420D02*
X037612Y045280D01*
X033112Y045280D02*
X033112Y044420D01*
X032112Y044420D02*
X032112Y045280D01*
X031112Y045280D02*
X031112Y044420D01*
X030112Y044420D02*
X030112Y045280D01*
X025612Y045280D02*
X025612Y044420D01*
X024612Y044420D02*
X024612Y045280D01*
X023612Y045280D02*
X023612Y044420D01*
X022612Y044420D02*
X022612Y045280D01*
X018112Y045280D02*
X018112Y044420D01*
X017112Y044420D02*
X017112Y045280D01*
X016112Y045280D02*
X016112Y044420D01*
X015112Y044420D02*
X015112Y045280D01*
X010612Y045280D02*
X010612Y044420D01*
X009612Y044420D02*
X009612Y045280D01*
X008612Y045280D02*
X008612Y044420D01*
X007612Y044420D02*
X007612Y045280D01*
X007612Y037780D02*
X007612Y036920D01*
X008612Y036920D02*
X008612Y037780D01*
X009612Y037780D02*
X009612Y036920D01*
X010612Y036920D02*
X010612Y037780D01*
X015112Y037780D02*
X015112Y036920D01*
X016112Y036920D02*
X016112Y037780D01*
X017112Y037780D02*
X017112Y036920D01*
X018112Y036920D02*
X018112Y037780D01*
X022612Y037780D02*
X022612Y036920D01*
X023612Y036920D02*
X023612Y037780D01*
X024612Y037780D02*
X024612Y036920D01*
X025612Y036920D02*
X025612Y037780D01*
X030112Y037780D02*
X030112Y036920D01*
X031112Y036920D02*
X031112Y037780D01*
X032112Y037780D02*
X032112Y036920D01*
X033112Y036920D02*
X033112Y037780D01*
X037612Y037780D02*
X037612Y036920D01*
X038612Y036920D02*
X038612Y037780D01*
X039612Y037780D02*
X039612Y036920D01*
X040612Y036920D02*
X040612Y037780D01*
X045112Y037780D02*
X045112Y036920D01*
X046112Y036920D02*
X046112Y037780D01*
X047112Y037780D02*
X047112Y036920D01*
X048112Y036920D02*
X048112Y037780D01*
X052612Y037780D02*
X052612Y036920D01*
X053612Y036920D02*
X053612Y037780D01*
X054612Y037780D02*
X054612Y036920D01*
X055612Y036920D02*
X055612Y037780D01*
X060112Y037780D02*
X060112Y036920D01*
X061112Y036920D02*
X061112Y037780D01*
X062112Y037780D02*
X062112Y036920D01*
X063112Y036920D02*
X063112Y037780D01*
X059362Y044420D02*
X059362Y045280D01*
X058362Y045280D02*
X058362Y044420D01*
X057362Y044420D02*
X057362Y045280D01*
X056362Y045280D02*
X056362Y044420D01*
X062112Y054920D02*
X062112Y055780D01*
X063112Y055780D02*
X063112Y054920D01*
X064112Y054920D02*
X064112Y055780D01*
X065112Y055780D02*
X065112Y054920D01*
X060362Y030280D02*
X060362Y029420D01*
X059362Y029420D02*
X059362Y030280D01*
X058362Y030280D02*
X058362Y029420D01*
X057362Y029420D02*
X057362Y030280D01*
X056612Y022780D02*
X056612Y021920D01*
X055612Y021920D02*
X055612Y022780D01*
X054612Y022780D02*
X054612Y021920D01*
X053612Y021920D02*
X053612Y022780D01*
X048112Y022780D02*
X048112Y021920D01*
X047112Y021920D02*
X047112Y022780D01*
X046112Y022780D02*
X046112Y021920D01*
X045112Y021920D02*
X045112Y022780D01*
X040612Y022780D02*
X040612Y021920D01*
X039612Y021920D02*
X039612Y022780D01*
X038612Y022780D02*
X038612Y021920D01*
X037612Y021920D02*
X037612Y022780D01*
X033112Y022780D02*
X033112Y021920D01*
X032112Y021920D02*
X032112Y022780D01*
X031112Y022780D02*
X031112Y021920D01*
X030112Y021920D02*
X030112Y022780D01*
X025612Y022780D02*
X025612Y021920D01*
X024612Y021920D02*
X024612Y022780D01*
X023612Y022780D02*
X023612Y021920D01*
X022612Y021920D02*
X022612Y022780D01*
X018112Y022780D02*
X018112Y021920D01*
X017112Y021920D02*
X017112Y022780D01*
X016112Y022780D02*
X016112Y021920D01*
X015112Y021920D02*
X015112Y022780D01*
X010612Y022780D02*
X010612Y021920D01*
X009612Y021920D02*
X009612Y022780D01*
X008612Y022780D02*
X008612Y021920D01*
X007612Y021920D02*
X007612Y022780D01*
X007612Y029420D02*
X007612Y030280D01*
X008612Y030280D02*
X008612Y029420D01*
X009612Y029420D02*
X009612Y030280D01*
X010612Y030280D02*
X010612Y029420D01*
X015112Y029420D02*
X015112Y030280D01*
X016112Y030280D02*
X016112Y029420D01*
X017112Y029420D02*
X017112Y030280D01*
X018112Y030280D02*
X018112Y029420D01*
X022612Y029420D02*
X022612Y030280D01*
X023612Y030280D02*
X023612Y029420D01*
X024612Y029420D02*
X024612Y030280D01*
X025612Y030280D02*
X025612Y029420D01*
X030112Y029420D02*
X030112Y030280D01*
X031112Y030280D02*
X031112Y029420D01*
X032112Y029420D02*
X032112Y030280D01*
X033112Y030280D02*
X033112Y029420D01*
X037612Y029420D02*
X037612Y030280D01*
X038612Y030280D02*
X038612Y029420D01*
X039612Y029420D02*
X039612Y030280D01*
X040612Y030280D02*
X040612Y029420D01*
X045112Y029420D02*
X045112Y030280D01*
X046112Y030280D02*
X046112Y029420D01*
X047112Y029420D02*
X047112Y030280D01*
X048112Y030280D02*
X048112Y029420D01*
X047112Y015280D02*
X047112Y014420D01*
X046112Y014420D02*
X046112Y015280D01*
X045112Y015280D02*
X045112Y014420D01*
X044112Y014420D02*
X044112Y015280D01*
X038612Y015280D02*
X038612Y014420D01*
X037612Y014420D02*
X037612Y015280D01*
X036612Y015280D02*
X036612Y014420D01*
X035612Y014420D02*
X035612Y015280D01*
X030112Y015280D02*
X030112Y014420D01*
X029112Y014420D02*
X029112Y015280D01*
X028112Y015280D02*
X028112Y014420D01*
X027112Y014420D02*
X027112Y015280D01*
X014987Y015280D02*
X014987Y014420D01*
X013987Y014420D02*
X013987Y015280D01*
X012987Y015280D02*
X012987Y014420D01*
X011987Y014420D02*
X011987Y015280D01*
X053612Y015280D02*
X053612Y014420D01*
X054612Y014420D02*
X054612Y015280D01*
X055612Y015280D02*
X055612Y014420D01*
X056612Y014420D02*
X056612Y015280D01*
X062112Y015280D02*
X062112Y014420D01*
X063112Y014420D02*
X063112Y015280D01*
X064112Y015280D02*
X064112Y014420D01*
X065112Y014420D02*
X065112Y015280D01*
X065112Y021920D02*
X065112Y022780D01*
X064112Y022780D02*
X064112Y021920D01*
X063112Y021920D02*
X063112Y022780D01*
X062112Y022780D02*
X062112Y021920D01*
D14*
X063612Y020350D03*
X063612Y012850D03*
X055112Y012850D03*
X055112Y020350D03*
X058862Y027850D03*
X061612Y035350D03*
X057862Y042850D03*
X054112Y035350D03*
X046612Y035350D03*
X046612Y042850D03*
X039112Y042850D03*
X039112Y035350D03*
X039112Y027850D03*
X039112Y020350D03*
X031612Y020350D03*
X031612Y027850D03*
X031612Y035350D03*
X031612Y042850D03*
X024112Y042850D03*
X024112Y035350D03*
X024112Y027850D03*
X024112Y020350D03*
X028612Y012850D03*
X037112Y012850D03*
X045612Y012850D03*
X046612Y020350D03*
X046612Y027850D03*
X049612Y053350D03*
X042112Y053350D03*
X034612Y053350D03*
X027112Y053350D03*
X016612Y053350D03*
X009112Y053350D03*
X009112Y042850D03*
X009112Y035350D03*
X009112Y027850D03*
X009112Y020350D03*
X016612Y020350D03*
X016612Y027850D03*
X016612Y035350D03*
X016612Y042850D03*
X013487Y012850D03*
X063612Y053350D03*
D15*
X065112Y051150D03*
X065112Y050550D03*
X052737Y052925D03*
X052737Y053525D03*
X042862Y051400D03*
X042862Y050800D03*
X047112Y041150D03*
X047112Y040550D03*
X036612Y026525D03*
X036612Y025925D03*
X032862Y018150D03*
X032862Y017550D03*
X031737Y017400D03*
X031737Y016800D03*
X031737Y012900D03*
X031737Y012300D03*
X024487Y018050D03*
X024487Y018650D03*
X021612Y032925D03*
X021612Y033525D03*
X017237Y033400D03*
X017237Y032800D03*
X010612Y032550D03*
X010612Y033150D03*
X010175Y040050D03*
X010175Y040650D03*
X009487Y050675D03*
X009487Y051275D03*
X012862Y053425D03*
X012862Y054025D03*
X019737Y053800D03*
X019737Y054400D03*
X010612Y025650D03*
X010612Y025050D03*
X009737Y018150D03*
X009737Y017550D03*
X049675Y019675D03*
X049675Y020275D03*
X056612Y024925D03*
X056612Y025525D03*
X059487Y025775D03*
X059487Y025175D03*
X064175Y018400D03*
X064175Y017800D03*
X064112Y010900D03*
X064112Y010300D03*
X056800Y017488D03*
X056800Y018088D03*
X062925Y032550D03*
X062925Y033150D03*
D16*
X062925Y032550D01*
X059537Y034288D02*
X058937Y034288D01*
X055037Y032975D02*
X054437Y032975D01*
X052162Y034350D02*
X051562Y034350D01*
X050287Y034725D02*
X049687Y034725D01*
X049710Y033725D02*
X048282Y032850D01*
X047407Y031975D01*
X047237Y031225D01*
X044827Y031225D01*
X044362Y030760D01*
X045157Y031975D02*
X043812Y033320D01*
X043812Y034100D02*
X044412Y034100D01*
X042412Y034350D02*
X041812Y034350D01*
X045157Y031975D02*
X046068Y031975D01*
X047407Y031975D02*
X048032Y031431D01*
X049312Y026850D02*
X049912Y026850D01*
X044412Y026850D02*
X043812Y026850D01*
X042412Y026850D02*
X041812Y026850D01*
X036612Y026525D02*
X036612Y025925D01*
X034912Y026850D02*
X034312Y026850D01*
X029412Y026600D02*
X028812Y026600D01*
X025787Y025475D02*
X025187Y025475D01*
X022037Y026600D02*
X021437Y026600D01*
X020412Y028100D02*
X019812Y028100D01*
X021612Y032925D02*
X021612Y033525D01*
X017237Y033400D02*
X017237Y032800D01*
X014350Y034225D02*
X013750Y034225D01*
X010612Y033150D02*
X010612Y032550D01*
X006912Y033350D02*
X006312Y033350D01*
X010175Y040050D02*
X010175Y040650D01*
X006912Y040850D02*
X006312Y040850D01*
X006312Y045225D02*
X005987Y045725D01*
X005987Y050900D01*
X006312Y051350D01*
X006912Y051350D01*
X009487Y051275D02*
X009487Y050675D01*
X012862Y053425D02*
X012862Y054025D01*
X019737Y053800D02*
X019737Y054400D01*
X024312Y052225D02*
X024312Y051525D01*
X025237Y050350D01*
X025237Y049600D01*
X024912Y052225D02*
X024312Y052225D01*
X029312Y051350D02*
X029912Y051350D01*
X030037Y053506D01*
X029568Y054475D01*
X030907Y054475D02*
X030862Y055145D01*
X031862Y055520D01*
X031862Y054181D02*
X031737Y053300D01*
X032062Y052100D01*
X032662Y052100D01*
X037312Y052350D02*
X037912Y052350D01*
X039312Y051350D02*
X039912Y051350D01*
X042862Y051400D02*
X042862Y050800D01*
X044032Y049850D02*
X044487Y051225D01*
X044987Y051725D01*
X046612Y051725D01*
X048362Y049975D01*
X048362Y049556D01*
X049812Y051100D02*
X050412Y051100D01*
X052737Y052925D02*
X052737Y053525D01*
X052487Y054050D01*
X052237Y054431D01*
X060687Y052100D02*
X061287Y052100D01*
X065112Y051150D02*
X065112Y050550D01*
X060850Y040788D02*
X060250Y040788D01*
X055662Y040225D02*
X055062Y040225D01*
X047112Y040550D02*
X047112Y041150D01*
X044412Y041600D02*
X043812Y041600D01*
X042412Y041850D02*
X041812Y041850D01*
X037162Y041788D02*
X036562Y041788D01*
X035037Y041850D02*
X034437Y041850D01*
X030068Y039725D02*
X029237Y040600D01*
X027987Y041056D01*
X028812Y041725D02*
X029412Y041725D01*
X027787Y043100D02*
X027187Y043100D01*
X024912Y040600D02*
X024312Y040600D01*
X018287Y040600D02*
X017687Y040600D01*
X014600Y041725D02*
X014000Y041725D01*
X026812Y034350D02*
X027412Y034350D01*
X028812Y034100D02*
X029412Y034100D01*
X034312Y034350D02*
X034912Y034350D01*
X036312Y034100D02*
X036912Y034100D01*
X049675Y020275D02*
X049675Y019675D01*
X050925Y018350D02*
X052737Y016475D01*
X053037Y019225D02*
X052437Y019225D01*
X048657Y017975D02*
X047862Y016225D01*
X045737Y016225D01*
X046187Y017225D02*
X046787Y017225D01*
X042537Y019350D02*
X041937Y019350D01*
X039850Y018163D02*
X039250Y018163D01*
X039812Y011850D02*
X040412Y011850D01*
X042937Y011725D02*
X043537Y011725D01*
X048312Y011850D02*
X048912Y011850D01*
X052562Y011100D02*
X053162Y011100D01*
X058437Y011850D02*
X059037Y011850D01*
X060937Y011600D02*
X061537Y011600D01*
X064112Y010900D02*
X064112Y010300D01*
X058175Y017475D02*
X056800Y017488D01*
X056800Y018088D01*
X060937Y019163D02*
X061537Y019163D01*
X064175Y018400D02*
X064175Y017800D01*
X059487Y025175D02*
X059487Y025775D01*
X056612Y025525D02*
X056612Y024925D01*
X034037Y011725D02*
X033437Y011725D01*
X031737Y012300D02*
X031737Y012900D01*
X031737Y016800D02*
X031737Y017400D01*
X032862Y017550D02*
X032862Y018150D01*
X025537Y011600D02*
X024937Y011600D01*
X024487Y018050D02*
X024487Y018650D01*
X021787Y019225D02*
X021187Y019225D01*
X019912Y019225D02*
X019312Y019225D01*
X017537Y017975D02*
X016937Y017975D01*
X011287Y010850D02*
X010687Y010850D01*
X015812Y010475D02*
X016412Y010475D01*
X009737Y017550D02*
X009737Y018150D01*
X006912Y018350D02*
X006312Y018350D01*
X010612Y025050D02*
X010612Y025650D01*
X013812Y026600D02*
X014412Y026600D01*
X006912Y025850D02*
X006312Y025850D01*
D17*
X006312Y025850D03*
X006912Y025850D03*
X013812Y026600D03*
X014412Y026600D03*
X019812Y028100D03*
X020412Y028100D03*
X021437Y026600D03*
X022037Y026600D03*
X025187Y025475D03*
X025787Y025475D03*
X028812Y026600D03*
X029412Y026600D03*
X034312Y026850D03*
X034912Y026850D03*
X036312Y034100D03*
X036912Y034100D03*
X034912Y034350D03*
X034312Y034350D03*
X029412Y034100D03*
X028812Y034100D03*
X027412Y034350D03*
X026812Y034350D03*
X024912Y040600D03*
X024312Y040600D03*
X027187Y043100D03*
X027787Y043100D03*
X028812Y041725D03*
X029412Y041725D03*
X034437Y041850D03*
X035037Y041850D03*
X036562Y041788D03*
X037162Y041788D03*
X041812Y041850D03*
X042412Y041850D03*
X043812Y041600D03*
X044412Y041600D03*
X049687Y034725D03*
X050287Y034725D03*
X051562Y034350D03*
X052162Y034350D03*
X054437Y032975D03*
X055037Y032975D03*
X058937Y034288D03*
X059537Y034288D03*
X055662Y040225D03*
X055062Y040225D03*
X060250Y040788D03*
X060850Y040788D03*
X060687Y052100D03*
X061287Y052100D03*
X050412Y051100D03*
X049812Y051100D03*
X039912Y051350D03*
X039312Y051350D03*
X037912Y052350D03*
X037312Y052350D03*
X032662Y052100D03*
X032062Y052100D03*
X029912Y051350D03*
X029312Y051350D03*
X024912Y052225D03*
X024312Y052225D03*
X014600Y041725D03*
X014000Y041725D03*
X017687Y040600D03*
X018287Y040600D03*
X014350Y034225D03*
X013750Y034225D03*
X006912Y033350D03*
X006312Y033350D03*
X006312Y040850D03*
X006912Y040850D03*
X006912Y051350D03*
X006312Y051350D03*
X019312Y019225D03*
X019912Y019225D03*
X021187Y019225D03*
X021787Y019225D03*
X017537Y017975D03*
X016937Y017975D03*
X011287Y010850D03*
X010687Y010850D03*
X015812Y010475D03*
X016412Y010475D03*
X024937Y011600D03*
X025537Y011600D03*
X033437Y011725D03*
X034037Y011725D03*
X039812Y011850D03*
X040412Y011850D03*
X042937Y011725D03*
X043537Y011725D03*
X048312Y011850D03*
X048912Y011850D03*
X052562Y011100D03*
X053162Y011100D03*
X058437Y011850D03*
X059037Y011850D03*
X060937Y011600D03*
X061537Y011600D03*
X061537Y019163D03*
X060937Y019163D03*
X053037Y019225D03*
X052437Y019225D03*
X046787Y017225D03*
X046187Y017225D03*
X042537Y019350D03*
X041937Y019350D03*
X039850Y018163D03*
X039250Y018163D03*
X041812Y026850D03*
X042412Y026850D03*
X043812Y026850D03*
X044412Y026850D03*
X049312Y026850D03*
X049912Y026850D03*
X044412Y034100D03*
X043812Y034100D03*
X042412Y034350D03*
X041812Y034350D03*
X006912Y018350D03*
X006312Y018350D03*
D18*
X016193Y016975D03*
X017532Y016975D03*
X017568Y010475D03*
X018907Y010475D03*
X023568Y010663D03*
X024907Y010663D03*
X029568Y016850D03*
X030907Y016850D03*
X031443Y011225D03*
X032782Y011225D03*
G36*
X045015Y025071D02*
X045404Y024682D01*
X044905Y024183D01*
X044516Y024572D01*
X045015Y025071D01*
G37*
G36*
X044069Y026018D02*
X044458Y025629D01*
X043959Y025130D01*
X043570Y025519D01*
X044069Y026018D01*
G37*
X049193Y028975D03*
X050532Y028975D03*
X047407Y031975D03*
X046068Y031975D03*
X039532Y031850D03*
X038193Y031850D03*
X038532Y039350D03*
X037193Y039350D03*
X042693Y049850D03*
X044032Y049850D03*
X049380Y043850D03*
X050719Y043850D03*
X057193Y035100D03*
X058532Y035100D03*
X055407Y031975D03*
X054068Y031975D03*
X048657Y017975D03*
X047318Y017975D03*
X050568Y011100D03*
X051907Y011100D03*
X064943Y010475D03*
X066282Y010475D03*
X061282Y054725D03*
X059943Y054725D03*
X030907Y054475D03*
X029568Y054475D03*
G36*
X018954Y050066D02*
X019343Y050455D01*
X019842Y049956D01*
X019453Y049567D01*
X018954Y050066D01*
G37*
G36*
X018007Y049120D02*
X018396Y049509D01*
X018895Y049010D01*
X018506Y048621D01*
X018007Y049120D01*
G37*
G36*
X018503Y048432D02*
X018778Y048908D01*
X019391Y048554D01*
X019116Y048078D01*
X018503Y048432D01*
G37*
G36*
X017834Y047272D02*
X018109Y047748D01*
X018722Y047394D01*
X018447Y046918D01*
X017834Y047272D01*
G37*
X014032Y037100D03*
X012693Y037100D03*
X014818Y031725D03*
X016157Y031725D03*
G36*
X022319Y032643D02*
X022708Y032254D01*
X022209Y031755D01*
X021820Y032144D01*
X022319Y032643D01*
G37*
G36*
X023265Y031696D02*
X023654Y031307D01*
X023155Y030808D01*
X022766Y031197D01*
X023265Y031696D01*
G37*
X018532Y024600D03*
X017193Y024600D03*
D19*
X020362Y025931D03*
X020362Y027270D03*
X024362Y025145D03*
X024362Y023806D03*
X018487Y018020D03*
X018487Y016681D03*
X023925Y015645D03*
X023925Y014306D03*
X037112Y023681D03*
X037112Y025020D03*
X035862Y028431D03*
X035862Y029770D03*
X035612Y035556D03*
X035612Y036895D03*
X034862Y043056D03*
X034862Y044395D03*
X027987Y042395D03*
X027987Y041056D03*
X018112Y032770D03*
X018112Y031431D03*
X016862Y038806D03*
X016862Y040145D03*
X019612Y055181D03*
X019612Y056520D03*
X031862Y055520D03*
X031862Y054181D03*
X043362Y043645D03*
X043362Y042306D03*
X052237Y054431D03*
X052237Y055770D03*
X051925Y022207D03*
X051925Y020869D03*
X060237Y020431D03*
X060237Y021770D03*
X041487Y011770D03*
X041487Y010431D03*
X039675Y015931D03*
X039675Y017270D03*
X010862Y016681D03*
X010862Y018020D03*
D20*
X020237Y046600D03*
X021237Y046600D03*
X022237Y046600D03*
X023237Y046600D03*
X024237Y046600D03*
X025237Y046600D03*
X026237Y046600D03*
X026237Y049600D03*
X025237Y049600D03*
X024237Y049600D03*
X023237Y049600D03*
X022237Y049600D03*
X021237Y049600D03*
X020237Y049600D03*
X016487Y047725D03*
X015487Y047725D03*
X014487Y047725D03*
X055987Y047475D03*
X055987Y048475D03*
X055987Y049475D03*
X055987Y050475D03*
X055987Y051475D03*
X055987Y052475D03*
X055987Y053475D03*
X055987Y054475D03*
X058987Y054475D03*
X058987Y053475D03*
X058987Y052475D03*
X058987Y051475D03*
X058987Y050475D03*
X058987Y049475D03*
X058987Y047475D03*
D21*
X058574Y048475D02*
X059401Y048475D01*
X013487Y048139D02*
X013487Y047312D01*
X012487Y047312D02*
X012487Y048139D01*
X011487Y048139D02*
X011487Y047312D01*
X010487Y047312D02*
X010487Y048139D01*
X009487Y048139D02*
X009487Y047312D01*
X008487Y047312D02*
X008487Y048139D01*
X007487Y048139D02*
X007487Y047312D01*
D22*
X017487Y047725D03*
D23*
X020272Y050600D03*
X020272Y051350D03*
X020272Y052100D03*
X021452Y052100D03*
X021452Y051350D03*
X021452Y050600D03*
X022522Y050600D03*
X023702Y050600D03*
X023452Y052100D03*
X022272Y052100D03*
X023647Y054350D03*
X024827Y054350D03*
X032647Y049225D03*
X032522Y048350D03*
X032397Y047475D03*
X032397Y046600D03*
X033577Y046600D03*
X033577Y047475D03*
X033702Y048350D03*
X033827Y049225D03*
X040272Y049225D03*
X040272Y048350D03*
X040272Y047475D03*
X041452Y047475D03*
X041452Y048350D03*
X041452Y049225D03*
X041772Y044475D03*
X042952Y044475D03*
X041077Y039725D03*
X039897Y039725D03*
X047272Y039350D03*
X048452Y039350D03*
X050147Y042225D03*
X051327Y042225D03*
X048952Y047475D03*
X049647Y047600D03*
X049647Y048475D03*
X048952Y048350D03*
X048952Y049225D03*
X049647Y049350D03*
X049647Y050225D03*
X050827Y050225D03*
X050827Y049350D03*
X050827Y048475D03*
X050827Y047600D03*
X047772Y047475D03*
X047772Y048350D03*
X047772Y049225D03*
X053522Y056600D03*
X054702Y056600D03*
X062522Y039600D03*
X063702Y039600D03*
X050890Y033725D03*
X049710Y033725D03*
X042952Y029350D03*
X041772Y029350D03*
X047522Y024850D03*
X048702Y024850D03*
X050335Y018913D03*
X051515Y018913D03*
X059022Y013850D03*
X060202Y013850D03*
X060140Y024100D03*
X058960Y024100D03*
X043140Y021100D03*
X041960Y021100D03*
G36*
X037611Y016830D02*
X037195Y017246D01*
X037529Y017580D01*
X037945Y017164D01*
X037611Y016830D01*
G37*
G36*
X038446Y015996D02*
X038030Y016412D01*
X038364Y016746D01*
X038780Y016330D01*
X038446Y015996D01*
G37*
X033702Y015100D03*
X032522Y015100D03*
X024202Y016850D03*
X023022Y016850D03*
X025022Y032350D03*
X026202Y032350D03*
X025452Y039725D03*
X024272Y039725D03*
D24*
X021577Y044600D03*
X020397Y044600D03*
X056835Y049475D03*
X058015Y049475D03*
D25*
X058015Y050475D03*
X056834Y050475D03*
D26*
X057362Y052885D03*
X058112Y052885D03*
X058112Y054066D03*
X057362Y054066D03*
X057487Y054885D03*
X057487Y056066D03*
X054112Y055816D03*
X054112Y054635D03*
X053237Y054510D03*
X053237Y055691D03*
X027862Y037191D03*
X027862Y036010D03*
X019487Y044385D03*
X019487Y045566D03*
X022862Y054323D03*
X022862Y055503D03*
X020862Y055941D03*
X020862Y054760D03*
X059237Y010941D03*
X059237Y009760D03*
D27*
X021737Y054601D03*
X021737Y055350D03*
D28*
X022363Y053600D03*
X023111Y053600D03*
X022236Y052850D03*
X021488Y052850D03*
X020986Y043850D03*
X020238Y043850D03*
X020361Y043100D03*
X019613Y043100D03*
D29*
X015487Y012850D03*
X027675Y012850D03*
X036050Y012850D03*
D30*
X046787Y017225D02*
X047318Y017975D01*
X047112Y011850D02*
X048312Y011850D01*
X056612Y011850D02*
X058437Y011850D01*
X059487Y025775D02*
X060362Y026850D01*
X055987Y047475D02*
X054862Y047475D01*
X053987Y047475D01*
X054862Y047475D02*
X054862Y049850D01*
X055487Y050475D01*
X055987Y050475D01*
X052737Y052925D02*
X052112Y052350D01*
X051112Y052350D01*
X026237Y047476D02*
X026237Y046600D01*
X018278Y047333D02*
X017487Y047725D01*
X019737Y054400D02*
X019612Y055181D01*
D31*
X019737Y053800D02*
X019737Y053100D01*
X018987Y052350D01*
X018112Y052350D01*
X019398Y050011D02*
X020237Y049600D01*
X018947Y048493D02*
X018451Y049065D01*
X020237Y046600D02*
X019487Y045566D01*
X018112Y041850D02*
X018287Y040600D01*
X015612Y040850D02*
X014600Y041725D01*
X010612Y041850D02*
X010175Y040650D01*
X008112Y040850D02*
X006912Y040850D01*
X006312Y040850D02*
X006312Y045225D01*
X006312Y045275D01*
X006312Y040850D02*
X006312Y033350D01*
X006312Y025850D01*
X006312Y018350D01*
X006312Y017525D01*
X006737Y017100D01*
X008237Y017100D01*
X009862Y016225D01*
X010687Y015400D01*
X010687Y010850D01*
X011287Y010850D02*
X012487Y010850D01*
X013862Y009475D01*
X014487Y010850D02*
X015812Y010475D01*
X016412Y010475D02*
X017568Y010475D01*
X018907Y010475D02*
X020487Y009475D01*
X022737Y009475D01*
X023612Y010350D01*
X024487Y009350D01*
X031032Y009350D01*
X031443Y009743D01*
X032782Y011225D02*
X033437Y011725D01*
X034037Y011725D02*
X035050Y010850D01*
X031737Y012300D02*
X030112Y011850D01*
X029175Y011850D01*
X027612Y010850D02*
X026675Y010850D01*
X025537Y011600D01*
X024937Y011600D02*
X024907Y010663D01*
X023925Y011395D02*
X023925Y014306D01*
X023925Y011395D02*
X023568Y010663D01*
X020487Y009475D02*
X020443Y009475D01*
X014987Y011850D02*
X014487Y010850D01*
X010862Y016681D02*
X010107Y017056D01*
X009737Y017550D01*
X009737Y018150D02*
X010612Y019350D01*
X008112Y018350D02*
X006912Y018350D01*
X006912Y025850D02*
X008112Y025850D01*
X010612Y025650D02*
X010612Y026850D01*
X014412Y026600D02*
X015612Y025850D01*
X018112Y026850D02*
X019237Y027100D01*
X019812Y028100D01*
X022037Y026600D02*
X023112Y025850D01*
X025612Y026850D02*
X025787Y025475D01*
X029412Y026600D02*
X030612Y025850D01*
X033112Y026850D02*
X034312Y026850D01*
X034912Y026850D02*
X035862Y028431D01*
X036612Y026525D02*
X037562Y026463D01*
X038112Y025850D01*
X037112Y025020D02*
X036612Y025925D01*
X040612Y026850D02*
X041812Y026850D01*
X042412Y026850D02*
X042412Y026275D01*
X040987Y024850D01*
X043265Y022066D02*
X044987Y023975D01*
X046647Y023975D01*
X047522Y024850D01*
X045612Y025850D02*
X044412Y026850D01*
X044960Y024627D02*
X044987Y023975D01*
X043265Y022066D02*
X043140Y021100D01*
X041937Y019350D02*
X040612Y019350D01*
X039850Y018163D02*
X039675Y017270D01*
X039250Y018163D02*
X038112Y018350D01*
X033112Y019350D02*
X032862Y018150D01*
X031737Y017400D02*
X030612Y018350D01*
X030907Y016850D02*
X031737Y016800D01*
X025612Y019350D02*
X024487Y018650D01*
X023112Y018350D02*
X021787Y019225D01*
X019312Y019225D02*
X018112Y019350D01*
X016937Y017975D02*
X015612Y018350D01*
X015612Y033350D02*
X014987Y034100D01*
X014350Y034225D01*
X017237Y033400D02*
X018112Y034350D01*
X021612Y033525D02*
X023112Y033350D01*
X025612Y034350D02*
X026812Y034350D01*
X027412Y034350D02*
X027400Y033894D01*
X027412Y034350D02*
X028812Y034100D01*
X029412Y034100D02*
X030612Y033350D01*
X033112Y034350D02*
X034312Y034350D01*
X034912Y034350D02*
X035612Y035556D01*
X036312Y034100D02*
X036312Y033150D01*
X037612Y031850D01*
X038193Y031850D01*
X038112Y033350D02*
X036912Y034100D01*
X040612Y034350D02*
X041812Y034350D01*
X042412Y034350D02*
X042412Y033650D01*
X041237Y032350D01*
X043812Y033320D02*
X043812Y034100D01*
X044412Y034100D02*
X045612Y033350D01*
X048112Y034350D02*
X049687Y034725D01*
X050287Y034725D02*
X050287Y036800D01*
X050287Y034725D02*
X051562Y034350D01*
X052162Y034350D02*
X053112Y033350D01*
X054437Y032975D02*
X054068Y031975D01*
X055037Y032975D02*
X055612Y034350D01*
X059537Y034288D02*
X060612Y033350D01*
X062925Y033150D02*
X063112Y034350D01*
X060250Y040788D02*
X059362Y041850D01*
X056862Y040850D02*
X055662Y040225D01*
X048362Y046225D02*
X048362Y047038D01*
X048952Y047475D02*
X049647Y047600D01*
X049647Y048475D02*
X048952Y048350D01*
X048952Y049225D02*
X049647Y049350D01*
X049647Y050225D02*
X048362Y049975D01*
X048612Y051350D02*
X049812Y051100D01*
X048362Y046225D02*
X044612Y046225D01*
X043362Y043645D01*
X043362Y042306D02*
X043612Y042050D01*
X043812Y041600D01*
X044412Y041600D02*
X045612Y040850D01*
X047112Y041150D02*
X048112Y041850D01*
X041812Y041850D02*
X040612Y041850D01*
X039897Y039725D02*
X038532Y039350D01*
X037193Y039350D02*
X036625Y040794D01*
X036562Y041788D01*
X037162Y041788D02*
X038112Y040850D01*
X035037Y041850D02*
X035037Y042675D01*
X034862Y043056D01*
X034437Y041850D02*
X033112Y041850D01*
X030612Y040850D02*
X029412Y041725D01*
X027987Y042395D02*
X027787Y043100D01*
X027187Y043100D02*
X026812Y042100D01*
X025612Y041850D01*
X024312Y040600D02*
X023112Y040850D01*
X027862Y036010D02*
X027412Y034350D01*
X042693Y049850D02*
X042862Y050800D01*
X042862Y051400D02*
X043612Y052350D01*
X041112Y051350D02*
X039912Y051350D01*
X039312Y051350D02*
X037912Y052350D01*
X037312Y052350D02*
X036112Y052350D01*
X030862Y051475D02*
X030862Y055145D01*
X028612Y052350D02*
X029312Y051350D01*
X026112Y051350D02*
X024912Y052225D01*
X022522Y050600D02*
X022147Y051225D01*
X021452Y051350D01*
X021452Y052100D02*
X022272Y052100D01*
X018487Y057100D02*
X014362Y057100D01*
X012862Y055600D01*
X012862Y054025D01*
X012862Y053425D02*
X015612Y051350D01*
X012862Y055600D02*
X011362Y057100D01*
X008112Y057100D01*
X006312Y056322D01*
X006312Y051350D01*
X006912Y051350D02*
X008112Y051350D01*
X009487Y051275D02*
X010612Y052350D01*
X010612Y034350D02*
X010612Y033150D01*
X008112Y033350D02*
X006912Y033350D01*
X038612Y011850D02*
X039812Y011850D01*
X043537Y011725D02*
X044612Y010850D01*
X046187Y017225D02*
X045612Y018350D01*
X048112Y019350D02*
X049675Y019675D01*
X050335Y018913D02*
X049657Y018475D01*
X048657Y017975D01*
X051515Y018913D02*
X054237Y016350D01*
X057022Y016350D01*
X056800Y018088D02*
X056612Y019350D01*
X054112Y018350D02*
X053037Y019225D01*
X052437Y019225D02*
X051925Y020869D01*
X056612Y025525D02*
X057862Y025850D01*
X060140Y024100D02*
X060237Y021770D01*
X060237Y020431D02*
X060937Y019163D01*
X061537Y019163D02*
X062612Y018350D01*
X064175Y018400D02*
X065112Y019350D01*
X066737Y013975D02*
X066737Y011556D01*
X066282Y010475D01*
X064943Y010475D02*
X064643Y010300D01*
X064112Y010300D01*
X064112Y010900D02*
X065112Y011850D01*
X062612Y010850D02*
X061537Y011600D01*
X060937Y011600D02*
X060687Y011850D01*
X059675Y011850D01*
X059612Y011913D01*
X059612Y013225D01*
X059675Y011850D02*
X059037Y011850D01*
X054112Y010850D02*
X053162Y011100D01*
X052562Y011100D02*
X051907Y011100D01*
X066487Y008850D02*
X067862Y010975D01*
X067862Y013975D01*
X050987Y026475D02*
X050782Y026681D01*
X050782Y028725D01*
X050532Y028975D01*
X049312Y026850D02*
X048112Y026850D01*
X044362Y030760D02*
X042952Y029350D01*
X055987Y049475D02*
X056835Y049475D01*
X056834Y050475D02*
X055987Y050475D01*
X055987Y051475D01*
X058015Y050475D02*
X058015Y049475D01*
X058015Y050475D02*
X058112Y052885D01*
X058112Y054066D02*
X058522Y054475D01*
X058987Y054475D01*
X058987Y055350D01*
X057487Y054885D02*
X057362Y054066D01*
X061287Y052100D02*
X062612Y051350D01*
X065112Y051150D02*
X065112Y052350D01*
D32*
X066487Y051225D02*
X065812Y050550D01*
X065112Y050550D01*
X066112Y049725D02*
X068612Y045225D01*
X068612Y041100D01*
X066800Y039288D01*
X066800Y032600D01*
X067237Y030350D01*
X067237Y023163D01*
X068050Y022225D01*
X068050Y018475D01*
X067237Y017663D01*
X067237Y015475D01*
X067862Y013975D01*
X066737Y013975D02*
X066612Y015100D01*
X066612Y017913D01*
X067425Y018850D01*
X067425Y021850D01*
X066612Y022788D01*
X066612Y030225D01*
X066175Y032850D01*
X066175Y039413D01*
X067987Y041225D01*
X067987Y045100D01*
X065862Y049100D01*
X061612Y049100D01*
X059612Y050475D01*
X058987Y050475D01*
X058987Y049475D02*
X059737Y049350D01*
X061112Y048350D01*
X065612Y048350D01*
X067362Y044975D01*
X067362Y041288D01*
X065550Y039538D01*
X065550Y033100D01*
X065987Y029975D01*
X065987Y022413D01*
X066675Y021600D01*
X066675Y019100D01*
X064425Y016475D01*
X061862Y016475D01*
X060702Y014316D01*
X060202Y013850D01*
X059612Y014413D02*
X058175Y015475D01*
X058175Y017475D01*
X058925Y018225D01*
X060800Y018225D01*
X061925Y017100D01*
X063475Y017100D01*
X064175Y017800D01*
X059612Y014413D02*
X059612Y013225D01*
X059022Y013850D02*
X058675Y013850D01*
X057550Y014975D01*
X057550Y015823D01*
X057022Y016350D01*
X058925Y018225D02*
X058925Y022225D01*
X059550Y022975D01*
X059550Y025113D01*
X059487Y025175D01*
X061236Y025175D01*
X061925Y025864D01*
X061925Y028100D01*
X061362Y028663D01*
X061362Y031163D01*
X062750Y032550D01*
X062925Y032550D01*
X063250Y032550D01*
X064362Y033600D01*
X064362Y037788D01*
X063112Y038975D01*
X063112Y040363D01*
X063050Y040425D01*
X061212Y040425D01*
X060850Y040788D01*
X060300Y039600D02*
X057862Y036475D01*
X057862Y034038D01*
X056112Y031975D01*
X056112Y031475D01*
X055612Y031100D01*
X053612Y031100D01*
X051452Y033135D01*
X050890Y033725D01*
X050287Y033150D02*
X050287Y034725D01*
X050287Y033150D02*
X049662Y033025D01*
X048737Y032350D01*
X048737Y031475D01*
X049912Y030300D01*
X049912Y026850D01*
X049787Y026275D01*
X048862Y025850D01*
X048362Y025600D01*
X048112Y025350D01*
X048112Y023975D01*
X049662Y022175D01*
X049662Y019975D01*
X049675Y020275D01*
X050500Y020275D01*
X050925Y019850D01*
X050925Y018350D01*
X051515Y018913D02*
X051515Y020010D01*
X051175Y020413D01*
X051175Y021832D01*
X051925Y022207D01*
X052862Y024100D02*
X050862Y025850D01*
X050237Y025850D01*
X048862Y025100D01*
X048702Y024850D01*
X050987Y026475D02*
X052912Y024925D01*
X056612Y024925D01*
X058960Y024100D02*
X052862Y024100D01*
X049193Y028975D02*
X049193Y030270D01*
X048032Y031431D01*
X043812Y026850D02*
X044014Y025574D01*
X042412Y026850D02*
X042362Y030350D01*
X041237Y031475D01*
X041237Y032350D01*
X040112Y031850D02*
X039532Y031850D01*
X039032Y031100D01*
X037112Y031100D01*
X035862Y029850D01*
X035862Y029770D01*
X034943Y029770D01*
X032612Y032100D01*
X029987Y032100D01*
X028862Y033225D01*
X027612Y033225D01*
X026862Y032600D01*
X026202Y032350D01*
X026112Y033100D02*
X025612Y032975D01*
X025612Y031850D01*
X026362Y031350D01*
X028812Y028650D01*
X028812Y026600D01*
X028550Y025850D02*
X027300Y025850D01*
X027362Y029350D01*
X027237Y029475D01*
X026112Y030850D01*
X025210Y031252D01*
X023210Y031252D01*
X023112Y032100D02*
X024272Y032100D01*
X025022Y032350D01*
X026112Y033100D02*
X026607Y033100D01*
X027400Y033894D01*
X027237Y036600D02*
X028362Y036600D01*
X029862Y038850D01*
X033362Y038850D01*
X034818Y036895D01*
X035612Y036895D01*
X037318Y038600D01*
X038112Y038600D01*
X038532Y039350D01*
X040487Y039225D02*
X040487Y040225D01*
X041362Y040850D01*
X042287Y041400D01*
X042412Y041850D01*
X042362Y044850D01*
X041237Y046600D01*
X040987Y046850D01*
X040862Y046975D01*
X040862Y049975D01*
X040612Y050225D01*
X039987Y050225D01*
X039312Y050900D01*
X039312Y051350D01*
X041452Y049225D02*
X041987Y049225D01*
X042362Y048975D01*
X044237Y048975D01*
X045362Y047975D01*
X046237Y047975D01*
X047487Y049225D01*
X047772Y049225D01*
X048362Y049556D02*
X048362Y047038D01*
X047772Y047475D02*
X047147Y046850D01*
X044737Y046850D01*
X043612Y047850D01*
X042077Y047850D01*
X041452Y047475D01*
X040987Y046850D02*
X037362Y046850D01*
X037425Y046225D02*
X040862Y046225D01*
X041487Y045350D01*
X041772Y044475D01*
X042952Y044475D02*
X043362Y043645D01*
X043612Y040725D02*
X042237Y040725D01*
X041612Y040100D01*
X041077Y039725D01*
X040487Y039225D02*
X042412Y037050D01*
X042412Y034350D01*
X040112Y031850D02*
X041772Y030191D01*
X041772Y029350D01*
X040987Y024850D02*
X040987Y024288D01*
X042550Y021975D01*
X042550Y019425D01*
X042537Y019350D01*
X042537Y018963D01*
X040175Y016600D01*
X039237Y016600D01*
X038362Y017225D01*
X037487Y016350D01*
X037237Y016350D01*
X036737Y016850D01*
X036737Y017350D01*
X035612Y018475D01*
X033987Y018475D01*
X033437Y017550D01*
X032862Y017550D01*
X033162Y015425D01*
X033162Y014600D01*
X031737Y013925D01*
X031737Y012900D01*
X032675Y013475D02*
X032675Y012225D01*
X032112Y011600D01*
X032112Y010663D01*
X032362Y010413D01*
X033175Y010413D01*
X033487Y010100D01*
X035032Y009681D01*
X036568Y009681D01*
X037987Y010225D01*
X040282Y010225D01*
X041487Y010431D01*
X042112Y010431D01*
X045443Y008850D01*
X047282Y008850D01*
X050568Y011100D01*
X050568Y010645D01*
X051112Y010225D01*
X053112Y010225D01*
X054362Y009350D01*
X055112Y009350D01*
X056487Y010350D01*
X059487Y010350D01*
X062862Y008850D01*
X066487Y008850D01*
X065737Y009475D02*
X066157Y009895D01*
X066282Y010475D01*
X065737Y009475D02*
X062862Y009475D01*
X060397Y010691D01*
X059237Y010941D01*
X059237Y009760D02*
X056862Y009760D01*
X055327Y008725D01*
X054237Y008725D01*
X052862Y009600D01*
X050112Y009600D01*
X047862Y008225D01*
X045612Y008225D01*
X043362Y009350D01*
X042657Y009600D01*
X038112Y009600D01*
X036612Y008975D01*
X035487Y008975D01*
X032675Y009725D01*
X031736Y009743D01*
X031443Y009743D01*
X031443Y011225D01*
X032675Y013475D02*
X033737Y013975D01*
X033737Y015066D01*
X033702Y015100D01*
X032522Y015100D02*
X030612Y016100D01*
X029987Y016100D01*
X029568Y016850D01*
X028862Y018475D01*
X027112Y018475D01*
X025112Y016975D01*
X024862Y016225D01*
X024862Y015350D01*
X024362Y014975D01*
X019737Y014975D01*
X018487Y016225D01*
X018487Y016681D01*
X018282Y016225D01*
X015237Y016225D01*
X013443Y018020D01*
X010862Y018020D01*
X012362Y019975D02*
X015362Y016975D01*
X016193Y016975D01*
X017532Y016975D02*
X018112Y017350D01*
X018862Y017350D01*
X019737Y018350D01*
X021147Y018350D01*
X023022Y016850D01*
X023612Y016520D02*
X023612Y017225D01*
X024437Y018050D01*
X024487Y018050D01*
X024202Y016850D02*
X025952Y018225D01*
X026612Y018725D01*
X027987Y020100D01*
X027987Y022225D01*
X027112Y022225D01*
X025952Y023760D01*
X024362Y023806D01*
X024362Y025145D02*
X025187Y025475D01*
X026050Y024475D02*
X022487Y024475D01*
X022237Y024725D01*
X021282Y025556D01*
X020362Y025931D01*
X019693Y025806D01*
X018612Y024725D01*
X018532Y024600D01*
X018312Y025475D02*
X017862Y025475D01*
X017862Y023975D01*
X018737Y023225D01*
X021112Y021225D01*
X021112Y020100D01*
X021187Y019225D01*
X019912Y019225D01*
X018487Y018020D02*
X017537Y017975D01*
X012362Y019975D02*
X012362Y022350D01*
X010612Y024100D01*
X010612Y025050D01*
X012612Y026475D02*
X015112Y023975D01*
X016568Y023975D01*
X017193Y024600D01*
X016862Y025475D02*
X017862Y025475D01*
X018312Y025475D02*
X019862Y026650D01*
X020937Y026650D01*
X021437Y026600D01*
X020362Y027270D02*
X020412Y028100D01*
X020612Y029600D02*
X020157Y029600D01*
X018112Y031431D01*
X017907Y031520D01*
X017612Y031475D01*
X016487Y031475D01*
X016157Y031725D01*
X015487Y032100D02*
X015487Y031225D01*
X014675Y030975D01*
X014237Y030538D01*
X014237Y029100D01*
X013612Y028600D01*
X013612Y027350D01*
X013812Y027150D01*
X013812Y026600D01*
X013812Y026025D01*
X015237Y024600D01*
X015987Y024600D01*
X016862Y025475D01*
X020612Y029600D02*
X023112Y032100D01*
X022264Y032199D02*
X021612Y032925D01*
X018112Y032770D02*
X017237Y032800D01*
X015487Y032100D02*
X014800Y032600D01*
X013750Y033713D01*
X013750Y034225D01*
X013812Y034650D01*
X013362Y035225D01*
X013362Y037725D01*
X014362Y038850D01*
X014487Y039425D01*
X017937Y039425D01*
X018737Y039850D01*
X019237Y040350D01*
X019362Y041100D01*
X019362Y042225D01*
X019613Y043100D01*
X019487Y044385D01*
X020238Y043850D02*
X020361Y043100D01*
X020362Y042100D01*
X020737Y041100D02*
X022425Y039225D01*
X024862Y039225D01*
X024862Y040100D01*
X024912Y040600D01*
X026237Y040600D01*
X027487Y041725D01*
X028812Y041725D01*
X030068Y039725D02*
X031487Y039725D01*
X032362Y040600D01*
X034487Y040600D01*
X035862Y041350D01*
X035862Y042725D01*
X036737Y044475D01*
X036737Y045413D01*
X037425Y046225D01*
X035987Y048350D02*
X034737Y048350D01*
X034575Y048902D02*
X036123Y048902D01*
X036248Y049402D02*
X034362Y049413D01*
X033827Y049225D01*
X033237Y050225D02*
X030862Y051475D01*
X028487Y049663D02*
X027862Y049663D01*
X028487Y049663D02*
X030175Y048163D01*
X029925Y047725D02*
X028300Y049038D01*
X027925Y049038D01*
X027925Y048475D02*
X028175Y048475D01*
X029800Y047225D01*
X031550Y047225D01*
X032397Y047475D01*
X031612Y047725D02*
X029925Y047725D01*
X027237Y050600D02*
X026237Y049600D01*
X027237Y050600D02*
X027237Y051975D01*
X026112Y052600D01*
X025862Y053975D01*
X024827Y054350D01*
X024237Y054050D02*
X024237Y054975D01*
X023362Y054975D01*
X023112Y054913D01*
X022487Y054913D01*
X022237Y055350D01*
X021737Y055350D01*
X021237Y055350D01*
X020487Y055350D01*
X020112Y055850D01*
X019112Y055850D01*
X018487Y057100D01*
X019612Y056520D02*
X020032Y056520D01*
X020487Y056850D01*
X023193Y056850D01*
X024612Y058145D01*
X028782Y058145D01*
X028737Y057475D02*
X024987Y057475D01*
X023612Y056225D01*
X021612Y056225D01*
X021237Y055975D01*
X020862Y055941D01*
X020862Y054760D02*
X020487Y054225D01*
X020487Y053100D01*
X020862Y052850D01*
X021488Y052850D01*
X020862Y052850D02*
X020862Y050225D01*
X021237Y049600D01*
X021987Y050066D02*
X022237Y049600D01*
X021987Y050066D02*
X021452Y050600D01*
X022862Y051475D02*
X022862Y052725D01*
X023111Y053600D01*
X022862Y054323D01*
X023647Y054350D02*
X023737Y053225D01*
X023737Y052850D01*
X023452Y052100D01*
X022862Y051475D02*
X023112Y051225D01*
X023112Y050100D01*
X023237Y049600D01*
X024237Y049600D02*
X023702Y050600D01*
X024312Y052225D02*
X024237Y054050D01*
X023702Y055441D02*
X022862Y055503D01*
X023702Y055441D02*
X025362Y056850D01*
X028612Y056850D01*
X033068Y056600D02*
X036112Y056600D01*
X035987Y057225D02*
X033112Y057225D01*
X033237Y057850D02*
X035987Y057850D01*
X036068Y058520D02*
X033068Y058520D01*
X040612Y058395D02*
X040943Y058475D01*
X043737Y058475D01*
X043612Y057850D02*
X040737Y057850D01*
X040737Y057225D02*
X043612Y057225D01*
X043737Y056600D02*
X040612Y056600D01*
X041452Y048350D02*
X043987Y048350D01*
X045112Y047350D01*
X046487Y047350D01*
X047487Y048350D01*
X047772Y048350D01*
X048362Y046225D02*
X049380Y044832D01*
X049380Y043850D01*
X049662Y043150D02*
X050112Y043413D01*
X050112Y044725D01*
X049487Y045600D01*
X049487Y046600D01*
X050237Y047100D01*
X050237Y050350D01*
X050412Y051100D01*
X051979Y051100D01*
X053425Y052547D01*
X053800Y052163D02*
X051737Y050225D01*
X050827Y050225D01*
X050827Y049350D02*
X051612Y049350D01*
X054175Y051788D01*
X054550Y051413D02*
X051487Y048475D01*
X050827Y048475D01*
X050827Y047600D02*
X051362Y047600D01*
X054987Y051100D01*
X054987Y051913D02*
X055550Y052475D01*
X055987Y052475D01*
X055987Y053475D02*
X055300Y053475D01*
X054550Y052725D01*
X054175Y053663D02*
X055050Y054475D01*
X055987Y054475D01*
X056737Y054850D02*
X056487Y055225D01*
X053737Y055225D01*
X053487Y055100D01*
X052925Y055100D01*
X052675Y055350D01*
X052237Y055770D01*
X051737Y056770D01*
X048157Y056770D01*
X048112Y057350D02*
X052327Y057350D01*
X052827Y056350D01*
X053237Y055691D01*
X053522Y056600D02*
X052897Y057975D01*
X048237Y057975D01*
X048112Y057850D01*
X048068Y058520D02*
X053443Y058520D01*
X054112Y057100D01*
X054112Y055816D01*
X056772Y055816D01*
X057112Y055475D01*
X057987Y055475D01*
X058362Y056225D01*
X059987Y056225D01*
X060612Y055600D01*
X060612Y054350D01*
X060237Y053725D01*
X059862Y052725D01*
X058987Y052475D01*
X058987Y051475D02*
X059737Y051475D01*
X062237Y049725D01*
X066112Y049725D01*
X066487Y051225D02*
X066487Y055725D01*
X065112Y057100D01*
X059612Y057100D01*
X059237Y056725D01*
X057862Y056725D01*
X057487Y056066D01*
X056952Y056600D01*
X054702Y056600D01*
X054112Y054635D02*
X053800Y053975D01*
X053425Y054135D02*
X053237Y054510D01*
X056737Y054850D02*
X056737Y053475D01*
X058987Y053475D01*
X059612Y053663D01*
X059943Y054725D01*
X061157Y054270D02*
X060687Y053550D01*
X060687Y052100D01*
X061157Y054270D02*
X061282Y054725D01*
X057425Y052823D02*
X057362Y052885D01*
X057425Y052823D02*
X057425Y048600D01*
X057737Y048225D01*
X057737Y047100D01*
X058362Y046475D01*
X064487Y046475D01*
X065487Y044350D01*
X065487Y041725D01*
X064187Y040425D01*
X063050Y040425D01*
X062522Y039600D02*
X060300Y039600D01*
X063702Y039600D02*
X064202Y039600D01*
X066112Y041510D01*
X066112Y044475D01*
X064862Y047100D01*
X060487Y047100D01*
X058987Y047475D01*
X058987Y048475D02*
X060737Y047725D01*
X065222Y047741D01*
X066737Y044725D01*
X066737Y041413D01*
X064925Y039600D01*
X064925Y032788D01*
X063237Y031225D01*
X062532Y031225D01*
X061925Y030619D01*
X061925Y028975D01*
X062487Y028413D01*
X062487Y025073D01*
X061515Y024100D01*
X060140Y024100D01*
X055407Y031975D02*
X056987Y034056D01*
X056987Y035100D01*
X057193Y035100D01*
X056987Y035100D02*
X056987Y036100D01*
X056487Y036600D01*
X056487Y037850D01*
X055862Y038600D01*
X055231Y038984D01*
X054362Y038975D01*
X052612Y038975D01*
X050987Y040725D01*
X050147Y040725D01*
X050147Y042225D01*
X050719Y041806D02*
X050719Y043850D01*
X051327Y044198D02*
X051327Y042225D01*
X050800Y041725D02*
X050719Y041806D01*
X050800Y041725D02*
X051237Y041225D01*
X052862Y039538D01*
X054050Y039538D01*
X054737Y039850D01*
X055062Y040225D01*
X050147Y040725D02*
X049702Y040725D01*
X048452Y039350D01*
X048662Y038550D02*
X047862Y038600D01*
X047862Y040600D01*
X047162Y040600D01*
X047112Y040550D01*
X047862Y040600D02*
X048487Y040600D01*
X049300Y041413D01*
X049300Y042288D01*
X049662Y043150D01*
X051327Y044198D02*
X051407Y044203D01*
X051485Y044212D01*
X051564Y044224D01*
X051642Y044240D01*
X051719Y044260D01*
X051794Y044284D01*
X051869Y044311D01*
X051942Y044341D01*
X052014Y044376D01*
X052084Y044413D01*
X052152Y044454D01*
X052218Y044498D01*
X052282Y044546D01*
X052343Y044596D01*
X052403Y044649D01*
X052459Y044705D01*
X052513Y044763D01*
X052563Y044824D01*
X052611Y044888D01*
X052656Y044954D01*
X052697Y045021D01*
X052736Y045091D01*
X052770Y045162D01*
X052802Y045235D01*
X052830Y045310D01*
X052854Y045385D01*
X052874Y045462D01*
X052891Y045540D01*
X052904Y045618D01*
X052914Y045697D01*
X052919Y045776D01*
X052921Y045855D01*
X052919Y045935D01*
X052913Y046014D01*
X052903Y046093D01*
X052890Y046171D01*
X052873Y046249D01*
X052852Y046325D01*
X052827Y046401D01*
X052799Y046475D01*
X052800Y046475D02*
X056487Y046475D01*
X056862Y046850D01*
X056862Y048225D01*
X056612Y048475D01*
X055987Y048475D01*
X047272Y039350D02*
X044862Y039350D01*
X043612Y040725D01*
X048662Y038550D02*
X050287Y036800D01*
X058532Y035100D02*
X058937Y034288D01*
X043737Y018600D02*
X042987Y018600D01*
X040443Y016056D01*
X039675Y015931D01*
X038941Y016056D01*
X038405Y016371D01*
X037570Y017205D02*
X036362Y018538D01*
X036362Y019475D01*
X034737Y021100D01*
X034737Y022100D01*
X033155Y023808D01*
X029820Y023808D01*
X028612Y022225D01*
X027987Y022225D01*
X026050Y024475D02*
X027300Y025850D01*
X028550Y025850D02*
X029675Y024600D01*
X033112Y024600D01*
X034987Y022600D01*
X036112Y022600D01*
X037112Y023600D01*
X037112Y023681D01*
X037112Y023600D02*
X040782Y023600D01*
X041210Y023172D01*
X041960Y021100D01*
X043737Y018600D02*
X045737Y016225D01*
X048912Y014525D02*
X048912Y011850D01*
X048912Y011400D01*
X047112Y009600D01*
X044862Y009600D01*
X041862Y011100D01*
X040737Y011100D01*
X040412Y011850D01*
X041487Y011770D02*
X042937Y011725D01*
X038612Y011850D02*
X037550Y011850D01*
X036112Y010850D02*
X035050Y010850D01*
X023925Y015645D02*
X023612Y016520D01*
X018237Y011475D02*
X017862Y011850D01*
X016987Y011850D01*
X018237Y011475D02*
X018237Y009975D01*
X017737Y009475D01*
X013862Y009475D01*
X023568Y010663D02*
X023612Y010619D01*
X023612Y010350D01*
X012612Y026475D02*
X012612Y029100D01*
X010612Y031475D01*
X010612Y032550D01*
X012362Y034306D02*
X014050Y032538D01*
X014818Y031725D01*
X012362Y034306D02*
X012362Y035600D01*
X011487Y036475D01*
X011487Y037975D01*
X010175Y039288D01*
X010175Y040050D01*
X011050Y040038D02*
X011050Y039163D01*
X011987Y038163D01*
X012693Y037100D01*
X014032Y037100D02*
X014032Y037770D01*
X014987Y038725D01*
X016862Y038725D01*
X016862Y038806D01*
X016862Y038725D02*
X018487Y038725D01*
X018862Y038475D01*
X019987Y036975D01*
X020737Y036975D01*
X022193Y038681D01*
X026032Y038681D01*
X027237Y036600D01*
X027397Y037441D02*
X026362Y039225D01*
X025737Y039225D01*
X025452Y039725D01*
X024272Y039725D02*
X022612Y039725D01*
X021862Y040600D01*
X021362Y041725D01*
X021112Y043225D01*
X020986Y043850D01*
X020238Y043850D02*
X020397Y044600D01*
X020737Y045850D02*
X021237Y046600D01*
X020737Y041100D02*
X019362Y041100D01*
X017687Y040600D02*
X016862Y040145D01*
X014487Y039425D02*
X014000Y041725D01*
X012112Y040975D02*
X012112Y045100D01*
X010737Y046350D01*
X007112Y046350D01*
X006612Y046850D01*
X006612Y048725D01*
X007612Y049850D01*
X008662Y049850D01*
X009487Y050675D01*
X012112Y040975D02*
X011050Y040038D01*
X022236Y052850D02*
X022363Y053600D01*
X021362Y053725D01*
X021737Y054601D01*
X027397Y037441D02*
X027862Y037191D01*
X049362Y014975D02*
X048912Y014525D01*
X049362Y014975D02*
X051862Y014975D01*
X052737Y016475D01*
D33*
X006612Y007850D03*
X012862Y007850D03*
X016612Y007850D03*
X026362Y007850D03*
X033862Y007850D03*
X043362Y007850D03*
X052862Y007850D03*
X060737Y007850D03*
X068675Y007850D03*
X068675Y016600D03*
X068675Y024100D03*
X068675Y031600D03*
X068675Y039100D03*
X068675Y048100D03*
X068675Y058350D03*
X057300Y058350D03*
X045862Y058350D03*
X038362Y058350D03*
X030862Y058350D03*
X021862Y058350D03*
X012862Y058350D03*
X006612Y058350D03*
D34*
X012862Y051350D03*
X012862Y039100D03*
X012862Y031600D03*
X012862Y024100D03*
X012862Y016600D03*
X020362Y016600D03*
X027612Y016850D03*
X027862Y024100D03*
X020362Y024100D03*
X020362Y031600D03*
X020362Y039100D03*
X028237Y039225D03*
X028112Y046538D03*
X030800Y049725D03*
X035362Y046788D03*
X038362Y049663D03*
X042987Y046413D03*
X045800Y049725D03*
X051237Y045850D03*
X050362Y039100D03*
X042862Y039100D03*
X042862Y031600D03*
X042862Y024100D03*
X050362Y024100D03*
X050362Y016600D03*
X043237Y016600D03*
X035112Y016725D03*
X035300Y024600D03*
X035362Y031600D03*
X028237Y031600D03*
X035362Y039100D03*
X050737Y031600D03*
X057862Y031600D03*
X057675Y039038D03*
X059862Y016600D03*
D35*
X033612Y051350D02*
X032662Y052100D01*
D36*
X033237Y050225D02*
X033237Y048850D01*
X033112Y048725D01*
X033112Y047975D01*
X032987Y047850D01*
X032987Y046100D01*
X033612Y045850D01*
X034862Y044395D01*
X034737Y045225D02*
X036112Y045225D01*
X037362Y046850D01*
X037487Y047350D02*
X040147Y047350D01*
X040272Y047475D01*
X039800Y048163D02*
X040272Y048350D01*
X039800Y048163D02*
X039112Y047725D01*
X037675Y047725D01*
X036123Y048902D01*
X036248Y049402D02*
X037862Y048100D01*
X038862Y048100D01*
X039925Y048975D01*
X040272Y049225D01*
X037487Y047350D02*
X037237Y047475D01*
X035987Y048350D01*
X034737Y048350D02*
X034289Y047902D01*
X033577Y047475D01*
X033577Y046600D02*
X033925Y046100D01*
X034737Y045225D01*
X032397Y046600D02*
X031862Y046100D01*
X029737Y046100D01*
X028987Y044975D01*
X026987Y044975D01*
X026112Y045975D01*
X024612Y045975D01*
X024237Y046600D01*
X023862Y045975D01*
X022237Y045975D01*
X021862Y045600D01*
X021577Y044600D01*
X020987Y044225D02*
X020986Y043850D01*
X020987Y044225D02*
X020987Y044975D01*
X021112Y045225D01*
X022237Y046600D01*
X022737Y047350D02*
X023237Y046600D01*
X023362Y047413D02*
X024925Y047413D01*
X025237Y046600D01*
X026737Y048100D02*
X027925Y048475D01*
X027925Y049038D02*
X026612Y048475D01*
X019737Y048475D01*
X018487Y049725D01*
X018237Y049725D01*
X017237Y048850D01*
X016612Y048850D01*
X015487Y048225D01*
X015487Y047725D01*
X016487Y047725D02*
X016487Y048225D01*
X016862Y048475D01*
X017987Y048475D01*
X018362Y048038D01*
X018987Y047725D01*
X019487Y048100D01*
X026737Y048100D01*
X026550Y048850D02*
X027862Y049663D01*
X026550Y048850D02*
X019862Y048850D01*
X018550Y050163D01*
X018112Y050163D01*
X017050Y049225D01*
X016487Y049225D01*
X015612Y048850D01*
X014987Y048850D01*
X014487Y048475D01*
X014487Y047725D01*
X013487Y047725D02*
X013487Y047100D01*
X013862Y046725D01*
X018862Y046725D01*
X019487Y047725D01*
X022987Y047725D01*
X023362Y047413D01*
X022737Y047350D02*
X019737Y047350D01*
X019112Y046350D01*
X013112Y046350D01*
X012487Y046975D01*
X012487Y047725D01*
X011487Y047725D02*
X011487Y046850D01*
X012362Y045975D01*
X018737Y045975D01*
X018987Y044975D01*
X019862Y044975D01*
X020737Y045850D01*
X016925Y049725D02*
X017862Y050600D01*
X018612Y050600D01*
X019612Y050725D01*
X020272Y050600D01*
X020272Y051350D02*
X018647Y050975D01*
X017612Y050975D01*
X016675Y050100D01*
X016237Y050100D01*
X015362Y049725D01*
X014362Y049725D01*
X013862Y049350D01*
X010362Y049350D01*
X009487Y048475D01*
X009487Y047725D01*
X008487Y047725D02*
X008487Y048350D01*
X009925Y049788D01*
X013550Y049788D01*
X013987Y050100D01*
X015112Y050100D01*
X016112Y050475D01*
X016425Y050475D01*
X017300Y051350D01*
X018612Y051350D01*
X019737Y052100D01*
X020272Y052100D01*
X016925Y049725D02*
X016487Y049725D01*
X015612Y049350D01*
X014737Y049350D01*
X014175Y048913D01*
X010987Y048913D01*
X010487Y048475D01*
X010487Y047725D01*
X028612Y056850D02*
X029737Y056225D01*
X031612Y056225D01*
X033112Y057225D01*
X033068Y056600D02*
X032487Y056350D01*
X031862Y055520D01*
X031487Y056600D02*
X029987Y056600D01*
X028737Y057475D01*
X028782Y058145D02*
X030237Y056975D01*
X031362Y056975D01*
X033068Y058520D01*
X033237Y057850D02*
X031487Y056600D01*
X035987Y057225D02*
X037487Y056225D01*
X039237Y056225D01*
X040737Y057225D01*
X040737Y057850D02*
X039112Y056600D01*
X037612Y056600D01*
X035987Y057850D01*
X036068Y058520D02*
X037737Y056975D01*
X038987Y056975D01*
X040612Y058395D01*
X040612Y056600D02*
X039362Y055850D01*
X037237Y055850D01*
X036112Y056600D01*
X032647Y049225D02*
X031800Y048538D01*
X031237Y048163D01*
X030175Y048163D01*
X031612Y047725D02*
X032050Y048163D01*
X032522Y048350D01*
X033702Y048350D02*
X034575Y048902D01*
X043737Y056600D02*
X044737Y055850D01*
X046987Y055850D01*
X048157Y056770D01*
X048112Y057350D02*
X046737Y056225D01*
X044862Y056225D01*
X043612Y057225D01*
X043612Y057850D02*
X044987Y056600D01*
X046612Y056600D01*
X048112Y057850D01*
X048068Y058520D02*
X046362Y056975D01*
X045237Y056975D01*
X043737Y058475D01*
X053425Y054135D02*
X053425Y052547D01*
X053800Y052163D02*
X053800Y053975D01*
X054175Y053663D02*
X054175Y051788D01*
X054550Y051413D02*
X054550Y052725D01*
X054987Y051913D02*
X054987Y051100D01*
D37*
X053987Y047475D03*
X058987Y055350D03*
X026237Y047476D03*
X020362Y042100D03*
X021362Y053725D03*
D38*
X017925Y048100D02*
X017175Y048100D01*
X017175Y047350D01*
X017675Y047350D01*
X017925Y047850D01*
X017925Y048100D01*
X017925Y047988D02*
X017175Y047988D01*
X017175Y047869D02*
X017925Y047869D01*
X017875Y047751D02*
X017175Y047751D01*
X017175Y047632D02*
X017816Y047632D01*
X017756Y047514D02*
X017175Y047514D01*
X017175Y047395D02*
X017697Y047395D01*
X017675Y015663D02*
X015675Y015663D01*
X015675Y014100D01*
X017675Y014100D01*
X017675Y015663D01*
X017675Y015637D02*
X015675Y015637D01*
X015675Y015519D02*
X017675Y015519D01*
X017675Y015400D02*
X015675Y015400D01*
X015675Y015282D02*
X017675Y015282D01*
X017675Y015163D02*
X015675Y015163D01*
X015675Y015045D02*
X017675Y015045D01*
X017675Y014926D02*
X015675Y014926D01*
X015675Y014808D02*
X017675Y014808D01*
X017675Y014689D02*
X015675Y014689D01*
X015675Y014571D02*
X017675Y014571D01*
X017675Y014452D02*
X015675Y014452D01*
X015675Y014334D02*
X017675Y014334D01*
X017675Y014215D02*
X015675Y014215D01*
X018800Y014110D02*
X023300Y014110D01*
X023300Y013790D02*
X018800Y013790D01*
X018800Y013470D02*
X023300Y013470D01*
X023300Y013150D02*
X018800Y013150D01*
X018800Y012830D02*
X023300Y012830D01*
X023300Y012510D02*
X018800Y012510D01*
X018800Y012190D02*
X023300Y012190D01*
X023300Y011870D02*
X018800Y011870D01*
X018800Y011600D02*
X018800Y014600D01*
X023300Y014600D01*
X023300Y011350D01*
X022425Y010100D01*
X020675Y010100D01*
X018800Y011600D01*
X018862Y011550D02*
X023300Y011550D01*
X023255Y011286D02*
X023255Y014600D01*
X023300Y014430D02*
X018800Y014430D01*
X019095Y014600D02*
X019095Y011364D01*
X019262Y011230D02*
X023216Y011230D01*
X022992Y010910D02*
X019662Y010910D01*
X019735Y010852D02*
X019735Y014600D01*
X020055Y014600D02*
X020055Y010596D01*
X020062Y010590D02*
X022768Y010590D01*
X022615Y010372D02*
X022615Y014600D01*
X022935Y014600D02*
X022935Y010829D01*
X022544Y010270D02*
X020462Y010270D01*
X020375Y010340D02*
X020375Y014600D01*
X020695Y014600D02*
X020695Y010100D01*
X021015Y010100D02*
X021015Y014600D01*
X021335Y014600D02*
X021335Y010100D01*
X021655Y010100D02*
X021655Y014600D01*
X021975Y014600D02*
X021975Y010100D01*
X022295Y010100D02*
X022295Y014600D01*
X019415Y014600D02*
X019415Y011108D01*
X010050Y011475D02*
X009925Y011225D01*
X009925Y009850D01*
X003800Y009850D01*
X003800Y015975D01*
X008550Y015975D01*
X010050Y014850D01*
X010050Y011475D01*
X010050Y011550D02*
X003800Y011550D01*
X003800Y011230D02*
X009927Y011230D01*
X009925Y010910D02*
X003800Y010910D01*
X003800Y010590D02*
X009925Y010590D01*
X009925Y010270D02*
X003800Y010270D01*
X003800Y009950D02*
X009925Y009950D01*
X009815Y009850D02*
X009815Y015027D01*
X009756Y015070D02*
X003800Y015070D01*
X003800Y014750D02*
X010050Y014750D01*
X010050Y014430D02*
X003800Y014430D01*
X003800Y014110D02*
X010050Y014110D01*
X010050Y013790D02*
X003800Y013790D01*
X003800Y013470D02*
X010050Y013470D01*
X010050Y013150D02*
X003800Y013150D01*
X003800Y012830D02*
X010050Y012830D01*
X010050Y012510D02*
X003800Y012510D01*
X003800Y012190D02*
X010050Y012190D01*
X010050Y011870D02*
X003800Y011870D01*
X004055Y009850D02*
X004055Y015975D01*
X004375Y015975D02*
X004375Y009850D01*
X004695Y009850D02*
X004695Y015975D01*
X005015Y015975D02*
X005015Y009850D01*
X005335Y009850D02*
X005335Y015975D01*
X005655Y015975D02*
X005655Y009850D01*
X005975Y009850D02*
X005975Y015975D01*
X006295Y015975D02*
X006295Y009850D01*
X006615Y009850D02*
X006615Y015975D01*
X006935Y015975D02*
X006935Y009850D01*
X007255Y009850D02*
X007255Y015975D01*
X007575Y015975D02*
X007575Y009850D01*
X007895Y009850D02*
X007895Y015975D01*
X008215Y015975D02*
X008215Y009850D01*
X008535Y009850D02*
X008535Y015975D01*
X008855Y015747D02*
X008855Y009850D01*
X009175Y009850D02*
X009175Y015507D01*
X009330Y015390D02*
X003800Y015390D01*
X003800Y015710D02*
X008903Y015710D01*
X009495Y015267D02*
X009495Y009850D01*
X051425Y026975D02*
X051425Y030294D01*
X051616Y030392D01*
X051824Y030600D01*
X055925Y030600D01*
X055925Y025475D01*
X053300Y025475D01*
X051425Y026975D01*
X051506Y026910D02*
X055925Y026910D01*
X055925Y026590D02*
X051906Y026590D01*
X052055Y026471D02*
X052055Y030600D01*
X052375Y030600D02*
X052375Y026215D01*
X052306Y026270D02*
X055925Y026270D01*
X055925Y025950D02*
X052706Y025950D01*
X052695Y025959D02*
X052695Y030600D01*
X053015Y030600D02*
X053015Y025703D01*
X053106Y025630D02*
X055925Y025630D01*
X055895Y025475D02*
X055895Y030600D01*
X055925Y030430D02*
X051654Y030430D01*
X051616Y030392D02*
X051616Y030392D01*
X051735Y030511D02*
X051735Y026727D01*
X051425Y027230D02*
X055925Y027230D01*
X055925Y027550D02*
X051425Y027550D01*
X051425Y027870D02*
X055925Y027870D01*
X055925Y028190D02*
X051425Y028190D01*
X051425Y028510D02*
X055925Y028510D01*
X055925Y028830D02*
X051425Y028830D01*
X051425Y029150D02*
X055925Y029150D01*
X055925Y029470D02*
X051425Y029470D01*
X051425Y029790D02*
X055925Y029790D01*
X055925Y030110D02*
X051425Y030110D01*
X053335Y030600D02*
X053335Y025475D01*
X053655Y025475D02*
X053655Y030600D01*
X053975Y030600D02*
X053975Y025475D01*
X054295Y025475D02*
X054295Y030600D01*
X054615Y030600D02*
X054615Y025475D01*
X054935Y025475D02*
X054935Y030600D01*
X055255Y030600D02*
X055255Y025475D01*
X055575Y025475D02*
X055575Y030600D01*
X062925Y030600D02*
X062925Y024850D01*
X065425Y024850D01*
X065425Y030600D01*
X062925Y030600D01*
X062935Y030600D02*
X062935Y024850D01*
X062925Y024990D02*
X065425Y024990D01*
X065175Y024850D02*
X065175Y030600D01*
X065425Y030430D02*
X062925Y030430D01*
X062925Y030110D02*
X065425Y030110D01*
X065425Y029790D02*
X062925Y029790D01*
X062925Y029470D02*
X065425Y029470D01*
X065425Y029150D02*
X062925Y029150D01*
X062925Y028830D02*
X065425Y028830D01*
X065425Y028510D02*
X062925Y028510D01*
X062925Y028190D02*
X065425Y028190D01*
X065425Y027870D02*
X062925Y027870D01*
X062925Y027550D02*
X065425Y027550D01*
X065425Y027230D02*
X062925Y027230D01*
X062925Y026910D02*
X065425Y026910D01*
X065425Y026590D02*
X062925Y026590D01*
X062925Y026270D02*
X065425Y026270D01*
X065425Y025950D02*
X062925Y025950D01*
X062925Y025630D02*
X065425Y025630D01*
X065425Y025310D02*
X062925Y025310D01*
X063255Y024850D02*
X063255Y030600D01*
X063575Y030600D02*
X063575Y024850D01*
X063895Y024850D02*
X063895Y030600D01*
X064215Y030600D02*
X064215Y024850D01*
X064535Y024850D02*
X064535Y030600D01*
X064855Y030600D02*
X064855Y024850D01*
X053925Y040100D02*
X052925Y040100D01*
X052050Y041600D01*
X052050Y043725D01*
X053050Y044475D01*
X053425Y045975D01*
X055050Y045975D01*
X055050Y041350D01*
X053925Y040100D01*
X053975Y040156D02*
X053975Y045975D01*
X054295Y045975D02*
X054295Y040512D01*
X054438Y040670D02*
X052592Y040670D01*
X052695Y040495D02*
X052695Y044209D01*
X052670Y044190D02*
X055050Y044190D01*
X055050Y043870D02*
X052243Y043870D01*
X052375Y043969D02*
X052375Y041043D01*
X052406Y040990D02*
X054726Y040990D01*
X054615Y040867D02*
X054615Y045975D01*
X054935Y045975D02*
X054935Y041223D01*
X055014Y041310D02*
X052219Y041310D01*
X052055Y041592D02*
X052055Y043729D01*
X052050Y043550D02*
X055050Y043550D01*
X055050Y043230D02*
X052050Y043230D01*
X052050Y042910D02*
X055050Y042910D01*
X055050Y042590D02*
X052050Y042590D01*
X052050Y042270D02*
X055050Y042270D01*
X055050Y041950D02*
X052050Y041950D01*
X052050Y041630D02*
X055050Y041630D01*
X054150Y040350D02*
X052779Y040350D01*
X053015Y040100D02*
X053015Y044449D01*
X053058Y044510D02*
X055050Y044510D01*
X055050Y044830D02*
X053138Y044830D01*
X053218Y045150D02*
X055050Y045150D01*
X055050Y045470D02*
X053298Y045470D01*
X053335Y045615D02*
X053335Y040100D01*
X053655Y040100D02*
X053655Y045975D01*
X053378Y045790D02*
X055050Y045790D01*
X061050Y045790D02*
X064202Y045790D01*
X064215Y045764D02*
X064215Y041177D01*
X064334Y041310D02*
X061465Y041310D01*
X061335Y041440D02*
X061335Y045850D01*
X061050Y045850D02*
X064175Y045850D01*
X064925Y044225D01*
X064925Y041975D01*
X063925Y040850D01*
X061925Y040850D01*
X061050Y041725D01*
X061050Y045850D01*
X061050Y045470D02*
X064350Y045470D01*
X064498Y045150D02*
X061050Y045150D01*
X061050Y044830D02*
X064645Y044830D01*
X064535Y045070D02*
X064535Y041537D01*
X064618Y041630D02*
X061145Y041630D01*
X061050Y041950D02*
X064902Y041950D01*
X064855Y041897D02*
X064855Y044377D01*
X064793Y044510D02*
X061050Y044510D01*
X061050Y044190D02*
X064925Y044190D01*
X064925Y043870D02*
X061050Y043870D01*
X061050Y043550D02*
X064925Y043550D01*
X064925Y043230D02*
X061050Y043230D01*
X061050Y042910D02*
X064925Y042910D01*
X064925Y042590D02*
X061050Y042590D01*
X061050Y042270D02*
X064925Y042270D01*
X064049Y040990D02*
X061785Y040990D01*
X061655Y041120D02*
X061655Y045850D01*
X061975Y045850D02*
X061975Y040850D01*
X062295Y040850D02*
X062295Y045850D01*
X062615Y045850D02*
X062615Y040850D01*
X062935Y040850D02*
X062935Y045850D01*
X063255Y045850D02*
X063255Y040850D01*
X063575Y040850D02*
X063575Y045850D01*
X063895Y045850D02*
X063895Y040850D01*
M02*
