G75*
G70*
%OFA0B0*%
%FSLAX24Y24*%
%IPPOS*%
%LPD*%
%AMOC8*
5,1,8,0,0,1.08239X$1,22.5*
%
%ADD10C,0.0140*%
%ADD11C,0.1500*%
%ADD12C,0.1012*%
%ADD13C,0.0860*%
%ADD14C,0.1181*%
%ADD15R,0.0630X0.0460*%
%ADD16C,0.0320*%
%ADD17R,0.0460X0.0630*%
%ADD18R,0.0551X0.0709*%
%ADD19R,0.0709X0.0551*%
%ADD20R,0.0827X0.0827*%
%ADD21C,0.0827*%
%ADD22C,0.0827*%
%ADD23R,0.0591X0.0472*%
%ADD24R,0.0709X0.0472*%
%ADD25R,0.0591X0.0787*%
%ADD26R,0.0472X0.0591*%
%ADD27R,0.0591X0.0512*%
%ADD28R,0.0512X0.0591*%
%ADD29C,0.0500*%
%ADD30C,0.0400*%
%ADD31C,0.0240*%
%ADD32C,0.1969*%
%ADD33C,0.0787*%
%ADD34C,0.0560*%
%ADD35C,0.0160*%
%ADD36R,0.0906X0.0906*%
%ADD37C,0.0120*%
D10*
X018188Y004172D02*
X018188Y004299D01*
X018315Y004426D01*
X018695Y004426D01*
X018695Y004172D01*
X018568Y004045D01*
X018315Y004045D01*
X018188Y004172D01*
X018441Y004679D02*
X018695Y004426D01*
X018441Y004679D02*
X018188Y004806D01*
X019270Y004806D02*
X019270Y004045D01*
X019017Y004045D02*
X019524Y004045D01*
X019845Y004426D02*
X020352Y004426D01*
X020674Y004679D02*
X021181Y004172D01*
X021181Y004045D01*
X021503Y004679D02*
X022010Y004172D01*
X022010Y004045D01*
X022331Y004045D02*
X022839Y004045D01*
X022585Y004045D02*
X022585Y004806D01*
X022839Y004553D01*
X023160Y004045D02*
X023667Y004045D01*
X023414Y004045D02*
X023414Y004806D01*
X023667Y004553D01*
X022010Y004806D02*
X021503Y004806D01*
X021503Y004679D01*
X021181Y004806D02*
X020674Y004806D01*
X020674Y004679D01*
X019524Y004553D02*
X019270Y004806D01*
D11*
X016362Y008350D03*
X014362Y008350D03*
X013862Y007350D03*
X011862Y007350D03*
X014987Y014850D03*
X017487Y015850D03*
X022487Y014850D03*
X024987Y015850D03*
X029987Y014850D03*
X032487Y015850D03*
X037487Y014850D03*
X039987Y015850D03*
X044987Y014850D03*
X047487Y015850D03*
X053487Y014850D03*
X055987Y015850D03*
X061987Y014850D03*
X064487Y015850D03*
X057237Y022350D03*
X059737Y023350D03*
X059987Y029850D03*
X062487Y030850D03*
X054987Y030850D03*
X052487Y029850D03*
X047487Y030850D03*
X044987Y029850D03*
X039987Y030850D03*
X037487Y029850D03*
X032487Y030850D03*
X029987Y029850D03*
X024987Y030850D03*
X022487Y029850D03*
X017487Y030850D03*
X014987Y029850D03*
X009987Y030850D03*
X007487Y029850D03*
X009987Y023350D03*
X007487Y022350D03*
X009987Y015850D03*
X007487Y014850D03*
X014987Y022350D03*
X017487Y023350D03*
X022487Y022350D03*
X024987Y023350D03*
X029987Y022350D03*
X032487Y023350D03*
X037487Y022350D03*
X039987Y023350D03*
X044987Y022350D03*
X047487Y023350D03*
X044987Y037350D03*
X047487Y038350D03*
X039987Y038350D03*
X037487Y037350D03*
X032487Y038350D03*
X029987Y037350D03*
X024987Y038350D03*
X022487Y037350D03*
X017487Y038350D03*
X014987Y037350D03*
X009987Y038350D03*
X007487Y037350D03*
X007487Y047850D03*
X009987Y048850D03*
X014987Y047850D03*
X017487Y048850D03*
X025487Y047850D03*
X027987Y048850D03*
X032987Y047850D03*
X035487Y048850D03*
X040487Y047850D03*
X042987Y048850D03*
X047987Y047850D03*
X050487Y048850D03*
X061987Y047850D03*
X064487Y048850D03*
X058737Y038350D03*
X056237Y037350D03*
X055987Y008350D03*
X053487Y007350D03*
X046487Y008350D03*
X043987Y007350D03*
X037987Y008350D03*
X036925Y008350D03*
X035487Y007350D03*
X034425Y007350D03*
X029487Y008350D03*
X028550Y008350D03*
X026987Y007350D03*
X026050Y007350D03*
X061987Y007350D03*
X064487Y008350D03*
D12*
X064987Y009350D03*
X060987Y009350D03*
X056487Y009350D03*
X052487Y009350D03*
X046987Y009350D03*
X042987Y009350D03*
X038487Y009350D03*
X037425Y009350D03*
X034487Y009350D03*
X033425Y009350D03*
X029987Y009350D03*
X029050Y009350D03*
X025987Y009350D03*
X025050Y009350D03*
X016862Y009350D03*
X014862Y009350D03*
X012862Y009350D03*
X010862Y009350D03*
X010487Y016850D03*
X013987Y016850D03*
X017987Y016850D03*
X021487Y016850D03*
X025487Y016850D03*
X028987Y016850D03*
X032987Y016850D03*
X036487Y016850D03*
X040487Y016850D03*
X043987Y016850D03*
X047987Y016850D03*
X052487Y016850D03*
X056487Y016850D03*
X060987Y016850D03*
X064987Y016850D03*
X060237Y024350D03*
X056237Y024350D03*
X047987Y024350D03*
X043987Y024350D03*
X040487Y024350D03*
X036487Y024350D03*
X032987Y024350D03*
X028987Y024350D03*
X025487Y024350D03*
X021487Y024350D03*
X017987Y024350D03*
X013987Y024350D03*
X010487Y024350D03*
X006487Y024350D03*
X006487Y031850D03*
X010487Y031850D03*
X013987Y031850D03*
X017987Y031850D03*
X021487Y031850D03*
X025487Y031850D03*
X028987Y031850D03*
X032987Y031850D03*
X036487Y031850D03*
X040487Y031850D03*
X043987Y031850D03*
X047987Y031850D03*
X051487Y031850D03*
X055487Y031850D03*
X058987Y031850D03*
X062987Y031850D03*
X059237Y039350D03*
X055237Y039350D03*
X047987Y039350D03*
X043987Y039350D03*
X040487Y039350D03*
X036487Y039350D03*
X032987Y039350D03*
X028987Y039350D03*
X025487Y039350D03*
X021487Y039350D03*
X017987Y039350D03*
X013987Y039350D03*
X010487Y039350D03*
X006487Y039350D03*
X006487Y049850D03*
X010487Y049850D03*
X013987Y049850D03*
X017987Y049850D03*
X024487Y049850D03*
X028487Y049850D03*
X031987Y049850D03*
X035987Y049850D03*
X039487Y049850D03*
X043487Y049850D03*
X046987Y049850D03*
X050987Y049850D03*
X060987Y049850D03*
X064987Y049850D03*
X006487Y016850D03*
D13*
X006987Y018420D02*
X006987Y019280D01*
X007987Y019280D02*
X007987Y018420D01*
X008987Y018420D02*
X008987Y019280D01*
X009987Y019280D02*
X009987Y018420D01*
X014487Y018420D02*
X014487Y019280D01*
X015487Y019280D02*
X015487Y018420D01*
X016487Y018420D02*
X016487Y019280D01*
X017487Y019280D02*
X017487Y018420D01*
X021987Y018420D02*
X021987Y019280D01*
X022987Y019280D02*
X022987Y018420D01*
X023987Y018420D02*
X023987Y019280D01*
X024987Y019280D02*
X024987Y018420D01*
X029487Y018420D02*
X029487Y019280D01*
X030487Y019280D02*
X030487Y018420D01*
X031487Y018420D02*
X031487Y019280D01*
X032487Y019280D02*
X032487Y018420D01*
X036987Y018420D02*
X036987Y019280D01*
X037987Y019280D02*
X037987Y018420D01*
X038987Y018420D02*
X038987Y019280D01*
X039987Y019280D02*
X039987Y018420D01*
X044487Y018420D02*
X044487Y019280D01*
X045487Y019280D02*
X045487Y018420D01*
X046487Y018420D02*
X046487Y019280D01*
X047487Y019280D02*
X047487Y018420D01*
X052987Y018420D02*
X052987Y019280D01*
X053987Y019280D02*
X053987Y018420D01*
X054987Y018420D02*
X054987Y019280D01*
X055987Y019280D02*
X055987Y018420D01*
X061487Y018420D02*
X061487Y019280D01*
X062487Y019280D02*
X062487Y018420D01*
X063487Y018420D02*
X063487Y019280D01*
X064487Y019280D02*
X064487Y018420D01*
X064487Y011780D02*
X064487Y010920D01*
X063487Y010920D02*
X063487Y011780D01*
X062487Y011780D02*
X062487Y010920D01*
X061487Y010920D02*
X061487Y011780D01*
X055987Y011780D02*
X055987Y010920D01*
X054987Y010920D02*
X054987Y011780D01*
X053987Y011780D02*
X053987Y010920D01*
X052987Y010920D02*
X052987Y011780D01*
X046487Y011780D02*
X046487Y010920D01*
X045487Y010920D02*
X045487Y011780D01*
X044487Y011780D02*
X044487Y010920D01*
X043487Y010920D02*
X043487Y011780D01*
X037987Y011780D02*
X037987Y010920D01*
X036987Y010920D02*
X036987Y011780D01*
X035987Y011780D02*
X035987Y010920D01*
X034987Y010920D02*
X034987Y011780D01*
X029487Y011780D02*
X029487Y010920D01*
X028487Y010920D02*
X028487Y011780D01*
X027487Y011780D02*
X027487Y010920D01*
X026487Y010920D02*
X026487Y011780D01*
X014362Y011780D02*
X014362Y010920D01*
X013362Y010920D02*
X013362Y011780D01*
X012362Y011780D02*
X012362Y010920D01*
X011362Y010920D02*
X011362Y011780D01*
X009987Y025920D02*
X009987Y026780D01*
X008987Y026780D02*
X008987Y025920D01*
X007987Y025920D02*
X007987Y026780D01*
X006987Y026780D02*
X006987Y025920D01*
X014487Y025920D02*
X014487Y026780D01*
X015487Y026780D02*
X015487Y025920D01*
X016487Y025920D02*
X016487Y026780D01*
X017487Y026780D02*
X017487Y025920D01*
X021987Y025920D02*
X021987Y026780D01*
X022987Y026780D02*
X022987Y025920D01*
X023987Y025920D02*
X023987Y026780D01*
X024987Y026780D02*
X024987Y025920D01*
X029487Y025920D02*
X029487Y026780D01*
X030487Y026780D02*
X030487Y025920D01*
X031487Y025920D02*
X031487Y026780D01*
X032487Y026780D02*
X032487Y025920D01*
X036987Y025920D02*
X036987Y026780D01*
X037987Y026780D02*
X037987Y025920D01*
X038987Y025920D02*
X038987Y026780D01*
X039987Y026780D02*
X039987Y025920D01*
X044487Y025920D02*
X044487Y026780D01*
X045487Y026780D02*
X045487Y025920D01*
X046487Y025920D02*
X046487Y026780D01*
X047487Y026780D02*
X047487Y025920D01*
X047487Y033420D02*
X047487Y034280D01*
X046487Y034280D02*
X046487Y033420D01*
X045487Y033420D02*
X045487Y034280D01*
X044487Y034280D02*
X044487Y033420D01*
X039987Y033420D02*
X039987Y034280D01*
X038987Y034280D02*
X038987Y033420D01*
X037987Y033420D02*
X037987Y034280D01*
X036987Y034280D02*
X036987Y033420D01*
X032487Y033420D02*
X032487Y034280D01*
X031487Y034280D02*
X031487Y033420D01*
X030487Y033420D02*
X030487Y034280D01*
X029487Y034280D02*
X029487Y033420D01*
X024987Y033420D02*
X024987Y034280D01*
X023987Y034280D02*
X023987Y033420D01*
X022987Y033420D02*
X022987Y034280D01*
X021987Y034280D02*
X021987Y033420D01*
X017487Y033420D02*
X017487Y034280D01*
X016487Y034280D02*
X016487Y033420D01*
X015487Y033420D02*
X015487Y034280D01*
X014487Y034280D02*
X014487Y033420D01*
X009987Y033420D02*
X009987Y034280D01*
X008987Y034280D02*
X008987Y033420D01*
X007987Y033420D02*
X007987Y034280D01*
X006987Y034280D02*
X006987Y033420D01*
X006987Y040920D02*
X006987Y041780D01*
X007987Y041780D02*
X007987Y040920D01*
X008987Y040920D02*
X008987Y041780D01*
X009987Y041780D02*
X009987Y040920D01*
X014487Y040920D02*
X014487Y041780D01*
X015487Y041780D02*
X015487Y040920D01*
X016487Y040920D02*
X016487Y041780D01*
X017487Y041780D02*
X017487Y040920D01*
X021987Y040920D02*
X021987Y041780D01*
X022987Y041780D02*
X022987Y040920D01*
X023987Y040920D02*
X023987Y041780D01*
X024987Y041780D02*
X024987Y040920D01*
X029487Y040920D02*
X029487Y041780D01*
X030487Y041780D02*
X030487Y040920D01*
X031487Y040920D02*
X031487Y041780D01*
X032487Y041780D02*
X032487Y040920D01*
X036987Y040920D02*
X036987Y041780D01*
X037987Y041780D02*
X037987Y040920D01*
X038987Y040920D02*
X038987Y041780D01*
X039987Y041780D02*
X039987Y040920D01*
X044487Y040920D02*
X044487Y041780D01*
X045487Y041780D02*
X045487Y040920D01*
X046487Y040920D02*
X046487Y041780D01*
X047487Y041780D02*
X047487Y040920D01*
X051987Y034280D02*
X051987Y033420D01*
X052987Y033420D02*
X052987Y034280D01*
X053987Y034280D02*
X053987Y033420D01*
X054987Y033420D02*
X054987Y034280D01*
X059487Y034280D02*
X059487Y033420D01*
X060487Y033420D02*
X060487Y034280D01*
X061487Y034280D02*
X061487Y033420D01*
X062487Y033420D02*
X062487Y034280D01*
X058737Y040920D02*
X058737Y041780D01*
X057737Y041780D02*
X057737Y040920D01*
X056737Y040920D02*
X056737Y041780D01*
X055737Y041780D02*
X055737Y040920D01*
X050487Y051420D02*
X050487Y052280D01*
X049487Y052280D02*
X049487Y051420D01*
X048487Y051420D02*
X048487Y052280D01*
X047487Y052280D02*
X047487Y051420D01*
X042987Y051420D02*
X042987Y052280D01*
X041987Y052280D02*
X041987Y051420D01*
X040987Y051420D02*
X040987Y052280D01*
X039987Y052280D02*
X039987Y051420D01*
X035487Y051420D02*
X035487Y052280D01*
X034487Y052280D02*
X034487Y051420D01*
X033487Y051420D02*
X033487Y052280D01*
X032487Y052280D02*
X032487Y051420D01*
X027987Y051420D02*
X027987Y052280D01*
X026987Y052280D02*
X026987Y051420D01*
X025987Y051420D02*
X025987Y052280D01*
X024987Y052280D02*
X024987Y051420D01*
X017487Y051420D02*
X017487Y052280D01*
X016487Y052280D02*
X016487Y051420D01*
X015487Y051420D02*
X015487Y052280D01*
X014487Y052280D02*
X014487Y051420D01*
X009987Y051420D02*
X009987Y052280D01*
X008987Y052280D02*
X008987Y051420D01*
X007987Y051420D02*
X007987Y052280D01*
X006987Y052280D02*
X006987Y051420D01*
X056737Y026780D02*
X056737Y025920D01*
X057737Y025920D02*
X057737Y026780D01*
X058737Y026780D02*
X058737Y025920D01*
X059737Y025920D02*
X059737Y026780D01*
X061487Y051420D02*
X061487Y052280D01*
X062487Y052280D02*
X062487Y051420D01*
X063487Y051420D02*
X063487Y052280D01*
X064487Y052280D02*
X064487Y051420D01*
D14*
X062987Y049850D03*
X057237Y039350D03*
X053487Y031850D03*
X060987Y031850D03*
X058237Y024350D03*
X054487Y016850D03*
X045987Y016850D03*
X038487Y016850D03*
X030987Y016850D03*
X023487Y016850D03*
X015987Y016850D03*
X008487Y016850D03*
X012862Y009350D03*
X014862Y009350D03*
X027050Y009350D03*
X027987Y009350D03*
X035425Y009350D03*
X036487Y009350D03*
X044987Y009350D03*
X054487Y009350D03*
X062987Y009350D03*
X062987Y016850D03*
X045987Y024350D03*
X038487Y024350D03*
X030987Y024350D03*
X023487Y024350D03*
X015987Y024350D03*
X008487Y024350D03*
X008487Y031850D03*
X015987Y031850D03*
X023487Y031850D03*
X030987Y031850D03*
X038487Y031850D03*
X045987Y031850D03*
X045987Y039350D03*
X038487Y039350D03*
X030987Y039350D03*
X023487Y039350D03*
X015987Y039350D03*
X008487Y039350D03*
X008487Y049850D03*
X015987Y049850D03*
X026487Y049850D03*
X033987Y049850D03*
X041487Y049850D03*
X048987Y049850D03*
D15*
X052112Y050025D03*
X052112Y049425D03*
X042237Y047900D03*
X042237Y047300D03*
X046487Y037650D03*
X046487Y037050D03*
X062300Y029650D03*
X062300Y029050D03*
X058862Y022275D03*
X058862Y021675D03*
X055987Y021425D03*
X055987Y022025D03*
X049050Y016775D03*
X049050Y016175D03*
X056175Y014588D03*
X056175Y013988D03*
X063550Y014300D03*
X063550Y014900D03*
X063487Y007400D03*
X063487Y006800D03*
X035987Y022425D03*
X035987Y023025D03*
X032237Y014650D03*
X032237Y014050D03*
X031112Y013900D03*
X031112Y013300D03*
X031112Y009400D03*
X031112Y008800D03*
X023862Y014550D03*
X023862Y015150D03*
X009987Y021550D03*
X009987Y022150D03*
X009987Y029050D03*
X009987Y029650D03*
X016612Y029900D03*
X016612Y029300D03*
X020987Y029425D03*
X020987Y030025D03*
X009550Y036550D03*
X009550Y037150D03*
X008862Y047175D03*
X008862Y047775D03*
X012237Y049925D03*
X012237Y050525D03*
X019112Y050300D03*
X019112Y050900D03*
X009112Y014650D03*
X009112Y014050D03*
X064487Y047050D03*
X064487Y047650D03*
D16*
X064487Y047050D01*
X060662Y048600D02*
X060062Y048600D01*
X052112Y049425D02*
X052112Y050025D01*
X051862Y050550D01*
X051612Y050931D01*
X049787Y047600D02*
X049187Y047600D01*
X047737Y046475D02*
X045987Y048225D01*
X044362Y048225D01*
X043862Y047725D01*
X043407Y046350D01*
X042237Y047300D02*
X042237Y047900D01*
X039287Y047850D02*
X038687Y047850D01*
X037287Y048850D02*
X036687Y048850D01*
X032037Y048600D02*
X031437Y048600D01*
X031112Y049800D01*
X031237Y050681D01*
X030282Y050975D02*
X030237Y051645D01*
X031237Y052020D01*
X028943Y050975D02*
X029412Y050006D01*
X029287Y047850D01*
X028687Y047850D01*
X024612Y046850D02*
X024612Y046100D01*
X024612Y046850D02*
X023687Y048025D01*
X023687Y048725D01*
X024287Y048725D01*
X019112Y050300D02*
X019112Y050900D01*
X012237Y050525D02*
X012237Y049925D01*
X008862Y047775D02*
X008862Y047175D01*
X006287Y047850D02*
X005687Y047850D01*
X005362Y047400D01*
X005362Y042225D01*
X005687Y041725D01*
X005687Y037350D02*
X006287Y037350D01*
X009550Y037150D02*
X009550Y036550D01*
X013375Y038225D02*
X013975Y038225D01*
X017062Y037100D02*
X017662Y037100D01*
X023687Y037100D02*
X024287Y037100D01*
X027362Y037556D02*
X028612Y037100D01*
X029443Y036225D01*
X028787Y038225D02*
X028187Y038225D01*
X027162Y039600D02*
X026562Y039600D01*
X033812Y038350D02*
X034412Y038350D01*
X035937Y038288D02*
X036537Y038288D01*
X041187Y038350D02*
X041787Y038350D01*
X043187Y038100D02*
X043787Y038100D01*
X046487Y037650D02*
X046487Y037050D01*
X049062Y031225D02*
X049662Y031225D01*
X049085Y030225D02*
X047657Y029350D01*
X046782Y028475D01*
X046612Y027725D01*
X044202Y027725D01*
X043737Y027260D01*
X044532Y028475D02*
X043187Y029820D01*
X043187Y030600D02*
X043787Y030600D01*
X041787Y030850D02*
X041187Y030850D01*
X044532Y028475D02*
X045443Y028475D01*
X046782Y028475D02*
X047407Y027931D01*
X050937Y030850D02*
X051537Y030850D01*
X053812Y029475D02*
X054412Y029475D01*
X058312Y030788D02*
X058912Y030788D01*
X062300Y029650D02*
X062300Y029050D01*
X058862Y022275D02*
X058862Y021675D01*
X055987Y021425D02*
X055987Y022025D01*
X049287Y023350D02*
X048687Y023350D01*
X043787Y023350D02*
X043187Y023350D01*
X041787Y023350D02*
X041187Y023350D01*
X035987Y023025D02*
X035987Y022425D01*
X034287Y023350D02*
X033687Y023350D01*
X028787Y023100D02*
X028187Y023100D01*
X025162Y021975D02*
X024562Y021975D01*
X021412Y023100D02*
X020812Y023100D01*
X019787Y024600D02*
X019187Y024600D01*
X013787Y023100D02*
X013187Y023100D01*
X009987Y022150D02*
X009987Y021550D01*
X006287Y022350D02*
X005687Y022350D01*
X009987Y029050D02*
X009987Y029650D01*
X013125Y030725D02*
X013725Y030725D01*
X016612Y029900D02*
X016612Y029300D01*
X020987Y029425D02*
X020987Y030025D01*
X026187Y030850D02*
X026787Y030850D01*
X028187Y030600D02*
X028787Y030600D01*
X033687Y030850D02*
X034287Y030850D01*
X035687Y030600D02*
X036287Y030600D01*
X049050Y016775D02*
X049050Y016175D01*
X050300Y014850D02*
X052112Y012975D01*
X052412Y015725D02*
X051812Y015725D01*
X048032Y014475D02*
X047237Y012725D01*
X045112Y012725D01*
X045562Y013725D02*
X046162Y013725D01*
X041912Y015850D02*
X041312Y015850D01*
X039225Y014663D02*
X038625Y014663D01*
X032237Y014650D02*
X032237Y014050D01*
X031112Y013900D02*
X031112Y013300D01*
X031112Y009400D02*
X031112Y008800D01*
X032812Y008225D02*
X033412Y008225D01*
X039187Y008350D02*
X039787Y008350D01*
X042312Y008225D02*
X042912Y008225D01*
X047687Y008350D02*
X048287Y008350D01*
X051937Y007600D02*
X052537Y007600D01*
X057812Y008350D02*
X058412Y008350D01*
X060312Y008100D02*
X060912Y008100D01*
X063487Y007400D02*
X063487Y006800D01*
X057550Y013975D02*
X056175Y013988D01*
X056175Y014588D01*
X060312Y015663D02*
X060912Y015663D01*
X063550Y014900D02*
X063550Y014300D01*
X055037Y036725D02*
X054437Y036725D01*
X059625Y037288D02*
X060225Y037288D01*
X047737Y046056D02*
X047737Y046475D01*
X021162Y015725D02*
X020562Y015725D01*
X019287Y015725D02*
X018687Y015725D01*
X016912Y014475D02*
X016312Y014475D01*
X009112Y014650D02*
X009112Y014050D01*
X006287Y014850D02*
X005687Y014850D01*
X010062Y007350D02*
X010662Y007350D01*
X015187Y006975D02*
X015787Y006975D01*
X024312Y008100D02*
X024912Y008100D01*
X023862Y014550D02*
X023862Y015150D01*
X006287Y029850D02*
X005687Y029850D01*
D17*
X005687Y029850D03*
X006287Y029850D03*
X013125Y030725D03*
X013725Y030725D03*
X017062Y037100D03*
X017662Y037100D03*
X013975Y038225D03*
X013375Y038225D03*
X006287Y037350D03*
X005687Y037350D03*
X005687Y047850D03*
X006287Y047850D03*
X023687Y048725D03*
X024287Y048725D03*
X028687Y047850D03*
X029287Y047850D03*
X031437Y048600D03*
X032037Y048600D03*
X036687Y048850D03*
X037287Y048850D03*
X038687Y047850D03*
X039287Y047850D03*
X049187Y047600D03*
X049787Y047600D03*
X060062Y048600D03*
X060662Y048600D03*
X060225Y037288D03*
X059625Y037288D03*
X055037Y036725D03*
X054437Y036725D03*
X049662Y031225D03*
X049062Y031225D03*
X050937Y030850D03*
X051537Y030850D03*
X053812Y029475D03*
X054412Y029475D03*
X058312Y030788D03*
X058912Y030788D03*
X049287Y023350D03*
X048687Y023350D03*
X043787Y023350D03*
X043187Y023350D03*
X041787Y023350D03*
X041187Y023350D03*
X034287Y023350D03*
X033687Y023350D03*
X028787Y023100D03*
X028187Y023100D03*
X025162Y021975D03*
X024562Y021975D03*
X021412Y023100D03*
X020812Y023100D03*
X019787Y024600D03*
X019187Y024600D03*
X013787Y023100D03*
X013187Y023100D03*
X006287Y022350D03*
X005687Y022350D03*
X005687Y014850D03*
X006287Y014850D03*
X010062Y007350D03*
X010662Y007350D03*
X015187Y006975D03*
X015787Y006975D03*
X016312Y014475D03*
X016912Y014475D03*
X018687Y015725D03*
X019287Y015725D03*
X020562Y015725D03*
X021162Y015725D03*
X024312Y008100D03*
X024912Y008100D03*
X032812Y008225D03*
X033412Y008225D03*
X039187Y008350D03*
X039787Y008350D03*
X042312Y008225D03*
X042912Y008225D03*
X047687Y008350D03*
X048287Y008350D03*
X051937Y007600D03*
X052537Y007600D03*
X057812Y008350D03*
X058412Y008350D03*
X060312Y008100D03*
X060912Y008100D03*
X060912Y015663D03*
X060312Y015663D03*
X052412Y015725D03*
X051812Y015725D03*
X046162Y013725D03*
X045562Y013725D03*
X041912Y015850D03*
X041312Y015850D03*
X039225Y014663D03*
X038625Y014663D03*
X036287Y030600D03*
X035687Y030600D03*
X034287Y030850D03*
X033687Y030850D03*
X028787Y030600D03*
X028187Y030600D03*
X026787Y030850D03*
X026187Y030850D03*
X024287Y037100D03*
X023687Y037100D03*
X026562Y039600D03*
X027162Y039600D03*
X028187Y038225D03*
X028787Y038225D03*
X033812Y038350D03*
X034412Y038350D03*
X035937Y038288D03*
X036537Y038288D03*
X041187Y038350D03*
X041787Y038350D03*
X043187Y038100D03*
X043787Y038100D03*
X043787Y030600D03*
X043187Y030600D03*
X041787Y030850D03*
X041187Y030850D03*
D18*
X038907Y028350D03*
X037568Y028350D03*
X045443Y028475D03*
X046782Y028475D03*
X048568Y025475D03*
X049907Y025475D03*
X053443Y028475D03*
X054782Y028475D03*
X056568Y031600D03*
X057907Y031600D03*
X050094Y040350D03*
X048755Y040350D03*
X043407Y046350D03*
X042068Y046350D03*
X030282Y050975D03*
X028943Y050975D03*
G36*
X018329Y046566D02*
X018718Y046955D01*
X019217Y046456D01*
X018828Y046067D01*
X018329Y046566D01*
G37*
G36*
X017382Y045620D02*
X017771Y046009D01*
X018270Y045510D01*
X017881Y045121D01*
X017382Y045620D01*
G37*
G36*
X017878Y044932D02*
X018153Y045408D01*
X018766Y045054D01*
X018491Y044578D01*
X017878Y044932D01*
G37*
G36*
X017209Y043772D02*
X017484Y044248D01*
X018097Y043894D01*
X017822Y043418D01*
X017209Y043772D01*
G37*
X013407Y033600D03*
X012068Y033600D03*
X014193Y028225D03*
X015532Y028225D03*
G36*
X021694Y029143D02*
X022083Y028754D01*
X021584Y028255D01*
X021195Y028644D01*
X021694Y029143D01*
G37*
G36*
X022640Y028196D02*
X023029Y027807D01*
X022530Y027308D01*
X022141Y027697D01*
X022640Y028196D01*
G37*
X017907Y021100D03*
X016568Y021100D03*
X016907Y013475D03*
X015568Y013475D03*
X016943Y006975D03*
X018282Y006975D03*
X022943Y007163D03*
X024282Y007163D03*
X030818Y007725D03*
X032157Y007725D03*
X030282Y013350D03*
X028943Y013350D03*
G36*
X043444Y022518D02*
X043833Y022129D01*
X043334Y021630D01*
X042945Y022019D01*
X043444Y022518D01*
G37*
G36*
X044390Y021571D02*
X044779Y021182D01*
X044280Y020683D01*
X043891Y021072D01*
X044390Y021571D01*
G37*
X046693Y014475D03*
X048032Y014475D03*
X049943Y007600D03*
X051282Y007600D03*
X064318Y006975D03*
X065657Y006975D03*
X037907Y035850D03*
X036568Y035850D03*
X059318Y051225D03*
X060657Y051225D03*
D19*
X051612Y050931D03*
X051612Y052270D03*
X042737Y040145D03*
X042737Y038806D03*
X034987Y033395D03*
X034987Y032056D03*
X035237Y026270D03*
X035237Y024931D03*
X036487Y021520D03*
X036487Y020181D03*
X039050Y013770D03*
X039050Y012431D03*
X040862Y008270D03*
X040862Y006931D03*
X051300Y017369D03*
X051300Y018707D03*
X059612Y018270D03*
X059612Y016931D03*
X034237Y039556D03*
X034237Y040895D03*
X027362Y038895D03*
X027362Y037556D03*
X017487Y029270D03*
X017487Y027931D03*
X019737Y023770D03*
X019737Y022431D03*
X023737Y021645D03*
X023737Y020306D03*
X017862Y014520D03*
X017862Y013181D03*
X023300Y012145D03*
X023300Y010806D03*
X010237Y013181D03*
X010237Y014520D03*
X016237Y035306D03*
X016237Y036645D03*
X031237Y050681D03*
X031237Y052020D03*
X018987Y051681D03*
X018987Y053020D03*
D20*
X019612Y046100D03*
X020612Y046100D03*
X021612Y046100D03*
X022612Y046100D03*
X023612Y046100D03*
X024612Y046100D03*
X025612Y046100D03*
X025612Y043100D03*
X024612Y043100D03*
X023612Y043100D03*
X022612Y043100D03*
X021612Y043100D03*
X020612Y043100D03*
X019612Y043100D03*
X015862Y044225D03*
X014862Y044225D03*
X013862Y044225D03*
X055362Y043975D03*
X055362Y044975D03*
X055362Y045975D03*
X055362Y046975D03*
X055362Y047975D03*
X055362Y048975D03*
X055362Y049975D03*
X055362Y050975D03*
X058362Y050975D03*
X058362Y049975D03*
X058362Y048975D03*
X058362Y047975D03*
X058362Y046975D03*
X058362Y045975D03*
X058362Y043975D03*
D21*
X057949Y044975D02*
X058776Y044975D01*
X012862Y044639D02*
X012862Y043812D01*
X011862Y043812D02*
X011862Y044639D01*
X010862Y044639D02*
X010862Y043812D01*
X009862Y043812D02*
X009862Y044639D01*
X008862Y044639D02*
X008862Y043812D01*
X007862Y043812D02*
X007862Y044639D01*
X006862Y044639D02*
X006862Y043812D01*
D22*
X016862Y044225D03*
D23*
X019647Y047100D03*
X020827Y047100D03*
X020827Y047850D03*
X020827Y048600D03*
X019647Y048600D03*
X019647Y047850D03*
X021647Y048600D03*
X022827Y048600D03*
X023077Y047100D03*
X021897Y047100D03*
X023022Y050850D03*
X024202Y050850D03*
X031897Y044850D03*
X031772Y043975D03*
X031772Y043100D03*
X032952Y043100D03*
X032952Y043975D03*
X033077Y044850D03*
X033202Y045725D03*
X032022Y045725D03*
X039647Y045725D03*
X040827Y045725D03*
X040827Y044850D03*
X040827Y043975D03*
X039647Y043975D03*
X039647Y044850D03*
X041147Y040975D03*
X042327Y040975D03*
X047147Y043975D03*
X047147Y044850D03*
X047147Y045725D03*
X048327Y045725D03*
X049022Y045850D03*
X049022Y044975D03*
X048327Y044850D03*
X048327Y043975D03*
X049022Y044100D03*
X050202Y044100D03*
X050202Y044975D03*
X050202Y045850D03*
X050202Y046725D03*
X049022Y046725D03*
X052897Y053100D03*
X054077Y053100D03*
X050702Y038725D03*
X049522Y038725D03*
X047827Y035850D03*
X046647Y035850D03*
X040452Y036225D03*
X039272Y036225D03*
X049085Y030225D03*
X050265Y030225D03*
X042327Y025850D03*
X041147Y025850D03*
X046897Y021350D03*
X048077Y021350D03*
X042515Y017600D03*
X041335Y017600D03*
G36*
X036986Y013330D02*
X036570Y013746D01*
X036904Y014080D01*
X037320Y013664D01*
X036986Y013330D01*
G37*
G36*
X037821Y012496D02*
X037405Y012912D01*
X037739Y013246D01*
X038155Y012830D01*
X037821Y012496D01*
G37*
X033077Y011600D03*
X031897Y011600D03*
X023577Y013350D03*
X022397Y013350D03*
X024397Y028850D03*
X025577Y028850D03*
X024827Y036225D03*
X023647Y036225D03*
X049710Y015413D03*
X050890Y015413D03*
X058397Y010350D03*
X059577Y010350D03*
X059515Y020600D03*
X058335Y020600D03*
X061897Y036100D03*
X063077Y036100D03*
D24*
X057390Y045975D03*
X056210Y045975D03*
X020952Y041100D03*
X019772Y041100D03*
D25*
X056209Y046975D03*
X057390Y046975D03*
D26*
X057487Y049385D03*
X056737Y049385D03*
X056737Y050566D03*
X057487Y050566D03*
X056862Y051385D03*
X056862Y052566D03*
X053487Y052316D03*
X052612Y052191D03*
X052612Y051010D03*
X053487Y051135D03*
X027237Y033691D03*
X027237Y032510D03*
X018862Y040885D03*
X018862Y042066D03*
X022237Y050823D03*
X022237Y052003D03*
X020237Y052441D03*
X020237Y051260D03*
X058612Y007441D03*
X058612Y006260D03*
D27*
X021112Y051101D03*
X021112Y051850D03*
D28*
X021738Y050100D03*
X022486Y050100D03*
X021611Y049350D03*
X020863Y049350D03*
X020361Y040350D03*
X019613Y040350D03*
X019736Y039600D03*
X018988Y039600D03*
D29*
X017653Y043833D02*
X016862Y044225D01*
X019112Y050900D02*
X018987Y051681D01*
X025612Y043976D02*
X025612Y043100D01*
X050487Y048850D02*
X051487Y048850D01*
X052112Y049425D01*
X054862Y046975D02*
X055362Y046975D01*
X054862Y046975D02*
X054237Y046350D01*
X054237Y043975D01*
X055362Y043975D01*
X054237Y043975D02*
X053362Y043975D01*
X059737Y023350D02*
X058862Y022275D01*
X046693Y014475D02*
X046162Y013725D01*
X046487Y008350D02*
X047687Y008350D01*
X055987Y008350D02*
X057812Y008350D01*
D30*
X058412Y008350D02*
X059050Y008350D01*
X058987Y008413D01*
X058987Y009725D01*
X059050Y008350D02*
X060062Y008350D01*
X060312Y008100D01*
X060912Y008100D02*
X061987Y007350D01*
X063487Y007400D02*
X064487Y008350D01*
X064318Y006975D02*
X064018Y006800D01*
X063487Y006800D01*
X065657Y006975D02*
X066112Y008056D01*
X066112Y010475D01*
X067237Y010475D02*
X067237Y007475D01*
X065862Y005350D01*
X056397Y012850D02*
X053612Y012850D01*
X050890Y015413D01*
X051812Y015725D02*
X051300Y017369D01*
X052412Y015725D02*
X053487Y014850D01*
X055987Y015850D02*
X056175Y014588D01*
X059612Y016931D02*
X060312Y015663D01*
X060912Y015663D02*
X061987Y014850D01*
X063550Y014900D02*
X064487Y015850D01*
X059612Y018270D02*
X059515Y020600D01*
X057237Y022350D02*
X055987Y022025D01*
X050362Y022975D02*
X050157Y023181D01*
X050157Y025225D01*
X049907Y025475D01*
X048687Y023350D02*
X047487Y023350D01*
X046897Y021350D02*
X046022Y020475D01*
X044362Y020475D01*
X044335Y021127D01*
X044362Y020475D02*
X042640Y018566D01*
X042515Y017600D01*
X041312Y015850D02*
X039987Y015850D01*
X039225Y014663D02*
X039050Y013770D01*
X038625Y014663D02*
X037487Y014850D01*
X032487Y015850D02*
X032237Y014650D01*
X031112Y013900D02*
X029987Y014850D01*
X030282Y013350D02*
X031112Y013300D01*
X031112Y008800D02*
X029487Y008350D01*
X028550Y008350D01*
X026987Y007350D02*
X026050Y007350D01*
X024912Y008100D01*
X024312Y008100D02*
X024282Y007163D01*
X023300Y007895D02*
X022943Y007163D01*
X022987Y006850D02*
X023862Y005850D01*
X030407Y005850D01*
X030818Y006243D01*
X032157Y007725D02*
X032812Y008225D01*
X033412Y008225D02*
X034425Y007350D01*
X035487Y007350D01*
X036925Y008350D02*
X037987Y008350D01*
X039187Y008350D01*
X042912Y008225D02*
X043987Y007350D01*
X051282Y007600D02*
X051937Y007600D01*
X052537Y007600D02*
X053487Y007350D01*
X049032Y014975D02*
X048032Y014475D01*
X049032Y014975D02*
X049710Y015413D01*
X049050Y016175D02*
X047487Y015850D01*
X044987Y014850D02*
X045562Y013725D01*
X040362Y021350D02*
X041787Y022775D01*
X041787Y023350D01*
X041187Y023350D02*
X039987Y023350D01*
X037487Y022350D02*
X036937Y022963D01*
X035987Y023025D01*
X035987Y022425D02*
X036487Y021520D01*
X034287Y023350D02*
X035237Y024931D01*
X033687Y023350D02*
X032487Y023350D01*
X029987Y022350D02*
X028787Y023100D01*
X025162Y021975D02*
X024987Y023350D01*
X022487Y022350D02*
X021412Y023100D01*
X019187Y024600D02*
X018612Y023600D01*
X017487Y023350D01*
X014987Y022350D02*
X013787Y023100D01*
X009987Y023350D02*
X009987Y022150D01*
X007487Y022350D02*
X006287Y022350D01*
X005687Y022350D02*
X005687Y014850D01*
X005687Y014025D01*
X006112Y013600D01*
X007612Y013600D01*
X009237Y012725D01*
X010062Y011900D01*
X010062Y007350D01*
X010662Y007350D02*
X011862Y007350D01*
X013237Y005975D01*
X013862Y007350D02*
X015187Y006975D01*
X015787Y006975D02*
X016943Y006975D01*
X018282Y006975D02*
X019862Y005975D01*
X022112Y005975D01*
X022987Y006850D01*
X023300Y007895D02*
X023300Y010806D01*
X022487Y014850D02*
X021162Y015725D01*
X018687Y015725D02*
X017487Y015850D01*
X016312Y014475D02*
X014987Y014850D01*
X010237Y013181D02*
X009482Y013556D01*
X009112Y014050D01*
X009112Y014650D02*
X009987Y015850D01*
X007487Y014850D02*
X006287Y014850D01*
X014362Y008350D02*
X013862Y007350D01*
X019818Y005975D02*
X019862Y005975D01*
X023862Y015150D02*
X024987Y015850D01*
X036987Y028350D02*
X037568Y028350D01*
X036987Y028350D02*
X035687Y029650D01*
X035687Y030600D01*
X036287Y030600D02*
X037487Y029850D01*
X034987Y032056D02*
X034287Y030850D01*
X033687Y030850D02*
X032487Y030850D01*
X029987Y029850D02*
X028787Y030600D01*
X028187Y030600D02*
X026787Y030850D01*
X026775Y030394D01*
X026787Y030850D02*
X027237Y032510D01*
X026187Y030850D02*
X024987Y030850D01*
X022487Y029850D02*
X020987Y030025D01*
X017487Y030850D02*
X016612Y029900D01*
X014987Y029850D02*
X014362Y030600D01*
X013725Y030725D01*
X009987Y030850D02*
X009987Y029650D01*
X007487Y029850D02*
X006287Y029850D01*
X005687Y029850D02*
X005687Y022350D01*
X005687Y029850D02*
X005687Y037350D01*
X005687Y041725D01*
X005687Y041775D01*
X009987Y038350D02*
X009550Y037150D01*
X007487Y037350D02*
X006287Y037350D01*
X013975Y038225D02*
X014987Y037350D01*
X017662Y037100D02*
X017487Y038350D01*
X018862Y042066D02*
X019612Y043100D01*
X018322Y044993D02*
X017826Y045565D01*
X018773Y046511D02*
X019612Y046100D01*
X020827Y047850D02*
X021522Y047725D01*
X021897Y047100D01*
X021647Y048600D02*
X020827Y048600D01*
X019112Y049600D02*
X019112Y050300D01*
X019112Y049600D02*
X018362Y048850D01*
X017487Y048850D01*
X014987Y047850D02*
X012237Y049925D01*
X012237Y050525D02*
X012237Y052100D01*
X013737Y053600D01*
X017862Y053600D01*
X012237Y052100D02*
X010737Y053600D01*
X007487Y053600D01*
X005687Y052822D01*
X005687Y047850D01*
X006287Y047850D02*
X007487Y047850D01*
X008862Y047775D02*
X009987Y048850D01*
X024287Y048725D02*
X025487Y047850D01*
X027987Y048850D02*
X028687Y047850D01*
X030237Y047975D02*
X030237Y051645D01*
X035487Y048850D02*
X036687Y048850D01*
X037287Y048850D02*
X038687Y047850D01*
X039287Y047850D02*
X040487Y047850D01*
X042237Y047900D02*
X042987Y048850D01*
X042237Y047300D02*
X042068Y046350D01*
X043987Y042725D02*
X042737Y040145D01*
X042737Y038806D02*
X042987Y038550D01*
X043187Y038100D01*
X043787Y038100D02*
X044987Y037350D01*
X046487Y037650D02*
X047487Y038350D01*
X047737Y042725D02*
X043987Y042725D01*
X047737Y042725D02*
X047737Y043538D01*
X048327Y043975D02*
X049022Y044100D01*
X049022Y044975D02*
X048327Y044850D01*
X048327Y045725D02*
X049022Y045850D01*
X049022Y046725D02*
X047737Y046475D01*
X047987Y047850D02*
X049187Y047600D01*
X055362Y047975D02*
X055362Y046975D01*
X056209Y046975D01*
X056210Y045975D02*
X055362Y045975D01*
X057390Y045975D02*
X057390Y046975D01*
X057487Y049385D01*
X057487Y050566D02*
X057897Y050975D01*
X058362Y050975D01*
X058362Y051850D01*
X056862Y051385D02*
X056737Y050566D01*
X060662Y048600D02*
X061987Y047850D01*
X064487Y047650D02*
X064487Y048850D01*
X058737Y038350D02*
X059625Y037288D01*
X056237Y037350D02*
X055037Y036725D01*
X049662Y033300D02*
X049662Y031225D01*
X050937Y030850D01*
X051537Y030850D02*
X052487Y029850D01*
X053812Y029475D02*
X053443Y028475D01*
X054412Y029475D02*
X054987Y030850D01*
X058912Y030788D02*
X059987Y029850D01*
X062300Y029650D02*
X062487Y030850D01*
X049062Y031225D02*
X047487Y030850D01*
X044987Y029850D02*
X043787Y030600D01*
X043187Y030600D02*
X043187Y029820D01*
X041787Y030150D02*
X040612Y028850D01*
X041787Y030150D02*
X041787Y030850D01*
X041187Y030850D02*
X039987Y030850D01*
X043737Y027260D02*
X042327Y025850D01*
X043787Y023350D02*
X044987Y022350D01*
X039272Y036225D02*
X037907Y035850D01*
X036568Y035850D02*
X036000Y037294D01*
X035937Y038288D01*
X036537Y038288D02*
X037487Y037350D01*
X039987Y038350D02*
X041187Y038350D01*
X034412Y038350D02*
X034412Y039175D01*
X034237Y039556D01*
X033812Y038350D02*
X032487Y038350D01*
X029987Y037350D02*
X028787Y038225D01*
X027362Y038895D02*
X027162Y039600D01*
X026562Y039600D02*
X026187Y038600D01*
X024987Y038350D01*
X023687Y037100D02*
X022487Y037350D01*
D31*
X021987Y036225D02*
X023647Y036225D01*
X024237Y036600D02*
X024237Y035725D01*
X021800Y035725D01*
X020112Y037600D01*
X018737Y037600D01*
X018737Y038725D01*
X018988Y039600D01*
X018862Y040885D01*
X019613Y040350D02*
X019736Y039600D01*
X019737Y038600D01*
X020737Y038225D02*
X021237Y037100D01*
X021987Y036225D01*
X021568Y035181D02*
X020112Y033475D01*
X019362Y033475D01*
X018237Y034975D01*
X017862Y035225D01*
X016237Y035225D01*
X016237Y035306D01*
X016237Y035225D02*
X014362Y035225D01*
X013407Y034270D01*
X013407Y033600D01*
X012737Y034225D02*
X013737Y035350D01*
X013862Y035925D01*
X017312Y035925D01*
X018112Y036350D01*
X018612Y036850D01*
X018737Y037600D01*
X017062Y037100D02*
X016237Y036645D01*
X013862Y035925D02*
X013375Y038225D01*
X011487Y037475D02*
X011487Y041600D01*
X010112Y042850D01*
X006487Y042850D01*
X005987Y043350D01*
X005987Y045225D01*
X006987Y046350D01*
X008037Y046350D01*
X008862Y047175D01*
X018487Y052350D02*
X017862Y053600D01*
X018987Y053020D02*
X019407Y053020D01*
X019862Y053350D01*
X022568Y053350D01*
X023987Y054645D01*
X028157Y054645D01*
X028112Y053975D02*
X024362Y053975D01*
X022987Y052725D01*
X020987Y052725D01*
X020612Y052475D01*
X020237Y052441D01*
X019862Y051850D02*
X019487Y052350D01*
X018487Y052350D01*
X019862Y051850D02*
X020612Y051850D01*
X021112Y051850D01*
X021612Y051850D01*
X021862Y051413D01*
X022487Y051413D01*
X022737Y051475D01*
X023612Y051475D01*
X023612Y050550D01*
X023687Y048725D01*
X023112Y049350D02*
X023112Y049725D01*
X023022Y050850D01*
X022237Y050823D02*
X022486Y050100D01*
X022237Y049225D01*
X022237Y047975D01*
X022487Y047725D01*
X022487Y046600D01*
X022612Y046100D01*
X021612Y046100D02*
X021362Y046566D01*
X020827Y047100D01*
X020237Y046725D02*
X020237Y049350D01*
X020863Y049350D01*
X020237Y049350D02*
X019862Y049600D01*
X019862Y050725D01*
X020237Y051260D01*
X021112Y051101D02*
X020737Y050225D01*
X021738Y050100D01*
X021611Y049350D01*
X022827Y048600D02*
X023112Y049350D01*
X024202Y050850D02*
X025237Y050475D01*
X025487Y049100D01*
X026612Y048475D01*
X026612Y047100D01*
X025612Y046100D01*
X023612Y046100D02*
X023077Y047100D01*
X020612Y046100D02*
X020237Y046725D01*
X020612Y043100D02*
X020112Y042350D01*
X019772Y041100D02*
X019613Y040350D01*
X020361Y040350D02*
X020487Y039725D01*
X020737Y038225D01*
X021568Y035181D02*
X025407Y035181D01*
X026612Y033100D01*
X027737Y033100D01*
X029237Y035350D01*
X032737Y035350D01*
X034193Y033395D01*
X034987Y033395D01*
X036693Y035100D01*
X037487Y035100D01*
X037907Y035850D01*
X039862Y035725D02*
X039862Y036725D01*
X040737Y037350D01*
X041662Y037900D01*
X041787Y038350D01*
X041737Y041350D01*
X040612Y043100D01*
X040362Y043350D01*
X040237Y043475D01*
X040237Y046475D01*
X039987Y046725D01*
X039362Y046725D01*
X038687Y047400D01*
X038687Y047850D01*
X040827Y045725D02*
X041362Y045725D01*
X041737Y045475D01*
X043612Y045475D01*
X044737Y044475D01*
X045612Y044475D01*
X046862Y045725D01*
X047147Y045725D01*
X047737Y046056D02*
X047737Y043538D01*
X047147Y043975D02*
X046522Y043350D01*
X044112Y043350D01*
X042987Y044350D01*
X041452Y044350D01*
X040827Y043975D01*
X040362Y043350D02*
X036737Y043350D01*
X036800Y042725D02*
X040237Y042725D01*
X040862Y041850D01*
X041147Y040975D01*
X042327Y040975D02*
X042737Y040145D01*
X042987Y037225D02*
X041612Y037225D01*
X040987Y036600D01*
X040452Y036225D01*
X039862Y035725D02*
X041787Y033550D01*
X041787Y030850D01*
X040612Y028850D02*
X040612Y027975D01*
X041737Y026850D01*
X041787Y023350D01*
X043187Y023350D02*
X043389Y022074D01*
X040362Y021350D02*
X040362Y020788D01*
X041925Y018475D01*
X041925Y015925D01*
X041912Y015850D01*
X041912Y015463D01*
X039550Y013100D01*
X038612Y013100D01*
X037737Y013725D01*
X036862Y012850D01*
X036612Y012850D01*
X036112Y013350D01*
X036112Y013850D01*
X034987Y014975D01*
X033362Y014975D01*
X032812Y014050D01*
X032237Y014050D01*
X032537Y011925D01*
X032537Y011100D01*
X031112Y010425D01*
X031112Y009400D01*
X032050Y009975D02*
X032050Y008725D01*
X031487Y008100D01*
X031487Y007163D01*
X031737Y006913D01*
X032550Y006913D01*
X032862Y006600D01*
X034407Y006181D01*
X035943Y006181D01*
X037362Y006725D01*
X039657Y006725D01*
X040862Y006931D01*
X041487Y006931D01*
X044818Y005350D01*
X046657Y005350D01*
X049943Y007600D01*
X049943Y007145D01*
X050487Y006725D01*
X052487Y006725D01*
X053737Y005850D01*
X054487Y005850D01*
X055862Y006850D01*
X058862Y006850D01*
X062237Y005350D01*
X065862Y005350D01*
X065112Y005975D02*
X065532Y006395D01*
X065657Y006975D01*
X065112Y005975D02*
X062237Y005975D01*
X059772Y007191D01*
X058612Y007441D01*
X058612Y006260D02*
X056237Y006260D01*
X054702Y005225D01*
X053612Y005225D01*
X052237Y006100D01*
X049487Y006100D01*
X047237Y004725D01*
X044987Y004725D01*
X042737Y005850D01*
X042032Y006100D01*
X037487Y006100D01*
X035987Y005475D01*
X034862Y005475D01*
X032050Y006225D01*
X031111Y006243D01*
X030818Y006243D01*
X030818Y007725D01*
X032050Y009975D02*
X033112Y010475D01*
X033112Y011566D01*
X033077Y011600D01*
X031897Y011600D02*
X029987Y012600D01*
X029362Y012600D01*
X028943Y013350D01*
X028237Y014975D01*
X026487Y014975D01*
X024487Y013475D01*
X024237Y012725D01*
X024237Y011850D01*
X023737Y011475D01*
X019112Y011475D01*
X017862Y012725D01*
X017862Y013181D01*
X017657Y012725D01*
X014612Y012725D01*
X012818Y014520D01*
X010237Y014520D01*
X011737Y016475D02*
X014737Y013475D01*
X015568Y013475D01*
X016907Y013475D02*
X017487Y013850D01*
X018237Y013850D01*
X019112Y014850D01*
X020522Y014850D01*
X022397Y013350D01*
X022987Y013020D02*
X022987Y013725D01*
X023812Y014550D01*
X023862Y014550D01*
X023577Y013350D02*
X025327Y014725D01*
X025987Y015225D01*
X027362Y016600D01*
X027362Y018725D01*
X026487Y018725D01*
X025327Y020260D01*
X023737Y020306D01*
X023737Y021645D02*
X024562Y021975D01*
X025425Y020975D02*
X021862Y020975D01*
X021612Y021225D01*
X020657Y022056D01*
X019737Y022431D01*
X019068Y022306D01*
X017987Y021225D01*
X017907Y021100D01*
X017237Y020475D02*
X017237Y021975D01*
X017687Y021975D01*
X019237Y023150D01*
X020312Y023150D01*
X020812Y023100D01*
X019737Y023770D02*
X019787Y024600D01*
X019987Y026100D02*
X022487Y028600D01*
X023647Y028600D01*
X024397Y028850D01*
X024987Y028350D02*
X025737Y027850D01*
X028187Y025150D01*
X028187Y023100D01*
X027925Y022350D02*
X026675Y022350D01*
X026737Y025850D01*
X026612Y025975D01*
X025487Y027350D01*
X024585Y027752D01*
X022585Y027752D01*
X021639Y028699D02*
X020987Y029425D01*
X017487Y029270D02*
X016612Y029300D01*
X015862Y027975D02*
X015532Y028225D01*
X015862Y027975D02*
X016987Y027975D01*
X017282Y028020D01*
X017487Y027931D01*
X019532Y026100D01*
X019987Y026100D01*
X017237Y021975D02*
X016237Y021975D01*
X015362Y021100D01*
X014612Y021100D01*
X013187Y022525D01*
X013187Y023100D01*
X013187Y023650D01*
X012987Y023850D01*
X012987Y025100D01*
X013612Y025600D01*
X013612Y027038D01*
X014050Y027475D01*
X014862Y027725D01*
X014862Y028600D01*
X014175Y029100D01*
X013125Y030213D01*
X013125Y030725D01*
X013187Y031150D01*
X012737Y031725D01*
X012737Y034225D01*
X012068Y033600D02*
X011362Y034663D01*
X010425Y035663D01*
X010425Y036538D01*
X011487Y037475D01*
X009550Y036550D02*
X009550Y035788D01*
X010862Y034475D01*
X010862Y032975D01*
X011737Y032100D01*
X011737Y030806D01*
X013425Y029038D01*
X014193Y028225D01*
X011987Y025600D02*
X011987Y022975D01*
X014487Y020475D01*
X015943Y020475D01*
X016568Y021100D01*
X017237Y020475D02*
X018112Y019725D01*
X020487Y017725D01*
X020487Y016600D01*
X020562Y015725D01*
X019287Y015725D01*
X017862Y014520D02*
X016912Y014475D01*
X011737Y016475D02*
X011737Y018850D01*
X009987Y020600D01*
X009987Y021550D01*
X011987Y025600D02*
X009987Y027975D01*
X009987Y029050D01*
X024237Y036600D02*
X024287Y037100D01*
X025612Y037100D01*
X026862Y038225D01*
X028187Y038225D01*
X029443Y036225D02*
X030862Y036225D01*
X031737Y037100D01*
X033862Y037100D01*
X035237Y037850D01*
X035237Y039225D01*
X036112Y040975D01*
X036112Y041913D01*
X036800Y042725D01*
X035362Y044850D02*
X034112Y044850D01*
X033950Y045402D02*
X035498Y045402D01*
X035623Y045902D02*
X033737Y045913D01*
X033202Y045725D01*
X032612Y046725D02*
X030237Y047975D01*
X027862Y046163D02*
X027237Y046163D01*
X027862Y046163D02*
X029550Y044663D01*
X029300Y044225D02*
X027675Y045538D01*
X027300Y045538D01*
X027300Y044975D02*
X027550Y044975D01*
X029175Y043725D01*
X030925Y043725D01*
X031772Y043975D01*
X030987Y044225D02*
X029300Y044225D01*
X024827Y036225D02*
X025112Y035725D01*
X025737Y035725D01*
X026772Y033941D01*
X027237Y033691D01*
X026775Y030394D02*
X025982Y029600D01*
X025487Y029600D01*
X024987Y029475D01*
X024987Y028350D01*
X025577Y028850D02*
X026237Y029100D01*
X026987Y029725D01*
X028237Y029725D01*
X029362Y028600D01*
X031987Y028600D01*
X034318Y026270D01*
X035237Y026270D01*
X035237Y026350D01*
X036487Y027600D01*
X038407Y027600D01*
X038907Y028350D01*
X039487Y028350D01*
X041147Y026691D01*
X041147Y025850D01*
X047407Y027931D02*
X048568Y026770D01*
X048568Y025475D01*
X049287Y026800D02*
X048112Y027975D01*
X048112Y028850D01*
X049037Y029525D01*
X049662Y029650D01*
X049662Y031225D01*
X050265Y030225D02*
X050827Y029635D01*
X052987Y027600D01*
X054987Y027600D01*
X055487Y027975D01*
X055487Y028475D01*
X057237Y030538D01*
X057237Y032975D01*
X059675Y036100D01*
X061897Y036100D01*
X062487Y035475D02*
X063737Y034288D01*
X063737Y030100D01*
X062625Y029050D01*
X062300Y029050D01*
X062125Y029050D01*
X060737Y027663D01*
X060737Y025163D01*
X061300Y024600D01*
X061300Y022364D01*
X060611Y021675D01*
X058862Y021675D01*
X058925Y021613D01*
X058925Y019475D01*
X058300Y018725D01*
X058300Y014725D01*
X060175Y014725D01*
X061300Y013600D01*
X062850Y013600D01*
X063550Y014300D01*
X063675Y012725D02*
X061112Y012725D01*
X060077Y010816D01*
X059577Y010350D01*
X058987Y010913D02*
X058987Y009725D01*
X058397Y010350D02*
X058050Y010350D01*
X056925Y011475D01*
X056925Y012323D01*
X056397Y012850D01*
X057550Y011975D02*
X057550Y013975D01*
X058300Y014725D01*
X057550Y011975D02*
X058987Y010913D01*
X063675Y012725D02*
X066050Y015600D01*
X066050Y018100D01*
X065362Y018913D01*
X065362Y026475D01*
X064925Y029600D01*
X064925Y036038D01*
X066112Y037913D01*
X066112Y041475D01*
X064487Y044850D01*
X060487Y044850D01*
X059112Y045850D01*
X058362Y045975D01*
X058362Y044975D02*
X060112Y044225D01*
X064097Y044241D01*
X065487Y041225D01*
X065487Y038038D01*
X064300Y036100D01*
X064300Y029288D01*
X062612Y027725D01*
X061907Y027725D01*
X061300Y027119D01*
X061300Y025475D01*
X061862Y024913D01*
X061862Y021573D01*
X060890Y020600D01*
X059515Y020600D01*
X058335Y020600D02*
X052237Y020600D01*
X050237Y022350D01*
X049612Y022350D01*
X048237Y021600D01*
X048077Y021350D01*
X047487Y021850D02*
X047487Y020475D01*
X049037Y018675D01*
X049037Y016475D01*
X049050Y016775D01*
X049875Y016775D01*
X050300Y016350D01*
X050300Y014850D01*
X050890Y015413D02*
X050890Y016510D01*
X050550Y016913D01*
X050550Y018332D01*
X051300Y018707D01*
X052287Y021425D02*
X050362Y022975D01*
X049287Y023350D02*
X049162Y022775D01*
X048237Y022350D01*
X047737Y022100D01*
X047487Y021850D01*
X049287Y023350D02*
X049287Y026800D01*
X054782Y028475D02*
X056362Y030556D01*
X056362Y031600D01*
X056568Y031600D01*
X056362Y031600D02*
X056362Y032600D01*
X055862Y033100D01*
X055862Y034350D01*
X055237Y035100D01*
X054606Y035484D01*
X053737Y035475D01*
X051987Y035475D01*
X050362Y037225D01*
X049522Y037225D01*
X049522Y038725D01*
X050094Y038306D02*
X050175Y038225D01*
X050612Y037725D01*
X052237Y036038D01*
X053425Y036038D01*
X054112Y036350D01*
X054437Y036725D01*
X050702Y038725D02*
X050702Y040698D01*
X050094Y040350D02*
X050094Y038306D01*
X049522Y037225D02*
X049077Y037225D01*
X047827Y035850D01*
X048037Y035050D02*
X047237Y035100D01*
X047237Y037100D01*
X046537Y037100D01*
X046487Y037050D01*
X047237Y037100D02*
X047862Y037100D01*
X048675Y037913D01*
X048675Y038788D01*
X049037Y039650D01*
X049487Y039913D01*
X049487Y041225D01*
X048862Y042100D01*
X048862Y043100D01*
X049612Y043600D01*
X049612Y046850D01*
X049787Y047600D01*
X051354Y047600D01*
X052800Y049047D01*
X053175Y048663D02*
X051112Y046725D01*
X050202Y046725D01*
X050202Y045850D02*
X050987Y045850D01*
X053550Y048288D01*
X053925Y047913D02*
X050862Y044975D01*
X050202Y044975D01*
X050202Y044100D02*
X050737Y044100D01*
X054362Y047600D01*
X054362Y048413D02*
X054925Y048975D01*
X055362Y048975D01*
X055362Y049975D02*
X054675Y049975D01*
X053925Y049225D01*
X053550Y050163D02*
X054425Y050975D01*
X055362Y050975D01*
X056112Y051350D02*
X055862Y051725D01*
X053112Y051725D01*
X052862Y051600D01*
X052300Y051600D01*
X052050Y051850D01*
X051612Y052270D01*
X051112Y053270D01*
X047532Y053270D01*
X047487Y053850D02*
X051702Y053850D01*
X052202Y052850D01*
X052612Y052191D01*
X053487Y052316D02*
X056147Y052316D01*
X056487Y051975D01*
X057362Y051975D01*
X057737Y052725D01*
X059237Y052850D01*
X059987Y052100D01*
X059987Y050850D01*
X059612Y050225D01*
X059237Y049225D01*
X058362Y048975D01*
X058362Y049975D02*
X058987Y050163D01*
X059318Y051225D01*
X060532Y050770D02*
X060657Y051225D01*
X060532Y050770D02*
X060062Y050050D01*
X060062Y048600D01*
X059112Y047975D02*
X058362Y047975D01*
X059112Y047975D02*
X061612Y046225D01*
X065362Y046225D01*
X067362Y041975D01*
X067362Y037725D01*
X066175Y035788D01*
X066175Y029100D01*
X066612Y026850D01*
X066612Y019663D01*
X067425Y018725D01*
X067425Y014975D01*
X066612Y014163D01*
X066612Y011975D01*
X067237Y010475D01*
X066112Y010475D02*
X065987Y011600D01*
X065987Y014413D01*
X066800Y015350D01*
X066800Y018350D01*
X065987Y019288D01*
X065987Y026725D01*
X065550Y029350D01*
X065550Y035913D01*
X066737Y037850D01*
X066737Y041725D01*
X064862Y045600D01*
X060987Y045600D01*
X058987Y046975D01*
X058362Y046975D01*
X056800Y045100D02*
X056800Y049323D01*
X056737Y049385D01*
X056112Y049975D02*
X056112Y051350D01*
X056862Y052566D02*
X056327Y053100D01*
X054077Y053100D01*
X053487Y053600D02*
X053487Y052316D01*
X052897Y053100D02*
X052272Y054475D01*
X047612Y054475D01*
X047487Y054350D01*
X047443Y055020D02*
X052818Y055020D01*
X053487Y053600D01*
X056862Y052566D02*
X057237Y053225D01*
X058987Y053475D01*
X064612Y053475D01*
X065862Y052350D01*
X065862Y047725D01*
X065187Y047050D01*
X064487Y047050D01*
X063612Y043600D02*
X059862Y043600D01*
X058362Y043975D01*
X057737Y042975D02*
X057112Y043600D01*
X057112Y044725D01*
X056800Y045100D01*
X056237Y044725D02*
X055987Y044975D01*
X055362Y044975D01*
X056237Y044725D02*
X056237Y043350D01*
X055862Y042975D01*
X052175Y042975D01*
X052174Y042975D02*
X052202Y042901D01*
X052227Y042825D01*
X052248Y042749D01*
X052265Y042671D01*
X052278Y042593D01*
X052288Y042514D01*
X052294Y042435D01*
X052296Y042355D01*
X052294Y042276D01*
X052289Y042197D01*
X052279Y042118D01*
X052266Y042040D01*
X052249Y041962D01*
X052229Y041885D01*
X052205Y041810D01*
X052177Y041735D01*
X052145Y041662D01*
X052111Y041591D01*
X052072Y041521D01*
X052031Y041454D01*
X051986Y041388D01*
X051938Y041324D01*
X051888Y041263D01*
X051834Y041205D01*
X051778Y041149D01*
X051718Y041096D01*
X051657Y041046D01*
X051593Y040998D01*
X051527Y040954D01*
X051459Y040913D01*
X051389Y040876D01*
X051317Y040841D01*
X051244Y040811D01*
X051169Y040784D01*
X051094Y040760D01*
X051017Y040740D01*
X050939Y040724D01*
X050860Y040712D01*
X050782Y040703D01*
X050702Y040698D01*
X048755Y040350D02*
X048755Y041332D01*
X047737Y042725D01*
X045862Y043850D02*
X046862Y044850D01*
X047147Y044850D01*
X045862Y043850D02*
X044487Y043850D01*
X043362Y044850D01*
X040827Y044850D01*
X042987Y037225D02*
X044237Y035850D01*
X046647Y035850D01*
X048037Y035050D02*
X049662Y033300D01*
X057907Y031600D02*
X058312Y030788D01*
X062487Y035475D02*
X062487Y036863D01*
X062425Y036925D01*
X060587Y036925D01*
X060225Y037288D01*
X060237Y038475D01*
X060237Y041100D01*
X059362Y042975D01*
X057737Y042975D01*
X063612Y043600D02*
X064862Y040850D01*
X064862Y038260D01*
X063577Y036100D01*
X063077Y036100D01*
X058362Y049975D02*
X056112Y049975D01*
X053487Y051135D02*
X053175Y050475D01*
X052800Y050635D02*
X052612Y051010D01*
X043112Y053100D02*
X039987Y053100D01*
X040112Y053725D02*
X042987Y053725D01*
X042987Y054350D02*
X040112Y054350D01*
X039987Y054895D02*
X040318Y054975D01*
X043112Y054975D01*
X035443Y055020D02*
X032443Y055020D01*
X032612Y054350D02*
X035362Y054350D01*
X035362Y053725D02*
X032487Y053725D01*
X032443Y053100D02*
X035487Y053100D01*
X027987Y053350D02*
X024737Y053350D01*
X023077Y051941D01*
X022237Y052003D01*
X026675Y022350D02*
X025425Y020975D01*
X027925Y022350D02*
X029050Y021100D01*
X032487Y021100D01*
X034362Y019100D01*
X035487Y019100D01*
X036487Y020100D01*
X036487Y020181D01*
X036487Y020100D02*
X040157Y020100D01*
X040585Y019672D01*
X041335Y017600D01*
X042362Y015100D02*
X039818Y012556D01*
X039050Y012431D01*
X038316Y012556D01*
X037780Y012871D01*
X036945Y013705D02*
X035737Y015038D01*
X035737Y015975D01*
X034112Y017600D01*
X034112Y018600D01*
X032530Y020308D01*
X029195Y020308D01*
X027987Y018725D01*
X027362Y018725D01*
X022987Y013020D02*
X023300Y012145D01*
X017612Y007975D02*
X017237Y008350D01*
X016362Y008350D01*
X017612Y007975D02*
X017612Y006475D01*
X017112Y005975D01*
X013237Y005975D01*
X022943Y007163D02*
X022987Y007119D01*
X022987Y006850D01*
X039787Y008350D02*
X040112Y007600D01*
X041237Y007600D01*
X044237Y006100D01*
X046487Y006100D01*
X048287Y007900D01*
X048287Y008350D01*
X048287Y011025D01*
X048737Y011475D01*
X051237Y011475D01*
X052112Y012975D01*
X045112Y012725D02*
X043112Y015100D01*
X042362Y015100D01*
X042312Y008225D02*
X040862Y008270D01*
X052287Y021425D02*
X055987Y021425D01*
D32*
X005987Y004350D03*
X012237Y004350D03*
X015987Y004350D03*
X025737Y004350D03*
X033237Y004350D03*
X042737Y004350D03*
X052237Y004350D03*
X060112Y004350D03*
X068050Y004350D03*
X068050Y013100D03*
X068050Y020600D03*
X068050Y028100D03*
X068050Y035600D03*
X068050Y044600D03*
X068050Y054850D03*
X056675Y054850D03*
X045237Y054850D03*
X037737Y054850D03*
X030237Y054850D03*
X021237Y054850D03*
X012237Y054850D03*
X005987Y054850D03*
D33*
X012237Y047850D03*
X012237Y035600D03*
X019737Y035600D03*
X027612Y035725D03*
X034737Y035600D03*
X042237Y035600D03*
X049737Y035600D03*
X057050Y035538D03*
X050612Y042350D03*
X045175Y046225D03*
X042362Y042913D03*
X037737Y046163D03*
X034737Y043288D03*
X030175Y046225D03*
X027487Y043038D03*
X027612Y028100D03*
X034737Y028100D03*
X042237Y028100D03*
X050112Y028100D03*
X057237Y028100D03*
X049737Y020600D03*
X042237Y020600D03*
X034675Y021100D03*
X027237Y020600D03*
X019737Y020600D03*
X012237Y020600D03*
X012237Y013100D03*
X019737Y013100D03*
X026987Y013350D03*
X034487Y013225D03*
X042612Y013100D03*
X049737Y013100D03*
X059237Y013100D03*
X019737Y028100D03*
X012237Y028100D03*
D34*
X032037Y048600D02*
X032987Y047850D01*
D35*
X032612Y046725D02*
X032612Y045350D01*
X032487Y045225D01*
X032487Y044475D01*
X032362Y044350D01*
X032362Y042600D01*
X032987Y042350D01*
X034237Y040895D01*
X034112Y041725D02*
X035487Y041725D01*
X036737Y043350D01*
X036862Y043850D02*
X036612Y043975D01*
X035362Y044850D01*
X035498Y045402D02*
X037050Y044225D01*
X038487Y044225D01*
X039175Y044663D01*
X039647Y044850D01*
X039300Y045475D02*
X039647Y045725D01*
X039300Y045475D02*
X038237Y044600D01*
X037237Y044600D01*
X035623Y045902D01*
X034112Y044850D02*
X033664Y044402D01*
X032952Y043975D01*
X033077Y044850D02*
X033950Y045402D01*
X032022Y045725D02*
X031175Y045038D01*
X030612Y044663D01*
X029550Y044663D01*
X030987Y044225D02*
X031425Y044663D01*
X031897Y044850D01*
X031772Y043100D02*
X031237Y042600D01*
X029112Y042600D01*
X028362Y041475D01*
X026362Y041475D01*
X025487Y042475D01*
X023987Y042475D01*
X023612Y043100D01*
X023237Y042475D01*
X021612Y042475D01*
X021237Y042100D01*
X020952Y041100D01*
X020362Y040725D02*
X020361Y040350D01*
X020362Y040725D02*
X020362Y041475D01*
X020487Y041725D01*
X021612Y043100D01*
X022112Y043850D02*
X022612Y043100D01*
X022112Y043850D02*
X019112Y043850D01*
X018487Y042850D01*
X012487Y042850D01*
X011862Y043475D01*
X011862Y044225D01*
X012862Y044225D02*
X012862Y043600D01*
X013237Y043225D01*
X018237Y043225D01*
X018862Y044225D01*
X022362Y044225D01*
X022737Y043913D01*
X024300Y043913D01*
X024612Y043100D01*
X026112Y044600D02*
X027300Y044975D01*
X027300Y045538D02*
X025987Y044975D01*
X019112Y044975D01*
X017862Y046225D01*
X017612Y046225D01*
X016612Y045350D01*
X015987Y045350D01*
X014862Y044725D01*
X014862Y044225D01*
X015862Y044225D02*
X015862Y044725D01*
X016237Y044975D01*
X017362Y044975D01*
X017737Y044538D01*
X018362Y044225D01*
X018862Y044600D01*
X026112Y044600D01*
X025925Y045350D02*
X027237Y046163D01*
X025925Y045350D02*
X019237Y045350D01*
X017925Y046663D01*
X017487Y046663D01*
X016425Y045725D01*
X015862Y045725D01*
X014987Y045350D01*
X014362Y045350D01*
X013862Y044975D01*
X013862Y044225D01*
X013550Y045413D02*
X014112Y045850D01*
X014987Y045850D01*
X015862Y046225D01*
X016300Y046225D01*
X017237Y047100D01*
X017987Y047100D01*
X018987Y047225D01*
X019647Y047100D01*
X019647Y047850D02*
X018022Y047475D01*
X016987Y047475D01*
X016050Y046600D01*
X015612Y046600D01*
X014737Y046225D01*
X013737Y046225D01*
X013237Y045850D01*
X009737Y045850D01*
X008862Y044975D01*
X008862Y044225D01*
X007862Y044225D02*
X007862Y044850D01*
X009300Y046288D01*
X012925Y046288D01*
X013362Y046600D01*
X014487Y046600D01*
X015487Y046975D01*
X015800Y046975D01*
X016675Y047850D01*
X017987Y047850D01*
X019112Y048600D01*
X019647Y048600D01*
X013550Y045413D02*
X010362Y045413D01*
X009862Y044975D01*
X009862Y044225D01*
X010862Y044225D02*
X010862Y043350D01*
X011737Y042475D01*
X018112Y042475D01*
X018362Y041475D01*
X019237Y041475D01*
X020112Y042350D01*
X031237Y052020D02*
X031862Y052850D01*
X032443Y053100D01*
X032487Y053725D02*
X030987Y052725D01*
X029112Y052725D01*
X027987Y053350D01*
X028112Y053975D02*
X029362Y053100D01*
X030862Y053100D01*
X032612Y054350D01*
X032443Y055020D02*
X030737Y053475D01*
X029612Y053475D01*
X028157Y054645D01*
X035362Y054350D02*
X036987Y053100D01*
X038487Y053100D01*
X040112Y054350D01*
X039987Y054895D02*
X038362Y053475D01*
X037112Y053475D01*
X035443Y055020D01*
X035362Y053725D02*
X036862Y052725D01*
X038612Y052725D01*
X040112Y053725D01*
X039987Y053100D02*
X038737Y052350D01*
X036612Y052350D01*
X035487Y053100D01*
X042987Y053725D02*
X044237Y052725D01*
X046112Y052725D01*
X047487Y053850D01*
X047487Y054350D02*
X045987Y053100D01*
X044362Y053100D01*
X042987Y054350D01*
X043112Y054975D02*
X044612Y053475D01*
X045737Y053475D01*
X047443Y055020D01*
X047532Y053270D02*
X046362Y052350D01*
X044112Y052350D01*
X043112Y053100D01*
X052800Y050635D02*
X052800Y049047D01*
X053175Y048663D02*
X053175Y050475D01*
X053550Y050163D02*
X053550Y048288D01*
X053925Y047913D02*
X053925Y049225D01*
X054362Y048413D02*
X054362Y047600D01*
X039647Y043975D02*
X039522Y043850D01*
X036862Y043850D01*
X034112Y041725D02*
X033300Y042600D01*
X032952Y043100D01*
D36*
X025612Y043976D03*
X019737Y038600D03*
X020737Y050225D03*
X053362Y043975D03*
X058362Y051850D03*
D37*
X060800Y042350D02*
X063550Y042350D01*
X064175Y040725D01*
X064175Y038475D01*
X063300Y037350D01*
X061300Y037350D01*
X060800Y038225D01*
X060800Y042350D01*
X060800Y042290D02*
X063573Y042290D01*
X063590Y042246D02*
X063590Y037723D01*
X063657Y037810D02*
X061037Y037810D01*
X061030Y037823D02*
X061030Y042350D01*
X061350Y042350D02*
X061350Y037350D01*
X061220Y037490D02*
X063409Y037490D01*
X063270Y037350D02*
X063270Y042350D01*
X062950Y042350D02*
X062950Y037350D01*
X062630Y037350D02*
X062630Y042350D01*
X062310Y042350D02*
X062310Y037350D01*
X061990Y037350D02*
X061990Y042350D01*
X061670Y042350D02*
X061670Y037350D01*
X060854Y038130D02*
X063906Y038130D01*
X063910Y038135D02*
X063910Y041414D01*
X063942Y041330D02*
X060800Y041330D01*
X060800Y041010D02*
X064065Y041010D01*
X064175Y040690D02*
X060800Y040690D01*
X060800Y040370D02*
X064175Y040370D01*
X064175Y040050D02*
X060800Y040050D01*
X060800Y039730D02*
X064175Y039730D01*
X064175Y039410D02*
X060800Y039410D01*
X060800Y039090D02*
X064175Y039090D01*
X064175Y038770D02*
X060800Y038770D01*
X060800Y038450D02*
X064155Y038450D01*
X063819Y041650D02*
X060800Y041650D01*
X060800Y041970D02*
X063696Y041970D01*
X054425Y041970D02*
X052673Y041970D01*
X052710Y042115D02*
X052710Y036600D01*
X053030Y036600D02*
X053030Y042475D01*
X052800Y042475D02*
X054425Y042475D01*
X054425Y037850D01*
X053300Y036600D01*
X052300Y036600D01*
X051425Y038100D01*
X051425Y040225D01*
X052425Y040975D01*
X052800Y042475D01*
X052753Y042290D02*
X054425Y042290D01*
X054310Y042475D02*
X054310Y037723D01*
X054389Y037810D02*
X051594Y037810D01*
X051750Y037543D02*
X051750Y040469D01*
X051618Y040370D02*
X054425Y040370D01*
X054425Y040050D02*
X051425Y040050D01*
X051430Y040229D02*
X051430Y038092D01*
X051425Y038130D02*
X054425Y038130D01*
X054425Y038450D02*
X051425Y038450D01*
X051425Y038770D02*
X054425Y038770D01*
X054425Y039090D02*
X051425Y039090D01*
X051425Y039410D02*
X054425Y039410D01*
X054425Y039730D02*
X051425Y039730D01*
X052045Y040690D02*
X054425Y040690D01*
X054425Y041010D02*
X052433Y041010D01*
X052390Y040949D02*
X052390Y036600D01*
X052154Y036850D02*
X053525Y036850D01*
X053670Y037012D02*
X053670Y042475D01*
X053990Y042475D02*
X053990Y037367D01*
X054101Y037490D02*
X051781Y037490D01*
X051967Y037170D02*
X053813Y037170D01*
X053350Y036656D02*
X053350Y042475D01*
X052593Y041650D02*
X054425Y041650D01*
X054425Y041330D02*
X052513Y041330D01*
X052070Y040709D02*
X052070Y036995D01*
X052070Y027100D02*
X052070Y022459D01*
X052081Y022450D02*
X055300Y022450D01*
X055300Y022130D02*
X052481Y022130D01*
X052390Y022203D02*
X052390Y027100D01*
X052710Y027100D02*
X052710Y021975D01*
X052675Y021975D02*
X055300Y021975D01*
X055300Y027100D01*
X051199Y027100D01*
X050991Y026892D01*
X050991Y026892D01*
X050800Y026794D01*
X050800Y023475D01*
X052675Y021975D01*
X053030Y021975D02*
X053030Y027100D01*
X053350Y027100D02*
X053350Y021975D01*
X053670Y021975D02*
X053670Y027100D01*
X053990Y027100D02*
X053990Y021975D01*
X054310Y021975D02*
X054310Y027100D01*
X054630Y027100D02*
X054630Y021975D01*
X054950Y021975D02*
X054950Y027100D01*
X055270Y027100D02*
X055270Y021975D01*
X055300Y022770D02*
X051681Y022770D01*
X051750Y022715D02*
X051750Y027100D01*
X051430Y027100D02*
X051430Y022971D01*
X051281Y023090D02*
X055300Y023090D01*
X055300Y023410D02*
X050881Y023410D01*
X051110Y023227D02*
X051110Y027011D01*
X051029Y026930D02*
X055300Y026930D01*
X055300Y026610D02*
X050800Y026610D01*
X050800Y026290D02*
X055300Y026290D01*
X055300Y025970D02*
X050800Y025970D01*
X050800Y025650D02*
X055300Y025650D01*
X055300Y025330D02*
X050800Y025330D01*
X050800Y025010D02*
X055300Y025010D01*
X055300Y024690D02*
X050800Y024690D01*
X050800Y024370D02*
X055300Y024370D01*
X055300Y024050D02*
X050800Y024050D01*
X050800Y023730D02*
X055300Y023730D01*
X062300Y023730D02*
X064800Y023730D01*
X064800Y023410D02*
X062300Y023410D01*
X062300Y023090D02*
X064800Y023090D01*
X064800Y022770D02*
X062300Y022770D01*
X062300Y022450D02*
X064800Y022450D01*
X064800Y022130D02*
X062300Y022130D01*
X062300Y021810D02*
X064800Y021810D01*
X064800Y021490D02*
X062300Y021490D01*
X062300Y021350D02*
X064800Y021350D01*
X064800Y027100D01*
X062300Y027100D01*
X062300Y021350D01*
X062310Y021350D02*
X062310Y027100D01*
X062300Y026930D02*
X064800Y026930D01*
X064550Y027100D02*
X064550Y021350D01*
X064230Y021350D02*
X064230Y027100D01*
X063910Y027100D02*
X063910Y021350D01*
X063590Y021350D02*
X063590Y027100D01*
X063270Y027100D02*
X063270Y021350D01*
X062950Y021350D02*
X062950Y027100D01*
X062630Y027100D02*
X062630Y021350D01*
X062300Y024050D02*
X064800Y024050D01*
X064800Y024370D02*
X062300Y024370D01*
X062300Y024690D02*
X064800Y024690D01*
X064800Y025010D02*
X062300Y025010D01*
X062300Y025330D02*
X064800Y025330D01*
X064800Y025650D02*
X062300Y025650D01*
X062300Y025970D02*
X064800Y025970D01*
X064800Y026290D02*
X062300Y026290D01*
X062300Y026610D02*
X064800Y026610D01*
X022675Y011100D02*
X022675Y007850D01*
X021800Y006600D01*
X020050Y006600D01*
X018175Y008100D01*
X018175Y011100D01*
X022675Y011100D01*
X022630Y011100D02*
X022630Y007786D01*
X022591Y007730D02*
X018637Y007730D01*
X018790Y007608D02*
X018790Y011100D01*
X019110Y011100D02*
X019110Y007352D01*
X019037Y007410D02*
X022367Y007410D01*
X022310Y007329D02*
X022310Y011100D01*
X021990Y011100D02*
X021990Y006872D01*
X021919Y006770D02*
X019837Y006770D01*
X019750Y006840D02*
X019750Y011100D01*
X020070Y011100D02*
X020070Y006600D01*
X020390Y006600D02*
X020390Y011100D01*
X020710Y011100D02*
X020710Y006600D01*
X021030Y006600D02*
X021030Y011100D01*
X021350Y011100D02*
X021350Y006600D01*
X021670Y006600D02*
X021670Y011100D01*
X022675Y010930D02*
X018175Y010930D01*
X018175Y010610D02*
X022675Y010610D01*
X022675Y010290D02*
X018175Y010290D01*
X018175Y009970D02*
X022675Y009970D01*
X022675Y009650D02*
X018175Y009650D01*
X018175Y009330D02*
X022675Y009330D01*
X022675Y009010D02*
X018175Y009010D01*
X018175Y008690D02*
X022675Y008690D01*
X022675Y008370D02*
X018175Y008370D01*
X018237Y008050D02*
X022675Y008050D01*
X022143Y007090D02*
X019437Y007090D01*
X019430Y007096D02*
X019430Y011100D01*
X018470Y011100D02*
X018470Y007864D01*
X017050Y010600D02*
X015050Y010600D01*
X015050Y012163D01*
X017050Y012163D01*
X017050Y010600D01*
X017050Y010715D02*
X015050Y010715D01*
X015050Y010834D02*
X017050Y010834D01*
X017050Y010952D02*
X015050Y010952D01*
X015050Y011071D02*
X017050Y011071D01*
X017050Y011189D02*
X015050Y011189D01*
X015050Y011308D02*
X017050Y011308D01*
X017050Y011426D02*
X015050Y011426D01*
X015050Y011545D02*
X017050Y011545D01*
X017050Y011663D02*
X015050Y011663D01*
X015050Y011782D02*
X017050Y011782D01*
X017050Y011900D02*
X015050Y011900D01*
X015050Y012019D02*
X017050Y012019D01*
X017050Y012137D02*
X015050Y012137D01*
X009425Y011350D02*
X009425Y007975D01*
X009300Y007725D01*
X009300Y006350D01*
X003175Y006350D01*
X003175Y012475D01*
X007925Y012475D01*
X009425Y011350D01*
X009425Y011250D02*
X003175Y011250D01*
X003175Y010930D02*
X009425Y010930D01*
X009425Y010610D02*
X003175Y010610D01*
X003175Y010290D02*
X009425Y010290D01*
X009425Y009970D02*
X003175Y009970D01*
X003175Y009650D02*
X009425Y009650D01*
X009425Y009330D02*
X003175Y009330D01*
X003175Y009010D02*
X009425Y009010D01*
X009425Y008690D02*
X003175Y008690D01*
X003175Y008370D02*
X009425Y008370D01*
X009425Y008050D02*
X003175Y008050D01*
X003175Y007730D02*
X009302Y007730D01*
X009300Y007410D02*
X003175Y007410D01*
X003175Y007090D02*
X009300Y007090D01*
X009300Y006770D02*
X003175Y006770D01*
X003175Y006450D02*
X009300Y006450D01*
X009190Y006350D02*
X009190Y011527D01*
X009131Y011570D02*
X003175Y011570D01*
X003175Y011890D02*
X008705Y011890D01*
X008550Y012007D02*
X008550Y006350D01*
X008870Y006350D02*
X008870Y011767D01*
X008278Y012210D02*
X003175Y012210D01*
X003430Y012475D02*
X003430Y006350D01*
X003750Y006350D02*
X003750Y012475D01*
X004070Y012475D02*
X004070Y006350D01*
X004390Y006350D02*
X004390Y012475D01*
X004710Y012475D02*
X004710Y006350D01*
X005030Y006350D02*
X005030Y012475D01*
X005350Y012475D02*
X005350Y006350D01*
X005670Y006350D02*
X005670Y012475D01*
X005990Y012475D02*
X005990Y006350D01*
X006310Y006350D02*
X006310Y012475D01*
X006630Y012475D02*
X006630Y006350D01*
X006950Y006350D02*
X006950Y012475D01*
X007270Y012475D02*
X007270Y006350D01*
X007590Y006350D02*
X007590Y012475D01*
X007910Y012475D02*
X007910Y006350D01*
X008230Y006350D02*
X008230Y012247D01*
X016550Y043850D02*
X016550Y044600D01*
X017300Y044600D01*
X017300Y044350D01*
X017050Y043850D01*
X016550Y043850D01*
X016550Y043895D02*
X017072Y043895D01*
X017131Y044014D02*
X016550Y044014D01*
X016550Y044132D02*
X017191Y044132D01*
X017250Y044251D02*
X016550Y044251D01*
X016550Y044369D02*
X017300Y044369D01*
X017300Y044488D02*
X016550Y044488D01*
M02*
