G75*
G70*
%OFA0B0*%
%FSLAX24Y24*%
%IPPOS*%
%LPD*%
%AMOC8*
5,1,8,0,0,1.08239X$1,22.5*
%
%ADD10C,0.1580*%
%ADD11C,0.1092*%
%ADD12C,0.0474*%
%ADD13C,0.0940*%
%ADD14C,0.1261*%
%ADD15R,0.0710X0.0540*%
%ADD16R,0.0540X0.0710*%
%ADD17R,0.0631X0.0789*%
%ADD18R,0.0789X0.0631*%
%ADD19R,0.0907X0.0907*%
%ADD20C,0.0907*%
%ADD21C,0.0907*%
%ADD22R,0.0671X0.0552*%
%ADD23R,0.0789X0.0552*%
%ADD24R,0.0671X0.0867*%
%ADD25R,0.0552X0.0671*%
%ADD26R,0.0671X0.0592*%
%ADD27R,0.0592X0.0671*%
%ADD28C,0.1281*%
%ADD29C,0.1655*%
%ADD30C,0.2049*%
%ADD31C,0.0867*%
%ADD32R,0.0986X0.0986*%
D10*
X015364Y009456D03*
X017364Y009456D03*
X017864Y010456D03*
X019864Y010456D03*
X018489Y016956D03*
X020989Y017956D03*
X025989Y016956D03*
X028489Y017956D03*
X033489Y016956D03*
X035989Y017956D03*
X040989Y016956D03*
X043489Y017956D03*
X048489Y016956D03*
X050989Y017956D03*
X056989Y016956D03*
X059489Y017956D03*
X065489Y016956D03*
X067989Y017956D03*
X060739Y024456D03*
X063239Y025456D03*
X063489Y031956D03*
X065989Y032956D03*
X058489Y032956D03*
X055989Y031956D03*
X050989Y032956D03*
X048489Y031956D03*
X043489Y032956D03*
X040989Y031956D03*
X035989Y032956D03*
X033489Y031956D03*
X028489Y032956D03*
X025989Y031956D03*
X020989Y032956D03*
X018489Y031956D03*
X013489Y032956D03*
X010989Y031956D03*
X013489Y025456D03*
X010989Y024456D03*
X013489Y017956D03*
X010989Y016956D03*
X018489Y024456D03*
X020989Y025456D03*
X025989Y024456D03*
X028489Y025456D03*
X033489Y024456D03*
X035989Y025456D03*
X040989Y024456D03*
X043489Y025456D03*
X048489Y024456D03*
X050989Y025456D03*
X048489Y039456D03*
X050989Y040456D03*
X043489Y040456D03*
X040989Y039456D03*
X035989Y040456D03*
X033489Y039456D03*
X028489Y040456D03*
X025989Y039456D03*
X020989Y040456D03*
X018489Y039456D03*
X013489Y040456D03*
X010989Y039456D03*
X010989Y049956D03*
X013489Y050956D03*
X018489Y049956D03*
X020989Y050956D03*
X028989Y049956D03*
X031489Y050956D03*
X036489Y049956D03*
X038989Y050956D03*
X043989Y049956D03*
X046489Y050956D03*
X051489Y049956D03*
X053989Y050956D03*
X065489Y049956D03*
X067989Y050956D03*
X062239Y040456D03*
X059739Y039456D03*
X059489Y010456D03*
X056989Y009456D03*
X049989Y010456D03*
X047489Y009456D03*
X041489Y010456D03*
X040427Y010456D03*
X038989Y009456D03*
X037927Y009456D03*
X032989Y010456D03*
X032052Y010456D03*
X030489Y009456D03*
X029552Y009456D03*
X065489Y009456D03*
X067989Y010456D03*
D11*
X068489Y011456D03*
X064489Y011456D03*
X059989Y011456D03*
X055989Y011456D03*
X050489Y011456D03*
X046489Y011456D03*
X041989Y011456D03*
X040927Y011456D03*
X037989Y011456D03*
X036927Y011456D03*
X033489Y011456D03*
X032552Y011456D03*
X029489Y011456D03*
X028552Y011456D03*
X028989Y018956D03*
X032489Y018956D03*
X036489Y018956D03*
X039989Y018956D03*
X043989Y018956D03*
X047489Y018956D03*
X051489Y018956D03*
X055989Y018956D03*
X059989Y018956D03*
X064489Y018956D03*
X068489Y018956D03*
X063739Y026456D03*
X059739Y026456D03*
X051489Y026456D03*
X047489Y026456D03*
X043989Y026456D03*
X039989Y026456D03*
X036489Y026456D03*
X032489Y026456D03*
X028989Y026456D03*
X024989Y026456D03*
X021489Y026456D03*
X017489Y026456D03*
X013989Y026456D03*
X009989Y026456D03*
X009989Y033956D03*
X013989Y033956D03*
X017489Y033956D03*
X021489Y033956D03*
X024989Y033956D03*
X028989Y033956D03*
X032489Y033956D03*
X036489Y033956D03*
X039989Y033956D03*
X043989Y033956D03*
X047489Y033956D03*
X051489Y033956D03*
X054989Y033956D03*
X058989Y033956D03*
X062489Y033956D03*
X066489Y033956D03*
X062739Y041456D03*
X058739Y041456D03*
X051489Y041456D03*
X047489Y041456D03*
X043989Y041456D03*
X039989Y041456D03*
X036489Y041456D03*
X032489Y041456D03*
X028989Y041456D03*
X024989Y041456D03*
X021489Y041456D03*
X017489Y041456D03*
X013989Y041456D03*
X009989Y041456D03*
X009989Y051956D03*
X013989Y051956D03*
X017489Y051956D03*
X021489Y051956D03*
X027989Y051956D03*
X031989Y051956D03*
X035489Y051956D03*
X039489Y051956D03*
X042989Y051956D03*
X046989Y051956D03*
X050489Y051956D03*
X054489Y051956D03*
X064489Y051956D03*
X068489Y051956D03*
X024989Y018956D03*
X021489Y018956D03*
X017489Y018956D03*
X013989Y018956D03*
X009989Y018956D03*
X014364Y011456D03*
X016364Y011456D03*
X018364Y011456D03*
X020364Y011456D03*
D12*
X018364Y011456D03*
X016364Y011456D03*
X019489Y018956D03*
X011989Y018956D03*
X011989Y026456D03*
X019489Y026456D03*
X026989Y026456D03*
X034489Y026456D03*
X041989Y026456D03*
X049489Y026456D03*
X049489Y033956D03*
X041989Y033956D03*
X034489Y033956D03*
X026989Y033956D03*
X019489Y033956D03*
X011989Y033956D03*
X011989Y041456D03*
X019489Y041456D03*
X026989Y041456D03*
X034489Y041456D03*
X041989Y041456D03*
X049489Y041456D03*
X056989Y033956D03*
X064489Y033956D03*
X061739Y026456D03*
X057989Y018956D03*
X057989Y011456D03*
X066489Y011456D03*
X066489Y018956D03*
X049489Y018956D03*
X041989Y018956D03*
X034489Y018956D03*
X026989Y018956D03*
X030552Y011456D03*
X031489Y011456D03*
X038927Y011456D03*
X039989Y011456D03*
X048489Y011456D03*
X060739Y041456D03*
X066489Y051956D03*
X052489Y051956D03*
X044989Y051956D03*
X037489Y051956D03*
X029989Y051956D03*
X019489Y051956D03*
X011989Y051956D03*
D13*
X011489Y053526D02*
X011489Y054386D01*
X010489Y054386D02*
X010489Y053526D01*
X012489Y053526D02*
X012489Y054386D01*
X013489Y054386D02*
X013489Y053526D01*
X017989Y053526D02*
X017989Y054386D01*
X018989Y054386D02*
X018989Y053526D01*
X019989Y053526D02*
X019989Y054386D01*
X020989Y054386D02*
X020989Y053526D01*
X028489Y053526D02*
X028489Y054386D01*
X029489Y054386D02*
X029489Y053526D01*
X030489Y053526D02*
X030489Y054386D01*
X031489Y054386D02*
X031489Y053526D01*
X035989Y053526D02*
X035989Y054386D01*
X036989Y054386D02*
X036989Y053526D01*
X037989Y053526D02*
X037989Y054386D01*
X038989Y054386D02*
X038989Y053526D01*
X043489Y053526D02*
X043489Y054386D01*
X044489Y054386D02*
X044489Y053526D01*
X045489Y053526D02*
X045489Y054386D01*
X046489Y054386D02*
X046489Y053526D01*
X050989Y053526D02*
X050989Y054386D01*
X051989Y054386D02*
X051989Y053526D01*
X052989Y053526D02*
X052989Y054386D01*
X053989Y054386D02*
X053989Y053526D01*
X050989Y043886D02*
X050989Y043026D01*
X049989Y043026D02*
X049989Y043886D01*
X048989Y043886D02*
X048989Y043026D01*
X047989Y043026D02*
X047989Y043886D01*
X043489Y043886D02*
X043489Y043026D01*
X042489Y043026D02*
X042489Y043886D01*
X041489Y043886D02*
X041489Y043026D01*
X040489Y043026D02*
X040489Y043886D01*
X035989Y043886D02*
X035989Y043026D01*
X034989Y043026D02*
X034989Y043886D01*
X033989Y043886D02*
X033989Y043026D01*
X032989Y043026D02*
X032989Y043886D01*
X028489Y043886D02*
X028489Y043026D01*
X027489Y043026D02*
X027489Y043886D01*
X026489Y043886D02*
X026489Y043026D01*
X025489Y043026D02*
X025489Y043886D01*
X020989Y043886D02*
X020989Y043026D01*
X019989Y043026D02*
X019989Y043886D01*
X018989Y043886D02*
X018989Y043026D01*
X017989Y043026D02*
X017989Y043886D01*
X013489Y043886D02*
X013489Y043026D01*
X012489Y043026D02*
X012489Y043886D01*
X011489Y043886D02*
X011489Y043026D01*
X010489Y043026D02*
X010489Y043886D01*
X010489Y036386D02*
X010489Y035526D01*
X011489Y035526D02*
X011489Y036386D01*
X012489Y036386D02*
X012489Y035526D01*
X013489Y035526D02*
X013489Y036386D01*
X017989Y036386D02*
X017989Y035526D01*
X018989Y035526D02*
X018989Y036386D01*
X019989Y036386D02*
X019989Y035526D01*
X020989Y035526D02*
X020989Y036386D01*
X025489Y036386D02*
X025489Y035526D01*
X026489Y035526D02*
X026489Y036386D01*
X027489Y036386D02*
X027489Y035526D01*
X028489Y035526D02*
X028489Y036386D01*
X032989Y036386D02*
X032989Y035526D01*
X033989Y035526D02*
X033989Y036386D01*
X034989Y036386D02*
X034989Y035526D01*
X035989Y035526D02*
X035989Y036386D01*
X040489Y036386D02*
X040489Y035526D01*
X041489Y035526D02*
X041489Y036386D01*
X042489Y036386D02*
X042489Y035526D01*
X043489Y035526D02*
X043489Y036386D01*
X047989Y036386D02*
X047989Y035526D01*
X048989Y035526D02*
X048989Y036386D01*
X049989Y036386D02*
X049989Y035526D01*
X050989Y035526D02*
X050989Y036386D01*
X055489Y036386D02*
X055489Y035526D01*
X056489Y035526D02*
X056489Y036386D01*
X057489Y036386D02*
X057489Y035526D01*
X058489Y035526D02*
X058489Y036386D01*
X062989Y036386D02*
X062989Y035526D01*
X063989Y035526D02*
X063989Y036386D01*
X064989Y036386D02*
X064989Y035526D01*
X065989Y035526D02*
X065989Y036386D01*
X062239Y043026D02*
X062239Y043886D01*
X061239Y043886D02*
X061239Y043026D01*
X060239Y043026D02*
X060239Y043886D01*
X059239Y043886D02*
X059239Y043026D01*
X064989Y053526D02*
X064989Y054386D01*
X065989Y054386D02*
X065989Y053526D01*
X066989Y053526D02*
X066989Y054386D01*
X067989Y054386D02*
X067989Y053526D01*
X063239Y028886D02*
X063239Y028026D01*
X062239Y028026D02*
X062239Y028886D01*
X061239Y028886D02*
X061239Y028026D01*
X060239Y028026D02*
X060239Y028886D01*
X059489Y021386D02*
X059489Y020526D01*
X058489Y020526D02*
X058489Y021386D01*
X057489Y021386D02*
X057489Y020526D01*
X056489Y020526D02*
X056489Y021386D01*
X050989Y021386D02*
X050989Y020526D01*
X049989Y020526D02*
X049989Y021386D01*
X048989Y021386D02*
X048989Y020526D01*
X047989Y020526D02*
X047989Y021386D01*
X043489Y021386D02*
X043489Y020526D01*
X042489Y020526D02*
X042489Y021386D01*
X041489Y021386D02*
X041489Y020526D01*
X040489Y020526D02*
X040489Y021386D01*
X035989Y021386D02*
X035989Y020526D01*
X034989Y020526D02*
X034989Y021386D01*
X033989Y021386D02*
X033989Y020526D01*
X032989Y020526D02*
X032989Y021386D01*
X028489Y021386D02*
X028489Y020526D01*
X027489Y020526D02*
X027489Y021386D01*
X026489Y021386D02*
X026489Y020526D01*
X025489Y020526D02*
X025489Y021386D01*
X020989Y021386D02*
X020989Y020526D01*
X019989Y020526D02*
X019989Y021386D01*
X018989Y021386D02*
X018989Y020526D01*
X017989Y020526D02*
X017989Y021386D01*
X013489Y021386D02*
X013489Y020526D01*
X012489Y020526D02*
X012489Y021386D01*
X011489Y021386D02*
X011489Y020526D01*
X010489Y020526D02*
X010489Y021386D01*
X010489Y028026D02*
X010489Y028886D01*
X011489Y028886D02*
X011489Y028026D01*
X012489Y028026D02*
X012489Y028886D01*
X013489Y028886D02*
X013489Y028026D01*
X017989Y028026D02*
X017989Y028886D01*
X018989Y028886D02*
X018989Y028026D01*
X019989Y028026D02*
X019989Y028886D01*
X020989Y028886D02*
X020989Y028026D01*
X025489Y028026D02*
X025489Y028886D01*
X026489Y028886D02*
X026489Y028026D01*
X027489Y028026D02*
X027489Y028886D01*
X028489Y028886D02*
X028489Y028026D01*
X032989Y028026D02*
X032989Y028886D01*
X033989Y028886D02*
X033989Y028026D01*
X034989Y028026D02*
X034989Y028886D01*
X035989Y028886D02*
X035989Y028026D01*
X040489Y028026D02*
X040489Y028886D01*
X041489Y028886D02*
X041489Y028026D01*
X042489Y028026D02*
X042489Y028886D01*
X043489Y028886D02*
X043489Y028026D01*
X047989Y028026D02*
X047989Y028886D01*
X048989Y028886D02*
X048989Y028026D01*
X049989Y028026D02*
X049989Y028886D01*
X050989Y028886D02*
X050989Y028026D01*
X064989Y021386D02*
X064989Y020526D01*
X065989Y020526D02*
X065989Y021386D01*
X066989Y021386D02*
X066989Y020526D01*
X067989Y020526D02*
X067989Y021386D01*
X067989Y013886D02*
X067989Y013026D01*
X066989Y013026D02*
X066989Y013886D01*
X065989Y013886D02*
X065989Y013026D01*
X064989Y013026D02*
X064989Y013886D01*
X059489Y013886D02*
X059489Y013026D01*
X058489Y013026D02*
X058489Y013886D01*
X057489Y013886D02*
X057489Y013026D01*
X056489Y013026D02*
X056489Y013886D01*
X049989Y013886D02*
X049989Y013026D01*
X048989Y013026D02*
X048989Y013886D01*
X047989Y013886D02*
X047989Y013026D01*
X046989Y013026D02*
X046989Y013886D01*
X041489Y013886D02*
X041489Y013026D01*
X040489Y013026D02*
X040489Y013886D01*
X039489Y013886D02*
X039489Y013026D01*
X038489Y013026D02*
X038489Y013886D01*
X032989Y013886D02*
X032989Y013026D01*
X031989Y013026D02*
X031989Y013886D01*
X030989Y013886D02*
X030989Y013026D01*
X029989Y013026D02*
X029989Y013886D01*
X017864Y013886D02*
X017864Y013026D01*
X016864Y013026D02*
X016864Y013886D01*
X015864Y013886D02*
X015864Y013026D01*
X014864Y013026D02*
X014864Y013886D01*
D14*
X016364Y011456D03*
X018364Y011456D03*
X021052Y008706D03*
X011677Y008706D03*
X011989Y018956D03*
X019489Y018956D03*
X026989Y018956D03*
X034489Y018956D03*
X041989Y018956D03*
X049489Y018956D03*
X057052Y023706D03*
X061739Y026456D03*
X066427Y023706D03*
X066489Y018956D03*
X066489Y011456D03*
X057989Y011456D03*
X057989Y018956D03*
X049489Y026456D03*
X041989Y026456D03*
X034489Y026456D03*
X026989Y026456D03*
X019489Y026456D03*
X011989Y026456D03*
X011989Y033956D03*
X019489Y033956D03*
X026989Y033956D03*
X034489Y033956D03*
X041989Y033956D03*
X049489Y033956D03*
X056052Y038706D03*
X060739Y041456D03*
X065427Y038706D03*
X064489Y033956D03*
X056989Y033956D03*
X049489Y041456D03*
X041989Y041456D03*
X034489Y041456D03*
X026989Y041456D03*
X019489Y041456D03*
X011989Y041456D03*
X011989Y051956D03*
X019489Y051956D03*
X029989Y051956D03*
X037489Y051956D03*
X044989Y051956D03*
X052489Y051956D03*
X066489Y051956D03*
X048489Y011456D03*
X039989Y011456D03*
X038927Y011456D03*
X031489Y011456D03*
X030552Y011456D03*
D15*
X034614Y011506D03*
X034614Y010906D03*
X034614Y015406D03*
X034614Y016006D03*
X035739Y016156D03*
X035739Y016756D03*
X027364Y016656D03*
X027364Y017256D03*
X039489Y024531D03*
X039489Y025131D03*
X052552Y018881D03*
X052552Y018281D03*
X059677Y016693D03*
X059677Y016093D03*
X067052Y016406D03*
X067052Y017006D03*
X062364Y023781D03*
X062364Y024381D03*
X065802Y031156D03*
X065802Y031756D03*
X049989Y039156D03*
X049989Y039756D03*
X045739Y049406D03*
X045739Y050006D03*
X055614Y051531D03*
X055614Y052131D03*
X067989Y049756D03*
X067989Y049156D03*
X024489Y032131D03*
X024489Y031531D03*
X020114Y031406D03*
X020114Y032006D03*
X013489Y031756D03*
X013489Y031156D03*
X013489Y024256D03*
X013489Y023656D03*
X012614Y016756D03*
X012614Y016156D03*
X013052Y038656D03*
X013052Y039256D03*
X012364Y049281D03*
X012364Y049881D03*
X015739Y052031D03*
X015739Y052631D03*
X022614Y052406D03*
X022614Y053006D03*
X066989Y009506D03*
X066989Y008906D03*
D16*
X064414Y010206D03*
X063814Y010206D03*
X061914Y010456D03*
X061314Y010456D03*
X056039Y009706D03*
X055439Y009706D03*
X051789Y010456D03*
X051189Y010456D03*
X046414Y010331D03*
X045814Y010331D03*
X043289Y010456D03*
X042689Y010456D03*
X036914Y010331D03*
X036314Y010331D03*
X028289Y009456D03*
X027689Y009456D03*
X019289Y009081D03*
X018689Y009081D03*
X013914Y009456D03*
X013314Y009456D03*
X009789Y016956D03*
X009189Y016956D03*
X017189Y017831D03*
X017789Y017831D03*
X022189Y017831D03*
X022789Y017831D03*
X024064Y017831D03*
X024664Y017831D03*
X028064Y024081D03*
X028664Y024081D03*
X031689Y025206D03*
X032289Y025206D03*
X037189Y025456D03*
X037789Y025456D03*
X044689Y025456D03*
X045289Y025456D03*
X046689Y025456D03*
X047289Y025456D03*
X052189Y025456D03*
X052789Y025456D03*
X058877Y024518D03*
X059477Y024518D03*
X055914Y017831D03*
X055314Y017831D03*
X049664Y015831D03*
X049064Y015831D03*
X045414Y017956D03*
X044814Y017956D03*
X042727Y016768D03*
X042127Y016768D03*
X024914Y025206D03*
X024314Y025206D03*
X023289Y026706D03*
X022689Y026706D03*
X017289Y025206D03*
X016689Y025206D03*
X009789Y024456D03*
X009189Y024456D03*
X009189Y031956D03*
X009789Y031956D03*
X016627Y032831D03*
X017227Y032831D03*
X020564Y039206D03*
X021164Y039206D03*
X017477Y040331D03*
X016877Y040331D03*
X009789Y039456D03*
X009189Y039456D03*
X009189Y049956D03*
X009789Y049956D03*
X027189Y050831D03*
X027789Y050831D03*
X032189Y049956D03*
X032789Y049956D03*
X034939Y050706D03*
X035539Y050706D03*
X040189Y050956D03*
X040789Y050956D03*
X042189Y049956D03*
X042789Y049956D03*
X052689Y049706D03*
X053289Y049706D03*
X063564Y050706D03*
X064164Y050706D03*
X063877Y040893D03*
X064477Y040893D03*
X058539Y039456D03*
X057939Y039456D03*
X055039Y032956D03*
X054439Y032956D03*
X053164Y033331D03*
X052564Y033331D03*
X057814Y031581D03*
X058414Y031581D03*
X061689Y032268D03*
X062289Y032268D03*
X047289Y032706D03*
X046689Y032706D03*
X045289Y032956D03*
X044689Y032956D03*
X039789Y032706D03*
X039189Y032706D03*
X037789Y032956D03*
X037189Y032956D03*
X032289Y032706D03*
X031689Y032706D03*
X030289Y032956D03*
X029689Y032956D03*
X027789Y039206D03*
X027189Y039206D03*
X030064Y041706D03*
X030664Y041706D03*
X031689Y040331D03*
X032289Y040331D03*
X037314Y040456D03*
X037914Y040456D03*
X039439Y040393D03*
X040039Y040393D03*
X044689Y040456D03*
X045289Y040456D03*
X046689Y040206D03*
X047289Y040206D03*
X063814Y017768D03*
X064414Y017768D03*
D17*
X054783Y009706D03*
X053445Y009706D03*
X051533Y016581D03*
X050195Y016581D03*
G36*
X047892Y023734D02*
X048338Y023288D01*
X047782Y022732D01*
X047336Y023178D01*
X047892Y023734D01*
G37*
G36*
X046946Y024680D02*
X047392Y024234D01*
X046836Y023678D01*
X046390Y024124D01*
X046946Y024680D01*
G37*
X052070Y027581D03*
X053408Y027581D03*
X050283Y030581D03*
X048945Y030581D03*
X042408Y030456D03*
X041070Y030456D03*
X041408Y037956D03*
X040070Y037956D03*
X045570Y048456D03*
X046908Y048456D03*
X052257Y042456D03*
X053596Y042456D03*
X060070Y034581D03*
X061408Y034581D03*
X062820Y053331D03*
X064158Y053331D03*
X033783Y053081D03*
X032445Y053081D03*
G36*
X021774Y048672D02*
X022220Y049118D01*
X022776Y048562D01*
X022330Y048116D01*
X021774Y048672D01*
G37*
G36*
X020827Y047725D02*
X021273Y048171D01*
X021829Y047615D01*
X021383Y047169D01*
X020827Y047725D01*
G37*
G36*
X021326Y047023D02*
X021641Y047567D01*
X022322Y047173D01*
X022007Y046629D01*
X021326Y047023D01*
G37*
G36*
X020657Y045864D02*
X020972Y046408D01*
X021653Y046014D01*
X021338Y045470D01*
X020657Y045864D01*
G37*
X016908Y035706D03*
X015570Y035706D03*
X017695Y030331D03*
X019033Y030331D03*
G36*
X025196Y031305D02*
X025642Y030859D01*
X025086Y030303D01*
X024640Y030749D01*
X025196Y031305D01*
G37*
G36*
X026142Y030359D02*
X026588Y029913D01*
X026032Y029357D01*
X025586Y029803D01*
X026142Y030359D01*
G37*
X021408Y023206D03*
X020070Y023206D03*
X032445Y015456D03*
X033783Y015456D03*
X034320Y009831D03*
X035658Y009831D03*
X026908Y009518D03*
X025570Y009518D03*
X022908Y009956D03*
X021570Y009956D03*
X067820Y009081D03*
X069158Y009081D03*
D18*
X063114Y019037D03*
X063114Y020375D03*
X054802Y020813D03*
X054802Y019474D03*
X044364Y010375D03*
X044364Y009037D03*
X042552Y014537D03*
X042552Y015875D03*
X039989Y022287D03*
X039989Y023625D03*
X038739Y027037D03*
X038739Y028375D03*
X038489Y034162D03*
X038489Y035500D03*
X037739Y041662D03*
X037739Y043000D03*
X030864Y041000D03*
X030864Y039662D03*
X020989Y031375D03*
X020989Y030037D03*
X023239Y025875D03*
X023239Y024537D03*
X027239Y023750D03*
X027239Y022412D03*
X026802Y014250D03*
X026802Y012912D03*
X016052Y017474D03*
X014989Y016912D03*
X013739Y016625D03*
X013739Y015287D03*
X014989Y018250D03*
X016052Y018813D03*
X019739Y037412D03*
X019739Y038750D03*
X034739Y052787D03*
X034739Y054125D03*
X022489Y053787D03*
X022489Y055125D03*
X046239Y042250D03*
X046239Y040912D03*
X055114Y053037D03*
X055114Y054375D03*
X059927Y033813D03*
X059927Y032474D03*
D19*
X058864Y046081D03*
X058864Y047081D03*
X058864Y048081D03*
X058864Y049081D03*
X058864Y050081D03*
X058864Y051081D03*
X058864Y052081D03*
X058864Y053081D03*
X061864Y053081D03*
X061864Y052081D03*
X061864Y051081D03*
X061864Y050081D03*
X061864Y049081D03*
X061864Y048081D03*
X061864Y046081D03*
X029114Y045206D03*
X028114Y045206D03*
X027114Y045206D03*
X026114Y045206D03*
X025114Y045206D03*
X024114Y045206D03*
X023114Y045206D03*
X023114Y048206D03*
X024114Y048206D03*
X025114Y048206D03*
X026114Y048206D03*
X027114Y048206D03*
X028114Y048206D03*
X029114Y048206D03*
X019364Y046331D03*
X018364Y046331D03*
X017364Y046331D03*
D20*
X016364Y046744D02*
X016364Y045917D01*
X015364Y045917D02*
X015364Y046744D01*
X014364Y046744D02*
X014364Y045917D01*
X013364Y045917D02*
X013364Y046744D01*
X012364Y046744D02*
X012364Y045917D01*
X011364Y045917D02*
X011364Y046744D01*
X010364Y046744D02*
X010364Y045917D01*
X061451Y047081D02*
X062278Y047081D01*
D21*
X020364Y046331D03*
D22*
X023149Y049206D03*
X023149Y049956D03*
X023149Y050706D03*
X024329Y050706D03*
X025149Y050706D03*
X024329Y049956D03*
X024329Y049206D03*
X025399Y049206D03*
X026579Y049206D03*
X026329Y050706D03*
X026524Y052956D03*
X027704Y052956D03*
X035524Y047831D03*
X035399Y046956D03*
X035274Y046081D03*
X035274Y045206D03*
X036454Y045206D03*
X036454Y046081D03*
X036579Y046956D03*
X036704Y047831D03*
X043149Y047831D03*
X044329Y047831D03*
X044329Y046956D03*
X044329Y046081D03*
X043149Y046081D03*
X043149Y046956D03*
X044649Y043081D03*
X045829Y043081D03*
X043954Y038331D03*
X042774Y038331D03*
X050149Y037956D03*
X051329Y037956D03*
X052587Y032331D03*
X053767Y032331D03*
X045829Y027956D03*
X044649Y027956D03*
X050399Y023456D03*
X051579Y023456D03*
X046017Y019706D03*
X044837Y019706D03*
G36*
X040488Y015379D02*
X040015Y015852D01*
X040406Y016243D01*
X040879Y015770D01*
X040488Y015379D01*
G37*
G36*
X041322Y014544D02*
X040849Y015017D01*
X041240Y015408D01*
X041713Y014935D01*
X041322Y014544D01*
G37*
X036579Y013706D03*
X035399Y013706D03*
X027079Y015456D03*
X025899Y015456D03*
X027899Y030956D03*
X029079Y030956D03*
X028329Y038331D03*
X027149Y038331D03*
X050649Y046081D03*
X050649Y046956D03*
X050649Y047831D03*
X051829Y047831D03*
X052524Y047956D03*
X052524Y047081D03*
X051829Y046956D03*
X051829Y046081D03*
X052524Y046206D03*
X053704Y046206D03*
X053704Y047081D03*
X053704Y047956D03*
X053704Y048831D03*
X052524Y048831D03*
X056399Y055206D03*
X057579Y055206D03*
X061837Y022706D03*
X063017Y022706D03*
X054392Y017518D03*
X053212Y017518D03*
X061899Y012456D03*
X063079Y012456D03*
D23*
X024454Y043206D03*
X023274Y043206D03*
X059712Y048081D03*
X060892Y048081D03*
D24*
X060892Y049081D03*
X059711Y049081D03*
D25*
X060239Y051491D03*
X060989Y051491D03*
X060989Y052671D03*
X060239Y052671D03*
X060364Y053491D03*
X060364Y054671D03*
X056989Y054421D03*
X056114Y054296D03*
X056114Y053116D03*
X056989Y053241D03*
X054302Y041796D03*
X054302Y040616D03*
X065302Y040303D03*
X065302Y041483D03*
X030739Y035796D03*
X030739Y034616D03*
X022364Y042991D03*
X022364Y044171D03*
X025739Y052928D03*
X025739Y054108D03*
X023739Y054546D03*
X023739Y053366D03*
X062114Y009546D03*
X062114Y008366D03*
D26*
X024614Y053207D03*
X024614Y053955D03*
D27*
X025240Y052206D03*
X025988Y052206D03*
X025113Y051456D03*
X024365Y051456D03*
X023863Y042456D03*
X023115Y042456D03*
X023238Y041706D03*
X022490Y041706D03*
D28*
X056054Y038700D03*
X065424Y038700D03*
X066424Y023700D03*
X057054Y023700D03*
X021049Y008700D03*
X011679Y008700D03*
D29*
X011679Y014700D03*
X011677Y014706D03*
X021049Y014700D03*
X021052Y014706D03*
X056054Y044700D03*
X056052Y044706D03*
X065424Y044700D03*
X065427Y044706D03*
X066427Y029706D03*
X066424Y029700D03*
X057054Y029700D03*
X057052Y029706D03*
D30*
X007239Y006456D03*
X009489Y006456D03*
X015739Y006456D03*
X019489Y006456D03*
X029239Y006456D03*
X036739Y006456D03*
X046239Y006456D03*
X055739Y006456D03*
X063614Y006456D03*
X071552Y006456D03*
X071552Y015206D03*
X071552Y022706D03*
X071552Y030206D03*
X071552Y037706D03*
X071552Y046706D03*
X071552Y056956D03*
X060177Y056956D03*
X048739Y056956D03*
X041239Y056956D03*
X033739Y056956D03*
X024739Y056956D03*
X015739Y056956D03*
X009489Y056956D03*
D31*
X015739Y049956D03*
X015739Y037706D03*
X023239Y037706D03*
X031114Y037831D03*
X038239Y037706D03*
X045739Y037706D03*
X053239Y037706D03*
X054114Y044456D03*
X048677Y048331D03*
X045864Y045018D03*
X041239Y048268D03*
X038239Y045393D03*
X033677Y048331D03*
X030989Y045143D03*
X031114Y030206D03*
X038239Y030206D03*
X045739Y030206D03*
X053614Y030206D03*
X060739Y030206D03*
X060552Y037643D03*
X053239Y022706D03*
X045739Y022706D03*
X038177Y023206D03*
X030739Y022706D03*
X030489Y015456D03*
X023239Y014956D03*
X015739Y015206D03*
X015739Y022706D03*
X023239Y022706D03*
X023239Y030206D03*
X015739Y030206D03*
X037989Y015331D03*
X046114Y015206D03*
X053239Y015206D03*
X062739Y015206D03*
D32*
X029114Y046082D03*
X023239Y040706D03*
X024239Y052331D03*
X056864Y046456D03*
X061864Y053956D03*
M02*
