G75*
G70*
%OFA0B0*%
%FSLAX24Y24*%
%IPPOS*%
%LPD*%
%AMOC8*
5,1,8,0,0,1.08239X$1,22.5*
%
%ADD10C,0.0079*%
%ADD11C,0.0100*%
%ADD12C,0.0000*%
D10*
X006612Y006600D02*
X068675Y006600D01*
X068743Y006602D01*
X068810Y006607D01*
X068877Y006616D01*
X068944Y006629D01*
X069009Y006646D01*
X069074Y006665D01*
X069138Y006689D01*
X069200Y006716D01*
X069261Y006746D01*
X069319Y006779D01*
X069376Y006815D01*
X069431Y006855D01*
X069484Y006897D01*
X069535Y006943D01*
X069582Y006990D01*
X069628Y007041D01*
X069670Y007094D01*
X069710Y007149D01*
X069746Y007206D01*
X069779Y007264D01*
X069809Y007325D01*
X069836Y007387D01*
X069860Y007451D01*
X069879Y007516D01*
X069896Y007581D01*
X069909Y007648D01*
X069918Y007715D01*
X069923Y007782D01*
X069925Y007850D01*
X069925Y058350D01*
X069923Y058418D01*
X069918Y058485D01*
X069909Y058552D01*
X069896Y058619D01*
X069879Y058684D01*
X069860Y058749D01*
X069836Y058813D01*
X069809Y058875D01*
X069779Y058936D01*
X069746Y058994D01*
X069710Y059051D01*
X069670Y059106D01*
X069628Y059159D01*
X069582Y059210D01*
X069535Y059257D01*
X069484Y059303D01*
X069431Y059345D01*
X069376Y059385D01*
X069319Y059421D01*
X069261Y059454D01*
X069200Y059484D01*
X069138Y059511D01*
X069074Y059535D01*
X069009Y059554D01*
X068944Y059571D01*
X068877Y059584D01*
X068810Y059593D01*
X068743Y059598D01*
X068675Y059600D01*
X006612Y059600D01*
X006544Y059598D01*
X006477Y059593D01*
X006410Y059584D01*
X006343Y059571D01*
X006278Y059554D01*
X006213Y059535D01*
X006149Y059511D01*
X006087Y059484D01*
X006026Y059454D01*
X005968Y059421D01*
X005911Y059385D01*
X005856Y059345D01*
X005803Y059303D01*
X005752Y059257D01*
X005705Y059210D01*
X005659Y059159D01*
X005617Y059106D01*
X005577Y059051D01*
X005541Y058994D01*
X005508Y058936D01*
X005478Y058875D01*
X005451Y058813D01*
X005427Y058749D01*
X005408Y058684D01*
X005391Y058619D01*
X005378Y058552D01*
X005369Y058485D01*
X005364Y058418D01*
X005362Y058350D01*
X005362Y016475D01*
X003175Y016475D01*
X003175Y009163D01*
X005362Y009163D01*
X005362Y007850D01*
X005364Y007782D01*
X005369Y007715D01*
X005378Y007648D01*
X005391Y007581D01*
X005408Y007516D01*
X005427Y007451D01*
X005451Y007387D01*
X005478Y007325D01*
X005508Y007264D01*
X005541Y007206D01*
X005577Y007149D01*
X005617Y007094D01*
X005659Y007041D01*
X005705Y006990D01*
X005752Y006943D01*
X005803Y006897D01*
X005856Y006855D01*
X005911Y006815D01*
X005968Y006779D01*
X006026Y006746D01*
X006087Y006716D01*
X006149Y006689D01*
X006213Y006665D01*
X006278Y006646D01*
X006343Y006629D01*
X006410Y006616D01*
X006477Y006607D01*
X006544Y006602D01*
X006612Y006600D01*
D11*
X012271Y016600D02*
X012273Y016648D01*
X012279Y016696D01*
X012289Y016743D01*
X012302Y016789D01*
X012320Y016834D01*
X012340Y016878D01*
X012365Y016920D01*
X012393Y016959D01*
X012423Y016996D01*
X012457Y017030D01*
X012494Y017062D01*
X012532Y017091D01*
X012573Y017116D01*
X012616Y017138D01*
X012661Y017156D01*
X012707Y017170D01*
X012754Y017181D01*
X012802Y017188D01*
X012850Y017191D01*
X012898Y017190D01*
X012946Y017185D01*
X012994Y017176D01*
X013040Y017164D01*
X013085Y017147D01*
X013129Y017127D01*
X013171Y017104D01*
X013211Y017077D01*
X013249Y017047D01*
X013284Y017014D01*
X013316Y016978D01*
X013346Y016940D01*
X013372Y016899D01*
X013394Y016856D01*
X013414Y016812D01*
X013429Y016767D01*
X013441Y016720D01*
X013449Y016672D01*
X013453Y016624D01*
X013453Y016576D01*
X013449Y016528D01*
X013441Y016480D01*
X013429Y016433D01*
X013414Y016388D01*
X013394Y016344D01*
X013372Y016301D01*
X013346Y016260D01*
X013316Y016222D01*
X013284Y016186D01*
X013249Y016153D01*
X013211Y016123D01*
X013171Y016096D01*
X013129Y016073D01*
X013085Y016053D01*
X013040Y016036D01*
X012994Y016024D01*
X012946Y016015D01*
X012898Y016010D01*
X012850Y016009D01*
X012802Y016012D01*
X012754Y016019D01*
X012707Y016030D01*
X012661Y016044D01*
X012616Y016062D01*
X012573Y016084D01*
X012532Y016109D01*
X012494Y016138D01*
X012457Y016170D01*
X012423Y016204D01*
X012393Y016241D01*
X012365Y016280D01*
X012340Y016322D01*
X012320Y016366D01*
X012302Y016411D01*
X012289Y016457D01*
X012279Y016504D01*
X012273Y016552D01*
X012271Y016600D01*
X012271Y024100D02*
X012273Y024148D01*
X012279Y024196D01*
X012289Y024243D01*
X012302Y024289D01*
X012320Y024334D01*
X012340Y024378D01*
X012365Y024420D01*
X012393Y024459D01*
X012423Y024496D01*
X012457Y024530D01*
X012494Y024562D01*
X012532Y024591D01*
X012573Y024616D01*
X012616Y024638D01*
X012661Y024656D01*
X012707Y024670D01*
X012754Y024681D01*
X012802Y024688D01*
X012850Y024691D01*
X012898Y024690D01*
X012946Y024685D01*
X012994Y024676D01*
X013040Y024664D01*
X013085Y024647D01*
X013129Y024627D01*
X013171Y024604D01*
X013211Y024577D01*
X013249Y024547D01*
X013284Y024514D01*
X013316Y024478D01*
X013346Y024440D01*
X013372Y024399D01*
X013394Y024356D01*
X013414Y024312D01*
X013429Y024267D01*
X013441Y024220D01*
X013449Y024172D01*
X013453Y024124D01*
X013453Y024076D01*
X013449Y024028D01*
X013441Y023980D01*
X013429Y023933D01*
X013414Y023888D01*
X013394Y023844D01*
X013372Y023801D01*
X013346Y023760D01*
X013316Y023722D01*
X013284Y023686D01*
X013249Y023653D01*
X013211Y023623D01*
X013171Y023596D01*
X013129Y023573D01*
X013085Y023553D01*
X013040Y023536D01*
X012994Y023524D01*
X012946Y023515D01*
X012898Y023510D01*
X012850Y023509D01*
X012802Y023512D01*
X012754Y023519D01*
X012707Y023530D01*
X012661Y023544D01*
X012616Y023562D01*
X012573Y023584D01*
X012532Y023609D01*
X012494Y023638D01*
X012457Y023670D01*
X012423Y023704D01*
X012393Y023741D01*
X012365Y023780D01*
X012340Y023822D01*
X012320Y023866D01*
X012302Y023911D01*
X012289Y023957D01*
X012279Y024004D01*
X012273Y024052D01*
X012271Y024100D01*
X012271Y031600D02*
X012273Y031648D01*
X012279Y031696D01*
X012289Y031743D01*
X012302Y031789D01*
X012320Y031834D01*
X012340Y031878D01*
X012365Y031920D01*
X012393Y031959D01*
X012423Y031996D01*
X012457Y032030D01*
X012494Y032062D01*
X012532Y032091D01*
X012573Y032116D01*
X012616Y032138D01*
X012661Y032156D01*
X012707Y032170D01*
X012754Y032181D01*
X012802Y032188D01*
X012850Y032191D01*
X012898Y032190D01*
X012946Y032185D01*
X012994Y032176D01*
X013040Y032164D01*
X013085Y032147D01*
X013129Y032127D01*
X013171Y032104D01*
X013211Y032077D01*
X013249Y032047D01*
X013284Y032014D01*
X013316Y031978D01*
X013346Y031940D01*
X013372Y031899D01*
X013394Y031856D01*
X013414Y031812D01*
X013429Y031767D01*
X013441Y031720D01*
X013449Y031672D01*
X013453Y031624D01*
X013453Y031576D01*
X013449Y031528D01*
X013441Y031480D01*
X013429Y031433D01*
X013414Y031388D01*
X013394Y031344D01*
X013372Y031301D01*
X013346Y031260D01*
X013316Y031222D01*
X013284Y031186D01*
X013249Y031153D01*
X013211Y031123D01*
X013171Y031096D01*
X013129Y031073D01*
X013085Y031053D01*
X013040Y031036D01*
X012994Y031024D01*
X012946Y031015D01*
X012898Y031010D01*
X012850Y031009D01*
X012802Y031012D01*
X012754Y031019D01*
X012707Y031030D01*
X012661Y031044D01*
X012616Y031062D01*
X012573Y031084D01*
X012532Y031109D01*
X012494Y031138D01*
X012457Y031170D01*
X012423Y031204D01*
X012393Y031241D01*
X012365Y031280D01*
X012340Y031322D01*
X012320Y031366D01*
X012302Y031411D01*
X012289Y031457D01*
X012279Y031504D01*
X012273Y031552D01*
X012271Y031600D01*
X012271Y039100D02*
X012273Y039148D01*
X012279Y039196D01*
X012289Y039243D01*
X012302Y039289D01*
X012320Y039334D01*
X012340Y039378D01*
X012365Y039420D01*
X012393Y039459D01*
X012423Y039496D01*
X012457Y039530D01*
X012494Y039562D01*
X012532Y039591D01*
X012573Y039616D01*
X012616Y039638D01*
X012661Y039656D01*
X012707Y039670D01*
X012754Y039681D01*
X012802Y039688D01*
X012850Y039691D01*
X012898Y039690D01*
X012946Y039685D01*
X012994Y039676D01*
X013040Y039664D01*
X013085Y039647D01*
X013129Y039627D01*
X013171Y039604D01*
X013211Y039577D01*
X013249Y039547D01*
X013284Y039514D01*
X013316Y039478D01*
X013346Y039440D01*
X013372Y039399D01*
X013394Y039356D01*
X013414Y039312D01*
X013429Y039267D01*
X013441Y039220D01*
X013449Y039172D01*
X013453Y039124D01*
X013453Y039076D01*
X013449Y039028D01*
X013441Y038980D01*
X013429Y038933D01*
X013414Y038888D01*
X013394Y038844D01*
X013372Y038801D01*
X013346Y038760D01*
X013316Y038722D01*
X013284Y038686D01*
X013249Y038653D01*
X013211Y038623D01*
X013171Y038596D01*
X013129Y038573D01*
X013085Y038553D01*
X013040Y038536D01*
X012994Y038524D01*
X012946Y038515D01*
X012898Y038510D01*
X012850Y038509D01*
X012802Y038512D01*
X012754Y038519D01*
X012707Y038530D01*
X012661Y038544D01*
X012616Y038562D01*
X012573Y038584D01*
X012532Y038609D01*
X012494Y038638D01*
X012457Y038670D01*
X012423Y038704D01*
X012393Y038741D01*
X012365Y038780D01*
X012340Y038822D01*
X012320Y038866D01*
X012302Y038911D01*
X012289Y038957D01*
X012279Y039004D01*
X012273Y039052D01*
X012271Y039100D01*
X019378Y039100D02*
X019380Y039162D01*
X019386Y039225D01*
X019396Y039286D01*
X019410Y039347D01*
X019427Y039407D01*
X019448Y039466D01*
X019474Y039523D01*
X019502Y039578D01*
X019534Y039632D01*
X019570Y039683D01*
X019608Y039733D01*
X019650Y039779D01*
X019694Y039823D01*
X019742Y039864D01*
X019791Y039902D01*
X019843Y039936D01*
X019897Y039967D01*
X019953Y039995D01*
X020011Y040019D01*
X020070Y040040D01*
X020130Y040056D01*
X020191Y040069D01*
X020253Y040078D01*
X020315Y040083D01*
X020378Y040084D01*
X020440Y040081D01*
X020502Y040074D01*
X020564Y040063D01*
X020624Y040048D01*
X020684Y040030D01*
X020742Y040008D01*
X020799Y039982D01*
X020854Y039952D01*
X020907Y039919D01*
X020958Y039883D01*
X021006Y039844D01*
X021052Y039801D01*
X021095Y039756D01*
X021135Y039708D01*
X021172Y039658D01*
X021206Y039605D01*
X021237Y039551D01*
X021263Y039495D01*
X021287Y039437D01*
X021306Y039377D01*
X021322Y039317D01*
X021334Y039255D01*
X021342Y039194D01*
X021346Y039131D01*
X021346Y039069D01*
X021342Y039006D01*
X021334Y038945D01*
X021322Y038883D01*
X021306Y038823D01*
X021287Y038763D01*
X021263Y038705D01*
X021237Y038649D01*
X021206Y038595D01*
X021172Y038542D01*
X021135Y038492D01*
X021095Y038444D01*
X021052Y038399D01*
X021006Y038356D01*
X020958Y038317D01*
X020907Y038281D01*
X020854Y038248D01*
X020799Y038218D01*
X020742Y038192D01*
X020684Y038170D01*
X020624Y038152D01*
X020564Y038137D01*
X020502Y038126D01*
X020440Y038119D01*
X020378Y038116D01*
X020315Y038117D01*
X020253Y038122D01*
X020191Y038131D01*
X020130Y038144D01*
X020070Y038160D01*
X020011Y038181D01*
X019953Y038205D01*
X019897Y038233D01*
X019843Y038264D01*
X019791Y038298D01*
X019742Y038336D01*
X019694Y038377D01*
X019650Y038421D01*
X019608Y038467D01*
X019570Y038517D01*
X019534Y038568D01*
X019502Y038622D01*
X019474Y038677D01*
X019448Y038734D01*
X019427Y038793D01*
X019410Y038853D01*
X019396Y038914D01*
X019386Y038975D01*
X019380Y039038D01*
X019378Y039100D01*
X019378Y031600D02*
X019380Y031662D01*
X019386Y031725D01*
X019396Y031786D01*
X019410Y031847D01*
X019427Y031907D01*
X019448Y031966D01*
X019474Y032023D01*
X019502Y032078D01*
X019534Y032132D01*
X019570Y032183D01*
X019608Y032233D01*
X019650Y032279D01*
X019694Y032323D01*
X019742Y032364D01*
X019791Y032402D01*
X019843Y032436D01*
X019897Y032467D01*
X019953Y032495D01*
X020011Y032519D01*
X020070Y032540D01*
X020130Y032556D01*
X020191Y032569D01*
X020253Y032578D01*
X020315Y032583D01*
X020378Y032584D01*
X020440Y032581D01*
X020502Y032574D01*
X020564Y032563D01*
X020624Y032548D01*
X020684Y032530D01*
X020742Y032508D01*
X020799Y032482D01*
X020854Y032452D01*
X020907Y032419D01*
X020958Y032383D01*
X021006Y032344D01*
X021052Y032301D01*
X021095Y032256D01*
X021135Y032208D01*
X021172Y032158D01*
X021206Y032105D01*
X021237Y032051D01*
X021263Y031995D01*
X021287Y031937D01*
X021306Y031877D01*
X021322Y031817D01*
X021334Y031755D01*
X021342Y031694D01*
X021346Y031631D01*
X021346Y031569D01*
X021342Y031506D01*
X021334Y031445D01*
X021322Y031383D01*
X021306Y031323D01*
X021287Y031263D01*
X021263Y031205D01*
X021237Y031149D01*
X021206Y031095D01*
X021172Y031042D01*
X021135Y030992D01*
X021095Y030944D01*
X021052Y030899D01*
X021006Y030856D01*
X020958Y030817D01*
X020907Y030781D01*
X020854Y030748D01*
X020799Y030718D01*
X020742Y030692D01*
X020684Y030670D01*
X020624Y030652D01*
X020564Y030637D01*
X020502Y030626D01*
X020440Y030619D01*
X020378Y030616D01*
X020315Y030617D01*
X020253Y030622D01*
X020191Y030631D01*
X020130Y030644D01*
X020070Y030660D01*
X020011Y030681D01*
X019953Y030705D01*
X019897Y030733D01*
X019843Y030764D01*
X019791Y030798D01*
X019742Y030836D01*
X019694Y030877D01*
X019650Y030921D01*
X019608Y030967D01*
X019570Y031017D01*
X019534Y031068D01*
X019502Y031122D01*
X019474Y031177D01*
X019448Y031234D01*
X019427Y031293D01*
X019410Y031353D01*
X019396Y031414D01*
X019386Y031475D01*
X019380Y031538D01*
X019378Y031600D01*
X019378Y024100D02*
X019380Y024162D01*
X019386Y024225D01*
X019396Y024286D01*
X019410Y024347D01*
X019427Y024407D01*
X019448Y024466D01*
X019474Y024523D01*
X019502Y024578D01*
X019534Y024632D01*
X019570Y024683D01*
X019608Y024733D01*
X019650Y024779D01*
X019694Y024823D01*
X019742Y024864D01*
X019791Y024902D01*
X019843Y024936D01*
X019897Y024967D01*
X019953Y024995D01*
X020011Y025019D01*
X020070Y025040D01*
X020130Y025056D01*
X020191Y025069D01*
X020253Y025078D01*
X020315Y025083D01*
X020378Y025084D01*
X020440Y025081D01*
X020502Y025074D01*
X020564Y025063D01*
X020624Y025048D01*
X020684Y025030D01*
X020742Y025008D01*
X020799Y024982D01*
X020854Y024952D01*
X020907Y024919D01*
X020958Y024883D01*
X021006Y024844D01*
X021052Y024801D01*
X021095Y024756D01*
X021135Y024708D01*
X021172Y024658D01*
X021206Y024605D01*
X021237Y024551D01*
X021263Y024495D01*
X021287Y024437D01*
X021306Y024377D01*
X021322Y024317D01*
X021334Y024255D01*
X021342Y024194D01*
X021346Y024131D01*
X021346Y024069D01*
X021342Y024006D01*
X021334Y023945D01*
X021322Y023883D01*
X021306Y023823D01*
X021287Y023763D01*
X021263Y023705D01*
X021237Y023649D01*
X021206Y023595D01*
X021172Y023542D01*
X021135Y023492D01*
X021095Y023444D01*
X021052Y023399D01*
X021006Y023356D01*
X020958Y023317D01*
X020907Y023281D01*
X020854Y023248D01*
X020799Y023218D01*
X020742Y023192D01*
X020684Y023170D01*
X020624Y023152D01*
X020564Y023137D01*
X020502Y023126D01*
X020440Y023119D01*
X020378Y023116D01*
X020315Y023117D01*
X020253Y023122D01*
X020191Y023131D01*
X020130Y023144D01*
X020070Y023160D01*
X020011Y023181D01*
X019953Y023205D01*
X019897Y023233D01*
X019843Y023264D01*
X019791Y023298D01*
X019742Y023336D01*
X019694Y023377D01*
X019650Y023421D01*
X019608Y023467D01*
X019570Y023517D01*
X019534Y023568D01*
X019502Y023622D01*
X019474Y023677D01*
X019448Y023734D01*
X019427Y023793D01*
X019410Y023853D01*
X019396Y023914D01*
X019386Y023975D01*
X019380Y024038D01*
X019378Y024100D01*
X019378Y016600D02*
X019380Y016662D01*
X019386Y016725D01*
X019396Y016786D01*
X019410Y016847D01*
X019427Y016907D01*
X019448Y016966D01*
X019474Y017023D01*
X019502Y017078D01*
X019534Y017132D01*
X019570Y017183D01*
X019608Y017233D01*
X019650Y017279D01*
X019694Y017323D01*
X019742Y017364D01*
X019791Y017402D01*
X019843Y017436D01*
X019897Y017467D01*
X019953Y017495D01*
X020011Y017519D01*
X020070Y017540D01*
X020130Y017556D01*
X020191Y017569D01*
X020253Y017578D01*
X020315Y017583D01*
X020378Y017584D01*
X020440Y017581D01*
X020502Y017574D01*
X020564Y017563D01*
X020624Y017548D01*
X020684Y017530D01*
X020742Y017508D01*
X020799Y017482D01*
X020854Y017452D01*
X020907Y017419D01*
X020958Y017383D01*
X021006Y017344D01*
X021052Y017301D01*
X021095Y017256D01*
X021135Y017208D01*
X021172Y017158D01*
X021206Y017105D01*
X021237Y017051D01*
X021263Y016995D01*
X021287Y016937D01*
X021306Y016877D01*
X021322Y016817D01*
X021334Y016755D01*
X021342Y016694D01*
X021346Y016631D01*
X021346Y016569D01*
X021342Y016506D01*
X021334Y016445D01*
X021322Y016383D01*
X021306Y016323D01*
X021287Y016263D01*
X021263Y016205D01*
X021237Y016149D01*
X021206Y016095D01*
X021172Y016042D01*
X021135Y015992D01*
X021095Y015944D01*
X021052Y015899D01*
X021006Y015856D01*
X020958Y015817D01*
X020907Y015781D01*
X020854Y015748D01*
X020799Y015718D01*
X020742Y015692D01*
X020684Y015670D01*
X020624Y015652D01*
X020564Y015637D01*
X020502Y015626D01*
X020440Y015619D01*
X020378Y015616D01*
X020315Y015617D01*
X020253Y015622D01*
X020191Y015631D01*
X020130Y015644D01*
X020070Y015660D01*
X020011Y015681D01*
X019953Y015705D01*
X019897Y015733D01*
X019843Y015764D01*
X019791Y015798D01*
X019742Y015836D01*
X019694Y015877D01*
X019650Y015921D01*
X019608Y015967D01*
X019570Y016017D01*
X019534Y016068D01*
X019502Y016122D01*
X019474Y016177D01*
X019448Y016234D01*
X019427Y016293D01*
X019410Y016353D01*
X019396Y016414D01*
X019386Y016475D01*
X019380Y016538D01*
X019378Y016600D01*
X026628Y016850D02*
X026630Y016912D01*
X026636Y016975D01*
X026646Y017036D01*
X026660Y017097D01*
X026677Y017157D01*
X026698Y017216D01*
X026724Y017273D01*
X026752Y017328D01*
X026784Y017382D01*
X026820Y017433D01*
X026858Y017483D01*
X026900Y017529D01*
X026944Y017573D01*
X026992Y017614D01*
X027041Y017652D01*
X027093Y017686D01*
X027147Y017717D01*
X027203Y017745D01*
X027261Y017769D01*
X027320Y017790D01*
X027380Y017806D01*
X027441Y017819D01*
X027503Y017828D01*
X027565Y017833D01*
X027628Y017834D01*
X027690Y017831D01*
X027752Y017824D01*
X027814Y017813D01*
X027874Y017798D01*
X027934Y017780D01*
X027992Y017758D01*
X028049Y017732D01*
X028104Y017702D01*
X028157Y017669D01*
X028208Y017633D01*
X028256Y017594D01*
X028302Y017551D01*
X028345Y017506D01*
X028385Y017458D01*
X028422Y017408D01*
X028456Y017355D01*
X028487Y017301D01*
X028513Y017245D01*
X028537Y017187D01*
X028556Y017127D01*
X028572Y017067D01*
X028584Y017005D01*
X028592Y016944D01*
X028596Y016881D01*
X028596Y016819D01*
X028592Y016756D01*
X028584Y016695D01*
X028572Y016633D01*
X028556Y016573D01*
X028537Y016513D01*
X028513Y016455D01*
X028487Y016399D01*
X028456Y016345D01*
X028422Y016292D01*
X028385Y016242D01*
X028345Y016194D01*
X028302Y016149D01*
X028256Y016106D01*
X028208Y016067D01*
X028157Y016031D01*
X028104Y015998D01*
X028049Y015968D01*
X027992Y015942D01*
X027934Y015920D01*
X027874Y015902D01*
X027814Y015887D01*
X027752Y015876D01*
X027690Y015869D01*
X027628Y015866D01*
X027565Y015867D01*
X027503Y015872D01*
X027441Y015881D01*
X027380Y015894D01*
X027320Y015910D01*
X027261Y015931D01*
X027203Y015955D01*
X027147Y015983D01*
X027093Y016014D01*
X027041Y016048D01*
X026992Y016086D01*
X026944Y016127D01*
X026900Y016171D01*
X026858Y016217D01*
X026820Y016267D01*
X026784Y016318D01*
X026752Y016372D01*
X026724Y016427D01*
X026698Y016484D01*
X026677Y016543D01*
X026660Y016603D01*
X026646Y016664D01*
X026636Y016725D01*
X026630Y016788D01*
X026628Y016850D01*
X026878Y024100D02*
X026880Y024162D01*
X026886Y024225D01*
X026896Y024286D01*
X026910Y024347D01*
X026927Y024407D01*
X026948Y024466D01*
X026974Y024523D01*
X027002Y024578D01*
X027034Y024632D01*
X027070Y024683D01*
X027108Y024733D01*
X027150Y024779D01*
X027194Y024823D01*
X027242Y024864D01*
X027291Y024902D01*
X027343Y024936D01*
X027397Y024967D01*
X027453Y024995D01*
X027511Y025019D01*
X027570Y025040D01*
X027630Y025056D01*
X027691Y025069D01*
X027753Y025078D01*
X027815Y025083D01*
X027878Y025084D01*
X027940Y025081D01*
X028002Y025074D01*
X028064Y025063D01*
X028124Y025048D01*
X028184Y025030D01*
X028242Y025008D01*
X028299Y024982D01*
X028354Y024952D01*
X028407Y024919D01*
X028458Y024883D01*
X028506Y024844D01*
X028552Y024801D01*
X028595Y024756D01*
X028635Y024708D01*
X028672Y024658D01*
X028706Y024605D01*
X028737Y024551D01*
X028763Y024495D01*
X028787Y024437D01*
X028806Y024377D01*
X028822Y024317D01*
X028834Y024255D01*
X028842Y024194D01*
X028846Y024131D01*
X028846Y024069D01*
X028842Y024006D01*
X028834Y023945D01*
X028822Y023883D01*
X028806Y023823D01*
X028787Y023763D01*
X028763Y023705D01*
X028737Y023649D01*
X028706Y023595D01*
X028672Y023542D01*
X028635Y023492D01*
X028595Y023444D01*
X028552Y023399D01*
X028506Y023356D01*
X028458Y023317D01*
X028407Y023281D01*
X028354Y023248D01*
X028299Y023218D01*
X028242Y023192D01*
X028184Y023170D01*
X028124Y023152D01*
X028064Y023137D01*
X028002Y023126D01*
X027940Y023119D01*
X027878Y023116D01*
X027815Y023117D01*
X027753Y023122D01*
X027691Y023131D01*
X027630Y023144D01*
X027570Y023160D01*
X027511Y023181D01*
X027453Y023205D01*
X027397Y023233D01*
X027343Y023264D01*
X027291Y023298D01*
X027242Y023336D01*
X027194Y023377D01*
X027150Y023421D01*
X027108Y023467D01*
X027070Y023517D01*
X027034Y023568D01*
X027002Y023622D01*
X026974Y023677D01*
X026948Y023734D01*
X026927Y023793D01*
X026910Y023853D01*
X026896Y023914D01*
X026886Y023975D01*
X026880Y024038D01*
X026878Y024100D01*
X027253Y031600D02*
X027255Y031662D01*
X027261Y031725D01*
X027271Y031786D01*
X027285Y031847D01*
X027302Y031907D01*
X027323Y031966D01*
X027349Y032023D01*
X027377Y032078D01*
X027409Y032132D01*
X027445Y032183D01*
X027483Y032233D01*
X027525Y032279D01*
X027569Y032323D01*
X027617Y032364D01*
X027666Y032402D01*
X027718Y032436D01*
X027772Y032467D01*
X027828Y032495D01*
X027886Y032519D01*
X027945Y032540D01*
X028005Y032556D01*
X028066Y032569D01*
X028128Y032578D01*
X028190Y032583D01*
X028253Y032584D01*
X028315Y032581D01*
X028377Y032574D01*
X028439Y032563D01*
X028499Y032548D01*
X028559Y032530D01*
X028617Y032508D01*
X028674Y032482D01*
X028729Y032452D01*
X028782Y032419D01*
X028833Y032383D01*
X028881Y032344D01*
X028927Y032301D01*
X028970Y032256D01*
X029010Y032208D01*
X029047Y032158D01*
X029081Y032105D01*
X029112Y032051D01*
X029138Y031995D01*
X029162Y031937D01*
X029181Y031877D01*
X029197Y031817D01*
X029209Y031755D01*
X029217Y031694D01*
X029221Y031631D01*
X029221Y031569D01*
X029217Y031506D01*
X029209Y031445D01*
X029197Y031383D01*
X029181Y031323D01*
X029162Y031263D01*
X029138Y031205D01*
X029112Y031149D01*
X029081Y031095D01*
X029047Y031042D01*
X029010Y030992D01*
X028970Y030944D01*
X028927Y030899D01*
X028881Y030856D01*
X028833Y030817D01*
X028782Y030781D01*
X028729Y030748D01*
X028674Y030718D01*
X028617Y030692D01*
X028559Y030670D01*
X028499Y030652D01*
X028439Y030637D01*
X028377Y030626D01*
X028315Y030619D01*
X028253Y030616D01*
X028190Y030617D01*
X028128Y030622D01*
X028066Y030631D01*
X028005Y030644D01*
X027945Y030660D01*
X027886Y030681D01*
X027828Y030705D01*
X027772Y030733D01*
X027718Y030764D01*
X027666Y030798D01*
X027617Y030836D01*
X027569Y030877D01*
X027525Y030921D01*
X027483Y030967D01*
X027445Y031017D01*
X027409Y031068D01*
X027377Y031122D01*
X027349Y031177D01*
X027323Y031234D01*
X027302Y031293D01*
X027285Y031353D01*
X027271Y031414D01*
X027261Y031475D01*
X027255Y031538D01*
X027253Y031600D01*
X027253Y039225D02*
X027255Y039287D01*
X027261Y039350D01*
X027271Y039411D01*
X027285Y039472D01*
X027302Y039532D01*
X027323Y039591D01*
X027349Y039648D01*
X027377Y039703D01*
X027409Y039757D01*
X027445Y039808D01*
X027483Y039858D01*
X027525Y039904D01*
X027569Y039948D01*
X027617Y039989D01*
X027666Y040027D01*
X027718Y040061D01*
X027772Y040092D01*
X027828Y040120D01*
X027886Y040144D01*
X027945Y040165D01*
X028005Y040181D01*
X028066Y040194D01*
X028128Y040203D01*
X028190Y040208D01*
X028253Y040209D01*
X028315Y040206D01*
X028377Y040199D01*
X028439Y040188D01*
X028499Y040173D01*
X028559Y040155D01*
X028617Y040133D01*
X028674Y040107D01*
X028729Y040077D01*
X028782Y040044D01*
X028833Y040008D01*
X028881Y039969D01*
X028927Y039926D01*
X028970Y039881D01*
X029010Y039833D01*
X029047Y039783D01*
X029081Y039730D01*
X029112Y039676D01*
X029138Y039620D01*
X029162Y039562D01*
X029181Y039502D01*
X029197Y039442D01*
X029209Y039380D01*
X029217Y039319D01*
X029221Y039256D01*
X029221Y039194D01*
X029217Y039131D01*
X029209Y039070D01*
X029197Y039008D01*
X029181Y038948D01*
X029162Y038888D01*
X029138Y038830D01*
X029112Y038774D01*
X029081Y038720D01*
X029047Y038667D01*
X029010Y038617D01*
X028970Y038569D01*
X028927Y038524D01*
X028881Y038481D01*
X028833Y038442D01*
X028782Y038406D01*
X028729Y038373D01*
X028674Y038343D01*
X028617Y038317D01*
X028559Y038295D01*
X028499Y038277D01*
X028439Y038262D01*
X028377Y038251D01*
X028315Y038244D01*
X028253Y038241D01*
X028190Y038242D01*
X028128Y038247D01*
X028066Y038256D01*
X028005Y038269D01*
X027945Y038285D01*
X027886Y038306D01*
X027828Y038330D01*
X027772Y038358D01*
X027718Y038389D01*
X027666Y038423D01*
X027617Y038461D01*
X027569Y038502D01*
X027525Y038546D01*
X027483Y038592D01*
X027445Y038642D01*
X027409Y038693D01*
X027377Y038747D01*
X027349Y038802D01*
X027323Y038859D01*
X027302Y038918D01*
X027285Y038978D01*
X027271Y039039D01*
X027261Y039100D01*
X027255Y039163D01*
X027253Y039225D01*
X027128Y046538D02*
X027130Y046600D01*
X027136Y046663D01*
X027146Y046724D01*
X027160Y046785D01*
X027177Y046845D01*
X027198Y046904D01*
X027224Y046961D01*
X027252Y047016D01*
X027284Y047070D01*
X027320Y047121D01*
X027358Y047171D01*
X027400Y047217D01*
X027444Y047261D01*
X027492Y047302D01*
X027541Y047340D01*
X027593Y047374D01*
X027647Y047405D01*
X027703Y047433D01*
X027761Y047457D01*
X027820Y047478D01*
X027880Y047494D01*
X027941Y047507D01*
X028003Y047516D01*
X028065Y047521D01*
X028128Y047522D01*
X028190Y047519D01*
X028252Y047512D01*
X028314Y047501D01*
X028374Y047486D01*
X028434Y047468D01*
X028492Y047446D01*
X028549Y047420D01*
X028604Y047390D01*
X028657Y047357D01*
X028708Y047321D01*
X028756Y047282D01*
X028802Y047239D01*
X028845Y047194D01*
X028885Y047146D01*
X028922Y047096D01*
X028956Y047043D01*
X028987Y046989D01*
X029013Y046933D01*
X029037Y046875D01*
X029056Y046815D01*
X029072Y046755D01*
X029084Y046693D01*
X029092Y046632D01*
X029096Y046569D01*
X029096Y046507D01*
X029092Y046444D01*
X029084Y046383D01*
X029072Y046321D01*
X029056Y046261D01*
X029037Y046201D01*
X029013Y046143D01*
X028987Y046087D01*
X028956Y046033D01*
X028922Y045980D01*
X028885Y045930D01*
X028845Y045882D01*
X028802Y045837D01*
X028756Y045794D01*
X028708Y045755D01*
X028657Y045719D01*
X028604Y045686D01*
X028549Y045656D01*
X028492Y045630D01*
X028434Y045608D01*
X028374Y045590D01*
X028314Y045575D01*
X028252Y045564D01*
X028190Y045557D01*
X028128Y045554D01*
X028065Y045555D01*
X028003Y045560D01*
X027941Y045569D01*
X027880Y045582D01*
X027820Y045598D01*
X027761Y045619D01*
X027703Y045643D01*
X027647Y045671D01*
X027593Y045702D01*
X027541Y045736D01*
X027492Y045774D01*
X027444Y045815D01*
X027400Y045859D01*
X027358Y045905D01*
X027320Y045955D01*
X027284Y046006D01*
X027252Y046060D01*
X027224Y046115D01*
X027198Y046172D01*
X027177Y046231D01*
X027160Y046291D01*
X027146Y046352D01*
X027136Y046413D01*
X027130Y046476D01*
X027128Y046538D01*
X029816Y049725D02*
X029818Y049787D01*
X029824Y049850D01*
X029834Y049911D01*
X029848Y049972D01*
X029865Y050032D01*
X029886Y050091D01*
X029912Y050148D01*
X029940Y050203D01*
X029972Y050257D01*
X030008Y050308D01*
X030046Y050358D01*
X030088Y050404D01*
X030132Y050448D01*
X030180Y050489D01*
X030229Y050527D01*
X030281Y050561D01*
X030335Y050592D01*
X030391Y050620D01*
X030449Y050644D01*
X030508Y050665D01*
X030568Y050681D01*
X030629Y050694D01*
X030691Y050703D01*
X030753Y050708D01*
X030816Y050709D01*
X030878Y050706D01*
X030940Y050699D01*
X031002Y050688D01*
X031062Y050673D01*
X031122Y050655D01*
X031180Y050633D01*
X031237Y050607D01*
X031292Y050577D01*
X031345Y050544D01*
X031396Y050508D01*
X031444Y050469D01*
X031490Y050426D01*
X031533Y050381D01*
X031573Y050333D01*
X031610Y050283D01*
X031644Y050230D01*
X031675Y050176D01*
X031701Y050120D01*
X031725Y050062D01*
X031744Y050002D01*
X031760Y049942D01*
X031772Y049880D01*
X031780Y049819D01*
X031784Y049756D01*
X031784Y049694D01*
X031780Y049631D01*
X031772Y049570D01*
X031760Y049508D01*
X031744Y049448D01*
X031725Y049388D01*
X031701Y049330D01*
X031675Y049274D01*
X031644Y049220D01*
X031610Y049167D01*
X031573Y049117D01*
X031533Y049069D01*
X031490Y049024D01*
X031444Y048981D01*
X031396Y048942D01*
X031345Y048906D01*
X031292Y048873D01*
X031237Y048843D01*
X031180Y048817D01*
X031122Y048795D01*
X031062Y048777D01*
X031002Y048762D01*
X030940Y048751D01*
X030878Y048744D01*
X030816Y048741D01*
X030753Y048742D01*
X030691Y048747D01*
X030629Y048756D01*
X030568Y048769D01*
X030508Y048785D01*
X030449Y048806D01*
X030391Y048830D01*
X030335Y048858D01*
X030281Y048889D01*
X030229Y048923D01*
X030180Y048961D01*
X030132Y049002D01*
X030088Y049046D01*
X030046Y049092D01*
X030008Y049142D01*
X029972Y049193D01*
X029940Y049247D01*
X029912Y049302D01*
X029886Y049359D01*
X029865Y049418D01*
X029848Y049478D01*
X029834Y049539D01*
X029824Y049600D01*
X029818Y049663D01*
X029816Y049725D01*
X034378Y046788D02*
X034380Y046850D01*
X034386Y046913D01*
X034396Y046974D01*
X034410Y047035D01*
X034427Y047095D01*
X034448Y047154D01*
X034474Y047211D01*
X034502Y047266D01*
X034534Y047320D01*
X034570Y047371D01*
X034608Y047421D01*
X034650Y047467D01*
X034694Y047511D01*
X034742Y047552D01*
X034791Y047590D01*
X034843Y047624D01*
X034897Y047655D01*
X034953Y047683D01*
X035011Y047707D01*
X035070Y047728D01*
X035130Y047744D01*
X035191Y047757D01*
X035253Y047766D01*
X035315Y047771D01*
X035378Y047772D01*
X035440Y047769D01*
X035502Y047762D01*
X035564Y047751D01*
X035624Y047736D01*
X035684Y047718D01*
X035742Y047696D01*
X035799Y047670D01*
X035854Y047640D01*
X035907Y047607D01*
X035958Y047571D01*
X036006Y047532D01*
X036052Y047489D01*
X036095Y047444D01*
X036135Y047396D01*
X036172Y047346D01*
X036206Y047293D01*
X036237Y047239D01*
X036263Y047183D01*
X036287Y047125D01*
X036306Y047065D01*
X036322Y047005D01*
X036334Y046943D01*
X036342Y046882D01*
X036346Y046819D01*
X036346Y046757D01*
X036342Y046694D01*
X036334Y046633D01*
X036322Y046571D01*
X036306Y046511D01*
X036287Y046451D01*
X036263Y046393D01*
X036237Y046337D01*
X036206Y046283D01*
X036172Y046230D01*
X036135Y046180D01*
X036095Y046132D01*
X036052Y046087D01*
X036006Y046044D01*
X035958Y046005D01*
X035907Y045969D01*
X035854Y045936D01*
X035799Y045906D01*
X035742Y045880D01*
X035684Y045858D01*
X035624Y045840D01*
X035564Y045825D01*
X035502Y045814D01*
X035440Y045807D01*
X035378Y045804D01*
X035315Y045805D01*
X035253Y045810D01*
X035191Y045819D01*
X035130Y045832D01*
X035070Y045848D01*
X035011Y045869D01*
X034953Y045893D01*
X034897Y045921D01*
X034843Y045952D01*
X034791Y045986D01*
X034742Y046024D01*
X034694Y046065D01*
X034650Y046109D01*
X034608Y046155D01*
X034570Y046205D01*
X034534Y046256D01*
X034502Y046310D01*
X034474Y046365D01*
X034448Y046422D01*
X034427Y046481D01*
X034410Y046541D01*
X034396Y046602D01*
X034386Y046663D01*
X034380Y046726D01*
X034378Y046788D01*
X037378Y049663D02*
X037380Y049725D01*
X037386Y049788D01*
X037396Y049849D01*
X037410Y049910D01*
X037427Y049970D01*
X037448Y050029D01*
X037474Y050086D01*
X037502Y050141D01*
X037534Y050195D01*
X037570Y050246D01*
X037608Y050296D01*
X037650Y050342D01*
X037694Y050386D01*
X037742Y050427D01*
X037791Y050465D01*
X037843Y050499D01*
X037897Y050530D01*
X037953Y050558D01*
X038011Y050582D01*
X038070Y050603D01*
X038130Y050619D01*
X038191Y050632D01*
X038253Y050641D01*
X038315Y050646D01*
X038378Y050647D01*
X038440Y050644D01*
X038502Y050637D01*
X038564Y050626D01*
X038624Y050611D01*
X038684Y050593D01*
X038742Y050571D01*
X038799Y050545D01*
X038854Y050515D01*
X038907Y050482D01*
X038958Y050446D01*
X039006Y050407D01*
X039052Y050364D01*
X039095Y050319D01*
X039135Y050271D01*
X039172Y050221D01*
X039206Y050168D01*
X039237Y050114D01*
X039263Y050058D01*
X039287Y050000D01*
X039306Y049940D01*
X039322Y049880D01*
X039334Y049818D01*
X039342Y049757D01*
X039346Y049694D01*
X039346Y049632D01*
X039342Y049569D01*
X039334Y049508D01*
X039322Y049446D01*
X039306Y049386D01*
X039287Y049326D01*
X039263Y049268D01*
X039237Y049212D01*
X039206Y049158D01*
X039172Y049105D01*
X039135Y049055D01*
X039095Y049007D01*
X039052Y048962D01*
X039006Y048919D01*
X038958Y048880D01*
X038907Y048844D01*
X038854Y048811D01*
X038799Y048781D01*
X038742Y048755D01*
X038684Y048733D01*
X038624Y048715D01*
X038564Y048700D01*
X038502Y048689D01*
X038440Y048682D01*
X038378Y048679D01*
X038315Y048680D01*
X038253Y048685D01*
X038191Y048694D01*
X038130Y048707D01*
X038070Y048723D01*
X038011Y048744D01*
X037953Y048768D01*
X037897Y048796D01*
X037843Y048827D01*
X037791Y048861D01*
X037742Y048899D01*
X037694Y048940D01*
X037650Y048984D01*
X037608Y049030D01*
X037570Y049080D01*
X037534Y049131D01*
X037502Y049185D01*
X037474Y049240D01*
X037448Y049297D01*
X037427Y049356D01*
X037410Y049416D01*
X037396Y049477D01*
X037386Y049538D01*
X037380Y049601D01*
X037378Y049663D01*
X042003Y046413D02*
X042005Y046475D01*
X042011Y046538D01*
X042021Y046599D01*
X042035Y046660D01*
X042052Y046720D01*
X042073Y046779D01*
X042099Y046836D01*
X042127Y046891D01*
X042159Y046945D01*
X042195Y046996D01*
X042233Y047046D01*
X042275Y047092D01*
X042319Y047136D01*
X042367Y047177D01*
X042416Y047215D01*
X042468Y047249D01*
X042522Y047280D01*
X042578Y047308D01*
X042636Y047332D01*
X042695Y047353D01*
X042755Y047369D01*
X042816Y047382D01*
X042878Y047391D01*
X042940Y047396D01*
X043003Y047397D01*
X043065Y047394D01*
X043127Y047387D01*
X043189Y047376D01*
X043249Y047361D01*
X043309Y047343D01*
X043367Y047321D01*
X043424Y047295D01*
X043479Y047265D01*
X043532Y047232D01*
X043583Y047196D01*
X043631Y047157D01*
X043677Y047114D01*
X043720Y047069D01*
X043760Y047021D01*
X043797Y046971D01*
X043831Y046918D01*
X043862Y046864D01*
X043888Y046808D01*
X043912Y046750D01*
X043931Y046690D01*
X043947Y046630D01*
X043959Y046568D01*
X043967Y046507D01*
X043971Y046444D01*
X043971Y046382D01*
X043967Y046319D01*
X043959Y046258D01*
X043947Y046196D01*
X043931Y046136D01*
X043912Y046076D01*
X043888Y046018D01*
X043862Y045962D01*
X043831Y045908D01*
X043797Y045855D01*
X043760Y045805D01*
X043720Y045757D01*
X043677Y045712D01*
X043631Y045669D01*
X043583Y045630D01*
X043532Y045594D01*
X043479Y045561D01*
X043424Y045531D01*
X043367Y045505D01*
X043309Y045483D01*
X043249Y045465D01*
X043189Y045450D01*
X043127Y045439D01*
X043065Y045432D01*
X043003Y045429D01*
X042940Y045430D01*
X042878Y045435D01*
X042816Y045444D01*
X042755Y045457D01*
X042695Y045473D01*
X042636Y045494D01*
X042578Y045518D01*
X042522Y045546D01*
X042468Y045577D01*
X042416Y045611D01*
X042367Y045649D01*
X042319Y045690D01*
X042275Y045734D01*
X042233Y045780D01*
X042195Y045830D01*
X042159Y045881D01*
X042127Y045935D01*
X042099Y045990D01*
X042073Y046047D01*
X042052Y046106D01*
X042035Y046166D01*
X042021Y046227D01*
X042011Y046288D01*
X042005Y046351D01*
X042003Y046413D01*
X044816Y049725D02*
X044818Y049787D01*
X044824Y049850D01*
X044834Y049911D01*
X044848Y049972D01*
X044865Y050032D01*
X044886Y050091D01*
X044912Y050148D01*
X044940Y050203D01*
X044972Y050257D01*
X045008Y050308D01*
X045046Y050358D01*
X045088Y050404D01*
X045132Y050448D01*
X045180Y050489D01*
X045229Y050527D01*
X045281Y050561D01*
X045335Y050592D01*
X045391Y050620D01*
X045449Y050644D01*
X045508Y050665D01*
X045568Y050681D01*
X045629Y050694D01*
X045691Y050703D01*
X045753Y050708D01*
X045816Y050709D01*
X045878Y050706D01*
X045940Y050699D01*
X046002Y050688D01*
X046062Y050673D01*
X046122Y050655D01*
X046180Y050633D01*
X046237Y050607D01*
X046292Y050577D01*
X046345Y050544D01*
X046396Y050508D01*
X046444Y050469D01*
X046490Y050426D01*
X046533Y050381D01*
X046573Y050333D01*
X046610Y050283D01*
X046644Y050230D01*
X046675Y050176D01*
X046701Y050120D01*
X046725Y050062D01*
X046744Y050002D01*
X046760Y049942D01*
X046772Y049880D01*
X046780Y049819D01*
X046784Y049756D01*
X046784Y049694D01*
X046780Y049631D01*
X046772Y049570D01*
X046760Y049508D01*
X046744Y049448D01*
X046725Y049388D01*
X046701Y049330D01*
X046675Y049274D01*
X046644Y049220D01*
X046610Y049167D01*
X046573Y049117D01*
X046533Y049069D01*
X046490Y049024D01*
X046444Y048981D01*
X046396Y048942D01*
X046345Y048906D01*
X046292Y048873D01*
X046237Y048843D01*
X046180Y048817D01*
X046122Y048795D01*
X046062Y048777D01*
X046002Y048762D01*
X045940Y048751D01*
X045878Y048744D01*
X045816Y048741D01*
X045753Y048742D01*
X045691Y048747D01*
X045629Y048756D01*
X045568Y048769D01*
X045508Y048785D01*
X045449Y048806D01*
X045391Y048830D01*
X045335Y048858D01*
X045281Y048889D01*
X045229Y048923D01*
X045180Y048961D01*
X045132Y049002D01*
X045088Y049046D01*
X045046Y049092D01*
X045008Y049142D01*
X044972Y049193D01*
X044940Y049247D01*
X044912Y049302D01*
X044886Y049359D01*
X044865Y049418D01*
X044848Y049478D01*
X044834Y049539D01*
X044824Y049600D01*
X044818Y049663D01*
X044816Y049725D01*
X050253Y045850D02*
X050255Y045912D01*
X050261Y045975D01*
X050271Y046036D01*
X050285Y046097D01*
X050302Y046157D01*
X050323Y046216D01*
X050349Y046273D01*
X050377Y046328D01*
X050409Y046382D01*
X050445Y046433D01*
X050483Y046483D01*
X050525Y046529D01*
X050569Y046573D01*
X050617Y046614D01*
X050666Y046652D01*
X050718Y046686D01*
X050772Y046717D01*
X050828Y046745D01*
X050886Y046769D01*
X050945Y046790D01*
X051005Y046806D01*
X051066Y046819D01*
X051128Y046828D01*
X051190Y046833D01*
X051253Y046834D01*
X051315Y046831D01*
X051377Y046824D01*
X051439Y046813D01*
X051499Y046798D01*
X051559Y046780D01*
X051617Y046758D01*
X051674Y046732D01*
X051729Y046702D01*
X051782Y046669D01*
X051833Y046633D01*
X051881Y046594D01*
X051927Y046551D01*
X051970Y046506D01*
X052010Y046458D01*
X052047Y046408D01*
X052081Y046355D01*
X052112Y046301D01*
X052138Y046245D01*
X052162Y046187D01*
X052181Y046127D01*
X052197Y046067D01*
X052209Y046005D01*
X052217Y045944D01*
X052221Y045881D01*
X052221Y045819D01*
X052217Y045756D01*
X052209Y045695D01*
X052197Y045633D01*
X052181Y045573D01*
X052162Y045513D01*
X052138Y045455D01*
X052112Y045399D01*
X052081Y045345D01*
X052047Y045292D01*
X052010Y045242D01*
X051970Y045194D01*
X051927Y045149D01*
X051881Y045106D01*
X051833Y045067D01*
X051782Y045031D01*
X051729Y044998D01*
X051674Y044968D01*
X051617Y044942D01*
X051559Y044920D01*
X051499Y044902D01*
X051439Y044887D01*
X051377Y044876D01*
X051315Y044869D01*
X051253Y044866D01*
X051190Y044867D01*
X051128Y044872D01*
X051066Y044881D01*
X051005Y044894D01*
X050945Y044910D01*
X050886Y044931D01*
X050828Y044955D01*
X050772Y044983D01*
X050718Y045014D01*
X050666Y045048D01*
X050617Y045086D01*
X050569Y045127D01*
X050525Y045171D01*
X050483Y045217D01*
X050445Y045267D01*
X050409Y045318D01*
X050377Y045372D01*
X050349Y045427D01*
X050323Y045484D01*
X050302Y045543D01*
X050285Y045603D01*
X050271Y045664D01*
X050261Y045725D01*
X050255Y045788D01*
X050253Y045850D01*
X049378Y039100D02*
X049380Y039162D01*
X049386Y039225D01*
X049396Y039286D01*
X049410Y039347D01*
X049427Y039407D01*
X049448Y039466D01*
X049474Y039523D01*
X049502Y039578D01*
X049534Y039632D01*
X049570Y039683D01*
X049608Y039733D01*
X049650Y039779D01*
X049694Y039823D01*
X049742Y039864D01*
X049791Y039902D01*
X049843Y039936D01*
X049897Y039967D01*
X049953Y039995D01*
X050011Y040019D01*
X050070Y040040D01*
X050130Y040056D01*
X050191Y040069D01*
X050253Y040078D01*
X050315Y040083D01*
X050378Y040084D01*
X050440Y040081D01*
X050502Y040074D01*
X050564Y040063D01*
X050624Y040048D01*
X050684Y040030D01*
X050742Y040008D01*
X050799Y039982D01*
X050854Y039952D01*
X050907Y039919D01*
X050958Y039883D01*
X051006Y039844D01*
X051052Y039801D01*
X051095Y039756D01*
X051135Y039708D01*
X051172Y039658D01*
X051206Y039605D01*
X051237Y039551D01*
X051263Y039495D01*
X051287Y039437D01*
X051306Y039377D01*
X051322Y039317D01*
X051334Y039255D01*
X051342Y039194D01*
X051346Y039131D01*
X051346Y039069D01*
X051342Y039006D01*
X051334Y038945D01*
X051322Y038883D01*
X051306Y038823D01*
X051287Y038763D01*
X051263Y038705D01*
X051237Y038649D01*
X051206Y038595D01*
X051172Y038542D01*
X051135Y038492D01*
X051095Y038444D01*
X051052Y038399D01*
X051006Y038356D01*
X050958Y038317D01*
X050907Y038281D01*
X050854Y038248D01*
X050799Y038218D01*
X050742Y038192D01*
X050684Y038170D01*
X050624Y038152D01*
X050564Y038137D01*
X050502Y038126D01*
X050440Y038119D01*
X050378Y038116D01*
X050315Y038117D01*
X050253Y038122D01*
X050191Y038131D01*
X050130Y038144D01*
X050070Y038160D01*
X050011Y038181D01*
X049953Y038205D01*
X049897Y038233D01*
X049843Y038264D01*
X049791Y038298D01*
X049742Y038336D01*
X049694Y038377D01*
X049650Y038421D01*
X049608Y038467D01*
X049570Y038517D01*
X049534Y038568D01*
X049502Y038622D01*
X049474Y038677D01*
X049448Y038734D01*
X049427Y038793D01*
X049410Y038853D01*
X049396Y038914D01*
X049386Y038975D01*
X049380Y039038D01*
X049378Y039100D01*
X041878Y039100D02*
X041880Y039162D01*
X041886Y039225D01*
X041896Y039286D01*
X041910Y039347D01*
X041927Y039407D01*
X041948Y039466D01*
X041974Y039523D01*
X042002Y039578D01*
X042034Y039632D01*
X042070Y039683D01*
X042108Y039733D01*
X042150Y039779D01*
X042194Y039823D01*
X042242Y039864D01*
X042291Y039902D01*
X042343Y039936D01*
X042397Y039967D01*
X042453Y039995D01*
X042511Y040019D01*
X042570Y040040D01*
X042630Y040056D01*
X042691Y040069D01*
X042753Y040078D01*
X042815Y040083D01*
X042878Y040084D01*
X042940Y040081D01*
X043002Y040074D01*
X043064Y040063D01*
X043124Y040048D01*
X043184Y040030D01*
X043242Y040008D01*
X043299Y039982D01*
X043354Y039952D01*
X043407Y039919D01*
X043458Y039883D01*
X043506Y039844D01*
X043552Y039801D01*
X043595Y039756D01*
X043635Y039708D01*
X043672Y039658D01*
X043706Y039605D01*
X043737Y039551D01*
X043763Y039495D01*
X043787Y039437D01*
X043806Y039377D01*
X043822Y039317D01*
X043834Y039255D01*
X043842Y039194D01*
X043846Y039131D01*
X043846Y039069D01*
X043842Y039006D01*
X043834Y038945D01*
X043822Y038883D01*
X043806Y038823D01*
X043787Y038763D01*
X043763Y038705D01*
X043737Y038649D01*
X043706Y038595D01*
X043672Y038542D01*
X043635Y038492D01*
X043595Y038444D01*
X043552Y038399D01*
X043506Y038356D01*
X043458Y038317D01*
X043407Y038281D01*
X043354Y038248D01*
X043299Y038218D01*
X043242Y038192D01*
X043184Y038170D01*
X043124Y038152D01*
X043064Y038137D01*
X043002Y038126D01*
X042940Y038119D01*
X042878Y038116D01*
X042815Y038117D01*
X042753Y038122D01*
X042691Y038131D01*
X042630Y038144D01*
X042570Y038160D01*
X042511Y038181D01*
X042453Y038205D01*
X042397Y038233D01*
X042343Y038264D01*
X042291Y038298D01*
X042242Y038336D01*
X042194Y038377D01*
X042150Y038421D01*
X042108Y038467D01*
X042070Y038517D01*
X042034Y038568D01*
X042002Y038622D01*
X041974Y038677D01*
X041948Y038734D01*
X041927Y038793D01*
X041910Y038853D01*
X041896Y038914D01*
X041886Y038975D01*
X041880Y039038D01*
X041878Y039100D01*
X034378Y039100D02*
X034380Y039162D01*
X034386Y039225D01*
X034396Y039286D01*
X034410Y039347D01*
X034427Y039407D01*
X034448Y039466D01*
X034474Y039523D01*
X034502Y039578D01*
X034534Y039632D01*
X034570Y039683D01*
X034608Y039733D01*
X034650Y039779D01*
X034694Y039823D01*
X034742Y039864D01*
X034791Y039902D01*
X034843Y039936D01*
X034897Y039967D01*
X034953Y039995D01*
X035011Y040019D01*
X035070Y040040D01*
X035130Y040056D01*
X035191Y040069D01*
X035253Y040078D01*
X035315Y040083D01*
X035378Y040084D01*
X035440Y040081D01*
X035502Y040074D01*
X035564Y040063D01*
X035624Y040048D01*
X035684Y040030D01*
X035742Y040008D01*
X035799Y039982D01*
X035854Y039952D01*
X035907Y039919D01*
X035958Y039883D01*
X036006Y039844D01*
X036052Y039801D01*
X036095Y039756D01*
X036135Y039708D01*
X036172Y039658D01*
X036206Y039605D01*
X036237Y039551D01*
X036263Y039495D01*
X036287Y039437D01*
X036306Y039377D01*
X036322Y039317D01*
X036334Y039255D01*
X036342Y039194D01*
X036346Y039131D01*
X036346Y039069D01*
X036342Y039006D01*
X036334Y038945D01*
X036322Y038883D01*
X036306Y038823D01*
X036287Y038763D01*
X036263Y038705D01*
X036237Y038649D01*
X036206Y038595D01*
X036172Y038542D01*
X036135Y038492D01*
X036095Y038444D01*
X036052Y038399D01*
X036006Y038356D01*
X035958Y038317D01*
X035907Y038281D01*
X035854Y038248D01*
X035799Y038218D01*
X035742Y038192D01*
X035684Y038170D01*
X035624Y038152D01*
X035564Y038137D01*
X035502Y038126D01*
X035440Y038119D01*
X035378Y038116D01*
X035315Y038117D01*
X035253Y038122D01*
X035191Y038131D01*
X035130Y038144D01*
X035070Y038160D01*
X035011Y038181D01*
X034953Y038205D01*
X034897Y038233D01*
X034843Y038264D01*
X034791Y038298D01*
X034742Y038336D01*
X034694Y038377D01*
X034650Y038421D01*
X034608Y038467D01*
X034570Y038517D01*
X034534Y038568D01*
X034502Y038622D01*
X034474Y038677D01*
X034448Y038734D01*
X034427Y038793D01*
X034410Y038853D01*
X034396Y038914D01*
X034386Y038975D01*
X034380Y039038D01*
X034378Y039100D01*
X034378Y031600D02*
X034380Y031662D01*
X034386Y031725D01*
X034396Y031786D01*
X034410Y031847D01*
X034427Y031907D01*
X034448Y031966D01*
X034474Y032023D01*
X034502Y032078D01*
X034534Y032132D01*
X034570Y032183D01*
X034608Y032233D01*
X034650Y032279D01*
X034694Y032323D01*
X034742Y032364D01*
X034791Y032402D01*
X034843Y032436D01*
X034897Y032467D01*
X034953Y032495D01*
X035011Y032519D01*
X035070Y032540D01*
X035130Y032556D01*
X035191Y032569D01*
X035253Y032578D01*
X035315Y032583D01*
X035378Y032584D01*
X035440Y032581D01*
X035502Y032574D01*
X035564Y032563D01*
X035624Y032548D01*
X035684Y032530D01*
X035742Y032508D01*
X035799Y032482D01*
X035854Y032452D01*
X035907Y032419D01*
X035958Y032383D01*
X036006Y032344D01*
X036052Y032301D01*
X036095Y032256D01*
X036135Y032208D01*
X036172Y032158D01*
X036206Y032105D01*
X036237Y032051D01*
X036263Y031995D01*
X036287Y031937D01*
X036306Y031877D01*
X036322Y031817D01*
X036334Y031755D01*
X036342Y031694D01*
X036346Y031631D01*
X036346Y031569D01*
X036342Y031506D01*
X036334Y031445D01*
X036322Y031383D01*
X036306Y031323D01*
X036287Y031263D01*
X036263Y031205D01*
X036237Y031149D01*
X036206Y031095D01*
X036172Y031042D01*
X036135Y030992D01*
X036095Y030944D01*
X036052Y030899D01*
X036006Y030856D01*
X035958Y030817D01*
X035907Y030781D01*
X035854Y030748D01*
X035799Y030718D01*
X035742Y030692D01*
X035684Y030670D01*
X035624Y030652D01*
X035564Y030637D01*
X035502Y030626D01*
X035440Y030619D01*
X035378Y030616D01*
X035315Y030617D01*
X035253Y030622D01*
X035191Y030631D01*
X035130Y030644D01*
X035070Y030660D01*
X035011Y030681D01*
X034953Y030705D01*
X034897Y030733D01*
X034843Y030764D01*
X034791Y030798D01*
X034742Y030836D01*
X034694Y030877D01*
X034650Y030921D01*
X034608Y030967D01*
X034570Y031017D01*
X034534Y031068D01*
X034502Y031122D01*
X034474Y031177D01*
X034448Y031234D01*
X034427Y031293D01*
X034410Y031353D01*
X034396Y031414D01*
X034386Y031475D01*
X034380Y031538D01*
X034378Y031600D01*
X034316Y024600D02*
X034318Y024662D01*
X034324Y024725D01*
X034334Y024786D01*
X034348Y024847D01*
X034365Y024907D01*
X034386Y024966D01*
X034412Y025023D01*
X034440Y025078D01*
X034472Y025132D01*
X034508Y025183D01*
X034546Y025233D01*
X034588Y025279D01*
X034632Y025323D01*
X034680Y025364D01*
X034729Y025402D01*
X034781Y025436D01*
X034835Y025467D01*
X034891Y025495D01*
X034949Y025519D01*
X035008Y025540D01*
X035068Y025556D01*
X035129Y025569D01*
X035191Y025578D01*
X035253Y025583D01*
X035316Y025584D01*
X035378Y025581D01*
X035440Y025574D01*
X035502Y025563D01*
X035562Y025548D01*
X035622Y025530D01*
X035680Y025508D01*
X035737Y025482D01*
X035792Y025452D01*
X035845Y025419D01*
X035896Y025383D01*
X035944Y025344D01*
X035990Y025301D01*
X036033Y025256D01*
X036073Y025208D01*
X036110Y025158D01*
X036144Y025105D01*
X036175Y025051D01*
X036201Y024995D01*
X036225Y024937D01*
X036244Y024877D01*
X036260Y024817D01*
X036272Y024755D01*
X036280Y024694D01*
X036284Y024631D01*
X036284Y024569D01*
X036280Y024506D01*
X036272Y024445D01*
X036260Y024383D01*
X036244Y024323D01*
X036225Y024263D01*
X036201Y024205D01*
X036175Y024149D01*
X036144Y024095D01*
X036110Y024042D01*
X036073Y023992D01*
X036033Y023944D01*
X035990Y023899D01*
X035944Y023856D01*
X035896Y023817D01*
X035845Y023781D01*
X035792Y023748D01*
X035737Y023718D01*
X035680Y023692D01*
X035622Y023670D01*
X035562Y023652D01*
X035502Y023637D01*
X035440Y023626D01*
X035378Y023619D01*
X035316Y023616D01*
X035253Y023617D01*
X035191Y023622D01*
X035129Y023631D01*
X035068Y023644D01*
X035008Y023660D01*
X034949Y023681D01*
X034891Y023705D01*
X034835Y023733D01*
X034781Y023764D01*
X034729Y023798D01*
X034680Y023836D01*
X034632Y023877D01*
X034588Y023921D01*
X034546Y023967D01*
X034508Y024017D01*
X034472Y024068D01*
X034440Y024122D01*
X034412Y024177D01*
X034386Y024234D01*
X034365Y024293D01*
X034348Y024353D01*
X034334Y024414D01*
X034324Y024475D01*
X034318Y024538D01*
X034316Y024600D01*
X034128Y016725D02*
X034130Y016787D01*
X034136Y016850D01*
X034146Y016911D01*
X034160Y016972D01*
X034177Y017032D01*
X034198Y017091D01*
X034224Y017148D01*
X034252Y017203D01*
X034284Y017257D01*
X034320Y017308D01*
X034358Y017358D01*
X034400Y017404D01*
X034444Y017448D01*
X034492Y017489D01*
X034541Y017527D01*
X034593Y017561D01*
X034647Y017592D01*
X034703Y017620D01*
X034761Y017644D01*
X034820Y017665D01*
X034880Y017681D01*
X034941Y017694D01*
X035003Y017703D01*
X035065Y017708D01*
X035128Y017709D01*
X035190Y017706D01*
X035252Y017699D01*
X035314Y017688D01*
X035374Y017673D01*
X035434Y017655D01*
X035492Y017633D01*
X035549Y017607D01*
X035604Y017577D01*
X035657Y017544D01*
X035708Y017508D01*
X035756Y017469D01*
X035802Y017426D01*
X035845Y017381D01*
X035885Y017333D01*
X035922Y017283D01*
X035956Y017230D01*
X035987Y017176D01*
X036013Y017120D01*
X036037Y017062D01*
X036056Y017002D01*
X036072Y016942D01*
X036084Y016880D01*
X036092Y016819D01*
X036096Y016756D01*
X036096Y016694D01*
X036092Y016631D01*
X036084Y016570D01*
X036072Y016508D01*
X036056Y016448D01*
X036037Y016388D01*
X036013Y016330D01*
X035987Y016274D01*
X035956Y016220D01*
X035922Y016167D01*
X035885Y016117D01*
X035845Y016069D01*
X035802Y016024D01*
X035756Y015981D01*
X035708Y015942D01*
X035657Y015906D01*
X035604Y015873D01*
X035549Y015843D01*
X035492Y015817D01*
X035434Y015795D01*
X035374Y015777D01*
X035314Y015762D01*
X035252Y015751D01*
X035190Y015744D01*
X035128Y015741D01*
X035065Y015742D01*
X035003Y015747D01*
X034941Y015756D01*
X034880Y015769D01*
X034820Y015785D01*
X034761Y015806D01*
X034703Y015830D01*
X034647Y015858D01*
X034593Y015889D01*
X034541Y015923D01*
X034492Y015961D01*
X034444Y016002D01*
X034400Y016046D01*
X034358Y016092D01*
X034320Y016142D01*
X034284Y016193D01*
X034252Y016247D01*
X034224Y016302D01*
X034198Y016359D01*
X034177Y016418D01*
X034160Y016478D01*
X034146Y016539D01*
X034136Y016600D01*
X034130Y016663D01*
X034128Y016725D01*
X042253Y016600D02*
X042255Y016662D01*
X042261Y016725D01*
X042271Y016786D01*
X042285Y016847D01*
X042302Y016907D01*
X042323Y016966D01*
X042349Y017023D01*
X042377Y017078D01*
X042409Y017132D01*
X042445Y017183D01*
X042483Y017233D01*
X042525Y017279D01*
X042569Y017323D01*
X042617Y017364D01*
X042666Y017402D01*
X042718Y017436D01*
X042772Y017467D01*
X042828Y017495D01*
X042886Y017519D01*
X042945Y017540D01*
X043005Y017556D01*
X043066Y017569D01*
X043128Y017578D01*
X043190Y017583D01*
X043253Y017584D01*
X043315Y017581D01*
X043377Y017574D01*
X043439Y017563D01*
X043499Y017548D01*
X043559Y017530D01*
X043617Y017508D01*
X043674Y017482D01*
X043729Y017452D01*
X043782Y017419D01*
X043833Y017383D01*
X043881Y017344D01*
X043927Y017301D01*
X043970Y017256D01*
X044010Y017208D01*
X044047Y017158D01*
X044081Y017105D01*
X044112Y017051D01*
X044138Y016995D01*
X044162Y016937D01*
X044181Y016877D01*
X044197Y016817D01*
X044209Y016755D01*
X044217Y016694D01*
X044221Y016631D01*
X044221Y016569D01*
X044217Y016506D01*
X044209Y016445D01*
X044197Y016383D01*
X044181Y016323D01*
X044162Y016263D01*
X044138Y016205D01*
X044112Y016149D01*
X044081Y016095D01*
X044047Y016042D01*
X044010Y015992D01*
X043970Y015944D01*
X043927Y015899D01*
X043881Y015856D01*
X043833Y015817D01*
X043782Y015781D01*
X043729Y015748D01*
X043674Y015718D01*
X043617Y015692D01*
X043559Y015670D01*
X043499Y015652D01*
X043439Y015637D01*
X043377Y015626D01*
X043315Y015619D01*
X043253Y015616D01*
X043190Y015617D01*
X043128Y015622D01*
X043066Y015631D01*
X043005Y015644D01*
X042945Y015660D01*
X042886Y015681D01*
X042828Y015705D01*
X042772Y015733D01*
X042718Y015764D01*
X042666Y015798D01*
X042617Y015836D01*
X042569Y015877D01*
X042525Y015921D01*
X042483Y015967D01*
X042445Y016017D01*
X042409Y016068D01*
X042377Y016122D01*
X042349Y016177D01*
X042323Y016234D01*
X042302Y016293D01*
X042285Y016353D01*
X042271Y016414D01*
X042261Y016475D01*
X042255Y016538D01*
X042253Y016600D01*
X041878Y024100D02*
X041880Y024162D01*
X041886Y024225D01*
X041896Y024286D01*
X041910Y024347D01*
X041927Y024407D01*
X041948Y024466D01*
X041974Y024523D01*
X042002Y024578D01*
X042034Y024632D01*
X042070Y024683D01*
X042108Y024733D01*
X042150Y024779D01*
X042194Y024823D01*
X042242Y024864D01*
X042291Y024902D01*
X042343Y024936D01*
X042397Y024967D01*
X042453Y024995D01*
X042511Y025019D01*
X042570Y025040D01*
X042630Y025056D01*
X042691Y025069D01*
X042753Y025078D01*
X042815Y025083D01*
X042878Y025084D01*
X042940Y025081D01*
X043002Y025074D01*
X043064Y025063D01*
X043124Y025048D01*
X043184Y025030D01*
X043242Y025008D01*
X043299Y024982D01*
X043354Y024952D01*
X043407Y024919D01*
X043458Y024883D01*
X043506Y024844D01*
X043552Y024801D01*
X043595Y024756D01*
X043635Y024708D01*
X043672Y024658D01*
X043706Y024605D01*
X043737Y024551D01*
X043763Y024495D01*
X043787Y024437D01*
X043806Y024377D01*
X043822Y024317D01*
X043834Y024255D01*
X043842Y024194D01*
X043846Y024131D01*
X043846Y024069D01*
X043842Y024006D01*
X043834Y023945D01*
X043822Y023883D01*
X043806Y023823D01*
X043787Y023763D01*
X043763Y023705D01*
X043737Y023649D01*
X043706Y023595D01*
X043672Y023542D01*
X043635Y023492D01*
X043595Y023444D01*
X043552Y023399D01*
X043506Y023356D01*
X043458Y023317D01*
X043407Y023281D01*
X043354Y023248D01*
X043299Y023218D01*
X043242Y023192D01*
X043184Y023170D01*
X043124Y023152D01*
X043064Y023137D01*
X043002Y023126D01*
X042940Y023119D01*
X042878Y023116D01*
X042815Y023117D01*
X042753Y023122D01*
X042691Y023131D01*
X042630Y023144D01*
X042570Y023160D01*
X042511Y023181D01*
X042453Y023205D01*
X042397Y023233D01*
X042343Y023264D01*
X042291Y023298D01*
X042242Y023336D01*
X042194Y023377D01*
X042150Y023421D01*
X042108Y023467D01*
X042070Y023517D01*
X042034Y023568D01*
X042002Y023622D01*
X041974Y023677D01*
X041948Y023734D01*
X041927Y023793D01*
X041910Y023853D01*
X041896Y023914D01*
X041886Y023975D01*
X041880Y024038D01*
X041878Y024100D01*
X041878Y031600D02*
X041880Y031662D01*
X041886Y031725D01*
X041896Y031786D01*
X041910Y031847D01*
X041927Y031907D01*
X041948Y031966D01*
X041974Y032023D01*
X042002Y032078D01*
X042034Y032132D01*
X042070Y032183D01*
X042108Y032233D01*
X042150Y032279D01*
X042194Y032323D01*
X042242Y032364D01*
X042291Y032402D01*
X042343Y032436D01*
X042397Y032467D01*
X042453Y032495D01*
X042511Y032519D01*
X042570Y032540D01*
X042630Y032556D01*
X042691Y032569D01*
X042753Y032578D01*
X042815Y032583D01*
X042878Y032584D01*
X042940Y032581D01*
X043002Y032574D01*
X043064Y032563D01*
X043124Y032548D01*
X043184Y032530D01*
X043242Y032508D01*
X043299Y032482D01*
X043354Y032452D01*
X043407Y032419D01*
X043458Y032383D01*
X043506Y032344D01*
X043552Y032301D01*
X043595Y032256D01*
X043635Y032208D01*
X043672Y032158D01*
X043706Y032105D01*
X043737Y032051D01*
X043763Y031995D01*
X043787Y031937D01*
X043806Y031877D01*
X043822Y031817D01*
X043834Y031755D01*
X043842Y031694D01*
X043846Y031631D01*
X043846Y031569D01*
X043842Y031506D01*
X043834Y031445D01*
X043822Y031383D01*
X043806Y031323D01*
X043787Y031263D01*
X043763Y031205D01*
X043737Y031149D01*
X043706Y031095D01*
X043672Y031042D01*
X043635Y030992D01*
X043595Y030944D01*
X043552Y030899D01*
X043506Y030856D01*
X043458Y030817D01*
X043407Y030781D01*
X043354Y030748D01*
X043299Y030718D01*
X043242Y030692D01*
X043184Y030670D01*
X043124Y030652D01*
X043064Y030637D01*
X043002Y030626D01*
X042940Y030619D01*
X042878Y030616D01*
X042815Y030617D01*
X042753Y030622D01*
X042691Y030631D01*
X042630Y030644D01*
X042570Y030660D01*
X042511Y030681D01*
X042453Y030705D01*
X042397Y030733D01*
X042343Y030764D01*
X042291Y030798D01*
X042242Y030836D01*
X042194Y030877D01*
X042150Y030921D01*
X042108Y030967D01*
X042070Y031017D01*
X042034Y031068D01*
X042002Y031122D01*
X041974Y031177D01*
X041948Y031234D01*
X041927Y031293D01*
X041910Y031353D01*
X041896Y031414D01*
X041886Y031475D01*
X041880Y031538D01*
X041878Y031600D01*
X049378Y024100D02*
X049380Y024162D01*
X049386Y024225D01*
X049396Y024286D01*
X049410Y024347D01*
X049427Y024407D01*
X049448Y024466D01*
X049474Y024523D01*
X049502Y024578D01*
X049534Y024632D01*
X049570Y024683D01*
X049608Y024733D01*
X049650Y024779D01*
X049694Y024823D01*
X049742Y024864D01*
X049791Y024902D01*
X049843Y024936D01*
X049897Y024967D01*
X049953Y024995D01*
X050011Y025019D01*
X050070Y025040D01*
X050130Y025056D01*
X050191Y025069D01*
X050253Y025078D01*
X050315Y025083D01*
X050378Y025084D01*
X050440Y025081D01*
X050502Y025074D01*
X050564Y025063D01*
X050624Y025048D01*
X050684Y025030D01*
X050742Y025008D01*
X050799Y024982D01*
X050854Y024952D01*
X050907Y024919D01*
X050958Y024883D01*
X051006Y024844D01*
X051052Y024801D01*
X051095Y024756D01*
X051135Y024708D01*
X051172Y024658D01*
X051206Y024605D01*
X051237Y024551D01*
X051263Y024495D01*
X051287Y024437D01*
X051306Y024377D01*
X051322Y024317D01*
X051334Y024255D01*
X051342Y024194D01*
X051346Y024131D01*
X051346Y024069D01*
X051342Y024006D01*
X051334Y023945D01*
X051322Y023883D01*
X051306Y023823D01*
X051287Y023763D01*
X051263Y023705D01*
X051237Y023649D01*
X051206Y023595D01*
X051172Y023542D01*
X051135Y023492D01*
X051095Y023444D01*
X051052Y023399D01*
X051006Y023356D01*
X050958Y023317D01*
X050907Y023281D01*
X050854Y023248D01*
X050799Y023218D01*
X050742Y023192D01*
X050684Y023170D01*
X050624Y023152D01*
X050564Y023137D01*
X050502Y023126D01*
X050440Y023119D01*
X050378Y023116D01*
X050315Y023117D01*
X050253Y023122D01*
X050191Y023131D01*
X050130Y023144D01*
X050070Y023160D01*
X050011Y023181D01*
X049953Y023205D01*
X049897Y023233D01*
X049843Y023264D01*
X049791Y023298D01*
X049742Y023336D01*
X049694Y023377D01*
X049650Y023421D01*
X049608Y023467D01*
X049570Y023517D01*
X049534Y023568D01*
X049502Y023622D01*
X049474Y023677D01*
X049448Y023734D01*
X049427Y023793D01*
X049410Y023853D01*
X049396Y023914D01*
X049386Y023975D01*
X049380Y024038D01*
X049378Y024100D01*
X049378Y016600D02*
X049380Y016662D01*
X049386Y016725D01*
X049396Y016786D01*
X049410Y016847D01*
X049427Y016907D01*
X049448Y016966D01*
X049474Y017023D01*
X049502Y017078D01*
X049534Y017132D01*
X049570Y017183D01*
X049608Y017233D01*
X049650Y017279D01*
X049694Y017323D01*
X049742Y017364D01*
X049791Y017402D01*
X049843Y017436D01*
X049897Y017467D01*
X049953Y017495D01*
X050011Y017519D01*
X050070Y017540D01*
X050130Y017556D01*
X050191Y017569D01*
X050253Y017578D01*
X050315Y017583D01*
X050378Y017584D01*
X050440Y017581D01*
X050502Y017574D01*
X050564Y017563D01*
X050624Y017548D01*
X050684Y017530D01*
X050742Y017508D01*
X050799Y017482D01*
X050854Y017452D01*
X050907Y017419D01*
X050958Y017383D01*
X051006Y017344D01*
X051052Y017301D01*
X051095Y017256D01*
X051135Y017208D01*
X051172Y017158D01*
X051206Y017105D01*
X051237Y017051D01*
X051263Y016995D01*
X051287Y016937D01*
X051306Y016877D01*
X051322Y016817D01*
X051334Y016755D01*
X051342Y016694D01*
X051346Y016631D01*
X051346Y016569D01*
X051342Y016506D01*
X051334Y016445D01*
X051322Y016383D01*
X051306Y016323D01*
X051287Y016263D01*
X051263Y016205D01*
X051237Y016149D01*
X051206Y016095D01*
X051172Y016042D01*
X051135Y015992D01*
X051095Y015944D01*
X051052Y015899D01*
X051006Y015856D01*
X050958Y015817D01*
X050907Y015781D01*
X050854Y015748D01*
X050799Y015718D01*
X050742Y015692D01*
X050684Y015670D01*
X050624Y015652D01*
X050564Y015637D01*
X050502Y015626D01*
X050440Y015619D01*
X050378Y015616D01*
X050315Y015617D01*
X050253Y015622D01*
X050191Y015631D01*
X050130Y015644D01*
X050070Y015660D01*
X050011Y015681D01*
X049953Y015705D01*
X049897Y015733D01*
X049843Y015764D01*
X049791Y015798D01*
X049742Y015836D01*
X049694Y015877D01*
X049650Y015921D01*
X049608Y015967D01*
X049570Y016017D01*
X049534Y016068D01*
X049502Y016122D01*
X049474Y016177D01*
X049448Y016234D01*
X049427Y016293D01*
X049410Y016353D01*
X049396Y016414D01*
X049386Y016475D01*
X049380Y016538D01*
X049378Y016600D01*
X058878Y016600D02*
X058880Y016662D01*
X058886Y016725D01*
X058896Y016786D01*
X058910Y016847D01*
X058927Y016907D01*
X058948Y016966D01*
X058974Y017023D01*
X059002Y017078D01*
X059034Y017132D01*
X059070Y017183D01*
X059108Y017233D01*
X059150Y017279D01*
X059194Y017323D01*
X059242Y017364D01*
X059291Y017402D01*
X059343Y017436D01*
X059397Y017467D01*
X059453Y017495D01*
X059511Y017519D01*
X059570Y017540D01*
X059630Y017556D01*
X059691Y017569D01*
X059753Y017578D01*
X059815Y017583D01*
X059878Y017584D01*
X059940Y017581D01*
X060002Y017574D01*
X060064Y017563D01*
X060124Y017548D01*
X060184Y017530D01*
X060242Y017508D01*
X060299Y017482D01*
X060354Y017452D01*
X060407Y017419D01*
X060458Y017383D01*
X060506Y017344D01*
X060552Y017301D01*
X060595Y017256D01*
X060635Y017208D01*
X060672Y017158D01*
X060706Y017105D01*
X060737Y017051D01*
X060763Y016995D01*
X060787Y016937D01*
X060806Y016877D01*
X060822Y016817D01*
X060834Y016755D01*
X060842Y016694D01*
X060846Y016631D01*
X060846Y016569D01*
X060842Y016506D01*
X060834Y016445D01*
X060822Y016383D01*
X060806Y016323D01*
X060787Y016263D01*
X060763Y016205D01*
X060737Y016149D01*
X060706Y016095D01*
X060672Y016042D01*
X060635Y015992D01*
X060595Y015944D01*
X060552Y015899D01*
X060506Y015856D01*
X060458Y015817D01*
X060407Y015781D01*
X060354Y015748D01*
X060299Y015718D01*
X060242Y015692D01*
X060184Y015670D01*
X060124Y015652D01*
X060064Y015637D01*
X060002Y015626D01*
X059940Y015619D01*
X059878Y015616D01*
X059815Y015617D01*
X059753Y015622D01*
X059691Y015631D01*
X059630Y015644D01*
X059570Y015660D01*
X059511Y015681D01*
X059453Y015705D01*
X059397Y015733D01*
X059343Y015764D01*
X059291Y015798D01*
X059242Y015836D01*
X059194Y015877D01*
X059150Y015921D01*
X059108Y015967D01*
X059070Y016017D01*
X059034Y016068D01*
X059002Y016122D01*
X058974Y016177D01*
X058948Y016234D01*
X058927Y016293D01*
X058910Y016353D01*
X058896Y016414D01*
X058886Y016475D01*
X058880Y016538D01*
X058878Y016600D01*
X056878Y031600D02*
X056880Y031662D01*
X056886Y031725D01*
X056896Y031786D01*
X056910Y031847D01*
X056927Y031907D01*
X056948Y031966D01*
X056974Y032023D01*
X057002Y032078D01*
X057034Y032132D01*
X057070Y032183D01*
X057108Y032233D01*
X057150Y032279D01*
X057194Y032323D01*
X057242Y032364D01*
X057291Y032402D01*
X057343Y032436D01*
X057397Y032467D01*
X057453Y032495D01*
X057511Y032519D01*
X057570Y032540D01*
X057630Y032556D01*
X057691Y032569D01*
X057753Y032578D01*
X057815Y032583D01*
X057878Y032584D01*
X057940Y032581D01*
X058002Y032574D01*
X058064Y032563D01*
X058124Y032548D01*
X058184Y032530D01*
X058242Y032508D01*
X058299Y032482D01*
X058354Y032452D01*
X058407Y032419D01*
X058458Y032383D01*
X058506Y032344D01*
X058552Y032301D01*
X058595Y032256D01*
X058635Y032208D01*
X058672Y032158D01*
X058706Y032105D01*
X058737Y032051D01*
X058763Y031995D01*
X058787Y031937D01*
X058806Y031877D01*
X058822Y031817D01*
X058834Y031755D01*
X058842Y031694D01*
X058846Y031631D01*
X058846Y031569D01*
X058842Y031506D01*
X058834Y031445D01*
X058822Y031383D01*
X058806Y031323D01*
X058787Y031263D01*
X058763Y031205D01*
X058737Y031149D01*
X058706Y031095D01*
X058672Y031042D01*
X058635Y030992D01*
X058595Y030944D01*
X058552Y030899D01*
X058506Y030856D01*
X058458Y030817D01*
X058407Y030781D01*
X058354Y030748D01*
X058299Y030718D01*
X058242Y030692D01*
X058184Y030670D01*
X058124Y030652D01*
X058064Y030637D01*
X058002Y030626D01*
X057940Y030619D01*
X057878Y030616D01*
X057815Y030617D01*
X057753Y030622D01*
X057691Y030631D01*
X057630Y030644D01*
X057570Y030660D01*
X057511Y030681D01*
X057453Y030705D01*
X057397Y030733D01*
X057343Y030764D01*
X057291Y030798D01*
X057242Y030836D01*
X057194Y030877D01*
X057150Y030921D01*
X057108Y030967D01*
X057070Y031017D01*
X057034Y031068D01*
X057002Y031122D01*
X056974Y031177D01*
X056948Y031234D01*
X056927Y031293D01*
X056910Y031353D01*
X056896Y031414D01*
X056886Y031475D01*
X056880Y031538D01*
X056878Y031600D01*
X049753Y031600D02*
X049755Y031662D01*
X049761Y031725D01*
X049771Y031786D01*
X049785Y031847D01*
X049802Y031907D01*
X049823Y031966D01*
X049849Y032023D01*
X049877Y032078D01*
X049909Y032132D01*
X049945Y032183D01*
X049983Y032233D01*
X050025Y032279D01*
X050069Y032323D01*
X050117Y032364D01*
X050166Y032402D01*
X050218Y032436D01*
X050272Y032467D01*
X050328Y032495D01*
X050386Y032519D01*
X050445Y032540D01*
X050505Y032556D01*
X050566Y032569D01*
X050628Y032578D01*
X050690Y032583D01*
X050753Y032584D01*
X050815Y032581D01*
X050877Y032574D01*
X050939Y032563D01*
X050999Y032548D01*
X051059Y032530D01*
X051117Y032508D01*
X051174Y032482D01*
X051229Y032452D01*
X051282Y032419D01*
X051333Y032383D01*
X051381Y032344D01*
X051427Y032301D01*
X051470Y032256D01*
X051510Y032208D01*
X051547Y032158D01*
X051581Y032105D01*
X051612Y032051D01*
X051638Y031995D01*
X051662Y031937D01*
X051681Y031877D01*
X051697Y031817D01*
X051709Y031755D01*
X051717Y031694D01*
X051721Y031631D01*
X051721Y031569D01*
X051717Y031506D01*
X051709Y031445D01*
X051697Y031383D01*
X051681Y031323D01*
X051662Y031263D01*
X051638Y031205D01*
X051612Y031149D01*
X051581Y031095D01*
X051547Y031042D01*
X051510Y030992D01*
X051470Y030944D01*
X051427Y030899D01*
X051381Y030856D01*
X051333Y030817D01*
X051282Y030781D01*
X051229Y030748D01*
X051174Y030718D01*
X051117Y030692D01*
X051059Y030670D01*
X050999Y030652D01*
X050939Y030637D01*
X050877Y030626D01*
X050815Y030619D01*
X050753Y030616D01*
X050690Y030617D01*
X050628Y030622D01*
X050566Y030631D01*
X050505Y030644D01*
X050445Y030660D01*
X050386Y030681D01*
X050328Y030705D01*
X050272Y030733D01*
X050218Y030764D01*
X050166Y030798D01*
X050117Y030836D01*
X050069Y030877D01*
X050025Y030921D01*
X049983Y030967D01*
X049945Y031017D01*
X049909Y031068D01*
X049877Y031122D01*
X049849Y031177D01*
X049823Y031234D01*
X049802Y031293D01*
X049785Y031353D01*
X049771Y031414D01*
X049761Y031475D01*
X049755Y031538D01*
X049753Y031600D01*
X056691Y039038D02*
X056693Y039100D01*
X056699Y039163D01*
X056709Y039224D01*
X056723Y039285D01*
X056740Y039345D01*
X056761Y039404D01*
X056787Y039461D01*
X056815Y039516D01*
X056847Y039570D01*
X056883Y039621D01*
X056921Y039671D01*
X056963Y039717D01*
X057007Y039761D01*
X057055Y039802D01*
X057104Y039840D01*
X057156Y039874D01*
X057210Y039905D01*
X057266Y039933D01*
X057324Y039957D01*
X057383Y039978D01*
X057443Y039994D01*
X057504Y040007D01*
X057566Y040016D01*
X057628Y040021D01*
X057691Y040022D01*
X057753Y040019D01*
X057815Y040012D01*
X057877Y040001D01*
X057937Y039986D01*
X057997Y039968D01*
X058055Y039946D01*
X058112Y039920D01*
X058167Y039890D01*
X058220Y039857D01*
X058271Y039821D01*
X058319Y039782D01*
X058365Y039739D01*
X058408Y039694D01*
X058448Y039646D01*
X058485Y039596D01*
X058519Y039543D01*
X058550Y039489D01*
X058576Y039433D01*
X058600Y039375D01*
X058619Y039315D01*
X058635Y039255D01*
X058647Y039193D01*
X058655Y039132D01*
X058659Y039069D01*
X058659Y039007D01*
X058655Y038944D01*
X058647Y038883D01*
X058635Y038821D01*
X058619Y038761D01*
X058600Y038701D01*
X058576Y038643D01*
X058550Y038587D01*
X058519Y038533D01*
X058485Y038480D01*
X058448Y038430D01*
X058408Y038382D01*
X058365Y038337D01*
X058319Y038294D01*
X058271Y038255D01*
X058220Y038219D01*
X058167Y038186D01*
X058112Y038156D01*
X058055Y038130D01*
X057997Y038108D01*
X057937Y038090D01*
X057877Y038075D01*
X057815Y038064D01*
X057753Y038057D01*
X057691Y038054D01*
X057628Y038055D01*
X057566Y038060D01*
X057504Y038069D01*
X057443Y038082D01*
X057383Y038098D01*
X057324Y038119D01*
X057266Y038143D01*
X057210Y038171D01*
X057156Y038202D01*
X057104Y038236D01*
X057055Y038274D01*
X057007Y038315D01*
X056963Y038359D01*
X056921Y038405D01*
X056883Y038455D01*
X056847Y038506D01*
X056815Y038560D01*
X056787Y038615D01*
X056761Y038672D01*
X056740Y038731D01*
X056723Y038791D01*
X056709Y038852D01*
X056699Y038913D01*
X056693Y038976D01*
X056691Y039038D01*
X011878Y051350D02*
X011880Y051412D01*
X011886Y051475D01*
X011896Y051536D01*
X011910Y051597D01*
X011927Y051657D01*
X011948Y051716D01*
X011974Y051773D01*
X012002Y051828D01*
X012034Y051882D01*
X012070Y051933D01*
X012108Y051983D01*
X012150Y052029D01*
X012194Y052073D01*
X012242Y052114D01*
X012291Y052152D01*
X012343Y052186D01*
X012397Y052217D01*
X012453Y052245D01*
X012511Y052269D01*
X012570Y052290D01*
X012630Y052306D01*
X012691Y052319D01*
X012753Y052328D01*
X012815Y052333D01*
X012878Y052334D01*
X012940Y052331D01*
X013002Y052324D01*
X013064Y052313D01*
X013124Y052298D01*
X013184Y052280D01*
X013242Y052258D01*
X013299Y052232D01*
X013354Y052202D01*
X013407Y052169D01*
X013458Y052133D01*
X013506Y052094D01*
X013552Y052051D01*
X013595Y052006D01*
X013635Y051958D01*
X013672Y051908D01*
X013706Y051855D01*
X013737Y051801D01*
X013763Y051745D01*
X013787Y051687D01*
X013806Y051627D01*
X013822Y051567D01*
X013834Y051505D01*
X013842Y051444D01*
X013846Y051381D01*
X013846Y051319D01*
X013842Y051256D01*
X013834Y051195D01*
X013822Y051133D01*
X013806Y051073D01*
X013787Y051013D01*
X013763Y050955D01*
X013737Y050899D01*
X013706Y050845D01*
X013672Y050792D01*
X013635Y050742D01*
X013595Y050694D01*
X013552Y050649D01*
X013506Y050606D01*
X013458Y050567D01*
X013407Y050531D01*
X013354Y050498D01*
X013299Y050468D01*
X013242Y050442D01*
X013184Y050420D01*
X013124Y050402D01*
X013064Y050387D01*
X013002Y050376D01*
X012940Y050369D01*
X012878Y050366D01*
X012815Y050367D01*
X012753Y050372D01*
X012691Y050381D01*
X012630Y050394D01*
X012570Y050410D01*
X012511Y050431D01*
X012453Y050455D01*
X012397Y050483D01*
X012343Y050514D01*
X012291Y050548D01*
X012242Y050586D01*
X012194Y050627D01*
X012150Y050671D01*
X012108Y050717D01*
X012070Y050767D01*
X012034Y050818D01*
X012002Y050872D01*
X011974Y050927D01*
X011948Y050984D01*
X011927Y051043D01*
X011910Y051103D01*
X011896Y051164D01*
X011886Y051225D01*
X011880Y051288D01*
X011878Y051350D01*
D12*
X008915Y053350D02*
X008917Y053377D01*
X008923Y053404D01*
X008932Y053430D01*
X008945Y053454D01*
X008961Y053477D01*
X008980Y053496D01*
X009002Y053513D01*
X009026Y053527D01*
X009051Y053537D01*
X009078Y053544D01*
X009105Y053547D01*
X009133Y053546D01*
X009160Y053541D01*
X009186Y053533D01*
X009210Y053521D01*
X009233Y053505D01*
X009254Y053487D01*
X009271Y053466D01*
X009286Y053442D01*
X009297Y053417D01*
X009305Y053391D01*
X009309Y053364D01*
X009309Y053336D01*
X009305Y053309D01*
X009297Y053283D01*
X009286Y053258D01*
X009271Y053234D01*
X009254Y053213D01*
X009233Y053195D01*
X009211Y053179D01*
X009186Y053167D01*
X009160Y053159D01*
X009133Y053154D01*
X009105Y053153D01*
X009078Y053156D01*
X009051Y053163D01*
X009026Y053173D01*
X009002Y053187D01*
X008980Y053204D01*
X008961Y053223D01*
X008945Y053246D01*
X008932Y053270D01*
X008923Y053296D01*
X008917Y053323D01*
X008915Y053350D01*
X016415Y053350D02*
X016417Y053377D01*
X016423Y053404D01*
X016432Y053430D01*
X016445Y053454D01*
X016461Y053477D01*
X016480Y053496D01*
X016502Y053513D01*
X016526Y053527D01*
X016551Y053537D01*
X016578Y053544D01*
X016605Y053547D01*
X016633Y053546D01*
X016660Y053541D01*
X016686Y053533D01*
X016710Y053521D01*
X016733Y053505D01*
X016754Y053487D01*
X016771Y053466D01*
X016786Y053442D01*
X016797Y053417D01*
X016805Y053391D01*
X016809Y053364D01*
X016809Y053336D01*
X016805Y053309D01*
X016797Y053283D01*
X016786Y053258D01*
X016771Y053234D01*
X016754Y053213D01*
X016733Y053195D01*
X016711Y053179D01*
X016686Y053167D01*
X016660Y053159D01*
X016633Y053154D01*
X016605Y053153D01*
X016578Y053156D01*
X016551Y053163D01*
X016526Y053173D01*
X016502Y053187D01*
X016480Y053204D01*
X016461Y053223D01*
X016445Y053246D01*
X016432Y053270D01*
X016423Y053296D01*
X016417Y053323D01*
X016415Y053350D01*
X016415Y042850D02*
X016417Y042877D01*
X016423Y042904D01*
X016432Y042930D01*
X016445Y042954D01*
X016461Y042977D01*
X016480Y042996D01*
X016502Y043013D01*
X016526Y043027D01*
X016551Y043037D01*
X016578Y043044D01*
X016605Y043047D01*
X016633Y043046D01*
X016660Y043041D01*
X016686Y043033D01*
X016710Y043021D01*
X016733Y043005D01*
X016754Y042987D01*
X016771Y042966D01*
X016786Y042942D01*
X016797Y042917D01*
X016805Y042891D01*
X016809Y042864D01*
X016809Y042836D01*
X016805Y042809D01*
X016797Y042783D01*
X016786Y042758D01*
X016771Y042734D01*
X016754Y042713D01*
X016733Y042695D01*
X016711Y042679D01*
X016686Y042667D01*
X016660Y042659D01*
X016633Y042654D01*
X016605Y042653D01*
X016578Y042656D01*
X016551Y042663D01*
X016526Y042673D01*
X016502Y042687D01*
X016480Y042704D01*
X016461Y042723D01*
X016445Y042746D01*
X016432Y042770D01*
X016423Y042796D01*
X016417Y042823D01*
X016415Y042850D01*
X016415Y035350D02*
X016417Y035377D01*
X016423Y035404D01*
X016432Y035430D01*
X016445Y035454D01*
X016461Y035477D01*
X016480Y035496D01*
X016502Y035513D01*
X016526Y035527D01*
X016551Y035537D01*
X016578Y035544D01*
X016605Y035547D01*
X016633Y035546D01*
X016660Y035541D01*
X016686Y035533D01*
X016710Y035521D01*
X016733Y035505D01*
X016754Y035487D01*
X016771Y035466D01*
X016786Y035442D01*
X016797Y035417D01*
X016805Y035391D01*
X016809Y035364D01*
X016809Y035336D01*
X016805Y035309D01*
X016797Y035283D01*
X016786Y035258D01*
X016771Y035234D01*
X016754Y035213D01*
X016733Y035195D01*
X016711Y035179D01*
X016686Y035167D01*
X016660Y035159D01*
X016633Y035154D01*
X016605Y035153D01*
X016578Y035156D01*
X016551Y035163D01*
X016526Y035173D01*
X016502Y035187D01*
X016480Y035204D01*
X016461Y035223D01*
X016445Y035246D01*
X016432Y035270D01*
X016423Y035296D01*
X016417Y035323D01*
X016415Y035350D01*
X008915Y035350D02*
X008917Y035377D01*
X008923Y035404D01*
X008932Y035430D01*
X008945Y035454D01*
X008961Y035477D01*
X008980Y035496D01*
X009002Y035513D01*
X009026Y035527D01*
X009051Y035537D01*
X009078Y035544D01*
X009105Y035547D01*
X009133Y035546D01*
X009160Y035541D01*
X009186Y035533D01*
X009210Y035521D01*
X009233Y035505D01*
X009254Y035487D01*
X009271Y035466D01*
X009286Y035442D01*
X009297Y035417D01*
X009305Y035391D01*
X009309Y035364D01*
X009309Y035336D01*
X009305Y035309D01*
X009297Y035283D01*
X009286Y035258D01*
X009271Y035234D01*
X009254Y035213D01*
X009233Y035195D01*
X009211Y035179D01*
X009186Y035167D01*
X009160Y035159D01*
X009133Y035154D01*
X009105Y035153D01*
X009078Y035156D01*
X009051Y035163D01*
X009026Y035173D01*
X009002Y035187D01*
X008980Y035204D01*
X008961Y035223D01*
X008945Y035246D01*
X008932Y035270D01*
X008923Y035296D01*
X008917Y035323D01*
X008915Y035350D01*
X008915Y042850D02*
X008917Y042877D01*
X008923Y042904D01*
X008932Y042930D01*
X008945Y042954D01*
X008961Y042977D01*
X008980Y042996D01*
X009002Y043013D01*
X009026Y043027D01*
X009051Y043037D01*
X009078Y043044D01*
X009105Y043047D01*
X009133Y043046D01*
X009160Y043041D01*
X009186Y043033D01*
X009210Y043021D01*
X009233Y043005D01*
X009254Y042987D01*
X009271Y042966D01*
X009286Y042942D01*
X009297Y042917D01*
X009305Y042891D01*
X009309Y042864D01*
X009309Y042836D01*
X009305Y042809D01*
X009297Y042783D01*
X009286Y042758D01*
X009271Y042734D01*
X009254Y042713D01*
X009233Y042695D01*
X009211Y042679D01*
X009186Y042667D01*
X009160Y042659D01*
X009133Y042654D01*
X009105Y042653D01*
X009078Y042656D01*
X009051Y042663D01*
X009026Y042673D01*
X009002Y042687D01*
X008980Y042704D01*
X008961Y042723D01*
X008945Y042746D01*
X008932Y042770D01*
X008923Y042796D01*
X008917Y042823D01*
X008915Y042850D01*
X008915Y027850D02*
X008917Y027877D01*
X008923Y027904D01*
X008932Y027930D01*
X008945Y027954D01*
X008961Y027977D01*
X008980Y027996D01*
X009002Y028013D01*
X009026Y028027D01*
X009051Y028037D01*
X009078Y028044D01*
X009105Y028047D01*
X009133Y028046D01*
X009160Y028041D01*
X009186Y028033D01*
X009210Y028021D01*
X009233Y028005D01*
X009254Y027987D01*
X009271Y027966D01*
X009286Y027942D01*
X009297Y027917D01*
X009305Y027891D01*
X009309Y027864D01*
X009309Y027836D01*
X009305Y027809D01*
X009297Y027783D01*
X009286Y027758D01*
X009271Y027734D01*
X009254Y027713D01*
X009233Y027695D01*
X009211Y027679D01*
X009186Y027667D01*
X009160Y027659D01*
X009133Y027654D01*
X009105Y027653D01*
X009078Y027656D01*
X009051Y027663D01*
X009026Y027673D01*
X009002Y027687D01*
X008980Y027704D01*
X008961Y027723D01*
X008945Y027746D01*
X008932Y027770D01*
X008923Y027796D01*
X008917Y027823D01*
X008915Y027850D01*
X008915Y020350D02*
X008917Y020377D01*
X008923Y020404D01*
X008932Y020430D01*
X008945Y020454D01*
X008961Y020477D01*
X008980Y020496D01*
X009002Y020513D01*
X009026Y020527D01*
X009051Y020537D01*
X009078Y020544D01*
X009105Y020547D01*
X009133Y020546D01*
X009160Y020541D01*
X009186Y020533D01*
X009210Y020521D01*
X009233Y020505D01*
X009254Y020487D01*
X009271Y020466D01*
X009286Y020442D01*
X009297Y020417D01*
X009305Y020391D01*
X009309Y020364D01*
X009309Y020336D01*
X009305Y020309D01*
X009297Y020283D01*
X009286Y020258D01*
X009271Y020234D01*
X009254Y020213D01*
X009233Y020195D01*
X009211Y020179D01*
X009186Y020167D01*
X009160Y020159D01*
X009133Y020154D01*
X009105Y020153D01*
X009078Y020156D01*
X009051Y020163D01*
X009026Y020173D01*
X009002Y020187D01*
X008980Y020204D01*
X008961Y020223D01*
X008945Y020246D01*
X008932Y020270D01*
X008923Y020296D01*
X008917Y020323D01*
X008915Y020350D01*
X013290Y012850D02*
X013292Y012877D01*
X013298Y012904D01*
X013307Y012930D01*
X013320Y012954D01*
X013336Y012977D01*
X013355Y012996D01*
X013377Y013013D01*
X013401Y013027D01*
X013426Y013037D01*
X013453Y013044D01*
X013480Y013047D01*
X013508Y013046D01*
X013535Y013041D01*
X013561Y013033D01*
X013585Y013021D01*
X013608Y013005D01*
X013629Y012987D01*
X013646Y012966D01*
X013661Y012942D01*
X013672Y012917D01*
X013680Y012891D01*
X013684Y012864D01*
X013684Y012836D01*
X013680Y012809D01*
X013672Y012783D01*
X013661Y012758D01*
X013646Y012734D01*
X013629Y012713D01*
X013608Y012695D01*
X013586Y012679D01*
X013561Y012667D01*
X013535Y012659D01*
X013508Y012654D01*
X013480Y012653D01*
X013453Y012656D01*
X013426Y012663D01*
X013401Y012673D01*
X013377Y012687D01*
X013355Y012704D01*
X013336Y012723D01*
X013320Y012746D01*
X013307Y012770D01*
X013298Y012796D01*
X013292Y012823D01*
X013290Y012850D01*
X014700Y012850D02*
X014702Y012906D01*
X014708Y012961D01*
X014718Y013015D01*
X014731Y013069D01*
X014749Y013122D01*
X014770Y013173D01*
X014794Y013223D01*
X014822Y013271D01*
X014854Y013317D01*
X014888Y013361D01*
X014926Y013402D01*
X014966Y013440D01*
X015009Y013475D01*
X015054Y013507D01*
X015102Y013536D01*
X015151Y013562D01*
X015202Y013584D01*
X015254Y013602D01*
X015308Y013616D01*
X015363Y013627D01*
X015418Y013634D01*
X015473Y013637D01*
X015529Y013636D01*
X015584Y013631D01*
X015639Y013622D01*
X015693Y013610D01*
X015746Y013593D01*
X015798Y013573D01*
X015848Y013549D01*
X015896Y013522D01*
X015943Y013492D01*
X015987Y013458D01*
X016029Y013421D01*
X016067Y013381D01*
X016104Y013339D01*
X016137Y013294D01*
X016166Y013248D01*
X016193Y013199D01*
X016215Y013148D01*
X016235Y013096D01*
X016250Y013042D01*
X016262Y012988D01*
X016270Y012933D01*
X016274Y012878D01*
X016274Y012822D01*
X016270Y012767D01*
X016262Y012712D01*
X016250Y012658D01*
X016235Y012604D01*
X016215Y012552D01*
X016193Y012501D01*
X016166Y012452D01*
X016137Y012406D01*
X016104Y012361D01*
X016067Y012319D01*
X016029Y012279D01*
X015987Y012242D01*
X015943Y012208D01*
X015896Y012178D01*
X015848Y012151D01*
X015798Y012127D01*
X015746Y012107D01*
X015693Y012090D01*
X015639Y012078D01*
X015584Y012069D01*
X015529Y012064D01*
X015473Y012063D01*
X015418Y012066D01*
X015363Y012073D01*
X015308Y012084D01*
X015254Y012098D01*
X015202Y012116D01*
X015151Y012138D01*
X015102Y012164D01*
X015054Y012193D01*
X015009Y012225D01*
X014966Y012260D01*
X014926Y012298D01*
X014888Y012339D01*
X014854Y012383D01*
X014822Y012429D01*
X014794Y012477D01*
X014770Y012527D01*
X014749Y012578D01*
X014731Y012631D01*
X014718Y012685D01*
X014708Y012739D01*
X014702Y012794D01*
X014700Y012850D01*
X016415Y020350D02*
X016417Y020377D01*
X016423Y020404D01*
X016432Y020430D01*
X016445Y020454D01*
X016461Y020477D01*
X016480Y020496D01*
X016502Y020513D01*
X016526Y020527D01*
X016551Y020537D01*
X016578Y020544D01*
X016605Y020547D01*
X016633Y020546D01*
X016660Y020541D01*
X016686Y020533D01*
X016710Y020521D01*
X016733Y020505D01*
X016754Y020487D01*
X016771Y020466D01*
X016786Y020442D01*
X016797Y020417D01*
X016805Y020391D01*
X016809Y020364D01*
X016809Y020336D01*
X016805Y020309D01*
X016797Y020283D01*
X016786Y020258D01*
X016771Y020234D01*
X016754Y020213D01*
X016733Y020195D01*
X016711Y020179D01*
X016686Y020167D01*
X016660Y020159D01*
X016633Y020154D01*
X016605Y020153D01*
X016578Y020156D01*
X016551Y020163D01*
X016526Y020173D01*
X016502Y020187D01*
X016480Y020204D01*
X016461Y020223D01*
X016445Y020246D01*
X016432Y020270D01*
X016423Y020296D01*
X016417Y020323D01*
X016415Y020350D01*
X016415Y027850D02*
X016417Y027877D01*
X016423Y027904D01*
X016432Y027930D01*
X016445Y027954D01*
X016461Y027977D01*
X016480Y027996D01*
X016502Y028013D01*
X016526Y028027D01*
X016551Y028037D01*
X016578Y028044D01*
X016605Y028047D01*
X016633Y028046D01*
X016660Y028041D01*
X016686Y028033D01*
X016710Y028021D01*
X016733Y028005D01*
X016754Y027987D01*
X016771Y027966D01*
X016786Y027942D01*
X016797Y027917D01*
X016805Y027891D01*
X016809Y027864D01*
X016809Y027836D01*
X016805Y027809D01*
X016797Y027783D01*
X016786Y027758D01*
X016771Y027734D01*
X016754Y027713D01*
X016733Y027695D01*
X016711Y027679D01*
X016686Y027667D01*
X016660Y027659D01*
X016633Y027654D01*
X016605Y027653D01*
X016578Y027656D01*
X016551Y027663D01*
X016526Y027673D01*
X016502Y027687D01*
X016480Y027704D01*
X016461Y027723D01*
X016445Y027746D01*
X016432Y027770D01*
X016423Y027796D01*
X016417Y027823D01*
X016415Y027850D01*
X023915Y027850D02*
X023917Y027877D01*
X023923Y027904D01*
X023932Y027930D01*
X023945Y027954D01*
X023961Y027977D01*
X023980Y027996D01*
X024002Y028013D01*
X024026Y028027D01*
X024051Y028037D01*
X024078Y028044D01*
X024105Y028047D01*
X024133Y028046D01*
X024160Y028041D01*
X024186Y028033D01*
X024210Y028021D01*
X024233Y028005D01*
X024254Y027987D01*
X024271Y027966D01*
X024286Y027942D01*
X024297Y027917D01*
X024305Y027891D01*
X024309Y027864D01*
X024309Y027836D01*
X024305Y027809D01*
X024297Y027783D01*
X024286Y027758D01*
X024271Y027734D01*
X024254Y027713D01*
X024233Y027695D01*
X024211Y027679D01*
X024186Y027667D01*
X024160Y027659D01*
X024133Y027654D01*
X024105Y027653D01*
X024078Y027656D01*
X024051Y027663D01*
X024026Y027673D01*
X024002Y027687D01*
X023980Y027704D01*
X023961Y027723D01*
X023945Y027746D01*
X023932Y027770D01*
X023923Y027796D01*
X023917Y027823D01*
X023915Y027850D01*
X023915Y020350D02*
X023917Y020377D01*
X023923Y020404D01*
X023932Y020430D01*
X023945Y020454D01*
X023961Y020477D01*
X023980Y020496D01*
X024002Y020513D01*
X024026Y020527D01*
X024051Y020537D01*
X024078Y020544D01*
X024105Y020547D01*
X024133Y020546D01*
X024160Y020541D01*
X024186Y020533D01*
X024210Y020521D01*
X024233Y020505D01*
X024254Y020487D01*
X024271Y020466D01*
X024286Y020442D01*
X024297Y020417D01*
X024305Y020391D01*
X024309Y020364D01*
X024309Y020336D01*
X024305Y020309D01*
X024297Y020283D01*
X024286Y020258D01*
X024271Y020234D01*
X024254Y020213D01*
X024233Y020195D01*
X024211Y020179D01*
X024186Y020167D01*
X024160Y020159D01*
X024133Y020154D01*
X024105Y020153D01*
X024078Y020156D01*
X024051Y020163D01*
X024026Y020173D01*
X024002Y020187D01*
X023980Y020204D01*
X023961Y020223D01*
X023945Y020246D01*
X023932Y020270D01*
X023923Y020296D01*
X023917Y020323D01*
X023915Y020350D01*
X026888Y012850D02*
X026890Y012906D01*
X026896Y012961D01*
X026906Y013015D01*
X026919Y013069D01*
X026937Y013122D01*
X026958Y013173D01*
X026982Y013223D01*
X027010Y013271D01*
X027042Y013317D01*
X027076Y013361D01*
X027114Y013402D01*
X027154Y013440D01*
X027197Y013475D01*
X027242Y013507D01*
X027290Y013536D01*
X027339Y013562D01*
X027390Y013584D01*
X027442Y013602D01*
X027496Y013616D01*
X027551Y013627D01*
X027606Y013634D01*
X027661Y013637D01*
X027717Y013636D01*
X027772Y013631D01*
X027827Y013622D01*
X027881Y013610D01*
X027934Y013593D01*
X027986Y013573D01*
X028036Y013549D01*
X028084Y013522D01*
X028131Y013492D01*
X028175Y013458D01*
X028217Y013421D01*
X028255Y013381D01*
X028292Y013339D01*
X028325Y013294D01*
X028354Y013248D01*
X028381Y013199D01*
X028403Y013148D01*
X028423Y013096D01*
X028438Y013042D01*
X028450Y012988D01*
X028458Y012933D01*
X028462Y012878D01*
X028462Y012822D01*
X028458Y012767D01*
X028450Y012712D01*
X028438Y012658D01*
X028423Y012604D01*
X028403Y012552D01*
X028381Y012501D01*
X028354Y012452D01*
X028325Y012406D01*
X028292Y012361D01*
X028255Y012319D01*
X028217Y012279D01*
X028175Y012242D01*
X028131Y012208D01*
X028084Y012178D01*
X028036Y012151D01*
X027986Y012127D01*
X027934Y012107D01*
X027881Y012090D01*
X027827Y012078D01*
X027772Y012069D01*
X027717Y012064D01*
X027661Y012063D01*
X027606Y012066D01*
X027551Y012073D01*
X027496Y012084D01*
X027442Y012098D01*
X027390Y012116D01*
X027339Y012138D01*
X027290Y012164D01*
X027242Y012193D01*
X027197Y012225D01*
X027154Y012260D01*
X027114Y012298D01*
X027076Y012339D01*
X027042Y012383D01*
X027010Y012429D01*
X026982Y012477D01*
X026958Y012527D01*
X026937Y012578D01*
X026919Y012631D01*
X026906Y012685D01*
X026896Y012739D01*
X026890Y012794D01*
X026888Y012850D01*
X028415Y012850D02*
X028417Y012877D01*
X028423Y012904D01*
X028432Y012930D01*
X028445Y012954D01*
X028461Y012977D01*
X028480Y012996D01*
X028502Y013013D01*
X028526Y013027D01*
X028551Y013037D01*
X028578Y013044D01*
X028605Y013047D01*
X028633Y013046D01*
X028660Y013041D01*
X028686Y013033D01*
X028710Y013021D01*
X028733Y013005D01*
X028754Y012987D01*
X028771Y012966D01*
X028786Y012942D01*
X028797Y012917D01*
X028805Y012891D01*
X028809Y012864D01*
X028809Y012836D01*
X028805Y012809D01*
X028797Y012783D01*
X028786Y012758D01*
X028771Y012734D01*
X028754Y012713D01*
X028733Y012695D01*
X028711Y012679D01*
X028686Y012667D01*
X028660Y012659D01*
X028633Y012654D01*
X028605Y012653D01*
X028578Y012656D01*
X028551Y012663D01*
X028526Y012673D01*
X028502Y012687D01*
X028480Y012704D01*
X028461Y012723D01*
X028445Y012746D01*
X028432Y012770D01*
X028423Y012796D01*
X028417Y012823D01*
X028415Y012850D01*
X031415Y020350D02*
X031417Y020377D01*
X031423Y020404D01*
X031432Y020430D01*
X031445Y020454D01*
X031461Y020477D01*
X031480Y020496D01*
X031502Y020513D01*
X031526Y020527D01*
X031551Y020537D01*
X031578Y020544D01*
X031605Y020547D01*
X031633Y020546D01*
X031660Y020541D01*
X031686Y020533D01*
X031710Y020521D01*
X031733Y020505D01*
X031754Y020487D01*
X031771Y020466D01*
X031786Y020442D01*
X031797Y020417D01*
X031805Y020391D01*
X031809Y020364D01*
X031809Y020336D01*
X031805Y020309D01*
X031797Y020283D01*
X031786Y020258D01*
X031771Y020234D01*
X031754Y020213D01*
X031733Y020195D01*
X031711Y020179D01*
X031686Y020167D01*
X031660Y020159D01*
X031633Y020154D01*
X031605Y020153D01*
X031578Y020156D01*
X031551Y020163D01*
X031526Y020173D01*
X031502Y020187D01*
X031480Y020204D01*
X031461Y020223D01*
X031445Y020246D01*
X031432Y020270D01*
X031423Y020296D01*
X031417Y020323D01*
X031415Y020350D01*
X031415Y027850D02*
X031417Y027877D01*
X031423Y027904D01*
X031432Y027930D01*
X031445Y027954D01*
X031461Y027977D01*
X031480Y027996D01*
X031502Y028013D01*
X031526Y028027D01*
X031551Y028037D01*
X031578Y028044D01*
X031605Y028047D01*
X031633Y028046D01*
X031660Y028041D01*
X031686Y028033D01*
X031710Y028021D01*
X031733Y028005D01*
X031754Y027987D01*
X031771Y027966D01*
X031786Y027942D01*
X031797Y027917D01*
X031805Y027891D01*
X031809Y027864D01*
X031809Y027836D01*
X031805Y027809D01*
X031797Y027783D01*
X031786Y027758D01*
X031771Y027734D01*
X031754Y027713D01*
X031733Y027695D01*
X031711Y027679D01*
X031686Y027667D01*
X031660Y027659D01*
X031633Y027654D01*
X031605Y027653D01*
X031578Y027656D01*
X031551Y027663D01*
X031526Y027673D01*
X031502Y027687D01*
X031480Y027704D01*
X031461Y027723D01*
X031445Y027746D01*
X031432Y027770D01*
X031423Y027796D01*
X031417Y027823D01*
X031415Y027850D01*
X031415Y035350D02*
X031417Y035377D01*
X031423Y035404D01*
X031432Y035430D01*
X031445Y035454D01*
X031461Y035477D01*
X031480Y035496D01*
X031502Y035513D01*
X031526Y035527D01*
X031551Y035537D01*
X031578Y035544D01*
X031605Y035547D01*
X031633Y035546D01*
X031660Y035541D01*
X031686Y035533D01*
X031710Y035521D01*
X031733Y035505D01*
X031754Y035487D01*
X031771Y035466D01*
X031786Y035442D01*
X031797Y035417D01*
X031805Y035391D01*
X031809Y035364D01*
X031809Y035336D01*
X031805Y035309D01*
X031797Y035283D01*
X031786Y035258D01*
X031771Y035234D01*
X031754Y035213D01*
X031733Y035195D01*
X031711Y035179D01*
X031686Y035167D01*
X031660Y035159D01*
X031633Y035154D01*
X031605Y035153D01*
X031578Y035156D01*
X031551Y035163D01*
X031526Y035173D01*
X031502Y035187D01*
X031480Y035204D01*
X031461Y035223D01*
X031445Y035246D01*
X031432Y035270D01*
X031423Y035296D01*
X031417Y035323D01*
X031415Y035350D01*
X031415Y042850D02*
X031417Y042877D01*
X031423Y042904D01*
X031432Y042930D01*
X031445Y042954D01*
X031461Y042977D01*
X031480Y042996D01*
X031502Y043013D01*
X031526Y043027D01*
X031551Y043037D01*
X031578Y043044D01*
X031605Y043047D01*
X031633Y043046D01*
X031660Y043041D01*
X031686Y043033D01*
X031710Y043021D01*
X031733Y043005D01*
X031754Y042987D01*
X031771Y042966D01*
X031786Y042942D01*
X031797Y042917D01*
X031805Y042891D01*
X031809Y042864D01*
X031809Y042836D01*
X031805Y042809D01*
X031797Y042783D01*
X031786Y042758D01*
X031771Y042734D01*
X031754Y042713D01*
X031733Y042695D01*
X031711Y042679D01*
X031686Y042667D01*
X031660Y042659D01*
X031633Y042654D01*
X031605Y042653D01*
X031578Y042656D01*
X031551Y042663D01*
X031526Y042673D01*
X031502Y042687D01*
X031480Y042704D01*
X031461Y042723D01*
X031445Y042746D01*
X031432Y042770D01*
X031423Y042796D01*
X031417Y042823D01*
X031415Y042850D01*
X023915Y042850D02*
X023917Y042877D01*
X023923Y042904D01*
X023932Y042930D01*
X023945Y042954D01*
X023961Y042977D01*
X023980Y042996D01*
X024002Y043013D01*
X024026Y043027D01*
X024051Y043037D01*
X024078Y043044D01*
X024105Y043047D01*
X024133Y043046D01*
X024160Y043041D01*
X024186Y043033D01*
X024210Y043021D01*
X024233Y043005D01*
X024254Y042987D01*
X024271Y042966D01*
X024286Y042942D01*
X024297Y042917D01*
X024305Y042891D01*
X024309Y042864D01*
X024309Y042836D01*
X024305Y042809D01*
X024297Y042783D01*
X024286Y042758D01*
X024271Y042734D01*
X024254Y042713D01*
X024233Y042695D01*
X024211Y042679D01*
X024186Y042667D01*
X024160Y042659D01*
X024133Y042654D01*
X024105Y042653D01*
X024078Y042656D01*
X024051Y042663D01*
X024026Y042673D01*
X024002Y042687D01*
X023980Y042704D01*
X023961Y042723D01*
X023945Y042746D01*
X023932Y042770D01*
X023923Y042796D01*
X023917Y042823D01*
X023915Y042850D01*
X023915Y035350D02*
X023917Y035377D01*
X023923Y035404D01*
X023932Y035430D01*
X023945Y035454D01*
X023961Y035477D01*
X023980Y035496D01*
X024002Y035513D01*
X024026Y035527D01*
X024051Y035537D01*
X024078Y035544D01*
X024105Y035547D01*
X024133Y035546D01*
X024160Y035541D01*
X024186Y035533D01*
X024210Y035521D01*
X024233Y035505D01*
X024254Y035487D01*
X024271Y035466D01*
X024286Y035442D01*
X024297Y035417D01*
X024305Y035391D01*
X024309Y035364D01*
X024309Y035336D01*
X024305Y035309D01*
X024297Y035283D01*
X024286Y035258D01*
X024271Y035234D01*
X024254Y035213D01*
X024233Y035195D01*
X024211Y035179D01*
X024186Y035167D01*
X024160Y035159D01*
X024133Y035154D01*
X024105Y035153D01*
X024078Y035156D01*
X024051Y035163D01*
X024026Y035173D01*
X024002Y035187D01*
X023980Y035204D01*
X023961Y035223D01*
X023945Y035246D01*
X023932Y035270D01*
X023923Y035296D01*
X023917Y035323D01*
X023915Y035350D01*
X038915Y035350D02*
X038917Y035377D01*
X038923Y035404D01*
X038932Y035430D01*
X038945Y035454D01*
X038961Y035477D01*
X038980Y035496D01*
X039002Y035513D01*
X039026Y035527D01*
X039051Y035537D01*
X039078Y035544D01*
X039105Y035547D01*
X039133Y035546D01*
X039160Y035541D01*
X039186Y035533D01*
X039210Y035521D01*
X039233Y035505D01*
X039254Y035487D01*
X039271Y035466D01*
X039286Y035442D01*
X039297Y035417D01*
X039305Y035391D01*
X039309Y035364D01*
X039309Y035336D01*
X039305Y035309D01*
X039297Y035283D01*
X039286Y035258D01*
X039271Y035234D01*
X039254Y035213D01*
X039233Y035195D01*
X039211Y035179D01*
X039186Y035167D01*
X039160Y035159D01*
X039133Y035154D01*
X039105Y035153D01*
X039078Y035156D01*
X039051Y035163D01*
X039026Y035173D01*
X039002Y035187D01*
X038980Y035204D01*
X038961Y035223D01*
X038945Y035246D01*
X038932Y035270D01*
X038923Y035296D01*
X038917Y035323D01*
X038915Y035350D01*
X038915Y042850D02*
X038917Y042877D01*
X038923Y042904D01*
X038932Y042930D01*
X038945Y042954D01*
X038961Y042977D01*
X038980Y042996D01*
X039002Y043013D01*
X039026Y043027D01*
X039051Y043037D01*
X039078Y043044D01*
X039105Y043047D01*
X039133Y043046D01*
X039160Y043041D01*
X039186Y043033D01*
X039210Y043021D01*
X039233Y043005D01*
X039254Y042987D01*
X039271Y042966D01*
X039286Y042942D01*
X039297Y042917D01*
X039305Y042891D01*
X039309Y042864D01*
X039309Y042836D01*
X039305Y042809D01*
X039297Y042783D01*
X039286Y042758D01*
X039271Y042734D01*
X039254Y042713D01*
X039233Y042695D01*
X039211Y042679D01*
X039186Y042667D01*
X039160Y042659D01*
X039133Y042654D01*
X039105Y042653D01*
X039078Y042656D01*
X039051Y042663D01*
X039026Y042673D01*
X039002Y042687D01*
X038980Y042704D01*
X038961Y042723D01*
X038945Y042746D01*
X038932Y042770D01*
X038923Y042796D01*
X038917Y042823D01*
X038915Y042850D01*
X046415Y042850D02*
X046417Y042877D01*
X046423Y042904D01*
X046432Y042930D01*
X046445Y042954D01*
X046461Y042977D01*
X046480Y042996D01*
X046502Y043013D01*
X046526Y043027D01*
X046551Y043037D01*
X046578Y043044D01*
X046605Y043047D01*
X046633Y043046D01*
X046660Y043041D01*
X046686Y043033D01*
X046710Y043021D01*
X046733Y043005D01*
X046754Y042987D01*
X046771Y042966D01*
X046786Y042942D01*
X046797Y042917D01*
X046805Y042891D01*
X046809Y042864D01*
X046809Y042836D01*
X046805Y042809D01*
X046797Y042783D01*
X046786Y042758D01*
X046771Y042734D01*
X046754Y042713D01*
X046733Y042695D01*
X046711Y042679D01*
X046686Y042667D01*
X046660Y042659D01*
X046633Y042654D01*
X046605Y042653D01*
X046578Y042656D01*
X046551Y042663D01*
X046526Y042673D01*
X046502Y042687D01*
X046480Y042704D01*
X046461Y042723D01*
X046445Y042746D01*
X046432Y042770D01*
X046423Y042796D01*
X046417Y042823D01*
X046415Y042850D01*
X046415Y035350D02*
X046417Y035377D01*
X046423Y035404D01*
X046432Y035430D01*
X046445Y035454D01*
X046461Y035477D01*
X046480Y035496D01*
X046502Y035513D01*
X046526Y035527D01*
X046551Y035537D01*
X046578Y035544D01*
X046605Y035547D01*
X046633Y035546D01*
X046660Y035541D01*
X046686Y035533D01*
X046710Y035521D01*
X046733Y035505D01*
X046754Y035487D01*
X046771Y035466D01*
X046786Y035442D01*
X046797Y035417D01*
X046805Y035391D01*
X046809Y035364D01*
X046809Y035336D01*
X046805Y035309D01*
X046797Y035283D01*
X046786Y035258D01*
X046771Y035234D01*
X046754Y035213D01*
X046733Y035195D01*
X046711Y035179D01*
X046686Y035167D01*
X046660Y035159D01*
X046633Y035154D01*
X046605Y035153D01*
X046578Y035156D01*
X046551Y035163D01*
X046526Y035173D01*
X046502Y035187D01*
X046480Y035204D01*
X046461Y035223D01*
X046445Y035246D01*
X046432Y035270D01*
X046423Y035296D01*
X046417Y035323D01*
X046415Y035350D01*
X046415Y027850D02*
X046417Y027877D01*
X046423Y027904D01*
X046432Y027930D01*
X046445Y027954D01*
X046461Y027977D01*
X046480Y027996D01*
X046502Y028013D01*
X046526Y028027D01*
X046551Y028037D01*
X046578Y028044D01*
X046605Y028047D01*
X046633Y028046D01*
X046660Y028041D01*
X046686Y028033D01*
X046710Y028021D01*
X046733Y028005D01*
X046754Y027987D01*
X046771Y027966D01*
X046786Y027942D01*
X046797Y027917D01*
X046805Y027891D01*
X046809Y027864D01*
X046809Y027836D01*
X046805Y027809D01*
X046797Y027783D01*
X046786Y027758D01*
X046771Y027734D01*
X046754Y027713D01*
X046733Y027695D01*
X046711Y027679D01*
X046686Y027667D01*
X046660Y027659D01*
X046633Y027654D01*
X046605Y027653D01*
X046578Y027656D01*
X046551Y027663D01*
X046526Y027673D01*
X046502Y027687D01*
X046480Y027704D01*
X046461Y027723D01*
X046445Y027746D01*
X046432Y027770D01*
X046423Y027796D01*
X046417Y027823D01*
X046415Y027850D01*
X046415Y020350D02*
X046417Y020377D01*
X046423Y020404D01*
X046432Y020430D01*
X046445Y020454D01*
X046461Y020477D01*
X046480Y020496D01*
X046502Y020513D01*
X046526Y020527D01*
X046551Y020537D01*
X046578Y020544D01*
X046605Y020547D01*
X046633Y020546D01*
X046660Y020541D01*
X046686Y020533D01*
X046710Y020521D01*
X046733Y020505D01*
X046754Y020487D01*
X046771Y020466D01*
X046786Y020442D01*
X046797Y020417D01*
X046805Y020391D01*
X046809Y020364D01*
X046809Y020336D01*
X046805Y020309D01*
X046797Y020283D01*
X046786Y020258D01*
X046771Y020234D01*
X046754Y020213D01*
X046733Y020195D01*
X046711Y020179D01*
X046686Y020167D01*
X046660Y020159D01*
X046633Y020154D01*
X046605Y020153D01*
X046578Y020156D01*
X046551Y020163D01*
X046526Y020173D01*
X046502Y020187D01*
X046480Y020204D01*
X046461Y020223D01*
X046445Y020246D01*
X046432Y020270D01*
X046423Y020296D01*
X046417Y020323D01*
X046415Y020350D01*
X045415Y012850D02*
X045417Y012877D01*
X045423Y012904D01*
X045432Y012930D01*
X045445Y012954D01*
X045461Y012977D01*
X045480Y012996D01*
X045502Y013013D01*
X045526Y013027D01*
X045551Y013037D01*
X045578Y013044D01*
X045605Y013047D01*
X045633Y013046D01*
X045660Y013041D01*
X045686Y013033D01*
X045710Y013021D01*
X045733Y013005D01*
X045754Y012987D01*
X045771Y012966D01*
X045786Y012942D01*
X045797Y012917D01*
X045805Y012891D01*
X045809Y012864D01*
X045809Y012836D01*
X045805Y012809D01*
X045797Y012783D01*
X045786Y012758D01*
X045771Y012734D01*
X045754Y012713D01*
X045733Y012695D01*
X045711Y012679D01*
X045686Y012667D01*
X045660Y012659D01*
X045633Y012654D01*
X045605Y012653D01*
X045578Y012656D01*
X045551Y012663D01*
X045526Y012673D01*
X045502Y012687D01*
X045480Y012704D01*
X045461Y012723D01*
X045445Y012746D01*
X045432Y012770D01*
X045423Y012796D01*
X045417Y012823D01*
X045415Y012850D01*
X038915Y020350D02*
X038917Y020377D01*
X038923Y020404D01*
X038932Y020430D01*
X038945Y020454D01*
X038961Y020477D01*
X038980Y020496D01*
X039002Y020513D01*
X039026Y020527D01*
X039051Y020537D01*
X039078Y020544D01*
X039105Y020547D01*
X039133Y020546D01*
X039160Y020541D01*
X039186Y020533D01*
X039210Y020521D01*
X039233Y020505D01*
X039254Y020487D01*
X039271Y020466D01*
X039286Y020442D01*
X039297Y020417D01*
X039305Y020391D01*
X039309Y020364D01*
X039309Y020336D01*
X039305Y020309D01*
X039297Y020283D01*
X039286Y020258D01*
X039271Y020234D01*
X039254Y020213D01*
X039233Y020195D01*
X039211Y020179D01*
X039186Y020167D01*
X039160Y020159D01*
X039133Y020154D01*
X039105Y020153D01*
X039078Y020156D01*
X039051Y020163D01*
X039026Y020173D01*
X039002Y020187D01*
X038980Y020204D01*
X038961Y020223D01*
X038945Y020246D01*
X038932Y020270D01*
X038923Y020296D01*
X038917Y020323D01*
X038915Y020350D01*
X038915Y027850D02*
X038917Y027877D01*
X038923Y027904D01*
X038932Y027930D01*
X038945Y027954D01*
X038961Y027977D01*
X038980Y027996D01*
X039002Y028013D01*
X039026Y028027D01*
X039051Y028037D01*
X039078Y028044D01*
X039105Y028047D01*
X039133Y028046D01*
X039160Y028041D01*
X039186Y028033D01*
X039210Y028021D01*
X039233Y028005D01*
X039254Y027987D01*
X039271Y027966D01*
X039286Y027942D01*
X039297Y027917D01*
X039305Y027891D01*
X039309Y027864D01*
X039309Y027836D01*
X039305Y027809D01*
X039297Y027783D01*
X039286Y027758D01*
X039271Y027734D01*
X039254Y027713D01*
X039233Y027695D01*
X039211Y027679D01*
X039186Y027667D01*
X039160Y027659D01*
X039133Y027654D01*
X039105Y027653D01*
X039078Y027656D01*
X039051Y027663D01*
X039026Y027673D01*
X039002Y027687D01*
X038980Y027704D01*
X038961Y027723D01*
X038945Y027746D01*
X038932Y027770D01*
X038923Y027796D01*
X038917Y027823D01*
X038915Y027850D01*
X036915Y012850D02*
X036917Y012877D01*
X036923Y012904D01*
X036932Y012930D01*
X036945Y012954D01*
X036961Y012977D01*
X036980Y012996D01*
X037002Y013013D01*
X037026Y013027D01*
X037051Y013037D01*
X037078Y013044D01*
X037105Y013047D01*
X037133Y013046D01*
X037160Y013041D01*
X037186Y013033D01*
X037210Y013021D01*
X037233Y013005D01*
X037254Y012987D01*
X037271Y012966D01*
X037286Y012942D01*
X037297Y012917D01*
X037305Y012891D01*
X037309Y012864D01*
X037309Y012836D01*
X037305Y012809D01*
X037297Y012783D01*
X037286Y012758D01*
X037271Y012734D01*
X037254Y012713D01*
X037233Y012695D01*
X037211Y012679D01*
X037186Y012667D01*
X037160Y012659D01*
X037133Y012654D01*
X037105Y012653D01*
X037078Y012656D01*
X037051Y012663D01*
X037026Y012673D01*
X037002Y012687D01*
X036980Y012704D01*
X036961Y012723D01*
X036945Y012746D01*
X036932Y012770D01*
X036923Y012796D01*
X036917Y012823D01*
X036915Y012850D01*
X035263Y012850D02*
X035265Y012906D01*
X035271Y012961D01*
X035281Y013015D01*
X035294Y013069D01*
X035312Y013122D01*
X035333Y013173D01*
X035357Y013223D01*
X035385Y013271D01*
X035417Y013317D01*
X035451Y013361D01*
X035489Y013402D01*
X035529Y013440D01*
X035572Y013475D01*
X035617Y013507D01*
X035665Y013536D01*
X035714Y013562D01*
X035765Y013584D01*
X035817Y013602D01*
X035871Y013616D01*
X035926Y013627D01*
X035981Y013634D01*
X036036Y013637D01*
X036092Y013636D01*
X036147Y013631D01*
X036202Y013622D01*
X036256Y013610D01*
X036309Y013593D01*
X036361Y013573D01*
X036411Y013549D01*
X036459Y013522D01*
X036506Y013492D01*
X036550Y013458D01*
X036592Y013421D01*
X036630Y013381D01*
X036667Y013339D01*
X036700Y013294D01*
X036729Y013248D01*
X036756Y013199D01*
X036778Y013148D01*
X036798Y013096D01*
X036813Y013042D01*
X036825Y012988D01*
X036833Y012933D01*
X036837Y012878D01*
X036837Y012822D01*
X036833Y012767D01*
X036825Y012712D01*
X036813Y012658D01*
X036798Y012604D01*
X036778Y012552D01*
X036756Y012501D01*
X036729Y012452D01*
X036700Y012406D01*
X036667Y012361D01*
X036630Y012319D01*
X036592Y012279D01*
X036550Y012242D01*
X036506Y012208D01*
X036459Y012178D01*
X036411Y012151D01*
X036361Y012127D01*
X036309Y012107D01*
X036256Y012090D01*
X036202Y012078D01*
X036147Y012069D01*
X036092Y012064D01*
X036036Y012063D01*
X035981Y012066D01*
X035926Y012073D01*
X035871Y012084D01*
X035817Y012098D01*
X035765Y012116D01*
X035714Y012138D01*
X035665Y012164D01*
X035617Y012193D01*
X035572Y012225D01*
X035529Y012260D01*
X035489Y012298D01*
X035451Y012339D01*
X035417Y012383D01*
X035385Y012429D01*
X035357Y012477D01*
X035333Y012527D01*
X035312Y012578D01*
X035294Y012631D01*
X035281Y012685D01*
X035271Y012739D01*
X035265Y012794D01*
X035263Y012850D01*
X054915Y012850D02*
X054917Y012877D01*
X054923Y012904D01*
X054932Y012930D01*
X054945Y012954D01*
X054961Y012977D01*
X054980Y012996D01*
X055002Y013013D01*
X055026Y013027D01*
X055051Y013037D01*
X055078Y013044D01*
X055105Y013047D01*
X055133Y013046D01*
X055160Y013041D01*
X055186Y013033D01*
X055210Y013021D01*
X055233Y013005D01*
X055254Y012987D01*
X055271Y012966D01*
X055286Y012942D01*
X055297Y012917D01*
X055305Y012891D01*
X055309Y012864D01*
X055309Y012836D01*
X055305Y012809D01*
X055297Y012783D01*
X055286Y012758D01*
X055271Y012734D01*
X055254Y012713D01*
X055233Y012695D01*
X055211Y012679D01*
X055186Y012667D01*
X055160Y012659D01*
X055133Y012654D01*
X055105Y012653D01*
X055078Y012656D01*
X055051Y012663D01*
X055026Y012673D01*
X055002Y012687D01*
X054980Y012704D01*
X054961Y012723D01*
X054945Y012746D01*
X054932Y012770D01*
X054923Y012796D01*
X054917Y012823D01*
X054915Y012850D01*
X054915Y020350D02*
X054917Y020377D01*
X054923Y020404D01*
X054932Y020430D01*
X054945Y020454D01*
X054961Y020477D01*
X054980Y020496D01*
X055002Y020513D01*
X055026Y020527D01*
X055051Y020537D01*
X055078Y020544D01*
X055105Y020547D01*
X055133Y020546D01*
X055160Y020541D01*
X055186Y020533D01*
X055210Y020521D01*
X055233Y020505D01*
X055254Y020487D01*
X055271Y020466D01*
X055286Y020442D01*
X055297Y020417D01*
X055305Y020391D01*
X055309Y020364D01*
X055309Y020336D01*
X055305Y020309D01*
X055297Y020283D01*
X055286Y020258D01*
X055271Y020234D01*
X055254Y020213D01*
X055233Y020195D01*
X055211Y020179D01*
X055186Y020167D01*
X055160Y020159D01*
X055133Y020154D01*
X055105Y020153D01*
X055078Y020156D01*
X055051Y020163D01*
X055026Y020173D01*
X055002Y020187D01*
X054980Y020204D01*
X054961Y020223D01*
X054945Y020246D01*
X054932Y020270D01*
X054923Y020296D01*
X054917Y020323D01*
X054915Y020350D01*
X058665Y027850D02*
X058667Y027877D01*
X058673Y027904D01*
X058682Y027930D01*
X058695Y027954D01*
X058711Y027977D01*
X058730Y027996D01*
X058752Y028013D01*
X058776Y028027D01*
X058801Y028037D01*
X058828Y028044D01*
X058855Y028047D01*
X058883Y028046D01*
X058910Y028041D01*
X058936Y028033D01*
X058960Y028021D01*
X058983Y028005D01*
X059004Y027987D01*
X059021Y027966D01*
X059036Y027942D01*
X059047Y027917D01*
X059055Y027891D01*
X059059Y027864D01*
X059059Y027836D01*
X059055Y027809D01*
X059047Y027783D01*
X059036Y027758D01*
X059021Y027734D01*
X059004Y027713D01*
X058983Y027695D01*
X058961Y027679D01*
X058936Y027667D01*
X058910Y027659D01*
X058883Y027654D01*
X058855Y027653D01*
X058828Y027656D01*
X058801Y027663D01*
X058776Y027673D01*
X058752Y027687D01*
X058730Y027704D01*
X058711Y027723D01*
X058695Y027746D01*
X058682Y027770D01*
X058673Y027796D01*
X058667Y027823D01*
X058665Y027850D01*
X061415Y035350D02*
X061417Y035377D01*
X061423Y035404D01*
X061432Y035430D01*
X061445Y035454D01*
X061461Y035477D01*
X061480Y035496D01*
X061502Y035513D01*
X061526Y035527D01*
X061551Y035537D01*
X061578Y035544D01*
X061605Y035547D01*
X061633Y035546D01*
X061660Y035541D01*
X061686Y035533D01*
X061710Y035521D01*
X061733Y035505D01*
X061754Y035487D01*
X061771Y035466D01*
X061786Y035442D01*
X061797Y035417D01*
X061805Y035391D01*
X061809Y035364D01*
X061809Y035336D01*
X061805Y035309D01*
X061797Y035283D01*
X061786Y035258D01*
X061771Y035234D01*
X061754Y035213D01*
X061733Y035195D01*
X061711Y035179D01*
X061686Y035167D01*
X061660Y035159D01*
X061633Y035154D01*
X061605Y035153D01*
X061578Y035156D01*
X061551Y035163D01*
X061526Y035173D01*
X061502Y035187D01*
X061480Y035204D01*
X061461Y035223D01*
X061445Y035246D01*
X061432Y035270D01*
X061423Y035296D01*
X061417Y035323D01*
X061415Y035350D01*
X057665Y042850D02*
X057667Y042877D01*
X057673Y042904D01*
X057682Y042930D01*
X057695Y042954D01*
X057711Y042977D01*
X057730Y042996D01*
X057752Y043013D01*
X057776Y043027D01*
X057801Y043037D01*
X057828Y043044D01*
X057855Y043047D01*
X057883Y043046D01*
X057910Y043041D01*
X057936Y043033D01*
X057960Y043021D01*
X057983Y043005D01*
X058004Y042987D01*
X058021Y042966D01*
X058036Y042942D01*
X058047Y042917D01*
X058055Y042891D01*
X058059Y042864D01*
X058059Y042836D01*
X058055Y042809D01*
X058047Y042783D01*
X058036Y042758D01*
X058021Y042734D01*
X058004Y042713D01*
X057983Y042695D01*
X057961Y042679D01*
X057936Y042667D01*
X057910Y042659D01*
X057883Y042654D01*
X057855Y042653D01*
X057828Y042656D01*
X057801Y042663D01*
X057776Y042673D01*
X057752Y042687D01*
X057730Y042704D01*
X057711Y042723D01*
X057695Y042746D01*
X057682Y042770D01*
X057673Y042796D01*
X057667Y042823D01*
X057665Y042850D01*
X053915Y035350D02*
X053917Y035377D01*
X053923Y035404D01*
X053932Y035430D01*
X053945Y035454D01*
X053961Y035477D01*
X053980Y035496D01*
X054002Y035513D01*
X054026Y035527D01*
X054051Y035537D01*
X054078Y035544D01*
X054105Y035547D01*
X054133Y035546D01*
X054160Y035541D01*
X054186Y035533D01*
X054210Y035521D01*
X054233Y035505D01*
X054254Y035487D01*
X054271Y035466D01*
X054286Y035442D01*
X054297Y035417D01*
X054305Y035391D01*
X054309Y035364D01*
X054309Y035336D01*
X054305Y035309D01*
X054297Y035283D01*
X054286Y035258D01*
X054271Y035234D01*
X054254Y035213D01*
X054233Y035195D01*
X054211Y035179D01*
X054186Y035167D01*
X054160Y035159D01*
X054133Y035154D01*
X054105Y035153D01*
X054078Y035156D01*
X054051Y035163D01*
X054026Y035173D01*
X054002Y035187D01*
X053980Y035204D01*
X053961Y035223D01*
X053945Y035246D01*
X053932Y035270D01*
X053923Y035296D01*
X053917Y035323D01*
X053915Y035350D01*
X063415Y020350D02*
X063417Y020377D01*
X063423Y020404D01*
X063432Y020430D01*
X063445Y020454D01*
X063461Y020477D01*
X063480Y020496D01*
X063502Y020513D01*
X063526Y020527D01*
X063551Y020537D01*
X063578Y020544D01*
X063605Y020547D01*
X063633Y020546D01*
X063660Y020541D01*
X063686Y020533D01*
X063710Y020521D01*
X063733Y020505D01*
X063754Y020487D01*
X063771Y020466D01*
X063786Y020442D01*
X063797Y020417D01*
X063805Y020391D01*
X063809Y020364D01*
X063809Y020336D01*
X063805Y020309D01*
X063797Y020283D01*
X063786Y020258D01*
X063771Y020234D01*
X063754Y020213D01*
X063733Y020195D01*
X063711Y020179D01*
X063686Y020167D01*
X063660Y020159D01*
X063633Y020154D01*
X063605Y020153D01*
X063578Y020156D01*
X063551Y020163D01*
X063526Y020173D01*
X063502Y020187D01*
X063480Y020204D01*
X063461Y020223D01*
X063445Y020246D01*
X063432Y020270D01*
X063423Y020296D01*
X063417Y020323D01*
X063415Y020350D01*
X063415Y012850D02*
X063417Y012877D01*
X063423Y012904D01*
X063432Y012930D01*
X063445Y012954D01*
X063461Y012977D01*
X063480Y012996D01*
X063502Y013013D01*
X063526Y013027D01*
X063551Y013037D01*
X063578Y013044D01*
X063605Y013047D01*
X063633Y013046D01*
X063660Y013041D01*
X063686Y013033D01*
X063710Y013021D01*
X063733Y013005D01*
X063754Y012987D01*
X063771Y012966D01*
X063786Y012942D01*
X063797Y012917D01*
X063805Y012891D01*
X063809Y012864D01*
X063809Y012836D01*
X063805Y012809D01*
X063797Y012783D01*
X063786Y012758D01*
X063771Y012734D01*
X063754Y012713D01*
X063733Y012695D01*
X063711Y012679D01*
X063686Y012667D01*
X063660Y012659D01*
X063633Y012654D01*
X063605Y012653D01*
X063578Y012656D01*
X063551Y012663D01*
X063526Y012673D01*
X063502Y012687D01*
X063480Y012704D01*
X063461Y012723D01*
X063445Y012746D01*
X063432Y012770D01*
X063423Y012796D01*
X063417Y012823D01*
X063415Y012850D01*
X063415Y053350D02*
X063417Y053377D01*
X063423Y053404D01*
X063432Y053430D01*
X063445Y053454D01*
X063461Y053477D01*
X063480Y053496D01*
X063502Y053513D01*
X063526Y053527D01*
X063551Y053537D01*
X063578Y053544D01*
X063605Y053547D01*
X063633Y053546D01*
X063660Y053541D01*
X063686Y053533D01*
X063710Y053521D01*
X063733Y053505D01*
X063754Y053487D01*
X063771Y053466D01*
X063786Y053442D01*
X063797Y053417D01*
X063805Y053391D01*
X063809Y053364D01*
X063809Y053336D01*
X063805Y053309D01*
X063797Y053283D01*
X063786Y053258D01*
X063771Y053234D01*
X063754Y053213D01*
X063733Y053195D01*
X063711Y053179D01*
X063686Y053167D01*
X063660Y053159D01*
X063633Y053154D01*
X063605Y053153D01*
X063578Y053156D01*
X063551Y053163D01*
X063526Y053173D01*
X063502Y053187D01*
X063480Y053204D01*
X063461Y053223D01*
X063445Y053246D01*
X063432Y053270D01*
X063423Y053296D01*
X063417Y053323D01*
X063415Y053350D01*
X049415Y053350D02*
X049417Y053377D01*
X049423Y053404D01*
X049432Y053430D01*
X049445Y053454D01*
X049461Y053477D01*
X049480Y053496D01*
X049502Y053513D01*
X049526Y053527D01*
X049551Y053537D01*
X049578Y053544D01*
X049605Y053547D01*
X049633Y053546D01*
X049660Y053541D01*
X049686Y053533D01*
X049710Y053521D01*
X049733Y053505D01*
X049754Y053487D01*
X049771Y053466D01*
X049786Y053442D01*
X049797Y053417D01*
X049805Y053391D01*
X049809Y053364D01*
X049809Y053336D01*
X049805Y053309D01*
X049797Y053283D01*
X049786Y053258D01*
X049771Y053234D01*
X049754Y053213D01*
X049733Y053195D01*
X049711Y053179D01*
X049686Y053167D01*
X049660Y053159D01*
X049633Y053154D01*
X049605Y053153D01*
X049578Y053156D01*
X049551Y053163D01*
X049526Y053173D01*
X049502Y053187D01*
X049480Y053204D01*
X049461Y053223D01*
X049445Y053246D01*
X049432Y053270D01*
X049423Y053296D01*
X049417Y053323D01*
X049415Y053350D01*
X041915Y053350D02*
X041917Y053377D01*
X041923Y053404D01*
X041932Y053430D01*
X041945Y053454D01*
X041961Y053477D01*
X041980Y053496D01*
X042002Y053513D01*
X042026Y053527D01*
X042051Y053537D01*
X042078Y053544D01*
X042105Y053547D01*
X042133Y053546D01*
X042160Y053541D01*
X042186Y053533D01*
X042210Y053521D01*
X042233Y053505D01*
X042254Y053487D01*
X042271Y053466D01*
X042286Y053442D01*
X042297Y053417D01*
X042305Y053391D01*
X042309Y053364D01*
X042309Y053336D01*
X042305Y053309D01*
X042297Y053283D01*
X042286Y053258D01*
X042271Y053234D01*
X042254Y053213D01*
X042233Y053195D01*
X042211Y053179D01*
X042186Y053167D01*
X042160Y053159D01*
X042133Y053154D01*
X042105Y053153D01*
X042078Y053156D01*
X042051Y053163D01*
X042026Y053173D01*
X042002Y053187D01*
X041980Y053204D01*
X041961Y053223D01*
X041945Y053246D01*
X041932Y053270D01*
X041923Y053296D01*
X041917Y053323D01*
X041915Y053350D01*
X034415Y053350D02*
X034417Y053377D01*
X034423Y053404D01*
X034432Y053430D01*
X034445Y053454D01*
X034461Y053477D01*
X034480Y053496D01*
X034502Y053513D01*
X034526Y053527D01*
X034551Y053537D01*
X034578Y053544D01*
X034605Y053547D01*
X034633Y053546D01*
X034660Y053541D01*
X034686Y053533D01*
X034710Y053521D01*
X034733Y053505D01*
X034754Y053487D01*
X034771Y053466D01*
X034786Y053442D01*
X034797Y053417D01*
X034805Y053391D01*
X034809Y053364D01*
X034809Y053336D01*
X034805Y053309D01*
X034797Y053283D01*
X034786Y053258D01*
X034771Y053234D01*
X034754Y053213D01*
X034733Y053195D01*
X034711Y053179D01*
X034686Y053167D01*
X034660Y053159D01*
X034633Y053154D01*
X034605Y053153D01*
X034578Y053156D01*
X034551Y053163D01*
X034526Y053173D01*
X034502Y053187D01*
X034480Y053204D01*
X034461Y053223D01*
X034445Y053246D01*
X034432Y053270D01*
X034423Y053296D01*
X034417Y053323D01*
X034415Y053350D01*
X026915Y053350D02*
X026917Y053377D01*
X026923Y053404D01*
X026932Y053430D01*
X026945Y053454D01*
X026961Y053477D01*
X026980Y053496D01*
X027002Y053513D01*
X027026Y053527D01*
X027051Y053537D01*
X027078Y053544D01*
X027105Y053547D01*
X027133Y053546D01*
X027160Y053541D01*
X027186Y053533D01*
X027210Y053521D01*
X027233Y053505D01*
X027254Y053487D01*
X027271Y053466D01*
X027286Y053442D01*
X027297Y053417D01*
X027305Y053391D01*
X027309Y053364D01*
X027309Y053336D01*
X027305Y053309D01*
X027297Y053283D01*
X027286Y053258D01*
X027271Y053234D01*
X027254Y053213D01*
X027233Y053195D01*
X027211Y053179D01*
X027186Y053167D01*
X027160Y053159D01*
X027133Y053154D01*
X027105Y053153D01*
X027078Y053156D01*
X027051Y053163D01*
X027026Y053173D01*
X027002Y053187D01*
X026980Y053204D01*
X026961Y053223D01*
X026945Y053246D01*
X026932Y053270D01*
X026923Y053296D01*
X026917Y053323D01*
X026915Y053350D01*
M02*
