G75*
G70*
%OFA0B0*%
%FSLAX24Y24*%
%IPPOS*%
%LPD*%
%AMOC8*
5,1,8,0,0,1.08239X$1,22.5*
%
%ADD10C,0.1500*%
%ADD11C,0.1012*%
%ADD12C,0.0860*%
%ADD13C,0.1181*%
%ADD14R,0.0827X0.0827*%
%ADD15C,0.0827*%
%ADD16C,0.0827*%
%ADD17R,0.0709X0.0630*%
%ADD18C,0.1575*%
%ADD19C,0.1969*%
%ADD20C,0.0787*%
%ADD21C,0.0240*%
%ADD22R,0.0906X0.0906*%
D10*
X015364Y009456D03*
X017364Y009456D03*
X017864Y010456D03*
X019864Y010456D03*
X018489Y016956D03*
X020989Y017956D03*
X025989Y016956D03*
X028489Y017956D03*
X033489Y016956D03*
X035989Y017956D03*
X040989Y016956D03*
X043489Y017956D03*
X048489Y016956D03*
X050989Y017956D03*
X056989Y016956D03*
X059489Y017956D03*
X065489Y016956D03*
X067989Y017956D03*
X060739Y024456D03*
X063239Y025456D03*
X063489Y031956D03*
X065989Y032956D03*
X058489Y032956D03*
X055989Y031956D03*
X050989Y032956D03*
X048489Y031956D03*
X043489Y032956D03*
X040989Y031956D03*
X035989Y032956D03*
X033489Y031956D03*
X028489Y032956D03*
X025989Y031956D03*
X020989Y032956D03*
X018489Y031956D03*
X013489Y032956D03*
X010989Y031956D03*
X013489Y025456D03*
X010989Y024456D03*
X013489Y017956D03*
X010989Y016956D03*
X018489Y024456D03*
X020989Y025456D03*
X025989Y024456D03*
X028489Y025456D03*
X033489Y024456D03*
X035989Y025456D03*
X040989Y024456D03*
X043489Y025456D03*
X048489Y024456D03*
X050989Y025456D03*
X048489Y039456D03*
X050989Y040456D03*
X043489Y040456D03*
X040989Y039456D03*
X035989Y040456D03*
X033489Y039456D03*
X028489Y040456D03*
X025989Y039456D03*
X020989Y040456D03*
X018489Y039456D03*
X013489Y040456D03*
X010989Y039456D03*
X010989Y049956D03*
X013489Y050956D03*
X018489Y049956D03*
X020989Y050956D03*
X028989Y049956D03*
X031489Y050956D03*
X036489Y049956D03*
X038989Y050956D03*
X043989Y049956D03*
X046489Y050956D03*
X051489Y049956D03*
X053989Y050956D03*
X065489Y049956D03*
X067989Y050956D03*
X062239Y040456D03*
X059739Y039456D03*
X059489Y010456D03*
X056989Y009456D03*
X049989Y010456D03*
X047489Y009456D03*
X041489Y010456D03*
X040427Y010456D03*
X038989Y009456D03*
X037927Y009456D03*
X032989Y010456D03*
X032052Y010456D03*
X030489Y009456D03*
X029552Y009456D03*
X065489Y009456D03*
X067989Y010456D03*
D11*
X068489Y011456D03*
X064489Y011456D03*
X059989Y011456D03*
X055989Y011456D03*
X050489Y011456D03*
X046489Y011456D03*
X041989Y011456D03*
X040927Y011456D03*
X037989Y011456D03*
X036927Y011456D03*
X033489Y011456D03*
X032552Y011456D03*
X029489Y011456D03*
X028552Y011456D03*
X028989Y018956D03*
X032489Y018956D03*
X036489Y018956D03*
X039989Y018956D03*
X043989Y018956D03*
X047489Y018956D03*
X051489Y018956D03*
X055989Y018956D03*
X059989Y018956D03*
X064489Y018956D03*
X068489Y018956D03*
X063739Y026456D03*
X059739Y026456D03*
X051489Y026456D03*
X047489Y026456D03*
X043989Y026456D03*
X039989Y026456D03*
X036489Y026456D03*
X032489Y026456D03*
X028989Y026456D03*
X024989Y026456D03*
X021489Y026456D03*
X017489Y026456D03*
X013989Y026456D03*
X009989Y026456D03*
X009989Y033956D03*
X013989Y033956D03*
X017489Y033956D03*
X021489Y033956D03*
X024989Y033956D03*
X028989Y033956D03*
X032489Y033956D03*
X036489Y033956D03*
X039989Y033956D03*
X043989Y033956D03*
X047489Y033956D03*
X051489Y033956D03*
X054989Y033956D03*
X058989Y033956D03*
X062489Y033956D03*
X066489Y033956D03*
X062739Y041456D03*
X058739Y041456D03*
X051489Y041456D03*
X047489Y041456D03*
X043989Y041456D03*
X039989Y041456D03*
X036489Y041456D03*
X032489Y041456D03*
X028989Y041456D03*
X024989Y041456D03*
X021489Y041456D03*
X017489Y041456D03*
X013989Y041456D03*
X009989Y041456D03*
X009989Y051956D03*
X013989Y051956D03*
X017489Y051956D03*
X021489Y051956D03*
X027989Y051956D03*
X031989Y051956D03*
X035489Y051956D03*
X039489Y051956D03*
X042989Y051956D03*
X046989Y051956D03*
X050489Y051956D03*
X054489Y051956D03*
X064489Y051956D03*
X068489Y051956D03*
X024989Y018956D03*
X021489Y018956D03*
X017489Y018956D03*
X013989Y018956D03*
X009989Y018956D03*
X014364Y011456D03*
X016364Y011456D03*
X018364Y011456D03*
X020364Y011456D03*
D12*
X017864Y013026D02*
X017864Y013886D01*
X016864Y013886D02*
X016864Y013026D01*
X015864Y013026D02*
X015864Y013886D01*
X014864Y013886D02*
X014864Y013026D01*
X013489Y020526D02*
X013489Y021386D01*
X012489Y021386D02*
X012489Y020526D01*
X011489Y020526D02*
X011489Y021386D01*
X010489Y021386D02*
X010489Y020526D01*
X017989Y020526D02*
X017989Y021386D01*
X018989Y021386D02*
X018989Y020526D01*
X019989Y020526D02*
X019989Y021386D01*
X020989Y021386D02*
X020989Y020526D01*
X025489Y020526D02*
X025489Y021386D01*
X026489Y021386D02*
X026489Y020526D01*
X027489Y020526D02*
X027489Y021386D01*
X028489Y021386D02*
X028489Y020526D01*
X032989Y020526D02*
X032989Y021386D01*
X033989Y021386D02*
X033989Y020526D01*
X034989Y020526D02*
X034989Y021386D01*
X035989Y021386D02*
X035989Y020526D01*
X040489Y020526D02*
X040489Y021386D01*
X041489Y021386D02*
X041489Y020526D01*
X042489Y020526D02*
X042489Y021386D01*
X043489Y021386D02*
X043489Y020526D01*
X047989Y020526D02*
X047989Y021386D01*
X048989Y021386D02*
X048989Y020526D01*
X049989Y020526D02*
X049989Y021386D01*
X050989Y021386D02*
X050989Y020526D01*
X056489Y020526D02*
X056489Y021386D01*
X057489Y021386D02*
X057489Y020526D01*
X058489Y020526D02*
X058489Y021386D01*
X059489Y021386D02*
X059489Y020526D01*
X064989Y020526D02*
X064989Y021386D01*
X065989Y021386D02*
X065989Y020526D01*
X066989Y020526D02*
X066989Y021386D01*
X067989Y021386D02*
X067989Y020526D01*
X067989Y013886D02*
X067989Y013026D01*
X066989Y013026D02*
X066989Y013886D01*
X065989Y013886D02*
X065989Y013026D01*
X064989Y013026D02*
X064989Y013886D01*
X059489Y013886D02*
X059489Y013026D01*
X058489Y013026D02*
X058489Y013886D01*
X057489Y013886D02*
X057489Y013026D01*
X056489Y013026D02*
X056489Y013886D01*
X049989Y013886D02*
X049989Y013026D01*
X048989Y013026D02*
X048989Y013886D01*
X047989Y013886D02*
X047989Y013026D01*
X046989Y013026D02*
X046989Y013886D01*
X041489Y013886D02*
X041489Y013026D01*
X040489Y013026D02*
X040489Y013886D01*
X039489Y013886D02*
X039489Y013026D01*
X038489Y013026D02*
X038489Y013886D01*
X032989Y013886D02*
X032989Y013026D01*
X031989Y013026D02*
X031989Y013886D01*
X030989Y013886D02*
X030989Y013026D01*
X029989Y013026D02*
X029989Y013886D01*
X028489Y028026D02*
X028489Y028886D01*
X027489Y028886D02*
X027489Y028026D01*
X026489Y028026D02*
X026489Y028886D01*
X025489Y028886D02*
X025489Y028026D01*
X020989Y028026D02*
X020989Y028886D01*
X019989Y028886D02*
X019989Y028026D01*
X018989Y028026D02*
X018989Y028886D01*
X017989Y028886D02*
X017989Y028026D01*
X013489Y028026D02*
X013489Y028886D01*
X012489Y028886D02*
X012489Y028026D01*
X011489Y028026D02*
X011489Y028886D01*
X010489Y028886D02*
X010489Y028026D01*
X010489Y035526D02*
X010489Y036386D01*
X011489Y036386D02*
X011489Y035526D01*
X012489Y035526D02*
X012489Y036386D01*
X013489Y036386D02*
X013489Y035526D01*
X017989Y035526D02*
X017989Y036386D01*
X018989Y036386D02*
X018989Y035526D01*
X019989Y035526D02*
X019989Y036386D01*
X020989Y036386D02*
X020989Y035526D01*
X025489Y035526D02*
X025489Y036386D01*
X026489Y036386D02*
X026489Y035526D01*
X027489Y035526D02*
X027489Y036386D01*
X028489Y036386D02*
X028489Y035526D01*
X032989Y035526D02*
X032989Y036386D01*
X033989Y036386D02*
X033989Y035526D01*
X034989Y035526D02*
X034989Y036386D01*
X035989Y036386D02*
X035989Y035526D01*
X040489Y035526D02*
X040489Y036386D01*
X041489Y036386D02*
X041489Y035526D01*
X042489Y035526D02*
X042489Y036386D01*
X043489Y036386D02*
X043489Y035526D01*
X047989Y035526D02*
X047989Y036386D01*
X048989Y036386D02*
X048989Y035526D01*
X049989Y035526D02*
X049989Y036386D01*
X050989Y036386D02*
X050989Y035526D01*
X055489Y035526D02*
X055489Y036386D01*
X056489Y036386D02*
X056489Y035526D01*
X057489Y035526D02*
X057489Y036386D01*
X058489Y036386D02*
X058489Y035526D01*
X062989Y035526D02*
X062989Y036386D01*
X063989Y036386D02*
X063989Y035526D01*
X064989Y035526D02*
X064989Y036386D01*
X065989Y036386D02*
X065989Y035526D01*
X063239Y028886D02*
X063239Y028026D01*
X062239Y028026D02*
X062239Y028886D01*
X061239Y028886D02*
X061239Y028026D01*
X060239Y028026D02*
X060239Y028886D01*
X050989Y028886D02*
X050989Y028026D01*
X049989Y028026D02*
X049989Y028886D01*
X048989Y028886D02*
X048989Y028026D01*
X047989Y028026D02*
X047989Y028886D01*
X043489Y028886D02*
X043489Y028026D01*
X042489Y028026D02*
X042489Y028886D01*
X041489Y028886D02*
X041489Y028026D01*
X040489Y028026D02*
X040489Y028886D01*
X035989Y028886D02*
X035989Y028026D01*
X034989Y028026D02*
X034989Y028886D01*
X033989Y028886D02*
X033989Y028026D01*
X032989Y028026D02*
X032989Y028886D01*
X032989Y043026D02*
X032989Y043886D01*
X033989Y043886D02*
X033989Y043026D01*
X034989Y043026D02*
X034989Y043886D01*
X035989Y043886D02*
X035989Y043026D01*
X040489Y043026D02*
X040489Y043886D01*
X041489Y043886D02*
X041489Y043026D01*
X042489Y043026D02*
X042489Y043886D01*
X043489Y043886D02*
X043489Y043026D01*
X047989Y043026D02*
X047989Y043886D01*
X048989Y043886D02*
X048989Y043026D01*
X049989Y043026D02*
X049989Y043886D01*
X050989Y043886D02*
X050989Y043026D01*
X059239Y043026D02*
X059239Y043886D01*
X060239Y043886D02*
X060239Y043026D01*
X061239Y043026D02*
X061239Y043886D01*
X062239Y043886D02*
X062239Y043026D01*
X064989Y053526D02*
X064989Y054386D01*
X065989Y054386D02*
X065989Y053526D01*
X066989Y053526D02*
X066989Y054386D01*
X067989Y054386D02*
X067989Y053526D01*
X053989Y053526D02*
X053989Y054386D01*
X052989Y054386D02*
X052989Y053526D01*
X051989Y053526D02*
X051989Y054386D01*
X050989Y054386D02*
X050989Y053526D01*
X046489Y053526D02*
X046489Y054386D01*
X045489Y054386D02*
X045489Y053526D01*
X044489Y053526D02*
X044489Y054386D01*
X043489Y054386D02*
X043489Y053526D01*
X038989Y053526D02*
X038989Y054386D01*
X037989Y054386D02*
X037989Y053526D01*
X036989Y053526D02*
X036989Y054386D01*
X035989Y054386D02*
X035989Y053526D01*
X031489Y053526D02*
X031489Y054386D01*
X030489Y054386D02*
X030489Y053526D01*
X029489Y053526D02*
X029489Y054386D01*
X028489Y054386D02*
X028489Y053526D01*
X020989Y053526D02*
X020989Y054386D01*
X019989Y054386D02*
X019989Y053526D01*
X018989Y053526D02*
X018989Y054386D01*
X017989Y054386D02*
X017989Y053526D01*
X013489Y053526D02*
X013489Y054386D01*
X012489Y054386D02*
X012489Y053526D01*
X011489Y053526D02*
X011489Y054386D01*
X010489Y054386D02*
X010489Y053526D01*
X010489Y043886D02*
X010489Y043026D01*
X011489Y043026D02*
X011489Y043886D01*
X012489Y043886D02*
X012489Y043026D01*
X013489Y043026D02*
X013489Y043886D01*
X017989Y043886D02*
X017989Y043026D01*
X018989Y043026D02*
X018989Y043886D01*
X019989Y043886D02*
X019989Y043026D01*
X020989Y043026D02*
X020989Y043886D01*
X025489Y043886D02*
X025489Y043026D01*
X026489Y043026D02*
X026489Y043886D01*
X027489Y043886D02*
X027489Y043026D01*
X028489Y043026D02*
X028489Y043886D01*
D13*
X026989Y041456D03*
X034489Y041456D03*
X041989Y041456D03*
X049489Y041456D03*
X056052Y038706D03*
X060739Y041456D03*
X065427Y038706D03*
X064489Y033956D03*
X056989Y033956D03*
X049489Y033956D03*
X041989Y033956D03*
X034489Y033956D03*
X026989Y033956D03*
X019489Y033956D03*
X011989Y033956D03*
X011989Y026456D03*
X019489Y026456D03*
X026989Y026456D03*
X034489Y026456D03*
X041989Y026456D03*
X049489Y026456D03*
X057052Y023706D03*
X061739Y026456D03*
X066427Y023706D03*
X066489Y018956D03*
X066489Y011456D03*
X057989Y011456D03*
X057989Y018956D03*
X049489Y018956D03*
X041989Y018956D03*
X034489Y018956D03*
X026989Y018956D03*
X019489Y018956D03*
X011989Y018956D03*
X016364Y011456D03*
X018364Y011456D03*
X021052Y008706D03*
X011677Y008706D03*
X030552Y011456D03*
X031489Y011456D03*
X038927Y011456D03*
X039989Y011456D03*
X048489Y011456D03*
X019489Y041456D03*
X011989Y041456D03*
X011989Y051956D03*
X019489Y051956D03*
X029989Y051956D03*
X037489Y051956D03*
X044989Y051956D03*
X052489Y051956D03*
X066489Y051956D03*
D14*
X061864Y052081D03*
X061864Y053081D03*
X061864Y051081D03*
X061864Y050081D03*
X061864Y049081D03*
X061864Y048081D03*
X061864Y046081D03*
X058864Y046081D03*
X058864Y047081D03*
X058864Y048081D03*
X058864Y049081D03*
X058864Y050081D03*
X058864Y051081D03*
X058864Y052081D03*
X058864Y053081D03*
X029114Y048206D03*
X028114Y048206D03*
X027114Y048206D03*
X026114Y048206D03*
X025114Y048206D03*
X024114Y048206D03*
X023114Y048206D03*
X023114Y045206D03*
X024114Y045206D03*
X025114Y045206D03*
X026114Y045206D03*
X027114Y045206D03*
X028114Y045206D03*
X029114Y045206D03*
X019364Y046331D03*
X018364Y046331D03*
X017364Y046331D03*
D15*
X016364Y046744D02*
X016364Y045917D01*
X015364Y045917D02*
X015364Y046744D01*
X014364Y046744D02*
X014364Y045917D01*
X013364Y045917D02*
X013364Y046744D01*
X012364Y046744D02*
X012364Y045917D01*
X011364Y045917D02*
X011364Y046744D01*
X010364Y046744D02*
X010364Y045917D01*
X061451Y047081D02*
X062278Y047081D01*
D16*
X020364Y046331D03*
D17*
X022114Y046155D03*
X022114Y047257D03*
D18*
X056052Y044706D03*
X065427Y044706D03*
X066427Y029706D03*
X057052Y029706D03*
X021052Y014706D03*
X011677Y014706D03*
D19*
X007239Y006456D03*
X009489Y006456D03*
X015739Y006456D03*
X019489Y006456D03*
X029239Y006456D03*
X036739Y006456D03*
X046239Y006456D03*
X055739Y006456D03*
X063614Y006456D03*
X071552Y006456D03*
X071552Y015206D03*
X071552Y022706D03*
X071552Y030206D03*
X071552Y037706D03*
X071552Y046706D03*
X071552Y056956D03*
X060177Y056956D03*
X048739Y056956D03*
X041239Y056956D03*
X033739Y056956D03*
X024739Y056956D03*
X015739Y056956D03*
X009489Y056956D03*
D20*
X015739Y049956D03*
X015739Y037706D03*
X023239Y037706D03*
X031114Y037831D03*
X038239Y037706D03*
X045739Y037706D03*
X053239Y037706D03*
X054114Y044456D03*
X048677Y048331D03*
X045864Y045018D03*
X041239Y048268D03*
X038239Y045393D03*
X033677Y048331D03*
X030989Y045143D03*
X031114Y030206D03*
X038239Y030206D03*
X045739Y030206D03*
X053614Y030206D03*
X060739Y030206D03*
X060552Y037643D03*
X053239Y022706D03*
X045739Y022706D03*
X038177Y023206D03*
X030739Y022706D03*
X030489Y015456D03*
X023239Y014956D03*
X015739Y015206D03*
X015739Y022706D03*
X023239Y022706D03*
X023239Y030206D03*
X015739Y030206D03*
X037989Y015331D03*
X046114Y015206D03*
X053239Y015206D03*
X062739Y015206D03*
D21*
X029114Y046082D02*
X029114Y046707D01*
X029614Y046707D01*
X029614Y046956D01*
X032114Y046956D01*
X032114Y046456D01*
X036864Y046456D01*
X036864Y046956D01*
X039614Y046956D01*
X039614Y046456D01*
X044614Y046456D01*
X044614Y047331D01*
X046989Y047331D01*
X046989Y046456D01*
X056864Y046456D01*
X061864Y053956D02*
X061864Y055581D01*
X024239Y055581D01*
X024239Y052331D01*
X024239Y049706D01*
X020364Y049706D01*
X020364Y046331D01*
X022114Y046155D02*
X022114Y044706D01*
X010364Y044706D01*
X010364Y046331D01*
X022114Y046155D02*
X023364Y046707D01*
X029114Y046707D01*
X023114Y048206D02*
X022114Y047257D01*
D22*
X024239Y052331D03*
X029114Y046082D03*
X023239Y040706D03*
X056864Y046456D03*
X061864Y053956D03*
M02*
