G75*
G70*
%OFA0B0*%
%FSLAX24Y24*%
%IPPOS*%
%LPD*%
%AMOC8*
5,1,8,0,0,1.08239X$1,22.5*
%
%ADD10C,0.0079*%
%ADD11C,0.0000*%
D10*
X016831Y000139D02*
X088581Y000139D01*
X088581Y051639D01*
X016831Y051639D01*
X016831Y000139D01*
X094581Y000139D02*
X158331Y000139D01*
X158331Y051639D01*
X094581Y051639D01*
X094581Y000139D01*
X195081Y037639D02*
X200831Y037639D01*
X200831Y000139D01*
X234331Y000139D01*
X234331Y048139D01*
X195081Y048139D01*
X195081Y037639D01*
X176581Y055639D02*
X104831Y055639D01*
D11*
X105044Y046139D02*
X105046Y046195D01*
X105052Y046250D01*
X105062Y046304D01*
X105075Y046358D01*
X105093Y046411D01*
X105114Y046462D01*
X105138Y046512D01*
X105166Y046560D01*
X105198Y046606D01*
X105232Y046650D01*
X105270Y046691D01*
X105310Y046729D01*
X105353Y046764D01*
X105398Y046796D01*
X105446Y046825D01*
X105495Y046851D01*
X105546Y046873D01*
X105598Y046891D01*
X105652Y046905D01*
X105707Y046916D01*
X105762Y046923D01*
X105817Y046926D01*
X105873Y046925D01*
X105928Y046920D01*
X105983Y046911D01*
X106037Y046899D01*
X106090Y046882D01*
X106142Y046862D01*
X106192Y046838D01*
X106240Y046811D01*
X106287Y046781D01*
X106331Y046747D01*
X106373Y046710D01*
X106411Y046670D01*
X106448Y046628D01*
X106481Y046583D01*
X106510Y046537D01*
X106537Y046488D01*
X106559Y046437D01*
X106579Y046385D01*
X106594Y046331D01*
X106606Y046277D01*
X106614Y046222D01*
X106618Y046167D01*
X106618Y046111D01*
X106614Y046056D01*
X106606Y046001D01*
X106594Y045947D01*
X106579Y045893D01*
X106559Y045841D01*
X106537Y045790D01*
X106510Y045741D01*
X106481Y045695D01*
X106448Y045650D01*
X106411Y045608D01*
X106373Y045568D01*
X106331Y045531D01*
X106287Y045497D01*
X106240Y045467D01*
X106192Y045440D01*
X106142Y045416D01*
X106090Y045396D01*
X106037Y045379D01*
X105983Y045367D01*
X105928Y045358D01*
X105873Y045353D01*
X105817Y045352D01*
X105762Y045355D01*
X105707Y045362D01*
X105652Y045373D01*
X105598Y045387D01*
X105546Y045405D01*
X105495Y045427D01*
X105446Y045453D01*
X105398Y045482D01*
X105353Y045514D01*
X105310Y045549D01*
X105270Y045587D01*
X105232Y045628D01*
X105198Y045672D01*
X105166Y045718D01*
X105138Y045766D01*
X105114Y045816D01*
X105093Y045867D01*
X105075Y045920D01*
X105062Y045974D01*
X105052Y046028D01*
X105046Y046083D01*
X105044Y046139D01*
X097544Y046139D02*
X097546Y046195D01*
X097552Y046250D01*
X097562Y046304D01*
X097575Y046358D01*
X097593Y046411D01*
X097614Y046462D01*
X097638Y046512D01*
X097666Y046560D01*
X097698Y046606D01*
X097732Y046650D01*
X097770Y046691D01*
X097810Y046729D01*
X097853Y046764D01*
X097898Y046796D01*
X097946Y046825D01*
X097995Y046851D01*
X098046Y046873D01*
X098098Y046891D01*
X098152Y046905D01*
X098207Y046916D01*
X098262Y046923D01*
X098317Y046926D01*
X098373Y046925D01*
X098428Y046920D01*
X098483Y046911D01*
X098537Y046899D01*
X098590Y046882D01*
X098642Y046862D01*
X098692Y046838D01*
X098740Y046811D01*
X098787Y046781D01*
X098831Y046747D01*
X098873Y046710D01*
X098911Y046670D01*
X098948Y046628D01*
X098981Y046583D01*
X099010Y046537D01*
X099037Y046488D01*
X099059Y046437D01*
X099079Y046385D01*
X099094Y046331D01*
X099106Y046277D01*
X099114Y046222D01*
X099118Y046167D01*
X099118Y046111D01*
X099114Y046056D01*
X099106Y046001D01*
X099094Y045947D01*
X099079Y045893D01*
X099059Y045841D01*
X099037Y045790D01*
X099010Y045741D01*
X098981Y045695D01*
X098948Y045650D01*
X098911Y045608D01*
X098873Y045568D01*
X098831Y045531D01*
X098787Y045497D01*
X098740Y045467D01*
X098692Y045440D01*
X098642Y045416D01*
X098590Y045396D01*
X098537Y045379D01*
X098483Y045367D01*
X098428Y045358D01*
X098373Y045353D01*
X098317Y045352D01*
X098262Y045355D01*
X098207Y045362D01*
X098152Y045373D01*
X098098Y045387D01*
X098046Y045405D01*
X097995Y045427D01*
X097946Y045453D01*
X097898Y045482D01*
X097853Y045514D01*
X097810Y045549D01*
X097770Y045587D01*
X097732Y045628D01*
X097698Y045672D01*
X097666Y045718D01*
X097638Y045766D01*
X097614Y045816D01*
X097593Y045867D01*
X097575Y045920D01*
X097562Y045974D01*
X097552Y046028D01*
X097546Y046083D01*
X097544Y046139D01*
X084044Y046139D02*
X084046Y046195D01*
X084052Y046250D01*
X084062Y046304D01*
X084075Y046358D01*
X084093Y046411D01*
X084114Y046462D01*
X084138Y046512D01*
X084166Y046560D01*
X084198Y046606D01*
X084232Y046650D01*
X084270Y046691D01*
X084310Y046729D01*
X084353Y046764D01*
X084398Y046796D01*
X084446Y046825D01*
X084495Y046851D01*
X084546Y046873D01*
X084598Y046891D01*
X084652Y046905D01*
X084707Y046916D01*
X084762Y046923D01*
X084817Y046926D01*
X084873Y046925D01*
X084928Y046920D01*
X084983Y046911D01*
X085037Y046899D01*
X085090Y046882D01*
X085142Y046862D01*
X085192Y046838D01*
X085240Y046811D01*
X085287Y046781D01*
X085331Y046747D01*
X085373Y046710D01*
X085411Y046670D01*
X085448Y046628D01*
X085481Y046583D01*
X085510Y046537D01*
X085537Y046488D01*
X085559Y046437D01*
X085579Y046385D01*
X085594Y046331D01*
X085606Y046277D01*
X085614Y046222D01*
X085618Y046167D01*
X085618Y046111D01*
X085614Y046056D01*
X085606Y046001D01*
X085594Y045947D01*
X085579Y045893D01*
X085559Y045841D01*
X085537Y045790D01*
X085510Y045741D01*
X085481Y045695D01*
X085448Y045650D01*
X085411Y045608D01*
X085373Y045568D01*
X085331Y045531D01*
X085287Y045497D01*
X085240Y045467D01*
X085192Y045440D01*
X085142Y045416D01*
X085090Y045396D01*
X085037Y045379D01*
X084983Y045367D01*
X084928Y045358D01*
X084873Y045353D01*
X084817Y045352D01*
X084762Y045355D01*
X084707Y045362D01*
X084652Y045373D01*
X084598Y045387D01*
X084546Y045405D01*
X084495Y045427D01*
X084446Y045453D01*
X084398Y045482D01*
X084353Y045514D01*
X084310Y045549D01*
X084270Y045587D01*
X084232Y045628D01*
X084198Y045672D01*
X084166Y045718D01*
X084138Y045766D01*
X084114Y045816D01*
X084093Y045867D01*
X084075Y045920D01*
X084062Y045974D01*
X084052Y046028D01*
X084046Y046083D01*
X084044Y046139D01*
X076544Y046139D02*
X076546Y046195D01*
X076552Y046250D01*
X076562Y046304D01*
X076575Y046358D01*
X076593Y046411D01*
X076614Y046462D01*
X076638Y046512D01*
X076666Y046560D01*
X076698Y046606D01*
X076732Y046650D01*
X076770Y046691D01*
X076810Y046729D01*
X076853Y046764D01*
X076898Y046796D01*
X076946Y046825D01*
X076995Y046851D01*
X077046Y046873D01*
X077098Y046891D01*
X077152Y046905D01*
X077207Y046916D01*
X077262Y046923D01*
X077317Y046926D01*
X077373Y046925D01*
X077428Y046920D01*
X077483Y046911D01*
X077537Y046899D01*
X077590Y046882D01*
X077642Y046862D01*
X077692Y046838D01*
X077740Y046811D01*
X077787Y046781D01*
X077831Y046747D01*
X077873Y046710D01*
X077911Y046670D01*
X077948Y046628D01*
X077981Y046583D01*
X078010Y046537D01*
X078037Y046488D01*
X078059Y046437D01*
X078079Y046385D01*
X078094Y046331D01*
X078106Y046277D01*
X078114Y046222D01*
X078118Y046167D01*
X078118Y046111D01*
X078114Y046056D01*
X078106Y046001D01*
X078094Y045947D01*
X078079Y045893D01*
X078059Y045841D01*
X078037Y045790D01*
X078010Y045741D01*
X077981Y045695D01*
X077948Y045650D01*
X077911Y045608D01*
X077873Y045568D01*
X077831Y045531D01*
X077787Y045497D01*
X077740Y045467D01*
X077692Y045440D01*
X077642Y045416D01*
X077590Y045396D01*
X077537Y045379D01*
X077483Y045367D01*
X077428Y045358D01*
X077373Y045353D01*
X077317Y045352D01*
X077262Y045355D01*
X077207Y045362D01*
X077152Y045373D01*
X077098Y045387D01*
X077046Y045405D01*
X076995Y045427D01*
X076946Y045453D01*
X076898Y045482D01*
X076853Y045514D01*
X076810Y045549D01*
X076770Y045587D01*
X076732Y045628D01*
X076698Y045672D01*
X076666Y045718D01*
X076638Y045766D01*
X076614Y045816D01*
X076593Y045867D01*
X076575Y045920D01*
X076562Y045974D01*
X076552Y046028D01*
X076546Y046083D01*
X076544Y046139D01*
X066044Y046139D02*
X066046Y046195D01*
X066052Y046250D01*
X066062Y046304D01*
X066075Y046358D01*
X066093Y046411D01*
X066114Y046462D01*
X066138Y046512D01*
X066166Y046560D01*
X066198Y046606D01*
X066232Y046650D01*
X066270Y046691D01*
X066310Y046729D01*
X066353Y046764D01*
X066398Y046796D01*
X066446Y046825D01*
X066495Y046851D01*
X066546Y046873D01*
X066598Y046891D01*
X066652Y046905D01*
X066707Y046916D01*
X066762Y046923D01*
X066817Y046926D01*
X066873Y046925D01*
X066928Y046920D01*
X066983Y046911D01*
X067037Y046899D01*
X067090Y046882D01*
X067142Y046862D01*
X067192Y046838D01*
X067240Y046811D01*
X067287Y046781D01*
X067331Y046747D01*
X067373Y046710D01*
X067411Y046670D01*
X067448Y046628D01*
X067481Y046583D01*
X067510Y046537D01*
X067537Y046488D01*
X067559Y046437D01*
X067579Y046385D01*
X067594Y046331D01*
X067606Y046277D01*
X067614Y046222D01*
X067618Y046167D01*
X067618Y046111D01*
X067614Y046056D01*
X067606Y046001D01*
X067594Y045947D01*
X067579Y045893D01*
X067559Y045841D01*
X067537Y045790D01*
X067510Y045741D01*
X067481Y045695D01*
X067448Y045650D01*
X067411Y045608D01*
X067373Y045568D01*
X067331Y045531D01*
X067287Y045497D01*
X067240Y045467D01*
X067192Y045440D01*
X067142Y045416D01*
X067090Y045396D01*
X067037Y045379D01*
X066983Y045367D01*
X066928Y045358D01*
X066873Y045353D01*
X066817Y045352D01*
X066762Y045355D01*
X066707Y045362D01*
X066652Y045373D01*
X066598Y045387D01*
X066546Y045405D01*
X066495Y045427D01*
X066446Y045453D01*
X066398Y045482D01*
X066353Y045514D01*
X066310Y045549D01*
X066270Y045587D01*
X066232Y045628D01*
X066198Y045672D01*
X066166Y045718D01*
X066138Y045766D01*
X066114Y045816D01*
X066093Y045867D01*
X066075Y045920D01*
X066062Y045974D01*
X066052Y046028D01*
X066046Y046083D01*
X066044Y046139D01*
X058544Y046139D02*
X058546Y046195D01*
X058552Y046250D01*
X058562Y046304D01*
X058575Y046358D01*
X058593Y046411D01*
X058614Y046462D01*
X058638Y046512D01*
X058666Y046560D01*
X058698Y046606D01*
X058732Y046650D01*
X058770Y046691D01*
X058810Y046729D01*
X058853Y046764D01*
X058898Y046796D01*
X058946Y046825D01*
X058995Y046851D01*
X059046Y046873D01*
X059098Y046891D01*
X059152Y046905D01*
X059207Y046916D01*
X059262Y046923D01*
X059317Y046926D01*
X059373Y046925D01*
X059428Y046920D01*
X059483Y046911D01*
X059537Y046899D01*
X059590Y046882D01*
X059642Y046862D01*
X059692Y046838D01*
X059740Y046811D01*
X059787Y046781D01*
X059831Y046747D01*
X059873Y046710D01*
X059911Y046670D01*
X059948Y046628D01*
X059981Y046583D01*
X060010Y046537D01*
X060037Y046488D01*
X060059Y046437D01*
X060079Y046385D01*
X060094Y046331D01*
X060106Y046277D01*
X060114Y046222D01*
X060118Y046167D01*
X060118Y046111D01*
X060114Y046056D01*
X060106Y046001D01*
X060094Y045947D01*
X060079Y045893D01*
X060059Y045841D01*
X060037Y045790D01*
X060010Y045741D01*
X059981Y045695D01*
X059948Y045650D01*
X059911Y045608D01*
X059873Y045568D01*
X059831Y045531D01*
X059787Y045497D01*
X059740Y045467D01*
X059692Y045440D01*
X059642Y045416D01*
X059590Y045396D01*
X059537Y045379D01*
X059483Y045367D01*
X059428Y045358D01*
X059373Y045353D01*
X059317Y045352D01*
X059262Y045355D01*
X059207Y045362D01*
X059152Y045373D01*
X059098Y045387D01*
X059046Y045405D01*
X058995Y045427D01*
X058946Y045453D01*
X058898Y045482D01*
X058853Y045514D01*
X058810Y045549D01*
X058770Y045587D01*
X058732Y045628D01*
X058698Y045672D01*
X058666Y045718D01*
X058638Y045766D01*
X058614Y045816D01*
X058593Y045867D01*
X058575Y045920D01*
X058562Y045974D01*
X058552Y046028D01*
X058546Y046083D01*
X058544Y046139D01*
X051044Y046139D02*
X051046Y046195D01*
X051052Y046250D01*
X051062Y046304D01*
X051075Y046358D01*
X051093Y046411D01*
X051114Y046462D01*
X051138Y046512D01*
X051166Y046560D01*
X051198Y046606D01*
X051232Y046650D01*
X051270Y046691D01*
X051310Y046729D01*
X051353Y046764D01*
X051398Y046796D01*
X051446Y046825D01*
X051495Y046851D01*
X051546Y046873D01*
X051598Y046891D01*
X051652Y046905D01*
X051707Y046916D01*
X051762Y046923D01*
X051817Y046926D01*
X051873Y046925D01*
X051928Y046920D01*
X051983Y046911D01*
X052037Y046899D01*
X052090Y046882D01*
X052142Y046862D01*
X052192Y046838D01*
X052240Y046811D01*
X052287Y046781D01*
X052331Y046747D01*
X052373Y046710D01*
X052411Y046670D01*
X052448Y046628D01*
X052481Y046583D01*
X052510Y046537D01*
X052537Y046488D01*
X052559Y046437D01*
X052579Y046385D01*
X052594Y046331D01*
X052606Y046277D01*
X052614Y046222D01*
X052618Y046167D01*
X052618Y046111D01*
X052614Y046056D01*
X052606Y046001D01*
X052594Y045947D01*
X052579Y045893D01*
X052559Y045841D01*
X052537Y045790D01*
X052510Y045741D01*
X052481Y045695D01*
X052448Y045650D01*
X052411Y045608D01*
X052373Y045568D01*
X052331Y045531D01*
X052287Y045497D01*
X052240Y045467D01*
X052192Y045440D01*
X052142Y045416D01*
X052090Y045396D01*
X052037Y045379D01*
X051983Y045367D01*
X051928Y045358D01*
X051873Y045353D01*
X051817Y045352D01*
X051762Y045355D01*
X051707Y045362D01*
X051652Y045373D01*
X051598Y045387D01*
X051546Y045405D01*
X051495Y045427D01*
X051446Y045453D01*
X051398Y045482D01*
X051353Y045514D01*
X051310Y045549D01*
X051270Y045587D01*
X051232Y045628D01*
X051198Y045672D01*
X051166Y045718D01*
X051138Y045766D01*
X051114Y045816D01*
X051093Y045867D01*
X051075Y045920D01*
X051062Y045974D01*
X051052Y046028D01*
X051046Y046083D01*
X051044Y046139D01*
X043544Y046139D02*
X043546Y046195D01*
X043552Y046250D01*
X043562Y046304D01*
X043575Y046358D01*
X043593Y046411D01*
X043614Y046462D01*
X043638Y046512D01*
X043666Y046560D01*
X043698Y046606D01*
X043732Y046650D01*
X043770Y046691D01*
X043810Y046729D01*
X043853Y046764D01*
X043898Y046796D01*
X043946Y046825D01*
X043995Y046851D01*
X044046Y046873D01*
X044098Y046891D01*
X044152Y046905D01*
X044207Y046916D01*
X044262Y046923D01*
X044317Y046926D01*
X044373Y046925D01*
X044428Y046920D01*
X044483Y046911D01*
X044537Y046899D01*
X044590Y046882D01*
X044642Y046862D01*
X044692Y046838D01*
X044740Y046811D01*
X044787Y046781D01*
X044831Y046747D01*
X044873Y046710D01*
X044911Y046670D01*
X044948Y046628D01*
X044981Y046583D01*
X045010Y046537D01*
X045037Y046488D01*
X045059Y046437D01*
X045079Y046385D01*
X045094Y046331D01*
X045106Y046277D01*
X045114Y046222D01*
X045118Y046167D01*
X045118Y046111D01*
X045114Y046056D01*
X045106Y046001D01*
X045094Y045947D01*
X045079Y045893D01*
X045059Y045841D01*
X045037Y045790D01*
X045010Y045741D01*
X044981Y045695D01*
X044948Y045650D01*
X044911Y045608D01*
X044873Y045568D01*
X044831Y045531D01*
X044787Y045497D01*
X044740Y045467D01*
X044692Y045440D01*
X044642Y045416D01*
X044590Y045396D01*
X044537Y045379D01*
X044483Y045367D01*
X044428Y045358D01*
X044373Y045353D01*
X044317Y045352D01*
X044262Y045355D01*
X044207Y045362D01*
X044152Y045373D01*
X044098Y045387D01*
X044046Y045405D01*
X043995Y045427D01*
X043946Y045453D01*
X043898Y045482D01*
X043853Y045514D01*
X043810Y045549D01*
X043770Y045587D01*
X043732Y045628D01*
X043698Y045672D01*
X043666Y045718D01*
X043638Y045766D01*
X043614Y045816D01*
X043593Y045867D01*
X043575Y045920D01*
X043562Y045974D01*
X043552Y046028D01*
X043546Y046083D01*
X043544Y046139D01*
X029044Y046139D02*
X029046Y046195D01*
X029052Y046250D01*
X029062Y046304D01*
X029075Y046358D01*
X029093Y046411D01*
X029114Y046462D01*
X029138Y046512D01*
X029166Y046560D01*
X029198Y046606D01*
X029232Y046650D01*
X029270Y046691D01*
X029310Y046729D01*
X029353Y046764D01*
X029398Y046796D01*
X029446Y046825D01*
X029495Y046851D01*
X029546Y046873D01*
X029598Y046891D01*
X029652Y046905D01*
X029707Y046916D01*
X029762Y046923D01*
X029817Y046926D01*
X029873Y046925D01*
X029928Y046920D01*
X029983Y046911D01*
X030037Y046899D01*
X030090Y046882D01*
X030142Y046862D01*
X030192Y046838D01*
X030240Y046811D01*
X030287Y046781D01*
X030331Y046747D01*
X030373Y046710D01*
X030411Y046670D01*
X030448Y046628D01*
X030481Y046583D01*
X030510Y046537D01*
X030537Y046488D01*
X030559Y046437D01*
X030579Y046385D01*
X030594Y046331D01*
X030606Y046277D01*
X030614Y046222D01*
X030618Y046167D01*
X030618Y046111D01*
X030614Y046056D01*
X030606Y046001D01*
X030594Y045947D01*
X030579Y045893D01*
X030559Y045841D01*
X030537Y045790D01*
X030510Y045741D01*
X030481Y045695D01*
X030448Y045650D01*
X030411Y045608D01*
X030373Y045568D01*
X030331Y045531D01*
X030287Y045497D01*
X030240Y045467D01*
X030192Y045440D01*
X030142Y045416D01*
X030090Y045396D01*
X030037Y045379D01*
X029983Y045367D01*
X029928Y045358D01*
X029873Y045353D01*
X029817Y045352D01*
X029762Y045355D01*
X029707Y045362D01*
X029652Y045373D01*
X029598Y045387D01*
X029546Y045405D01*
X029495Y045427D01*
X029446Y045453D01*
X029398Y045482D01*
X029353Y045514D01*
X029310Y045549D01*
X029270Y045587D01*
X029232Y045628D01*
X029198Y045672D01*
X029166Y045718D01*
X029138Y045766D01*
X029114Y045816D01*
X029093Y045867D01*
X029075Y045920D01*
X029062Y045974D01*
X029052Y046028D01*
X029046Y046083D01*
X029044Y046139D01*
X021544Y046139D02*
X021546Y046195D01*
X021552Y046250D01*
X021562Y046304D01*
X021575Y046358D01*
X021593Y046411D01*
X021614Y046462D01*
X021638Y046512D01*
X021666Y046560D01*
X021698Y046606D01*
X021732Y046650D01*
X021770Y046691D01*
X021810Y046729D01*
X021853Y046764D01*
X021898Y046796D01*
X021946Y046825D01*
X021995Y046851D01*
X022046Y046873D01*
X022098Y046891D01*
X022152Y046905D01*
X022207Y046916D01*
X022262Y046923D01*
X022317Y046926D01*
X022373Y046925D01*
X022428Y046920D01*
X022483Y046911D01*
X022537Y046899D01*
X022590Y046882D01*
X022642Y046862D01*
X022692Y046838D01*
X022740Y046811D01*
X022787Y046781D01*
X022831Y046747D01*
X022873Y046710D01*
X022911Y046670D01*
X022948Y046628D01*
X022981Y046583D01*
X023010Y046537D01*
X023037Y046488D01*
X023059Y046437D01*
X023079Y046385D01*
X023094Y046331D01*
X023106Y046277D01*
X023114Y046222D01*
X023118Y046167D01*
X023118Y046111D01*
X023114Y046056D01*
X023106Y046001D01*
X023094Y045947D01*
X023079Y045893D01*
X023059Y045841D01*
X023037Y045790D01*
X023010Y045741D01*
X022981Y045695D01*
X022948Y045650D01*
X022911Y045608D01*
X022873Y045568D01*
X022831Y045531D01*
X022787Y045497D01*
X022740Y045467D01*
X022692Y045440D01*
X022642Y045416D01*
X022590Y045396D01*
X022537Y045379D01*
X022483Y045367D01*
X022428Y045358D01*
X022373Y045353D01*
X022317Y045352D01*
X022262Y045355D01*
X022207Y045362D01*
X022152Y045373D01*
X022098Y045387D01*
X022046Y045405D01*
X021995Y045427D01*
X021946Y045453D01*
X021898Y045482D01*
X021853Y045514D01*
X021810Y045549D01*
X021770Y045587D01*
X021732Y045628D01*
X021698Y045672D01*
X021666Y045718D01*
X021638Y045766D01*
X021614Y045816D01*
X021593Y045867D01*
X021575Y045920D01*
X021562Y045974D01*
X021552Y046028D01*
X021546Y046083D01*
X021544Y046139D01*
X021544Y038639D02*
X021546Y038695D01*
X021552Y038750D01*
X021562Y038804D01*
X021575Y038858D01*
X021593Y038911D01*
X021614Y038962D01*
X021638Y039012D01*
X021666Y039060D01*
X021698Y039106D01*
X021732Y039150D01*
X021770Y039191D01*
X021810Y039229D01*
X021853Y039264D01*
X021898Y039296D01*
X021946Y039325D01*
X021995Y039351D01*
X022046Y039373D01*
X022098Y039391D01*
X022152Y039405D01*
X022207Y039416D01*
X022262Y039423D01*
X022317Y039426D01*
X022373Y039425D01*
X022428Y039420D01*
X022483Y039411D01*
X022537Y039399D01*
X022590Y039382D01*
X022642Y039362D01*
X022692Y039338D01*
X022740Y039311D01*
X022787Y039281D01*
X022831Y039247D01*
X022873Y039210D01*
X022911Y039170D01*
X022948Y039128D01*
X022981Y039083D01*
X023010Y039037D01*
X023037Y038988D01*
X023059Y038937D01*
X023079Y038885D01*
X023094Y038831D01*
X023106Y038777D01*
X023114Y038722D01*
X023118Y038667D01*
X023118Y038611D01*
X023114Y038556D01*
X023106Y038501D01*
X023094Y038447D01*
X023079Y038393D01*
X023059Y038341D01*
X023037Y038290D01*
X023010Y038241D01*
X022981Y038195D01*
X022948Y038150D01*
X022911Y038108D01*
X022873Y038068D01*
X022831Y038031D01*
X022787Y037997D01*
X022740Y037967D01*
X022692Y037940D01*
X022642Y037916D01*
X022590Y037896D01*
X022537Y037879D01*
X022483Y037867D01*
X022428Y037858D01*
X022373Y037853D01*
X022317Y037852D01*
X022262Y037855D01*
X022207Y037862D01*
X022152Y037873D01*
X022098Y037887D01*
X022046Y037905D01*
X021995Y037927D01*
X021946Y037953D01*
X021898Y037982D01*
X021853Y038014D01*
X021810Y038049D01*
X021770Y038087D01*
X021732Y038128D01*
X021698Y038172D01*
X021666Y038218D01*
X021638Y038266D01*
X021614Y038316D01*
X021593Y038367D01*
X021575Y038420D01*
X021562Y038474D01*
X021552Y038528D01*
X021546Y038583D01*
X021544Y038639D01*
X029044Y038639D02*
X029046Y038695D01*
X029052Y038750D01*
X029062Y038804D01*
X029075Y038858D01*
X029093Y038911D01*
X029114Y038962D01*
X029138Y039012D01*
X029166Y039060D01*
X029198Y039106D01*
X029232Y039150D01*
X029270Y039191D01*
X029310Y039229D01*
X029353Y039264D01*
X029398Y039296D01*
X029446Y039325D01*
X029495Y039351D01*
X029546Y039373D01*
X029598Y039391D01*
X029652Y039405D01*
X029707Y039416D01*
X029762Y039423D01*
X029817Y039426D01*
X029873Y039425D01*
X029928Y039420D01*
X029983Y039411D01*
X030037Y039399D01*
X030090Y039382D01*
X030142Y039362D01*
X030192Y039338D01*
X030240Y039311D01*
X030287Y039281D01*
X030331Y039247D01*
X030373Y039210D01*
X030411Y039170D01*
X030448Y039128D01*
X030481Y039083D01*
X030510Y039037D01*
X030537Y038988D01*
X030559Y038937D01*
X030579Y038885D01*
X030594Y038831D01*
X030606Y038777D01*
X030614Y038722D01*
X030618Y038667D01*
X030618Y038611D01*
X030614Y038556D01*
X030606Y038501D01*
X030594Y038447D01*
X030579Y038393D01*
X030559Y038341D01*
X030537Y038290D01*
X030510Y038241D01*
X030481Y038195D01*
X030448Y038150D01*
X030411Y038108D01*
X030373Y038068D01*
X030331Y038031D01*
X030287Y037997D01*
X030240Y037967D01*
X030192Y037940D01*
X030142Y037916D01*
X030090Y037896D01*
X030037Y037879D01*
X029983Y037867D01*
X029928Y037858D01*
X029873Y037853D01*
X029817Y037852D01*
X029762Y037855D01*
X029707Y037862D01*
X029652Y037873D01*
X029598Y037887D01*
X029546Y037905D01*
X029495Y037927D01*
X029446Y037953D01*
X029398Y037982D01*
X029353Y038014D01*
X029310Y038049D01*
X029270Y038087D01*
X029232Y038128D01*
X029198Y038172D01*
X029166Y038218D01*
X029138Y038266D01*
X029114Y038316D01*
X029093Y038367D01*
X029075Y038420D01*
X029062Y038474D01*
X029052Y038528D01*
X029046Y038583D01*
X029044Y038639D01*
X029044Y031139D02*
X029046Y031195D01*
X029052Y031250D01*
X029062Y031304D01*
X029075Y031358D01*
X029093Y031411D01*
X029114Y031462D01*
X029138Y031512D01*
X029166Y031560D01*
X029198Y031606D01*
X029232Y031650D01*
X029270Y031691D01*
X029310Y031729D01*
X029353Y031764D01*
X029398Y031796D01*
X029446Y031825D01*
X029495Y031851D01*
X029546Y031873D01*
X029598Y031891D01*
X029652Y031905D01*
X029707Y031916D01*
X029762Y031923D01*
X029817Y031926D01*
X029873Y031925D01*
X029928Y031920D01*
X029983Y031911D01*
X030037Y031899D01*
X030090Y031882D01*
X030142Y031862D01*
X030192Y031838D01*
X030240Y031811D01*
X030287Y031781D01*
X030331Y031747D01*
X030373Y031710D01*
X030411Y031670D01*
X030448Y031628D01*
X030481Y031583D01*
X030510Y031537D01*
X030537Y031488D01*
X030559Y031437D01*
X030579Y031385D01*
X030594Y031331D01*
X030606Y031277D01*
X030614Y031222D01*
X030618Y031167D01*
X030618Y031111D01*
X030614Y031056D01*
X030606Y031001D01*
X030594Y030947D01*
X030579Y030893D01*
X030559Y030841D01*
X030537Y030790D01*
X030510Y030741D01*
X030481Y030695D01*
X030448Y030650D01*
X030411Y030608D01*
X030373Y030568D01*
X030331Y030531D01*
X030287Y030497D01*
X030240Y030467D01*
X030192Y030440D01*
X030142Y030416D01*
X030090Y030396D01*
X030037Y030379D01*
X029983Y030367D01*
X029928Y030358D01*
X029873Y030353D01*
X029817Y030352D01*
X029762Y030355D01*
X029707Y030362D01*
X029652Y030373D01*
X029598Y030387D01*
X029546Y030405D01*
X029495Y030427D01*
X029446Y030453D01*
X029398Y030482D01*
X029353Y030514D01*
X029310Y030549D01*
X029270Y030587D01*
X029232Y030628D01*
X029198Y030672D01*
X029166Y030718D01*
X029138Y030766D01*
X029114Y030816D01*
X029093Y030867D01*
X029075Y030920D01*
X029062Y030974D01*
X029052Y031028D01*
X029046Y031083D01*
X029044Y031139D01*
X021544Y031139D02*
X021546Y031195D01*
X021552Y031250D01*
X021562Y031304D01*
X021575Y031358D01*
X021593Y031411D01*
X021614Y031462D01*
X021638Y031512D01*
X021666Y031560D01*
X021698Y031606D01*
X021732Y031650D01*
X021770Y031691D01*
X021810Y031729D01*
X021853Y031764D01*
X021898Y031796D01*
X021946Y031825D01*
X021995Y031851D01*
X022046Y031873D01*
X022098Y031891D01*
X022152Y031905D01*
X022207Y031916D01*
X022262Y031923D01*
X022317Y031926D01*
X022373Y031925D01*
X022428Y031920D01*
X022483Y031911D01*
X022537Y031899D01*
X022590Y031882D01*
X022642Y031862D01*
X022692Y031838D01*
X022740Y031811D01*
X022787Y031781D01*
X022831Y031747D01*
X022873Y031710D01*
X022911Y031670D01*
X022948Y031628D01*
X022981Y031583D01*
X023010Y031537D01*
X023037Y031488D01*
X023059Y031437D01*
X023079Y031385D01*
X023094Y031331D01*
X023106Y031277D01*
X023114Y031222D01*
X023118Y031167D01*
X023118Y031111D01*
X023114Y031056D01*
X023106Y031001D01*
X023094Y030947D01*
X023079Y030893D01*
X023059Y030841D01*
X023037Y030790D01*
X023010Y030741D01*
X022981Y030695D01*
X022948Y030650D01*
X022911Y030608D01*
X022873Y030568D01*
X022831Y030531D01*
X022787Y030497D01*
X022740Y030467D01*
X022692Y030440D01*
X022642Y030416D01*
X022590Y030396D01*
X022537Y030379D01*
X022483Y030367D01*
X022428Y030358D01*
X022373Y030353D01*
X022317Y030352D01*
X022262Y030355D01*
X022207Y030362D01*
X022152Y030373D01*
X022098Y030387D01*
X022046Y030405D01*
X021995Y030427D01*
X021946Y030453D01*
X021898Y030482D01*
X021853Y030514D01*
X021810Y030549D01*
X021770Y030587D01*
X021732Y030628D01*
X021698Y030672D01*
X021666Y030718D01*
X021638Y030766D01*
X021614Y030816D01*
X021593Y030867D01*
X021575Y030920D01*
X021562Y030974D01*
X021552Y031028D01*
X021546Y031083D01*
X021544Y031139D01*
X021544Y023639D02*
X021546Y023695D01*
X021552Y023750D01*
X021562Y023804D01*
X021575Y023858D01*
X021593Y023911D01*
X021614Y023962D01*
X021638Y024012D01*
X021666Y024060D01*
X021698Y024106D01*
X021732Y024150D01*
X021770Y024191D01*
X021810Y024229D01*
X021853Y024264D01*
X021898Y024296D01*
X021946Y024325D01*
X021995Y024351D01*
X022046Y024373D01*
X022098Y024391D01*
X022152Y024405D01*
X022207Y024416D01*
X022262Y024423D01*
X022317Y024426D01*
X022373Y024425D01*
X022428Y024420D01*
X022483Y024411D01*
X022537Y024399D01*
X022590Y024382D01*
X022642Y024362D01*
X022692Y024338D01*
X022740Y024311D01*
X022787Y024281D01*
X022831Y024247D01*
X022873Y024210D01*
X022911Y024170D01*
X022948Y024128D01*
X022981Y024083D01*
X023010Y024037D01*
X023037Y023988D01*
X023059Y023937D01*
X023079Y023885D01*
X023094Y023831D01*
X023106Y023777D01*
X023114Y023722D01*
X023118Y023667D01*
X023118Y023611D01*
X023114Y023556D01*
X023106Y023501D01*
X023094Y023447D01*
X023079Y023393D01*
X023059Y023341D01*
X023037Y023290D01*
X023010Y023241D01*
X022981Y023195D01*
X022948Y023150D01*
X022911Y023108D01*
X022873Y023068D01*
X022831Y023031D01*
X022787Y022997D01*
X022740Y022967D01*
X022692Y022940D01*
X022642Y022916D01*
X022590Y022896D01*
X022537Y022879D01*
X022483Y022867D01*
X022428Y022858D01*
X022373Y022853D01*
X022317Y022852D01*
X022262Y022855D01*
X022207Y022862D01*
X022152Y022873D01*
X022098Y022887D01*
X022046Y022905D01*
X021995Y022927D01*
X021946Y022953D01*
X021898Y022982D01*
X021853Y023014D01*
X021810Y023049D01*
X021770Y023087D01*
X021732Y023128D01*
X021698Y023172D01*
X021666Y023218D01*
X021638Y023266D01*
X021614Y023316D01*
X021593Y023367D01*
X021575Y023420D01*
X021562Y023474D01*
X021552Y023528D01*
X021546Y023583D01*
X021544Y023639D01*
X029044Y023639D02*
X029046Y023695D01*
X029052Y023750D01*
X029062Y023804D01*
X029075Y023858D01*
X029093Y023911D01*
X029114Y023962D01*
X029138Y024012D01*
X029166Y024060D01*
X029198Y024106D01*
X029232Y024150D01*
X029270Y024191D01*
X029310Y024229D01*
X029353Y024264D01*
X029398Y024296D01*
X029446Y024325D01*
X029495Y024351D01*
X029546Y024373D01*
X029598Y024391D01*
X029652Y024405D01*
X029707Y024416D01*
X029762Y024423D01*
X029817Y024426D01*
X029873Y024425D01*
X029928Y024420D01*
X029983Y024411D01*
X030037Y024399D01*
X030090Y024382D01*
X030142Y024362D01*
X030192Y024338D01*
X030240Y024311D01*
X030287Y024281D01*
X030331Y024247D01*
X030373Y024210D01*
X030411Y024170D01*
X030448Y024128D01*
X030481Y024083D01*
X030510Y024037D01*
X030537Y023988D01*
X030559Y023937D01*
X030579Y023885D01*
X030594Y023831D01*
X030606Y023777D01*
X030614Y023722D01*
X030618Y023667D01*
X030618Y023611D01*
X030614Y023556D01*
X030606Y023501D01*
X030594Y023447D01*
X030579Y023393D01*
X030559Y023341D01*
X030537Y023290D01*
X030510Y023241D01*
X030481Y023195D01*
X030448Y023150D01*
X030411Y023108D01*
X030373Y023068D01*
X030331Y023031D01*
X030287Y022997D01*
X030240Y022967D01*
X030192Y022940D01*
X030142Y022916D01*
X030090Y022896D01*
X030037Y022879D01*
X029983Y022867D01*
X029928Y022858D01*
X029873Y022853D01*
X029817Y022852D01*
X029762Y022855D01*
X029707Y022862D01*
X029652Y022873D01*
X029598Y022887D01*
X029546Y022905D01*
X029495Y022927D01*
X029446Y022953D01*
X029398Y022982D01*
X029353Y023014D01*
X029310Y023049D01*
X029270Y023087D01*
X029232Y023128D01*
X029198Y023172D01*
X029166Y023218D01*
X029138Y023266D01*
X029114Y023316D01*
X029093Y023367D01*
X029075Y023420D01*
X029062Y023474D01*
X029052Y023528D01*
X029046Y023583D01*
X029044Y023639D01*
X043544Y020639D02*
X043546Y020695D01*
X043552Y020750D01*
X043562Y020804D01*
X043575Y020858D01*
X043593Y020911D01*
X043614Y020962D01*
X043638Y021012D01*
X043666Y021060D01*
X043698Y021106D01*
X043732Y021150D01*
X043770Y021191D01*
X043810Y021229D01*
X043853Y021264D01*
X043898Y021296D01*
X043946Y021325D01*
X043995Y021351D01*
X044046Y021373D01*
X044098Y021391D01*
X044152Y021405D01*
X044207Y021416D01*
X044262Y021423D01*
X044317Y021426D01*
X044373Y021425D01*
X044428Y021420D01*
X044483Y021411D01*
X044537Y021399D01*
X044590Y021382D01*
X044642Y021362D01*
X044692Y021338D01*
X044740Y021311D01*
X044787Y021281D01*
X044831Y021247D01*
X044873Y021210D01*
X044911Y021170D01*
X044948Y021128D01*
X044981Y021083D01*
X045010Y021037D01*
X045037Y020988D01*
X045059Y020937D01*
X045079Y020885D01*
X045094Y020831D01*
X045106Y020777D01*
X045114Y020722D01*
X045118Y020667D01*
X045118Y020611D01*
X045114Y020556D01*
X045106Y020501D01*
X045094Y020447D01*
X045079Y020393D01*
X045059Y020341D01*
X045037Y020290D01*
X045010Y020241D01*
X044981Y020195D01*
X044948Y020150D01*
X044911Y020108D01*
X044873Y020068D01*
X044831Y020031D01*
X044787Y019997D01*
X044740Y019967D01*
X044692Y019940D01*
X044642Y019916D01*
X044590Y019896D01*
X044537Y019879D01*
X044483Y019867D01*
X044428Y019858D01*
X044373Y019853D01*
X044317Y019852D01*
X044262Y019855D01*
X044207Y019862D01*
X044152Y019873D01*
X044098Y019887D01*
X044046Y019905D01*
X043995Y019927D01*
X043946Y019953D01*
X043898Y019982D01*
X043853Y020014D01*
X043810Y020049D01*
X043770Y020087D01*
X043732Y020128D01*
X043698Y020172D01*
X043666Y020218D01*
X043638Y020266D01*
X043614Y020316D01*
X043593Y020367D01*
X043575Y020420D01*
X043562Y020474D01*
X043552Y020528D01*
X043546Y020583D01*
X043544Y020639D01*
X054044Y020639D02*
X054046Y020695D01*
X054052Y020750D01*
X054062Y020804D01*
X054075Y020858D01*
X054093Y020911D01*
X054114Y020962D01*
X054138Y021012D01*
X054166Y021060D01*
X054198Y021106D01*
X054232Y021150D01*
X054270Y021191D01*
X054310Y021229D01*
X054353Y021264D01*
X054398Y021296D01*
X054446Y021325D01*
X054495Y021351D01*
X054546Y021373D01*
X054598Y021391D01*
X054652Y021405D01*
X054707Y021416D01*
X054762Y021423D01*
X054817Y021426D01*
X054873Y021425D01*
X054928Y021420D01*
X054983Y021411D01*
X055037Y021399D01*
X055090Y021382D01*
X055142Y021362D01*
X055192Y021338D01*
X055240Y021311D01*
X055287Y021281D01*
X055331Y021247D01*
X055373Y021210D01*
X055411Y021170D01*
X055448Y021128D01*
X055481Y021083D01*
X055510Y021037D01*
X055537Y020988D01*
X055559Y020937D01*
X055579Y020885D01*
X055594Y020831D01*
X055606Y020777D01*
X055614Y020722D01*
X055618Y020667D01*
X055618Y020611D01*
X055614Y020556D01*
X055606Y020501D01*
X055594Y020447D01*
X055579Y020393D01*
X055559Y020341D01*
X055537Y020290D01*
X055510Y020241D01*
X055481Y020195D01*
X055448Y020150D01*
X055411Y020108D01*
X055373Y020068D01*
X055331Y020031D01*
X055287Y019997D01*
X055240Y019967D01*
X055192Y019940D01*
X055142Y019916D01*
X055090Y019896D01*
X055037Y019879D01*
X054983Y019867D01*
X054928Y019858D01*
X054873Y019853D01*
X054817Y019852D01*
X054762Y019855D01*
X054707Y019862D01*
X054652Y019873D01*
X054598Y019887D01*
X054546Y019905D01*
X054495Y019927D01*
X054446Y019953D01*
X054398Y019982D01*
X054353Y020014D01*
X054310Y020049D01*
X054270Y020087D01*
X054232Y020128D01*
X054198Y020172D01*
X054166Y020218D01*
X054138Y020266D01*
X054114Y020316D01*
X054093Y020367D01*
X054075Y020420D01*
X054062Y020474D01*
X054052Y020528D01*
X054046Y020583D01*
X054044Y020639D01*
X061544Y020639D02*
X061546Y020695D01*
X061552Y020750D01*
X061562Y020804D01*
X061575Y020858D01*
X061593Y020911D01*
X061614Y020962D01*
X061638Y021012D01*
X061666Y021060D01*
X061698Y021106D01*
X061732Y021150D01*
X061770Y021191D01*
X061810Y021229D01*
X061853Y021264D01*
X061898Y021296D01*
X061946Y021325D01*
X061995Y021351D01*
X062046Y021373D01*
X062098Y021391D01*
X062152Y021405D01*
X062207Y021416D01*
X062262Y021423D01*
X062317Y021426D01*
X062373Y021425D01*
X062428Y021420D01*
X062483Y021411D01*
X062537Y021399D01*
X062590Y021382D01*
X062642Y021362D01*
X062692Y021338D01*
X062740Y021311D01*
X062787Y021281D01*
X062831Y021247D01*
X062873Y021210D01*
X062911Y021170D01*
X062948Y021128D01*
X062981Y021083D01*
X063010Y021037D01*
X063037Y020988D01*
X063059Y020937D01*
X063079Y020885D01*
X063094Y020831D01*
X063106Y020777D01*
X063114Y020722D01*
X063118Y020667D01*
X063118Y020611D01*
X063114Y020556D01*
X063106Y020501D01*
X063094Y020447D01*
X063079Y020393D01*
X063059Y020341D01*
X063037Y020290D01*
X063010Y020241D01*
X062981Y020195D01*
X062948Y020150D01*
X062911Y020108D01*
X062873Y020068D01*
X062831Y020031D01*
X062787Y019997D01*
X062740Y019967D01*
X062692Y019940D01*
X062642Y019916D01*
X062590Y019896D01*
X062537Y019879D01*
X062483Y019867D01*
X062428Y019858D01*
X062373Y019853D01*
X062317Y019852D01*
X062262Y019855D01*
X062207Y019862D01*
X062152Y019873D01*
X062098Y019887D01*
X062046Y019905D01*
X061995Y019927D01*
X061946Y019953D01*
X061898Y019982D01*
X061853Y020014D01*
X061810Y020049D01*
X061770Y020087D01*
X061732Y020128D01*
X061698Y020172D01*
X061666Y020218D01*
X061638Y020266D01*
X061614Y020316D01*
X061593Y020367D01*
X061575Y020420D01*
X061562Y020474D01*
X061552Y020528D01*
X061546Y020583D01*
X061544Y020639D01*
X069044Y020639D02*
X069046Y020695D01*
X069052Y020750D01*
X069062Y020804D01*
X069075Y020858D01*
X069093Y020911D01*
X069114Y020962D01*
X069138Y021012D01*
X069166Y021060D01*
X069198Y021106D01*
X069232Y021150D01*
X069270Y021191D01*
X069310Y021229D01*
X069353Y021264D01*
X069398Y021296D01*
X069446Y021325D01*
X069495Y021351D01*
X069546Y021373D01*
X069598Y021391D01*
X069652Y021405D01*
X069707Y021416D01*
X069762Y021423D01*
X069817Y021426D01*
X069873Y021425D01*
X069928Y021420D01*
X069983Y021411D01*
X070037Y021399D01*
X070090Y021382D01*
X070142Y021362D01*
X070192Y021338D01*
X070240Y021311D01*
X070287Y021281D01*
X070331Y021247D01*
X070373Y021210D01*
X070411Y021170D01*
X070448Y021128D01*
X070481Y021083D01*
X070510Y021037D01*
X070537Y020988D01*
X070559Y020937D01*
X070579Y020885D01*
X070594Y020831D01*
X070606Y020777D01*
X070614Y020722D01*
X070618Y020667D01*
X070618Y020611D01*
X070614Y020556D01*
X070606Y020501D01*
X070594Y020447D01*
X070579Y020393D01*
X070559Y020341D01*
X070537Y020290D01*
X070510Y020241D01*
X070481Y020195D01*
X070448Y020150D01*
X070411Y020108D01*
X070373Y020068D01*
X070331Y020031D01*
X070287Y019997D01*
X070240Y019967D01*
X070192Y019940D01*
X070142Y019916D01*
X070090Y019896D01*
X070037Y019879D01*
X069983Y019867D01*
X069928Y019858D01*
X069873Y019853D01*
X069817Y019852D01*
X069762Y019855D01*
X069707Y019862D01*
X069652Y019873D01*
X069598Y019887D01*
X069546Y019905D01*
X069495Y019927D01*
X069446Y019953D01*
X069398Y019982D01*
X069353Y020014D01*
X069310Y020049D01*
X069270Y020087D01*
X069232Y020128D01*
X069198Y020172D01*
X069166Y020218D01*
X069138Y020266D01*
X069114Y020316D01*
X069093Y020367D01*
X069075Y020420D01*
X069062Y020474D01*
X069052Y020528D01*
X069046Y020583D01*
X069044Y020639D01*
X076544Y020639D02*
X076546Y020695D01*
X076552Y020750D01*
X076562Y020804D01*
X076575Y020858D01*
X076593Y020911D01*
X076614Y020962D01*
X076638Y021012D01*
X076666Y021060D01*
X076698Y021106D01*
X076732Y021150D01*
X076770Y021191D01*
X076810Y021229D01*
X076853Y021264D01*
X076898Y021296D01*
X076946Y021325D01*
X076995Y021351D01*
X077046Y021373D01*
X077098Y021391D01*
X077152Y021405D01*
X077207Y021416D01*
X077262Y021423D01*
X077317Y021426D01*
X077373Y021425D01*
X077428Y021420D01*
X077483Y021411D01*
X077537Y021399D01*
X077590Y021382D01*
X077642Y021362D01*
X077692Y021338D01*
X077740Y021311D01*
X077787Y021281D01*
X077831Y021247D01*
X077873Y021210D01*
X077911Y021170D01*
X077948Y021128D01*
X077981Y021083D01*
X078010Y021037D01*
X078037Y020988D01*
X078059Y020937D01*
X078079Y020885D01*
X078094Y020831D01*
X078106Y020777D01*
X078114Y020722D01*
X078118Y020667D01*
X078118Y020611D01*
X078114Y020556D01*
X078106Y020501D01*
X078094Y020447D01*
X078079Y020393D01*
X078059Y020341D01*
X078037Y020290D01*
X078010Y020241D01*
X077981Y020195D01*
X077948Y020150D01*
X077911Y020108D01*
X077873Y020068D01*
X077831Y020031D01*
X077787Y019997D01*
X077740Y019967D01*
X077692Y019940D01*
X077642Y019916D01*
X077590Y019896D01*
X077537Y019879D01*
X077483Y019867D01*
X077428Y019858D01*
X077373Y019853D01*
X077317Y019852D01*
X077262Y019855D01*
X077207Y019862D01*
X077152Y019873D01*
X077098Y019887D01*
X077046Y019905D01*
X076995Y019927D01*
X076946Y019953D01*
X076898Y019982D01*
X076853Y020014D01*
X076810Y020049D01*
X076770Y020087D01*
X076732Y020128D01*
X076698Y020172D01*
X076666Y020218D01*
X076638Y020266D01*
X076614Y020316D01*
X076593Y020367D01*
X076575Y020420D01*
X076562Y020474D01*
X076552Y020528D01*
X076546Y020583D01*
X076544Y020639D01*
X084044Y020639D02*
X084046Y020695D01*
X084052Y020750D01*
X084062Y020804D01*
X084075Y020858D01*
X084093Y020911D01*
X084114Y020962D01*
X084138Y021012D01*
X084166Y021060D01*
X084198Y021106D01*
X084232Y021150D01*
X084270Y021191D01*
X084310Y021229D01*
X084353Y021264D01*
X084398Y021296D01*
X084446Y021325D01*
X084495Y021351D01*
X084546Y021373D01*
X084598Y021391D01*
X084652Y021405D01*
X084707Y021416D01*
X084762Y021423D01*
X084817Y021426D01*
X084873Y021425D01*
X084928Y021420D01*
X084983Y021411D01*
X085037Y021399D01*
X085090Y021382D01*
X085142Y021362D01*
X085192Y021338D01*
X085240Y021311D01*
X085287Y021281D01*
X085331Y021247D01*
X085373Y021210D01*
X085411Y021170D01*
X085448Y021128D01*
X085481Y021083D01*
X085510Y021037D01*
X085537Y020988D01*
X085559Y020937D01*
X085579Y020885D01*
X085594Y020831D01*
X085606Y020777D01*
X085614Y020722D01*
X085618Y020667D01*
X085618Y020611D01*
X085614Y020556D01*
X085606Y020501D01*
X085594Y020447D01*
X085579Y020393D01*
X085559Y020341D01*
X085537Y020290D01*
X085510Y020241D01*
X085481Y020195D01*
X085448Y020150D01*
X085411Y020108D01*
X085373Y020068D01*
X085331Y020031D01*
X085287Y019997D01*
X085240Y019967D01*
X085192Y019940D01*
X085142Y019916D01*
X085090Y019896D01*
X085037Y019879D01*
X084983Y019867D01*
X084928Y019858D01*
X084873Y019853D01*
X084817Y019852D01*
X084762Y019855D01*
X084707Y019862D01*
X084652Y019873D01*
X084598Y019887D01*
X084546Y019905D01*
X084495Y019927D01*
X084446Y019953D01*
X084398Y019982D01*
X084353Y020014D01*
X084310Y020049D01*
X084270Y020087D01*
X084232Y020128D01*
X084198Y020172D01*
X084166Y020218D01*
X084138Y020266D01*
X084114Y020316D01*
X084093Y020367D01*
X084075Y020420D01*
X084062Y020474D01*
X084052Y020528D01*
X084046Y020583D01*
X084044Y020639D01*
X097544Y020639D02*
X097546Y020695D01*
X097552Y020750D01*
X097562Y020804D01*
X097575Y020858D01*
X097593Y020911D01*
X097614Y020962D01*
X097638Y021012D01*
X097666Y021060D01*
X097698Y021106D01*
X097732Y021150D01*
X097770Y021191D01*
X097810Y021229D01*
X097853Y021264D01*
X097898Y021296D01*
X097946Y021325D01*
X097995Y021351D01*
X098046Y021373D01*
X098098Y021391D01*
X098152Y021405D01*
X098207Y021416D01*
X098262Y021423D01*
X098317Y021426D01*
X098373Y021425D01*
X098428Y021420D01*
X098483Y021411D01*
X098537Y021399D01*
X098590Y021382D01*
X098642Y021362D01*
X098692Y021338D01*
X098740Y021311D01*
X098787Y021281D01*
X098831Y021247D01*
X098873Y021210D01*
X098911Y021170D01*
X098948Y021128D01*
X098981Y021083D01*
X099010Y021037D01*
X099037Y020988D01*
X099059Y020937D01*
X099079Y020885D01*
X099094Y020831D01*
X099106Y020777D01*
X099114Y020722D01*
X099118Y020667D01*
X099118Y020611D01*
X099114Y020556D01*
X099106Y020501D01*
X099094Y020447D01*
X099079Y020393D01*
X099059Y020341D01*
X099037Y020290D01*
X099010Y020241D01*
X098981Y020195D01*
X098948Y020150D01*
X098911Y020108D01*
X098873Y020068D01*
X098831Y020031D01*
X098787Y019997D01*
X098740Y019967D01*
X098692Y019940D01*
X098642Y019916D01*
X098590Y019896D01*
X098537Y019879D01*
X098483Y019867D01*
X098428Y019858D01*
X098373Y019853D01*
X098317Y019852D01*
X098262Y019855D01*
X098207Y019862D01*
X098152Y019873D01*
X098098Y019887D01*
X098046Y019905D01*
X097995Y019927D01*
X097946Y019953D01*
X097898Y019982D01*
X097853Y020014D01*
X097810Y020049D01*
X097770Y020087D01*
X097732Y020128D01*
X097698Y020172D01*
X097666Y020218D01*
X097638Y020266D01*
X097614Y020316D01*
X097593Y020367D01*
X097575Y020420D01*
X097562Y020474D01*
X097552Y020528D01*
X097546Y020583D01*
X097544Y020639D01*
X105044Y020639D02*
X105046Y020695D01*
X105052Y020750D01*
X105062Y020804D01*
X105075Y020858D01*
X105093Y020911D01*
X105114Y020962D01*
X105138Y021012D01*
X105166Y021060D01*
X105198Y021106D01*
X105232Y021150D01*
X105270Y021191D01*
X105310Y021229D01*
X105353Y021264D01*
X105398Y021296D01*
X105446Y021325D01*
X105495Y021351D01*
X105546Y021373D01*
X105598Y021391D01*
X105652Y021405D01*
X105707Y021416D01*
X105762Y021423D01*
X105817Y021426D01*
X105873Y021425D01*
X105928Y021420D01*
X105983Y021411D01*
X106037Y021399D01*
X106090Y021382D01*
X106142Y021362D01*
X106192Y021338D01*
X106240Y021311D01*
X106287Y021281D01*
X106331Y021247D01*
X106373Y021210D01*
X106411Y021170D01*
X106448Y021128D01*
X106481Y021083D01*
X106510Y021037D01*
X106537Y020988D01*
X106559Y020937D01*
X106579Y020885D01*
X106594Y020831D01*
X106606Y020777D01*
X106614Y020722D01*
X106618Y020667D01*
X106618Y020611D01*
X106614Y020556D01*
X106606Y020501D01*
X106594Y020447D01*
X106579Y020393D01*
X106559Y020341D01*
X106537Y020290D01*
X106510Y020241D01*
X106481Y020195D01*
X106448Y020150D01*
X106411Y020108D01*
X106373Y020068D01*
X106331Y020031D01*
X106287Y019997D01*
X106240Y019967D01*
X106192Y019940D01*
X106142Y019916D01*
X106090Y019896D01*
X106037Y019879D01*
X105983Y019867D01*
X105928Y019858D01*
X105873Y019853D01*
X105817Y019852D01*
X105762Y019855D01*
X105707Y019862D01*
X105652Y019873D01*
X105598Y019887D01*
X105546Y019905D01*
X105495Y019927D01*
X105446Y019953D01*
X105398Y019982D01*
X105353Y020014D01*
X105310Y020049D01*
X105270Y020087D01*
X105232Y020128D01*
X105198Y020172D01*
X105166Y020218D01*
X105138Y020266D01*
X105114Y020316D01*
X105093Y020367D01*
X105075Y020420D01*
X105062Y020474D01*
X105052Y020528D01*
X105046Y020583D01*
X105044Y020639D01*
X112544Y020639D02*
X112546Y020695D01*
X112552Y020750D01*
X112562Y020804D01*
X112575Y020858D01*
X112593Y020911D01*
X112614Y020962D01*
X112638Y021012D01*
X112666Y021060D01*
X112698Y021106D01*
X112732Y021150D01*
X112770Y021191D01*
X112810Y021229D01*
X112853Y021264D01*
X112898Y021296D01*
X112946Y021325D01*
X112995Y021351D01*
X113046Y021373D01*
X113098Y021391D01*
X113152Y021405D01*
X113207Y021416D01*
X113262Y021423D01*
X113317Y021426D01*
X113373Y021425D01*
X113428Y021420D01*
X113483Y021411D01*
X113537Y021399D01*
X113590Y021382D01*
X113642Y021362D01*
X113692Y021338D01*
X113740Y021311D01*
X113787Y021281D01*
X113831Y021247D01*
X113873Y021210D01*
X113911Y021170D01*
X113948Y021128D01*
X113981Y021083D01*
X114010Y021037D01*
X114037Y020988D01*
X114059Y020937D01*
X114079Y020885D01*
X114094Y020831D01*
X114106Y020777D01*
X114114Y020722D01*
X114118Y020667D01*
X114118Y020611D01*
X114114Y020556D01*
X114106Y020501D01*
X114094Y020447D01*
X114079Y020393D01*
X114059Y020341D01*
X114037Y020290D01*
X114010Y020241D01*
X113981Y020195D01*
X113948Y020150D01*
X113911Y020108D01*
X113873Y020068D01*
X113831Y020031D01*
X113787Y019997D01*
X113740Y019967D01*
X113692Y019940D01*
X113642Y019916D01*
X113590Y019896D01*
X113537Y019879D01*
X113483Y019867D01*
X113428Y019858D01*
X113373Y019853D01*
X113317Y019852D01*
X113262Y019855D01*
X113207Y019862D01*
X113152Y019873D01*
X113098Y019887D01*
X113046Y019905D01*
X112995Y019927D01*
X112946Y019953D01*
X112898Y019982D01*
X112853Y020014D01*
X112810Y020049D01*
X112770Y020087D01*
X112732Y020128D01*
X112698Y020172D01*
X112666Y020218D01*
X112638Y020266D01*
X112614Y020316D01*
X112593Y020367D01*
X112575Y020420D01*
X112562Y020474D01*
X112552Y020528D01*
X112546Y020583D01*
X112544Y020639D01*
X120044Y020639D02*
X120046Y020695D01*
X120052Y020750D01*
X120062Y020804D01*
X120075Y020858D01*
X120093Y020911D01*
X120114Y020962D01*
X120138Y021012D01*
X120166Y021060D01*
X120198Y021106D01*
X120232Y021150D01*
X120270Y021191D01*
X120310Y021229D01*
X120353Y021264D01*
X120398Y021296D01*
X120446Y021325D01*
X120495Y021351D01*
X120546Y021373D01*
X120598Y021391D01*
X120652Y021405D01*
X120707Y021416D01*
X120762Y021423D01*
X120817Y021426D01*
X120873Y021425D01*
X120928Y021420D01*
X120983Y021411D01*
X121037Y021399D01*
X121090Y021382D01*
X121142Y021362D01*
X121192Y021338D01*
X121240Y021311D01*
X121287Y021281D01*
X121331Y021247D01*
X121373Y021210D01*
X121411Y021170D01*
X121448Y021128D01*
X121481Y021083D01*
X121510Y021037D01*
X121537Y020988D01*
X121559Y020937D01*
X121579Y020885D01*
X121594Y020831D01*
X121606Y020777D01*
X121614Y020722D01*
X121618Y020667D01*
X121618Y020611D01*
X121614Y020556D01*
X121606Y020501D01*
X121594Y020447D01*
X121579Y020393D01*
X121559Y020341D01*
X121537Y020290D01*
X121510Y020241D01*
X121481Y020195D01*
X121448Y020150D01*
X121411Y020108D01*
X121373Y020068D01*
X121331Y020031D01*
X121287Y019997D01*
X121240Y019967D01*
X121192Y019940D01*
X121142Y019916D01*
X121090Y019896D01*
X121037Y019879D01*
X120983Y019867D01*
X120928Y019858D01*
X120873Y019853D01*
X120817Y019852D01*
X120762Y019855D01*
X120707Y019862D01*
X120652Y019873D01*
X120598Y019887D01*
X120546Y019905D01*
X120495Y019927D01*
X120446Y019953D01*
X120398Y019982D01*
X120353Y020014D01*
X120310Y020049D01*
X120270Y020087D01*
X120232Y020128D01*
X120198Y020172D01*
X120166Y020218D01*
X120138Y020266D01*
X120114Y020316D01*
X120093Y020367D01*
X120075Y020420D01*
X120062Y020474D01*
X120052Y020528D01*
X120046Y020583D01*
X120044Y020639D01*
X127544Y020639D02*
X127546Y020695D01*
X127552Y020750D01*
X127562Y020804D01*
X127575Y020858D01*
X127593Y020911D01*
X127614Y020962D01*
X127638Y021012D01*
X127666Y021060D01*
X127698Y021106D01*
X127732Y021150D01*
X127770Y021191D01*
X127810Y021229D01*
X127853Y021264D01*
X127898Y021296D01*
X127946Y021325D01*
X127995Y021351D01*
X128046Y021373D01*
X128098Y021391D01*
X128152Y021405D01*
X128207Y021416D01*
X128262Y021423D01*
X128317Y021426D01*
X128373Y021425D01*
X128428Y021420D01*
X128483Y021411D01*
X128537Y021399D01*
X128590Y021382D01*
X128642Y021362D01*
X128692Y021338D01*
X128740Y021311D01*
X128787Y021281D01*
X128831Y021247D01*
X128873Y021210D01*
X128911Y021170D01*
X128948Y021128D01*
X128981Y021083D01*
X129010Y021037D01*
X129037Y020988D01*
X129059Y020937D01*
X129079Y020885D01*
X129094Y020831D01*
X129106Y020777D01*
X129114Y020722D01*
X129118Y020667D01*
X129118Y020611D01*
X129114Y020556D01*
X129106Y020501D01*
X129094Y020447D01*
X129079Y020393D01*
X129059Y020341D01*
X129037Y020290D01*
X129010Y020241D01*
X128981Y020195D01*
X128948Y020150D01*
X128911Y020108D01*
X128873Y020068D01*
X128831Y020031D01*
X128787Y019997D01*
X128740Y019967D01*
X128692Y019940D01*
X128642Y019916D01*
X128590Y019896D01*
X128537Y019879D01*
X128483Y019867D01*
X128428Y019858D01*
X128373Y019853D01*
X128317Y019852D01*
X128262Y019855D01*
X128207Y019862D01*
X128152Y019873D01*
X128098Y019887D01*
X128046Y019905D01*
X127995Y019927D01*
X127946Y019953D01*
X127898Y019982D01*
X127853Y020014D01*
X127810Y020049D01*
X127770Y020087D01*
X127732Y020128D01*
X127698Y020172D01*
X127666Y020218D01*
X127638Y020266D01*
X127614Y020316D01*
X127593Y020367D01*
X127575Y020420D01*
X127562Y020474D01*
X127552Y020528D01*
X127546Y020583D01*
X127544Y020639D01*
X135044Y020639D02*
X135046Y020695D01*
X135052Y020750D01*
X135062Y020804D01*
X135075Y020858D01*
X135093Y020911D01*
X135114Y020962D01*
X135138Y021012D01*
X135166Y021060D01*
X135198Y021106D01*
X135232Y021150D01*
X135270Y021191D01*
X135310Y021229D01*
X135353Y021264D01*
X135398Y021296D01*
X135446Y021325D01*
X135495Y021351D01*
X135546Y021373D01*
X135598Y021391D01*
X135652Y021405D01*
X135707Y021416D01*
X135762Y021423D01*
X135817Y021426D01*
X135873Y021425D01*
X135928Y021420D01*
X135983Y021411D01*
X136037Y021399D01*
X136090Y021382D01*
X136142Y021362D01*
X136192Y021338D01*
X136240Y021311D01*
X136287Y021281D01*
X136331Y021247D01*
X136373Y021210D01*
X136411Y021170D01*
X136448Y021128D01*
X136481Y021083D01*
X136510Y021037D01*
X136537Y020988D01*
X136559Y020937D01*
X136579Y020885D01*
X136594Y020831D01*
X136606Y020777D01*
X136614Y020722D01*
X136618Y020667D01*
X136618Y020611D01*
X136614Y020556D01*
X136606Y020501D01*
X136594Y020447D01*
X136579Y020393D01*
X136559Y020341D01*
X136537Y020290D01*
X136510Y020241D01*
X136481Y020195D01*
X136448Y020150D01*
X136411Y020108D01*
X136373Y020068D01*
X136331Y020031D01*
X136287Y019997D01*
X136240Y019967D01*
X136192Y019940D01*
X136142Y019916D01*
X136090Y019896D01*
X136037Y019879D01*
X135983Y019867D01*
X135928Y019858D01*
X135873Y019853D01*
X135817Y019852D01*
X135762Y019855D01*
X135707Y019862D01*
X135652Y019873D01*
X135598Y019887D01*
X135546Y019905D01*
X135495Y019927D01*
X135446Y019953D01*
X135398Y019982D01*
X135353Y020014D01*
X135310Y020049D01*
X135270Y020087D01*
X135232Y020128D01*
X135198Y020172D01*
X135166Y020218D01*
X135138Y020266D01*
X135114Y020316D01*
X135093Y020367D01*
X135075Y020420D01*
X135062Y020474D01*
X135052Y020528D01*
X135046Y020583D01*
X135044Y020639D01*
X146294Y020639D02*
X146296Y020695D01*
X146302Y020750D01*
X146312Y020804D01*
X146325Y020858D01*
X146343Y020911D01*
X146364Y020962D01*
X146388Y021012D01*
X146416Y021060D01*
X146448Y021106D01*
X146482Y021150D01*
X146520Y021191D01*
X146560Y021229D01*
X146603Y021264D01*
X146648Y021296D01*
X146696Y021325D01*
X146745Y021351D01*
X146796Y021373D01*
X146848Y021391D01*
X146902Y021405D01*
X146957Y021416D01*
X147012Y021423D01*
X147067Y021426D01*
X147123Y021425D01*
X147178Y021420D01*
X147233Y021411D01*
X147287Y021399D01*
X147340Y021382D01*
X147392Y021362D01*
X147442Y021338D01*
X147490Y021311D01*
X147537Y021281D01*
X147581Y021247D01*
X147623Y021210D01*
X147661Y021170D01*
X147698Y021128D01*
X147731Y021083D01*
X147760Y021037D01*
X147787Y020988D01*
X147809Y020937D01*
X147829Y020885D01*
X147844Y020831D01*
X147856Y020777D01*
X147864Y020722D01*
X147868Y020667D01*
X147868Y020611D01*
X147864Y020556D01*
X147856Y020501D01*
X147844Y020447D01*
X147829Y020393D01*
X147809Y020341D01*
X147787Y020290D01*
X147760Y020241D01*
X147731Y020195D01*
X147698Y020150D01*
X147661Y020108D01*
X147623Y020068D01*
X147581Y020031D01*
X147537Y019997D01*
X147490Y019967D01*
X147442Y019940D01*
X147392Y019916D01*
X147340Y019896D01*
X147287Y019879D01*
X147233Y019867D01*
X147178Y019858D01*
X147123Y019853D01*
X147067Y019852D01*
X147012Y019855D01*
X146957Y019862D01*
X146902Y019873D01*
X146848Y019887D01*
X146796Y019905D01*
X146745Y019927D01*
X146696Y019953D01*
X146648Y019982D01*
X146603Y020014D01*
X146560Y020049D01*
X146520Y020087D01*
X146482Y020128D01*
X146448Y020172D01*
X146416Y020218D01*
X146388Y020266D01*
X146364Y020316D01*
X146343Y020367D01*
X146325Y020420D01*
X146312Y020474D01*
X146302Y020528D01*
X146296Y020583D01*
X146294Y020639D01*
X147294Y020639D02*
X147296Y020695D01*
X147302Y020750D01*
X147312Y020804D01*
X147325Y020858D01*
X147343Y020911D01*
X147364Y020962D01*
X147388Y021012D01*
X147416Y021060D01*
X147448Y021106D01*
X147482Y021150D01*
X147520Y021191D01*
X147560Y021229D01*
X147603Y021264D01*
X147648Y021296D01*
X147696Y021325D01*
X147745Y021351D01*
X147796Y021373D01*
X147848Y021391D01*
X147902Y021405D01*
X147957Y021416D01*
X148012Y021423D01*
X148067Y021426D01*
X148123Y021425D01*
X148178Y021420D01*
X148233Y021411D01*
X148287Y021399D01*
X148340Y021382D01*
X148392Y021362D01*
X148442Y021338D01*
X148490Y021311D01*
X148537Y021281D01*
X148581Y021247D01*
X148623Y021210D01*
X148661Y021170D01*
X148698Y021128D01*
X148731Y021083D01*
X148760Y021037D01*
X148787Y020988D01*
X148809Y020937D01*
X148829Y020885D01*
X148844Y020831D01*
X148856Y020777D01*
X148864Y020722D01*
X148868Y020667D01*
X148868Y020611D01*
X148864Y020556D01*
X148856Y020501D01*
X148844Y020447D01*
X148829Y020393D01*
X148809Y020341D01*
X148787Y020290D01*
X148760Y020241D01*
X148731Y020195D01*
X148698Y020150D01*
X148661Y020108D01*
X148623Y020068D01*
X148581Y020031D01*
X148537Y019997D01*
X148490Y019967D01*
X148442Y019940D01*
X148392Y019916D01*
X148340Y019896D01*
X148287Y019879D01*
X148233Y019867D01*
X148178Y019858D01*
X148123Y019853D01*
X148067Y019852D01*
X148012Y019855D01*
X147957Y019862D01*
X147902Y019873D01*
X147848Y019887D01*
X147796Y019905D01*
X147745Y019927D01*
X147696Y019953D01*
X147648Y019982D01*
X147603Y020014D01*
X147560Y020049D01*
X147520Y020087D01*
X147482Y020128D01*
X147448Y020172D01*
X147416Y020218D01*
X147388Y020266D01*
X147364Y020316D01*
X147343Y020367D01*
X147325Y020420D01*
X147312Y020474D01*
X147302Y020528D01*
X147296Y020583D01*
X147294Y020639D01*
X143544Y013139D02*
X143546Y013195D01*
X143552Y013250D01*
X143562Y013304D01*
X143575Y013358D01*
X143593Y013411D01*
X143614Y013462D01*
X143638Y013512D01*
X143666Y013560D01*
X143698Y013606D01*
X143732Y013650D01*
X143770Y013691D01*
X143810Y013729D01*
X143853Y013764D01*
X143898Y013796D01*
X143946Y013825D01*
X143995Y013851D01*
X144046Y013873D01*
X144098Y013891D01*
X144152Y013905D01*
X144207Y013916D01*
X144262Y013923D01*
X144317Y013926D01*
X144373Y013925D01*
X144428Y013920D01*
X144483Y013911D01*
X144537Y013899D01*
X144590Y013882D01*
X144642Y013862D01*
X144692Y013838D01*
X144740Y013811D01*
X144787Y013781D01*
X144831Y013747D01*
X144873Y013710D01*
X144911Y013670D01*
X144948Y013628D01*
X144981Y013583D01*
X145010Y013537D01*
X145037Y013488D01*
X145059Y013437D01*
X145079Y013385D01*
X145094Y013331D01*
X145106Y013277D01*
X145114Y013222D01*
X145118Y013167D01*
X145118Y013111D01*
X145114Y013056D01*
X145106Y013001D01*
X145094Y012947D01*
X145079Y012893D01*
X145059Y012841D01*
X145037Y012790D01*
X145010Y012741D01*
X144981Y012695D01*
X144948Y012650D01*
X144911Y012608D01*
X144873Y012568D01*
X144831Y012531D01*
X144787Y012497D01*
X144740Y012467D01*
X144692Y012440D01*
X144642Y012416D01*
X144590Y012396D01*
X144537Y012379D01*
X144483Y012367D01*
X144428Y012358D01*
X144373Y012353D01*
X144317Y012352D01*
X144262Y012355D01*
X144207Y012362D01*
X144152Y012373D01*
X144098Y012387D01*
X144046Y012405D01*
X143995Y012427D01*
X143946Y012453D01*
X143898Y012482D01*
X143853Y012514D01*
X143810Y012549D01*
X143770Y012587D01*
X143732Y012628D01*
X143698Y012672D01*
X143666Y012718D01*
X143638Y012766D01*
X143614Y012816D01*
X143593Y012867D01*
X143575Y012920D01*
X143562Y012974D01*
X143552Y013028D01*
X143546Y013083D01*
X143544Y013139D01*
X135044Y013139D02*
X135046Y013195D01*
X135052Y013250D01*
X135062Y013304D01*
X135075Y013358D01*
X135093Y013411D01*
X135114Y013462D01*
X135138Y013512D01*
X135166Y013560D01*
X135198Y013606D01*
X135232Y013650D01*
X135270Y013691D01*
X135310Y013729D01*
X135353Y013764D01*
X135398Y013796D01*
X135446Y013825D01*
X135495Y013851D01*
X135546Y013873D01*
X135598Y013891D01*
X135652Y013905D01*
X135707Y013916D01*
X135762Y013923D01*
X135817Y013926D01*
X135873Y013925D01*
X135928Y013920D01*
X135983Y013911D01*
X136037Y013899D01*
X136090Y013882D01*
X136142Y013862D01*
X136192Y013838D01*
X136240Y013811D01*
X136287Y013781D01*
X136331Y013747D01*
X136373Y013710D01*
X136411Y013670D01*
X136448Y013628D01*
X136481Y013583D01*
X136510Y013537D01*
X136537Y013488D01*
X136559Y013437D01*
X136579Y013385D01*
X136594Y013331D01*
X136606Y013277D01*
X136614Y013222D01*
X136618Y013167D01*
X136618Y013111D01*
X136614Y013056D01*
X136606Y013001D01*
X136594Y012947D01*
X136579Y012893D01*
X136559Y012841D01*
X136537Y012790D01*
X136510Y012741D01*
X136481Y012695D01*
X136448Y012650D01*
X136411Y012608D01*
X136373Y012568D01*
X136331Y012531D01*
X136287Y012497D01*
X136240Y012467D01*
X136192Y012440D01*
X136142Y012416D01*
X136090Y012396D01*
X136037Y012379D01*
X135983Y012367D01*
X135928Y012358D01*
X135873Y012353D01*
X135817Y012352D01*
X135762Y012355D01*
X135707Y012362D01*
X135652Y012373D01*
X135598Y012387D01*
X135546Y012405D01*
X135495Y012427D01*
X135446Y012453D01*
X135398Y012482D01*
X135353Y012514D01*
X135310Y012549D01*
X135270Y012587D01*
X135232Y012628D01*
X135198Y012672D01*
X135166Y012718D01*
X135138Y012766D01*
X135114Y012816D01*
X135093Y012867D01*
X135075Y012920D01*
X135062Y012974D01*
X135052Y013028D01*
X135046Y013083D01*
X135044Y013139D01*
X127544Y013139D02*
X127546Y013195D01*
X127552Y013250D01*
X127562Y013304D01*
X127575Y013358D01*
X127593Y013411D01*
X127614Y013462D01*
X127638Y013512D01*
X127666Y013560D01*
X127698Y013606D01*
X127732Y013650D01*
X127770Y013691D01*
X127810Y013729D01*
X127853Y013764D01*
X127898Y013796D01*
X127946Y013825D01*
X127995Y013851D01*
X128046Y013873D01*
X128098Y013891D01*
X128152Y013905D01*
X128207Y013916D01*
X128262Y013923D01*
X128317Y013926D01*
X128373Y013925D01*
X128428Y013920D01*
X128483Y013911D01*
X128537Y013899D01*
X128590Y013882D01*
X128642Y013862D01*
X128692Y013838D01*
X128740Y013811D01*
X128787Y013781D01*
X128831Y013747D01*
X128873Y013710D01*
X128911Y013670D01*
X128948Y013628D01*
X128981Y013583D01*
X129010Y013537D01*
X129037Y013488D01*
X129059Y013437D01*
X129079Y013385D01*
X129094Y013331D01*
X129106Y013277D01*
X129114Y013222D01*
X129118Y013167D01*
X129118Y013111D01*
X129114Y013056D01*
X129106Y013001D01*
X129094Y012947D01*
X129079Y012893D01*
X129059Y012841D01*
X129037Y012790D01*
X129010Y012741D01*
X128981Y012695D01*
X128948Y012650D01*
X128911Y012608D01*
X128873Y012568D01*
X128831Y012531D01*
X128787Y012497D01*
X128740Y012467D01*
X128692Y012440D01*
X128642Y012416D01*
X128590Y012396D01*
X128537Y012379D01*
X128483Y012367D01*
X128428Y012358D01*
X128373Y012353D01*
X128317Y012352D01*
X128262Y012355D01*
X128207Y012362D01*
X128152Y012373D01*
X128098Y012387D01*
X128046Y012405D01*
X127995Y012427D01*
X127946Y012453D01*
X127898Y012482D01*
X127853Y012514D01*
X127810Y012549D01*
X127770Y012587D01*
X127732Y012628D01*
X127698Y012672D01*
X127666Y012718D01*
X127638Y012766D01*
X127614Y012816D01*
X127593Y012867D01*
X127575Y012920D01*
X127562Y012974D01*
X127552Y013028D01*
X127546Y013083D01*
X127544Y013139D01*
X120044Y013139D02*
X120046Y013195D01*
X120052Y013250D01*
X120062Y013304D01*
X120075Y013358D01*
X120093Y013411D01*
X120114Y013462D01*
X120138Y013512D01*
X120166Y013560D01*
X120198Y013606D01*
X120232Y013650D01*
X120270Y013691D01*
X120310Y013729D01*
X120353Y013764D01*
X120398Y013796D01*
X120446Y013825D01*
X120495Y013851D01*
X120546Y013873D01*
X120598Y013891D01*
X120652Y013905D01*
X120707Y013916D01*
X120762Y013923D01*
X120817Y013926D01*
X120873Y013925D01*
X120928Y013920D01*
X120983Y013911D01*
X121037Y013899D01*
X121090Y013882D01*
X121142Y013862D01*
X121192Y013838D01*
X121240Y013811D01*
X121287Y013781D01*
X121331Y013747D01*
X121373Y013710D01*
X121411Y013670D01*
X121448Y013628D01*
X121481Y013583D01*
X121510Y013537D01*
X121537Y013488D01*
X121559Y013437D01*
X121579Y013385D01*
X121594Y013331D01*
X121606Y013277D01*
X121614Y013222D01*
X121618Y013167D01*
X121618Y013111D01*
X121614Y013056D01*
X121606Y013001D01*
X121594Y012947D01*
X121579Y012893D01*
X121559Y012841D01*
X121537Y012790D01*
X121510Y012741D01*
X121481Y012695D01*
X121448Y012650D01*
X121411Y012608D01*
X121373Y012568D01*
X121331Y012531D01*
X121287Y012497D01*
X121240Y012467D01*
X121192Y012440D01*
X121142Y012416D01*
X121090Y012396D01*
X121037Y012379D01*
X120983Y012367D01*
X120928Y012358D01*
X120873Y012353D01*
X120817Y012352D01*
X120762Y012355D01*
X120707Y012362D01*
X120652Y012373D01*
X120598Y012387D01*
X120546Y012405D01*
X120495Y012427D01*
X120446Y012453D01*
X120398Y012482D01*
X120353Y012514D01*
X120310Y012549D01*
X120270Y012587D01*
X120232Y012628D01*
X120198Y012672D01*
X120166Y012718D01*
X120138Y012766D01*
X120114Y012816D01*
X120093Y012867D01*
X120075Y012920D01*
X120062Y012974D01*
X120052Y013028D01*
X120046Y013083D01*
X120044Y013139D01*
X112544Y013139D02*
X112546Y013195D01*
X112552Y013250D01*
X112562Y013304D01*
X112575Y013358D01*
X112593Y013411D01*
X112614Y013462D01*
X112638Y013512D01*
X112666Y013560D01*
X112698Y013606D01*
X112732Y013650D01*
X112770Y013691D01*
X112810Y013729D01*
X112853Y013764D01*
X112898Y013796D01*
X112946Y013825D01*
X112995Y013851D01*
X113046Y013873D01*
X113098Y013891D01*
X113152Y013905D01*
X113207Y013916D01*
X113262Y013923D01*
X113317Y013926D01*
X113373Y013925D01*
X113428Y013920D01*
X113483Y013911D01*
X113537Y013899D01*
X113590Y013882D01*
X113642Y013862D01*
X113692Y013838D01*
X113740Y013811D01*
X113787Y013781D01*
X113831Y013747D01*
X113873Y013710D01*
X113911Y013670D01*
X113948Y013628D01*
X113981Y013583D01*
X114010Y013537D01*
X114037Y013488D01*
X114059Y013437D01*
X114079Y013385D01*
X114094Y013331D01*
X114106Y013277D01*
X114114Y013222D01*
X114118Y013167D01*
X114118Y013111D01*
X114114Y013056D01*
X114106Y013001D01*
X114094Y012947D01*
X114079Y012893D01*
X114059Y012841D01*
X114037Y012790D01*
X114010Y012741D01*
X113981Y012695D01*
X113948Y012650D01*
X113911Y012608D01*
X113873Y012568D01*
X113831Y012531D01*
X113787Y012497D01*
X113740Y012467D01*
X113692Y012440D01*
X113642Y012416D01*
X113590Y012396D01*
X113537Y012379D01*
X113483Y012367D01*
X113428Y012358D01*
X113373Y012353D01*
X113317Y012352D01*
X113262Y012355D01*
X113207Y012362D01*
X113152Y012373D01*
X113098Y012387D01*
X113046Y012405D01*
X112995Y012427D01*
X112946Y012453D01*
X112898Y012482D01*
X112853Y012514D01*
X112810Y012549D01*
X112770Y012587D01*
X112732Y012628D01*
X112698Y012672D01*
X112666Y012718D01*
X112638Y012766D01*
X112614Y012816D01*
X112593Y012867D01*
X112575Y012920D01*
X112562Y012974D01*
X112552Y013028D01*
X112546Y013083D01*
X112544Y013139D01*
X105044Y013139D02*
X105046Y013195D01*
X105052Y013250D01*
X105062Y013304D01*
X105075Y013358D01*
X105093Y013411D01*
X105114Y013462D01*
X105138Y013512D01*
X105166Y013560D01*
X105198Y013606D01*
X105232Y013650D01*
X105270Y013691D01*
X105310Y013729D01*
X105353Y013764D01*
X105398Y013796D01*
X105446Y013825D01*
X105495Y013851D01*
X105546Y013873D01*
X105598Y013891D01*
X105652Y013905D01*
X105707Y013916D01*
X105762Y013923D01*
X105817Y013926D01*
X105873Y013925D01*
X105928Y013920D01*
X105983Y013911D01*
X106037Y013899D01*
X106090Y013882D01*
X106142Y013862D01*
X106192Y013838D01*
X106240Y013811D01*
X106287Y013781D01*
X106331Y013747D01*
X106373Y013710D01*
X106411Y013670D01*
X106448Y013628D01*
X106481Y013583D01*
X106510Y013537D01*
X106537Y013488D01*
X106559Y013437D01*
X106579Y013385D01*
X106594Y013331D01*
X106606Y013277D01*
X106614Y013222D01*
X106618Y013167D01*
X106618Y013111D01*
X106614Y013056D01*
X106606Y013001D01*
X106594Y012947D01*
X106579Y012893D01*
X106559Y012841D01*
X106537Y012790D01*
X106510Y012741D01*
X106481Y012695D01*
X106448Y012650D01*
X106411Y012608D01*
X106373Y012568D01*
X106331Y012531D01*
X106287Y012497D01*
X106240Y012467D01*
X106192Y012440D01*
X106142Y012416D01*
X106090Y012396D01*
X106037Y012379D01*
X105983Y012367D01*
X105928Y012358D01*
X105873Y012353D01*
X105817Y012352D01*
X105762Y012355D01*
X105707Y012362D01*
X105652Y012373D01*
X105598Y012387D01*
X105546Y012405D01*
X105495Y012427D01*
X105446Y012453D01*
X105398Y012482D01*
X105353Y012514D01*
X105310Y012549D01*
X105270Y012587D01*
X105232Y012628D01*
X105198Y012672D01*
X105166Y012718D01*
X105138Y012766D01*
X105114Y012816D01*
X105093Y012867D01*
X105075Y012920D01*
X105062Y012974D01*
X105052Y013028D01*
X105046Y013083D01*
X105044Y013139D01*
X097544Y013139D02*
X097546Y013195D01*
X097552Y013250D01*
X097562Y013304D01*
X097575Y013358D01*
X097593Y013411D01*
X097614Y013462D01*
X097638Y013512D01*
X097666Y013560D01*
X097698Y013606D01*
X097732Y013650D01*
X097770Y013691D01*
X097810Y013729D01*
X097853Y013764D01*
X097898Y013796D01*
X097946Y013825D01*
X097995Y013851D01*
X098046Y013873D01*
X098098Y013891D01*
X098152Y013905D01*
X098207Y013916D01*
X098262Y013923D01*
X098317Y013926D01*
X098373Y013925D01*
X098428Y013920D01*
X098483Y013911D01*
X098537Y013899D01*
X098590Y013882D01*
X098642Y013862D01*
X098692Y013838D01*
X098740Y013811D01*
X098787Y013781D01*
X098831Y013747D01*
X098873Y013710D01*
X098911Y013670D01*
X098948Y013628D01*
X098981Y013583D01*
X099010Y013537D01*
X099037Y013488D01*
X099059Y013437D01*
X099079Y013385D01*
X099094Y013331D01*
X099106Y013277D01*
X099114Y013222D01*
X099118Y013167D01*
X099118Y013111D01*
X099114Y013056D01*
X099106Y013001D01*
X099094Y012947D01*
X099079Y012893D01*
X099059Y012841D01*
X099037Y012790D01*
X099010Y012741D01*
X098981Y012695D01*
X098948Y012650D01*
X098911Y012608D01*
X098873Y012568D01*
X098831Y012531D01*
X098787Y012497D01*
X098740Y012467D01*
X098692Y012440D01*
X098642Y012416D01*
X098590Y012396D01*
X098537Y012379D01*
X098483Y012367D01*
X098428Y012358D01*
X098373Y012353D01*
X098317Y012352D01*
X098262Y012355D01*
X098207Y012362D01*
X098152Y012373D01*
X098098Y012387D01*
X098046Y012405D01*
X097995Y012427D01*
X097946Y012453D01*
X097898Y012482D01*
X097853Y012514D01*
X097810Y012549D01*
X097770Y012587D01*
X097732Y012628D01*
X097698Y012672D01*
X097666Y012718D01*
X097638Y012766D01*
X097614Y012816D01*
X097593Y012867D01*
X097575Y012920D01*
X097562Y012974D01*
X097552Y013028D01*
X097546Y013083D01*
X097544Y013139D01*
X084044Y013139D02*
X084046Y013195D01*
X084052Y013250D01*
X084062Y013304D01*
X084075Y013358D01*
X084093Y013411D01*
X084114Y013462D01*
X084138Y013512D01*
X084166Y013560D01*
X084198Y013606D01*
X084232Y013650D01*
X084270Y013691D01*
X084310Y013729D01*
X084353Y013764D01*
X084398Y013796D01*
X084446Y013825D01*
X084495Y013851D01*
X084546Y013873D01*
X084598Y013891D01*
X084652Y013905D01*
X084707Y013916D01*
X084762Y013923D01*
X084817Y013926D01*
X084873Y013925D01*
X084928Y013920D01*
X084983Y013911D01*
X085037Y013899D01*
X085090Y013882D01*
X085142Y013862D01*
X085192Y013838D01*
X085240Y013811D01*
X085287Y013781D01*
X085331Y013747D01*
X085373Y013710D01*
X085411Y013670D01*
X085448Y013628D01*
X085481Y013583D01*
X085510Y013537D01*
X085537Y013488D01*
X085559Y013437D01*
X085579Y013385D01*
X085594Y013331D01*
X085606Y013277D01*
X085614Y013222D01*
X085618Y013167D01*
X085618Y013111D01*
X085614Y013056D01*
X085606Y013001D01*
X085594Y012947D01*
X085579Y012893D01*
X085559Y012841D01*
X085537Y012790D01*
X085510Y012741D01*
X085481Y012695D01*
X085448Y012650D01*
X085411Y012608D01*
X085373Y012568D01*
X085331Y012531D01*
X085287Y012497D01*
X085240Y012467D01*
X085192Y012440D01*
X085142Y012416D01*
X085090Y012396D01*
X085037Y012379D01*
X084983Y012367D01*
X084928Y012358D01*
X084873Y012353D01*
X084817Y012352D01*
X084762Y012355D01*
X084707Y012362D01*
X084652Y012373D01*
X084598Y012387D01*
X084546Y012405D01*
X084495Y012427D01*
X084446Y012453D01*
X084398Y012482D01*
X084353Y012514D01*
X084310Y012549D01*
X084270Y012587D01*
X084232Y012628D01*
X084198Y012672D01*
X084166Y012718D01*
X084138Y012766D01*
X084114Y012816D01*
X084093Y012867D01*
X084075Y012920D01*
X084062Y012974D01*
X084052Y013028D01*
X084046Y013083D01*
X084044Y013139D01*
X076544Y013139D02*
X076546Y013195D01*
X076552Y013250D01*
X076562Y013304D01*
X076575Y013358D01*
X076593Y013411D01*
X076614Y013462D01*
X076638Y013512D01*
X076666Y013560D01*
X076698Y013606D01*
X076732Y013650D01*
X076770Y013691D01*
X076810Y013729D01*
X076853Y013764D01*
X076898Y013796D01*
X076946Y013825D01*
X076995Y013851D01*
X077046Y013873D01*
X077098Y013891D01*
X077152Y013905D01*
X077207Y013916D01*
X077262Y013923D01*
X077317Y013926D01*
X077373Y013925D01*
X077428Y013920D01*
X077483Y013911D01*
X077537Y013899D01*
X077590Y013882D01*
X077642Y013862D01*
X077692Y013838D01*
X077740Y013811D01*
X077787Y013781D01*
X077831Y013747D01*
X077873Y013710D01*
X077911Y013670D01*
X077948Y013628D01*
X077981Y013583D01*
X078010Y013537D01*
X078037Y013488D01*
X078059Y013437D01*
X078079Y013385D01*
X078094Y013331D01*
X078106Y013277D01*
X078114Y013222D01*
X078118Y013167D01*
X078118Y013111D01*
X078114Y013056D01*
X078106Y013001D01*
X078094Y012947D01*
X078079Y012893D01*
X078059Y012841D01*
X078037Y012790D01*
X078010Y012741D01*
X077981Y012695D01*
X077948Y012650D01*
X077911Y012608D01*
X077873Y012568D01*
X077831Y012531D01*
X077787Y012497D01*
X077740Y012467D01*
X077692Y012440D01*
X077642Y012416D01*
X077590Y012396D01*
X077537Y012379D01*
X077483Y012367D01*
X077428Y012358D01*
X077373Y012353D01*
X077317Y012352D01*
X077262Y012355D01*
X077207Y012362D01*
X077152Y012373D01*
X077098Y012387D01*
X077046Y012405D01*
X076995Y012427D01*
X076946Y012453D01*
X076898Y012482D01*
X076853Y012514D01*
X076810Y012549D01*
X076770Y012587D01*
X076732Y012628D01*
X076698Y012672D01*
X076666Y012718D01*
X076638Y012766D01*
X076614Y012816D01*
X076593Y012867D01*
X076575Y012920D01*
X076562Y012974D01*
X076552Y013028D01*
X076546Y013083D01*
X076544Y013139D01*
X069044Y013139D02*
X069046Y013195D01*
X069052Y013250D01*
X069062Y013304D01*
X069075Y013358D01*
X069093Y013411D01*
X069114Y013462D01*
X069138Y013512D01*
X069166Y013560D01*
X069198Y013606D01*
X069232Y013650D01*
X069270Y013691D01*
X069310Y013729D01*
X069353Y013764D01*
X069398Y013796D01*
X069446Y013825D01*
X069495Y013851D01*
X069546Y013873D01*
X069598Y013891D01*
X069652Y013905D01*
X069707Y013916D01*
X069762Y013923D01*
X069817Y013926D01*
X069873Y013925D01*
X069928Y013920D01*
X069983Y013911D01*
X070037Y013899D01*
X070090Y013882D01*
X070142Y013862D01*
X070192Y013838D01*
X070240Y013811D01*
X070287Y013781D01*
X070331Y013747D01*
X070373Y013710D01*
X070411Y013670D01*
X070448Y013628D01*
X070481Y013583D01*
X070510Y013537D01*
X070537Y013488D01*
X070559Y013437D01*
X070579Y013385D01*
X070594Y013331D01*
X070606Y013277D01*
X070614Y013222D01*
X070618Y013167D01*
X070618Y013111D01*
X070614Y013056D01*
X070606Y013001D01*
X070594Y012947D01*
X070579Y012893D01*
X070559Y012841D01*
X070537Y012790D01*
X070510Y012741D01*
X070481Y012695D01*
X070448Y012650D01*
X070411Y012608D01*
X070373Y012568D01*
X070331Y012531D01*
X070287Y012497D01*
X070240Y012467D01*
X070192Y012440D01*
X070142Y012416D01*
X070090Y012396D01*
X070037Y012379D01*
X069983Y012367D01*
X069928Y012358D01*
X069873Y012353D01*
X069817Y012352D01*
X069762Y012355D01*
X069707Y012362D01*
X069652Y012373D01*
X069598Y012387D01*
X069546Y012405D01*
X069495Y012427D01*
X069446Y012453D01*
X069398Y012482D01*
X069353Y012514D01*
X069310Y012549D01*
X069270Y012587D01*
X069232Y012628D01*
X069198Y012672D01*
X069166Y012718D01*
X069138Y012766D01*
X069114Y012816D01*
X069093Y012867D01*
X069075Y012920D01*
X069062Y012974D01*
X069052Y013028D01*
X069046Y013083D01*
X069044Y013139D01*
X061544Y013139D02*
X061546Y013195D01*
X061552Y013250D01*
X061562Y013304D01*
X061575Y013358D01*
X061593Y013411D01*
X061614Y013462D01*
X061638Y013512D01*
X061666Y013560D01*
X061698Y013606D01*
X061732Y013650D01*
X061770Y013691D01*
X061810Y013729D01*
X061853Y013764D01*
X061898Y013796D01*
X061946Y013825D01*
X061995Y013851D01*
X062046Y013873D01*
X062098Y013891D01*
X062152Y013905D01*
X062207Y013916D01*
X062262Y013923D01*
X062317Y013926D01*
X062373Y013925D01*
X062428Y013920D01*
X062483Y013911D01*
X062537Y013899D01*
X062590Y013882D01*
X062642Y013862D01*
X062692Y013838D01*
X062740Y013811D01*
X062787Y013781D01*
X062831Y013747D01*
X062873Y013710D01*
X062911Y013670D01*
X062948Y013628D01*
X062981Y013583D01*
X063010Y013537D01*
X063037Y013488D01*
X063059Y013437D01*
X063079Y013385D01*
X063094Y013331D01*
X063106Y013277D01*
X063114Y013222D01*
X063118Y013167D01*
X063118Y013111D01*
X063114Y013056D01*
X063106Y013001D01*
X063094Y012947D01*
X063079Y012893D01*
X063059Y012841D01*
X063037Y012790D01*
X063010Y012741D01*
X062981Y012695D01*
X062948Y012650D01*
X062911Y012608D01*
X062873Y012568D01*
X062831Y012531D01*
X062787Y012497D01*
X062740Y012467D01*
X062692Y012440D01*
X062642Y012416D01*
X062590Y012396D01*
X062537Y012379D01*
X062483Y012367D01*
X062428Y012358D01*
X062373Y012353D01*
X062317Y012352D01*
X062262Y012355D01*
X062207Y012362D01*
X062152Y012373D01*
X062098Y012387D01*
X062046Y012405D01*
X061995Y012427D01*
X061946Y012453D01*
X061898Y012482D01*
X061853Y012514D01*
X061810Y012549D01*
X061770Y012587D01*
X061732Y012628D01*
X061698Y012672D01*
X061666Y012718D01*
X061638Y012766D01*
X061614Y012816D01*
X061593Y012867D01*
X061575Y012920D01*
X061562Y012974D01*
X061552Y013028D01*
X061546Y013083D01*
X061544Y013139D01*
X054044Y013139D02*
X054046Y013195D01*
X054052Y013250D01*
X054062Y013304D01*
X054075Y013358D01*
X054093Y013411D01*
X054114Y013462D01*
X054138Y013512D01*
X054166Y013560D01*
X054198Y013606D01*
X054232Y013650D01*
X054270Y013691D01*
X054310Y013729D01*
X054353Y013764D01*
X054398Y013796D01*
X054446Y013825D01*
X054495Y013851D01*
X054546Y013873D01*
X054598Y013891D01*
X054652Y013905D01*
X054707Y013916D01*
X054762Y013923D01*
X054817Y013926D01*
X054873Y013925D01*
X054928Y013920D01*
X054983Y013911D01*
X055037Y013899D01*
X055090Y013882D01*
X055142Y013862D01*
X055192Y013838D01*
X055240Y013811D01*
X055287Y013781D01*
X055331Y013747D01*
X055373Y013710D01*
X055411Y013670D01*
X055448Y013628D01*
X055481Y013583D01*
X055510Y013537D01*
X055537Y013488D01*
X055559Y013437D01*
X055579Y013385D01*
X055594Y013331D01*
X055606Y013277D01*
X055614Y013222D01*
X055618Y013167D01*
X055618Y013111D01*
X055614Y013056D01*
X055606Y013001D01*
X055594Y012947D01*
X055579Y012893D01*
X055559Y012841D01*
X055537Y012790D01*
X055510Y012741D01*
X055481Y012695D01*
X055448Y012650D01*
X055411Y012608D01*
X055373Y012568D01*
X055331Y012531D01*
X055287Y012497D01*
X055240Y012467D01*
X055192Y012440D01*
X055142Y012416D01*
X055090Y012396D01*
X055037Y012379D01*
X054983Y012367D01*
X054928Y012358D01*
X054873Y012353D01*
X054817Y012352D01*
X054762Y012355D01*
X054707Y012362D01*
X054652Y012373D01*
X054598Y012387D01*
X054546Y012405D01*
X054495Y012427D01*
X054446Y012453D01*
X054398Y012482D01*
X054353Y012514D01*
X054310Y012549D01*
X054270Y012587D01*
X054232Y012628D01*
X054198Y012672D01*
X054166Y012718D01*
X054138Y012766D01*
X054114Y012816D01*
X054093Y012867D01*
X054075Y012920D01*
X054062Y012974D01*
X054052Y013028D01*
X054046Y013083D01*
X054044Y013139D01*
X041794Y013139D02*
X041796Y013195D01*
X041802Y013250D01*
X041812Y013304D01*
X041825Y013358D01*
X041843Y013411D01*
X041864Y013462D01*
X041888Y013512D01*
X041916Y013560D01*
X041948Y013606D01*
X041982Y013650D01*
X042020Y013691D01*
X042060Y013729D01*
X042103Y013764D01*
X042148Y013796D01*
X042196Y013825D01*
X042245Y013851D01*
X042296Y013873D01*
X042348Y013891D01*
X042402Y013905D01*
X042457Y013916D01*
X042512Y013923D01*
X042567Y013926D01*
X042623Y013925D01*
X042678Y013920D01*
X042733Y013911D01*
X042787Y013899D01*
X042840Y013882D01*
X042892Y013862D01*
X042942Y013838D01*
X042990Y013811D01*
X043037Y013781D01*
X043081Y013747D01*
X043123Y013710D01*
X043161Y013670D01*
X043198Y013628D01*
X043231Y013583D01*
X043260Y013537D01*
X043287Y013488D01*
X043309Y013437D01*
X043329Y013385D01*
X043344Y013331D01*
X043356Y013277D01*
X043364Y013222D01*
X043368Y013167D01*
X043368Y013111D01*
X043364Y013056D01*
X043356Y013001D01*
X043344Y012947D01*
X043329Y012893D01*
X043309Y012841D01*
X043287Y012790D01*
X043260Y012741D01*
X043231Y012695D01*
X043198Y012650D01*
X043161Y012608D01*
X043123Y012568D01*
X043081Y012531D01*
X043037Y012497D01*
X042990Y012467D01*
X042942Y012440D01*
X042892Y012416D01*
X042840Y012396D01*
X042787Y012379D01*
X042733Y012367D01*
X042678Y012358D01*
X042623Y012353D01*
X042567Y012352D01*
X042512Y012355D01*
X042457Y012362D01*
X042402Y012373D01*
X042348Y012387D01*
X042296Y012405D01*
X042245Y012427D01*
X042196Y012453D01*
X042148Y012482D01*
X042103Y012514D01*
X042060Y012549D01*
X042020Y012587D01*
X041982Y012628D01*
X041948Y012672D01*
X041916Y012718D01*
X041888Y012766D01*
X041864Y012816D01*
X041843Y012867D01*
X041825Y012920D01*
X041812Y012974D01*
X041802Y013028D01*
X041796Y013083D01*
X041794Y013139D01*
X029044Y013139D02*
X029046Y013195D01*
X029052Y013250D01*
X029062Y013304D01*
X029075Y013358D01*
X029093Y013411D01*
X029114Y013462D01*
X029138Y013512D01*
X029166Y013560D01*
X029198Y013606D01*
X029232Y013650D01*
X029270Y013691D01*
X029310Y013729D01*
X029353Y013764D01*
X029398Y013796D01*
X029446Y013825D01*
X029495Y013851D01*
X029546Y013873D01*
X029598Y013891D01*
X029652Y013905D01*
X029707Y013916D01*
X029762Y013923D01*
X029817Y013926D01*
X029873Y013925D01*
X029928Y013920D01*
X029983Y013911D01*
X030037Y013899D01*
X030090Y013882D01*
X030142Y013862D01*
X030192Y013838D01*
X030240Y013811D01*
X030287Y013781D01*
X030331Y013747D01*
X030373Y013710D01*
X030411Y013670D01*
X030448Y013628D01*
X030481Y013583D01*
X030510Y013537D01*
X030537Y013488D01*
X030559Y013437D01*
X030579Y013385D01*
X030594Y013331D01*
X030606Y013277D01*
X030614Y013222D01*
X030618Y013167D01*
X030618Y013111D01*
X030614Y013056D01*
X030606Y013001D01*
X030594Y012947D01*
X030579Y012893D01*
X030559Y012841D01*
X030537Y012790D01*
X030510Y012741D01*
X030481Y012695D01*
X030448Y012650D01*
X030411Y012608D01*
X030373Y012568D01*
X030331Y012531D01*
X030287Y012497D01*
X030240Y012467D01*
X030192Y012440D01*
X030142Y012416D01*
X030090Y012396D01*
X030037Y012379D01*
X029983Y012367D01*
X029928Y012358D01*
X029873Y012353D01*
X029817Y012352D01*
X029762Y012355D01*
X029707Y012362D01*
X029652Y012373D01*
X029598Y012387D01*
X029546Y012405D01*
X029495Y012427D01*
X029446Y012453D01*
X029398Y012482D01*
X029353Y012514D01*
X029310Y012549D01*
X029270Y012587D01*
X029232Y012628D01*
X029198Y012672D01*
X029166Y012718D01*
X029138Y012766D01*
X029114Y012816D01*
X029093Y012867D01*
X029075Y012920D01*
X029062Y012974D01*
X029052Y013028D01*
X029046Y013083D01*
X029044Y013139D01*
X029044Y005639D02*
X029046Y005695D01*
X029052Y005750D01*
X029062Y005804D01*
X029075Y005858D01*
X029093Y005911D01*
X029114Y005962D01*
X029138Y006012D01*
X029166Y006060D01*
X029198Y006106D01*
X029232Y006150D01*
X029270Y006191D01*
X029310Y006229D01*
X029353Y006264D01*
X029398Y006296D01*
X029446Y006325D01*
X029495Y006351D01*
X029546Y006373D01*
X029598Y006391D01*
X029652Y006405D01*
X029707Y006416D01*
X029762Y006423D01*
X029817Y006426D01*
X029873Y006425D01*
X029928Y006420D01*
X029983Y006411D01*
X030037Y006399D01*
X030090Y006382D01*
X030142Y006362D01*
X030192Y006338D01*
X030240Y006311D01*
X030287Y006281D01*
X030331Y006247D01*
X030373Y006210D01*
X030411Y006170D01*
X030448Y006128D01*
X030481Y006083D01*
X030510Y006037D01*
X030537Y005988D01*
X030559Y005937D01*
X030579Y005885D01*
X030594Y005831D01*
X030606Y005777D01*
X030614Y005722D01*
X030618Y005667D01*
X030618Y005611D01*
X030614Y005556D01*
X030606Y005501D01*
X030594Y005447D01*
X030579Y005393D01*
X030559Y005341D01*
X030537Y005290D01*
X030510Y005241D01*
X030481Y005195D01*
X030448Y005150D01*
X030411Y005108D01*
X030373Y005068D01*
X030331Y005031D01*
X030287Y004997D01*
X030240Y004967D01*
X030192Y004940D01*
X030142Y004916D01*
X030090Y004896D01*
X030037Y004879D01*
X029983Y004867D01*
X029928Y004858D01*
X029873Y004853D01*
X029817Y004852D01*
X029762Y004855D01*
X029707Y004862D01*
X029652Y004873D01*
X029598Y004887D01*
X029546Y004905D01*
X029495Y004927D01*
X029446Y004953D01*
X029398Y004982D01*
X029353Y005014D01*
X029310Y005049D01*
X029270Y005087D01*
X029232Y005128D01*
X029198Y005172D01*
X029166Y005218D01*
X029138Y005266D01*
X029114Y005316D01*
X029093Y005367D01*
X029075Y005420D01*
X029062Y005474D01*
X029052Y005528D01*
X029046Y005583D01*
X029044Y005639D01*
X021544Y005639D02*
X021546Y005695D01*
X021552Y005750D01*
X021562Y005804D01*
X021575Y005858D01*
X021593Y005911D01*
X021614Y005962D01*
X021638Y006012D01*
X021666Y006060D01*
X021698Y006106D01*
X021732Y006150D01*
X021770Y006191D01*
X021810Y006229D01*
X021853Y006264D01*
X021898Y006296D01*
X021946Y006325D01*
X021995Y006351D01*
X022046Y006373D01*
X022098Y006391D01*
X022152Y006405D01*
X022207Y006416D01*
X022262Y006423D01*
X022317Y006426D01*
X022373Y006425D01*
X022428Y006420D01*
X022483Y006411D01*
X022537Y006399D01*
X022590Y006382D01*
X022642Y006362D01*
X022692Y006338D01*
X022740Y006311D01*
X022787Y006281D01*
X022831Y006247D01*
X022873Y006210D01*
X022911Y006170D01*
X022948Y006128D01*
X022981Y006083D01*
X023010Y006037D01*
X023037Y005988D01*
X023059Y005937D01*
X023079Y005885D01*
X023094Y005831D01*
X023106Y005777D01*
X023114Y005722D01*
X023118Y005667D01*
X023118Y005611D01*
X023114Y005556D01*
X023106Y005501D01*
X023094Y005447D01*
X023079Y005393D01*
X023059Y005341D01*
X023037Y005290D01*
X023010Y005241D01*
X022981Y005195D01*
X022948Y005150D01*
X022911Y005108D01*
X022873Y005068D01*
X022831Y005031D01*
X022787Y004997D01*
X022740Y004967D01*
X022692Y004940D01*
X022642Y004916D01*
X022590Y004896D01*
X022537Y004879D01*
X022483Y004867D01*
X022428Y004858D01*
X022373Y004853D01*
X022317Y004852D01*
X022262Y004855D01*
X022207Y004862D01*
X022152Y004873D01*
X022098Y004887D01*
X022046Y004905D01*
X021995Y004927D01*
X021946Y004953D01*
X021898Y004982D01*
X021853Y005014D01*
X021810Y005049D01*
X021770Y005087D01*
X021732Y005128D01*
X021698Y005172D01*
X021666Y005218D01*
X021638Y005266D01*
X021614Y005316D01*
X021593Y005367D01*
X021575Y005420D01*
X021562Y005474D01*
X021552Y005528D01*
X021546Y005583D01*
X021544Y005639D01*
X036544Y005639D02*
X036546Y005695D01*
X036552Y005750D01*
X036562Y005804D01*
X036575Y005858D01*
X036593Y005911D01*
X036614Y005962D01*
X036638Y006012D01*
X036666Y006060D01*
X036698Y006106D01*
X036732Y006150D01*
X036770Y006191D01*
X036810Y006229D01*
X036853Y006264D01*
X036898Y006296D01*
X036946Y006325D01*
X036995Y006351D01*
X037046Y006373D01*
X037098Y006391D01*
X037152Y006405D01*
X037207Y006416D01*
X037262Y006423D01*
X037317Y006426D01*
X037373Y006425D01*
X037428Y006420D01*
X037483Y006411D01*
X037537Y006399D01*
X037590Y006382D01*
X037642Y006362D01*
X037692Y006338D01*
X037740Y006311D01*
X037787Y006281D01*
X037831Y006247D01*
X037873Y006210D01*
X037911Y006170D01*
X037948Y006128D01*
X037981Y006083D01*
X038010Y006037D01*
X038037Y005988D01*
X038059Y005937D01*
X038079Y005885D01*
X038094Y005831D01*
X038106Y005777D01*
X038114Y005722D01*
X038118Y005667D01*
X038118Y005611D01*
X038114Y005556D01*
X038106Y005501D01*
X038094Y005447D01*
X038079Y005393D01*
X038059Y005341D01*
X038037Y005290D01*
X038010Y005241D01*
X037981Y005195D01*
X037948Y005150D01*
X037911Y005108D01*
X037873Y005068D01*
X037831Y005031D01*
X037787Y004997D01*
X037740Y004967D01*
X037692Y004940D01*
X037642Y004916D01*
X037590Y004896D01*
X037537Y004879D01*
X037483Y004867D01*
X037428Y004858D01*
X037373Y004853D01*
X037317Y004852D01*
X037262Y004855D01*
X037207Y004862D01*
X037152Y004873D01*
X037098Y004887D01*
X037046Y004905D01*
X036995Y004927D01*
X036946Y004953D01*
X036898Y004982D01*
X036853Y005014D01*
X036810Y005049D01*
X036770Y005087D01*
X036732Y005128D01*
X036698Y005172D01*
X036666Y005218D01*
X036638Y005266D01*
X036614Y005316D01*
X036593Y005367D01*
X036575Y005420D01*
X036562Y005474D01*
X036552Y005528D01*
X036546Y005583D01*
X036544Y005639D01*
X044044Y005639D02*
X044046Y005695D01*
X044052Y005750D01*
X044062Y005804D01*
X044075Y005858D01*
X044093Y005911D01*
X044114Y005962D01*
X044138Y006012D01*
X044166Y006060D01*
X044198Y006106D01*
X044232Y006150D01*
X044270Y006191D01*
X044310Y006229D01*
X044353Y006264D01*
X044398Y006296D01*
X044446Y006325D01*
X044495Y006351D01*
X044546Y006373D01*
X044598Y006391D01*
X044652Y006405D01*
X044707Y006416D01*
X044762Y006423D01*
X044817Y006426D01*
X044873Y006425D01*
X044928Y006420D01*
X044983Y006411D01*
X045037Y006399D01*
X045090Y006382D01*
X045142Y006362D01*
X045192Y006338D01*
X045240Y006311D01*
X045287Y006281D01*
X045331Y006247D01*
X045373Y006210D01*
X045411Y006170D01*
X045448Y006128D01*
X045481Y006083D01*
X045510Y006037D01*
X045537Y005988D01*
X045559Y005937D01*
X045579Y005885D01*
X045594Y005831D01*
X045606Y005777D01*
X045614Y005722D01*
X045618Y005667D01*
X045618Y005611D01*
X045614Y005556D01*
X045606Y005501D01*
X045594Y005447D01*
X045579Y005393D01*
X045559Y005341D01*
X045537Y005290D01*
X045510Y005241D01*
X045481Y005195D01*
X045448Y005150D01*
X045411Y005108D01*
X045373Y005068D01*
X045331Y005031D01*
X045287Y004997D01*
X045240Y004967D01*
X045192Y004940D01*
X045142Y004916D01*
X045090Y004896D01*
X045037Y004879D01*
X044983Y004867D01*
X044928Y004858D01*
X044873Y004853D01*
X044817Y004852D01*
X044762Y004855D01*
X044707Y004862D01*
X044652Y004873D01*
X044598Y004887D01*
X044546Y004905D01*
X044495Y004927D01*
X044446Y004953D01*
X044398Y004982D01*
X044353Y005014D01*
X044310Y005049D01*
X044270Y005087D01*
X044232Y005128D01*
X044198Y005172D01*
X044166Y005218D01*
X044138Y005266D01*
X044114Y005316D01*
X044093Y005367D01*
X044075Y005420D01*
X044062Y005474D01*
X044052Y005528D01*
X044046Y005583D01*
X044044Y005639D01*
X052544Y005639D02*
X052546Y005695D01*
X052552Y005750D01*
X052562Y005804D01*
X052575Y005858D01*
X052593Y005911D01*
X052614Y005962D01*
X052638Y006012D01*
X052666Y006060D01*
X052698Y006106D01*
X052732Y006150D01*
X052770Y006191D01*
X052810Y006229D01*
X052853Y006264D01*
X052898Y006296D01*
X052946Y006325D01*
X052995Y006351D01*
X053046Y006373D01*
X053098Y006391D01*
X053152Y006405D01*
X053207Y006416D01*
X053262Y006423D01*
X053317Y006426D01*
X053373Y006425D01*
X053428Y006420D01*
X053483Y006411D01*
X053537Y006399D01*
X053590Y006382D01*
X053642Y006362D01*
X053692Y006338D01*
X053740Y006311D01*
X053787Y006281D01*
X053831Y006247D01*
X053873Y006210D01*
X053911Y006170D01*
X053948Y006128D01*
X053981Y006083D01*
X054010Y006037D01*
X054037Y005988D01*
X054059Y005937D01*
X054079Y005885D01*
X054094Y005831D01*
X054106Y005777D01*
X054114Y005722D01*
X054118Y005667D01*
X054118Y005611D01*
X054114Y005556D01*
X054106Y005501D01*
X054094Y005447D01*
X054079Y005393D01*
X054059Y005341D01*
X054037Y005290D01*
X054010Y005241D01*
X053981Y005195D01*
X053948Y005150D01*
X053911Y005108D01*
X053873Y005068D01*
X053831Y005031D01*
X053787Y004997D01*
X053740Y004967D01*
X053692Y004940D01*
X053642Y004916D01*
X053590Y004896D01*
X053537Y004879D01*
X053483Y004867D01*
X053428Y004858D01*
X053373Y004853D01*
X053317Y004852D01*
X053262Y004855D01*
X053207Y004862D01*
X053152Y004873D01*
X053098Y004887D01*
X053046Y004905D01*
X052995Y004927D01*
X052946Y004953D01*
X052898Y004982D01*
X052853Y005014D01*
X052810Y005049D01*
X052770Y005087D01*
X052732Y005128D01*
X052698Y005172D01*
X052666Y005218D01*
X052638Y005266D01*
X052614Y005316D01*
X052593Y005367D01*
X052575Y005420D01*
X052562Y005474D01*
X052552Y005528D01*
X052546Y005583D01*
X052544Y005639D01*
X062044Y005639D02*
X062046Y005695D01*
X062052Y005750D01*
X062062Y005804D01*
X062075Y005858D01*
X062093Y005911D01*
X062114Y005962D01*
X062138Y006012D01*
X062166Y006060D01*
X062198Y006106D01*
X062232Y006150D01*
X062270Y006191D01*
X062310Y006229D01*
X062353Y006264D01*
X062398Y006296D01*
X062446Y006325D01*
X062495Y006351D01*
X062546Y006373D01*
X062598Y006391D01*
X062652Y006405D01*
X062707Y006416D01*
X062762Y006423D01*
X062817Y006426D01*
X062873Y006425D01*
X062928Y006420D01*
X062983Y006411D01*
X063037Y006399D01*
X063090Y006382D01*
X063142Y006362D01*
X063192Y006338D01*
X063240Y006311D01*
X063287Y006281D01*
X063331Y006247D01*
X063373Y006210D01*
X063411Y006170D01*
X063448Y006128D01*
X063481Y006083D01*
X063510Y006037D01*
X063537Y005988D01*
X063559Y005937D01*
X063579Y005885D01*
X063594Y005831D01*
X063606Y005777D01*
X063614Y005722D01*
X063618Y005667D01*
X063618Y005611D01*
X063614Y005556D01*
X063606Y005501D01*
X063594Y005447D01*
X063579Y005393D01*
X063559Y005341D01*
X063537Y005290D01*
X063510Y005241D01*
X063481Y005195D01*
X063448Y005150D01*
X063411Y005108D01*
X063373Y005068D01*
X063331Y005031D01*
X063287Y004997D01*
X063240Y004967D01*
X063192Y004940D01*
X063142Y004916D01*
X063090Y004896D01*
X063037Y004879D01*
X062983Y004867D01*
X062928Y004858D01*
X062873Y004853D01*
X062817Y004852D01*
X062762Y004855D01*
X062707Y004862D01*
X062652Y004873D01*
X062598Y004887D01*
X062546Y004905D01*
X062495Y004927D01*
X062446Y004953D01*
X062398Y004982D01*
X062353Y005014D01*
X062310Y005049D01*
X062270Y005087D01*
X062232Y005128D01*
X062198Y005172D01*
X062166Y005218D01*
X062138Y005266D01*
X062114Y005316D01*
X062093Y005367D01*
X062075Y005420D01*
X062062Y005474D01*
X062052Y005528D01*
X062046Y005583D01*
X062044Y005639D01*
X077294Y005639D02*
X077296Y005695D01*
X077302Y005750D01*
X077312Y005804D01*
X077325Y005858D01*
X077343Y005911D01*
X077364Y005962D01*
X077388Y006012D01*
X077416Y006060D01*
X077448Y006106D01*
X077482Y006150D01*
X077520Y006191D01*
X077560Y006229D01*
X077603Y006264D01*
X077648Y006296D01*
X077696Y006325D01*
X077745Y006351D01*
X077796Y006373D01*
X077848Y006391D01*
X077902Y006405D01*
X077957Y006416D01*
X078012Y006423D01*
X078067Y006426D01*
X078123Y006425D01*
X078178Y006420D01*
X078233Y006411D01*
X078287Y006399D01*
X078340Y006382D01*
X078392Y006362D01*
X078442Y006338D01*
X078490Y006311D01*
X078537Y006281D01*
X078581Y006247D01*
X078623Y006210D01*
X078661Y006170D01*
X078698Y006128D01*
X078731Y006083D01*
X078760Y006037D01*
X078787Y005988D01*
X078809Y005937D01*
X078829Y005885D01*
X078844Y005831D01*
X078856Y005777D01*
X078864Y005722D01*
X078868Y005667D01*
X078868Y005611D01*
X078864Y005556D01*
X078856Y005501D01*
X078844Y005447D01*
X078829Y005393D01*
X078809Y005341D01*
X078787Y005290D01*
X078760Y005241D01*
X078731Y005195D01*
X078698Y005150D01*
X078661Y005108D01*
X078623Y005068D01*
X078581Y005031D01*
X078537Y004997D01*
X078490Y004967D01*
X078442Y004940D01*
X078392Y004916D01*
X078340Y004896D01*
X078287Y004879D01*
X078233Y004867D01*
X078178Y004858D01*
X078123Y004853D01*
X078067Y004852D01*
X078012Y004855D01*
X077957Y004862D01*
X077902Y004873D01*
X077848Y004887D01*
X077796Y004905D01*
X077745Y004927D01*
X077696Y004953D01*
X077648Y004982D01*
X077603Y005014D01*
X077560Y005049D01*
X077520Y005087D01*
X077482Y005128D01*
X077448Y005172D01*
X077416Y005218D01*
X077388Y005266D01*
X077364Y005316D01*
X077343Y005367D01*
X077325Y005420D01*
X077312Y005474D01*
X077302Y005528D01*
X077296Y005583D01*
X077294Y005639D01*
X104294Y005639D02*
X104296Y005695D01*
X104302Y005750D01*
X104312Y005804D01*
X104325Y005858D01*
X104343Y005911D01*
X104364Y005962D01*
X104388Y006012D01*
X104416Y006060D01*
X104448Y006106D01*
X104482Y006150D01*
X104520Y006191D01*
X104560Y006229D01*
X104603Y006264D01*
X104648Y006296D01*
X104696Y006325D01*
X104745Y006351D01*
X104796Y006373D01*
X104848Y006391D01*
X104902Y006405D01*
X104957Y006416D01*
X105012Y006423D01*
X105067Y006426D01*
X105123Y006425D01*
X105178Y006420D01*
X105233Y006411D01*
X105287Y006399D01*
X105340Y006382D01*
X105392Y006362D01*
X105442Y006338D01*
X105490Y006311D01*
X105537Y006281D01*
X105581Y006247D01*
X105623Y006210D01*
X105661Y006170D01*
X105698Y006128D01*
X105731Y006083D01*
X105760Y006037D01*
X105787Y005988D01*
X105809Y005937D01*
X105829Y005885D01*
X105844Y005831D01*
X105856Y005777D01*
X105864Y005722D01*
X105868Y005667D01*
X105868Y005611D01*
X105864Y005556D01*
X105856Y005501D01*
X105844Y005447D01*
X105829Y005393D01*
X105809Y005341D01*
X105787Y005290D01*
X105760Y005241D01*
X105731Y005195D01*
X105698Y005150D01*
X105661Y005108D01*
X105623Y005068D01*
X105581Y005031D01*
X105537Y004997D01*
X105490Y004967D01*
X105442Y004940D01*
X105392Y004916D01*
X105340Y004896D01*
X105287Y004879D01*
X105233Y004867D01*
X105178Y004858D01*
X105123Y004853D01*
X105067Y004852D01*
X105012Y004855D01*
X104957Y004862D01*
X104902Y004873D01*
X104848Y004887D01*
X104796Y004905D01*
X104745Y004927D01*
X104696Y004953D01*
X104648Y004982D01*
X104603Y005014D01*
X104560Y005049D01*
X104520Y005087D01*
X104482Y005128D01*
X104448Y005172D01*
X104416Y005218D01*
X104388Y005266D01*
X104364Y005316D01*
X104343Y005367D01*
X104325Y005420D01*
X104312Y005474D01*
X104302Y005528D01*
X104296Y005583D01*
X104294Y005639D01*
X124544Y005639D02*
X124546Y005695D01*
X124552Y005750D01*
X124562Y005804D01*
X124575Y005858D01*
X124593Y005911D01*
X124614Y005962D01*
X124638Y006012D01*
X124666Y006060D01*
X124698Y006106D01*
X124732Y006150D01*
X124770Y006191D01*
X124810Y006229D01*
X124853Y006264D01*
X124898Y006296D01*
X124946Y006325D01*
X124995Y006351D01*
X125046Y006373D01*
X125098Y006391D01*
X125152Y006405D01*
X125207Y006416D01*
X125262Y006423D01*
X125317Y006426D01*
X125373Y006425D01*
X125428Y006420D01*
X125483Y006411D01*
X125537Y006399D01*
X125590Y006382D01*
X125642Y006362D01*
X125692Y006338D01*
X125740Y006311D01*
X125787Y006281D01*
X125831Y006247D01*
X125873Y006210D01*
X125911Y006170D01*
X125948Y006128D01*
X125981Y006083D01*
X126010Y006037D01*
X126037Y005988D01*
X126059Y005937D01*
X126079Y005885D01*
X126094Y005831D01*
X126106Y005777D01*
X126114Y005722D01*
X126118Y005667D01*
X126118Y005611D01*
X126114Y005556D01*
X126106Y005501D01*
X126094Y005447D01*
X126079Y005393D01*
X126059Y005341D01*
X126037Y005290D01*
X126010Y005241D01*
X125981Y005195D01*
X125948Y005150D01*
X125911Y005108D01*
X125873Y005068D01*
X125831Y005031D01*
X125787Y004997D01*
X125740Y004967D01*
X125692Y004940D01*
X125642Y004916D01*
X125590Y004896D01*
X125537Y004879D01*
X125483Y004867D01*
X125428Y004858D01*
X125373Y004853D01*
X125317Y004852D01*
X125262Y004855D01*
X125207Y004862D01*
X125152Y004873D01*
X125098Y004887D01*
X125046Y004905D01*
X124995Y004927D01*
X124946Y004953D01*
X124898Y004982D01*
X124853Y005014D01*
X124810Y005049D01*
X124770Y005087D01*
X124732Y005128D01*
X124698Y005172D01*
X124666Y005218D01*
X124638Y005266D01*
X124614Y005316D01*
X124593Y005367D01*
X124575Y005420D01*
X124562Y005474D01*
X124552Y005528D01*
X124546Y005583D01*
X124544Y005639D01*
X134044Y005639D02*
X134046Y005695D01*
X134052Y005750D01*
X134062Y005804D01*
X134075Y005858D01*
X134093Y005911D01*
X134114Y005962D01*
X134138Y006012D01*
X134166Y006060D01*
X134198Y006106D01*
X134232Y006150D01*
X134270Y006191D01*
X134310Y006229D01*
X134353Y006264D01*
X134398Y006296D01*
X134446Y006325D01*
X134495Y006351D01*
X134546Y006373D01*
X134598Y006391D01*
X134652Y006405D01*
X134707Y006416D01*
X134762Y006423D01*
X134817Y006426D01*
X134873Y006425D01*
X134928Y006420D01*
X134983Y006411D01*
X135037Y006399D01*
X135090Y006382D01*
X135142Y006362D01*
X135192Y006338D01*
X135240Y006311D01*
X135287Y006281D01*
X135331Y006247D01*
X135373Y006210D01*
X135411Y006170D01*
X135448Y006128D01*
X135481Y006083D01*
X135510Y006037D01*
X135537Y005988D01*
X135559Y005937D01*
X135579Y005885D01*
X135594Y005831D01*
X135606Y005777D01*
X135614Y005722D01*
X135618Y005667D01*
X135618Y005611D01*
X135614Y005556D01*
X135606Y005501D01*
X135594Y005447D01*
X135579Y005393D01*
X135559Y005341D01*
X135537Y005290D01*
X135510Y005241D01*
X135481Y005195D01*
X135448Y005150D01*
X135411Y005108D01*
X135373Y005068D01*
X135331Y005031D01*
X135287Y004997D01*
X135240Y004967D01*
X135192Y004940D01*
X135142Y004916D01*
X135090Y004896D01*
X135037Y004879D01*
X134983Y004867D01*
X134928Y004858D01*
X134873Y004853D01*
X134817Y004852D01*
X134762Y004855D01*
X134707Y004862D01*
X134652Y004873D01*
X134598Y004887D01*
X134546Y004905D01*
X134495Y004927D01*
X134446Y004953D01*
X134398Y004982D01*
X134353Y005014D01*
X134310Y005049D01*
X134270Y005087D01*
X134232Y005128D01*
X134198Y005172D01*
X134166Y005218D01*
X134138Y005266D01*
X134114Y005316D01*
X134093Y005367D01*
X134075Y005420D01*
X134062Y005474D01*
X134052Y005528D01*
X134046Y005583D01*
X134044Y005639D01*
X143544Y005639D02*
X143546Y005695D01*
X143552Y005750D01*
X143562Y005804D01*
X143575Y005858D01*
X143593Y005911D01*
X143614Y005962D01*
X143638Y006012D01*
X143666Y006060D01*
X143698Y006106D01*
X143732Y006150D01*
X143770Y006191D01*
X143810Y006229D01*
X143853Y006264D01*
X143898Y006296D01*
X143946Y006325D01*
X143995Y006351D01*
X144046Y006373D01*
X144098Y006391D01*
X144152Y006405D01*
X144207Y006416D01*
X144262Y006423D01*
X144317Y006426D01*
X144373Y006425D01*
X144428Y006420D01*
X144483Y006411D01*
X144537Y006399D01*
X144590Y006382D01*
X144642Y006362D01*
X144692Y006338D01*
X144740Y006311D01*
X144787Y006281D01*
X144831Y006247D01*
X144873Y006210D01*
X144911Y006170D01*
X144948Y006128D01*
X144981Y006083D01*
X145010Y006037D01*
X145037Y005988D01*
X145059Y005937D01*
X145079Y005885D01*
X145094Y005831D01*
X145106Y005777D01*
X145114Y005722D01*
X145118Y005667D01*
X145118Y005611D01*
X145114Y005556D01*
X145106Y005501D01*
X145094Y005447D01*
X145079Y005393D01*
X145059Y005341D01*
X145037Y005290D01*
X145010Y005241D01*
X144981Y005195D01*
X144948Y005150D01*
X144911Y005108D01*
X144873Y005068D01*
X144831Y005031D01*
X144787Y004997D01*
X144740Y004967D01*
X144692Y004940D01*
X144642Y004916D01*
X144590Y004896D01*
X144537Y004879D01*
X144483Y004867D01*
X144428Y004858D01*
X144373Y004853D01*
X144317Y004852D01*
X144262Y004855D01*
X144207Y004862D01*
X144152Y004873D01*
X144098Y004887D01*
X144046Y004905D01*
X143995Y004927D01*
X143946Y004953D01*
X143898Y004982D01*
X143853Y005014D01*
X143810Y005049D01*
X143770Y005087D01*
X143732Y005128D01*
X143698Y005172D01*
X143666Y005218D01*
X143638Y005266D01*
X143614Y005316D01*
X143593Y005367D01*
X143575Y005420D01*
X143562Y005474D01*
X143552Y005528D01*
X143546Y005583D01*
X143544Y005639D01*
X152044Y005639D02*
X152046Y005695D01*
X152052Y005750D01*
X152062Y005804D01*
X152075Y005858D01*
X152093Y005911D01*
X152114Y005962D01*
X152138Y006012D01*
X152166Y006060D01*
X152198Y006106D01*
X152232Y006150D01*
X152270Y006191D01*
X152310Y006229D01*
X152353Y006264D01*
X152398Y006296D01*
X152446Y006325D01*
X152495Y006351D01*
X152546Y006373D01*
X152598Y006391D01*
X152652Y006405D01*
X152707Y006416D01*
X152762Y006423D01*
X152817Y006426D01*
X152873Y006425D01*
X152928Y006420D01*
X152983Y006411D01*
X153037Y006399D01*
X153090Y006382D01*
X153142Y006362D01*
X153192Y006338D01*
X153240Y006311D01*
X153287Y006281D01*
X153331Y006247D01*
X153373Y006210D01*
X153411Y006170D01*
X153448Y006128D01*
X153481Y006083D01*
X153510Y006037D01*
X153537Y005988D01*
X153559Y005937D01*
X153579Y005885D01*
X153594Y005831D01*
X153606Y005777D01*
X153614Y005722D01*
X153618Y005667D01*
X153618Y005611D01*
X153614Y005556D01*
X153606Y005501D01*
X153594Y005447D01*
X153579Y005393D01*
X153559Y005341D01*
X153537Y005290D01*
X153510Y005241D01*
X153481Y005195D01*
X153448Y005150D01*
X153411Y005108D01*
X153373Y005068D01*
X153331Y005031D01*
X153287Y004997D01*
X153240Y004967D01*
X153192Y004940D01*
X153142Y004916D01*
X153090Y004896D01*
X153037Y004879D01*
X152983Y004867D01*
X152928Y004858D01*
X152873Y004853D01*
X152817Y004852D01*
X152762Y004855D01*
X152707Y004862D01*
X152652Y004873D01*
X152598Y004887D01*
X152546Y004905D01*
X152495Y004927D01*
X152446Y004953D01*
X152398Y004982D01*
X152353Y005014D01*
X152310Y005049D01*
X152270Y005087D01*
X152232Y005128D01*
X152198Y005172D01*
X152166Y005218D01*
X152138Y005266D01*
X152114Y005316D01*
X152093Y005367D01*
X152075Y005420D01*
X152062Y005474D01*
X152052Y005528D01*
X152046Y005583D01*
X152044Y005639D01*
X150044Y028139D02*
X150046Y028195D01*
X150052Y028250D01*
X150062Y028304D01*
X150075Y028358D01*
X150093Y028411D01*
X150114Y028462D01*
X150138Y028512D01*
X150166Y028560D01*
X150198Y028606D01*
X150232Y028650D01*
X150270Y028691D01*
X150310Y028729D01*
X150353Y028764D01*
X150398Y028796D01*
X150446Y028825D01*
X150495Y028851D01*
X150546Y028873D01*
X150598Y028891D01*
X150652Y028905D01*
X150707Y028916D01*
X150762Y028923D01*
X150817Y028926D01*
X150873Y028925D01*
X150928Y028920D01*
X150983Y028911D01*
X151037Y028899D01*
X151090Y028882D01*
X151142Y028862D01*
X151192Y028838D01*
X151240Y028811D01*
X151287Y028781D01*
X151331Y028747D01*
X151373Y028710D01*
X151411Y028670D01*
X151448Y028628D01*
X151481Y028583D01*
X151510Y028537D01*
X151537Y028488D01*
X151559Y028437D01*
X151579Y028385D01*
X151594Y028331D01*
X151606Y028277D01*
X151614Y028222D01*
X151618Y028167D01*
X151618Y028111D01*
X151614Y028056D01*
X151606Y028001D01*
X151594Y027947D01*
X151579Y027893D01*
X151559Y027841D01*
X151537Y027790D01*
X151510Y027741D01*
X151481Y027695D01*
X151448Y027650D01*
X151411Y027608D01*
X151373Y027568D01*
X151331Y027531D01*
X151287Y027497D01*
X151240Y027467D01*
X151192Y027440D01*
X151142Y027416D01*
X151090Y027396D01*
X151037Y027379D01*
X150983Y027367D01*
X150928Y027358D01*
X150873Y027353D01*
X150817Y027352D01*
X150762Y027355D01*
X150707Y027362D01*
X150652Y027373D01*
X150598Y027387D01*
X150546Y027405D01*
X150495Y027427D01*
X150446Y027453D01*
X150398Y027482D01*
X150353Y027514D01*
X150310Y027549D01*
X150270Y027587D01*
X150232Y027628D01*
X150198Y027672D01*
X150166Y027718D01*
X150138Y027766D01*
X150114Y027816D01*
X150093Y027867D01*
X150075Y027920D01*
X150062Y027974D01*
X150052Y028028D01*
X150046Y028083D01*
X150044Y028139D01*
X142544Y028139D02*
X142546Y028195D01*
X142552Y028250D01*
X142562Y028304D01*
X142575Y028358D01*
X142593Y028411D01*
X142614Y028462D01*
X142638Y028512D01*
X142666Y028560D01*
X142698Y028606D01*
X142732Y028650D01*
X142770Y028691D01*
X142810Y028729D01*
X142853Y028764D01*
X142898Y028796D01*
X142946Y028825D01*
X142995Y028851D01*
X143046Y028873D01*
X143098Y028891D01*
X143152Y028905D01*
X143207Y028916D01*
X143262Y028923D01*
X143317Y028926D01*
X143373Y028925D01*
X143428Y028920D01*
X143483Y028911D01*
X143537Y028899D01*
X143590Y028882D01*
X143642Y028862D01*
X143692Y028838D01*
X143740Y028811D01*
X143787Y028781D01*
X143831Y028747D01*
X143873Y028710D01*
X143911Y028670D01*
X143948Y028628D01*
X143981Y028583D01*
X144010Y028537D01*
X144037Y028488D01*
X144059Y028437D01*
X144079Y028385D01*
X144094Y028331D01*
X144106Y028277D01*
X144114Y028222D01*
X144118Y028167D01*
X144118Y028111D01*
X144114Y028056D01*
X144106Y028001D01*
X144094Y027947D01*
X144079Y027893D01*
X144059Y027841D01*
X144037Y027790D01*
X144010Y027741D01*
X143981Y027695D01*
X143948Y027650D01*
X143911Y027608D01*
X143873Y027568D01*
X143831Y027531D01*
X143787Y027497D01*
X143740Y027467D01*
X143692Y027440D01*
X143642Y027416D01*
X143590Y027396D01*
X143537Y027379D01*
X143483Y027367D01*
X143428Y027358D01*
X143373Y027353D01*
X143317Y027352D01*
X143262Y027355D01*
X143207Y027362D01*
X143152Y027373D01*
X143098Y027387D01*
X143046Y027405D01*
X142995Y027427D01*
X142946Y027453D01*
X142898Y027482D01*
X142853Y027514D01*
X142810Y027549D01*
X142770Y027587D01*
X142732Y027628D01*
X142698Y027672D01*
X142666Y027718D01*
X142638Y027766D01*
X142614Y027816D01*
X142593Y027867D01*
X142575Y027920D01*
X142562Y027974D01*
X142552Y028028D01*
X142546Y028083D01*
X142544Y028139D01*
X135044Y028139D02*
X135046Y028195D01*
X135052Y028250D01*
X135062Y028304D01*
X135075Y028358D01*
X135093Y028411D01*
X135114Y028462D01*
X135138Y028512D01*
X135166Y028560D01*
X135198Y028606D01*
X135232Y028650D01*
X135270Y028691D01*
X135310Y028729D01*
X135353Y028764D01*
X135398Y028796D01*
X135446Y028825D01*
X135495Y028851D01*
X135546Y028873D01*
X135598Y028891D01*
X135652Y028905D01*
X135707Y028916D01*
X135762Y028923D01*
X135817Y028926D01*
X135873Y028925D01*
X135928Y028920D01*
X135983Y028911D01*
X136037Y028899D01*
X136090Y028882D01*
X136142Y028862D01*
X136192Y028838D01*
X136240Y028811D01*
X136287Y028781D01*
X136331Y028747D01*
X136373Y028710D01*
X136411Y028670D01*
X136448Y028628D01*
X136481Y028583D01*
X136510Y028537D01*
X136537Y028488D01*
X136559Y028437D01*
X136579Y028385D01*
X136594Y028331D01*
X136606Y028277D01*
X136614Y028222D01*
X136618Y028167D01*
X136618Y028111D01*
X136614Y028056D01*
X136606Y028001D01*
X136594Y027947D01*
X136579Y027893D01*
X136559Y027841D01*
X136537Y027790D01*
X136510Y027741D01*
X136481Y027695D01*
X136448Y027650D01*
X136411Y027608D01*
X136373Y027568D01*
X136331Y027531D01*
X136287Y027497D01*
X136240Y027467D01*
X136192Y027440D01*
X136142Y027416D01*
X136090Y027396D01*
X136037Y027379D01*
X135983Y027367D01*
X135928Y027358D01*
X135873Y027353D01*
X135817Y027352D01*
X135762Y027355D01*
X135707Y027362D01*
X135652Y027373D01*
X135598Y027387D01*
X135546Y027405D01*
X135495Y027427D01*
X135446Y027453D01*
X135398Y027482D01*
X135353Y027514D01*
X135310Y027549D01*
X135270Y027587D01*
X135232Y027628D01*
X135198Y027672D01*
X135166Y027718D01*
X135138Y027766D01*
X135114Y027816D01*
X135093Y027867D01*
X135075Y027920D01*
X135062Y027974D01*
X135052Y028028D01*
X135046Y028083D01*
X135044Y028139D01*
X127544Y028139D02*
X127546Y028195D01*
X127552Y028250D01*
X127562Y028304D01*
X127575Y028358D01*
X127593Y028411D01*
X127614Y028462D01*
X127638Y028512D01*
X127666Y028560D01*
X127698Y028606D01*
X127732Y028650D01*
X127770Y028691D01*
X127810Y028729D01*
X127853Y028764D01*
X127898Y028796D01*
X127946Y028825D01*
X127995Y028851D01*
X128046Y028873D01*
X128098Y028891D01*
X128152Y028905D01*
X128207Y028916D01*
X128262Y028923D01*
X128317Y028926D01*
X128373Y028925D01*
X128428Y028920D01*
X128483Y028911D01*
X128537Y028899D01*
X128590Y028882D01*
X128642Y028862D01*
X128692Y028838D01*
X128740Y028811D01*
X128787Y028781D01*
X128831Y028747D01*
X128873Y028710D01*
X128911Y028670D01*
X128948Y028628D01*
X128981Y028583D01*
X129010Y028537D01*
X129037Y028488D01*
X129059Y028437D01*
X129079Y028385D01*
X129094Y028331D01*
X129106Y028277D01*
X129114Y028222D01*
X129118Y028167D01*
X129118Y028111D01*
X129114Y028056D01*
X129106Y028001D01*
X129094Y027947D01*
X129079Y027893D01*
X129059Y027841D01*
X129037Y027790D01*
X129010Y027741D01*
X128981Y027695D01*
X128948Y027650D01*
X128911Y027608D01*
X128873Y027568D01*
X128831Y027531D01*
X128787Y027497D01*
X128740Y027467D01*
X128692Y027440D01*
X128642Y027416D01*
X128590Y027396D01*
X128537Y027379D01*
X128483Y027367D01*
X128428Y027358D01*
X128373Y027353D01*
X128317Y027352D01*
X128262Y027355D01*
X128207Y027362D01*
X128152Y027373D01*
X128098Y027387D01*
X128046Y027405D01*
X127995Y027427D01*
X127946Y027453D01*
X127898Y027482D01*
X127853Y027514D01*
X127810Y027549D01*
X127770Y027587D01*
X127732Y027628D01*
X127698Y027672D01*
X127666Y027718D01*
X127638Y027766D01*
X127614Y027816D01*
X127593Y027867D01*
X127575Y027920D01*
X127562Y027974D01*
X127552Y028028D01*
X127546Y028083D01*
X127544Y028139D01*
X120044Y028139D02*
X120046Y028195D01*
X120052Y028250D01*
X120062Y028304D01*
X120075Y028358D01*
X120093Y028411D01*
X120114Y028462D01*
X120138Y028512D01*
X120166Y028560D01*
X120198Y028606D01*
X120232Y028650D01*
X120270Y028691D01*
X120310Y028729D01*
X120353Y028764D01*
X120398Y028796D01*
X120446Y028825D01*
X120495Y028851D01*
X120546Y028873D01*
X120598Y028891D01*
X120652Y028905D01*
X120707Y028916D01*
X120762Y028923D01*
X120817Y028926D01*
X120873Y028925D01*
X120928Y028920D01*
X120983Y028911D01*
X121037Y028899D01*
X121090Y028882D01*
X121142Y028862D01*
X121192Y028838D01*
X121240Y028811D01*
X121287Y028781D01*
X121331Y028747D01*
X121373Y028710D01*
X121411Y028670D01*
X121448Y028628D01*
X121481Y028583D01*
X121510Y028537D01*
X121537Y028488D01*
X121559Y028437D01*
X121579Y028385D01*
X121594Y028331D01*
X121606Y028277D01*
X121614Y028222D01*
X121618Y028167D01*
X121618Y028111D01*
X121614Y028056D01*
X121606Y028001D01*
X121594Y027947D01*
X121579Y027893D01*
X121559Y027841D01*
X121537Y027790D01*
X121510Y027741D01*
X121481Y027695D01*
X121448Y027650D01*
X121411Y027608D01*
X121373Y027568D01*
X121331Y027531D01*
X121287Y027497D01*
X121240Y027467D01*
X121192Y027440D01*
X121142Y027416D01*
X121090Y027396D01*
X121037Y027379D01*
X120983Y027367D01*
X120928Y027358D01*
X120873Y027353D01*
X120817Y027352D01*
X120762Y027355D01*
X120707Y027362D01*
X120652Y027373D01*
X120598Y027387D01*
X120546Y027405D01*
X120495Y027427D01*
X120446Y027453D01*
X120398Y027482D01*
X120353Y027514D01*
X120310Y027549D01*
X120270Y027587D01*
X120232Y027628D01*
X120198Y027672D01*
X120166Y027718D01*
X120138Y027766D01*
X120114Y027816D01*
X120093Y027867D01*
X120075Y027920D01*
X120062Y027974D01*
X120052Y028028D01*
X120046Y028083D01*
X120044Y028139D01*
X112544Y028139D02*
X112546Y028195D01*
X112552Y028250D01*
X112562Y028304D01*
X112575Y028358D01*
X112593Y028411D01*
X112614Y028462D01*
X112638Y028512D01*
X112666Y028560D01*
X112698Y028606D01*
X112732Y028650D01*
X112770Y028691D01*
X112810Y028729D01*
X112853Y028764D01*
X112898Y028796D01*
X112946Y028825D01*
X112995Y028851D01*
X113046Y028873D01*
X113098Y028891D01*
X113152Y028905D01*
X113207Y028916D01*
X113262Y028923D01*
X113317Y028926D01*
X113373Y028925D01*
X113428Y028920D01*
X113483Y028911D01*
X113537Y028899D01*
X113590Y028882D01*
X113642Y028862D01*
X113692Y028838D01*
X113740Y028811D01*
X113787Y028781D01*
X113831Y028747D01*
X113873Y028710D01*
X113911Y028670D01*
X113948Y028628D01*
X113981Y028583D01*
X114010Y028537D01*
X114037Y028488D01*
X114059Y028437D01*
X114079Y028385D01*
X114094Y028331D01*
X114106Y028277D01*
X114114Y028222D01*
X114118Y028167D01*
X114118Y028111D01*
X114114Y028056D01*
X114106Y028001D01*
X114094Y027947D01*
X114079Y027893D01*
X114059Y027841D01*
X114037Y027790D01*
X114010Y027741D01*
X113981Y027695D01*
X113948Y027650D01*
X113911Y027608D01*
X113873Y027568D01*
X113831Y027531D01*
X113787Y027497D01*
X113740Y027467D01*
X113692Y027440D01*
X113642Y027416D01*
X113590Y027396D01*
X113537Y027379D01*
X113483Y027367D01*
X113428Y027358D01*
X113373Y027353D01*
X113317Y027352D01*
X113262Y027355D01*
X113207Y027362D01*
X113152Y027373D01*
X113098Y027387D01*
X113046Y027405D01*
X112995Y027427D01*
X112946Y027453D01*
X112898Y027482D01*
X112853Y027514D01*
X112810Y027549D01*
X112770Y027587D01*
X112732Y027628D01*
X112698Y027672D01*
X112666Y027718D01*
X112638Y027766D01*
X112614Y027816D01*
X112593Y027867D01*
X112575Y027920D01*
X112562Y027974D01*
X112552Y028028D01*
X112546Y028083D01*
X112544Y028139D01*
X105044Y028139D02*
X105046Y028195D01*
X105052Y028250D01*
X105062Y028304D01*
X105075Y028358D01*
X105093Y028411D01*
X105114Y028462D01*
X105138Y028512D01*
X105166Y028560D01*
X105198Y028606D01*
X105232Y028650D01*
X105270Y028691D01*
X105310Y028729D01*
X105353Y028764D01*
X105398Y028796D01*
X105446Y028825D01*
X105495Y028851D01*
X105546Y028873D01*
X105598Y028891D01*
X105652Y028905D01*
X105707Y028916D01*
X105762Y028923D01*
X105817Y028926D01*
X105873Y028925D01*
X105928Y028920D01*
X105983Y028911D01*
X106037Y028899D01*
X106090Y028882D01*
X106142Y028862D01*
X106192Y028838D01*
X106240Y028811D01*
X106287Y028781D01*
X106331Y028747D01*
X106373Y028710D01*
X106411Y028670D01*
X106448Y028628D01*
X106481Y028583D01*
X106510Y028537D01*
X106537Y028488D01*
X106559Y028437D01*
X106579Y028385D01*
X106594Y028331D01*
X106606Y028277D01*
X106614Y028222D01*
X106618Y028167D01*
X106618Y028111D01*
X106614Y028056D01*
X106606Y028001D01*
X106594Y027947D01*
X106579Y027893D01*
X106559Y027841D01*
X106537Y027790D01*
X106510Y027741D01*
X106481Y027695D01*
X106448Y027650D01*
X106411Y027608D01*
X106373Y027568D01*
X106331Y027531D01*
X106287Y027497D01*
X106240Y027467D01*
X106192Y027440D01*
X106142Y027416D01*
X106090Y027396D01*
X106037Y027379D01*
X105983Y027367D01*
X105928Y027358D01*
X105873Y027353D01*
X105817Y027352D01*
X105762Y027355D01*
X105707Y027362D01*
X105652Y027373D01*
X105598Y027387D01*
X105546Y027405D01*
X105495Y027427D01*
X105446Y027453D01*
X105398Y027482D01*
X105353Y027514D01*
X105310Y027549D01*
X105270Y027587D01*
X105232Y027628D01*
X105198Y027672D01*
X105166Y027718D01*
X105138Y027766D01*
X105114Y027816D01*
X105093Y027867D01*
X105075Y027920D01*
X105062Y027974D01*
X105052Y028028D01*
X105046Y028083D01*
X105044Y028139D01*
X097544Y028139D02*
X097546Y028195D01*
X097552Y028250D01*
X097562Y028304D01*
X097575Y028358D01*
X097593Y028411D01*
X097614Y028462D01*
X097638Y028512D01*
X097666Y028560D01*
X097698Y028606D01*
X097732Y028650D01*
X097770Y028691D01*
X097810Y028729D01*
X097853Y028764D01*
X097898Y028796D01*
X097946Y028825D01*
X097995Y028851D01*
X098046Y028873D01*
X098098Y028891D01*
X098152Y028905D01*
X098207Y028916D01*
X098262Y028923D01*
X098317Y028926D01*
X098373Y028925D01*
X098428Y028920D01*
X098483Y028911D01*
X098537Y028899D01*
X098590Y028882D01*
X098642Y028862D01*
X098692Y028838D01*
X098740Y028811D01*
X098787Y028781D01*
X098831Y028747D01*
X098873Y028710D01*
X098911Y028670D01*
X098948Y028628D01*
X098981Y028583D01*
X099010Y028537D01*
X099037Y028488D01*
X099059Y028437D01*
X099079Y028385D01*
X099094Y028331D01*
X099106Y028277D01*
X099114Y028222D01*
X099118Y028167D01*
X099118Y028111D01*
X099114Y028056D01*
X099106Y028001D01*
X099094Y027947D01*
X099079Y027893D01*
X099059Y027841D01*
X099037Y027790D01*
X099010Y027741D01*
X098981Y027695D01*
X098948Y027650D01*
X098911Y027608D01*
X098873Y027568D01*
X098831Y027531D01*
X098787Y027497D01*
X098740Y027467D01*
X098692Y027440D01*
X098642Y027416D01*
X098590Y027396D01*
X098537Y027379D01*
X098483Y027367D01*
X098428Y027358D01*
X098373Y027353D01*
X098317Y027352D01*
X098262Y027355D01*
X098207Y027362D01*
X098152Y027373D01*
X098098Y027387D01*
X098046Y027405D01*
X097995Y027427D01*
X097946Y027453D01*
X097898Y027482D01*
X097853Y027514D01*
X097810Y027549D01*
X097770Y027587D01*
X097732Y027628D01*
X097698Y027672D01*
X097666Y027718D01*
X097638Y027766D01*
X097614Y027816D01*
X097593Y027867D01*
X097575Y027920D01*
X097562Y027974D01*
X097552Y028028D01*
X097546Y028083D01*
X097544Y028139D01*
X084044Y028139D02*
X084046Y028195D01*
X084052Y028250D01*
X084062Y028304D01*
X084075Y028358D01*
X084093Y028411D01*
X084114Y028462D01*
X084138Y028512D01*
X084166Y028560D01*
X084198Y028606D01*
X084232Y028650D01*
X084270Y028691D01*
X084310Y028729D01*
X084353Y028764D01*
X084398Y028796D01*
X084446Y028825D01*
X084495Y028851D01*
X084546Y028873D01*
X084598Y028891D01*
X084652Y028905D01*
X084707Y028916D01*
X084762Y028923D01*
X084817Y028926D01*
X084873Y028925D01*
X084928Y028920D01*
X084983Y028911D01*
X085037Y028899D01*
X085090Y028882D01*
X085142Y028862D01*
X085192Y028838D01*
X085240Y028811D01*
X085287Y028781D01*
X085331Y028747D01*
X085373Y028710D01*
X085411Y028670D01*
X085448Y028628D01*
X085481Y028583D01*
X085510Y028537D01*
X085537Y028488D01*
X085559Y028437D01*
X085579Y028385D01*
X085594Y028331D01*
X085606Y028277D01*
X085614Y028222D01*
X085618Y028167D01*
X085618Y028111D01*
X085614Y028056D01*
X085606Y028001D01*
X085594Y027947D01*
X085579Y027893D01*
X085559Y027841D01*
X085537Y027790D01*
X085510Y027741D01*
X085481Y027695D01*
X085448Y027650D01*
X085411Y027608D01*
X085373Y027568D01*
X085331Y027531D01*
X085287Y027497D01*
X085240Y027467D01*
X085192Y027440D01*
X085142Y027416D01*
X085090Y027396D01*
X085037Y027379D01*
X084983Y027367D01*
X084928Y027358D01*
X084873Y027353D01*
X084817Y027352D01*
X084762Y027355D01*
X084707Y027362D01*
X084652Y027373D01*
X084598Y027387D01*
X084546Y027405D01*
X084495Y027427D01*
X084446Y027453D01*
X084398Y027482D01*
X084353Y027514D01*
X084310Y027549D01*
X084270Y027587D01*
X084232Y027628D01*
X084198Y027672D01*
X084166Y027718D01*
X084138Y027766D01*
X084114Y027816D01*
X084093Y027867D01*
X084075Y027920D01*
X084062Y027974D01*
X084052Y028028D01*
X084046Y028083D01*
X084044Y028139D01*
X076544Y028139D02*
X076546Y028195D01*
X076552Y028250D01*
X076562Y028304D01*
X076575Y028358D01*
X076593Y028411D01*
X076614Y028462D01*
X076638Y028512D01*
X076666Y028560D01*
X076698Y028606D01*
X076732Y028650D01*
X076770Y028691D01*
X076810Y028729D01*
X076853Y028764D01*
X076898Y028796D01*
X076946Y028825D01*
X076995Y028851D01*
X077046Y028873D01*
X077098Y028891D01*
X077152Y028905D01*
X077207Y028916D01*
X077262Y028923D01*
X077317Y028926D01*
X077373Y028925D01*
X077428Y028920D01*
X077483Y028911D01*
X077537Y028899D01*
X077590Y028882D01*
X077642Y028862D01*
X077692Y028838D01*
X077740Y028811D01*
X077787Y028781D01*
X077831Y028747D01*
X077873Y028710D01*
X077911Y028670D01*
X077948Y028628D01*
X077981Y028583D01*
X078010Y028537D01*
X078037Y028488D01*
X078059Y028437D01*
X078079Y028385D01*
X078094Y028331D01*
X078106Y028277D01*
X078114Y028222D01*
X078118Y028167D01*
X078118Y028111D01*
X078114Y028056D01*
X078106Y028001D01*
X078094Y027947D01*
X078079Y027893D01*
X078059Y027841D01*
X078037Y027790D01*
X078010Y027741D01*
X077981Y027695D01*
X077948Y027650D01*
X077911Y027608D01*
X077873Y027568D01*
X077831Y027531D01*
X077787Y027497D01*
X077740Y027467D01*
X077692Y027440D01*
X077642Y027416D01*
X077590Y027396D01*
X077537Y027379D01*
X077483Y027367D01*
X077428Y027358D01*
X077373Y027353D01*
X077317Y027352D01*
X077262Y027355D01*
X077207Y027362D01*
X077152Y027373D01*
X077098Y027387D01*
X077046Y027405D01*
X076995Y027427D01*
X076946Y027453D01*
X076898Y027482D01*
X076853Y027514D01*
X076810Y027549D01*
X076770Y027587D01*
X076732Y027628D01*
X076698Y027672D01*
X076666Y027718D01*
X076638Y027766D01*
X076614Y027816D01*
X076593Y027867D01*
X076575Y027920D01*
X076562Y027974D01*
X076552Y028028D01*
X076546Y028083D01*
X076544Y028139D01*
X069044Y028139D02*
X069046Y028195D01*
X069052Y028250D01*
X069062Y028304D01*
X069075Y028358D01*
X069093Y028411D01*
X069114Y028462D01*
X069138Y028512D01*
X069166Y028560D01*
X069198Y028606D01*
X069232Y028650D01*
X069270Y028691D01*
X069310Y028729D01*
X069353Y028764D01*
X069398Y028796D01*
X069446Y028825D01*
X069495Y028851D01*
X069546Y028873D01*
X069598Y028891D01*
X069652Y028905D01*
X069707Y028916D01*
X069762Y028923D01*
X069817Y028926D01*
X069873Y028925D01*
X069928Y028920D01*
X069983Y028911D01*
X070037Y028899D01*
X070090Y028882D01*
X070142Y028862D01*
X070192Y028838D01*
X070240Y028811D01*
X070287Y028781D01*
X070331Y028747D01*
X070373Y028710D01*
X070411Y028670D01*
X070448Y028628D01*
X070481Y028583D01*
X070510Y028537D01*
X070537Y028488D01*
X070559Y028437D01*
X070579Y028385D01*
X070594Y028331D01*
X070606Y028277D01*
X070614Y028222D01*
X070618Y028167D01*
X070618Y028111D01*
X070614Y028056D01*
X070606Y028001D01*
X070594Y027947D01*
X070579Y027893D01*
X070559Y027841D01*
X070537Y027790D01*
X070510Y027741D01*
X070481Y027695D01*
X070448Y027650D01*
X070411Y027608D01*
X070373Y027568D01*
X070331Y027531D01*
X070287Y027497D01*
X070240Y027467D01*
X070192Y027440D01*
X070142Y027416D01*
X070090Y027396D01*
X070037Y027379D01*
X069983Y027367D01*
X069928Y027358D01*
X069873Y027353D01*
X069817Y027352D01*
X069762Y027355D01*
X069707Y027362D01*
X069652Y027373D01*
X069598Y027387D01*
X069546Y027405D01*
X069495Y027427D01*
X069446Y027453D01*
X069398Y027482D01*
X069353Y027514D01*
X069310Y027549D01*
X069270Y027587D01*
X069232Y027628D01*
X069198Y027672D01*
X069166Y027718D01*
X069138Y027766D01*
X069114Y027816D01*
X069093Y027867D01*
X069075Y027920D01*
X069062Y027974D01*
X069052Y028028D01*
X069046Y028083D01*
X069044Y028139D01*
X061544Y028139D02*
X061546Y028195D01*
X061552Y028250D01*
X061562Y028304D01*
X061575Y028358D01*
X061593Y028411D01*
X061614Y028462D01*
X061638Y028512D01*
X061666Y028560D01*
X061698Y028606D01*
X061732Y028650D01*
X061770Y028691D01*
X061810Y028729D01*
X061853Y028764D01*
X061898Y028796D01*
X061946Y028825D01*
X061995Y028851D01*
X062046Y028873D01*
X062098Y028891D01*
X062152Y028905D01*
X062207Y028916D01*
X062262Y028923D01*
X062317Y028926D01*
X062373Y028925D01*
X062428Y028920D01*
X062483Y028911D01*
X062537Y028899D01*
X062590Y028882D01*
X062642Y028862D01*
X062692Y028838D01*
X062740Y028811D01*
X062787Y028781D01*
X062831Y028747D01*
X062873Y028710D01*
X062911Y028670D01*
X062948Y028628D01*
X062981Y028583D01*
X063010Y028537D01*
X063037Y028488D01*
X063059Y028437D01*
X063079Y028385D01*
X063094Y028331D01*
X063106Y028277D01*
X063114Y028222D01*
X063118Y028167D01*
X063118Y028111D01*
X063114Y028056D01*
X063106Y028001D01*
X063094Y027947D01*
X063079Y027893D01*
X063059Y027841D01*
X063037Y027790D01*
X063010Y027741D01*
X062981Y027695D01*
X062948Y027650D01*
X062911Y027608D01*
X062873Y027568D01*
X062831Y027531D01*
X062787Y027497D01*
X062740Y027467D01*
X062692Y027440D01*
X062642Y027416D01*
X062590Y027396D01*
X062537Y027379D01*
X062483Y027367D01*
X062428Y027358D01*
X062373Y027353D01*
X062317Y027352D01*
X062262Y027355D01*
X062207Y027362D01*
X062152Y027373D01*
X062098Y027387D01*
X062046Y027405D01*
X061995Y027427D01*
X061946Y027453D01*
X061898Y027482D01*
X061853Y027514D01*
X061810Y027549D01*
X061770Y027587D01*
X061732Y027628D01*
X061698Y027672D01*
X061666Y027718D01*
X061638Y027766D01*
X061614Y027816D01*
X061593Y027867D01*
X061575Y027920D01*
X061562Y027974D01*
X061552Y028028D01*
X061546Y028083D01*
X061544Y028139D01*
X054044Y028139D02*
X054046Y028195D01*
X054052Y028250D01*
X054062Y028304D01*
X054075Y028358D01*
X054093Y028411D01*
X054114Y028462D01*
X054138Y028512D01*
X054166Y028560D01*
X054198Y028606D01*
X054232Y028650D01*
X054270Y028691D01*
X054310Y028729D01*
X054353Y028764D01*
X054398Y028796D01*
X054446Y028825D01*
X054495Y028851D01*
X054546Y028873D01*
X054598Y028891D01*
X054652Y028905D01*
X054707Y028916D01*
X054762Y028923D01*
X054817Y028926D01*
X054873Y028925D01*
X054928Y028920D01*
X054983Y028911D01*
X055037Y028899D01*
X055090Y028882D01*
X055142Y028862D01*
X055192Y028838D01*
X055240Y028811D01*
X055287Y028781D01*
X055331Y028747D01*
X055373Y028710D01*
X055411Y028670D01*
X055448Y028628D01*
X055481Y028583D01*
X055510Y028537D01*
X055537Y028488D01*
X055559Y028437D01*
X055579Y028385D01*
X055594Y028331D01*
X055606Y028277D01*
X055614Y028222D01*
X055618Y028167D01*
X055618Y028111D01*
X055614Y028056D01*
X055606Y028001D01*
X055594Y027947D01*
X055579Y027893D01*
X055559Y027841D01*
X055537Y027790D01*
X055510Y027741D01*
X055481Y027695D01*
X055448Y027650D01*
X055411Y027608D01*
X055373Y027568D01*
X055331Y027531D01*
X055287Y027497D01*
X055240Y027467D01*
X055192Y027440D01*
X055142Y027416D01*
X055090Y027396D01*
X055037Y027379D01*
X054983Y027367D01*
X054928Y027358D01*
X054873Y027353D01*
X054817Y027352D01*
X054762Y027355D01*
X054707Y027362D01*
X054652Y027373D01*
X054598Y027387D01*
X054546Y027405D01*
X054495Y027427D01*
X054446Y027453D01*
X054398Y027482D01*
X054353Y027514D01*
X054310Y027549D01*
X054270Y027587D01*
X054232Y027628D01*
X054198Y027672D01*
X054166Y027718D01*
X054138Y027766D01*
X054114Y027816D01*
X054093Y027867D01*
X054075Y027920D01*
X054062Y027974D01*
X054052Y028028D01*
X054046Y028083D01*
X054044Y028139D01*
X044544Y028139D02*
X044546Y028195D01*
X044552Y028250D01*
X044562Y028304D01*
X044575Y028358D01*
X044593Y028411D01*
X044614Y028462D01*
X044638Y028512D01*
X044666Y028560D01*
X044698Y028606D01*
X044732Y028650D01*
X044770Y028691D01*
X044810Y028729D01*
X044853Y028764D01*
X044898Y028796D01*
X044946Y028825D01*
X044995Y028851D01*
X045046Y028873D01*
X045098Y028891D01*
X045152Y028905D01*
X045207Y028916D01*
X045262Y028923D01*
X045317Y028926D01*
X045373Y028925D01*
X045428Y028920D01*
X045483Y028911D01*
X045537Y028899D01*
X045590Y028882D01*
X045642Y028862D01*
X045692Y028838D01*
X045740Y028811D01*
X045787Y028781D01*
X045831Y028747D01*
X045873Y028710D01*
X045911Y028670D01*
X045948Y028628D01*
X045981Y028583D01*
X046010Y028537D01*
X046037Y028488D01*
X046059Y028437D01*
X046079Y028385D01*
X046094Y028331D01*
X046106Y028277D01*
X046114Y028222D01*
X046118Y028167D01*
X046118Y028111D01*
X046114Y028056D01*
X046106Y028001D01*
X046094Y027947D01*
X046079Y027893D01*
X046059Y027841D01*
X046037Y027790D01*
X046010Y027741D01*
X045981Y027695D01*
X045948Y027650D01*
X045911Y027608D01*
X045873Y027568D01*
X045831Y027531D01*
X045787Y027497D01*
X045740Y027467D01*
X045692Y027440D01*
X045642Y027416D01*
X045590Y027396D01*
X045537Y027379D01*
X045483Y027367D01*
X045428Y027358D01*
X045373Y027353D01*
X045317Y027352D01*
X045262Y027355D01*
X045207Y027362D01*
X045152Y027373D01*
X045098Y027387D01*
X045046Y027405D01*
X044995Y027427D01*
X044946Y027453D01*
X044898Y027482D01*
X044853Y027514D01*
X044810Y027549D01*
X044770Y027587D01*
X044732Y027628D01*
X044698Y027672D01*
X044666Y027718D01*
X044638Y027766D01*
X044614Y027816D01*
X044593Y027867D01*
X044575Y027920D01*
X044562Y027974D01*
X044552Y028028D01*
X044546Y028083D01*
X044544Y028139D01*
X046544Y035639D02*
X046546Y035695D01*
X046552Y035750D01*
X046562Y035804D01*
X046575Y035858D01*
X046593Y035911D01*
X046614Y035962D01*
X046638Y036012D01*
X046666Y036060D01*
X046698Y036106D01*
X046732Y036150D01*
X046770Y036191D01*
X046810Y036229D01*
X046853Y036264D01*
X046898Y036296D01*
X046946Y036325D01*
X046995Y036351D01*
X047046Y036373D01*
X047098Y036391D01*
X047152Y036405D01*
X047207Y036416D01*
X047262Y036423D01*
X047317Y036426D01*
X047373Y036425D01*
X047428Y036420D01*
X047483Y036411D01*
X047537Y036399D01*
X047590Y036382D01*
X047642Y036362D01*
X047692Y036338D01*
X047740Y036311D01*
X047787Y036281D01*
X047831Y036247D01*
X047873Y036210D01*
X047911Y036170D01*
X047948Y036128D01*
X047981Y036083D01*
X048010Y036037D01*
X048037Y035988D01*
X048059Y035937D01*
X048079Y035885D01*
X048094Y035831D01*
X048106Y035777D01*
X048114Y035722D01*
X048118Y035667D01*
X048118Y035611D01*
X048114Y035556D01*
X048106Y035501D01*
X048094Y035447D01*
X048079Y035393D01*
X048059Y035341D01*
X048037Y035290D01*
X048010Y035241D01*
X047981Y035195D01*
X047948Y035150D01*
X047911Y035108D01*
X047873Y035068D01*
X047831Y035031D01*
X047787Y034997D01*
X047740Y034967D01*
X047692Y034940D01*
X047642Y034916D01*
X047590Y034896D01*
X047537Y034879D01*
X047483Y034867D01*
X047428Y034858D01*
X047373Y034853D01*
X047317Y034852D01*
X047262Y034855D01*
X047207Y034862D01*
X047152Y034873D01*
X047098Y034887D01*
X047046Y034905D01*
X046995Y034927D01*
X046946Y034953D01*
X046898Y034982D01*
X046853Y035014D01*
X046810Y035049D01*
X046770Y035087D01*
X046732Y035128D01*
X046698Y035172D01*
X046666Y035218D01*
X046638Y035266D01*
X046614Y035316D01*
X046593Y035367D01*
X046575Y035420D01*
X046562Y035474D01*
X046552Y035528D01*
X046546Y035583D01*
X046544Y035639D01*
X054044Y035639D02*
X054046Y035695D01*
X054052Y035750D01*
X054062Y035804D01*
X054075Y035858D01*
X054093Y035911D01*
X054114Y035962D01*
X054138Y036012D01*
X054166Y036060D01*
X054198Y036106D01*
X054232Y036150D01*
X054270Y036191D01*
X054310Y036229D01*
X054353Y036264D01*
X054398Y036296D01*
X054446Y036325D01*
X054495Y036351D01*
X054546Y036373D01*
X054598Y036391D01*
X054652Y036405D01*
X054707Y036416D01*
X054762Y036423D01*
X054817Y036426D01*
X054873Y036425D01*
X054928Y036420D01*
X054983Y036411D01*
X055037Y036399D01*
X055090Y036382D01*
X055142Y036362D01*
X055192Y036338D01*
X055240Y036311D01*
X055287Y036281D01*
X055331Y036247D01*
X055373Y036210D01*
X055411Y036170D01*
X055448Y036128D01*
X055481Y036083D01*
X055510Y036037D01*
X055537Y035988D01*
X055559Y035937D01*
X055579Y035885D01*
X055594Y035831D01*
X055606Y035777D01*
X055614Y035722D01*
X055618Y035667D01*
X055618Y035611D01*
X055614Y035556D01*
X055606Y035501D01*
X055594Y035447D01*
X055579Y035393D01*
X055559Y035341D01*
X055537Y035290D01*
X055510Y035241D01*
X055481Y035195D01*
X055448Y035150D01*
X055411Y035108D01*
X055373Y035068D01*
X055331Y035031D01*
X055287Y034997D01*
X055240Y034967D01*
X055192Y034940D01*
X055142Y034916D01*
X055090Y034896D01*
X055037Y034879D01*
X054983Y034867D01*
X054928Y034858D01*
X054873Y034853D01*
X054817Y034852D01*
X054762Y034855D01*
X054707Y034862D01*
X054652Y034873D01*
X054598Y034887D01*
X054546Y034905D01*
X054495Y034927D01*
X054446Y034953D01*
X054398Y034982D01*
X054353Y035014D01*
X054310Y035049D01*
X054270Y035087D01*
X054232Y035128D01*
X054198Y035172D01*
X054166Y035218D01*
X054138Y035266D01*
X054114Y035316D01*
X054093Y035367D01*
X054075Y035420D01*
X054062Y035474D01*
X054052Y035528D01*
X054046Y035583D01*
X054044Y035639D01*
X061544Y035639D02*
X061546Y035695D01*
X061552Y035750D01*
X061562Y035804D01*
X061575Y035858D01*
X061593Y035911D01*
X061614Y035962D01*
X061638Y036012D01*
X061666Y036060D01*
X061698Y036106D01*
X061732Y036150D01*
X061770Y036191D01*
X061810Y036229D01*
X061853Y036264D01*
X061898Y036296D01*
X061946Y036325D01*
X061995Y036351D01*
X062046Y036373D01*
X062098Y036391D01*
X062152Y036405D01*
X062207Y036416D01*
X062262Y036423D01*
X062317Y036426D01*
X062373Y036425D01*
X062428Y036420D01*
X062483Y036411D01*
X062537Y036399D01*
X062590Y036382D01*
X062642Y036362D01*
X062692Y036338D01*
X062740Y036311D01*
X062787Y036281D01*
X062831Y036247D01*
X062873Y036210D01*
X062911Y036170D01*
X062948Y036128D01*
X062981Y036083D01*
X063010Y036037D01*
X063037Y035988D01*
X063059Y035937D01*
X063079Y035885D01*
X063094Y035831D01*
X063106Y035777D01*
X063114Y035722D01*
X063118Y035667D01*
X063118Y035611D01*
X063114Y035556D01*
X063106Y035501D01*
X063094Y035447D01*
X063079Y035393D01*
X063059Y035341D01*
X063037Y035290D01*
X063010Y035241D01*
X062981Y035195D01*
X062948Y035150D01*
X062911Y035108D01*
X062873Y035068D01*
X062831Y035031D01*
X062787Y034997D01*
X062740Y034967D01*
X062692Y034940D01*
X062642Y034916D01*
X062590Y034896D01*
X062537Y034879D01*
X062483Y034867D01*
X062428Y034858D01*
X062373Y034853D01*
X062317Y034852D01*
X062262Y034855D01*
X062207Y034862D01*
X062152Y034873D01*
X062098Y034887D01*
X062046Y034905D01*
X061995Y034927D01*
X061946Y034953D01*
X061898Y034982D01*
X061853Y035014D01*
X061810Y035049D01*
X061770Y035087D01*
X061732Y035128D01*
X061698Y035172D01*
X061666Y035218D01*
X061638Y035266D01*
X061614Y035316D01*
X061593Y035367D01*
X061575Y035420D01*
X061562Y035474D01*
X061552Y035528D01*
X061546Y035583D01*
X061544Y035639D01*
X069044Y035639D02*
X069046Y035695D01*
X069052Y035750D01*
X069062Y035804D01*
X069075Y035858D01*
X069093Y035911D01*
X069114Y035962D01*
X069138Y036012D01*
X069166Y036060D01*
X069198Y036106D01*
X069232Y036150D01*
X069270Y036191D01*
X069310Y036229D01*
X069353Y036264D01*
X069398Y036296D01*
X069446Y036325D01*
X069495Y036351D01*
X069546Y036373D01*
X069598Y036391D01*
X069652Y036405D01*
X069707Y036416D01*
X069762Y036423D01*
X069817Y036426D01*
X069873Y036425D01*
X069928Y036420D01*
X069983Y036411D01*
X070037Y036399D01*
X070090Y036382D01*
X070142Y036362D01*
X070192Y036338D01*
X070240Y036311D01*
X070287Y036281D01*
X070331Y036247D01*
X070373Y036210D01*
X070411Y036170D01*
X070448Y036128D01*
X070481Y036083D01*
X070510Y036037D01*
X070537Y035988D01*
X070559Y035937D01*
X070579Y035885D01*
X070594Y035831D01*
X070606Y035777D01*
X070614Y035722D01*
X070618Y035667D01*
X070618Y035611D01*
X070614Y035556D01*
X070606Y035501D01*
X070594Y035447D01*
X070579Y035393D01*
X070559Y035341D01*
X070537Y035290D01*
X070510Y035241D01*
X070481Y035195D01*
X070448Y035150D01*
X070411Y035108D01*
X070373Y035068D01*
X070331Y035031D01*
X070287Y034997D01*
X070240Y034967D01*
X070192Y034940D01*
X070142Y034916D01*
X070090Y034896D01*
X070037Y034879D01*
X069983Y034867D01*
X069928Y034858D01*
X069873Y034853D01*
X069817Y034852D01*
X069762Y034855D01*
X069707Y034862D01*
X069652Y034873D01*
X069598Y034887D01*
X069546Y034905D01*
X069495Y034927D01*
X069446Y034953D01*
X069398Y034982D01*
X069353Y035014D01*
X069310Y035049D01*
X069270Y035087D01*
X069232Y035128D01*
X069198Y035172D01*
X069166Y035218D01*
X069138Y035266D01*
X069114Y035316D01*
X069093Y035367D01*
X069075Y035420D01*
X069062Y035474D01*
X069052Y035528D01*
X069046Y035583D01*
X069044Y035639D01*
X076544Y035639D02*
X076546Y035695D01*
X076552Y035750D01*
X076562Y035804D01*
X076575Y035858D01*
X076593Y035911D01*
X076614Y035962D01*
X076638Y036012D01*
X076666Y036060D01*
X076698Y036106D01*
X076732Y036150D01*
X076770Y036191D01*
X076810Y036229D01*
X076853Y036264D01*
X076898Y036296D01*
X076946Y036325D01*
X076995Y036351D01*
X077046Y036373D01*
X077098Y036391D01*
X077152Y036405D01*
X077207Y036416D01*
X077262Y036423D01*
X077317Y036426D01*
X077373Y036425D01*
X077428Y036420D01*
X077483Y036411D01*
X077537Y036399D01*
X077590Y036382D01*
X077642Y036362D01*
X077692Y036338D01*
X077740Y036311D01*
X077787Y036281D01*
X077831Y036247D01*
X077873Y036210D01*
X077911Y036170D01*
X077948Y036128D01*
X077981Y036083D01*
X078010Y036037D01*
X078037Y035988D01*
X078059Y035937D01*
X078079Y035885D01*
X078094Y035831D01*
X078106Y035777D01*
X078114Y035722D01*
X078118Y035667D01*
X078118Y035611D01*
X078114Y035556D01*
X078106Y035501D01*
X078094Y035447D01*
X078079Y035393D01*
X078059Y035341D01*
X078037Y035290D01*
X078010Y035241D01*
X077981Y035195D01*
X077948Y035150D01*
X077911Y035108D01*
X077873Y035068D01*
X077831Y035031D01*
X077787Y034997D01*
X077740Y034967D01*
X077692Y034940D01*
X077642Y034916D01*
X077590Y034896D01*
X077537Y034879D01*
X077483Y034867D01*
X077428Y034858D01*
X077373Y034853D01*
X077317Y034852D01*
X077262Y034855D01*
X077207Y034862D01*
X077152Y034873D01*
X077098Y034887D01*
X077046Y034905D01*
X076995Y034927D01*
X076946Y034953D01*
X076898Y034982D01*
X076853Y035014D01*
X076810Y035049D01*
X076770Y035087D01*
X076732Y035128D01*
X076698Y035172D01*
X076666Y035218D01*
X076638Y035266D01*
X076614Y035316D01*
X076593Y035367D01*
X076575Y035420D01*
X076562Y035474D01*
X076552Y035528D01*
X076546Y035583D01*
X076544Y035639D01*
X084044Y035639D02*
X084046Y035695D01*
X084052Y035750D01*
X084062Y035804D01*
X084075Y035858D01*
X084093Y035911D01*
X084114Y035962D01*
X084138Y036012D01*
X084166Y036060D01*
X084198Y036106D01*
X084232Y036150D01*
X084270Y036191D01*
X084310Y036229D01*
X084353Y036264D01*
X084398Y036296D01*
X084446Y036325D01*
X084495Y036351D01*
X084546Y036373D01*
X084598Y036391D01*
X084652Y036405D01*
X084707Y036416D01*
X084762Y036423D01*
X084817Y036426D01*
X084873Y036425D01*
X084928Y036420D01*
X084983Y036411D01*
X085037Y036399D01*
X085090Y036382D01*
X085142Y036362D01*
X085192Y036338D01*
X085240Y036311D01*
X085287Y036281D01*
X085331Y036247D01*
X085373Y036210D01*
X085411Y036170D01*
X085448Y036128D01*
X085481Y036083D01*
X085510Y036037D01*
X085537Y035988D01*
X085559Y035937D01*
X085579Y035885D01*
X085594Y035831D01*
X085606Y035777D01*
X085614Y035722D01*
X085618Y035667D01*
X085618Y035611D01*
X085614Y035556D01*
X085606Y035501D01*
X085594Y035447D01*
X085579Y035393D01*
X085559Y035341D01*
X085537Y035290D01*
X085510Y035241D01*
X085481Y035195D01*
X085448Y035150D01*
X085411Y035108D01*
X085373Y035068D01*
X085331Y035031D01*
X085287Y034997D01*
X085240Y034967D01*
X085192Y034940D01*
X085142Y034916D01*
X085090Y034896D01*
X085037Y034879D01*
X084983Y034867D01*
X084928Y034858D01*
X084873Y034853D01*
X084817Y034852D01*
X084762Y034855D01*
X084707Y034862D01*
X084652Y034873D01*
X084598Y034887D01*
X084546Y034905D01*
X084495Y034927D01*
X084446Y034953D01*
X084398Y034982D01*
X084353Y035014D01*
X084310Y035049D01*
X084270Y035087D01*
X084232Y035128D01*
X084198Y035172D01*
X084166Y035218D01*
X084138Y035266D01*
X084114Y035316D01*
X084093Y035367D01*
X084075Y035420D01*
X084062Y035474D01*
X084052Y035528D01*
X084046Y035583D01*
X084044Y035639D01*
X097544Y035639D02*
X097546Y035695D01*
X097552Y035750D01*
X097562Y035804D01*
X097575Y035858D01*
X097593Y035911D01*
X097614Y035962D01*
X097638Y036012D01*
X097666Y036060D01*
X097698Y036106D01*
X097732Y036150D01*
X097770Y036191D01*
X097810Y036229D01*
X097853Y036264D01*
X097898Y036296D01*
X097946Y036325D01*
X097995Y036351D01*
X098046Y036373D01*
X098098Y036391D01*
X098152Y036405D01*
X098207Y036416D01*
X098262Y036423D01*
X098317Y036426D01*
X098373Y036425D01*
X098428Y036420D01*
X098483Y036411D01*
X098537Y036399D01*
X098590Y036382D01*
X098642Y036362D01*
X098692Y036338D01*
X098740Y036311D01*
X098787Y036281D01*
X098831Y036247D01*
X098873Y036210D01*
X098911Y036170D01*
X098948Y036128D01*
X098981Y036083D01*
X099010Y036037D01*
X099037Y035988D01*
X099059Y035937D01*
X099079Y035885D01*
X099094Y035831D01*
X099106Y035777D01*
X099114Y035722D01*
X099118Y035667D01*
X099118Y035611D01*
X099114Y035556D01*
X099106Y035501D01*
X099094Y035447D01*
X099079Y035393D01*
X099059Y035341D01*
X099037Y035290D01*
X099010Y035241D01*
X098981Y035195D01*
X098948Y035150D01*
X098911Y035108D01*
X098873Y035068D01*
X098831Y035031D01*
X098787Y034997D01*
X098740Y034967D01*
X098692Y034940D01*
X098642Y034916D01*
X098590Y034896D01*
X098537Y034879D01*
X098483Y034867D01*
X098428Y034858D01*
X098373Y034853D01*
X098317Y034852D01*
X098262Y034855D01*
X098207Y034862D01*
X098152Y034873D01*
X098098Y034887D01*
X098046Y034905D01*
X097995Y034927D01*
X097946Y034953D01*
X097898Y034982D01*
X097853Y035014D01*
X097810Y035049D01*
X097770Y035087D01*
X097732Y035128D01*
X097698Y035172D01*
X097666Y035218D01*
X097638Y035266D01*
X097614Y035316D01*
X097593Y035367D01*
X097575Y035420D01*
X097562Y035474D01*
X097552Y035528D01*
X097546Y035583D01*
X097544Y035639D01*
X105044Y035639D02*
X105046Y035695D01*
X105052Y035750D01*
X105062Y035804D01*
X105075Y035858D01*
X105093Y035911D01*
X105114Y035962D01*
X105138Y036012D01*
X105166Y036060D01*
X105198Y036106D01*
X105232Y036150D01*
X105270Y036191D01*
X105310Y036229D01*
X105353Y036264D01*
X105398Y036296D01*
X105446Y036325D01*
X105495Y036351D01*
X105546Y036373D01*
X105598Y036391D01*
X105652Y036405D01*
X105707Y036416D01*
X105762Y036423D01*
X105817Y036426D01*
X105873Y036425D01*
X105928Y036420D01*
X105983Y036411D01*
X106037Y036399D01*
X106090Y036382D01*
X106142Y036362D01*
X106192Y036338D01*
X106240Y036311D01*
X106287Y036281D01*
X106331Y036247D01*
X106373Y036210D01*
X106411Y036170D01*
X106448Y036128D01*
X106481Y036083D01*
X106510Y036037D01*
X106537Y035988D01*
X106559Y035937D01*
X106579Y035885D01*
X106594Y035831D01*
X106606Y035777D01*
X106614Y035722D01*
X106618Y035667D01*
X106618Y035611D01*
X106614Y035556D01*
X106606Y035501D01*
X106594Y035447D01*
X106579Y035393D01*
X106559Y035341D01*
X106537Y035290D01*
X106510Y035241D01*
X106481Y035195D01*
X106448Y035150D01*
X106411Y035108D01*
X106373Y035068D01*
X106331Y035031D01*
X106287Y034997D01*
X106240Y034967D01*
X106192Y034940D01*
X106142Y034916D01*
X106090Y034896D01*
X106037Y034879D01*
X105983Y034867D01*
X105928Y034858D01*
X105873Y034853D01*
X105817Y034852D01*
X105762Y034855D01*
X105707Y034862D01*
X105652Y034873D01*
X105598Y034887D01*
X105546Y034905D01*
X105495Y034927D01*
X105446Y034953D01*
X105398Y034982D01*
X105353Y035014D01*
X105310Y035049D01*
X105270Y035087D01*
X105232Y035128D01*
X105198Y035172D01*
X105166Y035218D01*
X105138Y035266D01*
X105114Y035316D01*
X105093Y035367D01*
X105075Y035420D01*
X105062Y035474D01*
X105052Y035528D01*
X105046Y035583D01*
X105044Y035639D01*
X112544Y035639D02*
X112546Y035695D01*
X112552Y035750D01*
X112562Y035804D01*
X112575Y035858D01*
X112593Y035911D01*
X112614Y035962D01*
X112638Y036012D01*
X112666Y036060D01*
X112698Y036106D01*
X112732Y036150D01*
X112770Y036191D01*
X112810Y036229D01*
X112853Y036264D01*
X112898Y036296D01*
X112946Y036325D01*
X112995Y036351D01*
X113046Y036373D01*
X113098Y036391D01*
X113152Y036405D01*
X113207Y036416D01*
X113262Y036423D01*
X113317Y036426D01*
X113373Y036425D01*
X113428Y036420D01*
X113483Y036411D01*
X113537Y036399D01*
X113590Y036382D01*
X113642Y036362D01*
X113692Y036338D01*
X113740Y036311D01*
X113787Y036281D01*
X113831Y036247D01*
X113873Y036210D01*
X113911Y036170D01*
X113948Y036128D01*
X113981Y036083D01*
X114010Y036037D01*
X114037Y035988D01*
X114059Y035937D01*
X114079Y035885D01*
X114094Y035831D01*
X114106Y035777D01*
X114114Y035722D01*
X114118Y035667D01*
X114118Y035611D01*
X114114Y035556D01*
X114106Y035501D01*
X114094Y035447D01*
X114079Y035393D01*
X114059Y035341D01*
X114037Y035290D01*
X114010Y035241D01*
X113981Y035195D01*
X113948Y035150D01*
X113911Y035108D01*
X113873Y035068D01*
X113831Y035031D01*
X113787Y034997D01*
X113740Y034967D01*
X113692Y034940D01*
X113642Y034916D01*
X113590Y034896D01*
X113537Y034879D01*
X113483Y034867D01*
X113428Y034858D01*
X113373Y034853D01*
X113317Y034852D01*
X113262Y034855D01*
X113207Y034862D01*
X113152Y034873D01*
X113098Y034887D01*
X113046Y034905D01*
X112995Y034927D01*
X112946Y034953D01*
X112898Y034982D01*
X112853Y035014D01*
X112810Y035049D01*
X112770Y035087D01*
X112732Y035128D01*
X112698Y035172D01*
X112666Y035218D01*
X112638Y035266D01*
X112614Y035316D01*
X112593Y035367D01*
X112575Y035420D01*
X112562Y035474D01*
X112552Y035528D01*
X112546Y035583D01*
X112544Y035639D01*
X120044Y035639D02*
X120046Y035695D01*
X120052Y035750D01*
X120062Y035804D01*
X120075Y035858D01*
X120093Y035911D01*
X120114Y035962D01*
X120138Y036012D01*
X120166Y036060D01*
X120198Y036106D01*
X120232Y036150D01*
X120270Y036191D01*
X120310Y036229D01*
X120353Y036264D01*
X120398Y036296D01*
X120446Y036325D01*
X120495Y036351D01*
X120546Y036373D01*
X120598Y036391D01*
X120652Y036405D01*
X120707Y036416D01*
X120762Y036423D01*
X120817Y036426D01*
X120873Y036425D01*
X120928Y036420D01*
X120983Y036411D01*
X121037Y036399D01*
X121090Y036382D01*
X121142Y036362D01*
X121192Y036338D01*
X121240Y036311D01*
X121287Y036281D01*
X121331Y036247D01*
X121373Y036210D01*
X121411Y036170D01*
X121448Y036128D01*
X121481Y036083D01*
X121510Y036037D01*
X121537Y035988D01*
X121559Y035937D01*
X121579Y035885D01*
X121594Y035831D01*
X121606Y035777D01*
X121614Y035722D01*
X121618Y035667D01*
X121618Y035611D01*
X121614Y035556D01*
X121606Y035501D01*
X121594Y035447D01*
X121579Y035393D01*
X121559Y035341D01*
X121537Y035290D01*
X121510Y035241D01*
X121481Y035195D01*
X121448Y035150D01*
X121411Y035108D01*
X121373Y035068D01*
X121331Y035031D01*
X121287Y034997D01*
X121240Y034967D01*
X121192Y034940D01*
X121142Y034916D01*
X121090Y034896D01*
X121037Y034879D01*
X120983Y034867D01*
X120928Y034858D01*
X120873Y034853D01*
X120817Y034852D01*
X120762Y034855D01*
X120707Y034862D01*
X120652Y034873D01*
X120598Y034887D01*
X120546Y034905D01*
X120495Y034927D01*
X120446Y034953D01*
X120398Y034982D01*
X120353Y035014D01*
X120310Y035049D01*
X120270Y035087D01*
X120232Y035128D01*
X120198Y035172D01*
X120166Y035218D01*
X120138Y035266D01*
X120114Y035316D01*
X120093Y035367D01*
X120075Y035420D01*
X120062Y035474D01*
X120052Y035528D01*
X120046Y035583D01*
X120044Y035639D01*
X127544Y035639D02*
X127546Y035695D01*
X127552Y035750D01*
X127562Y035804D01*
X127575Y035858D01*
X127593Y035911D01*
X127614Y035962D01*
X127638Y036012D01*
X127666Y036060D01*
X127698Y036106D01*
X127732Y036150D01*
X127770Y036191D01*
X127810Y036229D01*
X127853Y036264D01*
X127898Y036296D01*
X127946Y036325D01*
X127995Y036351D01*
X128046Y036373D01*
X128098Y036391D01*
X128152Y036405D01*
X128207Y036416D01*
X128262Y036423D01*
X128317Y036426D01*
X128373Y036425D01*
X128428Y036420D01*
X128483Y036411D01*
X128537Y036399D01*
X128590Y036382D01*
X128642Y036362D01*
X128692Y036338D01*
X128740Y036311D01*
X128787Y036281D01*
X128831Y036247D01*
X128873Y036210D01*
X128911Y036170D01*
X128948Y036128D01*
X128981Y036083D01*
X129010Y036037D01*
X129037Y035988D01*
X129059Y035937D01*
X129079Y035885D01*
X129094Y035831D01*
X129106Y035777D01*
X129114Y035722D01*
X129118Y035667D01*
X129118Y035611D01*
X129114Y035556D01*
X129106Y035501D01*
X129094Y035447D01*
X129079Y035393D01*
X129059Y035341D01*
X129037Y035290D01*
X129010Y035241D01*
X128981Y035195D01*
X128948Y035150D01*
X128911Y035108D01*
X128873Y035068D01*
X128831Y035031D01*
X128787Y034997D01*
X128740Y034967D01*
X128692Y034940D01*
X128642Y034916D01*
X128590Y034896D01*
X128537Y034879D01*
X128483Y034867D01*
X128428Y034858D01*
X128373Y034853D01*
X128317Y034852D01*
X128262Y034855D01*
X128207Y034862D01*
X128152Y034873D01*
X128098Y034887D01*
X128046Y034905D01*
X127995Y034927D01*
X127946Y034953D01*
X127898Y034982D01*
X127853Y035014D01*
X127810Y035049D01*
X127770Y035087D01*
X127732Y035128D01*
X127698Y035172D01*
X127666Y035218D01*
X127638Y035266D01*
X127614Y035316D01*
X127593Y035367D01*
X127575Y035420D01*
X127562Y035474D01*
X127552Y035528D01*
X127546Y035583D01*
X127544Y035639D01*
X135044Y035639D02*
X135046Y035695D01*
X135052Y035750D01*
X135062Y035804D01*
X135075Y035858D01*
X135093Y035911D01*
X135114Y035962D01*
X135138Y036012D01*
X135166Y036060D01*
X135198Y036106D01*
X135232Y036150D01*
X135270Y036191D01*
X135310Y036229D01*
X135353Y036264D01*
X135398Y036296D01*
X135446Y036325D01*
X135495Y036351D01*
X135546Y036373D01*
X135598Y036391D01*
X135652Y036405D01*
X135707Y036416D01*
X135762Y036423D01*
X135817Y036426D01*
X135873Y036425D01*
X135928Y036420D01*
X135983Y036411D01*
X136037Y036399D01*
X136090Y036382D01*
X136142Y036362D01*
X136192Y036338D01*
X136240Y036311D01*
X136287Y036281D01*
X136331Y036247D01*
X136373Y036210D01*
X136411Y036170D01*
X136448Y036128D01*
X136481Y036083D01*
X136510Y036037D01*
X136537Y035988D01*
X136559Y035937D01*
X136579Y035885D01*
X136594Y035831D01*
X136606Y035777D01*
X136614Y035722D01*
X136618Y035667D01*
X136618Y035611D01*
X136614Y035556D01*
X136606Y035501D01*
X136594Y035447D01*
X136579Y035393D01*
X136559Y035341D01*
X136537Y035290D01*
X136510Y035241D01*
X136481Y035195D01*
X136448Y035150D01*
X136411Y035108D01*
X136373Y035068D01*
X136331Y035031D01*
X136287Y034997D01*
X136240Y034967D01*
X136192Y034940D01*
X136142Y034916D01*
X136090Y034896D01*
X136037Y034879D01*
X135983Y034867D01*
X135928Y034858D01*
X135873Y034853D01*
X135817Y034852D01*
X135762Y034855D01*
X135707Y034862D01*
X135652Y034873D01*
X135598Y034887D01*
X135546Y034905D01*
X135495Y034927D01*
X135446Y034953D01*
X135398Y034982D01*
X135353Y035014D01*
X135310Y035049D01*
X135270Y035087D01*
X135232Y035128D01*
X135198Y035172D01*
X135166Y035218D01*
X135138Y035266D01*
X135114Y035316D01*
X135093Y035367D01*
X135075Y035420D01*
X135062Y035474D01*
X135052Y035528D01*
X135046Y035583D01*
X135044Y035639D01*
X146294Y035639D02*
X146296Y035695D01*
X146302Y035750D01*
X146312Y035804D01*
X146325Y035858D01*
X146343Y035911D01*
X146364Y035962D01*
X146388Y036012D01*
X146416Y036060D01*
X146448Y036106D01*
X146482Y036150D01*
X146520Y036191D01*
X146560Y036229D01*
X146603Y036264D01*
X146648Y036296D01*
X146696Y036325D01*
X146745Y036351D01*
X146796Y036373D01*
X146848Y036391D01*
X146902Y036405D01*
X146957Y036416D01*
X147012Y036423D01*
X147067Y036426D01*
X147123Y036425D01*
X147178Y036420D01*
X147233Y036411D01*
X147287Y036399D01*
X147340Y036382D01*
X147392Y036362D01*
X147442Y036338D01*
X147490Y036311D01*
X147537Y036281D01*
X147581Y036247D01*
X147623Y036210D01*
X147661Y036170D01*
X147698Y036128D01*
X147731Y036083D01*
X147760Y036037D01*
X147787Y035988D01*
X147809Y035937D01*
X147829Y035885D01*
X147844Y035831D01*
X147856Y035777D01*
X147864Y035722D01*
X147868Y035667D01*
X147868Y035611D01*
X147864Y035556D01*
X147856Y035501D01*
X147844Y035447D01*
X147829Y035393D01*
X147809Y035341D01*
X147787Y035290D01*
X147760Y035241D01*
X147731Y035195D01*
X147698Y035150D01*
X147661Y035108D01*
X147623Y035068D01*
X147581Y035031D01*
X147537Y034997D01*
X147490Y034967D01*
X147442Y034940D01*
X147392Y034916D01*
X147340Y034896D01*
X147287Y034879D01*
X147233Y034867D01*
X147178Y034858D01*
X147123Y034853D01*
X147067Y034852D01*
X147012Y034855D01*
X146957Y034862D01*
X146902Y034873D01*
X146848Y034887D01*
X146796Y034905D01*
X146745Y034927D01*
X146696Y034953D01*
X146648Y034982D01*
X146603Y035014D01*
X146560Y035049D01*
X146520Y035087D01*
X146482Y035128D01*
X146448Y035172D01*
X146416Y035218D01*
X146388Y035266D01*
X146364Y035316D01*
X146343Y035367D01*
X146325Y035420D01*
X146312Y035474D01*
X146302Y035528D01*
X146296Y035583D01*
X146294Y035639D01*
X138044Y046139D02*
X138046Y046195D01*
X138052Y046250D01*
X138062Y046304D01*
X138075Y046358D01*
X138093Y046411D01*
X138114Y046462D01*
X138138Y046512D01*
X138166Y046560D01*
X138198Y046606D01*
X138232Y046650D01*
X138270Y046691D01*
X138310Y046729D01*
X138353Y046764D01*
X138398Y046796D01*
X138446Y046825D01*
X138495Y046851D01*
X138546Y046873D01*
X138598Y046891D01*
X138652Y046905D01*
X138707Y046916D01*
X138762Y046923D01*
X138817Y046926D01*
X138873Y046925D01*
X138928Y046920D01*
X138983Y046911D01*
X139037Y046899D01*
X139090Y046882D01*
X139142Y046862D01*
X139192Y046838D01*
X139240Y046811D01*
X139287Y046781D01*
X139331Y046747D01*
X139373Y046710D01*
X139411Y046670D01*
X139448Y046628D01*
X139481Y046583D01*
X139510Y046537D01*
X139537Y046488D01*
X139559Y046437D01*
X139579Y046385D01*
X139594Y046331D01*
X139606Y046277D01*
X139614Y046222D01*
X139618Y046167D01*
X139618Y046111D01*
X139614Y046056D01*
X139606Y046001D01*
X139594Y045947D01*
X139579Y045893D01*
X139559Y045841D01*
X139537Y045790D01*
X139510Y045741D01*
X139481Y045695D01*
X139448Y045650D01*
X139411Y045608D01*
X139373Y045568D01*
X139331Y045531D01*
X139287Y045497D01*
X139240Y045467D01*
X139192Y045440D01*
X139142Y045416D01*
X139090Y045396D01*
X139037Y045379D01*
X138983Y045367D01*
X138928Y045358D01*
X138873Y045353D01*
X138817Y045352D01*
X138762Y045355D01*
X138707Y045362D01*
X138652Y045373D01*
X138598Y045387D01*
X138546Y045405D01*
X138495Y045427D01*
X138446Y045453D01*
X138398Y045482D01*
X138353Y045514D01*
X138310Y045549D01*
X138270Y045587D01*
X138232Y045628D01*
X138198Y045672D01*
X138166Y045718D01*
X138138Y045766D01*
X138114Y045816D01*
X138093Y045867D01*
X138075Y045920D01*
X138062Y045974D01*
X138052Y046028D01*
X138046Y046083D01*
X138044Y046139D01*
X130544Y046139D02*
X130546Y046195D01*
X130552Y046250D01*
X130562Y046304D01*
X130575Y046358D01*
X130593Y046411D01*
X130614Y046462D01*
X130638Y046512D01*
X130666Y046560D01*
X130698Y046606D01*
X130732Y046650D01*
X130770Y046691D01*
X130810Y046729D01*
X130853Y046764D01*
X130898Y046796D01*
X130946Y046825D01*
X130995Y046851D01*
X131046Y046873D01*
X131098Y046891D01*
X131152Y046905D01*
X131207Y046916D01*
X131262Y046923D01*
X131317Y046926D01*
X131373Y046925D01*
X131428Y046920D01*
X131483Y046911D01*
X131537Y046899D01*
X131590Y046882D01*
X131642Y046862D01*
X131692Y046838D01*
X131740Y046811D01*
X131787Y046781D01*
X131831Y046747D01*
X131873Y046710D01*
X131911Y046670D01*
X131948Y046628D01*
X131981Y046583D01*
X132010Y046537D01*
X132037Y046488D01*
X132059Y046437D01*
X132079Y046385D01*
X132094Y046331D01*
X132106Y046277D01*
X132114Y046222D01*
X132118Y046167D01*
X132118Y046111D01*
X132114Y046056D01*
X132106Y046001D01*
X132094Y045947D01*
X132079Y045893D01*
X132059Y045841D01*
X132037Y045790D01*
X132010Y045741D01*
X131981Y045695D01*
X131948Y045650D01*
X131911Y045608D01*
X131873Y045568D01*
X131831Y045531D01*
X131787Y045497D01*
X131740Y045467D01*
X131692Y045440D01*
X131642Y045416D01*
X131590Y045396D01*
X131537Y045379D01*
X131483Y045367D01*
X131428Y045358D01*
X131373Y045353D01*
X131317Y045352D01*
X131262Y045355D01*
X131207Y045362D01*
X131152Y045373D01*
X131098Y045387D01*
X131046Y045405D01*
X130995Y045427D01*
X130946Y045453D01*
X130898Y045482D01*
X130853Y045514D01*
X130810Y045549D01*
X130770Y045587D01*
X130732Y045628D01*
X130698Y045672D01*
X130666Y045718D01*
X130638Y045766D01*
X130614Y045816D01*
X130593Y045867D01*
X130575Y045920D01*
X130562Y045974D01*
X130552Y046028D01*
X130546Y046083D01*
X130544Y046139D01*
X123044Y046139D02*
X123046Y046195D01*
X123052Y046250D01*
X123062Y046304D01*
X123075Y046358D01*
X123093Y046411D01*
X123114Y046462D01*
X123138Y046512D01*
X123166Y046560D01*
X123198Y046606D01*
X123232Y046650D01*
X123270Y046691D01*
X123310Y046729D01*
X123353Y046764D01*
X123398Y046796D01*
X123446Y046825D01*
X123495Y046851D01*
X123546Y046873D01*
X123598Y046891D01*
X123652Y046905D01*
X123707Y046916D01*
X123762Y046923D01*
X123817Y046926D01*
X123873Y046925D01*
X123928Y046920D01*
X123983Y046911D01*
X124037Y046899D01*
X124090Y046882D01*
X124142Y046862D01*
X124192Y046838D01*
X124240Y046811D01*
X124287Y046781D01*
X124331Y046747D01*
X124373Y046710D01*
X124411Y046670D01*
X124448Y046628D01*
X124481Y046583D01*
X124510Y046537D01*
X124537Y046488D01*
X124559Y046437D01*
X124579Y046385D01*
X124594Y046331D01*
X124606Y046277D01*
X124614Y046222D01*
X124618Y046167D01*
X124618Y046111D01*
X124614Y046056D01*
X124606Y046001D01*
X124594Y045947D01*
X124579Y045893D01*
X124559Y045841D01*
X124537Y045790D01*
X124510Y045741D01*
X124481Y045695D01*
X124448Y045650D01*
X124411Y045608D01*
X124373Y045568D01*
X124331Y045531D01*
X124287Y045497D01*
X124240Y045467D01*
X124192Y045440D01*
X124142Y045416D01*
X124090Y045396D01*
X124037Y045379D01*
X123983Y045367D01*
X123928Y045358D01*
X123873Y045353D01*
X123817Y045352D01*
X123762Y045355D01*
X123707Y045362D01*
X123652Y045373D01*
X123598Y045387D01*
X123546Y045405D01*
X123495Y045427D01*
X123446Y045453D01*
X123398Y045482D01*
X123353Y045514D01*
X123310Y045549D01*
X123270Y045587D01*
X123232Y045628D01*
X123198Y045672D01*
X123166Y045718D01*
X123138Y045766D01*
X123114Y045816D01*
X123093Y045867D01*
X123075Y045920D01*
X123062Y045974D01*
X123052Y046028D01*
X123046Y046083D01*
X123044Y046139D01*
X115544Y046139D02*
X115546Y046195D01*
X115552Y046250D01*
X115562Y046304D01*
X115575Y046358D01*
X115593Y046411D01*
X115614Y046462D01*
X115638Y046512D01*
X115666Y046560D01*
X115698Y046606D01*
X115732Y046650D01*
X115770Y046691D01*
X115810Y046729D01*
X115853Y046764D01*
X115898Y046796D01*
X115946Y046825D01*
X115995Y046851D01*
X116046Y046873D01*
X116098Y046891D01*
X116152Y046905D01*
X116207Y046916D01*
X116262Y046923D01*
X116317Y046926D01*
X116373Y046925D01*
X116428Y046920D01*
X116483Y046911D01*
X116537Y046899D01*
X116590Y046882D01*
X116642Y046862D01*
X116692Y046838D01*
X116740Y046811D01*
X116787Y046781D01*
X116831Y046747D01*
X116873Y046710D01*
X116911Y046670D01*
X116948Y046628D01*
X116981Y046583D01*
X117010Y046537D01*
X117037Y046488D01*
X117059Y046437D01*
X117079Y046385D01*
X117094Y046331D01*
X117106Y046277D01*
X117114Y046222D01*
X117118Y046167D01*
X117118Y046111D01*
X117114Y046056D01*
X117106Y046001D01*
X117094Y045947D01*
X117079Y045893D01*
X117059Y045841D01*
X117037Y045790D01*
X117010Y045741D01*
X116981Y045695D01*
X116948Y045650D01*
X116911Y045608D01*
X116873Y045568D01*
X116831Y045531D01*
X116787Y045497D01*
X116740Y045467D01*
X116692Y045440D01*
X116642Y045416D01*
X116590Y045396D01*
X116537Y045379D01*
X116483Y045367D01*
X116428Y045358D01*
X116373Y045353D01*
X116317Y045352D01*
X116262Y045355D01*
X116207Y045362D01*
X116152Y045373D01*
X116098Y045387D01*
X116046Y045405D01*
X115995Y045427D01*
X115946Y045453D01*
X115898Y045482D01*
X115853Y045514D01*
X115810Y045549D01*
X115770Y045587D01*
X115732Y045628D01*
X115698Y045672D01*
X115666Y045718D01*
X115638Y045766D01*
X115614Y045816D01*
X115593Y045867D01*
X115575Y045920D01*
X115562Y045974D01*
X115552Y046028D01*
X115546Y046083D01*
X115544Y046139D01*
X198044Y043139D02*
X198046Y043195D01*
X198052Y043250D01*
X198062Y043304D01*
X198075Y043358D01*
X198093Y043411D01*
X198114Y043462D01*
X198138Y043512D01*
X198166Y043560D01*
X198198Y043606D01*
X198232Y043650D01*
X198270Y043691D01*
X198310Y043729D01*
X198353Y043764D01*
X198398Y043796D01*
X198446Y043825D01*
X198495Y043851D01*
X198546Y043873D01*
X198598Y043891D01*
X198652Y043905D01*
X198707Y043916D01*
X198762Y043923D01*
X198817Y043926D01*
X198873Y043925D01*
X198928Y043920D01*
X198983Y043911D01*
X199037Y043899D01*
X199090Y043882D01*
X199142Y043862D01*
X199192Y043838D01*
X199240Y043811D01*
X199287Y043781D01*
X199331Y043747D01*
X199373Y043710D01*
X199411Y043670D01*
X199448Y043628D01*
X199481Y043583D01*
X199510Y043537D01*
X199537Y043488D01*
X199559Y043437D01*
X199579Y043385D01*
X199594Y043331D01*
X199606Y043277D01*
X199614Y043222D01*
X199618Y043167D01*
X199618Y043111D01*
X199614Y043056D01*
X199606Y043001D01*
X199594Y042947D01*
X199579Y042893D01*
X199559Y042841D01*
X199537Y042790D01*
X199510Y042741D01*
X199481Y042695D01*
X199448Y042650D01*
X199411Y042608D01*
X199373Y042568D01*
X199331Y042531D01*
X199287Y042497D01*
X199240Y042467D01*
X199192Y042440D01*
X199142Y042416D01*
X199090Y042396D01*
X199037Y042379D01*
X198983Y042367D01*
X198928Y042358D01*
X198873Y042353D01*
X198817Y042352D01*
X198762Y042355D01*
X198707Y042362D01*
X198652Y042373D01*
X198598Y042387D01*
X198546Y042405D01*
X198495Y042427D01*
X198446Y042453D01*
X198398Y042482D01*
X198353Y042514D01*
X198310Y042549D01*
X198270Y042587D01*
X198232Y042628D01*
X198198Y042672D01*
X198166Y042718D01*
X198138Y042766D01*
X198114Y042816D01*
X198093Y042867D01*
X198075Y042920D01*
X198062Y042974D01*
X198052Y043028D01*
X198046Y043083D01*
X198044Y043139D01*
X205544Y043139D02*
X205546Y043195D01*
X205552Y043250D01*
X205562Y043304D01*
X205575Y043358D01*
X205593Y043411D01*
X205614Y043462D01*
X205638Y043512D01*
X205666Y043560D01*
X205698Y043606D01*
X205732Y043650D01*
X205770Y043691D01*
X205810Y043729D01*
X205853Y043764D01*
X205898Y043796D01*
X205946Y043825D01*
X205995Y043851D01*
X206046Y043873D01*
X206098Y043891D01*
X206152Y043905D01*
X206207Y043916D01*
X206262Y043923D01*
X206317Y043926D01*
X206373Y043925D01*
X206428Y043920D01*
X206483Y043911D01*
X206537Y043899D01*
X206590Y043882D01*
X206642Y043862D01*
X206692Y043838D01*
X206740Y043811D01*
X206787Y043781D01*
X206831Y043747D01*
X206873Y043710D01*
X206911Y043670D01*
X206948Y043628D01*
X206981Y043583D01*
X207010Y043537D01*
X207037Y043488D01*
X207059Y043437D01*
X207079Y043385D01*
X207094Y043331D01*
X207106Y043277D01*
X207114Y043222D01*
X207118Y043167D01*
X207118Y043111D01*
X207114Y043056D01*
X207106Y043001D01*
X207094Y042947D01*
X207079Y042893D01*
X207059Y042841D01*
X207037Y042790D01*
X207010Y042741D01*
X206981Y042695D01*
X206948Y042650D01*
X206911Y042608D01*
X206873Y042568D01*
X206831Y042531D01*
X206787Y042497D01*
X206740Y042467D01*
X206692Y042440D01*
X206642Y042416D01*
X206590Y042396D01*
X206537Y042379D01*
X206483Y042367D01*
X206428Y042358D01*
X206373Y042353D01*
X206317Y042352D01*
X206262Y042355D01*
X206207Y042362D01*
X206152Y042373D01*
X206098Y042387D01*
X206046Y042405D01*
X205995Y042427D01*
X205946Y042453D01*
X205898Y042482D01*
X205853Y042514D01*
X205810Y042549D01*
X205770Y042587D01*
X205732Y042628D01*
X205698Y042672D01*
X205666Y042718D01*
X205638Y042766D01*
X205614Y042816D01*
X205593Y042867D01*
X205575Y042920D01*
X205562Y042974D01*
X205552Y043028D01*
X205546Y043083D01*
X205544Y043139D01*
X213044Y043139D02*
X213046Y043195D01*
X213052Y043250D01*
X213062Y043304D01*
X213075Y043358D01*
X213093Y043411D01*
X213114Y043462D01*
X213138Y043512D01*
X213166Y043560D01*
X213198Y043606D01*
X213232Y043650D01*
X213270Y043691D01*
X213310Y043729D01*
X213353Y043764D01*
X213398Y043796D01*
X213446Y043825D01*
X213495Y043851D01*
X213546Y043873D01*
X213598Y043891D01*
X213652Y043905D01*
X213707Y043916D01*
X213762Y043923D01*
X213817Y043926D01*
X213873Y043925D01*
X213928Y043920D01*
X213983Y043911D01*
X214037Y043899D01*
X214090Y043882D01*
X214142Y043862D01*
X214192Y043838D01*
X214240Y043811D01*
X214287Y043781D01*
X214331Y043747D01*
X214373Y043710D01*
X214411Y043670D01*
X214448Y043628D01*
X214481Y043583D01*
X214510Y043537D01*
X214537Y043488D01*
X214559Y043437D01*
X214579Y043385D01*
X214594Y043331D01*
X214606Y043277D01*
X214614Y043222D01*
X214618Y043167D01*
X214618Y043111D01*
X214614Y043056D01*
X214606Y043001D01*
X214594Y042947D01*
X214579Y042893D01*
X214559Y042841D01*
X214537Y042790D01*
X214510Y042741D01*
X214481Y042695D01*
X214448Y042650D01*
X214411Y042608D01*
X214373Y042568D01*
X214331Y042531D01*
X214287Y042497D01*
X214240Y042467D01*
X214192Y042440D01*
X214142Y042416D01*
X214090Y042396D01*
X214037Y042379D01*
X213983Y042367D01*
X213928Y042358D01*
X213873Y042353D01*
X213817Y042352D01*
X213762Y042355D01*
X213707Y042362D01*
X213652Y042373D01*
X213598Y042387D01*
X213546Y042405D01*
X213495Y042427D01*
X213446Y042453D01*
X213398Y042482D01*
X213353Y042514D01*
X213310Y042549D01*
X213270Y042587D01*
X213232Y042628D01*
X213198Y042672D01*
X213166Y042718D01*
X213138Y042766D01*
X213114Y042816D01*
X213093Y042867D01*
X213075Y042920D01*
X213062Y042974D01*
X213052Y043028D01*
X213046Y043083D01*
X213044Y043139D01*
X220544Y043139D02*
X220546Y043195D01*
X220552Y043250D01*
X220562Y043304D01*
X220575Y043358D01*
X220593Y043411D01*
X220614Y043462D01*
X220638Y043512D01*
X220666Y043560D01*
X220698Y043606D01*
X220732Y043650D01*
X220770Y043691D01*
X220810Y043729D01*
X220853Y043764D01*
X220898Y043796D01*
X220946Y043825D01*
X220995Y043851D01*
X221046Y043873D01*
X221098Y043891D01*
X221152Y043905D01*
X221207Y043916D01*
X221262Y043923D01*
X221317Y043926D01*
X221373Y043925D01*
X221428Y043920D01*
X221483Y043911D01*
X221537Y043899D01*
X221590Y043882D01*
X221642Y043862D01*
X221692Y043838D01*
X221740Y043811D01*
X221787Y043781D01*
X221831Y043747D01*
X221873Y043710D01*
X221911Y043670D01*
X221948Y043628D01*
X221981Y043583D01*
X222010Y043537D01*
X222037Y043488D01*
X222059Y043437D01*
X222079Y043385D01*
X222094Y043331D01*
X222106Y043277D01*
X222114Y043222D01*
X222118Y043167D01*
X222118Y043111D01*
X222114Y043056D01*
X222106Y043001D01*
X222094Y042947D01*
X222079Y042893D01*
X222059Y042841D01*
X222037Y042790D01*
X222010Y042741D01*
X221981Y042695D01*
X221948Y042650D01*
X221911Y042608D01*
X221873Y042568D01*
X221831Y042531D01*
X221787Y042497D01*
X221740Y042467D01*
X221692Y042440D01*
X221642Y042416D01*
X221590Y042396D01*
X221537Y042379D01*
X221483Y042367D01*
X221428Y042358D01*
X221373Y042353D01*
X221317Y042352D01*
X221262Y042355D01*
X221207Y042362D01*
X221152Y042373D01*
X221098Y042387D01*
X221046Y042405D01*
X220995Y042427D01*
X220946Y042453D01*
X220898Y042482D01*
X220853Y042514D01*
X220810Y042549D01*
X220770Y042587D01*
X220732Y042628D01*
X220698Y042672D01*
X220666Y042718D01*
X220638Y042766D01*
X220614Y042816D01*
X220593Y042867D01*
X220575Y042920D01*
X220562Y042974D01*
X220552Y043028D01*
X220546Y043083D01*
X220544Y043139D01*
X228044Y043139D02*
X228046Y043195D01*
X228052Y043250D01*
X228062Y043304D01*
X228075Y043358D01*
X228093Y043411D01*
X228114Y043462D01*
X228138Y043512D01*
X228166Y043560D01*
X228198Y043606D01*
X228232Y043650D01*
X228270Y043691D01*
X228310Y043729D01*
X228353Y043764D01*
X228398Y043796D01*
X228446Y043825D01*
X228495Y043851D01*
X228546Y043873D01*
X228598Y043891D01*
X228652Y043905D01*
X228707Y043916D01*
X228762Y043923D01*
X228817Y043926D01*
X228873Y043925D01*
X228928Y043920D01*
X228983Y043911D01*
X229037Y043899D01*
X229090Y043882D01*
X229142Y043862D01*
X229192Y043838D01*
X229240Y043811D01*
X229287Y043781D01*
X229331Y043747D01*
X229373Y043710D01*
X229411Y043670D01*
X229448Y043628D01*
X229481Y043583D01*
X229510Y043537D01*
X229537Y043488D01*
X229559Y043437D01*
X229579Y043385D01*
X229594Y043331D01*
X229606Y043277D01*
X229614Y043222D01*
X229618Y043167D01*
X229618Y043111D01*
X229614Y043056D01*
X229606Y043001D01*
X229594Y042947D01*
X229579Y042893D01*
X229559Y042841D01*
X229537Y042790D01*
X229510Y042741D01*
X229481Y042695D01*
X229448Y042650D01*
X229411Y042608D01*
X229373Y042568D01*
X229331Y042531D01*
X229287Y042497D01*
X229240Y042467D01*
X229192Y042440D01*
X229142Y042416D01*
X229090Y042396D01*
X229037Y042379D01*
X228983Y042367D01*
X228928Y042358D01*
X228873Y042353D01*
X228817Y042352D01*
X228762Y042355D01*
X228707Y042362D01*
X228652Y042373D01*
X228598Y042387D01*
X228546Y042405D01*
X228495Y042427D01*
X228446Y042453D01*
X228398Y042482D01*
X228353Y042514D01*
X228310Y042549D01*
X228270Y042587D01*
X228232Y042628D01*
X228198Y042672D01*
X228166Y042718D01*
X228138Y042766D01*
X228114Y042816D01*
X228093Y042867D01*
X228075Y042920D01*
X228062Y042974D01*
X228052Y043028D01*
X228046Y043083D01*
X228044Y043139D01*
X228044Y035639D02*
X228046Y035695D01*
X228052Y035750D01*
X228062Y035804D01*
X228075Y035858D01*
X228093Y035911D01*
X228114Y035962D01*
X228138Y036012D01*
X228166Y036060D01*
X228198Y036106D01*
X228232Y036150D01*
X228270Y036191D01*
X228310Y036229D01*
X228353Y036264D01*
X228398Y036296D01*
X228446Y036325D01*
X228495Y036351D01*
X228546Y036373D01*
X228598Y036391D01*
X228652Y036405D01*
X228707Y036416D01*
X228762Y036423D01*
X228817Y036426D01*
X228873Y036425D01*
X228928Y036420D01*
X228983Y036411D01*
X229037Y036399D01*
X229090Y036382D01*
X229142Y036362D01*
X229192Y036338D01*
X229240Y036311D01*
X229287Y036281D01*
X229331Y036247D01*
X229373Y036210D01*
X229411Y036170D01*
X229448Y036128D01*
X229481Y036083D01*
X229510Y036037D01*
X229537Y035988D01*
X229559Y035937D01*
X229579Y035885D01*
X229594Y035831D01*
X229606Y035777D01*
X229614Y035722D01*
X229618Y035667D01*
X229618Y035611D01*
X229614Y035556D01*
X229606Y035501D01*
X229594Y035447D01*
X229579Y035393D01*
X229559Y035341D01*
X229537Y035290D01*
X229510Y035241D01*
X229481Y035195D01*
X229448Y035150D01*
X229411Y035108D01*
X229373Y035068D01*
X229331Y035031D01*
X229287Y034997D01*
X229240Y034967D01*
X229192Y034940D01*
X229142Y034916D01*
X229090Y034896D01*
X229037Y034879D01*
X228983Y034867D01*
X228928Y034858D01*
X228873Y034853D01*
X228817Y034852D01*
X228762Y034855D01*
X228707Y034862D01*
X228652Y034873D01*
X228598Y034887D01*
X228546Y034905D01*
X228495Y034927D01*
X228446Y034953D01*
X228398Y034982D01*
X228353Y035014D01*
X228310Y035049D01*
X228270Y035087D01*
X228232Y035128D01*
X228198Y035172D01*
X228166Y035218D01*
X228138Y035266D01*
X228114Y035316D01*
X228093Y035367D01*
X228075Y035420D01*
X228062Y035474D01*
X228052Y035528D01*
X228046Y035583D01*
X228044Y035639D01*
X220544Y035639D02*
X220546Y035695D01*
X220552Y035750D01*
X220562Y035804D01*
X220575Y035858D01*
X220593Y035911D01*
X220614Y035962D01*
X220638Y036012D01*
X220666Y036060D01*
X220698Y036106D01*
X220732Y036150D01*
X220770Y036191D01*
X220810Y036229D01*
X220853Y036264D01*
X220898Y036296D01*
X220946Y036325D01*
X220995Y036351D01*
X221046Y036373D01*
X221098Y036391D01*
X221152Y036405D01*
X221207Y036416D01*
X221262Y036423D01*
X221317Y036426D01*
X221373Y036425D01*
X221428Y036420D01*
X221483Y036411D01*
X221537Y036399D01*
X221590Y036382D01*
X221642Y036362D01*
X221692Y036338D01*
X221740Y036311D01*
X221787Y036281D01*
X221831Y036247D01*
X221873Y036210D01*
X221911Y036170D01*
X221948Y036128D01*
X221981Y036083D01*
X222010Y036037D01*
X222037Y035988D01*
X222059Y035937D01*
X222079Y035885D01*
X222094Y035831D01*
X222106Y035777D01*
X222114Y035722D01*
X222118Y035667D01*
X222118Y035611D01*
X222114Y035556D01*
X222106Y035501D01*
X222094Y035447D01*
X222079Y035393D01*
X222059Y035341D01*
X222037Y035290D01*
X222010Y035241D01*
X221981Y035195D01*
X221948Y035150D01*
X221911Y035108D01*
X221873Y035068D01*
X221831Y035031D01*
X221787Y034997D01*
X221740Y034967D01*
X221692Y034940D01*
X221642Y034916D01*
X221590Y034896D01*
X221537Y034879D01*
X221483Y034867D01*
X221428Y034858D01*
X221373Y034853D01*
X221317Y034852D01*
X221262Y034855D01*
X221207Y034862D01*
X221152Y034873D01*
X221098Y034887D01*
X221046Y034905D01*
X220995Y034927D01*
X220946Y034953D01*
X220898Y034982D01*
X220853Y035014D01*
X220810Y035049D01*
X220770Y035087D01*
X220732Y035128D01*
X220698Y035172D01*
X220666Y035218D01*
X220638Y035266D01*
X220614Y035316D01*
X220593Y035367D01*
X220575Y035420D01*
X220562Y035474D01*
X220552Y035528D01*
X220546Y035583D01*
X220544Y035639D01*
X213044Y035639D02*
X213046Y035695D01*
X213052Y035750D01*
X213062Y035804D01*
X213075Y035858D01*
X213093Y035911D01*
X213114Y035962D01*
X213138Y036012D01*
X213166Y036060D01*
X213198Y036106D01*
X213232Y036150D01*
X213270Y036191D01*
X213310Y036229D01*
X213353Y036264D01*
X213398Y036296D01*
X213446Y036325D01*
X213495Y036351D01*
X213546Y036373D01*
X213598Y036391D01*
X213652Y036405D01*
X213707Y036416D01*
X213762Y036423D01*
X213817Y036426D01*
X213873Y036425D01*
X213928Y036420D01*
X213983Y036411D01*
X214037Y036399D01*
X214090Y036382D01*
X214142Y036362D01*
X214192Y036338D01*
X214240Y036311D01*
X214287Y036281D01*
X214331Y036247D01*
X214373Y036210D01*
X214411Y036170D01*
X214448Y036128D01*
X214481Y036083D01*
X214510Y036037D01*
X214537Y035988D01*
X214559Y035937D01*
X214579Y035885D01*
X214594Y035831D01*
X214606Y035777D01*
X214614Y035722D01*
X214618Y035667D01*
X214618Y035611D01*
X214614Y035556D01*
X214606Y035501D01*
X214594Y035447D01*
X214579Y035393D01*
X214559Y035341D01*
X214537Y035290D01*
X214510Y035241D01*
X214481Y035195D01*
X214448Y035150D01*
X214411Y035108D01*
X214373Y035068D01*
X214331Y035031D01*
X214287Y034997D01*
X214240Y034967D01*
X214192Y034940D01*
X214142Y034916D01*
X214090Y034896D01*
X214037Y034879D01*
X213983Y034867D01*
X213928Y034858D01*
X213873Y034853D01*
X213817Y034852D01*
X213762Y034855D01*
X213707Y034862D01*
X213652Y034873D01*
X213598Y034887D01*
X213546Y034905D01*
X213495Y034927D01*
X213446Y034953D01*
X213398Y034982D01*
X213353Y035014D01*
X213310Y035049D01*
X213270Y035087D01*
X213232Y035128D01*
X213198Y035172D01*
X213166Y035218D01*
X213138Y035266D01*
X213114Y035316D01*
X213093Y035367D01*
X213075Y035420D01*
X213062Y035474D01*
X213052Y035528D01*
X213046Y035583D01*
X213044Y035639D01*
X205544Y035639D02*
X205546Y035695D01*
X205552Y035750D01*
X205562Y035804D01*
X205575Y035858D01*
X205593Y035911D01*
X205614Y035962D01*
X205638Y036012D01*
X205666Y036060D01*
X205698Y036106D01*
X205732Y036150D01*
X205770Y036191D01*
X205810Y036229D01*
X205853Y036264D01*
X205898Y036296D01*
X205946Y036325D01*
X205995Y036351D01*
X206046Y036373D01*
X206098Y036391D01*
X206152Y036405D01*
X206207Y036416D01*
X206262Y036423D01*
X206317Y036426D01*
X206373Y036425D01*
X206428Y036420D01*
X206483Y036411D01*
X206537Y036399D01*
X206590Y036382D01*
X206642Y036362D01*
X206692Y036338D01*
X206740Y036311D01*
X206787Y036281D01*
X206831Y036247D01*
X206873Y036210D01*
X206911Y036170D01*
X206948Y036128D01*
X206981Y036083D01*
X207010Y036037D01*
X207037Y035988D01*
X207059Y035937D01*
X207079Y035885D01*
X207094Y035831D01*
X207106Y035777D01*
X207114Y035722D01*
X207118Y035667D01*
X207118Y035611D01*
X207114Y035556D01*
X207106Y035501D01*
X207094Y035447D01*
X207079Y035393D01*
X207059Y035341D01*
X207037Y035290D01*
X207010Y035241D01*
X206981Y035195D01*
X206948Y035150D01*
X206911Y035108D01*
X206873Y035068D01*
X206831Y035031D01*
X206787Y034997D01*
X206740Y034967D01*
X206692Y034940D01*
X206642Y034916D01*
X206590Y034896D01*
X206537Y034879D01*
X206483Y034867D01*
X206428Y034858D01*
X206373Y034853D01*
X206317Y034852D01*
X206262Y034855D01*
X206207Y034862D01*
X206152Y034873D01*
X206098Y034887D01*
X206046Y034905D01*
X205995Y034927D01*
X205946Y034953D01*
X205898Y034982D01*
X205853Y035014D01*
X205810Y035049D01*
X205770Y035087D01*
X205732Y035128D01*
X205698Y035172D01*
X205666Y035218D01*
X205638Y035266D01*
X205614Y035316D01*
X205593Y035367D01*
X205575Y035420D01*
X205562Y035474D01*
X205552Y035528D01*
X205546Y035583D01*
X205544Y035639D01*
X205544Y028139D02*
X205546Y028195D01*
X205552Y028250D01*
X205562Y028304D01*
X205575Y028358D01*
X205593Y028411D01*
X205614Y028462D01*
X205638Y028512D01*
X205666Y028560D01*
X205698Y028606D01*
X205732Y028650D01*
X205770Y028691D01*
X205810Y028729D01*
X205853Y028764D01*
X205898Y028796D01*
X205946Y028825D01*
X205995Y028851D01*
X206046Y028873D01*
X206098Y028891D01*
X206152Y028905D01*
X206207Y028916D01*
X206262Y028923D01*
X206317Y028926D01*
X206373Y028925D01*
X206428Y028920D01*
X206483Y028911D01*
X206537Y028899D01*
X206590Y028882D01*
X206642Y028862D01*
X206692Y028838D01*
X206740Y028811D01*
X206787Y028781D01*
X206831Y028747D01*
X206873Y028710D01*
X206911Y028670D01*
X206948Y028628D01*
X206981Y028583D01*
X207010Y028537D01*
X207037Y028488D01*
X207059Y028437D01*
X207079Y028385D01*
X207094Y028331D01*
X207106Y028277D01*
X207114Y028222D01*
X207118Y028167D01*
X207118Y028111D01*
X207114Y028056D01*
X207106Y028001D01*
X207094Y027947D01*
X207079Y027893D01*
X207059Y027841D01*
X207037Y027790D01*
X207010Y027741D01*
X206981Y027695D01*
X206948Y027650D01*
X206911Y027608D01*
X206873Y027568D01*
X206831Y027531D01*
X206787Y027497D01*
X206740Y027467D01*
X206692Y027440D01*
X206642Y027416D01*
X206590Y027396D01*
X206537Y027379D01*
X206483Y027367D01*
X206428Y027358D01*
X206373Y027353D01*
X206317Y027352D01*
X206262Y027355D01*
X206207Y027362D01*
X206152Y027373D01*
X206098Y027387D01*
X206046Y027405D01*
X205995Y027427D01*
X205946Y027453D01*
X205898Y027482D01*
X205853Y027514D01*
X205810Y027549D01*
X205770Y027587D01*
X205732Y027628D01*
X205698Y027672D01*
X205666Y027718D01*
X205638Y027766D01*
X205614Y027816D01*
X205593Y027867D01*
X205575Y027920D01*
X205562Y027974D01*
X205552Y028028D01*
X205546Y028083D01*
X205544Y028139D01*
X213044Y028139D02*
X213046Y028195D01*
X213052Y028250D01*
X213062Y028304D01*
X213075Y028358D01*
X213093Y028411D01*
X213114Y028462D01*
X213138Y028512D01*
X213166Y028560D01*
X213198Y028606D01*
X213232Y028650D01*
X213270Y028691D01*
X213310Y028729D01*
X213353Y028764D01*
X213398Y028796D01*
X213446Y028825D01*
X213495Y028851D01*
X213546Y028873D01*
X213598Y028891D01*
X213652Y028905D01*
X213707Y028916D01*
X213762Y028923D01*
X213817Y028926D01*
X213873Y028925D01*
X213928Y028920D01*
X213983Y028911D01*
X214037Y028899D01*
X214090Y028882D01*
X214142Y028862D01*
X214192Y028838D01*
X214240Y028811D01*
X214287Y028781D01*
X214331Y028747D01*
X214373Y028710D01*
X214411Y028670D01*
X214448Y028628D01*
X214481Y028583D01*
X214510Y028537D01*
X214537Y028488D01*
X214559Y028437D01*
X214579Y028385D01*
X214594Y028331D01*
X214606Y028277D01*
X214614Y028222D01*
X214618Y028167D01*
X214618Y028111D01*
X214614Y028056D01*
X214606Y028001D01*
X214594Y027947D01*
X214579Y027893D01*
X214559Y027841D01*
X214537Y027790D01*
X214510Y027741D01*
X214481Y027695D01*
X214448Y027650D01*
X214411Y027608D01*
X214373Y027568D01*
X214331Y027531D01*
X214287Y027497D01*
X214240Y027467D01*
X214192Y027440D01*
X214142Y027416D01*
X214090Y027396D01*
X214037Y027379D01*
X213983Y027367D01*
X213928Y027358D01*
X213873Y027353D01*
X213817Y027352D01*
X213762Y027355D01*
X213707Y027362D01*
X213652Y027373D01*
X213598Y027387D01*
X213546Y027405D01*
X213495Y027427D01*
X213446Y027453D01*
X213398Y027482D01*
X213353Y027514D01*
X213310Y027549D01*
X213270Y027587D01*
X213232Y027628D01*
X213198Y027672D01*
X213166Y027718D01*
X213138Y027766D01*
X213114Y027816D01*
X213093Y027867D01*
X213075Y027920D01*
X213062Y027974D01*
X213052Y028028D01*
X213046Y028083D01*
X213044Y028139D01*
X220544Y028139D02*
X220546Y028195D01*
X220552Y028250D01*
X220562Y028304D01*
X220575Y028358D01*
X220593Y028411D01*
X220614Y028462D01*
X220638Y028512D01*
X220666Y028560D01*
X220698Y028606D01*
X220732Y028650D01*
X220770Y028691D01*
X220810Y028729D01*
X220853Y028764D01*
X220898Y028796D01*
X220946Y028825D01*
X220995Y028851D01*
X221046Y028873D01*
X221098Y028891D01*
X221152Y028905D01*
X221207Y028916D01*
X221262Y028923D01*
X221317Y028926D01*
X221373Y028925D01*
X221428Y028920D01*
X221483Y028911D01*
X221537Y028899D01*
X221590Y028882D01*
X221642Y028862D01*
X221692Y028838D01*
X221740Y028811D01*
X221787Y028781D01*
X221831Y028747D01*
X221873Y028710D01*
X221911Y028670D01*
X221948Y028628D01*
X221981Y028583D01*
X222010Y028537D01*
X222037Y028488D01*
X222059Y028437D01*
X222079Y028385D01*
X222094Y028331D01*
X222106Y028277D01*
X222114Y028222D01*
X222118Y028167D01*
X222118Y028111D01*
X222114Y028056D01*
X222106Y028001D01*
X222094Y027947D01*
X222079Y027893D01*
X222059Y027841D01*
X222037Y027790D01*
X222010Y027741D01*
X221981Y027695D01*
X221948Y027650D01*
X221911Y027608D01*
X221873Y027568D01*
X221831Y027531D01*
X221787Y027497D01*
X221740Y027467D01*
X221692Y027440D01*
X221642Y027416D01*
X221590Y027396D01*
X221537Y027379D01*
X221483Y027367D01*
X221428Y027358D01*
X221373Y027353D01*
X221317Y027352D01*
X221262Y027355D01*
X221207Y027362D01*
X221152Y027373D01*
X221098Y027387D01*
X221046Y027405D01*
X220995Y027427D01*
X220946Y027453D01*
X220898Y027482D01*
X220853Y027514D01*
X220810Y027549D01*
X220770Y027587D01*
X220732Y027628D01*
X220698Y027672D01*
X220666Y027718D01*
X220638Y027766D01*
X220614Y027816D01*
X220593Y027867D01*
X220575Y027920D01*
X220562Y027974D01*
X220552Y028028D01*
X220546Y028083D01*
X220544Y028139D01*
X228044Y028139D02*
X228046Y028195D01*
X228052Y028250D01*
X228062Y028304D01*
X228075Y028358D01*
X228093Y028411D01*
X228114Y028462D01*
X228138Y028512D01*
X228166Y028560D01*
X228198Y028606D01*
X228232Y028650D01*
X228270Y028691D01*
X228310Y028729D01*
X228353Y028764D01*
X228398Y028796D01*
X228446Y028825D01*
X228495Y028851D01*
X228546Y028873D01*
X228598Y028891D01*
X228652Y028905D01*
X228707Y028916D01*
X228762Y028923D01*
X228817Y028926D01*
X228873Y028925D01*
X228928Y028920D01*
X228983Y028911D01*
X229037Y028899D01*
X229090Y028882D01*
X229142Y028862D01*
X229192Y028838D01*
X229240Y028811D01*
X229287Y028781D01*
X229331Y028747D01*
X229373Y028710D01*
X229411Y028670D01*
X229448Y028628D01*
X229481Y028583D01*
X229510Y028537D01*
X229537Y028488D01*
X229559Y028437D01*
X229579Y028385D01*
X229594Y028331D01*
X229606Y028277D01*
X229614Y028222D01*
X229618Y028167D01*
X229618Y028111D01*
X229614Y028056D01*
X229606Y028001D01*
X229594Y027947D01*
X229579Y027893D01*
X229559Y027841D01*
X229537Y027790D01*
X229510Y027741D01*
X229481Y027695D01*
X229448Y027650D01*
X229411Y027608D01*
X229373Y027568D01*
X229331Y027531D01*
X229287Y027497D01*
X229240Y027467D01*
X229192Y027440D01*
X229142Y027416D01*
X229090Y027396D01*
X229037Y027379D01*
X228983Y027367D01*
X228928Y027358D01*
X228873Y027353D01*
X228817Y027352D01*
X228762Y027355D01*
X228707Y027362D01*
X228652Y027373D01*
X228598Y027387D01*
X228546Y027405D01*
X228495Y027427D01*
X228446Y027453D01*
X228398Y027482D01*
X228353Y027514D01*
X228310Y027549D01*
X228270Y027587D01*
X228232Y027628D01*
X228198Y027672D01*
X228166Y027718D01*
X228138Y027766D01*
X228114Y027816D01*
X228093Y027867D01*
X228075Y027920D01*
X228062Y027974D01*
X228052Y028028D01*
X228046Y028083D01*
X228044Y028139D01*
X228044Y020639D02*
X228046Y020695D01*
X228052Y020750D01*
X228062Y020804D01*
X228075Y020858D01*
X228093Y020911D01*
X228114Y020962D01*
X228138Y021012D01*
X228166Y021060D01*
X228198Y021106D01*
X228232Y021150D01*
X228270Y021191D01*
X228310Y021229D01*
X228353Y021264D01*
X228398Y021296D01*
X228446Y021325D01*
X228495Y021351D01*
X228546Y021373D01*
X228598Y021391D01*
X228652Y021405D01*
X228707Y021416D01*
X228762Y021423D01*
X228817Y021426D01*
X228873Y021425D01*
X228928Y021420D01*
X228983Y021411D01*
X229037Y021399D01*
X229090Y021382D01*
X229142Y021362D01*
X229192Y021338D01*
X229240Y021311D01*
X229287Y021281D01*
X229331Y021247D01*
X229373Y021210D01*
X229411Y021170D01*
X229448Y021128D01*
X229481Y021083D01*
X229510Y021037D01*
X229537Y020988D01*
X229559Y020937D01*
X229579Y020885D01*
X229594Y020831D01*
X229606Y020777D01*
X229614Y020722D01*
X229618Y020667D01*
X229618Y020611D01*
X229614Y020556D01*
X229606Y020501D01*
X229594Y020447D01*
X229579Y020393D01*
X229559Y020341D01*
X229537Y020290D01*
X229510Y020241D01*
X229481Y020195D01*
X229448Y020150D01*
X229411Y020108D01*
X229373Y020068D01*
X229331Y020031D01*
X229287Y019997D01*
X229240Y019967D01*
X229192Y019940D01*
X229142Y019916D01*
X229090Y019896D01*
X229037Y019879D01*
X228983Y019867D01*
X228928Y019858D01*
X228873Y019853D01*
X228817Y019852D01*
X228762Y019855D01*
X228707Y019862D01*
X228652Y019873D01*
X228598Y019887D01*
X228546Y019905D01*
X228495Y019927D01*
X228446Y019953D01*
X228398Y019982D01*
X228353Y020014D01*
X228310Y020049D01*
X228270Y020087D01*
X228232Y020128D01*
X228198Y020172D01*
X228166Y020218D01*
X228138Y020266D01*
X228114Y020316D01*
X228093Y020367D01*
X228075Y020420D01*
X228062Y020474D01*
X228052Y020528D01*
X228046Y020583D01*
X228044Y020639D01*
X220544Y020639D02*
X220546Y020695D01*
X220552Y020750D01*
X220562Y020804D01*
X220575Y020858D01*
X220593Y020911D01*
X220614Y020962D01*
X220638Y021012D01*
X220666Y021060D01*
X220698Y021106D01*
X220732Y021150D01*
X220770Y021191D01*
X220810Y021229D01*
X220853Y021264D01*
X220898Y021296D01*
X220946Y021325D01*
X220995Y021351D01*
X221046Y021373D01*
X221098Y021391D01*
X221152Y021405D01*
X221207Y021416D01*
X221262Y021423D01*
X221317Y021426D01*
X221373Y021425D01*
X221428Y021420D01*
X221483Y021411D01*
X221537Y021399D01*
X221590Y021382D01*
X221642Y021362D01*
X221692Y021338D01*
X221740Y021311D01*
X221787Y021281D01*
X221831Y021247D01*
X221873Y021210D01*
X221911Y021170D01*
X221948Y021128D01*
X221981Y021083D01*
X222010Y021037D01*
X222037Y020988D01*
X222059Y020937D01*
X222079Y020885D01*
X222094Y020831D01*
X222106Y020777D01*
X222114Y020722D01*
X222118Y020667D01*
X222118Y020611D01*
X222114Y020556D01*
X222106Y020501D01*
X222094Y020447D01*
X222079Y020393D01*
X222059Y020341D01*
X222037Y020290D01*
X222010Y020241D01*
X221981Y020195D01*
X221948Y020150D01*
X221911Y020108D01*
X221873Y020068D01*
X221831Y020031D01*
X221787Y019997D01*
X221740Y019967D01*
X221692Y019940D01*
X221642Y019916D01*
X221590Y019896D01*
X221537Y019879D01*
X221483Y019867D01*
X221428Y019858D01*
X221373Y019853D01*
X221317Y019852D01*
X221262Y019855D01*
X221207Y019862D01*
X221152Y019873D01*
X221098Y019887D01*
X221046Y019905D01*
X220995Y019927D01*
X220946Y019953D01*
X220898Y019982D01*
X220853Y020014D01*
X220810Y020049D01*
X220770Y020087D01*
X220732Y020128D01*
X220698Y020172D01*
X220666Y020218D01*
X220638Y020266D01*
X220614Y020316D01*
X220593Y020367D01*
X220575Y020420D01*
X220562Y020474D01*
X220552Y020528D01*
X220546Y020583D01*
X220544Y020639D01*
X213044Y020639D02*
X213046Y020695D01*
X213052Y020750D01*
X213062Y020804D01*
X213075Y020858D01*
X213093Y020911D01*
X213114Y020962D01*
X213138Y021012D01*
X213166Y021060D01*
X213198Y021106D01*
X213232Y021150D01*
X213270Y021191D01*
X213310Y021229D01*
X213353Y021264D01*
X213398Y021296D01*
X213446Y021325D01*
X213495Y021351D01*
X213546Y021373D01*
X213598Y021391D01*
X213652Y021405D01*
X213707Y021416D01*
X213762Y021423D01*
X213817Y021426D01*
X213873Y021425D01*
X213928Y021420D01*
X213983Y021411D01*
X214037Y021399D01*
X214090Y021382D01*
X214142Y021362D01*
X214192Y021338D01*
X214240Y021311D01*
X214287Y021281D01*
X214331Y021247D01*
X214373Y021210D01*
X214411Y021170D01*
X214448Y021128D01*
X214481Y021083D01*
X214510Y021037D01*
X214537Y020988D01*
X214559Y020937D01*
X214579Y020885D01*
X214594Y020831D01*
X214606Y020777D01*
X214614Y020722D01*
X214618Y020667D01*
X214618Y020611D01*
X214614Y020556D01*
X214606Y020501D01*
X214594Y020447D01*
X214579Y020393D01*
X214559Y020341D01*
X214537Y020290D01*
X214510Y020241D01*
X214481Y020195D01*
X214448Y020150D01*
X214411Y020108D01*
X214373Y020068D01*
X214331Y020031D01*
X214287Y019997D01*
X214240Y019967D01*
X214192Y019940D01*
X214142Y019916D01*
X214090Y019896D01*
X214037Y019879D01*
X213983Y019867D01*
X213928Y019858D01*
X213873Y019853D01*
X213817Y019852D01*
X213762Y019855D01*
X213707Y019862D01*
X213652Y019873D01*
X213598Y019887D01*
X213546Y019905D01*
X213495Y019927D01*
X213446Y019953D01*
X213398Y019982D01*
X213353Y020014D01*
X213310Y020049D01*
X213270Y020087D01*
X213232Y020128D01*
X213198Y020172D01*
X213166Y020218D01*
X213138Y020266D01*
X213114Y020316D01*
X213093Y020367D01*
X213075Y020420D01*
X213062Y020474D01*
X213052Y020528D01*
X213046Y020583D01*
X213044Y020639D01*
X205544Y020639D02*
X205546Y020695D01*
X205552Y020750D01*
X205562Y020804D01*
X205575Y020858D01*
X205593Y020911D01*
X205614Y020962D01*
X205638Y021012D01*
X205666Y021060D01*
X205698Y021106D01*
X205732Y021150D01*
X205770Y021191D01*
X205810Y021229D01*
X205853Y021264D01*
X205898Y021296D01*
X205946Y021325D01*
X205995Y021351D01*
X206046Y021373D01*
X206098Y021391D01*
X206152Y021405D01*
X206207Y021416D01*
X206262Y021423D01*
X206317Y021426D01*
X206373Y021425D01*
X206428Y021420D01*
X206483Y021411D01*
X206537Y021399D01*
X206590Y021382D01*
X206642Y021362D01*
X206692Y021338D01*
X206740Y021311D01*
X206787Y021281D01*
X206831Y021247D01*
X206873Y021210D01*
X206911Y021170D01*
X206948Y021128D01*
X206981Y021083D01*
X207010Y021037D01*
X207037Y020988D01*
X207059Y020937D01*
X207079Y020885D01*
X207094Y020831D01*
X207106Y020777D01*
X207114Y020722D01*
X207118Y020667D01*
X207118Y020611D01*
X207114Y020556D01*
X207106Y020501D01*
X207094Y020447D01*
X207079Y020393D01*
X207059Y020341D01*
X207037Y020290D01*
X207010Y020241D01*
X206981Y020195D01*
X206948Y020150D01*
X206911Y020108D01*
X206873Y020068D01*
X206831Y020031D01*
X206787Y019997D01*
X206740Y019967D01*
X206692Y019940D01*
X206642Y019916D01*
X206590Y019896D01*
X206537Y019879D01*
X206483Y019867D01*
X206428Y019858D01*
X206373Y019853D01*
X206317Y019852D01*
X206262Y019855D01*
X206207Y019862D01*
X206152Y019873D01*
X206098Y019887D01*
X206046Y019905D01*
X205995Y019927D01*
X205946Y019953D01*
X205898Y019982D01*
X205853Y020014D01*
X205810Y020049D01*
X205770Y020087D01*
X205732Y020128D01*
X205698Y020172D01*
X205666Y020218D01*
X205638Y020266D01*
X205614Y020316D01*
X205593Y020367D01*
X205575Y020420D01*
X205562Y020474D01*
X205552Y020528D01*
X205546Y020583D01*
X205544Y020639D01*
X205544Y013139D02*
X205546Y013195D01*
X205552Y013250D01*
X205562Y013304D01*
X205575Y013358D01*
X205593Y013411D01*
X205614Y013462D01*
X205638Y013512D01*
X205666Y013560D01*
X205698Y013606D01*
X205732Y013650D01*
X205770Y013691D01*
X205810Y013729D01*
X205853Y013764D01*
X205898Y013796D01*
X205946Y013825D01*
X205995Y013851D01*
X206046Y013873D01*
X206098Y013891D01*
X206152Y013905D01*
X206207Y013916D01*
X206262Y013923D01*
X206317Y013926D01*
X206373Y013925D01*
X206428Y013920D01*
X206483Y013911D01*
X206537Y013899D01*
X206590Y013882D01*
X206642Y013862D01*
X206692Y013838D01*
X206740Y013811D01*
X206787Y013781D01*
X206831Y013747D01*
X206873Y013710D01*
X206911Y013670D01*
X206948Y013628D01*
X206981Y013583D01*
X207010Y013537D01*
X207037Y013488D01*
X207059Y013437D01*
X207079Y013385D01*
X207094Y013331D01*
X207106Y013277D01*
X207114Y013222D01*
X207118Y013167D01*
X207118Y013111D01*
X207114Y013056D01*
X207106Y013001D01*
X207094Y012947D01*
X207079Y012893D01*
X207059Y012841D01*
X207037Y012790D01*
X207010Y012741D01*
X206981Y012695D01*
X206948Y012650D01*
X206911Y012608D01*
X206873Y012568D01*
X206831Y012531D01*
X206787Y012497D01*
X206740Y012467D01*
X206692Y012440D01*
X206642Y012416D01*
X206590Y012396D01*
X206537Y012379D01*
X206483Y012367D01*
X206428Y012358D01*
X206373Y012353D01*
X206317Y012352D01*
X206262Y012355D01*
X206207Y012362D01*
X206152Y012373D01*
X206098Y012387D01*
X206046Y012405D01*
X205995Y012427D01*
X205946Y012453D01*
X205898Y012482D01*
X205853Y012514D01*
X205810Y012549D01*
X205770Y012587D01*
X205732Y012628D01*
X205698Y012672D01*
X205666Y012718D01*
X205638Y012766D01*
X205614Y012816D01*
X205593Y012867D01*
X205575Y012920D01*
X205562Y012974D01*
X205552Y013028D01*
X205546Y013083D01*
X205544Y013139D01*
X213044Y013139D02*
X213046Y013195D01*
X213052Y013250D01*
X213062Y013304D01*
X213075Y013358D01*
X213093Y013411D01*
X213114Y013462D01*
X213138Y013512D01*
X213166Y013560D01*
X213198Y013606D01*
X213232Y013650D01*
X213270Y013691D01*
X213310Y013729D01*
X213353Y013764D01*
X213398Y013796D01*
X213446Y013825D01*
X213495Y013851D01*
X213546Y013873D01*
X213598Y013891D01*
X213652Y013905D01*
X213707Y013916D01*
X213762Y013923D01*
X213817Y013926D01*
X213873Y013925D01*
X213928Y013920D01*
X213983Y013911D01*
X214037Y013899D01*
X214090Y013882D01*
X214142Y013862D01*
X214192Y013838D01*
X214240Y013811D01*
X214287Y013781D01*
X214331Y013747D01*
X214373Y013710D01*
X214411Y013670D01*
X214448Y013628D01*
X214481Y013583D01*
X214510Y013537D01*
X214537Y013488D01*
X214559Y013437D01*
X214579Y013385D01*
X214594Y013331D01*
X214606Y013277D01*
X214614Y013222D01*
X214618Y013167D01*
X214618Y013111D01*
X214614Y013056D01*
X214606Y013001D01*
X214594Y012947D01*
X214579Y012893D01*
X214559Y012841D01*
X214537Y012790D01*
X214510Y012741D01*
X214481Y012695D01*
X214448Y012650D01*
X214411Y012608D01*
X214373Y012568D01*
X214331Y012531D01*
X214287Y012497D01*
X214240Y012467D01*
X214192Y012440D01*
X214142Y012416D01*
X214090Y012396D01*
X214037Y012379D01*
X213983Y012367D01*
X213928Y012358D01*
X213873Y012353D01*
X213817Y012352D01*
X213762Y012355D01*
X213707Y012362D01*
X213652Y012373D01*
X213598Y012387D01*
X213546Y012405D01*
X213495Y012427D01*
X213446Y012453D01*
X213398Y012482D01*
X213353Y012514D01*
X213310Y012549D01*
X213270Y012587D01*
X213232Y012628D01*
X213198Y012672D01*
X213166Y012718D01*
X213138Y012766D01*
X213114Y012816D01*
X213093Y012867D01*
X213075Y012920D01*
X213062Y012974D01*
X213052Y013028D01*
X213046Y013083D01*
X213044Y013139D01*
X220544Y013139D02*
X220546Y013195D01*
X220552Y013250D01*
X220562Y013304D01*
X220575Y013358D01*
X220593Y013411D01*
X220614Y013462D01*
X220638Y013512D01*
X220666Y013560D01*
X220698Y013606D01*
X220732Y013650D01*
X220770Y013691D01*
X220810Y013729D01*
X220853Y013764D01*
X220898Y013796D01*
X220946Y013825D01*
X220995Y013851D01*
X221046Y013873D01*
X221098Y013891D01*
X221152Y013905D01*
X221207Y013916D01*
X221262Y013923D01*
X221317Y013926D01*
X221373Y013925D01*
X221428Y013920D01*
X221483Y013911D01*
X221537Y013899D01*
X221590Y013882D01*
X221642Y013862D01*
X221692Y013838D01*
X221740Y013811D01*
X221787Y013781D01*
X221831Y013747D01*
X221873Y013710D01*
X221911Y013670D01*
X221948Y013628D01*
X221981Y013583D01*
X222010Y013537D01*
X222037Y013488D01*
X222059Y013437D01*
X222079Y013385D01*
X222094Y013331D01*
X222106Y013277D01*
X222114Y013222D01*
X222118Y013167D01*
X222118Y013111D01*
X222114Y013056D01*
X222106Y013001D01*
X222094Y012947D01*
X222079Y012893D01*
X222059Y012841D01*
X222037Y012790D01*
X222010Y012741D01*
X221981Y012695D01*
X221948Y012650D01*
X221911Y012608D01*
X221873Y012568D01*
X221831Y012531D01*
X221787Y012497D01*
X221740Y012467D01*
X221692Y012440D01*
X221642Y012416D01*
X221590Y012396D01*
X221537Y012379D01*
X221483Y012367D01*
X221428Y012358D01*
X221373Y012353D01*
X221317Y012352D01*
X221262Y012355D01*
X221207Y012362D01*
X221152Y012373D01*
X221098Y012387D01*
X221046Y012405D01*
X220995Y012427D01*
X220946Y012453D01*
X220898Y012482D01*
X220853Y012514D01*
X220810Y012549D01*
X220770Y012587D01*
X220732Y012628D01*
X220698Y012672D01*
X220666Y012718D01*
X220638Y012766D01*
X220614Y012816D01*
X220593Y012867D01*
X220575Y012920D01*
X220562Y012974D01*
X220552Y013028D01*
X220546Y013083D01*
X220544Y013139D01*
X228044Y013139D02*
X228046Y013195D01*
X228052Y013250D01*
X228062Y013304D01*
X228075Y013358D01*
X228093Y013411D01*
X228114Y013462D01*
X228138Y013512D01*
X228166Y013560D01*
X228198Y013606D01*
X228232Y013650D01*
X228270Y013691D01*
X228310Y013729D01*
X228353Y013764D01*
X228398Y013796D01*
X228446Y013825D01*
X228495Y013851D01*
X228546Y013873D01*
X228598Y013891D01*
X228652Y013905D01*
X228707Y013916D01*
X228762Y013923D01*
X228817Y013926D01*
X228873Y013925D01*
X228928Y013920D01*
X228983Y013911D01*
X229037Y013899D01*
X229090Y013882D01*
X229142Y013862D01*
X229192Y013838D01*
X229240Y013811D01*
X229287Y013781D01*
X229331Y013747D01*
X229373Y013710D01*
X229411Y013670D01*
X229448Y013628D01*
X229481Y013583D01*
X229510Y013537D01*
X229537Y013488D01*
X229559Y013437D01*
X229579Y013385D01*
X229594Y013331D01*
X229606Y013277D01*
X229614Y013222D01*
X229618Y013167D01*
X229618Y013111D01*
X229614Y013056D01*
X229606Y013001D01*
X229594Y012947D01*
X229579Y012893D01*
X229559Y012841D01*
X229537Y012790D01*
X229510Y012741D01*
X229481Y012695D01*
X229448Y012650D01*
X229411Y012608D01*
X229373Y012568D01*
X229331Y012531D01*
X229287Y012497D01*
X229240Y012467D01*
X229192Y012440D01*
X229142Y012416D01*
X229090Y012396D01*
X229037Y012379D01*
X228983Y012367D01*
X228928Y012358D01*
X228873Y012353D01*
X228817Y012352D01*
X228762Y012355D01*
X228707Y012362D01*
X228652Y012373D01*
X228598Y012387D01*
X228546Y012405D01*
X228495Y012427D01*
X228446Y012453D01*
X228398Y012482D01*
X228353Y012514D01*
X228310Y012549D01*
X228270Y012587D01*
X228232Y012628D01*
X228198Y012672D01*
X228166Y012718D01*
X228138Y012766D01*
X228114Y012816D01*
X228093Y012867D01*
X228075Y012920D01*
X228062Y012974D01*
X228052Y013028D01*
X228046Y013083D01*
X228044Y013139D01*
X228044Y009389D02*
X228046Y009445D01*
X228052Y009500D01*
X228062Y009554D01*
X228075Y009608D01*
X228093Y009661D01*
X228114Y009712D01*
X228138Y009762D01*
X228166Y009810D01*
X228198Y009856D01*
X228232Y009900D01*
X228270Y009941D01*
X228310Y009979D01*
X228353Y010014D01*
X228398Y010046D01*
X228446Y010075D01*
X228495Y010101D01*
X228546Y010123D01*
X228598Y010141D01*
X228652Y010155D01*
X228707Y010166D01*
X228762Y010173D01*
X228817Y010176D01*
X228873Y010175D01*
X228928Y010170D01*
X228983Y010161D01*
X229037Y010149D01*
X229090Y010132D01*
X229142Y010112D01*
X229192Y010088D01*
X229240Y010061D01*
X229287Y010031D01*
X229331Y009997D01*
X229373Y009960D01*
X229411Y009920D01*
X229448Y009878D01*
X229481Y009833D01*
X229510Y009787D01*
X229537Y009738D01*
X229559Y009687D01*
X229579Y009635D01*
X229594Y009581D01*
X229606Y009527D01*
X229614Y009472D01*
X229618Y009417D01*
X229618Y009361D01*
X229614Y009306D01*
X229606Y009251D01*
X229594Y009197D01*
X229579Y009143D01*
X229559Y009091D01*
X229537Y009040D01*
X229510Y008991D01*
X229481Y008945D01*
X229448Y008900D01*
X229411Y008858D01*
X229373Y008818D01*
X229331Y008781D01*
X229287Y008747D01*
X229240Y008717D01*
X229192Y008690D01*
X229142Y008666D01*
X229090Y008646D01*
X229037Y008629D01*
X228983Y008617D01*
X228928Y008608D01*
X228873Y008603D01*
X228817Y008602D01*
X228762Y008605D01*
X228707Y008612D01*
X228652Y008623D01*
X228598Y008637D01*
X228546Y008655D01*
X228495Y008677D01*
X228446Y008703D01*
X228398Y008732D01*
X228353Y008764D01*
X228310Y008799D01*
X228270Y008837D01*
X228232Y008878D01*
X228198Y008922D01*
X228166Y008968D01*
X228138Y009016D01*
X228114Y009066D01*
X228093Y009117D01*
X228075Y009170D01*
X228062Y009224D01*
X228052Y009278D01*
X228046Y009333D01*
X228044Y009389D01*
X220544Y005639D02*
X220546Y005695D01*
X220552Y005750D01*
X220562Y005804D01*
X220575Y005858D01*
X220593Y005911D01*
X220614Y005962D01*
X220638Y006012D01*
X220666Y006060D01*
X220698Y006106D01*
X220732Y006150D01*
X220770Y006191D01*
X220810Y006229D01*
X220853Y006264D01*
X220898Y006296D01*
X220946Y006325D01*
X220995Y006351D01*
X221046Y006373D01*
X221098Y006391D01*
X221152Y006405D01*
X221207Y006416D01*
X221262Y006423D01*
X221317Y006426D01*
X221373Y006425D01*
X221428Y006420D01*
X221483Y006411D01*
X221537Y006399D01*
X221590Y006382D01*
X221642Y006362D01*
X221692Y006338D01*
X221740Y006311D01*
X221787Y006281D01*
X221831Y006247D01*
X221873Y006210D01*
X221911Y006170D01*
X221948Y006128D01*
X221981Y006083D01*
X222010Y006037D01*
X222037Y005988D01*
X222059Y005937D01*
X222079Y005885D01*
X222094Y005831D01*
X222106Y005777D01*
X222114Y005722D01*
X222118Y005667D01*
X222118Y005611D01*
X222114Y005556D01*
X222106Y005501D01*
X222094Y005447D01*
X222079Y005393D01*
X222059Y005341D01*
X222037Y005290D01*
X222010Y005241D01*
X221981Y005195D01*
X221948Y005150D01*
X221911Y005108D01*
X221873Y005068D01*
X221831Y005031D01*
X221787Y004997D01*
X221740Y004967D01*
X221692Y004940D01*
X221642Y004916D01*
X221590Y004896D01*
X221537Y004879D01*
X221483Y004867D01*
X221428Y004858D01*
X221373Y004853D01*
X221317Y004852D01*
X221262Y004855D01*
X221207Y004862D01*
X221152Y004873D01*
X221098Y004887D01*
X221046Y004905D01*
X220995Y004927D01*
X220946Y004953D01*
X220898Y004982D01*
X220853Y005014D01*
X220810Y005049D01*
X220770Y005087D01*
X220732Y005128D01*
X220698Y005172D01*
X220666Y005218D01*
X220638Y005266D01*
X220614Y005316D01*
X220593Y005367D01*
X220575Y005420D01*
X220562Y005474D01*
X220552Y005528D01*
X220546Y005583D01*
X220544Y005639D01*
X213044Y005639D02*
X213046Y005695D01*
X213052Y005750D01*
X213062Y005804D01*
X213075Y005858D01*
X213093Y005911D01*
X213114Y005962D01*
X213138Y006012D01*
X213166Y006060D01*
X213198Y006106D01*
X213232Y006150D01*
X213270Y006191D01*
X213310Y006229D01*
X213353Y006264D01*
X213398Y006296D01*
X213446Y006325D01*
X213495Y006351D01*
X213546Y006373D01*
X213598Y006391D01*
X213652Y006405D01*
X213707Y006416D01*
X213762Y006423D01*
X213817Y006426D01*
X213873Y006425D01*
X213928Y006420D01*
X213983Y006411D01*
X214037Y006399D01*
X214090Y006382D01*
X214142Y006362D01*
X214192Y006338D01*
X214240Y006311D01*
X214287Y006281D01*
X214331Y006247D01*
X214373Y006210D01*
X214411Y006170D01*
X214448Y006128D01*
X214481Y006083D01*
X214510Y006037D01*
X214537Y005988D01*
X214559Y005937D01*
X214579Y005885D01*
X214594Y005831D01*
X214606Y005777D01*
X214614Y005722D01*
X214618Y005667D01*
X214618Y005611D01*
X214614Y005556D01*
X214606Y005501D01*
X214594Y005447D01*
X214579Y005393D01*
X214559Y005341D01*
X214537Y005290D01*
X214510Y005241D01*
X214481Y005195D01*
X214448Y005150D01*
X214411Y005108D01*
X214373Y005068D01*
X214331Y005031D01*
X214287Y004997D01*
X214240Y004967D01*
X214192Y004940D01*
X214142Y004916D01*
X214090Y004896D01*
X214037Y004879D01*
X213983Y004867D01*
X213928Y004858D01*
X213873Y004853D01*
X213817Y004852D01*
X213762Y004855D01*
X213707Y004862D01*
X213652Y004873D01*
X213598Y004887D01*
X213546Y004905D01*
X213495Y004927D01*
X213446Y004953D01*
X213398Y004982D01*
X213353Y005014D01*
X213310Y005049D01*
X213270Y005087D01*
X213232Y005128D01*
X213198Y005172D01*
X213166Y005218D01*
X213138Y005266D01*
X213114Y005316D01*
X213093Y005367D01*
X213075Y005420D01*
X213062Y005474D01*
X213052Y005528D01*
X213046Y005583D01*
X213044Y005639D01*
X205544Y005639D02*
X205546Y005695D01*
X205552Y005750D01*
X205562Y005804D01*
X205575Y005858D01*
X205593Y005911D01*
X205614Y005962D01*
X205638Y006012D01*
X205666Y006060D01*
X205698Y006106D01*
X205732Y006150D01*
X205770Y006191D01*
X205810Y006229D01*
X205853Y006264D01*
X205898Y006296D01*
X205946Y006325D01*
X205995Y006351D01*
X206046Y006373D01*
X206098Y006391D01*
X206152Y006405D01*
X206207Y006416D01*
X206262Y006423D01*
X206317Y006426D01*
X206373Y006425D01*
X206428Y006420D01*
X206483Y006411D01*
X206537Y006399D01*
X206590Y006382D01*
X206642Y006362D01*
X206692Y006338D01*
X206740Y006311D01*
X206787Y006281D01*
X206831Y006247D01*
X206873Y006210D01*
X206911Y006170D01*
X206948Y006128D01*
X206981Y006083D01*
X207010Y006037D01*
X207037Y005988D01*
X207059Y005937D01*
X207079Y005885D01*
X207094Y005831D01*
X207106Y005777D01*
X207114Y005722D01*
X207118Y005667D01*
X207118Y005611D01*
X207114Y005556D01*
X207106Y005501D01*
X207094Y005447D01*
X207079Y005393D01*
X207059Y005341D01*
X207037Y005290D01*
X207010Y005241D01*
X206981Y005195D01*
X206948Y005150D01*
X206911Y005108D01*
X206873Y005068D01*
X206831Y005031D01*
X206787Y004997D01*
X206740Y004967D01*
X206692Y004940D01*
X206642Y004916D01*
X206590Y004896D01*
X206537Y004879D01*
X206483Y004867D01*
X206428Y004858D01*
X206373Y004853D01*
X206317Y004852D01*
X206262Y004855D01*
X206207Y004862D01*
X206152Y004873D01*
X206098Y004887D01*
X206046Y004905D01*
X205995Y004927D01*
X205946Y004953D01*
X205898Y004982D01*
X205853Y005014D01*
X205810Y005049D01*
X205770Y005087D01*
X205732Y005128D01*
X205698Y005172D01*
X205666Y005218D01*
X205638Y005266D01*
X205614Y005316D01*
X205593Y005367D01*
X205575Y005420D01*
X205562Y005474D01*
X205552Y005528D01*
X205546Y005583D01*
X205544Y005639D01*
M02*
