G75*
G70*
%OFA0B0*%
%FSLAX24Y24*%
%IPPOS*%
%LPD*%
%AMOC8*
5,1,8,0,0,1.08239X$1,22.5*
%
%ADD10C,0.1182*%
%ADD11C,0.1267*%
%ADD12C,0.1655*%
%ADD13C,0.0992*%
%ADD14C,0.0912*%
%ADD15R,0.0720X0.0060*%
%ADD16R,0.0060X0.0720*%
%ADD17R,0.0986X0.0986*%
D10*
X020831Y006639D03*
X023331Y007639D03*
X028331Y006639D03*
X030831Y007639D03*
X035831Y006639D03*
X038331Y007639D03*
X043331Y006639D03*
X045831Y007639D03*
X051831Y006639D03*
X054331Y007639D03*
X061331Y006639D03*
X063831Y007639D03*
X076581Y006639D03*
X079081Y007639D03*
X075831Y014139D03*
X078331Y015139D03*
X083331Y014139D03*
X085831Y015139D03*
X096831Y014139D03*
X099331Y015139D03*
X104331Y014139D03*
X106831Y015139D03*
X111831Y014139D03*
X114331Y015139D03*
X119331Y014139D03*
X121831Y015139D03*
X126831Y014139D03*
X129331Y015139D03*
X134331Y014139D03*
X136831Y015139D03*
X142831Y014139D03*
X145331Y015139D03*
X145581Y021639D03*
X146581Y021639D03*
X148081Y022639D03*
X149081Y022639D03*
X149331Y029139D03*
X151831Y030139D03*
X144331Y030139D03*
X141831Y029139D03*
X136831Y030139D03*
X134331Y029139D03*
X129331Y030139D03*
X126831Y029139D03*
X121831Y030139D03*
X119331Y029139D03*
X114331Y030139D03*
X111831Y029139D03*
X106831Y030139D03*
X104331Y029139D03*
X099331Y030139D03*
X096831Y029139D03*
X085831Y030139D03*
X083331Y029139D03*
X078331Y030139D03*
X075831Y029139D03*
X070831Y030139D03*
X068331Y029139D03*
X063331Y030139D03*
X060831Y029139D03*
X055831Y030139D03*
X053331Y029139D03*
X046331Y030139D03*
X043831Y029139D03*
X045331Y022639D03*
X042831Y021639D03*
X053331Y021639D03*
X055831Y022639D03*
X060831Y021639D03*
X063331Y022639D03*
X068331Y021639D03*
X070831Y022639D03*
X075831Y021639D03*
X078331Y022639D03*
X083331Y021639D03*
X085831Y022639D03*
X096831Y021639D03*
X099331Y022639D03*
X104331Y021639D03*
X106831Y022639D03*
X111831Y021639D03*
X114331Y022639D03*
X119331Y021639D03*
X121831Y022639D03*
X126831Y021639D03*
X129331Y022639D03*
X134331Y021639D03*
X136831Y022639D03*
X134331Y036639D03*
X136831Y037639D03*
X129331Y037639D03*
X126831Y036639D03*
X121831Y037639D03*
X119331Y036639D03*
X114331Y037639D03*
X111831Y036639D03*
X106831Y037639D03*
X104331Y036639D03*
X099331Y037639D03*
X096831Y036639D03*
X085831Y037639D03*
X083331Y036639D03*
X078331Y037639D03*
X075831Y036639D03*
X070831Y037639D03*
X068331Y036639D03*
X063331Y037639D03*
X060831Y036639D03*
X055831Y037639D03*
X053331Y036639D03*
X048331Y037639D03*
X045831Y036639D03*
X030831Y033139D03*
X028331Y032139D03*
X023331Y033139D03*
X020831Y032139D03*
X023331Y025639D03*
X020831Y024639D03*
X028331Y024639D03*
X030831Y025639D03*
X030831Y015139D03*
X028331Y014139D03*
X041081Y014139D03*
X043581Y015139D03*
X053331Y014139D03*
X055831Y015139D03*
X060831Y014139D03*
X063331Y015139D03*
X068331Y014139D03*
X070831Y015139D03*
X103581Y006639D03*
X106081Y007639D03*
X123831Y006639D03*
X126331Y007639D03*
X133331Y006639D03*
X135831Y007639D03*
X142831Y006639D03*
X145331Y007639D03*
X151331Y006639D03*
X153831Y007639D03*
X204831Y006639D03*
X207331Y007639D03*
X212331Y006639D03*
X214831Y007639D03*
X219831Y006639D03*
X222331Y007639D03*
X227331Y010389D03*
X229831Y011389D03*
X227331Y014139D03*
X229831Y015139D03*
X222331Y015139D03*
X219831Y014139D03*
X214831Y015139D03*
X212331Y014139D03*
X207331Y015139D03*
X204831Y014139D03*
X204831Y021639D03*
X207331Y022639D03*
X212331Y021639D03*
X214831Y022639D03*
X219831Y021639D03*
X222331Y022639D03*
X227331Y021639D03*
X229831Y022639D03*
X227331Y029139D03*
X229831Y030139D03*
X222331Y030139D03*
X219831Y029139D03*
X214831Y030139D03*
X212331Y029139D03*
X207331Y030139D03*
X204831Y029139D03*
X204831Y036639D03*
X207331Y037639D03*
X212331Y036639D03*
X214831Y037639D03*
X219831Y036639D03*
X222331Y037639D03*
X227331Y036639D03*
X229831Y037639D03*
X227331Y044139D03*
X229831Y045139D03*
X222331Y045139D03*
X219831Y044139D03*
X214831Y045139D03*
X212331Y044139D03*
X207331Y045139D03*
X204831Y044139D03*
X199831Y045139D03*
X197331Y044139D03*
X148081Y037639D03*
X145581Y036639D03*
X137331Y047139D03*
X139831Y048139D03*
X132331Y048139D03*
X129831Y047139D03*
X124831Y048139D03*
X122331Y047139D03*
X117331Y048139D03*
X114831Y047139D03*
X106831Y048139D03*
X104331Y047139D03*
X099331Y048139D03*
X096831Y047139D03*
X085831Y048139D03*
X083331Y047139D03*
X078331Y048139D03*
X075831Y047139D03*
X067831Y048139D03*
X065331Y047139D03*
X060331Y048139D03*
X057831Y047139D03*
X052831Y048139D03*
X050331Y047139D03*
X045331Y048139D03*
X042831Y047139D03*
X030831Y048139D03*
X028331Y047139D03*
X023331Y048139D03*
X020831Y047139D03*
X023331Y040639D03*
X020831Y039639D03*
X028331Y039639D03*
X030831Y040639D03*
D11*
X020331Y005639D03*
X024331Y005639D03*
X027831Y005639D03*
X031831Y005639D03*
X035331Y005639D03*
X039331Y005639D03*
X042831Y005639D03*
X046831Y005639D03*
X051331Y005639D03*
X055331Y005639D03*
X060831Y005639D03*
X064831Y005639D03*
X076081Y005639D03*
X080081Y005639D03*
X079331Y013139D03*
X082831Y013139D03*
X086831Y013139D03*
X096331Y013139D03*
X100331Y013139D03*
X103831Y013139D03*
X107831Y013139D03*
X111331Y013139D03*
X115331Y013139D03*
X118831Y013139D03*
X122831Y013139D03*
X126331Y013139D03*
X130331Y013139D03*
X133831Y013139D03*
X137831Y013139D03*
X142331Y013139D03*
X146331Y013139D03*
X146331Y005639D03*
X142331Y005639D03*
X136831Y005639D03*
X132831Y005639D03*
X127331Y005639D03*
X123331Y005639D03*
X107081Y005639D03*
X103081Y005639D03*
X075331Y013139D03*
X071831Y013139D03*
X067831Y013139D03*
X064331Y013139D03*
X060331Y013139D03*
X056831Y013139D03*
X052831Y013139D03*
X044581Y013139D03*
X040581Y013139D03*
X031831Y013139D03*
X027831Y013139D03*
X042331Y020639D03*
X046331Y020639D03*
X052831Y020639D03*
X056831Y020639D03*
X060331Y020639D03*
X064331Y020639D03*
X067831Y020639D03*
X071831Y020639D03*
X075331Y020639D03*
X079331Y020639D03*
X082831Y020639D03*
X086831Y020639D03*
X096331Y020639D03*
X100331Y020639D03*
X103831Y020639D03*
X107831Y020639D03*
X111331Y020639D03*
X115331Y020639D03*
X118831Y020639D03*
X122831Y020639D03*
X126331Y020639D03*
X130331Y020639D03*
X133831Y020639D03*
X137831Y020639D03*
X145081Y020639D03*
X146081Y020639D03*
X149081Y020639D03*
X150081Y020639D03*
X148831Y028139D03*
X145331Y028139D03*
X141331Y028139D03*
X137831Y028139D03*
X133831Y028139D03*
X130331Y028139D03*
X126331Y028139D03*
X122831Y028139D03*
X118831Y028139D03*
X115331Y028139D03*
X111331Y028139D03*
X107831Y028139D03*
X103831Y028139D03*
X100331Y028139D03*
X096331Y028139D03*
X086831Y028139D03*
X082831Y028139D03*
X079331Y028139D03*
X075331Y028139D03*
X071831Y028139D03*
X067831Y028139D03*
X064331Y028139D03*
X060331Y028139D03*
X056831Y028139D03*
X052831Y028139D03*
X047331Y028139D03*
X043331Y028139D03*
X031831Y031139D03*
X027831Y031139D03*
X024331Y031139D03*
X020331Y031139D03*
X020331Y023639D03*
X024331Y023639D03*
X027831Y023639D03*
X031831Y023639D03*
X045331Y035639D03*
X049331Y035639D03*
X052831Y035639D03*
X056831Y035639D03*
X060331Y035639D03*
X064331Y035639D03*
X067831Y035639D03*
X071831Y035639D03*
X075331Y035639D03*
X079331Y035639D03*
X082831Y035639D03*
X086831Y035639D03*
X096331Y035639D03*
X100331Y035639D03*
X103831Y035639D03*
X107831Y035639D03*
X111331Y035639D03*
X115331Y035639D03*
X118831Y035639D03*
X122831Y035639D03*
X126331Y035639D03*
X130331Y035639D03*
X133831Y035639D03*
X137831Y035639D03*
X145081Y035639D03*
X149081Y035639D03*
X152831Y028139D03*
X140831Y046139D03*
X136831Y046139D03*
X133331Y046139D03*
X129331Y046139D03*
X125831Y046139D03*
X121831Y046139D03*
X118331Y046139D03*
X114331Y046139D03*
X107831Y046139D03*
X103831Y046139D03*
X100331Y046139D03*
X096331Y046139D03*
X086831Y046139D03*
X082831Y046139D03*
X079331Y046139D03*
X075331Y046139D03*
X068831Y046139D03*
X064831Y046139D03*
X061331Y046139D03*
X057331Y046139D03*
X053831Y046139D03*
X049831Y046139D03*
X046331Y046139D03*
X042331Y046139D03*
X031831Y046139D03*
X027831Y046139D03*
X024331Y046139D03*
X020331Y046139D03*
X020331Y038639D03*
X024331Y038639D03*
X027831Y038639D03*
X031831Y038639D03*
X150831Y005639D03*
X154831Y005639D03*
X204331Y005639D03*
X208331Y005639D03*
X211831Y005639D03*
X215831Y005639D03*
X219331Y005639D03*
X223331Y005639D03*
X226831Y009389D03*
X230831Y009389D03*
X230831Y013139D03*
X226831Y013139D03*
X223331Y013139D03*
X219331Y013139D03*
X215831Y013139D03*
X211831Y013139D03*
X208331Y013139D03*
X204331Y013139D03*
X204331Y020639D03*
X208331Y020639D03*
X211831Y020639D03*
X215831Y020639D03*
X219331Y020639D03*
X223331Y020639D03*
X226831Y020639D03*
X230831Y020639D03*
X230831Y028139D03*
X226831Y028139D03*
X223331Y028139D03*
X219331Y028139D03*
X215831Y028139D03*
X211831Y028139D03*
X208331Y028139D03*
X204331Y028139D03*
X204331Y035639D03*
X208331Y035639D03*
X211831Y035639D03*
X215831Y035639D03*
X219331Y035639D03*
X223331Y035639D03*
X226831Y035639D03*
X230831Y035639D03*
X230831Y043139D03*
X226831Y043139D03*
X223331Y043139D03*
X219331Y043139D03*
X215831Y043139D03*
X211831Y043139D03*
X208331Y043139D03*
X204331Y043139D03*
X200831Y043139D03*
X196831Y043139D03*
D12*
X198831Y043139D03*
X206331Y043139D03*
X213831Y043139D03*
X221331Y043139D03*
X228831Y043139D03*
X228831Y035639D03*
X221331Y035639D03*
X213831Y035639D03*
X206331Y035639D03*
X206331Y028139D03*
X213831Y028139D03*
X221331Y028139D03*
X228831Y028139D03*
X228831Y020639D03*
X221331Y020639D03*
X213831Y020639D03*
X206331Y020639D03*
X206331Y013139D03*
X213831Y013139D03*
X221331Y013139D03*
X228831Y013139D03*
X228831Y009389D03*
X221331Y005639D03*
X213831Y005639D03*
X206331Y005639D03*
X152831Y005639D03*
X144331Y005639D03*
X134831Y005639D03*
X125331Y005639D03*
X128331Y013139D03*
X135831Y013139D03*
X144331Y013139D03*
X147081Y020639D03*
X148081Y020639D03*
X135831Y020639D03*
X128331Y020639D03*
X120831Y020639D03*
X113331Y020639D03*
X105831Y020639D03*
X098331Y020639D03*
X084831Y020639D03*
X077331Y020639D03*
X069831Y020639D03*
X062331Y020639D03*
X054831Y020639D03*
X044331Y020639D03*
X029831Y023639D03*
X022331Y023639D03*
X022331Y031139D03*
X029831Y031139D03*
X045331Y028139D03*
X054831Y028139D03*
X062331Y028139D03*
X069831Y028139D03*
X077331Y028139D03*
X084831Y028139D03*
X098331Y028139D03*
X105831Y028139D03*
X113331Y028139D03*
X120831Y028139D03*
X128331Y028139D03*
X135831Y028139D03*
X143331Y028139D03*
X150831Y028139D03*
X147081Y035639D03*
X135831Y035639D03*
X128331Y035639D03*
X120831Y035639D03*
X113331Y035639D03*
X105831Y035639D03*
X098331Y035639D03*
X084831Y035639D03*
X077331Y035639D03*
X069831Y035639D03*
X062331Y035639D03*
X054831Y035639D03*
X047331Y035639D03*
X029831Y038639D03*
X022331Y038639D03*
X022331Y046139D03*
X029831Y046139D03*
X044331Y046139D03*
X051831Y046139D03*
X059331Y046139D03*
X066831Y046139D03*
X077331Y046139D03*
X084831Y046139D03*
X098331Y046139D03*
X105831Y046139D03*
X116331Y046139D03*
X123831Y046139D03*
X131331Y046139D03*
X138831Y046139D03*
X120831Y013139D03*
X113331Y013139D03*
X105831Y013139D03*
X098331Y013139D03*
X084831Y013139D03*
X077331Y013139D03*
X069831Y013139D03*
X062331Y013139D03*
X054831Y013139D03*
X042581Y013139D03*
X029831Y013139D03*
X029831Y005639D03*
X037331Y005639D03*
X044831Y005639D03*
X053331Y005639D03*
X062831Y005639D03*
X078081Y005639D03*
X105081Y005639D03*
X022331Y005639D03*
D13*
X044331Y004139D03*
X045331Y004139D03*
X022831Y044639D03*
X021831Y044639D03*
X198331Y041639D03*
X199331Y041639D03*
D14*
X063581Y041223D02*
X063581Y042055D01*
X062581Y042055D02*
X062581Y041223D01*
X061581Y041223D02*
X061581Y042055D01*
X060581Y042055D02*
X060581Y041223D01*
X059581Y041223D02*
X059581Y042055D01*
X058581Y042055D02*
X058581Y041223D01*
X057581Y041223D02*
X057581Y042055D01*
X056581Y042055D02*
X056581Y041223D01*
X055581Y041223D02*
X055581Y042055D01*
X054581Y042055D02*
X054581Y041223D01*
X053581Y041223D02*
X053581Y042055D01*
X052581Y042055D02*
X052581Y041223D01*
X051581Y041223D02*
X051581Y042055D01*
X050581Y042055D02*
X050581Y041223D01*
X049581Y041223D02*
X049581Y042055D01*
X048581Y042055D02*
X048581Y041223D01*
X047581Y041223D02*
X047581Y042055D01*
X046581Y042055D02*
X046581Y041223D01*
X045581Y041223D02*
X045581Y042055D01*
X044581Y042055D02*
X044581Y041223D01*
X043581Y041223D02*
X043581Y042055D01*
X042581Y042055D02*
X042581Y041223D01*
X041581Y041223D02*
X041581Y042055D01*
X040581Y042055D02*
X040581Y041223D01*
X039581Y041223D02*
X039581Y042055D01*
X038581Y042055D02*
X038581Y041223D01*
X037581Y041223D02*
X037581Y042055D01*
X036581Y042055D02*
X036581Y041223D01*
X035581Y041223D02*
X035581Y042055D01*
X034581Y042055D02*
X034581Y041223D01*
X033581Y041223D02*
X033581Y042055D01*
D15*
X046081Y049389D03*
X052831Y049389D03*
X062331Y047889D03*
X067831Y049639D03*
X073831Y046139D03*
X081831Y044889D03*
X085831Y049639D03*
X078331Y039389D03*
X071831Y038389D03*
X064331Y038389D03*
X054831Y038389D03*
X049331Y038389D03*
X056581Y030889D03*
X063331Y026639D03*
X063331Y023889D03*
X070831Y023889D03*
X078331Y023889D03*
X085831Y024139D03*
X073831Y028889D03*
X077331Y030889D03*
X085831Y031389D03*
X069581Y030889D03*
X055831Y023889D03*
X055831Y016639D03*
X063331Y016639D03*
X070831Y016639D03*
X075831Y015389D03*
X078331Y016639D03*
X081831Y011639D03*
X079081Y009139D03*
X066081Y004139D03*
X061331Y008139D03*
X051831Y007889D03*
X043331Y008139D03*
D16*
X047081Y007639D03*
X055831Y007639D03*
X051831Y014389D03*
X045081Y015139D03*
X039581Y014139D03*
X052581Y022889D03*
X058831Y021639D03*
X067831Y022889D03*
X073831Y021639D03*
X083081Y022889D03*
X081581Y029139D03*
X081581Y036639D03*
X085581Y038889D03*
X074831Y037639D03*
X066331Y036639D03*
X059331Y036889D03*
X052081Y037389D03*
X044331Y036639D03*
X047581Y030139D03*
X051831Y029139D03*
X060581Y030139D03*
X066581Y029139D03*
X045081Y023639D03*
X042581Y023639D03*
X041831Y029139D03*
X059831Y014889D03*
X066331Y014639D03*
X075331Y006889D03*
X084331Y015139D03*
D17*
X058081Y003889D03*
X036831Y032889D03*
X035331Y033889D03*
X043081Y037889D03*
X042331Y039139D03*
X058081Y039639D03*
X070831Y040889D03*
X072831Y040889D03*
M02*
