G75*
G70*
%OFA0B0*%
%FSLAX24Y24*%
%IPPOS*%
%LPD*%
%AMOC8*
5,1,8,0,0,1.08239X$1,22.5*
%
%ADD10C,0.1500*%
%ADD11C,0.1012*%
%ADD12C,0.0860*%
%ADD13C,0.1181*%
%ADD14R,0.0460X0.0630*%
%ADD15C,0.0320*%
%ADD16R,0.0551X0.0709*%
%ADD17R,0.0630X0.0460*%
%ADD18R,0.0709X0.0551*%
%ADD19R,0.0472X0.0591*%
%ADD20C,0.0827*%
%ADD21R,0.0827X0.0827*%
%ADD22C,0.0827*%
%ADD23OC8,0.0827*%
%ADD24C,0.0984*%
%ADD25R,0.0984X0.0984*%
%ADD26R,0.0709X0.0472*%
%ADD27R,0.0591X0.0472*%
%ADD28R,0.0709X0.0630*%
%ADD29C,0.0160*%
%ADD30C,0.0240*%
%ADD31C,0.1969*%
D10*
X006360Y015975D03*
X008860Y016975D03*
X013860Y015975D03*
X016360Y016975D03*
X021360Y015975D03*
X023860Y016975D03*
X027860Y022725D03*
X028860Y023475D03*
X031360Y024475D03*
X028860Y020225D03*
X023860Y024475D03*
X021360Y023475D03*
X016360Y024475D03*
X013860Y023475D03*
X008860Y024475D03*
X006360Y023475D03*
X006360Y030975D03*
X008860Y031975D03*
X013860Y030975D03*
X016360Y031975D03*
X021360Y030975D03*
X023860Y031975D03*
X028860Y030975D03*
X031360Y031975D03*
X028860Y038475D03*
X031360Y039475D03*
X028860Y045975D03*
X031360Y046975D03*
X028860Y053475D03*
X031360Y054475D03*
X023860Y054475D03*
X021360Y053475D03*
X016360Y054475D03*
X013860Y053475D03*
X008860Y054475D03*
X006360Y053475D03*
X008860Y046975D03*
X006360Y045975D03*
X008860Y039475D03*
X006360Y038475D03*
X013860Y038475D03*
X016360Y039475D03*
X021360Y038475D03*
X023860Y039475D03*
X021360Y045975D03*
X023860Y046975D03*
X016360Y046975D03*
X013860Y045975D03*
D11*
X012860Y047975D03*
X009360Y047975D03*
X005360Y047975D03*
X005360Y055475D03*
X009360Y055475D03*
X012860Y055475D03*
X016860Y055475D03*
X020360Y055475D03*
X024360Y055475D03*
X027860Y055475D03*
X031860Y055475D03*
X031860Y047975D03*
X027860Y047975D03*
X024360Y047975D03*
X020360Y047975D03*
X016860Y047975D03*
X016860Y040475D03*
X020360Y040475D03*
X024360Y040475D03*
X027860Y040475D03*
X031860Y040475D03*
X031860Y032975D03*
X027860Y032975D03*
X024360Y032975D03*
X020360Y032975D03*
X016860Y032975D03*
X012860Y032975D03*
X009360Y032975D03*
X005360Y032975D03*
X005360Y040475D03*
X009360Y040475D03*
X012860Y040475D03*
X012860Y025475D03*
X009360Y025475D03*
X005360Y025475D03*
X005360Y017975D03*
X009360Y017975D03*
X012860Y017975D03*
X016860Y017975D03*
X020360Y017975D03*
X024360Y017975D03*
X029860Y019725D03*
X029860Y023725D03*
X027860Y025475D03*
X024360Y025475D03*
X020360Y025475D03*
X016860Y025475D03*
X031860Y025475D03*
D12*
X031360Y027045D02*
X031360Y027905D01*
X030360Y027905D02*
X030360Y027045D01*
X029360Y027045D02*
X029360Y027905D01*
X028360Y027905D02*
X028360Y027045D01*
X031430Y023225D02*
X032290Y023225D01*
X032290Y022225D02*
X031430Y022225D01*
X031430Y021225D02*
X032290Y021225D01*
X032290Y020225D02*
X031430Y020225D01*
X023860Y020405D02*
X023860Y019545D01*
X022860Y019545D02*
X022860Y020405D01*
X021860Y020405D02*
X021860Y019545D01*
X020860Y019545D02*
X020860Y020405D01*
X016360Y020405D02*
X016360Y019545D01*
X015360Y019545D02*
X015360Y020405D01*
X014360Y020405D02*
X014360Y019545D01*
X013360Y019545D02*
X013360Y020405D01*
X008860Y020405D02*
X008860Y019545D01*
X007860Y019545D02*
X007860Y020405D01*
X006860Y020405D02*
X006860Y019545D01*
X005860Y019545D02*
X005860Y020405D01*
X005860Y027045D02*
X005860Y027905D01*
X006860Y027905D02*
X006860Y027045D01*
X007860Y027045D02*
X007860Y027905D01*
X008860Y027905D02*
X008860Y027045D01*
X013360Y027045D02*
X013360Y027905D01*
X014360Y027905D02*
X014360Y027045D01*
X015360Y027045D02*
X015360Y027905D01*
X016360Y027905D02*
X016360Y027045D01*
X020860Y027045D02*
X020860Y027905D01*
X021860Y027905D02*
X021860Y027045D01*
X022860Y027045D02*
X022860Y027905D01*
X023860Y027905D02*
X023860Y027045D01*
X023860Y034545D02*
X023860Y035405D01*
X022860Y035405D02*
X022860Y034545D01*
X021860Y034545D02*
X021860Y035405D01*
X020860Y035405D02*
X020860Y034545D01*
X016360Y034545D02*
X016360Y035405D01*
X015360Y035405D02*
X015360Y034545D01*
X014360Y034545D02*
X014360Y035405D01*
X013360Y035405D02*
X013360Y034545D01*
X008860Y034545D02*
X008860Y035405D01*
X007860Y035405D02*
X007860Y034545D01*
X006860Y034545D02*
X006860Y035405D01*
X005860Y035405D02*
X005860Y034545D01*
X005860Y042045D02*
X005860Y042905D01*
X006860Y042905D02*
X006860Y042045D01*
X007860Y042045D02*
X007860Y042905D01*
X008860Y042905D02*
X008860Y042045D01*
X013360Y042045D02*
X013360Y042905D01*
X014360Y042905D02*
X014360Y042045D01*
X015360Y042045D02*
X015360Y042905D01*
X016360Y042905D02*
X016360Y042045D01*
X020860Y042045D02*
X020860Y042905D01*
X021860Y042905D02*
X021860Y042045D01*
X022860Y042045D02*
X022860Y042905D01*
X023860Y042905D02*
X023860Y042045D01*
X028360Y042045D02*
X028360Y042905D01*
X029360Y042905D02*
X029360Y042045D01*
X030360Y042045D02*
X030360Y042905D01*
X031360Y042905D02*
X031360Y042045D01*
X031360Y035405D02*
X031360Y034545D01*
X030360Y034545D02*
X030360Y035405D01*
X029360Y035405D02*
X029360Y034545D01*
X028360Y034545D02*
X028360Y035405D01*
X028360Y049545D02*
X028360Y050405D01*
X029360Y050405D02*
X029360Y049545D01*
X030360Y049545D02*
X030360Y050405D01*
X031360Y050405D02*
X031360Y049545D01*
X031360Y057045D02*
X031360Y057905D01*
X030360Y057905D02*
X030360Y057045D01*
X029360Y057045D02*
X029360Y057905D01*
X028360Y057905D02*
X028360Y057045D01*
X023860Y057045D02*
X023860Y057905D01*
X022860Y057905D02*
X022860Y057045D01*
X021860Y057045D02*
X021860Y057905D01*
X020860Y057905D02*
X020860Y057045D01*
X016360Y057045D02*
X016360Y057905D01*
X015360Y057905D02*
X015360Y057045D01*
X014360Y057045D02*
X014360Y057905D01*
X013360Y057905D02*
X013360Y057045D01*
X008860Y057045D02*
X008860Y057905D01*
X007860Y057905D02*
X007860Y057045D01*
X006860Y057045D02*
X006860Y057905D01*
X005860Y057905D02*
X005860Y057045D01*
X005860Y050405D02*
X005860Y049545D01*
X006860Y049545D02*
X006860Y050405D01*
X007860Y050405D02*
X007860Y049545D01*
X008860Y049545D02*
X008860Y050405D01*
X013360Y050405D02*
X013360Y049545D01*
X014360Y049545D02*
X014360Y050405D01*
X015360Y050405D02*
X015360Y049545D01*
X016360Y049545D02*
X016360Y050405D01*
X020860Y050405D02*
X020860Y049545D01*
X021860Y049545D02*
X021860Y050405D01*
X022860Y050405D02*
X022860Y049545D01*
X023860Y049545D02*
X023860Y050405D01*
D13*
X022360Y047975D03*
X022360Y055475D03*
X014860Y055475D03*
X014860Y047975D03*
X014860Y040475D03*
X014860Y032975D03*
X014860Y025475D03*
X014860Y017975D03*
X022360Y017975D03*
X022360Y025475D03*
X022360Y032975D03*
X022360Y040475D03*
X029860Y040475D03*
X029860Y032975D03*
X029860Y025475D03*
X029860Y021725D03*
X029860Y047975D03*
X029860Y055475D03*
X007360Y055475D03*
X007360Y047975D03*
X007360Y040475D03*
X007360Y032975D03*
X007360Y025475D03*
X007360Y017975D03*
D14*
X010060Y016975D03*
X010660Y016975D03*
X012060Y015975D03*
X012660Y015975D03*
X012910Y023475D03*
X012310Y023475D03*
X010660Y024475D03*
X010060Y024475D03*
X004660Y023475D03*
X004060Y023475D03*
X004060Y015975D03*
X004660Y015975D03*
X004660Y030975D03*
X004060Y030975D03*
X010060Y031975D03*
X010660Y031975D03*
X012185Y031725D03*
X012785Y031725D03*
X017310Y032100D03*
X017910Y032100D03*
X019810Y030975D03*
X020410Y030975D03*
X025185Y024600D03*
X025785Y024600D03*
X027185Y024225D03*
X027785Y024225D03*
X027910Y030975D03*
X027310Y030975D03*
X030185Y030850D03*
X030785Y030850D03*
X027660Y038475D03*
X027060Y038475D03*
X025410Y039475D03*
X024810Y039475D03*
X023160Y037975D03*
X022560Y037975D03*
X018160Y039475D03*
X017560Y039475D03*
X012910Y038475D03*
X012310Y038475D03*
X012310Y045975D03*
X012910Y045975D03*
X016435Y045600D03*
X017035Y045600D03*
X022560Y045475D03*
X023160Y045475D03*
X025060Y046975D03*
X025660Y046975D03*
X027310Y045975D03*
X027910Y045975D03*
X027910Y053600D03*
X027310Y053600D03*
X020410Y054225D03*
X019810Y054225D03*
X012910Y054225D03*
X012310Y054225D03*
X010660Y054475D03*
X010060Y054475D03*
X004660Y053475D03*
X004060Y053475D03*
X004060Y045975D03*
X004660Y045975D03*
X004660Y038475D03*
X004060Y038475D03*
X017560Y024225D03*
X018160Y024225D03*
X019810Y024225D03*
X020410Y024225D03*
X025060Y016975D03*
X025660Y016975D03*
X020160Y016225D03*
X019560Y016225D03*
D15*
X020160Y016225D01*
X018910Y015425D02*
X020360Y014475D01*
X022941Y014475D01*
X024280Y014475D02*
X025530Y015725D01*
X027110Y015725D01*
X027780Y016395D01*
X027780Y016975D01*
X025660Y016975D02*
X025060Y016975D01*
X027185Y024225D02*
X027785Y024225D01*
X025785Y024600D02*
X025185Y024600D01*
X023860Y030425D02*
X023860Y031025D01*
X027310Y030975D02*
X027910Y030975D01*
X030185Y030850D02*
X030785Y030850D01*
X033110Y027025D02*
X033110Y026425D01*
X031360Y037675D02*
X031360Y038275D01*
X027660Y038475D02*
X027060Y038475D01*
X025410Y039475D02*
X024810Y039475D01*
X023160Y037975D02*
X022560Y037975D01*
X018160Y039475D02*
X017560Y039475D01*
X012910Y038475D02*
X012310Y038475D01*
X008860Y038025D02*
X008860Y037425D01*
X006360Y038475D02*
X004660Y038475D01*
X004060Y038475D01*
X008860Y044925D02*
X008860Y045525D01*
X006360Y045975D02*
X004660Y045975D01*
X004060Y045975D01*
X004060Y053475D02*
X004660Y053475D01*
X006360Y053475D01*
X010060Y054475D02*
X010660Y054475D01*
X012310Y054225D02*
X012910Y054225D01*
X017610Y056300D02*
X017610Y056900D01*
X019810Y054225D02*
X020410Y054225D01*
X025610Y055675D02*
X025610Y056275D01*
X027310Y053600D02*
X027910Y053600D01*
X030360Y053525D02*
X030360Y052925D01*
X025660Y046975D02*
X025060Y046975D01*
X023160Y045475D02*
X022560Y045475D01*
X027310Y045975D02*
X027910Y045975D01*
X030360Y046025D02*
X030360Y045425D01*
X020410Y030975D02*
X019810Y030975D01*
X017910Y032100D02*
X017310Y032100D01*
X012785Y031725D02*
X012185Y031725D01*
X010660Y031975D02*
X010060Y031975D01*
X006360Y030975D02*
X004660Y030975D01*
X004060Y030975D01*
X004060Y023725D02*
X004060Y023475D01*
X004660Y023475D01*
X006360Y023475D01*
X010060Y024475D02*
X010660Y024475D01*
X012310Y023475D02*
X012910Y023475D01*
X017560Y024225D02*
X018160Y024225D01*
X019810Y024225D02*
X020410Y024225D01*
X017360Y016025D02*
X017360Y015425D01*
X018910Y015425D01*
X013860Y015975D02*
X012660Y015975D01*
X012060Y015975D01*
X010610Y015975D01*
X008810Y014175D01*
X005160Y014175D01*
X004060Y015275D01*
X004060Y015975D01*
X004660Y015975D01*
X006360Y015975D01*
X010060Y016975D02*
X010660Y016975D01*
X012310Y045975D02*
X012910Y045975D01*
X016435Y045600D02*
X017035Y045600D01*
X014860Y063975D02*
X014610Y064225D01*
X012360Y064225D01*
D16*
X015821Y062150D03*
X017160Y062150D03*
X014905Y051725D03*
X013566Y051725D03*
X012405Y042100D03*
X011066Y042100D03*
X010941Y034475D03*
X012280Y034475D03*
X013066Y029288D03*
X014405Y029288D03*
X018691Y027475D03*
X020030Y027475D03*
X022941Y029475D03*
X024280Y029475D03*
G36*
X027942Y030143D02*
X028331Y029754D01*
X027832Y029255D01*
X027443Y029644D01*
X027942Y030143D01*
G37*
G36*
X028889Y029196D02*
X029278Y028807D01*
X028779Y028308D01*
X028390Y028697D01*
X028889Y029196D01*
G37*
X029691Y029850D03*
X031030Y029850D03*
X029030Y037100D03*
X027691Y037100D03*
X030191Y044475D03*
X031530Y044475D03*
X031280Y052100D03*
X029941Y052100D03*
X022280Y021850D03*
X020941Y021850D03*
X026441Y016975D03*
X027780Y016975D03*
X024280Y014475D03*
X022941Y014475D03*
X003780Y061975D03*
X003655Y063225D03*
X002316Y063225D03*
X002441Y061975D03*
D17*
X008860Y045525D03*
X008860Y044925D03*
X008860Y038025D03*
X008860Y037425D03*
X023860Y031025D03*
X023860Y030425D03*
X031360Y037675D03*
X031360Y038275D03*
X030360Y045425D03*
X030360Y046025D03*
X030360Y052925D03*
X030360Y053525D03*
X025610Y055675D03*
X025610Y056275D03*
X017610Y056300D03*
X017610Y056900D03*
X033110Y027025D03*
X033110Y026425D03*
X017360Y016025D03*
X017360Y015425D03*
D18*
X018110Y025306D03*
X018110Y026645D03*
X018735Y033306D03*
X018735Y034645D03*
X018235Y040306D03*
X018235Y041645D03*
X017610Y048556D03*
X017610Y049895D03*
X017485Y057556D03*
X017485Y058895D03*
X025110Y058770D03*
X025110Y057431D03*
X025610Y049645D03*
X025610Y048306D03*
X025360Y042645D03*
X025360Y041306D03*
X025735Y026895D03*
X025735Y025556D03*
D19*
X018860Y030885D03*
X018860Y032066D03*
X019360Y041385D03*
X019360Y042566D03*
X019360Y048760D03*
X019360Y049941D03*
X018485Y049941D03*
X018485Y048760D03*
X018310Y058310D03*
X019135Y058310D03*
X019135Y059491D03*
X018310Y059491D03*
X019960Y059491D03*
X019960Y058310D03*
X019610Y062135D03*
X018610Y062135D03*
X018610Y063316D03*
X019610Y063316D03*
X026235Y039441D03*
X026235Y038260D03*
D20*
X025966Y062519D03*
X032728Y064330D03*
D21*
G36*
X031470Y063566D02*
X031257Y064363D01*
X032054Y064576D01*
X032267Y063779D01*
X031470Y063566D01*
G37*
G36*
X030504Y063308D02*
X030291Y064105D01*
X031088Y064318D01*
X031301Y063521D01*
X030504Y063308D01*
G37*
G36*
X029538Y063049D02*
X029325Y063846D01*
X030122Y064059D01*
X030335Y063262D01*
X029538Y063049D01*
G37*
G36*
X028572Y062790D02*
X028359Y063587D01*
X029156Y063800D01*
X029369Y063003D01*
X028572Y062790D01*
G37*
G36*
X027606Y062531D02*
X027393Y063328D01*
X028190Y063541D01*
X028403Y062744D01*
X027606Y062531D01*
G37*
G36*
X026640Y062272D02*
X026427Y063069D01*
X027224Y063282D01*
X027437Y062485D01*
X026640Y062272D01*
G37*
G36*
X030315Y060151D02*
X030102Y060948D01*
X030899Y061161D01*
X031112Y060364D01*
X030315Y060151D01*
G37*
G36*
X031280Y060410D02*
X031067Y061207D01*
X031864Y061420D01*
X032077Y060623D01*
X031280Y060410D01*
G37*
G36*
X032246Y060669D02*
X032033Y061466D01*
X032830Y061679D01*
X033043Y060882D01*
X032246Y060669D01*
G37*
G36*
X033212Y060927D02*
X032999Y061724D01*
X033796Y061937D01*
X034009Y061140D01*
X033212Y060927D01*
G37*
D22*
X029748Y059998D02*
X029534Y060796D01*
X028568Y060538D02*
X028782Y059739D01*
X027816Y059480D02*
X027602Y060279D01*
X026636Y060020D02*
X026850Y059221D01*
X024235Y064187D02*
X024235Y065014D01*
X023235Y065014D02*
X023235Y064187D01*
X022235Y064187D02*
X022235Y065014D01*
X021235Y065014D02*
X021235Y064187D01*
X020235Y064187D02*
X020235Y065014D01*
X019235Y065014D02*
X019235Y064187D01*
X018235Y064187D02*
X018235Y065014D01*
X017235Y065014D02*
X017235Y064187D01*
X016235Y064187D02*
X016235Y065014D01*
X010360Y063889D02*
X010360Y063062D01*
X009360Y063062D02*
X009360Y063889D01*
X008360Y063889D02*
X008360Y063062D01*
X007360Y063062D02*
X007360Y063889D01*
X006360Y063889D02*
X006360Y063062D01*
X005360Y063062D02*
X005360Y063889D01*
X004360Y063889D02*
X004360Y063062D01*
X004360Y060889D02*
X004360Y060062D01*
X005360Y060062D02*
X005360Y060889D01*
X006360Y060889D02*
X006360Y060062D01*
X007360Y060062D02*
X007360Y060889D01*
X008360Y060889D02*
X008360Y060062D01*
X009360Y060062D02*
X009360Y060889D01*
X010360Y060889D02*
X010360Y060062D01*
D23*
X012470Y063340D03*
X014250Y063340D03*
X014360Y060725D03*
X015360Y060725D03*
D24*
X014740Y062360D02*
X013756Y062360D01*
D25*
X011980Y062360D03*
D26*
X016270Y060725D03*
X017450Y060725D03*
X028520Y062100D03*
X029700Y062100D03*
X006950Y064788D03*
X005770Y064788D03*
X005950Y061850D03*
X004770Y061850D03*
X003575Y060725D03*
X002395Y060725D03*
D27*
G36*
X007859Y062143D02*
X007443Y062559D01*
X007777Y062893D01*
X008193Y062477D01*
X007859Y062143D01*
G37*
G36*
X008694Y061308D02*
X008278Y061724D01*
X008612Y062058D01*
X009028Y061642D01*
X008694Y061308D01*
G37*
X016270Y059850D03*
X017450Y059850D03*
X020645Y060475D03*
X020645Y061350D03*
X021825Y061350D03*
X021825Y060475D03*
X027895Y051850D03*
X029075Y051850D03*
X029075Y044350D03*
X027895Y044350D03*
X027645Y036350D03*
X028825Y036350D03*
D28*
X025110Y060799D03*
X025110Y061902D03*
D29*
X024548Y062475D02*
X021860Y062475D01*
X021235Y064600D01*
X022235Y064600D02*
X022735Y062975D01*
X024485Y062975D01*
X025235Y063350D01*
X030110Y064725D01*
X031173Y064725D01*
X031762Y064071D01*
X030796Y063813D02*
X030298Y064350D01*
X030110Y064350D01*
X025423Y063038D01*
X024548Y062475D01*
X024360Y063475D02*
X023485Y063475D01*
X023235Y064600D01*
X024235Y064600D02*
X025485Y065600D01*
X032485Y065600D01*
X033735Y064850D01*
X032728Y064330D02*
X031985Y065100D01*
X030048Y065100D01*
X024360Y063475D01*
X024110Y061350D02*
X026235Y061350D01*
X028675Y060138D02*
X028916Y058725D01*
X031610Y058725D01*
X032985Y057100D01*
X033485Y057350D02*
X033485Y054725D01*
X032110Y053225D01*
X031860Y052975D01*
X031860Y050975D01*
X032110Y050475D01*
X032110Y049350D01*
X032860Y048600D01*
X033485Y048850D02*
X032485Y049850D01*
X032485Y050538D01*
X032173Y051225D01*
X032173Y052725D01*
X033985Y054663D01*
X033985Y057600D01*
X032110Y059475D01*
X030980Y059475D01*
X030607Y060656D01*
X029641Y060397D02*
X029823Y059100D01*
X031735Y059100D01*
X033485Y057350D01*
X034485Y057600D02*
X034485Y054600D01*
X032673Y052725D01*
X032485Y052538D01*
X032485Y051413D01*
X032798Y050663D01*
X032860Y050288D01*
X034110Y049100D01*
X034735Y049288D02*
X033235Y050600D01*
X032923Y051350D01*
X032860Y051600D01*
X032860Y052288D01*
X032923Y052350D01*
X034985Y054475D01*
X034985Y057725D01*
X033235Y059725D01*
X032793Y060225D01*
X032538Y061174D01*
X031572Y060915D02*
X031886Y059850D01*
X032485Y059850D01*
X034485Y057600D01*
X032985Y054725D02*
X031423Y053038D01*
X031280Y052100D01*
X028485Y052225D02*
X028485Y051350D01*
X027360Y050725D01*
X027895Y051850D02*
X026645Y053100D01*
X025360Y053100D01*
X023985Y051725D01*
X020485Y051725D01*
X019360Y050600D01*
X019360Y049941D01*
X019735Y049350D02*
X018110Y049350D01*
X017941Y049645D01*
X017610Y049895D01*
X017191Y050645D01*
X016610Y051225D01*
X016610Y051725D02*
X014905Y051725D01*
X014235Y051100D02*
X014235Y052350D01*
X013485Y052350D01*
X012310Y053650D01*
X012310Y054225D01*
X011110Y054475D02*
X013316Y051895D01*
X013566Y051725D01*
X012985Y051100D02*
X014235Y051100D01*
X012985Y051100D02*
X012310Y050425D01*
X011110Y054475D02*
X010660Y054475D01*
X010060Y054475D02*
X008860Y054475D01*
X004060Y056675D02*
X005360Y058850D01*
X005360Y060475D02*
X005360Y062350D01*
X006610Y062350D01*
X006985Y062225D01*
X007860Y061725D01*
X008485Y062350D01*
X010235Y062225D01*
X010735Y062225D01*
X011485Y063350D01*
X012470Y063340D01*
X011485Y061475D02*
X008653Y061683D01*
X007818Y062518D02*
X007360Y063475D01*
X006360Y063475D02*
X006360Y065350D01*
X007735Y065350D01*
X007985Y065100D01*
X009360Y064016D02*
X009360Y063475D01*
X011485Y061475D02*
X016485Y061475D01*
X016485Y062725D01*
X020485Y062725D01*
X021235Y061975D01*
X021235Y059975D01*
X020750Y059491D01*
X019960Y059491D01*
X019135Y058310D02*
X019135Y057625D01*
X018860Y057350D01*
X018860Y054100D01*
X017110Y052538D01*
X017110Y051316D01*
X018485Y049941D01*
X018485Y048760D02*
X018485Y046100D01*
X016610Y044225D01*
X016610Y043975D01*
X018235Y042100D01*
X018235Y041645D01*
X018655Y041645D01*
X018985Y041975D01*
X019735Y041975D01*
X019985Y042225D01*
X019985Y043225D01*
X020485Y043725D01*
X024485Y043725D01*
X025360Y043100D01*
X025360Y042645D01*
X026235Y042475D02*
X026235Y039441D01*
X026610Y038850D02*
X025735Y038850D01*
X025110Y038600D01*
X023160Y037975D01*
X021235Y036725D02*
X026235Y038260D01*
X026610Y038850D02*
X027060Y038475D01*
X027060Y038025D01*
X027360Y037725D01*
X028110Y037725D01*
X028360Y037475D01*
X028360Y036850D01*
X028235Y036600D01*
X028235Y036100D01*
X027610Y035725D01*
X027610Y034225D01*
X027485Y034100D01*
X027235Y034975D02*
X027235Y035975D01*
X027645Y036350D01*
X027691Y037100D01*
X028825Y036350D02*
X031985Y036350D01*
X033110Y037475D01*
X033110Y040975D02*
X032110Y041975D01*
X032110Y045850D01*
X033485Y047225D01*
X032860Y047225D02*
X031530Y045895D01*
X031530Y044475D01*
X031110Y043725D02*
X029700Y043725D01*
X029075Y044350D01*
X028485Y044850D02*
X028485Y043725D01*
X027985Y043725D01*
X027060Y042675D01*
X026485Y042725D02*
X026235Y042475D01*
X026485Y042725D02*
X027895Y044350D01*
X028485Y044850D02*
X027310Y045525D01*
X025110Y050145D02*
X024360Y051225D01*
X020610Y051225D01*
X019985Y050600D01*
X019985Y049600D01*
X019735Y049350D01*
X019360Y048760D02*
X019360Y046100D01*
X020235Y045225D01*
X020235Y043975D01*
X019360Y043100D01*
X019360Y042566D01*
X019360Y041385D02*
X019360Y039600D01*
X018360Y038600D01*
X017735Y038600D01*
X016360Y037225D01*
X016360Y036475D01*
X017985Y034725D01*
X018735Y034645D01*
X019485Y033975D02*
X019860Y034350D01*
X019860Y035350D01*
X021235Y036725D01*
X019485Y033975D02*
X019485Y032691D01*
X018860Y032066D01*
X018610Y031475D02*
X019485Y031475D01*
X019810Y030975D01*
X019810Y030150D01*
X020110Y029850D01*
X020110Y028850D01*
X019235Y027850D01*
X019235Y024800D01*
X019810Y024225D01*
X019810Y023650D01*
X020860Y022475D01*
X021610Y022475D01*
X021610Y021225D01*
X020610Y021225D01*
X019860Y020225D01*
X019860Y018975D01*
X020941Y021850D02*
X020860Y021975D01*
X020610Y022225D01*
X019360Y023100D01*
X017735Y023100D01*
X016360Y021225D01*
X016235Y022225D02*
X017485Y023475D01*
X018610Y023475D01*
X018735Y023600D01*
X018735Y027431D01*
X018691Y027475D01*
X018110Y026645D02*
X017360Y027395D01*
X017360Y028225D01*
X016298Y029288D01*
X018145Y030885D01*
X018860Y030885D01*
X018610Y031475D02*
X016735Y030850D01*
X015485Y029975D01*
X013735Y029975D01*
X013735Y028850D01*
X013485Y028600D01*
X012735Y028600D01*
X012310Y028175D01*
X012310Y027925D01*
X013066Y029288D02*
X013066Y029395D01*
X011485Y030975D01*
X010985Y030975D01*
X010660Y031300D01*
X010660Y031975D01*
X011610Y031900D02*
X011735Y031350D01*
X013110Y029975D01*
X013735Y029975D01*
X014405Y029288D02*
X016298Y029288D01*
X018110Y025306D02*
X018160Y024225D01*
X017560Y024225D02*
X016360Y024475D01*
X016235Y022225D02*
X012610Y022225D01*
X010660Y024175D01*
X010660Y024475D01*
X012185Y031725D02*
X011610Y031900D01*
X011610Y035225D01*
X012610Y036225D01*
X012610Y037225D01*
X012310Y037525D01*
X012310Y038475D01*
X011860Y039925D02*
X011610Y040175D01*
X011610Y042725D01*
X012610Y043725D01*
X012610Y044975D01*
X012310Y045275D01*
X012310Y045975D01*
X013360Y043975D02*
X016610Y043975D01*
X017035Y045600D02*
X017485Y045600D01*
X017610Y045725D01*
X017610Y048556D01*
X013360Y043975D02*
X012405Y043020D01*
X012405Y042100D01*
X013360Y036475D02*
X016360Y036475D01*
X013360Y036475D02*
X012280Y035395D01*
X012280Y034475D01*
X020030Y028145D02*
X020610Y028725D01*
X023235Y028725D01*
X023860Y031025D02*
X023860Y031975D01*
X025860Y033600D02*
X027235Y034975D01*
X027310Y030975D02*
X027310Y030150D01*
X027887Y029699D01*
X028735Y029600D02*
X027772Y028637D01*
X027772Y028350D01*
X026441Y026895D01*
X026485Y026850D01*
X026485Y024225D01*
X026110Y023850D01*
X025110Y023850D01*
X023110Y021850D01*
X022280Y021850D01*
X024485Y022225D02*
X024485Y021225D01*
X025860Y019850D01*
X027780Y016975D01*
X024485Y022225D02*
X025610Y023350D01*
X026685Y023350D01*
X027185Y024225D01*
X025785Y024600D02*
X025785Y025506D01*
X025735Y025556D01*
X025735Y026895D02*
X026441Y026895D01*
X028735Y029600D02*
X029691Y029850D01*
X029860Y029225D01*
X031610Y029225D01*
X031860Y030225D01*
X032360Y029725D02*
X032360Y028975D01*
X034610Y026725D01*
X034610Y020100D01*
X032610Y024475D02*
X033110Y024975D01*
X033110Y026425D01*
X033110Y027025D02*
X033110Y027350D01*
X031735Y028600D01*
X029235Y028600D01*
X028834Y028752D01*
X020030Y028145D02*
X020030Y027475D01*
X033860Y041100D02*
X032485Y042475D01*
X032485Y045538D01*
X034110Y046975D01*
X034735Y046850D02*
X032860Y045225D01*
X032860Y042975D01*
X034610Y041225D01*
X028485Y052225D02*
X027310Y053025D01*
X027310Y053600D01*
X021825Y060475D02*
X021735Y060475D01*
X019610Y062135D02*
X019235Y061725D01*
X018360Y060850D01*
X018360Y060600D01*
X017610Y059850D01*
X017450Y059850D01*
X016860Y059225D02*
X016860Y061350D01*
X017160Y061650D01*
X017160Y062150D01*
X017235Y063100D02*
X017860Y063725D01*
X018235Y064600D01*
X017235Y064600D02*
X017110Y063975D01*
X016735Y063475D01*
X015985Y063475D01*
X015360Y064100D01*
X014860Y063975D02*
X015735Y063100D01*
X017235Y063100D01*
X015821Y062150D02*
X015360Y062850D01*
X014860Y063350D01*
X014260Y063350D01*
X014250Y063340D01*
X016860Y059225D02*
X017485Y058895D01*
X018310Y057400D02*
X018423Y057225D01*
X018423Y054475D01*
X005360Y062350D02*
X005360Y063475D01*
X004360Y064725D02*
X003610Y063975D01*
D30*
X002985Y063725D01*
X002985Y062725D01*
X003780Y061975D01*
X002395Y060725D01*
X002441Y061975D02*
X002316Y063225D01*
X003655Y063225D02*
X004360Y063475D01*
X004360Y064725D02*
X004985Y065350D01*
X005770Y064788D01*
X004985Y065350D02*
X005504Y065869D01*
X007360Y065869D01*
X023860Y065850D01*
X024235Y064600D01*
X025966Y062519D02*
X025110Y061902D01*
X025110Y060799D02*
X026809Y060799D01*
X027485Y061350D01*
X028860Y061350D01*
X029610Y061600D01*
X029700Y062100D01*
X033504Y062100D01*
X033504Y061432D01*
X033735Y062539D01*
X033735Y064850D01*
X029830Y063554D02*
X028864Y063295D01*
X028520Y062100D02*
X027898Y062100D01*
X027898Y063036D01*
X026932Y062777D02*
X026860Y061975D01*
X026235Y061350D01*
X027709Y059880D02*
X027649Y058764D01*
X026405Y058270D01*
X025110Y058770D01*
X023985Y058895D01*
X017485Y058895D01*
X018355Y058900D01*
X018310Y058310D02*
X018310Y057400D01*
X017485Y057556D02*
X017610Y056900D01*
X017610Y056300D02*
X017860Y055800D01*
X017860Y054850D01*
X017360Y054475D01*
X016360Y054475D01*
X016610Y052850D02*
X016610Y051725D01*
X016610Y051225D01*
X016610Y052850D02*
X018423Y054475D01*
X019360Y055100D02*
X019810Y054650D01*
X019810Y054225D01*
X019810Y053525D01*
X020860Y052225D01*
X023610Y052225D01*
X024985Y053600D01*
X027310Y053600D01*
X027910Y053600D02*
X028860Y053475D01*
X030360Y053525D02*
X031360Y054475D01*
X032985Y054725D02*
X032985Y057100D01*
X030360Y052925D02*
X029941Y052100D01*
X029075Y051850D02*
X029700Y051225D01*
X030923Y051225D01*
X031280Y051582D01*
X031280Y052100D01*
X033485Y048850D02*
X033485Y047225D01*
X032860Y047225D02*
X032860Y048600D01*
X034110Y049100D02*
X034110Y046975D01*
X034735Y046850D02*
X034735Y049288D01*
X031360Y046975D02*
X030360Y046025D01*
X030360Y045425D02*
X030191Y044475D01*
X031110Y043725D02*
X031530Y044145D01*
X031530Y044475D01*
X028860Y045975D02*
X027910Y045975D01*
X027310Y045975D02*
X027310Y045525D01*
X027310Y045975D02*
X027310Y047025D01*
X026860Y047475D01*
X026860Y048475D01*
X027360Y048975D01*
X027360Y050725D01*
X025610Y049645D02*
X025110Y050145D01*
X025610Y048306D02*
X025660Y046975D01*
X025060Y046975D02*
X023860Y046975D01*
X024860Y045975D02*
X027310Y045975D01*
X024860Y045975D02*
X024360Y045475D01*
X023160Y045475D01*
X022560Y045475D02*
X021360Y045975D01*
X025360Y041306D02*
X025410Y039475D01*
X024810Y039475D02*
X023860Y039475D01*
X022560Y037975D02*
X021360Y038475D01*
X018160Y039475D02*
X018235Y040306D01*
X017560Y039475D02*
X016360Y039475D01*
X013860Y038475D02*
X012910Y038475D01*
X012310Y038475D02*
X012310Y039475D01*
X011860Y039925D01*
X011066Y042100D02*
X008860Y044181D01*
X008860Y044925D01*
X008860Y045525D02*
X008860Y046975D01*
X011860Y047225D02*
X012310Y046775D01*
X012310Y045975D01*
X012910Y045975D02*
X013860Y045975D01*
X011860Y047225D02*
X011860Y048475D01*
X012310Y048925D01*
X012310Y050425D01*
X013860Y053475D02*
X012910Y054225D01*
X012310Y054225D02*
X011110Y055425D01*
X011110Y057350D01*
X008360Y059475D01*
X008360Y060475D01*
X007360Y060475D01*
X006360Y060475D01*
X005950Y061850D01*
X005360Y060475D02*
X005360Y058850D01*
X004060Y056675D02*
X004060Y053475D01*
X004060Y053025D01*
X004610Y052475D01*
X004610Y050975D01*
X004060Y050425D01*
X004060Y045975D01*
X004060Y045525D01*
X004610Y044975D01*
X004610Y043475D01*
X004060Y042925D01*
X004060Y038475D01*
X004060Y038025D01*
X004610Y037475D01*
X004610Y035725D01*
X004060Y035175D01*
X004060Y030975D01*
X004060Y030525D01*
X004610Y029975D01*
X004610Y028475D01*
X004060Y027925D01*
X004060Y023725D01*
X004060Y023025D01*
X004610Y022475D01*
X004610Y020975D01*
X004060Y020425D01*
X004060Y015975D01*
X008860Y016975D02*
X010060Y016975D01*
X010660Y016975D02*
X011860Y018175D01*
X011860Y019725D01*
X013110Y021225D01*
X016360Y021225D01*
X013860Y023475D02*
X012910Y023475D01*
X012310Y023475D02*
X012310Y024525D01*
X011860Y024975D01*
X011860Y025975D01*
X012310Y026425D01*
X012310Y027925D01*
X013860Y030975D02*
X012785Y031725D01*
X010941Y034475D02*
X009485Y035931D01*
X009485Y036675D01*
X008860Y037425D01*
X008860Y038025D02*
X008860Y039475D01*
X008860Y031975D02*
X010060Y031975D01*
X010060Y024475D02*
X008860Y024475D01*
X016360Y016975D02*
X017360Y016025D01*
X019560Y016225D02*
X019560Y017025D01*
X019360Y017475D01*
X019360Y018475D01*
X019860Y018975D01*
X020160Y016225D02*
X021360Y015975D01*
X023860Y016975D02*
X025060Y016975D01*
X025660Y016975D02*
X026441Y016975D01*
X027780Y016975D02*
X030485Y016975D01*
X032110Y017600D01*
X034610Y020100D01*
X033860Y020475D02*
X033860Y023975D01*
X033360Y024475D01*
X032610Y024475D01*
X031360Y024475D01*
X028860Y023475D02*
X027860Y022725D01*
X027785Y024225D01*
X025185Y024600D02*
X023860Y024475D01*
X021360Y023475D02*
X020410Y024225D01*
X023235Y028725D02*
X023985Y028725D01*
X024280Y029020D01*
X024280Y029475D01*
X025860Y031056D01*
X025860Y033600D01*
X026860Y033475D02*
X026860Y032475D01*
X027310Y032025D01*
X027310Y030975D01*
X027910Y030975D02*
X028860Y030975D01*
X030185Y030850D02*
X030360Y031975D01*
X031360Y031975D01*
X030785Y030850D02*
X031030Y029850D01*
X031860Y030225D02*
X033610Y032100D01*
X033610Y036475D01*
X033860Y036725D01*
X033860Y041100D01*
X033110Y040975D02*
X033110Y037475D01*
X031360Y037675D02*
X030785Y037100D01*
X029030Y037100D01*
X028860Y038475D02*
X027660Y038475D01*
X027060Y038475D02*
X027060Y042675D01*
X031360Y039475D02*
X031360Y038275D01*
X034610Y041225D02*
X034610Y031975D01*
X032360Y029725D01*
X027485Y034100D02*
X026860Y033475D01*
X023860Y030425D02*
X023435Y030425D01*
X022941Y029931D01*
X022941Y029475D01*
X021360Y030975D02*
X020410Y030975D01*
X017910Y032100D02*
X018735Y033306D01*
X017310Y032100D02*
X016360Y031975D01*
X016435Y045600D02*
X016360Y046975D01*
X021360Y053475D02*
X020410Y054225D01*
X019360Y055100D02*
X019360Y056975D01*
X019960Y057825D01*
X019960Y058310D01*
X019135Y059491D02*
X019135Y059875D01*
X019735Y060475D01*
X020645Y060475D01*
X020645Y061350D02*
X019735Y061350D01*
X018310Y059925D01*
X018310Y059491D01*
X017450Y060725D02*
X017450Y060975D01*
X018610Y062135D01*
X018610Y063316D02*
X019235Y064600D01*
X020235Y064600D02*
X019610Y063316D01*
X021825Y061350D02*
X024110Y061350D01*
X022680Y059621D02*
X021825Y060475D01*
X022680Y059621D02*
X026743Y059621D01*
X025110Y057431D02*
X025610Y056275D01*
X025610Y055675D02*
X025360Y054725D01*
X023860Y054475D01*
X016270Y059850D02*
X015645Y059225D01*
X009735Y059225D01*
X009360Y060475D01*
X010360Y060475D02*
X013610Y060475D01*
X014360Y060725D01*
X015360Y060725D02*
X016270Y060725D01*
X015360Y064100D02*
X015360Y064350D01*
X014610Y065100D01*
X007985Y065100D01*
X006950Y064788D02*
X007360Y063475D01*
X008360Y063475D01*
X009360Y063475D01*
X010360Y063475D02*
X011860Y063975D01*
X012360Y064225D01*
X005360Y060475D02*
X004360Y060475D01*
X003575Y060725D01*
X003780Y061975D02*
X004770Y061850D01*
X033860Y020475D02*
X031860Y018475D01*
X029485Y018475D01*
X028860Y019100D01*
X028860Y020225D01*
D31*
X003110Y012475D03*
X003110Y021725D03*
X003110Y029225D03*
X003110Y036725D03*
X003110Y044225D03*
X003110Y051725D03*
X003110Y058975D03*
X003110Y065225D03*
X011110Y065225D03*
X026110Y065225D03*
X035360Y065225D03*
X035360Y058975D03*
X035360Y051725D03*
X035360Y044225D03*
X035360Y036725D03*
X035360Y029225D03*
X035360Y021725D03*
X035360Y012475D03*
X026110Y012475D03*
X018610Y012475D03*
X011110Y012475D03*
M02*
