%
M48
M72
T01C0.0320
T02C0.0394
T03C0.0400
T04C0.0590
T05C0.0591
T06C0.0675
T07C0.1181
%
T01
X29701Y59621
X30667Y59880
X31633Y60138
X32599Y60397
X33565Y60656
X34531Y60915
X35497Y61174
X36462Y61432
X34720Y64071
X33754Y63813
X32788Y63554
X31822Y63295
X30856Y63036
X29890Y62777
X28925Y62519
X27194Y64600
X26194Y64600
X25194Y64600
X24194Y64600
X23194Y64600
X22194Y64600
X21194Y64600
X20194Y64600
X19194Y64600
X18319Y60725
X17319Y60725
X13319Y60475
X12319Y60475
X11319Y60475
X10319Y60475
X9319Y60475
X8319Y60475
X7319Y60475
X7319Y63475
X8319Y63475
X9319Y63475
X10319Y63475
X11319Y63475
X12319Y63475
X13319Y63475
X35686Y64330
T02
X32819Y55475
X32819Y55475
X32819Y47975
X32819Y47975
X32819Y40475
X32819Y40475
X32819Y32975
X32819Y32975
X32819Y25475
X32819Y25475
X32819Y21725
X32819Y21725
X25319Y17975
X25319Y17975
X25319Y25475
X25319Y25475
X25319Y32975
X25319Y32975
X25319Y40475
X25319Y40475
X25319Y47975
X25319Y47975
X25319Y55475
X25319Y55475
X17819Y55475
X17819Y55475
X17819Y47975
X17819Y47975
X17819Y40475
X17819Y40475
X17819Y32975
X17819Y32975
X17819Y25475
X17819Y25475
X17819Y17975
X17819Y17975
X10319Y17975
X10319Y17975
X10319Y25475
X10319Y25475
X10319Y32975
X10319Y32975
X10319Y40475
X10319Y40475
X10319Y47975
X10319Y47975
X10319Y55475
X10319Y55475
T03
X10819Y57475
X11819Y57475
X9819Y57475
X8819Y57475
X8819Y49975
X9819Y49975
X10819Y49975
X11819Y49975
X16319Y49975
X17319Y49975
X18319Y49975
X19319Y49975
X23819Y49975
X24819Y49975
X25819Y49975
X26819Y49975
X31319Y49975
X32319Y49975
X33319Y49975
X34319Y49975
X34319Y42475
X33319Y42475
X32319Y42475
X31319Y42475
X26819Y42475
X25819Y42475
X24819Y42475
X23819Y42475
X19319Y42475
X18319Y42475
X17319Y42475
X16319Y42475
X11819Y42475
X10819Y42475
X9819Y42475
X8819Y42475
X8819Y34975
X9819Y34975
X10819Y34975
X11819Y34975
X16319Y34975
X17319Y34975
X18319Y34975
X19319Y34975
X23819Y34975
X24819Y34975
X25819Y34975
X26819Y34975
X31319Y34975
X32319Y34975
X33319Y34975
X34319Y34975
X34319Y27475
X33319Y27475
X32319Y27475
X31319Y27475
X26819Y27475
X25819Y27475
X24819Y27475
X23819Y27475
X19319Y27475
X18319Y27475
X17319Y27475
X16319Y27475
X11819Y27475
X10819Y27475
X9819Y27475
X8819Y27475
X8819Y19975
X9819Y19975
X10819Y19975
X11819Y19975
X16319Y19975
X17319Y19975
X18319Y19975
X19319Y19975
X23819Y19975
X24819Y19975
X25819Y19975
X26819Y19975
X34819Y20225
X34819Y21225
X34819Y22225
X34819Y23225
X34319Y57475
X33319Y57475
X32319Y57475
X31319Y57475
X26819Y57475
X25819Y57475
X24819Y57475
X23819Y57475
X19319Y57475
X18319Y57475
X17319Y57475
X16319Y57475
X17209Y63340
X15429Y63340
T04
X14939Y62360
X17699Y62360
T05
X19319Y54475
X16819Y53475
X11819Y54475
X9319Y53475
X11819Y46975
X9319Y45975
X11819Y39475
X9319Y38475
X11819Y31975
X9319Y30975
X11819Y24475
X9319Y23475
X11819Y16975
X9319Y15975
X16819Y15975
X19319Y16975
X24319Y15975
X26819Y16975
X31819Y20225
X30819Y22725
X31819Y23475
X34319Y24475
X31819Y30975
X34319Y31975
X31819Y38475
X34319Y39475
X31819Y45975
X34319Y46975
X31819Y53475
X34319Y54475
X26819Y54475
X24319Y53475
X26819Y46975
X24319Y45975
X26819Y39475
X24319Y38475
X26819Y31975
X24319Y30975
X19319Y31975
X16819Y30975
X19319Y24475
X16819Y23475
X24319Y23475
X26819Y24475
X16819Y38475
X19319Y39475
X16819Y45975
X19319Y46975
T06
X19819Y47975
X23319Y47975
X27319Y47975
X30819Y47975
X34819Y47975
X34819Y55475
X30819Y55475
X27319Y55475
X23319Y55475
X19819Y55475
X15819Y55475
X12319Y55475
X8319Y55475
X8319Y47975
X12319Y47975
X15819Y47975
X15819Y40475
X12319Y40475
X8319Y40475
X8319Y32975
X12319Y32975
X15819Y32975
X19819Y32975
X23319Y32975
X27319Y32975
X30819Y32975
X34819Y32975
X34819Y25475
X32819Y23725
X30819Y25475
X27319Y25475
X23319Y25475
X19819Y25475
X15819Y25475
X12319Y25475
X8319Y25475
X8319Y17975
X12319Y17975
X15819Y17975
X19819Y17975
X23319Y17975
X27319Y17975
X32819Y19725
X34819Y40475
X30819Y40475
X27319Y40475
X23319Y40475
X19819Y40475
T07
X5319Y12975
X5319Y21725
X5319Y29225
X5319Y36725
X5319Y44225
X5319Y51725
X5319Y58975
X5319Y66475
X14069Y66475
X21569Y66475
X29069Y66475
X37819Y66475
X37819Y58975
X37819Y51725
X37819Y44225
X37819Y36725
X37819Y29225
X37819Y21725
X37819Y12975
X29069Y12975
X21569Y12975
X14069Y12975
M30
