G75*
G70*
%OFA0B0*%
%FSLAX24Y24*%
%IPPOS*%
%LPD*%
%AMOC8*
5,1,8,0,0,1.08239X$1,22.5*
%
%ADD10C,0.0079*%
%ADD11C,0.0039*%
D10*
X004728Y001389D02*
X004730Y001437D01*
X004736Y001485D01*
X004746Y001532D01*
X004759Y001578D01*
X004777Y001623D01*
X004797Y001667D01*
X004822Y001709D01*
X004850Y001748D01*
X004880Y001785D01*
X004914Y001819D01*
X004951Y001851D01*
X004989Y001880D01*
X005030Y001905D01*
X005073Y001927D01*
X005118Y001945D01*
X005164Y001959D01*
X005211Y001970D01*
X005259Y001977D01*
X005307Y001980D01*
X005355Y001979D01*
X005403Y001974D01*
X005451Y001965D01*
X005497Y001953D01*
X005542Y001936D01*
X005586Y001916D01*
X005628Y001893D01*
X005668Y001866D01*
X005706Y001836D01*
X005741Y001803D01*
X005773Y001767D01*
X005803Y001729D01*
X005829Y001688D01*
X005851Y001645D01*
X005871Y001601D01*
X005886Y001556D01*
X005898Y001509D01*
X005906Y001461D01*
X005910Y001413D01*
X005910Y001365D01*
X005906Y001317D01*
X005898Y001269D01*
X005886Y001222D01*
X005871Y001177D01*
X005851Y001133D01*
X005829Y001090D01*
X005803Y001049D01*
X005773Y001011D01*
X005741Y000975D01*
X005706Y000942D01*
X005668Y000912D01*
X005628Y000885D01*
X005586Y000862D01*
X005542Y000842D01*
X005497Y000825D01*
X005451Y000813D01*
X005403Y000804D01*
X005355Y000799D01*
X005307Y000798D01*
X005259Y000801D01*
X005211Y000808D01*
X005164Y000819D01*
X005118Y000833D01*
X005073Y000851D01*
X005030Y000873D01*
X004989Y000898D01*
X004951Y000927D01*
X004914Y000959D01*
X004880Y000993D01*
X004850Y001030D01*
X004822Y001069D01*
X004797Y001111D01*
X004777Y001155D01*
X004759Y001200D01*
X004746Y001246D01*
X004736Y001293D01*
X004730Y001341D01*
X004728Y001389D01*
X007563Y003633D02*
X007563Y009145D01*
X013075Y009145D01*
X013075Y003633D01*
X007563Y003633D01*
X004728Y010139D02*
X004730Y010187D01*
X004736Y010235D01*
X004746Y010282D01*
X004759Y010328D01*
X004777Y010373D01*
X004797Y010417D01*
X004822Y010459D01*
X004850Y010498D01*
X004880Y010535D01*
X004914Y010569D01*
X004951Y010601D01*
X004989Y010630D01*
X005030Y010655D01*
X005073Y010677D01*
X005118Y010695D01*
X005164Y010709D01*
X005211Y010720D01*
X005259Y010727D01*
X005307Y010730D01*
X005355Y010729D01*
X005403Y010724D01*
X005451Y010715D01*
X005497Y010703D01*
X005542Y010686D01*
X005586Y010666D01*
X005628Y010643D01*
X005668Y010616D01*
X005706Y010586D01*
X005741Y010553D01*
X005773Y010517D01*
X005803Y010479D01*
X005829Y010438D01*
X005851Y010395D01*
X005871Y010351D01*
X005886Y010306D01*
X005898Y010259D01*
X005906Y010211D01*
X005910Y010163D01*
X005910Y010115D01*
X005906Y010067D01*
X005898Y010019D01*
X005886Y009972D01*
X005871Y009927D01*
X005851Y009883D01*
X005829Y009840D01*
X005803Y009799D01*
X005773Y009761D01*
X005741Y009725D01*
X005706Y009692D01*
X005668Y009662D01*
X005628Y009635D01*
X005586Y009612D01*
X005542Y009592D01*
X005497Y009575D01*
X005451Y009563D01*
X005403Y009554D01*
X005355Y009549D01*
X005307Y009548D01*
X005259Y009551D01*
X005211Y009558D01*
X005164Y009569D01*
X005118Y009583D01*
X005073Y009601D01*
X005030Y009623D01*
X004989Y009648D01*
X004951Y009677D01*
X004914Y009709D01*
X004880Y009743D01*
X004850Y009780D01*
X004822Y009819D01*
X004797Y009861D01*
X004777Y009905D01*
X004759Y009950D01*
X004746Y009996D01*
X004736Y010043D01*
X004730Y010091D01*
X004728Y010139D01*
X007563Y011133D02*
X007563Y016645D01*
X013075Y016645D01*
X013075Y011133D01*
X007563Y011133D01*
X004728Y017639D02*
X004730Y017687D01*
X004736Y017735D01*
X004746Y017782D01*
X004759Y017828D01*
X004777Y017873D01*
X004797Y017917D01*
X004822Y017959D01*
X004850Y017998D01*
X004880Y018035D01*
X004914Y018069D01*
X004951Y018101D01*
X004989Y018130D01*
X005030Y018155D01*
X005073Y018177D01*
X005118Y018195D01*
X005164Y018209D01*
X005211Y018220D01*
X005259Y018227D01*
X005307Y018230D01*
X005355Y018229D01*
X005403Y018224D01*
X005451Y018215D01*
X005497Y018203D01*
X005542Y018186D01*
X005586Y018166D01*
X005628Y018143D01*
X005668Y018116D01*
X005706Y018086D01*
X005741Y018053D01*
X005773Y018017D01*
X005803Y017979D01*
X005829Y017938D01*
X005851Y017895D01*
X005871Y017851D01*
X005886Y017806D01*
X005898Y017759D01*
X005906Y017711D01*
X005910Y017663D01*
X005910Y017615D01*
X005906Y017567D01*
X005898Y017519D01*
X005886Y017472D01*
X005871Y017427D01*
X005851Y017383D01*
X005829Y017340D01*
X005803Y017299D01*
X005773Y017261D01*
X005741Y017225D01*
X005706Y017192D01*
X005668Y017162D01*
X005628Y017135D01*
X005586Y017112D01*
X005542Y017092D01*
X005497Y017075D01*
X005451Y017063D01*
X005403Y017054D01*
X005355Y017049D01*
X005307Y017048D01*
X005259Y017051D01*
X005211Y017058D01*
X005164Y017069D01*
X005118Y017083D01*
X005073Y017101D01*
X005030Y017123D01*
X004989Y017148D01*
X004951Y017177D01*
X004914Y017209D01*
X004880Y017243D01*
X004850Y017280D01*
X004822Y017319D01*
X004797Y017361D01*
X004777Y017405D01*
X004759Y017450D01*
X004746Y017496D01*
X004736Y017543D01*
X004730Y017591D01*
X004728Y017639D01*
X007563Y018633D02*
X007563Y024145D01*
X013075Y024145D01*
X013075Y018633D01*
X007563Y018633D01*
X004728Y025139D02*
X004730Y025187D01*
X004736Y025235D01*
X004746Y025282D01*
X004759Y025328D01*
X004777Y025373D01*
X004797Y025417D01*
X004822Y025459D01*
X004850Y025498D01*
X004880Y025535D01*
X004914Y025569D01*
X004951Y025601D01*
X004989Y025630D01*
X005030Y025655D01*
X005073Y025677D01*
X005118Y025695D01*
X005164Y025709D01*
X005211Y025720D01*
X005259Y025727D01*
X005307Y025730D01*
X005355Y025729D01*
X005403Y025724D01*
X005451Y025715D01*
X005497Y025703D01*
X005542Y025686D01*
X005586Y025666D01*
X005628Y025643D01*
X005668Y025616D01*
X005706Y025586D01*
X005741Y025553D01*
X005773Y025517D01*
X005803Y025479D01*
X005829Y025438D01*
X005851Y025395D01*
X005871Y025351D01*
X005886Y025306D01*
X005898Y025259D01*
X005906Y025211D01*
X005910Y025163D01*
X005910Y025115D01*
X005906Y025067D01*
X005898Y025019D01*
X005886Y024972D01*
X005871Y024927D01*
X005851Y024883D01*
X005829Y024840D01*
X005803Y024799D01*
X005773Y024761D01*
X005741Y024725D01*
X005706Y024692D01*
X005668Y024662D01*
X005628Y024635D01*
X005586Y024612D01*
X005542Y024592D01*
X005497Y024575D01*
X005451Y024563D01*
X005403Y024554D01*
X005355Y024549D01*
X005307Y024548D01*
X005259Y024551D01*
X005211Y024558D01*
X005164Y024569D01*
X005118Y024583D01*
X005073Y024601D01*
X005030Y024623D01*
X004989Y024648D01*
X004951Y024677D01*
X004914Y024709D01*
X004880Y024743D01*
X004850Y024780D01*
X004822Y024819D01*
X004797Y024861D01*
X004777Y024905D01*
X004759Y024950D01*
X004746Y024996D01*
X004736Y025043D01*
X004730Y025091D01*
X004728Y025139D01*
X007563Y026133D02*
X007563Y031645D01*
X013075Y031645D01*
X013075Y026133D01*
X007563Y026133D01*
X004728Y032639D02*
X004730Y032687D01*
X004736Y032735D01*
X004746Y032782D01*
X004759Y032828D01*
X004777Y032873D01*
X004797Y032917D01*
X004822Y032959D01*
X004850Y032998D01*
X004880Y033035D01*
X004914Y033069D01*
X004951Y033101D01*
X004989Y033130D01*
X005030Y033155D01*
X005073Y033177D01*
X005118Y033195D01*
X005164Y033209D01*
X005211Y033220D01*
X005259Y033227D01*
X005307Y033230D01*
X005355Y033229D01*
X005403Y033224D01*
X005451Y033215D01*
X005497Y033203D01*
X005542Y033186D01*
X005586Y033166D01*
X005628Y033143D01*
X005668Y033116D01*
X005706Y033086D01*
X005741Y033053D01*
X005773Y033017D01*
X005803Y032979D01*
X005829Y032938D01*
X005851Y032895D01*
X005871Y032851D01*
X005886Y032806D01*
X005898Y032759D01*
X005906Y032711D01*
X005910Y032663D01*
X005910Y032615D01*
X005906Y032567D01*
X005898Y032519D01*
X005886Y032472D01*
X005871Y032427D01*
X005851Y032383D01*
X005829Y032340D01*
X005803Y032299D01*
X005773Y032261D01*
X005741Y032225D01*
X005706Y032192D01*
X005668Y032162D01*
X005628Y032135D01*
X005586Y032112D01*
X005542Y032092D01*
X005497Y032075D01*
X005451Y032063D01*
X005403Y032054D01*
X005355Y032049D01*
X005307Y032048D01*
X005259Y032051D01*
X005211Y032058D01*
X005164Y032069D01*
X005118Y032083D01*
X005073Y032101D01*
X005030Y032123D01*
X004989Y032148D01*
X004951Y032177D01*
X004914Y032209D01*
X004880Y032243D01*
X004850Y032280D01*
X004822Y032319D01*
X004797Y032361D01*
X004777Y032405D01*
X004759Y032450D01*
X004746Y032496D01*
X004736Y032543D01*
X004730Y032591D01*
X004728Y032639D01*
X007563Y033633D02*
X007563Y039145D01*
X013075Y039145D01*
X013075Y033633D01*
X007563Y033633D01*
X004728Y040139D02*
X004730Y040187D01*
X004736Y040235D01*
X004746Y040282D01*
X004759Y040328D01*
X004777Y040373D01*
X004797Y040417D01*
X004822Y040459D01*
X004850Y040498D01*
X004880Y040535D01*
X004914Y040569D01*
X004951Y040601D01*
X004989Y040630D01*
X005030Y040655D01*
X005073Y040677D01*
X005118Y040695D01*
X005164Y040709D01*
X005211Y040720D01*
X005259Y040727D01*
X005307Y040730D01*
X005355Y040729D01*
X005403Y040724D01*
X005451Y040715D01*
X005497Y040703D01*
X005542Y040686D01*
X005586Y040666D01*
X005628Y040643D01*
X005668Y040616D01*
X005706Y040586D01*
X005741Y040553D01*
X005773Y040517D01*
X005803Y040479D01*
X005829Y040438D01*
X005851Y040395D01*
X005871Y040351D01*
X005886Y040306D01*
X005898Y040259D01*
X005906Y040211D01*
X005910Y040163D01*
X005910Y040115D01*
X005906Y040067D01*
X005898Y040019D01*
X005886Y039972D01*
X005871Y039927D01*
X005851Y039883D01*
X005829Y039840D01*
X005803Y039799D01*
X005773Y039761D01*
X005741Y039725D01*
X005706Y039692D01*
X005668Y039662D01*
X005628Y039635D01*
X005586Y039612D01*
X005542Y039592D01*
X005497Y039575D01*
X005451Y039563D01*
X005403Y039554D01*
X005355Y039549D01*
X005307Y039548D01*
X005259Y039551D01*
X005211Y039558D01*
X005164Y039569D01*
X005118Y039583D01*
X005073Y039601D01*
X005030Y039623D01*
X004989Y039648D01*
X004951Y039677D01*
X004914Y039709D01*
X004880Y039743D01*
X004850Y039780D01*
X004822Y039819D01*
X004797Y039861D01*
X004777Y039905D01*
X004759Y039950D01*
X004746Y039996D01*
X004736Y040043D01*
X004730Y040091D01*
X004728Y040139D01*
X007563Y041133D02*
X007563Y046645D01*
X013075Y046645D01*
X013075Y041133D01*
X007563Y041133D01*
X004728Y047639D02*
X004730Y047687D01*
X004736Y047735D01*
X004746Y047782D01*
X004759Y047828D01*
X004777Y047873D01*
X004797Y047917D01*
X004822Y047959D01*
X004850Y047998D01*
X004880Y048035D01*
X004914Y048069D01*
X004951Y048101D01*
X004989Y048130D01*
X005030Y048155D01*
X005073Y048177D01*
X005118Y048195D01*
X005164Y048209D01*
X005211Y048220D01*
X005259Y048227D01*
X005307Y048230D01*
X005355Y048229D01*
X005403Y048224D01*
X005451Y048215D01*
X005497Y048203D01*
X005542Y048186D01*
X005586Y048166D01*
X005628Y048143D01*
X005668Y048116D01*
X005706Y048086D01*
X005741Y048053D01*
X005773Y048017D01*
X005803Y047979D01*
X005829Y047938D01*
X005851Y047895D01*
X005871Y047851D01*
X005886Y047806D01*
X005898Y047759D01*
X005906Y047711D01*
X005910Y047663D01*
X005910Y047615D01*
X005906Y047567D01*
X005898Y047519D01*
X005886Y047472D01*
X005871Y047427D01*
X005851Y047383D01*
X005829Y047340D01*
X005803Y047299D01*
X005773Y047261D01*
X005741Y047225D01*
X005706Y047192D01*
X005668Y047162D01*
X005628Y047135D01*
X005586Y047112D01*
X005542Y047092D01*
X005497Y047075D01*
X005451Y047063D01*
X005403Y047054D01*
X005355Y047049D01*
X005307Y047048D01*
X005259Y047051D01*
X005211Y047058D01*
X005164Y047069D01*
X005118Y047083D01*
X005073Y047101D01*
X005030Y047123D01*
X004989Y047148D01*
X004951Y047177D01*
X004914Y047209D01*
X004880Y047243D01*
X004850Y047280D01*
X004822Y047319D01*
X004797Y047361D01*
X004777Y047405D01*
X004759Y047450D01*
X004746Y047496D01*
X004736Y047543D01*
X004730Y047591D01*
X004728Y047639D01*
X004728Y055139D02*
X004730Y055187D01*
X004736Y055235D01*
X004746Y055282D01*
X004759Y055328D01*
X004777Y055373D01*
X004797Y055417D01*
X004822Y055459D01*
X004850Y055498D01*
X004880Y055535D01*
X004914Y055569D01*
X004951Y055601D01*
X004989Y055630D01*
X005030Y055655D01*
X005073Y055677D01*
X005118Y055695D01*
X005164Y055709D01*
X005211Y055720D01*
X005259Y055727D01*
X005307Y055730D01*
X005355Y055729D01*
X005403Y055724D01*
X005451Y055715D01*
X005497Y055703D01*
X005542Y055686D01*
X005586Y055666D01*
X005628Y055643D01*
X005668Y055616D01*
X005706Y055586D01*
X005741Y055553D01*
X005773Y055517D01*
X005803Y055479D01*
X005829Y055438D01*
X005851Y055395D01*
X005871Y055351D01*
X005886Y055306D01*
X005898Y055259D01*
X005906Y055211D01*
X005910Y055163D01*
X005910Y055115D01*
X005906Y055067D01*
X005898Y055019D01*
X005886Y054972D01*
X005871Y054927D01*
X005851Y054883D01*
X005829Y054840D01*
X005803Y054799D01*
X005773Y054761D01*
X005741Y054725D01*
X005706Y054692D01*
X005668Y054662D01*
X005628Y054635D01*
X005586Y054612D01*
X005542Y054592D01*
X005497Y054575D01*
X005451Y054563D01*
X005403Y054554D01*
X005355Y054549D01*
X005307Y054548D01*
X005259Y054551D01*
X005211Y054558D01*
X005164Y054569D01*
X005118Y054583D01*
X005073Y054601D01*
X005030Y054623D01*
X004989Y054648D01*
X004951Y054677D01*
X004914Y054709D01*
X004880Y054743D01*
X004850Y054780D01*
X004822Y054819D01*
X004797Y054861D01*
X004777Y054905D01*
X004759Y054950D01*
X004746Y054996D01*
X004736Y055043D01*
X004730Y055091D01*
X004728Y055139D01*
X013478Y055139D02*
X013480Y055187D01*
X013486Y055235D01*
X013496Y055282D01*
X013509Y055328D01*
X013527Y055373D01*
X013547Y055417D01*
X013572Y055459D01*
X013600Y055498D01*
X013630Y055535D01*
X013664Y055569D01*
X013701Y055601D01*
X013739Y055630D01*
X013780Y055655D01*
X013823Y055677D01*
X013868Y055695D01*
X013914Y055709D01*
X013961Y055720D01*
X014009Y055727D01*
X014057Y055730D01*
X014105Y055729D01*
X014153Y055724D01*
X014201Y055715D01*
X014247Y055703D01*
X014292Y055686D01*
X014336Y055666D01*
X014378Y055643D01*
X014418Y055616D01*
X014456Y055586D01*
X014491Y055553D01*
X014523Y055517D01*
X014553Y055479D01*
X014579Y055438D01*
X014601Y055395D01*
X014621Y055351D01*
X014636Y055306D01*
X014648Y055259D01*
X014656Y055211D01*
X014660Y055163D01*
X014660Y055115D01*
X014656Y055067D01*
X014648Y055019D01*
X014636Y054972D01*
X014621Y054927D01*
X014601Y054883D01*
X014579Y054840D01*
X014553Y054799D01*
X014523Y054761D01*
X014491Y054725D01*
X014456Y054692D01*
X014418Y054662D01*
X014378Y054635D01*
X014336Y054612D01*
X014292Y054592D01*
X014247Y054575D01*
X014201Y054563D01*
X014153Y054554D01*
X014105Y054549D01*
X014057Y054548D01*
X014009Y054551D01*
X013961Y054558D01*
X013914Y054569D01*
X013868Y054583D01*
X013823Y054601D01*
X013780Y054623D01*
X013739Y054648D01*
X013701Y054677D01*
X013664Y054709D01*
X013630Y054743D01*
X013600Y054780D01*
X013572Y054819D01*
X013547Y054861D01*
X013527Y054905D01*
X013509Y054950D01*
X013496Y054996D01*
X013486Y055043D01*
X013480Y055091D01*
X013478Y055139D01*
X015063Y046645D02*
X015063Y041133D01*
X020575Y041133D01*
X020575Y046645D01*
X015063Y046645D01*
X015063Y039145D02*
X015063Y033633D01*
X020575Y033633D01*
X020575Y039145D01*
X015063Y039145D01*
X015063Y031645D02*
X015063Y026133D01*
X020575Y026133D01*
X020575Y031645D01*
X015063Y031645D01*
X015063Y024145D02*
X015063Y018633D01*
X020575Y018633D01*
X020575Y024145D01*
X015063Y024145D01*
X015063Y016645D02*
X015063Y011133D01*
X020575Y011133D01*
X020575Y016645D01*
X015063Y016645D01*
X015063Y009145D02*
X015063Y003633D01*
X020575Y003633D01*
X020575Y009145D01*
X015063Y009145D01*
X013478Y001389D02*
X013480Y001437D01*
X013486Y001485D01*
X013496Y001532D01*
X013509Y001578D01*
X013527Y001623D01*
X013547Y001667D01*
X013572Y001709D01*
X013600Y001748D01*
X013630Y001785D01*
X013664Y001819D01*
X013701Y001851D01*
X013739Y001880D01*
X013780Y001905D01*
X013823Y001927D01*
X013868Y001945D01*
X013914Y001959D01*
X013961Y001970D01*
X014009Y001977D01*
X014057Y001980D01*
X014105Y001979D01*
X014153Y001974D01*
X014201Y001965D01*
X014247Y001953D01*
X014292Y001936D01*
X014336Y001916D01*
X014378Y001893D01*
X014418Y001866D01*
X014456Y001836D01*
X014491Y001803D01*
X014523Y001767D01*
X014553Y001729D01*
X014579Y001688D01*
X014601Y001645D01*
X014621Y001601D01*
X014636Y001556D01*
X014648Y001509D01*
X014656Y001461D01*
X014660Y001413D01*
X014660Y001365D01*
X014656Y001317D01*
X014648Y001269D01*
X014636Y001222D01*
X014621Y001177D01*
X014601Y001133D01*
X014579Y001090D01*
X014553Y001049D01*
X014523Y001011D01*
X014491Y000975D01*
X014456Y000942D01*
X014418Y000912D01*
X014378Y000885D01*
X014336Y000862D01*
X014292Y000842D01*
X014247Y000825D01*
X014201Y000813D01*
X014153Y000804D01*
X014105Y000799D01*
X014057Y000798D01*
X014009Y000801D01*
X013961Y000808D01*
X013914Y000819D01*
X013868Y000833D01*
X013823Y000851D01*
X013780Y000873D01*
X013739Y000898D01*
X013701Y000927D01*
X013664Y000959D01*
X013630Y000993D01*
X013600Y001030D01*
X013572Y001069D01*
X013547Y001111D01*
X013527Y001155D01*
X013509Y001200D01*
X013496Y001246D01*
X013486Y001293D01*
X013480Y001341D01*
X013478Y001389D01*
X020978Y001389D02*
X020980Y001437D01*
X020986Y001485D01*
X020996Y001532D01*
X021009Y001578D01*
X021027Y001623D01*
X021047Y001667D01*
X021072Y001709D01*
X021100Y001748D01*
X021130Y001785D01*
X021164Y001819D01*
X021201Y001851D01*
X021239Y001880D01*
X021280Y001905D01*
X021323Y001927D01*
X021368Y001945D01*
X021414Y001959D01*
X021461Y001970D01*
X021509Y001977D01*
X021557Y001980D01*
X021605Y001979D01*
X021653Y001974D01*
X021701Y001965D01*
X021747Y001953D01*
X021792Y001936D01*
X021836Y001916D01*
X021878Y001893D01*
X021918Y001866D01*
X021956Y001836D01*
X021991Y001803D01*
X022023Y001767D01*
X022053Y001729D01*
X022079Y001688D01*
X022101Y001645D01*
X022121Y001601D01*
X022136Y001556D01*
X022148Y001509D01*
X022156Y001461D01*
X022160Y001413D01*
X022160Y001365D01*
X022156Y001317D01*
X022148Y001269D01*
X022136Y001222D01*
X022121Y001177D01*
X022101Y001133D01*
X022079Y001090D01*
X022053Y001049D01*
X022023Y001011D01*
X021991Y000975D01*
X021956Y000942D01*
X021918Y000912D01*
X021878Y000885D01*
X021836Y000862D01*
X021792Y000842D01*
X021747Y000825D01*
X021701Y000813D01*
X021653Y000804D01*
X021605Y000799D01*
X021557Y000798D01*
X021509Y000801D01*
X021461Y000808D01*
X021414Y000819D01*
X021368Y000833D01*
X021323Y000851D01*
X021280Y000873D01*
X021239Y000898D01*
X021201Y000927D01*
X021164Y000959D01*
X021130Y000993D01*
X021100Y001030D01*
X021072Y001069D01*
X021047Y001111D01*
X021027Y001155D01*
X021009Y001200D01*
X020996Y001246D01*
X020986Y001293D01*
X020980Y001341D01*
X020978Y001389D01*
X022563Y003633D02*
X022563Y009145D01*
X028075Y009145D01*
X028075Y003633D01*
X022563Y003633D01*
X022563Y011133D02*
X022563Y016645D01*
X028075Y016645D01*
X028075Y011133D01*
X022563Y011133D01*
X022563Y018633D02*
X022563Y024145D01*
X028075Y024145D01*
X028075Y018633D01*
X022563Y018633D01*
X022563Y026133D02*
X022563Y031645D01*
X028075Y031645D01*
X028075Y026133D01*
X022563Y026133D01*
X022563Y033633D02*
X022563Y039145D01*
X028075Y039145D01*
X028075Y033633D01*
X022563Y033633D01*
X022563Y041133D02*
X022563Y046645D01*
X028075Y046645D01*
X028075Y041133D01*
X022563Y041133D01*
X030063Y041133D02*
X030063Y046645D01*
X035575Y046645D01*
X035575Y041133D01*
X030063Y041133D01*
X030063Y039145D02*
X030063Y033633D01*
X035575Y033633D01*
X035575Y039145D01*
X030063Y039145D01*
X030063Y031645D02*
X030063Y026133D01*
X035575Y026133D01*
X035575Y031645D01*
X030063Y031645D01*
X030063Y024145D02*
X030063Y018633D01*
X035575Y018633D01*
X035575Y024145D01*
X030063Y024145D01*
X030063Y015494D02*
X030063Y014194D01*
X035575Y014194D01*
X035575Y015494D01*
X030063Y015494D01*
X030063Y012895D02*
X030063Y007383D01*
X035575Y007383D01*
X035575Y012895D01*
X030063Y012895D01*
X030063Y006084D02*
X030063Y004785D01*
X035575Y004785D01*
X035575Y006084D01*
X030063Y006084D01*
X028478Y001389D02*
X028480Y001437D01*
X028486Y001485D01*
X028496Y001532D01*
X028509Y001578D01*
X028527Y001623D01*
X028547Y001667D01*
X028572Y001709D01*
X028600Y001748D01*
X028630Y001785D01*
X028664Y001819D01*
X028701Y001851D01*
X028739Y001880D01*
X028780Y001905D01*
X028823Y001927D01*
X028868Y001945D01*
X028914Y001959D01*
X028961Y001970D01*
X029009Y001977D01*
X029057Y001980D01*
X029105Y001979D01*
X029153Y001974D01*
X029201Y001965D01*
X029247Y001953D01*
X029292Y001936D01*
X029336Y001916D01*
X029378Y001893D01*
X029418Y001866D01*
X029456Y001836D01*
X029491Y001803D01*
X029523Y001767D01*
X029553Y001729D01*
X029579Y001688D01*
X029601Y001645D01*
X029621Y001601D01*
X029636Y001556D01*
X029648Y001509D01*
X029656Y001461D01*
X029660Y001413D01*
X029660Y001365D01*
X029656Y001317D01*
X029648Y001269D01*
X029636Y001222D01*
X029621Y001177D01*
X029601Y001133D01*
X029579Y001090D01*
X029553Y001049D01*
X029523Y001011D01*
X029491Y000975D01*
X029456Y000942D01*
X029418Y000912D01*
X029378Y000885D01*
X029336Y000862D01*
X029292Y000842D01*
X029247Y000825D01*
X029201Y000813D01*
X029153Y000804D01*
X029105Y000799D01*
X029057Y000798D01*
X029009Y000801D01*
X028961Y000808D01*
X028914Y000819D01*
X028868Y000833D01*
X028823Y000851D01*
X028780Y000873D01*
X028739Y000898D01*
X028701Y000927D01*
X028664Y000959D01*
X028630Y000993D01*
X028600Y001030D01*
X028572Y001069D01*
X028547Y001111D01*
X028527Y001155D01*
X028509Y001200D01*
X028496Y001246D01*
X028486Y001293D01*
X028480Y001341D01*
X028478Y001389D01*
X037228Y001389D02*
X037230Y001437D01*
X037236Y001485D01*
X037246Y001532D01*
X037259Y001578D01*
X037277Y001623D01*
X037297Y001667D01*
X037322Y001709D01*
X037350Y001748D01*
X037380Y001785D01*
X037414Y001819D01*
X037451Y001851D01*
X037489Y001880D01*
X037530Y001905D01*
X037573Y001927D01*
X037618Y001945D01*
X037664Y001959D01*
X037711Y001970D01*
X037759Y001977D01*
X037807Y001980D01*
X037855Y001979D01*
X037903Y001974D01*
X037951Y001965D01*
X037997Y001953D01*
X038042Y001936D01*
X038086Y001916D01*
X038128Y001893D01*
X038168Y001866D01*
X038206Y001836D01*
X038241Y001803D01*
X038273Y001767D01*
X038303Y001729D01*
X038329Y001688D01*
X038351Y001645D01*
X038371Y001601D01*
X038386Y001556D01*
X038398Y001509D01*
X038406Y001461D01*
X038410Y001413D01*
X038410Y001365D01*
X038406Y001317D01*
X038398Y001269D01*
X038386Y001222D01*
X038371Y001177D01*
X038351Y001133D01*
X038329Y001090D01*
X038303Y001049D01*
X038273Y001011D01*
X038241Y000975D01*
X038206Y000942D01*
X038168Y000912D01*
X038128Y000885D01*
X038086Y000862D01*
X038042Y000842D01*
X037997Y000825D01*
X037951Y000813D01*
X037903Y000804D01*
X037855Y000799D01*
X037807Y000798D01*
X037759Y000801D01*
X037711Y000808D01*
X037664Y000819D01*
X037618Y000833D01*
X037573Y000851D01*
X037530Y000873D01*
X037489Y000898D01*
X037451Y000927D01*
X037414Y000959D01*
X037380Y000993D01*
X037350Y001030D01*
X037322Y001069D01*
X037297Y001111D01*
X037277Y001155D01*
X037259Y001200D01*
X037246Y001246D01*
X037236Y001293D01*
X037230Y001341D01*
X037228Y001389D01*
X037228Y010139D02*
X037230Y010187D01*
X037236Y010235D01*
X037246Y010282D01*
X037259Y010328D01*
X037277Y010373D01*
X037297Y010417D01*
X037322Y010459D01*
X037350Y010498D01*
X037380Y010535D01*
X037414Y010569D01*
X037451Y010601D01*
X037489Y010630D01*
X037530Y010655D01*
X037573Y010677D01*
X037618Y010695D01*
X037664Y010709D01*
X037711Y010720D01*
X037759Y010727D01*
X037807Y010730D01*
X037855Y010729D01*
X037903Y010724D01*
X037951Y010715D01*
X037997Y010703D01*
X038042Y010686D01*
X038086Y010666D01*
X038128Y010643D01*
X038168Y010616D01*
X038206Y010586D01*
X038241Y010553D01*
X038273Y010517D01*
X038303Y010479D01*
X038329Y010438D01*
X038351Y010395D01*
X038371Y010351D01*
X038386Y010306D01*
X038398Y010259D01*
X038406Y010211D01*
X038410Y010163D01*
X038410Y010115D01*
X038406Y010067D01*
X038398Y010019D01*
X038386Y009972D01*
X038371Y009927D01*
X038351Y009883D01*
X038329Y009840D01*
X038303Y009799D01*
X038273Y009761D01*
X038241Y009725D01*
X038206Y009692D01*
X038168Y009662D01*
X038128Y009635D01*
X038086Y009612D01*
X038042Y009592D01*
X037997Y009575D01*
X037951Y009563D01*
X037903Y009554D01*
X037855Y009549D01*
X037807Y009548D01*
X037759Y009551D01*
X037711Y009558D01*
X037664Y009569D01*
X037618Y009583D01*
X037573Y009601D01*
X037530Y009623D01*
X037489Y009648D01*
X037451Y009677D01*
X037414Y009709D01*
X037380Y009743D01*
X037350Y009780D01*
X037322Y009819D01*
X037297Y009861D01*
X037277Y009905D01*
X037259Y009950D01*
X037246Y009996D01*
X037236Y010043D01*
X037230Y010091D01*
X037228Y010139D01*
X037228Y017639D02*
X037230Y017687D01*
X037236Y017735D01*
X037246Y017782D01*
X037259Y017828D01*
X037277Y017873D01*
X037297Y017917D01*
X037322Y017959D01*
X037350Y017998D01*
X037380Y018035D01*
X037414Y018069D01*
X037451Y018101D01*
X037489Y018130D01*
X037530Y018155D01*
X037573Y018177D01*
X037618Y018195D01*
X037664Y018209D01*
X037711Y018220D01*
X037759Y018227D01*
X037807Y018230D01*
X037855Y018229D01*
X037903Y018224D01*
X037951Y018215D01*
X037997Y018203D01*
X038042Y018186D01*
X038086Y018166D01*
X038128Y018143D01*
X038168Y018116D01*
X038206Y018086D01*
X038241Y018053D01*
X038273Y018017D01*
X038303Y017979D01*
X038329Y017938D01*
X038351Y017895D01*
X038371Y017851D01*
X038386Y017806D01*
X038398Y017759D01*
X038406Y017711D01*
X038410Y017663D01*
X038410Y017615D01*
X038406Y017567D01*
X038398Y017519D01*
X038386Y017472D01*
X038371Y017427D01*
X038351Y017383D01*
X038329Y017340D01*
X038303Y017299D01*
X038273Y017261D01*
X038241Y017225D01*
X038206Y017192D01*
X038168Y017162D01*
X038128Y017135D01*
X038086Y017112D01*
X038042Y017092D01*
X037997Y017075D01*
X037951Y017063D01*
X037903Y017054D01*
X037855Y017049D01*
X037807Y017048D01*
X037759Y017051D01*
X037711Y017058D01*
X037664Y017069D01*
X037618Y017083D01*
X037573Y017101D01*
X037530Y017123D01*
X037489Y017148D01*
X037451Y017177D01*
X037414Y017209D01*
X037380Y017243D01*
X037350Y017280D01*
X037322Y017319D01*
X037297Y017361D01*
X037277Y017405D01*
X037259Y017450D01*
X037246Y017496D01*
X037236Y017543D01*
X037230Y017591D01*
X037228Y017639D01*
X037228Y025139D02*
X037230Y025187D01*
X037236Y025235D01*
X037246Y025282D01*
X037259Y025328D01*
X037277Y025373D01*
X037297Y025417D01*
X037322Y025459D01*
X037350Y025498D01*
X037380Y025535D01*
X037414Y025569D01*
X037451Y025601D01*
X037489Y025630D01*
X037530Y025655D01*
X037573Y025677D01*
X037618Y025695D01*
X037664Y025709D01*
X037711Y025720D01*
X037759Y025727D01*
X037807Y025730D01*
X037855Y025729D01*
X037903Y025724D01*
X037951Y025715D01*
X037997Y025703D01*
X038042Y025686D01*
X038086Y025666D01*
X038128Y025643D01*
X038168Y025616D01*
X038206Y025586D01*
X038241Y025553D01*
X038273Y025517D01*
X038303Y025479D01*
X038329Y025438D01*
X038351Y025395D01*
X038371Y025351D01*
X038386Y025306D01*
X038398Y025259D01*
X038406Y025211D01*
X038410Y025163D01*
X038410Y025115D01*
X038406Y025067D01*
X038398Y025019D01*
X038386Y024972D01*
X038371Y024927D01*
X038351Y024883D01*
X038329Y024840D01*
X038303Y024799D01*
X038273Y024761D01*
X038241Y024725D01*
X038206Y024692D01*
X038168Y024662D01*
X038128Y024635D01*
X038086Y024612D01*
X038042Y024592D01*
X037997Y024575D01*
X037951Y024563D01*
X037903Y024554D01*
X037855Y024549D01*
X037807Y024548D01*
X037759Y024551D01*
X037711Y024558D01*
X037664Y024569D01*
X037618Y024583D01*
X037573Y024601D01*
X037530Y024623D01*
X037489Y024648D01*
X037451Y024677D01*
X037414Y024709D01*
X037380Y024743D01*
X037350Y024780D01*
X037322Y024819D01*
X037297Y024861D01*
X037277Y024905D01*
X037259Y024950D01*
X037246Y024996D01*
X037236Y025043D01*
X037230Y025091D01*
X037228Y025139D01*
X037228Y032639D02*
X037230Y032687D01*
X037236Y032735D01*
X037246Y032782D01*
X037259Y032828D01*
X037277Y032873D01*
X037297Y032917D01*
X037322Y032959D01*
X037350Y032998D01*
X037380Y033035D01*
X037414Y033069D01*
X037451Y033101D01*
X037489Y033130D01*
X037530Y033155D01*
X037573Y033177D01*
X037618Y033195D01*
X037664Y033209D01*
X037711Y033220D01*
X037759Y033227D01*
X037807Y033230D01*
X037855Y033229D01*
X037903Y033224D01*
X037951Y033215D01*
X037997Y033203D01*
X038042Y033186D01*
X038086Y033166D01*
X038128Y033143D01*
X038168Y033116D01*
X038206Y033086D01*
X038241Y033053D01*
X038273Y033017D01*
X038303Y032979D01*
X038329Y032938D01*
X038351Y032895D01*
X038371Y032851D01*
X038386Y032806D01*
X038398Y032759D01*
X038406Y032711D01*
X038410Y032663D01*
X038410Y032615D01*
X038406Y032567D01*
X038398Y032519D01*
X038386Y032472D01*
X038371Y032427D01*
X038351Y032383D01*
X038329Y032340D01*
X038303Y032299D01*
X038273Y032261D01*
X038241Y032225D01*
X038206Y032192D01*
X038168Y032162D01*
X038128Y032135D01*
X038086Y032112D01*
X038042Y032092D01*
X037997Y032075D01*
X037951Y032063D01*
X037903Y032054D01*
X037855Y032049D01*
X037807Y032048D01*
X037759Y032051D01*
X037711Y032058D01*
X037664Y032069D01*
X037618Y032083D01*
X037573Y032101D01*
X037530Y032123D01*
X037489Y032148D01*
X037451Y032177D01*
X037414Y032209D01*
X037380Y032243D01*
X037350Y032280D01*
X037322Y032319D01*
X037297Y032361D01*
X037277Y032405D01*
X037259Y032450D01*
X037246Y032496D01*
X037236Y032543D01*
X037230Y032591D01*
X037228Y032639D01*
X037228Y040139D02*
X037230Y040187D01*
X037236Y040235D01*
X037246Y040282D01*
X037259Y040328D01*
X037277Y040373D01*
X037297Y040417D01*
X037322Y040459D01*
X037350Y040498D01*
X037380Y040535D01*
X037414Y040569D01*
X037451Y040601D01*
X037489Y040630D01*
X037530Y040655D01*
X037573Y040677D01*
X037618Y040695D01*
X037664Y040709D01*
X037711Y040720D01*
X037759Y040727D01*
X037807Y040730D01*
X037855Y040729D01*
X037903Y040724D01*
X037951Y040715D01*
X037997Y040703D01*
X038042Y040686D01*
X038086Y040666D01*
X038128Y040643D01*
X038168Y040616D01*
X038206Y040586D01*
X038241Y040553D01*
X038273Y040517D01*
X038303Y040479D01*
X038329Y040438D01*
X038351Y040395D01*
X038371Y040351D01*
X038386Y040306D01*
X038398Y040259D01*
X038406Y040211D01*
X038410Y040163D01*
X038410Y040115D01*
X038406Y040067D01*
X038398Y040019D01*
X038386Y039972D01*
X038371Y039927D01*
X038351Y039883D01*
X038329Y039840D01*
X038303Y039799D01*
X038273Y039761D01*
X038241Y039725D01*
X038206Y039692D01*
X038168Y039662D01*
X038128Y039635D01*
X038086Y039612D01*
X038042Y039592D01*
X037997Y039575D01*
X037951Y039563D01*
X037903Y039554D01*
X037855Y039549D01*
X037807Y039548D01*
X037759Y039551D01*
X037711Y039558D01*
X037664Y039569D01*
X037618Y039583D01*
X037573Y039601D01*
X037530Y039623D01*
X037489Y039648D01*
X037451Y039677D01*
X037414Y039709D01*
X037380Y039743D01*
X037350Y039780D01*
X037322Y039819D01*
X037297Y039861D01*
X037277Y039905D01*
X037259Y039950D01*
X037246Y039996D01*
X037236Y040043D01*
X037230Y040091D01*
X037228Y040139D01*
X037228Y047639D02*
X037230Y047687D01*
X037236Y047735D01*
X037246Y047782D01*
X037259Y047828D01*
X037277Y047873D01*
X037297Y047917D01*
X037322Y047959D01*
X037350Y047998D01*
X037380Y048035D01*
X037414Y048069D01*
X037451Y048101D01*
X037489Y048130D01*
X037530Y048155D01*
X037573Y048177D01*
X037618Y048195D01*
X037664Y048209D01*
X037711Y048220D01*
X037759Y048227D01*
X037807Y048230D01*
X037855Y048229D01*
X037903Y048224D01*
X037951Y048215D01*
X037997Y048203D01*
X038042Y048186D01*
X038086Y048166D01*
X038128Y048143D01*
X038168Y048116D01*
X038206Y048086D01*
X038241Y048053D01*
X038273Y048017D01*
X038303Y047979D01*
X038329Y047938D01*
X038351Y047895D01*
X038371Y047851D01*
X038386Y047806D01*
X038398Y047759D01*
X038406Y047711D01*
X038410Y047663D01*
X038410Y047615D01*
X038406Y047567D01*
X038398Y047519D01*
X038386Y047472D01*
X038371Y047427D01*
X038351Y047383D01*
X038329Y047340D01*
X038303Y047299D01*
X038273Y047261D01*
X038241Y047225D01*
X038206Y047192D01*
X038168Y047162D01*
X038128Y047135D01*
X038086Y047112D01*
X038042Y047092D01*
X037997Y047075D01*
X037951Y047063D01*
X037903Y047054D01*
X037855Y047049D01*
X037807Y047048D01*
X037759Y047051D01*
X037711Y047058D01*
X037664Y047069D01*
X037618Y047083D01*
X037573Y047101D01*
X037530Y047123D01*
X037489Y047148D01*
X037451Y047177D01*
X037414Y047209D01*
X037380Y047243D01*
X037350Y047280D01*
X037322Y047319D01*
X037297Y047361D01*
X037277Y047405D01*
X037259Y047450D01*
X037246Y047496D01*
X037236Y047543D01*
X037230Y047591D01*
X037228Y047639D01*
X037228Y055139D02*
X037230Y055187D01*
X037236Y055235D01*
X037246Y055282D01*
X037259Y055328D01*
X037277Y055373D01*
X037297Y055417D01*
X037322Y055459D01*
X037350Y055498D01*
X037380Y055535D01*
X037414Y055569D01*
X037451Y055601D01*
X037489Y055630D01*
X037530Y055655D01*
X037573Y055677D01*
X037618Y055695D01*
X037664Y055709D01*
X037711Y055720D01*
X037759Y055727D01*
X037807Y055730D01*
X037855Y055729D01*
X037903Y055724D01*
X037951Y055715D01*
X037997Y055703D01*
X038042Y055686D01*
X038086Y055666D01*
X038128Y055643D01*
X038168Y055616D01*
X038206Y055586D01*
X038241Y055553D01*
X038273Y055517D01*
X038303Y055479D01*
X038329Y055438D01*
X038351Y055395D01*
X038371Y055351D01*
X038386Y055306D01*
X038398Y055259D01*
X038406Y055211D01*
X038410Y055163D01*
X038410Y055115D01*
X038406Y055067D01*
X038398Y055019D01*
X038386Y054972D01*
X038371Y054927D01*
X038351Y054883D01*
X038329Y054840D01*
X038303Y054799D01*
X038273Y054761D01*
X038241Y054725D01*
X038206Y054692D01*
X038168Y054662D01*
X038128Y054635D01*
X038086Y054612D01*
X038042Y054592D01*
X037997Y054575D01*
X037951Y054563D01*
X037903Y054554D01*
X037855Y054549D01*
X037807Y054548D01*
X037759Y054551D01*
X037711Y054558D01*
X037664Y054569D01*
X037618Y054583D01*
X037573Y054601D01*
X037530Y054623D01*
X037489Y054648D01*
X037451Y054677D01*
X037414Y054709D01*
X037380Y054743D01*
X037350Y054780D01*
X037322Y054819D01*
X037297Y054861D01*
X037277Y054905D01*
X037259Y054950D01*
X037246Y054996D01*
X037236Y055043D01*
X037230Y055091D01*
X037228Y055139D01*
X028478Y055139D02*
X028480Y055187D01*
X028486Y055235D01*
X028496Y055282D01*
X028509Y055328D01*
X028527Y055373D01*
X028547Y055417D01*
X028572Y055459D01*
X028600Y055498D01*
X028630Y055535D01*
X028664Y055569D01*
X028701Y055601D01*
X028739Y055630D01*
X028780Y055655D01*
X028823Y055677D01*
X028868Y055695D01*
X028914Y055709D01*
X028961Y055720D01*
X029009Y055727D01*
X029057Y055730D01*
X029105Y055729D01*
X029153Y055724D01*
X029201Y055715D01*
X029247Y055703D01*
X029292Y055686D01*
X029336Y055666D01*
X029378Y055643D01*
X029418Y055616D01*
X029456Y055586D01*
X029491Y055553D01*
X029523Y055517D01*
X029553Y055479D01*
X029579Y055438D01*
X029601Y055395D01*
X029621Y055351D01*
X029636Y055306D01*
X029648Y055259D01*
X029656Y055211D01*
X029660Y055163D01*
X029660Y055115D01*
X029656Y055067D01*
X029648Y055019D01*
X029636Y054972D01*
X029621Y054927D01*
X029601Y054883D01*
X029579Y054840D01*
X029553Y054799D01*
X029523Y054761D01*
X029491Y054725D01*
X029456Y054692D01*
X029418Y054662D01*
X029378Y054635D01*
X029336Y054612D01*
X029292Y054592D01*
X029247Y054575D01*
X029201Y054563D01*
X029153Y054554D01*
X029105Y054549D01*
X029057Y054548D01*
X029009Y054551D01*
X028961Y054558D01*
X028914Y054569D01*
X028868Y054583D01*
X028823Y054601D01*
X028780Y054623D01*
X028739Y054648D01*
X028701Y054677D01*
X028664Y054709D01*
X028630Y054743D01*
X028600Y054780D01*
X028572Y054819D01*
X028547Y054861D01*
X028527Y054905D01*
X028509Y054950D01*
X028496Y054996D01*
X028486Y055043D01*
X028480Y055091D01*
X028478Y055139D01*
X020978Y055139D02*
X020980Y055187D01*
X020986Y055235D01*
X020996Y055282D01*
X021009Y055328D01*
X021027Y055373D01*
X021047Y055417D01*
X021072Y055459D01*
X021100Y055498D01*
X021130Y055535D01*
X021164Y055569D01*
X021201Y055601D01*
X021239Y055630D01*
X021280Y055655D01*
X021323Y055677D01*
X021368Y055695D01*
X021414Y055709D01*
X021461Y055720D01*
X021509Y055727D01*
X021557Y055730D01*
X021605Y055729D01*
X021653Y055724D01*
X021701Y055715D01*
X021747Y055703D01*
X021792Y055686D01*
X021836Y055666D01*
X021878Y055643D01*
X021918Y055616D01*
X021956Y055586D01*
X021991Y055553D01*
X022023Y055517D01*
X022053Y055479D01*
X022079Y055438D01*
X022101Y055395D01*
X022121Y055351D01*
X022136Y055306D01*
X022148Y055259D01*
X022156Y055211D01*
X022160Y055163D01*
X022160Y055115D01*
X022156Y055067D01*
X022148Y055019D01*
X022136Y054972D01*
X022121Y054927D01*
X022101Y054883D01*
X022079Y054840D01*
X022053Y054799D01*
X022023Y054761D01*
X021991Y054725D01*
X021956Y054692D01*
X021918Y054662D01*
X021878Y054635D01*
X021836Y054612D01*
X021792Y054592D01*
X021747Y054575D01*
X021701Y054563D01*
X021653Y054554D01*
X021605Y054549D01*
X021557Y054548D01*
X021509Y054551D01*
X021461Y054558D01*
X021414Y054569D01*
X021368Y054583D01*
X021323Y054601D01*
X021280Y054623D01*
X021239Y054648D01*
X021201Y054677D01*
X021164Y054709D01*
X021130Y054743D01*
X021100Y054780D01*
X021072Y054819D01*
X021047Y054861D01*
X021027Y054905D01*
X021009Y054950D01*
X020996Y054996D01*
X020986Y055043D01*
X020980Y055091D01*
X020978Y055139D01*
D11*
X017819Y044283D02*
X017819Y044086D01*
X018016Y043889D02*
X018212Y043889D01*
X017819Y043693D02*
X017819Y043496D01*
X017622Y043889D02*
X017425Y043889D01*
X017819Y036783D02*
X017819Y036586D01*
X018016Y036389D02*
X018212Y036389D01*
X017819Y036193D02*
X017819Y035996D01*
X017622Y036389D02*
X017425Y036389D01*
X017819Y029283D02*
X017819Y029086D01*
X018016Y028889D02*
X018212Y028889D01*
X017819Y028693D02*
X017819Y028496D01*
X017622Y028889D02*
X017425Y028889D01*
X017819Y021783D02*
X017819Y021586D01*
X018016Y021389D02*
X018212Y021389D01*
X017819Y021193D02*
X017819Y020996D01*
X017622Y021389D02*
X017425Y021389D01*
X017819Y014283D02*
X017819Y014086D01*
X018016Y013889D02*
X018212Y013889D01*
X017819Y013693D02*
X017819Y013496D01*
X017622Y013889D02*
X017425Y013889D01*
X017819Y006783D02*
X017819Y006586D01*
X018016Y006389D02*
X018212Y006389D01*
X017819Y006193D02*
X017819Y005996D01*
X017622Y006389D02*
X017425Y006389D01*
X010712Y006389D02*
X010516Y006389D01*
X010319Y006193D02*
X010319Y005996D01*
X010122Y006389D02*
X009925Y006389D01*
X010319Y006586D02*
X010319Y006783D01*
X010319Y013496D02*
X010319Y013693D01*
X010516Y013889D02*
X010712Y013889D01*
X010319Y014086D02*
X010319Y014283D01*
X010122Y013889D02*
X009925Y013889D01*
X010319Y020996D02*
X010319Y021193D01*
X010516Y021389D02*
X010712Y021389D01*
X010319Y021586D02*
X010319Y021783D01*
X010122Y021389D02*
X009925Y021389D01*
X010319Y028496D02*
X010319Y028693D01*
X010516Y028889D02*
X010712Y028889D01*
X010319Y029086D02*
X010319Y029283D01*
X010122Y028889D02*
X009925Y028889D01*
X010319Y035996D02*
X010319Y036193D01*
X010516Y036389D02*
X010712Y036389D01*
X010319Y036586D02*
X010319Y036783D01*
X010122Y036389D02*
X009925Y036389D01*
X010319Y043496D02*
X010319Y043693D01*
X010516Y043889D02*
X010712Y043889D01*
X010319Y044086D02*
X010319Y044283D01*
X010122Y043889D02*
X009925Y043889D01*
X024925Y043889D02*
X025122Y043889D01*
X025319Y043693D02*
X025319Y043496D01*
X025516Y043889D02*
X025712Y043889D01*
X025319Y044086D02*
X025319Y044283D01*
X025319Y036783D02*
X025319Y036586D01*
X025516Y036389D02*
X025712Y036389D01*
X025319Y036193D02*
X025319Y035996D01*
X025122Y036389D02*
X024925Y036389D01*
X025319Y029283D02*
X025319Y029086D01*
X025516Y028889D02*
X025712Y028889D01*
X025319Y028693D02*
X025319Y028496D01*
X025122Y028889D02*
X024925Y028889D01*
X025319Y021783D02*
X025319Y021586D01*
X025516Y021389D02*
X025712Y021389D01*
X025319Y021193D02*
X025319Y020996D01*
X025122Y021389D02*
X024925Y021389D01*
X025319Y014283D02*
X025319Y014086D01*
X025516Y013889D02*
X025712Y013889D01*
X025319Y013693D02*
X025319Y013496D01*
X025122Y013889D02*
X024925Y013889D01*
X025319Y006783D02*
X025319Y006586D01*
X025516Y006389D02*
X025712Y006389D01*
X025319Y006193D02*
X025319Y005996D01*
X025122Y006389D02*
X024925Y006389D01*
X032425Y010139D02*
X032622Y010139D01*
X032819Y009943D02*
X032819Y009746D01*
X033016Y010139D02*
X033212Y010139D01*
X032819Y010336D02*
X032819Y010533D01*
X032819Y020996D02*
X032819Y021193D01*
X033016Y021389D02*
X033212Y021389D01*
X032819Y021586D02*
X032819Y021783D01*
X032622Y021389D02*
X032425Y021389D01*
X032819Y028496D02*
X032819Y028693D01*
X033016Y028889D02*
X033212Y028889D01*
X032819Y029086D02*
X032819Y029283D01*
X032622Y028889D02*
X032425Y028889D01*
X032819Y035996D02*
X032819Y036193D01*
X033016Y036389D02*
X033212Y036389D01*
X032819Y036586D02*
X032819Y036783D01*
X032622Y036389D02*
X032425Y036389D01*
X032819Y043496D02*
X032819Y043693D01*
X033016Y043889D02*
X033212Y043889D01*
X032819Y044086D02*
X032819Y044283D01*
X032622Y043889D02*
X032425Y043889D01*
M02*
