G75*
G70*
%OFA0B0*%
%FSLAX24Y24*%
%IPPOS*%
%LPD*%
%AMOC8*
5,1,8,0,0,1.08239X$1,22.5*
%
%ADD10C,0.1580*%
%ADD11C,0.1092*%
%ADD12C,0.0474*%
%ADD13C,0.0940*%
%ADD14C,0.1261*%
%ADD15R,0.0540X0.0710*%
%ADD16R,0.0631X0.0789*%
%ADD17R,0.0710X0.0540*%
%ADD18R,0.0789X0.0631*%
%ADD19R,0.0552X0.0671*%
%ADD20C,0.0907*%
%ADD21R,0.0907X0.0907*%
%ADD22C,0.0907*%
%ADD23OC8,0.0907*%
%ADD24C,0.1064*%
%ADD25R,0.1064X0.1064*%
%ADD26R,0.0789X0.0552*%
%ADD27R,0.0671X0.0552*%
%ADD28R,0.0789X0.0710*%
%ADD29C,0.2049*%
D10*
X006360Y015975D03*
X008860Y016975D03*
X013860Y015975D03*
X016360Y016975D03*
X021360Y015975D03*
X023860Y016975D03*
X027860Y022725D03*
X028860Y023475D03*
X031360Y024475D03*
X028860Y020225D03*
X023860Y024475D03*
X021360Y023475D03*
X016360Y024475D03*
X013860Y023475D03*
X008860Y024475D03*
X006360Y023475D03*
X006360Y030975D03*
X008860Y031975D03*
X013860Y030975D03*
X016360Y031975D03*
X021360Y030975D03*
X023860Y031975D03*
X028860Y030975D03*
X031360Y031975D03*
X028860Y038475D03*
X031360Y039475D03*
X028860Y045975D03*
X031360Y046975D03*
X028860Y053475D03*
X031360Y054475D03*
X023860Y054475D03*
X021360Y053475D03*
X016360Y054475D03*
X013860Y053475D03*
X008860Y054475D03*
X006360Y053475D03*
X008860Y046975D03*
X006360Y045975D03*
X008860Y039475D03*
X006360Y038475D03*
X013860Y038475D03*
X016360Y039475D03*
X021360Y038475D03*
X023860Y039475D03*
X021360Y045975D03*
X023860Y046975D03*
X016360Y046975D03*
X013860Y045975D03*
D11*
X012860Y047975D03*
X009360Y047975D03*
X005360Y047975D03*
X005360Y055475D03*
X009360Y055475D03*
X012860Y055475D03*
X016860Y055475D03*
X020360Y055475D03*
X024360Y055475D03*
X027860Y055475D03*
X031860Y055475D03*
X031860Y047975D03*
X027860Y047975D03*
X024360Y047975D03*
X020360Y047975D03*
X016860Y047975D03*
X016860Y040475D03*
X020360Y040475D03*
X024360Y040475D03*
X027860Y040475D03*
X031860Y040475D03*
X031860Y032975D03*
X027860Y032975D03*
X024360Y032975D03*
X020360Y032975D03*
X016860Y032975D03*
X012860Y032975D03*
X009360Y032975D03*
X005360Y032975D03*
X005360Y040475D03*
X009360Y040475D03*
X012860Y040475D03*
X012860Y025475D03*
X009360Y025475D03*
X005360Y025475D03*
X005360Y017975D03*
X009360Y017975D03*
X012860Y017975D03*
X016860Y017975D03*
X020360Y017975D03*
X024360Y017975D03*
X029860Y019725D03*
X029860Y023725D03*
X027860Y025475D03*
X024360Y025475D03*
X020360Y025475D03*
X016860Y025475D03*
X031860Y025475D03*
D12*
X029860Y025475D03*
X029860Y021725D03*
X022360Y017975D03*
X022360Y025475D03*
X022360Y032975D03*
X022360Y040475D03*
X022360Y047975D03*
X022360Y055475D03*
X014860Y055475D03*
X014860Y047975D03*
X014860Y040475D03*
X014860Y032975D03*
X014860Y025475D03*
X014860Y017975D03*
X007360Y017975D03*
X007360Y025475D03*
X007360Y032975D03*
X007360Y040475D03*
X007360Y047975D03*
X007360Y055475D03*
X029860Y055475D03*
X029860Y047975D03*
X029860Y040475D03*
X029860Y032975D03*
D13*
X029360Y034545D02*
X029360Y035405D01*
X028360Y035405D02*
X028360Y034545D01*
X030360Y034545D02*
X030360Y035405D01*
X031360Y035405D02*
X031360Y034545D01*
X031360Y027905D02*
X031360Y027045D01*
X030360Y027045D02*
X030360Y027905D01*
X029360Y027905D02*
X029360Y027045D01*
X028360Y027045D02*
X028360Y027905D01*
X031430Y023225D02*
X032290Y023225D01*
X032290Y022225D02*
X031430Y022225D01*
X031430Y021225D02*
X032290Y021225D01*
X032290Y020225D02*
X031430Y020225D01*
X023860Y020405D02*
X023860Y019545D01*
X022860Y019545D02*
X022860Y020405D01*
X021860Y020405D02*
X021860Y019545D01*
X020860Y019545D02*
X020860Y020405D01*
X016360Y020405D02*
X016360Y019545D01*
X015360Y019545D02*
X015360Y020405D01*
X014360Y020405D02*
X014360Y019545D01*
X013360Y019545D02*
X013360Y020405D01*
X008860Y020405D02*
X008860Y019545D01*
X007860Y019545D02*
X007860Y020405D01*
X006860Y020405D02*
X006860Y019545D01*
X005860Y019545D02*
X005860Y020405D01*
X005860Y027045D02*
X005860Y027905D01*
X006860Y027905D02*
X006860Y027045D01*
X007860Y027045D02*
X007860Y027905D01*
X008860Y027905D02*
X008860Y027045D01*
X013360Y027045D02*
X013360Y027905D01*
X014360Y027905D02*
X014360Y027045D01*
X015360Y027045D02*
X015360Y027905D01*
X016360Y027905D02*
X016360Y027045D01*
X020860Y027045D02*
X020860Y027905D01*
X021860Y027905D02*
X021860Y027045D01*
X022860Y027045D02*
X022860Y027905D01*
X023860Y027905D02*
X023860Y027045D01*
X023860Y034545D02*
X023860Y035405D01*
X022860Y035405D02*
X022860Y034545D01*
X021860Y034545D02*
X021860Y035405D01*
X020860Y035405D02*
X020860Y034545D01*
X016360Y034545D02*
X016360Y035405D01*
X015360Y035405D02*
X015360Y034545D01*
X014360Y034545D02*
X014360Y035405D01*
X013360Y035405D02*
X013360Y034545D01*
X008860Y034545D02*
X008860Y035405D01*
X007860Y035405D02*
X007860Y034545D01*
X006860Y034545D02*
X006860Y035405D01*
X005860Y035405D02*
X005860Y034545D01*
X005860Y042045D02*
X005860Y042905D01*
X006860Y042905D02*
X006860Y042045D01*
X007860Y042045D02*
X007860Y042905D01*
X008860Y042905D02*
X008860Y042045D01*
X013360Y042045D02*
X013360Y042905D01*
X014360Y042905D02*
X014360Y042045D01*
X015360Y042045D02*
X015360Y042905D01*
X016360Y042905D02*
X016360Y042045D01*
X020860Y042045D02*
X020860Y042905D01*
X021860Y042905D02*
X021860Y042045D01*
X022860Y042045D02*
X022860Y042905D01*
X023860Y042905D02*
X023860Y042045D01*
X028360Y042045D02*
X028360Y042905D01*
X029360Y042905D02*
X029360Y042045D01*
X030360Y042045D02*
X030360Y042905D01*
X031360Y042905D02*
X031360Y042045D01*
X031360Y049545D02*
X031360Y050405D01*
X030360Y050405D02*
X030360Y049545D01*
X029360Y049545D02*
X029360Y050405D01*
X028360Y050405D02*
X028360Y049545D01*
X023860Y049545D02*
X023860Y050405D01*
X022860Y050405D02*
X022860Y049545D01*
X021860Y049545D02*
X021860Y050405D01*
X020860Y050405D02*
X020860Y049545D01*
X016360Y049545D02*
X016360Y050405D01*
X015360Y050405D02*
X015360Y049545D01*
X014360Y049545D02*
X014360Y050405D01*
X013360Y050405D02*
X013360Y049545D01*
X008860Y049545D02*
X008860Y050405D01*
X007860Y050405D02*
X007860Y049545D01*
X006860Y049545D02*
X006860Y050405D01*
X005860Y050405D02*
X005860Y049545D01*
X005860Y057045D02*
X005860Y057905D01*
X006860Y057905D02*
X006860Y057045D01*
X007860Y057045D02*
X007860Y057905D01*
X008860Y057905D02*
X008860Y057045D01*
X013360Y057045D02*
X013360Y057905D01*
X014360Y057905D02*
X014360Y057045D01*
X015360Y057045D02*
X015360Y057905D01*
X016360Y057905D02*
X016360Y057045D01*
X020860Y057045D02*
X020860Y057905D01*
X021860Y057905D02*
X021860Y057045D01*
X022860Y057045D02*
X022860Y057905D01*
X023860Y057905D02*
X023860Y057045D01*
X028360Y057045D02*
X028360Y057905D01*
X029360Y057905D02*
X029360Y057045D01*
X030360Y057045D02*
X030360Y057905D01*
X031360Y057905D02*
X031360Y057045D01*
D14*
X029860Y055475D03*
X029860Y047975D03*
X029860Y040475D03*
X029860Y032975D03*
X029860Y025475D03*
X029860Y021725D03*
X022360Y017975D03*
X022360Y025475D03*
X022360Y032975D03*
X022360Y040475D03*
X022360Y047975D03*
X022360Y055475D03*
X014860Y055475D03*
X014860Y047975D03*
X014860Y040475D03*
X014860Y032975D03*
X014860Y025475D03*
X014860Y017975D03*
X007360Y017975D03*
X007360Y025475D03*
X007360Y032975D03*
X007360Y040475D03*
X007360Y047975D03*
X007360Y055475D03*
D15*
X010060Y054475D03*
X010660Y054475D03*
X012310Y054225D03*
X012910Y054225D03*
X019810Y054225D03*
X020410Y054225D03*
X025060Y046975D03*
X025660Y046975D03*
X027310Y045975D03*
X027910Y045975D03*
X023160Y045475D03*
X022560Y045475D03*
X024810Y039475D03*
X025410Y039475D03*
X027060Y038475D03*
X027660Y038475D03*
X023160Y037975D03*
X022560Y037975D03*
X018160Y039475D03*
X017560Y039475D03*
X012910Y038475D03*
X012310Y038475D03*
X010660Y031975D03*
X010060Y031975D03*
X012185Y031725D03*
X012785Y031725D03*
X017310Y032100D03*
X017910Y032100D03*
X019810Y030975D03*
X020410Y030975D03*
X025185Y024600D03*
X025785Y024600D03*
X027185Y024225D03*
X027785Y024225D03*
X027910Y030975D03*
X027310Y030975D03*
X030185Y030850D03*
X030785Y030850D03*
X020410Y024225D03*
X019810Y024225D03*
X018160Y024225D03*
X017560Y024225D03*
X012910Y023475D03*
X012310Y023475D03*
X010660Y024475D03*
X010060Y024475D03*
X004660Y023475D03*
X004060Y023475D03*
X004060Y015975D03*
X004660Y015975D03*
X010060Y016975D03*
X010660Y016975D03*
X012060Y015975D03*
X012660Y015975D03*
X019560Y016225D03*
X020160Y016225D03*
X025060Y016975D03*
X025660Y016975D03*
X004660Y030975D03*
X004060Y030975D03*
X004060Y038475D03*
X004660Y038475D03*
X004660Y045975D03*
X004060Y045975D03*
X004060Y053475D03*
X004660Y053475D03*
X012310Y045975D03*
X012910Y045975D03*
X016435Y045600D03*
X017035Y045600D03*
X027310Y053600D03*
X027910Y053600D03*
D16*
X029941Y052100D03*
X031280Y052100D03*
X031530Y044475D03*
X030191Y044475D03*
X029030Y037100D03*
X027691Y037100D03*
X029691Y029850D03*
X031030Y029850D03*
G36*
X028889Y029253D02*
X029335Y028807D01*
X028779Y028251D01*
X028333Y028697D01*
X028889Y029253D01*
G37*
G36*
X027942Y030200D02*
X028388Y029754D01*
X027832Y029198D01*
X027386Y029644D01*
X027942Y030200D01*
G37*
X024280Y029475D03*
X022941Y029475D03*
X020030Y027475D03*
X018691Y027475D03*
X014405Y029288D03*
X013066Y029288D03*
X012280Y034475D03*
X010941Y034475D03*
X011066Y042100D03*
X012405Y042100D03*
X013566Y051725D03*
X014905Y051725D03*
X015821Y062150D03*
X017160Y062150D03*
X003780Y061975D03*
X003655Y063225D03*
X002316Y063225D03*
X002441Y061975D03*
X020941Y021850D03*
X022280Y021850D03*
X026441Y016975D03*
X027780Y016975D03*
X024280Y014475D03*
X022941Y014475D03*
D17*
X017360Y015425D03*
X017360Y016025D03*
X023860Y030425D03*
X023860Y031025D03*
X031360Y037675D03*
X031360Y038275D03*
X030360Y045425D03*
X030360Y046025D03*
X030360Y052925D03*
X030360Y053525D03*
X025610Y055675D03*
X025610Y056275D03*
X017610Y056300D03*
X017610Y056900D03*
X008860Y045525D03*
X008860Y044925D03*
X008860Y038025D03*
X008860Y037425D03*
X033110Y027025D03*
X033110Y026425D03*
D18*
X025735Y026895D03*
X025735Y025556D03*
X018735Y033306D03*
X018735Y034645D03*
X018235Y040306D03*
X018235Y041645D03*
X017610Y048556D03*
X017610Y049895D03*
X017485Y057556D03*
X017485Y058895D03*
X025110Y058770D03*
X025110Y057431D03*
X025610Y049645D03*
X025610Y048306D03*
X025360Y042645D03*
X025360Y041306D03*
X018110Y026645D03*
X018110Y025306D03*
D19*
X018860Y030885D03*
X018860Y032066D03*
X019360Y041385D03*
X019360Y042566D03*
X019360Y048760D03*
X019360Y049941D03*
X018485Y049941D03*
X018485Y048760D03*
X018310Y058310D03*
X019135Y058310D03*
X019135Y059491D03*
X018310Y059491D03*
X019960Y059491D03*
X019960Y058310D03*
X019610Y062135D03*
X018610Y062135D03*
X018610Y063316D03*
X019610Y063316D03*
X026235Y039441D03*
X026235Y038260D03*
D20*
X025966Y062519D03*
X032728Y064330D03*
D21*
G36*
X031442Y063517D02*
X031208Y064391D01*
X032082Y064625D01*
X032316Y063751D01*
X031442Y063517D01*
G37*
G36*
X030476Y063259D02*
X030242Y064133D01*
X031116Y064367D01*
X031350Y063493D01*
X030476Y063259D01*
G37*
G36*
X029510Y063000D02*
X029276Y063874D01*
X030150Y064108D01*
X030384Y063234D01*
X029510Y063000D01*
G37*
G36*
X028544Y062741D02*
X028310Y063615D01*
X029184Y063849D01*
X029418Y062975D01*
X028544Y062741D01*
G37*
G36*
X027578Y062482D02*
X027344Y063356D01*
X028218Y063590D01*
X028452Y062716D01*
X027578Y062482D01*
G37*
G36*
X026612Y062223D02*
X026378Y063097D01*
X027252Y063331D01*
X027486Y062457D01*
X026612Y062223D01*
G37*
G36*
X030287Y060102D02*
X030053Y060976D01*
X030927Y061210D01*
X031161Y060336D01*
X030287Y060102D01*
G37*
G36*
X031252Y060361D02*
X031018Y061235D01*
X031892Y061469D01*
X032126Y060595D01*
X031252Y060361D01*
G37*
G36*
X032218Y060620D02*
X031984Y061494D01*
X032858Y061728D01*
X033092Y060854D01*
X032218Y060620D01*
G37*
G36*
X033184Y060878D02*
X032950Y061752D01*
X033824Y061986D01*
X034058Y061112D01*
X033184Y060878D01*
G37*
D22*
X029748Y059998D02*
X029534Y060796D01*
X028568Y060538D02*
X028782Y059739D01*
X027816Y059480D02*
X027602Y060279D01*
X026636Y060020D02*
X026850Y059221D01*
X024235Y064187D02*
X024235Y065014D01*
X023235Y065014D02*
X023235Y064187D01*
X022235Y064187D02*
X022235Y065014D01*
X021235Y065014D02*
X021235Y064187D01*
X020235Y064187D02*
X020235Y065014D01*
X019235Y065014D02*
X019235Y064187D01*
X018235Y064187D02*
X018235Y065014D01*
X017235Y065014D02*
X017235Y064187D01*
X016235Y064187D02*
X016235Y065014D01*
X010360Y063889D02*
X010360Y063062D01*
X009360Y063062D02*
X009360Y063889D01*
X008360Y063889D02*
X008360Y063062D01*
X007360Y063062D02*
X007360Y063889D01*
X006360Y063889D02*
X006360Y063062D01*
X005360Y063062D02*
X005360Y063889D01*
X004360Y063889D02*
X004360Y063062D01*
X004360Y060889D02*
X004360Y060062D01*
X005360Y060062D02*
X005360Y060889D01*
X006360Y060889D02*
X006360Y060062D01*
X007360Y060062D02*
X007360Y060889D01*
X008360Y060889D02*
X008360Y060062D01*
X009360Y060062D02*
X009360Y060889D01*
X010360Y060889D02*
X010360Y060062D01*
D23*
X012470Y063340D03*
X014250Y063340D03*
X014360Y060725D03*
X015360Y060725D03*
D24*
X014740Y062360D02*
X013756Y062360D01*
D25*
X011980Y062360D03*
D26*
X016270Y060725D03*
X017450Y060725D03*
X028520Y062100D03*
X029700Y062100D03*
X006950Y064788D03*
X005770Y064788D03*
X005950Y061850D03*
X004770Y061850D03*
X003575Y060725D03*
X002395Y060725D03*
D27*
G36*
X007859Y062086D02*
X007386Y062559D01*
X007777Y062950D01*
X008250Y062477D01*
X007859Y062086D01*
G37*
G36*
X008694Y061251D02*
X008221Y061724D01*
X008612Y062115D01*
X009085Y061642D01*
X008694Y061251D01*
G37*
X016270Y059850D03*
X017450Y059850D03*
X020645Y060475D03*
X020645Y061350D03*
X021825Y061350D03*
X021825Y060475D03*
X027895Y051850D03*
X029075Y051850D03*
X029075Y044350D03*
X027895Y044350D03*
X027645Y036350D03*
X028825Y036350D03*
D28*
X025110Y060799D03*
X025110Y061902D03*
D29*
X003110Y012475D03*
X003110Y021725D03*
X003110Y029225D03*
X003110Y036725D03*
X003110Y044225D03*
X003110Y051725D03*
X003110Y058975D03*
X003110Y065225D03*
X011110Y065225D03*
X026110Y065225D03*
X035360Y065225D03*
X035360Y058975D03*
X035360Y051725D03*
X035360Y044225D03*
X035360Y036725D03*
X035360Y029225D03*
X035360Y021725D03*
X035360Y012475D03*
X026110Y012475D03*
X018610Y012475D03*
X011110Y012475D03*
M02*
