G75*
G70*
%OFA0B0*%
%FSLAX24Y24*%
%IPPOS*%
%LPD*%
%AMOC8*
5,1,8,0,0,1.08239X$1,22.5*
%
%ADD10C,0.1500*%
%ADD11C,0.1012*%
%ADD12C,0.0860*%
%ADD13C,0.1181*%
%ADD14C,0.0827*%
%ADD15R,0.0827X0.0827*%
%ADD16C,0.0827*%
%ADD17OC8,0.0827*%
%ADD18C,0.0984*%
%ADD19R,0.0984X0.0984*%
%ADD20R,0.0630X0.0709*%
%ADD21C,0.0240*%
%ADD22C,0.1969*%
D10*
X006360Y015975D03*
X008860Y016975D03*
X013860Y015975D03*
X016360Y016975D03*
X021360Y015975D03*
X023860Y016975D03*
X027860Y022725D03*
X028860Y023475D03*
X031360Y024475D03*
X028860Y020225D03*
X023860Y024475D03*
X021360Y023475D03*
X016360Y024475D03*
X013860Y023475D03*
X008860Y024475D03*
X006360Y023475D03*
X006360Y030975D03*
X008860Y031975D03*
X013860Y030975D03*
X016360Y031975D03*
X021360Y030975D03*
X023860Y031975D03*
X028860Y030975D03*
X031360Y031975D03*
X028860Y038475D03*
X031360Y039475D03*
X028860Y045975D03*
X031360Y046975D03*
X028860Y053475D03*
X031360Y054475D03*
X023860Y054475D03*
X021360Y053475D03*
X016360Y054475D03*
X013860Y053475D03*
X008860Y054475D03*
X006360Y053475D03*
X008860Y046975D03*
X006360Y045975D03*
X008860Y039475D03*
X006360Y038475D03*
X013860Y038475D03*
X016360Y039475D03*
X021360Y038475D03*
X023860Y039475D03*
X021360Y045975D03*
X023860Y046975D03*
X016360Y046975D03*
X013860Y045975D03*
D11*
X012860Y047975D03*
X009360Y047975D03*
X005360Y047975D03*
X005360Y055475D03*
X009360Y055475D03*
X012860Y055475D03*
X016860Y055475D03*
X020360Y055475D03*
X024360Y055475D03*
X027860Y055475D03*
X031860Y055475D03*
X031860Y047975D03*
X027860Y047975D03*
X024360Y047975D03*
X020360Y047975D03*
X016860Y047975D03*
X016860Y040475D03*
X020360Y040475D03*
X024360Y040475D03*
X027860Y040475D03*
X031860Y040475D03*
X031860Y032975D03*
X027860Y032975D03*
X024360Y032975D03*
X020360Y032975D03*
X016860Y032975D03*
X012860Y032975D03*
X009360Y032975D03*
X005360Y032975D03*
X005360Y040475D03*
X009360Y040475D03*
X012860Y040475D03*
X012860Y025475D03*
X009360Y025475D03*
X005360Y025475D03*
X005360Y017975D03*
X009360Y017975D03*
X012860Y017975D03*
X016860Y017975D03*
X020360Y017975D03*
X024360Y017975D03*
X029860Y019725D03*
X029860Y023725D03*
X027860Y025475D03*
X024360Y025475D03*
X020360Y025475D03*
X016860Y025475D03*
X031860Y025475D03*
D12*
X031360Y027045D02*
X031360Y027905D01*
X030360Y027905D02*
X030360Y027045D01*
X029360Y027045D02*
X029360Y027905D01*
X028360Y027905D02*
X028360Y027045D01*
X031430Y023225D02*
X032290Y023225D01*
X032290Y022225D02*
X031430Y022225D01*
X031430Y021225D02*
X032290Y021225D01*
X032290Y020225D02*
X031430Y020225D01*
X023860Y020405D02*
X023860Y019545D01*
X022860Y019545D02*
X022860Y020405D01*
X021860Y020405D02*
X021860Y019545D01*
X020860Y019545D02*
X020860Y020405D01*
X016360Y020405D02*
X016360Y019545D01*
X015360Y019545D02*
X015360Y020405D01*
X014360Y020405D02*
X014360Y019545D01*
X013360Y019545D02*
X013360Y020405D01*
X008860Y020405D02*
X008860Y019545D01*
X007860Y019545D02*
X007860Y020405D01*
X006860Y020405D02*
X006860Y019545D01*
X005860Y019545D02*
X005860Y020405D01*
X005860Y027045D02*
X005860Y027905D01*
X006860Y027905D02*
X006860Y027045D01*
X007860Y027045D02*
X007860Y027905D01*
X008860Y027905D02*
X008860Y027045D01*
X013360Y027045D02*
X013360Y027905D01*
X014360Y027905D02*
X014360Y027045D01*
X015360Y027045D02*
X015360Y027905D01*
X016360Y027905D02*
X016360Y027045D01*
X020860Y027045D02*
X020860Y027905D01*
X021860Y027905D02*
X021860Y027045D01*
X022860Y027045D02*
X022860Y027905D01*
X023860Y027905D02*
X023860Y027045D01*
X023860Y034545D02*
X023860Y035405D01*
X022860Y035405D02*
X022860Y034545D01*
X021860Y034545D02*
X021860Y035405D01*
X020860Y035405D02*
X020860Y034545D01*
X016360Y034545D02*
X016360Y035405D01*
X015360Y035405D02*
X015360Y034545D01*
X014360Y034545D02*
X014360Y035405D01*
X013360Y035405D02*
X013360Y034545D01*
X008860Y034545D02*
X008860Y035405D01*
X007860Y035405D02*
X007860Y034545D01*
X006860Y034545D02*
X006860Y035405D01*
X005860Y035405D02*
X005860Y034545D01*
X005860Y042045D02*
X005860Y042905D01*
X006860Y042905D02*
X006860Y042045D01*
X007860Y042045D02*
X007860Y042905D01*
X008860Y042905D02*
X008860Y042045D01*
X013360Y042045D02*
X013360Y042905D01*
X014360Y042905D02*
X014360Y042045D01*
X015360Y042045D02*
X015360Y042905D01*
X016360Y042905D02*
X016360Y042045D01*
X020860Y042045D02*
X020860Y042905D01*
X021860Y042905D02*
X021860Y042045D01*
X022860Y042045D02*
X022860Y042905D01*
X023860Y042905D02*
X023860Y042045D01*
X028360Y042045D02*
X028360Y042905D01*
X029360Y042905D02*
X029360Y042045D01*
X030360Y042045D02*
X030360Y042905D01*
X031360Y042905D02*
X031360Y042045D01*
X031360Y035405D02*
X031360Y034545D01*
X030360Y034545D02*
X030360Y035405D01*
X029360Y035405D02*
X029360Y034545D01*
X028360Y034545D02*
X028360Y035405D01*
X028360Y049545D02*
X028360Y050405D01*
X029360Y050405D02*
X029360Y049545D01*
X030360Y049545D02*
X030360Y050405D01*
X031360Y050405D02*
X031360Y049545D01*
X031360Y057045D02*
X031360Y057905D01*
X030360Y057905D02*
X030360Y057045D01*
X029360Y057045D02*
X029360Y057905D01*
X028360Y057905D02*
X028360Y057045D01*
X023860Y057045D02*
X023860Y057905D01*
X022860Y057905D02*
X022860Y057045D01*
X021860Y057045D02*
X021860Y057905D01*
X020860Y057905D02*
X020860Y057045D01*
X016360Y057045D02*
X016360Y057905D01*
X015360Y057905D02*
X015360Y057045D01*
X014360Y057045D02*
X014360Y057905D01*
X013360Y057905D02*
X013360Y057045D01*
X008860Y057045D02*
X008860Y057905D01*
X007860Y057905D02*
X007860Y057045D01*
X006860Y057045D02*
X006860Y057905D01*
X005860Y057905D02*
X005860Y057045D01*
X005860Y050405D02*
X005860Y049545D01*
X006860Y049545D02*
X006860Y050405D01*
X007860Y050405D02*
X007860Y049545D01*
X008860Y049545D02*
X008860Y050405D01*
X013360Y050405D02*
X013360Y049545D01*
X014360Y049545D02*
X014360Y050405D01*
X015360Y050405D02*
X015360Y049545D01*
X016360Y049545D02*
X016360Y050405D01*
X020860Y050405D02*
X020860Y049545D01*
X021860Y049545D02*
X021860Y050405D01*
X022860Y050405D02*
X022860Y049545D01*
X023860Y049545D02*
X023860Y050405D01*
D13*
X022360Y047975D03*
X022360Y055475D03*
X014860Y055475D03*
X014860Y047975D03*
X014860Y040475D03*
X014860Y032975D03*
X014860Y025475D03*
X014860Y017975D03*
X022360Y017975D03*
X022360Y025475D03*
X022360Y032975D03*
X022360Y040475D03*
X029860Y040475D03*
X029860Y032975D03*
X029860Y025475D03*
X029860Y021725D03*
X029860Y047975D03*
X029860Y055475D03*
X007360Y055475D03*
X007360Y047975D03*
X007360Y040475D03*
X007360Y032975D03*
X007360Y025475D03*
X007360Y017975D03*
D14*
X025966Y062519D03*
X032728Y064330D03*
D15*
G36*
X031470Y063566D02*
X031257Y064363D01*
X032054Y064576D01*
X032267Y063779D01*
X031470Y063566D01*
G37*
G36*
X030504Y063308D02*
X030291Y064105D01*
X031088Y064318D01*
X031301Y063521D01*
X030504Y063308D01*
G37*
G36*
X029538Y063049D02*
X029325Y063846D01*
X030122Y064059D01*
X030335Y063262D01*
X029538Y063049D01*
G37*
G36*
X028572Y062790D02*
X028359Y063587D01*
X029156Y063800D01*
X029369Y063003D01*
X028572Y062790D01*
G37*
G36*
X027606Y062531D02*
X027393Y063328D01*
X028190Y063541D01*
X028403Y062744D01*
X027606Y062531D01*
G37*
G36*
X026640Y062272D02*
X026427Y063069D01*
X027224Y063282D01*
X027437Y062485D01*
X026640Y062272D01*
G37*
G36*
X030315Y060151D02*
X030102Y060948D01*
X030899Y061161D01*
X031112Y060364D01*
X030315Y060151D01*
G37*
G36*
X031280Y060410D02*
X031067Y061207D01*
X031864Y061420D01*
X032077Y060623D01*
X031280Y060410D01*
G37*
G36*
X032246Y060669D02*
X032033Y061466D01*
X032830Y061679D01*
X033043Y060882D01*
X032246Y060669D01*
G37*
G36*
X033212Y060927D02*
X032999Y061724D01*
X033796Y061937D01*
X034009Y061140D01*
X033212Y060927D01*
G37*
D16*
X029748Y059998D02*
X029534Y060796D01*
X028568Y060538D02*
X028782Y059739D01*
X027816Y059480D02*
X027602Y060279D01*
X026636Y060020D02*
X026850Y059221D01*
X024235Y064187D02*
X024235Y065014D01*
X023235Y065014D02*
X023235Y064187D01*
X022235Y064187D02*
X022235Y065014D01*
X021235Y065014D02*
X021235Y064187D01*
X020235Y064187D02*
X020235Y065014D01*
X019235Y065014D02*
X019235Y064187D01*
X018235Y064187D02*
X018235Y065014D01*
X017235Y065014D02*
X017235Y064187D01*
X016235Y064187D02*
X016235Y065014D01*
X010360Y063889D02*
X010360Y063062D01*
X009360Y063062D02*
X009360Y063889D01*
X008360Y063889D02*
X008360Y063062D01*
X007360Y063062D02*
X007360Y063889D01*
X006360Y063889D02*
X006360Y063062D01*
X005360Y063062D02*
X005360Y063889D01*
X004360Y063889D02*
X004360Y063062D01*
X004360Y060889D02*
X004360Y060062D01*
X005360Y060062D02*
X005360Y060889D01*
X006360Y060889D02*
X006360Y060062D01*
X007360Y060062D02*
X007360Y060889D01*
X008360Y060889D02*
X008360Y060062D01*
X009360Y060062D02*
X009360Y060889D01*
X010360Y060889D02*
X010360Y060062D01*
D17*
X012470Y063340D03*
X014250Y063340D03*
X014360Y060725D03*
X015360Y060725D03*
D18*
X014740Y062360D02*
X013756Y062360D01*
D19*
X011980Y062360D03*
D20*
X006912Y065100D03*
X005809Y065100D03*
D21*
X004985Y065100D01*
X004360Y064475D01*
X004360Y063475D01*
X006912Y065100D02*
X011235Y065100D01*
X011235Y063100D01*
X010485Y061225D01*
X010360Y060475D01*
X011235Y065100D02*
X015860Y065100D01*
X016235Y064600D01*
X016235Y063850D01*
X016735Y063350D01*
X025759Y063350D01*
X026009Y063975D01*
X027985Y064475D01*
X028739Y063722D01*
X028864Y063295D01*
X025966Y062519D02*
X025759Y063350D01*
X016235Y064600D02*
X016237Y064852D01*
D22*
X003110Y012475D03*
X003110Y021725D03*
X003110Y029225D03*
X003110Y036725D03*
X003110Y044225D03*
X003110Y051725D03*
X003110Y058975D03*
X003110Y065225D03*
X011110Y065225D03*
X026110Y065225D03*
X035360Y065225D03*
X035360Y058975D03*
X035360Y051725D03*
X035360Y044225D03*
X035360Y036725D03*
X035360Y029225D03*
X035360Y021725D03*
X035360Y012475D03*
X026110Y012475D03*
X018610Y012475D03*
X011110Y012475D03*
M02*
