G75*
G70*
%OFA0B0*%
%FSLAX24Y24*%
%IPPOS*%
%LPD*%
%AMOC8*
5,1,8,0,0,1.08239X$1,22.5*
%
%ADD10C,0.1580*%
%ADD11C,0.1092*%
%ADD12C,0.0474*%
%ADD13C,0.0940*%
%ADD14C,0.1261*%
%ADD15R,0.0060X0.0720*%
%ADD16R,0.0720X0.0060*%
%ADD17C,0.0907*%
%ADD18R,0.0907X0.0907*%
%ADD19C,0.0907*%
%ADD20OC8,0.0907*%
%ADD21C,0.1064*%
%ADD22R,0.1064X0.1064*%
%ADD23R,0.0710X0.0789*%
%ADD24C,0.2049*%
D10*
X009319Y015975D03*
X011819Y016975D03*
X016819Y015975D03*
X019319Y016975D03*
X024319Y015975D03*
X026819Y016975D03*
X031819Y020225D03*
X030819Y022725D03*
X031819Y023475D03*
X034319Y024475D03*
X031819Y030975D03*
X034319Y031975D03*
X031819Y038475D03*
X034319Y039475D03*
X031819Y045975D03*
X034319Y046975D03*
X031819Y053475D03*
X034319Y054475D03*
X026819Y054475D03*
X024319Y053475D03*
X019319Y054475D03*
X016819Y053475D03*
X011819Y054475D03*
X009319Y053475D03*
X011819Y046975D03*
X009319Y045975D03*
X011819Y039475D03*
X009319Y038475D03*
X011819Y031975D03*
X009319Y030975D03*
X011819Y024475D03*
X009319Y023475D03*
X016819Y023475D03*
X019319Y024475D03*
X024319Y023475D03*
X026819Y024475D03*
X024319Y030975D03*
X026819Y031975D03*
X024319Y038475D03*
X026819Y039475D03*
X024319Y045975D03*
X026819Y046975D03*
X019319Y046975D03*
X016819Y045975D03*
X019319Y039475D03*
X016819Y038475D03*
X019319Y031975D03*
X016819Y030975D03*
D11*
X015819Y032975D03*
X012319Y032975D03*
X008319Y032975D03*
X008319Y025475D03*
X012319Y025475D03*
X015819Y025475D03*
X019819Y025475D03*
X023319Y025475D03*
X027319Y025475D03*
X030819Y025475D03*
X032819Y023725D03*
X034819Y025475D03*
X032819Y019725D03*
X027319Y017975D03*
X023319Y017975D03*
X019819Y017975D03*
X015819Y017975D03*
X012319Y017975D03*
X008319Y017975D03*
X019819Y032975D03*
X023319Y032975D03*
X027319Y032975D03*
X030819Y032975D03*
X034819Y032975D03*
X034819Y040475D03*
X030819Y040475D03*
X027319Y040475D03*
X023319Y040475D03*
X019819Y040475D03*
X015819Y040475D03*
X012319Y040475D03*
X008319Y040475D03*
X008319Y047975D03*
X012319Y047975D03*
X015819Y047975D03*
X019819Y047975D03*
X023319Y047975D03*
X027319Y047975D03*
X030819Y047975D03*
X034819Y047975D03*
X034819Y055475D03*
X030819Y055475D03*
X027319Y055475D03*
X023319Y055475D03*
X019819Y055475D03*
X015819Y055475D03*
X012319Y055475D03*
X008319Y055475D03*
D12*
X010319Y055475D03*
X010319Y047975D03*
X010319Y040475D03*
X010319Y032975D03*
X010319Y025475D03*
X010319Y017975D03*
X017819Y017975D03*
X017819Y025475D03*
X017819Y032975D03*
X017819Y040475D03*
X017819Y047975D03*
X017819Y055475D03*
X025319Y055475D03*
X025319Y047975D03*
X025319Y040475D03*
X025319Y032975D03*
X025319Y025475D03*
X025319Y017975D03*
X032819Y021725D03*
X032819Y025475D03*
X032819Y032975D03*
X032819Y040475D03*
X032819Y047975D03*
X032819Y055475D03*
D13*
X033319Y057045D02*
X033319Y057905D01*
X032319Y057905D02*
X032319Y057045D01*
X031319Y057045D02*
X031319Y057905D01*
X034319Y057905D02*
X034319Y057045D01*
X034319Y050405D02*
X034319Y049545D01*
X033319Y049545D02*
X033319Y050405D01*
X032319Y050405D02*
X032319Y049545D01*
X031319Y049545D02*
X031319Y050405D01*
X026819Y050405D02*
X026819Y049545D01*
X025819Y049545D02*
X025819Y050405D01*
X024819Y050405D02*
X024819Y049545D01*
X023819Y049545D02*
X023819Y050405D01*
X019319Y050405D02*
X019319Y049545D01*
X018319Y049545D02*
X018319Y050405D01*
X017319Y050405D02*
X017319Y049545D01*
X016319Y049545D02*
X016319Y050405D01*
X011819Y050405D02*
X011819Y049545D01*
X010819Y049545D02*
X010819Y050405D01*
X009819Y050405D02*
X009819Y049545D01*
X008819Y049545D02*
X008819Y050405D01*
X008819Y057045D02*
X008819Y057905D01*
X009819Y057905D02*
X009819Y057045D01*
X010819Y057045D02*
X010819Y057905D01*
X011819Y057905D02*
X011819Y057045D01*
X016319Y057045D02*
X016319Y057905D01*
X017319Y057905D02*
X017319Y057045D01*
X018319Y057045D02*
X018319Y057905D01*
X019319Y057905D02*
X019319Y057045D01*
X023819Y057045D02*
X023819Y057905D01*
X024819Y057905D02*
X024819Y057045D01*
X025819Y057045D02*
X025819Y057905D01*
X026819Y057905D02*
X026819Y057045D01*
X026819Y042905D02*
X026819Y042045D01*
X025819Y042045D02*
X025819Y042905D01*
X024819Y042905D02*
X024819Y042045D01*
X023819Y042045D02*
X023819Y042905D01*
X019319Y042905D02*
X019319Y042045D01*
X018319Y042045D02*
X018319Y042905D01*
X017319Y042905D02*
X017319Y042045D01*
X016319Y042045D02*
X016319Y042905D01*
X011819Y042905D02*
X011819Y042045D01*
X010819Y042045D02*
X010819Y042905D01*
X009819Y042905D02*
X009819Y042045D01*
X008819Y042045D02*
X008819Y042905D01*
X008819Y035405D02*
X008819Y034545D01*
X009819Y034545D02*
X009819Y035405D01*
X010819Y035405D02*
X010819Y034545D01*
X011819Y034545D02*
X011819Y035405D01*
X016319Y035405D02*
X016319Y034545D01*
X017319Y034545D02*
X017319Y035405D01*
X018319Y035405D02*
X018319Y034545D01*
X019319Y034545D02*
X019319Y035405D01*
X023819Y035405D02*
X023819Y034545D01*
X024819Y034545D02*
X024819Y035405D01*
X025819Y035405D02*
X025819Y034545D01*
X026819Y034545D02*
X026819Y035405D01*
X031319Y035405D02*
X031319Y034545D01*
X032319Y034545D02*
X032319Y035405D01*
X033319Y035405D02*
X033319Y034545D01*
X034319Y034545D02*
X034319Y035405D01*
X034319Y042045D02*
X034319Y042905D01*
X033319Y042905D02*
X033319Y042045D01*
X032319Y042045D02*
X032319Y042905D01*
X031319Y042905D02*
X031319Y042045D01*
X031319Y027905D02*
X031319Y027045D01*
X032319Y027045D02*
X032319Y027905D01*
X033319Y027905D02*
X033319Y027045D01*
X034319Y027045D02*
X034319Y027905D01*
X034389Y023225D02*
X035249Y023225D01*
X035249Y022225D02*
X034389Y022225D01*
X034389Y021225D02*
X035249Y021225D01*
X035249Y020225D02*
X034389Y020225D01*
X026819Y020405D02*
X026819Y019545D01*
X025819Y019545D02*
X025819Y020405D01*
X024819Y020405D02*
X024819Y019545D01*
X023819Y019545D02*
X023819Y020405D01*
X019319Y020405D02*
X019319Y019545D01*
X018319Y019545D02*
X018319Y020405D01*
X017319Y020405D02*
X017319Y019545D01*
X016319Y019545D02*
X016319Y020405D01*
X011819Y020405D02*
X011819Y019545D01*
X010819Y019545D02*
X010819Y020405D01*
X009819Y020405D02*
X009819Y019545D01*
X008819Y019545D02*
X008819Y020405D01*
X008819Y027045D02*
X008819Y027905D01*
X009819Y027905D02*
X009819Y027045D01*
X010819Y027045D02*
X010819Y027905D01*
X011819Y027905D02*
X011819Y027045D01*
X016319Y027045D02*
X016319Y027905D01*
X017319Y027905D02*
X017319Y027045D01*
X018319Y027045D02*
X018319Y027905D01*
X019319Y027905D02*
X019319Y027045D01*
X023819Y027045D02*
X023819Y027905D01*
X024819Y027905D02*
X024819Y027045D01*
X025819Y027045D02*
X025819Y027905D01*
X026819Y027905D02*
X026819Y027045D01*
D14*
X025319Y025475D03*
X025319Y017975D03*
X017819Y017975D03*
X017819Y025475D03*
X017819Y032975D03*
X017819Y040475D03*
X017819Y047975D03*
X017819Y055475D03*
X025319Y055475D03*
X025319Y047975D03*
X025319Y040475D03*
X025319Y032975D03*
X032819Y032975D03*
X032819Y025475D03*
X032819Y021725D03*
X032819Y040475D03*
X032819Y047975D03*
X032819Y055475D03*
X010319Y055475D03*
X010319Y047975D03*
X010319Y040475D03*
X010319Y032975D03*
X010319Y025475D03*
X010319Y017975D03*
D15*
X013319Y016975D03*
X015319Y015975D03*
X015569Y023475D03*
X013319Y024475D03*
X007319Y023475D03*
X007319Y015975D03*
X007319Y030975D03*
X007319Y038475D03*
X007319Y045975D03*
X007319Y053475D03*
X013319Y054475D03*
X015569Y054225D03*
X015569Y045975D03*
X019694Y045600D03*
X020819Y039475D03*
X025819Y037975D03*
X028069Y039475D03*
X030319Y038475D03*
X033819Y037975D03*
X033444Y030850D03*
X030569Y030975D03*
X028444Y024600D03*
X030444Y024225D03*
X028319Y016975D03*
X022819Y016225D03*
X023069Y024225D03*
X020819Y024225D03*
X023069Y030975D03*
X020569Y032100D03*
X015444Y031725D03*
X013319Y031975D03*
X015569Y038475D03*
X025819Y045475D03*
X028319Y046975D03*
X030569Y045975D03*
X030569Y053600D03*
X023069Y054225D03*
D16*
X020569Y056600D03*
X028569Y055975D03*
X033319Y053225D03*
X033319Y045725D03*
X026819Y030725D03*
X036069Y026725D03*
X020319Y015725D03*
X011819Y037725D03*
X011819Y045225D03*
D17*
X012319Y060062D02*
X012319Y060889D01*
X013319Y060889D02*
X013319Y060062D01*
X011319Y060062D02*
X011319Y060889D01*
X010319Y060889D02*
X010319Y060062D01*
X009319Y060062D02*
X009319Y060889D01*
X008319Y060889D02*
X008319Y060062D01*
X007319Y060062D02*
X007319Y060889D01*
X007319Y063062D02*
X007319Y063889D01*
X008319Y063889D02*
X008319Y063062D01*
X009319Y063062D02*
X009319Y063889D01*
X010319Y063889D02*
X010319Y063062D01*
X011319Y063062D02*
X011319Y063889D01*
X012319Y063889D02*
X012319Y063062D01*
X013319Y063062D02*
X013319Y063889D01*
X019194Y064187D02*
X019194Y065014D01*
X020194Y065014D02*
X020194Y064187D01*
X021194Y064187D02*
X021194Y065014D01*
X022194Y065014D02*
X022194Y064187D01*
X023194Y064187D02*
X023194Y065014D01*
X024194Y065014D02*
X024194Y064187D01*
X025194Y064187D02*
X025194Y065014D01*
X026194Y065014D02*
X026194Y064187D01*
X027194Y064187D02*
X027194Y065014D01*
X029890Y062777D02*
X030104Y061979D01*
X030560Y060279D02*
X030774Y059480D01*
X029808Y059221D02*
X029594Y060020D01*
X031526Y060538D02*
X031740Y059739D01*
X032706Y059998D02*
X032492Y060796D01*
X033458Y061055D02*
X033672Y060257D01*
X036569Y061033D02*
X036355Y061832D01*
X035793Y063931D02*
X035579Y064730D01*
D18*
G36*
X034400Y063517D02*
X034166Y064391D01*
X035040Y064625D01*
X035274Y063751D01*
X034400Y063517D01*
G37*
G36*
X033434Y063259D02*
X033200Y064133D01*
X034074Y064367D01*
X034308Y063493D01*
X033434Y063259D01*
G37*
G36*
X032468Y063000D02*
X032234Y063874D01*
X033108Y064108D01*
X033342Y063234D01*
X032468Y063000D01*
G37*
G36*
X031502Y062741D02*
X031268Y063615D01*
X032142Y063849D01*
X032376Y062975D01*
X031502Y062741D01*
G37*
G36*
X030536Y062482D02*
X030302Y063356D01*
X031176Y063590D01*
X031410Y062716D01*
X030536Y062482D01*
G37*
G36*
X034211Y060361D02*
X033977Y061235D01*
X034851Y061469D01*
X035085Y060595D01*
X034211Y060361D01*
G37*
G36*
X035177Y060620D02*
X034943Y061494D01*
X035817Y061728D01*
X036051Y060854D01*
X035177Y060620D01*
G37*
D19*
X028925Y062519D03*
D20*
X018319Y060725D03*
X017319Y060725D03*
X017209Y063340D03*
X015429Y063340D03*
D21*
X016748Y062106D02*
X017699Y062360D01*
D22*
G36*
X014233Y062103D02*
X014682Y063066D01*
X015645Y062617D01*
X015196Y061654D01*
X014233Y062103D01*
G37*
D23*
X009870Y065100D03*
X008767Y065100D03*
D24*
X005319Y012975D03*
X005319Y021725D03*
X005319Y029225D03*
X005319Y036725D03*
X005319Y044225D03*
X005319Y051725D03*
X005319Y058975D03*
X005319Y066475D03*
X014069Y066475D03*
X021569Y066475D03*
X029069Y066475D03*
X037819Y066475D03*
X037819Y058975D03*
X037819Y051725D03*
X037819Y044225D03*
X037819Y036725D03*
X037819Y029225D03*
X037819Y021725D03*
X037819Y012975D03*
X029069Y012975D03*
X021569Y012975D03*
X014069Y012975D03*
M02*
