%
M48
M72
T01C0.0320
T02C0.0394
T03C0.0400
T04C0.0590
T05C0.0591
T06C0.0675
T07C0.1181
%
T01
X26743Y59621
X27709Y59880
X28675Y60138
X29641Y60397
X30607Y60656
X31572Y60915
X32538Y61174
X33504Y61432
X32728Y64330
X31762Y64071
X30796Y63813
X29830Y63554
X28864Y63295
X27898Y63036
X26932Y62777
X25966Y62519
X15360Y60725
X14360Y60725
X10360Y60475
X9360Y60475
X8360Y60475
X7360Y60475
X6360Y60475
X5360Y60475
X4360Y60475
X4360Y63475
X5360Y63475
X6360Y63475
X7360Y63475
X8360Y63475
X9360Y63475
X10360Y63475
T02
X7360Y55475
X7360Y55475
X7360Y47975
X7360Y47975
X7360Y40475
X7360Y40475
X7360Y32975
X7360Y32975
X7360Y25475
X7360Y25475
X7360Y17975
X7360Y17975
X14860Y17975
X14860Y17975
X14860Y25475
X14860Y25475
X14860Y32975
X14860Y32975
X14860Y40475
X14860Y40475
X14860Y47975
X14860Y47975
X14860Y55475
X14860Y55475
X22360Y55475
X22360Y55475
X22360Y47975
X22360Y47975
X22360Y40475
X22360Y40475
X22360Y32975
X22360Y32975
X22360Y25475
X22360Y25475
X22360Y17975
X22360Y17975
X29860Y21725
X29860Y21725
X29860Y25475
X29860Y25475
X29860Y32975
X29860Y32975
X29860Y40475
X29860Y40475
X29860Y47975
X29860Y47975
X29860Y55475
X29860Y55475
T03
X29360Y57475
X28360Y57475
X30360Y57475
X31360Y57475
X31360Y49975
X30360Y49975
X29360Y49975
X28360Y49975
X23860Y49975
X22860Y49975
X21860Y49975
X20860Y49975
X16360Y49975
X15360Y49975
X14360Y49975
X13360Y49975
X8860Y49975
X7860Y49975
X6860Y49975
X5860Y49975
X5860Y42475
X6860Y42475
X7860Y42475
X8860Y42475
X13360Y42475
X14360Y42475
X15360Y42475
X16360Y42475
X20860Y42475
X21860Y42475
X22860Y42475
X23860Y42475
X28360Y42475
X29360Y42475
X30360Y42475
X31360Y42475
X31360Y34975
X30360Y34975
X29360Y34975
X28360Y34975
X23860Y34975
X22860Y34975
X21860Y34975
X20860Y34975
X16360Y34975
X15360Y34975
X14360Y34975
X13360Y34975
X8860Y34975
X7860Y34975
X6860Y34975
X5860Y34975
X5860Y27475
X6860Y27475
X7860Y27475
X8860Y27475
X13360Y27475
X14360Y27475
X15360Y27475
X16360Y27475
X20860Y27475
X21860Y27475
X22860Y27475
X23860Y27475
X28360Y27475
X29360Y27475
X30360Y27475
X31360Y27475
X31860Y23225
X31860Y22225
X31860Y21225
X31860Y20225
X23860Y19975
X22860Y19975
X21860Y19975
X20860Y19975
X16360Y19975
X15360Y19975
X14360Y19975
X13360Y19975
X8860Y19975
X7860Y19975
X6860Y19975
X5860Y19975
X5860Y57475
X6860Y57475
X7860Y57475
X8860Y57475
X13360Y57475
X14360Y57475
X15360Y57475
X16360Y57475
X20860Y57475
X21860Y57475
X22860Y57475
X23860Y57475
X24235Y64600
X23235Y64600
X22235Y64600
X21235Y64600
X20235Y64600
X19235Y64600
X18235Y64600
X17235Y64600
X16235Y64600
X14250Y63340
X12470Y63340
T04
X11980Y62360
X14740Y62360
T05
X16360Y54475
X13860Y53475
X8860Y54475
X6360Y53475
X8860Y46975
X6360Y45975
X8860Y39475
X6360Y38475
X8860Y31975
X6360Y30975
X8860Y24475
X6360Y23475
X8860Y16975
X6360Y15975
X13860Y15975
X16360Y16975
X21360Y15975
X23860Y16975
X27860Y22725
X28860Y23475
X31360Y24475
X28860Y20225
X23860Y24475
X21360Y23475
X16360Y24475
X13860Y23475
X13860Y30975
X16360Y31975
X21360Y30975
X23860Y31975
X28860Y30975
X31360Y31975
X28860Y38475
X31360Y39475
X28860Y45975
X31360Y46975
X28860Y53475
X31360Y54475
X23860Y54475
X21360Y53475
X23860Y46975
X21360Y45975
X16360Y46975
X13860Y45975
X16360Y39475
X13860Y38475
X21360Y38475
X23860Y39475
T06
X24360Y40475
X27860Y40475
X31860Y40475
X31860Y32975
X27860Y32975
X24360Y32975
X20360Y32975
X16860Y32975
X12860Y32975
X9360Y32975
X5360Y32975
X5360Y40475
X9360Y40475
X12860Y40475
X16860Y40475
X20360Y40475
X20360Y47975
X16860Y47975
X12860Y47975
X9360Y47975
X5360Y47975
X5360Y55475
X9360Y55475
X12860Y55475
X16860Y55475
X20360Y55475
X24360Y55475
X27860Y55475
X31860Y55475
X31860Y47975
X27860Y47975
X24360Y47975
X24360Y25475
X27860Y25475
X29860Y23725
X31860Y25475
X29860Y19725
X24360Y17975
X20360Y17975
X16860Y17975
X12860Y17975
X9360Y17975
X5360Y17975
X5360Y25475
X9360Y25475
X12860Y25475
X16860Y25475
X20360Y25475
T07
X3110Y12475
X3110Y21725
X3110Y29225
X3110Y36725
X3110Y44225
X3110Y51725
X3110Y58975
X3110Y65225
X11110Y65225
X26110Y65225
X35360Y65225
X35360Y58975
X35360Y51725
X35360Y44225
X35360Y36725
X35360Y29225
X35360Y21725
X35360Y12475
X26110Y12475
X18610Y12475
X11110Y12475
M30
