%
M48
M72
T01C0.0315
T02C0.0320
T03C0.0394
T04C0.0400
T05C0.0590
T06C0.0591
T07C0.0675
T08C0.1181
%
T01
X14444Y48889
X18194Y53639
X27069Y50139
T02
X28925Y50932
X29890Y51191
X30856Y51450
X31822Y51709
X32788Y51968
X33754Y52226
X34720Y52485
X35686Y52744
X36462Y49846
X35497Y49588
X34531Y49329
X33565Y49070
X32599Y48811
X31633Y48552
X30667Y48293
X29701Y48035
X27194Y53014
X26194Y53014
X25194Y53014
X24194Y53014
X23194Y53014
X22194Y53014
X21194Y53014
X20194Y53014
X19194Y53014
X18319Y49139
X17319Y49139
X13319Y48764
X12319Y48764
X11319Y48764
X10319Y48764
X9319Y48764
X8319Y48764
X7319Y48764
X7319Y51764
X8319Y51764
X9319Y51764
X10319Y51764
X11319Y51764
X12319Y51764
X13319Y51764
T03
X10319Y43889
X10319Y43889
X14069Y40139
X10319Y36389
X10319Y36389
X14069Y32639
X10319Y28889
X10319Y28889
X14069Y25139
X10319Y21389
X10319Y21389
X14069Y17639
X10319Y13889
X10319Y13889
X14069Y10139
X10319Y6389
X10319Y6389
X17819Y6389
X17819Y6389
X21569Y10139
X17819Y13889
X17819Y13889
X21569Y17639
X17819Y21389
X17819Y21389
X21569Y25139
X17819Y28889
X17819Y28889
X21569Y32639
X17819Y36389
X17819Y36389
X21569Y40139
X17819Y43889
X17819Y43889
X25319Y43889
X25319Y43889
X29069Y40139
X25319Y36389
X25319Y36389
X29069Y32639
X25319Y28889
X25319Y28889
X29069Y25139
X25319Y21389
X25319Y21389
X29069Y17639
X25319Y13889
X25319Y13889
X29069Y10139
X25319Y6389
X25319Y6389
X32819Y10139
X32819Y10139
X32819Y13889
X32819Y13889
X32819Y21389
X32819Y21389
X32819Y28889
X32819Y28889
X32819Y36389
X32819Y36389
X32819Y43889
X32819Y43889
T04
X33319Y45889
X34319Y45889
X32319Y45889
X31319Y45889
X26819Y45889
X25819Y45889
X24819Y45889
X23819Y45889
X19319Y45889
X18319Y45889
X17319Y45889
X16319Y45889
X11819Y45889
X10819Y45889
X9819Y45889
X8819Y45889
X8819Y38389
X9819Y38389
X10819Y38389
X11819Y38389
X16319Y38389
X17319Y38389
X18319Y38389
X19319Y38389
X23819Y38389
X24819Y38389
X25819Y38389
X26819Y38389
X31319Y38389
X32319Y38389
X33319Y38389
X34319Y38389
X34319Y30889
X33319Y30889
X32319Y30889
X31319Y30889
X26819Y30889
X25819Y30889
X24819Y30889
X23819Y30889
X19319Y30889
X18319Y30889
X17319Y30889
X16319Y30889
X11819Y30889
X10819Y30889
X9819Y30889
X8819Y30889
X8819Y23389
X9819Y23389
X10819Y23389
X11819Y23389
X16319Y23389
X17319Y23389
X18319Y23389
X19319Y23389
X23819Y23389
X24819Y23389
X25819Y23389
X26819Y23389
X31319Y23389
X32319Y23389
X33319Y23389
X34319Y23389
X34319Y15889
X33319Y15889
X32319Y15889
X31319Y15889
X34819Y11639
X34819Y10639
X34819Y9639
X34819Y8639
X26819Y8389
X25819Y8389
X24819Y8389
X23819Y8389
X19319Y8389
X18319Y8389
X17319Y8389
X16319Y8389
X11819Y8389
X10819Y8389
X9819Y8389
X8819Y8389
X8819Y15889
X9819Y15889
X10819Y15889
X11819Y15889
X16319Y15889
X17319Y15889
X18319Y15889
X19319Y15889
X23819Y15889
X24819Y15889
X25819Y15889
X26819Y15889
X17209Y51754
X15429Y51754
T05
X14939Y50774
X17699Y50774
T06
X19319Y42889
X16819Y41889
X19319Y35389
X16819Y34389
X19319Y27889
X16819Y26889
X19319Y20389
X16819Y19389
X19319Y12889
X16819Y11889
X19319Y5389
X16819Y4389
X11819Y5389
X9319Y4389
X9319Y11889
X11819Y12889
X9319Y19389
X11819Y20389
X9319Y26889
X11819Y27889
X9319Y34389
X11819Y35389
X9319Y41889
X11819Y42889
X24319Y41889
X26819Y42889
X31819Y41889
X34319Y42889
X34319Y35389
X31819Y34389
X26819Y35389
X24319Y34389
X26819Y27889
X24319Y26889
X26819Y20389
X24319Y19389
X26819Y12889
X24319Y11889
X26819Y5389
X24319Y4389
X30819Y11139
X31819Y11889
X31819Y8639
X34319Y12889
X31819Y19389
X34319Y20389
X31819Y26889
X34319Y27889
T07
X34819Y28889
X30819Y28889
X27319Y28889
X23319Y28889
X19819Y28889
X15819Y28889
X12319Y28889
X8319Y28889
X8319Y36389
X12319Y36389
X15819Y36389
X19819Y36389
X23319Y36389
X27319Y36389
X30819Y36389
X34819Y36389
X34819Y43889
X30819Y43889
X27319Y43889
X23319Y43889
X19819Y43889
X15819Y43889
X12319Y43889
X8319Y43889
X8319Y21389
X12319Y21389
X15819Y21389
X19819Y21389
X23319Y21389
X27319Y21389
X30819Y21389
X34819Y21389
X34819Y13889
X32819Y12139
X30819Y13889
X27319Y13889
X23319Y13889
X19819Y13889
X15819Y13889
X12319Y13889
X8319Y13889
X8319Y6389
X12319Y6389
X15819Y6389
X19819Y6389
X23319Y6389
X27319Y6389
X32819Y8139
T08
X5319Y1389
X5319Y10139
X5319Y17639
X5319Y25139
X5319Y32639
X5319Y40139
X5319Y47639
X5319Y55139
X14069Y55139
X21569Y55139
X29069Y55139
X37819Y55139
X37819Y47639
X37819Y40139
X37819Y32639
X37819Y25139
X37819Y17639
X37819Y10139
X37819Y1389
X29069Y1389
X21569Y1389
X14069Y1389
M30
