%
M48
M72
T01C0.0315
T02C0.0320
T03C0.0400
T04C0.0591
T05C0.0675
T06C0.1575
%
T01
X58081Y3889
X36831Y32889
X35331Y33889
X43081Y37889
X42331Y39139
X58081Y39639
X70831Y40889
X72831Y40889
T02
X63581Y41639
X62581Y41639
X61581Y41639
X60581Y41639
X59581Y41639
X58581Y41639
X57581Y41639
X56581Y41639
X55581Y41639
X54581Y41639
X53581Y41639
X52581Y41639
X51581Y41639
X50581Y41639
X49581Y41639
X48581Y41639
X47581Y41639
X46581Y41639
X45581Y41639
X44581Y41639
X43581Y41639
X42581Y41639
X41581Y41639
X40581Y41639
X39581Y41639
X38581Y41639
X37581Y41639
X36581Y41639
X35581Y41639
X34581Y41639
X33581Y41639
T03
X22831Y44639
X21831Y44639
X44331Y4139
X45331Y4139
X198331Y41639
X199331Y41639
T04
X197331Y44139
X199831Y45139
X204831Y44139
X207331Y45139
X212331Y44139
X214831Y45139
X219831Y44139
X222331Y45139
X227331Y44139
X229831Y45139
X229831Y37639
X227331Y36639
X222331Y37639
X219831Y36639
X214831Y37639
X212331Y36639
X207331Y37639
X204831Y36639
X207331Y30139
X204831Y29139
X212331Y29139
X214831Y30139
X219831Y29139
X222331Y30139
X227331Y29139
X229831Y30139
X229831Y22639
X227331Y21639
X222331Y22639
X219831Y21639
X214831Y22639
X212331Y21639
X207331Y22639
X204831Y21639
X207331Y15139
X204831Y14139
X212331Y14139
X214831Y15139
X219831Y14139
X222331Y15139
X227331Y14139
X229831Y15139
X229831Y11389
X227331Y10389
X222331Y7639
X219831Y6639
X214831Y7639
X212331Y6639
X207331Y7639
X204831Y6639
X153831Y7639
X151331Y6639
X145331Y7639
X142831Y6639
X135831Y7639
X133331Y6639
X126331Y7639
X123831Y6639
X126831Y14139
X129331Y15139
X134331Y14139
X136831Y15139
X142831Y14139
X145331Y15139
X145581Y21639
X146581Y21639
X148081Y22639
X149081Y22639
X149331Y29139
X151831Y30139
X144331Y30139
X141831Y29139
X136831Y30139
X134331Y29139
X129331Y30139
X126831Y29139
X121831Y30139
X119331Y29139
X114331Y30139
X111831Y29139
X106831Y30139
X104331Y29139
X99331Y30139
X96831Y29139
X85831Y30139
X83331Y29139
X78331Y30139
X75831Y29139
X70831Y30139
X68331Y29139
X63331Y30139
X60831Y29139
X55831Y30139
X53331Y29139
X46331Y30139
X43831Y29139
X45331Y22639
X42831Y21639
X53331Y21639
X55831Y22639
X60831Y21639
X63331Y22639
X68331Y21639
X70831Y22639
X75831Y21639
X78331Y22639
X83331Y21639
X85831Y22639
X96831Y21639
X99331Y22639
X104331Y21639
X106831Y22639
X111831Y21639
X114331Y22639
X119331Y21639
X121831Y22639
X126831Y21639
X129331Y22639
X134331Y21639
X136831Y22639
X121831Y15139
X119331Y14139
X114331Y15139
X111831Y14139
X106831Y15139
X104331Y14139
X99331Y15139
X96831Y14139
X85831Y15139
X83331Y14139
X78331Y15139
X75831Y14139
X70831Y15139
X68331Y14139
X63331Y15139
X60831Y14139
X55831Y15139
X53331Y14139
X43581Y15139
X41081Y14139
X30831Y15139
X28331Y14139
X30831Y7639
X28331Y6639
X23331Y7639
X20831Y6639
X35831Y6639
X38331Y7639
X43331Y6639
X45831Y7639
X51831Y6639
X54331Y7639
X61331Y6639
X63831Y7639
X76581Y6639
X79081Y7639
X103581Y6639
X106081Y7639
X104331Y36639
X106831Y37639
X111831Y36639
X114331Y37639
X119331Y36639
X121831Y37639
X126831Y36639
X129331Y37639
X134331Y36639
X136831Y37639
X145581Y36639
X148081Y37639
X137331Y47139
X139831Y48139
X132331Y48139
X129831Y47139
X124831Y48139
X122331Y47139
X117331Y48139
X114831Y47139
X106831Y48139
X104331Y47139
X99331Y48139
X96831Y47139
X85831Y48139
X83331Y47139
X78331Y48139
X75831Y47139
X67831Y48139
X65331Y47139
X60331Y48139
X57831Y47139
X52831Y48139
X50331Y47139
X45331Y48139
X42831Y47139
X30831Y48139
X28331Y47139
X23331Y48139
X20831Y47139
X23331Y40639
X20831Y39639
X28331Y39639
X30831Y40639
X30831Y33139
X28331Y32139
X23331Y33139
X20831Y32139
X23331Y25639
X20831Y24639
X28331Y24639
X30831Y25639
X45831Y36639
X48331Y37639
X53331Y36639
X55831Y37639
X60831Y36639
X63331Y37639
X68331Y36639
X70831Y37639
X75831Y36639
X78331Y37639
X83331Y36639
X85831Y37639
X96831Y36639
X99331Y37639
T05
X20331Y5639
X24331Y5639
X27831Y5639
X31831Y5639
X35331Y5639
X39331Y5639
X42831Y5639
X46831Y5639
X51331Y5639
X55331Y5639
X60831Y5639
X64831Y5639
X76081Y5639
X80081Y5639
X79331Y13139
X82831Y13139
X86831Y13139
X96331Y13139
X100331Y13139
X103831Y13139
X107831Y13139
X111331Y13139
X115331Y13139
X118831Y13139
X122831Y13139
X126331Y13139
X130331Y13139
X133831Y13139
X137831Y13139
X142331Y13139
X146331Y13139
X146331Y5639
X142331Y5639
X136831Y5639
X132831Y5639
X127331Y5639
X123331Y5639
X107081Y5639
X103081Y5639
X75331Y13139
X71831Y13139
X67831Y13139
X64331Y13139
X60331Y13139
X56831Y13139
X52831Y13139
X44581Y13139
X40581Y13139
X31831Y13139
X27831Y13139
X42331Y20639
X46331Y20639
X52831Y20639
X56831Y20639
X60331Y20639
X64331Y20639
X67831Y20639
X71831Y20639
X75331Y20639
X79331Y20639
X82831Y20639
X86831Y20639
X96331Y20639
X100331Y20639
X103831Y20639
X107831Y20639
X111331Y20639
X115331Y20639
X118831Y20639
X122831Y20639
X126331Y20639
X130331Y20639
X133831Y20639
X137831Y20639
X145081Y20639
X146081Y20639
X149081Y20639
X150081Y20639
X148831Y28139
X145331Y28139
X141331Y28139
X137831Y28139
X133831Y28139
X130331Y28139
X126331Y28139
X122831Y28139
X118831Y28139
X115331Y28139
X111331Y28139
X107831Y28139
X103831Y28139
X100331Y28139
X96331Y28139
X86831Y28139
X82831Y28139
X79331Y28139
X75331Y28139
X71831Y28139
X67831Y28139
X64331Y28139
X60331Y28139
X56831Y28139
X52831Y28139
X47331Y28139
X43331Y28139
X31831Y31139
X27831Y31139
X24331Y31139
X20331Y31139
X20331Y23639
X24331Y23639
X27831Y23639
X31831Y23639
X45331Y35639
X49331Y35639
X52831Y35639
X56831Y35639
X60331Y35639
X64331Y35639
X67831Y35639
X71831Y35639
X75331Y35639
X79331Y35639
X82831Y35639
X86831Y35639
X96331Y35639
X100331Y35639
X103831Y35639
X107831Y35639
X111331Y35639
X115331Y35639
X118831Y35639
X122831Y35639
X126331Y35639
X130331Y35639
X133831Y35639
X137831Y35639
X145081Y35639
X149081Y35639
X152831Y28139
X140831Y46139
X136831Y46139
X133331Y46139
X129331Y46139
X125831Y46139
X121831Y46139
X118331Y46139
X114331Y46139
X107831Y46139
X103831Y46139
X100331Y46139
X96331Y46139
X86831Y46139
X82831Y46139
X79331Y46139
X75331Y46139
X68831Y46139
X64831Y46139
X61331Y46139
X57331Y46139
X53831Y46139
X49831Y46139
X46331Y46139
X42331Y46139
X31831Y46139
X27831Y46139
X24331Y46139
X20331Y46139
X20331Y38639
X24331Y38639
X27831Y38639
X31831Y38639
X150831Y5639
X154831Y5639
X204331Y5639
X208331Y5639
X211831Y5639
X215831Y5639
X219331Y5639
X223331Y5639
X226831Y9389
X230831Y9389
X230831Y13139
X226831Y13139
X223331Y13139
X219331Y13139
X215831Y13139
X211831Y13139
X208331Y13139
X204331Y13139
X204331Y20639
X208331Y20639
X211831Y20639
X215831Y20639
X219331Y20639
X223331Y20639
X226831Y20639
X230831Y20639
X230831Y28139
X226831Y28139
X223331Y28139
X219331Y28139
X215831Y28139
X211831Y28139
X208331Y28139
X204331Y28139
X204331Y35639
X208331Y35639
X211831Y35639
X215831Y35639
X219331Y35639
X223331Y35639
X226831Y35639
X230831Y35639
X230831Y43139
X226831Y43139
X223331Y43139
X219331Y43139
X215831Y43139
X211831Y43139
X208331Y43139
X204331Y43139
X200831Y43139
X196831Y43139
T06
X198831Y43139
X206331Y43139
X213831Y43139
X221331Y43139
X228831Y43139
X228831Y35639
X221331Y35639
X213831Y35639
X206331Y35639
X206331Y28139
X213831Y28139
X221331Y28139
X228831Y28139
X228831Y20639
X221331Y20639
X213831Y20639
X206331Y20639
X206331Y13139
X213831Y13139
X221331Y13139
X228831Y13139
X228831Y9389
X221331Y5639
X213831Y5639
X206331Y5639
X152831Y5639
X144331Y5639
X134831Y5639
X125331Y5639
X128331Y13139
X135831Y13139
X144331Y13139
X147081Y20639
X148081Y20639
X135831Y20639
X128331Y20639
X120831Y20639
X113331Y20639
X105831Y20639
X98331Y20639
X84831Y20639
X77331Y20639
X69831Y20639
X62331Y20639
X54831Y20639
X44331Y20639
X29831Y23639
X22331Y23639
X22331Y31139
X29831Y31139
X45331Y28139
X54831Y28139
X62331Y28139
X69831Y28139
X77331Y28139
X84831Y28139
X98331Y28139
X105831Y28139
X113331Y28139
X120831Y28139
X128331Y28139
X135831Y28139
X143331Y28139
X150831Y28139
X147081Y35639
X135831Y35639
X128331Y35639
X120831Y35639
X113331Y35639
X105831Y35639
X98331Y35639
X84831Y35639
X77331Y35639
X69831Y35639
X62331Y35639
X54831Y35639
X47331Y35639
X29831Y38639
X22331Y38639
X22331Y46139
X29831Y46139
X44331Y46139
X51831Y46139
X59331Y46139
X66831Y46139
X77331Y46139
X84831Y46139
X98331Y46139
X105831Y46139
X116331Y46139
X123831Y46139
X131331Y46139
X138831Y46139
X120831Y13139
X113331Y13139
X105831Y13139
X98331Y13139
X84831Y13139
X77331Y13139
X69831Y13139
X62331Y13139
X54831Y13139
X42581Y13139
X29831Y13139
X29831Y5639
X37331Y5639
X44831Y5639
X53331Y5639
X62831Y5639
X78081Y5639
X105081Y5639
X22331Y5639
M30
