G75*
G70*
%OFA0B0*%
%FSLAX24Y24*%
%IPPOS*%
%LPD*%
%AMOC8*
5,1,8,0,0,1.08239X$1,22.5*
%
%ADD10C,0.0140*%
%ADD11C,0.1500*%
%ADD12C,0.1012*%
%ADD13C,0.0860*%
%ADD14C,0.1181*%
%ADD15R,0.0630X0.0460*%
%ADD16C,0.0320*%
%ADD17R,0.0460X0.0630*%
%ADD18R,0.0709X0.0551*%
%ADD19R,0.0551X0.0709*%
%ADD20R,0.0827X0.0827*%
%ADD21R,0.0472X0.0709*%
%ADD22R,0.0472X0.0591*%
%ADD23R,0.0591X0.0472*%
%ADD24R,0.0591X0.0512*%
%ADD25C,0.0827*%
%ADD26OC8,0.0827*%
%ADD27R,0.0630X0.0512*%
%ADD28R,0.0512X0.0630*%
%ADD29C,0.0515*%
%ADD30C,0.0400*%
%ADD31C,0.0240*%
%ADD32R,0.0906X0.0906*%
%ADD33C,0.1969*%
%ADD34C,0.0787*%
%ADD35C,0.0160*%
D10*
X056500Y007360D02*
X056500Y007487D01*
X056627Y007613D01*
X057007Y007613D01*
X057007Y007360D01*
X056880Y007233D01*
X056627Y007233D01*
X056500Y007360D01*
X056753Y007867D02*
X057007Y007613D01*
X056753Y007867D02*
X056500Y007994D01*
X057582Y007994D02*
X057582Y007233D01*
X057329Y007233D02*
X057836Y007233D01*
X058157Y007613D02*
X058664Y007613D01*
X058986Y007487D02*
X058986Y007360D01*
X059113Y007233D01*
X059366Y007233D01*
X059493Y007360D01*
X059493Y007487D01*
X059366Y007613D01*
X059113Y007613D01*
X058986Y007487D01*
X059113Y007613D02*
X058986Y007740D01*
X058986Y007867D01*
X059113Y007994D01*
X059366Y007994D01*
X059493Y007867D01*
X059493Y007740D01*
X059366Y007613D01*
X059815Y007867D02*
X059815Y007994D01*
X060322Y007994D01*
X059815Y007867D02*
X060322Y007360D01*
X060322Y007233D01*
X060643Y007233D02*
X061151Y007233D01*
X060897Y007233D02*
X060897Y007994D01*
X061151Y007740D01*
X061472Y007233D02*
X061979Y007233D01*
X061726Y007233D02*
X061726Y007994D01*
X061979Y007740D01*
X057836Y007740D02*
X057582Y007994D01*
X089000Y007994D02*
X089253Y007867D01*
X089507Y007613D01*
X089127Y007613D01*
X089000Y007487D01*
X089000Y007360D01*
X089127Y007233D01*
X089380Y007233D01*
X089507Y007360D01*
X089507Y007613D01*
X089829Y007233D02*
X090336Y007233D01*
X090082Y007233D02*
X090082Y007994D01*
X090336Y007740D01*
X090657Y007613D02*
X091164Y007613D01*
X091486Y007867D02*
X091993Y007360D01*
X091993Y007233D01*
X092315Y007867D02*
X092822Y007360D01*
X092822Y007233D01*
X093143Y007233D02*
X093651Y007233D01*
X093397Y007233D02*
X093397Y007994D01*
X093651Y007740D01*
X093972Y007233D02*
X094479Y007233D01*
X094226Y007233D02*
X094226Y007994D01*
X094479Y007740D01*
X092822Y007994D02*
X092315Y007994D01*
X092315Y007867D01*
X091993Y007994D02*
X091486Y007994D01*
X091486Y007867D01*
D11*
X070549Y018038D03*
X073049Y019038D03*
X065549Y019038D03*
X063049Y018038D03*
X058049Y019038D03*
X055549Y018038D03*
X050549Y019038D03*
X048049Y018038D03*
X043049Y019038D03*
X040549Y018038D03*
X031799Y019038D03*
X029299Y018038D03*
X025549Y011538D03*
X023049Y010538D03*
X018049Y011538D03*
X015549Y010538D03*
X010549Y011538D03*
X008049Y010538D03*
X015549Y018038D03*
X018049Y019038D03*
X030049Y025538D03*
X032549Y026538D03*
X040549Y025538D03*
X043049Y026538D03*
X048049Y025538D03*
X050549Y026538D03*
X055549Y025538D03*
X058049Y026538D03*
X063049Y025538D03*
X065549Y026538D03*
X070549Y025538D03*
X073049Y026538D03*
X070549Y033038D03*
X073049Y034038D03*
X065549Y034038D03*
X063049Y033038D03*
X058049Y034038D03*
X055549Y033038D03*
X050549Y034038D03*
X048049Y033038D03*
X043049Y034038D03*
X040549Y033038D03*
X033549Y034038D03*
X031049Y033038D03*
X018049Y029538D03*
X015549Y028538D03*
X010549Y029538D03*
X008049Y028538D03*
X008049Y036038D03*
X010549Y037038D03*
X015549Y036038D03*
X018049Y037038D03*
X025549Y040538D03*
X028049Y041538D03*
X033049Y040538D03*
X035549Y041538D03*
X040549Y040538D03*
X043049Y041538D03*
X048049Y040538D03*
X050549Y041538D03*
X055549Y040538D03*
X058049Y041538D03*
X063049Y040538D03*
X065549Y041538D03*
X070549Y040538D03*
X073049Y041538D03*
X070549Y051038D03*
X073049Y052038D03*
X065549Y052038D03*
X063049Y051038D03*
X055049Y052038D03*
X052549Y051038D03*
X047549Y052038D03*
X045049Y051038D03*
X040049Y052038D03*
X037549Y051038D03*
X032549Y052038D03*
X030049Y051038D03*
X018049Y052038D03*
X015549Y051038D03*
X010549Y052038D03*
X008049Y051038D03*
X010549Y044538D03*
X008049Y043538D03*
X015549Y043538D03*
X018049Y044538D03*
X033174Y011538D03*
X030674Y010538D03*
X037174Y010538D03*
X038299Y010538D03*
X039674Y011538D03*
X040799Y011538D03*
X046674Y010538D03*
X049174Y011538D03*
X061799Y010538D03*
X064299Y011538D03*
D12*
X064799Y012538D03*
X060799Y012538D03*
X049674Y012538D03*
X045674Y012538D03*
X041299Y012538D03*
X040174Y012538D03*
X037299Y012538D03*
X036174Y012538D03*
X033674Y012538D03*
X029674Y012538D03*
X026049Y012538D03*
X022049Y012538D03*
X018549Y012538D03*
X014549Y012538D03*
X011049Y012538D03*
X007049Y012538D03*
X014549Y020038D03*
X018549Y020038D03*
X028299Y020038D03*
X032299Y020038D03*
X039549Y020038D03*
X043549Y020038D03*
X047049Y020038D03*
X051049Y020038D03*
X054549Y020038D03*
X058549Y020038D03*
X062049Y020038D03*
X066049Y020038D03*
X069549Y020038D03*
X073549Y020038D03*
X073549Y027538D03*
X069549Y027538D03*
X066049Y027538D03*
X062049Y027538D03*
X058549Y027538D03*
X054549Y027538D03*
X051049Y027538D03*
X047049Y027538D03*
X043549Y027538D03*
X039549Y027538D03*
X033049Y027538D03*
X029049Y027538D03*
X018549Y030538D03*
X014549Y030538D03*
X011049Y030538D03*
X007049Y030538D03*
X007049Y038038D03*
X011049Y038038D03*
X014549Y038038D03*
X018549Y038038D03*
X024549Y042538D03*
X028549Y042538D03*
X032049Y042538D03*
X036049Y042538D03*
X039549Y042538D03*
X043549Y042538D03*
X047049Y042538D03*
X051049Y042538D03*
X054549Y042538D03*
X058549Y042538D03*
X062049Y042538D03*
X066049Y042538D03*
X069549Y042538D03*
X073549Y042538D03*
X073549Y035038D03*
X069549Y035038D03*
X066049Y035038D03*
X062049Y035038D03*
X058549Y035038D03*
X054549Y035038D03*
X051049Y035038D03*
X047049Y035038D03*
X043549Y035038D03*
X039549Y035038D03*
X034049Y035038D03*
X030049Y035038D03*
X018549Y045538D03*
X014549Y045538D03*
X011049Y045538D03*
X007049Y045538D03*
X007049Y053038D03*
X011049Y053038D03*
X014549Y053038D03*
X018549Y053038D03*
X029049Y053038D03*
X033049Y053038D03*
X036549Y053038D03*
X040549Y053038D03*
X044049Y053038D03*
X048049Y053038D03*
X051549Y053038D03*
X055549Y053038D03*
X062049Y053038D03*
X066049Y053038D03*
X069549Y053038D03*
X073549Y053038D03*
D13*
X073049Y054608D02*
X073049Y055468D01*
X072049Y055468D02*
X072049Y054608D01*
X071049Y054608D02*
X071049Y055468D01*
X070049Y055468D02*
X070049Y054608D01*
X065549Y054608D02*
X065549Y055468D01*
X064549Y055468D02*
X064549Y054608D01*
X063549Y054608D02*
X063549Y055468D01*
X062549Y055468D02*
X062549Y054608D01*
X055049Y054608D02*
X055049Y055468D01*
X054049Y055468D02*
X054049Y054608D01*
X053049Y054608D02*
X053049Y055468D01*
X052049Y055468D02*
X052049Y054608D01*
X047549Y054608D02*
X047549Y055468D01*
X046549Y055468D02*
X046549Y054608D01*
X045549Y054608D02*
X045549Y055468D01*
X044549Y055468D02*
X044549Y054608D01*
X040049Y054608D02*
X040049Y055468D01*
X039049Y055468D02*
X039049Y054608D01*
X038049Y054608D02*
X038049Y055468D01*
X037049Y055468D02*
X037049Y054608D01*
X032549Y054608D02*
X032549Y055468D01*
X031549Y055468D02*
X031549Y054608D01*
X030549Y054608D02*
X030549Y055468D01*
X029549Y055468D02*
X029549Y054608D01*
X018049Y054608D02*
X018049Y055468D01*
X017049Y055468D02*
X017049Y054608D01*
X016049Y054608D02*
X016049Y055468D01*
X015049Y055468D02*
X015049Y054608D01*
X010549Y054608D02*
X010549Y055468D01*
X009549Y055468D02*
X009549Y054608D01*
X008549Y054608D02*
X008549Y055468D01*
X007549Y055468D02*
X007549Y054608D01*
X007549Y047968D02*
X007549Y047108D01*
X008549Y047108D02*
X008549Y047968D01*
X009549Y047968D02*
X009549Y047108D01*
X010549Y047108D02*
X010549Y047968D01*
X015049Y047968D02*
X015049Y047108D01*
X016049Y047108D02*
X016049Y047968D01*
X017049Y047968D02*
X017049Y047108D01*
X018049Y047108D02*
X018049Y047968D01*
X025049Y044968D02*
X025049Y044108D01*
X026049Y044108D02*
X026049Y044968D01*
X027049Y044968D02*
X027049Y044108D01*
X028049Y044108D02*
X028049Y044968D01*
X032549Y044968D02*
X032549Y044108D01*
X033549Y044108D02*
X033549Y044968D01*
X034549Y044968D02*
X034549Y044108D01*
X035549Y044108D02*
X035549Y044968D01*
X040049Y044968D02*
X040049Y044108D01*
X041049Y044108D02*
X041049Y044968D01*
X042049Y044968D02*
X042049Y044108D01*
X043049Y044108D02*
X043049Y044968D01*
X047549Y044968D02*
X047549Y044108D01*
X048549Y044108D02*
X048549Y044968D01*
X049549Y044968D02*
X049549Y044108D01*
X050549Y044108D02*
X050549Y044968D01*
X055049Y044968D02*
X055049Y044108D01*
X056049Y044108D02*
X056049Y044968D01*
X057049Y044968D02*
X057049Y044108D01*
X058049Y044108D02*
X058049Y044968D01*
X062549Y044968D02*
X062549Y044108D01*
X063549Y044108D02*
X063549Y044968D01*
X064549Y044968D02*
X064549Y044108D01*
X065549Y044108D02*
X065549Y044968D01*
X070049Y044968D02*
X070049Y044108D01*
X071049Y044108D02*
X071049Y044968D01*
X072049Y044968D02*
X072049Y044108D01*
X073049Y044108D02*
X073049Y044968D01*
X073049Y037468D02*
X073049Y036608D01*
X072049Y036608D02*
X072049Y037468D01*
X071049Y037468D02*
X071049Y036608D01*
X070049Y036608D02*
X070049Y037468D01*
X065549Y037468D02*
X065549Y036608D01*
X064549Y036608D02*
X064549Y037468D01*
X063549Y037468D02*
X063549Y036608D01*
X062549Y036608D02*
X062549Y037468D01*
X058049Y037468D02*
X058049Y036608D01*
X057049Y036608D02*
X057049Y037468D01*
X056049Y037468D02*
X056049Y036608D01*
X055049Y036608D02*
X055049Y037468D01*
X050549Y037468D02*
X050549Y036608D01*
X049549Y036608D02*
X049549Y037468D01*
X048549Y037468D02*
X048549Y036608D01*
X047549Y036608D02*
X047549Y037468D01*
X043049Y037468D02*
X043049Y036608D01*
X042049Y036608D02*
X042049Y037468D01*
X041049Y037468D02*
X041049Y036608D01*
X040049Y036608D02*
X040049Y037468D01*
X033549Y037468D02*
X033549Y036608D01*
X032549Y036608D02*
X032549Y037468D01*
X031549Y037468D02*
X031549Y036608D01*
X030549Y036608D02*
X030549Y037468D01*
X018049Y039608D02*
X018049Y040468D01*
X017049Y040468D02*
X017049Y039608D01*
X016049Y039608D02*
X016049Y040468D01*
X015049Y040468D02*
X015049Y039608D01*
X010549Y039608D02*
X010549Y040468D01*
X009549Y040468D02*
X009549Y039608D01*
X008549Y039608D02*
X008549Y040468D01*
X007549Y040468D02*
X007549Y039608D01*
X007549Y032968D02*
X007549Y032108D01*
X008549Y032108D02*
X008549Y032968D01*
X009549Y032968D02*
X009549Y032108D01*
X010549Y032108D02*
X010549Y032968D01*
X015049Y032968D02*
X015049Y032108D01*
X016049Y032108D02*
X016049Y032968D01*
X017049Y032968D02*
X017049Y032108D01*
X018049Y032108D02*
X018049Y032968D01*
X029549Y029968D02*
X029549Y029108D01*
X030549Y029108D02*
X030549Y029968D01*
X031549Y029968D02*
X031549Y029108D01*
X032549Y029108D02*
X032549Y029968D01*
X040049Y029968D02*
X040049Y029108D01*
X041049Y029108D02*
X041049Y029968D01*
X042049Y029968D02*
X042049Y029108D01*
X043049Y029108D02*
X043049Y029968D01*
X047549Y029968D02*
X047549Y029108D01*
X048549Y029108D02*
X048549Y029968D01*
X049549Y029968D02*
X049549Y029108D01*
X050549Y029108D02*
X050549Y029968D01*
X055049Y029968D02*
X055049Y029108D01*
X056049Y029108D02*
X056049Y029968D01*
X057049Y029968D02*
X057049Y029108D01*
X058049Y029108D02*
X058049Y029968D01*
X062549Y029968D02*
X062549Y029108D01*
X063549Y029108D02*
X063549Y029968D01*
X064549Y029968D02*
X064549Y029108D01*
X065549Y029108D02*
X065549Y029968D01*
X070049Y029968D02*
X070049Y029108D01*
X071049Y029108D02*
X071049Y029968D01*
X072049Y029968D02*
X072049Y029108D01*
X073049Y029108D02*
X073049Y029968D01*
X073049Y022468D02*
X073049Y021608D01*
X072049Y021608D02*
X072049Y022468D01*
X071049Y022468D02*
X071049Y021608D01*
X070049Y021608D02*
X070049Y022468D01*
X065549Y022468D02*
X065549Y021608D01*
X064549Y021608D02*
X064549Y022468D01*
X063549Y022468D02*
X063549Y021608D01*
X062549Y021608D02*
X062549Y022468D01*
X058049Y022468D02*
X058049Y021608D01*
X057049Y021608D02*
X057049Y022468D01*
X056049Y022468D02*
X056049Y021608D01*
X055049Y021608D02*
X055049Y022468D01*
X050549Y022468D02*
X050549Y021608D01*
X049549Y021608D02*
X049549Y022468D01*
X048549Y022468D02*
X048549Y021608D01*
X047549Y021608D02*
X047549Y022468D01*
X043049Y022468D02*
X043049Y021608D01*
X042049Y021608D02*
X042049Y022468D01*
X041049Y022468D02*
X041049Y021608D01*
X040049Y021608D02*
X040049Y022468D01*
X031799Y022468D02*
X031799Y021608D01*
X030799Y021608D02*
X030799Y022468D01*
X029799Y022468D02*
X029799Y021608D01*
X028799Y021608D02*
X028799Y022468D01*
X018049Y022468D02*
X018049Y021608D01*
X017049Y021608D02*
X017049Y022468D01*
X016049Y022468D02*
X016049Y021608D01*
X015049Y021608D02*
X015049Y022468D01*
X015049Y014968D02*
X015049Y014108D01*
X016049Y014108D02*
X016049Y014968D01*
X017049Y014968D02*
X017049Y014108D01*
X018049Y014108D02*
X018049Y014968D01*
X022549Y014968D02*
X022549Y014108D01*
X023549Y014108D02*
X023549Y014968D01*
X024549Y014968D02*
X024549Y014108D01*
X025549Y014108D02*
X025549Y014968D01*
X030174Y014968D02*
X030174Y014108D01*
X031174Y014108D02*
X031174Y014968D01*
X032174Y014968D02*
X032174Y014108D01*
X033174Y014108D02*
X033174Y014968D01*
X037799Y014968D02*
X037799Y014108D01*
X038799Y014108D02*
X038799Y014968D01*
X039799Y014968D02*
X039799Y014108D01*
X040799Y014108D02*
X040799Y014968D01*
X046174Y014968D02*
X046174Y014108D01*
X047174Y014108D02*
X047174Y014968D01*
X048174Y014968D02*
X048174Y014108D01*
X049174Y014108D02*
X049174Y014968D01*
X061299Y014968D02*
X061299Y014108D01*
X062299Y014108D02*
X062299Y014968D01*
X063299Y014968D02*
X063299Y014108D01*
X064299Y014108D02*
X064299Y014968D01*
X010549Y014968D02*
X010549Y014108D01*
X009549Y014108D02*
X009549Y014968D01*
X008549Y014968D02*
X008549Y014108D01*
X007549Y014108D02*
X007549Y014968D01*
D14*
X009049Y012538D03*
X016549Y012538D03*
X024049Y012538D03*
X031674Y012538D03*
X039299Y012538D03*
X047674Y012538D03*
X049049Y020038D03*
X041549Y020038D03*
X030299Y020038D03*
X031049Y027538D03*
X041549Y027538D03*
X049049Y027538D03*
X056549Y027538D03*
X064049Y027538D03*
X071549Y027538D03*
X071549Y020038D03*
X064049Y020038D03*
X056549Y020038D03*
X062799Y012538D03*
X064049Y035038D03*
X071549Y035038D03*
X071549Y042538D03*
X064049Y042538D03*
X056549Y042538D03*
X049049Y042538D03*
X041549Y042538D03*
X034049Y042538D03*
X026549Y042538D03*
X016549Y045538D03*
X009049Y045538D03*
X009049Y053038D03*
X016549Y053038D03*
X031049Y053038D03*
X038549Y053038D03*
X046049Y053038D03*
X053549Y053038D03*
X064049Y053038D03*
X071549Y053038D03*
X056549Y035038D03*
X049049Y035038D03*
X041549Y035038D03*
X032049Y035038D03*
X016549Y038038D03*
X009049Y038038D03*
X009049Y030538D03*
X016549Y030538D03*
X016549Y020038D03*
D15*
X019799Y020088D03*
X019799Y019488D03*
X014799Y017588D03*
X014799Y016988D03*
X016799Y010088D03*
X016799Y009488D03*
X009424Y009488D03*
X009424Y010088D03*
X024299Y010088D03*
X024299Y009488D03*
X031924Y009488D03*
X031924Y010088D03*
X035799Y010088D03*
X035799Y009488D03*
X048049Y009613D03*
X048049Y010213D03*
X060424Y010213D03*
X060424Y009613D03*
X065924Y011613D03*
X065924Y012213D03*
X067299Y019238D03*
X067299Y019838D03*
X064299Y024488D03*
X064299Y025088D03*
X067299Y026988D03*
X067299Y027588D03*
X073049Y025338D03*
X073049Y024738D03*
X073049Y032238D03*
X073049Y032838D03*
X067299Y034488D03*
X067299Y035088D03*
X064299Y032338D03*
X064299Y031738D03*
X059799Y034238D03*
X059799Y034838D03*
X056549Y032338D03*
X056549Y031738D03*
X052299Y034238D03*
X052299Y034838D03*
X049049Y032338D03*
X049049Y031738D03*
X044799Y034238D03*
X044799Y034838D03*
X041799Y032338D03*
X041799Y031738D03*
X035549Y034238D03*
X035549Y034838D03*
X032299Y032338D03*
X032299Y031738D03*
X034549Y027588D03*
X034549Y026988D03*
X031299Y025088D03*
X031299Y024488D03*
X041799Y024488D03*
X041799Y025088D03*
X044799Y026738D03*
X044799Y027338D03*
X049299Y025088D03*
X049299Y024488D03*
X052299Y026738D03*
X052299Y027338D03*
X056799Y025088D03*
X056799Y024488D03*
X059799Y026738D03*
X059799Y027338D03*
X059549Y020088D03*
X059549Y019488D03*
X052299Y019238D03*
X052299Y019838D03*
X049299Y017588D03*
X049299Y016988D03*
X044799Y019238D03*
X044799Y019838D03*
X019799Y029488D03*
X019799Y030088D03*
X016549Y027838D03*
X016549Y027238D03*
X012299Y029988D03*
X012299Y030588D03*
X009299Y028088D03*
X009299Y027488D03*
X009049Y034738D03*
X009049Y035338D03*
X012299Y037488D03*
X012299Y038088D03*
X016799Y035588D03*
X016799Y034988D03*
X019799Y037238D03*
X019799Y037838D03*
X016549Y041988D03*
X016549Y042588D03*
X019674Y044613D03*
X019674Y045213D03*
X012299Y044988D03*
X012299Y045588D03*
X009299Y043088D03*
X009299Y042488D03*
X006799Y049738D03*
X006799Y050338D03*
X009549Y050488D03*
X009549Y051088D03*
X016799Y050838D03*
X016799Y050238D03*
X031299Y049988D03*
X031299Y050588D03*
X038799Y050588D03*
X038799Y049988D03*
X046299Y049988D03*
X046299Y050588D03*
X056049Y050738D03*
X056049Y051338D03*
X064549Y051088D03*
X064549Y050488D03*
X073049Y050238D03*
X073049Y050838D03*
X059799Y043088D03*
X059799Y042488D03*
X056549Y039588D03*
X056549Y038988D03*
X052299Y041988D03*
X052299Y042588D03*
X049299Y040088D03*
X049299Y039488D03*
X044799Y042238D03*
X044799Y042838D03*
X041799Y040088D03*
X041799Y039488D03*
X037299Y041988D03*
X037299Y042588D03*
X034299Y040088D03*
X034299Y039488D03*
X067299Y041488D03*
X067299Y042088D03*
X073049Y040338D03*
X073049Y039738D03*
D16*
X073049Y040338D01*
X069599Y040788D02*
X068999Y040788D01*
X067299Y041488D02*
X067299Y042088D01*
X067299Y043119D01*
X061849Y041038D02*
X061249Y041038D01*
X059799Y042488D02*
X059799Y043088D01*
X056549Y039588D02*
X056549Y038988D01*
X052299Y041988D02*
X052299Y042588D01*
X049299Y040088D02*
X049299Y039488D01*
X044799Y042238D02*
X044799Y042838D01*
X041799Y040088D02*
X041799Y039488D01*
X037299Y041988D02*
X037299Y042588D01*
X034299Y040088D02*
X034299Y039488D01*
X028474Y040163D02*
X027874Y040163D01*
X023974Y040538D02*
X023374Y040538D01*
X019799Y037838D02*
X019799Y037238D01*
X016799Y035588D02*
X016799Y034988D01*
X009049Y034738D02*
X009049Y035338D01*
X012299Y030588D02*
X012299Y029988D01*
X009299Y028088D02*
X009299Y027488D01*
X016549Y027238D02*
X016549Y027838D01*
X019799Y029488D02*
X019799Y030088D01*
X031299Y025088D02*
X031299Y024488D01*
X034549Y026988D02*
X034549Y027588D01*
X041799Y025088D02*
X041799Y024488D01*
X044799Y026738D02*
X044799Y027338D01*
X049299Y025088D02*
X049299Y024488D01*
X052299Y026738D02*
X052299Y027338D01*
X056799Y025088D02*
X056799Y024488D01*
X059799Y026738D02*
X059799Y027338D01*
X064299Y025088D02*
X064299Y024488D01*
X068749Y025788D02*
X069349Y025788D01*
X067299Y026988D02*
X067299Y027588D01*
X073049Y025338D02*
X073049Y024738D01*
X067299Y019838D02*
X067299Y019238D01*
X068749Y018038D02*
X069349Y018038D01*
X071962Y017576D02*
X072386Y018000D01*
X065924Y012213D02*
X065924Y011613D01*
X060424Y010213D02*
X060424Y009613D01*
X051099Y011538D02*
X050499Y011538D01*
X048049Y010213D02*
X048049Y009613D01*
X042599Y011538D02*
X041999Y011538D01*
X035799Y010088D02*
X035799Y009488D01*
X034974Y011538D02*
X034374Y011538D01*
X031924Y010088D02*
X031924Y009488D01*
X027349Y011538D02*
X026749Y011538D01*
X024299Y010088D02*
X024299Y009488D01*
X019849Y011538D02*
X019249Y011538D01*
X016799Y010088D02*
X016799Y009488D01*
X012349Y011538D02*
X011749Y011538D01*
X009424Y010088D02*
X009424Y009488D01*
X014799Y016988D02*
X014799Y017588D01*
X019799Y019488D02*
X019799Y020088D01*
X027499Y018038D02*
X028099Y018038D01*
X032999Y019038D02*
X033599Y019038D01*
X038749Y017913D02*
X039349Y017913D01*
X044799Y019238D02*
X044799Y019838D01*
X049299Y017588D02*
X049299Y016988D01*
X052299Y019238D02*
X052299Y019838D01*
X056499Y017038D02*
X057099Y017038D01*
X059549Y019488D02*
X059549Y020088D01*
X061499Y018788D02*
X062099Y018788D01*
X064299Y031738D02*
X064299Y032338D01*
X067299Y034488D02*
X067299Y035088D01*
X068749Y033038D02*
X069349Y033038D01*
X073049Y032838D02*
X073049Y032238D01*
X059799Y034238D02*
X059799Y034838D01*
X056549Y032338D02*
X056549Y031738D01*
X052299Y034238D02*
X052299Y034838D01*
X049049Y032338D02*
X049049Y031738D01*
X044799Y034238D02*
X044799Y034838D01*
X041799Y032338D02*
X041799Y031738D01*
X035549Y034238D02*
X035549Y034838D01*
X032299Y032338D02*
X032299Y031738D01*
X016549Y041988D02*
X016549Y042588D01*
X019674Y044613D02*
X019674Y045213D01*
X012299Y044988D02*
X012299Y045588D01*
X009299Y043088D02*
X009299Y042488D01*
X006799Y049738D02*
X006799Y050338D01*
X009549Y050488D02*
X009549Y051088D01*
X016799Y050838D02*
X016799Y050238D01*
X031299Y049988D02*
X031299Y050588D01*
X033749Y052038D02*
X034349Y052038D01*
X038799Y050588D02*
X038799Y049988D01*
X046299Y049988D02*
X046299Y050588D01*
X050499Y051288D02*
X051099Y051288D01*
X056049Y051338D02*
X056049Y050738D01*
X060999Y051538D02*
X061599Y051538D01*
X064549Y051088D02*
X064549Y050488D01*
X068749Y051788D02*
X069349Y051788D01*
X073049Y050838D02*
X073049Y050238D01*
X066299Y056288D02*
X060799Y056288D01*
D17*
X060999Y051538D03*
X061599Y051538D03*
X068749Y051788D03*
X069349Y051788D03*
X051099Y051288D03*
X050499Y051288D03*
X049349Y052038D03*
X048749Y052038D03*
X041849Y052288D03*
X041249Y052288D03*
X034349Y052038D03*
X033749Y052038D03*
X019849Y052038D03*
X019249Y052038D03*
X023374Y040538D03*
X023974Y040538D03*
X027874Y040163D03*
X028474Y040163D03*
X061249Y041038D03*
X061849Y041038D03*
X068999Y040788D03*
X069599Y040788D03*
X069349Y033038D03*
X068749Y033038D03*
X068749Y025788D03*
X069349Y025788D03*
X062099Y018788D03*
X061499Y018788D03*
X057099Y017038D03*
X056499Y017038D03*
X051099Y011538D03*
X050499Y011538D03*
X042599Y011538D03*
X041999Y011538D03*
X034974Y011538D03*
X034374Y011538D03*
X027349Y011538D03*
X026749Y011538D03*
X019849Y011538D03*
X019249Y011538D03*
X012349Y011538D03*
X011749Y011538D03*
X027499Y018038D03*
X028099Y018038D03*
X032999Y019038D03*
X033599Y019038D03*
X038749Y017913D03*
X039349Y017913D03*
X068749Y018038D03*
X069349Y018038D03*
G36*
X072347Y017516D02*
X072022Y017191D01*
X071577Y017636D01*
X071902Y017961D01*
X072347Y017516D01*
G37*
G36*
X072771Y017940D02*
X072446Y017615D01*
X072001Y018060D01*
X072326Y018385D01*
X072771Y017940D01*
G37*
D18*
X065924Y014707D03*
X065924Y013369D03*
X064299Y016119D03*
X064299Y017457D03*
X059549Y020619D03*
X059549Y021957D03*
X058299Y017707D03*
X058299Y016369D03*
X052299Y020619D03*
X052299Y021957D03*
X044799Y021957D03*
X044799Y020619D03*
X042174Y017707D03*
X042174Y016369D03*
X037174Y017244D03*
X037174Y018582D03*
X020674Y022744D03*
X019674Y022744D03*
X019674Y024082D03*
X020674Y024082D03*
X019799Y031369D03*
X019799Y032707D03*
X012299Y032707D03*
X012299Y031369D03*
X012299Y038869D03*
X012299Y040207D03*
X019299Y040457D03*
X019299Y039119D03*
X019549Y046744D03*
X019549Y048082D03*
X019549Y049869D03*
X019549Y051207D03*
X012299Y047707D03*
X010299Y049119D03*
X010299Y050457D03*
X012299Y046369D03*
X035549Y037332D03*
X035549Y035994D03*
X044799Y035619D03*
X044799Y036957D03*
X052299Y036957D03*
X052299Y035619D03*
X059799Y035619D03*
X059799Y036957D03*
X067299Y037207D03*
X067299Y035869D03*
X067299Y029707D03*
X067299Y028369D03*
X059799Y028119D03*
X059799Y029457D03*
X052299Y029457D03*
X052299Y028119D03*
X044799Y028119D03*
X044799Y029457D03*
X034549Y029707D03*
X034549Y028369D03*
X037549Y043369D03*
X037549Y044707D03*
X037549Y048119D03*
X037549Y049457D03*
X040049Y049305D03*
X040049Y050644D03*
X047549Y050707D03*
X047549Y049369D03*
X044799Y044957D03*
X044799Y043619D03*
X059299Y043869D03*
X059299Y045207D03*
X065299Y048619D03*
X065299Y049957D03*
X067299Y044457D03*
X067299Y043119D03*
D19*
X073130Y038788D03*
X074469Y038788D03*
X074469Y031288D03*
X073130Y031288D03*
X073130Y023788D03*
X074469Y023788D03*
X068219Y021038D03*
X066880Y021038D03*
X069630Y016538D03*
X070969Y016538D03*
X024469Y019788D03*
X023130Y019788D03*
X005969Y017913D03*
X004630Y017913D03*
X002219Y020038D03*
X000880Y020038D03*
X004130Y021788D03*
X005469Y021788D03*
X020005Y040538D03*
X021344Y040538D03*
X051755Y043663D03*
X053094Y043663D03*
G36*
X054520Y049760D02*
X054131Y049371D01*
X053632Y049870D01*
X054021Y050259D01*
X054520Y049760D01*
G37*
G36*
X055467Y050706D02*
X055078Y050317D01*
X054579Y050816D01*
X054968Y051205D01*
X055467Y050706D01*
G37*
X073130Y049288D03*
X074469Y049288D03*
D20*
X063049Y049288D03*
X062049Y049288D03*
X061049Y049288D03*
X060049Y049288D03*
X059049Y049288D03*
X058049Y049288D03*
X057049Y049288D03*
X056049Y049288D03*
X056049Y046288D03*
X057049Y046288D03*
X058049Y046288D03*
X059049Y046288D03*
X060049Y046288D03*
X061049Y046288D03*
X062049Y046288D03*
X063049Y046288D03*
X010799Y023788D03*
X010799Y022788D03*
X010799Y021788D03*
X010799Y020788D03*
X010799Y019788D03*
X010799Y018788D03*
X010799Y017788D03*
X007799Y017788D03*
X007799Y018788D03*
X007799Y019788D03*
X007799Y020788D03*
X007799Y021788D03*
X007799Y022788D03*
X007799Y023788D03*
D21*
X025799Y050698D03*
X026674Y050698D03*
X026674Y051878D03*
X025799Y051878D03*
X061049Y048378D03*
X061049Y047198D03*
D22*
X059924Y052948D03*
X058799Y052948D03*
X057674Y052948D03*
X057674Y054128D03*
X058799Y054128D03*
X059924Y054128D03*
X058049Y040128D03*
X058049Y038948D03*
X065049Y038948D03*
X065049Y040128D03*
X065549Y032378D03*
X065549Y031198D03*
X058049Y031198D03*
X058049Y032378D03*
X050549Y032378D03*
X050549Y031198D03*
X043299Y031198D03*
X043299Y032378D03*
X034549Y032378D03*
X034549Y031198D03*
X034799Y025128D03*
X034799Y023948D03*
X043299Y023948D03*
X043299Y025128D03*
X050799Y025128D03*
X050799Y023948D03*
X058299Y023948D03*
X058299Y025128D03*
X065799Y025128D03*
X065799Y023948D03*
X050549Y038948D03*
X050549Y040128D03*
X043299Y040128D03*
X043299Y038948D03*
X035799Y038948D03*
X035799Y040128D03*
X018799Y035628D03*
X018799Y034448D03*
X010549Y034198D03*
X010549Y035378D03*
X010549Y041948D03*
X010549Y043128D03*
X018174Y042628D03*
X018174Y041448D03*
X020549Y049948D03*
X020549Y051128D03*
X027549Y050698D03*
X027549Y051878D03*
X012924Y052128D03*
X012924Y050948D03*
X019674Y027753D03*
X019674Y026573D03*
D23*
X007389Y034038D03*
X006209Y034038D03*
X006209Y034913D03*
X007389Y034913D03*
X007764Y041663D03*
X006584Y041663D03*
X036959Y045663D03*
X036959Y046538D03*
X036959Y047413D03*
X038139Y047413D03*
X038139Y046538D03*
X038139Y045663D03*
X044209Y045913D03*
X045389Y045913D03*
X045389Y046788D03*
X045389Y047663D03*
X044209Y047663D03*
X044209Y046788D03*
X051334Y047163D03*
X051334Y046288D03*
X051459Y045413D03*
X052639Y045413D03*
X052514Y046288D03*
X052514Y047163D03*
X053334Y048163D03*
X053334Y049038D03*
G36*
X052967Y049121D02*
X052551Y048705D01*
X052217Y049039D01*
X052633Y049455D01*
X052967Y049121D01*
G37*
G36*
X052132Y048287D02*
X051716Y047871D01*
X051382Y048205D01*
X051798Y048621D01*
X052132Y048287D01*
G37*
X053834Y047163D03*
X053959Y046413D03*
X055139Y046413D03*
X055014Y047163D03*
X054514Y048163D03*
X054514Y049038D03*
X064709Y047788D03*
X065889Y047788D03*
X005889Y018788D03*
X004709Y018788D03*
D24*
X007799Y017537D03*
X007799Y016789D03*
D25*
X022011Y037288D02*
X022838Y037288D01*
X022838Y038288D02*
X022011Y038288D01*
X022011Y039288D02*
X022838Y039288D01*
X022838Y040288D02*
X022011Y040288D01*
X022011Y041288D02*
X022838Y041288D01*
X022838Y042288D02*
X022011Y042288D01*
X022011Y043288D02*
X022838Y043288D01*
X022838Y044288D02*
X022011Y044288D01*
X022011Y045288D02*
X022838Y045288D01*
X022838Y046288D02*
X022011Y046288D01*
X022011Y047288D02*
X022838Y047288D01*
X022838Y048288D02*
X022011Y048288D01*
X022011Y049288D02*
X022838Y049288D01*
D26*
X023549Y052038D03*
X024549Y052038D03*
X024549Y054788D03*
X023549Y054788D03*
D27*
X006674Y024037D03*
X006674Y023289D03*
X009799Y021412D03*
X009799Y020664D03*
D28*
X009923Y019663D03*
X009175Y019663D03*
X009175Y017788D03*
X009923Y017788D03*
X006923Y020163D03*
X006175Y020163D03*
X004798Y019663D03*
X004050Y019663D03*
D29*
X038174Y012538D03*
D30*
X039674Y011538D02*
X040799Y011538D01*
X041999Y011538D01*
X042599Y011538D02*
X045049Y014363D01*
X045049Y014913D01*
X046174Y016163D01*
X050799Y016038D01*
X050999Y016988D02*
X049299Y016988D01*
X047099Y016988D01*
X046049Y018038D01*
X044799Y018038D01*
X042674Y017038D01*
X041924Y017038D01*
X041124Y016863D01*
X041424Y016038D02*
X042174Y016369D01*
X041424Y016038D02*
X037299Y016038D01*
X035099Y013088D01*
X035049Y012538D01*
X034974Y011538D01*
X034374Y011538D02*
X033174Y011538D01*
X031924Y010088D02*
X030674Y010538D01*
X027349Y011538D02*
X027349Y013713D01*
X029549Y015913D01*
X033299Y015913D01*
X034799Y017413D01*
X036049Y017413D01*
X038424Y019288D02*
X038424Y021663D01*
X039549Y023538D01*
X042889Y023538D01*
X043299Y023948D01*
X041799Y025088D02*
X040549Y025538D01*
X043049Y026538D02*
X044799Y026738D01*
X044799Y027338D02*
X044799Y028119D01*
X048049Y025538D02*
X049299Y025088D01*
X050549Y026538D02*
X052299Y026738D01*
X052299Y027338D02*
X052299Y028119D01*
X055549Y025538D02*
X056799Y025088D01*
X058049Y026538D02*
X059799Y026738D01*
X059799Y027338D02*
X059799Y028119D01*
X063049Y025538D02*
X064299Y025088D01*
X065549Y026538D02*
X067299Y026988D01*
X067299Y027588D02*
X067299Y028369D01*
X069349Y025788D02*
X070549Y025538D01*
X073049Y025338D02*
X073049Y026538D01*
X073049Y024738D02*
X073130Y023788D01*
X074469Y023788D02*
X074344Y018207D01*
X072549Y016788D01*
X071424Y015663D01*
X069961Y015663D01*
X069755Y015869D01*
X068594Y014707D01*
X065924Y014707D01*
X064299Y016119D02*
X061505Y015994D01*
X062549Y016788D02*
X061549Y018038D01*
X061499Y018088D01*
X061499Y018788D01*
X062099Y018788D02*
X063049Y018038D01*
X065549Y019038D02*
X067299Y019238D01*
X069349Y018038D02*
X070549Y018038D01*
X071962Y017576D02*
X070969Y016538D01*
X072386Y018000D02*
X073049Y019038D01*
X074469Y023788D02*
X074469Y031288D01*
X074469Y038788D01*
X074469Y047788D01*
X074469Y049288D01*
X073130Y049288D02*
X073049Y050238D01*
X073049Y050838D02*
X073049Y052038D01*
X070549Y051038D02*
X069349Y051788D01*
X068749Y051788D02*
X067299Y053238D01*
X067299Y055288D01*
X066299Y056288D01*
X060799Y056288D02*
X060799Y053538D01*
X060799Y052163D01*
X060999Y051538D01*
X061599Y051538D02*
X063049Y051038D01*
X064549Y051088D02*
X065549Y052038D01*
X064549Y050488D02*
X065299Y049957D01*
X066049Y046119D02*
X067299Y044457D01*
X067299Y041488D02*
X065549Y041538D01*
X063049Y040538D02*
X061849Y041038D01*
X059799Y042488D02*
X059049Y041788D01*
X058049Y041538D01*
X056549Y039588D02*
X055549Y040538D01*
X052299Y041988D02*
X050549Y041538D01*
X049299Y040088D02*
X048049Y040538D01*
X050549Y038948D02*
X052299Y036957D01*
X052299Y035619D02*
X052299Y034838D01*
X052299Y034238D02*
X050549Y034038D01*
X049049Y032338D02*
X048049Y033038D01*
X044799Y034238D02*
X043049Y034038D01*
X044799Y034838D02*
X044799Y035619D01*
X041799Y032338D02*
X040549Y033038D01*
X035549Y034238D02*
X033549Y034038D01*
X035549Y034838D02*
X035549Y035994D01*
X035549Y037332D02*
X035799Y038948D01*
X034299Y040088D02*
X033049Y040538D01*
X035549Y041538D02*
X037299Y041988D01*
X037299Y042588D02*
X037549Y043369D01*
X040549Y040538D02*
X041799Y040088D01*
X043049Y041538D02*
X044799Y042238D01*
X044799Y042838D02*
X044799Y043619D01*
X051755Y043663D02*
X052299Y042588D01*
X059299Y043869D02*
X059799Y043088D01*
X060049Y046288D02*
X059049Y046288D01*
X053334Y049038D02*
X052592Y049080D01*
X055023Y050761D02*
X056049Y050738D01*
X056049Y051338D02*
X055049Y052038D01*
X052549Y051038D02*
X051099Y051288D01*
X050499Y051288D02*
X050499Y055238D01*
X048749Y052038D02*
X047549Y052038D01*
X046299Y050588D02*
X045049Y051038D01*
X041249Y052288D02*
X040049Y052038D01*
X038799Y050588D02*
X037549Y051038D01*
X033749Y052038D02*
X032549Y052038D01*
X031299Y050588D02*
X030049Y051038D01*
X019849Y052038D02*
X019799Y051538D01*
X019549Y051207D01*
X019249Y052038D02*
X018049Y052038D01*
X016799Y050838D02*
X015549Y051038D01*
X011799Y048038D02*
X010917Y048854D01*
X010299Y049119D01*
X011799Y048038D02*
X012299Y047707D01*
X012299Y046369D02*
X012299Y045588D01*
X012299Y044988D02*
X010549Y044538D01*
X009299Y043088D02*
X008299Y043538D01*
X008049Y043538D01*
X012299Y038869D02*
X012299Y038088D01*
X012299Y037488D02*
X010549Y037038D01*
X009049Y035338D02*
X008049Y036038D01*
X015549Y036038D02*
X016799Y035588D01*
X018799Y034448D02*
X019799Y032707D01*
X019799Y031369D02*
X019799Y030088D01*
X019799Y029488D02*
X018049Y029538D01*
X016549Y027838D02*
X015549Y028538D01*
X012299Y029988D02*
X010549Y029538D01*
X012299Y030588D02*
X012299Y031369D01*
X009299Y028088D02*
X008049Y028538D01*
X019674Y022744D02*
X019799Y020088D01*
X019799Y019488D02*
X018049Y019038D01*
X015549Y018038D02*
X014799Y017588D01*
X011749Y011538D02*
X010549Y011538D01*
X009424Y010088D02*
X008049Y010538D01*
X015549Y010538D02*
X016799Y010088D01*
X018049Y011538D02*
X019249Y011538D01*
X023049Y010538D02*
X024299Y010088D01*
X025549Y011538D02*
X026749Y011538D01*
X035799Y010088D02*
X037174Y010538D01*
X038299Y010538D01*
X046674Y010538D02*
X048049Y010213D01*
X049174Y011538D02*
X050499Y011538D01*
X055924Y016038D02*
X057049Y016038D01*
X057099Y017038D01*
X056499Y017038D02*
X055549Y018038D01*
X053924Y018038D02*
X052049Y018038D01*
X050999Y016988D01*
X049299Y017588D02*
X048049Y018038D01*
X050549Y019038D02*
X052299Y019238D01*
X052299Y019838D02*
X052299Y020619D01*
X058049Y019038D02*
X059549Y019488D01*
X064299Y011538D02*
X065924Y011613D01*
X061799Y010538D02*
X060424Y010213D01*
X044799Y019238D02*
X043049Y019038D01*
X044799Y019838D02*
X044799Y020619D01*
X040549Y018038D02*
X039349Y017913D01*
X034389Y023538D02*
X033424Y023538D01*
X031799Y023538D01*
X031299Y025088D02*
X030049Y025538D01*
X032549Y026538D02*
X034549Y026988D01*
X034549Y027588D02*
X034549Y028369D01*
X034549Y029707D02*
X034755Y029913D01*
X036799Y029913D01*
X037424Y029288D01*
X037424Y026663D01*
X035889Y025128D01*
X034799Y025128D01*
X034799Y023948D02*
X034389Y023538D01*
X034549Y029707D02*
X034549Y031198D01*
X032299Y032338D02*
X031049Y033038D01*
X019799Y037238D02*
X018049Y037038D01*
X019799Y037838D02*
X019299Y039119D01*
X019299Y040457D02*
X018174Y041448D01*
X016549Y042588D02*
X015549Y043538D01*
X018049Y044538D02*
X019674Y044613D01*
X019674Y045213D02*
X019549Y046744D01*
X010299Y050457D02*
X009549Y050488D01*
X009549Y051088D02*
X010549Y052038D01*
X008049Y051038D02*
X006799Y050338D01*
X028049Y041538D02*
X028487Y041100D01*
X028474Y040163D01*
X055549Y033038D02*
X056549Y032338D01*
X058049Y034038D02*
X059799Y034238D01*
X059799Y034838D02*
X059799Y035619D01*
X061299Y032788D02*
X062349Y031738D01*
X064299Y031738D01*
X064299Y032338D02*
X063049Y033038D01*
X065549Y034038D02*
X067299Y034488D01*
X067299Y035088D02*
X067299Y035869D01*
X069349Y033038D02*
X070549Y033038D01*
X073049Y032838D02*
X073049Y034038D01*
X073049Y032238D02*
X073130Y031288D01*
X073130Y038788D02*
X073049Y039738D01*
X073049Y040338D02*
X073049Y041538D01*
X070549Y040538D02*
X069599Y040788D01*
D31*
X068999Y040788D02*
X068549Y040288D01*
X067049Y040288D01*
X065999Y039488D01*
X062099Y039488D01*
X061249Y040338D01*
X061249Y040788D01*
X060299Y040788D01*
X058549Y039538D01*
X057549Y039538D01*
X056999Y038988D01*
X056549Y038988D01*
X055099Y038988D01*
X053549Y040538D01*
X052299Y040538D01*
X051049Y039538D01*
X049849Y039538D01*
X049299Y039488D01*
X047099Y039488D01*
X046299Y040788D01*
X045299Y040788D01*
X043799Y039538D01*
X041849Y039538D01*
X041799Y039488D01*
X039349Y039488D01*
X038299Y040538D01*
X037549Y040538D01*
X036299Y039538D01*
X034349Y039538D01*
X034299Y039488D01*
X020724Y039488D01*
X020724Y041988D01*
X016549Y041988D01*
X016099Y041788D01*
X015049Y041788D01*
X013799Y043538D01*
X012549Y043538D01*
X011249Y042488D01*
X009299Y042488D01*
X007764Y041663D01*
X007174Y042038D02*
X006049Y043163D01*
X006049Y049113D01*
X006799Y049738D01*
X010749Y049738D01*
X011299Y050788D01*
X012299Y051538D01*
X014049Y051538D01*
X014799Y049788D01*
X016599Y049788D01*
X016799Y050238D01*
X017499Y050238D01*
X017799Y050538D01*
X021299Y050538D01*
X022049Y051288D01*
X028049Y051288D01*
X029349Y049988D01*
X031299Y049988D01*
X032249Y049988D01*
X033299Y051038D01*
X035299Y051038D01*
X036549Y049788D01*
X036549Y048788D01*
X038799Y048788D01*
X038799Y049988D01*
X039349Y050038D01*
X040799Y050038D01*
X042049Y051038D01*
X043049Y051038D01*
X044099Y049988D01*
X046299Y049988D01*
X046849Y050038D01*
X048049Y050038D01*
X050299Y051288D01*
X050499Y051288D01*
X049269Y051457D02*
X049349Y052038D01*
X049269Y051457D02*
X047549Y050707D01*
X047549Y049369D02*
X049130Y047788D01*
X048299Y047413D02*
X046924Y048663D01*
X044799Y048663D01*
X044799Y044957D01*
X045380Y044457D01*
X046049Y043788D01*
X046049Y042038D01*
X044889Y041378D01*
X043299Y040128D01*
X043299Y038948D02*
X043549Y038457D01*
X044799Y036957D01*
X045380Y036957D01*
X045799Y036538D01*
X045799Y033788D01*
X045299Y033288D01*
X044049Y033288D01*
X043299Y032538D01*
X043299Y032378D01*
X043799Y031788D02*
X044549Y032788D01*
X046299Y032788D01*
X047349Y031738D01*
X049049Y031738D01*
X049599Y031788D01*
X051049Y031788D01*
X052299Y033038D01*
X053299Y033038D01*
X054599Y031738D01*
X056549Y031738D01*
X057099Y031788D01*
X058549Y031788D01*
X059799Y032788D01*
X061299Y032788D01*
X060299Y033288D02*
X060799Y033788D01*
X060799Y036457D01*
X059799Y036957D01*
X058299Y038448D01*
X058049Y038948D01*
X058049Y040128D02*
X057549Y040288D01*
X056299Y041538D01*
X054299Y041538D01*
X053799Y042038D01*
X053799Y043288D01*
X054049Y043538D01*
X054049Y045538D01*
X054549Y046038D01*
X054549Y046538D01*
X054424Y046913D01*
X054424Y047538D01*
X053924Y047788D01*
X053924Y049413D01*
X054005Y049619D01*
X054076Y049815D01*
X052424Y048406D02*
X052549Y048038D01*
X051924Y047538D01*
X051924Y045913D01*
X052049Y045788D01*
X052049Y044788D01*
X053094Y043744D01*
X053094Y043663D01*
X053299Y043038D01*
X053299Y042038D01*
X052799Y041038D01*
X052049Y041038D01*
X051139Y040378D01*
X050549Y040128D01*
X052299Y036957D02*
X052880Y036957D01*
X053299Y036538D01*
X053299Y034038D01*
X052799Y033538D01*
X051799Y033538D01*
X050889Y032628D01*
X050549Y032378D01*
X050559Y031198D02*
X050549Y031198D01*
X050559Y031198D02*
X052299Y029457D01*
X052880Y029457D01*
X053299Y029038D01*
X053299Y026288D01*
X053049Y026038D01*
X051799Y026038D01*
X050799Y025128D01*
X051299Y024538D02*
X049849Y024538D01*
X049299Y024488D01*
X047099Y024488D01*
X046049Y025538D01*
X045049Y025538D01*
X043799Y024538D01*
X041849Y024538D01*
X041799Y024488D01*
X039599Y024488D01*
X038799Y025288D01*
X037049Y025288D01*
X036249Y024488D01*
X031299Y024488D01*
X027849Y024488D01*
X025662Y027238D01*
X016549Y027238D01*
X016349Y027038D01*
X015049Y027038D01*
X013549Y028538D01*
X012299Y028538D01*
X011249Y027488D01*
X011799Y027063D01*
X011799Y022538D01*
X010674Y021788D01*
X005799Y023038D02*
X005799Y024663D01*
X006475Y025633D01*
X006799Y026082D01*
X006799Y029288D01*
X006049Y030163D01*
X006049Y030788D01*
X006799Y033413D01*
X006799Y035538D01*
X006049Y036288D01*
X006049Y040163D01*
X007174Y041288D01*
X007174Y042038D01*
X006584Y041663D02*
X005549Y040628D01*
X005549Y035413D01*
X005049Y034913D01*
X005049Y033038D01*
X004549Y031413D01*
X004549Y029038D01*
X004924Y028538D01*
X004924Y026413D01*
X004299Y025413D01*
X004299Y022663D01*
X003549Y022663D01*
X003424Y022288D01*
X003424Y019823D01*
X004709Y018788D01*
X005299Y019913D02*
X005299Y017538D01*
X004799Y017038D01*
X004799Y016288D01*
X005174Y015913D01*
X011549Y015913D01*
X012349Y014863D01*
X012349Y011538D01*
X013299Y009488D02*
X009424Y009488D01*
X013299Y009488D02*
X013174Y014788D01*
X013174Y016288D01*
X011799Y017788D01*
X013174Y016288D02*
X013874Y016988D01*
X014799Y016988D01*
X018424Y016913D02*
X018424Y015913D01*
X019849Y014488D01*
X019849Y011538D01*
X016799Y009488D02*
X024299Y009488D01*
X031924Y009488D01*
X035799Y009488D01*
X048049Y009613D01*
X060424Y009613D01*
X065924Y012213D02*
X065924Y013369D01*
X061505Y015994D02*
X058799Y014038D01*
X052174Y014038D01*
X051224Y013088D01*
X051099Y011538D01*
X052130Y014707D02*
X057219Y014707D01*
X058299Y015788D01*
X058299Y016369D01*
X058799Y017038D02*
X057099Y017038D01*
X058299Y017707D02*
X059799Y018788D01*
X060549Y018788D01*
X060549Y021538D01*
X059049Y022707D02*
X058299Y023948D01*
X058799Y024538D02*
X059799Y025288D01*
X061049Y025288D01*
X062099Y024488D01*
X064299Y024488D01*
X065299Y024538D01*
X066549Y024538D01*
X067299Y025288D01*
X068299Y025788D01*
X067549Y026038D02*
X066709Y025788D01*
X065799Y025128D01*
X065799Y023948D02*
X066469Y022779D01*
X068228Y021529D01*
X066880Y021038D02*
X067299Y019838D01*
X068219Y018707D02*
X065969Y017707D01*
X064299Y017457D01*
X065549Y016788D02*
X068299Y018038D01*
X068749Y018038D01*
X065549Y016788D02*
X062549Y016788D01*
X061549Y018038D02*
X059799Y018038D01*
X058799Y017038D01*
X055924Y016038D02*
X053924Y018038D01*
X050799Y016038D02*
X052130Y014707D01*
X045799Y018538D02*
X044549Y018538D01*
X042174Y017707D01*
X041124Y016863D02*
X039224Y016863D01*
X038749Y017338D01*
X038749Y017913D01*
X034174Y017913D01*
X033049Y016663D01*
X027674Y016663D01*
X026674Y017413D01*
X026674Y018038D01*
X022174Y018038D01*
X021549Y018538D01*
X020674Y019038D02*
X020674Y022744D01*
X020674Y024082D02*
X024594Y024082D01*
X024594Y023538D01*
X031799Y023538D01*
X020674Y019038D02*
X018424Y016913D01*
X007799Y016789D02*
X006049Y016788D01*
X005299Y019913D02*
X004174Y020413D01*
X004174Y021744D01*
X004130Y021788D01*
X004799Y021323D02*
X004799Y025163D01*
X005299Y025913D01*
X005424Y026163D01*
X005424Y029038D01*
X005049Y029538D01*
X005049Y031288D01*
X005549Y032913D01*
X005549Y034538D01*
X005924Y034913D01*
X006209Y034913D01*
X007389Y034913D02*
X009049Y034738D01*
X010999Y034738D01*
X012299Y036038D01*
X013799Y036038D01*
X015049Y034538D01*
X016349Y034538D01*
X016799Y034988D01*
X019349Y034988D01*
X022349Y031738D01*
X032299Y031738D01*
X032349Y031788D01*
X035549Y031788D01*
X036799Y033038D01*
X038549Y033038D01*
X039849Y031738D01*
X041799Y031738D01*
X041849Y031788D01*
X043799Y031788D01*
X043299Y031198D02*
X044799Y029457D01*
X045380Y029457D01*
X046049Y028788D01*
X046049Y026538D01*
X045549Y026038D01*
X044549Y026038D01*
X043389Y025128D01*
X043299Y025128D01*
X045799Y022038D02*
X047299Y023538D01*
X050389Y023538D01*
X050799Y023948D01*
X051299Y024538D02*
X052299Y025538D01*
X053549Y025538D01*
X054599Y024488D01*
X056799Y024488D01*
X056999Y024488D01*
X057299Y024538D01*
X058799Y024538D01*
X058299Y025128D02*
X059709Y026038D01*
X060549Y026038D01*
X060799Y026288D01*
X060799Y029038D01*
X060380Y029457D01*
X059799Y029457D01*
X059049Y030207D01*
X058049Y031198D01*
X058049Y032378D02*
X058139Y032378D01*
X059299Y033288D01*
X060299Y033288D01*
X064299Y031738D02*
X065999Y031738D01*
X067549Y033038D01*
X068749Y033038D01*
X068299Y034038D02*
X067549Y033538D01*
X066959Y033538D01*
X065549Y032378D01*
X065549Y031198D02*
X066049Y030957D01*
X067299Y029707D01*
X067880Y029707D01*
X068549Y029038D01*
X068549Y027038D01*
X067549Y026038D01*
X068299Y034038D02*
X068299Y036538D01*
X067880Y036957D01*
X067299Y037207D01*
X066299Y038198D01*
X065049Y038948D01*
X065209Y040038D02*
X065549Y040038D01*
X066549Y040788D01*
X068049Y040788D01*
X068299Y041038D01*
X068299Y044038D01*
X067880Y044457D01*
X067299Y044457D01*
X066049Y046119D02*
X065299Y046871D01*
X065299Y048619D01*
X064709Y047788D02*
X063799Y047788D01*
X063049Y048538D01*
X063049Y049288D01*
X062049Y049288D02*
X062049Y048413D01*
X063424Y047288D01*
X063882Y046871D01*
X065299Y046871D01*
X065889Y047788D02*
X074469Y047788D01*
X063049Y046788D02*
X063049Y046288D01*
X063049Y046788D02*
X061799Y047788D01*
X060049Y047788D01*
X060049Y046288D01*
X061049Y046288D02*
X061049Y047198D01*
X062049Y046288D02*
X062049Y045788D01*
X061469Y045207D01*
X060799Y045207D01*
X059299Y045207D01*
X060799Y045207D02*
X060799Y042038D01*
X058049Y040128D01*
X061249Y040788D02*
X061249Y041038D01*
X053959Y046413D02*
X052639Y045413D01*
X052514Y046288D02*
X053834Y047163D01*
X053334Y048163D02*
X052514Y047163D01*
X052424Y048406D02*
X051695Y049135D01*
X055924Y046413D02*
X056049Y046288D01*
X057049Y046288D02*
X057049Y046663D01*
X058049Y046538D02*
X058049Y046288D01*
X058049Y048788D02*
X058049Y049288D01*
X057049Y049288D02*
X057049Y050038D01*
X057674Y050663D01*
X057674Y052948D01*
X057049Y053538D02*
X060799Y053538D01*
X059924Y054128D02*
X059924Y054913D01*
X057049Y057788D01*
X050799Y057788D01*
X049549Y056538D01*
X049299Y056538D01*
X048549Y057288D01*
X043799Y057288D01*
X042799Y056288D01*
X042299Y056288D01*
X041299Y057288D01*
X036049Y057288D01*
X035049Y056288D01*
X034549Y056288D01*
X033549Y057288D01*
X028299Y057288D01*
X027049Y056038D01*
X021549Y056038D01*
X020799Y056788D01*
X014799Y056788D01*
X012924Y054913D01*
X012924Y052128D01*
X012924Y050948D02*
X012709Y050948D01*
X011799Y050288D01*
X011299Y049487D01*
X010917Y048854D01*
X012299Y047707D02*
X012630Y047707D01*
X013299Y047538D01*
X013299Y044788D01*
X012799Y044288D01*
X011959Y044038D01*
X010549Y043128D01*
X010549Y041948D02*
X011540Y040707D01*
X012299Y040207D01*
X012880Y040207D01*
X013299Y039788D01*
X013299Y037038D01*
X012799Y036538D01*
X011709Y036538D01*
X010549Y035378D01*
X010549Y034198D02*
X010389Y034038D01*
X007389Y034038D01*
X006209Y034038D02*
X006209Y033198D01*
X005549Y031038D01*
X005549Y029788D01*
X006049Y029163D01*
X006049Y026038D01*
X005299Y024913D01*
X005299Y022082D01*
X005469Y021788D01*
X009299Y027488D02*
X011249Y027488D01*
X019674Y027753D02*
X019674Y028253D01*
X021049Y029003D01*
X021049Y032038D01*
X020380Y032707D01*
X019799Y032707D01*
X020639Y035628D02*
X018799Y035628D01*
X020639Y035628D02*
X020799Y035788D01*
X020799Y038663D01*
X019924Y039538D01*
X019924Y040163D01*
X019630Y040457D01*
X019299Y040457D01*
X021344Y040538D02*
X023374Y040538D01*
X023974Y040538D02*
X025549Y040538D01*
X020424Y044038D02*
X020424Y047788D01*
X020130Y048082D01*
X019549Y048082D01*
X019549Y049869D01*
X020549Y049948D01*
X020549Y051128D02*
X020549Y054538D01*
X021549Y055538D01*
X027424Y055538D01*
X028549Y056663D01*
X033549Y056663D01*
X034549Y055663D01*
X035174Y055663D01*
X036174Y056663D01*
X041049Y056663D01*
X042049Y055663D01*
X042924Y055663D01*
X044174Y056913D01*
X048174Y056913D01*
X049049Y056038D01*
X049674Y056038D01*
X050924Y057288D01*
X056549Y057288D01*
X058799Y055038D01*
X058799Y054128D01*
X057674Y054128D02*
X057674Y055163D01*
X056049Y056788D01*
X051299Y056788D01*
X050049Y055538D01*
X048799Y055538D01*
X048049Y056288D01*
X044299Y056288D01*
X043049Y055038D01*
X041799Y055038D01*
X040549Y056288D01*
X036549Y056288D01*
X035299Y055038D01*
X034299Y055038D01*
X033049Y056288D01*
X028799Y056288D01*
X027549Y055038D01*
X027549Y051878D01*
X027549Y050698D02*
X029209Y049038D01*
X032549Y049038D01*
X033924Y047663D01*
X035674Y047663D01*
X036130Y048119D01*
X037549Y048119D01*
X037549Y044707D01*
X038130Y044707D01*
X038549Y044288D01*
X038549Y041788D01*
X037799Y041288D01*
X037049Y041038D01*
X036389Y040378D01*
X035799Y040128D01*
X035549Y037332D02*
X036130Y036957D01*
X036799Y036288D01*
X036799Y034128D01*
X035049Y032378D01*
X034549Y032378D01*
X019674Y026573D02*
X019674Y024082D01*
X012299Y032707D02*
X010549Y034198D01*
X018174Y042628D02*
X019014Y042628D01*
X020424Y044038D01*
X034349Y052038D02*
X035969Y051288D01*
X037549Y049457D01*
X040049Y049305D02*
X041049Y047788D01*
X043174Y047788D01*
X044051Y048663D01*
X044799Y048663D01*
X041705Y051644D02*
X040049Y050644D01*
X041705Y051644D02*
X041849Y052288D01*
X050499Y055238D02*
X051549Y056288D01*
X055424Y056288D01*
X056424Y055288D01*
X056424Y054163D01*
X057049Y053538D01*
X058799Y052948D02*
X058799Y051288D01*
X060049Y050038D01*
X060049Y049288D01*
X059049Y049288D02*
X059049Y048788D01*
X061049Y049288D02*
X061049Y050038D01*
X059924Y051163D01*
X059924Y052948D01*
X045799Y022038D02*
X045799Y018538D01*
X016799Y009488D02*
X013299Y009488D01*
D32*
X006049Y016788D03*
D33*
X003987Y007538D03*
X010799Y007538D03*
X018299Y007538D03*
X025799Y007538D03*
X035299Y007538D03*
X044799Y007538D03*
X054299Y007538D03*
X064049Y007538D03*
X067799Y007538D03*
X071862Y007538D03*
X076799Y007538D03*
X083049Y007538D03*
X086799Y007538D03*
X096549Y007538D03*
X104049Y007538D03*
X113549Y007538D03*
X123049Y007538D03*
X132549Y007538D03*
X138862Y007538D03*
X138862Y016288D03*
X138862Y023788D03*
X138862Y031288D03*
X138862Y038788D03*
X138862Y047788D03*
X138862Y058038D03*
X128549Y058038D03*
X116049Y058038D03*
X108549Y058038D03*
X101049Y058038D03*
X092049Y058038D03*
X083049Y058038D03*
X076799Y058038D03*
X074049Y058038D03*
X071862Y058038D03*
X067799Y058038D03*
X064049Y058038D03*
X058799Y058038D03*
X049799Y058038D03*
X042299Y058038D03*
X034799Y058038D03*
X023799Y058038D03*
X012799Y058038D03*
X003987Y058038D03*
X003987Y049288D03*
X003987Y041788D03*
X003987Y034288D03*
X003987Y025288D03*
X003987Y016288D03*
D34*
X020299Y016288D03*
X035299Y016288D03*
X044424Y016288D03*
X052799Y016288D03*
X060299Y016663D03*
X067799Y016288D03*
X067799Y023788D03*
X060299Y023788D03*
X052799Y023788D03*
X045299Y023788D03*
X037799Y023788D03*
X037799Y031288D03*
X045299Y031288D03*
X052799Y031288D03*
X060299Y031288D03*
X067799Y031288D03*
X067799Y038788D03*
X060299Y038788D03*
X052799Y038788D03*
X045299Y038788D03*
X037799Y038788D03*
X034799Y049288D03*
X042299Y049288D03*
X049799Y049288D03*
X067799Y049288D03*
X067799Y046288D03*
X083049Y051038D03*
X098299Y046225D03*
X100987Y049413D03*
X105549Y046475D03*
X108549Y049350D03*
X113174Y046100D03*
X115987Y049413D03*
X121424Y045538D03*
X120549Y038788D03*
X113049Y038788D03*
X105549Y038788D03*
X098424Y038913D03*
X090549Y038788D03*
X083049Y038788D03*
X083049Y031288D03*
X090549Y031288D03*
X098424Y031288D03*
X105549Y031288D03*
X113049Y031288D03*
X120924Y031288D03*
X128049Y031288D03*
X128112Y038475D03*
X120549Y023788D03*
X113049Y023788D03*
X105487Y024288D03*
X098049Y023788D03*
X090549Y023788D03*
X083049Y023788D03*
X083049Y016288D03*
X090549Y016288D03*
X097799Y016538D03*
X105299Y016413D03*
X113424Y016288D03*
X120549Y016288D03*
X134424Y016663D03*
X012799Y026788D03*
X012799Y034288D03*
X012799Y041788D03*
X012799Y049288D03*
D35*
X038139Y047413D02*
X038514Y047163D01*
X043424Y047163D01*
X043924Y047663D01*
X044209Y047663D01*
X044209Y046788D02*
X044174Y046788D01*
X043799Y046538D01*
X038139Y046538D01*
X038549Y045913D02*
X038139Y045663D01*
X038549Y045913D02*
X044209Y045913D01*
X045389Y045913D02*
X050459Y045913D01*
X051459Y045413D01*
X051334Y046288D02*
X050834Y046538D01*
X046049Y046538D01*
X045799Y046788D01*
X045389Y046788D01*
X045389Y047663D02*
X045924Y047663D01*
X046549Y047038D01*
X051209Y047038D01*
X051334Y047163D01*
X050709Y047413D02*
X051757Y048246D01*
X051695Y049135D02*
X052299Y049788D01*
X052799Y049788D01*
X053799Y050663D01*
X054174Y050663D01*
X055174Y049663D01*
X055174Y048913D01*
X055549Y048538D01*
X057799Y048538D01*
X058049Y048788D01*
X058424Y048163D02*
X055389Y048163D01*
X054514Y049038D01*
X054514Y048163D02*
X054799Y048038D01*
X055424Y047663D01*
X056924Y047663D01*
X058049Y046538D01*
X057049Y046663D02*
X056549Y047163D01*
X055014Y047163D01*
X055139Y046413D02*
X055924Y046413D01*
X058424Y048163D02*
X059049Y048788D01*
X051695Y049135D02*
X050424Y047788D01*
X049130Y047788D01*
X048299Y047413D02*
X050709Y047413D01*
M02*
