G75*
G70*
%OFA0B0*%
%FSLAX24Y24*%
%IPPOS*%
%LPD*%
%AMOC8*
5,1,8,0,0,1.08239X$1,22.5*
%
%ADD10C,0.0079*%
%ADD11C,0.0100*%
%ADD12C,0.0051*%
%ADD13C,0.0110*%
%ADD14C,0.0000*%
D10*
X003987Y006288D02*
X071862Y006288D01*
X071930Y006290D01*
X071997Y006295D01*
X072064Y006304D01*
X072131Y006317D01*
X072196Y006334D01*
X072261Y006353D01*
X072325Y006377D01*
X072387Y006404D01*
X072448Y006434D01*
X072506Y006467D01*
X072563Y006503D01*
X072618Y006543D01*
X072671Y006585D01*
X072722Y006631D01*
X072769Y006678D01*
X072815Y006729D01*
X072857Y006782D01*
X072897Y006837D01*
X072933Y006894D01*
X072966Y006952D01*
X072996Y007013D01*
X073023Y007075D01*
X073047Y007139D01*
X073066Y007204D01*
X073083Y007269D01*
X073096Y007336D01*
X073105Y007403D01*
X073110Y007470D01*
X073112Y007538D01*
X073112Y016413D01*
X075299Y016413D01*
X075299Y058038D01*
X075549Y058038D02*
X075549Y016163D01*
X073362Y016163D01*
X073362Y007538D01*
X073364Y007470D01*
X073369Y007403D01*
X073378Y007336D01*
X073391Y007269D01*
X073408Y007204D01*
X073427Y007139D01*
X073451Y007075D01*
X073478Y007013D01*
X073508Y006952D01*
X073541Y006894D01*
X073577Y006837D01*
X073617Y006782D01*
X073659Y006729D01*
X073705Y006678D01*
X073752Y006631D01*
X073803Y006585D01*
X073856Y006543D01*
X073911Y006503D01*
X073968Y006467D01*
X074026Y006434D01*
X074087Y006404D01*
X074149Y006377D01*
X074213Y006353D01*
X074278Y006334D01*
X074343Y006317D01*
X074410Y006304D01*
X074477Y006295D01*
X074544Y006290D01*
X074612Y006288D01*
X138862Y006288D01*
X138930Y006290D01*
X138997Y006295D01*
X139064Y006304D01*
X139131Y006317D01*
X139196Y006334D01*
X139261Y006353D01*
X139325Y006377D01*
X139387Y006404D01*
X139448Y006434D01*
X139506Y006467D01*
X139563Y006503D01*
X139618Y006543D01*
X139671Y006585D01*
X139722Y006631D01*
X139769Y006678D01*
X139815Y006729D01*
X139857Y006782D01*
X139897Y006837D01*
X139933Y006894D01*
X139966Y006952D01*
X139996Y007013D01*
X140023Y007075D01*
X140047Y007139D01*
X140066Y007204D01*
X140083Y007269D01*
X140096Y007336D01*
X140105Y007403D01*
X140110Y007470D01*
X140112Y007538D01*
X140112Y058038D01*
X140110Y058106D01*
X140105Y058173D01*
X140096Y058240D01*
X140083Y058307D01*
X140066Y058372D01*
X140047Y058437D01*
X140023Y058501D01*
X139996Y058563D01*
X139966Y058624D01*
X139933Y058682D01*
X139897Y058739D01*
X139857Y058794D01*
X139815Y058847D01*
X139769Y058898D01*
X139722Y058945D01*
X139671Y058991D01*
X139618Y059033D01*
X139563Y059073D01*
X139506Y059109D01*
X139448Y059142D01*
X139387Y059172D01*
X139325Y059199D01*
X139261Y059223D01*
X139196Y059242D01*
X139131Y059259D01*
X139064Y059272D01*
X138997Y059281D01*
X138930Y059286D01*
X138862Y059288D01*
X076799Y059288D01*
X076731Y059286D01*
X076664Y059281D01*
X076597Y059272D01*
X076530Y059259D01*
X076465Y059242D01*
X076400Y059223D01*
X076336Y059199D01*
X076274Y059172D01*
X076213Y059142D01*
X076155Y059109D01*
X076098Y059073D01*
X076043Y059033D01*
X075990Y058991D01*
X075939Y058945D01*
X075892Y058898D01*
X075846Y058847D01*
X075804Y058794D01*
X075764Y058739D01*
X075728Y058682D01*
X075695Y058624D01*
X075665Y058563D01*
X075638Y058501D01*
X075614Y058437D01*
X075595Y058372D01*
X075578Y058307D01*
X075565Y058240D01*
X075556Y058173D01*
X075551Y058106D01*
X075549Y058038D01*
X075299Y058038D02*
X075297Y058106D01*
X075292Y058173D01*
X075283Y058240D01*
X075270Y058307D01*
X075253Y058372D01*
X075234Y058437D01*
X075210Y058501D01*
X075183Y058563D01*
X075153Y058624D01*
X075120Y058682D01*
X075084Y058739D01*
X075044Y058794D01*
X075002Y058847D01*
X074956Y058898D01*
X074909Y058945D01*
X074858Y058991D01*
X074805Y059033D01*
X074750Y059073D01*
X074693Y059109D01*
X074635Y059142D01*
X074574Y059172D01*
X074512Y059199D01*
X074448Y059223D01*
X074383Y059242D01*
X074318Y059259D01*
X074251Y059272D01*
X074184Y059281D01*
X074117Y059286D01*
X074049Y059288D01*
X003987Y059288D01*
X003919Y059286D01*
X003852Y059281D01*
X003785Y059272D01*
X003718Y059259D01*
X003653Y059242D01*
X003588Y059223D01*
X003524Y059199D01*
X003462Y059172D01*
X003401Y059142D01*
X003343Y059109D01*
X003286Y059073D01*
X003231Y059033D01*
X003178Y058991D01*
X003127Y058945D01*
X003080Y058898D01*
X003034Y058847D01*
X002992Y058794D01*
X002952Y058739D01*
X002916Y058682D01*
X002883Y058624D01*
X002853Y058563D01*
X002826Y058501D01*
X002802Y058437D01*
X002783Y058372D01*
X002766Y058307D01*
X002753Y058240D01*
X002744Y058173D01*
X002739Y058106D01*
X002737Y058038D01*
X002737Y007538D01*
X002739Y007470D01*
X002744Y007403D01*
X002753Y007336D01*
X002766Y007269D01*
X002783Y007204D01*
X002802Y007139D01*
X002826Y007075D01*
X002853Y007013D01*
X002883Y006952D01*
X002916Y006894D01*
X002952Y006837D01*
X002992Y006782D01*
X003034Y006729D01*
X003080Y006678D01*
X003127Y006631D01*
X003178Y006585D01*
X003231Y006543D01*
X003286Y006503D01*
X003343Y006467D01*
X003401Y006434D01*
X003462Y006404D01*
X003524Y006377D01*
X003588Y006353D01*
X003653Y006334D01*
X003718Y006317D01*
X003785Y006304D01*
X003852Y006295D01*
X003919Y006290D01*
X003987Y006288D01*
X079237Y022475D02*
X079237Y022850D01*
D11*
X082458Y023788D02*
X082460Y023836D01*
X082466Y023884D01*
X082476Y023931D01*
X082489Y023977D01*
X082507Y024022D01*
X082527Y024066D01*
X082552Y024108D01*
X082580Y024147D01*
X082610Y024184D01*
X082644Y024218D01*
X082681Y024250D01*
X082719Y024279D01*
X082760Y024304D01*
X082803Y024326D01*
X082848Y024344D01*
X082894Y024358D01*
X082941Y024369D01*
X082989Y024376D01*
X083037Y024379D01*
X083085Y024378D01*
X083133Y024373D01*
X083181Y024364D01*
X083227Y024352D01*
X083272Y024335D01*
X083316Y024315D01*
X083358Y024292D01*
X083398Y024265D01*
X083436Y024235D01*
X083471Y024202D01*
X083503Y024166D01*
X083533Y024128D01*
X083559Y024087D01*
X083581Y024044D01*
X083601Y024000D01*
X083616Y023955D01*
X083628Y023908D01*
X083636Y023860D01*
X083640Y023812D01*
X083640Y023764D01*
X083636Y023716D01*
X083628Y023668D01*
X083616Y023621D01*
X083601Y023576D01*
X083581Y023532D01*
X083559Y023489D01*
X083533Y023448D01*
X083503Y023410D01*
X083471Y023374D01*
X083436Y023341D01*
X083398Y023311D01*
X083358Y023284D01*
X083316Y023261D01*
X083272Y023241D01*
X083227Y023224D01*
X083181Y023212D01*
X083133Y023203D01*
X083085Y023198D01*
X083037Y023197D01*
X082989Y023200D01*
X082941Y023207D01*
X082894Y023218D01*
X082848Y023232D01*
X082803Y023250D01*
X082760Y023272D01*
X082719Y023297D01*
X082681Y023326D01*
X082644Y023358D01*
X082610Y023392D01*
X082580Y023429D01*
X082552Y023468D01*
X082527Y023510D01*
X082507Y023554D01*
X082489Y023599D01*
X082476Y023645D01*
X082466Y023692D01*
X082460Y023740D01*
X082458Y023788D01*
X089565Y023788D02*
X089567Y023850D01*
X089573Y023913D01*
X089583Y023974D01*
X089597Y024035D01*
X089614Y024095D01*
X089635Y024154D01*
X089661Y024211D01*
X089689Y024266D01*
X089721Y024320D01*
X089757Y024371D01*
X089795Y024421D01*
X089837Y024467D01*
X089881Y024511D01*
X089929Y024552D01*
X089978Y024590D01*
X090030Y024624D01*
X090084Y024655D01*
X090140Y024683D01*
X090198Y024707D01*
X090257Y024728D01*
X090317Y024744D01*
X090378Y024757D01*
X090440Y024766D01*
X090502Y024771D01*
X090565Y024772D01*
X090627Y024769D01*
X090689Y024762D01*
X090751Y024751D01*
X090811Y024736D01*
X090871Y024718D01*
X090929Y024696D01*
X090986Y024670D01*
X091041Y024640D01*
X091094Y024607D01*
X091145Y024571D01*
X091193Y024532D01*
X091239Y024489D01*
X091282Y024444D01*
X091322Y024396D01*
X091359Y024346D01*
X091393Y024293D01*
X091424Y024239D01*
X091450Y024183D01*
X091474Y024125D01*
X091493Y024065D01*
X091509Y024005D01*
X091521Y023943D01*
X091529Y023882D01*
X091533Y023819D01*
X091533Y023757D01*
X091529Y023694D01*
X091521Y023633D01*
X091509Y023571D01*
X091493Y023511D01*
X091474Y023451D01*
X091450Y023393D01*
X091424Y023337D01*
X091393Y023283D01*
X091359Y023230D01*
X091322Y023180D01*
X091282Y023132D01*
X091239Y023087D01*
X091193Y023044D01*
X091145Y023005D01*
X091094Y022969D01*
X091041Y022936D01*
X090986Y022906D01*
X090929Y022880D01*
X090871Y022858D01*
X090811Y022840D01*
X090751Y022825D01*
X090689Y022814D01*
X090627Y022807D01*
X090565Y022804D01*
X090502Y022805D01*
X090440Y022810D01*
X090378Y022819D01*
X090317Y022832D01*
X090257Y022848D01*
X090198Y022869D01*
X090140Y022893D01*
X090084Y022921D01*
X090030Y022952D01*
X089978Y022986D01*
X089929Y023024D01*
X089881Y023065D01*
X089837Y023109D01*
X089795Y023155D01*
X089757Y023205D01*
X089721Y023256D01*
X089689Y023310D01*
X089661Y023365D01*
X089635Y023422D01*
X089614Y023481D01*
X089597Y023541D01*
X089583Y023602D01*
X089573Y023663D01*
X089567Y023726D01*
X089565Y023788D01*
X097065Y023788D02*
X097067Y023850D01*
X097073Y023913D01*
X097083Y023974D01*
X097097Y024035D01*
X097114Y024095D01*
X097135Y024154D01*
X097161Y024211D01*
X097189Y024266D01*
X097221Y024320D01*
X097257Y024371D01*
X097295Y024421D01*
X097337Y024467D01*
X097381Y024511D01*
X097429Y024552D01*
X097478Y024590D01*
X097530Y024624D01*
X097584Y024655D01*
X097640Y024683D01*
X097698Y024707D01*
X097757Y024728D01*
X097817Y024744D01*
X097878Y024757D01*
X097940Y024766D01*
X098002Y024771D01*
X098065Y024772D01*
X098127Y024769D01*
X098189Y024762D01*
X098251Y024751D01*
X098311Y024736D01*
X098371Y024718D01*
X098429Y024696D01*
X098486Y024670D01*
X098541Y024640D01*
X098594Y024607D01*
X098645Y024571D01*
X098693Y024532D01*
X098739Y024489D01*
X098782Y024444D01*
X098822Y024396D01*
X098859Y024346D01*
X098893Y024293D01*
X098924Y024239D01*
X098950Y024183D01*
X098974Y024125D01*
X098993Y024065D01*
X099009Y024005D01*
X099021Y023943D01*
X099029Y023882D01*
X099033Y023819D01*
X099033Y023757D01*
X099029Y023694D01*
X099021Y023633D01*
X099009Y023571D01*
X098993Y023511D01*
X098974Y023451D01*
X098950Y023393D01*
X098924Y023337D01*
X098893Y023283D01*
X098859Y023230D01*
X098822Y023180D01*
X098782Y023132D01*
X098739Y023087D01*
X098693Y023044D01*
X098645Y023005D01*
X098594Y022969D01*
X098541Y022936D01*
X098486Y022906D01*
X098429Y022880D01*
X098371Y022858D01*
X098311Y022840D01*
X098251Y022825D01*
X098189Y022814D01*
X098127Y022807D01*
X098065Y022804D01*
X098002Y022805D01*
X097940Y022810D01*
X097878Y022819D01*
X097817Y022832D01*
X097757Y022848D01*
X097698Y022869D01*
X097640Y022893D01*
X097584Y022921D01*
X097530Y022952D01*
X097478Y022986D01*
X097429Y023024D01*
X097381Y023065D01*
X097337Y023109D01*
X097295Y023155D01*
X097257Y023205D01*
X097221Y023256D01*
X097189Y023310D01*
X097161Y023365D01*
X097135Y023422D01*
X097114Y023481D01*
X097097Y023541D01*
X097083Y023602D01*
X097073Y023663D01*
X097067Y023726D01*
X097065Y023788D01*
X104503Y024288D02*
X104505Y024350D01*
X104511Y024413D01*
X104521Y024474D01*
X104535Y024535D01*
X104552Y024595D01*
X104573Y024654D01*
X104599Y024711D01*
X104627Y024766D01*
X104659Y024820D01*
X104695Y024871D01*
X104733Y024921D01*
X104775Y024967D01*
X104819Y025011D01*
X104867Y025052D01*
X104916Y025090D01*
X104968Y025124D01*
X105022Y025155D01*
X105078Y025183D01*
X105136Y025207D01*
X105195Y025228D01*
X105255Y025244D01*
X105316Y025257D01*
X105378Y025266D01*
X105440Y025271D01*
X105503Y025272D01*
X105565Y025269D01*
X105627Y025262D01*
X105689Y025251D01*
X105749Y025236D01*
X105809Y025218D01*
X105867Y025196D01*
X105924Y025170D01*
X105979Y025140D01*
X106032Y025107D01*
X106083Y025071D01*
X106131Y025032D01*
X106177Y024989D01*
X106220Y024944D01*
X106260Y024896D01*
X106297Y024846D01*
X106331Y024793D01*
X106362Y024739D01*
X106388Y024683D01*
X106412Y024625D01*
X106431Y024565D01*
X106447Y024505D01*
X106459Y024443D01*
X106467Y024382D01*
X106471Y024319D01*
X106471Y024257D01*
X106467Y024194D01*
X106459Y024133D01*
X106447Y024071D01*
X106431Y024011D01*
X106412Y023951D01*
X106388Y023893D01*
X106362Y023837D01*
X106331Y023783D01*
X106297Y023730D01*
X106260Y023680D01*
X106220Y023632D01*
X106177Y023587D01*
X106131Y023544D01*
X106083Y023505D01*
X106032Y023469D01*
X105979Y023436D01*
X105924Y023406D01*
X105867Y023380D01*
X105809Y023358D01*
X105749Y023340D01*
X105689Y023325D01*
X105627Y023314D01*
X105565Y023307D01*
X105503Y023304D01*
X105440Y023305D01*
X105378Y023310D01*
X105316Y023319D01*
X105255Y023332D01*
X105195Y023348D01*
X105136Y023369D01*
X105078Y023393D01*
X105022Y023421D01*
X104968Y023452D01*
X104916Y023486D01*
X104867Y023524D01*
X104819Y023565D01*
X104775Y023609D01*
X104733Y023655D01*
X104695Y023705D01*
X104659Y023756D01*
X104627Y023810D01*
X104599Y023865D01*
X104573Y023922D01*
X104552Y023981D01*
X104535Y024041D01*
X104521Y024102D01*
X104511Y024163D01*
X104505Y024226D01*
X104503Y024288D01*
X112065Y023788D02*
X112067Y023850D01*
X112073Y023913D01*
X112083Y023974D01*
X112097Y024035D01*
X112114Y024095D01*
X112135Y024154D01*
X112161Y024211D01*
X112189Y024266D01*
X112221Y024320D01*
X112257Y024371D01*
X112295Y024421D01*
X112337Y024467D01*
X112381Y024511D01*
X112429Y024552D01*
X112478Y024590D01*
X112530Y024624D01*
X112584Y024655D01*
X112640Y024683D01*
X112698Y024707D01*
X112757Y024728D01*
X112817Y024744D01*
X112878Y024757D01*
X112940Y024766D01*
X113002Y024771D01*
X113065Y024772D01*
X113127Y024769D01*
X113189Y024762D01*
X113251Y024751D01*
X113311Y024736D01*
X113371Y024718D01*
X113429Y024696D01*
X113486Y024670D01*
X113541Y024640D01*
X113594Y024607D01*
X113645Y024571D01*
X113693Y024532D01*
X113739Y024489D01*
X113782Y024444D01*
X113822Y024396D01*
X113859Y024346D01*
X113893Y024293D01*
X113924Y024239D01*
X113950Y024183D01*
X113974Y024125D01*
X113993Y024065D01*
X114009Y024005D01*
X114021Y023943D01*
X114029Y023882D01*
X114033Y023819D01*
X114033Y023757D01*
X114029Y023694D01*
X114021Y023633D01*
X114009Y023571D01*
X113993Y023511D01*
X113974Y023451D01*
X113950Y023393D01*
X113924Y023337D01*
X113893Y023283D01*
X113859Y023230D01*
X113822Y023180D01*
X113782Y023132D01*
X113739Y023087D01*
X113693Y023044D01*
X113645Y023005D01*
X113594Y022969D01*
X113541Y022936D01*
X113486Y022906D01*
X113429Y022880D01*
X113371Y022858D01*
X113311Y022840D01*
X113251Y022825D01*
X113189Y022814D01*
X113127Y022807D01*
X113065Y022804D01*
X113002Y022805D01*
X112940Y022810D01*
X112878Y022819D01*
X112817Y022832D01*
X112757Y022848D01*
X112698Y022869D01*
X112640Y022893D01*
X112584Y022921D01*
X112530Y022952D01*
X112478Y022986D01*
X112429Y023024D01*
X112381Y023065D01*
X112337Y023109D01*
X112295Y023155D01*
X112257Y023205D01*
X112221Y023256D01*
X112189Y023310D01*
X112161Y023365D01*
X112135Y023422D01*
X112114Y023481D01*
X112097Y023541D01*
X112083Y023602D01*
X112073Y023663D01*
X112067Y023726D01*
X112065Y023788D01*
X119565Y023788D02*
X119567Y023850D01*
X119573Y023913D01*
X119583Y023974D01*
X119597Y024035D01*
X119614Y024095D01*
X119635Y024154D01*
X119661Y024211D01*
X119689Y024266D01*
X119721Y024320D01*
X119757Y024371D01*
X119795Y024421D01*
X119837Y024467D01*
X119881Y024511D01*
X119929Y024552D01*
X119978Y024590D01*
X120030Y024624D01*
X120084Y024655D01*
X120140Y024683D01*
X120198Y024707D01*
X120257Y024728D01*
X120317Y024744D01*
X120378Y024757D01*
X120440Y024766D01*
X120502Y024771D01*
X120565Y024772D01*
X120627Y024769D01*
X120689Y024762D01*
X120751Y024751D01*
X120811Y024736D01*
X120871Y024718D01*
X120929Y024696D01*
X120986Y024670D01*
X121041Y024640D01*
X121094Y024607D01*
X121145Y024571D01*
X121193Y024532D01*
X121239Y024489D01*
X121282Y024444D01*
X121322Y024396D01*
X121359Y024346D01*
X121393Y024293D01*
X121424Y024239D01*
X121450Y024183D01*
X121474Y024125D01*
X121493Y024065D01*
X121509Y024005D01*
X121521Y023943D01*
X121529Y023882D01*
X121533Y023819D01*
X121533Y023757D01*
X121529Y023694D01*
X121521Y023633D01*
X121509Y023571D01*
X121493Y023511D01*
X121474Y023451D01*
X121450Y023393D01*
X121424Y023337D01*
X121393Y023283D01*
X121359Y023230D01*
X121322Y023180D01*
X121282Y023132D01*
X121239Y023087D01*
X121193Y023044D01*
X121145Y023005D01*
X121094Y022969D01*
X121041Y022936D01*
X120986Y022906D01*
X120929Y022880D01*
X120871Y022858D01*
X120811Y022840D01*
X120751Y022825D01*
X120689Y022814D01*
X120627Y022807D01*
X120565Y022804D01*
X120502Y022805D01*
X120440Y022810D01*
X120378Y022819D01*
X120317Y022832D01*
X120257Y022848D01*
X120198Y022869D01*
X120140Y022893D01*
X120084Y022921D01*
X120030Y022952D01*
X119978Y022986D01*
X119929Y023024D01*
X119881Y023065D01*
X119837Y023109D01*
X119795Y023155D01*
X119757Y023205D01*
X119721Y023256D01*
X119689Y023310D01*
X119661Y023365D01*
X119635Y023422D01*
X119614Y023481D01*
X119597Y023541D01*
X119583Y023602D01*
X119573Y023663D01*
X119567Y023726D01*
X119565Y023788D01*
X119940Y031288D02*
X119942Y031350D01*
X119948Y031413D01*
X119958Y031474D01*
X119972Y031535D01*
X119989Y031595D01*
X120010Y031654D01*
X120036Y031711D01*
X120064Y031766D01*
X120096Y031820D01*
X120132Y031871D01*
X120170Y031921D01*
X120212Y031967D01*
X120256Y032011D01*
X120304Y032052D01*
X120353Y032090D01*
X120405Y032124D01*
X120459Y032155D01*
X120515Y032183D01*
X120573Y032207D01*
X120632Y032228D01*
X120692Y032244D01*
X120753Y032257D01*
X120815Y032266D01*
X120877Y032271D01*
X120940Y032272D01*
X121002Y032269D01*
X121064Y032262D01*
X121126Y032251D01*
X121186Y032236D01*
X121246Y032218D01*
X121304Y032196D01*
X121361Y032170D01*
X121416Y032140D01*
X121469Y032107D01*
X121520Y032071D01*
X121568Y032032D01*
X121614Y031989D01*
X121657Y031944D01*
X121697Y031896D01*
X121734Y031846D01*
X121768Y031793D01*
X121799Y031739D01*
X121825Y031683D01*
X121849Y031625D01*
X121868Y031565D01*
X121884Y031505D01*
X121896Y031443D01*
X121904Y031382D01*
X121908Y031319D01*
X121908Y031257D01*
X121904Y031194D01*
X121896Y031133D01*
X121884Y031071D01*
X121868Y031011D01*
X121849Y030951D01*
X121825Y030893D01*
X121799Y030837D01*
X121768Y030783D01*
X121734Y030730D01*
X121697Y030680D01*
X121657Y030632D01*
X121614Y030587D01*
X121568Y030544D01*
X121520Y030505D01*
X121469Y030469D01*
X121416Y030436D01*
X121361Y030406D01*
X121304Y030380D01*
X121246Y030358D01*
X121186Y030340D01*
X121126Y030325D01*
X121064Y030314D01*
X121002Y030307D01*
X120940Y030304D01*
X120877Y030305D01*
X120815Y030310D01*
X120753Y030319D01*
X120692Y030332D01*
X120632Y030348D01*
X120573Y030369D01*
X120515Y030393D01*
X120459Y030421D01*
X120405Y030452D01*
X120353Y030486D01*
X120304Y030524D01*
X120256Y030565D01*
X120212Y030609D01*
X120170Y030655D01*
X120132Y030705D01*
X120096Y030756D01*
X120064Y030810D01*
X120036Y030865D01*
X120010Y030922D01*
X119989Y030981D01*
X119972Y031041D01*
X119958Y031102D01*
X119948Y031163D01*
X119942Y031226D01*
X119940Y031288D01*
X112065Y031288D02*
X112067Y031350D01*
X112073Y031413D01*
X112083Y031474D01*
X112097Y031535D01*
X112114Y031595D01*
X112135Y031654D01*
X112161Y031711D01*
X112189Y031766D01*
X112221Y031820D01*
X112257Y031871D01*
X112295Y031921D01*
X112337Y031967D01*
X112381Y032011D01*
X112429Y032052D01*
X112478Y032090D01*
X112530Y032124D01*
X112584Y032155D01*
X112640Y032183D01*
X112698Y032207D01*
X112757Y032228D01*
X112817Y032244D01*
X112878Y032257D01*
X112940Y032266D01*
X113002Y032271D01*
X113065Y032272D01*
X113127Y032269D01*
X113189Y032262D01*
X113251Y032251D01*
X113311Y032236D01*
X113371Y032218D01*
X113429Y032196D01*
X113486Y032170D01*
X113541Y032140D01*
X113594Y032107D01*
X113645Y032071D01*
X113693Y032032D01*
X113739Y031989D01*
X113782Y031944D01*
X113822Y031896D01*
X113859Y031846D01*
X113893Y031793D01*
X113924Y031739D01*
X113950Y031683D01*
X113974Y031625D01*
X113993Y031565D01*
X114009Y031505D01*
X114021Y031443D01*
X114029Y031382D01*
X114033Y031319D01*
X114033Y031257D01*
X114029Y031194D01*
X114021Y031133D01*
X114009Y031071D01*
X113993Y031011D01*
X113974Y030951D01*
X113950Y030893D01*
X113924Y030837D01*
X113893Y030783D01*
X113859Y030730D01*
X113822Y030680D01*
X113782Y030632D01*
X113739Y030587D01*
X113693Y030544D01*
X113645Y030505D01*
X113594Y030469D01*
X113541Y030436D01*
X113486Y030406D01*
X113429Y030380D01*
X113371Y030358D01*
X113311Y030340D01*
X113251Y030325D01*
X113189Y030314D01*
X113127Y030307D01*
X113065Y030304D01*
X113002Y030305D01*
X112940Y030310D01*
X112878Y030319D01*
X112817Y030332D01*
X112757Y030348D01*
X112698Y030369D01*
X112640Y030393D01*
X112584Y030421D01*
X112530Y030452D01*
X112478Y030486D01*
X112429Y030524D01*
X112381Y030565D01*
X112337Y030609D01*
X112295Y030655D01*
X112257Y030705D01*
X112221Y030756D01*
X112189Y030810D01*
X112161Y030865D01*
X112135Y030922D01*
X112114Y030981D01*
X112097Y031041D01*
X112083Y031102D01*
X112073Y031163D01*
X112067Y031226D01*
X112065Y031288D01*
X104565Y031288D02*
X104567Y031350D01*
X104573Y031413D01*
X104583Y031474D01*
X104597Y031535D01*
X104614Y031595D01*
X104635Y031654D01*
X104661Y031711D01*
X104689Y031766D01*
X104721Y031820D01*
X104757Y031871D01*
X104795Y031921D01*
X104837Y031967D01*
X104881Y032011D01*
X104929Y032052D01*
X104978Y032090D01*
X105030Y032124D01*
X105084Y032155D01*
X105140Y032183D01*
X105198Y032207D01*
X105257Y032228D01*
X105317Y032244D01*
X105378Y032257D01*
X105440Y032266D01*
X105502Y032271D01*
X105565Y032272D01*
X105627Y032269D01*
X105689Y032262D01*
X105751Y032251D01*
X105811Y032236D01*
X105871Y032218D01*
X105929Y032196D01*
X105986Y032170D01*
X106041Y032140D01*
X106094Y032107D01*
X106145Y032071D01*
X106193Y032032D01*
X106239Y031989D01*
X106282Y031944D01*
X106322Y031896D01*
X106359Y031846D01*
X106393Y031793D01*
X106424Y031739D01*
X106450Y031683D01*
X106474Y031625D01*
X106493Y031565D01*
X106509Y031505D01*
X106521Y031443D01*
X106529Y031382D01*
X106533Y031319D01*
X106533Y031257D01*
X106529Y031194D01*
X106521Y031133D01*
X106509Y031071D01*
X106493Y031011D01*
X106474Y030951D01*
X106450Y030893D01*
X106424Y030837D01*
X106393Y030783D01*
X106359Y030730D01*
X106322Y030680D01*
X106282Y030632D01*
X106239Y030587D01*
X106193Y030544D01*
X106145Y030505D01*
X106094Y030469D01*
X106041Y030436D01*
X105986Y030406D01*
X105929Y030380D01*
X105871Y030358D01*
X105811Y030340D01*
X105751Y030325D01*
X105689Y030314D01*
X105627Y030307D01*
X105565Y030304D01*
X105502Y030305D01*
X105440Y030310D01*
X105378Y030319D01*
X105317Y030332D01*
X105257Y030348D01*
X105198Y030369D01*
X105140Y030393D01*
X105084Y030421D01*
X105030Y030452D01*
X104978Y030486D01*
X104929Y030524D01*
X104881Y030565D01*
X104837Y030609D01*
X104795Y030655D01*
X104757Y030705D01*
X104721Y030756D01*
X104689Y030810D01*
X104661Y030865D01*
X104635Y030922D01*
X104614Y030981D01*
X104597Y031041D01*
X104583Y031102D01*
X104573Y031163D01*
X104567Y031226D01*
X104565Y031288D01*
X097440Y031288D02*
X097442Y031350D01*
X097448Y031413D01*
X097458Y031474D01*
X097472Y031535D01*
X097489Y031595D01*
X097510Y031654D01*
X097536Y031711D01*
X097564Y031766D01*
X097596Y031820D01*
X097632Y031871D01*
X097670Y031921D01*
X097712Y031967D01*
X097756Y032011D01*
X097804Y032052D01*
X097853Y032090D01*
X097905Y032124D01*
X097959Y032155D01*
X098015Y032183D01*
X098073Y032207D01*
X098132Y032228D01*
X098192Y032244D01*
X098253Y032257D01*
X098315Y032266D01*
X098377Y032271D01*
X098440Y032272D01*
X098502Y032269D01*
X098564Y032262D01*
X098626Y032251D01*
X098686Y032236D01*
X098746Y032218D01*
X098804Y032196D01*
X098861Y032170D01*
X098916Y032140D01*
X098969Y032107D01*
X099020Y032071D01*
X099068Y032032D01*
X099114Y031989D01*
X099157Y031944D01*
X099197Y031896D01*
X099234Y031846D01*
X099268Y031793D01*
X099299Y031739D01*
X099325Y031683D01*
X099349Y031625D01*
X099368Y031565D01*
X099384Y031505D01*
X099396Y031443D01*
X099404Y031382D01*
X099408Y031319D01*
X099408Y031257D01*
X099404Y031194D01*
X099396Y031133D01*
X099384Y031071D01*
X099368Y031011D01*
X099349Y030951D01*
X099325Y030893D01*
X099299Y030837D01*
X099268Y030783D01*
X099234Y030730D01*
X099197Y030680D01*
X099157Y030632D01*
X099114Y030587D01*
X099068Y030544D01*
X099020Y030505D01*
X098969Y030469D01*
X098916Y030436D01*
X098861Y030406D01*
X098804Y030380D01*
X098746Y030358D01*
X098686Y030340D01*
X098626Y030325D01*
X098564Y030314D01*
X098502Y030307D01*
X098440Y030304D01*
X098377Y030305D01*
X098315Y030310D01*
X098253Y030319D01*
X098192Y030332D01*
X098132Y030348D01*
X098073Y030369D01*
X098015Y030393D01*
X097959Y030421D01*
X097905Y030452D01*
X097853Y030486D01*
X097804Y030524D01*
X097756Y030565D01*
X097712Y030609D01*
X097670Y030655D01*
X097632Y030705D01*
X097596Y030756D01*
X097564Y030810D01*
X097536Y030865D01*
X097510Y030922D01*
X097489Y030981D01*
X097472Y031041D01*
X097458Y031102D01*
X097448Y031163D01*
X097442Y031226D01*
X097440Y031288D01*
X089565Y031288D02*
X089567Y031350D01*
X089573Y031413D01*
X089583Y031474D01*
X089597Y031535D01*
X089614Y031595D01*
X089635Y031654D01*
X089661Y031711D01*
X089689Y031766D01*
X089721Y031820D01*
X089757Y031871D01*
X089795Y031921D01*
X089837Y031967D01*
X089881Y032011D01*
X089929Y032052D01*
X089978Y032090D01*
X090030Y032124D01*
X090084Y032155D01*
X090140Y032183D01*
X090198Y032207D01*
X090257Y032228D01*
X090317Y032244D01*
X090378Y032257D01*
X090440Y032266D01*
X090502Y032271D01*
X090565Y032272D01*
X090627Y032269D01*
X090689Y032262D01*
X090751Y032251D01*
X090811Y032236D01*
X090871Y032218D01*
X090929Y032196D01*
X090986Y032170D01*
X091041Y032140D01*
X091094Y032107D01*
X091145Y032071D01*
X091193Y032032D01*
X091239Y031989D01*
X091282Y031944D01*
X091322Y031896D01*
X091359Y031846D01*
X091393Y031793D01*
X091424Y031739D01*
X091450Y031683D01*
X091474Y031625D01*
X091493Y031565D01*
X091509Y031505D01*
X091521Y031443D01*
X091529Y031382D01*
X091533Y031319D01*
X091533Y031257D01*
X091529Y031194D01*
X091521Y031133D01*
X091509Y031071D01*
X091493Y031011D01*
X091474Y030951D01*
X091450Y030893D01*
X091424Y030837D01*
X091393Y030783D01*
X091359Y030730D01*
X091322Y030680D01*
X091282Y030632D01*
X091239Y030587D01*
X091193Y030544D01*
X091145Y030505D01*
X091094Y030469D01*
X091041Y030436D01*
X090986Y030406D01*
X090929Y030380D01*
X090871Y030358D01*
X090811Y030340D01*
X090751Y030325D01*
X090689Y030314D01*
X090627Y030307D01*
X090565Y030304D01*
X090502Y030305D01*
X090440Y030310D01*
X090378Y030319D01*
X090317Y030332D01*
X090257Y030348D01*
X090198Y030369D01*
X090140Y030393D01*
X090084Y030421D01*
X090030Y030452D01*
X089978Y030486D01*
X089929Y030524D01*
X089881Y030565D01*
X089837Y030609D01*
X089795Y030655D01*
X089757Y030705D01*
X089721Y030756D01*
X089689Y030810D01*
X089661Y030865D01*
X089635Y030922D01*
X089614Y030981D01*
X089597Y031041D01*
X089583Y031102D01*
X089573Y031163D01*
X089567Y031226D01*
X089565Y031288D01*
X082458Y031288D02*
X082460Y031336D01*
X082466Y031384D01*
X082476Y031431D01*
X082489Y031477D01*
X082507Y031522D01*
X082527Y031566D01*
X082552Y031608D01*
X082580Y031647D01*
X082610Y031684D01*
X082644Y031718D01*
X082681Y031750D01*
X082719Y031779D01*
X082760Y031804D01*
X082803Y031826D01*
X082848Y031844D01*
X082894Y031858D01*
X082941Y031869D01*
X082989Y031876D01*
X083037Y031879D01*
X083085Y031878D01*
X083133Y031873D01*
X083181Y031864D01*
X083227Y031852D01*
X083272Y031835D01*
X083316Y031815D01*
X083358Y031792D01*
X083398Y031765D01*
X083436Y031735D01*
X083471Y031702D01*
X083503Y031666D01*
X083533Y031628D01*
X083559Y031587D01*
X083581Y031544D01*
X083601Y031500D01*
X083616Y031455D01*
X083628Y031408D01*
X083636Y031360D01*
X083640Y031312D01*
X083640Y031264D01*
X083636Y031216D01*
X083628Y031168D01*
X083616Y031121D01*
X083601Y031076D01*
X083581Y031032D01*
X083559Y030989D01*
X083533Y030948D01*
X083503Y030910D01*
X083471Y030874D01*
X083436Y030841D01*
X083398Y030811D01*
X083358Y030784D01*
X083316Y030761D01*
X083272Y030741D01*
X083227Y030724D01*
X083181Y030712D01*
X083133Y030703D01*
X083085Y030698D01*
X083037Y030697D01*
X082989Y030700D01*
X082941Y030707D01*
X082894Y030718D01*
X082848Y030732D01*
X082803Y030750D01*
X082760Y030772D01*
X082719Y030797D01*
X082681Y030826D01*
X082644Y030858D01*
X082610Y030892D01*
X082580Y030929D01*
X082552Y030968D01*
X082527Y031010D01*
X082507Y031054D01*
X082489Y031099D01*
X082476Y031145D01*
X082466Y031192D01*
X082460Y031240D01*
X082458Y031288D01*
X082458Y038788D02*
X082460Y038836D01*
X082466Y038884D01*
X082476Y038931D01*
X082489Y038977D01*
X082507Y039022D01*
X082527Y039066D01*
X082552Y039108D01*
X082580Y039147D01*
X082610Y039184D01*
X082644Y039218D01*
X082681Y039250D01*
X082719Y039279D01*
X082760Y039304D01*
X082803Y039326D01*
X082848Y039344D01*
X082894Y039358D01*
X082941Y039369D01*
X082989Y039376D01*
X083037Y039379D01*
X083085Y039378D01*
X083133Y039373D01*
X083181Y039364D01*
X083227Y039352D01*
X083272Y039335D01*
X083316Y039315D01*
X083358Y039292D01*
X083398Y039265D01*
X083436Y039235D01*
X083471Y039202D01*
X083503Y039166D01*
X083533Y039128D01*
X083559Y039087D01*
X083581Y039044D01*
X083601Y039000D01*
X083616Y038955D01*
X083628Y038908D01*
X083636Y038860D01*
X083640Y038812D01*
X083640Y038764D01*
X083636Y038716D01*
X083628Y038668D01*
X083616Y038621D01*
X083601Y038576D01*
X083581Y038532D01*
X083559Y038489D01*
X083533Y038448D01*
X083503Y038410D01*
X083471Y038374D01*
X083436Y038341D01*
X083398Y038311D01*
X083358Y038284D01*
X083316Y038261D01*
X083272Y038241D01*
X083227Y038224D01*
X083181Y038212D01*
X083133Y038203D01*
X083085Y038198D01*
X083037Y038197D01*
X082989Y038200D01*
X082941Y038207D01*
X082894Y038218D01*
X082848Y038232D01*
X082803Y038250D01*
X082760Y038272D01*
X082719Y038297D01*
X082681Y038326D01*
X082644Y038358D01*
X082610Y038392D01*
X082580Y038429D01*
X082552Y038468D01*
X082527Y038510D01*
X082507Y038554D01*
X082489Y038599D01*
X082476Y038645D01*
X082466Y038692D01*
X082460Y038740D01*
X082458Y038788D01*
X089565Y038788D02*
X089567Y038850D01*
X089573Y038913D01*
X089583Y038974D01*
X089597Y039035D01*
X089614Y039095D01*
X089635Y039154D01*
X089661Y039211D01*
X089689Y039266D01*
X089721Y039320D01*
X089757Y039371D01*
X089795Y039421D01*
X089837Y039467D01*
X089881Y039511D01*
X089929Y039552D01*
X089978Y039590D01*
X090030Y039624D01*
X090084Y039655D01*
X090140Y039683D01*
X090198Y039707D01*
X090257Y039728D01*
X090317Y039744D01*
X090378Y039757D01*
X090440Y039766D01*
X090502Y039771D01*
X090565Y039772D01*
X090627Y039769D01*
X090689Y039762D01*
X090751Y039751D01*
X090811Y039736D01*
X090871Y039718D01*
X090929Y039696D01*
X090986Y039670D01*
X091041Y039640D01*
X091094Y039607D01*
X091145Y039571D01*
X091193Y039532D01*
X091239Y039489D01*
X091282Y039444D01*
X091322Y039396D01*
X091359Y039346D01*
X091393Y039293D01*
X091424Y039239D01*
X091450Y039183D01*
X091474Y039125D01*
X091493Y039065D01*
X091509Y039005D01*
X091521Y038943D01*
X091529Y038882D01*
X091533Y038819D01*
X091533Y038757D01*
X091529Y038694D01*
X091521Y038633D01*
X091509Y038571D01*
X091493Y038511D01*
X091474Y038451D01*
X091450Y038393D01*
X091424Y038337D01*
X091393Y038283D01*
X091359Y038230D01*
X091322Y038180D01*
X091282Y038132D01*
X091239Y038087D01*
X091193Y038044D01*
X091145Y038005D01*
X091094Y037969D01*
X091041Y037936D01*
X090986Y037906D01*
X090929Y037880D01*
X090871Y037858D01*
X090811Y037840D01*
X090751Y037825D01*
X090689Y037814D01*
X090627Y037807D01*
X090565Y037804D01*
X090502Y037805D01*
X090440Y037810D01*
X090378Y037819D01*
X090317Y037832D01*
X090257Y037848D01*
X090198Y037869D01*
X090140Y037893D01*
X090084Y037921D01*
X090030Y037952D01*
X089978Y037986D01*
X089929Y038024D01*
X089881Y038065D01*
X089837Y038109D01*
X089795Y038155D01*
X089757Y038205D01*
X089721Y038256D01*
X089689Y038310D01*
X089661Y038365D01*
X089635Y038422D01*
X089614Y038481D01*
X089597Y038541D01*
X089583Y038602D01*
X089573Y038663D01*
X089567Y038726D01*
X089565Y038788D01*
X097440Y038913D02*
X097442Y038975D01*
X097448Y039038D01*
X097458Y039099D01*
X097472Y039160D01*
X097489Y039220D01*
X097510Y039279D01*
X097536Y039336D01*
X097564Y039391D01*
X097596Y039445D01*
X097632Y039496D01*
X097670Y039546D01*
X097712Y039592D01*
X097756Y039636D01*
X097804Y039677D01*
X097853Y039715D01*
X097905Y039749D01*
X097959Y039780D01*
X098015Y039808D01*
X098073Y039832D01*
X098132Y039853D01*
X098192Y039869D01*
X098253Y039882D01*
X098315Y039891D01*
X098377Y039896D01*
X098440Y039897D01*
X098502Y039894D01*
X098564Y039887D01*
X098626Y039876D01*
X098686Y039861D01*
X098746Y039843D01*
X098804Y039821D01*
X098861Y039795D01*
X098916Y039765D01*
X098969Y039732D01*
X099020Y039696D01*
X099068Y039657D01*
X099114Y039614D01*
X099157Y039569D01*
X099197Y039521D01*
X099234Y039471D01*
X099268Y039418D01*
X099299Y039364D01*
X099325Y039308D01*
X099349Y039250D01*
X099368Y039190D01*
X099384Y039130D01*
X099396Y039068D01*
X099404Y039007D01*
X099408Y038944D01*
X099408Y038882D01*
X099404Y038819D01*
X099396Y038758D01*
X099384Y038696D01*
X099368Y038636D01*
X099349Y038576D01*
X099325Y038518D01*
X099299Y038462D01*
X099268Y038408D01*
X099234Y038355D01*
X099197Y038305D01*
X099157Y038257D01*
X099114Y038212D01*
X099068Y038169D01*
X099020Y038130D01*
X098969Y038094D01*
X098916Y038061D01*
X098861Y038031D01*
X098804Y038005D01*
X098746Y037983D01*
X098686Y037965D01*
X098626Y037950D01*
X098564Y037939D01*
X098502Y037932D01*
X098440Y037929D01*
X098377Y037930D01*
X098315Y037935D01*
X098253Y037944D01*
X098192Y037957D01*
X098132Y037973D01*
X098073Y037994D01*
X098015Y038018D01*
X097959Y038046D01*
X097905Y038077D01*
X097853Y038111D01*
X097804Y038149D01*
X097756Y038190D01*
X097712Y038234D01*
X097670Y038280D01*
X097632Y038330D01*
X097596Y038381D01*
X097564Y038435D01*
X097536Y038490D01*
X097510Y038547D01*
X097489Y038606D01*
X097472Y038666D01*
X097458Y038727D01*
X097448Y038788D01*
X097442Y038851D01*
X097440Y038913D01*
X104565Y038788D02*
X104567Y038850D01*
X104573Y038913D01*
X104583Y038974D01*
X104597Y039035D01*
X104614Y039095D01*
X104635Y039154D01*
X104661Y039211D01*
X104689Y039266D01*
X104721Y039320D01*
X104757Y039371D01*
X104795Y039421D01*
X104837Y039467D01*
X104881Y039511D01*
X104929Y039552D01*
X104978Y039590D01*
X105030Y039624D01*
X105084Y039655D01*
X105140Y039683D01*
X105198Y039707D01*
X105257Y039728D01*
X105317Y039744D01*
X105378Y039757D01*
X105440Y039766D01*
X105502Y039771D01*
X105565Y039772D01*
X105627Y039769D01*
X105689Y039762D01*
X105751Y039751D01*
X105811Y039736D01*
X105871Y039718D01*
X105929Y039696D01*
X105986Y039670D01*
X106041Y039640D01*
X106094Y039607D01*
X106145Y039571D01*
X106193Y039532D01*
X106239Y039489D01*
X106282Y039444D01*
X106322Y039396D01*
X106359Y039346D01*
X106393Y039293D01*
X106424Y039239D01*
X106450Y039183D01*
X106474Y039125D01*
X106493Y039065D01*
X106509Y039005D01*
X106521Y038943D01*
X106529Y038882D01*
X106533Y038819D01*
X106533Y038757D01*
X106529Y038694D01*
X106521Y038633D01*
X106509Y038571D01*
X106493Y038511D01*
X106474Y038451D01*
X106450Y038393D01*
X106424Y038337D01*
X106393Y038283D01*
X106359Y038230D01*
X106322Y038180D01*
X106282Y038132D01*
X106239Y038087D01*
X106193Y038044D01*
X106145Y038005D01*
X106094Y037969D01*
X106041Y037936D01*
X105986Y037906D01*
X105929Y037880D01*
X105871Y037858D01*
X105811Y037840D01*
X105751Y037825D01*
X105689Y037814D01*
X105627Y037807D01*
X105565Y037804D01*
X105502Y037805D01*
X105440Y037810D01*
X105378Y037819D01*
X105317Y037832D01*
X105257Y037848D01*
X105198Y037869D01*
X105140Y037893D01*
X105084Y037921D01*
X105030Y037952D01*
X104978Y037986D01*
X104929Y038024D01*
X104881Y038065D01*
X104837Y038109D01*
X104795Y038155D01*
X104757Y038205D01*
X104721Y038256D01*
X104689Y038310D01*
X104661Y038365D01*
X104635Y038422D01*
X104614Y038481D01*
X104597Y038541D01*
X104583Y038602D01*
X104573Y038663D01*
X104567Y038726D01*
X104565Y038788D01*
X112065Y038788D02*
X112067Y038850D01*
X112073Y038913D01*
X112083Y038974D01*
X112097Y039035D01*
X112114Y039095D01*
X112135Y039154D01*
X112161Y039211D01*
X112189Y039266D01*
X112221Y039320D01*
X112257Y039371D01*
X112295Y039421D01*
X112337Y039467D01*
X112381Y039511D01*
X112429Y039552D01*
X112478Y039590D01*
X112530Y039624D01*
X112584Y039655D01*
X112640Y039683D01*
X112698Y039707D01*
X112757Y039728D01*
X112817Y039744D01*
X112878Y039757D01*
X112940Y039766D01*
X113002Y039771D01*
X113065Y039772D01*
X113127Y039769D01*
X113189Y039762D01*
X113251Y039751D01*
X113311Y039736D01*
X113371Y039718D01*
X113429Y039696D01*
X113486Y039670D01*
X113541Y039640D01*
X113594Y039607D01*
X113645Y039571D01*
X113693Y039532D01*
X113739Y039489D01*
X113782Y039444D01*
X113822Y039396D01*
X113859Y039346D01*
X113893Y039293D01*
X113924Y039239D01*
X113950Y039183D01*
X113974Y039125D01*
X113993Y039065D01*
X114009Y039005D01*
X114021Y038943D01*
X114029Y038882D01*
X114033Y038819D01*
X114033Y038757D01*
X114029Y038694D01*
X114021Y038633D01*
X114009Y038571D01*
X113993Y038511D01*
X113974Y038451D01*
X113950Y038393D01*
X113924Y038337D01*
X113893Y038283D01*
X113859Y038230D01*
X113822Y038180D01*
X113782Y038132D01*
X113739Y038087D01*
X113693Y038044D01*
X113645Y038005D01*
X113594Y037969D01*
X113541Y037936D01*
X113486Y037906D01*
X113429Y037880D01*
X113371Y037858D01*
X113311Y037840D01*
X113251Y037825D01*
X113189Y037814D01*
X113127Y037807D01*
X113065Y037804D01*
X113002Y037805D01*
X112940Y037810D01*
X112878Y037819D01*
X112817Y037832D01*
X112757Y037848D01*
X112698Y037869D01*
X112640Y037893D01*
X112584Y037921D01*
X112530Y037952D01*
X112478Y037986D01*
X112429Y038024D01*
X112381Y038065D01*
X112337Y038109D01*
X112295Y038155D01*
X112257Y038205D01*
X112221Y038256D01*
X112189Y038310D01*
X112161Y038365D01*
X112135Y038422D01*
X112114Y038481D01*
X112097Y038541D01*
X112083Y038602D01*
X112073Y038663D01*
X112067Y038726D01*
X112065Y038788D01*
X119565Y038788D02*
X119567Y038850D01*
X119573Y038913D01*
X119583Y038974D01*
X119597Y039035D01*
X119614Y039095D01*
X119635Y039154D01*
X119661Y039211D01*
X119689Y039266D01*
X119721Y039320D01*
X119757Y039371D01*
X119795Y039421D01*
X119837Y039467D01*
X119881Y039511D01*
X119929Y039552D01*
X119978Y039590D01*
X120030Y039624D01*
X120084Y039655D01*
X120140Y039683D01*
X120198Y039707D01*
X120257Y039728D01*
X120317Y039744D01*
X120378Y039757D01*
X120440Y039766D01*
X120502Y039771D01*
X120565Y039772D01*
X120627Y039769D01*
X120689Y039762D01*
X120751Y039751D01*
X120811Y039736D01*
X120871Y039718D01*
X120929Y039696D01*
X120986Y039670D01*
X121041Y039640D01*
X121094Y039607D01*
X121145Y039571D01*
X121193Y039532D01*
X121239Y039489D01*
X121282Y039444D01*
X121322Y039396D01*
X121359Y039346D01*
X121393Y039293D01*
X121424Y039239D01*
X121450Y039183D01*
X121474Y039125D01*
X121493Y039065D01*
X121509Y039005D01*
X121521Y038943D01*
X121529Y038882D01*
X121533Y038819D01*
X121533Y038757D01*
X121529Y038694D01*
X121521Y038633D01*
X121509Y038571D01*
X121493Y038511D01*
X121474Y038451D01*
X121450Y038393D01*
X121424Y038337D01*
X121393Y038283D01*
X121359Y038230D01*
X121322Y038180D01*
X121282Y038132D01*
X121239Y038087D01*
X121193Y038044D01*
X121145Y038005D01*
X121094Y037969D01*
X121041Y037936D01*
X120986Y037906D01*
X120929Y037880D01*
X120871Y037858D01*
X120811Y037840D01*
X120751Y037825D01*
X120689Y037814D01*
X120627Y037807D01*
X120565Y037804D01*
X120502Y037805D01*
X120440Y037810D01*
X120378Y037819D01*
X120317Y037832D01*
X120257Y037848D01*
X120198Y037869D01*
X120140Y037893D01*
X120084Y037921D01*
X120030Y037952D01*
X119978Y037986D01*
X119929Y038024D01*
X119881Y038065D01*
X119837Y038109D01*
X119795Y038155D01*
X119757Y038205D01*
X119721Y038256D01*
X119689Y038310D01*
X119661Y038365D01*
X119635Y038422D01*
X119614Y038481D01*
X119597Y038541D01*
X119583Y038602D01*
X119573Y038663D01*
X119567Y038726D01*
X119565Y038788D01*
X127128Y038475D02*
X127130Y038537D01*
X127136Y038600D01*
X127146Y038661D01*
X127160Y038722D01*
X127177Y038782D01*
X127198Y038841D01*
X127224Y038898D01*
X127252Y038953D01*
X127284Y039007D01*
X127320Y039058D01*
X127358Y039108D01*
X127400Y039154D01*
X127444Y039198D01*
X127492Y039239D01*
X127541Y039277D01*
X127593Y039311D01*
X127647Y039342D01*
X127703Y039370D01*
X127761Y039394D01*
X127820Y039415D01*
X127880Y039431D01*
X127941Y039444D01*
X128003Y039453D01*
X128065Y039458D01*
X128128Y039459D01*
X128190Y039456D01*
X128252Y039449D01*
X128314Y039438D01*
X128374Y039423D01*
X128434Y039405D01*
X128492Y039383D01*
X128549Y039357D01*
X128604Y039327D01*
X128657Y039294D01*
X128708Y039258D01*
X128756Y039219D01*
X128802Y039176D01*
X128845Y039131D01*
X128885Y039083D01*
X128922Y039033D01*
X128956Y038980D01*
X128987Y038926D01*
X129013Y038870D01*
X129037Y038812D01*
X129056Y038752D01*
X129072Y038692D01*
X129084Y038630D01*
X129092Y038569D01*
X129096Y038506D01*
X129096Y038444D01*
X129092Y038381D01*
X129084Y038320D01*
X129072Y038258D01*
X129056Y038198D01*
X129037Y038138D01*
X129013Y038080D01*
X128987Y038024D01*
X128956Y037970D01*
X128922Y037917D01*
X128885Y037867D01*
X128845Y037819D01*
X128802Y037774D01*
X128756Y037731D01*
X128708Y037692D01*
X128657Y037656D01*
X128604Y037623D01*
X128549Y037593D01*
X128492Y037567D01*
X128434Y037545D01*
X128374Y037527D01*
X128314Y037512D01*
X128252Y037501D01*
X128190Y037494D01*
X128128Y037491D01*
X128065Y037492D01*
X128003Y037497D01*
X127941Y037506D01*
X127880Y037519D01*
X127820Y037535D01*
X127761Y037556D01*
X127703Y037580D01*
X127647Y037608D01*
X127593Y037639D01*
X127541Y037673D01*
X127492Y037711D01*
X127444Y037752D01*
X127400Y037796D01*
X127358Y037842D01*
X127320Y037892D01*
X127284Y037943D01*
X127252Y037997D01*
X127224Y038052D01*
X127198Y038109D01*
X127177Y038168D01*
X127160Y038228D01*
X127146Y038289D01*
X127136Y038350D01*
X127130Y038413D01*
X127128Y038475D01*
X127065Y031288D02*
X127067Y031350D01*
X127073Y031413D01*
X127083Y031474D01*
X127097Y031535D01*
X127114Y031595D01*
X127135Y031654D01*
X127161Y031711D01*
X127189Y031766D01*
X127221Y031820D01*
X127257Y031871D01*
X127295Y031921D01*
X127337Y031967D01*
X127381Y032011D01*
X127429Y032052D01*
X127478Y032090D01*
X127530Y032124D01*
X127584Y032155D01*
X127640Y032183D01*
X127698Y032207D01*
X127757Y032228D01*
X127817Y032244D01*
X127878Y032257D01*
X127940Y032266D01*
X128002Y032271D01*
X128065Y032272D01*
X128127Y032269D01*
X128189Y032262D01*
X128251Y032251D01*
X128311Y032236D01*
X128371Y032218D01*
X128429Y032196D01*
X128486Y032170D01*
X128541Y032140D01*
X128594Y032107D01*
X128645Y032071D01*
X128693Y032032D01*
X128739Y031989D01*
X128782Y031944D01*
X128822Y031896D01*
X128859Y031846D01*
X128893Y031793D01*
X128924Y031739D01*
X128950Y031683D01*
X128974Y031625D01*
X128993Y031565D01*
X129009Y031505D01*
X129021Y031443D01*
X129029Y031382D01*
X129033Y031319D01*
X129033Y031257D01*
X129029Y031194D01*
X129021Y031133D01*
X129009Y031071D01*
X128993Y031011D01*
X128974Y030951D01*
X128950Y030893D01*
X128924Y030837D01*
X128893Y030783D01*
X128859Y030730D01*
X128822Y030680D01*
X128782Y030632D01*
X128739Y030587D01*
X128693Y030544D01*
X128645Y030505D01*
X128594Y030469D01*
X128541Y030436D01*
X128486Y030406D01*
X128429Y030380D01*
X128371Y030358D01*
X128311Y030340D01*
X128251Y030325D01*
X128189Y030314D01*
X128127Y030307D01*
X128065Y030304D01*
X128002Y030305D01*
X127940Y030310D01*
X127878Y030319D01*
X127817Y030332D01*
X127757Y030348D01*
X127698Y030369D01*
X127640Y030393D01*
X127584Y030421D01*
X127530Y030452D01*
X127478Y030486D01*
X127429Y030524D01*
X127381Y030565D01*
X127337Y030609D01*
X127295Y030655D01*
X127257Y030705D01*
X127221Y030756D01*
X127189Y030810D01*
X127161Y030865D01*
X127135Y030922D01*
X127114Y030981D01*
X127097Y031041D01*
X127083Y031102D01*
X127073Y031163D01*
X127067Y031226D01*
X127065Y031288D01*
X120440Y045538D02*
X120442Y045600D01*
X120448Y045663D01*
X120458Y045724D01*
X120472Y045785D01*
X120489Y045845D01*
X120510Y045904D01*
X120536Y045961D01*
X120564Y046016D01*
X120596Y046070D01*
X120632Y046121D01*
X120670Y046171D01*
X120712Y046217D01*
X120756Y046261D01*
X120804Y046302D01*
X120853Y046340D01*
X120905Y046374D01*
X120959Y046405D01*
X121015Y046433D01*
X121073Y046457D01*
X121132Y046478D01*
X121192Y046494D01*
X121253Y046507D01*
X121315Y046516D01*
X121377Y046521D01*
X121440Y046522D01*
X121502Y046519D01*
X121564Y046512D01*
X121626Y046501D01*
X121686Y046486D01*
X121746Y046468D01*
X121804Y046446D01*
X121861Y046420D01*
X121916Y046390D01*
X121969Y046357D01*
X122020Y046321D01*
X122068Y046282D01*
X122114Y046239D01*
X122157Y046194D01*
X122197Y046146D01*
X122234Y046096D01*
X122268Y046043D01*
X122299Y045989D01*
X122325Y045933D01*
X122349Y045875D01*
X122368Y045815D01*
X122384Y045755D01*
X122396Y045693D01*
X122404Y045632D01*
X122408Y045569D01*
X122408Y045507D01*
X122404Y045444D01*
X122396Y045383D01*
X122384Y045321D01*
X122368Y045261D01*
X122349Y045201D01*
X122325Y045143D01*
X122299Y045087D01*
X122268Y045033D01*
X122234Y044980D01*
X122197Y044930D01*
X122157Y044882D01*
X122114Y044837D01*
X122068Y044794D01*
X122020Y044755D01*
X121969Y044719D01*
X121916Y044686D01*
X121861Y044656D01*
X121804Y044630D01*
X121746Y044608D01*
X121686Y044590D01*
X121626Y044575D01*
X121564Y044564D01*
X121502Y044557D01*
X121440Y044554D01*
X121377Y044555D01*
X121315Y044560D01*
X121253Y044569D01*
X121192Y044582D01*
X121132Y044598D01*
X121073Y044619D01*
X121015Y044643D01*
X120959Y044671D01*
X120905Y044702D01*
X120853Y044736D01*
X120804Y044774D01*
X120756Y044815D01*
X120712Y044859D01*
X120670Y044905D01*
X120632Y044955D01*
X120596Y045006D01*
X120564Y045060D01*
X120536Y045115D01*
X120510Y045172D01*
X120489Y045231D01*
X120472Y045291D01*
X120458Y045352D01*
X120448Y045413D01*
X120442Y045476D01*
X120440Y045538D01*
X115003Y049413D02*
X115005Y049475D01*
X115011Y049538D01*
X115021Y049599D01*
X115035Y049660D01*
X115052Y049720D01*
X115073Y049779D01*
X115099Y049836D01*
X115127Y049891D01*
X115159Y049945D01*
X115195Y049996D01*
X115233Y050046D01*
X115275Y050092D01*
X115319Y050136D01*
X115367Y050177D01*
X115416Y050215D01*
X115468Y050249D01*
X115522Y050280D01*
X115578Y050308D01*
X115636Y050332D01*
X115695Y050353D01*
X115755Y050369D01*
X115816Y050382D01*
X115878Y050391D01*
X115940Y050396D01*
X116003Y050397D01*
X116065Y050394D01*
X116127Y050387D01*
X116189Y050376D01*
X116249Y050361D01*
X116309Y050343D01*
X116367Y050321D01*
X116424Y050295D01*
X116479Y050265D01*
X116532Y050232D01*
X116583Y050196D01*
X116631Y050157D01*
X116677Y050114D01*
X116720Y050069D01*
X116760Y050021D01*
X116797Y049971D01*
X116831Y049918D01*
X116862Y049864D01*
X116888Y049808D01*
X116912Y049750D01*
X116931Y049690D01*
X116947Y049630D01*
X116959Y049568D01*
X116967Y049507D01*
X116971Y049444D01*
X116971Y049382D01*
X116967Y049319D01*
X116959Y049258D01*
X116947Y049196D01*
X116931Y049136D01*
X116912Y049076D01*
X116888Y049018D01*
X116862Y048962D01*
X116831Y048908D01*
X116797Y048855D01*
X116760Y048805D01*
X116720Y048757D01*
X116677Y048712D01*
X116631Y048669D01*
X116583Y048630D01*
X116532Y048594D01*
X116479Y048561D01*
X116424Y048531D01*
X116367Y048505D01*
X116309Y048483D01*
X116249Y048465D01*
X116189Y048450D01*
X116127Y048439D01*
X116065Y048432D01*
X116003Y048429D01*
X115940Y048430D01*
X115878Y048435D01*
X115816Y048444D01*
X115755Y048457D01*
X115695Y048473D01*
X115636Y048494D01*
X115578Y048518D01*
X115522Y048546D01*
X115468Y048577D01*
X115416Y048611D01*
X115367Y048649D01*
X115319Y048690D01*
X115275Y048734D01*
X115233Y048780D01*
X115195Y048830D01*
X115159Y048881D01*
X115127Y048935D01*
X115099Y048990D01*
X115073Y049047D01*
X115052Y049106D01*
X115035Y049166D01*
X115021Y049227D01*
X115011Y049288D01*
X115005Y049351D01*
X115003Y049413D01*
X112190Y046100D02*
X112192Y046162D01*
X112198Y046225D01*
X112208Y046286D01*
X112222Y046347D01*
X112239Y046407D01*
X112260Y046466D01*
X112286Y046523D01*
X112314Y046578D01*
X112346Y046632D01*
X112382Y046683D01*
X112420Y046733D01*
X112462Y046779D01*
X112506Y046823D01*
X112554Y046864D01*
X112603Y046902D01*
X112655Y046936D01*
X112709Y046967D01*
X112765Y046995D01*
X112823Y047019D01*
X112882Y047040D01*
X112942Y047056D01*
X113003Y047069D01*
X113065Y047078D01*
X113127Y047083D01*
X113190Y047084D01*
X113252Y047081D01*
X113314Y047074D01*
X113376Y047063D01*
X113436Y047048D01*
X113496Y047030D01*
X113554Y047008D01*
X113611Y046982D01*
X113666Y046952D01*
X113719Y046919D01*
X113770Y046883D01*
X113818Y046844D01*
X113864Y046801D01*
X113907Y046756D01*
X113947Y046708D01*
X113984Y046658D01*
X114018Y046605D01*
X114049Y046551D01*
X114075Y046495D01*
X114099Y046437D01*
X114118Y046377D01*
X114134Y046317D01*
X114146Y046255D01*
X114154Y046194D01*
X114158Y046131D01*
X114158Y046069D01*
X114154Y046006D01*
X114146Y045945D01*
X114134Y045883D01*
X114118Y045823D01*
X114099Y045763D01*
X114075Y045705D01*
X114049Y045649D01*
X114018Y045595D01*
X113984Y045542D01*
X113947Y045492D01*
X113907Y045444D01*
X113864Y045399D01*
X113818Y045356D01*
X113770Y045317D01*
X113719Y045281D01*
X113666Y045248D01*
X113611Y045218D01*
X113554Y045192D01*
X113496Y045170D01*
X113436Y045152D01*
X113376Y045137D01*
X113314Y045126D01*
X113252Y045119D01*
X113190Y045116D01*
X113127Y045117D01*
X113065Y045122D01*
X113003Y045131D01*
X112942Y045144D01*
X112882Y045160D01*
X112823Y045181D01*
X112765Y045205D01*
X112709Y045233D01*
X112655Y045264D01*
X112603Y045298D01*
X112554Y045336D01*
X112506Y045377D01*
X112462Y045421D01*
X112420Y045467D01*
X112382Y045517D01*
X112346Y045568D01*
X112314Y045622D01*
X112286Y045677D01*
X112260Y045734D01*
X112239Y045793D01*
X112222Y045853D01*
X112208Y045914D01*
X112198Y045975D01*
X112192Y046038D01*
X112190Y046100D01*
X107565Y049350D02*
X107567Y049412D01*
X107573Y049475D01*
X107583Y049536D01*
X107597Y049597D01*
X107614Y049657D01*
X107635Y049716D01*
X107661Y049773D01*
X107689Y049828D01*
X107721Y049882D01*
X107757Y049933D01*
X107795Y049983D01*
X107837Y050029D01*
X107881Y050073D01*
X107929Y050114D01*
X107978Y050152D01*
X108030Y050186D01*
X108084Y050217D01*
X108140Y050245D01*
X108198Y050269D01*
X108257Y050290D01*
X108317Y050306D01*
X108378Y050319D01*
X108440Y050328D01*
X108502Y050333D01*
X108565Y050334D01*
X108627Y050331D01*
X108689Y050324D01*
X108751Y050313D01*
X108811Y050298D01*
X108871Y050280D01*
X108929Y050258D01*
X108986Y050232D01*
X109041Y050202D01*
X109094Y050169D01*
X109145Y050133D01*
X109193Y050094D01*
X109239Y050051D01*
X109282Y050006D01*
X109322Y049958D01*
X109359Y049908D01*
X109393Y049855D01*
X109424Y049801D01*
X109450Y049745D01*
X109474Y049687D01*
X109493Y049627D01*
X109509Y049567D01*
X109521Y049505D01*
X109529Y049444D01*
X109533Y049381D01*
X109533Y049319D01*
X109529Y049256D01*
X109521Y049195D01*
X109509Y049133D01*
X109493Y049073D01*
X109474Y049013D01*
X109450Y048955D01*
X109424Y048899D01*
X109393Y048845D01*
X109359Y048792D01*
X109322Y048742D01*
X109282Y048694D01*
X109239Y048649D01*
X109193Y048606D01*
X109145Y048567D01*
X109094Y048531D01*
X109041Y048498D01*
X108986Y048468D01*
X108929Y048442D01*
X108871Y048420D01*
X108811Y048402D01*
X108751Y048387D01*
X108689Y048376D01*
X108627Y048369D01*
X108565Y048366D01*
X108502Y048367D01*
X108440Y048372D01*
X108378Y048381D01*
X108317Y048394D01*
X108257Y048410D01*
X108198Y048431D01*
X108140Y048455D01*
X108084Y048483D01*
X108030Y048514D01*
X107978Y048548D01*
X107929Y048586D01*
X107881Y048627D01*
X107837Y048671D01*
X107795Y048717D01*
X107757Y048767D01*
X107721Y048818D01*
X107689Y048872D01*
X107661Y048927D01*
X107635Y048984D01*
X107614Y049043D01*
X107597Y049103D01*
X107583Y049164D01*
X107573Y049225D01*
X107567Y049288D01*
X107565Y049350D01*
X104565Y046475D02*
X104567Y046537D01*
X104573Y046600D01*
X104583Y046661D01*
X104597Y046722D01*
X104614Y046782D01*
X104635Y046841D01*
X104661Y046898D01*
X104689Y046953D01*
X104721Y047007D01*
X104757Y047058D01*
X104795Y047108D01*
X104837Y047154D01*
X104881Y047198D01*
X104929Y047239D01*
X104978Y047277D01*
X105030Y047311D01*
X105084Y047342D01*
X105140Y047370D01*
X105198Y047394D01*
X105257Y047415D01*
X105317Y047431D01*
X105378Y047444D01*
X105440Y047453D01*
X105502Y047458D01*
X105565Y047459D01*
X105627Y047456D01*
X105689Y047449D01*
X105751Y047438D01*
X105811Y047423D01*
X105871Y047405D01*
X105929Y047383D01*
X105986Y047357D01*
X106041Y047327D01*
X106094Y047294D01*
X106145Y047258D01*
X106193Y047219D01*
X106239Y047176D01*
X106282Y047131D01*
X106322Y047083D01*
X106359Y047033D01*
X106393Y046980D01*
X106424Y046926D01*
X106450Y046870D01*
X106474Y046812D01*
X106493Y046752D01*
X106509Y046692D01*
X106521Y046630D01*
X106529Y046569D01*
X106533Y046506D01*
X106533Y046444D01*
X106529Y046381D01*
X106521Y046320D01*
X106509Y046258D01*
X106493Y046198D01*
X106474Y046138D01*
X106450Y046080D01*
X106424Y046024D01*
X106393Y045970D01*
X106359Y045917D01*
X106322Y045867D01*
X106282Y045819D01*
X106239Y045774D01*
X106193Y045731D01*
X106145Y045692D01*
X106094Y045656D01*
X106041Y045623D01*
X105986Y045593D01*
X105929Y045567D01*
X105871Y045545D01*
X105811Y045527D01*
X105751Y045512D01*
X105689Y045501D01*
X105627Y045494D01*
X105565Y045491D01*
X105502Y045492D01*
X105440Y045497D01*
X105378Y045506D01*
X105317Y045519D01*
X105257Y045535D01*
X105198Y045556D01*
X105140Y045580D01*
X105084Y045608D01*
X105030Y045639D01*
X104978Y045673D01*
X104929Y045711D01*
X104881Y045752D01*
X104837Y045796D01*
X104795Y045842D01*
X104757Y045892D01*
X104721Y045943D01*
X104689Y045997D01*
X104661Y046052D01*
X104635Y046109D01*
X104614Y046168D01*
X104597Y046228D01*
X104583Y046289D01*
X104573Y046350D01*
X104567Y046413D01*
X104565Y046475D01*
X100003Y049413D02*
X100005Y049475D01*
X100011Y049538D01*
X100021Y049599D01*
X100035Y049660D01*
X100052Y049720D01*
X100073Y049779D01*
X100099Y049836D01*
X100127Y049891D01*
X100159Y049945D01*
X100195Y049996D01*
X100233Y050046D01*
X100275Y050092D01*
X100319Y050136D01*
X100367Y050177D01*
X100416Y050215D01*
X100468Y050249D01*
X100522Y050280D01*
X100578Y050308D01*
X100636Y050332D01*
X100695Y050353D01*
X100755Y050369D01*
X100816Y050382D01*
X100878Y050391D01*
X100940Y050396D01*
X101003Y050397D01*
X101065Y050394D01*
X101127Y050387D01*
X101189Y050376D01*
X101249Y050361D01*
X101309Y050343D01*
X101367Y050321D01*
X101424Y050295D01*
X101479Y050265D01*
X101532Y050232D01*
X101583Y050196D01*
X101631Y050157D01*
X101677Y050114D01*
X101720Y050069D01*
X101760Y050021D01*
X101797Y049971D01*
X101831Y049918D01*
X101862Y049864D01*
X101888Y049808D01*
X101912Y049750D01*
X101931Y049690D01*
X101947Y049630D01*
X101959Y049568D01*
X101967Y049507D01*
X101971Y049444D01*
X101971Y049382D01*
X101967Y049319D01*
X101959Y049258D01*
X101947Y049196D01*
X101931Y049136D01*
X101912Y049076D01*
X101888Y049018D01*
X101862Y048962D01*
X101831Y048908D01*
X101797Y048855D01*
X101760Y048805D01*
X101720Y048757D01*
X101677Y048712D01*
X101631Y048669D01*
X101583Y048630D01*
X101532Y048594D01*
X101479Y048561D01*
X101424Y048531D01*
X101367Y048505D01*
X101309Y048483D01*
X101249Y048465D01*
X101189Y048450D01*
X101127Y048439D01*
X101065Y048432D01*
X101003Y048429D01*
X100940Y048430D01*
X100878Y048435D01*
X100816Y048444D01*
X100755Y048457D01*
X100695Y048473D01*
X100636Y048494D01*
X100578Y048518D01*
X100522Y048546D01*
X100468Y048577D01*
X100416Y048611D01*
X100367Y048649D01*
X100319Y048690D01*
X100275Y048734D01*
X100233Y048780D01*
X100195Y048830D01*
X100159Y048881D01*
X100127Y048935D01*
X100099Y048990D01*
X100073Y049047D01*
X100052Y049106D01*
X100035Y049166D01*
X100021Y049227D01*
X100011Y049288D01*
X100005Y049351D01*
X100003Y049413D01*
X097315Y046225D02*
X097317Y046287D01*
X097323Y046350D01*
X097333Y046411D01*
X097347Y046472D01*
X097364Y046532D01*
X097385Y046591D01*
X097411Y046648D01*
X097439Y046703D01*
X097471Y046757D01*
X097507Y046808D01*
X097545Y046858D01*
X097587Y046904D01*
X097631Y046948D01*
X097679Y046989D01*
X097728Y047027D01*
X097780Y047061D01*
X097834Y047092D01*
X097890Y047120D01*
X097948Y047144D01*
X098007Y047165D01*
X098067Y047181D01*
X098128Y047194D01*
X098190Y047203D01*
X098252Y047208D01*
X098315Y047209D01*
X098377Y047206D01*
X098439Y047199D01*
X098501Y047188D01*
X098561Y047173D01*
X098621Y047155D01*
X098679Y047133D01*
X098736Y047107D01*
X098791Y047077D01*
X098844Y047044D01*
X098895Y047008D01*
X098943Y046969D01*
X098989Y046926D01*
X099032Y046881D01*
X099072Y046833D01*
X099109Y046783D01*
X099143Y046730D01*
X099174Y046676D01*
X099200Y046620D01*
X099224Y046562D01*
X099243Y046502D01*
X099259Y046442D01*
X099271Y046380D01*
X099279Y046319D01*
X099283Y046256D01*
X099283Y046194D01*
X099279Y046131D01*
X099271Y046070D01*
X099259Y046008D01*
X099243Y045948D01*
X099224Y045888D01*
X099200Y045830D01*
X099174Y045774D01*
X099143Y045720D01*
X099109Y045667D01*
X099072Y045617D01*
X099032Y045569D01*
X098989Y045524D01*
X098943Y045481D01*
X098895Y045442D01*
X098844Y045406D01*
X098791Y045373D01*
X098736Y045343D01*
X098679Y045317D01*
X098621Y045295D01*
X098561Y045277D01*
X098501Y045262D01*
X098439Y045251D01*
X098377Y045244D01*
X098315Y045241D01*
X098252Y045242D01*
X098190Y045247D01*
X098128Y045256D01*
X098067Y045269D01*
X098007Y045285D01*
X097948Y045306D01*
X097890Y045330D01*
X097834Y045358D01*
X097780Y045389D01*
X097728Y045423D01*
X097679Y045461D01*
X097631Y045502D01*
X097587Y045546D01*
X097545Y045592D01*
X097507Y045642D01*
X097471Y045693D01*
X097439Y045747D01*
X097411Y045802D01*
X097385Y045859D01*
X097364Y045918D01*
X097347Y045978D01*
X097333Y046039D01*
X097323Y046100D01*
X097317Y046163D01*
X097315Y046225D01*
X082065Y051038D02*
X082067Y051100D01*
X082073Y051163D01*
X082083Y051224D01*
X082097Y051285D01*
X082114Y051345D01*
X082135Y051404D01*
X082161Y051461D01*
X082189Y051516D01*
X082221Y051570D01*
X082257Y051621D01*
X082295Y051671D01*
X082337Y051717D01*
X082381Y051761D01*
X082429Y051802D01*
X082478Y051840D01*
X082530Y051874D01*
X082584Y051905D01*
X082640Y051933D01*
X082698Y051957D01*
X082757Y051978D01*
X082817Y051994D01*
X082878Y052007D01*
X082940Y052016D01*
X083002Y052021D01*
X083065Y052022D01*
X083127Y052019D01*
X083189Y052012D01*
X083251Y052001D01*
X083311Y051986D01*
X083371Y051968D01*
X083429Y051946D01*
X083486Y051920D01*
X083541Y051890D01*
X083594Y051857D01*
X083645Y051821D01*
X083693Y051782D01*
X083739Y051739D01*
X083782Y051694D01*
X083822Y051646D01*
X083859Y051596D01*
X083893Y051543D01*
X083924Y051489D01*
X083950Y051433D01*
X083974Y051375D01*
X083993Y051315D01*
X084009Y051255D01*
X084021Y051193D01*
X084029Y051132D01*
X084033Y051069D01*
X084033Y051007D01*
X084029Y050944D01*
X084021Y050883D01*
X084009Y050821D01*
X083993Y050761D01*
X083974Y050701D01*
X083950Y050643D01*
X083924Y050587D01*
X083893Y050533D01*
X083859Y050480D01*
X083822Y050430D01*
X083782Y050382D01*
X083739Y050337D01*
X083693Y050294D01*
X083645Y050255D01*
X083594Y050219D01*
X083541Y050186D01*
X083486Y050156D01*
X083429Y050130D01*
X083371Y050108D01*
X083311Y050090D01*
X083251Y050075D01*
X083189Y050064D01*
X083127Y050057D01*
X083065Y050054D01*
X083002Y050055D01*
X082940Y050060D01*
X082878Y050069D01*
X082817Y050082D01*
X082757Y050098D01*
X082698Y050119D01*
X082640Y050143D01*
X082584Y050171D01*
X082530Y050202D01*
X082478Y050236D01*
X082429Y050274D01*
X082381Y050315D01*
X082337Y050359D01*
X082295Y050405D01*
X082257Y050455D01*
X082221Y050506D01*
X082189Y050560D01*
X082161Y050615D01*
X082135Y050672D01*
X082114Y050731D01*
X082097Y050791D01*
X082083Y050852D01*
X082073Y050913D01*
X082067Y050976D01*
X082065Y051038D01*
X066815Y049288D02*
X066817Y049350D01*
X066823Y049413D01*
X066833Y049474D01*
X066847Y049535D01*
X066864Y049595D01*
X066885Y049654D01*
X066911Y049711D01*
X066939Y049766D01*
X066971Y049820D01*
X067007Y049871D01*
X067045Y049921D01*
X067087Y049967D01*
X067131Y050011D01*
X067179Y050052D01*
X067228Y050090D01*
X067280Y050124D01*
X067334Y050155D01*
X067390Y050183D01*
X067448Y050207D01*
X067507Y050228D01*
X067567Y050244D01*
X067628Y050257D01*
X067690Y050266D01*
X067752Y050271D01*
X067815Y050272D01*
X067877Y050269D01*
X067939Y050262D01*
X068001Y050251D01*
X068061Y050236D01*
X068121Y050218D01*
X068179Y050196D01*
X068236Y050170D01*
X068291Y050140D01*
X068344Y050107D01*
X068395Y050071D01*
X068443Y050032D01*
X068489Y049989D01*
X068532Y049944D01*
X068572Y049896D01*
X068609Y049846D01*
X068643Y049793D01*
X068674Y049739D01*
X068700Y049683D01*
X068724Y049625D01*
X068743Y049565D01*
X068759Y049505D01*
X068771Y049443D01*
X068779Y049382D01*
X068783Y049319D01*
X068783Y049257D01*
X068779Y049194D01*
X068771Y049133D01*
X068759Y049071D01*
X068743Y049011D01*
X068724Y048951D01*
X068700Y048893D01*
X068674Y048837D01*
X068643Y048783D01*
X068609Y048730D01*
X068572Y048680D01*
X068532Y048632D01*
X068489Y048587D01*
X068443Y048544D01*
X068395Y048505D01*
X068344Y048469D01*
X068291Y048436D01*
X068236Y048406D01*
X068179Y048380D01*
X068121Y048358D01*
X068061Y048340D01*
X068001Y048325D01*
X067939Y048314D01*
X067877Y048307D01*
X067815Y048304D01*
X067752Y048305D01*
X067690Y048310D01*
X067628Y048319D01*
X067567Y048332D01*
X067507Y048348D01*
X067448Y048369D01*
X067390Y048393D01*
X067334Y048421D01*
X067280Y048452D01*
X067228Y048486D01*
X067179Y048524D01*
X067131Y048565D01*
X067087Y048609D01*
X067045Y048655D01*
X067007Y048705D01*
X066971Y048756D01*
X066939Y048810D01*
X066911Y048865D01*
X066885Y048922D01*
X066864Y048981D01*
X066847Y049041D01*
X066833Y049102D01*
X066823Y049163D01*
X066817Y049226D01*
X066815Y049288D01*
X067208Y046288D02*
X067210Y046336D01*
X067216Y046384D01*
X067226Y046431D01*
X067239Y046477D01*
X067257Y046522D01*
X067277Y046566D01*
X067302Y046608D01*
X067330Y046647D01*
X067360Y046684D01*
X067394Y046718D01*
X067431Y046750D01*
X067469Y046779D01*
X067510Y046804D01*
X067553Y046826D01*
X067598Y046844D01*
X067644Y046858D01*
X067691Y046869D01*
X067739Y046876D01*
X067787Y046879D01*
X067835Y046878D01*
X067883Y046873D01*
X067931Y046864D01*
X067977Y046852D01*
X068022Y046835D01*
X068066Y046815D01*
X068108Y046792D01*
X068148Y046765D01*
X068186Y046735D01*
X068221Y046702D01*
X068253Y046666D01*
X068283Y046628D01*
X068309Y046587D01*
X068331Y046544D01*
X068351Y046500D01*
X068366Y046455D01*
X068378Y046408D01*
X068386Y046360D01*
X068390Y046312D01*
X068390Y046264D01*
X068386Y046216D01*
X068378Y046168D01*
X068366Y046121D01*
X068351Y046076D01*
X068331Y046032D01*
X068309Y045989D01*
X068283Y045948D01*
X068253Y045910D01*
X068221Y045874D01*
X068186Y045841D01*
X068148Y045811D01*
X068108Y045784D01*
X068066Y045761D01*
X068022Y045741D01*
X067977Y045724D01*
X067931Y045712D01*
X067883Y045703D01*
X067835Y045698D01*
X067787Y045697D01*
X067739Y045700D01*
X067691Y045707D01*
X067644Y045718D01*
X067598Y045732D01*
X067553Y045750D01*
X067510Y045772D01*
X067469Y045797D01*
X067431Y045826D01*
X067394Y045858D01*
X067360Y045892D01*
X067330Y045929D01*
X067302Y045968D01*
X067277Y046010D01*
X067257Y046054D01*
X067239Y046099D01*
X067226Y046145D01*
X067216Y046192D01*
X067210Y046240D01*
X067208Y046288D01*
X067208Y038788D02*
X067210Y038836D01*
X067216Y038884D01*
X067226Y038931D01*
X067239Y038977D01*
X067257Y039022D01*
X067277Y039066D01*
X067302Y039108D01*
X067330Y039147D01*
X067360Y039184D01*
X067394Y039218D01*
X067431Y039250D01*
X067469Y039279D01*
X067510Y039304D01*
X067553Y039326D01*
X067598Y039344D01*
X067644Y039358D01*
X067691Y039369D01*
X067739Y039376D01*
X067787Y039379D01*
X067835Y039378D01*
X067883Y039373D01*
X067931Y039364D01*
X067977Y039352D01*
X068022Y039335D01*
X068066Y039315D01*
X068108Y039292D01*
X068148Y039265D01*
X068186Y039235D01*
X068221Y039202D01*
X068253Y039166D01*
X068283Y039128D01*
X068309Y039087D01*
X068331Y039044D01*
X068351Y039000D01*
X068366Y038955D01*
X068378Y038908D01*
X068386Y038860D01*
X068390Y038812D01*
X068390Y038764D01*
X068386Y038716D01*
X068378Y038668D01*
X068366Y038621D01*
X068351Y038576D01*
X068331Y038532D01*
X068309Y038489D01*
X068283Y038448D01*
X068253Y038410D01*
X068221Y038374D01*
X068186Y038341D01*
X068148Y038311D01*
X068108Y038284D01*
X068066Y038261D01*
X068022Y038241D01*
X067977Y038224D01*
X067931Y038212D01*
X067883Y038203D01*
X067835Y038198D01*
X067787Y038197D01*
X067739Y038200D01*
X067691Y038207D01*
X067644Y038218D01*
X067598Y038232D01*
X067553Y038250D01*
X067510Y038272D01*
X067469Y038297D01*
X067431Y038326D01*
X067394Y038358D01*
X067360Y038392D01*
X067330Y038429D01*
X067302Y038468D01*
X067277Y038510D01*
X067257Y038554D01*
X067239Y038599D01*
X067226Y038645D01*
X067216Y038692D01*
X067210Y038740D01*
X067208Y038788D01*
X059315Y038788D02*
X059317Y038850D01*
X059323Y038913D01*
X059333Y038974D01*
X059347Y039035D01*
X059364Y039095D01*
X059385Y039154D01*
X059411Y039211D01*
X059439Y039266D01*
X059471Y039320D01*
X059507Y039371D01*
X059545Y039421D01*
X059587Y039467D01*
X059631Y039511D01*
X059679Y039552D01*
X059728Y039590D01*
X059780Y039624D01*
X059834Y039655D01*
X059890Y039683D01*
X059948Y039707D01*
X060007Y039728D01*
X060067Y039744D01*
X060128Y039757D01*
X060190Y039766D01*
X060252Y039771D01*
X060315Y039772D01*
X060377Y039769D01*
X060439Y039762D01*
X060501Y039751D01*
X060561Y039736D01*
X060621Y039718D01*
X060679Y039696D01*
X060736Y039670D01*
X060791Y039640D01*
X060844Y039607D01*
X060895Y039571D01*
X060943Y039532D01*
X060989Y039489D01*
X061032Y039444D01*
X061072Y039396D01*
X061109Y039346D01*
X061143Y039293D01*
X061174Y039239D01*
X061200Y039183D01*
X061224Y039125D01*
X061243Y039065D01*
X061259Y039005D01*
X061271Y038943D01*
X061279Y038882D01*
X061283Y038819D01*
X061283Y038757D01*
X061279Y038694D01*
X061271Y038633D01*
X061259Y038571D01*
X061243Y038511D01*
X061224Y038451D01*
X061200Y038393D01*
X061174Y038337D01*
X061143Y038283D01*
X061109Y038230D01*
X061072Y038180D01*
X061032Y038132D01*
X060989Y038087D01*
X060943Y038044D01*
X060895Y038005D01*
X060844Y037969D01*
X060791Y037936D01*
X060736Y037906D01*
X060679Y037880D01*
X060621Y037858D01*
X060561Y037840D01*
X060501Y037825D01*
X060439Y037814D01*
X060377Y037807D01*
X060315Y037804D01*
X060252Y037805D01*
X060190Y037810D01*
X060128Y037819D01*
X060067Y037832D01*
X060007Y037848D01*
X059948Y037869D01*
X059890Y037893D01*
X059834Y037921D01*
X059780Y037952D01*
X059728Y037986D01*
X059679Y038024D01*
X059631Y038065D01*
X059587Y038109D01*
X059545Y038155D01*
X059507Y038205D01*
X059471Y038256D01*
X059439Y038310D01*
X059411Y038365D01*
X059385Y038422D01*
X059364Y038481D01*
X059347Y038541D01*
X059333Y038602D01*
X059323Y038663D01*
X059317Y038726D01*
X059315Y038788D01*
X051815Y038788D02*
X051817Y038850D01*
X051823Y038913D01*
X051833Y038974D01*
X051847Y039035D01*
X051864Y039095D01*
X051885Y039154D01*
X051911Y039211D01*
X051939Y039266D01*
X051971Y039320D01*
X052007Y039371D01*
X052045Y039421D01*
X052087Y039467D01*
X052131Y039511D01*
X052179Y039552D01*
X052228Y039590D01*
X052280Y039624D01*
X052334Y039655D01*
X052390Y039683D01*
X052448Y039707D01*
X052507Y039728D01*
X052567Y039744D01*
X052628Y039757D01*
X052690Y039766D01*
X052752Y039771D01*
X052815Y039772D01*
X052877Y039769D01*
X052939Y039762D01*
X053001Y039751D01*
X053061Y039736D01*
X053121Y039718D01*
X053179Y039696D01*
X053236Y039670D01*
X053291Y039640D01*
X053344Y039607D01*
X053395Y039571D01*
X053443Y039532D01*
X053489Y039489D01*
X053532Y039444D01*
X053572Y039396D01*
X053609Y039346D01*
X053643Y039293D01*
X053674Y039239D01*
X053700Y039183D01*
X053724Y039125D01*
X053743Y039065D01*
X053759Y039005D01*
X053771Y038943D01*
X053779Y038882D01*
X053783Y038819D01*
X053783Y038757D01*
X053779Y038694D01*
X053771Y038633D01*
X053759Y038571D01*
X053743Y038511D01*
X053724Y038451D01*
X053700Y038393D01*
X053674Y038337D01*
X053643Y038283D01*
X053609Y038230D01*
X053572Y038180D01*
X053532Y038132D01*
X053489Y038087D01*
X053443Y038044D01*
X053395Y038005D01*
X053344Y037969D01*
X053291Y037936D01*
X053236Y037906D01*
X053179Y037880D01*
X053121Y037858D01*
X053061Y037840D01*
X053001Y037825D01*
X052939Y037814D01*
X052877Y037807D01*
X052815Y037804D01*
X052752Y037805D01*
X052690Y037810D01*
X052628Y037819D01*
X052567Y037832D01*
X052507Y037848D01*
X052448Y037869D01*
X052390Y037893D01*
X052334Y037921D01*
X052280Y037952D01*
X052228Y037986D01*
X052179Y038024D01*
X052131Y038065D01*
X052087Y038109D01*
X052045Y038155D01*
X052007Y038205D01*
X051971Y038256D01*
X051939Y038310D01*
X051911Y038365D01*
X051885Y038422D01*
X051864Y038481D01*
X051847Y038541D01*
X051833Y038602D01*
X051823Y038663D01*
X051817Y038726D01*
X051815Y038788D01*
X044315Y038788D02*
X044317Y038850D01*
X044323Y038913D01*
X044333Y038974D01*
X044347Y039035D01*
X044364Y039095D01*
X044385Y039154D01*
X044411Y039211D01*
X044439Y039266D01*
X044471Y039320D01*
X044507Y039371D01*
X044545Y039421D01*
X044587Y039467D01*
X044631Y039511D01*
X044679Y039552D01*
X044728Y039590D01*
X044780Y039624D01*
X044834Y039655D01*
X044890Y039683D01*
X044948Y039707D01*
X045007Y039728D01*
X045067Y039744D01*
X045128Y039757D01*
X045190Y039766D01*
X045252Y039771D01*
X045315Y039772D01*
X045377Y039769D01*
X045439Y039762D01*
X045501Y039751D01*
X045561Y039736D01*
X045621Y039718D01*
X045679Y039696D01*
X045736Y039670D01*
X045791Y039640D01*
X045844Y039607D01*
X045895Y039571D01*
X045943Y039532D01*
X045989Y039489D01*
X046032Y039444D01*
X046072Y039396D01*
X046109Y039346D01*
X046143Y039293D01*
X046174Y039239D01*
X046200Y039183D01*
X046224Y039125D01*
X046243Y039065D01*
X046259Y039005D01*
X046271Y038943D01*
X046279Y038882D01*
X046283Y038819D01*
X046283Y038757D01*
X046279Y038694D01*
X046271Y038633D01*
X046259Y038571D01*
X046243Y038511D01*
X046224Y038451D01*
X046200Y038393D01*
X046174Y038337D01*
X046143Y038283D01*
X046109Y038230D01*
X046072Y038180D01*
X046032Y038132D01*
X045989Y038087D01*
X045943Y038044D01*
X045895Y038005D01*
X045844Y037969D01*
X045791Y037936D01*
X045736Y037906D01*
X045679Y037880D01*
X045621Y037858D01*
X045561Y037840D01*
X045501Y037825D01*
X045439Y037814D01*
X045377Y037807D01*
X045315Y037804D01*
X045252Y037805D01*
X045190Y037810D01*
X045128Y037819D01*
X045067Y037832D01*
X045007Y037848D01*
X044948Y037869D01*
X044890Y037893D01*
X044834Y037921D01*
X044780Y037952D01*
X044728Y037986D01*
X044679Y038024D01*
X044631Y038065D01*
X044587Y038109D01*
X044545Y038155D01*
X044507Y038205D01*
X044471Y038256D01*
X044439Y038310D01*
X044411Y038365D01*
X044385Y038422D01*
X044364Y038481D01*
X044347Y038541D01*
X044333Y038602D01*
X044323Y038663D01*
X044317Y038726D01*
X044315Y038788D01*
X036815Y038788D02*
X036817Y038850D01*
X036823Y038913D01*
X036833Y038974D01*
X036847Y039035D01*
X036864Y039095D01*
X036885Y039154D01*
X036911Y039211D01*
X036939Y039266D01*
X036971Y039320D01*
X037007Y039371D01*
X037045Y039421D01*
X037087Y039467D01*
X037131Y039511D01*
X037179Y039552D01*
X037228Y039590D01*
X037280Y039624D01*
X037334Y039655D01*
X037390Y039683D01*
X037448Y039707D01*
X037507Y039728D01*
X037567Y039744D01*
X037628Y039757D01*
X037690Y039766D01*
X037752Y039771D01*
X037815Y039772D01*
X037877Y039769D01*
X037939Y039762D01*
X038001Y039751D01*
X038061Y039736D01*
X038121Y039718D01*
X038179Y039696D01*
X038236Y039670D01*
X038291Y039640D01*
X038344Y039607D01*
X038395Y039571D01*
X038443Y039532D01*
X038489Y039489D01*
X038532Y039444D01*
X038572Y039396D01*
X038609Y039346D01*
X038643Y039293D01*
X038674Y039239D01*
X038700Y039183D01*
X038724Y039125D01*
X038743Y039065D01*
X038759Y039005D01*
X038771Y038943D01*
X038779Y038882D01*
X038783Y038819D01*
X038783Y038757D01*
X038779Y038694D01*
X038771Y038633D01*
X038759Y038571D01*
X038743Y038511D01*
X038724Y038451D01*
X038700Y038393D01*
X038674Y038337D01*
X038643Y038283D01*
X038609Y038230D01*
X038572Y038180D01*
X038532Y038132D01*
X038489Y038087D01*
X038443Y038044D01*
X038395Y038005D01*
X038344Y037969D01*
X038291Y037936D01*
X038236Y037906D01*
X038179Y037880D01*
X038121Y037858D01*
X038061Y037840D01*
X038001Y037825D01*
X037939Y037814D01*
X037877Y037807D01*
X037815Y037804D01*
X037752Y037805D01*
X037690Y037810D01*
X037628Y037819D01*
X037567Y037832D01*
X037507Y037848D01*
X037448Y037869D01*
X037390Y037893D01*
X037334Y037921D01*
X037280Y037952D01*
X037228Y037986D01*
X037179Y038024D01*
X037131Y038065D01*
X037087Y038109D01*
X037045Y038155D01*
X037007Y038205D01*
X036971Y038256D01*
X036939Y038310D01*
X036911Y038365D01*
X036885Y038422D01*
X036864Y038481D01*
X036847Y038541D01*
X036833Y038602D01*
X036823Y038663D01*
X036817Y038726D01*
X036815Y038788D01*
X036815Y031288D02*
X036817Y031350D01*
X036823Y031413D01*
X036833Y031474D01*
X036847Y031535D01*
X036864Y031595D01*
X036885Y031654D01*
X036911Y031711D01*
X036939Y031766D01*
X036971Y031820D01*
X037007Y031871D01*
X037045Y031921D01*
X037087Y031967D01*
X037131Y032011D01*
X037179Y032052D01*
X037228Y032090D01*
X037280Y032124D01*
X037334Y032155D01*
X037390Y032183D01*
X037448Y032207D01*
X037507Y032228D01*
X037567Y032244D01*
X037628Y032257D01*
X037690Y032266D01*
X037752Y032271D01*
X037815Y032272D01*
X037877Y032269D01*
X037939Y032262D01*
X038001Y032251D01*
X038061Y032236D01*
X038121Y032218D01*
X038179Y032196D01*
X038236Y032170D01*
X038291Y032140D01*
X038344Y032107D01*
X038395Y032071D01*
X038443Y032032D01*
X038489Y031989D01*
X038532Y031944D01*
X038572Y031896D01*
X038609Y031846D01*
X038643Y031793D01*
X038674Y031739D01*
X038700Y031683D01*
X038724Y031625D01*
X038743Y031565D01*
X038759Y031505D01*
X038771Y031443D01*
X038779Y031382D01*
X038783Y031319D01*
X038783Y031257D01*
X038779Y031194D01*
X038771Y031133D01*
X038759Y031071D01*
X038743Y031011D01*
X038724Y030951D01*
X038700Y030893D01*
X038674Y030837D01*
X038643Y030783D01*
X038609Y030730D01*
X038572Y030680D01*
X038532Y030632D01*
X038489Y030587D01*
X038443Y030544D01*
X038395Y030505D01*
X038344Y030469D01*
X038291Y030436D01*
X038236Y030406D01*
X038179Y030380D01*
X038121Y030358D01*
X038061Y030340D01*
X038001Y030325D01*
X037939Y030314D01*
X037877Y030307D01*
X037815Y030304D01*
X037752Y030305D01*
X037690Y030310D01*
X037628Y030319D01*
X037567Y030332D01*
X037507Y030348D01*
X037448Y030369D01*
X037390Y030393D01*
X037334Y030421D01*
X037280Y030452D01*
X037228Y030486D01*
X037179Y030524D01*
X037131Y030565D01*
X037087Y030609D01*
X037045Y030655D01*
X037007Y030705D01*
X036971Y030756D01*
X036939Y030810D01*
X036911Y030865D01*
X036885Y030922D01*
X036864Y030981D01*
X036847Y031041D01*
X036833Y031102D01*
X036823Y031163D01*
X036817Y031226D01*
X036815Y031288D01*
X044315Y031288D02*
X044317Y031350D01*
X044323Y031413D01*
X044333Y031474D01*
X044347Y031535D01*
X044364Y031595D01*
X044385Y031654D01*
X044411Y031711D01*
X044439Y031766D01*
X044471Y031820D01*
X044507Y031871D01*
X044545Y031921D01*
X044587Y031967D01*
X044631Y032011D01*
X044679Y032052D01*
X044728Y032090D01*
X044780Y032124D01*
X044834Y032155D01*
X044890Y032183D01*
X044948Y032207D01*
X045007Y032228D01*
X045067Y032244D01*
X045128Y032257D01*
X045190Y032266D01*
X045252Y032271D01*
X045315Y032272D01*
X045377Y032269D01*
X045439Y032262D01*
X045501Y032251D01*
X045561Y032236D01*
X045621Y032218D01*
X045679Y032196D01*
X045736Y032170D01*
X045791Y032140D01*
X045844Y032107D01*
X045895Y032071D01*
X045943Y032032D01*
X045989Y031989D01*
X046032Y031944D01*
X046072Y031896D01*
X046109Y031846D01*
X046143Y031793D01*
X046174Y031739D01*
X046200Y031683D01*
X046224Y031625D01*
X046243Y031565D01*
X046259Y031505D01*
X046271Y031443D01*
X046279Y031382D01*
X046283Y031319D01*
X046283Y031257D01*
X046279Y031194D01*
X046271Y031133D01*
X046259Y031071D01*
X046243Y031011D01*
X046224Y030951D01*
X046200Y030893D01*
X046174Y030837D01*
X046143Y030783D01*
X046109Y030730D01*
X046072Y030680D01*
X046032Y030632D01*
X045989Y030587D01*
X045943Y030544D01*
X045895Y030505D01*
X045844Y030469D01*
X045791Y030436D01*
X045736Y030406D01*
X045679Y030380D01*
X045621Y030358D01*
X045561Y030340D01*
X045501Y030325D01*
X045439Y030314D01*
X045377Y030307D01*
X045315Y030304D01*
X045252Y030305D01*
X045190Y030310D01*
X045128Y030319D01*
X045067Y030332D01*
X045007Y030348D01*
X044948Y030369D01*
X044890Y030393D01*
X044834Y030421D01*
X044780Y030452D01*
X044728Y030486D01*
X044679Y030524D01*
X044631Y030565D01*
X044587Y030609D01*
X044545Y030655D01*
X044507Y030705D01*
X044471Y030756D01*
X044439Y030810D01*
X044411Y030865D01*
X044385Y030922D01*
X044364Y030981D01*
X044347Y031041D01*
X044333Y031102D01*
X044323Y031163D01*
X044317Y031226D01*
X044315Y031288D01*
X051815Y031288D02*
X051817Y031350D01*
X051823Y031413D01*
X051833Y031474D01*
X051847Y031535D01*
X051864Y031595D01*
X051885Y031654D01*
X051911Y031711D01*
X051939Y031766D01*
X051971Y031820D01*
X052007Y031871D01*
X052045Y031921D01*
X052087Y031967D01*
X052131Y032011D01*
X052179Y032052D01*
X052228Y032090D01*
X052280Y032124D01*
X052334Y032155D01*
X052390Y032183D01*
X052448Y032207D01*
X052507Y032228D01*
X052567Y032244D01*
X052628Y032257D01*
X052690Y032266D01*
X052752Y032271D01*
X052815Y032272D01*
X052877Y032269D01*
X052939Y032262D01*
X053001Y032251D01*
X053061Y032236D01*
X053121Y032218D01*
X053179Y032196D01*
X053236Y032170D01*
X053291Y032140D01*
X053344Y032107D01*
X053395Y032071D01*
X053443Y032032D01*
X053489Y031989D01*
X053532Y031944D01*
X053572Y031896D01*
X053609Y031846D01*
X053643Y031793D01*
X053674Y031739D01*
X053700Y031683D01*
X053724Y031625D01*
X053743Y031565D01*
X053759Y031505D01*
X053771Y031443D01*
X053779Y031382D01*
X053783Y031319D01*
X053783Y031257D01*
X053779Y031194D01*
X053771Y031133D01*
X053759Y031071D01*
X053743Y031011D01*
X053724Y030951D01*
X053700Y030893D01*
X053674Y030837D01*
X053643Y030783D01*
X053609Y030730D01*
X053572Y030680D01*
X053532Y030632D01*
X053489Y030587D01*
X053443Y030544D01*
X053395Y030505D01*
X053344Y030469D01*
X053291Y030436D01*
X053236Y030406D01*
X053179Y030380D01*
X053121Y030358D01*
X053061Y030340D01*
X053001Y030325D01*
X052939Y030314D01*
X052877Y030307D01*
X052815Y030304D01*
X052752Y030305D01*
X052690Y030310D01*
X052628Y030319D01*
X052567Y030332D01*
X052507Y030348D01*
X052448Y030369D01*
X052390Y030393D01*
X052334Y030421D01*
X052280Y030452D01*
X052228Y030486D01*
X052179Y030524D01*
X052131Y030565D01*
X052087Y030609D01*
X052045Y030655D01*
X052007Y030705D01*
X051971Y030756D01*
X051939Y030810D01*
X051911Y030865D01*
X051885Y030922D01*
X051864Y030981D01*
X051847Y031041D01*
X051833Y031102D01*
X051823Y031163D01*
X051817Y031226D01*
X051815Y031288D01*
X059315Y031288D02*
X059317Y031350D01*
X059323Y031413D01*
X059333Y031474D01*
X059347Y031535D01*
X059364Y031595D01*
X059385Y031654D01*
X059411Y031711D01*
X059439Y031766D01*
X059471Y031820D01*
X059507Y031871D01*
X059545Y031921D01*
X059587Y031967D01*
X059631Y032011D01*
X059679Y032052D01*
X059728Y032090D01*
X059780Y032124D01*
X059834Y032155D01*
X059890Y032183D01*
X059948Y032207D01*
X060007Y032228D01*
X060067Y032244D01*
X060128Y032257D01*
X060190Y032266D01*
X060252Y032271D01*
X060315Y032272D01*
X060377Y032269D01*
X060439Y032262D01*
X060501Y032251D01*
X060561Y032236D01*
X060621Y032218D01*
X060679Y032196D01*
X060736Y032170D01*
X060791Y032140D01*
X060844Y032107D01*
X060895Y032071D01*
X060943Y032032D01*
X060989Y031989D01*
X061032Y031944D01*
X061072Y031896D01*
X061109Y031846D01*
X061143Y031793D01*
X061174Y031739D01*
X061200Y031683D01*
X061224Y031625D01*
X061243Y031565D01*
X061259Y031505D01*
X061271Y031443D01*
X061279Y031382D01*
X061283Y031319D01*
X061283Y031257D01*
X061279Y031194D01*
X061271Y031133D01*
X061259Y031071D01*
X061243Y031011D01*
X061224Y030951D01*
X061200Y030893D01*
X061174Y030837D01*
X061143Y030783D01*
X061109Y030730D01*
X061072Y030680D01*
X061032Y030632D01*
X060989Y030587D01*
X060943Y030544D01*
X060895Y030505D01*
X060844Y030469D01*
X060791Y030436D01*
X060736Y030406D01*
X060679Y030380D01*
X060621Y030358D01*
X060561Y030340D01*
X060501Y030325D01*
X060439Y030314D01*
X060377Y030307D01*
X060315Y030304D01*
X060252Y030305D01*
X060190Y030310D01*
X060128Y030319D01*
X060067Y030332D01*
X060007Y030348D01*
X059948Y030369D01*
X059890Y030393D01*
X059834Y030421D01*
X059780Y030452D01*
X059728Y030486D01*
X059679Y030524D01*
X059631Y030565D01*
X059587Y030609D01*
X059545Y030655D01*
X059507Y030705D01*
X059471Y030756D01*
X059439Y030810D01*
X059411Y030865D01*
X059385Y030922D01*
X059364Y030981D01*
X059347Y031041D01*
X059333Y031102D01*
X059323Y031163D01*
X059317Y031226D01*
X059315Y031288D01*
X067208Y031288D02*
X067210Y031336D01*
X067216Y031384D01*
X067226Y031431D01*
X067239Y031477D01*
X067257Y031522D01*
X067277Y031566D01*
X067302Y031608D01*
X067330Y031647D01*
X067360Y031684D01*
X067394Y031718D01*
X067431Y031750D01*
X067469Y031779D01*
X067510Y031804D01*
X067553Y031826D01*
X067598Y031844D01*
X067644Y031858D01*
X067691Y031869D01*
X067739Y031876D01*
X067787Y031879D01*
X067835Y031878D01*
X067883Y031873D01*
X067931Y031864D01*
X067977Y031852D01*
X068022Y031835D01*
X068066Y031815D01*
X068108Y031792D01*
X068148Y031765D01*
X068186Y031735D01*
X068221Y031702D01*
X068253Y031666D01*
X068283Y031628D01*
X068309Y031587D01*
X068331Y031544D01*
X068351Y031500D01*
X068366Y031455D01*
X068378Y031408D01*
X068386Y031360D01*
X068390Y031312D01*
X068390Y031264D01*
X068386Y031216D01*
X068378Y031168D01*
X068366Y031121D01*
X068351Y031076D01*
X068331Y031032D01*
X068309Y030989D01*
X068283Y030948D01*
X068253Y030910D01*
X068221Y030874D01*
X068186Y030841D01*
X068148Y030811D01*
X068108Y030784D01*
X068066Y030761D01*
X068022Y030741D01*
X067977Y030724D01*
X067931Y030712D01*
X067883Y030703D01*
X067835Y030698D01*
X067787Y030697D01*
X067739Y030700D01*
X067691Y030707D01*
X067644Y030718D01*
X067598Y030732D01*
X067553Y030750D01*
X067510Y030772D01*
X067469Y030797D01*
X067431Y030826D01*
X067394Y030858D01*
X067360Y030892D01*
X067330Y030929D01*
X067302Y030968D01*
X067277Y031010D01*
X067257Y031054D01*
X067239Y031099D01*
X067226Y031145D01*
X067216Y031192D01*
X067210Y031240D01*
X067208Y031288D01*
X067208Y023788D02*
X067210Y023836D01*
X067216Y023884D01*
X067226Y023931D01*
X067239Y023977D01*
X067257Y024022D01*
X067277Y024066D01*
X067302Y024108D01*
X067330Y024147D01*
X067360Y024184D01*
X067394Y024218D01*
X067431Y024250D01*
X067469Y024279D01*
X067510Y024304D01*
X067553Y024326D01*
X067598Y024344D01*
X067644Y024358D01*
X067691Y024369D01*
X067739Y024376D01*
X067787Y024379D01*
X067835Y024378D01*
X067883Y024373D01*
X067931Y024364D01*
X067977Y024352D01*
X068022Y024335D01*
X068066Y024315D01*
X068108Y024292D01*
X068148Y024265D01*
X068186Y024235D01*
X068221Y024202D01*
X068253Y024166D01*
X068283Y024128D01*
X068309Y024087D01*
X068331Y024044D01*
X068351Y024000D01*
X068366Y023955D01*
X068378Y023908D01*
X068386Y023860D01*
X068390Y023812D01*
X068390Y023764D01*
X068386Y023716D01*
X068378Y023668D01*
X068366Y023621D01*
X068351Y023576D01*
X068331Y023532D01*
X068309Y023489D01*
X068283Y023448D01*
X068253Y023410D01*
X068221Y023374D01*
X068186Y023341D01*
X068148Y023311D01*
X068108Y023284D01*
X068066Y023261D01*
X068022Y023241D01*
X067977Y023224D01*
X067931Y023212D01*
X067883Y023203D01*
X067835Y023198D01*
X067787Y023197D01*
X067739Y023200D01*
X067691Y023207D01*
X067644Y023218D01*
X067598Y023232D01*
X067553Y023250D01*
X067510Y023272D01*
X067469Y023297D01*
X067431Y023326D01*
X067394Y023358D01*
X067360Y023392D01*
X067330Y023429D01*
X067302Y023468D01*
X067277Y023510D01*
X067257Y023554D01*
X067239Y023599D01*
X067226Y023645D01*
X067216Y023692D01*
X067210Y023740D01*
X067208Y023788D01*
X059315Y023788D02*
X059317Y023850D01*
X059323Y023913D01*
X059333Y023974D01*
X059347Y024035D01*
X059364Y024095D01*
X059385Y024154D01*
X059411Y024211D01*
X059439Y024266D01*
X059471Y024320D01*
X059507Y024371D01*
X059545Y024421D01*
X059587Y024467D01*
X059631Y024511D01*
X059679Y024552D01*
X059728Y024590D01*
X059780Y024624D01*
X059834Y024655D01*
X059890Y024683D01*
X059948Y024707D01*
X060007Y024728D01*
X060067Y024744D01*
X060128Y024757D01*
X060190Y024766D01*
X060252Y024771D01*
X060315Y024772D01*
X060377Y024769D01*
X060439Y024762D01*
X060501Y024751D01*
X060561Y024736D01*
X060621Y024718D01*
X060679Y024696D01*
X060736Y024670D01*
X060791Y024640D01*
X060844Y024607D01*
X060895Y024571D01*
X060943Y024532D01*
X060989Y024489D01*
X061032Y024444D01*
X061072Y024396D01*
X061109Y024346D01*
X061143Y024293D01*
X061174Y024239D01*
X061200Y024183D01*
X061224Y024125D01*
X061243Y024065D01*
X061259Y024005D01*
X061271Y023943D01*
X061279Y023882D01*
X061283Y023819D01*
X061283Y023757D01*
X061279Y023694D01*
X061271Y023633D01*
X061259Y023571D01*
X061243Y023511D01*
X061224Y023451D01*
X061200Y023393D01*
X061174Y023337D01*
X061143Y023283D01*
X061109Y023230D01*
X061072Y023180D01*
X061032Y023132D01*
X060989Y023087D01*
X060943Y023044D01*
X060895Y023005D01*
X060844Y022969D01*
X060791Y022936D01*
X060736Y022906D01*
X060679Y022880D01*
X060621Y022858D01*
X060561Y022840D01*
X060501Y022825D01*
X060439Y022814D01*
X060377Y022807D01*
X060315Y022804D01*
X060252Y022805D01*
X060190Y022810D01*
X060128Y022819D01*
X060067Y022832D01*
X060007Y022848D01*
X059948Y022869D01*
X059890Y022893D01*
X059834Y022921D01*
X059780Y022952D01*
X059728Y022986D01*
X059679Y023024D01*
X059631Y023065D01*
X059587Y023109D01*
X059545Y023155D01*
X059507Y023205D01*
X059471Y023256D01*
X059439Y023310D01*
X059411Y023365D01*
X059385Y023422D01*
X059364Y023481D01*
X059347Y023541D01*
X059333Y023602D01*
X059323Y023663D01*
X059317Y023726D01*
X059315Y023788D01*
X051815Y023788D02*
X051817Y023850D01*
X051823Y023913D01*
X051833Y023974D01*
X051847Y024035D01*
X051864Y024095D01*
X051885Y024154D01*
X051911Y024211D01*
X051939Y024266D01*
X051971Y024320D01*
X052007Y024371D01*
X052045Y024421D01*
X052087Y024467D01*
X052131Y024511D01*
X052179Y024552D01*
X052228Y024590D01*
X052280Y024624D01*
X052334Y024655D01*
X052390Y024683D01*
X052448Y024707D01*
X052507Y024728D01*
X052567Y024744D01*
X052628Y024757D01*
X052690Y024766D01*
X052752Y024771D01*
X052815Y024772D01*
X052877Y024769D01*
X052939Y024762D01*
X053001Y024751D01*
X053061Y024736D01*
X053121Y024718D01*
X053179Y024696D01*
X053236Y024670D01*
X053291Y024640D01*
X053344Y024607D01*
X053395Y024571D01*
X053443Y024532D01*
X053489Y024489D01*
X053532Y024444D01*
X053572Y024396D01*
X053609Y024346D01*
X053643Y024293D01*
X053674Y024239D01*
X053700Y024183D01*
X053724Y024125D01*
X053743Y024065D01*
X053759Y024005D01*
X053771Y023943D01*
X053779Y023882D01*
X053783Y023819D01*
X053783Y023757D01*
X053779Y023694D01*
X053771Y023633D01*
X053759Y023571D01*
X053743Y023511D01*
X053724Y023451D01*
X053700Y023393D01*
X053674Y023337D01*
X053643Y023283D01*
X053609Y023230D01*
X053572Y023180D01*
X053532Y023132D01*
X053489Y023087D01*
X053443Y023044D01*
X053395Y023005D01*
X053344Y022969D01*
X053291Y022936D01*
X053236Y022906D01*
X053179Y022880D01*
X053121Y022858D01*
X053061Y022840D01*
X053001Y022825D01*
X052939Y022814D01*
X052877Y022807D01*
X052815Y022804D01*
X052752Y022805D01*
X052690Y022810D01*
X052628Y022819D01*
X052567Y022832D01*
X052507Y022848D01*
X052448Y022869D01*
X052390Y022893D01*
X052334Y022921D01*
X052280Y022952D01*
X052228Y022986D01*
X052179Y023024D01*
X052131Y023065D01*
X052087Y023109D01*
X052045Y023155D01*
X052007Y023205D01*
X051971Y023256D01*
X051939Y023310D01*
X051911Y023365D01*
X051885Y023422D01*
X051864Y023481D01*
X051847Y023541D01*
X051833Y023602D01*
X051823Y023663D01*
X051817Y023726D01*
X051815Y023788D01*
X044315Y023788D02*
X044317Y023850D01*
X044323Y023913D01*
X044333Y023974D01*
X044347Y024035D01*
X044364Y024095D01*
X044385Y024154D01*
X044411Y024211D01*
X044439Y024266D01*
X044471Y024320D01*
X044507Y024371D01*
X044545Y024421D01*
X044587Y024467D01*
X044631Y024511D01*
X044679Y024552D01*
X044728Y024590D01*
X044780Y024624D01*
X044834Y024655D01*
X044890Y024683D01*
X044948Y024707D01*
X045007Y024728D01*
X045067Y024744D01*
X045128Y024757D01*
X045190Y024766D01*
X045252Y024771D01*
X045315Y024772D01*
X045377Y024769D01*
X045439Y024762D01*
X045501Y024751D01*
X045561Y024736D01*
X045621Y024718D01*
X045679Y024696D01*
X045736Y024670D01*
X045791Y024640D01*
X045844Y024607D01*
X045895Y024571D01*
X045943Y024532D01*
X045989Y024489D01*
X046032Y024444D01*
X046072Y024396D01*
X046109Y024346D01*
X046143Y024293D01*
X046174Y024239D01*
X046200Y024183D01*
X046224Y024125D01*
X046243Y024065D01*
X046259Y024005D01*
X046271Y023943D01*
X046279Y023882D01*
X046283Y023819D01*
X046283Y023757D01*
X046279Y023694D01*
X046271Y023633D01*
X046259Y023571D01*
X046243Y023511D01*
X046224Y023451D01*
X046200Y023393D01*
X046174Y023337D01*
X046143Y023283D01*
X046109Y023230D01*
X046072Y023180D01*
X046032Y023132D01*
X045989Y023087D01*
X045943Y023044D01*
X045895Y023005D01*
X045844Y022969D01*
X045791Y022936D01*
X045736Y022906D01*
X045679Y022880D01*
X045621Y022858D01*
X045561Y022840D01*
X045501Y022825D01*
X045439Y022814D01*
X045377Y022807D01*
X045315Y022804D01*
X045252Y022805D01*
X045190Y022810D01*
X045128Y022819D01*
X045067Y022832D01*
X045007Y022848D01*
X044948Y022869D01*
X044890Y022893D01*
X044834Y022921D01*
X044780Y022952D01*
X044728Y022986D01*
X044679Y023024D01*
X044631Y023065D01*
X044587Y023109D01*
X044545Y023155D01*
X044507Y023205D01*
X044471Y023256D01*
X044439Y023310D01*
X044411Y023365D01*
X044385Y023422D01*
X044364Y023481D01*
X044347Y023541D01*
X044333Y023602D01*
X044323Y023663D01*
X044317Y023726D01*
X044315Y023788D01*
X036815Y023788D02*
X036817Y023850D01*
X036823Y023913D01*
X036833Y023974D01*
X036847Y024035D01*
X036864Y024095D01*
X036885Y024154D01*
X036911Y024211D01*
X036939Y024266D01*
X036971Y024320D01*
X037007Y024371D01*
X037045Y024421D01*
X037087Y024467D01*
X037131Y024511D01*
X037179Y024552D01*
X037228Y024590D01*
X037280Y024624D01*
X037334Y024655D01*
X037390Y024683D01*
X037448Y024707D01*
X037507Y024728D01*
X037567Y024744D01*
X037628Y024757D01*
X037690Y024766D01*
X037752Y024771D01*
X037815Y024772D01*
X037877Y024769D01*
X037939Y024762D01*
X038001Y024751D01*
X038061Y024736D01*
X038121Y024718D01*
X038179Y024696D01*
X038236Y024670D01*
X038291Y024640D01*
X038344Y024607D01*
X038395Y024571D01*
X038443Y024532D01*
X038489Y024489D01*
X038532Y024444D01*
X038572Y024396D01*
X038609Y024346D01*
X038643Y024293D01*
X038674Y024239D01*
X038700Y024183D01*
X038724Y024125D01*
X038743Y024065D01*
X038759Y024005D01*
X038771Y023943D01*
X038779Y023882D01*
X038783Y023819D01*
X038783Y023757D01*
X038779Y023694D01*
X038771Y023633D01*
X038759Y023571D01*
X038743Y023511D01*
X038724Y023451D01*
X038700Y023393D01*
X038674Y023337D01*
X038643Y023283D01*
X038609Y023230D01*
X038572Y023180D01*
X038532Y023132D01*
X038489Y023087D01*
X038443Y023044D01*
X038395Y023005D01*
X038344Y022969D01*
X038291Y022936D01*
X038236Y022906D01*
X038179Y022880D01*
X038121Y022858D01*
X038061Y022840D01*
X038001Y022825D01*
X037939Y022814D01*
X037877Y022807D01*
X037815Y022804D01*
X037752Y022805D01*
X037690Y022810D01*
X037628Y022819D01*
X037567Y022832D01*
X037507Y022848D01*
X037448Y022869D01*
X037390Y022893D01*
X037334Y022921D01*
X037280Y022952D01*
X037228Y022986D01*
X037179Y023024D01*
X037131Y023065D01*
X037087Y023109D01*
X037045Y023155D01*
X037007Y023205D01*
X036971Y023256D01*
X036939Y023310D01*
X036911Y023365D01*
X036885Y023422D01*
X036864Y023481D01*
X036847Y023541D01*
X036833Y023602D01*
X036823Y023663D01*
X036817Y023726D01*
X036815Y023788D01*
X034315Y016288D02*
X034317Y016350D01*
X034323Y016413D01*
X034333Y016474D01*
X034347Y016535D01*
X034364Y016595D01*
X034385Y016654D01*
X034411Y016711D01*
X034439Y016766D01*
X034471Y016820D01*
X034507Y016871D01*
X034545Y016921D01*
X034587Y016967D01*
X034631Y017011D01*
X034679Y017052D01*
X034728Y017090D01*
X034780Y017124D01*
X034834Y017155D01*
X034890Y017183D01*
X034948Y017207D01*
X035007Y017228D01*
X035067Y017244D01*
X035128Y017257D01*
X035190Y017266D01*
X035252Y017271D01*
X035315Y017272D01*
X035377Y017269D01*
X035439Y017262D01*
X035501Y017251D01*
X035561Y017236D01*
X035621Y017218D01*
X035679Y017196D01*
X035736Y017170D01*
X035791Y017140D01*
X035844Y017107D01*
X035895Y017071D01*
X035943Y017032D01*
X035989Y016989D01*
X036032Y016944D01*
X036072Y016896D01*
X036109Y016846D01*
X036143Y016793D01*
X036174Y016739D01*
X036200Y016683D01*
X036224Y016625D01*
X036243Y016565D01*
X036259Y016505D01*
X036271Y016443D01*
X036279Y016382D01*
X036283Y016319D01*
X036283Y016257D01*
X036279Y016194D01*
X036271Y016133D01*
X036259Y016071D01*
X036243Y016011D01*
X036224Y015951D01*
X036200Y015893D01*
X036174Y015837D01*
X036143Y015783D01*
X036109Y015730D01*
X036072Y015680D01*
X036032Y015632D01*
X035989Y015587D01*
X035943Y015544D01*
X035895Y015505D01*
X035844Y015469D01*
X035791Y015436D01*
X035736Y015406D01*
X035679Y015380D01*
X035621Y015358D01*
X035561Y015340D01*
X035501Y015325D01*
X035439Y015314D01*
X035377Y015307D01*
X035315Y015304D01*
X035252Y015305D01*
X035190Y015310D01*
X035128Y015319D01*
X035067Y015332D01*
X035007Y015348D01*
X034948Y015369D01*
X034890Y015393D01*
X034834Y015421D01*
X034780Y015452D01*
X034728Y015486D01*
X034679Y015524D01*
X034631Y015565D01*
X034587Y015609D01*
X034545Y015655D01*
X034507Y015705D01*
X034471Y015756D01*
X034439Y015810D01*
X034411Y015865D01*
X034385Y015922D01*
X034364Y015981D01*
X034347Y016041D01*
X034333Y016102D01*
X034323Y016163D01*
X034317Y016226D01*
X034315Y016288D01*
X043440Y016288D02*
X043442Y016350D01*
X043448Y016413D01*
X043458Y016474D01*
X043472Y016535D01*
X043489Y016595D01*
X043510Y016654D01*
X043536Y016711D01*
X043564Y016766D01*
X043596Y016820D01*
X043632Y016871D01*
X043670Y016921D01*
X043712Y016967D01*
X043756Y017011D01*
X043804Y017052D01*
X043853Y017090D01*
X043905Y017124D01*
X043959Y017155D01*
X044015Y017183D01*
X044073Y017207D01*
X044132Y017228D01*
X044192Y017244D01*
X044253Y017257D01*
X044315Y017266D01*
X044377Y017271D01*
X044440Y017272D01*
X044502Y017269D01*
X044564Y017262D01*
X044626Y017251D01*
X044686Y017236D01*
X044746Y017218D01*
X044804Y017196D01*
X044861Y017170D01*
X044916Y017140D01*
X044969Y017107D01*
X045020Y017071D01*
X045068Y017032D01*
X045114Y016989D01*
X045157Y016944D01*
X045197Y016896D01*
X045234Y016846D01*
X045268Y016793D01*
X045299Y016739D01*
X045325Y016683D01*
X045349Y016625D01*
X045368Y016565D01*
X045384Y016505D01*
X045396Y016443D01*
X045404Y016382D01*
X045408Y016319D01*
X045408Y016257D01*
X045404Y016194D01*
X045396Y016133D01*
X045384Y016071D01*
X045368Y016011D01*
X045349Y015951D01*
X045325Y015893D01*
X045299Y015837D01*
X045268Y015783D01*
X045234Y015730D01*
X045197Y015680D01*
X045157Y015632D01*
X045114Y015587D01*
X045068Y015544D01*
X045020Y015505D01*
X044969Y015469D01*
X044916Y015436D01*
X044861Y015406D01*
X044804Y015380D01*
X044746Y015358D01*
X044686Y015340D01*
X044626Y015325D01*
X044564Y015314D01*
X044502Y015307D01*
X044440Y015304D01*
X044377Y015305D01*
X044315Y015310D01*
X044253Y015319D01*
X044192Y015332D01*
X044132Y015348D01*
X044073Y015369D01*
X044015Y015393D01*
X043959Y015421D01*
X043905Y015452D01*
X043853Y015486D01*
X043804Y015524D01*
X043756Y015565D01*
X043712Y015609D01*
X043670Y015655D01*
X043632Y015705D01*
X043596Y015756D01*
X043564Y015810D01*
X043536Y015865D01*
X043510Y015922D01*
X043489Y015981D01*
X043472Y016041D01*
X043458Y016102D01*
X043448Y016163D01*
X043442Y016226D01*
X043440Y016288D01*
X051815Y016288D02*
X051817Y016350D01*
X051823Y016413D01*
X051833Y016474D01*
X051847Y016535D01*
X051864Y016595D01*
X051885Y016654D01*
X051911Y016711D01*
X051939Y016766D01*
X051971Y016820D01*
X052007Y016871D01*
X052045Y016921D01*
X052087Y016967D01*
X052131Y017011D01*
X052179Y017052D01*
X052228Y017090D01*
X052280Y017124D01*
X052334Y017155D01*
X052390Y017183D01*
X052448Y017207D01*
X052507Y017228D01*
X052567Y017244D01*
X052628Y017257D01*
X052690Y017266D01*
X052752Y017271D01*
X052815Y017272D01*
X052877Y017269D01*
X052939Y017262D01*
X053001Y017251D01*
X053061Y017236D01*
X053121Y017218D01*
X053179Y017196D01*
X053236Y017170D01*
X053291Y017140D01*
X053344Y017107D01*
X053395Y017071D01*
X053443Y017032D01*
X053489Y016989D01*
X053532Y016944D01*
X053572Y016896D01*
X053609Y016846D01*
X053643Y016793D01*
X053674Y016739D01*
X053700Y016683D01*
X053724Y016625D01*
X053743Y016565D01*
X053759Y016505D01*
X053771Y016443D01*
X053779Y016382D01*
X053783Y016319D01*
X053783Y016257D01*
X053779Y016194D01*
X053771Y016133D01*
X053759Y016071D01*
X053743Y016011D01*
X053724Y015951D01*
X053700Y015893D01*
X053674Y015837D01*
X053643Y015783D01*
X053609Y015730D01*
X053572Y015680D01*
X053532Y015632D01*
X053489Y015587D01*
X053443Y015544D01*
X053395Y015505D01*
X053344Y015469D01*
X053291Y015436D01*
X053236Y015406D01*
X053179Y015380D01*
X053121Y015358D01*
X053061Y015340D01*
X053001Y015325D01*
X052939Y015314D01*
X052877Y015307D01*
X052815Y015304D01*
X052752Y015305D01*
X052690Y015310D01*
X052628Y015319D01*
X052567Y015332D01*
X052507Y015348D01*
X052448Y015369D01*
X052390Y015393D01*
X052334Y015421D01*
X052280Y015452D01*
X052228Y015486D01*
X052179Y015524D01*
X052131Y015565D01*
X052087Y015609D01*
X052045Y015655D01*
X052007Y015705D01*
X051971Y015756D01*
X051939Y015810D01*
X051911Y015865D01*
X051885Y015922D01*
X051864Y015981D01*
X051847Y016041D01*
X051833Y016102D01*
X051823Y016163D01*
X051817Y016226D01*
X051815Y016288D01*
X059315Y016663D02*
X059317Y016725D01*
X059323Y016788D01*
X059333Y016849D01*
X059347Y016910D01*
X059364Y016970D01*
X059385Y017029D01*
X059411Y017086D01*
X059439Y017141D01*
X059471Y017195D01*
X059507Y017246D01*
X059545Y017296D01*
X059587Y017342D01*
X059631Y017386D01*
X059679Y017427D01*
X059728Y017465D01*
X059780Y017499D01*
X059834Y017530D01*
X059890Y017558D01*
X059948Y017582D01*
X060007Y017603D01*
X060067Y017619D01*
X060128Y017632D01*
X060190Y017641D01*
X060252Y017646D01*
X060315Y017647D01*
X060377Y017644D01*
X060439Y017637D01*
X060501Y017626D01*
X060561Y017611D01*
X060621Y017593D01*
X060679Y017571D01*
X060736Y017545D01*
X060791Y017515D01*
X060844Y017482D01*
X060895Y017446D01*
X060943Y017407D01*
X060989Y017364D01*
X061032Y017319D01*
X061072Y017271D01*
X061109Y017221D01*
X061143Y017168D01*
X061174Y017114D01*
X061200Y017058D01*
X061224Y017000D01*
X061243Y016940D01*
X061259Y016880D01*
X061271Y016818D01*
X061279Y016757D01*
X061283Y016694D01*
X061283Y016632D01*
X061279Y016569D01*
X061271Y016508D01*
X061259Y016446D01*
X061243Y016386D01*
X061224Y016326D01*
X061200Y016268D01*
X061174Y016212D01*
X061143Y016158D01*
X061109Y016105D01*
X061072Y016055D01*
X061032Y016007D01*
X060989Y015962D01*
X060943Y015919D01*
X060895Y015880D01*
X060844Y015844D01*
X060791Y015811D01*
X060736Y015781D01*
X060679Y015755D01*
X060621Y015733D01*
X060561Y015715D01*
X060501Y015700D01*
X060439Y015689D01*
X060377Y015682D01*
X060315Y015679D01*
X060252Y015680D01*
X060190Y015685D01*
X060128Y015694D01*
X060067Y015707D01*
X060007Y015723D01*
X059948Y015744D01*
X059890Y015768D01*
X059834Y015796D01*
X059780Y015827D01*
X059728Y015861D01*
X059679Y015899D01*
X059631Y015940D01*
X059587Y015984D01*
X059545Y016030D01*
X059507Y016080D01*
X059471Y016131D01*
X059439Y016185D01*
X059411Y016240D01*
X059385Y016297D01*
X059364Y016356D01*
X059347Y016416D01*
X059333Y016477D01*
X059323Y016538D01*
X059317Y016601D01*
X059315Y016663D01*
X067208Y016288D02*
X067210Y016336D01*
X067216Y016384D01*
X067226Y016431D01*
X067239Y016477D01*
X067257Y016522D01*
X067277Y016566D01*
X067302Y016608D01*
X067330Y016647D01*
X067360Y016684D01*
X067394Y016718D01*
X067431Y016750D01*
X067469Y016779D01*
X067510Y016804D01*
X067553Y016826D01*
X067598Y016844D01*
X067644Y016858D01*
X067691Y016869D01*
X067739Y016876D01*
X067787Y016879D01*
X067835Y016878D01*
X067883Y016873D01*
X067931Y016864D01*
X067977Y016852D01*
X068022Y016835D01*
X068066Y016815D01*
X068108Y016792D01*
X068148Y016765D01*
X068186Y016735D01*
X068221Y016702D01*
X068253Y016666D01*
X068283Y016628D01*
X068309Y016587D01*
X068331Y016544D01*
X068351Y016500D01*
X068366Y016455D01*
X068378Y016408D01*
X068386Y016360D01*
X068390Y016312D01*
X068390Y016264D01*
X068386Y016216D01*
X068378Y016168D01*
X068366Y016121D01*
X068351Y016076D01*
X068331Y016032D01*
X068309Y015989D01*
X068283Y015948D01*
X068253Y015910D01*
X068221Y015874D01*
X068186Y015841D01*
X068148Y015811D01*
X068108Y015784D01*
X068066Y015761D01*
X068022Y015741D01*
X067977Y015724D01*
X067931Y015712D01*
X067883Y015703D01*
X067835Y015698D01*
X067787Y015697D01*
X067739Y015700D01*
X067691Y015707D01*
X067644Y015718D01*
X067598Y015732D01*
X067553Y015750D01*
X067510Y015772D01*
X067469Y015797D01*
X067431Y015826D01*
X067394Y015858D01*
X067360Y015892D01*
X067330Y015929D01*
X067302Y015968D01*
X067277Y016010D01*
X067257Y016054D01*
X067239Y016099D01*
X067226Y016145D01*
X067216Y016192D01*
X067210Y016240D01*
X067208Y016288D01*
X082458Y016288D02*
X082460Y016336D01*
X082466Y016384D01*
X082476Y016431D01*
X082489Y016477D01*
X082507Y016522D01*
X082527Y016566D01*
X082552Y016608D01*
X082580Y016647D01*
X082610Y016684D01*
X082644Y016718D01*
X082681Y016750D01*
X082719Y016779D01*
X082760Y016804D01*
X082803Y016826D01*
X082848Y016844D01*
X082894Y016858D01*
X082941Y016869D01*
X082989Y016876D01*
X083037Y016879D01*
X083085Y016878D01*
X083133Y016873D01*
X083181Y016864D01*
X083227Y016852D01*
X083272Y016835D01*
X083316Y016815D01*
X083358Y016792D01*
X083398Y016765D01*
X083436Y016735D01*
X083471Y016702D01*
X083503Y016666D01*
X083533Y016628D01*
X083559Y016587D01*
X083581Y016544D01*
X083601Y016500D01*
X083616Y016455D01*
X083628Y016408D01*
X083636Y016360D01*
X083640Y016312D01*
X083640Y016264D01*
X083636Y016216D01*
X083628Y016168D01*
X083616Y016121D01*
X083601Y016076D01*
X083581Y016032D01*
X083559Y015989D01*
X083533Y015948D01*
X083503Y015910D01*
X083471Y015874D01*
X083436Y015841D01*
X083398Y015811D01*
X083358Y015784D01*
X083316Y015761D01*
X083272Y015741D01*
X083227Y015724D01*
X083181Y015712D01*
X083133Y015703D01*
X083085Y015698D01*
X083037Y015697D01*
X082989Y015700D01*
X082941Y015707D01*
X082894Y015718D01*
X082848Y015732D01*
X082803Y015750D01*
X082760Y015772D01*
X082719Y015797D01*
X082681Y015826D01*
X082644Y015858D01*
X082610Y015892D01*
X082580Y015929D01*
X082552Y015968D01*
X082527Y016010D01*
X082507Y016054D01*
X082489Y016099D01*
X082476Y016145D01*
X082466Y016192D01*
X082460Y016240D01*
X082458Y016288D01*
X089565Y016288D02*
X089567Y016350D01*
X089573Y016413D01*
X089583Y016474D01*
X089597Y016535D01*
X089614Y016595D01*
X089635Y016654D01*
X089661Y016711D01*
X089689Y016766D01*
X089721Y016820D01*
X089757Y016871D01*
X089795Y016921D01*
X089837Y016967D01*
X089881Y017011D01*
X089929Y017052D01*
X089978Y017090D01*
X090030Y017124D01*
X090084Y017155D01*
X090140Y017183D01*
X090198Y017207D01*
X090257Y017228D01*
X090317Y017244D01*
X090378Y017257D01*
X090440Y017266D01*
X090502Y017271D01*
X090565Y017272D01*
X090627Y017269D01*
X090689Y017262D01*
X090751Y017251D01*
X090811Y017236D01*
X090871Y017218D01*
X090929Y017196D01*
X090986Y017170D01*
X091041Y017140D01*
X091094Y017107D01*
X091145Y017071D01*
X091193Y017032D01*
X091239Y016989D01*
X091282Y016944D01*
X091322Y016896D01*
X091359Y016846D01*
X091393Y016793D01*
X091424Y016739D01*
X091450Y016683D01*
X091474Y016625D01*
X091493Y016565D01*
X091509Y016505D01*
X091521Y016443D01*
X091529Y016382D01*
X091533Y016319D01*
X091533Y016257D01*
X091529Y016194D01*
X091521Y016133D01*
X091509Y016071D01*
X091493Y016011D01*
X091474Y015951D01*
X091450Y015893D01*
X091424Y015837D01*
X091393Y015783D01*
X091359Y015730D01*
X091322Y015680D01*
X091282Y015632D01*
X091239Y015587D01*
X091193Y015544D01*
X091145Y015505D01*
X091094Y015469D01*
X091041Y015436D01*
X090986Y015406D01*
X090929Y015380D01*
X090871Y015358D01*
X090811Y015340D01*
X090751Y015325D01*
X090689Y015314D01*
X090627Y015307D01*
X090565Y015304D01*
X090502Y015305D01*
X090440Y015310D01*
X090378Y015319D01*
X090317Y015332D01*
X090257Y015348D01*
X090198Y015369D01*
X090140Y015393D01*
X090084Y015421D01*
X090030Y015452D01*
X089978Y015486D01*
X089929Y015524D01*
X089881Y015565D01*
X089837Y015609D01*
X089795Y015655D01*
X089757Y015705D01*
X089721Y015756D01*
X089689Y015810D01*
X089661Y015865D01*
X089635Y015922D01*
X089614Y015981D01*
X089597Y016041D01*
X089583Y016102D01*
X089573Y016163D01*
X089567Y016226D01*
X089565Y016288D01*
X096815Y016538D02*
X096817Y016600D01*
X096823Y016663D01*
X096833Y016724D01*
X096847Y016785D01*
X096864Y016845D01*
X096885Y016904D01*
X096911Y016961D01*
X096939Y017016D01*
X096971Y017070D01*
X097007Y017121D01*
X097045Y017171D01*
X097087Y017217D01*
X097131Y017261D01*
X097179Y017302D01*
X097228Y017340D01*
X097280Y017374D01*
X097334Y017405D01*
X097390Y017433D01*
X097448Y017457D01*
X097507Y017478D01*
X097567Y017494D01*
X097628Y017507D01*
X097690Y017516D01*
X097752Y017521D01*
X097815Y017522D01*
X097877Y017519D01*
X097939Y017512D01*
X098001Y017501D01*
X098061Y017486D01*
X098121Y017468D01*
X098179Y017446D01*
X098236Y017420D01*
X098291Y017390D01*
X098344Y017357D01*
X098395Y017321D01*
X098443Y017282D01*
X098489Y017239D01*
X098532Y017194D01*
X098572Y017146D01*
X098609Y017096D01*
X098643Y017043D01*
X098674Y016989D01*
X098700Y016933D01*
X098724Y016875D01*
X098743Y016815D01*
X098759Y016755D01*
X098771Y016693D01*
X098779Y016632D01*
X098783Y016569D01*
X098783Y016507D01*
X098779Y016444D01*
X098771Y016383D01*
X098759Y016321D01*
X098743Y016261D01*
X098724Y016201D01*
X098700Y016143D01*
X098674Y016087D01*
X098643Y016033D01*
X098609Y015980D01*
X098572Y015930D01*
X098532Y015882D01*
X098489Y015837D01*
X098443Y015794D01*
X098395Y015755D01*
X098344Y015719D01*
X098291Y015686D01*
X098236Y015656D01*
X098179Y015630D01*
X098121Y015608D01*
X098061Y015590D01*
X098001Y015575D01*
X097939Y015564D01*
X097877Y015557D01*
X097815Y015554D01*
X097752Y015555D01*
X097690Y015560D01*
X097628Y015569D01*
X097567Y015582D01*
X097507Y015598D01*
X097448Y015619D01*
X097390Y015643D01*
X097334Y015671D01*
X097280Y015702D01*
X097228Y015736D01*
X097179Y015774D01*
X097131Y015815D01*
X097087Y015859D01*
X097045Y015905D01*
X097007Y015955D01*
X096971Y016006D01*
X096939Y016060D01*
X096911Y016115D01*
X096885Y016172D01*
X096864Y016231D01*
X096847Y016291D01*
X096833Y016352D01*
X096823Y016413D01*
X096817Y016476D01*
X096815Y016538D01*
X104315Y016413D02*
X104317Y016475D01*
X104323Y016538D01*
X104333Y016599D01*
X104347Y016660D01*
X104364Y016720D01*
X104385Y016779D01*
X104411Y016836D01*
X104439Y016891D01*
X104471Y016945D01*
X104507Y016996D01*
X104545Y017046D01*
X104587Y017092D01*
X104631Y017136D01*
X104679Y017177D01*
X104728Y017215D01*
X104780Y017249D01*
X104834Y017280D01*
X104890Y017308D01*
X104948Y017332D01*
X105007Y017353D01*
X105067Y017369D01*
X105128Y017382D01*
X105190Y017391D01*
X105252Y017396D01*
X105315Y017397D01*
X105377Y017394D01*
X105439Y017387D01*
X105501Y017376D01*
X105561Y017361D01*
X105621Y017343D01*
X105679Y017321D01*
X105736Y017295D01*
X105791Y017265D01*
X105844Y017232D01*
X105895Y017196D01*
X105943Y017157D01*
X105989Y017114D01*
X106032Y017069D01*
X106072Y017021D01*
X106109Y016971D01*
X106143Y016918D01*
X106174Y016864D01*
X106200Y016808D01*
X106224Y016750D01*
X106243Y016690D01*
X106259Y016630D01*
X106271Y016568D01*
X106279Y016507D01*
X106283Y016444D01*
X106283Y016382D01*
X106279Y016319D01*
X106271Y016258D01*
X106259Y016196D01*
X106243Y016136D01*
X106224Y016076D01*
X106200Y016018D01*
X106174Y015962D01*
X106143Y015908D01*
X106109Y015855D01*
X106072Y015805D01*
X106032Y015757D01*
X105989Y015712D01*
X105943Y015669D01*
X105895Y015630D01*
X105844Y015594D01*
X105791Y015561D01*
X105736Y015531D01*
X105679Y015505D01*
X105621Y015483D01*
X105561Y015465D01*
X105501Y015450D01*
X105439Y015439D01*
X105377Y015432D01*
X105315Y015429D01*
X105252Y015430D01*
X105190Y015435D01*
X105128Y015444D01*
X105067Y015457D01*
X105007Y015473D01*
X104948Y015494D01*
X104890Y015518D01*
X104834Y015546D01*
X104780Y015577D01*
X104728Y015611D01*
X104679Y015649D01*
X104631Y015690D01*
X104587Y015734D01*
X104545Y015780D01*
X104507Y015830D01*
X104471Y015881D01*
X104439Y015935D01*
X104411Y015990D01*
X104385Y016047D01*
X104364Y016106D01*
X104347Y016166D01*
X104333Y016227D01*
X104323Y016288D01*
X104317Y016351D01*
X104315Y016413D01*
X112440Y016288D02*
X112442Y016350D01*
X112448Y016413D01*
X112458Y016474D01*
X112472Y016535D01*
X112489Y016595D01*
X112510Y016654D01*
X112536Y016711D01*
X112564Y016766D01*
X112596Y016820D01*
X112632Y016871D01*
X112670Y016921D01*
X112712Y016967D01*
X112756Y017011D01*
X112804Y017052D01*
X112853Y017090D01*
X112905Y017124D01*
X112959Y017155D01*
X113015Y017183D01*
X113073Y017207D01*
X113132Y017228D01*
X113192Y017244D01*
X113253Y017257D01*
X113315Y017266D01*
X113377Y017271D01*
X113440Y017272D01*
X113502Y017269D01*
X113564Y017262D01*
X113626Y017251D01*
X113686Y017236D01*
X113746Y017218D01*
X113804Y017196D01*
X113861Y017170D01*
X113916Y017140D01*
X113969Y017107D01*
X114020Y017071D01*
X114068Y017032D01*
X114114Y016989D01*
X114157Y016944D01*
X114197Y016896D01*
X114234Y016846D01*
X114268Y016793D01*
X114299Y016739D01*
X114325Y016683D01*
X114349Y016625D01*
X114368Y016565D01*
X114384Y016505D01*
X114396Y016443D01*
X114404Y016382D01*
X114408Y016319D01*
X114408Y016257D01*
X114404Y016194D01*
X114396Y016133D01*
X114384Y016071D01*
X114368Y016011D01*
X114349Y015951D01*
X114325Y015893D01*
X114299Y015837D01*
X114268Y015783D01*
X114234Y015730D01*
X114197Y015680D01*
X114157Y015632D01*
X114114Y015587D01*
X114068Y015544D01*
X114020Y015505D01*
X113969Y015469D01*
X113916Y015436D01*
X113861Y015406D01*
X113804Y015380D01*
X113746Y015358D01*
X113686Y015340D01*
X113626Y015325D01*
X113564Y015314D01*
X113502Y015307D01*
X113440Y015304D01*
X113377Y015305D01*
X113315Y015310D01*
X113253Y015319D01*
X113192Y015332D01*
X113132Y015348D01*
X113073Y015369D01*
X113015Y015393D01*
X112959Y015421D01*
X112905Y015452D01*
X112853Y015486D01*
X112804Y015524D01*
X112756Y015565D01*
X112712Y015609D01*
X112670Y015655D01*
X112632Y015705D01*
X112596Y015756D01*
X112564Y015810D01*
X112536Y015865D01*
X112510Y015922D01*
X112489Y015981D01*
X112472Y016041D01*
X112458Y016102D01*
X112448Y016163D01*
X112442Y016226D01*
X112440Y016288D01*
X119565Y016288D02*
X119567Y016350D01*
X119573Y016413D01*
X119583Y016474D01*
X119597Y016535D01*
X119614Y016595D01*
X119635Y016654D01*
X119661Y016711D01*
X119689Y016766D01*
X119721Y016820D01*
X119757Y016871D01*
X119795Y016921D01*
X119837Y016967D01*
X119881Y017011D01*
X119929Y017052D01*
X119978Y017090D01*
X120030Y017124D01*
X120084Y017155D01*
X120140Y017183D01*
X120198Y017207D01*
X120257Y017228D01*
X120317Y017244D01*
X120378Y017257D01*
X120440Y017266D01*
X120502Y017271D01*
X120565Y017272D01*
X120627Y017269D01*
X120689Y017262D01*
X120751Y017251D01*
X120811Y017236D01*
X120871Y017218D01*
X120929Y017196D01*
X120986Y017170D01*
X121041Y017140D01*
X121094Y017107D01*
X121145Y017071D01*
X121193Y017032D01*
X121239Y016989D01*
X121282Y016944D01*
X121322Y016896D01*
X121359Y016846D01*
X121393Y016793D01*
X121424Y016739D01*
X121450Y016683D01*
X121474Y016625D01*
X121493Y016565D01*
X121509Y016505D01*
X121521Y016443D01*
X121529Y016382D01*
X121533Y016319D01*
X121533Y016257D01*
X121529Y016194D01*
X121521Y016133D01*
X121509Y016071D01*
X121493Y016011D01*
X121474Y015951D01*
X121450Y015893D01*
X121424Y015837D01*
X121393Y015783D01*
X121359Y015730D01*
X121322Y015680D01*
X121282Y015632D01*
X121239Y015587D01*
X121193Y015544D01*
X121145Y015505D01*
X121094Y015469D01*
X121041Y015436D01*
X120986Y015406D01*
X120929Y015380D01*
X120871Y015358D01*
X120811Y015340D01*
X120751Y015325D01*
X120689Y015314D01*
X120627Y015307D01*
X120565Y015304D01*
X120502Y015305D01*
X120440Y015310D01*
X120378Y015319D01*
X120317Y015332D01*
X120257Y015348D01*
X120198Y015369D01*
X120140Y015393D01*
X120084Y015421D01*
X120030Y015452D01*
X119978Y015486D01*
X119929Y015524D01*
X119881Y015565D01*
X119837Y015609D01*
X119795Y015655D01*
X119757Y015705D01*
X119721Y015756D01*
X119689Y015810D01*
X119661Y015865D01*
X119635Y015922D01*
X119614Y015981D01*
X119597Y016041D01*
X119583Y016102D01*
X119573Y016163D01*
X119567Y016226D01*
X119565Y016288D01*
X133440Y016663D02*
X133442Y016725D01*
X133448Y016788D01*
X133458Y016849D01*
X133472Y016910D01*
X133489Y016970D01*
X133510Y017029D01*
X133536Y017086D01*
X133564Y017141D01*
X133596Y017195D01*
X133632Y017246D01*
X133670Y017296D01*
X133712Y017342D01*
X133756Y017386D01*
X133804Y017427D01*
X133853Y017465D01*
X133905Y017499D01*
X133959Y017530D01*
X134015Y017558D01*
X134073Y017582D01*
X134132Y017603D01*
X134192Y017619D01*
X134253Y017632D01*
X134315Y017641D01*
X134377Y017646D01*
X134440Y017647D01*
X134502Y017644D01*
X134564Y017637D01*
X134626Y017626D01*
X134686Y017611D01*
X134746Y017593D01*
X134804Y017571D01*
X134861Y017545D01*
X134916Y017515D01*
X134969Y017482D01*
X135020Y017446D01*
X135068Y017407D01*
X135114Y017364D01*
X135157Y017319D01*
X135197Y017271D01*
X135234Y017221D01*
X135268Y017168D01*
X135299Y017114D01*
X135325Y017058D01*
X135349Y017000D01*
X135368Y016940D01*
X135384Y016880D01*
X135396Y016818D01*
X135404Y016757D01*
X135408Y016694D01*
X135408Y016632D01*
X135404Y016569D01*
X135396Y016508D01*
X135384Y016446D01*
X135368Y016386D01*
X135349Y016326D01*
X135325Y016268D01*
X135299Y016212D01*
X135268Y016158D01*
X135234Y016105D01*
X135197Y016055D01*
X135157Y016007D01*
X135114Y015962D01*
X135068Y015919D01*
X135020Y015880D01*
X134969Y015844D01*
X134916Y015811D01*
X134861Y015781D01*
X134804Y015755D01*
X134746Y015733D01*
X134686Y015715D01*
X134626Y015700D01*
X134564Y015689D01*
X134502Y015682D01*
X134440Y015679D01*
X134377Y015680D01*
X134315Y015685D01*
X134253Y015694D01*
X134192Y015707D01*
X134132Y015723D01*
X134073Y015744D01*
X134015Y015768D01*
X133959Y015796D01*
X133905Y015827D01*
X133853Y015861D01*
X133804Y015899D01*
X133756Y015940D01*
X133712Y015984D01*
X133670Y016030D01*
X133632Y016080D01*
X133596Y016131D01*
X133564Y016185D01*
X133536Y016240D01*
X133510Y016297D01*
X133489Y016356D01*
X133472Y016416D01*
X133458Y016477D01*
X133448Y016538D01*
X133442Y016601D01*
X133440Y016663D01*
X048815Y049288D02*
X048817Y049350D01*
X048823Y049413D01*
X048833Y049474D01*
X048847Y049535D01*
X048864Y049595D01*
X048885Y049654D01*
X048911Y049711D01*
X048939Y049766D01*
X048971Y049820D01*
X049007Y049871D01*
X049045Y049921D01*
X049087Y049967D01*
X049131Y050011D01*
X049179Y050052D01*
X049228Y050090D01*
X049280Y050124D01*
X049334Y050155D01*
X049390Y050183D01*
X049448Y050207D01*
X049507Y050228D01*
X049567Y050244D01*
X049628Y050257D01*
X049690Y050266D01*
X049752Y050271D01*
X049815Y050272D01*
X049877Y050269D01*
X049939Y050262D01*
X050001Y050251D01*
X050061Y050236D01*
X050121Y050218D01*
X050179Y050196D01*
X050236Y050170D01*
X050291Y050140D01*
X050344Y050107D01*
X050395Y050071D01*
X050443Y050032D01*
X050489Y049989D01*
X050532Y049944D01*
X050572Y049896D01*
X050609Y049846D01*
X050643Y049793D01*
X050674Y049739D01*
X050700Y049683D01*
X050724Y049625D01*
X050743Y049565D01*
X050759Y049505D01*
X050771Y049443D01*
X050779Y049382D01*
X050783Y049319D01*
X050783Y049257D01*
X050779Y049194D01*
X050771Y049133D01*
X050759Y049071D01*
X050743Y049011D01*
X050724Y048951D01*
X050700Y048893D01*
X050674Y048837D01*
X050643Y048783D01*
X050609Y048730D01*
X050572Y048680D01*
X050532Y048632D01*
X050489Y048587D01*
X050443Y048544D01*
X050395Y048505D01*
X050344Y048469D01*
X050291Y048436D01*
X050236Y048406D01*
X050179Y048380D01*
X050121Y048358D01*
X050061Y048340D01*
X050001Y048325D01*
X049939Y048314D01*
X049877Y048307D01*
X049815Y048304D01*
X049752Y048305D01*
X049690Y048310D01*
X049628Y048319D01*
X049567Y048332D01*
X049507Y048348D01*
X049448Y048369D01*
X049390Y048393D01*
X049334Y048421D01*
X049280Y048452D01*
X049228Y048486D01*
X049179Y048524D01*
X049131Y048565D01*
X049087Y048609D01*
X049045Y048655D01*
X049007Y048705D01*
X048971Y048756D01*
X048939Y048810D01*
X048911Y048865D01*
X048885Y048922D01*
X048864Y048981D01*
X048847Y049041D01*
X048833Y049102D01*
X048823Y049163D01*
X048817Y049226D01*
X048815Y049288D01*
X041315Y049288D02*
X041317Y049350D01*
X041323Y049413D01*
X041333Y049474D01*
X041347Y049535D01*
X041364Y049595D01*
X041385Y049654D01*
X041411Y049711D01*
X041439Y049766D01*
X041471Y049820D01*
X041507Y049871D01*
X041545Y049921D01*
X041587Y049967D01*
X041631Y050011D01*
X041679Y050052D01*
X041728Y050090D01*
X041780Y050124D01*
X041834Y050155D01*
X041890Y050183D01*
X041948Y050207D01*
X042007Y050228D01*
X042067Y050244D01*
X042128Y050257D01*
X042190Y050266D01*
X042252Y050271D01*
X042315Y050272D01*
X042377Y050269D01*
X042439Y050262D01*
X042501Y050251D01*
X042561Y050236D01*
X042621Y050218D01*
X042679Y050196D01*
X042736Y050170D01*
X042791Y050140D01*
X042844Y050107D01*
X042895Y050071D01*
X042943Y050032D01*
X042989Y049989D01*
X043032Y049944D01*
X043072Y049896D01*
X043109Y049846D01*
X043143Y049793D01*
X043174Y049739D01*
X043200Y049683D01*
X043224Y049625D01*
X043243Y049565D01*
X043259Y049505D01*
X043271Y049443D01*
X043279Y049382D01*
X043283Y049319D01*
X043283Y049257D01*
X043279Y049194D01*
X043271Y049133D01*
X043259Y049071D01*
X043243Y049011D01*
X043224Y048951D01*
X043200Y048893D01*
X043174Y048837D01*
X043143Y048783D01*
X043109Y048730D01*
X043072Y048680D01*
X043032Y048632D01*
X042989Y048587D01*
X042943Y048544D01*
X042895Y048505D01*
X042844Y048469D01*
X042791Y048436D01*
X042736Y048406D01*
X042679Y048380D01*
X042621Y048358D01*
X042561Y048340D01*
X042501Y048325D01*
X042439Y048314D01*
X042377Y048307D01*
X042315Y048304D01*
X042252Y048305D01*
X042190Y048310D01*
X042128Y048319D01*
X042067Y048332D01*
X042007Y048348D01*
X041948Y048369D01*
X041890Y048393D01*
X041834Y048421D01*
X041780Y048452D01*
X041728Y048486D01*
X041679Y048524D01*
X041631Y048565D01*
X041587Y048609D01*
X041545Y048655D01*
X041507Y048705D01*
X041471Y048756D01*
X041439Y048810D01*
X041411Y048865D01*
X041385Y048922D01*
X041364Y048981D01*
X041347Y049041D01*
X041333Y049102D01*
X041323Y049163D01*
X041317Y049226D01*
X041315Y049288D01*
X033815Y049288D02*
X033817Y049350D01*
X033823Y049413D01*
X033833Y049474D01*
X033847Y049535D01*
X033864Y049595D01*
X033885Y049654D01*
X033911Y049711D01*
X033939Y049766D01*
X033971Y049820D01*
X034007Y049871D01*
X034045Y049921D01*
X034087Y049967D01*
X034131Y050011D01*
X034179Y050052D01*
X034228Y050090D01*
X034280Y050124D01*
X034334Y050155D01*
X034390Y050183D01*
X034448Y050207D01*
X034507Y050228D01*
X034567Y050244D01*
X034628Y050257D01*
X034690Y050266D01*
X034752Y050271D01*
X034815Y050272D01*
X034877Y050269D01*
X034939Y050262D01*
X035001Y050251D01*
X035061Y050236D01*
X035121Y050218D01*
X035179Y050196D01*
X035236Y050170D01*
X035291Y050140D01*
X035344Y050107D01*
X035395Y050071D01*
X035443Y050032D01*
X035489Y049989D01*
X035532Y049944D01*
X035572Y049896D01*
X035609Y049846D01*
X035643Y049793D01*
X035674Y049739D01*
X035700Y049683D01*
X035724Y049625D01*
X035743Y049565D01*
X035759Y049505D01*
X035771Y049443D01*
X035779Y049382D01*
X035783Y049319D01*
X035783Y049257D01*
X035779Y049194D01*
X035771Y049133D01*
X035759Y049071D01*
X035743Y049011D01*
X035724Y048951D01*
X035700Y048893D01*
X035674Y048837D01*
X035643Y048783D01*
X035609Y048730D01*
X035572Y048680D01*
X035532Y048632D01*
X035489Y048587D01*
X035443Y048544D01*
X035395Y048505D01*
X035344Y048469D01*
X035291Y048436D01*
X035236Y048406D01*
X035179Y048380D01*
X035121Y048358D01*
X035061Y048340D01*
X035001Y048325D01*
X034939Y048314D01*
X034877Y048307D01*
X034815Y048304D01*
X034752Y048305D01*
X034690Y048310D01*
X034628Y048319D01*
X034567Y048332D01*
X034507Y048348D01*
X034448Y048369D01*
X034390Y048393D01*
X034334Y048421D01*
X034280Y048452D01*
X034228Y048486D01*
X034179Y048524D01*
X034131Y048565D01*
X034087Y048609D01*
X034045Y048655D01*
X034007Y048705D01*
X033971Y048756D01*
X033939Y048810D01*
X033911Y048865D01*
X033885Y048922D01*
X033864Y048981D01*
X033847Y049041D01*
X033833Y049102D01*
X033823Y049163D01*
X033817Y049226D01*
X033815Y049288D01*
X011815Y049288D02*
X011817Y049350D01*
X011823Y049413D01*
X011833Y049474D01*
X011847Y049535D01*
X011864Y049595D01*
X011885Y049654D01*
X011911Y049711D01*
X011939Y049766D01*
X011971Y049820D01*
X012007Y049871D01*
X012045Y049921D01*
X012087Y049967D01*
X012131Y050011D01*
X012179Y050052D01*
X012228Y050090D01*
X012280Y050124D01*
X012334Y050155D01*
X012390Y050183D01*
X012448Y050207D01*
X012507Y050228D01*
X012567Y050244D01*
X012628Y050257D01*
X012690Y050266D01*
X012752Y050271D01*
X012815Y050272D01*
X012877Y050269D01*
X012939Y050262D01*
X013001Y050251D01*
X013061Y050236D01*
X013121Y050218D01*
X013179Y050196D01*
X013236Y050170D01*
X013291Y050140D01*
X013344Y050107D01*
X013395Y050071D01*
X013443Y050032D01*
X013489Y049989D01*
X013532Y049944D01*
X013572Y049896D01*
X013609Y049846D01*
X013643Y049793D01*
X013674Y049739D01*
X013700Y049683D01*
X013724Y049625D01*
X013743Y049565D01*
X013759Y049505D01*
X013771Y049443D01*
X013779Y049382D01*
X013783Y049319D01*
X013783Y049257D01*
X013779Y049194D01*
X013771Y049133D01*
X013759Y049071D01*
X013743Y049011D01*
X013724Y048951D01*
X013700Y048893D01*
X013674Y048837D01*
X013643Y048783D01*
X013609Y048730D01*
X013572Y048680D01*
X013532Y048632D01*
X013489Y048587D01*
X013443Y048544D01*
X013395Y048505D01*
X013344Y048469D01*
X013291Y048436D01*
X013236Y048406D01*
X013179Y048380D01*
X013121Y048358D01*
X013061Y048340D01*
X013001Y048325D01*
X012939Y048314D01*
X012877Y048307D01*
X012815Y048304D01*
X012752Y048305D01*
X012690Y048310D01*
X012628Y048319D01*
X012567Y048332D01*
X012507Y048348D01*
X012448Y048369D01*
X012390Y048393D01*
X012334Y048421D01*
X012280Y048452D01*
X012228Y048486D01*
X012179Y048524D01*
X012131Y048565D01*
X012087Y048609D01*
X012045Y048655D01*
X012007Y048705D01*
X011971Y048756D01*
X011939Y048810D01*
X011911Y048865D01*
X011885Y048922D01*
X011864Y048981D01*
X011847Y049041D01*
X011833Y049102D01*
X011823Y049163D01*
X011817Y049226D01*
X011815Y049288D01*
X011815Y041788D02*
X011817Y041850D01*
X011823Y041913D01*
X011833Y041974D01*
X011847Y042035D01*
X011864Y042095D01*
X011885Y042154D01*
X011911Y042211D01*
X011939Y042266D01*
X011971Y042320D01*
X012007Y042371D01*
X012045Y042421D01*
X012087Y042467D01*
X012131Y042511D01*
X012179Y042552D01*
X012228Y042590D01*
X012280Y042624D01*
X012334Y042655D01*
X012390Y042683D01*
X012448Y042707D01*
X012507Y042728D01*
X012567Y042744D01*
X012628Y042757D01*
X012690Y042766D01*
X012752Y042771D01*
X012815Y042772D01*
X012877Y042769D01*
X012939Y042762D01*
X013001Y042751D01*
X013061Y042736D01*
X013121Y042718D01*
X013179Y042696D01*
X013236Y042670D01*
X013291Y042640D01*
X013344Y042607D01*
X013395Y042571D01*
X013443Y042532D01*
X013489Y042489D01*
X013532Y042444D01*
X013572Y042396D01*
X013609Y042346D01*
X013643Y042293D01*
X013674Y042239D01*
X013700Y042183D01*
X013724Y042125D01*
X013743Y042065D01*
X013759Y042005D01*
X013771Y041943D01*
X013779Y041882D01*
X013783Y041819D01*
X013783Y041757D01*
X013779Y041694D01*
X013771Y041633D01*
X013759Y041571D01*
X013743Y041511D01*
X013724Y041451D01*
X013700Y041393D01*
X013674Y041337D01*
X013643Y041283D01*
X013609Y041230D01*
X013572Y041180D01*
X013532Y041132D01*
X013489Y041087D01*
X013443Y041044D01*
X013395Y041005D01*
X013344Y040969D01*
X013291Y040936D01*
X013236Y040906D01*
X013179Y040880D01*
X013121Y040858D01*
X013061Y040840D01*
X013001Y040825D01*
X012939Y040814D01*
X012877Y040807D01*
X012815Y040804D01*
X012752Y040805D01*
X012690Y040810D01*
X012628Y040819D01*
X012567Y040832D01*
X012507Y040848D01*
X012448Y040869D01*
X012390Y040893D01*
X012334Y040921D01*
X012280Y040952D01*
X012228Y040986D01*
X012179Y041024D01*
X012131Y041065D01*
X012087Y041109D01*
X012045Y041155D01*
X012007Y041205D01*
X011971Y041256D01*
X011939Y041310D01*
X011911Y041365D01*
X011885Y041422D01*
X011864Y041481D01*
X011847Y041541D01*
X011833Y041602D01*
X011823Y041663D01*
X011817Y041726D01*
X011815Y041788D01*
X011815Y034288D02*
X011817Y034350D01*
X011823Y034413D01*
X011833Y034474D01*
X011847Y034535D01*
X011864Y034595D01*
X011885Y034654D01*
X011911Y034711D01*
X011939Y034766D01*
X011971Y034820D01*
X012007Y034871D01*
X012045Y034921D01*
X012087Y034967D01*
X012131Y035011D01*
X012179Y035052D01*
X012228Y035090D01*
X012280Y035124D01*
X012334Y035155D01*
X012390Y035183D01*
X012448Y035207D01*
X012507Y035228D01*
X012567Y035244D01*
X012628Y035257D01*
X012690Y035266D01*
X012752Y035271D01*
X012815Y035272D01*
X012877Y035269D01*
X012939Y035262D01*
X013001Y035251D01*
X013061Y035236D01*
X013121Y035218D01*
X013179Y035196D01*
X013236Y035170D01*
X013291Y035140D01*
X013344Y035107D01*
X013395Y035071D01*
X013443Y035032D01*
X013489Y034989D01*
X013532Y034944D01*
X013572Y034896D01*
X013609Y034846D01*
X013643Y034793D01*
X013674Y034739D01*
X013700Y034683D01*
X013724Y034625D01*
X013743Y034565D01*
X013759Y034505D01*
X013771Y034443D01*
X013779Y034382D01*
X013783Y034319D01*
X013783Y034257D01*
X013779Y034194D01*
X013771Y034133D01*
X013759Y034071D01*
X013743Y034011D01*
X013724Y033951D01*
X013700Y033893D01*
X013674Y033837D01*
X013643Y033783D01*
X013609Y033730D01*
X013572Y033680D01*
X013532Y033632D01*
X013489Y033587D01*
X013443Y033544D01*
X013395Y033505D01*
X013344Y033469D01*
X013291Y033436D01*
X013236Y033406D01*
X013179Y033380D01*
X013121Y033358D01*
X013061Y033340D01*
X013001Y033325D01*
X012939Y033314D01*
X012877Y033307D01*
X012815Y033304D01*
X012752Y033305D01*
X012690Y033310D01*
X012628Y033319D01*
X012567Y033332D01*
X012507Y033348D01*
X012448Y033369D01*
X012390Y033393D01*
X012334Y033421D01*
X012280Y033452D01*
X012228Y033486D01*
X012179Y033524D01*
X012131Y033565D01*
X012087Y033609D01*
X012045Y033655D01*
X012007Y033705D01*
X011971Y033756D01*
X011939Y033810D01*
X011911Y033865D01*
X011885Y033922D01*
X011864Y033981D01*
X011847Y034041D01*
X011833Y034102D01*
X011823Y034163D01*
X011817Y034226D01*
X011815Y034288D01*
X011815Y026788D02*
X011817Y026850D01*
X011823Y026913D01*
X011833Y026974D01*
X011847Y027035D01*
X011864Y027095D01*
X011885Y027154D01*
X011911Y027211D01*
X011939Y027266D01*
X011971Y027320D01*
X012007Y027371D01*
X012045Y027421D01*
X012087Y027467D01*
X012131Y027511D01*
X012179Y027552D01*
X012228Y027590D01*
X012280Y027624D01*
X012334Y027655D01*
X012390Y027683D01*
X012448Y027707D01*
X012507Y027728D01*
X012567Y027744D01*
X012628Y027757D01*
X012690Y027766D01*
X012752Y027771D01*
X012815Y027772D01*
X012877Y027769D01*
X012939Y027762D01*
X013001Y027751D01*
X013061Y027736D01*
X013121Y027718D01*
X013179Y027696D01*
X013236Y027670D01*
X013291Y027640D01*
X013344Y027607D01*
X013395Y027571D01*
X013443Y027532D01*
X013489Y027489D01*
X013532Y027444D01*
X013572Y027396D01*
X013609Y027346D01*
X013643Y027293D01*
X013674Y027239D01*
X013700Y027183D01*
X013724Y027125D01*
X013743Y027065D01*
X013759Y027005D01*
X013771Y026943D01*
X013779Y026882D01*
X013783Y026819D01*
X013783Y026757D01*
X013779Y026694D01*
X013771Y026633D01*
X013759Y026571D01*
X013743Y026511D01*
X013724Y026451D01*
X013700Y026393D01*
X013674Y026337D01*
X013643Y026283D01*
X013609Y026230D01*
X013572Y026180D01*
X013532Y026132D01*
X013489Y026087D01*
X013443Y026044D01*
X013395Y026005D01*
X013344Y025969D01*
X013291Y025936D01*
X013236Y025906D01*
X013179Y025880D01*
X013121Y025858D01*
X013061Y025840D01*
X013001Y025825D01*
X012939Y025814D01*
X012877Y025807D01*
X012815Y025804D01*
X012752Y025805D01*
X012690Y025810D01*
X012628Y025819D01*
X012567Y025832D01*
X012507Y025848D01*
X012448Y025869D01*
X012390Y025893D01*
X012334Y025921D01*
X012280Y025952D01*
X012228Y025986D01*
X012179Y026024D01*
X012131Y026065D01*
X012087Y026109D01*
X012045Y026155D01*
X012007Y026205D01*
X011971Y026256D01*
X011939Y026310D01*
X011911Y026365D01*
X011885Y026422D01*
X011864Y026481D01*
X011847Y026541D01*
X011833Y026602D01*
X011823Y026663D01*
X011817Y026726D01*
X011815Y026788D01*
X019315Y016288D02*
X019317Y016350D01*
X019323Y016413D01*
X019333Y016474D01*
X019347Y016535D01*
X019364Y016595D01*
X019385Y016654D01*
X019411Y016711D01*
X019439Y016766D01*
X019471Y016820D01*
X019507Y016871D01*
X019545Y016921D01*
X019587Y016967D01*
X019631Y017011D01*
X019679Y017052D01*
X019728Y017090D01*
X019780Y017124D01*
X019834Y017155D01*
X019890Y017183D01*
X019948Y017207D01*
X020007Y017228D01*
X020067Y017244D01*
X020128Y017257D01*
X020190Y017266D01*
X020252Y017271D01*
X020315Y017272D01*
X020377Y017269D01*
X020439Y017262D01*
X020501Y017251D01*
X020561Y017236D01*
X020621Y017218D01*
X020679Y017196D01*
X020736Y017170D01*
X020791Y017140D01*
X020844Y017107D01*
X020895Y017071D01*
X020943Y017032D01*
X020989Y016989D01*
X021032Y016944D01*
X021072Y016896D01*
X021109Y016846D01*
X021143Y016793D01*
X021174Y016739D01*
X021200Y016683D01*
X021224Y016625D01*
X021243Y016565D01*
X021259Y016505D01*
X021271Y016443D01*
X021279Y016382D01*
X021283Y016319D01*
X021283Y016257D01*
X021279Y016194D01*
X021271Y016133D01*
X021259Y016071D01*
X021243Y016011D01*
X021224Y015951D01*
X021200Y015893D01*
X021174Y015837D01*
X021143Y015783D01*
X021109Y015730D01*
X021072Y015680D01*
X021032Y015632D01*
X020989Y015587D01*
X020943Y015544D01*
X020895Y015505D01*
X020844Y015469D01*
X020791Y015436D01*
X020736Y015406D01*
X020679Y015380D01*
X020621Y015358D01*
X020561Y015340D01*
X020501Y015325D01*
X020439Y015314D01*
X020377Y015307D01*
X020315Y015304D01*
X020252Y015305D01*
X020190Y015310D01*
X020128Y015319D01*
X020067Y015332D01*
X020007Y015348D01*
X019948Y015369D01*
X019890Y015393D01*
X019834Y015421D01*
X019780Y015452D01*
X019728Y015486D01*
X019679Y015524D01*
X019631Y015565D01*
X019587Y015609D01*
X019545Y015655D01*
X019507Y015705D01*
X019471Y015756D01*
X019439Y015810D01*
X019411Y015865D01*
X019385Y015922D01*
X019364Y015981D01*
X019347Y016041D01*
X019333Y016102D01*
X019323Y016163D01*
X019317Y016226D01*
X019315Y016288D01*
D12*
X067612Y056538D02*
X067612Y065075D01*
X068112Y065075D02*
X068112Y056538D01*
X075049Y056538D02*
X075049Y064888D01*
X075737Y064888D02*
X075737Y056475D01*
X076760Y063975D02*
X075737Y064100D01*
X076760Y063998D01*
X076760Y063975D02*
X076760Y064226D01*
X075737Y064100D01*
X076760Y064203D01*
X076760Y064152D02*
X075737Y064100D01*
X076760Y064049D01*
X075737Y064100D02*
X080598Y064100D01*
X075049Y064100D02*
X074026Y063998D01*
X074026Y063975D02*
X075049Y064100D01*
X074026Y064203D01*
X074026Y064226D02*
X074026Y063975D01*
X074026Y064049D02*
X075049Y064100D01*
X074026Y064152D01*
X074026Y064226D02*
X075049Y064100D01*
X073002Y064100D01*
X072973Y064288D02*
X068112Y064288D01*
X069135Y064186D01*
X069135Y064162D02*
X068112Y064288D01*
X069135Y064390D01*
X069135Y064414D02*
X069135Y064162D01*
X069135Y064237D02*
X068112Y064288D01*
X069135Y064339D01*
X069135Y064414D02*
X068112Y064288D01*
X067612Y064288D02*
X066588Y064186D01*
X066588Y064162D02*
X067612Y064288D01*
X066588Y064390D01*
X066588Y064414D02*
X066588Y064162D01*
X066588Y064237D02*
X067612Y064288D01*
X066588Y064339D01*
X066588Y064414D02*
X067612Y064288D01*
X065564Y064288D01*
D13*
X069190Y064737D02*
X070036Y064737D01*
X069613Y064737D02*
X069613Y066006D01*
X069190Y065583D01*
X070459Y064948D02*
X070671Y064948D01*
X070671Y064737D01*
X070459Y064737D01*
X070459Y064948D01*
X071094Y064737D02*
X071940Y065583D01*
X071940Y065794D01*
X071728Y066006D01*
X071305Y066006D01*
X071094Y065794D01*
X071094Y064737D02*
X071940Y064737D01*
X072362Y064737D02*
X072362Y064948D01*
X073208Y065794D01*
X073208Y066006D01*
X072362Y066006D01*
X076815Y065395D02*
X077238Y065818D01*
X077238Y064549D01*
X076815Y064549D02*
X077661Y064549D01*
X078084Y064549D02*
X078296Y064549D01*
X078296Y064761D01*
X078084Y064761D01*
X078084Y064549D01*
X078719Y064549D02*
X078719Y064761D01*
X079565Y065607D01*
X079565Y065818D01*
X078719Y065818D01*
X079987Y065818D02*
X079987Y065184D01*
X080410Y065395D01*
X080622Y065395D01*
X080833Y065184D01*
X080833Y064761D01*
X080622Y064549D01*
X080199Y064549D01*
X079987Y064761D01*
X079987Y065818D02*
X080833Y065818D01*
D14*
X071352Y053038D02*
X071354Y053065D01*
X071360Y053092D01*
X071369Y053118D01*
X071382Y053142D01*
X071398Y053165D01*
X071417Y053184D01*
X071439Y053201D01*
X071463Y053215D01*
X071488Y053225D01*
X071515Y053232D01*
X071542Y053235D01*
X071570Y053234D01*
X071597Y053229D01*
X071623Y053221D01*
X071647Y053209D01*
X071670Y053193D01*
X071691Y053175D01*
X071708Y053154D01*
X071723Y053130D01*
X071734Y053105D01*
X071742Y053079D01*
X071746Y053052D01*
X071746Y053024D01*
X071742Y052997D01*
X071734Y052971D01*
X071723Y052946D01*
X071708Y052922D01*
X071691Y052901D01*
X071670Y052883D01*
X071648Y052867D01*
X071623Y052855D01*
X071597Y052847D01*
X071570Y052842D01*
X071542Y052841D01*
X071515Y052844D01*
X071488Y052851D01*
X071463Y052861D01*
X071439Y052875D01*
X071417Y052892D01*
X071398Y052911D01*
X071382Y052934D01*
X071369Y052958D01*
X071360Y052984D01*
X071354Y053011D01*
X071352Y053038D01*
X063852Y053038D02*
X063854Y053065D01*
X063860Y053092D01*
X063869Y053118D01*
X063882Y053142D01*
X063898Y053165D01*
X063917Y053184D01*
X063939Y053201D01*
X063963Y053215D01*
X063988Y053225D01*
X064015Y053232D01*
X064042Y053235D01*
X064070Y053234D01*
X064097Y053229D01*
X064123Y053221D01*
X064147Y053209D01*
X064170Y053193D01*
X064191Y053175D01*
X064208Y053154D01*
X064223Y053130D01*
X064234Y053105D01*
X064242Y053079D01*
X064246Y053052D01*
X064246Y053024D01*
X064242Y052997D01*
X064234Y052971D01*
X064223Y052946D01*
X064208Y052922D01*
X064191Y052901D01*
X064170Y052883D01*
X064148Y052867D01*
X064123Y052855D01*
X064097Y052847D01*
X064070Y052842D01*
X064042Y052841D01*
X064015Y052844D01*
X063988Y052851D01*
X063963Y052861D01*
X063939Y052875D01*
X063917Y052892D01*
X063898Y052911D01*
X063882Y052934D01*
X063869Y052958D01*
X063860Y052984D01*
X063854Y053011D01*
X063852Y053038D01*
X053352Y053038D02*
X053354Y053065D01*
X053360Y053092D01*
X053369Y053118D01*
X053382Y053142D01*
X053398Y053165D01*
X053417Y053184D01*
X053439Y053201D01*
X053463Y053215D01*
X053488Y053225D01*
X053515Y053232D01*
X053542Y053235D01*
X053570Y053234D01*
X053597Y053229D01*
X053623Y053221D01*
X053647Y053209D01*
X053670Y053193D01*
X053691Y053175D01*
X053708Y053154D01*
X053723Y053130D01*
X053734Y053105D01*
X053742Y053079D01*
X053746Y053052D01*
X053746Y053024D01*
X053742Y052997D01*
X053734Y052971D01*
X053723Y052946D01*
X053708Y052922D01*
X053691Y052901D01*
X053670Y052883D01*
X053648Y052867D01*
X053623Y052855D01*
X053597Y052847D01*
X053570Y052842D01*
X053542Y052841D01*
X053515Y052844D01*
X053488Y052851D01*
X053463Y052861D01*
X053439Y052875D01*
X053417Y052892D01*
X053398Y052911D01*
X053382Y052934D01*
X053369Y052958D01*
X053360Y052984D01*
X053354Y053011D01*
X053352Y053038D01*
X045852Y053038D02*
X045854Y053065D01*
X045860Y053092D01*
X045869Y053118D01*
X045882Y053142D01*
X045898Y053165D01*
X045917Y053184D01*
X045939Y053201D01*
X045963Y053215D01*
X045988Y053225D01*
X046015Y053232D01*
X046042Y053235D01*
X046070Y053234D01*
X046097Y053229D01*
X046123Y053221D01*
X046147Y053209D01*
X046170Y053193D01*
X046191Y053175D01*
X046208Y053154D01*
X046223Y053130D01*
X046234Y053105D01*
X046242Y053079D01*
X046246Y053052D01*
X046246Y053024D01*
X046242Y052997D01*
X046234Y052971D01*
X046223Y052946D01*
X046208Y052922D01*
X046191Y052901D01*
X046170Y052883D01*
X046148Y052867D01*
X046123Y052855D01*
X046097Y052847D01*
X046070Y052842D01*
X046042Y052841D01*
X046015Y052844D01*
X045988Y052851D01*
X045963Y052861D01*
X045939Y052875D01*
X045917Y052892D01*
X045898Y052911D01*
X045882Y052934D01*
X045869Y052958D01*
X045860Y052984D01*
X045854Y053011D01*
X045852Y053038D01*
X038352Y053038D02*
X038354Y053065D01*
X038360Y053092D01*
X038369Y053118D01*
X038382Y053142D01*
X038398Y053165D01*
X038417Y053184D01*
X038439Y053201D01*
X038463Y053215D01*
X038488Y053225D01*
X038515Y053232D01*
X038542Y053235D01*
X038570Y053234D01*
X038597Y053229D01*
X038623Y053221D01*
X038647Y053209D01*
X038670Y053193D01*
X038691Y053175D01*
X038708Y053154D01*
X038723Y053130D01*
X038734Y053105D01*
X038742Y053079D01*
X038746Y053052D01*
X038746Y053024D01*
X038742Y052997D01*
X038734Y052971D01*
X038723Y052946D01*
X038708Y052922D01*
X038691Y052901D01*
X038670Y052883D01*
X038648Y052867D01*
X038623Y052855D01*
X038597Y052847D01*
X038570Y052842D01*
X038542Y052841D01*
X038515Y052844D01*
X038488Y052851D01*
X038463Y052861D01*
X038439Y052875D01*
X038417Y052892D01*
X038398Y052911D01*
X038382Y052934D01*
X038369Y052958D01*
X038360Y052984D01*
X038354Y053011D01*
X038352Y053038D01*
X030852Y053038D02*
X030854Y053065D01*
X030860Y053092D01*
X030869Y053118D01*
X030882Y053142D01*
X030898Y053165D01*
X030917Y053184D01*
X030939Y053201D01*
X030963Y053215D01*
X030988Y053225D01*
X031015Y053232D01*
X031042Y053235D01*
X031070Y053234D01*
X031097Y053229D01*
X031123Y053221D01*
X031147Y053209D01*
X031170Y053193D01*
X031191Y053175D01*
X031208Y053154D01*
X031223Y053130D01*
X031234Y053105D01*
X031242Y053079D01*
X031246Y053052D01*
X031246Y053024D01*
X031242Y052997D01*
X031234Y052971D01*
X031223Y052946D01*
X031208Y052922D01*
X031191Y052901D01*
X031170Y052883D01*
X031148Y052867D01*
X031123Y052855D01*
X031097Y052847D01*
X031070Y052842D01*
X031042Y052841D01*
X031015Y052844D01*
X030988Y052851D01*
X030963Y052861D01*
X030939Y052875D01*
X030917Y052892D01*
X030898Y052911D01*
X030882Y052934D01*
X030869Y052958D01*
X030860Y052984D01*
X030854Y053011D01*
X030852Y053038D01*
X016352Y053038D02*
X016354Y053065D01*
X016360Y053092D01*
X016369Y053118D01*
X016382Y053142D01*
X016398Y053165D01*
X016417Y053184D01*
X016439Y053201D01*
X016463Y053215D01*
X016488Y053225D01*
X016515Y053232D01*
X016542Y053235D01*
X016570Y053234D01*
X016597Y053229D01*
X016623Y053221D01*
X016647Y053209D01*
X016670Y053193D01*
X016691Y053175D01*
X016708Y053154D01*
X016723Y053130D01*
X016734Y053105D01*
X016742Y053079D01*
X016746Y053052D01*
X016746Y053024D01*
X016742Y052997D01*
X016734Y052971D01*
X016723Y052946D01*
X016708Y052922D01*
X016691Y052901D01*
X016670Y052883D01*
X016648Y052867D01*
X016623Y052855D01*
X016597Y052847D01*
X016570Y052842D01*
X016542Y052841D01*
X016515Y052844D01*
X016488Y052851D01*
X016463Y052861D01*
X016439Y052875D01*
X016417Y052892D01*
X016398Y052911D01*
X016382Y052934D01*
X016369Y052958D01*
X016360Y052984D01*
X016354Y053011D01*
X016352Y053038D01*
X008852Y053038D02*
X008854Y053065D01*
X008860Y053092D01*
X008869Y053118D01*
X008882Y053142D01*
X008898Y053165D01*
X008917Y053184D01*
X008939Y053201D01*
X008963Y053215D01*
X008988Y053225D01*
X009015Y053232D01*
X009042Y053235D01*
X009070Y053234D01*
X009097Y053229D01*
X009123Y053221D01*
X009147Y053209D01*
X009170Y053193D01*
X009191Y053175D01*
X009208Y053154D01*
X009223Y053130D01*
X009234Y053105D01*
X009242Y053079D01*
X009246Y053052D01*
X009246Y053024D01*
X009242Y052997D01*
X009234Y052971D01*
X009223Y052946D01*
X009208Y052922D01*
X009191Y052901D01*
X009170Y052883D01*
X009148Y052867D01*
X009123Y052855D01*
X009097Y052847D01*
X009070Y052842D01*
X009042Y052841D01*
X009015Y052844D01*
X008988Y052851D01*
X008963Y052861D01*
X008939Y052875D01*
X008917Y052892D01*
X008898Y052911D01*
X008882Y052934D01*
X008869Y052958D01*
X008860Y052984D01*
X008854Y053011D01*
X008852Y053038D01*
X008852Y045538D02*
X008854Y045565D01*
X008860Y045592D01*
X008869Y045618D01*
X008882Y045642D01*
X008898Y045665D01*
X008917Y045684D01*
X008939Y045701D01*
X008963Y045715D01*
X008988Y045725D01*
X009015Y045732D01*
X009042Y045735D01*
X009070Y045734D01*
X009097Y045729D01*
X009123Y045721D01*
X009147Y045709D01*
X009170Y045693D01*
X009191Y045675D01*
X009208Y045654D01*
X009223Y045630D01*
X009234Y045605D01*
X009242Y045579D01*
X009246Y045552D01*
X009246Y045524D01*
X009242Y045497D01*
X009234Y045471D01*
X009223Y045446D01*
X009208Y045422D01*
X009191Y045401D01*
X009170Y045383D01*
X009148Y045367D01*
X009123Y045355D01*
X009097Y045347D01*
X009070Y045342D01*
X009042Y045341D01*
X009015Y045344D01*
X008988Y045351D01*
X008963Y045361D01*
X008939Y045375D01*
X008917Y045392D01*
X008898Y045411D01*
X008882Y045434D01*
X008869Y045458D01*
X008860Y045484D01*
X008854Y045511D01*
X008852Y045538D01*
X016352Y045538D02*
X016354Y045565D01*
X016360Y045592D01*
X016369Y045618D01*
X016382Y045642D01*
X016398Y045665D01*
X016417Y045684D01*
X016439Y045701D01*
X016463Y045715D01*
X016488Y045725D01*
X016515Y045732D01*
X016542Y045735D01*
X016570Y045734D01*
X016597Y045729D01*
X016623Y045721D01*
X016647Y045709D01*
X016670Y045693D01*
X016691Y045675D01*
X016708Y045654D01*
X016723Y045630D01*
X016734Y045605D01*
X016742Y045579D01*
X016746Y045552D01*
X016746Y045524D01*
X016742Y045497D01*
X016734Y045471D01*
X016723Y045446D01*
X016708Y045422D01*
X016691Y045401D01*
X016670Y045383D01*
X016648Y045367D01*
X016623Y045355D01*
X016597Y045347D01*
X016570Y045342D01*
X016542Y045341D01*
X016515Y045344D01*
X016488Y045351D01*
X016463Y045361D01*
X016439Y045375D01*
X016417Y045392D01*
X016398Y045411D01*
X016382Y045434D01*
X016369Y045458D01*
X016360Y045484D01*
X016354Y045511D01*
X016352Y045538D01*
X026352Y042538D02*
X026354Y042565D01*
X026360Y042592D01*
X026369Y042618D01*
X026382Y042642D01*
X026398Y042665D01*
X026417Y042684D01*
X026439Y042701D01*
X026463Y042715D01*
X026488Y042725D01*
X026515Y042732D01*
X026542Y042735D01*
X026570Y042734D01*
X026597Y042729D01*
X026623Y042721D01*
X026647Y042709D01*
X026670Y042693D01*
X026691Y042675D01*
X026708Y042654D01*
X026723Y042630D01*
X026734Y042605D01*
X026742Y042579D01*
X026746Y042552D01*
X026746Y042524D01*
X026742Y042497D01*
X026734Y042471D01*
X026723Y042446D01*
X026708Y042422D01*
X026691Y042401D01*
X026670Y042383D01*
X026648Y042367D01*
X026623Y042355D01*
X026597Y042347D01*
X026570Y042342D01*
X026542Y042341D01*
X026515Y042344D01*
X026488Y042351D01*
X026463Y042361D01*
X026439Y042375D01*
X026417Y042392D01*
X026398Y042411D01*
X026382Y042434D01*
X026369Y042458D01*
X026360Y042484D01*
X026354Y042511D01*
X026352Y042538D01*
X033852Y042538D02*
X033854Y042565D01*
X033860Y042592D01*
X033869Y042618D01*
X033882Y042642D01*
X033898Y042665D01*
X033917Y042684D01*
X033939Y042701D01*
X033963Y042715D01*
X033988Y042725D01*
X034015Y042732D01*
X034042Y042735D01*
X034070Y042734D01*
X034097Y042729D01*
X034123Y042721D01*
X034147Y042709D01*
X034170Y042693D01*
X034191Y042675D01*
X034208Y042654D01*
X034223Y042630D01*
X034234Y042605D01*
X034242Y042579D01*
X034246Y042552D01*
X034246Y042524D01*
X034242Y042497D01*
X034234Y042471D01*
X034223Y042446D01*
X034208Y042422D01*
X034191Y042401D01*
X034170Y042383D01*
X034148Y042367D01*
X034123Y042355D01*
X034097Y042347D01*
X034070Y042342D01*
X034042Y042341D01*
X034015Y042344D01*
X033988Y042351D01*
X033963Y042361D01*
X033939Y042375D01*
X033917Y042392D01*
X033898Y042411D01*
X033882Y042434D01*
X033869Y042458D01*
X033860Y042484D01*
X033854Y042511D01*
X033852Y042538D01*
X041352Y042538D02*
X041354Y042565D01*
X041360Y042592D01*
X041369Y042618D01*
X041382Y042642D01*
X041398Y042665D01*
X041417Y042684D01*
X041439Y042701D01*
X041463Y042715D01*
X041488Y042725D01*
X041515Y042732D01*
X041542Y042735D01*
X041570Y042734D01*
X041597Y042729D01*
X041623Y042721D01*
X041647Y042709D01*
X041670Y042693D01*
X041691Y042675D01*
X041708Y042654D01*
X041723Y042630D01*
X041734Y042605D01*
X041742Y042579D01*
X041746Y042552D01*
X041746Y042524D01*
X041742Y042497D01*
X041734Y042471D01*
X041723Y042446D01*
X041708Y042422D01*
X041691Y042401D01*
X041670Y042383D01*
X041648Y042367D01*
X041623Y042355D01*
X041597Y042347D01*
X041570Y042342D01*
X041542Y042341D01*
X041515Y042344D01*
X041488Y042351D01*
X041463Y042361D01*
X041439Y042375D01*
X041417Y042392D01*
X041398Y042411D01*
X041382Y042434D01*
X041369Y042458D01*
X041360Y042484D01*
X041354Y042511D01*
X041352Y042538D01*
X048852Y042538D02*
X048854Y042565D01*
X048860Y042592D01*
X048869Y042618D01*
X048882Y042642D01*
X048898Y042665D01*
X048917Y042684D01*
X048939Y042701D01*
X048963Y042715D01*
X048988Y042725D01*
X049015Y042732D01*
X049042Y042735D01*
X049070Y042734D01*
X049097Y042729D01*
X049123Y042721D01*
X049147Y042709D01*
X049170Y042693D01*
X049191Y042675D01*
X049208Y042654D01*
X049223Y042630D01*
X049234Y042605D01*
X049242Y042579D01*
X049246Y042552D01*
X049246Y042524D01*
X049242Y042497D01*
X049234Y042471D01*
X049223Y042446D01*
X049208Y042422D01*
X049191Y042401D01*
X049170Y042383D01*
X049148Y042367D01*
X049123Y042355D01*
X049097Y042347D01*
X049070Y042342D01*
X049042Y042341D01*
X049015Y042344D01*
X048988Y042351D01*
X048963Y042361D01*
X048939Y042375D01*
X048917Y042392D01*
X048898Y042411D01*
X048882Y042434D01*
X048869Y042458D01*
X048860Y042484D01*
X048854Y042511D01*
X048852Y042538D01*
X056352Y042538D02*
X056354Y042565D01*
X056360Y042592D01*
X056369Y042618D01*
X056382Y042642D01*
X056398Y042665D01*
X056417Y042684D01*
X056439Y042701D01*
X056463Y042715D01*
X056488Y042725D01*
X056515Y042732D01*
X056542Y042735D01*
X056570Y042734D01*
X056597Y042729D01*
X056623Y042721D01*
X056647Y042709D01*
X056670Y042693D01*
X056691Y042675D01*
X056708Y042654D01*
X056723Y042630D01*
X056734Y042605D01*
X056742Y042579D01*
X056746Y042552D01*
X056746Y042524D01*
X056742Y042497D01*
X056734Y042471D01*
X056723Y042446D01*
X056708Y042422D01*
X056691Y042401D01*
X056670Y042383D01*
X056648Y042367D01*
X056623Y042355D01*
X056597Y042347D01*
X056570Y042342D01*
X056542Y042341D01*
X056515Y042344D01*
X056488Y042351D01*
X056463Y042361D01*
X056439Y042375D01*
X056417Y042392D01*
X056398Y042411D01*
X056382Y042434D01*
X056369Y042458D01*
X056360Y042484D01*
X056354Y042511D01*
X056352Y042538D01*
X063852Y042538D02*
X063854Y042565D01*
X063860Y042592D01*
X063869Y042618D01*
X063882Y042642D01*
X063898Y042665D01*
X063917Y042684D01*
X063939Y042701D01*
X063963Y042715D01*
X063988Y042725D01*
X064015Y042732D01*
X064042Y042735D01*
X064070Y042734D01*
X064097Y042729D01*
X064123Y042721D01*
X064147Y042709D01*
X064170Y042693D01*
X064191Y042675D01*
X064208Y042654D01*
X064223Y042630D01*
X064234Y042605D01*
X064242Y042579D01*
X064246Y042552D01*
X064246Y042524D01*
X064242Y042497D01*
X064234Y042471D01*
X064223Y042446D01*
X064208Y042422D01*
X064191Y042401D01*
X064170Y042383D01*
X064148Y042367D01*
X064123Y042355D01*
X064097Y042347D01*
X064070Y042342D01*
X064042Y042341D01*
X064015Y042344D01*
X063988Y042351D01*
X063963Y042361D01*
X063939Y042375D01*
X063917Y042392D01*
X063898Y042411D01*
X063882Y042434D01*
X063869Y042458D01*
X063860Y042484D01*
X063854Y042511D01*
X063852Y042538D01*
X071352Y042538D02*
X071354Y042565D01*
X071360Y042592D01*
X071369Y042618D01*
X071382Y042642D01*
X071398Y042665D01*
X071417Y042684D01*
X071439Y042701D01*
X071463Y042715D01*
X071488Y042725D01*
X071515Y042732D01*
X071542Y042735D01*
X071570Y042734D01*
X071597Y042729D01*
X071623Y042721D01*
X071647Y042709D01*
X071670Y042693D01*
X071691Y042675D01*
X071708Y042654D01*
X071723Y042630D01*
X071734Y042605D01*
X071742Y042579D01*
X071746Y042552D01*
X071746Y042524D01*
X071742Y042497D01*
X071734Y042471D01*
X071723Y042446D01*
X071708Y042422D01*
X071691Y042401D01*
X071670Y042383D01*
X071648Y042367D01*
X071623Y042355D01*
X071597Y042347D01*
X071570Y042342D01*
X071542Y042341D01*
X071515Y042344D01*
X071488Y042351D01*
X071463Y042361D01*
X071439Y042375D01*
X071417Y042392D01*
X071398Y042411D01*
X071382Y042434D01*
X071369Y042458D01*
X071360Y042484D01*
X071354Y042511D01*
X071352Y042538D01*
X071352Y035038D02*
X071354Y035065D01*
X071360Y035092D01*
X071369Y035118D01*
X071382Y035142D01*
X071398Y035165D01*
X071417Y035184D01*
X071439Y035201D01*
X071463Y035215D01*
X071488Y035225D01*
X071515Y035232D01*
X071542Y035235D01*
X071570Y035234D01*
X071597Y035229D01*
X071623Y035221D01*
X071647Y035209D01*
X071670Y035193D01*
X071691Y035175D01*
X071708Y035154D01*
X071723Y035130D01*
X071734Y035105D01*
X071742Y035079D01*
X071746Y035052D01*
X071746Y035024D01*
X071742Y034997D01*
X071734Y034971D01*
X071723Y034946D01*
X071708Y034922D01*
X071691Y034901D01*
X071670Y034883D01*
X071648Y034867D01*
X071623Y034855D01*
X071597Y034847D01*
X071570Y034842D01*
X071542Y034841D01*
X071515Y034844D01*
X071488Y034851D01*
X071463Y034861D01*
X071439Y034875D01*
X071417Y034892D01*
X071398Y034911D01*
X071382Y034934D01*
X071369Y034958D01*
X071360Y034984D01*
X071354Y035011D01*
X071352Y035038D01*
X063852Y035038D02*
X063854Y035065D01*
X063860Y035092D01*
X063869Y035118D01*
X063882Y035142D01*
X063898Y035165D01*
X063917Y035184D01*
X063939Y035201D01*
X063963Y035215D01*
X063988Y035225D01*
X064015Y035232D01*
X064042Y035235D01*
X064070Y035234D01*
X064097Y035229D01*
X064123Y035221D01*
X064147Y035209D01*
X064170Y035193D01*
X064191Y035175D01*
X064208Y035154D01*
X064223Y035130D01*
X064234Y035105D01*
X064242Y035079D01*
X064246Y035052D01*
X064246Y035024D01*
X064242Y034997D01*
X064234Y034971D01*
X064223Y034946D01*
X064208Y034922D01*
X064191Y034901D01*
X064170Y034883D01*
X064148Y034867D01*
X064123Y034855D01*
X064097Y034847D01*
X064070Y034842D01*
X064042Y034841D01*
X064015Y034844D01*
X063988Y034851D01*
X063963Y034861D01*
X063939Y034875D01*
X063917Y034892D01*
X063898Y034911D01*
X063882Y034934D01*
X063869Y034958D01*
X063860Y034984D01*
X063854Y035011D01*
X063852Y035038D01*
X056352Y035038D02*
X056354Y035065D01*
X056360Y035092D01*
X056369Y035118D01*
X056382Y035142D01*
X056398Y035165D01*
X056417Y035184D01*
X056439Y035201D01*
X056463Y035215D01*
X056488Y035225D01*
X056515Y035232D01*
X056542Y035235D01*
X056570Y035234D01*
X056597Y035229D01*
X056623Y035221D01*
X056647Y035209D01*
X056670Y035193D01*
X056691Y035175D01*
X056708Y035154D01*
X056723Y035130D01*
X056734Y035105D01*
X056742Y035079D01*
X056746Y035052D01*
X056746Y035024D01*
X056742Y034997D01*
X056734Y034971D01*
X056723Y034946D01*
X056708Y034922D01*
X056691Y034901D01*
X056670Y034883D01*
X056648Y034867D01*
X056623Y034855D01*
X056597Y034847D01*
X056570Y034842D01*
X056542Y034841D01*
X056515Y034844D01*
X056488Y034851D01*
X056463Y034861D01*
X056439Y034875D01*
X056417Y034892D01*
X056398Y034911D01*
X056382Y034934D01*
X056369Y034958D01*
X056360Y034984D01*
X056354Y035011D01*
X056352Y035038D01*
X048852Y035038D02*
X048854Y035065D01*
X048860Y035092D01*
X048869Y035118D01*
X048882Y035142D01*
X048898Y035165D01*
X048917Y035184D01*
X048939Y035201D01*
X048963Y035215D01*
X048988Y035225D01*
X049015Y035232D01*
X049042Y035235D01*
X049070Y035234D01*
X049097Y035229D01*
X049123Y035221D01*
X049147Y035209D01*
X049170Y035193D01*
X049191Y035175D01*
X049208Y035154D01*
X049223Y035130D01*
X049234Y035105D01*
X049242Y035079D01*
X049246Y035052D01*
X049246Y035024D01*
X049242Y034997D01*
X049234Y034971D01*
X049223Y034946D01*
X049208Y034922D01*
X049191Y034901D01*
X049170Y034883D01*
X049148Y034867D01*
X049123Y034855D01*
X049097Y034847D01*
X049070Y034842D01*
X049042Y034841D01*
X049015Y034844D01*
X048988Y034851D01*
X048963Y034861D01*
X048939Y034875D01*
X048917Y034892D01*
X048898Y034911D01*
X048882Y034934D01*
X048869Y034958D01*
X048860Y034984D01*
X048854Y035011D01*
X048852Y035038D01*
X041352Y035038D02*
X041354Y035065D01*
X041360Y035092D01*
X041369Y035118D01*
X041382Y035142D01*
X041398Y035165D01*
X041417Y035184D01*
X041439Y035201D01*
X041463Y035215D01*
X041488Y035225D01*
X041515Y035232D01*
X041542Y035235D01*
X041570Y035234D01*
X041597Y035229D01*
X041623Y035221D01*
X041647Y035209D01*
X041670Y035193D01*
X041691Y035175D01*
X041708Y035154D01*
X041723Y035130D01*
X041734Y035105D01*
X041742Y035079D01*
X041746Y035052D01*
X041746Y035024D01*
X041742Y034997D01*
X041734Y034971D01*
X041723Y034946D01*
X041708Y034922D01*
X041691Y034901D01*
X041670Y034883D01*
X041648Y034867D01*
X041623Y034855D01*
X041597Y034847D01*
X041570Y034842D01*
X041542Y034841D01*
X041515Y034844D01*
X041488Y034851D01*
X041463Y034861D01*
X041439Y034875D01*
X041417Y034892D01*
X041398Y034911D01*
X041382Y034934D01*
X041369Y034958D01*
X041360Y034984D01*
X041354Y035011D01*
X041352Y035038D01*
X031852Y035038D02*
X031854Y035065D01*
X031860Y035092D01*
X031869Y035118D01*
X031882Y035142D01*
X031898Y035165D01*
X031917Y035184D01*
X031939Y035201D01*
X031963Y035215D01*
X031988Y035225D01*
X032015Y035232D01*
X032042Y035235D01*
X032070Y035234D01*
X032097Y035229D01*
X032123Y035221D01*
X032147Y035209D01*
X032170Y035193D01*
X032191Y035175D01*
X032208Y035154D01*
X032223Y035130D01*
X032234Y035105D01*
X032242Y035079D01*
X032246Y035052D01*
X032246Y035024D01*
X032242Y034997D01*
X032234Y034971D01*
X032223Y034946D01*
X032208Y034922D01*
X032191Y034901D01*
X032170Y034883D01*
X032148Y034867D01*
X032123Y034855D01*
X032097Y034847D01*
X032070Y034842D01*
X032042Y034841D01*
X032015Y034844D01*
X031988Y034851D01*
X031963Y034861D01*
X031939Y034875D01*
X031917Y034892D01*
X031898Y034911D01*
X031882Y034934D01*
X031869Y034958D01*
X031860Y034984D01*
X031854Y035011D01*
X031852Y035038D01*
X030852Y027538D02*
X030854Y027565D01*
X030860Y027592D01*
X030869Y027618D01*
X030882Y027642D01*
X030898Y027665D01*
X030917Y027684D01*
X030939Y027701D01*
X030963Y027715D01*
X030988Y027725D01*
X031015Y027732D01*
X031042Y027735D01*
X031070Y027734D01*
X031097Y027729D01*
X031123Y027721D01*
X031147Y027709D01*
X031170Y027693D01*
X031191Y027675D01*
X031208Y027654D01*
X031223Y027630D01*
X031234Y027605D01*
X031242Y027579D01*
X031246Y027552D01*
X031246Y027524D01*
X031242Y027497D01*
X031234Y027471D01*
X031223Y027446D01*
X031208Y027422D01*
X031191Y027401D01*
X031170Y027383D01*
X031148Y027367D01*
X031123Y027355D01*
X031097Y027347D01*
X031070Y027342D01*
X031042Y027341D01*
X031015Y027344D01*
X030988Y027351D01*
X030963Y027361D01*
X030939Y027375D01*
X030917Y027392D01*
X030898Y027411D01*
X030882Y027434D01*
X030869Y027458D01*
X030860Y027484D01*
X030854Y027511D01*
X030852Y027538D01*
X041352Y027538D02*
X041354Y027565D01*
X041360Y027592D01*
X041369Y027618D01*
X041382Y027642D01*
X041398Y027665D01*
X041417Y027684D01*
X041439Y027701D01*
X041463Y027715D01*
X041488Y027725D01*
X041515Y027732D01*
X041542Y027735D01*
X041570Y027734D01*
X041597Y027729D01*
X041623Y027721D01*
X041647Y027709D01*
X041670Y027693D01*
X041691Y027675D01*
X041708Y027654D01*
X041723Y027630D01*
X041734Y027605D01*
X041742Y027579D01*
X041746Y027552D01*
X041746Y027524D01*
X041742Y027497D01*
X041734Y027471D01*
X041723Y027446D01*
X041708Y027422D01*
X041691Y027401D01*
X041670Y027383D01*
X041648Y027367D01*
X041623Y027355D01*
X041597Y027347D01*
X041570Y027342D01*
X041542Y027341D01*
X041515Y027344D01*
X041488Y027351D01*
X041463Y027361D01*
X041439Y027375D01*
X041417Y027392D01*
X041398Y027411D01*
X041382Y027434D01*
X041369Y027458D01*
X041360Y027484D01*
X041354Y027511D01*
X041352Y027538D01*
X048852Y027538D02*
X048854Y027565D01*
X048860Y027592D01*
X048869Y027618D01*
X048882Y027642D01*
X048898Y027665D01*
X048917Y027684D01*
X048939Y027701D01*
X048963Y027715D01*
X048988Y027725D01*
X049015Y027732D01*
X049042Y027735D01*
X049070Y027734D01*
X049097Y027729D01*
X049123Y027721D01*
X049147Y027709D01*
X049170Y027693D01*
X049191Y027675D01*
X049208Y027654D01*
X049223Y027630D01*
X049234Y027605D01*
X049242Y027579D01*
X049246Y027552D01*
X049246Y027524D01*
X049242Y027497D01*
X049234Y027471D01*
X049223Y027446D01*
X049208Y027422D01*
X049191Y027401D01*
X049170Y027383D01*
X049148Y027367D01*
X049123Y027355D01*
X049097Y027347D01*
X049070Y027342D01*
X049042Y027341D01*
X049015Y027344D01*
X048988Y027351D01*
X048963Y027361D01*
X048939Y027375D01*
X048917Y027392D01*
X048898Y027411D01*
X048882Y027434D01*
X048869Y027458D01*
X048860Y027484D01*
X048854Y027511D01*
X048852Y027538D01*
X056352Y027538D02*
X056354Y027565D01*
X056360Y027592D01*
X056369Y027618D01*
X056382Y027642D01*
X056398Y027665D01*
X056417Y027684D01*
X056439Y027701D01*
X056463Y027715D01*
X056488Y027725D01*
X056515Y027732D01*
X056542Y027735D01*
X056570Y027734D01*
X056597Y027729D01*
X056623Y027721D01*
X056647Y027709D01*
X056670Y027693D01*
X056691Y027675D01*
X056708Y027654D01*
X056723Y027630D01*
X056734Y027605D01*
X056742Y027579D01*
X056746Y027552D01*
X056746Y027524D01*
X056742Y027497D01*
X056734Y027471D01*
X056723Y027446D01*
X056708Y027422D01*
X056691Y027401D01*
X056670Y027383D01*
X056648Y027367D01*
X056623Y027355D01*
X056597Y027347D01*
X056570Y027342D01*
X056542Y027341D01*
X056515Y027344D01*
X056488Y027351D01*
X056463Y027361D01*
X056439Y027375D01*
X056417Y027392D01*
X056398Y027411D01*
X056382Y027434D01*
X056369Y027458D01*
X056360Y027484D01*
X056354Y027511D01*
X056352Y027538D01*
X063852Y027538D02*
X063854Y027565D01*
X063860Y027592D01*
X063869Y027618D01*
X063882Y027642D01*
X063898Y027665D01*
X063917Y027684D01*
X063939Y027701D01*
X063963Y027715D01*
X063988Y027725D01*
X064015Y027732D01*
X064042Y027735D01*
X064070Y027734D01*
X064097Y027729D01*
X064123Y027721D01*
X064147Y027709D01*
X064170Y027693D01*
X064191Y027675D01*
X064208Y027654D01*
X064223Y027630D01*
X064234Y027605D01*
X064242Y027579D01*
X064246Y027552D01*
X064246Y027524D01*
X064242Y027497D01*
X064234Y027471D01*
X064223Y027446D01*
X064208Y027422D01*
X064191Y027401D01*
X064170Y027383D01*
X064148Y027367D01*
X064123Y027355D01*
X064097Y027347D01*
X064070Y027342D01*
X064042Y027341D01*
X064015Y027344D01*
X063988Y027351D01*
X063963Y027361D01*
X063939Y027375D01*
X063917Y027392D01*
X063898Y027411D01*
X063882Y027434D01*
X063869Y027458D01*
X063860Y027484D01*
X063854Y027511D01*
X063852Y027538D01*
X071352Y027538D02*
X071354Y027565D01*
X071360Y027592D01*
X071369Y027618D01*
X071382Y027642D01*
X071398Y027665D01*
X071417Y027684D01*
X071439Y027701D01*
X071463Y027715D01*
X071488Y027725D01*
X071515Y027732D01*
X071542Y027735D01*
X071570Y027734D01*
X071597Y027729D01*
X071623Y027721D01*
X071647Y027709D01*
X071670Y027693D01*
X071691Y027675D01*
X071708Y027654D01*
X071723Y027630D01*
X071734Y027605D01*
X071742Y027579D01*
X071746Y027552D01*
X071746Y027524D01*
X071742Y027497D01*
X071734Y027471D01*
X071723Y027446D01*
X071708Y027422D01*
X071691Y027401D01*
X071670Y027383D01*
X071648Y027367D01*
X071623Y027355D01*
X071597Y027347D01*
X071570Y027342D01*
X071542Y027341D01*
X071515Y027344D01*
X071488Y027351D01*
X071463Y027361D01*
X071439Y027375D01*
X071417Y027392D01*
X071398Y027411D01*
X071382Y027434D01*
X071369Y027458D01*
X071360Y027484D01*
X071354Y027511D01*
X071352Y027538D01*
X071352Y020038D02*
X071354Y020065D01*
X071360Y020092D01*
X071369Y020118D01*
X071382Y020142D01*
X071398Y020165D01*
X071417Y020184D01*
X071439Y020201D01*
X071463Y020215D01*
X071488Y020225D01*
X071515Y020232D01*
X071542Y020235D01*
X071570Y020234D01*
X071597Y020229D01*
X071623Y020221D01*
X071647Y020209D01*
X071670Y020193D01*
X071691Y020175D01*
X071708Y020154D01*
X071723Y020130D01*
X071734Y020105D01*
X071742Y020079D01*
X071746Y020052D01*
X071746Y020024D01*
X071742Y019997D01*
X071734Y019971D01*
X071723Y019946D01*
X071708Y019922D01*
X071691Y019901D01*
X071670Y019883D01*
X071648Y019867D01*
X071623Y019855D01*
X071597Y019847D01*
X071570Y019842D01*
X071542Y019841D01*
X071515Y019844D01*
X071488Y019851D01*
X071463Y019861D01*
X071439Y019875D01*
X071417Y019892D01*
X071398Y019911D01*
X071382Y019934D01*
X071369Y019958D01*
X071360Y019984D01*
X071354Y020011D01*
X071352Y020038D01*
X063852Y020038D02*
X063854Y020065D01*
X063860Y020092D01*
X063869Y020118D01*
X063882Y020142D01*
X063898Y020165D01*
X063917Y020184D01*
X063939Y020201D01*
X063963Y020215D01*
X063988Y020225D01*
X064015Y020232D01*
X064042Y020235D01*
X064070Y020234D01*
X064097Y020229D01*
X064123Y020221D01*
X064147Y020209D01*
X064170Y020193D01*
X064191Y020175D01*
X064208Y020154D01*
X064223Y020130D01*
X064234Y020105D01*
X064242Y020079D01*
X064246Y020052D01*
X064246Y020024D01*
X064242Y019997D01*
X064234Y019971D01*
X064223Y019946D01*
X064208Y019922D01*
X064191Y019901D01*
X064170Y019883D01*
X064148Y019867D01*
X064123Y019855D01*
X064097Y019847D01*
X064070Y019842D01*
X064042Y019841D01*
X064015Y019844D01*
X063988Y019851D01*
X063963Y019861D01*
X063939Y019875D01*
X063917Y019892D01*
X063898Y019911D01*
X063882Y019934D01*
X063869Y019958D01*
X063860Y019984D01*
X063854Y020011D01*
X063852Y020038D01*
X056352Y020038D02*
X056354Y020065D01*
X056360Y020092D01*
X056369Y020118D01*
X056382Y020142D01*
X056398Y020165D01*
X056417Y020184D01*
X056439Y020201D01*
X056463Y020215D01*
X056488Y020225D01*
X056515Y020232D01*
X056542Y020235D01*
X056570Y020234D01*
X056597Y020229D01*
X056623Y020221D01*
X056647Y020209D01*
X056670Y020193D01*
X056691Y020175D01*
X056708Y020154D01*
X056723Y020130D01*
X056734Y020105D01*
X056742Y020079D01*
X056746Y020052D01*
X056746Y020024D01*
X056742Y019997D01*
X056734Y019971D01*
X056723Y019946D01*
X056708Y019922D01*
X056691Y019901D01*
X056670Y019883D01*
X056648Y019867D01*
X056623Y019855D01*
X056597Y019847D01*
X056570Y019842D01*
X056542Y019841D01*
X056515Y019844D01*
X056488Y019851D01*
X056463Y019861D01*
X056439Y019875D01*
X056417Y019892D01*
X056398Y019911D01*
X056382Y019934D01*
X056369Y019958D01*
X056360Y019984D01*
X056354Y020011D01*
X056352Y020038D01*
X048852Y020038D02*
X048854Y020065D01*
X048860Y020092D01*
X048869Y020118D01*
X048882Y020142D01*
X048898Y020165D01*
X048917Y020184D01*
X048939Y020201D01*
X048963Y020215D01*
X048988Y020225D01*
X049015Y020232D01*
X049042Y020235D01*
X049070Y020234D01*
X049097Y020229D01*
X049123Y020221D01*
X049147Y020209D01*
X049170Y020193D01*
X049191Y020175D01*
X049208Y020154D01*
X049223Y020130D01*
X049234Y020105D01*
X049242Y020079D01*
X049246Y020052D01*
X049246Y020024D01*
X049242Y019997D01*
X049234Y019971D01*
X049223Y019946D01*
X049208Y019922D01*
X049191Y019901D01*
X049170Y019883D01*
X049148Y019867D01*
X049123Y019855D01*
X049097Y019847D01*
X049070Y019842D01*
X049042Y019841D01*
X049015Y019844D01*
X048988Y019851D01*
X048963Y019861D01*
X048939Y019875D01*
X048917Y019892D01*
X048898Y019911D01*
X048882Y019934D01*
X048869Y019958D01*
X048860Y019984D01*
X048854Y020011D01*
X048852Y020038D01*
X041352Y020038D02*
X041354Y020065D01*
X041360Y020092D01*
X041369Y020118D01*
X041382Y020142D01*
X041398Y020165D01*
X041417Y020184D01*
X041439Y020201D01*
X041463Y020215D01*
X041488Y020225D01*
X041515Y020232D01*
X041542Y020235D01*
X041570Y020234D01*
X041597Y020229D01*
X041623Y020221D01*
X041647Y020209D01*
X041670Y020193D01*
X041691Y020175D01*
X041708Y020154D01*
X041723Y020130D01*
X041734Y020105D01*
X041742Y020079D01*
X041746Y020052D01*
X041746Y020024D01*
X041742Y019997D01*
X041734Y019971D01*
X041723Y019946D01*
X041708Y019922D01*
X041691Y019901D01*
X041670Y019883D01*
X041648Y019867D01*
X041623Y019855D01*
X041597Y019847D01*
X041570Y019842D01*
X041542Y019841D01*
X041515Y019844D01*
X041488Y019851D01*
X041463Y019861D01*
X041439Y019875D01*
X041417Y019892D01*
X041398Y019911D01*
X041382Y019934D01*
X041369Y019958D01*
X041360Y019984D01*
X041354Y020011D01*
X041352Y020038D01*
X030102Y020038D02*
X030104Y020065D01*
X030110Y020092D01*
X030119Y020118D01*
X030132Y020142D01*
X030148Y020165D01*
X030167Y020184D01*
X030189Y020201D01*
X030213Y020215D01*
X030238Y020225D01*
X030265Y020232D01*
X030292Y020235D01*
X030320Y020234D01*
X030347Y020229D01*
X030373Y020221D01*
X030397Y020209D01*
X030420Y020193D01*
X030441Y020175D01*
X030458Y020154D01*
X030473Y020130D01*
X030484Y020105D01*
X030492Y020079D01*
X030496Y020052D01*
X030496Y020024D01*
X030492Y019997D01*
X030484Y019971D01*
X030473Y019946D01*
X030458Y019922D01*
X030441Y019901D01*
X030420Y019883D01*
X030398Y019867D01*
X030373Y019855D01*
X030347Y019847D01*
X030320Y019842D01*
X030292Y019841D01*
X030265Y019844D01*
X030238Y019851D01*
X030213Y019861D01*
X030189Y019875D01*
X030167Y019892D01*
X030148Y019911D01*
X030132Y019934D01*
X030119Y019958D01*
X030110Y019984D01*
X030104Y020011D01*
X030102Y020038D01*
X016352Y020038D02*
X016354Y020065D01*
X016360Y020092D01*
X016369Y020118D01*
X016382Y020142D01*
X016398Y020165D01*
X016417Y020184D01*
X016439Y020201D01*
X016463Y020215D01*
X016488Y020225D01*
X016515Y020232D01*
X016542Y020235D01*
X016570Y020234D01*
X016597Y020229D01*
X016623Y020221D01*
X016647Y020209D01*
X016670Y020193D01*
X016691Y020175D01*
X016708Y020154D01*
X016723Y020130D01*
X016734Y020105D01*
X016742Y020079D01*
X016746Y020052D01*
X016746Y020024D01*
X016742Y019997D01*
X016734Y019971D01*
X016723Y019946D01*
X016708Y019922D01*
X016691Y019901D01*
X016670Y019883D01*
X016648Y019867D01*
X016623Y019855D01*
X016597Y019847D01*
X016570Y019842D01*
X016542Y019841D01*
X016515Y019844D01*
X016488Y019851D01*
X016463Y019861D01*
X016439Y019875D01*
X016417Y019892D01*
X016398Y019911D01*
X016382Y019934D01*
X016369Y019958D01*
X016360Y019984D01*
X016354Y020011D01*
X016352Y020038D01*
X016352Y012538D02*
X016354Y012565D01*
X016360Y012592D01*
X016369Y012618D01*
X016382Y012642D01*
X016398Y012665D01*
X016417Y012684D01*
X016439Y012701D01*
X016463Y012715D01*
X016488Y012725D01*
X016515Y012732D01*
X016542Y012735D01*
X016570Y012734D01*
X016597Y012729D01*
X016623Y012721D01*
X016647Y012709D01*
X016670Y012693D01*
X016691Y012675D01*
X016708Y012654D01*
X016723Y012630D01*
X016734Y012605D01*
X016742Y012579D01*
X016746Y012552D01*
X016746Y012524D01*
X016742Y012497D01*
X016734Y012471D01*
X016723Y012446D01*
X016708Y012422D01*
X016691Y012401D01*
X016670Y012383D01*
X016648Y012367D01*
X016623Y012355D01*
X016597Y012347D01*
X016570Y012342D01*
X016542Y012341D01*
X016515Y012344D01*
X016488Y012351D01*
X016463Y012361D01*
X016439Y012375D01*
X016417Y012392D01*
X016398Y012411D01*
X016382Y012434D01*
X016369Y012458D01*
X016360Y012484D01*
X016354Y012511D01*
X016352Y012538D01*
X008852Y012538D02*
X008854Y012565D01*
X008860Y012592D01*
X008869Y012618D01*
X008882Y012642D01*
X008898Y012665D01*
X008917Y012684D01*
X008939Y012701D01*
X008963Y012715D01*
X008988Y012725D01*
X009015Y012732D01*
X009042Y012735D01*
X009070Y012734D01*
X009097Y012729D01*
X009123Y012721D01*
X009147Y012709D01*
X009170Y012693D01*
X009191Y012675D01*
X009208Y012654D01*
X009223Y012630D01*
X009234Y012605D01*
X009242Y012579D01*
X009246Y012552D01*
X009246Y012524D01*
X009242Y012497D01*
X009234Y012471D01*
X009223Y012446D01*
X009208Y012422D01*
X009191Y012401D01*
X009170Y012383D01*
X009148Y012367D01*
X009123Y012355D01*
X009097Y012347D01*
X009070Y012342D01*
X009042Y012341D01*
X009015Y012344D01*
X008988Y012351D01*
X008963Y012361D01*
X008939Y012375D01*
X008917Y012392D01*
X008898Y012411D01*
X008882Y012434D01*
X008869Y012458D01*
X008860Y012484D01*
X008854Y012511D01*
X008852Y012538D01*
X023852Y012538D02*
X023854Y012565D01*
X023860Y012592D01*
X023869Y012618D01*
X023882Y012642D01*
X023898Y012665D01*
X023917Y012684D01*
X023939Y012701D01*
X023963Y012715D01*
X023988Y012725D01*
X024015Y012732D01*
X024042Y012735D01*
X024070Y012734D01*
X024097Y012729D01*
X024123Y012721D01*
X024147Y012709D01*
X024170Y012693D01*
X024191Y012675D01*
X024208Y012654D01*
X024223Y012630D01*
X024234Y012605D01*
X024242Y012579D01*
X024246Y012552D01*
X024246Y012524D01*
X024242Y012497D01*
X024234Y012471D01*
X024223Y012446D01*
X024208Y012422D01*
X024191Y012401D01*
X024170Y012383D01*
X024148Y012367D01*
X024123Y012355D01*
X024097Y012347D01*
X024070Y012342D01*
X024042Y012341D01*
X024015Y012344D01*
X023988Y012351D01*
X023963Y012361D01*
X023939Y012375D01*
X023917Y012392D01*
X023898Y012411D01*
X023882Y012434D01*
X023869Y012458D01*
X023860Y012484D01*
X023854Y012511D01*
X023852Y012538D01*
X031477Y012538D02*
X031479Y012565D01*
X031485Y012592D01*
X031494Y012618D01*
X031507Y012642D01*
X031523Y012665D01*
X031542Y012684D01*
X031564Y012701D01*
X031588Y012715D01*
X031613Y012725D01*
X031640Y012732D01*
X031667Y012735D01*
X031695Y012734D01*
X031722Y012729D01*
X031748Y012721D01*
X031772Y012709D01*
X031795Y012693D01*
X031816Y012675D01*
X031833Y012654D01*
X031848Y012630D01*
X031859Y012605D01*
X031867Y012579D01*
X031871Y012552D01*
X031871Y012524D01*
X031867Y012497D01*
X031859Y012471D01*
X031848Y012446D01*
X031833Y012422D01*
X031816Y012401D01*
X031795Y012383D01*
X031773Y012367D01*
X031748Y012355D01*
X031722Y012347D01*
X031695Y012342D01*
X031667Y012341D01*
X031640Y012344D01*
X031613Y012351D01*
X031588Y012361D01*
X031564Y012375D01*
X031542Y012392D01*
X031523Y012411D01*
X031507Y012434D01*
X031494Y012458D01*
X031485Y012484D01*
X031479Y012511D01*
X031477Y012538D01*
X037387Y012538D02*
X037389Y012594D01*
X037395Y012649D01*
X037405Y012703D01*
X037418Y012757D01*
X037436Y012810D01*
X037457Y012861D01*
X037481Y012911D01*
X037509Y012959D01*
X037541Y013005D01*
X037575Y013049D01*
X037613Y013090D01*
X037653Y013128D01*
X037696Y013163D01*
X037741Y013195D01*
X037789Y013224D01*
X037838Y013250D01*
X037889Y013272D01*
X037941Y013290D01*
X037995Y013304D01*
X038050Y013315D01*
X038105Y013322D01*
X038160Y013325D01*
X038216Y013324D01*
X038271Y013319D01*
X038326Y013310D01*
X038380Y013298D01*
X038433Y013281D01*
X038485Y013261D01*
X038535Y013237D01*
X038583Y013210D01*
X038630Y013180D01*
X038674Y013146D01*
X038716Y013109D01*
X038754Y013069D01*
X038791Y013027D01*
X038824Y012982D01*
X038853Y012936D01*
X038880Y012887D01*
X038902Y012836D01*
X038922Y012784D01*
X038937Y012730D01*
X038949Y012676D01*
X038957Y012621D01*
X038961Y012566D01*
X038961Y012510D01*
X038957Y012455D01*
X038949Y012400D01*
X038937Y012346D01*
X038922Y012292D01*
X038902Y012240D01*
X038880Y012189D01*
X038853Y012140D01*
X038824Y012094D01*
X038791Y012049D01*
X038754Y012007D01*
X038716Y011967D01*
X038674Y011930D01*
X038630Y011896D01*
X038583Y011866D01*
X038535Y011839D01*
X038485Y011815D01*
X038433Y011795D01*
X038380Y011778D01*
X038326Y011766D01*
X038271Y011757D01*
X038216Y011752D01*
X038160Y011751D01*
X038105Y011754D01*
X038050Y011761D01*
X037995Y011772D01*
X037941Y011786D01*
X037889Y011804D01*
X037838Y011826D01*
X037789Y011852D01*
X037741Y011881D01*
X037696Y011913D01*
X037653Y011948D01*
X037613Y011986D01*
X037575Y012027D01*
X037541Y012071D01*
X037509Y012117D01*
X037481Y012165D01*
X037457Y012215D01*
X037436Y012266D01*
X037418Y012319D01*
X037405Y012373D01*
X037395Y012427D01*
X037389Y012482D01*
X037387Y012538D01*
X039102Y012538D02*
X039104Y012565D01*
X039110Y012592D01*
X039119Y012618D01*
X039132Y012642D01*
X039148Y012665D01*
X039167Y012684D01*
X039189Y012701D01*
X039213Y012715D01*
X039238Y012725D01*
X039265Y012732D01*
X039292Y012735D01*
X039320Y012734D01*
X039347Y012729D01*
X039373Y012721D01*
X039397Y012709D01*
X039420Y012693D01*
X039441Y012675D01*
X039458Y012654D01*
X039473Y012630D01*
X039484Y012605D01*
X039492Y012579D01*
X039496Y012552D01*
X039496Y012524D01*
X039492Y012497D01*
X039484Y012471D01*
X039473Y012446D01*
X039458Y012422D01*
X039441Y012401D01*
X039420Y012383D01*
X039398Y012367D01*
X039373Y012355D01*
X039347Y012347D01*
X039320Y012342D01*
X039292Y012341D01*
X039265Y012344D01*
X039238Y012351D01*
X039213Y012361D01*
X039189Y012375D01*
X039167Y012392D01*
X039148Y012411D01*
X039132Y012434D01*
X039119Y012458D01*
X039110Y012484D01*
X039104Y012511D01*
X039102Y012538D01*
X047477Y012538D02*
X047479Y012565D01*
X047485Y012592D01*
X047494Y012618D01*
X047507Y012642D01*
X047523Y012665D01*
X047542Y012684D01*
X047564Y012701D01*
X047588Y012715D01*
X047613Y012725D01*
X047640Y012732D01*
X047667Y012735D01*
X047695Y012734D01*
X047722Y012729D01*
X047748Y012721D01*
X047772Y012709D01*
X047795Y012693D01*
X047816Y012675D01*
X047833Y012654D01*
X047848Y012630D01*
X047859Y012605D01*
X047867Y012579D01*
X047871Y012552D01*
X047871Y012524D01*
X047867Y012497D01*
X047859Y012471D01*
X047848Y012446D01*
X047833Y012422D01*
X047816Y012401D01*
X047795Y012383D01*
X047773Y012367D01*
X047748Y012355D01*
X047722Y012347D01*
X047695Y012342D01*
X047667Y012341D01*
X047640Y012344D01*
X047613Y012351D01*
X047588Y012361D01*
X047564Y012375D01*
X047542Y012392D01*
X047523Y012411D01*
X047507Y012434D01*
X047494Y012458D01*
X047485Y012484D01*
X047479Y012511D01*
X047477Y012538D01*
X062602Y012538D02*
X062604Y012565D01*
X062610Y012592D01*
X062619Y012618D01*
X062632Y012642D01*
X062648Y012665D01*
X062667Y012684D01*
X062689Y012701D01*
X062713Y012715D01*
X062738Y012725D01*
X062765Y012732D01*
X062792Y012735D01*
X062820Y012734D01*
X062847Y012729D01*
X062873Y012721D01*
X062897Y012709D01*
X062920Y012693D01*
X062941Y012675D01*
X062958Y012654D01*
X062973Y012630D01*
X062984Y012605D01*
X062992Y012579D01*
X062996Y012552D01*
X062996Y012524D01*
X062992Y012497D01*
X062984Y012471D01*
X062973Y012446D01*
X062958Y012422D01*
X062941Y012401D01*
X062920Y012383D01*
X062898Y012367D01*
X062873Y012355D01*
X062847Y012347D01*
X062820Y012342D01*
X062792Y012341D01*
X062765Y012344D01*
X062738Y012351D01*
X062713Y012361D01*
X062689Y012375D01*
X062667Y012392D01*
X062648Y012411D01*
X062632Y012434D01*
X062619Y012458D01*
X062610Y012484D01*
X062604Y012511D01*
X062602Y012538D01*
X016352Y030538D02*
X016354Y030565D01*
X016360Y030592D01*
X016369Y030618D01*
X016382Y030642D01*
X016398Y030665D01*
X016417Y030684D01*
X016439Y030701D01*
X016463Y030715D01*
X016488Y030725D01*
X016515Y030732D01*
X016542Y030735D01*
X016570Y030734D01*
X016597Y030729D01*
X016623Y030721D01*
X016647Y030709D01*
X016670Y030693D01*
X016691Y030675D01*
X016708Y030654D01*
X016723Y030630D01*
X016734Y030605D01*
X016742Y030579D01*
X016746Y030552D01*
X016746Y030524D01*
X016742Y030497D01*
X016734Y030471D01*
X016723Y030446D01*
X016708Y030422D01*
X016691Y030401D01*
X016670Y030383D01*
X016648Y030367D01*
X016623Y030355D01*
X016597Y030347D01*
X016570Y030342D01*
X016542Y030341D01*
X016515Y030344D01*
X016488Y030351D01*
X016463Y030361D01*
X016439Y030375D01*
X016417Y030392D01*
X016398Y030411D01*
X016382Y030434D01*
X016369Y030458D01*
X016360Y030484D01*
X016354Y030511D01*
X016352Y030538D01*
X008852Y030538D02*
X008854Y030565D01*
X008860Y030592D01*
X008869Y030618D01*
X008882Y030642D01*
X008898Y030665D01*
X008917Y030684D01*
X008939Y030701D01*
X008963Y030715D01*
X008988Y030725D01*
X009015Y030732D01*
X009042Y030735D01*
X009070Y030734D01*
X009097Y030729D01*
X009123Y030721D01*
X009147Y030709D01*
X009170Y030693D01*
X009191Y030675D01*
X009208Y030654D01*
X009223Y030630D01*
X009234Y030605D01*
X009242Y030579D01*
X009246Y030552D01*
X009246Y030524D01*
X009242Y030497D01*
X009234Y030471D01*
X009223Y030446D01*
X009208Y030422D01*
X009191Y030401D01*
X009170Y030383D01*
X009148Y030367D01*
X009123Y030355D01*
X009097Y030347D01*
X009070Y030342D01*
X009042Y030341D01*
X009015Y030344D01*
X008988Y030351D01*
X008963Y030361D01*
X008939Y030375D01*
X008917Y030392D01*
X008898Y030411D01*
X008882Y030434D01*
X008869Y030458D01*
X008860Y030484D01*
X008854Y030511D01*
X008852Y030538D01*
X008852Y038038D02*
X008854Y038065D01*
X008860Y038092D01*
X008869Y038118D01*
X008882Y038142D01*
X008898Y038165D01*
X008917Y038184D01*
X008939Y038201D01*
X008963Y038215D01*
X008988Y038225D01*
X009015Y038232D01*
X009042Y038235D01*
X009070Y038234D01*
X009097Y038229D01*
X009123Y038221D01*
X009147Y038209D01*
X009170Y038193D01*
X009191Y038175D01*
X009208Y038154D01*
X009223Y038130D01*
X009234Y038105D01*
X009242Y038079D01*
X009246Y038052D01*
X009246Y038024D01*
X009242Y037997D01*
X009234Y037971D01*
X009223Y037946D01*
X009208Y037922D01*
X009191Y037901D01*
X009170Y037883D01*
X009148Y037867D01*
X009123Y037855D01*
X009097Y037847D01*
X009070Y037842D01*
X009042Y037841D01*
X009015Y037844D01*
X008988Y037851D01*
X008963Y037861D01*
X008939Y037875D01*
X008917Y037892D01*
X008898Y037911D01*
X008882Y037934D01*
X008869Y037958D01*
X008860Y037984D01*
X008854Y038011D01*
X008852Y038038D01*
X016352Y038038D02*
X016354Y038065D01*
X016360Y038092D01*
X016369Y038118D01*
X016382Y038142D01*
X016398Y038165D01*
X016417Y038184D01*
X016439Y038201D01*
X016463Y038215D01*
X016488Y038225D01*
X016515Y038232D01*
X016542Y038235D01*
X016570Y038234D01*
X016597Y038229D01*
X016623Y038221D01*
X016647Y038209D01*
X016670Y038193D01*
X016691Y038175D01*
X016708Y038154D01*
X016723Y038130D01*
X016734Y038105D01*
X016742Y038079D01*
X016746Y038052D01*
X016746Y038024D01*
X016742Y037997D01*
X016734Y037971D01*
X016723Y037946D01*
X016708Y037922D01*
X016691Y037901D01*
X016670Y037883D01*
X016648Y037867D01*
X016623Y037855D01*
X016597Y037847D01*
X016570Y037842D01*
X016542Y037841D01*
X016515Y037844D01*
X016488Y037851D01*
X016463Y037861D01*
X016439Y037875D01*
X016417Y037892D01*
X016398Y037911D01*
X016382Y037934D01*
X016369Y037958D01*
X016360Y037984D01*
X016354Y038011D01*
X016352Y038038D01*
M02*
