G75*
G70*
%OFA0B0*%
%FSLAX24Y24*%
%IPPOS*%
%LPD*%
%AMOC8*
5,1,8,0,0,1.08239X$1,22.5*
%
%ADD10C,0.0140*%
%ADD11C,0.1500*%
%ADD12C,0.1012*%
%ADD13C,0.0860*%
%ADD14C,0.1181*%
%ADD15R,0.0630X0.0460*%
%ADD16C,0.0320*%
%ADD17R,0.0460X0.0630*%
%ADD18R,0.0709X0.0551*%
%ADD19R,0.0551X0.0709*%
%ADD20R,0.0827X0.0827*%
%ADD21R,0.0472X0.0709*%
%ADD22R,0.0472X0.0591*%
%ADD23R,0.0591X0.0472*%
%ADD24R,0.0591X0.0512*%
%ADD25C,0.0827*%
%ADD26OC8,0.0827*%
%ADD27R,0.0630X0.0512*%
%ADD28R,0.0512X0.0630*%
%ADD29C,0.0515*%
%ADD30C,0.0400*%
%ADD31C,0.0240*%
%ADD32R,0.0906X0.0906*%
%ADD33C,0.1969*%
%ADD34C,0.0787*%
%ADD35C,0.0160*%
D10*
X056500Y001510D02*
X056500Y001637D01*
X056627Y001763D01*
X057007Y001763D01*
X057007Y001510D01*
X056880Y001383D01*
X056627Y001383D01*
X056500Y001510D01*
X056753Y002017D02*
X056500Y002144D01*
X056753Y002017D02*
X057007Y001763D01*
X057329Y001383D02*
X057836Y001383D01*
X057582Y001383D02*
X057582Y002144D01*
X057836Y001890D01*
X058157Y001763D02*
X058664Y001763D01*
X058986Y001637D02*
X058986Y001510D01*
X059113Y001383D01*
X059366Y001383D01*
X059493Y001510D01*
X059493Y001637D01*
X059366Y001763D01*
X059113Y001763D01*
X058986Y001637D01*
X059113Y001763D02*
X058986Y001890D01*
X058986Y002017D01*
X059113Y002144D01*
X059366Y002144D01*
X059493Y002017D01*
X059493Y001890D01*
X059366Y001763D01*
X059815Y002017D02*
X059815Y002144D01*
X060322Y002144D01*
X059815Y002017D02*
X060322Y001510D01*
X060322Y001383D01*
X060643Y001383D02*
X061151Y001383D01*
X060897Y001383D02*
X060897Y002144D01*
X061151Y001890D01*
X061472Y001383D02*
X061979Y001383D01*
X061726Y001383D02*
X061726Y002144D01*
X061979Y001890D01*
D11*
X061799Y004688D03*
X064299Y005688D03*
X063049Y012188D03*
X065549Y013188D03*
X070549Y012188D03*
X073049Y013188D03*
X070549Y019688D03*
X073049Y020688D03*
X070549Y027188D03*
X073049Y028188D03*
X070549Y034688D03*
X073049Y035688D03*
X065549Y035688D03*
X063049Y034688D03*
X058049Y035688D03*
X055549Y034688D03*
X050549Y035688D03*
X048049Y034688D03*
X043049Y035688D03*
X040549Y034688D03*
X035549Y035688D03*
X033049Y034688D03*
X028049Y035688D03*
X025549Y034688D03*
X018049Y031188D03*
X015549Y030188D03*
X010549Y031188D03*
X008049Y030188D03*
X010549Y023688D03*
X008049Y022688D03*
X015549Y022688D03*
X018049Y023688D03*
X018049Y013188D03*
X015549Y012188D03*
X018049Y005688D03*
X015549Y004688D03*
X010549Y005688D03*
X008049Y004688D03*
X023049Y004688D03*
X025549Y005688D03*
X030674Y004688D03*
X033174Y005688D03*
X037174Y004688D03*
X038299Y004688D03*
X039674Y005688D03*
X040799Y005688D03*
X046674Y004688D03*
X049174Y005688D03*
X048049Y012188D03*
X050549Y013188D03*
X055549Y012188D03*
X058049Y013188D03*
X055549Y019688D03*
X058049Y020688D03*
X063049Y019688D03*
X065549Y020688D03*
X063049Y027188D03*
X065549Y028188D03*
X058049Y028188D03*
X055549Y027188D03*
X050549Y028188D03*
X048049Y027188D03*
X043049Y028188D03*
X040549Y027188D03*
X033549Y028188D03*
X031049Y027188D03*
X032549Y020688D03*
X030049Y019688D03*
X031799Y013188D03*
X029299Y012188D03*
X040549Y012188D03*
X043049Y013188D03*
X040549Y019688D03*
X043049Y020688D03*
X048049Y019688D03*
X050549Y020688D03*
X052549Y045188D03*
X055049Y046188D03*
X047549Y046188D03*
X045049Y045188D03*
X040049Y046188D03*
X037549Y045188D03*
X032549Y046188D03*
X030049Y045188D03*
X018049Y046188D03*
X015549Y045188D03*
X010549Y046188D03*
X008049Y045188D03*
X010549Y038688D03*
X008049Y037688D03*
X015549Y037688D03*
X018049Y038688D03*
X063049Y045188D03*
X065549Y046188D03*
X070549Y045188D03*
X073049Y046188D03*
D12*
X073549Y047188D03*
X069549Y047188D03*
X066049Y047188D03*
X062049Y047188D03*
X055549Y047188D03*
X051549Y047188D03*
X048049Y047188D03*
X044049Y047188D03*
X040549Y047188D03*
X036549Y047188D03*
X033049Y047188D03*
X029049Y047188D03*
X018549Y047188D03*
X014549Y047188D03*
X011049Y047188D03*
X007049Y047188D03*
X007049Y039688D03*
X011049Y039688D03*
X014549Y039688D03*
X018549Y039688D03*
X024549Y036688D03*
X028549Y036688D03*
X032049Y036688D03*
X036049Y036688D03*
X039549Y036688D03*
X043549Y036688D03*
X047049Y036688D03*
X051049Y036688D03*
X054549Y036688D03*
X058549Y036688D03*
X062049Y036688D03*
X066049Y036688D03*
X069549Y036688D03*
X073549Y036688D03*
X073549Y029188D03*
X069549Y029188D03*
X066049Y029188D03*
X062049Y029188D03*
X058549Y029188D03*
X054549Y029188D03*
X051049Y029188D03*
X047049Y029188D03*
X043549Y029188D03*
X039549Y029188D03*
X034049Y029188D03*
X030049Y029188D03*
X029049Y021688D03*
X033049Y021688D03*
X039549Y021688D03*
X043549Y021688D03*
X047049Y021688D03*
X051049Y021688D03*
X054549Y021688D03*
X058549Y021688D03*
X062049Y021688D03*
X066049Y021688D03*
X069549Y021688D03*
X073549Y021688D03*
X073549Y014188D03*
X069549Y014188D03*
X066049Y014188D03*
X062049Y014188D03*
X058549Y014188D03*
X054549Y014188D03*
X051049Y014188D03*
X047049Y014188D03*
X043549Y014188D03*
X039549Y014188D03*
X032299Y014188D03*
X028299Y014188D03*
X029674Y006688D03*
X026049Y006688D03*
X022049Y006688D03*
X018549Y006688D03*
X014549Y006688D03*
X011049Y006688D03*
X007049Y006688D03*
X014549Y014188D03*
X018549Y014188D03*
X018549Y024688D03*
X014549Y024688D03*
X011049Y024688D03*
X007049Y024688D03*
X007049Y032188D03*
X011049Y032188D03*
X014549Y032188D03*
X018549Y032188D03*
X033674Y006688D03*
X036174Y006688D03*
X037299Y006688D03*
X040174Y006688D03*
X041299Y006688D03*
X045674Y006688D03*
X049674Y006688D03*
X060799Y006688D03*
X064799Y006688D03*
D13*
X064299Y008258D02*
X064299Y009118D01*
X063299Y009118D02*
X063299Y008258D01*
X062299Y008258D02*
X062299Y009118D01*
X061299Y009118D02*
X061299Y008258D01*
X062549Y015758D02*
X062549Y016618D01*
X063549Y016618D02*
X063549Y015758D01*
X064549Y015758D02*
X064549Y016618D01*
X065549Y016618D02*
X065549Y015758D01*
X070049Y015758D02*
X070049Y016618D01*
X071049Y016618D02*
X071049Y015758D01*
X072049Y015758D02*
X072049Y016618D01*
X073049Y016618D02*
X073049Y015758D01*
X073049Y023258D02*
X073049Y024118D01*
X072049Y024118D02*
X072049Y023258D01*
X071049Y023258D02*
X071049Y024118D01*
X070049Y024118D02*
X070049Y023258D01*
X065549Y023258D02*
X065549Y024118D01*
X064549Y024118D02*
X064549Y023258D01*
X063549Y023258D02*
X063549Y024118D01*
X062549Y024118D02*
X062549Y023258D01*
X058049Y023258D02*
X058049Y024118D01*
X057049Y024118D02*
X057049Y023258D01*
X056049Y023258D02*
X056049Y024118D01*
X055049Y024118D02*
X055049Y023258D01*
X050549Y023258D02*
X050549Y024118D01*
X049549Y024118D02*
X049549Y023258D01*
X048549Y023258D02*
X048549Y024118D01*
X047549Y024118D02*
X047549Y023258D01*
X043049Y023258D02*
X043049Y024118D01*
X042049Y024118D02*
X042049Y023258D01*
X041049Y023258D02*
X041049Y024118D01*
X040049Y024118D02*
X040049Y023258D01*
X040049Y016618D02*
X040049Y015758D01*
X041049Y015758D02*
X041049Y016618D01*
X042049Y016618D02*
X042049Y015758D01*
X043049Y015758D02*
X043049Y016618D01*
X047549Y016618D02*
X047549Y015758D01*
X048549Y015758D02*
X048549Y016618D01*
X049549Y016618D02*
X049549Y015758D01*
X050549Y015758D02*
X050549Y016618D01*
X055049Y016618D02*
X055049Y015758D01*
X056049Y015758D02*
X056049Y016618D01*
X057049Y016618D02*
X057049Y015758D01*
X058049Y015758D02*
X058049Y016618D01*
X049174Y009118D02*
X049174Y008258D01*
X048174Y008258D02*
X048174Y009118D01*
X047174Y009118D02*
X047174Y008258D01*
X046174Y008258D02*
X046174Y009118D01*
X040799Y009118D02*
X040799Y008258D01*
X039799Y008258D02*
X039799Y009118D01*
X038799Y009118D02*
X038799Y008258D01*
X037799Y008258D02*
X037799Y009118D01*
X033174Y009118D02*
X033174Y008258D01*
X032174Y008258D02*
X032174Y009118D01*
X031174Y009118D02*
X031174Y008258D01*
X030174Y008258D02*
X030174Y009118D01*
X025549Y009118D02*
X025549Y008258D01*
X024549Y008258D02*
X024549Y009118D01*
X023549Y009118D02*
X023549Y008258D01*
X022549Y008258D02*
X022549Y009118D01*
X018049Y009118D02*
X018049Y008258D01*
X017049Y008258D02*
X017049Y009118D01*
X016049Y009118D02*
X016049Y008258D01*
X015049Y008258D02*
X015049Y009118D01*
X010549Y009118D02*
X010549Y008258D01*
X009549Y008258D02*
X009549Y009118D01*
X008549Y009118D02*
X008549Y008258D01*
X007549Y008258D02*
X007549Y009118D01*
X015049Y015758D02*
X015049Y016618D01*
X016049Y016618D02*
X016049Y015758D01*
X017049Y015758D02*
X017049Y016618D01*
X018049Y016618D02*
X018049Y015758D01*
X018049Y026258D02*
X018049Y027118D01*
X017049Y027118D02*
X017049Y026258D01*
X016049Y026258D02*
X016049Y027118D01*
X015049Y027118D02*
X015049Y026258D01*
X010549Y026258D02*
X010549Y027118D01*
X009549Y027118D02*
X009549Y026258D01*
X008549Y026258D02*
X008549Y027118D01*
X007549Y027118D02*
X007549Y026258D01*
X007549Y033758D02*
X007549Y034618D01*
X008549Y034618D02*
X008549Y033758D01*
X009549Y033758D02*
X009549Y034618D01*
X010549Y034618D02*
X010549Y033758D01*
X015049Y033758D02*
X015049Y034618D01*
X016049Y034618D02*
X016049Y033758D01*
X017049Y033758D02*
X017049Y034618D01*
X018049Y034618D02*
X018049Y033758D01*
X025049Y038258D02*
X025049Y039118D01*
X026049Y039118D02*
X026049Y038258D01*
X027049Y038258D02*
X027049Y039118D01*
X028049Y039118D02*
X028049Y038258D01*
X032549Y038258D02*
X032549Y039118D01*
X033549Y039118D02*
X033549Y038258D01*
X034549Y038258D02*
X034549Y039118D01*
X035549Y039118D02*
X035549Y038258D01*
X040049Y038258D02*
X040049Y039118D01*
X041049Y039118D02*
X041049Y038258D01*
X042049Y038258D02*
X042049Y039118D01*
X043049Y039118D02*
X043049Y038258D01*
X047549Y038258D02*
X047549Y039118D01*
X048549Y039118D02*
X048549Y038258D01*
X049549Y038258D02*
X049549Y039118D01*
X050549Y039118D02*
X050549Y038258D01*
X055049Y038258D02*
X055049Y039118D01*
X056049Y039118D02*
X056049Y038258D01*
X057049Y038258D02*
X057049Y039118D01*
X058049Y039118D02*
X058049Y038258D01*
X062549Y038258D02*
X062549Y039118D01*
X063549Y039118D02*
X063549Y038258D01*
X064549Y038258D02*
X064549Y039118D01*
X065549Y039118D02*
X065549Y038258D01*
X070049Y038258D02*
X070049Y039118D01*
X071049Y039118D02*
X071049Y038258D01*
X072049Y038258D02*
X072049Y039118D01*
X073049Y039118D02*
X073049Y038258D01*
X073049Y031618D02*
X073049Y030758D01*
X072049Y030758D02*
X072049Y031618D01*
X071049Y031618D02*
X071049Y030758D01*
X070049Y030758D02*
X070049Y031618D01*
X065549Y031618D02*
X065549Y030758D01*
X064549Y030758D02*
X064549Y031618D01*
X063549Y031618D02*
X063549Y030758D01*
X062549Y030758D02*
X062549Y031618D01*
X058049Y031618D02*
X058049Y030758D01*
X057049Y030758D02*
X057049Y031618D01*
X056049Y031618D02*
X056049Y030758D01*
X055049Y030758D02*
X055049Y031618D01*
X050549Y031618D02*
X050549Y030758D01*
X049549Y030758D02*
X049549Y031618D01*
X048549Y031618D02*
X048549Y030758D01*
X047549Y030758D02*
X047549Y031618D01*
X043049Y031618D02*
X043049Y030758D01*
X042049Y030758D02*
X042049Y031618D01*
X041049Y031618D02*
X041049Y030758D01*
X040049Y030758D02*
X040049Y031618D01*
X033549Y031618D02*
X033549Y030758D01*
X032549Y030758D02*
X032549Y031618D01*
X031549Y031618D02*
X031549Y030758D01*
X030549Y030758D02*
X030549Y031618D01*
X030549Y024118D02*
X030549Y023258D01*
X029549Y023258D02*
X029549Y024118D01*
X031549Y024118D02*
X031549Y023258D01*
X032549Y023258D02*
X032549Y024118D01*
X031799Y016618D02*
X031799Y015758D01*
X030799Y015758D02*
X030799Y016618D01*
X029799Y016618D02*
X029799Y015758D01*
X028799Y015758D02*
X028799Y016618D01*
X018049Y041258D02*
X018049Y042118D01*
X017049Y042118D02*
X017049Y041258D01*
X016049Y041258D02*
X016049Y042118D01*
X015049Y042118D02*
X015049Y041258D01*
X010549Y041258D02*
X010549Y042118D01*
X009549Y042118D02*
X009549Y041258D01*
X008549Y041258D02*
X008549Y042118D01*
X007549Y042118D02*
X007549Y041258D01*
X007549Y048758D02*
X007549Y049618D01*
X008549Y049618D02*
X008549Y048758D01*
X009549Y048758D02*
X009549Y049618D01*
X010549Y049618D02*
X010549Y048758D01*
X015049Y048758D02*
X015049Y049618D01*
X016049Y049618D02*
X016049Y048758D01*
X017049Y048758D02*
X017049Y049618D01*
X018049Y049618D02*
X018049Y048758D01*
X029549Y048758D02*
X029549Y049618D01*
X030549Y049618D02*
X030549Y048758D01*
X031549Y048758D02*
X031549Y049618D01*
X032549Y049618D02*
X032549Y048758D01*
X037049Y048758D02*
X037049Y049618D01*
X038049Y049618D02*
X038049Y048758D01*
X039049Y048758D02*
X039049Y049618D01*
X040049Y049618D02*
X040049Y048758D01*
X044549Y048758D02*
X044549Y049618D01*
X045549Y049618D02*
X045549Y048758D01*
X046549Y048758D02*
X046549Y049618D01*
X047549Y049618D02*
X047549Y048758D01*
X052049Y048758D02*
X052049Y049618D01*
X053049Y049618D02*
X053049Y048758D01*
X054049Y048758D02*
X054049Y049618D01*
X055049Y049618D02*
X055049Y048758D01*
X062549Y048758D02*
X062549Y049618D01*
X063549Y049618D02*
X063549Y048758D01*
X064549Y048758D02*
X064549Y049618D01*
X065549Y049618D02*
X065549Y048758D01*
X070049Y048758D02*
X070049Y049618D01*
X071049Y049618D02*
X071049Y048758D01*
X072049Y048758D02*
X072049Y049618D01*
X073049Y049618D02*
X073049Y048758D01*
D14*
X071549Y047188D03*
X064049Y047188D03*
X053549Y047188D03*
X046049Y047188D03*
X038549Y047188D03*
X031049Y047188D03*
X034049Y036688D03*
X026549Y036688D03*
X032049Y029188D03*
X031049Y021688D03*
X030299Y014188D03*
X031674Y006688D03*
X024049Y006688D03*
X016549Y006688D03*
X009049Y006688D03*
X016549Y014188D03*
X016549Y024688D03*
X009049Y024688D03*
X009049Y032188D03*
X016549Y032188D03*
X016549Y039688D03*
X009049Y039688D03*
X009049Y047188D03*
X016549Y047188D03*
X041549Y036688D03*
X049049Y036688D03*
X056549Y036688D03*
X064049Y036688D03*
X071549Y036688D03*
X071549Y029188D03*
X064049Y029188D03*
X056549Y029188D03*
X049049Y029188D03*
X041549Y029188D03*
X041549Y021688D03*
X049049Y021688D03*
X056549Y021688D03*
X064049Y021688D03*
X071549Y021688D03*
X071549Y014188D03*
X064049Y014188D03*
X056549Y014188D03*
X049049Y014188D03*
X041549Y014188D03*
X039299Y006688D03*
X047674Y006688D03*
X062799Y006688D03*
D15*
X060424Y004363D03*
X060424Y003763D03*
X065924Y005263D03*
X065924Y005863D03*
X064549Y011763D03*
X064549Y012363D03*
X060799Y013388D03*
X060799Y013988D03*
X057049Y012363D03*
X057049Y011763D03*
X053174Y013263D03*
X053174Y013863D03*
X050174Y011738D03*
X050174Y011138D03*
X048049Y004363D03*
X048049Y003763D03*
X042049Y011638D03*
X042049Y012238D03*
X041799Y018638D03*
X041799Y019238D03*
X044799Y020888D03*
X044799Y021488D03*
X049299Y019238D03*
X049299Y018638D03*
X052299Y020888D03*
X052299Y021488D03*
X056799Y019238D03*
X056799Y018638D03*
X059799Y020888D03*
X059799Y021488D03*
X064299Y019238D03*
X064299Y018638D03*
X067299Y021138D03*
X067299Y021738D03*
X069924Y018488D03*
X069924Y017888D03*
X072174Y019013D03*
X072174Y019613D03*
X070049Y025138D03*
X070049Y025738D03*
X072174Y026638D03*
X072174Y027238D03*
X067299Y028638D03*
X067299Y029238D03*
X064299Y026488D03*
X064299Y025888D03*
X059799Y028388D03*
X059799Y028988D03*
X056549Y026488D03*
X056549Y025888D03*
X052299Y028388D03*
X052299Y028988D03*
X049049Y026488D03*
X049049Y025888D03*
X044799Y028388D03*
X044799Y028988D03*
X041799Y026488D03*
X041799Y025888D03*
X035549Y028388D03*
X035549Y028988D03*
X032299Y026488D03*
X032299Y025888D03*
X034549Y021738D03*
X034549Y021138D03*
X031299Y019238D03*
X031299Y018638D03*
X031799Y012113D03*
X031799Y011513D03*
X031924Y004238D03*
X031924Y003638D03*
X035799Y003638D03*
X035799Y004238D03*
X024299Y004238D03*
X024299Y003638D03*
X016799Y003638D03*
X016799Y004238D03*
X014799Y011138D03*
X014799Y011738D03*
X019799Y013638D03*
X019799Y014238D03*
X016549Y021388D03*
X016549Y021988D03*
X019799Y023638D03*
X019799Y024238D03*
X016799Y029138D03*
X016799Y029738D03*
X019799Y031388D03*
X019799Y031988D03*
X016549Y036138D03*
X016549Y036738D03*
X019674Y038763D03*
X019674Y039363D03*
X016799Y044388D03*
X016799Y044988D03*
X012299Y039738D03*
X012299Y039138D03*
X009299Y037238D03*
X009299Y036638D03*
X012299Y032238D03*
X012299Y031638D03*
X009049Y029488D03*
X009049Y028888D03*
X012299Y024738D03*
X012299Y024138D03*
X009299Y022238D03*
X009299Y021638D03*
X009424Y004238D03*
X009424Y003638D03*
X029299Y033638D03*
X029299Y034238D03*
X034299Y034238D03*
X034299Y033638D03*
X037299Y036138D03*
X037299Y036738D03*
X041799Y034238D03*
X041799Y033638D03*
X044674Y036263D03*
X044674Y036863D03*
X049299Y034238D03*
X049299Y033638D03*
X052299Y036138D03*
X052299Y036738D03*
X056549Y033738D03*
X056549Y033138D03*
X059799Y036638D03*
X059799Y037238D03*
X067299Y036238D03*
X067299Y035638D03*
X069799Y033613D03*
X069799Y033013D03*
X072174Y034013D03*
X072174Y034613D03*
X072299Y044513D03*
X072299Y045113D03*
X064549Y045238D03*
X064549Y044638D03*
X056049Y044888D03*
X056049Y045488D03*
X038799Y044738D03*
X038799Y044138D03*
X031299Y044138D03*
X031299Y044738D03*
X009549Y044638D03*
X009549Y045238D03*
X006799Y044488D03*
X006799Y043888D03*
X069299Y013113D03*
X069299Y012513D03*
D16*
X069299Y013113D01*
X071837Y011726D02*
X072261Y012150D01*
X069924Y017888D02*
X069924Y018488D01*
X068299Y019938D02*
X068924Y020563D01*
X068924Y024438D01*
X069624Y025138D01*
X070049Y025138D01*
X070049Y025738D01*
X068299Y027438D02*
X068799Y027938D01*
X068799Y031388D01*
X069799Y033013D01*
X069799Y033613D01*
X072174Y034013D02*
X072174Y034613D01*
X067299Y035638D02*
X067299Y036238D01*
X067299Y037269D01*
X067299Y038607D02*
X066174Y039732D01*
X066174Y041938D01*
X065755Y043144D02*
X065299Y043144D01*
X065755Y043144D02*
X066049Y043438D01*
X066049Y044438D01*
X066674Y045063D01*
X068799Y045063D01*
X070049Y043813D01*
X070049Y042528D01*
X070049Y041348D02*
X070049Y041063D01*
X072299Y044513D02*
X072299Y045113D01*
X069349Y045938D02*
X068749Y045938D01*
X064549Y045238D02*
X064549Y044638D01*
X061599Y045688D02*
X060999Y045688D01*
X056049Y045488D02*
X056049Y044888D01*
X051099Y045438D02*
X050499Y045438D01*
X044959Y042813D02*
X043926Y042813D01*
X042049Y045188D02*
X043249Y045938D01*
X043849Y045938D01*
X038799Y044738D02*
X038799Y044138D01*
X034349Y046188D02*
X033749Y046188D01*
X031299Y044738D02*
X031299Y044138D01*
X037299Y036738D02*
X037299Y036138D01*
X034299Y034238D02*
X034299Y033638D01*
X035549Y028988D02*
X035549Y028388D01*
X032299Y026488D02*
X032299Y025888D01*
X034549Y021738D02*
X034549Y021138D01*
X031299Y019238D02*
X031299Y018638D01*
X028099Y012188D02*
X027499Y012188D01*
X031799Y012113D02*
X031799Y011513D01*
X034374Y005688D02*
X034974Y005688D01*
X035799Y004238D02*
X035799Y003638D01*
X031924Y003638D02*
X031924Y004238D01*
X027349Y005688D02*
X026749Y005688D01*
X024299Y004238D02*
X024299Y003638D01*
X019849Y005688D02*
X019249Y005688D01*
X016799Y004238D02*
X016799Y003638D01*
X012349Y005688D02*
X011749Y005688D01*
X009424Y004238D02*
X009424Y003638D01*
X014799Y011138D02*
X014799Y011738D01*
X019799Y013638D02*
X019799Y014238D01*
X016549Y021388D02*
X016549Y021988D01*
X019799Y023638D02*
X019799Y024238D01*
X016799Y029138D02*
X016799Y029738D01*
X019799Y031388D02*
X019799Y031988D01*
X023624Y034688D02*
X024224Y034688D01*
X029299Y034238D02*
X029299Y033638D01*
X019674Y038763D02*
X019674Y039363D01*
X016549Y036738D02*
X016549Y036138D01*
X012299Y039138D02*
X012299Y039738D01*
X009299Y037238D02*
X009299Y036638D01*
X009049Y029488D02*
X009049Y028888D01*
X012299Y024738D02*
X012299Y024138D01*
X009299Y022238D02*
X009299Y021638D01*
X006799Y043888D02*
X006799Y044488D01*
X009549Y044638D02*
X009549Y045238D01*
X016799Y044988D02*
X016799Y044388D01*
X041799Y034238D02*
X041799Y033638D01*
X044674Y036263D02*
X044674Y036863D01*
X049299Y034238D02*
X049299Y033638D01*
X052299Y036138D02*
X052299Y036738D01*
X056549Y033738D02*
X056549Y033138D01*
X059799Y036638D02*
X059799Y037238D01*
X061249Y035188D02*
X061849Y035188D01*
X067299Y029238D02*
X067299Y028638D01*
X067549Y027188D02*
X068299Y027438D01*
X072174Y027238D02*
X072174Y026638D01*
X067299Y021738D02*
X067299Y021138D01*
X064299Y019238D02*
X064299Y018638D01*
X059799Y020888D02*
X059799Y021488D01*
X056799Y019238D02*
X056799Y018638D01*
X052299Y020888D02*
X052299Y021488D01*
X049299Y019238D02*
X049299Y018638D01*
X044799Y020888D02*
X044799Y021488D01*
X041799Y019238D02*
X041799Y018638D01*
X039474Y013063D02*
X038874Y013063D01*
X042049Y012238D02*
X042049Y011638D01*
X046374Y013063D02*
X046974Y013063D01*
X050174Y011738D02*
X050174Y011138D01*
X053174Y013263D02*
X053174Y013863D01*
X057049Y012363D02*
X057049Y011763D01*
X060799Y013388D02*
X060799Y013988D01*
X064549Y012363D02*
X064549Y011763D01*
X065924Y005863D02*
X065924Y005263D01*
X060424Y004363D02*
X060424Y003763D01*
X051099Y005688D02*
X050499Y005688D01*
X048049Y004363D02*
X048049Y003763D01*
X042599Y005688D02*
X041999Y005688D01*
X041799Y025888D02*
X041799Y026488D01*
X044799Y028388D02*
X044799Y028988D01*
X049049Y026488D02*
X049049Y025888D01*
X052299Y028388D02*
X052299Y028988D01*
X056549Y026488D02*
X056549Y025888D01*
X059799Y028388D02*
X059799Y028988D01*
X064299Y026488D02*
X064299Y025888D01*
X072174Y019613D02*
X072174Y019013D01*
X066299Y050438D02*
X060799Y050438D01*
D17*
X060999Y045688D03*
X061599Y045688D03*
X068749Y045938D03*
X069349Y045938D03*
X061849Y035188D03*
X061249Y035188D03*
X051099Y045438D03*
X050499Y045438D03*
X049349Y046188D03*
X048749Y046188D03*
X043849Y045938D03*
X043249Y045938D03*
X041849Y046438D03*
X041249Y046438D03*
X034349Y046188D03*
X033749Y046188D03*
X024224Y034688D03*
X023624Y034688D03*
X019849Y046188D03*
X019249Y046188D03*
X038874Y013063D03*
X039474Y013063D03*
X046374Y013063D03*
X046974Y013063D03*
X050499Y005688D03*
X051099Y005688D03*
X042599Y005688D03*
X041999Y005688D03*
X034974Y005688D03*
X034374Y005688D03*
X027349Y005688D03*
X026749Y005688D03*
X019849Y005688D03*
X019249Y005688D03*
X012349Y005688D03*
X011749Y005688D03*
X027499Y012188D03*
X028099Y012188D03*
G36*
X071452Y011786D02*
X071777Y012111D01*
X072222Y011666D01*
X071897Y011341D01*
X071452Y011786D01*
G37*
G36*
X071876Y012210D02*
X072201Y012535D01*
X072646Y012090D01*
X072321Y011765D01*
X071876Y012210D01*
G37*
D18*
X065924Y007857D03*
X065924Y006519D03*
X065549Y010269D03*
X065549Y011607D03*
X060799Y014769D03*
X060799Y016107D03*
X057987Y011607D03*
X057987Y010269D03*
X053174Y014769D03*
X053174Y016107D03*
X052299Y022269D03*
X052299Y023607D03*
X052299Y029769D03*
X052299Y031107D03*
X044799Y031107D03*
X044799Y029769D03*
X044799Y023607D03*
X044799Y022269D03*
X045049Y013732D03*
X045049Y012394D03*
X034549Y022519D03*
X034549Y023857D03*
X035549Y030144D03*
X035549Y031482D03*
X037424Y037769D03*
X037424Y039107D03*
X037424Y042269D03*
X037424Y043607D03*
X040049Y043455D03*
X040049Y044794D03*
X047424Y044857D03*
X047424Y043519D03*
X044674Y038982D03*
X044674Y037644D03*
X059799Y031107D03*
X059799Y029769D03*
X059799Y023607D03*
X059799Y022269D03*
X067299Y022519D03*
X067299Y023857D03*
X067299Y030019D03*
X067299Y031357D03*
X067299Y037269D03*
X067299Y038607D03*
X065299Y043144D03*
X065299Y044482D03*
X072299Y043857D03*
X072299Y042519D03*
X020674Y018232D03*
X019674Y018232D03*
X019674Y016894D03*
X020674Y016894D03*
X019799Y025519D03*
X019799Y026857D03*
X019299Y033269D03*
X019299Y034607D03*
X019549Y040894D03*
X019549Y042232D03*
X019549Y044019D03*
X019549Y045357D03*
X012299Y041857D03*
X012299Y040519D03*
X010299Y043269D03*
X010299Y044607D03*
X012299Y034357D03*
X012299Y033019D03*
X012299Y026857D03*
X012299Y025519D03*
D19*
X005469Y015938D03*
X004130Y015938D03*
X002219Y014188D03*
X000880Y014188D03*
X004630Y012063D03*
X005969Y012063D03*
X023130Y013938D03*
X024469Y013938D03*
X036880Y012188D03*
X038219Y012188D03*
X038344Y014938D03*
X037005Y014938D03*
X044380Y015438D03*
X045719Y015438D03*
X067005Y013188D03*
X068344Y013188D03*
X072005Y017938D03*
X073344Y017938D03*
X073344Y025438D03*
X072005Y025438D03*
X072005Y032938D03*
X073344Y032938D03*
X061469Y038063D03*
X060130Y038063D03*
X053719Y037938D03*
X052380Y037938D03*
G36*
X054520Y043910D02*
X054131Y043521D01*
X053632Y044020D01*
X054021Y044409D01*
X054520Y043910D01*
G37*
G36*
X055467Y044856D02*
X055078Y044467D01*
X054579Y044966D01*
X054968Y045355D01*
X055467Y044856D01*
G37*
X021344Y034688D03*
X020005Y034688D03*
D20*
X010799Y017938D03*
X010799Y016938D03*
X010799Y015938D03*
X010799Y014938D03*
X010799Y013938D03*
X010799Y012938D03*
X010799Y011938D03*
X007799Y011938D03*
X007799Y012938D03*
X007799Y013938D03*
X007799Y014938D03*
X007799Y015938D03*
X007799Y016938D03*
X007799Y017938D03*
X056049Y040438D03*
X057049Y040438D03*
X058049Y040438D03*
X059049Y040438D03*
X060049Y040438D03*
X061049Y040438D03*
X062049Y040438D03*
X063049Y040438D03*
X063049Y043438D03*
X062049Y043438D03*
X061049Y043438D03*
X060049Y043438D03*
X059049Y043438D03*
X058049Y043438D03*
X057049Y043438D03*
X056049Y043438D03*
D21*
X061049Y042528D03*
X061049Y041348D03*
X026549Y044848D03*
X025549Y044848D03*
X025549Y046028D03*
X026549Y046028D03*
D22*
X027549Y046028D03*
X027549Y044848D03*
X020549Y045278D03*
X020549Y044098D03*
X012924Y045098D03*
X012924Y046278D03*
X010549Y037278D03*
X010549Y036098D03*
X010549Y029528D03*
X010549Y028348D03*
X018799Y028598D03*
X018799Y029778D03*
X018174Y035598D03*
X018174Y036778D03*
X031424Y034278D03*
X031424Y033098D03*
X035424Y033098D03*
X035424Y034278D03*
X034549Y026528D03*
X034549Y025348D03*
X034799Y019278D03*
X034799Y018098D03*
X043299Y018098D03*
X043299Y019278D03*
X043049Y025348D03*
X043049Y026528D03*
X050549Y026528D03*
X050549Y025348D03*
X050799Y019278D03*
X050799Y018098D03*
X058174Y018098D03*
X058174Y019278D03*
X057924Y025348D03*
X057924Y026528D03*
X058049Y033098D03*
X058049Y034278D03*
X065549Y026528D03*
X065549Y025348D03*
X065799Y019278D03*
X065799Y018098D03*
X045674Y034973D03*
X045674Y036153D03*
X057674Y047098D03*
X058799Y047098D03*
X059924Y047098D03*
X059924Y048278D03*
X058799Y048278D03*
X057674Y048278D03*
X070049Y042528D03*
X070049Y041348D03*
X019674Y021903D03*
X019674Y020723D03*
D23*
X007389Y028188D03*
X006209Y028188D03*
X006209Y029063D03*
X007389Y029063D03*
X007764Y035813D03*
X006584Y035813D03*
X031084Y040313D03*
X032264Y040313D03*
X032264Y041313D03*
X032264Y042313D03*
X031084Y042313D03*
X031084Y041313D03*
X038584Y040938D03*
X038584Y040063D03*
X039764Y040063D03*
X039764Y040938D03*
X039764Y041813D03*
X038584Y041813D03*
X044959Y041813D03*
X044959Y040813D03*
X044959Y039813D03*
X046139Y039813D03*
X046139Y040813D03*
X046139Y041813D03*
X046139Y042813D03*
X044959Y042813D03*
X053334Y043188D03*
X053334Y042313D03*
X053834Y041313D03*
X053959Y040563D03*
X055014Y041313D03*
X055139Y040563D03*
X054514Y042313D03*
X054514Y043188D03*
X064709Y041938D03*
X065889Y041938D03*
X005889Y012938D03*
X004709Y012938D03*
D24*
X007799Y011687D03*
X007799Y010939D03*
D25*
X022011Y031438D02*
X022838Y031438D01*
X022838Y032438D02*
X022011Y032438D01*
X022011Y033438D02*
X022838Y033438D01*
X022838Y034438D02*
X022011Y034438D01*
X022011Y035438D02*
X022838Y035438D01*
X022838Y036438D02*
X022011Y036438D01*
X022011Y037438D02*
X022838Y037438D01*
X022838Y038438D02*
X022011Y038438D01*
X022011Y039438D02*
X022838Y039438D01*
X022838Y040438D02*
X022011Y040438D01*
X022011Y041438D02*
X022838Y041438D01*
X022838Y042438D02*
X022011Y042438D01*
X022011Y043438D02*
X022838Y043438D01*
D26*
X023299Y046063D03*
X024299Y046063D03*
X024299Y048938D03*
X023299Y048938D03*
D27*
X006674Y018187D03*
X006674Y017439D03*
X009799Y015562D03*
X009799Y014814D03*
D28*
X009923Y013813D03*
X009175Y013813D03*
X009175Y011938D03*
X009923Y011938D03*
X006923Y014313D03*
X006175Y014313D03*
X004798Y013813D03*
X004050Y013813D03*
D29*
X038174Y006688D03*
D30*
X039674Y005688D02*
X040799Y005688D01*
X041999Y005688D01*
X042599Y005688D02*
X045049Y008513D01*
X045049Y009063D01*
X046174Y010313D01*
X050799Y010188D01*
X050999Y011138D02*
X050174Y011138D01*
X047349Y011138D01*
X046424Y012063D01*
X046374Y013063D02*
X045719Y014344D01*
X045719Y015438D01*
X044380Y015438D02*
X044380Y016232D01*
X043219Y017893D01*
X042389Y017688D01*
X039924Y017688D01*
X037674Y015563D01*
X037005Y016107D02*
X035514Y018098D01*
X034799Y018098D01*
X034389Y017688D01*
X031799Y017688D01*
X031299Y019238D02*
X030049Y019688D01*
X032549Y020688D02*
X034549Y021138D01*
X034549Y021738D02*
X034549Y022519D01*
X034549Y023857D02*
X034755Y024063D01*
X036799Y024063D01*
X037424Y023438D01*
X037424Y020813D01*
X035889Y019278D01*
X034799Y019278D01*
X037005Y016107D02*
X037005Y014938D01*
X038344Y014938D02*
X038344Y014469D01*
X038874Y013063D01*
X039474Y013063D02*
X040549Y012188D01*
X041124Y011013D02*
X042049Y011638D01*
X042049Y012238D02*
X043049Y013188D01*
X042049Y010188D02*
X037299Y010188D01*
X035099Y007238D01*
X035049Y006688D01*
X034974Y005688D01*
X034374Y005688D02*
X033174Y005688D01*
X031924Y004238D02*
X030674Y004688D01*
X027349Y005688D02*
X027349Y007863D01*
X029549Y010063D01*
X032799Y010063D01*
X034549Y012188D01*
X036880Y012188D01*
X031799Y012113D02*
X031799Y013188D01*
X029299Y012188D02*
X028099Y012188D01*
X026749Y005688D02*
X025549Y005688D01*
X024299Y004238D02*
X023049Y004688D01*
X019249Y005688D02*
X018049Y005688D01*
X016799Y004238D02*
X015549Y004688D01*
X011749Y005688D02*
X010549Y005688D01*
X009424Y004238D02*
X008049Y004688D01*
X014799Y011738D02*
X015549Y012188D01*
X018049Y013188D02*
X019799Y013638D01*
X019799Y014238D02*
X019674Y016894D01*
X016549Y021988D02*
X015549Y022688D01*
X018049Y023688D02*
X019799Y023638D01*
X019799Y024238D02*
X019799Y025519D01*
X019799Y026857D02*
X018799Y028598D01*
X016799Y029738D02*
X015549Y030188D01*
X018049Y031188D02*
X019799Y031388D01*
X019799Y031988D02*
X019299Y033269D01*
X019299Y034607D02*
X018174Y035598D01*
X016549Y036738D02*
X015549Y037688D01*
X018049Y038688D02*
X019674Y038763D01*
X019674Y039363D02*
X019549Y040894D01*
X016799Y044988D02*
X015549Y045188D01*
X018049Y046188D02*
X019249Y046188D01*
X019849Y046188D02*
X019799Y045688D01*
X019549Y045357D01*
X012299Y041857D02*
X011799Y042188D01*
X010917Y043004D01*
X010299Y043269D01*
X010299Y044607D02*
X009549Y044638D01*
X009549Y045238D02*
X010549Y046188D01*
X008049Y045188D02*
X006799Y044488D01*
X012299Y040519D02*
X012299Y039738D01*
X012299Y039138D02*
X010549Y038688D01*
X009299Y037238D02*
X008299Y037688D01*
X008049Y037688D01*
X012299Y033019D02*
X012299Y032238D01*
X012299Y031638D02*
X010549Y031188D01*
X009049Y029488D02*
X008049Y030188D01*
X012299Y025519D02*
X012299Y024738D01*
X012299Y024138D02*
X010549Y023688D01*
X009299Y022238D02*
X008049Y022688D01*
X028049Y035688D02*
X028487Y035251D01*
X029299Y034238D01*
X031424Y033098D02*
X031959Y032563D01*
X034424Y032563D01*
X035505Y031482D01*
X035549Y031482D01*
X035799Y032563D02*
X035424Y033098D01*
X035799Y032563D02*
X037174Y031188D01*
X038549Y031188D01*
X039594Y032607D01*
X043549Y032607D01*
X041799Y034238D02*
X040549Y034688D01*
X043049Y035688D02*
X044674Y036263D01*
X044674Y036863D02*
X044674Y037644D01*
X048049Y034688D02*
X049299Y034238D01*
X050549Y035688D02*
X052299Y036138D01*
X052299Y036738D02*
X052380Y037938D01*
X055549Y034688D02*
X056549Y033738D01*
X058049Y035688D02*
X059049Y035938D01*
X059799Y036638D01*
X059799Y037238D02*
X060130Y038063D01*
X060049Y040438D02*
X059049Y040438D01*
X056049Y044888D02*
X055023Y044911D01*
X056049Y045488D02*
X055049Y046188D01*
X052549Y045188D02*
X051099Y045438D01*
X050499Y045438D02*
X050499Y049388D01*
X048749Y046188D02*
X047549Y046188D01*
X045049Y045188D02*
X043849Y045938D01*
X041249Y046438D02*
X040049Y046188D01*
X038799Y044738D02*
X037549Y045188D01*
X033749Y046188D02*
X032549Y046188D01*
X031299Y044738D02*
X030049Y045188D01*
X037424Y037769D02*
X037299Y036738D01*
X037299Y036138D02*
X035549Y035688D01*
X034299Y034238D02*
X033049Y034688D01*
X035549Y030144D02*
X035549Y028988D01*
X035549Y028388D02*
X033549Y028188D01*
X032299Y026488D02*
X031049Y027188D01*
X034549Y025348D02*
X034549Y023857D01*
X040549Y027188D02*
X041799Y026488D01*
X043049Y028188D02*
X044799Y028388D01*
X044799Y028988D02*
X044799Y029769D01*
X048049Y027188D02*
X049049Y026488D01*
X050549Y028188D02*
X052299Y028388D01*
X052299Y028988D02*
X052299Y029769D01*
X055549Y027188D02*
X056549Y026488D01*
X058049Y028188D02*
X059799Y028388D01*
X059799Y028988D02*
X059799Y029769D01*
X061299Y027063D02*
X062349Y025888D01*
X064299Y025888D01*
X064299Y026488D02*
X063049Y027188D01*
X065549Y028188D02*
X067299Y028638D01*
X067299Y029238D02*
X067299Y030019D01*
X070549Y027188D02*
X070049Y025738D01*
X072005Y025438D02*
X072174Y026638D01*
X072174Y027238D02*
X073049Y028188D01*
X074424Y026519D02*
X074424Y031857D01*
X073344Y032938D01*
X074424Y034019D01*
X074424Y039813D01*
X072299Y041938D01*
X072299Y042519D01*
X072299Y041938D02*
X070799Y041938D01*
X069424Y041938D02*
X065889Y041938D01*
X065299Y044482D02*
X064549Y044638D01*
X064549Y045238D02*
X065549Y046188D01*
X067299Y047388D02*
X068749Y045938D01*
X069349Y045938D02*
X070549Y045188D01*
X072299Y045113D02*
X073049Y046188D01*
X072299Y044513D02*
X072299Y043857D01*
X067299Y047388D02*
X067299Y049438D01*
X066299Y050438D01*
X060799Y050438D02*
X060799Y047688D01*
X060799Y046313D01*
X060999Y045688D01*
X061599Y045688D02*
X063049Y045188D01*
X065549Y035688D02*
X067299Y035638D01*
X069799Y033613D02*
X070549Y034688D01*
X072174Y034613D02*
X073049Y035688D01*
X072174Y034013D02*
X072005Y032938D01*
X074424Y026519D02*
X073344Y025438D01*
X073424Y025438D01*
X074424Y024438D01*
X074424Y019019D01*
X073344Y017938D01*
X074469Y016813D01*
X074469Y012857D01*
X071174Y009563D01*
X070549Y009563D01*
X068844Y007857D01*
X065924Y007857D01*
X065924Y005263D02*
X064299Y005688D01*
X061799Y004688D02*
X060424Y004363D01*
X061505Y010144D02*
X065549Y010269D01*
X064549Y012363D02*
X065549Y013188D01*
X063049Y012188D02*
X060799Y013388D01*
X060924Y012438D02*
X062549Y010938D01*
X058049Y013188D02*
X057049Y012363D01*
X057049Y011763D02*
X056174Y010813D01*
X055049Y010813D01*
X055549Y012188D02*
X053174Y013263D01*
X053174Y013863D02*
X053174Y014769D01*
X053174Y016107D02*
X052380Y016107D01*
X050799Y017688D01*
X050799Y018098D01*
X049299Y019238D02*
X048049Y019688D01*
X050549Y020688D02*
X052299Y020888D01*
X052299Y021488D02*
X052299Y022269D01*
X055549Y019688D02*
X056799Y019238D01*
X058049Y020688D02*
X059799Y020888D01*
X059799Y021488D02*
X059799Y022269D01*
X063049Y019688D02*
X064299Y019238D01*
X065549Y020688D02*
X067299Y021138D01*
X067299Y021738D02*
X067299Y022519D01*
X070549Y019688D02*
X069924Y018488D01*
X072005Y017938D02*
X072174Y019013D01*
X072174Y019613D02*
X073049Y020688D01*
X073049Y013188D02*
X072261Y012150D01*
X070549Y012188D02*
X069299Y012513D01*
X069299Y013113D02*
X068344Y013188D01*
X053549Y012188D02*
X052049Y012188D01*
X050999Y011138D01*
X050174Y011738D02*
X050549Y013188D01*
X048049Y012188D02*
X046974Y013063D01*
X043219Y017893D02*
X043299Y018098D01*
X041799Y019238D02*
X040549Y019688D01*
X043049Y020688D02*
X044799Y020888D01*
X044799Y021488D02*
X044799Y022269D01*
X061849Y035188D02*
X063049Y034688D01*
X050499Y005688D02*
X049174Y005688D01*
X048049Y004363D02*
X046674Y004688D01*
X038299Y004688D02*
X037174Y004688D01*
X035799Y004238D01*
D31*
X035799Y003638D02*
X048049Y003763D01*
X060424Y003763D01*
X058799Y008188D02*
X052174Y008188D01*
X051224Y007238D01*
X051099Y005688D01*
X052130Y008857D02*
X056844Y008857D01*
X057924Y009938D01*
X057987Y010269D01*
X058299Y010938D02*
X057249Y010938D01*
X057049Y011763D01*
X057987Y011607D02*
X059299Y012938D01*
X059549Y013688D01*
X059549Y015938D01*
X060799Y016107D01*
X059549Y015938D02*
X059049Y016857D01*
X058174Y018098D01*
X058674Y018688D02*
X059799Y019563D01*
X061049Y019563D01*
X062099Y018638D01*
X064299Y018638D01*
X065299Y018688D01*
X066549Y018688D01*
X067299Y019438D01*
X068299Y019938D01*
X067549Y020188D02*
X066709Y019938D01*
X065799Y019278D01*
X065799Y018098D02*
X066469Y017304D01*
X067103Y016304D01*
X067103Y014179D01*
X067005Y013188D01*
X066799Y012688D01*
X066094Y011982D01*
X065549Y011607D01*
X066049Y010938D02*
X064549Y010938D01*
X064549Y011763D01*
X064549Y010938D02*
X062549Y010938D01*
X061505Y010144D02*
X058799Y008188D01*
X058299Y010938D02*
X059674Y012438D01*
X060924Y012438D01*
X060799Y013988D02*
X060799Y014769D01*
X058674Y018688D02*
X057299Y018688D01*
X056999Y018638D01*
X056799Y018638D01*
X054599Y018638D01*
X053549Y019688D01*
X052299Y019688D01*
X051299Y018688D01*
X049849Y018688D01*
X049299Y018638D01*
X047099Y018638D01*
X046049Y019688D01*
X044924Y019688D01*
X043674Y018688D01*
X041849Y018688D01*
X041799Y018638D01*
X039599Y018638D01*
X038549Y019688D01*
X037299Y019688D01*
X036249Y018638D01*
X031299Y018638D01*
X027849Y018638D01*
X025662Y021388D01*
X016549Y021388D01*
X016349Y021188D01*
X015049Y021188D01*
X013549Y022688D01*
X012299Y022688D01*
X011249Y021638D01*
X011799Y021213D01*
X011799Y016688D01*
X010674Y015938D01*
X011799Y011938D02*
X013174Y010438D01*
X013874Y011138D01*
X014799Y011138D01*
X013174Y010438D02*
X013174Y008938D01*
X013299Y003638D01*
X016799Y003638D01*
X024299Y003638D01*
X031924Y003638D01*
X035799Y003638D01*
X042049Y010188D02*
X043174Y011313D01*
X044344Y012063D01*
X045049Y012394D01*
X044549Y012938D02*
X043674Y012188D01*
X042624Y011638D01*
X042049Y011638D01*
X041124Y011013D02*
X038224Y011013D01*
X037549Y011688D01*
X037549Y012563D01*
X037174Y012938D01*
X034174Y012938D01*
X032749Y011513D01*
X031799Y011513D01*
X031799Y010813D01*
X027674Y010813D01*
X026674Y011563D01*
X026674Y012188D01*
X022174Y012188D01*
X021549Y012688D01*
X020674Y013188D02*
X020674Y016894D01*
X020674Y018232D02*
X024594Y018232D01*
X024594Y017688D01*
X031799Y017688D01*
X037674Y015563D02*
X037674Y014107D01*
X038219Y012188D01*
X044549Y012938D02*
X045549Y012938D01*
X046424Y012063D01*
X045049Y013732D02*
X045049Y015813D01*
X045424Y016313D01*
X046049Y016313D01*
X047424Y017688D01*
X050389Y017688D01*
X050799Y018098D01*
X050799Y019278D02*
X051799Y020188D01*
X053049Y020188D01*
X053299Y020438D01*
X053299Y023188D01*
X052880Y023607D01*
X052299Y023607D01*
X050559Y025348D01*
X050549Y025348D01*
X051049Y025938D02*
X049599Y025938D01*
X049049Y025888D01*
X047349Y025888D01*
X046424Y027063D01*
X044674Y027063D01*
X043549Y025938D01*
X041849Y025938D01*
X041799Y025888D01*
X039849Y025888D01*
X038549Y027188D01*
X036799Y027188D01*
X035549Y025938D01*
X032349Y025938D01*
X032299Y025888D01*
X022349Y025888D01*
X019349Y029138D01*
X016799Y029138D01*
X016349Y028688D01*
X015049Y028688D01*
X013799Y030188D01*
X012299Y030188D01*
X010999Y028888D01*
X009049Y028888D01*
X007389Y029063D01*
X006799Y029688D02*
X006049Y030438D01*
X006049Y034313D01*
X007174Y035438D01*
X007174Y036188D01*
X006049Y037313D01*
X006049Y043263D01*
X006799Y043888D01*
X010749Y043888D01*
X011299Y044938D01*
X012299Y045688D01*
X014049Y045688D01*
X014799Y043938D01*
X016599Y043938D01*
X016799Y044388D01*
X017499Y044388D01*
X017799Y044688D01*
X021299Y044688D01*
X022049Y045438D01*
X028049Y045438D01*
X029349Y044138D01*
X031299Y044138D01*
X032249Y044138D01*
X033299Y045188D01*
X035299Y045188D01*
X036549Y043938D01*
X036549Y042938D01*
X038174Y042938D01*
X038799Y043563D01*
X038799Y044138D01*
X039349Y044188D01*
X040799Y044188D01*
X042049Y045188D01*
X041705Y045794D02*
X041849Y046438D01*
X041705Y045794D02*
X040049Y044794D01*
X040049Y043455D02*
X039174Y042580D01*
X039174Y039438D01*
X038844Y039107D01*
X038299Y039107D01*
X038299Y035813D01*
X037674Y035188D01*
X036799Y035188D01*
X035889Y034403D01*
X035424Y034278D01*
X035924Y033688D02*
X034349Y033688D01*
X034299Y033638D01*
X029299Y033638D01*
X031424Y034278D02*
X031424Y035938D01*
X031049Y036313D01*
X031049Y038813D01*
X031674Y039688D01*
X031674Y043188D01*
X029209Y043188D01*
X027549Y044848D01*
X027549Y046028D02*
X027549Y049188D01*
X028799Y050438D01*
X033049Y050438D01*
X034299Y049188D01*
X035299Y049188D01*
X036549Y050438D01*
X040549Y050438D01*
X041799Y049188D01*
X043049Y049188D01*
X044299Y050438D01*
X048049Y050438D01*
X048799Y049688D01*
X050049Y049688D01*
X051299Y050938D01*
X056049Y050938D01*
X057674Y049313D01*
X057674Y048278D01*
X057049Y047688D02*
X060799Y047688D01*
X059924Y047098D02*
X059924Y045313D01*
X061049Y044188D01*
X061049Y043438D01*
X060049Y043438D02*
X060049Y044188D01*
X058799Y045438D01*
X058799Y047098D01*
X057674Y047098D02*
X057674Y044813D01*
X057049Y044188D01*
X057049Y043438D01*
X058049Y043438D02*
X058049Y042938D01*
X059049Y042938D02*
X059049Y043438D01*
X060049Y041938D02*
X061799Y041938D01*
X063049Y040938D01*
X063049Y040438D01*
X062049Y040438D02*
X062049Y039938D01*
X061469Y039357D01*
X060799Y039357D01*
X060799Y036188D01*
X058049Y034278D01*
X057549Y034438D01*
X056299Y035688D01*
X054299Y035688D01*
X053799Y036188D01*
X053799Y037438D01*
X053719Y037938D01*
X053719Y039357D01*
X054549Y040188D01*
X054549Y040688D01*
X054424Y041063D01*
X054424Y041688D01*
X053924Y041938D01*
X053924Y043563D01*
X054005Y043769D01*
X054076Y043965D01*
X053334Y043188D02*
X052924Y043188D01*
X051174Y041376D01*
X048674Y041376D01*
X047299Y042813D01*
X046139Y042813D01*
X045549Y043188D02*
X045880Y043519D01*
X047424Y043519D01*
X049005Y041876D01*
X050799Y041876D01*
X052799Y043938D01*
X053334Y042313D02*
X051772Y040876D01*
X048487Y040876D01*
X047549Y041813D01*
X046139Y041813D01*
X046139Y040813D02*
X047674Y040813D01*
X048174Y040438D01*
X052299Y040438D01*
X053299Y041313D01*
X053834Y041313D01*
X053959Y040563D02*
X053334Y039938D01*
X047549Y039938D01*
X047424Y039813D01*
X046139Y039813D01*
X045549Y038982D02*
X045674Y038857D01*
X045674Y036153D01*
X045174Y035563D02*
X043424Y033688D01*
X041849Y033688D01*
X041799Y033638D01*
X039349Y033638D01*
X038299Y034688D01*
X037174Y034688D01*
X035924Y033688D01*
X035549Y031482D02*
X036130Y031107D01*
X036799Y030438D01*
X036799Y028278D01*
X035049Y026528D01*
X034549Y026528D01*
X043049Y026528D02*
X043299Y026688D01*
X044174Y027563D01*
X045424Y027563D01*
X045799Y027938D01*
X045799Y030688D01*
X045380Y031107D01*
X044799Y031107D01*
X043549Y032607D01*
X045674Y034973D02*
X046174Y034563D01*
X047174Y032938D01*
X050469Y032938D01*
X052299Y031107D01*
X052880Y031107D01*
X053299Y030688D01*
X053299Y028188D01*
X052799Y027688D01*
X051799Y027688D01*
X050889Y026778D01*
X050549Y026528D01*
X051049Y025938D02*
X052299Y027188D01*
X053299Y027188D01*
X054599Y025888D01*
X056549Y025888D01*
X057099Y025938D01*
X058424Y025938D01*
X059674Y027063D01*
X061299Y027063D01*
X060424Y027563D02*
X060799Y027938D01*
X060799Y030607D01*
X059799Y031107D01*
X058299Y032598D01*
X058049Y033098D01*
X057549Y033688D02*
X056999Y033138D01*
X056549Y033138D01*
X055099Y033138D01*
X053549Y034688D01*
X052299Y034688D01*
X051049Y033688D01*
X049849Y033688D01*
X049299Y033638D01*
X047349Y033638D01*
X046299Y035563D01*
X045174Y035563D01*
X045549Y038982D02*
X044674Y038982D01*
X045549Y038982D02*
X045549Y043188D01*
X045549Y044063D02*
X044424Y044063D01*
X043249Y045238D01*
X043249Y045938D01*
X045549Y044063D02*
X045674Y044188D01*
X047799Y044188D01*
X050299Y045438D01*
X050499Y045438D01*
X049269Y045607D02*
X049349Y046188D01*
X049269Y045607D02*
X047424Y044857D01*
X043926Y042813D02*
X042924Y041813D01*
X041424Y041813D01*
X040049Y043455D01*
X039764Y041813D02*
X040424Y041813D01*
X041049Y041188D01*
X043674Y041188D01*
X044299Y041813D01*
X044959Y041813D01*
X044959Y040813D02*
X044834Y040688D01*
X040549Y040688D01*
X040299Y040938D01*
X039764Y040938D01*
X039764Y040063D02*
X043799Y040063D01*
X044049Y039813D01*
X044959Y039813D01*
X038299Y039107D02*
X037424Y039107D01*
X035674Y041813D02*
X033924Y041813D01*
X032549Y043188D01*
X031674Y043188D01*
X034349Y046188D02*
X035969Y045438D01*
X037424Y043607D01*
X037424Y042269D02*
X036130Y042269D01*
X035674Y041813D01*
X035174Y049813D02*
X034549Y049813D01*
X033549Y050813D01*
X028549Y050813D01*
X027424Y049688D01*
X021549Y049688D01*
X020549Y048688D01*
X020549Y045278D01*
X020549Y044098D02*
X019549Y044019D01*
X019549Y042232D01*
X020130Y042232D01*
X020424Y041938D01*
X020424Y038188D01*
X019014Y036778D01*
X018174Y036778D01*
X016549Y036138D02*
X016099Y035938D01*
X015049Y035938D01*
X013799Y037688D01*
X012549Y037688D01*
X011249Y036638D01*
X009299Y036638D01*
X007764Y035813D01*
X006584Y035813D02*
X005549Y034778D01*
X005549Y029563D01*
X005049Y029063D01*
X005049Y027188D01*
X004549Y025563D01*
X004549Y023188D01*
X004924Y022688D01*
X004924Y020563D01*
X004299Y019563D01*
X004299Y016813D01*
X003549Y016813D01*
X003424Y016438D01*
X003424Y013973D01*
X004709Y012938D01*
X005299Y014063D02*
X004174Y014563D01*
X004174Y015894D01*
X004130Y015938D01*
X004799Y015473D02*
X004799Y019313D01*
X005299Y020063D01*
X005424Y020313D01*
X005424Y023188D01*
X005049Y023688D01*
X005049Y025438D01*
X005549Y027063D01*
X005549Y028688D01*
X005924Y029063D01*
X006209Y029063D01*
X006799Y029688D02*
X006799Y027563D01*
X006049Y024938D01*
X006049Y024313D01*
X006799Y023438D01*
X006799Y020232D01*
X006475Y019783D01*
X005799Y018813D01*
X005799Y017188D01*
X005299Y016232D02*
X005469Y015938D01*
X005299Y016232D02*
X005299Y019063D01*
X006049Y020188D01*
X006049Y023313D01*
X005549Y023938D01*
X005549Y025188D01*
X006209Y027348D01*
X006209Y028188D01*
X007389Y028188D02*
X010389Y028188D01*
X010549Y028348D01*
X012299Y026857D01*
X010549Y029528D02*
X011709Y030688D01*
X012799Y030688D01*
X013299Y031188D01*
X013299Y033938D01*
X012880Y034357D01*
X012299Y034357D01*
X011540Y034857D01*
X010549Y036098D01*
X010549Y037278D02*
X011959Y038188D01*
X012799Y038438D01*
X013299Y038938D01*
X013299Y041688D01*
X012630Y041857D01*
X012299Y041857D01*
X010917Y043004D02*
X011299Y043637D01*
X011799Y044438D01*
X012709Y045098D01*
X012924Y045098D01*
X012924Y046278D02*
X012924Y049063D01*
X014799Y050938D01*
X020799Y050938D01*
X021549Y050188D01*
X027049Y050188D01*
X028299Y051438D01*
X033549Y051438D01*
X034549Y050438D01*
X035049Y050438D01*
X036049Y051438D01*
X041299Y051438D01*
X042299Y050438D01*
X042799Y050438D01*
X043799Y051438D01*
X048549Y051438D01*
X049299Y050688D01*
X049549Y050688D01*
X050799Y051938D01*
X057049Y051938D01*
X059924Y049063D01*
X059924Y048278D01*
X058799Y048278D02*
X058799Y049188D01*
X056549Y051438D01*
X050924Y051438D01*
X049674Y050188D01*
X049049Y050188D01*
X048174Y051063D01*
X044174Y051063D01*
X042924Y049813D01*
X042049Y049813D01*
X041049Y050813D01*
X036174Y050813D01*
X035174Y049813D01*
X050499Y049388D02*
X051549Y050438D01*
X055424Y050438D01*
X056424Y049438D01*
X056424Y048313D01*
X057049Y047688D01*
X062049Y043438D02*
X062049Y042563D01*
X063424Y041438D01*
X063882Y041021D01*
X065299Y041021D01*
X065299Y043144D01*
X064709Y041938D02*
X063799Y041938D01*
X063049Y042688D01*
X063049Y043438D01*
X061049Y041348D02*
X061049Y040438D01*
X060049Y040438D02*
X060049Y041938D01*
X058049Y040688D02*
X058049Y040438D01*
X057049Y040438D02*
X057049Y040813D01*
X056049Y040438D02*
X055924Y040563D01*
X061469Y038063D02*
X061969Y037563D01*
X062299Y037563D01*
X062924Y036938D01*
X062924Y036063D01*
X065049Y034438D01*
X066049Y034438D01*
X066549Y034938D01*
X068049Y034938D01*
X068299Y035188D01*
X068299Y038688D01*
X070049Y040438D01*
X070049Y041063D01*
X069424Y041938D02*
X070799Y041938D01*
X066174Y041938D02*
X065889Y041938D01*
X061249Y035188D02*
X060749Y034938D01*
X060299Y034938D01*
X058549Y033688D01*
X057549Y033688D01*
X059424Y027563D02*
X060424Y027563D01*
X059424Y027563D02*
X058139Y026528D01*
X057924Y026528D01*
X057924Y025348D02*
X059049Y024357D01*
X059799Y023607D01*
X060380Y023607D01*
X060799Y023188D01*
X060799Y020438D01*
X060549Y020188D01*
X059709Y020188D01*
X058174Y019278D01*
X065549Y025348D02*
X066049Y025107D01*
X067299Y023857D01*
X067755Y023857D01*
X068299Y023313D01*
X068299Y020938D01*
X067549Y020188D01*
X069924Y017888D02*
X069174Y017138D01*
X069174Y015063D01*
X067874Y014138D01*
X067674Y013938D01*
X067674Y012188D01*
X067174Y012188D01*
X066049Y010938D01*
X067674Y012188D02*
X068549Y012188D01*
X069924Y010813D01*
X070924Y010813D01*
X071837Y011726D01*
X065924Y006519D02*
X065924Y005863D01*
X055049Y010813D02*
X053549Y012188D01*
X050799Y010188D02*
X052130Y008857D01*
X043389Y019278D02*
X044549Y020188D01*
X045549Y020188D01*
X046049Y020688D01*
X046049Y022938D01*
X045380Y023607D01*
X044799Y023607D01*
X043049Y025348D01*
X043299Y019278D02*
X043389Y019278D01*
X025549Y034688D02*
X024224Y034688D01*
X023624Y034688D02*
X021344Y034688D01*
X020724Y033638D02*
X020724Y036138D01*
X016549Y036138D01*
X019299Y034607D02*
X019630Y034607D01*
X019924Y034313D01*
X019924Y033688D01*
X020799Y032813D01*
X020799Y029938D01*
X020639Y029778D01*
X018799Y029778D01*
X019799Y026857D02*
X020380Y026857D01*
X021049Y026188D01*
X021049Y023153D01*
X019674Y022403D01*
X019674Y021903D01*
X019674Y020723D02*
X019674Y018232D01*
X020674Y013188D02*
X018424Y011063D01*
X018424Y010063D01*
X019849Y008638D01*
X019849Y005688D01*
X013299Y003638D02*
X009424Y003638D01*
X012349Y005688D02*
X012349Y009013D01*
X011549Y010063D01*
X005174Y010063D01*
X004799Y010438D01*
X004799Y011188D01*
X005299Y011688D01*
X005299Y014063D01*
X006049Y010938D02*
X007799Y010939D01*
X009299Y021638D02*
X011249Y021638D01*
X064299Y025888D02*
X065999Y025888D01*
X067549Y027188D01*
X067549Y027813D02*
X066959Y027688D01*
X065549Y026528D01*
X067549Y027813D02*
X068174Y028188D01*
X068174Y030688D01*
X067880Y031107D01*
X067299Y031357D01*
X066299Y032348D01*
X066049Y032598D01*
X066049Y034438D01*
D32*
X006049Y010938D03*
D33*
X003987Y001688D03*
X010799Y001688D03*
X018299Y001688D03*
X025799Y001688D03*
X035299Y001688D03*
X044799Y001688D03*
X054299Y001688D03*
X064049Y001688D03*
X067799Y001688D03*
X071862Y001688D03*
X071862Y052188D03*
X074049Y052188D03*
X067799Y052188D03*
X064049Y052188D03*
X058799Y052188D03*
X049799Y052188D03*
X042299Y052188D03*
X034799Y052188D03*
X023799Y052188D03*
X012799Y052188D03*
X003987Y052188D03*
X003987Y043438D03*
X003987Y035938D03*
X003987Y028438D03*
X003987Y019438D03*
X003987Y010438D03*
D34*
X012799Y020938D03*
X012799Y028438D03*
X012799Y035938D03*
X012799Y043438D03*
X034799Y043438D03*
X042299Y043438D03*
X049799Y043438D03*
X052799Y032938D03*
X045299Y032938D03*
X037799Y032938D03*
X037799Y025438D03*
X045299Y025438D03*
X052799Y025438D03*
X060299Y025438D03*
X067799Y025438D03*
X067799Y017938D03*
X060299Y017938D03*
X060299Y010938D03*
X052799Y010438D03*
X052799Y017938D03*
X045299Y017938D03*
X037799Y017938D03*
X035299Y010438D03*
X044424Y010438D03*
X067799Y010438D03*
X067799Y032938D03*
X060299Y032938D03*
X067799Y040438D03*
X067799Y043438D03*
X020299Y010438D03*
D35*
X032264Y040313D02*
X032799Y040313D01*
X033174Y039938D01*
X036174Y039938D01*
X036299Y040063D01*
X038584Y040063D01*
X038584Y040938D02*
X036424Y040938D01*
X036049Y040563D01*
X033674Y040563D01*
X032924Y041313D01*
X032264Y041313D01*
X032264Y042313D02*
X032799Y042188D01*
X033924Y041063D01*
X035799Y041063D01*
X036174Y041438D01*
X037799Y041438D01*
X038174Y041813D01*
X038584Y041813D01*
X052799Y043938D02*
X053799Y044813D01*
X054174Y044813D01*
X055174Y043813D01*
X055174Y043063D01*
X055549Y042688D01*
X057799Y042688D01*
X058049Y042938D01*
X058424Y042313D02*
X055389Y042313D01*
X054514Y043188D01*
X054514Y042313D02*
X054799Y042188D01*
X055424Y041813D01*
X056924Y041813D01*
X058049Y040688D01*
X057049Y040813D02*
X056549Y041313D01*
X055014Y041313D01*
X055139Y040563D02*
X055924Y040563D01*
X058424Y042313D02*
X059049Y042938D01*
M02*
