G75*
G70*
%OFA0B0*%
%FSLAX24Y24*%
%IPPOS*%
%LPD*%
%AMOC8*
5,1,8,0,0,1.08239X$1,22.5*
%
%ADD10C,0.0100*%
%ADD11C,0.0051*%
%ADD12C,0.0110*%
%ADD13C,0.0050*%
%ADD14C,0.0040*%
%ADD15C,0.0079*%
%ADD16C,0.0060*%
%ADD17R,0.0689X0.0295*%
%ADD18R,0.0295X0.0689*%
%ADD19R,0.0200X0.0100*%
D10*
X064218Y010139D02*
X064220Y010201D01*
X064226Y010264D01*
X064236Y010325D01*
X064250Y010386D01*
X064267Y010446D01*
X064288Y010505D01*
X064314Y010562D01*
X064342Y010617D01*
X064374Y010671D01*
X064410Y010722D01*
X064448Y010772D01*
X064490Y010818D01*
X064534Y010862D01*
X064582Y010903D01*
X064631Y010941D01*
X064683Y010975D01*
X064737Y011006D01*
X064793Y011034D01*
X064851Y011058D01*
X064910Y011079D01*
X064970Y011095D01*
X065031Y011108D01*
X065093Y011117D01*
X065155Y011122D01*
X065218Y011123D01*
X065280Y011120D01*
X065342Y011113D01*
X065404Y011102D01*
X065464Y011087D01*
X065524Y011069D01*
X065582Y011047D01*
X065639Y011021D01*
X065694Y010991D01*
X065747Y010958D01*
X065798Y010922D01*
X065846Y010883D01*
X065892Y010840D01*
X065935Y010795D01*
X065975Y010747D01*
X066012Y010697D01*
X066046Y010644D01*
X066077Y010590D01*
X066103Y010534D01*
X066127Y010476D01*
X066146Y010416D01*
X066162Y010356D01*
X066174Y010294D01*
X066182Y010233D01*
X066186Y010170D01*
X066186Y010108D01*
X066182Y010045D01*
X066174Y009984D01*
X066162Y009922D01*
X066146Y009862D01*
X066127Y009802D01*
X066103Y009744D01*
X066077Y009688D01*
X066046Y009634D01*
X066012Y009581D01*
X065975Y009531D01*
X065935Y009483D01*
X065892Y009438D01*
X065846Y009395D01*
X065798Y009356D01*
X065747Y009320D01*
X065694Y009287D01*
X065639Y009257D01*
X065582Y009231D01*
X065524Y009209D01*
X065464Y009191D01*
X065404Y009176D01*
X065342Y009165D01*
X065280Y009158D01*
X065218Y009155D01*
X065155Y009156D01*
X065093Y009161D01*
X065031Y009170D01*
X064970Y009183D01*
X064910Y009199D01*
X064851Y009220D01*
X064793Y009244D01*
X064737Y009272D01*
X064683Y009303D01*
X064631Y009337D01*
X064582Y009375D01*
X064534Y009416D01*
X064490Y009460D01*
X064448Y009506D01*
X064410Y009556D01*
X064374Y009607D01*
X064342Y009661D01*
X064314Y009716D01*
X064288Y009773D01*
X064267Y009832D01*
X064250Y009892D01*
X064236Y009953D01*
X064226Y010014D01*
X064220Y010077D01*
X064218Y010139D01*
X064218Y017639D02*
X064220Y017701D01*
X064226Y017764D01*
X064236Y017825D01*
X064250Y017886D01*
X064267Y017946D01*
X064288Y018005D01*
X064314Y018062D01*
X064342Y018117D01*
X064374Y018171D01*
X064410Y018222D01*
X064448Y018272D01*
X064490Y018318D01*
X064534Y018362D01*
X064582Y018403D01*
X064631Y018441D01*
X064683Y018475D01*
X064737Y018506D01*
X064793Y018534D01*
X064851Y018558D01*
X064910Y018579D01*
X064970Y018595D01*
X065031Y018608D01*
X065093Y018617D01*
X065155Y018622D01*
X065218Y018623D01*
X065280Y018620D01*
X065342Y018613D01*
X065404Y018602D01*
X065464Y018587D01*
X065524Y018569D01*
X065582Y018547D01*
X065639Y018521D01*
X065694Y018491D01*
X065747Y018458D01*
X065798Y018422D01*
X065846Y018383D01*
X065892Y018340D01*
X065935Y018295D01*
X065975Y018247D01*
X066012Y018197D01*
X066046Y018144D01*
X066077Y018090D01*
X066103Y018034D01*
X066127Y017976D01*
X066146Y017916D01*
X066162Y017856D01*
X066174Y017794D01*
X066182Y017733D01*
X066186Y017670D01*
X066186Y017608D01*
X066182Y017545D01*
X066174Y017484D01*
X066162Y017422D01*
X066146Y017362D01*
X066127Y017302D01*
X066103Y017244D01*
X066077Y017188D01*
X066046Y017134D01*
X066012Y017081D01*
X065975Y017031D01*
X065935Y016983D01*
X065892Y016938D01*
X065846Y016895D01*
X065798Y016856D01*
X065747Y016820D01*
X065694Y016787D01*
X065639Y016757D01*
X065582Y016731D01*
X065524Y016709D01*
X065464Y016691D01*
X065404Y016676D01*
X065342Y016665D01*
X065280Y016658D01*
X065218Y016655D01*
X065155Y016656D01*
X065093Y016661D01*
X065031Y016670D01*
X064970Y016683D01*
X064910Y016699D01*
X064851Y016720D01*
X064793Y016744D01*
X064737Y016772D01*
X064683Y016803D01*
X064631Y016837D01*
X064582Y016875D01*
X064534Y016916D01*
X064490Y016960D01*
X064448Y017006D01*
X064410Y017056D01*
X064374Y017107D01*
X064342Y017161D01*
X064314Y017216D01*
X064288Y017273D01*
X064267Y017332D01*
X064250Y017392D01*
X064236Y017453D01*
X064226Y017514D01*
X064220Y017577D01*
X064218Y017639D01*
X064218Y025139D02*
X064220Y025201D01*
X064226Y025264D01*
X064236Y025325D01*
X064250Y025386D01*
X064267Y025446D01*
X064288Y025505D01*
X064314Y025562D01*
X064342Y025617D01*
X064374Y025671D01*
X064410Y025722D01*
X064448Y025772D01*
X064490Y025818D01*
X064534Y025862D01*
X064582Y025903D01*
X064631Y025941D01*
X064683Y025975D01*
X064737Y026006D01*
X064793Y026034D01*
X064851Y026058D01*
X064910Y026079D01*
X064970Y026095D01*
X065031Y026108D01*
X065093Y026117D01*
X065155Y026122D01*
X065218Y026123D01*
X065280Y026120D01*
X065342Y026113D01*
X065404Y026102D01*
X065464Y026087D01*
X065524Y026069D01*
X065582Y026047D01*
X065639Y026021D01*
X065694Y025991D01*
X065747Y025958D01*
X065798Y025922D01*
X065846Y025883D01*
X065892Y025840D01*
X065935Y025795D01*
X065975Y025747D01*
X066012Y025697D01*
X066046Y025644D01*
X066077Y025590D01*
X066103Y025534D01*
X066127Y025476D01*
X066146Y025416D01*
X066162Y025356D01*
X066174Y025294D01*
X066182Y025233D01*
X066186Y025170D01*
X066186Y025108D01*
X066182Y025045D01*
X066174Y024984D01*
X066162Y024922D01*
X066146Y024862D01*
X066127Y024802D01*
X066103Y024744D01*
X066077Y024688D01*
X066046Y024634D01*
X066012Y024581D01*
X065975Y024531D01*
X065935Y024483D01*
X065892Y024438D01*
X065846Y024395D01*
X065798Y024356D01*
X065747Y024320D01*
X065694Y024287D01*
X065639Y024257D01*
X065582Y024231D01*
X065524Y024209D01*
X065464Y024191D01*
X065404Y024176D01*
X065342Y024165D01*
X065280Y024158D01*
X065218Y024155D01*
X065155Y024156D01*
X065093Y024161D01*
X065031Y024170D01*
X064970Y024183D01*
X064910Y024199D01*
X064851Y024220D01*
X064793Y024244D01*
X064737Y024272D01*
X064683Y024303D01*
X064631Y024337D01*
X064582Y024375D01*
X064534Y024416D01*
X064490Y024460D01*
X064448Y024506D01*
X064410Y024556D01*
X064374Y024607D01*
X064342Y024661D01*
X064314Y024716D01*
X064288Y024773D01*
X064267Y024832D01*
X064250Y024892D01*
X064236Y024953D01*
X064226Y025014D01*
X064220Y025077D01*
X064218Y025139D01*
X064218Y032639D02*
X064220Y032701D01*
X064226Y032764D01*
X064236Y032825D01*
X064250Y032886D01*
X064267Y032946D01*
X064288Y033005D01*
X064314Y033062D01*
X064342Y033117D01*
X064374Y033171D01*
X064410Y033222D01*
X064448Y033272D01*
X064490Y033318D01*
X064534Y033362D01*
X064582Y033403D01*
X064631Y033441D01*
X064683Y033475D01*
X064737Y033506D01*
X064793Y033534D01*
X064851Y033558D01*
X064910Y033579D01*
X064970Y033595D01*
X065031Y033608D01*
X065093Y033617D01*
X065155Y033622D01*
X065218Y033623D01*
X065280Y033620D01*
X065342Y033613D01*
X065404Y033602D01*
X065464Y033587D01*
X065524Y033569D01*
X065582Y033547D01*
X065639Y033521D01*
X065694Y033491D01*
X065747Y033458D01*
X065798Y033422D01*
X065846Y033383D01*
X065892Y033340D01*
X065935Y033295D01*
X065975Y033247D01*
X066012Y033197D01*
X066046Y033144D01*
X066077Y033090D01*
X066103Y033034D01*
X066127Y032976D01*
X066146Y032916D01*
X066162Y032856D01*
X066174Y032794D01*
X066182Y032733D01*
X066186Y032670D01*
X066186Y032608D01*
X066182Y032545D01*
X066174Y032484D01*
X066162Y032422D01*
X066146Y032362D01*
X066127Y032302D01*
X066103Y032244D01*
X066077Y032188D01*
X066046Y032134D01*
X066012Y032081D01*
X065975Y032031D01*
X065935Y031983D01*
X065892Y031938D01*
X065846Y031895D01*
X065798Y031856D01*
X065747Y031820D01*
X065694Y031787D01*
X065639Y031757D01*
X065582Y031731D01*
X065524Y031709D01*
X065464Y031691D01*
X065404Y031676D01*
X065342Y031665D01*
X065280Y031658D01*
X065218Y031655D01*
X065155Y031656D01*
X065093Y031661D01*
X065031Y031670D01*
X064970Y031683D01*
X064910Y031699D01*
X064851Y031720D01*
X064793Y031744D01*
X064737Y031772D01*
X064683Y031803D01*
X064631Y031837D01*
X064582Y031875D01*
X064534Y031916D01*
X064490Y031960D01*
X064448Y032006D01*
X064410Y032056D01*
X064374Y032107D01*
X064342Y032161D01*
X064314Y032216D01*
X064288Y032273D01*
X064267Y032332D01*
X064250Y032392D01*
X064236Y032453D01*
X064226Y032514D01*
X064220Y032577D01*
X064218Y032639D01*
X064218Y040139D02*
X064220Y040201D01*
X064226Y040264D01*
X064236Y040325D01*
X064250Y040386D01*
X064267Y040446D01*
X064288Y040505D01*
X064314Y040562D01*
X064342Y040617D01*
X064374Y040671D01*
X064410Y040722D01*
X064448Y040772D01*
X064490Y040818D01*
X064534Y040862D01*
X064582Y040903D01*
X064631Y040941D01*
X064683Y040975D01*
X064737Y041006D01*
X064793Y041034D01*
X064851Y041058D01*
X064910Y041079D01*
X064970Y041095D01*
X065031Y041108D01*
X065093Y041117D01*
X065155Y041122D01*
X065218Y041123D01*
X065280Y041120D01*
X065342Y041113D01*
X065404Y041102D01*
X065464Y041087D01*
X065524Y041069D01*
X065582Y041047D01*
X065639Y041021D01*
X065694Y040991D01*
X065747Y040958D01*
X065798Y040922D01*
X065846Y040883D01*
X065892Y040840D01*
X065935Y040795D01*
X065975Y040747D01*
X066012Y040697D01*
X066046Y040644D01*
X066077Y040590D01*
X066103Y040534D01*
X066127Y040476D01*
X066146Y040416D01*
X066162Y040356D01*
X066174Y040294D01*
X066182Y040233D01*
X066186Y040170D01*
X066186Y040108D01*
X066182Y040045D01*
X066174Y039984D01*
X066162Y039922D01*
X066146Y039862D01*
X066127Y039802D01*
X066103Y039744D01*
X066077Y039688D01*
X066046Y039634D01*
X066012Y039581D01*
X065975Y039531D01*
X065935Y039483D01*
X065892Y039438D01*
X065846Y039395D01*
X065798Y039356D01*
X065747Y039320D01*
X065694Y039287D01*
X065639Y039257D01*
X065582Y039231D01*
X065524Y039209D01*
X065464Y039191D01*
X065404Y039176D01*
X065342Y039165D01*
X065280Y039158D01*
X065218Y039155D01*
X065155Y039156D01*
X065093Y039161D01*
X065031Y039170D01*
X064970Y039183D01*
X064910Y039199D01*
X064851Y039220D01*
X064793Y039244D01*
X064737Y039272D01*
X064683Y039303D01*
X064631Y039337D01*
X064582Y039375D01*
X064534Y039416D01*
X064490Y039460D01*
X064448Y039506D01*
X064410Y039556D01*
X064374Y039607D01*
X064342Y039661D01*
X064314Y039716D01*
X064288Y039773D01*
X064267Y039832D01*
X064250Y039892D01*
X064236Y039953D01*
X064226Y040014D01*
X064220Y040077D01*
X064218Y040139D01*
D11*
X075576Y052116D02*
X075828Y052116D01*
X075702Y053139D01*
X075804Y052116D01*
X075753Y052116D02*
X075702Y053139D01*
X075600Y052116D01*
X075576Y052116D02*
X075702Y053139D01*
X075651Y052116D01*
X075702Y053139D02*
X075702Y000139D01*
X075804Y001163D01*
X075828Y001163D02*
X075702Y000139D01*
X075600Y001163D01*
X075576Y001163D02*
X075828Y001163D01*
X075753Y001163D02*
X075702Y000139D01*
X075651Y001163D01*
X075576Y001163D02*
X075702Y000139D01*
X076489Y000139D02*
X070639Y000139D01*
X072952Y053139D02*
X076489Y053139D01*
X072702Y053202D02*
X072702Y056552D01*
X072702Y055764D02*
X071678Y055867D01*
X071678Y055890D02*
X071678Y055639D01*
X072702Y055764D01*
X071678Y055662D01*
X071678Y055713D02*
X072702Y055764D01*
X071678Y055816D01*
X071678Y055890D02*
X072702Y055764D01*
X000139Y055764D01*
X001163Y055662D01*
X001163Y055639D02*
X000139Y055764D01*
X001163Y055867D01*
X001163Y055890D02*
X001163Y055639D01*
X001163Y055713D02*
X000139Y055764D01*
X001163Y055816D01*
X001163Y055890D02*
X000139Y055764D01*
X000139Y056552D02*
X000139Y053514D01*
D12*
X033461Y056213D02*
X034307Y056213D01*
X033884Y056213D02*
X033884Y057482D01*
X033461Y057059D01*
X034729Y057059D02*
X034941Y056848D01*
X035364Y056848D01*
X035575Y056636D01*
X035575Y056425D01*
X035364Y056213D01*
X034941Y056213D01*
X034729Y056425D01*
X034729Y056636D01*
X034941Y056848D01*
X034729Y057059D02*
X034729Y057271D01*
X034941Y057482D01*
X035364Y057482D01*
X035575Y057271D01*
X035575Y057059D01*
X035364Y056848D01*
X035998Y056848D02*
X036844Y056848D01*
X037267Y056425D02*
X037478Y056425D01*
X037478Y056213D01*
X037267Y056213D01*
X037267Y056425D01*
X037901Y056425D02*
X038113Y056213D01*
X038536Y056213D01*
X038747Y056425D01*
X038747Y056636D01*
X038536Y056848D01*
X038324Y056848D01*
X038536Y056848D02*
X038747Y057059D01*
X038747Y057271D01*
X038536Y057482D01*
X038113Y057482D01*
X037901Y057271D01*
X036633Y057482D02*
X036633Y056213D01*
X035998Y056848D02*
X036633Y057482D01*
X039170Y057059D02*
X039593Y057482D01*
X039593Y056213D01*
X039170Y056213D02*
X040016Y056213D01*
X073984Y030023D02*
X074196Y030235D01*
X074407Y030235D01*
X075253Y029389D01*
X075253Y030235D01*
X073984Y030023D02*
X073984Y029600D01*
X074196Y029389D01*
X073984Y028966D02*
X074196Y028543D01*
X074619Y028120D01*
X074619Y028755D01*
X074830Y028966D01*
X075042Y028966D01*
X075253Y028755D01*
X075253Y028332D01*
X075042Y028120D01*
X074619Y028120D01*
X075042Y027697D02*
X075253Y027697D01*
X075253Y027486D01*
X075042Y027486D01*
X075042Y027697D01*
X074619Y027063D02*
X074619Y026217D01*
X073984Y026851D01*
X075253Y026851D01*
X075042Y025794D02*
X075253Y025583D01*
X075253Y025160D01*
X075042Y024948D01*
X075253Y024525D02*
X075253Y023679D01*
X075253Y024102D02*
X073984Y024102D01*
X074407Y023679D01*
X074196Y024948D02*
X073984Y025160D01*
X073984Y025583D01*
X074196Y025794D01*
X074407Y025794D01*
X074619Y025583D01*
X074830Y025794D01*
X075042Y025794D01*
X074619Y025583D02*
X074619Y025371D01*
D13*
X071952Y025889D02*
X071952Y031889D01*
X065952Y031889D01*
X065952Y025889D01*
X071952Y025889D01*
X071952Y024389D02*
X071952Y018389D01*
X065952Y018389D01*
X065952Y024389D01*
X071952Y024389D01*
X064452Y024389D02*
X064452Y018389D01*
X058452Y018389D01*
X058452Y024389D01*
X064452Y024389D01*
X064452Y025889D02*
X064452Y031889D01*
X058452Y031889D01*
X058452Y025889D01*
X064452Y025889D01*
X056952Y025889D02*
X056952Y031889D01*
X050952Y031889D01*
X050952Y025889D01*
X056952Y025889D01*
X056952Y024389D02*
X056952Y018389D01*
X050952Y018389D01*
X050952Y024389D01*
X056952Y024389D01*
X049452Y024389D02*
X049452Y018389D01*
X043452Y018389D01*
X043452Y024389D01*
X049452Y024389D01*
X049452Y025889D02*
X049452Y031889D01*
X043452Y031889D01*
X043452Y025889D01*
X049452Y025889D01*
X041952Y025889D02*
X041952Y031889D01*
X035952Y031889D01*
X035952Y025889D01*
X041952Y025889D01*
X041952Y024389D02*
X041952Y018389D01*
X035952Y018389D01*
X035952Y024389D01*
X041952Y024389D01*
X041952Y016889D02*
X035952Y016889D01*
X035952Y010889D01*
X041952Y010889D01*
X041952Y016889D01*
X043452Y016889D02*
X049452Y016889D01*
X049452Y010889D01*
X043452Y010889D01*
X043452Y016889D01*
X050952Y016889D02*
X056952Y016889D01*
X056952Y010889D01*
X050952Y010889D01*
X050952Y016889D01*
X058452Y016889D02*
X064452Y016889D01*
X064452Y010889D01*
X058452Y010889D01*
X058452Y016889D01*
X065952Y016889D02*
X071952Y016889D01*
X071952Y010889D01*
X065952Y010889D01*
X065952Y016889D01*
X063202Y009389D02*
X057202Y009389D01*
X057202Y003389D01*
X063202Y003389D01*
X063202Y009389D01*
X048077Y009389D02*
X048077Y003389D01*
X042077Y003389D01*
X042077Y009389D01*
X048077Y009389D01*
X039577Y009389D02*
X039577Y003389D01*
X033577Y003389D01*
X033577Y009389D01*
X039577Y009389D01*
X038577Y009389D02*
X038577Y003389D01*
X032577Y003389D01*
X032577Y009389D01*
X038577Y009389D01*
X033077Y009389D02*
X033077Y003389D01*
X027077Y003389D01*
X027077Y009389D01*
X033077Y009389D01*
X032077Y009389D02*
X032077Y003389D01*
X026077Y003389D01*
X026077Y009389D01*
X032077Y009389D01*
X030702Y010889D02*
X030702Y016889D01*
X024702Y016889D01*
X024702Y010889D01*
X030702Y010889D01*
X024452Y009389D02*
X024452Y003389D01*
X018452Y003389D01*
X018452Y009389D01*
X024452Y009389D01*
X016952Y009389D02*
X016952Y003389D01*
X010952Y003389D01*
X010952Y009389D01*
X016952Y009389D01*
X016952Y010889D02*
X016952Y016889D01*
X010952Y016889D01*
X010952Y010889D01*
X016952Y010889D01*
X009452Y009389D02*
X009452Y003389D01*
X003452Y003389D01*
X003452Y009389D01*
X009452Y009389D01*
X004592Y004715D02*
X004291Y004414D01*
X004367Y004339D01*
X004517Y004339D01*
X004592Y004414D01*
X004592Y004715D01*
X004517Y004790D01*
X004367Y004790D01*
X004291Y004715D01*
X004291Y004414D01*
X004131Y004339D02*
X003831Y004339D01*
X003981Y004339D02*
X003981Y004790D01*
X003831Y004640D01*
X003671Y004640D02*
X003671Y004715D01*
X003596Y004790D01*
X003371Y004790D01*
X003371Y004339D01*
X003596Y004339D01*
X003671Y004414D01*
X003671Y004489D01*
X003596Y004565D01*
X003371Y004565D01*
X003596Y004565D02*
X003671Y004640D01*
X003211Y004790D02*
X003060Y004790D01*
X003135Y004790D02*
X003135Y004414D01*
X003060Y004339D01*
X002985Y004339D01*
X002910Y004414D01*
X004902Y019314D02*
X005202Y019314D01*
X005052Y019314D02*
X005052Y019765D01*
X004902Y019615D01*
X005362Y019765D02*
X005362Y019314D01*
X005587Y019314D01*
X005663Y019389D01*
X005663Y019690D01*
X005587Y019765D01*
X005362Y019765D01*
X005823Y019690D02*
X005898Y019765D01*
X006048Y019765D01*
X006123Y019690D01*
X006123Y019615D01*
X005823Y019314D01*
X006123Y019314D01*
X003452Y021389D02*
X003452Y027389D01*
X009452Y027389D01*
X009452Y021389D01*
X003452Y021389D01*
X010952Y021389D02*
X010952Y027389D01*
X016952Y027389D01*
X016952Y021389D01*
X010952Y021389D01*
X010952Y028889D02*
X010952Y034889D01*
X016952Y034889D01*
X016952Y028889D01*
X010952Y028889D01*
X009452Y028889D02*
X009452Y034889D01*
X003452Y034889D01*
X003452Y028889D01*
X009452Y028889D01*
X019064Y033427D02*
X019514Y033427D01*
X019514Y033277D02*
X019514Y033577D01*
X019214Y033277D02*
X019064Y033427D01*
X019089Y034477D02*
X019164Y034477D01*
X019239Y034552D01*
X019239Y034702D01*
X019314Y034777D01*
X019389Y034777D01*
X019464Y034702D01*
X019464Y034552D01*
X019389Y034477D01*
X019089Y034477D02*
X019014Y034552D01*
X019014Y034702D01*
X019089Y034777D01*
X019014Y034937D02*
X019314Y034937D01*
X019464Y035087D01*
X019314Y035238D01*
X019014Y035238D01*
X019089Y035398D02*
X019014Y035473D01*
X019014Y035623D01*
X019089Y035698D01*
X019164Y035698D01*
X019239Y035623D01*
X019314Y035698D01*
X019389Y035698D01*
X019464Y035623D01*
X019464Y035473D01*
X019389Y035398D01*
X019239Y035548D02*
X019239Y035623D01*
X016952Y036389D02*
X016952Y042389D01*
X010952Y042389D01*
X010952Y036389D01*
X016952Y036389D01*
X020952Y033389D02*
X020952Y039389D01*
X026952Y039389D01*
X026952Y033389D01*
X020952Y033389D01*
X026452Y031889D02*
X032452Y031889D01*
X032452Y025889D01*
X026452Y025889D01*
X026452Y031889D01*
X028452Y033389D02*
X028452Y039389D01*
X034452Y039389D01*
X034452Y033389D01*
X028452Y033389D01*
X035952Y033389D02*
X035952Y039389D01*
X041952Y039389D01*
X041952Y033389D01*
X035952Y033389D01*
X043452Y033389D02*
X043452Y039389D01*
X049452Y039389D01*
X049452Y033389D01*
X043452Y033389D01*
X050952Y033389D02*
X050952Y039389D01*
X056952Y039389D01*
X056952Y033389D01*
X050952Y033389D01*
X058452Y033389D02*
X058452Y039389D01*
X064452Y039389D01*
X064452Y033389D01*
X058452Y033389D01*
X065952Y033389D02*
X065952Y039389D01*
X071952Y039389D01*
X071952Y033389D01*
X065952Y033389D01*
X065952Y043889D02*
X065952Y049889D01*
X071952Y049889D01*
X071952Y043889D01*
X065952Y043889D01*
X064452Y043889D02*
X064452Y049889D01*
X058452Y049889D01*
X058452Y043889D01*
X064452Y043889D01*
X056717Y044639D02*
X056416Y044639D01*
X056567Y044639D02*
X056567Y045090D01*
X056416Y044940D01*
X056256Y045015D02*
X056181Y045090D01*
X055956Y045090D01*
X055956Y044639D01*
X056181Y044639D01*
X056256Y044714D01*
X056256Y045015D01*
X055796Y044639D02*
X055496Y044639D01*
X055646Y044639D02*
X055646Y045090D01*
X055496Y044940D01*
X053952Y043889D02*
X053952Y049889D01*
X047952Y049889D01*
X047952Y043889D01*
X053952Y043889D01*
X046452Y043889D02*
X046452Y049889D01*
X040452Y049889D01*
X040452Y043889D01*
X046452Y043889D01*
X038952Y043889D02*
X038952Y049889D01*
X032952Y049889D01*
X032952Y043889D01*
X038952Y043889D01*
X031452Y043889D02*
X031452Y049889D01*
X025452Y049889D01*
X025452Y043889D01*
X031452Y043889D01*
X027229Y040777D02*
X027229Y040327D01*
X027079Y040327D02*
X027379Y040327D01*
X027079Y040627D02*
X027229Y040777D01*
X026919Y040777D02*
X026919Y040477D01*
X026769Y040327D01*
X026619Y040477D01*
X026619Y040777D01*
X026458Y040702D02*
X026383Y040777D01*
X026233Y040777D01*
X026158Y040702D01*
X026158Y040627D01*
X026233Y040552D01*
X026383Y040552D01*
X026458Y040477D01*
X026458Y040402D01*
X026383Y040327D01*
X026233Y040327D01*
X026158Y040402D01*
X025364Y039827D02*
X025364Y039527D01*
X025364Y039677D02*
X024914Y039677D01*
X025064Y039527D01*
X024989Y043077D02*
X024914Y043152D01*
X024914Y043302D01*
X024989Y043377D01*
X025064Y043377D01*
X025139Y043302D01*
X025214Y043377D01*
X025289Y043377D01*
X025364Y043302D01*
X025364Y043152D01*
X025289Y043077D01*
X025139Y043227D02*
X025139Y043302D01*
X019514Y040502D02*
X019514Y040352D01*
X019439Y040277D01*
X019364Y040277D01*
X019289Y040352D01*
X019289Y040502D01*
X019364Y040577D01*
X019439Y040577D01*
X019514Y040502D01*
X019289Y040502D02*
X019214Y040577D01*
X019139Y040577D01*
X019064Y040502D01*
X019064Y040352D01*
X019139Y040277D01*
X019214Y040277D01*
X019289Y040352D01*
X016952Y043889D02*
X016952Y049889D01*
X010952Y049889D01*
X010952Y043889D01*
X016952Y043889D01*
X009452Y043889D02*
X009452Y049889D01*
X003452Y049889D01*
X003452Y043889D01*
X009452Y043889D01*
X009452Y042389D02*
X009452Y036389D01*
X003452Y036389D01*
X003452Y042389D01*
X009452Y042389D01*
X025452Y024389D02*
X031452Y024389D01*
X031452Y018389D01*
X025452Y018389D01*
X025452Y024389D01*
D14*
X030591Y026111D02*
X030667Y026034D01*
X030821Y026034D01*
X030898Y026111D01*
X030898Y026188D01*
X030821Y026265D01*
X030667Y026265D01*
X030591Y026341D01*
X030591Y026418D01*
X030667Y026495D01*
X030821Y026495D01*
X030898Y026418D01*
X031051Y026418D02*
X031128Y026495D01*
X031281Y026495D01*
X031358Y026418D01*
X031358Y026341D01*
X031051Y026034D01*
X031358Y026034D01*
X031511Y026111D02*
X031588Y026034D01*
X031742Y026034D01*
X031818Y026111D01*
X031818Y026265D01*
X031742Y026341D01*
X031665Y026341D01*
X031511Y026265D01*
X031511Y026495D01*
X031818Y026495D01*
X036091Y027611D02*
X036167Y027534D01*
X036321Y027534D01*
X036398Y027611D01*
X036398Y027688D01*
X036321Y027765D01*
X036167Y027765D01*
X036091Y027841D01*
X036091Y027918D01*
X036167Y027995D01*
X036321Y027995D01*
X036398Y027918D01*
X036551Y027918D02*
X036628Y027995D01*
X036781Y027995D01*
X036858Y027918D01*
X036858Y027841D01*
X036551Y027534D01*
X036858Y027534D01*
X037011Y027611D02*
X037088Y027534D01*
X037242Y027534D01*
X037318Y027611D01*
X037318Y027688D01*
X037242Y027765D01*
X037011Y027765D01*
X037011Y027611D01*
X037011Y027765D02*
X037165Y027918D01*
X037318Y027995D01*
X043841Y028091D02*
X043917Y028015D01*
X044071Y028015D01*
X044148Y027938D01*
X044148Y027861D01*
X044071Y027784D01*
X043917Y027784D01*
X043841Y027861D01*
X043841Y028091D02*
X043841Y028168D01*
X043917Y028245D01*
X044071Y028245D01*
X044148Y028168D01*
X044301Y028168D02*
X044378Y028245D01*
X044531Y028245D01*
X044608Y028168D01*
X044608Y028091D01*
X044301Y027784D01*
X044608Y027784D01*
X044761Y027784D02*
X044761Y027861D01*
X045068Y028168D01*
X045068Y028245D01*
X044761Y028245D01*
X051091Y027918D02*
X051091Y027841D01*
X051167Y027765D01*
X051321Y027765D01*
X051398Y027688D01*
X051398Y027611D01*
X051321Y027534D01*
X051167Y027534D01*
X051091Y027611D01*
X051091Y027918D02*
X051167Y027995D01*
X051321Y027995D01*
X051398Y027918D01*
X051551Y027918D02*
X051628Y027995D01*
X051781Y027995D01*
X051858Y027918D01*
X051858Y027841D01*
X051551Y027534D01*
X051858Y027534D01*
X052011Y027611D02*
X052011Y027688D01*
X052088Y027765D01*
X052242Y027765D01*
X052318Y027688D01*
X052318Y027611D01*
X052242Y027534D01*
X052088Y027534D01*
X052011Y027611D01*
X052088Y027765D02*
X052011Y027841D01*
X052011Y027918D01*
X052088Y027995D01*
X052242Y027995D01*
X052318Y027918D01*
X052318Y027841D01*
X052242Y027765D01*
X058841Y027861D02*
X058917Y027784D01*
X059071Y027784D01*
X059148Y027861D01*
X059148Y027938D01*
X059071Y028015D01*
X058917Y028015D01*
X058841Y028091D01*
X058841Y028168D01*
X058917Y028245D01*
X059071Y028245D01*
X059148Y028168D01*
X059301Y028168D02*
X059378Y028245D01*
X059531Y028245D01*
X059608Y028168D01*
X059608Y028091D01*
X059301Y027784D01*
X059608Y027784D01*
X059761Y027861D02*
X059838Y027784D01*
X059992Y027784D01*
X060068Y027861D01*
X060068Y028168D01*
X059992Y028245D01*
X059838Y028245D01*
X059761Y028168D01*
X059761Y028091D01*
X059838Y028015D01*
X060068Y028015D01*
X066091Y027918D02*
X066091Y027841D01*
X066167Y027765D01*
X066321Y027765D01*
X066398Y027688D01*
X066398Y027611D01*
X066321Y027534D01*
X066167Y027534D01*
X066091Y027611D01*
X066091Y027918D02*
X066167Y027995D01*
X066321Y027995D01*
X066398Y027918D01*
X066551Y027918D02*
X066628Y027995D01*
X066781Y027995D01*
X066858Y027918D01*
X066858Y027841D01*
X066781Y027765D01*
X066858Y027688D01*
X066858Y027611D01*
X066781Y027534D01*
X066628Y027534D01*
X066551Y027611D01*
X066705Y027765D02*
X066781Y027765D01*
X067011Y027611D02*
X067011Y027918D01*
X067088Y027995D01*
X067242Y027995D01*
X067318Y027918D01*
X067011Y027611D01*
X067088Y027534D01*
X067242Y027534D01*
X067318Y027611D01*
X067318Y027918D01*
X060492Y035284D02*
X060338Y035284D01*
X060261Y035361D01*
X060108Y035284D02*
X059801Y035284D01*
X060108Y035591D01*
X060108Y035668D01*
X060031Y035745D01*
X059878Y035745D01*
X059801Y035668D01*
X059648Y035668D02*
X059571Y035745D01*
X059417Y035745D01*
X059341Y035668D01*
X059341Y035591D01*
X059417Y035515D01*
X059571Y035515D01*
X059648Y035438D01*
X059648Y035361D01*
X059571Y035284D01*
X059417Y035284D01*
X059341Y035361D01*
X060261Y035668D02*
X060338Y035745D01*
X060492Y035745D01*
X060568Y035668D01*
X060568Y035591D01*
X060492Y035515D01*
X060568Y035438D01*
X060568Y035361D01*
X060492Y035284D01*
X060492Y035515D02*
X060415Y035515D01*
X066091Y037111D02*
X066167Y037034D01*
X066321Y037034D01*
X066398Y037111D01*
X066398Y037188D01*
X066321Y037265D01*
X066167Y037265D01*
X066091Y037341D01*
X066091Y037418D01*
X066167Y037495D01*
X066321Y037495D01*
X066398Y037418D01*
X066551Y037418D02*
X066628Y037495D01*
X066781Y037495D01*
X066858Y037418D01*
X066858Y037341D01*
X066551Y037034D01*
X066858Y037034D01*
X067011Y037265D02*
X067318Y037265D01*
X067242Y037495D02*
X067011Y037265D01*
X067242Y037495D02*
X067242Y037034D01*
X070167Y044034D02*
X070091Y044111D01*
X070167Y044034D02*
X070321Y044034D01*
X070398Y044111D01*
X070398Y044188D01*
X070321Y044265D01*
X070167Y044265D01*
X070091Y044341D01*
X070091Y044418D01*
X070167Y044495D01*
X070321Y044495D01*
X070398Y044418D01*
X070551Y044341D02*
X070705Y044495D01*
X070705Y044034D01*
X070858Y044034D02*
X070551Y044034D01*
X071011Y044111D02*
X071011Y044188D01*
X071088Y044265D01*
X071242Y044265D01*
X071318Y044188D01*
X071318Y044111D01*
X071242Y044034D01*
X071088Y044034D01*
X071011Y044111D01*
X071088Y044265D02*
X071011Y044341D01*
X071011Y044418D01*
X071088Y044495D01*
X071242Y044495D01*
X071318Y044418D01*
X071318Y044341D01*
X071242Y044265D01*
X059818Y047793D02*
X059511Y047486D01*
X059511Y047409D01*
X059358Y047409D02*
X059051Y047409D01*
X059205Y047409D02*
X059205Y047870D01*
X059051Y047716D01*
X058898Y047793D02*
X058821Y047870D01*
X058667Y047870D01*
X058591Y047793D01*
X058591Y047716D01*
X058667Y047640D01*
X058821Y047640D01*
X058898Y047563D01*
X058898Y047486D01*
X058821Y047409D01*
X058667Y047409D01*
X058591Y047486D01*
X059511Y047870D02*
X059818Y047870D01*
X059818Y047793D01*
X049568Y046245D02*
X049415Y046168D01*
X049261Y046015D01*
X049492Y046015D01*
X049568Y045938D01*
X049568Y045861D01*
X049492Y045784D01*
X049338Y045784D01*
X049261Y045861D01*
X049261Y046015D01*
X049108Y045784D02*
X048801Y045784D01*
X048955Y045784D02*
X048955Y046245D01*
X048801Y046091D01*
X048648Y046168D02*
X048571Y046245D01*
X048417Y046245D01*
X048341Y046168D01*
X048341Y046091D01*
X048417Y046015D01*
X048571Y046015D01*
X048648Y045938D01*
X048648Y045861D01*
X048571Y045784D01*
X048417Y045784D01*
X048341Y045861D01*
X042568Y045986D02*
X042492Y045909D01*
X042338Y045909D01*
X042261Y045986D01*
X042261Y046140D02*
X042415Y046216D01*
X042492Y046216D01*
X042568Y046140D01*
X042568Y045986D01*
X042261Y046140D02*
X042261Y046370D01*
X042568Y046370D01*
X041955Y046370D02*
X041955Y045909D01*
X042108Y045909D02*
X041801Y045909D01*
X041648Y045986D02*
X041571Y045909D01*
X041417Y045909D01*
X041341Y045986D01*
X041417Y046140D02*
X041341Y046216D01*
X041341Y046293D01*
X041417Y046370D01*
X041571Y046370D01*
X041648Y046293D01*
X041801Y046216D02*
X041955Y046370D01*
X041648Y046063D02*
X041648Y045986D01*
X041648Y046063D02*
X041571Y046140D01*
X041417Y046140D01*
X034318Y045765D02*
X034011Y045765D01*
X034242Y045995D01*
X034242Y045534D01*
X033858Y045534D02*
X033551Y045534D01*
X033705Y045534D02*
X033705Y045995D01*
X033551Y045841D01*
X033398Y045918D02*
X033321Y045995D01*
X033167Y045995D01*
X033091Y045918D01*
X033091Y045841D01*
X033167Y045765D01*
X033321Y045765D01*
X033398Y045688D01*
X033398Y045611D01*
X033321Y045534D01*
X033167Y045534D01*
X033091Y045611D01*
X027068Y045861D02*
X026992Y045784D01*
X026838Y045784D01*
X026761Y045861D01*
X026608Y045784D02*
X026301Y045784D01*
X026455Y045784D02*
X026455Y046245D01*
X026301Y046091D01*
X026148Y046168D02*
X026071Y046245D01*
X025917Y046245D01*
X025841Y046168D01*
X025841Y046091D01*
X025917Y046015D01*
X026071Y046015D01*
X026148Y045938D01*
X026148Y045861D01*
X026071Y045784D01*
X025917Y045784D01*
X025841Y045861D01*
X026761Y046168D02*
X026838Y046245D01*
X026992Y046245D01*
X027068Y046168D01*
X027068Y046091D01*
X026992Y046015D01*
X027068Y045938D01*
X027068Y045861D01*
X026992Y046015D02*
X026915Y046015D01*
X022867Y037370D02*
X022943Y037293D01*
X022943Y037216D01*
X022867Y037140D01*
X022713Y037140D01*
X022636Y037216D01*
X022636Y037293D01*
X022713Y037370D01*
X022867Y037370D01*
X022867Y037140D02*
X022943Y037063D01*
X022943Y036986D01*
X022867Y036909D01*
X022713Y036909D01*
X022636Y036986D01*
X022636Y037063D01*
X022713Y037140D01*
X022483Y037216D02*
X022406Y037140D01*
X022253Y037140D01*
X022176Y037216D01*
X022176Y037293D01*
X022253Y037370D01*
X022406Y037370D01*
X022483Y037293D01*
X022483Y037216D01*
X022406Y037140D02*
X022483Y037063D01*
X022483Y036986D01*
X022406Y036909D01*
X022253Y036909D01*
X022176Y036986D01*
X022176Y037063D01*
X022253Y037140D01*
X022023Y037063D02*
X022023Y036986D01*
X021946Y036909D01*
X021792Y036909D01*
X021716Y036986D01*
X021792Y037140D02*
X021946Y037140D01*
X022023Y037063D01*
X022023Y037293D02*
X021946Y037370D01*
X021792Y037370D01*
X021716Y037293D01*
X021716Y037216D01*
X021792Y037140D01*
X029091Y035668D02*
X029091Y035591D01*
X029167Y035515D01*
X029321Y035515D01*
X029398Y035438D01*
X029398Y035361D01*
X029321Y035284D01*
X029167Y035284D01*
X029091Y035361D01*
X029091Y035668D02*
X029167Y035745D01*
X029321Y035745D01*
X029398Y035668D01*
X029551Y035591D02*
X029705Y035745D01*
X029705Y035284D01*
X029858Y035284D02*
X029551Y035284D01*
X030011Y035361D02*
X030088Y035284D01*
X030242Y035284D01*
X030318Y035361D01*
X030318Y035668D01*
X030242Y035745D01*
X030088Y035745D01*
X030011Y035668D01*
X030011Y035591D01*
X030088Y035515D01*
X030318Y035515D01*
X036091Y035418D02*
X036091Y035341D01*
X036167Y035265D01*
X036321Y035265D01*
X036398Y035188D01*
X036398Y035111D01*
X036321Y035034D01*
X036167Y035034D01*
X036091Y035111D01*
X036091Y035418D02*
X036167Y035495D01*
X036321Y035495D01*
X036398Y035418D01*
X036551Y035418D02*
X036628Y035495D01*
X036781Y035495D01*
X036858Y035418D01*
X036858Y035341D01*
X036551Y035034D01*
X036858Y035034D01*
X037011Y035111D02*
X037318Y035418D01*
X037318Y035111D01*
X037242Y035034D01*
X037088Y035034D01*
X037011Y035111D01*
X037011Y035418D01*
X037088Y035495D01*
X037242Y035495D01*
X037318Y035418D01*
X043841Y035361D02*
X043917Y035284D01*
X044071Y035284D01*
X044148Y035361D01*
X044148Y035438D01*
X044071Y035515D01*
X043917Y035515D01*
X043841Y035591D01*
X043841Y035668D01*
X043917Y035745D01*
X044071Y035745D01*
X044148Y035668D01*
X044301Y035668D02*
X044378Y035745D01*
X044531Y035745D01*
X044608Y035668D01*
X044608Y035591D01*
X044301Y035284D01*
X044608Y035284D01*
X044761Y035284D02*
X045068Y035284D01*
X044915Y035284D02*
X044915Y035745D01*
X044761Y035591D01*
X051091Y035418D02*
X051091Y035341D01*
X051167Y035265D01*
X051321Y035265D01*
X051398Y035188D01*
X051398Y035111D01*
X051321Y035034D01*
X051167Y035034D01*
X051091Y035111D01*
X051091Y035418D02*
X051167Y035495D01*
X051321Y035495D01*
X051398Y035418D01*
X051551Y035418D02*
X051628Y035495D01*
X051781Y035495D01*
X051858Y035418D01*
X051858Y035341D01*
X051551Y035034D01*
X051858Y035034D01*
X052011Y035034D02*
X052318Y035341D01*
X052318Y035418D01*
X052242Y035495D01*
X052088Y035495D01*
X052011Y035418D01*
X052011Y035034D02*
X052318Y035034D01*
X052492Y020745D02*
X052261Y020515D01*
X052568Y020515D01*
X052492Y020745D02*
X052492Y020284D01*
X052108Y020361D02*
X052031Y020284D01*
X051878Y020284D01*
X051801Y020361D01*
X051648Y020361D02*
X051571Y020284D01*
X051417Y020284D01*
X051341Y020361D01*
X051417Y020515D02*
X051571Y020515D01*
X051648Y020438D01*
X051648Y020361D01*
X051417Y020515D02*
X051341Y020591D01*
X051341Y020668D01*
X051417Y020745D01*
X051571Y020745D01*
X051648Y020668D01*
X051801Y020668D02*
X051878Y020745D01*
X052031Y020745D01*
X052108Y020668D01*
X052108Y020591D01*
X052031Y020515D01*
X052108Y020438D01*
X052108Y020361D01*
X052031Y020515D02*
X051955Y020515D01*
X058591Y020591D02*
X058667Y020515D01*
X058821Y020515D01*
X058898Y020438D01*
X058898Y020361D01*
X058821Y020284D01*
X058667Y020284D01*
X058591Y020361D01*
X058591Y020591D02*
X058591Y020668D01*
X058667Y020745D01*
X058821Y020745D01*
X058898Y020668D01*
X059051Y020668D02*
X059128Y020745D01*
X059281Y020745D01*
X059358Y020668D01*
X059358Y020591D01*
X059281Y020515D01*
X059358Y020438D01*
X059358Y020361D01*
X059281Y020284D01*
X059128Y020284D01*
X059051Y020361D01*
X059205Y020515D02*
X059281Y020515D01*
X059511Y020515D02*
X059665Y020591D01*
X059742Y020591D01*
X059818Y020515D01*
X059818Y020361D01*
X059742Y020284D01*
X059588Y020284D01*
X059511Y020361D01*
X059511Y020515D02*
X059511Y020745D01*
X059818Y020745D01*
X066091Y020668D02*
X066091Y020591D01*
X066167Y020515D01*
X066321Y020515D01*
X066398Y020438D01*
X066398Y020361D01*
X066321Y020284D01*
X066167Y020284D01*
X066091Y020361D01*
X066091Y020668D02*
X066167Y020745D01*
X066321Y020745D01*
X066398Y020668D01*
X066551Y020668D02*
X066628Y020745D01*
X066781Y020745D01*
X066858Y020668D01*
X066858Y020591D01*
X066781Y020515D01*
X066858Y020438D01*
X066858Y020361D01*
X066781Y020284D01*
X066628Y020284D01*
X066551Y020361D01*
X066705Y020515D02*
X066781Y020515D01*
X067011Y020515D02*
X067242Y020515D01*
X067318Y020438D01*
X067318Y020361D01*
X067242Y020284D01*
X067088Y020284D01*
X067011Y020361D01*
X067011Y020515D01*
X067165Y020668D01*
X067318Y020745D01*
X059665Y014995D02*
X059665Y014534D01*
X059818Y014534D02*
X059511Y014534D01*
X059281Y014534D02*
X059281Y014995D01*
X059051Y014765D01*
X059358Y014765D01*
X059511Y014841D02*
X059665Y014995D01*
X058898Y014918D02*
X058821Y014995D01*
X058667Y014995D01*
X058591Y014918D01*
X058591Y014841D01*
X058667Y014765D01*
X058821Y014765D01*
X058898Y014688D01*
X058898Y014611D01*
X058821Y014534D01*
X058667Y014534D01*
X058591Y014611D01*
X052568Y013168D02*
X052261Y012861D01*
X052338Y012784D01*
X052492Y012784D01*
X052568Y012861D01*
X052568Y013168D01*
X052492Y013245D01*
X052338Y013245D01*
X052261Y013168D01*
X052261Y012861D01*
X052108Y013015D02*
X051801Y013015D01*
X052031Y013245D01*
X052031Y012784D01*
X051648Y012861D02*
X051571Y012784D01*
X051417Y012784D01*
X051341Y012861D01*
X051417Y013015D02*
X051571Y013015D01*
X051648Y012938D01*
X051648Y012861D01*
X051417Y013015D02*
X051341Y013091D01*
X051341Y013168D01*
X051417Y013245D01*
X051571Y013245D01*
X051648Y013168D01*
X045068Y013168D02*
X044992Y013245D01*
X044838Y013245D01*
X044761Y013168D01*
X044761Y013091D01*
X044838Y013015D01*
X045068Y013015D01*
X045068Y013168D02*
X045068Y012861D01*
X044992Y012784D01*
X044838Y012784D01*
X044761Y012861D01*
X044608Y012861D02*
X044531Y012784D01*
X044378Y012784D01*
X044301Y012861D01*
X044148Y012861D02*
X044071Y012784D01*
X043917Y012784D01*
X043841Y012861D01*
X043917Y013015D02*
X044071Y013015D01*
X044148Y012938D01*
X044148Y012861D01*
X043917Y013015D02*
X043841Y013091D01*
X043841Y013168D01*
X043917Y013245D01*
X044071Y013245D01*
X044148Y013168D01*
X044301Y013168D02*
X044378Y013245D01*
X044531Y013245D01*
X044608Y013168D01*
X044608Y013091D01*
X044531Y013015D01*
X044608Y012938D01*
X044608Y012861D01*
X044531Y013015D02*
X044455Y013015D01*
X038617Y009870D02*
X038386Y009640D01*
X038693Y009640D01*
X038617Y009870D02*
X038617Y009409D01*
X038233Y009640D02*
X037926Y009640D01*
X038156Y009870D01*
X038156Y009409D01*
X037773Y009486D02*
X037696Y009409D01*
X037542Y009409D01*
X037466Y009486D01*
X037542Y009640D02*
X037466Y009716D01*
X037466Y009793D01*
X037542Y009870D01*
X037696Y009870D01*
X037773Y009793D01*
X037696Y009640D02*
X037773Y009563D01*
X037773Y009486D01*
X037696Y009640D02*
X037542Y009640D01*
X036818Y009534D02*
X036818Y009841D01*
X036665Y009995D01*
X036511Y009841D01*
X036511Y009534D01*
X036281Y009534D02*
X036281Y009995D01*
X036051Y009765D01*
X036358Y009765D01*
X036511Y009765D02*
X036818Y009765D01*
X035898Y009765D02*
X035591Y009765D01*
X035821Y009995D01*
X035821Y009534D01*
X035437Y009611D02*
X035360Y009534D01*
X035207Y009534D01*
X035130Y009611D01*
X035207Y009765D02*
X035360Y009765D01*
X035437Y009688D01*
X035437Y009611D01*
X035207Y009765D02*
X035130Y009841D01*
X035130Y009918D01*
X035207Y009995D01*
X035360Y009995D01*
X035437Y009918D01*
X036167Y012534D02*
X036091Y012611D01*
X036167Y012534D02*
X036321Y012534D01*
X036398Y012611D01*
X036398Y012688D01*
X036321Y012765D01*
X036167Y012765D01*
X036091Y012841D01*
X036091Y012918D01*
X036167Y012995D01*
X036321Y012995D01*
X036398Y012918D01*
X036551Y012918D02*
X036628Y012995D01*
X036781Y012995D01*
X036858Y012918D01*
X036858Y012841D01*
X036781Y012765D01*
X036858Y012688D01*
X036858Y012611D01*
X036781Y012534D01*
X036628Y012534D01*
X036551Y012611D01*
X036705Y012765D02*
X036781Y012765D01*
X037011Y012841D02*
X037088Y012765D01*
X037242Y012765D01*
X037318Y012688D01*
X037318Y012611D01*
X037242Y012534D01*
X037088Y012534D01*
X037011Y012611D01*
X037011Y012688D01*
X037088Y012765D01*
X037011Y012841D02*
X037011Y012918D01*
X037088Y012995D01*
X037242Y012995D01*
X037318Y012918D01*
X037318Y012841D01*
X037242Y012765D01*
X032117Y007620D02*
X032193Y007543D01*
X032193Y007466D01*
X032117Y007390D01*
X032193Y007313D01*
X032193Y007236D01*
X032117Y007159D01*
X031963Y007159D01*
X031886Y007236D01*
X031733Y007390D02*
X031426Y007390D01*
X031656Y007620D01*
X031656Y007159D01*
X031273Y007236D02*
X031196Y007159D01*
X031042Y007159D01*
X030966Y007236D01*
X031042Y007390D02*
X031196Y007390D01*
X031273Y007313D01*
X031273Y007236D01*
X031042Y007390D02*
X030966Y007466D01*
X030966Y007543D01*
X031042Y007620D01*
X031196Y007620D01*
X031273Y007543D01*
X031886Y007543D02*
X031963Y007620D01*
X032117Y007620D01*
X032117Y007390D02*
X032040Y007390D01*
X028068Y007284D02*
X027761Y007284D01*
X027608Y007284D02*
X027608Y007591D01*
X027455Y007745D01*
X027301Y007591D01*
X027301Y007284D01*
X027071Y007284D02*
X027071Y007745D01*
X026841Y007515D01*
X027148Y007515D01*
X027301Y007515D02*
X027608Y007515D01*
X027761Y007591D02*
X027915Y007745D01*
X027915Y007284D01*
X026687Y007515D02*
X026380Y007515D01*
X026610Y007745D01*
X026610Y007284D01*
X026227Y007361D02*
X026150Y007284D01*
X025997Y007284D01*
X025920Y007361D01*
X025997Y007515D02*
X026150Y007515D01*
X026227Y007438D01*
X026227Y007361D01*
X025997Y007515D02*
X025920Y007591D01*
X025920Y007668D01*
X025997Y007745D01*
X026150Y007745D01*
X026227Y007668D01*
X027417Y010409D02*
X027341Y010486D01*
X027417Y010409D02*
X027571Y010409D01*
X027648Y010486D01*
X027648Y010563D01*
X027571Y010640D01*
X027417Y010640D01*
X027341Y010716D01*
X027341Y010793D01*
X027417Y010870D01*
X027571Y010870D01*
X027648Y010793D01*
X027801Y010793D02*
X027878Y010870D01*
X028031Y010870D01*
X028108Y010793D01*
X028108Y010716D01*
X028031Y010640D01*
X028108Y010563D01*
X028108Y010486D01*
X028031Y010409D01*
X027878Y010409D01*
X027801Y010486D01*
X027955Y010640D02*
X028031Y010640D01*
X028261Y010486D02*
X028261Y010409D01*
X028261Y010486D02*
X028568Y010793D01*
X028568Y010870D01*
X028261Y010870D01*
X023742Y003995D02*
X023588Y003995D01*
X023511Y003918D01*
X023742Y003995D02*
X023818Y003918D01*
X023818Y003841D01*
X023511Y003534D01*
X023818Y003534D01*
X023358Y003534D02*
X023051Y003534D01*
X023205Y003534D02*
X023205Y003995D01*
X023051Y003841D01*
X022898Y003918D02*
X022821Y003995D01*
X022667Y003995D01*
X022591Y003918D01*
X022591Y003841D01*
X022667Y003765D01*
X022821Y003765D01*
X022898Y003688D01*
X022898Y003611D01*
X022821Y003534D01*
X022667Y003534D01*
X022591Y003611D01*
X016318Y003534D02*
X016011Y003534D01*
X015858Y003534D02*
X015551Y003534D01*
X015705Y003534D02*
X015705Y003995D01*
X015551Y003841D01*
X015398Y003918D02*
X015321Y003995D01*
X015167Y003995D01*
X015091Y003918D01*
X015091Y003841D01*
X015167Y003765D01*
X015321Y003765D01*
X015398Y003688D01*
X015398Y003611D01*
X015321Y003534D01*
X015167Y003534D01*
X015091Y003611D01*
X016011Y003841D02*
X016165Y003995D01*
X016165Y003534D01*
X016088Y011034D02*
X016242Y011034D01*
X016318Y011111D01*
X016318Y011418D01*
X016242Y011495D01*
X016088Y011495D01*
X016011Y011418D01*
X016011Y011341D01*
X016088Y011265D01*
X016318Y011265D01*
X016088Y011034D02*
X016011Y011111D01*
X015858Y011111D02*
X015781Y011034D01*
X015628Y011034D01*
X015551Y011111D01*
X015628Y011265D02*
X015781Y011265D01*
X015858Y011188D01*
X015858Y011111D01*
X015628Y011265D02*
X015551Y011341D01*
X015551Y011418D01*
X015628Y011495D01*
X015781Y011495D01*
X015858Y011418D01*
X005693Y007293D02*
X005386Y006986D01*
X005463Y006909D01*
X005617Y006909D01*
X005693Y006986D01*
X005693Y007293D01*
X005617Y007370D01*
X005463Y007370D01*
X005386Y007293D01*
X005386Y006986D01*
X005233Y006909D02*
X004926Y006909D01*
X005080Y006909D02*
X005080Y007370D01*
X004926Y007216D01*
X004773Y007293D02*
X004696Y007370D01*
X004542Y007370D01*
X004466Y007293D01*
X004466Y007216D01*
X004542Y007140D01*
X004696Y007140D01*
X004773Y007063D01*
X004773Y006986D01*
X004696Y006909D01*
X004542Y006909D01*
X004466Y006986D01*
X004511Y023034D02*
X004511Y023111D01*
X004818Y023418D01*
X004818Y023495D01*
X004511Y023495D01*
X004358Y023418D02*
X004281Y023495D01*
X004128Y023495D01*
X004051Y023418D01*
X004051Y023341D01*
X004128Y023265D01*
X004281Y023265D01*
X004358Y023188D01*
X004358Y023111D01*
X004281Y023034D01*
X004128Y023034D01*
X004051Y023111D01*
X011051Y025111D02*
X011128Y025034D01*
X011281Y025034D01*
X011358Y025111D01*
X011358Y025188D01*
X011281Y025265D01*
X011128Y025265D01*
X011051Y025341D01*
X011051Y025418D01*
X011128Y025495D01*
X011281Y025495D01*
X011358Y025418D01*
X011511Y025418D02*
X011511Y025341D01*
X011588Y025265D01*
X011742Y025265D01*
X011818Y025188D01*
X011818Y025111D01*
X011742Y025034D01*
X011588Y025034D01*
X011511Y025111D01*
X011511Y025188D01*
X011588Y025265D01*
X011742Y025265D02*
X011818Y025341D01*
X011818Y025418D01*
X011742Y025495D01*
X011588Y025495D01*
X011511Y025418D01*
X004318Y030611D02*
X004242Y030534D01*
X004088Y030534D01*
X004011Y030611D01*
X003858Y030611D02*
X003781Y030534D01*
X003628Y030534D01*
X003551Y030611D01*
X003628Y030765D02*
X003781Y030765D01*
X003858Y030688D01*
X003858Y030611D01*
X004011Y030765D02*
X004165Y030841D01*
X004242Y030841D01*
X004318Y030765D01*
X004318Y030611D01*
X004011Y030765D02*
X004011Y030995D01*
X004318Y030995D01*
X003858Y030918D02*
X003781Y030995D01*
X003628Y030995D01*
X003551Y030918D01*
X003551Y030841D01*
X003628Y030765D01*
X011301Y032611D02*
X011378Y032534D01*
X011531Y032534D01*
X011608Y032611D01*
X011608Y032688D01*
X011531Y032765D01*
X011378Y032765D01*
X011301Y032841D01*
X011301Y032918D01*
X011378Y032995D01*
X011531Y032995D01*
X011608Y032918D01*
X011761Y032765D02*
X011992Y032765D01*
X012068Y032688D01*
X012068Y032611D01*
X011992Y032534D01*
X011838Y032534D01*
X011761Y032611D01*
X011761Y032765D01*
X011915Y032918D01*
X012068Y032995D01*
X012299Y040034D02*
X012222Y040111D01*
X012299Y040034D02*
X012452Y040034D01*
X012529Y040111D01*
X012529Y040188D01*
X012452Y040265D01*
X012299Y040265D01*
X012222Y040341D01*
X012222Y040418D01*
X012299Y040495D01*
X012452Y040495D01*
X012529Y040418D01*
X012682Y040265D02*
X012989Y040265D01*
X012912Y040495D02*
X012682Y040265D01*
X012912Y040034D02*
X012912Y040495D01*
X012068Y045784D02*
X011761Y045784D01*
X012068Y046091D01*
X012068Y046168D01*
X011992Y046245D01*
X011838Y046245D01*
X011761Y046168D01*
X011608Y046168D02*
X011531Y046245D01*
X011378Y046245D01*
X011301Y046168D01*
X011301Y046091D01*
X011378Y046015D01*
X011531Y046015D01*
X011608Y045938D01*
X011608Y045861D01*
X011531Y045784D01*
X011378Y045784D01*
X011301Y045861D01*
X004318Y047534D02*
X004011Y047534D01*
X004165Y047534D02*
X004165Y047995D01*
X004011Y047841D01*
X003858Y047918D02*
X003781Y047995D01*
X003628Y047995D01*
X003551Y047918D01*
X003551Y047841D01*
X003628Y047765D01*
X003781Y047765D01*
X003858Y047688D01*
X003858Y047611D01*
X003781Y047534D01*
X003628Y047534D01*
X003551Y047611D01*
X004128Y040370D02*
X004051Y040293D01*
X004051Y040216D01*
X004128Y040140D01*
X004281Y040140D01*
X004358Y040063D01*
X004358Y039986D01*
X004281Y039909D01*
X004128Y039909D01*
X004051Y039986D01*
X004128Y040370D02*
X004281Y040370D01*
X004358Y040293D01*
X004511Y040293D02*
X004588Y040370D01*
X004742Y040370D01*
X004818Y040293D01*
X004818Y040216D01*
X004742Y040140D01*
X004818Y040063D01*
X004818Y039986D01*
X004742Y039909D01*
X004588Y039909D01*
X004511Y039986D01*
X004665Y040140D02*
X004742Y040140D01*
X029591Y018918D02*
X029591Y018841D01*
X029667Y018765D01*
X029821Y018765D01*
X029898Y018688D01*
X029898Y018611D01*
X029821Y018534D01*
X029667Y018534D01*
X029591Y018611D01*
X029591Y018918D02*
X029667Y018995D01*
X029821Y018995D01*
X029898Y018918D01*
X030051Y018918D02*
X030128Y018995D01*
X030281Y018995D01*
X030358Y018918D01*
X030358Y018841D01*
X030281Y018765D01*
X030358Y018688D01*
X030358Y018611D01*
X030281Y018534D01*
X030128Y018534D01*
X030051Y018611D01*
X030205Y018765D02*
X030281Y018765D01*
X030511Y018841D02*
X030665Y018995D01*
X030665Y018534D01*
X030818Y018534D02*
X030511Y018534D01*
X036091Y020111D02*
X036167Y020034D01*
X036321Y020034D01*
X036398Y020111D01*
X036398Y020188D01*
X036321Y020265D01*
X036167Y020265D01*
X036091Y020341D01*
X036091Y020418D01*
X036167Y020495D01*
X036321Y020495D01*
X036398Y020418D01*
X036551Y020418D02*
X036628Y020495D01*
X036781Y020495D01*
X036858Y020418D01*
X036858Y020341D01*
X036781Y020265D01*
X036858Y020188D01*
X036858Y020111D01*
X036781Y020034D01*
X036628Y020034D01*
X036551Y020111D01*
X036705Y020265D02*
X036781Y020265D01*
X037011Y020418D02*
X037088Y020495D01*
X037242Y020495D01*
X037318Y020418D01*
X037318Y020341D01*
X037011Y020034D01*
X037318Y020034D01*
X043591Y020111D02*
X043667Y020034D01*
X043821Y020034D01*
X043898Y020111D01*
X043898Y020188D01*
X043821Y020265D01*
X043667Y020265D01*
X043591Y020341D01*
X043591Y020418D01*
X043667Y020495D01*
X043821Y020495D01*
X043898Y020418D01*
X044051Y020418D02*
X044128Y020495D01*
X044281Y020495D01*
X044358Y020418D01*
X044358Y020341D01*
X044281Y020265D01*
X044358Y020188D01*
X044358Y020111D01*
X044281Y020034D01*
X044128Y020034D01*
X044051Y020111D01*
X044205Y020265D02*
X044281Y020265D01*
X044511Y020418D02*
X044588Y020495D01*
X044742Y020495D01*
X044818Y020418D01*
X044818Y020341D01*
X044742Y020265D01*
X044818Y020188D01*
X044818Y020111D01*
X044742Y020034D01*
X044588Y020034D01*
X044511Y020111D01*
X044665Y020265D02*
X044742Y020265D01*
X043818Y007370D02*
X043511Y007370D01*
X043511Y007140D01*
X043665Y007216D01*
X043742Y007216D01*
X043818Y007140D01*
X043818Y006986D01*
X043742Y006909D01*
X043588Y006909D01*
X043511Y006986D01*
X043358Y007140D02*
X043051Y007140D01*
X043281Y007370D01*
X043281Y006909D01*
X042898Y006986D02*
X042821Y006909D01*
X042667Y006909D01*
X042591Y006986D01*
X042667Y007140D02*
X042821Y007140D01*
X042898Y007063D01*
X042898Y006986D01*
X042667Y007140D02*
X042591Y007216D01*
X042591Y007293D01*
X042667Y007370D01*
X042821Y007370D01*
X042898Y007293D01*
X060091Y004543D02*
X060091Y004466D01*
X060167Y004390D01*
X060321Y004390D01*
X060398Y004313D01*
X060398Y004236D01*
X060321Y004159D01*
X060167Y004159D01*
X060091Y004236D01*
X060091Y004543D02*
X060167Y004620D01*
X060321Y004620D01*
X060398Y004543D01*
X060551Y004390D02*
X060858Y004390D01*
X061011Y004390D02*
X061242Y004390D01*
X061318Y004313D01*
X061318Y004236D01*
X061242Y004159D01*
X061088Y004159D01*
X061011Y004236D01*
X061011Y004390D01*
X061165Y004543D01*
X061318Y004620D01*
X060781Y004620D02*
X060551Y004390D01*
X060781Y004159D02*
X060781Y004620D01*
X066167Y012784D02*
X066091Y012861D01*
X066167Y012784D02*
X066321Y012784D01*
X066398Y012861D01*
X066398Y012938D01*
X066321Y013015D01*
X066167Y013015D01*
X066091Y013091D01*
X066091Y013168D01*
X066167Y013245D01*
X066321Y013245D01*
X066398Y013168D01*
X066551Y013015D02*
X066858Y013015D01*
X067011Y013168D02*
X067088Y013245D01*
X067242Y013245D01*
X067318Y013168D01*
X067318Y013091D01*
X067011Y012784D01*
X067318Y012784D01*
X066781Y012784D02*
X066781Y013245D01*
X066551Y013015D01*
D15*
X009995Y009933D02*
X002909Y002846D01*
X009995Y002846D01*
X002909Y009933D01*
X009995Y009933D01*
X009995Y002846D01*
X010409Y002846D02*
X017495Y009933D01*
X010409Y009933D01*
X017495Y002846D01*
X017495Y009933D01*
X017495Y010346D02*
X010409Y017433D01*
X017495Y017433D01*
X010409Y010346D01*
X017495Y010346D01*
X017495Y017433D01*
X020418Y017433D02*
X034985Y010346D01*
X034985Y017433D01*
X020418Y010346D01*
X034985Y010346D01*
X035409Y010346D02*
X042495Y017433D01*
X042495Y010346D01*
X035409Y017433D01*
X035409Y010346D01*
X042495Y010346D01*
X042909Y010346D02*
X049995Y017433D01*
X042909Y017433D01*
X049995Y010346D01*
X049995Y017433D01*
X049995Y017846D02*
X042909Y024933D01*
X049995Y024933D01*
X042909Y017846D01*
X049995Y017846D01*
X049995Y024933D01*
X049995Y025346D02*
X042909Y032433D01*
X049995Y032433D01*
X042909Y025346D01*
X049995Y025346D01*
X049995Y032433D01*
X049995Y032846D02*
X042909Y039933D01*
X049995Y039933D01*
X042909Y032846D01*
X049995Y032846D01*
X049995Y039933D01*
X050409Y039933D02*
X057495Y032846D01*
X057495Y039933D01*
X050409Y032846D01*
X057495Y032846D01*
X057495Y032433D02*
X050409Y025346D01*
X057495Y025346D01*
X050409Y032433D01*
X050409Y025346D01*
X050409Y024933D02*
X057495Y017846D01*
X057495Y024933D01*
X050409Y017846D01*
X057495Y017846D01*
X057495Y017433D02*
X050409Y010346D01*
X057495Y010346D01*
X050409Y017433D01*
X050409Y010346D01*
X049995Y010346D02*
X042909Y010346D01*
X042909Y017433D01*
X042909Y017846D02*
X042909Y024933D01*
X042909Y025346D02*
X042909Y032433D01*
X042909Y032846D02*
X042909Y039933D01*
X042495Y039933D02*
X035409Y032846D01*
X042495Y032846D01*
X035409Y039933D01*
X035409Y032846D01*
X035409Y032433D02*
X042495Y025346D01*
X042495Y032433D01*
X035409Y025346D01*
X042495Y025346D01*
X042495Y024933D02*
X035409Y017846D01*
X042495Y017846D01*
X035409Y024933D01*
X035409Y017846D01*
X035409Y017433D02*
X042495Y017433D01*
X042495Y017846D02*
X042495Y024933D01*
X035409Y024933D01*
X035409Y025346D02*
X035409Y032433D01*
X042495Y032433D01*
X042495Y032846D02*
X042495Y039933D01*
X035409Y039933D01*
X034995Y039933D02*
X027909Y032846D01*
X034995Y032846D01*
X027909Y039933D01*
X027909Y032846D01*
X027495Y032846D02*
X020409Y039933D01*
X020409Y032846D01*
X027495Y039933D01*
X027495Y032846D01*
X020409Y032846D01*
X017495Y035433D02*
X010409Y028346D01*
X017495Y028346D01*
X010409Y035433D01*
X010409Y028346D01*
X010409Y027933D02*
X017495Y020846D01*
X017495Y027933D01*
X010409Y020846D01*
X017495Y020846D01*
X020418Y017433D02*
X020418Y010346D01*
X017909Y009933D02*
X024995Y002846D01*
X024995Y009933D01*
X017909Y002846D01*
X024995Y002846D01*
X025534Y002846D02*
X032620Y009933D01*
X025534Y009933D01*
X032620Y002846D01*
X025534Y002846D01*
X025534Y009933D01*
X025549Y009933D02*
X034604Y002846D01*
X034604Y009933D01*
X025549Y002846D01*
X034604Y002846D01*
X033034Y002846D02*
X040120Y009933D01*
X033034Y009933D01*
X040120Y002846D01*
X033034Y002846D01*
X033034Y009933D01*
X032620Y009933D02*
X032620Y002846D01*
X031049Y002846D02*
X040104Y009933D01*
X040104Y002846D01*
X031049Y009933D01*
X031049Y002846D01*
X040104Y002846D01*
X040120Y002846D02*
X040120Y009933D01*
X040104Y009933D02*
X031049Y009933D01*
X034604Y009933D02*
X025549Y009933D01*
X025549Y002846D01*
X017909Y002846D02*
X017909Y009933D01*
X024995Y009933D01*
X021956Y017846D02*
X034948Y024933D01*
X034948Y017846D01*
X021956Y024933D01*
X021956Y017846D01*
X034948Y017846D01*
X034985Y017433D02*
X020418Y017433D01*
X021956Y024933D02*
X034948Y024933D01*
X034964Y025346D02*
X023940Y032433D01*
X023940Y025346D01*
X034964Y032433D01*
X034964Y025346D01*
X023940Y025346D01*
X017495Y027933D02*
X010409Y027933D01*
X010409Y020846D01*
X009995Y020846D02*
X002909Y027933D01*
X002909Y020846D01*
X009995Y027933D01*
X009995Y020846D01*
X002909Y020846D01*
X010409Y017433D02*
X010409Y010346D01*
X010409Y009933D02*
X010409Y002846D01*
X017495Y002846D01*
X002909Y002846D02*
X002909Y009933D01*
X002909Y027933D02*
X009995Y027933D01*
X009995Y028346D02*
X002909Y035433D01*
X002909Y028346D01*
X009995Y035433D01*
X009995Y028346D01*
X002909Y028346D01*
X002909Y035433D02*
X009995Y035433D01*
X009995Y035846D02*
X002909Y042933D01*
X002909Y035846D01*
X009995Y042933D01*
X009995Y035846D01*
X002909Y035846D01*
X010409Y035846D02*
X017495Y042933D01*
X017495Y035846D01*
X010409Y042933D01*
X010409Y035846D01*
X017495Y035846D01*
X017495Y035433D02*
X017495Y028346D01*
X023940Y032433D02*
X034964Y032433D01*
X034995Y032846D02*
X034995Y039933D01*
X027909Y039933D01*
X027495Y039933D02*
X020409Y039933D01*
X017495Y042933D02*
X010409Y042933D01*
X010409Y043346D02*
X017495Y050433D01*
X017495Y043346D01*
X010409Y050433D01*
X010409Y043346D01*
X017495Y043346D01*
X009995Y043346D02*
X002909Y050433D01*
X002909Y043346D01*
X009995Y050433D01*
X009995Y043346D01*
X002909Y043346D01*
X002909Y042933D02*
X009995Y042933D01*
X009995Y050433D02*
X002909Y050433D01*
X010409Y050433D02*
X017495Y050433D01*
X024909Y050433D02*
X031995Y043346D01*
X031995Y050433D01*
X024909Y043346D01*
X031995Y043346D01*
X032409Y043346D02*
X039495Y050433D01*
X039495Y043346D01*
X032409Y050433D01*
X032409Y043346D01*
X039495Y043346D01*
X039909Y043346D02*
X046995Y050433D01*
X046995Y043346D01*
X039909Y050433D01*
X039909Y043346D01*
X046995Y043346D01*
X047409Y043346D02*
X054495Y050433D01*
X054495Y043346D01*
X047409Y050433D01*
X047409Y043346D01*
X054495Y043346D01*
X057909Y043346D02*
X064995Y050433D01*
X064995Y043346D01*
X057909Y050433D01*
X057909Y043346D01*
X064995Y043346D01*
X065409Y043346D02*
X072495Y050433D01*
X072495Y043346D01*
X065409Y050433D01*
X065409Y043346D01*
X072495Y043346D01*
X072495Y039933D02*
X065409Y032846D01*
X072495Y032846D01*
X065409Y039933D01*
X065409Y032846D01*
X065409Y032433D02*
X072495Y025346D01*
X072495Y032433D01*
X065409Y025346D01*
X072495Y025346D01*
X072495Y024933D02*
X065409Y017846D01*
X072495Y017846D01*
X065409Y024933D01*
X065409Y017846D01*
X065409Y017433D02*
X072495Y010346D01*
X072495Y017433D01*
X065409Y010346D01*
X072495Y010346D01*
X070438Y009933D02*
X049966Y002846D01*
X070438Y002846D01*
X049966Y009933D01*
X049966Y002846D01*
X049604Y002846D02*
X040549Y009933D01*
X040549Y002846D01*
X049604Y009933D01*
X049604Y002846D01*
X040549Y002846D01*
X040549Y009933D02*
X049604Y009933D01*
X049966Y009933D02*
X070438Y009933D01*
X070438Y002846D01*
X065409Y010346D02*
X065409Y017433D01*
X072495Y017433D01*
X072495Y017846D02*
X072495Y024933D01*
X065409Y024933D01*
X065409Y025346D02*
X065409Y032433D01*
X072495Y032433D01*
X072495Y032846D02*
X072495Y039933D01*
X065409Y039933D01*
X064995Y039933D02*
X057909Y032846D01*
X064995Y032846D01*
X057909Y039933D01*
X057909Y032846D01*
X057909Y032433D02*
X064995Y025346D01*
X064995Y032433D01*
X057909Y025346D01*
X064995Y025346D01*
X064995Y024933D02*
X057909Y017846D01*
X064995Y017846D01*
X057909Y024933D01*
X057909Y017846D01*
X057909Y017433D02*
X064995Y010346D01*
X064995Y017433D01*
X057909Y010346D01*
X064995Y010346D01*
X057909Y010346D02*
X057909Y017433D01*
X064995Y017433D01*
X064995Y017846D02*
X064995Y024933D01*
X057909Y024933D01*
X057909Y025346D02*
X057909Y032433D01*
X064995Y032433D01*
X064995Y032846D02*
X064995Y039933D01*
X057909Y039933D01*
X057495Y039933D02*
X050409Y039933D01*
X050409Y032846D01*
X050409Y032433D02*
X057495Y032433D01*
X057495Y025346D01*
X057495Y024933D02*
X050409Y024933D01*
X050409Y017846D01*
X050409Y017433D02*
X057495Y017433D01*
X057495Y010346D01*
X017495Y035433D02*
X010409Y035433D01*
X024909Y043346D02*
X024909Y050433D01*
X031995Y050433D01*
X032409Y050433D02*
X039495Y050433D01*
X039909Y050433D02*
X046995Y050433D01*
X047409Y050433D02*
X054495Y050433D01*
X057909Y050433D02*
X064995Y050433D01*
X065409Y050433D02*
X072495Y050433D01*
D16*
X068142Y041989D02*
X068142Y041280D01*
X067512Y041280D02*
X067512Y041989D01*
X060952Y042789D02*
X060952Y040489D01*
X052952Y040489D01*
X052952Y041239D01*
X052991Y041241D01*
X053030Y041247D01*
X053068Y041256D01*
X053105Y041269D01*
X053141Y041286D01*
X053174Y041306D01*
X053206Y041330D01*
X053235Y041356D01*
X053261Y041385D01*
X053285Y041417D01*
X053305Y041450D01*
X053322Y041486D01*
X053335Y041523D01*
X053344Y041561D01*
X053350Y041600D01*
X053352Y041639D01*
X053350Y041678D01*
X053344Y041717D01*
X053335Y041755D01*
X053322Y041792D01*
X053305Y041828D01*
X053285Y041861D01*
X053261Y041893D01*
X053235Y041922D01*
X053206Y041948D01*
X053174Y041972D01*
X053141Y041992D01*
X053105Y042009D01*
X053068Y042022D01*
X053030Y042031D01*
X052991Y042037D01*
X052952Y042039D01*
X052952Y042789D01*
X060952Y042789D01*
X057642Y047030D02*
X057642Y047739D01*
X057012Y047739D02*
X057012Y047030D01*
X056517Y047030D02*
X056517Y047739D01*
X055887Y047739D02*
X055887Y047030D01*
X055392Y047030D02*
X055392Y047739D01*
X054762Y047739D02*
X054762Y047030D01*
X051686Y043204D02*
X050977Y043204D01*
X050977Y042574D02*
X051686Y042574D01*
X051676Y042329D02*
X050967Y042329D01*
X050967Y041699D02*
X051676Y041699D01*
X051467Y041329D02*
X052176Y041329D01*
X052176Y040699D02*
X051467Y040699D01*
X051467Y040454D02*
X052176Y040454D01*
X052176Y039824D02*
X051467Y039824D01*
X055137Y033749D02*
X055137Y033040D01*
X055767Y033040D02*
X055767Y033749D01*
X055642Y025989D02*
X055642Y025280D01*
X055012Y025280D02*
X055012Y025989D01*
X048267Y025989D02*
X048267Y025280D01*
X047637Y025280D02*
X047637Y025989D01*
X040767Y025989D02*
X040767Y025280D01*
X040137Y025280D02*
X040137Y025989D01*
X032267Y025989D02*
X032267Y025280D01*
X031637Y025280D02*
X031637Y025989D01*
X032512Y033040D02*
X032512Y033749D01*
X033142Y033749D02*
X033142Y033040D01*
X029142Y033040D02*
X029142Y033749D01*
X028512Y033749D02*
X028512Y033040D01*
X028017Y033030D02*
X028017Y033739D01*
X027387Y033739D02*
X027387Y033030D01*
X020639Y032952D02*
X020639Y033852D01*
X020539Y033952D01*
X020639Y034052D01*
X020639Y034852D01*
X020539Y034952D01*
X020639Y035052D01*
X020639Y035852D01*
X020539Y035952D01*
X020639Y036052D01*
X020639Y036852D01*
X020539Y036952D01*
X020639Y037052D01*
X020639Y037852D01*
X020539Y037952D01*
X020639Y038052D01*
X020639Y038852D01*
X020539Y038952D01*
X020639Y039052D01*
X020639Y039852D01*
X020539Y039952D01*
X020639Y040052D01*
X020639Y040952D01*
X019639Y040952D01*
X019639Y040052D01*
X019739Y039952D01*
X019639Y039852D01*
X019639Y039052D01*
X019739Y038952D01*
X019639Y038852D01*
X019639Y038052D01*
X019739Y037952D01*
X019639Y037852D01*
X019639Y037052D01*
X019739Y036952D01*
X019639Y036852D01*
X019639Y036052D01*
X019739Y035952D01*
X019639Y035852D01*
X019639Y035052D01*
X019739Y034952D01*
X019639Y034852D01*
X019639Y034052D01*
X019739Y033952D01*
X019639Y033852D01*
X019639Y032952D01*
X020639Y032952D01*
X020339Y033252D02*
X020339Y033352D01*
X020439Y033352D01*
X020439Y033552D01*
X020339Y033552D01*
X020339Y033652D01*
X019939Y033652D01*
X019939Y033552D01*
X019839Y033552D01*
X019839Y033352D01*
X019939Y033352D01*
X019939Y033252D01*
X020339Y033252D01*
X020339Y034252D02*
X020339Y034352D01*
X020439Y034352D01*
X020439Y034552D01*
X020339Y034552D01*
X020339Y034652D01*
X019939Y034652D01*
X019939Y034552D01*
X019839Y034552D01*
X019839Y034352D01*
X019939Y034352D01*
X019939Y034252D01*
X020339Y034252D01*
X020339Y035252D02*
X020339Y035352D01*
X020439Y035352D01*
X020439Y035552D01*
X020339Y035552D01*
X020339Y035652D01*
X019939Y035652D01*
X019939Y035552D01*
X019839Y035552D01*
X019839Y035352D01*
X019939Y035352D01*
X019939Y035252D01*
X020339Y035252D01*
X020339Y036252D02*
X020339Y036352D01*
X020439Y036352D01*
X020439Y036552D01*
X020339Y036552D01*
X020339Y036652D01*
X019939Y036652D01*
X019939Y036552D01*
X019839Y036552D01*
X019839Y036352D01*
X019939Y036352D01*
X019939Y036252D01*
X020339Y036252D01*
X020339Y037252D02*
X020339Y037352D01*
X020439Y037352D01*
X020439Y037552D01*
X020339Y037552D01*
X020339Y037652D01*
X019939Y037652D01*
X019939Y037552D01*
X019839Y037552D01*
X019839Y037352D01*
X019939Y037352D01*
X019939Y037252D01*
X020339Y037252D01*
X020339Y038252D02*
X020339Y038352D01*
X020439Y038352D01*
X020439Y038552D01*
X020339Y038552D01*
X020339Y038652D01*
X019939Y038652D01*
X019939Y038552D01*
X019839Y038552D01*
X019839Y038352D01*
X019939Y038352D01*
X019939Y038252D01*
X020339Y038252D01*
X020339Y039252D02*
X020339Y039352D01*
X020439Y039352D01*
X020439Y039552D01*
X020339Y039552D01*
X020339Y039652D01*
X019939Y039652D01*
X019939Y039552D01*
X019839Y039552D01*
X019839Y039352D01*
X019939Y039352D01*
X019939Y039252D01*
X020339Y039252D01*
X020339Y040252D02*
X020339Y040352D01*
X020439Y040352D01*
X020439Y040552D01*
X020339Y040552D01*
X020339Y040652D01*
X019939Y040652D01*
X019939Y040552D01*
X019839Y040552D01*
X019839Y040352D01*
X019939Y040352D01*
X019939Y040252D01*
X020339Y040252D01*
X016554Y043358D02*
X016052Y043859D01*
X015607Y043414D02*
X016108Y042912D01*
X017637Y044040D02*
X017637Y044749D01*
X018267Y044749D02*
X018267Y044040D01*
X024639Y042852D02*
X024639Y042052D01*
X024739Y041952D01*
X024639Y041852D01*
X024639Y041052D01*
X024739Y040952D01*
X024639Y040852D01*
X024639Y039952D01*
X025639Y039952D01*
X025639Y040852D01*
X025539Y040952D01*
X025639Y041052D01*
X025639Y041852D01*
X025539Y041952D01*
X025639Y042052D01*
X025639Y042852D01*
X025539Y042952D01*
X025514Y042952D02*
X024764Y042952D01*
X024739Y042952D02*
X024639Y042852D01*
X024839Y042552D02*
X024839Y042352D01*
X024939Y042352D01*
X024939Y042252D01*
X025339Y042252D01*
X025339Y042352D01*
X025439Y042352D01*
X025439Y042552D01*
X025339Y042552D01*
X025339Y042652D01*
X024939Y042652D01*
X024939Y042552D01*
X024839Y042552D01*
X024939Y041652D02*
X024939Y041552D01*
X024839Y041552D01*
X024839Y041352D01*
X024939Y041352D01*
X024939Y041252D01*
X025339Y041252D01*
X025339Y041352D01*
X025439Y041352D01*
X025439Y041552D01*
X025339Y041552D01*
X025339Y041652D01*
X024939Y041652D01*
X024939Y040652D02*
X024939Y040552D01*
X024839Y040552D01*
X024839Y040352D01*
X024939Y040352D01*
X024939Y040252D01*
X025339Y040252D01*
X025339Y040352D01*
X025439Y040352D01*
X025439Y040552D01*
X025339Y040552D01*
X025339Y040652D01*
X024939Y040652D01*
X028717Y040699D02*
X029426Y040699D01*
X029426Y040329D02*
X028717Y040329D01*
X028717Y039699D02*
X029426Y039699D01*
X029426Y041329D02*
X028717Y041329D01*
X028717Y041699D02*
X029426Y041699D01*
X029426Y042329D02*
X028717Y042329D01*
X036217Y041829D02*
X036926Y041829D01*
X036926Y041199D02*
X036217Y041199D01*
X036217Y040954D02*
X036926Y040954D01*
X036926Y040324D02*
X036217Y040324D01*
X036217Y040079D02*
X036926Y040079D01*
X036926Y039449D02*
X036217Y039449D01*
X042592Y039199D02*
X043301Y039199D01*
X043301Y039829D02*
X042592Y039829D01*
X042592Y040199D02*
X043301Y040199D01*
X043301Y040829D02*
X042592Y040829D01*
X042592Y041199D02*
X043301Y041199D01*
X043301Y041829D02*
X042592Y041829D01*
X042602Y042199D02*
X043311Y042199D01*
X043311Y042829D02*
X042602Y042829D01*
X042762Y035624D02*
X042762Y034915D01*
X043392Y034915D02*
X043392Y035624D01*
X025642Y048540D02*
X025642Y049249D01*
X025012Y049249D02*
X025012Y048540D01*
X010642Y045999D02*
X010642Y045290D01*
X010012Y045290D02*
X010012Y045999D01*
X010267Y038374D02*
X010267Y037665D01*
X009637Y037665D02*
X009637Y038374D01*
X007547Y035990D02*
X007045Y036491D01*
X006600Y036046D02*
X007101Y035544D01*
X003936Y030829D02*
X003227Y030829D01*
X003227Y030199D02*
X003936Y030199D01*
X003852Y029079D02*
X004561Y029079D01*
X004561Y028449D02*
X003852Y028449D01*
X003842Y028204D02*
X004551Y028204D01*
X004551Y027574D02*
X003842Y027574D01*
X007512Y028280D02*
X007512Y028989D01*
X008142Y028989D02*
X008142Y028280D01*
X016262Y028239D02*
X016262Y027530D01*
X016892Y027530D02*
X016892Y028239D01*
X017842Y022579D02*
X018551Y022579D01*
X018551Y021949D02*
X017842Y021949D01*
X017842Y021579D02*
X018551Y021579D01*
X018551Y020949D02*
X017842Y020949D01*
X017842Y020579D02*
X018551Y020579D01*
X018551Y019949D02*
X017842Y019949D01*
X017842Y019579D02*
X018551Y019579D01*
X018551Y018949D02*
X017842Y018949D01*
X017842Y018579D02*
X018551Y018579D01*
X018551Y017949D02*
X017842Y017949D01*
X016051Y017824D02*
X015342Y017824D01*
X015342Y018454D02*
X016051Y018454D01*
X016051Y018699D02*
X015342Y018699D01*
X015342Y019329D02*
X016051Y019329D01*
X016051Y019574D02*
X015342Y019574D01*
X015342Y020204D02*
X016051Y020204D01*
X016051Y020449D02*
X015342Y020449D01*
X015342Y021079D02*
X016051Y021079D01*
X016051Y021324D02*
X015342Y021324D01*
X015342Y021954D02*
X016051Y021954D01*
X008602Y018139D02*
X006302Y018139D01*
X006302Y011139D01*
X007052Y011139D01*
X007054Y011178D01*
X007060Y011217D01*
X007069Y011255D01*
X007082Y011292D01*
X007099Y011328D01*
X007119Y011361D01*
X007143Y011393D01*
X007169Y011422D01*
X007198Y011448D01*
X007230Y011472D01*
X007263Y011492D01*
X007299Y011509D01*
X007336Y011522D01*
X007374Y011531D01*
X007413Y011537D01*
X007452Y011539D01*
X007491Y011537D01*
X007530Y011531D01*
X007568Y011522D01*
X007605Y011509D01*
X007641Y011492D01*
X007674Y011472D01*
X007706Y011448D01*
X007735Y011422D01*
X007761Y011393D01*
X007785Y011361D01*
X007805Y011328D01*
X007822Y011292D01*
X007835Y011255D01*
X007844Y011217D01*
X007850Y011178D01*
X007852Y011139D01*
X008602Y011139D01*
X008602Y018139D01*
X006892Y020155D02*
X006892Y020864D01*
X006262Y020864D02*
X006262Y020155D01*
X009762Y007489D02*
X009762Y006780D01*
X010392Y006780D02*
X010392Y007489D01*
X031887Y018030D02*
X031887Y018739D01*
X032517Y018739D02*
X032517Y018030D01*
X040387Y018030D02*
X040387Y018739D01*
X041017Y018739D02*
X041017Y018030D01*
X047887Y018030D02*
X047887Y018739D01*
X048517Y018739D02*
X048517Y018030D01*
X055262Y018040D02*
X055262Y018749D01*
X055892Y018749D02*
X055892Y018040D01*
X062887Y018040D02*
X062887Y018749D01*
X063517Y018749D02*
X063517Y018040D01*
X063267Y025280D02*
X063267Y025989D01*
X062637Y025989D02*
X062637Y025280D01*
X014517Y035540D02*
X014517Y036249D01*
X013887Y036249D02*
X013887Y035540D01*
D17*
X014201Y035392D03*
X014201Y036392D03*
X009951Y037517D03*
X009951Y038517D03*
X010326Y045142D03*
X010326Y046142D03*
X017951Y044892D03*
X017951Y043892D03*
X025326Y048392D03*
X025326Y049392D03*
X043076Y035767D03*
X043076Y034767D03*
X032826Y033892D03*
X032826Y032892D03*
X028826Y032892D03*
X027702Y032887D03*
X027702Y033887D03*
X028826Y033892D03*
X031952Y026137D03*
X031952Y025137D03*
X032202Y018887D03*
X032202Y017887D03*
X040702Y017887D03*
X040702Y018887D03*
X048202Y018887D03*
X048202Y017887D03*
X055576Y017892D03*
X055576Y018892D03*
X063201Y018892D03*
X063201Y017892D03*
X062952Y025137D03*
X062952Y026137D03*
X055327Y026137D03*
X055327Y025137D03*
X047952Y025137D03*
X047952Y026137D03*
X040452Y026137D03*
X040452Y025137D03*
X055451Y032892D03*
X055451Y033892D03*
X067827Y041137D03*
X067827Y042137D03*
X057327Y046887D03*
X056202Y046887D03*
X056202Y047887D03*
X057327Y047887D03*
X055077Y047887D03*
X055077Y046887D03*
X016577Y028387D03*
X016577Y027387D03*
X007827Y028137D03*
X007827Y029137D03*
X006577Y021012D03*
X006577Y020012D03*
X010077Y007637D03*
X010077Y006637D03*
D18*
X015200Y018139D03*
X015200Y019014D03*
X015200Y019889D03*
X015200Y020764D03*
X015200Y021639D03*
X016200Y021639D03*
X016200Y020764D03*
X016200Y019889D03*
X016200Y019014D03*
X016200Y018139D03*
X017700Y018264D03*
X018700Y018264D03*
X018700Y019264D03*
X018700Y020264D03*
X017700Y020264D03*
X017700Y019264D03*
X017700Y021264D03*
X018700Y021264D03*
X018700Y022264D03*
X017700Y022264D03*
X004700Y027889D03*
X004704Y028765D03*
X003704Y028765D03*
X003700Y027889D03*
X004079Y030515D03*
X003079Y030515D03*
G36*
X007289Y035315D02*
X007081Y035523D01*
X007567Y036009D01*
X007775Y035801D01*
X007289Y035315D01*
G37*
G36*
X006582Y036022D02*
X006374Y036230D01*
X006860Y036716D01*
X007068Y036508D01*
X006582Y036022D01*
G37*
G36*
X015864Y044089D02*
X016072Y043881D01*
X015586Y043395D01*
X015378Y043603D01*
X015864Y044089D01*
G37*
G36*
X016571Y043382D02*
X016779Y043174D01*
X016293Y042688D01*
X016085Y042896D01*
X016571Y043382D01*
G37*
X028575Y042014D03*
X029575Y042014D03*
X029575Y041014D03*
X028575Y041014D03*
X028575Y040014D03*
X029575Y040014D03*
X036075Y039764D03*
X036075Y040639D03*
X037075Y040639D03*
X037075Y039764D03*
X037075Y041514D03*
X036075Y041514D03*
X042450Y041514D03*
X043450Y041514D03*
X043450Y040514D03*
X043450Y039514D03*
X042450Y039514D03*
X042450Y040514D03*
X042454Y042515D03*
X043454Y042515D03*
X050829Y042890D03*
X050825Y042014D03*
X051825Y042014D03*
X051829Y042890D03*
X052325Y041014D03*
X052325Y040139D03*
X051325Y040139D03*
X051325Y041014D03*
D19*
X025339Y041452D03*
X024939Y041452D03*
X024939Y042452D03*
X025339Y042452D03*
X025339Y040452D03*
X024939Y040452D03*
X020339Y040452D03*
X019939Y040452D03*
X019939Y039452D03*
X020339Y039452D03*
X020339Y038452D03*
X019939Y038452D03*
X019939Y037452D03*
X020339Y037452D03*
X020339Y036452D03*
X019939Y036452D03*
X019939Y035452D03*
X020339Y035452D03*
X020339Y034452D03*
X019939Y034452D03*
X019939Y033452D03*
X020339Y033452D03*
M02*
