G75*
G70*
%OFA0B0*%
%FSLAX24Y24*%
%IPPOS*%
%LPD*%
%AMOC8*
5,1,8,0,0,1.08239X$1,22.5*
%
%ADD10C,0.1580*%
%ADD11C,0.1092*%
%ADD12C,0.0474*%
%ADD13C,0.0940*%
%ADD14C,0.1261*%
%ADD15R,0.0710X0.0540*%
%ADD16R,0.0540X0.0710*%
%ADD17R,0.0060X0.0720*%
%ADD18R,0.0720X0.0060*%
%ADD19R,0.0789X0.0631*%
%ADD20R,0.0631X0.0789*%
%ADD21R,0.0907X0.0907*%
%ADD22R,0.0789X0.0552*%
%ADD23R,0.0671X0.0592*%
%ADD24R,0.0552X0.0671*%
%ADD25R,0.0671X0.0552*%
%ADD26C,0.1655*%
%ADD27C,0.0595*%
%ADD28C,0.0907*%
%ADD29R,0.0552X0.0789*%
%ADD30C,0.0986*%
%ADD31R,0.0986X0.0986*%
%ADD32C,0.2049*%
%ADD33C,0.0867*%
D10*
X014206Y004688D03*
X016706Y005688D03*
X021706Y004688D03*
X024206Y005688D03*
X029206Y004688D03*
X031706Y005688D03*
X036831Y004688D03*
X039331Y005688D03*
X043331Y004688D03*
X044456Y004688D03*
X045831Y005688D03*
X046956Y005688D03*
X052831Y004688D03*
X055331Y005688D03*
X054206Y012188D03*
X056706Y013188D03*
X061706Y012188D03*
X064206Y013188D03*
X069206Y012188D03*
X071706Y013188D03*
X076706Y012188D03*
X079206Y013188D03*
X076706Y019688D03*
X079206Y020688D03*
X076706Y027188D03*
X079206Y028188D03*
X076706Y034688D03*
X079206Y035688D03*
X071706Y035688D03*
X069206Y034688D03*
X064206Y035688D03*
X061706Y034688D03*
X056706Y035688D03*
X054206Y034688D03*
X049206Y035688D03*
X046706Y034688D03*
X041706Y035688D03*
X039206Y034688D03*
X039706Y028188D03*
X037206Y027188D03*
X038706Y020688D03*
X036206Y019688D03*
X037956Y013188D03*
X035456Y012188D03*
X046706Y012188D03*
X049206Y013188D03*
X046706Y019688D03*
X049206Y020688D03*
X054206Y019688D03*
X056706Y020688D03*
X061706Y019688D03*
X064206Y020688D03*
X069206Y019688D03*
X071706Y020688D03*
X069206Y027188D03*
X071706Y028188D03*
X064206Y028188D03*
X061706Y027188D03*
X056706Y028188D03*
X054206Y027188D03*
X049206Y028188D03*
X046706Y027188D03*
X034206Y035688D03*
X031706Y034688D03*
X024206Y031188D03*
X021706Y030188D03*
X016706Y031188D03*
X014206Y030188D03*
X016706Y023688D03*
X014206Y022688D03*
X021706Y022688D03*
X024206Y023688D03*
X024206Y013188D03*
X021706Y012188D03*
X021706Y037688D03*
X024206Y038688D03*
X021706Y045188D03*
X024206Y046188D03*
X016706Y046188D03*
X014206Y045188D03*
X016706Y038688D03*
X014206Y037688D03*
X036206Y045188D03*
X038706Y046188D03*
X043706Y045188D03*
X046206Y046188D03*
X051206Y045188D03*
X053706Y046188D03*
X058706Y045188D03*
X061206Y046188D03*
X069206Y045188D03*
X071706Y046188D03*
X076706Y045188D03*
X079206Y046188D03*
X070456Y005688D03*
X067956Y004688D03*
D11*
X066956Y006688D03*
X070956Y006688D03*
X072206Y014188D03*
X075706Y014188D03*
X079706Y014188D03*
X079706Y021688D03*
X075706Y021688D03*
X072206Y021688D03*
X068206Y021688D03*
X064706Y021688D03*
X060706Y021688D03*
X057206Y021688D03*
X053206Y021688D03*
X049706Y021688D03*
X045706Y021688D03*
X045706Y014188D03*
X049706Y014188D03*
X053206Y014188D03*
X057206Y014188D03*
X060706Y014188D03*
X064706Y014188D03*
X068206Y014188D03*
X068206Y029188D03*
X064706Y029188D03*
X060706Y029188D03*
X057206Y029188D03*
X053206Y029188D03*
X049706Y029188D03*
X045706Y029188D03*
X040206Y029188D03*
X036206Y029188D03*
X035206Y021688D03*
X039206Y021688D03*
X038456Y014188D03*
X034456Y014188D03*
X035831Y006688D03*
X032206Y006688D03*
X028206Y006688D03*
X024706Y006688D03*
X020706Y006688D03*
X017206Y006688D03*
X013206Y006688D03*
X020706Y014188D03*
X024706Y014188D03*
X024706Y024688D03*
X020706Y024688D03*
X017206Y024688D03*
X013206Y024688D03*
X013206Y032188D03*
X017206Y032188D03*
X020706Y032188D03*
X024706Y032188D03*
X024706Y039688D03*
X020706Y039688D03*
X017206Y039688D03*
X013206Y039688D03*
X013206Y047188D03*
X017206Y047188D03*
X020706Y047188D03*
X024706Y047188D03*
X030706Y036688D03*
X034706Y036688D03*
X038206Y036688D03*
X042206Y036688D03*
X045706Y036688D03*
X049706Y036688D03*
X053206Y036688D03*
X057206Y036688D03*
X060706Y036688D03*
X064706Y036688D03*
X068206Y036688D03*
X072206Y036688D03*
X075706Y036688D03*
X079706Y036688D03*
X079706Y029188D03*
X075706Y029188D03*
X072206Y029188D03*
X072206Y047188D03*
X075706Y047188D03*
X079706Y047188D03*
X068206Y047188D03*
X061706Y047188D03*
X057706Y047188D03*
X054206Y047188D03*
X050206Y047188D03*
X046706Y047188D03*
X042706Y047188D03*
X039206Y047188D03*
X035206Y047188D03*
X039831Y006688D03*
X042331Y006688D03*
X043456Y006688D03*
X046331Y006688D03*
X047456Y006688D03*
X051831Y006688D03*
X055831Y006688D03*
D12*
X053831Y006688D03*
X055206Y014188D03*
X055206Y021688D03*
X055206Y029188D03*
X055206Y036688D03*
X062706Y036688D03*
X062706Y029188D03*
X062706Y021688D03*
X062706Y014188D03*
X068956Y006688D03*
X070206Y014188D03*
X070206Y021688D03*
X070206Y029188D03*
X077706Y029188D03*
X077706Y021688D03*
X077706Y014188D03*
X077706Y036688D03*
X070206Y036688D03*
X070206Y047188D03*
X077706Y047188D03*
X059706Y047188D03*
X052206Y047188D03*
X044706Y047188D03*
X037206Y047188D03*
X040206Y036688D03*
X038206Y029188D03*
X037206Y021688D03*
X036456Y014188D03*
X037831Y006688D03*
X045456Y006688D03*
X047706Y014188D03*
X047706Y021688D03*
X047706Y029188D03*
X047706Y036688D03*
X032706Y036688D03*
X022706Y039688D03*
X022706Y032188D03*
X022706Y024688D03*
X022706Y014188D03*
X022706Y006688D03*
X030206Y006688D03*
X015206Y006688D03*
X015206Y024688D03*
X015206Y032188D03*
X015206Y039688D03*
X015206Y047188D03*
X022706Y047188D03*
D13*
X023206Y048758D02*
X023206Y049618D01*
X024206Y049618D02*
X024206Y048758D01*
X022206Y048758D02*
X022206Y049618D01*
X021206Y049618D02*
X021206Y048758D01*
X016706Y048758D02*
X016706Y049618D01*
X015706Y049618D02*
X015706Y048758D01*
X014706Y048758D02*
X014706Y049618D01*
X013706Y049618D02*
X013706Y048758D01*
X013706Y042118D02*
X013706Y041258D01*
X014706Y041258D02*
X014706Y042118D01*
X015706Y042118D02*
X015706Y041258D01*
X016706Y041258D02*
X016706Y042118D01*
X021206Y042118D02*
X021206Y041258D01*
X022206Y041258D02*
X022206Y042118D01*
X023206Y042118D02*
X023206Y041258D01*
X024206Y041258D02*
X024206Y042118D01*
X024206Y034618D02*
X024206Y033758D01*
X023206Y033758D02*
X023206Y034618D01*
X022206Y034618D02*
X022206Y033758D01*
X021206Y033758D02*
X021206Y034618D01*
X016706Y034618D02*
X016706Y033758D01*
X015706Y033758D02*
X015706Y034618D01*
X014706Y034618D02*
X014706Y033758D01*
X013706Y033758D02*
X013706Y034618D01*
X013706Y027118D02*
X013706Y026258D01*
X014706Y026258D02*
X014706Y027118D01*
X015706Y027118D02*
X015706Y026258D01*
X016706Y026258D02*
X016706Y027118D01*
X021206Y027118D02*
X021206Y026258D01*
X022206Y026258D02*
X022206Y027118D01*
X023206Y027118D02*
X023206Y026258D01*
X024206Y026258D02*
X024206Y027118D01*
X024206Y016618D02*
X024206Y015758D01*
X023206Y015758D02*
X023206Y016618D01*
X022206Y016618D02*
X022206Y015758D01*
X021206Y015758D02*
X021206Y016618D01*
X021206Y009118D02*
X021206Y008258D01*
X022206Y008258D02*
X022206Y009118D01*
X023206Y009118D02*
X023206Y008258D01*
X024206Y008258D02*
X024206Y009118D01*
X028706Y009118D02*
X028706Y008258D01*
X029706Y008258D02*
X029706Y009118D01*
X030706Y009118D02*
X030706Y008258D01*
X031706Y008258D02*
X031706Y009118D01*
X036331Y009118D02*
X036331Y008258D01*
X037331Y008258D02*
X037331Y009118D01*
X038331Y009118D02*
X038331Y008258D01*
X039331Y008258D02*
X039331Y009118D01*
X043956Y009118D02*
X043956Y008258D01*
X044956Y008258D02*
X044956Y009118D01*
X045956Y009118D02*
X045956Y008258D01*
X046956Y008258D02*
X046956Y009118D01*
X052331Y009118D02*
X052331Y008258D01*
X053331Y008258D02*
X053331Y009118D01*
X054331Y009118D02*
X054331Y008258D01*
X055331Y008258D02*
X055331Y009118D01*
X055706Y015758D02*
X055706Y016618D01*
X056706Y016618D02*
X056706Y015758D01*
X054706Y015758D02*
X054706Y016618D01*
X053706Y016618D02*
X053706Y015758D01*
X049206Y015758D02*
X049206Y016618D01*
X048206Y016618D02*
X048206Y015758D01*
X047206Y015758D02*
X047206Y016618D01*
X046206Y016618D02*
X046206Y015758D01*
X046206Y023258D02*
X046206Y024118D01*
X047206Y024118D02*
X047206Y023258D01*
X048206Y023258D02*
X048206Y024118D01*
X049206Y024118D02*
X049206Y023258D01*
X053706Y023258D02*
X053706Y024118D01*
X054706Y024118D02*
X054706Y023258D01*
X055706Y023258D02*
X055706Y024118D01*
X056706Y024118D02*
X056706Y023258D01*
X061206Y023258D02*
X061206Y024118D01*
X062206Y024118D02*
X062206Y023258D01*
X063206Y023258D02*
X063206Y024118D01*
X064206Y024118D02*
X064206Y023258D01*
X068706Y023258D02*
X068706Y024118D01*
X069706Y024118D02*
X069706Y023258D01*
X070706Y023258D02*
X070706Y024118D01*
X071706Y024118D02*
X071706Y023258D01*
X076206Y023258D02*
X076206Y024118D01*
X077206Y024118D02*
X077206Y023258D01*
X078206Y023258D02*
X078206Y024118D01*
X079206Y024118D02*
X079206Y023258D01*
X079206Y016618D02*
X079206Y015758D01*
X078206Y015758D02*
X078206Y016618D01*
X077206Y016618D02*
X077206Y015758D01*
X076206Y015758D02*
X076206Y016618D01*
X071706Y016618D02*
X071706Y015758D01*
X070706Y015758D02*
X070706Y016618D01*
X069706Y016618D02*
X069706Y015758D01*
X068706Y015758D02*
X068706Y016618D01*
X064206Y016618D02*
X064206Y015758D01*
X063206Y015758D02*
X063206Y016618D01*
X062206Y016618D02*
X062206Y015758D01*
X061206Y015758D02*
X061206Y016618D01*
X067456Y009118D02*
X067456Y008258D01*
X068456Y008258D02*
X068456Y009118D01*
X069456Y009118D02*
X069456Y008258D01*
X070456Y008258D02*
X070456Y009118D01*
X070706Y030758D02*
X070706Y031618D01*
X071706Y031618D02*
X071706Y030758D01*
X069706Y030758D02*
X069706Y031618D01*
X068706Y031618D02*
X068706Y030758D01*
X064206Y030758D02*
X064206Y031618D01*
X063206Y031618D02*
X063206Y030758D01*
X062206Y030758D02*
X062206Y031618D01*
X061206Y031618D02*
X061206Y030758D01*
X056706Y030758D02*
X056706Y031618D01*
X055706Y031618D02*
X055706Y030758D01*
X054706Y030758D02*
X054706Y031618D01*
X053706Y031618D02*
X053706Y030758D01*
X049206Y030758D02*
X049206Y031618D01*
X048206Y031618D02*
X048206Y030758D01*
X047206Y030758D02*
X047206Y031618D01*
X046206Y031618D02*
X046206Y030758D01*
X039706Y030758D02*
X039706Y031618D01*
X038706Y031618D02*
X038706Y030758D01*
X037706Y030758D02*
X037706Y031618D01*
X036706Y031618D02*
X036706Y030758D01*
X036706Y024118D02*
X036706Y023258D01*
X037706Y023258D02*
X037706Y024118D01*
X038706Y024118D02*
X038706Y023258D01*
X035706Y023258D02*
X035706Y024118D01*
X035956Y016618D02*
X035956Y015758D01*
X036956Y015758D02*
X036956Y016618D01*
X037956Y016618D02*
X037956Y015758D01*
X034956Y015758D02*
X034956Y016618D01*
X034206Y038258D02*
X034206Y039118D01*
X033206Y039118D02*
X033206Y038258D01*
X032206Y038258D02*
X032206Y039118D01*
X031206Y039118D02*
X031206Y038258D01*
X038706Y038258D02*
X038706Y039118D01*
X039706Y039118D02*
X039706Y038258D01*
X040706Y038258D02*
X040706Y039118D01*
X041706Y039118D02*
X041706Y038258D01*
X046206Y038258D02*
X046206Y039118D01*
X047206Y039118D02*
X047206Y038258D01*
X048206Y038258D02*
X048206Y039118D01*
X049206Y039118D02*
X049206Y038258D01*
X053706Y038258D02*
X053706Y039118D01*
X054706Y039118D02*
X054706Y038258D01*
X055706Y038258D02*
X055706Y039118D01*
X056706Y039118D02*
X056706Y038258D01*
X061206Y038258D02*
X061206Y039118D01*
X062206Y039118D02*
X062206Y038258D01*
X063206Y038258D02*
X063206Y039118D01*
X064206Y039118D02*
X064206Y038258D01*
X068706Y038258D02*
X068706Y039118D01*
X069706Y039118D02*
X069706Y038258D01*
X070706Y038258D02*
X070706Y039118D01*
X071706Y039118D02*
X071706Y038258D01*
X076206Y038258D02*
X076206Y039118D01*
X077206Y039118D02*
X077206Y038258D01*
X078206Y038258D02*
X078206Y039118D01*
X079206Y039118D02*
X079206Y038258D01*
X079206Y031618D02*
X079206Y030758D01*
X078206Y030758D02*
X078206Y031618D01*
X077206Y031618D02*
X077206Y030758D01*
X076206Y030758D02*
X076206Y031618D01*
X076206Y048758D02*
X076206Y049618D01*
X077206Y049618D02*
X077206Y048758D01*
X078206Y048758D02*
X078206Y049618D01*
X079206Y049618D02*
X079206Y048758D01*
X071706Y048758D02*
X071706Y049618D01*
X070706Y049618D02*
X070706Y048758D01*
X069706Y048758D02*
X069706Y049618D01*
X068706Y049618D02*
X068706Y048758D01*
X061206Y048758D02*
X061206Y049618D01*
X060206Y049618D02*
X060206Y048758D01*
X059206Y048758D02*
X059206Y049618D01*
X058206Y049618D02*
X058206Y048758D01*
X053706Y048758D02*
X053706Y049618D01*
X052706Y049618D02*
X052706Y048758D01*
X051706Y048758D02*
X051706Y049618D01*
X050706Y049618D02*
X050706Y048758D01*
X046206Y048758D02*
X046206Y049618D01*
X045206Y049618D02*
X045206Y048758D01*
X044206Y048758D02*
X044206Y049618D01*
X043206Y049618D02*
X043206Y048758D01*
X038706Y048758D02*
X038706Y049618D01*
X037706Y049618D02*
X037706Y048758D01*
X036706Y048758D02*
X036706Y049618D01*
X035706Y049618D02*
X035706Y048758D01*
X016706Y009118D02*
X016706Y008258D01*
X015706Y008258D02*
X015706Y009118D01*
X014706Y009118D02*
X014706Y008258D01*
X013706Y008258D02*
X013706Y009118D01*
D14*
X015206Y006688D03*
X022706Y006688D03*
X022706Y014188D03*
X022706Y024688D03*
X022706Y032188D03*
X022706Y039688D03*
X022706Y047188D03*
X015206Y047188D03*
X015206Y039688D03*
X015206Y032188D03*
X015206Y024688D03*
X030206Y006688D03*
X036456Y014188D03*
X037206Y021688D03*
X038206Y029188D03*
X040206Y036688D03*
X047706Y036688D03*
X047706Y029188D03*
X047706Y021688D03*
X047706Y014188D03*
X045456Y006688D03*
X037831Y006688D03*
X053831Y006688D03*
X055206Y014188D03*
X055206Y021688D03*
X055206Y029188D03*
X055206Y036688D03*
X062706Y036688D03*
X062706Y029188D03*
X062706Y021688D03*
X062706Y014188D03*
X068956Y006688D03*
X070206Y014188D03*
X070206Y021688D03*
X070206Y029188D03*
X077706Y029188D03*
X077706Y021688D03*
X077706Y014188D03*
X077706Y036688D03*
X070206Y036688D03*
X070206Y047188D03*
X077706Y047188D03*
X059706Y047188D03*
X052206Y047188D03*
X044706Y047188D03*
X037206Y047188D03*
X032706Y036688D03*
D15*
X032081Y033488D03*
X032081Y032888D03*
X038456Y026488D03*
X038456Y025888D03*
X041706Y028388D03*
X041706Y028988D03*
X040456Y033638D03*
X040456Y034238D03*
X043456Y036138D03*
X043456Y036738D03*
X047956Y034238D03*
X047956Y033638D03*
X050831Y036263D03*
X050831Y036863D03*
X055456Y034238D03*
X055456Y033638D03*
X058456Y036138D03*
X058456Y036738D03*
X062706Y033738D03*
X062706Y033138D03*
X065956Y036638D03*
X065956Y037238D03*
X062206Y044888D03*
X062206Y045488D03*
X070706Y045238D03*
X070706Y044638D03*
X073331Y036363D03*
X073331Y035763D03*
X075331Y035363D03*
X075331Y034763D03*
X079206Y034363D03*
X079206Y033763D03*
X078331Y027238D03*
X078331Y026638D03*
X076206Y025738D03*
X076206Y025138D03*
X073456Y028638D03*
X073456Y029238D03*
X070456Y026488D03*
X070456Y025888D03*
X073456Y021738D03*
X073456Y021138D03*
X076081Y018488D03*
X076081Y017888D03*
X078331Y019013D03*
X078331Y019613D03*
X075456Y013113D03*
X075456Y012513D03*
X070706Y012363D03*
X070706Y011763D03*
X066956Y013388D03*
X066956Y013988D03*
X063206Y012363D03*
X063206Y011763D03*
X059331Y013263D03*
X059331Y013863D03*
X056331Y011738D03*
X056331Y011138D03*
X054206Y004363D03*
X054206Y003763D03*
X048206Y011763D03*
X048206Y012363D03*
X047956Y018638D03*
X047956Y019238D03*
X050956Y020888D03*
X050956Y021488D03*
X047956Y025888D03*
X047956Y026488D03*
X050956Y028388D03*
X050956Y028988D03*
X055206Y026488D03*
X055206Y025888D03*
X058456Y028388D03*
X058456Y028988D03*
X062706Y026488D03*
X062706Y025888D03*
X065956Y028388D03*
X065956Y028988D03*
X065956Y021488D03*
X065956Y020888D03*
X062956Y019238D03*
X062956Y018638D03*
X058456Y020888D03*
X058456Y021488D03*
X055456Y019238D03*
X055456Y018638D03*
X066581Y004363D03*
X066581Y003763D03*
X072081Y005263D03*
X072081Y005863D03*
X070456Y018638D03*
X070456Y019238D03*
X078456Y044513D03*
X078456Y045113D03*
X044956Y044738D03*
X044956Y044138D03*
X037456Y044138D03*
X037456Y044738D03*
X024206Y037488D03*
X024206Y036888D03*
X022956Y044388D03*
X022956Y044988D03*
X015706Y045238D03*
X015706Y044638D03*
X013081Y044488D03*
X013081Y043888D03*
X016706Y037488D03*
X016706Y036888D03*
X018456Y032238D03*
X018456Y031638D03*
X015206Y029488D03*
X015206Y028888D03*
X018456Y024613D03*
X018456Y024013D03*
X014331Y021488D03*
X014331Y020888D03*
X025956Y023763D03*
X025956Y024363D03*
X025956Y014238D03*
X025956Y013638D03*
X022956Y004238D03*
X022956Y003638D03*
X030456Y003638D03*
X030456Y004238D03*
X038081Y004238D03*
X038081Y003638D03*
X041956Y003638D03*
X041956Y004238D03*
X037956Y011513D03*
X037956Y012113D03*
X037456Y018638D03*
X037456Y019238D03*
X040706Y021138D03*
X040706Y021738D03*
D16*
X045031Y013063D03*
X045631Y013063D03*
X048156Y005688D03*
X048756Y005688D03*
X052531Y013063D03*
X053131Y013063D03*
X056656Y005688D03*
X057256Y005688D03*
X041131Y005688D03*
X040531Y005688D03*
X033506Y005688D03*
X032906Y005688D03*
X033531Y011313D03*
X034131Y011313D03*
X026006Y005688D03*
X025406Y005688D03*
X020631Y012938D03*
X020031Y012938D03*
X017881Y004438D03*
X017281Y004438D03*
X013131Y005563D03*
X012531Y005563D03*
X019906Y023188D03*
X020506Y023188D03*
X023031Y030063D03*
X023631Y030063D03*
X020756Y031063D03*
X020156Y031063D03*
G36*
X020483Y037910D02*
X020102Y038291D01*
X020603Y038792D01*
X020984Y038411D01*
X020483Y037910D01*
G37*
G36*
X020059Y038334D02*
X019678Y038715D01*
X020179Y039216D01*
X020560Y038835D01*
X020059Y038334D01*
G37*
X013131Y038563D03*
X012531Y038563D03*
X025406Y046438D03*
X026006Y046438D03*
X035406Y035688D03*
X036006Y035688D03*
X039906Y046188D03*
X040506Y046188D03*
X047406Y046438D03*
X048006Y046438D03*
X049406Y045938D03*
X050006Y045938D03*
X054906Y046188D03*
X055506Y046188D03*
X056656Y045438D03*
X057256Y045438D03*
X067156Y045688D03*
X067756Y045688D03*
X074906Y045938D03*
X075506Y045938D03*
X068006Y035188D03*
X067406Y035188D03*
G36*
X077977Y012210D02*
X078358Y012591D01*
X078859Y012090D01*
X078478Y011709D01*
X077977Y012210D01*
G37*
G36*
X077553Y011786D02*
X077934Y012167D01*
X078435Y011666D01*
X078054Y011285D01*
X077553Y011786D01*
G37*
D17*
X055206Y046188D03*
X047706Y046438D03*
X025706Y046438D03*
D18*
X018456Y031938D03*
D19*
X017956Y033019D03*
X017956Y034357D03*
X012581Y040644D03*
X012581Y041982D03*
X016456Y043269D03*
X016456Y044607D03*
X025706Y044019D03*
X025706Y045357D03*
X025956Y026857D03*
X025956Y025519D03*
X030706Y018545D03*
X030706Y017206D03*
X026956Y017607D03*
X026956Y016269D03*
X018456Y025269D03*
X018456Y026607D03*
X012831Y013732D03*
X012831Y012394D03*
X040706Y022519D03*
X040706Y023857D03*
X041706Y030144D03*
X041706Y031482D03*
X043581Y037769D03*
X043581Y039107D03*
X043581Y042269D03*
X043581Y043607D03*
X046206Y043455D03*
X046206Y044794D03*
X050831Y038982D03*
X050831Y037644D03*
X053581Y043519D03*
X053581Y044857D03*
X050956Y031107D03*
X050956Y029769D03*
X050956Y023607D03*
X050956Y022269D03*
X051206Y013732D03*
X051206Y012394D03*
X058456Y022269D03*
X058456Y023607D03*
X058456Y029769D03*
X058456Y031107D03*
X065956Y031107D03*
X065956Y029769D03*
X065956Y023607D03*
X065956Y022269D03*
X066956Y016107D03*
X066956Y014769D03*
X064143Y011607D03*
X064143Y010269D03*
X059331Y014769D03*
X059331Y016107D03*
X071706Y011607D03*
X071706Y010269D03*
X072081Y007857D03*
X072081Y006519D03*
X073456Y022519D03*
X073456Y023857D03*
X073456Y030019D03*
X073456Y031357D03*
X072831Y037394D03*
X072831Y038732D03*
X071456Y043144D03*
X071456Y044482D03*
D20*
X075912Y043188D03*
X077250Y043188D03*
X075250Y038063D03*
X073912Y038063D03*
X067625Y038063D03*
X066287Y038063D03*
G36*
X061680Y044856D02*
X061234Y044410D01*
X060678Y044966D01*
X061124Y045412D01*
X061680Y044856D01*
G37*
G36*
X060734Y043910D02*
X060288Y043464D01*
X059732Y044020D01*
X060178Y044466D01*
X060734Y043910D01*
G37*
X059875Y037938D03*
X058537Y037938D03*
X051875Y015438D03*
X050537Y015438D03*
X044500Y014938D03*
X043162Y014938D03*
X043037Y012188D03*
X044375Y012188D03*
X028250Y014063D03*
X026912Y014063D03*
X024375Y029188D03*
X023037Y029188D03*
X020250Y040938D03*
X018912Y040938D03*
X035662Y038313D03*
X037000Y038313D03*
X017125Y010688D03*
X015787Y010688D03*
X015000Y010688D03*
X013662Y010688D03*
X073162Y013188D03*
X074500Y013188D03*
X078162Y017938D03*
X079500Y017938D03*
X079500Y025438D03*
X078162Y025438D03*
D21*
X069206Y040438D03*
X068206Y040438D03*
X067206Y040438D03*
X066206Y040438D03*
X065206Y040438D03*
X064206Y040438D03*
X063206Y040438D03*
X062206Y040438D03*
X062206Y043438D03*
X063206Y043438D03*
X064206Y043438D03*
X065206Y043438D03*
X066206Y043438D03*
X067206Y043438D03*
X068206Y043438D03*
X069206Y043438D03*
X017706Y017938D03*
X017706Y016938D03*
X017706Y015938D03*
X017706Y014938D03*
X017706Y013938D03*
X017706Y012938D03*
X017706Y011938D03*
X014706Y011938D03*
X014706Y012938D03*
X014706Y013938D03*
X014706Y014938D03*
X014706Y015938D03*
X014706Y016938D03*
X014706Y017938D03*
D22*
G36*
X018497Y009507D02*
X017941Y010063D01*
X018331Y010453D01*
X018887Y009897D01*
X018497Y009507D01*
G37*
G36*
X019331Y008673D02*
X018775Y009229D01*
X019165Y009619D01*
X019721Y009063D01*
X019331Y008673D01*
G37*
X068616Y041563D03*
X069796Y041563D03*
D23*
X066206Y041189D03*
X066206Y041937D03*
X031768Y020312D03*
X031768Y019564D03*
X016581Y012187D03*
X016581Y011439D03*
X015706Y011689D03*
X015706Y012437D03*
D24*
X018831Y008028D03*
X018831Y006848D03*
X015331Y020223D03*
X015331Y021403D03*
X016581Y028348D03*
X016581Y029528D03*
X018706Y037723D03*
X018706Y038903D03*
X022956Y036778D03*
X022956Y035598D03*
X025331Y028778D03*
X025331Y027598D03*
X036456Y033098D03*
X037581Y033098D03*
X037581Y034278D03*
X036456Y034278D03*
X041581Y034278D03*
X041581Y033098D03*
X040706Y026528D03*
X040706Y025348D03*
X040956Y019278D03*
X040956Y018098D03*
X049456Y018098D03*
X049456Y019278D03*
X049206Y025348D03*
X049206Y026528D03*
X051831Y034973D03*
X051831Y036153D03*
X056706Y026528D03*
X056706Y025348D03*
X056956Y019278D03*
X056956Y018098D03*
X064331Y018098D03*
X064331Y019278D03*
X064081Y025348D03*
X064081Y026528D03*
X064206Y033098D03*
X064206Y034278D03*
X071706Y026528D03*
X071706Y025348D03*
X071956Y019278D03*
X071956Y018098D03*
X076581Y041348D03*
X076581Y042528D03*
X066081Y047098D03*
X064956Y047098D03*
X063831Y047098D03*
X063831Y048278D03*
X064956Y048278D03*
X066081Y048278D03*
X033331Y048598D03*
X033331Y049778D03*
X026706Y045278D03*
X026706Y044098D03*
X019081Y045348D03*
X019081Y046528D03*
D25*
G36*
X024455Y043673D02*
X023982Y044146D01*
X024373Y044537D01*
X024846Y044064D01*
X024455Y043673D01*
G37*
G36*
X025289Y042839D02*
X024816Y043312D01*
X025207Y043703D01*
X025680Y043230D01*
X025289Y042839D01*
G37*
G36*
X016207Y036328D02*
X016680Y035855D01*
X016289Y035464D01*
X015816Y035937D01*
X016207Y036328D01*
G37*
G36*
X015373Y037162D02*
X015846Y036689D01*
X015455Y036298D01*
X014982Y036771D01*
X015373Y037162D01*
G37*
X012921Y030813D03*
X011741Y030813D03*
X012366Y029063D03*
X012366Y028188D03*
X013546Y028188D03*
X013546Y029063D03*
X023866Y021938D03*
X023866Y021063D03*
X023866Y020188D03*
X023866Y019313D03*
X023866Y018438D03*
X025046Y018438D03*
X025046Y019313D03*
X025046Y020188D03*
X025046Y021063D03*
X025046Y021938D03*
X026366Y021563D03*
X026366Y020563D03*
X026366Y019563D03*
X026366Y018563D03*
X027546Y018563D03*
X027546Y019563D03*
X027546Y020563D03*
X027546Y021563D03*
X027546Y022563D03*
X026366Y022563D03*
X037241Y040313D03*
X037241Y041313D03*
X037241Y042313D03*
X038421Y042313D03*
X038421Y041313D03*
X038421Y040313D03*
X044741Y040063D03*
X044741Y040938D03*
X044741Y041813D03*
X045921Y041813D03*
X045921Y040938D03*
X045921Y040063D03*
X051116Y039813D03*
X051116Y040813D03*
X051116Y041813D03*
X051116Y042813D03*
X052296Y042813D03*
X052296Y041813D03*
X052296Y040813D03*
X052296Y039813D03*
X059491Y042313D03*
X059491Y043188D03*
X060671Y043188D03*
X060671Y042313D03*
X061171Y041313D03*
X061296Y040563D03*
X060116Y040563D03*
X059991Y041313D03*
D26*
X044331Y006688D03*
D27*
X044331Y006688D03*
D28*
X029307Y033751D02*
X028480Y033751D01*
X028480Y034751D02*
X029307Y034751D01*
X029307Y035751D02*
X028480Y035751D01*
X028480Y036751D02*
X029307Y036751D01*
X029307Y037751D02*
X028480Y037751D01*
X028480Y038751D02*
X029307Y038751D01*
X029307Y039751D02*
X028480Y039751D01*
X028480Y040751D02*
X029307Y040751D01*
X033480Y040751D02*
X034307Y040751D01*
X034307Y041751D02*
X033480Y041751D01*
X033480Y042751D02*
X034307Y042751D01*
D29*
X027081Y042153D03*
X027081Y040973D03*
X018956Y014528D03*
X018956Y013348D03*
X018956Y012528D03*
X018956Y011348D03*
X013706Y012348D03*
X013706Y013528D03*
D30*
X013581Y011563D03*
X015956Y013563D03*
X065206Y041938D03*
D31*
X018706Y017938D03*
D32*
X010143Y001688D03*
X016956Y001688D03*
X010143Y010438D03*
X010143Y019438D03*
X010143Y028438D03*
X010143Y035938D03*
X010143Y043438D03*
X010143Y052188D03*
X018956Y052188D03*
X029956Y052188D03*
X040956Y052188D03*
X048456Y052188D03*
X055956Y052188D03*
X064956Y052188D03*
X070206Y052188D03*
X073956Y052188D03*
X078018Y052188D03*
X080206Y052188D03*
X078018Y001688D03*
X073956Y001688D03*
X070206Y001688D03*
X060456Y001688D03*
X050956Y001688D03*
X041456Y001688D03*
X031956Y001688D03*
X024456Y001688D03*
D33*
X026456Y010438D03*
X018956Y020938D03*
X018956Y028438D03*
X019581Y035938D03*
X018956Y043438D03*
X040956Y043438D03*
X048456Y043438D03*
X055956Y043438D03*
X058956Y032938D03*
X058956Y025438D03*
X058956Y017938D03*
X058956Y010438D03*
X051456Y017938D03*
X050206Y010063D03*
X043956Y017938D03*
X041456Y010438D03*
X043956Y025438D03*
X043956Y032938D03*
X051456Y032938D03*
X051456Y025438D03*
X066456Y025438D03*
X066456Y032938D03*
X073956Y032938D03*
X073956Y025438D03*
X073956Y017938D03*
X073956Y010438D03*
X066456Y010938D03*
X066456Y017938D03*
X073956Y040438D03*
X073956Y043438D03*
M02*
