G75*
G70*
%OFA0B0*%
%FSLAX24Y24*%
%IPPOS*%
%LPD*%
%AMOC8*
5,1,8,0,0,1.08239X$1,22.5*
%
%ADD10C,0.0100*%
%ADD11C,0.0051*%
%ADD12C,0.0110*%
%ADD13C,0.0050*%
%ADD14C,0.0040*%
%ADD15C,0.0079*%
%ADD16C,0.0060*%
%ADD17R,0.0689X0.0295*%
%ADD18R,0.0295X0.0689*%
%ADD19R,0.0200X0.0100*%
%ADD20C,0.0059*%
D10*
X064218Y021393D02*
X064220Y021455D01*
X064226Y021518D01*
X064236Y021579D01*
X064250Y021640D01*
X064267Y021700D01*
X064288Y021759D01*
X064314Y021816D01*
X064342Y021871D01*
X064374Y021925D01*
X064410Y021976D01*
X064448Y022026D01*
X064490Y022072D01*
X064534Y022116D01*
X064582Y022157D01*
X064631Y022195D01*
X064683Y022229D01*
X064737Y022260D01*
X064793Y022288D01*
X064851Y022312D01*
X064910Y022333D01*
X064970Y022349D01*
X065031Y022362D01*
X065093Y022371D01*
X065155Y022376D01*
X065218Y022377D01*
X065280Y022374D01*
X065342Y022367D01*
X065404Y022356D01*
X065464Y022341D01*
X065524Y022323D01*
X065582Y022301D01*
X065639Y022275D01*
X065694Y022245D01*
X065747Y022212D01*
X065798Y022176D01*
X065846Y022137D01*
X065892Y022094D01*
X065935Y022049D01*
X065975Y022001D01*
X066012Y021951D01*
X066046Y021898D01*
X066077Y021844D01*
X066103Y021788D01*
X066127Y021730D01*
X066146Y021670D01*
X066162Y021610D01*
X066174Y021548D01*
X066182Y021487D01*
X066186Y021424D01*
X066186Y021362D01*
X066182Y021299D01*
X066174Y021238D01*
X066162Y021176D01*
X066146Y021116D01*
X066127Y021056D01*
X066103Y020998D01*
X066077Y020942D01*
X066046Y020888D01*
X066012Y020835D01*
X065975Y020785D01*
X065935Y020737D01*
X065892Y020692D01*
X065846Y020649D01*
X065798Y020610D01*
X065747Y020574D01*
X065694Y020541D01*
X065639Y020511D01*
X065582Y020485D01*
X065524Y020463D01*
X065464Y020445D01*
X065404Y020430D01*
X065342Y020419D01*
X065280Y020412D01*
X065218Y020409D01*
X065155Y020410D01*
X065093Y020415D01*
X065031Y020424D01*
X064970Y020437D01*
X064910Y020453D01*
X064851Y020474D01*
X064793Y020498D01*
X064737Y020526D01*
X064683Y020557D01*
X064631Y020591D01*
X064582Y020629D01*
X064534Y020670D01*
X064490Y020714D01*
X064448Y020760D01*
X064410Y020810D01*
X064374Y020861D01*
X064342Y020915D01*
X064314Y020970D01*
X064288Y021027D01*
X064267Y021086D01*
X064250Y021146D01*
X064236Y021207D01*
X064226Y021268D01*
X064220Y021331D01*
X064218Y021393D01*
X064218Y028893D02*
X064220Y028955D01*
X064226Y029018D01*
X064236Y029079D01*
X064250Y029140D01*
X064267Y029200D01*
X064288Y029259D01*
X064314Y029316D01*
X064342Y029371D01*
X064374Y029425D01*
X064410Y029476D01*
X064448Y029526D01*
X064490Y029572D01*
X064534Y029616D01*
X064582Y029657D01*
X064631Y029695D01*
X064683Y029729D01*
X064737Y029760D01*
X064793Y029788D01*
X064851Y029812D01*
X064910Y029833D01*
X064970Y029849D01*
X065031Y029862D01*
X065093Y029871D01*
X065155Y029876D01*
X065218Y029877D01*
X065280Y029874D01*
X065342Y029867D01*
X065404Y029856D01*
X065464Y029841D01*
X065524Y029823D01*
X065582Y029801D01*
X065639Y029775D01*
X065694Y029745D01*
X065747Y029712D01*
X065798Y029676D01*
X065846Y029637D01*
X065892Y029594D01*
X065935Y029549D01*
X065975Y029501D01*
X066012Y029451D01*
X066046Y029398D01*
X066077Y029344D01*
X066103Y029288D01*
X066127Y029230D01*
X066146Y029170D01*
X066162Y029110D01*
X066174Y029048D01*
X066182Y028987D01*
X066186Y028924D01*
X066186Y028862D01*
X066182Y028799D01*
X066174Y028738D01*
X066162Y028676D01*
X066146Y028616D01*
X066127Y028556D01*
X066103Y028498D01*
X066077Y028442D01*
X066046Y028388D01*
X066012Y028335D01*
X065975Y028285D01*
X065935Y028237D01*
X065892Y028192D01*
X065846Y028149D01*
X065798Y028110D01*
X065747Y028074D01*
X065694Y028041D01*
X065639Y028011D01*
X065582Y027985D01*
X065524Y027963D01*
X065464Y027945D01*
X065404Y027930D01*
X065342Y027919D01*
X065280Y027912D01*
X065218Y027909D01*
X065155Y027910D01*
X065093Y027915D01*
X065031Y027924D01*
X064970Y027937D01*
X064910Y027953D01*
X064851Y027974D01*
X064793Y027998D01*
X064737Y028026D01*
X064683Y028057D01*
X064631Y028091D01*
X064582Y028129D01*
X064534Y028170D01*
X064490Y028214D01*
X064448Y028260D01*
X064410Y028310D01*
X064374Y028361D01*
X064342Y028415D01*
X064314Y028470D01*
X064288Y028527D01*
X064267Y028586D01*
X064250Y028646D01*
X064236Y028707D01*
X064226Y028768D01*
X064220Y028831D01*
X064218Y028893D01*
X064218Y036393D02*
X064220Y036455D01*
X064226Y036518D01*
X064236Y036579D01*
X064250Y036640D01*
X064267Y036700D01*
X064288Y036759D01*
X064314Y036816D01*
X064342Y036871D01*
X064374Y036925D01*
X064410Y036976D01*
X064448Y037026D01*
X064490Y037072D01*
X064534Y037116D01*
X064582Y037157D01*
X064631Y037195D01*
X064683Y037229D01*
X064737Y037260D01*
X064793Y037288D01*
X064851Y037312D01*
X064910Y037333D01*
X064970Y037349D01*
X065031Y037362D01*
X065093Y037371D01*
X065155Y037376D01*
X065218Y037377D01*
X065280Y037374D01*
X065342Y037367D01*
X065404Y037356D01*
X065464Y037341D01*
X065524Y037323D01*
X065582Y037301D01*
X065639Y037275D01*
X065694Y037245D01*
X065747Y037212D01*
X065798Y037176D01*
X065846Y037137D01*
X065892Y037094D01*
X065935Y037049D01*
X065975Y037001D01*
X066012Y036951D01*
X066046Y036898D01*
X066077Y036844D01*
X066103Y036788D01*
X066127Y036730D01*
X066146Y036670D01*
X066162Y036610D01*
X066174Y036548D01*
X066182Y036487D01*
X066186Y036424D01*
X066186Y036362D01*
X066182Y036299D01*
X066174Y036238D01*
X066162Y036176D01*
X066146Y036116D01*
X066127Y036056D01*
X066103Y035998D01*
X066077Y035942D01*
X066046Y035888D01*
X066012Y035835D01*
X065975Y035785D01*
X065935Y035737D01*
X065892Y035692D01*
X065846Y035649D01*
X065798Y035610D01*
X065747Y035574D01*
X065694Y035541D01*
X065639Y035511D01*
X065582Y035485D01*
X065524Y035463D01*
X065464Y035445D01*
X065404Y035430D01*
X065342Y035419D01*
X065280Y035412D01*
X065218Y035409D01*
X065155Y035410D01*
X065093Y035415D01*
X065031Y035424D01*
X064970Y035437D01*
X064910Y035453D01*
X064851Y035474D01*
X064793Y035498D01*
X064737Y035526D01*
X064683Y035557D01*
X064631Y035591D01*
X064582Y035629D01*
X064534Y035670D01*
X064490Y035714D01*
X064448Y035760D01*
X064410Y035810D01*
X064374Y035861D01*
X064342Y035915D01*
X064314Y035970D01*
X064288Y036027D01*
X064267Y036086D01*
X064250Y036146D01*
X064236Y036207D01*
X064226Y036268D01*
X064220Y036331D01*
X064218Y036393D01*
X064218Y043893D02*
X064220Y043955D01*
X064226Y044018D01*
X064236Y044079D01*
X064250Y044140D01*
X064267Y044200D01*
X064288Y044259D01*
X064314Y044316D01*
X064342Y044371D01*
X064374Y044425D01*
X064410Y044476D01*
X064448Y044526D01*
X064490Y044572D01*
X064534Y044616D01*
X064582Y044657D01*
X064631Y044695D01*
X064683Y044729D01*
X064737Y044760D01*
X064793Y044788D01*
X064851Y044812D01*
X064910Y044833D01*
X064970Y044849D01*
X065031Y044862D01*
X065093Y044871D01*
X065155Y044876D01*
X065218Y044877D01*
X065280Y044874D01*
X065342Y044867D01*
X065404Y044856D01*
X065464Y044841D01*
X065524Y044823D01*
X065582Y044801D01*
X065639Y044775D01*
X065694Y044745D01*
X065747Y044712D01*
X065798Y044676D01*
X065846Y044637D01*
X065892Y044594D01*
X065935Y044549D01*
X065975Y044501D01*
X066012Y044451D01*
X066046Y044398D01*
X066077Y044344D01*
X066103Y044288D01*
X066127Y044230D01*
X066146Y044170D01*
X066162Y044110D01*
X066174Y044048D01*
X066182Y043987D01*
X066186Y043924D01*
X066186Y043862D01*
X066182Y043799D01*
X066174Y043738D01*
X066162Y043676D01*
X066146Y043616D01*
X066127Y043556D01*
X066103Y043498D01*
X066077Y043442D01*
X066046Y043388D01*
X066012Y043335D01*
X065975Y043285D01*
X065935Y043237D01*
X065892Y043192D01*
X065846Y043149D01*
X065798Y043110D01*
X065747Y043074D01*
X065694Y043041D01*
X065639Y043011D01*
X065582Y042985D01*
X065524Y042963D01*
X065464Y042945D01*
X065404Y042930D01*
X065342Y042919D01*
X065280Y042912D01*
X065218Y042909D01*
X065155Y042910D01*
X065093Y042915D01*
X065031Y042924D01*
X064970Y042937D01*
X064910Y042953D01*
X064851Y042974D01*
X064793Y042998D01*
X064737Y043026D01*
X064683Y043057D01*
X064631Y043091D01*
X064582Y043129D01*
X064534Y043170D01*
X064490Y043214D01*
X064448Y043260D01*
X064410Y043310D01*
X064374Y043361D01*
X064342Y043415D01*
X064314Y043470D01*
X064288Y043527D01*
X064267Y043586D01*
X064250Y043646D01*
X064236Y043707D01*
X064226Y043768D01*
X064220Y043831D01*
X064218Y043893D01*
D11*
X000139Y004331D02*
X000139Y000126D01*
X000139Y000893D02*
X001163Y000791D01*
X001163Y000768D02*
X000139Y000893D01*
X001163Y000996D01*
X001163Y001019D02*
X001163Y000768D01*
X001163Y000842D02*
X000139Y000893D01*
X001163Y000944D01*
X001163Y001019D02*
X000139Y000893D01*
X070514Y000893D01*
X069491Y000791D01*
X069491Y000768D02*
X070514Y000893D01*
X069491Y000996D01*
X069491Y001019D02*
X069491Y000768D01*
X069491Y000842D02*
X070514Y000893D01*
X069491Y000944D01*
X069491Y001019D02*
X070514Y000893D01*
X070514Y000126D02*
X070514Y003768D01*
X070639Y003893D02*
X076470Y003893D01*
X075702Y003893D02*
X075804Y004917D01*
X075828Y004917D02*
X075702Y003893D01*
X075600Y004917D01*
X075576Y004917D02*
X075828Y004917D01*
X075753Y004917D02*
X075702Y003893D01*
X075651Y004917D01*
X075576Y004917D02*
X075702Y003893D01*
X075702Y056893D01*
X075804Y055870D01*
X075828Y055870D02*
X075702Y056893D01*
X075600Y055870D01*
X075576Y055870D02*
X075828Y055870D01*
X075753Y055870D02*
X075702Y056893D01*
X075651Y055870D01*
X075576Y055870D02*
X075702Y056893D01*
X076470Y056893D02*
X072952Y056893D01*
X072702Y056956D02*
X072702Y060286D01*
X072702Y059518D02*
X071678Y059416D01*
X071678Y059393D02*
X072702Y059518D01*
X071678Y059621D01*
X071678Y059644D02*
X071678Y059393D01*
X071678Y059467D02*
X072702Y059518D01*
X071678Y059569D01*
X071678Y059644D02*
X072702Y059518D01*
X000139Y059518D01*
X001163Y059416D01*
X001163Y059393D02*
X000139Y059518D01*
X001163Y059621D01*
X001163Y059644D02*
X001163Y059393D01*
X001163Y059467D02*
X000139Y059518D01*
X001163Y059569D01*
X001163Y059644D02*
X000139Y059518D01*
X000139Y060286D02*
X000139Y057268D01*
D12*
X033461Y059969D02*
X034307Y059969D01*
X033884Y059969D02*
X033884Y061238D01*
X033461Y060815D01*
X034729Y060815D02*
X034941Y060603D01*
X035364Y060603D01*
X035575Y060392D01*
X035575Y060180D01*
X035364Y059969D01*
X034941Y059969D01*
X034729Y060180D01*
X034729Y060392D01*
X034941Y060603D01*
X034729Y060815D02*
X034729Y061027D01*
X034941Y061238D01*
X035364Y061238D01*
X035575Y061027D01*
X035575Y060815D01*
X035364Y060603D01*
X035998Y060603D02*
X036844Y060603D01*
X037267Y060180D02*
X037478Y060180D01*
X037478Y059969D01*
X037267Y059969D01*
X037267Y060180D01*
X037901Y060180D02*
X038113Y059969D01*
X038536Y059969D01*
X038747Y060180D01*
X038747Y060392D01*
X038536Y060603D01*
X038324Y060603D01*
X038536Y060603D02*
X038747Y060815D01*
X038747Y061027D01*
X038536Y061238D01*
X038113Y061238D01*
X037901Y061027D01*
X036633Y061238D02*
X036633Y059969D01*
X035998Y060603D02*
X036633Y061238D01*
X039170Y060815D02*
X039593Y061238D01*
X039593Y059969D01*
X039170Y059969D02*
X040016Y059969D01*
X073982Y033777D02*
X073982Y033354D01*
X074194Y033143D01*
X073982Y032720D02*
X074194Y032297D01*
X074617Y031874D01*
X074617Y032509D01*
X074828Y032720D01*
X075040Y032720D01*
X075251Y032509D01*
X075251Y032085D01*
X075040Y031874D01*
X074617Y031874D01*
X075040Y031451D02*
X075251Y031451D01*
X075251Y031240D01*
X075040Y031240D01*
X075040Y031451D01*
X074617Y030817D02*
X074617Y029971D01*
X073982Y030605D01*
X075251Y030605D01*
X075040Y029548D02*
X075251Y029337D01*
X075251Y028913D01*
X075040Y028702D01*
X075251Y028279D02*
X075251Y027433D01*
X075251Y027856D02*
X073982Y027856D01*
X074405Y027433D01*
X074194Y028702D02*
X073982Y028913D01*
X073982Y029337D01*
X074194Y029548D01*
X074405Y029548D01*
X074617Y029337D01*
X074828Y029548D01*
X075040Y029548D01*
X074617Y029337D02*
X074617Y029125D01*
X075251Y033143D02*
X074405Y033989D01*
X074194Y033989D01*
X073982Y033777D01*
X075251Y033989D02*
X075251Y033143D01*
X038922Y002613D02*
X038076Y002613D01*
X038076Y001978D01*
X038499Y002190D01*
X038711Y002190D01*
X038922Y001978D01*
X038922Y001555D01*
X038711Y001344D01*
X038288Y001344D01*
X038076Y001555D01*
X037654Y002402D02*
X036808Y001555D01*
X036808Y001344D01*
X036385Y001344D02*
X036173Y001344D01*
X036173Y001555D01*
X036385Y001555D01*
X036385Y001344D01*
X035750Y001555D02*
X035539Y001344D01*
X035116Y001344D01*
X034904Y001555D01*
X034904Y001767D01*
X035116Y001978D01*
X035539Y001978D01*
X035750Y001767D01*
X035750Y001555D01*
X035539Y001978D02*
X035750Y002190D01*
X035750Y002402D01*
X035539Y002613D01*
X035116Y002613D01*
X034904Y002402D01*
X034904Y002190D01*
X035116Y001978D01*
X034482Y002402D02*
X033636Y001555D01*
X033636Y001344D01*
X033213Y001344D02*
X032367Y001344D01*
X032790Y001344D02*
X032790Y002613D01*
X032367Y002190D01*
X033636Y002613D02*
X034482Y002613D01*
X034482Y002402D01*
X036808Y002613D02*
X037654Y002613D01*
X037654Y002402D01*
D13*
X038577Y007143D02*
X032577Y007143D01*
X032577Y013143D01*
X038577Y013143D01*
X038577Y007143D01*
X039577Y007143D02*
X039577Y013143D01*
X033577Y013143D01*
X033577Y007143D01*
X039577Y007143D01*
X042077Y007143D02*
X042077Y013143D01*
X048077Y013143D01*
X048077Y007143D01*
X042077Y007143D01*
X033077Y007143D02*
X033077Y013143D01*
X027077Y013143D01*
X027077Y007143D01*
X033077Y007143D01*
X032077Y007143D02*
X032077Y013143D01*
X026077Y013143D01*
X026077Y007143D01*
X032077Y007143D01*
X024452Y007143D02*
X024452Y013143D01*
X018452Y013143D01*
X018452Y007143D01*
X024452Y007143D01*
X016952Y007143D02*
X016952Y013143D01*
X010952Y013143D01*
X010952Y007143D01*
X016952Y007143D01*
X009452Y007143D02*
X009452Y013143D01*
X003452Y013143D01*
X003452Y007143D01*
X009452Y007143D01*
X004592Y008168D02*
X004517Y008093D01*
X004367Y008093D01*
X004291Y008168D01*
X004592Y008469D01*
X004592Y008168D01*
X004291Y008168D02*
X004291Y008469D01*
X004367Y008544D01*
X004517Y008544D01*
X004592Y008469D01*
X004131Y008093D02*
X003831Y008093D01*
X003981Y008093D02*
X003981Y008544D01*
X003831Y008394D01*
X003671Y008394D02*
X003596Y008318D01*
X003371Y008318D01*
X003371Y008093D02*
X003596Y008093D01*
X003671Y008168D01*
X003671Y008243D01*
X003596Y008318D01*
X003671Y008394D02*
X003671Y008469D01*
X003596Y008544D01*
X003371Y008544D01*
X003371Y008093D01*
X003135Y008168D02*
X003135Y008544D01*
X003060Y008544D02*
X003211Y008544D01*
X003135Y008168D02*
X003060Y008093D01*
X002985Y008093D01*
X002910Y008168D01*
X010952Y014643D02*
X010952Y020643D01*
X016952Y020643D01*
X016952Y014643D01*
X010952Y014643D01*
X006123Y023068D02*
X005823Y023068D01*
X006123Y023369D01*
X006123Y023444D01*
X006048Y023519D01*
X005898Y023519D01*
X005823Y023444D01*
X005663Y023444D02*
X005587Y023519D01*
X005362Y023519D01*
X005362Y023068D01*
X005587Y023068D01*
X005663Y023143D01*
X005663Y023444D01*
X005202Y023068D02*
X004902Y023068D01*
X005052Y023068D02*
X005052Y023519D01*
X004902Y023369D01*
X003452Y025143D02*
X003452Y031143D01*
X009452Y031143D01*
X009452Y025143D01*
X003452Y025143D01*
X010952Y025143D02*
X010952Y031143D01*
X016952Y031143D01*
X016952Y025143D01*
X010952Y025143D01*
X010952Y032643D02*
X010952Y038643D01*
X016952Y038643D01*
X016952Y032643D01*
X010952Y032643D01*
X009452Y032643D02*
X009452Y038643D01*
X003452Y038643D01*
X003452Y032643D01*
X009452Y032643D01*
X009452Y040143D02*
X003452Y040143D01*
X003452Y046143D01*
X009452Y046143D01*
X009452Y040143D01*
X010952Y040143D02*
X010952Y046143D01*
X016952Y046143D01*
X016952Y040143D01*
X010952Y040143D01*
X019014Y039377D02*
X019089Y039452D01*
X019164Y039452D01*
X019239Y039377D01*
X019314Y039452D01*
X019389Y039452D01*
X019464Y039377D01*
X019464Y039227D01*
X019389Y039152D01*
X019314Y038991D02*
X019014Y038991D01*
X019089Y039152D02*
X019014Y039227D01*
X019014Y039377D01*
X019239Y039377D02*
X019239Y039302D01*
X019314Y038991D02*
X019464Y038841D01*
X019314Y038691D01*
X019014Y038691D01*
X019089Y038531D02*
X019014Y038456D01*
X019014Y038306D01*
X019089Y038231D01*
X019164Y038231D01*
X019239Y038306D01*
X019239Y038456D01*
X019314Y038531D01*
X019389Y038531D01*
X019464Y038456D01*
X019464Y038306D01*
X019389Y038231D01*
X019514Y037331D02*
X019514Y037031D01*
X019514Y037181D02*
X019064Y037181D01*
X019214Y037031D01*
X020952Y037143D02*
X020952Y043143D01*
X026952Y043143D01*
X026952Y037143D01*
X020952Y037143D01*
X026452Y035643D02*
X032452Y035643D01*
X032452Y029643D01*
X026452Y029643D01*
X026452Y035643D01*
X028452Y037143D02*
X028452Y043143D01*
X034452Y043143D01*
X034452Y037143D01*
X028452Y037143D01*
X025364Y043281D02*
X025364Y043581D01*
X025364Y043431D02*
X024914Y043431D01*
X025064Y043281D01*
X026158Y044156D02*
X026233Y044081D01*
X026383Y044081D01*
X026458Y044156D01*
X026458Y044231D01*
X026383Y044306D01*
X026233Y044306D01*
X026158Y044381D01*
X026158Y044456D01*
X026233Y044531D01*
X026383Y044531D01*
X026458Y044456D01*
X026619Y044531D02*
X026619Y044231D01*
X026769Y044081D01*
X026919Y044231D01*
X026919Y044531D01*
X027079Y044381D02*
X027229Y044531D01*
X027229Y044081D01*
X027079Y044081D02*
X027379Y044081D01*
X025289Y046831D02*
X025364Y046906D01*
X025364Y047056D01*
X025289Y047131D01*
X025214Y047131D01*
X025139Y047056D01*
X025139Y046981D01*
X025139Y047056D02*
X025064Y047131D01*
X024989Y047131D01*
X024914Y047056D01*
X024914Y046906D01*
X024989Y046831D01*
X025452Y047643D02*
X025452Y053643D01*
X031452Y053643D01*
X031452Y047643D01*
X025452Y047643D01*
X019514Y044256D02*
X019514Y044106D01*
X019439Y044031D01*
X019364Y044031D01*
X019289Y044106D01*
X019289Y044256D01*
X019364Y044331D01*
X019439Y044331D01*
X019514Y044256D01*
X019289Y044256D02*
X019214Y044331D01*
X019139Y044331D01*
X019064Y044256D01*
X019064Y044106D01*
X019139Y044031D01*
X019214Y044031D01*
X019289Y044106D01*
X016952Y047643D02*
X016952Y053643D01*
X010952Y053643D01*
X010952Y047643D01*
X016952Y047643D01*
X009452Y047643D02*
X009452Y053643D01*
X003452Y053643D01*
X003452Y047643D01*
X009452Y047643D01*
X032952Y047643D02*
X032952Y053643D01*
X038952Y053643D01*
X038952Y047643D01*
X032952Y047643D01*
X035952Y043143D02*
X041952Y043143D01*
X041952Y037143D01*
X035952Y037143D01*
X035952Y043143D01*
X040452Y047643D02*
X040452Y053643D01*
X046452Y053643D01*
X046452Y047643D01*
X040452Y047643D01*
X043452Y043143D02*
X049452Y043143D01*
X049452Y037143D01*
X043452Y037143D01*
X043452Y043143D01*
X047952Y047643D02*
X047952Y053643D01*
X053952Y053643D01*
X053952Y047643D01*
X047952Y047643D01*
X050952Y043143D02*
X056952Y043143D01*
X056952Y037143D01*
X050952Y037143D01*
X050952Y043143D01*
X055496Y048393D02*
X055796Y048393D01*
X055646Y048393D02*
X055646Y048844D01*
X055496Y048694D01*
X055956Y048844D02*
X056181Y048844D01*
X056256Y048769D01*
X056256Y048468D01*
X056181Y048393D01*
X055956Y048393D01*
X055956Y048844D01*
X056416Y048694D02*
X056567Y048844D01*
X056567Y048393D01*
X056717Y048393D02*
X056416Y048393D01*
X058452Y047643D02*
X058452Y053643D01*
X064452Y053643D01*
X064452Y047643D01*
X058452Y047643D01*
X058452Y043143D02*
X064452Y043143D01*
X064452Y037143D01*
X058452Y037143D01*
X058452Y043143D01*
X065952Y043143D02*
X065952Y037143D01*
X071952Y037143D01*
X071952Y043143D01*
X065952Y043143D01*
X065952Y047643D02*
X065952Y053643D01*
X071952Y053643D01*
X071952Y047643D01*
X065952Y047643D01*
X065952Y035643D02*
X071952Y035643D01*
X071952Y029643D01*
X065952Y029643D01*
X065952Y035643D01*
X064452Y035643D02*
X064452Y029643D01*
X058452Y029643D01*
X058452Y035643D01*
X064452Y035643D01*
X056952Y035643D02*
X056952Y029643D01*
X050952Y029643D01*
X050952Y035643D01*
X056952Y035643D01*
X049452Y035643D02*
X049452Y029643D01*
X043452Y029643D01*
X043452Y035643D01*
X049452Y035643D01*
X041952Y035643D02*
X041952Y029643D01*
X035952Y029643D01*
X035952Y035643D01*
X041952Y035643D01*
X041952Y028143D02*
X035952Y028143D01*
X035952Y022143D01*
X041952Y022143D01*
X041952Y028143D01*
X043452Y028143D02*
X049452Y028143D01*
X049452Y022143D01*
X043452Y022143D01*
X043452Y028143D01*
X050952Y028143D02*
X050952Y022143D01*
X056952Y022143D01*
X056952Y028143D01*
X050952Y028143D01*
X058452Y028143D02*
X058452Y022143D01*
X064452Y022143D01*
X064452Y028143D01*
X058452Y028143D01*
X065952Y028143D02*
X065952Y022143D01*
X071952Y022143D01*
X071952Y028143D01*
X065952Y028143D01*
X065952Y020643D02*
X071952Y020643D01*
X071952Y014643D01*
X065952Y014643D01*
X065952Y020643D01*
X064452Y020643D02*
X064452Y014643D01*
X058452Y014643D01*
X058452Y020643D01*
X064452Y020643D01*
X056952Y020643D02*
X056952Y014643D01*
X050952Y014643D01*
X050952Y020643D01*
X056952Y020643D01*
X049452Y020643D02*
X049452Y014643D01*
X043452Y014643D01*
X043452Y020643D01*
X049452Y020643D01*
X041952Y020643D02*
X041952Y014643D01*
X035952Y014643D01*
X035952Y020643D01*
X041952Y020643D01*
X031452Y022143D02*
X031452Y028143D01*
X025452Y028143D01*
X025452Y022143D01*
X031452Y022143D01*
X030702Y020643D02*
X030702Y014643D01*
X024702Y014643D01*
X024702Y020643D01*
X030702Y020643D01*
X057202Y013143D02*
X057202Y007143D01*
X063202Y007143D01*
X063202Y013143D01*
X057202Y013143D01*
D14*
X052568Y016615D02*
X052568Y016922D01*
X052261Y016615D01*
X052338Y016538D01*
X052492Y016538D01*
X052568Y016615D01*
X052261Y016615D02*
X052261Y016922D01*
X052338Y016999D01*
X052492Y016999D01*
X052568Y016922D01*
X052108Y016769D02*
X051801Y016769D01*
X052031Y016999D01*
X052031Y016538D01*
X051648Y016615D02*
X051571Y016538D01*
X051417Y016538D01*
X051341Y016615D01*
X051417Y016769D02*
X051571Y016769D01*
X051648Y016692D01*
X051648Y016615D01*
X051417Y016769D02*
X051341Y016845D01*
X051341Y016922D01*
X051417Y016999D01*
X051571Y016999D01*
X051648Y016922D01*
X045068Y016922D02*
X045068Y016615D01*
X044992Y016538D01*
X044838Y016538D01*
X044761Y016615D01*
X044608Y016615D02*
X044531Y016538D01*
X044378Y016538D01*
X044301Y016615D01*
X044148Y016615D02*
X044071Y016538D01*
X043917Y016538D01*
X043841Y016615D01*
X043917Y016769D02*
X044071Y016769D01*
X044148Y016692D01*
X044148Y016615D01*
X043917Y016769D02*
X043841Y016845D01*
X043841Y016922D01*
X043917Y016999D01*
X044071Y016999D01*
X044148Y016922D01*
X044301Y016922D02*
X044378Y016999D01*
X044531Y016999D01*
X044608Y016922D01*
X044608Y016845D01*
X044531Y016769D01*
X044608Y016692D01*
X044608Y016615D01*
X044531Y016769D02*
X044455Y016769D01*
X044761Y016845D02*
X044838Y016769D01*
X045068Y016769D01*
X045068Y016922D02*
X044992Y016999D01*
X044838Y016999D01*
X044761Y016922D01*
X044761Y016845D01*
X038617Y013624D02*
X038386Y013394D01*
X038693Y013394D01*
X038617Y013624D02*
X038617Y013163D01*
X038233Y013394D02*
X037926Y013394D01*
X038156Y013624D01*
X038156Y013163D01*
X037773Y013240D02*
X037696Y013163D01*
X037542Y013163D01*
X037466Y013240D01*
X037542Y013394D02*
X037466Y013470D01*
X037466Y013547D01*
X037542Y013624D01*
X037696Y013624D01*
X037773Y013547D01*
X037696Y013394D02*
X037773Y013317D01*
X037773Y013240D01*
X037696Y013394D02*
X037542Y013394D01*
X036818Y013288D02*
X036818Y013595D01*
X036665Y013749D01*
X036511Y013595D01*
X036511Y013288D01*
X036281Y013288D02*
X036281Y013749D01*
X036051Y013519D01*
X036358Y013519D01*
X036511Y013519D02*
X036818Y013519D01*
X035898Y013519D02*
X035591Y013519D01*
X035821Y013749D01*
X035821Y013288D01*
X035437Y013365D02*
X035360Y013288D01*
X035207Y013288D01*
X035130Y013365D01*
X035207Y013519D02*
X035360Y013519D01*
X035437Y013442D01*
X035437Y013365D01*
X035207Y013519D02*
X035130Y013595D01*
X035130Y013672D01*
X035207Y013749D01*
X035360Y013749D01*
X035437Y013672D01*
X036167Y016288D02*
X036091Y016365D01*
X036167Y016288D02*
X036321Y016288D01*
X036398Y016365D01*
X036398Y016442D01*
X036321Y016519D01*
X036167Y016519D01*
X036091Y016595D01*
X036091Y016672D01*
X036167Y016749D01*
X036321Y016749D01*
X036398Y016672D01*
X036551Y016672D02*
X036628Y016749D01*
X036781Y016749D01*
X036858Y016672D01*
X036858Y016595D01*
X036781Y016519D01*
X036858Y016442D01*
X036858Y016365D01*
X036781Y016288D01*
X036628Y016288D01*
X036551Y016365D01*
X036705Y016519D02*
X036781Y016519D01*
X037011Y016595D02*
X037011Y016672D01*
X037088Y016749D01*
X037242Y016749D01*
X037318Y016672D01*
X037318Y016595D01*
X037242Y016519D01*
X037088Y016519D01*
X037011Y016595D01*
X037088Y016519D02*
X037011Y016442D01*
X037011Y016365D01*
X037088Y016288D01*
X037242Y016288D01*
X037318Y016365D01*
X037318Y016442D01*
X037242Y016519D01*
X032117Y011374D02*
X032193Y011297D01*
X032193Y011220D01*
X032117Y011144D01*
X032193Y011067D01*
X032193Y010990D01*
X032117Y010913D01*
X031963Y010913D01*
X031886Y010990D01*
X031733Y011144D02*
X031426Y011144D01*
X031656Y011374D01*
X031656Y010913D01*
X031273Y010990D02*
X031196Y010913D01*
X031042Y010913D01*
X030966Y010990D01*
X031042Y011144D02*
X031196Y011144D01*
X031273Y011067D01*
X031273Y010990D01*
X031042Y011144D02*
X030966Y011220D01*
X030966Y011297D01*
X031042Y011374D01*
X031196Y011374D01*
X031273Y011297D01*
X031886Y011297D02*
X031963Y011374D01*
X032117Y011374D01*
X032117Y011144D02*
X032040Y011144D01*
X028068Y011038D02*
X027761Y011038D01*
X027608Y011038D02*
X027608Y011345D01*
X027455Y011499D01*
X027301Y011345D01*
X027301Y011038D01*
X027071Y011038D02*
X027071Y011499D01*
X026841Y011269D01*
X027148Y011269D01*
X027301Y011269D02*
X027608Y011269D01*
X027761Y011345D02*
X027915Y011499D01*
X027915Y011038D01*
X026687Y011269D02*
X026380Y011269D01*
X026610Y011499D01*
X026610Y011038D01*
X026227Y011115D02*
X026150Y011038D01*
X025997Y011038D01*
X025920Y011115D01*
X025997Y011269D02*
X026150Y011269D01*
X026227Y011192D01*
X026227Y011115D01*
X025997Y011269D02*
X025920Y011345D01*
X025920Y011422D01*
X025997Y011499D01*
X026150Y011499D01*
X026227Y011422D01*
X027417Y014163D02*
X027341Y014240D01*
X027417Y014163D02*
X027571Y014163D01*
X027648Y014240D01*
X027648Y014317D01*
X027571Y014394D01*
X027417Y014394D01*
X027341Y014470D01*
X027341Y014547D01*
X027417Y014624D01*
X027571Y014624D01*
X027648Y014547D01*
X027801Y014547D02*
X027878Y014624D01*
X028031Y014624D01*
X028108Y014547D01*
X028108Y014470D01*
X028031Y014394D01*
X028108Y014317D01*
X028108Y014240D01*
X028031Y014163D01*
X027878Y014163D01*
X027801Y014240D01*
X027955Y014394D02*
X028031Y014394D01*
X028261Y014240D02*
X028261Y014163D01*
X028261Y014240D02*
X028568Y014547D01*
X028568Y014624D01*
X028261Y014624D01*
X023742Y007749D02*
X023588Y007749D01*
X023511Y007672D01*
X023742Y007749D02*
X023818Y007672D01*
X023818Y007595D01*
X023511Y007288D01*
X023818Y007288D01*
X023358Y007288D02*
X023051Y007288D01*
X023205Y007288D02*
X023205Y007749D01*
X023051Y007595D01*
X022898Y007672D02*
X022821Y007749D01*
X022667Y007749D01*
X022591Y007672D01*
X022591Y007595D01*
X022667Y007519D01*
X022821Y007519D01*
X022898Y007442D01*
X022898Y007365D01*
X022821Y007288D01*
X022667Y007288D01*
X022591Y007365D01*
X016318Y007288D02*
X016011Y007288D01*
X015858Y007288D02*
X015551Y007288D01*
X015705Y007288D02*
X015705Y007749D01*
X015551Y007595D01*
X015398Y007672D02*
X015321Y007749D01*
X015167Y007749D01*
X015091Y007672D01*
X015091Y007595D01*
X015167Y007519D01*
X015321Y007519D01*
X015398Y007442D01*
X015398Y007365D01*
X015321Y007288D01*
X015167Y007288D01*
X015091Y007365D01*
X016011Y007595D02*
X016165Y007749D01*
X016165Y007288D01*
X016242Y014788D02*
X016318Y014865D01*
X016318Y015172D01*
X016242Y015249D01*
X016088Y015249D01*
X016011Y015172D01*
X016011Y015095D01*
X016088Y015019D01*
X016318Y015019D01*
X016242Y014788D02*
X016088Y014788D01*
X016011Y014865D01*
X015858Y014865D02*
X015781Y014788D01*
X015628Y014788D01*
X015551Y014865D01*
X015628Y015019D02*
X015781Y015019D01*
X015858Y014942D01*
X015858Y014865D01*
X015628Y015019D02*
X015551Y015095D01*
X015551Y015172D01*
X015628Y015249D01*
X015781Y015249D01*
X015858Y015172D01*
X005693Y011047D02*
X005386Y010740D01*
X005463Y010663D01*
X005617Y010663D01*
X005693Y010740D01*
X005693Y011047D01*
X005617Y011124D01*
X005463Y011124D01*
X005386Y011047D01*
X005386Y010740D01*
X005233Y010663D02*
X004926Y010663D01*
X005080Y010663D02*
X005080Y011124D01*
X004926Y010970D01*
X004773Y011047D02*
X004696Y011124D01*
X004542Y011124D01*
X004466Y011047D01*
X004466Y010970D01*
X004542Y010894D01*
X004696Y010894D01*
X004773Y010817D01*
X004773Y010740D01*
X004696Y010663D01*
X004542Y010663D01*
X004466Y010740D01*
X004511Y026788D02*
X004511Y026865D01*
X004818Y027172D01*
X004818Y027249D01*
X004511Y027249D01*
X004358Y027172D02*
X004281Y027249D01*
X004128Y027249D01*
X004051Y027172D01*
X004051Y027095D01*
X004128Y027019D01*
X004281Y027019D01*
X004358Y026942D01*
X004358Y026865D01*
X004281Y026788D01*
X004128Y026788D01*
X004051Y026865D01*
X011051Y028865D02*
X011128Y028788D01*
X011281Y028788D01*
X011358Y028865D01*
X011358Y028942D01*
X011281Y029019D01*
X011128Y029019D01*
X011051Y029095D01*
X011051Y029172D01*
X011128Y029249D01*
X011281Y029249D01*
X011358Y029172D01*
X011511Y029172D02*
X011511Y029095D01*
X011588Y029019D01*
X011742Y029019D01*
X011818Y028942D01*
X011818Y028865D01*
X011742Y028788D01*
X011588Y028788D01*
X011511Y028865D01*
X011511Y028942D01*
X011588Y029019D01*
X011742Y029019D02*
X011818Y029095D01*
X011818Y029172D01*
X011742Y029249D01*
X011588Y029249D01*
X011511Y029172D01*
X004318Y034365D02*
X004242Y034288D01*
X004088Y034288D01*
X004011Y034365D01*
X003858Y034365D02*
X003781Y034288D01*
X003628Y034288D01*
X003551Y034365D01*
X003628Y034519D02*
X003781Y034519D01*
X003858Y034442D01*
X003858Y034365D01*
X004011Y034519D02*
X004165Y034595D01*
X004242Y034595D01*
X004318Y034519D01*
X004318Y034365D01*
X004011Y034519D02*
X004011Y034749D01*
X004318Y034749D01*
X003858Y034672D02*
X003781Y034749D01*
X003628Y034749D01*
X003551Y034672D01*
X003551Y034595D01*
X003628Y034519D01*
X011301Y036365D02*
X011378Y036288D01*
X011531Y036288D01*
X011608Y036365D01*
X011608Y036442D01*
X011531Y036519D01*
X011378Y036519D01*
X011301Y036595D01*
X011301Y036672D01*
X011378Y036749D01*
X011531Y036749D01*
X011608Y036672D01*
X011761Y036519D02*
X011992Y036519D01*
X012068Y036442D01*
X012068Y036365D01*
X011992Y036288D01*
X011838Y036288D01*
X011761Y036365D01*
X011761Y036519D01*
X011915Y036672D01*
X012068Y036749D01*
X012299Y043788D02*
X012222Y043865D01*
X012299Y043788D02*
X012452Y043788D01*
X012529Y043865D01*
X012529Y043942D01*
X012452Y044019D01*
X012299Y044019D01*
X012222Y044095D01*
X012222Y044172D01*
X012299Y044249D01*
X012452Y044249D01*
X012529Y044172D01*
X012682Y044019D02*
X012989Y044019D01*
X012912Y044249D02*
X012682Y044019D01*
X012912Y043788D02*
X012912Y044249D01*
X012068Y049538D02*
X011761Y049538D01*
X012068Y049845D01*
X012068Y049922D01*
X011992Y049999D01*
X011838Y049999D01*
X011761Y049922D01*
X011608Y049922D02*
X011531Y049999D01*
X011378Y049999D01*
X011301Y049922D01*
X011301Y049845D01*
X011378Y049769D01*
X011531Y049769D01*
X011608Y049692D01*
X011608Y049615D01*
X011531Y049538D01*
X011378Y049538D01*
X011301Y049615D01*
X004318Y051288D02*
X004011Y051288D01*
X004165Y051288D02*
X004165Y051749D01*
X004011Y051595D01*
X003858Y051672D02*
X003781Y051749D01*
X003628Y051749D01*
X003551Y051672D01*
X003551Y051595D01*
X003628Y051519D01*
X003781Y051519D01*
X003858Y051442D01*
X003858Y051365D01*
X003781Y051288D01*
X003628Y051288D01*
X003551Y051365D01*
X004128Y044124D02*
X004051Y044047D01*
X004051Y043970D01*
X004128Y043894D01*
X004281Y043894D01*
X004358Y043817D01*
X004358Y043740D01*
X004281Y043663D01*
X004128Y043663D01*
X004051Y043740D01*
X004128Y044124D02*
X004281Y044124D01*
X004358Y044047D01*
X004511Y044047D02*
X004588Y044124D01*
X004742Y044124D01*
X004818Y044047D01*
X004818Y043970D01*
X004742Y043894D01*
X004818Y043817D01*
X004818Y043740D01*
X004742Y043663D01*
X004588Y043663D01*
X004511Y043740D01*
X004665Y043894D02*
X004742Y043894D01*
X021716Y041047D02*
X021716Y040970D01*
X021792Y040894D01*
X021946Y040894D01*
X022023Y040817D01*
X022023Y040740D01*
X021946Y040663D01*
X021792Y040663D01*
X021716Y040740D01*
X021716Y041047D02*
X021792Y041124D01*
X021946Y041124D01*
X022023Y041047D01*
X022176Y041047D02*
X022176Y040970D01*
X022253Y040894D01*
X022406Y040894D01*
X022483Y040817D01*
X022483Y040740D01*
X022406Y040663D01*
X022253Y040663D01*
X022176Y040740D01*
X022176Y040817D01*
X022253Y040894D01*
X022406Y040894D02*
X022483Y040970D01*
X022483Y041047D01*
X022406Y041124D01*
X022253Y041124D01*
X022176Y041047D01*
X022636Y041047D02*
X022636Y040970D01*
X022713Y040894D01*
X022867Y040894D01*
X022943Y040817D01*
X022943Y040740D01*
X022867Y040663D01*
X022713Y040663D01*
X022636Y040740D01*
X022636Y040817D01*
X022713Y040894D01*
X022867Y040894D02*
X022943Y040970D01*
X022943Y041047D01*
X022867Y041124D01*
X022713Y041124D01*
X022636Y041047D01*
X029091Y039422D02*
X029091Y039345D01*
X029167Y039269D01*
X029321Y039269D01*
X029398Y039192D01*
X029398Y039115D01*
X029321Y039038D01*
X029167Y039038D01*
X029091Y039115D01*
X029091Y039422D02*
X029167Y039499D01*
X029321Y039499D01*
X029398Y039422D01*
X029551Y039345D02*
X029705Y039499D01*
X029705Y039038D01*
X029858Y039038D02*
X029551Y039038D01*
X030011Y039115D02*
X030088Y039038D01*
X030242Y039038D01*
X030318Y039115D01*
X030318Y039422D01*
X030242Y039499D01*
X030088Y039499D01*
X030011Y039422D01*
X030011Y039345D01*
X030088Y039269D01*
X030318Y039269D01*
X036091Y039172D02*
X036091Y039095D01*
X036167Y039019D01*
X036321Y039019D01*
X036398Y038942D01*
X036398Y038865D01*
X036321Y038788D01*
X036167Y038788D01*
X036091Y038865D01*
X036091Y039172D02*
X036167Y039249D01*
X036321Y039249D01*
X036398Y039172D01*
X036551Y039172D02*
X036628Y039249D01*
X036781Y039249D01*
X036858Y039172D01*
X036858Y039095D01*
X036551Y038788D01*
X036858Y038788D01*
X037011Y038865D02*
X037318Y039172D01*
X037318Y038865D01*
X037242Y038788D01*
X037088Y038788D01*
X037011Y038865D01*
X037011Y039172D01*
X037088Y039249D01*
X037242Y039249D01*
X037318Y039172D01*
X043841Y039115D02*
X043917Y039038D01*
X044071Y039038D01*
X044148Y039115D01*
X044148Y039192D01*
X044071Y039269D01*
X043917Y039269D01*
X043841Y039345D01*
X043841Y039422D01*
X043917Y039499D01*
X044071Y039499D01*
X044148Y039422D01*
X044301Y039422D02*
X044378Y039499D01*
X044531Y039499D01*
X044608Y039422D01*
X044608Y039345D01*
X044301Y039038D01*
X044608Y039038D01*
X044761Y039038D02*
X045068Y039038D01*
X044915Y039038D02*
X044915Y039499D01*
X044761Y039345D01*
X051091Y039172D02*
X051091Y039095D01*
X051167Y039019D01*
X051321Y039019D01*
X051398Y038942D01*
X051398Y038865D01*
X051321Y038788D01*
X051167Y038788D01*
X051091Y038865D01*
X051091Y039172D02*
X051167Y039249D01*
X051321Y039249D01*
X051398Y039172D01*
X051551Y039172D02*
X051628Y039249D01*
X051781Y039249D01*
X051858Y039172D01*
X051858Y039095D01*
X051551Y038788D01*
X051858Y038788D01*
X052011Y038788D02*
X052318Y039095D01*
X052318Y039172D01*
X052242Y039249D01*
X052088Y039249D01*
X052011Y039172D01*
X052011Y038788D02*
X052318Y038788D01*
X059341Y039115D02*
X059417Y039038D01*
X059571Y039038D01*
X059648Y039115D01*
X059648Y039192D01*
X059571Y039269D01*
X059417Y039269D01*
X059341Y039345D01*
X059341Y039422D01*
X059417Y039499D01*
X059571Y039499D01*
X059648Y039422D01*
X059801Y039422D02*
X059878Y039499D01*
X060031Y039499D01*
X060108Y039422D01*
X060108Y039345D01*
X059801Y039038D01*
X060108Y039038D01*
X060261Y039115D02*
X060338Y039038D01*
X060492Y039038D01*
X060568Y039115D01*
X060568Y039192D01*
X060492Y039269D01*
X060415Y039269D01*
X060492Y039269D02*
X060568Y039345D01*
X060568Y039422D01*
X060492Y039499D01*
X060338Y039499D01*
X060261Y039422D01*
X066091Y040865D02*
X066167Y040788D01*
X066321Y040788D01*
X066398Y040865D01*
X066398Y040942D01*
X066321Y041019D01*
X066167Y041019D01*
X066091Y041095D01*
X066091Y041172D01*
X066167Y041249D01*
X066321Y041249D01*
X066398Y041172D01*
X066551Y041172D02*
X066628Y041249D01*
X066781Y041249D01*
X066858Y041172D01*
X066858Y041095D01*
X066551Y040788D01*
X066858Y040788D01*
X067011Y041019D02*
X067318Y041019D01*
X067242Y041249D02*
X067011Y041019D01*
X067242Y041249D02*
X067242Y040788D01*
X070167Y047788D02*
X070091Y047865D01*
X070167Y047788D02*
X070321Y047788D01*
X070398Y047865D01*
X070398Y047942D01*
X070321Y048019D01*
X070167Y048019D01*
X070091Y048095D01*
X070091Y048172D01*
X070167Y048249D01*
X070321Y048249D01*
X070398Y048172D01*
X070551Y048095D02*
X070705Y048249D01*
X070705Y047788D01*
X070858Y047788D02*
X070551Y047788D01*
X071011Y047865D02*
X071011Y047942D01*
X071088Y048019D01*
X071242Y048019D01*
X071318Y047942D01*
X071318Y047865D01*
X071242Y047788D01*
X071088Y047788D01*
X071011Y047865D01*
X071088Y048019D02*
X071011Y048095D01*
X071011Y048172D01*
X071088Y048249D01*
X071242Y048249D01*
X071318Y048172D01*
X071318Y048095D01*
X071242Y048019D01*
X059818Y051547D02*
X059511Y051240D01*
X059511Y051163D01*
X059358Y051163D02*
X059051Y051163D01*
X059205Y051163D02*
X059205Y051624D01*
X059051Y051470D01*
X058898Y051547D02*
X058821Y051624D01*
X058667Y051624D01*
X058591Y051547D01*
X058591Y051470D01*
X058667Y051394D01*
X058821Y051394D01*
X058898Y051317D01*
X058898Y051240D01*
X058821Y051163D01*
X058667Y051163D01*
X058591Y051240D01*
X059511Y051624D02*
X059818Y051624D01*
X059818Y051547D01*
X049568Y049999D02*
X049415Y049922D01*
X049261Y049769D01*
X049492Y049769D01*
X049568Y049692D01*
X049568Y049615D01*
X049492Y049538D01*
X049338Y049538D01*
X049261Y049615D01*
X049261Y049769D01*
X049108Y049538D02*
X048801Y049538D01*
X048955Y049538D02*
X048955Y049999D01*
X048801Y049845D01*
X048648Y049922D02*
X048571Y049999D01*
X048417Y049999D01*
X048341Y049922D01*
X048341Y049845D01*
X048417Y049769D01*
X048571Y049769D01*
X048648Y049692D01*
X048648Y049615D01*
X048571Y049538D01*
X048417Y049538D01*
X048341Y049615D01*
X042568Y049740D02*
X042492Y049663D01*
X042338Y049663D01*
X042261Y049740D01*
X042261Y049894D02*
X042415Y049970D01*
X042492Y049970D01*
X042568Y049894D01*
X042568Y049740D01*
X042261Y049894D02*
X042261Y050124D01*
X042568Y050124D01*
X041955Y050124D02*
X041955Y049663D01*
X042108Y049663D02*
X041801Y049663D01*
X041648Y049740D02*
X041571Y049663D01*
X041417Y049663D01*
X041341Y049740D01*
X041417Y049894D02*
X041341Y049970D01*
X041341Y050047D01*
X041417Y050124D01*
X041571Y050124D01*
X041648Y050047D01*
X041801Y049970D02*
X041955Y050124D01*
X041648Y049817D02*
X041648Y049740D01*
X041648Y049817D02*
X041571Y049894D01*
X041417Y049894D01*
X034318Y049519D02*
X034011Y049519D01*
X034242Y049749D01*
X034242Y049288D01*
X033858Y049288D02*
X033551Y049288D01*
X033705Y049288D02*
X033705Y049749D01*
X033551Y049595D01*
X033398Y049672D02*
X033321Y049749D01*
X033167Y049749D01*
X033091Y049672D01*
X033091Y049595D01*
X033167Y049519D01*
X033321Y049519D01*
X033398Y049442D01*
X033398Y049365D01*
X033321Y049288D01*
X033167Y049288D01*
X033091Y049365D01*
X027068Y049615D02*
X026992Y049538D01*
X026838Y049538D01*
X026761Y049615D01*
X026608Y049538D02*
X026301Y049538D01*
X026455Y049538D02*
X026455Y049999D01*
X026301Y049845D01*
X026148Y049922D02*
X026071Y049999D01*
X025917Y049999D01*
X025841Y049922D01*
X025841Y049845D01*
X025917Y049769D01*
X026071Y049769D01*
X026148Y049692D01*
X026148Y049615D01*
X026071Y049538D01*
X025917Y049538D01*
X025841Y049615D01*
X026761Y049922D02*
X026838Y049999D01*
X026992Y049999D01*
X027068Y049922D01*
X027068Y049845D01*
X026992Y049769D01*
X027068Y049692D01*
X027068Y049615D01*
X026992Y049769D02*
X026915Y049769D01*
X036167Y031749D02*
X036091Y031672D01*
X036091Y031595D01*
X036167Y031519D01*
X036321Y031519D01*
X036398Y031442D01*
X036398Y031365D01*
X036321Y031288D01*
X036167Y031288D01*
X036091Y031365D01*
X036167Y031749D02*
X036321Y031749D01*
X036398Y031672D01*
X036551Y031672D02*
X036628Y031749D01*
X036781Y031749D01*
X036858Y031672D01*
X036858Y031595D01*
X036551Y031288D01*
X036858Y031288D01*
X037011Y031365D02*
X037088Y031288D01*
X037242Y031288D01*
X037318Y031365D01*
X037318Y031442D01*
X037242Y031519D01*
X037011Y031519D01*
X037011Y031365D01*
X037011Y031519D02*
X037165Y031672D01*
X037318Y031749D01*
X031818Y030249D02*
X031511Y030249D01*
X031511Y030019D01*
X031665Y030095D01*
X031742Y030095D01*
X031818Y030019D01*
X031818Y029865D01*
X031742Y029788D01*
X031588Y029788D01*
X031511Y029865D01*
X031358Y029788D02*
X031051Y029788D01*
X031358Y030095D01*
X031358Y030172D01*
X031281Y030249D01*
X031128Y030249D01*
X031051Y030172D01*
X030898Y030172D02*
X030821Y030249D01*
X030667Y030249D01*
X030591Y030172D01*
X030591Y030095D01*
X030667Y030019D01*
X030821Y030019D01*
X030898Y029942D01*
X030898Y029865D01*
X030821Y029788D01*
X030667Y029788D01*
X030591Y029865D01*
X036167Y024249D02*
X036091Y024172D01*
X036091Y024095D01*
X036167Y024019D01*
X036321Y024019D01*
X036398Y023942D01*
X036398Y023865D01*
X036321Y023788D01*
X036167Y023788D01*
X036091Y023865D01*
X036167Y024249D02*
X036321Y024249D01*
X036398Y024172D01*
X036551Y024172D02*
X036628Y024249D01*
X036781Y024249D01*
X036858Y024172D01*
X036858Y024095D01*
X036781Y024019D01*
X036858Y023942D01*
X036858Y023865D01*
X036781Y023788D01*
X036628Y023788D01*
X036551Y023865D01*
X036705Y024019D02*
X036781Y024019D01*
X037011Y024172D02*
X037088Y024249D01*
X037242Y024249D01*
X037318Y024172D01*
X037318Y024095D01*
X037011Y023788D01*
X037318Y023788D01*
X043591Y023865D02*
X043667Y023788D01*
X043821Y023788D01*
X043898Y023865D01*
X043898Y023942D01*
X043821Y024019D01*
X043667Y024019D01*
X043591Y024095D01*
X043591Y024172D01*
X043667Y024249D01*
X043821Y024249D01*
X043898Y024172D01*
X044051Y024172D02*
X044128Y024249D01*
X044281Y024249D01*
X044358Y024172D01*
X044358Y024095D01*
X044281Y024019D01*
X044358Y023942D01*
X044358Y023865D01*
X044281Y023788D01*
X044128Y023788D01*
X044051Y023865D01*
X044205Y024019D02*
X044281Y024019D01*
X044511Y024172D02*
X044588Y024249D01*
X044742Y024249D01*
X044818Y024172D01*
X044818Y024095D01*
X044742Y024019D01*
X044818Y023942D01*
X044818Y023865D01*
X044742Y023788D01*
X044588Y023788D01*
X044511Y023865D01*
X044665Y024019D02*
X044742Y024019D01*
X051341Y024115D02*
X051417Y024038D01*
X051571Y024038D01*
X051648Y024115D01*
X051648Y024192D01*
X051571Y024269D01*
X051417Y024269D01*
X051341Y024345D01*
X051341Y024422D01*
X051417Y024499D01*
X051571Y024499D01*
X051648Y024422D01*
X051801Y024422D02*
X051878Y024499D01*
X052031Y024499D01*
X052108Y024422D01*
X052108Y024345D01*
X052031Y024269D01*
X052108Y024192D01*
X052108Y024115D01*
X052031Y024038D01*
X051878Y024038D01*
X051801Y024115D01*
X051955Y024269D02*
X052031Y024269D01*
X052261Y024269D02*
X052568Y024269D01*
X052492Y024499D02*
X052261Y024269D01*
X052492Y024499D02*
X052492Y024038D01*
X058591Y024115D02*
X058667Y024038D01*
X058821Y024038D01*
X058898Y024115D01*
X058898Y024192D01*
X058821Y024269D01*
X058667Y024269D01*
X058591Y024345D01*
X058591Y024422D01*
X058667Y024499D01*
X058821Y024499D01*
X058898Y024422D01*
X059051Y024422D02*
X059128Y024499D01*
X059281Y024499D01*
X059358Y024422D01*
X059358Y024345D01*
X059281Y024269D01*
X059358Y024192D01*
X059358Y024115D01*
X059281Y024038D01*
X059128Y024038D01*
X059051Y024115D01*
X059205Y024269D02*
X059281Y024269D01*
X059511Y024269D02*
X059665Y024345D01*
X059742Y024345D01*
X059818Y024269D01*
X059818Y024115D01*
X059742Y024038D01*
X059588Y024038D01*
X059511Y024115D01*
X059511Y024269D02*
X059511Y024499D01*
X059818Y024499D01*
X066091Y024422D02*
X066091Y024345D01*
X066167Y024269D01*
X066321Y024269D01*
X066398Y024192D01*
X066398Y024115D01*
X066321Y024038D01*
X066167Y024038D01*
X066091Y024115D01*
X066091Y024422D02*
X066167Y024499D01*
X066321Y024499D01*
X066398Y024422D01*
X066551Y024422D02*
X066628Y024499D01*
X066781Y024499D01*
X066858Y024422D01*
X066858Y024345D01*
X066781Y024269D01*
X066858Y024192D01*
X066858Y024115D01*
X066781Y024038D01*
X066628Y024038D01*
X066551Y024115D01*
X066705Y024269D02*
X066781Y024269D01*
X067011Y024269D02*
X067242Y024269D01*
X067318Y024192D01*
X067318Y024115D01*
X067242Y024038D01*
X067088Y024038D01*
X067011Y024115D01*
X067011Y024269D01*
X067165Y024422D01*
X067318Y024499D01*
X059665Y018749D02*
X059665Y018288D01*
X059818Y018288D02*
X059511Y018288D01*
X059281Y018288D02*
X059281Y018749D01*
X059051Y018519D01*
X059358Y018519D01*
X059511Y018595D02*
X059665Y018749D01*
X058898Y018672D02*
X058821Y018749D01*
X058667Y018749D01*
X058591Y018672D01*
X058591Y018595D01*
X058667Y018519D01*
X058821Y018519D01*
X058898Y018442D01*
X058898Y018365D01*
X058821Y018288D01*
X058667Y018288D01*
X058591Y018365D01*
X066091Y016922D02*
X066091Y016845D01*
X066167Y016769D01*
X066321Y016769D01*
X066398Y016692D01*
X066398Y016615D01*
X066321Y016538D01*
X066167Y016538D01*
X066091Y016615D01*
X066091Y016922D02*
X066167Y016999D01*
X066321Y016999D01*
X066398Y016922D01*
X066551Y016769D02*
X066858Y016769D01*
X067011Y016922D02*
X067088Y016999D01*
X067242Y016999D01*
X067318Y016922D01*
X067318Y016845D01*
X067011Y016538D01*
X067318Y016538D01*
X066781Y016538D02*
X066781Y016999D01*
X066551Y016769D01*
X061318Y008374D02*
X061165Y008297D01*
X061011Y008144D01*
X061242Y008144D01*
X061318Y008067D01*
X061318Y007990D01*
X061242Y007913D01*
X061088Y007913D01*
X061011Y007990D01*
X061011Y008144D01*
X060858Y008144D02*
X060551Y008144D01*
X060781Y008374D01*
X060781Y007913D01*
X060398Y007990D02*
X060398Y008067D01*
X060321Y008144D01*
X060167Y008144D01*
X060091Y008220D01*
X060091Y008297D01*
X060167Y008374D01*
X060321Y008374D01*
X060398Y008297D01*
X060398Y007990D02*
X060321Y007913D01*
X060167Y007913D01*
X060091Y007990D01*
X043818Y010740D02*
X043742Y010663D01*
X043588Y010663D01*
X043511Y010740D01*
X043511Y010894D02*
X043665Y010970D01*
X043742Y010970D01*
X043818Y010894D01*
X043818Y010740D01*
X043511Y010894D02*
X043511Y011124D01*
X043818Y011124D01*
X043358Y010894D02*
X043051Y010894D01*
X043281Y011124D01*
X043281Y010663D01*
X042898Y010740D02*
X042821Y010663D01*
X042667Y010663D01*
X042591Y010740D01*
X042667Y010894D02*
X042821Y010894D01*
X042898Y010817D01*
X042898Y010740D01*
X042667Y010894D02*
X042591Y010970D01*
X042591Y011047D01*
X042667Y011124D01*
X042821Y011124D01*
X042898Y011047D01*
X030818Y022288D02*
X030511Y022288D01*
X030665Y022288D02*
X030665Y022749D01*
X030511Y022595D01*
X030358Y022595D02*
X030281Y022519D01*
X030358Y022442D01*
X030358Y022365D01*
X030281Y022288D01*
X030128Y022288D01*
X030051Y022365D01*
X029898Y022365D02*
X029821Y022288D01*
X029667Y022288D01*
X029591Y022365D01*
X029667Y022519D02*
X029821Y022519D01*
X029898Y022442D01*
X029898Y022365D01*
X029667Y022519D02*
X029591Y022595D01*
X029591Y022672D01*
X029667Y022749D01*
X029821Y022749D01*
X029898Y022672D01*
X030051Y022672D02*
X030128Y022749D01*
X030281Y022749D01*
X030358Y022672D01*
X030358Y022595D01*
X030281Y022519D02*
X030205Y022519D01*
X043841Y031615D02*
X043917Y031538D01*
X044071Y031538D01*
X044148Y031615D01*
X044148Y031692D01*
X044071Y031769D01*
X043917Y031769D01*
X043841Y031845D01*
X043841Y031922D01*
X043917Y031999D01*
X044071Y031999D01*
X044148Y031922D01*
X044301Y031922D02*
X044378Y031999D01*
X044531Y031999D01*
X044608Y031922D01*
X044608Y031845D01*
X044301Y031538D01*
X044608Y031538D01*
X044761Y031538D02*
X044761Y031615D01*
X045068Y031922D01*
X045068Y031999D01*
X044761Y031999D01*
X051091Y031672D02*
X051091Y031595D01*
X051167Y031519D01*
X051321Y031519D01*
X051398Y031442D01*
X051398Y031365D01*
X051321Y031288D01*
X051167Y031288D01*
X051091Y031365D01*
X051091Y031672D02*
X051167Y031749D01*
X051321Y031749D01*
X051398Y031672D01*
X051551Y031672D02*
X051628Y031749D01*
X051781Y031749D01*
X051858Y031672D01*
X051858Y031595D01*
X051551Y031288D01*
X051858Y031288D01*
X052011Y031365D02*
X052011Y031442D01*
X052088Y031519D01*
X052242Y031519D01*
X052318Y031442D01*
X052318Y031365D01*
X052242Y031288D01*
X052088Y031288D01*
X052011Y031365D01*
X052088Y031519D02*
X052011Y031595D01*
X052011Y031672D01*
X052088Y031749D01*
X052242Y031749D01*
X052318Y031672D01*
X052318Y031595D01*
X052242Y031519D01*
X058841Y031615D02*
X058917Y031538D01*
X059071Y031538D01*
X059148Y031615D01*
X059148Y031692D01*
X059071Y031769D01*
X058917Y031769D01*
X058841Y031845D01*
X058841Y031922D01*
X058917Y031999D01*
X059071Y031999D01*
X059148Y031922D01*
X059301Y031922D02*
X059378Y031999D01*
X059531Y031999D01*
X059608Y031922D01*
X059608Y031845D01*
X059301Y031538D01*
X059608Y031538D01*
X059761Y031615D02*
X059838Y031538D01*
X059992Y031538D01*
X060068Y031615D01*
X060068Y031922D01*
X059992Y031999D01*
X059838Y031999D01*
X059761Y031922D01*
X059761Y031845D01*
X059838Y031769D01*
X060068Y031769D01*
X066091Y031672D02*
X066091Y031595D01*
X066167Y031519D01*
X066321Y031519D01*
X066398Y031442D01*
X066398Y031365D01*
X066321Y031288D01*
X066167Y031288D01*
X066091Y031365D01*
X066091Y031672D02*
X066167Y031749D01*
X066321Y031749D01*
X066398Y031672D01*
X066551Y031672D02*
X066628Y031749D01*
X066781Y031749D01*
X066858Y031672D01*
X066858Y031595D01*
X066781Y031519D01*
X066858Y031442D01*
X066858Y031365D01*
X066781Y031288D01*
X066628Y031288D01*
X066551Y031365D01*
X066705Y031519D02*
X066781Y031519D01*
X067011Y031365D02*
X067011Y031672D01*
X067088Y031749D01*
X067242Y031749D01*
X067318Y031672D01*
X067011Y031365D01*
X067088Y031288D01*
X067242Y031288D01*
X067318Y031365D01*
X067318Y031672D01*
D15*
X065409Y029100D02*
X072495Y036187D01*
X072495Y029100D01*
X065409Y036187D01*
X065409Y029100D01*
X072495Y029100D01*
X072495Y028687D02*
X065409Y021600D01*
X072495Y021600D01*
X065409Y028687D01*
X065409Y021600D01*
X065409Y021187D02*
X072495Y014100D01*
X072495Y021187D01*
X065409Y014100D01*
X072495Y014100D01*
X070438Y013687D02*
X049966Y006600D01*
X070438Y006600D01*
X049966Y013687D01*
X049966Y006600D01*
X049604Y006600D02*
X040549Y013687D01*
X040549Y006600D01*
X049604Y013687D01*
X049604Y006600D01*
X040549Y006600D01*
X040120Y006663D02*
X033034Y013749D01*
X033034Y006663D01*
X040120Y013749D01*
X033034Y013749D01*
X032620Y013687D02*
X025534Y006600D01*
X032620Y006600D01*
X025534Y013687D01*
X025534Y006600D01*
X025549Y006600D02*
X034604Y013687D01*
X034604Y006600D01*
X025549Y013687D01*
X025549Y006600D01*
X034604Y006600D01*
X033034Y006663D02*
X040120Y006663D01*
X040120Y013749D01*
X040104Y013687D02*
X031049Y006600D01*
X040104Y006600D01*
X031049Y013687D01*
X031049Y006600D01*
X032620Y006600D02*
X032620Y013687D01*
X025534Y013687D01*
X025549Y013687D02*
X034604Y013687D01*
X034985Y014100D02*
X020418Y021187D01*
X020418Y014100D01*
X034985Y021187D01*
X034985Y014100D01*
X020418Y014100D01*
X017909Y013687D02*
X024995Y006600D01*
X024995Y013687D01*
X017909Y006600D01*
X024995Y006600D01*
X017909Y006600D02*
X017909Y013687D01*
X024995Y013687D01*
X031049Y013687D02*
X040104Y013687D01*
X040104Y006600D01*
X040549Y013687D02*
X049604Y013687D01*
X049966Y013687D02*
X070438Y013687D01*
X070438Y006600D01*
X065409Y014100D02*
X065409Y021187D01*
X072495Y021187D01*
X072495Y021600D02*
X072495Y028687D01*
X065409Y028687D01*
X064995Y028687D02*
X057909Y021600D01*
X064995Y021600D01*
X057909Y028687D01*
X057909Y021600D01*
X057909Y021187D02*
X064995Y014100D01*
X064995Y021187D01*
X057909Y014100D01*
X064995Y014100D01*
X057909Y014100D02*
X057909Y021187D01*
X064995Y021187D01*
X064995Y021600D02*
X064995Y028687D01*
X057909Y028687D01*
X057909Y029100D02*
X064995Y036187D01*
X064995Y029100D01*
X057909Y036187D01*
X057909Y029100D01*
X064995Y029100D01*
X057495Y029100D02*
X050409Y036187D01*
X050409Y029100D01*
X057495Y036187D01*
X057495Y029100D01*
X050409Y029100D01*
X050409Y028687D02*
X057495Y021600D01*
X057495Y028687D01*
X050409Y021600D01*
X057495Y021600D01*
X057495Y021187D02*
X050409Y014100D01*
X057495Y014100D01*
X050409Y021187D01*
X050409Y014100D01*
X049995Y014100D02*
X042909Y021187D01*
X049995Y021187D01*
X042909Y014100D01*
X049995Y014100D01*
X049995Y021187D01*
X049995Y021600D02*
X042909Y028687D01*
X049995Y028687D01*
X042909Y021600D01*
X049995Y021600D01*
X049995Y028687D01*
X049995Y029100D02*
X042909Y036187D01*
X049995Y036187D01*
X042909Y029100D01*
X049995Y029100D01*
X049995Y036187D01*
X049995Y036600D02*
X042909Y043687D01*
X049995Y043687D01*
X042909Y036600D01*
X049995Y036600D01*
X049995Y043687D01*
X050409Y043687D02*
X057495Y036600D01*
X057495Y043687D01*
X050409Y036600D01*
X057495Y036600D01*
X057495Y036187D02*
X050409Y036187D01*
X050409Y036600D02*
X050409Y043687D01*
X057495Y043687D01*
X057909Y043687D02*
X064995Y036600D01*
X064995Y043687D01*
X057909Y036600D01*
X064995Y036600D01*
X064995Y036187D02*
X057909Y036187D01*
X057909Y036600D02*
X057909Y043687D01*
X064995Y043687D01*
X065409Y043687D02*
X072495Y036600D01*
X072495Y043687D01*
X065409Y036600D01*
X072495Y036600D01*
X072495Y036187D02*
X065409Y036187D01*
X065409Y036600D02*
X065409Y043687D01*
X072495Y043687D01*
X072495Y047100D02*
X065409Y054187D01*
X065409Y047100D01*
X072495Y054187D01*
X072495Y047100D01*
X065409Y047100D01*
X064995Y047100D02*
X057909Y054187D01*
X057909Y047100D01*
X064995Y054187D01*
X064995Y047100D01*
X057909Y047100D01*
X054495Y047100D02*
X047409Y054187D01*
X047409Y047100D01*
X054495Y054187D01*
X054495Y047100D01*
X047409Y047100D01*
X046995Y047100D02*
X039909Y054187D01*
X039909Y047100D01*
X046995Y054187D01*
X046995Y047100D01*
X039909Y047100D01*
X039495Y047100D02*
X032409Y054187D01*
X032409Y047100D01*
X039495Y054187D01*
X039495Y047100D01*
X032409Y047100D01*
X031995Y047100D02*
X024909Y054187D01*
X024909Y047100D01*
X031995Y054187D01*
X031995Y047100D01*
X024909Y047100D01*
X027495Y043687D02*
X020409Y043687D01*
X027495Y036600D01*
X027495Y043687D01*
X020409Y036600D01*
X027495Y036600D01*
X027909Y036600D02*
X034995Y043687D01*
X034995Y036600D01*
X027909Y043687D01*
X027909Y036600D01*
X034995Y036600D01*
X035409Y036600D02*
X042495Y043687D01*
X042495Y036600D01*
X035409Y043687D01*
X035409Y036600D01*
X042495Y036600D01*
X042495Y036187D02*
X035409Y029100D01*
X042495Y029100D01*
X035409Y036187D01*
X035409Y029100D01*
X035409Y028687D02*
X042495Y021600D01*
X042495Y028687D01*
X035409Y021600D01*
X042495Y021600D01*
X042495Y021187D02*
X035409Y014100D01*
X042495Y014100D01*
X035409Y021187D01*
X035409Y014100D01*
X042495Y014100D02*
X042495Y021187D01*
X035409Y021187D01*
X035409Y021600D02*
X035409Y028687D01*
X042495Y028687D01*
X042495Y029100D02*
X042495Y036187D01*
X035409Y036187D01*
X034964Y036187D02*
X023940Y029100D01*
X034964Y029100D01*
X023940Y036187D01*
X023940Y029100D01*
X021956Y028687D02*
X034948Y021600D01*
X034948Y028687D01*
X021956Y021600D01*
X034948Y021600D01*
X034985Y021187D02*
X020418Y021187D01*
X021956Y021600D02*
X021956Y028687D01*
X034948Y028687D01*
X034964Y029100D02*
X034964Y036187D01*
X023940Y036187D01*
X020409Y036600D02*
X020409Y043687D01*
X017495Y046687D02*
X010409Y039600D01*
X017495Y039600D01*
X010409Y046687D01*
X010409Y039600D01*
X010409Y039187D02*
X017495Y032100D01*
X017495Y039187D01*
X010409Y032100D01*
X017495Y032100D01*
X017495Y031687D02*
X010409Y024600D01*
X017495Y024600D01*
X010409Y031687D01*
X010409Y024600D01*
X009995Y024600D02*
X002909Y031687D01*
X002909Y024600D01*
X009995Y031687D01*
X009995Y024600D01*
X002909Y024600D01*
X010409Y021187D02*
X017495Y014100D01*
X017495Y021187D01*
X010409Y014100D01*
X017495Y014100D01*
X017495Y013687D02*
X010409Y006600D01*
X017495Y006600D01*
X010409Y013687D01*
X017495Y013687D01*
X017495Y006600D01*
X010409Y006600D02*
X010409Y013687D01*
X010409Y014100D02*
X010409Y021187D01*
X017495Y021187D01*
X017495Y024600D02*
X017495Y031687D01*
X010409Y031687D01*
X010409Y032100D02*
X010409Y039187D01*
X017495Y039187D01*
X017495Y039600D02*
X017495Y046687D01*
X010409Y046687D01*
X010409Y047100D02*
X017495Y054187D01*
X017495Y047100D01*
X010409Y054187D01*
X010409Y047100D01*
X017495Y047100D01*
X009995Y047100D02*
X002909Y054187D01*
X002909Y047100D01*
X009995Y054187D01*
X009995Y047100D01*
X002909Y047100D01*
X002909Y046687D02*
X009995Y039600D01*
X009995Y046687D01*
X002909Y039600D01*
X009995Y039600D01*
X009995Y039187D02*
X002909Y032100D01*
X009995Y032100D01*
X002909Y039187D01*
X002909Y032100D01*
X002909Y031687D02*
X009995Y031687D01*
X009995Y032100D02*
X009995Y039187D01*
X002909Y039187D01*
X002909Y039600D02*
X002909Y046687D01*
X009995Y046687D01*
X009995Y054187D02*
X002909Y054187D01*
X010409Y054187D02*
X017495Y054187D01*
X024909Y054187D02*
X031995Y054187D01*
X032409Y054187D02*
X039495Y054187D01*
X039909Y054187D02*
X046995Y054187D01*
X047409Y054187D02*
X054495Y054187D01*
X057909Y054187D02*
X064995Y054187D01*
X065409Y054187D02*
X072495Y054187D01*
X042909Y043687D02*
X042909Y036600D01*
X042909Y036187D02*
X042909Y029100D01*
X042909Y028687D02*
X042909Y021600D01*
X042909Y021187D02*
X042909Y014100D01*
X050409Y021187D02*
X057495Y021187D01*
X057495Y014100D01*
X050409Y021600D02*
X050409Y028687D01*
X057495Y028687D01*
X042495Y043687D02*
X035409Y043687D01*
X034995Y043687D02*
X027909Y043687D01*
X009995Y013687D02*
X002909Y013687D01*
X009995Y006600D01*
X009995Y013687D01*
X002909Y006600D01*
X009995Y006600D01*
X002909Y006600D02*
X002909Y013687D01*
D16*
X006302Y014893D02*
X007052Y014893D01*
X007054Y014932D01*
X007060Y014971D01*
X007069Y015009D01*
X007082Y015046D01*
X007099Y015082D01*
X007119Y015115D01*
X007143Y015147D01*
X007169Y015176D01*
X007198Y015202D01*
X007230Y015226D01*
X007263Y015246D01*
X007299Y015263D01*
X007336Y015276D01*
X007374Y015285D01*
X007413Y015291D01*
X007452Y015293D01*
X007491Y015291D01*
X007530Y015285D01*
X007568Y015276D01*
X007605Y015263D01*
X007641Y015246D01*
X007674Y015226D01*
X007706Y015202D01*
X007735Y015176D01*
X007761Y015147D01*
X007785Y015115D01*
X007805Y015082D01*
X007822Y015046D01*
X007835Y015009D01*
X007844Y014971D01*
X007850Y014932D01*
X007852Y014893D01*
X008602Y014893D01*
X008602Y021893D01*
X006302Y021893D01*
X006302Y014893D01*
X009762Y011243D02*
X009762Y010534D01*
X010392Y010534D02*
X010392Y011243D01*
X015342Y021578D02*
X016051Y021578D01*
X016051Y022208D02*
X015342Y022208D01*
X015342Y022453D02*
X016051Y022453D01*
X016051Y023083D02*
X015342Y023083D01*
X015342Y023328D02*
X016051Y023328D01*
X016051Y023958D02*
X015342Y023958D01*
X015342Y024203D02*
X016051Y024203D01*
X016051Y024833D02*
X015342Y024833D01*
X015342Y025078D02*
X016051Y025078D01*
X016051Y025708D02*
X015342Y025708D01*
X017842Y025703D02*
X018551Y025703D01*
X018551Y025333D02*
X017842Y025333D01*
X017842Y024703D02*
X018551Y024703D01*
X018551Y024333D02*
X017842Y024333D01*
X017842Y023703D02*
X018551Y023703D01*
X018551Y023333D02*
X017842Y023333D01*
X017842Y022703D02*
X018551Y022703D01*
X018551Y022333D02*
X017842Y022333D01*
X017842Y021703D02*
X018551Y021703D01*
X018551Y026333D02*
X017842Y026333D01*
X016892Y031284D02*
X016892Y031993D01*
X016262Y031993D02*
X016262Y031284D01*
X019639Y036706D02*
X019639Y037606D01*
X019739Y037706D01*
X019639Y037806D01*
X019639Y038606D01*
X019739Y038706D01*
X019639Y038806D01*
X019639Y039606D01*
X019739Y039706D01*
X019639Y039806D01*
X019639Y040606D01*
X019739Y040706D01*
X019639Y040806D01*
X019639Y041606D01*
X019739Y041706D01*
X019639Y041806D01*
X019639Y042606D01*
X019739Y042706D01*
X019639Y042806D01*
X019639Y043606D01*
X019739Y043706D01*
X019639Y043806D01*
X019639Y044706D01*
X020639Y044706D01*
X020639Y043806D01*
X020539Y043706D01*
X020639Y043606D01*
X020639Y042806D01*
X020539Y042706D01*
X020639Y042606D01*
X020639Y041806D01*
X020539Y041706D01*
X020639Y041606D01*
X020639Y040806D01*
X020539Y040706D01*
X020639Y040606D01*
X020639Y039806D01*
X020539Y039706D01*
X020639Y039606D01*
X020639Y038806D01*
X020539Y038706D01*
X020639Y038606D01*
X020639Y037806D01*
X020539Y037706D01*
X020639Y037606D01*
X020639Y036706D01*
X019639Y036706D01*
X019939Y037006D02*
X020339Y037006D01*
X020339Y037106D01*
X020439Y037106D01*
X020439Y037306D01*
X020339Y037306D01*
X020339Y037406D01*
X019939Y037406D01*
X019939Y037306D01*
X019839Y037306D01*
X019839Y037106D01*
X019939Y037106D01*
X019939Y037006D01*
X019939Y038006D02*
X020339Y038006D01*
X020339Y038106D01*
X020439Y038106D01*
X020439Y038306D01*
X020339Y038306D01*
X020339Y038406D01*
X019939Y038406D01*
X019939Y038306D01*
X019839Y038306D01*
X019839Y038106D01*
X019939Y038106D01*
X019939Y038006D01*
X019939Y039006D02*
X020339Y039006D01*
X020339Y039106D01*
X020439Y039106D01*
X020439Y039306D01*
X020339Y039306D01*
X020339Y039406D01*
X019939Y039406D01*
X019939Y039306D01*
X019839Y039306D01*
X019839Y039106D01*
X019939Y039106D01*
X019939Y039006D01*
X019939Y040006D02*
X020339Y040006D01*
X020339Y040106D01*
X020439Y040106D01*
X020439Y040306D01*
X020339Y040306D01*
X020339Y040406D01*
X019939Y040406D01*
X019939Y040306D01*
X019839Y040306D01*
X019839Y040106D01*
X019939Y040106D01*
X019939Y040006D01*
X019939Y041006D02*
X020339Y041006D01*
X020339Y041106D01*
X020439Y041106D01*
X020439Y041306D01*
X020339Y041306D01*
X020339Y041406D01*
X019939Y041406D01*
X019939Y041306D01*
X019839Y041306D01*
X019839Y041106D01*
X019939Y041106D01*
X019939Y041006D01*
X019939Y042006D02*
X020339Y042006D01*
X020339Y042106D01*
X020439Y042106D01*
X020439Y042306D01*
X020339Y042306D01*
X020339Y042406D01*
X019939Y042406D01*
X019939Y042306D01*
X019839Y042306D01*
X019839Y042106D01*
X019939Y042106D01*
X019939Y042006D01*
X019939Y043006D02*
X020339Y043006D01*
X020339Y043106D01*
X020439Y043106D01*
X020439Y043306D01*
X020339Y043306D01*
X020339Y043406D01*
X019939Y043406D01*
X019939Y043306D01*
X019839Y043306D01*
X019839Y043106D01*
X019939Y043106D01*
X019939Y043006D01*
X019939Y044006D02*
X020339Y044006D01*
X020339Y044106D01*
X020439Y044106D01*
X020439Y044306D01*
X020339Y044306D01*
X020339Y044406D01*
X019939Y044406D01*
X019939Y044306D01*
X019839Y044306D01*
X019839Y044106D01*
X019939Y044106D01*
X019939Y044006D01*
X016554Y047112D02*
X016052Y047613D01*
X015607Y047168D02*
X016108Y046666D01*
X017637Y047794D02*
X017637Y048503D01*
X018267Y048503D02*
X018267Y047794D01*
X024639Y046606D02*
X024639Y045806D01*
X024739Y045706D01*
X024639Y045606D01*
X024639Y044806D01*
X024739Y044706D01*
X024639Y044606D01*
X024639Y043706D01*
X025639Y043706D01*
X025639Y044606D01*
X025539Y044706D01*
X025639Y044806D01*
X025639Y045606D01*
X025539Y045706D01*
X025639Y045806D01*
X025639Y046606D01*
X025539Y046706D01*
X025514Y046706D02*
X024764Y046706D01*
X024739Y046706D02*
X024639Y046606D01*
X024839Y046306D02*
X024839Y046106D01*
X024939Y046106D01*
X024939Y046006D01*
X025339Y046006D01*
X025339Y046106D01*
X025439Y046106D01*
X025439Y046306D01*
X025339Y046306D01*
X025339Y046406D01*
X024939Y046406D01*
X024939Y046306D01*
X024839Y046306D01*
X024939Y045406D02*
X024939Y045306D01*
X024839Y045306D01*
X024839Y045106D01*
X024939Y045106D01*
X024939Y045006D01*
X025339Y045006D01*
X025339Y045106D01*
X025439Y045106D01*
X025439Y045306D01*
X025339Y045306D01*
X025339Y045406D01*
X024939Y045406D01*
X024939Y044406D02*
X024939Y044306D01*
X024839Y044306D01*
X024839Y044106D01*
X024939Y044106D01*
X024939Y044006D01*
X025339Y044006D01*
X025339Y044106D01*
X025439Y044106D01*
X025439Y044306D01*
X025339Y044306D01*
X025339Y044406D01*
X024939Y044406D01*
X028717Y044453D02*
X029426Y044453D01*
X029426Y044083D02*
X028717Y044083D01*
X028717Y043453D02*
X029426Y043453D01*
X029426Y045083D02*
X028717Y045083D01*
X028717Y045453D02*
X029426Y045453D01*
X029426Y046083D02*
X028717Y046083D01*
X025642Y052294D02*
X025642Y053003D01*
X025012Y053003D02*
X025012Y052294D01*
X036217Y045583D02*
X036926Y045583D01*
X036926Y044953D02*
X036217Y044953D01*
X036217Y044708D02*
X036926Y044708D01*
X036926Y044078D02*
X036217Y044078D01*
X036217Y043833D02*
X036926Y043833D01*
X036926Y043203D02*
X036217Y043203D01*
X042592Y042953D02*
X043301Y042953D01*
X043301Y043583D02*
X042592Y043583D01*
X042592Y043953D02*
X043301Y043953D01*
X043301Y044583D02*
X042592Y044583D01*
X042592Y044953D02*
X043301Y044953D01*
X043301Y045583D02*
X042592Y045583D01*
X042602Y045953D02*
X043311Y045953D01*
X043311Y046583D02*
X042602Y046583D01*
X050977Y046328D02*
X051686Y046328D01*
X051676Y046083D02*
X050967Y046083D01*
X050967Y045453D02*
X051676Y045453D01*
X051467Y045083D02*
X052176Y045083D01*
X052176Y044453D02*
X051467Y044453D01*
X051467Y044208D02*
X052176Y044208D01*
X052176Y043578D02*
X051467Y043578D01*
X052952Y044243D02*
X052952Y044993D01*
X052991Y044995D01*
X053030Y045001D01*
X053068Y045010D01*
X053105Y045023D01*
X053141Y045040D01*
X053174Y045060D01*
X053206Y045084D01*
X053235Y045110D01*
X053261Y045139D01*
X053285Y045171D01*
X053305Y045204D01*
X053322Y045240D01*
X053335Y045277D01*
X053344Y045315D01*
X053350Y045354D01*
X053352Y045393D01*
X053350Y045432D01*
X053344Y045471D01*
X053335Y045509D01*
X053322Y045546D01*
X053305Y045582D01*
X053285Y045615D01*
X053261Y045647D01*
X053235Y045676D01*
X053206Y045702D01*
X053174Y045726D01*
X053141Y045746D01*
X053105Y045763D01*
X053068Y045776D01*
X053030Y045785D01*
X052991Y045791D01*
X052952Y045793D01*
X052952Y046543D01*
X060952Y046543D01*
X060952Y044243D01*
X052952Y044243D01*
X051686Y046958D02*
X050977Y046958D01*
X054762Y050784D02*
X054762Y051493D01*
X055392Y051493D02*
X055392Y050784D01*
X055887Y050784D02*
X055887Y051493D01*
X056517Y051493D02*
X056517Y050784D01*
X057012Y050784D02*
X057012Y051493D01*
X057642Y051493D02*
X057642Y050784D01*
X067512Y045743D02*
X067512Y045034D01*
X068142Y045034D02*
X068142Y045743D01*
X055767Y037503D02*
X055767Y036794D01*
X055137Y036794D02*
X055137Y037503D01*
X055012Y029743D02*
X055012Y029034D01*
X055642Y029034D02*
X055642Y029743D01*
X062637Y029743D02*
X062637Y029034D01*
X063267Y029034D02*
X063267Y029743D01*
X063517Y022503D02*
X063517Y021794D01*
X062887Y021794D02*
X062887Y022503D01*
X055892Y022503D02*
X055892Y021794D01*
X055262Y021794D02*
X055262Y022503D01*
X048517Y022493D02*
X048517Y021784D01*
X047887Y021784D02*
X047887Y022493D01*
X041017Y022493D02*
X041017Y021784D01*
X040387Y021784D02*
X040387Y022493D01*
X040137Y029034D02*
X040137Y029743D01*
X040767Y029743D02*
X040767Y029034D01*
X047637Y029034D02*
X047637Y029743D01*
X048267Y029743D02*
X048267Y029034D01*
X043392Y038669D02*
X043392Y039378D01*
X042762Y039378D02*
X042762Y038669D01*
X033142Y037503D02*
X033142Y036794D01*
X032512Y036794D02*
X032512Y037503D01*
X029142Y037503D02*
X029142Y036794D01*
X028512Y036794D02*
X028512Y037503D01*
X028017Y037493D02*
X028017Y036784D01*
X027387Y036784D02*
X027387Y037493D01*
X031637Y029743D02*
X031637Y029034D01*
X032267Y029034D02*
X032267Y029743D01*
X030517Y022493D02*
X030517Y021784D01*
X029887Y021784D02*
X029887Y022493D01*
X014517Y039294D02*
X014517Y040003D01*
X013887Y040003D02*
X013887Y039294D01*
X010267Y041419D02*
X010267Y042128D01*
X009637Y042128D02*
X009637Y041419D01*
X007547Y039744D02*
X007045Y040245D01*
X006600Y039800D02*
X007101Y039298D01*
X003936Y034583D02*
X003227Y034583D01*
X003227Y033953D02*
X003936Y033953D01*
X003852Y032833D02*
X004561Y032833D01*
X004561Y032203D02*
X003852Y032203D01*
X003842Y031958D02*
X004551Y031958D01*
X004551Y031328D02*
X003842Y031328D01*
X007512Y032034D02*
X007512Y032743D01*
X008142Y032743D02*
X008142Y032034D01*
X006892Y024618D02*
X006892Y023909D01*
X006262Y023909D02*
X006262Y024618D01*
X010012Y049044D02*
X010012Y049753D01*
X010642Y049753D02*
X010642Y049044D01*
D17*
X010326Y048896D03*
X010326Y049896D03*
X017951Y048646D03*
X017951Y047646D03*
X025326Y052146D03*
X025326Y053146D03*
X014201Y040146D03*
X014201Y039146D03*
X009951Y041271D03*
X009951Y042271D03*
X007827Y032891D03*
X007827Y031891D03*
X006577Y024766D03*
X006577Y023766D03*
X016577Y031141D03*
X016577Y032141D03*
X027702Y036641D03*
X027702Y037641D03*
X028826Y037646D03*
X028826Y036646D03*
X032826Y036646D03*
X032826Y037646D03*
X031952Y029891D03*
X031952Y028891D03*
X030202Y022641D03*
X030202Y021641D03*
X040452Y028891D03*
X040452Y029891D03*
X047952Y029891D03*
X047952Y028891D03*
X048202Y022641D03*
X048202Y021641D03*
X040702Y021641D03*
X040702Y022641D03*
X055576Y022646D03*
X055576Y021646D03*
X063201Y021646D03*
X063201Y022646D03*
X062952Y028891D03*
X062952Y029891D03*
X055327Y029891D03*
X055327Y028891D03*
X055451Y036646D03*
X055451Y037646D03*
X043076Y038521D03*
X043076Y039521D03*
X055077Y050641D03*
X055077Y051641D03*
X056202Y051641D03*
X057327Y051641D03*
X057327Y050641D03*
X056202Y050641D03*
X067827Y045891D03*
X067827Y044891D03*
X010077Y011391D03*
X010077Y010391D03*
D18*
X015200Y021893D03*
X015200Y022768D03*
X015200Y023643D03*
X015200Y024518D03*
X015200Y025393D03*
X016200Y025393D03*
X016200Y024518D03*
X016200Y023643D03*
X016200Y022768D03*
X016200Y021893D03*
X017700Y022018D03*
X018700Y022018D03*
X018700Y023018D03*
X018700Y024018D03*
X017700Y024018D03*
X017700Y023018D03*
X017700Y025018D03*
X018700Y025018D03*
X018700Y026018D03*
X017700Y026018D03*
X004700Y031643D03*
X004704Y032519D03*
X003704Y032519D03*
X003700Y031643D03*
X004079Y034269D03*
X003079Y034269D03*
G36*
X007289Y039069D02*
X007081Y039277D01*
X007567Y039763D01*
X007775Y039555D01*
X007289Y039069D01*
G37*
G36*
X006582Y039776D02*
X006374Y039984D01*
X006860Y040470D01*
X007068Y040262D01*
X006582Y039776D01*
G37*
G36*
X015864Y047843D02*
X016072Y047635D01*
X015586Y047149D01*
X015378Y047357D01*
X015864Y047843D01*
G37*
G36*
X016571Y047135D02*
X016779Y046927D01*
X016293Y046441D01*
X016085Y046649D01*
X016571Y047135D01*
G37*
X028575Y045768D03*
X029575Y045768D03*
X029575Y044768D03*
X028575Y044768D03*
X028575Y043768D03*
X029575Y043768D03*
X036075Y043518D03*
X036075Y044393D03*
X037075Y044393D03*
X037075Y043518D03*
X037075Y045268D03*
X036075Y045268D03*
X042450Y045268D03*
X043450Y045268D03*
X043454Y046269D03*
X042454Y046269D03*
X042450Y044268D03*
X043450Y044268D03*
X043450Y043268D03*
X042450Y043268D03*
X050825Y045768D03*
X051825Y045768D03*
X052325Y044768D03*
X051325Y044768D03*
X051325Y043893D03*
X052325Y043893D03*
X051829Y046644D03*
X050829Y046644D03*
D19*
X025339Y046206D03*
X024939Y046206D03*
X024939Y045206D03*
X025339Y045206D03*
X025339Y044206D03*
X024939Y044206D03*
X020339Y044206D03*
X019939Y044206D03*
X019939Y043206D03*
X020339Y043206D03*
X020339Y042206D03*
X019939Y042206D03*
X019939Y041206D03*
X020339Y041206D03*
X020339Y040206D03*
X019939Y040206D03*
X019939Y039206D03*
X020339Y039206D03*
X020339Y038206D03*
X019939Y038206D03*
X019939Y037206D03*
X020339Y037206D03*
D20*
X025025Y020714D02*
X025418Y020714D01*
X025025Y020714D02*
X024986Y020712D01*
X024948Y020706D01*
X024911Y020697D01*
X024874Y020684D01*
X024839Y020667D01*
X024806Y020648D01*
X024775Y020625D01*
X024746Y020599D01*
X024720Y020570D01*
X024697Y020539D01*
X024678Y020506D01*
X024661Y020471D01*
X024648Y020434D01*
X024639Y020397D01*
X024633Y020359D01*
X024631Y020320D01*
X024631Y019927D01*
X029985Y020714D02*
X030379Y020714D01*
X030418Y020712D01*
X030456Y020706D01*
X030493Y020697D01*
X030530Y020684D01*
X030565Y020667D01*
X030598Y020648D01*
X030629Y020625D01*
X030658Y020599D01*
X030684Y020570D01*
X030707Y020539D01*
X030726Y020506D01*
X030743Y020471D01*
X030756Y020434D01*
X030765Y020397D01*
X030771Y020359D01*
X030773Y020320D01*
X030773Y019927D01*
X030773Y015360D02*
X030773Y014966D01*
X030771Y014927D01*
X030765Y014889D01*
X030756Y014852D01*
X030743Y014815D01*
X030726Y014780D01*
X030707Y014747D01*
X030684Y014716D01*
X030658Y014687D01*
X030629Y014661D01*
X030598Y014638D01*
X030565Y014619D01*
X030530Y014602D01*
X030493Y014589D01*
X030456Y014580D01*
X030418Y014574D01*
X030379Y014572D01*
X029985Y014572D01*
X025418Y014572D02*
X025025Y014572D01*
X024986Y014574D01*
X024948Y014580D01*
X024911Y014589D01*
X024874Y014602D01*
X024839Y014619D01*
X024806Y014638D01*
X024775Y014661D01*
X024746Y014687D01*
X024720Y014716D01*
X024697Y014747D01*
X024678Y014780D01*
X024661Y014815D01*
X024648Y014852D01*
X024639Y014889D01*
X024633Y014927D01*
X024631Y014966D01*
X024631Y015360D01*
X057131Y012820D02*
X057131Y012427D01*
X057131Y012820D02*
X057133Y012859D01*
X057139Y012897D01*
X057148Y012934D01*
X057161Y012971D01*
X057178Y013006D01*
X057197Y013039D01*
X057220Y013070D01*
X057246Y013099D01*
X057275Y013125D01*
X057306Y013148D01*
X057339Y013167D01*
X057374Y013184D01*
X057411Y013197D01*
X057448Y013206D01*
X057486Y013212D01*
X057525Y013214D01*
X057918Y013214D01*
X062485Y013214D02*
X062879Y013214D01*
X062918Y013212D01*
X062956Y013206D01*
X062993Y013197D01*
X063030Y013184D01*
X063065Y013167D01*
X063098Y013148D01*
X063129Y013125D01*
X063158Y013099D01*
X063184Y013070D01*
X063207Y013039D01*
X063226Y013006D01*
X063243Y012971D01*
X063256Y012934D01*
X063265Y012897D01*
X063271Y012859D01*
X063273Y012820D01*
X063273Y012427D01*
X063273Y007860D02*
X063273Y007466D01*
X063271Y007427D01*
X063265Y007389D01*
X063256Y007352D01*
X063243Y007315D01*
X063226Y007280D01*
X063207Y007247D01*
X063184Y007216D01*
X063158Y007187D01*
X063129Y007161D01*
X063098Y007138D01*
X063065Y007119D01*
X063030Y007102D01*
X062993Y007089D01*
X062956Y007080D01*
X062918Y007074D01*
X062879Y007072D01*
X062485Y007072D01*
X057918Y007072D02*
X057525Y007072D01*
X057486Y007074D01*
X057448Y007080D01*
X057411Y007089D01*
X057374Y007102D01*
X057339Y007119D01*
X057306Y007138D01*
X057275Y007161D01*
X057246Y007187D01*
X057220Y007216D01*
X057197Y007247D01*
X057178Y007280D01*
X057161Y007315D01*
X057148Y007352D01*
X057139Y007389D01*
X057133Y007427D01*
X057131Y007466D01*
X057131Y007860D01*
M02*
