G75*
G70*
%OFA0B0*%
%FSLAX24Y24*%
%IPPOS*%
%LPD*%
%AMOC8*
5,1,8,0,0,1.08239X$1,22.5*
%
%ADD10C,0.1580*%
%ADD11C,0.1092*%
%ADD12C,0.0474*%
%ADD13C,0.0940*%
%ADD14C,0.1261*%
%ADD15R,0.0710X0.0540*%
%ADD16R,0.0540X0.0710*%
%ADD17R,0.0060X0.0720*%
%ADD18R,0.0720X0.0060*%
%ADD19R,0.0789X0.0631*%
%ADD20R,0.0631X0.0789*%
%ADD21R,0.0907X0.0907*%
%ADD22R,0.0789X0.0552*%
%ADD23R,0.0671X0.0592*%
%ADD24R,0.0552X0.0671*%
%ADD25R,0.0671X0.0552*%
%ADD26C,0.1655*%
%ADD27C,0.0595*%
%ADD28C,0.0907*%
%ADD29R,0.0552X0.0789*%
%ADD30C,0.1281*%
%ADD31C,0.1655*%
%ADD32C,0.0986*%
%ADD33R,0.0986X0.0986*%
%ADD34C,0.2049*%
%ADD35C,0.0867*%
D10*
X005452Y008143D03*
X007952Y009143D03*
X012952Y008143D03*
X015452Y009143D03*
X020452Y008143D03*
X022952Y009143D03*
X028077Y008143D03*
X029077Y008143D03*
X030577Y009143D03*
X031577Y009143D03*
X034577Y008143D03*
X035577Y008143D03*
X037077Y009143D03*
X038077Y009143D03*
X044077Y008143D03*
X046577Y009143D03*
X045452Y015643D03*
X047952Y016643D03*
X052952Y015643D03*
X055452Y016643D03*
X060452Y015643D03*
X062952Y016643D03*
X067952Y015643D03*
X070452Y016643D03*
X067952Y023143D03*
X070452Y024143D03*
X062952Y024143D03*
X060452Y023143D03*
X055452Y024143D03*
X052952Y023143D03*
X047952Y024143D03*
X045452Y023143D03*
X040452Y024143D03*
X037952Y023143D03*
X029952Y024143D03*
X027452Y023143D03*
X029202Y016643D03*
X026702Y015643D03*
X015452Y016643D03*
X012952Y015643D03*
X012952Y026143D03*
X015452Y027143D03*
X007952Y027143D03*
X005452Y026143D03*
X005452Y033643D03*
X007952Y034643D03*
X012952Y033643D03*
X015452Y034643D03*
X022952Y038143D03*
X025452Y039143D03*
X030452Y038143D03*
X032952Y039143D03*
X037952Y038143D03*
X040452Y039143D03*
X045452Y038143D03*
X047952Y039143D03*
X052952Y038143D03*
X055452Y039143D03*
X060452Y038143D03*
X062952Y039143D03*
X067952Y038143D03*
X070452Y039143D03*
X070452Y031643D03*
X067952Y030643D03*
X062952Y031643D03*
X060452Y030643D03*
X055452Y031643D03*
X052952Y030643D03*
X047952Y031643D03*
X045452Y030643D03*
X040452Y031643D03*
X037952Y030643D03*
X030952Y031643D03*
X028452Y030643D03*
X015452Y042143D03*
X012952Y041143D03*
X007952Y042143D03*
X005452Y041143D03*
X005452Y048643D03*
X007952Y049643D03*
X012952Y048643D03*
X015452Y049643D03*
X027452Y048643D03*
X029952Y049643D03*
X034952Y048643D03*
X037452Y049643D03*
X042452Y048643D03*
X044952Y049643D03*
X049952Y048643D03*
X052452Y049643D03*
X060452Y048643D03*
X062952Y049643D03*
X067952Y048643D03*
X070452Y049643D03*
X040452Y016643D03*
X037952Y015643D03*
X059202Y008143D03*
X061702Y009143D03*
D11*
X062202Y010143D03*
X058202Y010143D03*
X059452Y017643D03*
X055952Y017643D03*
X051952Y017643D03*
X048452Y017643D03*
X044452Y017643D03*
X040952Y017643D03*
X036952Y017643D03*
X029702Y017643D03*
X025702Y017643D03*
X026452Y025143D03*
X030452Y025143D03*
X036952Y025143D03*
X040952Y025143D03*
X044452Y025143D03*
X048452Y025143D03*
X051952Y025143D03*
X055952Y025143D03*
X059452Y025143D03*
X063452Y025143D03*
X066952Y025143D03*
X070952Y025143D03*
X070952Y017643D03*
X066952Y017643D03*
X063452Y017643D03*
X047077Y010143D03*
X043077Y010143D03*
X038577Y010143D03*
X037577Y010143D03*
X034577Y010143D03*
X033577Y010143D03*
X032077Y010143D03*
X031077Y010143D03*
X028077Y010143D03*
X027077Y010143D03*
X023452Y010143D03*
X019452Y010143D03*
X015952Y010143D03*
X011952Y010143D03*
X008452Y010143D03*
X004452Y010143D03*
X011952Y017643D03*
X015952Y017643D03*
X015952Y028143D03*
X011952Y028143D03*
X008452Y028143D03*
X004452Y028143D03*
X004452Y035643D03*
X008452Y035643D03*
X011952Y035643D03*
X015952Y035643D03*
X021952Y040143D03*
X025952Y040143D03*
X029452Y040143D03*
X033452Y040143D03*
X036952Y040143D03*
X040952Y040143D03*
X044452Y040143D03*
X048452Y040143D03*
X051952Y040143D03*
X055952Y040143D03*
X059452Y040143D03*
X063452Y040143D03*
X066952Y040143D03*
X070952Y040143D03*
X070952Y032643D03*
X066952Y032643D03*
X063452Y032643D03*
X059452Y032643D03*
X055952Y032643D03*
X051952Y032643D03*
X048452Y032643D03*
X044452Y032643D03*
X040952Y032643D03*
X036952Y032643D03*
X031452Y032643D03*
X027452Y032643D03*
X015952Y043143D03*
X011952Y043143D03*
X008452Y043143D03*
X004452Y043143D03*
X004452Y050643D03*
X008452Y050643D03*
X011952Y050643D03*
X015952Y050643D03*
X026452Y050643D03*
X030452Y050643D03*
X033952Y050643D03*
X037952Y050643D03*
X041452Y050643D03*
X045452Y050643D03*
X048952Y050643D03*
X052952Y050643D03*
X059452Y050643D03*
X063452Y050643D03*
X066952Y050643D03*
X070952Y050643D03*
D12*
X068952Y050643D03*
X061452Y050643D03*
X050952Y050643D03*
X043452Y050643D03*
X035952Y050643D03*
X028452Y050643D03*
X031452Y040143D03*
X038952Y040143D03*
X046452Y040143D03*
X053952Y040143D03*
X061452Y040143D03*
X068952Y040143D03*
X068952Y032643D03*
X061452Y032643D03*
X053952Y032643D03*
X046452Y032643D03*
X038952Y032643D03*
X038952Y025143D03*
X046452Y025143D03*
X053952Y025143D03*
X061452Y025143D03*
X068952Y025143D03*
X068952Y017643D03*
X061452Y017643D03*
X053952Y017643D03*
X046452Y017643D03*
X038952Y017643D03*
X035577Y010143D03*
X030077Y010143D03*
X021452Y010143D03*
X013952Y010143D03*
X006452Y010143D03*
X013952Y017643D03*
X013952Y028143D03*
X006452Y028143D03*
X006452Y035643D03*
X013952Y035643D03*
X013952Y043143D03*
X006452Y043143D03*
X006452Y050643D03*
X013952Y050643D03*
X023952Y040143D03*
X029452Y032643D03*
X028452Y025143D03*
X027702Y017643D03*
X045077Y010143D03*
X060202Y010143D03*
D13*
X060702Y011713D02*
X060702Y012573D01*
X061702Y012573D02*
X061702Y011713D01*
X059702Y011713D02*
X059702Y012573D01*
X058702Y012573D02*
X058702Y011713D01*
X059952Y019213D02*
X059952Y020073D01*
X060952Y020073D02*
X060952Y019213D01*
X061952Y019213D02*
X061952Y020073D01*
X062952Y020073D02*
X062952Y019213D01*
X067452Y019213D02*
X067452Y020073D01*
X068452Y020073D02*
X068452Y019213D01*
X069452Y019213D02*
X069452Y020073D01*
X070452Y020073D02*
X070452Y019213D01*
X070452Y026713D02*
X070452Y027573D01*
X069452Y027573D02*
X069452Y026713D01*
X068452Y026713D02*
X068452Y027573D01*
X067452Y027573D02*
X067452Y026713D01*
X062952Y026713D02*
X062952Y027573D01*
X061952Y027573D02*
X061952Y026713D01*
X060952Y026713D02*
X060952Y027573D01*
X059952Y027573D02*
X059952Y026713D01*
X055452Y026713D02*
X055452Y027573D01*
X054452Y027573D02*
X054452Y026713D01*
X053452Y026713D02*
X053452Y027573D01*
X052452Y027573D02*
X052452Y026713D01*
X047952Y026713D02*
X047952Y027573D01*
X046952Y027573D02*
X046952Y026713D01*
X045952Y026713D02*
X045952Y027573D01*
X044952Y027573D02*
X044952Y026713D01*
X040452Y026713D02*
X040452Y027573D01*
X039452Y027573D02*
X039452Y026713D01*
X038452Y026713D02*
X038452Y027573D01*
X037452Y027573D02*
X037452Y026713D01*
X029952Y026713D02*
X029952Y027573D01*
X028952Y027573D02*
X028952Y026713D01*
X027952Y026713D02*
X027952Y027573D01*
X026952Y027573D02*
X026952Y026713D01*
X027202Y020073D02*
X027202Y019213D01*
X028202Y019213D02*
X028202Y020073D01*
X029202Y020073D02*
X029202Y019213D01*
X026202Y019213D02*
X026202Y020073D01*
X028577Y012573D02*
X028577Y011713D01*
X029577Y011713D02*
X029577Y012573D01*
X030577Y012573D02*
X030577Y011713D01*
X031577Y011713D02*
X031577Y012573D01*
X034077Y012573D02*
X034077Y011713D01*
X035077Y011713D02*
X035077Y012573D01*
X036077Y012573D02*
X036077Y011713D01*
X037077Y011713D02*
X037077Y012573D01*
X043577Y012573D02*
X043577Y011713D01*
X044577Y011713D02*
X044577Y012573D01*
X045577Y012573D02*
X045577Y011713D01*
X046577Y011713D02*
X046577Y012573D01*
X046952Y019213D02*
X046952Y020073D01*
X047952Y020073D02*
X047952Y019213D01*
X045952Y019213D02*
X045952Y020073D01*
X044952Y020073D02*
X044952Y019213D01*
X040452Y019213D02*
X040452Y020073D01*
X039452Y020073D02*
X039452Y019213D01*
X038452Y019213D02*
X038452Y020073D01*
X037452Y020073D02*
X037452Y019213D01*
X022952Y012573D02*
X022952Y011713D01*
X021952Y011713D02*
X021952Y012573D01*
X020952Y012573D02*
X020952Y011713D01*
X019952Y011713D02*
X019952Y012573D01*
X015452Y012573D02*
X015452Y011713D01*
X014452Y011713D02*
X014452Y012573D01*
X013452Y012573D02*
X013452Y011713D01*
X012452Y011713D02*
X012452Y012573D01*
X007952Y012573D02*
X007952Y011713D01*
X006952Y011713D02*
X006952Y012573D01*
X005952Y012573D02*
X005952Y011713D01*
X004952Y011713D02*
X004952Y012573D01*
X012452Y019213D02*
X012452Y020073D01*
X013452Y020073D02*
X013452Y019213D01*
X014452Y019213D02*
X014452Y020073D01*
X015452Y020073D02*
X015452Y019213D01*
X015452Y029713D02*
X015452Y030573D01*
X014452Y030573D02*
X014452Y029713D01*
X013452Y029713D02*
X013452Y030573D01*
X012452Y030573D02*
X012452Y029713D01*
X007952Y029713D02*
X007952Y030573D01*
X006952Y030573D02*
X006952Y029713D01*
X005952Y029713D02*
X005952Y030573D01*
X004952Y030573D02*
X004952Y029713D01*
X004952Y037213D02*
X004952Y038073D01*
X005952Y038073D02*
X005952Y037213D01*
X006952Y037213D02*
X006952Y038073D01*
X007952Y038073D02*
X007952Y037213D01*
X012452Y037213D02*
X012452Y038073D01*
X013452Y038073D02*
X013452Y037213D01*
X014452Y037213D02*
X014452Y038073D01*
X015452Y038073D02*
X015452Y037213D01*
X022452Y041713D02*
X022452Y042573D01*
X023452Y042573D02*
X023452Y041713D01*
X024452Y041713D02*
X024452Y042573D01*
X025452Y042573D02*
X025452Y041713D01*
X029952Y041713D02*
X029952Y042573D01*
X030952Y042573D02*
X030952Y041713D01*
X031952Y041713D02*
X031952Y042573D01*
X032952Y042573D02*
X032952Y041713D01*
X037452Y041713D02*
X037452Y042573D01*
X038452Y042573D02*
X038452Y041713D01*
X039452Y041713D02*
X039452Y042573D01*
X040452Y042573D02*
X040452Y041713D01*
X044952Y041713D02*
X044952Y042573D01*
X045952Y042573D02*
X045952Y041713D01*
X046952Y041713D02*
X046952Y042573D01*
X047952Y042573D02*
X047952Y041713D01*
X052452Y041713D02*
X052452Y042573D01*
X053452Y042573D02*
X053452Y041713D01*
X054452Y041713D02*
X054452Y042573D01*
X055452Y042573D02*
X055452Y041713D01*
X059952Y041713D02*
X059952Y042573D01*
X060952Y042573D02*
X060952Y041713D01*
X061952Y041713D02*
X061952Y042573D01*
X062952Y042573D02*
X062952Y041713D01*
X067452Y041713D02*
X067452Y042573D01*
X068452Y042573D02*
X068452Y041713D01*
X069452Y041713D02*
X069452Y042573D01*
X070452Y042573D02*
X070452Y041713D01*
X070452Y035073D02*
X070452Y034213D01*
X069452Y034213D02*
X069452Y035073D01*
X068452Y035073D02*
X068452Y034213D01*
X067452Y034213D02*
X067452Y035073D01*
X062952Y035073D02*
X062952Y034213D01*
X061952Y034213D02*
X061952Y035073D01*
X060952Y035073D02*
X060952Y034213D01*
X059952Y034213D02*
X059952Y035073D01*
X055452Y035073D02*
X055452Y034213D01*
X054452Y034213D02*
X054452Y035073D01*
X053452Y035073D02*
X053452Y034213D01*
X052452Y034213D02*
X052452Y035073D01*
X047952Y035073D02*
X047952Y034213D01*
X046952Y034213D02*
X046952Y035073D01*
X045952Y035073D02*
X045952Y034213D01*
X044952Y034213D02*
X044952Y035073D01*
X040452Y035073D02*
X040452Y034213D01*
X039452Y034213D02*
X039452Y035073D01*
X038452Y035073D02*
X038452Y034213D01*
X037452Y034213D02*
X037452Y035073D01*
X030952Y035073D02*
X030952Y034213D01*
X029952Y034213D02*
X029952Y035073D01*
X028952Y035073D02*
X028952Y034213D01*
X027952Y034213D02*
X027952Y035073D01*
X015452Y044713D02*
X015452Y045573D01*
X014452Y045573D02*
X014452Y044713D01*
X013452Y044713D02*
X013452Y045573D01*
X012452Y045573D02*
X012452Y044713D01*
X007952Y044713D02*
X007952Y045573D01*
X006952Y045573D02*
X006952Y044713D01*
X005952Y044713D02*
X005952Y045573D01*
X004952Y045573D02*
X004952Y044713D01*
X004952Y052213D02*
X004952Y053073D01*
X005952Y053073D02*
X005952Y052213D01*
X006952Y052213D02*
X006952Y053073D01*
X007952Y053073D02*
X007952Y052213D01*
X012452Y052213D02*
X012452Y053073D01*
X013452Y053073D02*
X013452Y052213D01*
X014452Y052213D02*
X014452Y053073D01*
X015452Y053073D02*
X015452Y052213D01*
X026952Y052213D02*
X026952Y053073D01*
X027952Y053073D02*
X027952Y052213D01*
X028952Y052213D02*
X028952Y053073D01*
X029952Y053073D02*
X029952Y052213D01*
X034452Y052213D02*
X034452Y053073D01*
X035452Y053073D02*
X035452Y052213D01*
X036452Y052213D02*
X036452Y053073D01*
X037452Y053073D02*
X037452Y052213D01*
X041952Y052213D02*
X041952Y053073D01*
X042952Y053073D02*
X042952Y052213D01*
X043952Y052213D02*
X043952Y053073D01*
X044952Y053073D02*
X044952Y052213D01*
X049452Y052213D02*
X049452Y053073D01*
X050452Y053073D02*
X050452Y052213D01*
X051452Y052213D02*
X051452Y053073D01*
X052452Y053073D02*
X052452Y052213D01*
X059952Y052213D02*
X059952Y053073D01*
X060952Y053073D02*
X060952Y052213D01*
X061952Y052213D02*
X061952Y053073D01*
X062952Y053073D02*
X062952Y052213D01*
X067452Y052213D02*
X067452Y053073D01*
X068452Y053073D02*
X068452Y052213D01*
X069452Y052213D02*
X069452Y053073D01*
X070452Y053073D02*
X070452Y052213D01*
X055452Y020073D02*
X055452Y019213D01*
X054452Y019213D02*
X054452Y020073D01*
X053452Y020073D02*
X053452Y019213D01*
X052452Y019213D02*
X052452Y020073D01*
D14*
X053952Y017643D03*
X061452Y017643D03*
X068952Y017643D03*
X068952Y025143D03*
X061452Y025143D03*
X053952Y025143D03*
X046452Y025143D03*
X038952Y025143D03*
X038952Y017643D03*
X032389Y014893D03*
X027702Y017643D03*
X023014Y014893D03*
X021452Y010143D03*
X013952Y010143D03*
X006452Y010143D03*
X013952Y017643D03*
X013952Y028143D03*
X006452Y028143D03*
X006452Y035643D03*
X013952Y035643D03*
X013952Y043143D03*
X006452Y043143D03*
X006452Y050643D03*
X013952Y050643D03*
X023952Y040143D03*
X031452Y040143D03*
X038952Y040143D03*
X046452Y040143D03*
X053952Y040143D03*
X061452Y040143D03*
X068952Y040143D03*
X068952Y032643D03*
X061452Y032643D03*
X053952Y032643D03*
X046452Y032643D03*
X038952Y032643D03*
X029452Y032643D03*
X028452Y025143D03*
X046452Y017643D03*
X045077Y010143D03*
X035577Y010143D03*
X030077Y010143D03*
X055514Y007393D03*
X060202Y010143D03*
X064889Y007393D03*
X061452Y050643D03*
X068952Y050643D03*
X050952Y050643D03*
X043452Y050643D03*
X035952Y050643D03*
X028452Y050643D03*
D15*
X028702Y048193D03*
X028702Y047593D03*
X036202Y047593D03*
X036202Y048193D03*
X042077Y040318D03*
X042077Y039718D03*
X039202Y037693D03*
X039202Y037093D03*
X034702Y039593D03*
X034702Y040193D03*
X031702Y037693D03*
X031702Y037093D03*
X032952Y032443D03*
X032952Y031843D03*
X029702Y029943D03*
X029702Y029343D03*
X031952Y025193D03*
X031952Y024593D03*
X028702Y022693D03*
X028702Y022093D03*
X028327Y015693D03*
X028327Y015093D03*
X026327Y007568D03*
X026327Y006968D03*
X021702Y006968D03*
X021702Y007568D03*
X014202Y007568D03*
X014202Y006968D03*
X017202Y017093D03*
X017202Y017693D03*
X005577Y024343D03*
X005577Y024943D03*
X009702Y027468D03*
X009702Y028068D03*
X006452Y032343D03*
X006452Y032943D03*
X009702Y035093D03*
X009702Y035693D03*
X007952Y040343D03*
X007952Y040943D03*
X004327Y047343D03*
X004327Y047943D03*
X006952Y048093D03*
X006952Y048693D03*
X014202Y048443D03*
X014202Y047843D03*
X015452Y040943D03*
X015452Y040343D03*
X023327Y036943D03*
X023327Y036343D03*
X017202Y027818D03*
X017202Y027218D03*
X039202Y029343D03*
X039202Y029943D03*
X042202Y031843D03*
X042202Y032443D03*
X046452Y029943D03*
X046452Y029343D03*
X049702Y031843D03*
X049702Y032443D03*
X053952Y029943D03*
X053952Y029343D03*
X057202Y031843D03*
X057202Y032443D03*
X061702Y029943D03*
X061702Y029343D03*
X064702Y032093D03*
X064702Y032693D03*
X067452Y029193D03*
X067452Y028593D03*
X069577Y030093D03*
X069577Y030693D03*
X064702Y025193D03*
X064702Y024593D03*
X061702Y022693D03*
X061702Y022093D03*
X057202Y024343D03*
X057202Y024943D03*
X054202Y022693D03*
X054202Y022093D03*
X049702Y024343D03*
X049702Y024943D03*
X046702Y022693D03*
X046702Y022093D03*
X042202Y024343D03*
X042202Y024943D03*
X039202Y022693D03*
X039202Y022093D03*
X039452Y015818D03*
X039452Y015218D03*
X047577Y015193D03*
X047577Y014593D03*
X050577Y016718D03*
X050577Y017318D03*
X054452Y015818D03*
X054452Y015218D03*
X058202Y016843D03*
X058202Y017443D03*
X061952Y015818D03*
X061952Y015218D03*
X066702Y015968D03*
X066702Y016568D03*
X067327Y021343D03*
X067327Y021943D03*
X069577Y022468D03*
X069577Y023068D03*
X063327Y009568D03*
X063327Y008968D03*
X057827Y007818D03*
X057827Y007218D03*
X045452Y007031D03*
X045452Y007631D03*
X037077Y007631D03*
X037077Y007031D03*
X046702Y037093D03*
X046702Y037693D03*
X049702Y039593D03*
X049702Y040193D03*
X053952Y037193D03*
X053952Y036593D03*
X057202Y040093D03*
X057202Y040693D03*
X064577Y039818D03*
X064577Y039218D03*
X066577Y038818D03*
X066577Y038218D03*
X070452Y037818D03*
X070452Y037218D03*
X069702Y047968D03*
X069702Y048568D03*
X061952Y048693D03*
X061952Y048093D03*
X053452Y048343D03*
X053452Y048943D03*
D16*
X048502Y048893D03*
X047902Y048893D03*
X046752Y049643D03*
X046152Y049643D03*
X041252Y049393D03*
X040652Y049393D03*
X039252Y049893D03*
X038652Y049893D03*
X031752Y049643D03*
X031152Y049643D03*
X027252Y039143D03*
X026652Y039143D03*
X014877Y033518D03*
X014277Y033518D03*
X012002Y034518D03*
X011402Y034518D03*
G36*
X011729Y041365D02*
X011348Y041746D01*
X011849Y042247D01*
X012230Y041866D01*
X011729Y041365D01*
G37*
G36*
X011305Y041789D02*
X010924Y042170D01*
X011425Y042671D01*
X011806Y042290D01*
X011305Y041789D01*
G37*
X004377Y042018D03*
X003777Y042018D03*
X016652Y049893D03*
X017252Y049893D03*
X011752Y026643D03*
X011152Y026643D03*
X011277Y016393D03*
X011877Y016393D03*
X016652Y009143D03*
X017252Y009143D03*
X024152Y009143D03*
X024752Y009143D03*
X032152Y007893D03*
X032752Y007893D03*
X039402Y009143D03*
X040002Y009143D03*
X047902Y009143D03*
X048502Y009143D03*
X044377Y016518D03*
X043777Y016518D03*
X036877Y016518D03*
X036277Y016518D03*
X025377Y015768D03*
X024777Y015768D03*
X009127Y007893D03*
X008527Y007893D03*
X004377Y009018D03*
X003777Y009018D03*
X058652Y038643D03*
X059252Y038643D03*
X059002Y049143D03*
X058402Y049143D03*
X066152Y049393D03*
X066752Y049393D03*
G36*
X069223Y015665D02*
X069604Y016046D01*
X070105Y015545D01*
X069724Y015164D01*
X069223Y015665D01*
G37*
G36*
X068799Y015241D02*
X069180Y015622D01*
X069681Y015121D01*
X069300Y014740D01*
X068799Y015241D01*
G37*
D17*
X046452Y049643D03*
X038952Y049893D03*
X016952Y049893D03*
D18*
X009702Y035393D03*
D19*
X009202Y036474D03*
X009202Y037813D03*
X003827Y044099D03*
X003827Y045438D03*
X007702Y046724D03*
X007702Y048063D03*
X016952Y047474D03*
X016952Y048813D03*
X032952Y034938D03*
X032952Y033599D03*
X031952Y027313D03*
X031952Y025974D03*
X042202Y025724D03*
X042202Y027063D03*
X049702Y027063D03*
X049702Y025724D03*
X050577Y019563D03*
X050577Y018224D03*
X058202Y018224D03*
X058202Y019563D03*
X062952Y015063D03*
X062952Y013724D03*
X063327Y011625D03*
X063327Y010287D03*
X064702Y025974D03*
X064702Y027313D03*
X064702Y033474D03*
X064702Y034813D03*
X064139Y041099D03*
X064139Y042438D03*
X062702Y046599D03*
X062702Y047938D03*
X057202Y034563D03*
X057202Y033224D03*
X057202Y027063D03*
X057202Y025724D03*
X049702Y033224D03*
X049702Y034563D03*
X042202Y034563D03*
X042202Y033224D03*
X042077Y041099D03*
X042077Y042438D03*
X044827Y046974D03*
X044827Y048313D03*
X037452Y048249D03*
X037452Y046910D03*
X034827Y047063D03*
X034827Y045724D03*
X034827Y042563D03*
X034827Y041224D03*
X017202Y030313D03*
X017202Y028974D03*
X009702Y028724D03*
X009702Y030063D03*
X017577Y021063D03*
X017577Y019724D03*
X020077Y019662D03*
X020077Y021000D03*
X004077Y017188D03*
X004077Y015849D03*
X042452Y015849D03*
X042452Y017188D03*
D20*
X043121Y018893D03*
X041783Y018893D03*
X035746Y018393D03*
X034408Y018393D03*
X034158Y015893D03*
X035496Y015893D03*
X019496Y017518D03*
X018158Y017518D03*
X008371Y014143D03*
X007033Y014143D03*
X006246Y013956D03*
X004908Y013956D03*
X014283Y032643D03*
X015621Y032643D03*
X026908Y041768D03*
X028246Y041768D03*
X011496Y044393D03*
X010158Y044393D03*
X049783Y041393D03*
X051121Y041393D03*
X057533Y041518D03*
X058871Y041518D03*
X065158Y041518D03*
X066496Y041518D03*
X067158Y046768D03*
X068496Y046768D03*
G36*
X052926Y048312D02*
X052480Y047866D01*
X051924Y048422D01*
X052370Y048868D01*
X052926Y048312D01*
G37*
G36*
X051980Y047365D02*
X051534Y046919D01*
X050978Y047475D01*
X051424Y047921D01*
X051980Y047365D01*
G37*
X069408Y028893D03*
X070746Y028893D03*
X070746Y021393D03*
X069408Y021393D03*
X065746Y016643D03*
X064408Y016643D03*
X053871Y013456D03*
X052533Y013456D03*
D21*
X053452Y043893D03*
X054452Y043893D03*
X055452Y043893D03*
X056452Y043893D03*
X057452Y043893D03*
X058452Y043893D03*
X059452Y043893D03*
X060452Y043893D03*
X060452Y046893D03*
X059452Y046893D03*
X058452Y046893D03*
X057452Y046893D03*
X056452Y046893D03*
X055452Y046893D03*
X054452Y046893D03*
X053452Y046893D03*
X008952Y021393D03*
X008952Y020393D03*
X008952Y019393D03*
X008952Y018393D03*
X008952Y017393D03*
X008952Y016393D03*
X008952Y015393D03*
X005952Y015393D03*
X005952Y016393D03*
X005952Y017393D03*
X005952Y018393D03*
X005952Y019393D03*
X005952Y020393D03*
X005952Y021393D03*
D22*
G36*
X009743Y012963D02*
X009187Y013519D01*
X009577Y013909D01*
X010133Y013353D01*
X009743Y012963D01*
G37*
G36*
X010577Y012128D02*
X010021Y012684D01*
X010411Y013074D01*
X010967Y012518D01*
X010577Y012128D01*
G37*
X059862Y045018D03*
X061042Y045018D03*
D23*
X057452Y044644D03*
X057452Y045392D03*
X023014Y024642D03*
X023014Y023894D03*
X007827Y015642D03*
X007827Y014894D03*
X006952Y015144D03*
X006952Y015892D03*
D24*
X010077Y011483D03*
X010077Y010303D03*
X006577Y023678D03*
X006577Y024858D03*
X007827Y031803D03*
X007827Y032983D03*
X014202Y039053D03*
X014202Y040233D03*
X009952Y041178D03*
X009952Y042358D03*
X010327Y048803D03*
X010327Y049983D03*
X017952Y048733D03*
X017952Y047553D03*
X025327Y052053D03*
X025327Y053233D03*
X043077Y039608D03*
X043077Y038428D03*
X040452Y029983D03*
X040452Y028803D03*
X040702Y022733D03*
X040702Y021553D03*
X048202Y021553D03*
X048202Y022733D03*
X047952Y028803D03*
X047952Y029983D03*
X055327Y029983D03*
X055327Y028803D03*
X055577Y022733D03*
X055577Y021553D03*
X063202Y021553D03*
X063202Y022733D03*
X062952Y028803D03*
X062952Y029983D03*
X055452Y036553D03*
X055452Y037733D03*
X067827Y044803D03*
X067827Y045983D03*
X057327Y050553D03*
X056202Y050553D03*
X055077Y050553D03*
X055077Y051733D03*
X056202Y051733D03*
X057327Y051733D03*
X032827Y037733D03*
X032827Y036553D03*
X028827Y036553D03*
X027702Y036553D03*
X027702Y037733D03*
X028827Y037733D03*
X031952Y029983D03*
X031952Y028803D03*
X030202Y022733D03*
X030202Y021553D03*
X016577Y031053D03*
X016577Y032233D03*
D25*
X017612Y026018D03*
X016292Y025393D03*
X017612Y025018D03*
X016292Y024518D03*
X016292Y023643D03*
X017612Y024018D03*
X017612Y023018D03*
X016292Y022768D03*
X016292Y021893D03*
X017612Y022018D03*
X018792Y022018D03*
X018792Y023018D03*
X018792Y024018D03*
X018792Y025018D03*
X018792Y026018D03*
X015112Y025393D03*
X015112Y024518D03*
X015112Y023643D03*
X015112Y022768D03*
X015112Y021893D03*
X004792Y031643D03*
X004792Y032518D03*
X003612Y032518D03*
X003612Y031643D03*
X004167Y034268D03*
X002987Y034268D03*
G36*
X007453Y039783D02*
X007926Y039310D01*
X007535Y038919D01*
X007062Y039392D01*
X007453Y039783D01*
G37*
G36*
X006619Y040618D02*
X007092Y040145D01*
X006701Y039754D01*
X006228Y040227D01*
X006619Y040618D01*
G37*
G36*
X015701Y047129D02*
X015228Y047602D01*
X015619Y047993D01*
X016092Y047520D01*
X015701Y047129D01*
G37*
G36*
X016535Y046294D02*
X016062Y046767D01*
X016453Y047158D01*
X016926Y046685D01*
X016535Y046294D01*
G37*
X028487Y045768D03*
X028487Y044768D03*
X029667Y044768D03*
X029667Y045768D03*
X029667Y043768D03*
X028487Y043768D03*
X035987Y043518D03*
X035987Y044393D03*
X035987Y045268D03*
X037167Y045268D03*
X037167Y044393D03*
X037167Y043518D03*
X042362Y043268D03*
X043542Y043268D03*
X043542Y044268D03*
X042362Y044268D03*
X042362Y045268D03*
X042362Y046268D03*
X043542Y046268D03*
X043542Y045268D03*
X050737Y045768D03*
X051237Y044768D03*
X051917Y045768D03*
X052417Y044768D03*
X052417Y043893D03*
X051237Y043893D03*
X050737Y046643D03*
X051917Y046643D03*
D26*
X036577Y010143D03*
X029077Y010143D03*
D27*
X029077Y010143D03*
X036577Y010143D03*
D28*
X020553Y037206D02*
X019726Y037206D01*
X019726Y038206D02*
X020553Y038206D01*
X020553Y039206D02*
X019726Y039206D01*
X019726Y040206D02*
X020553Y040206D01*
X020553Y041206D02*
X019726Y041206D01*
X019726Y042206D02*
X020553Y042206D01*
X020553Y043206D02*
X019726Y043206D01*
X019726Y044206D02*
X020553Y044206D01*
X024726Y044206D02*
X025553Y044206D01*
X025553Y045206D02*
X024726Y045206D01*
X024726Y046206D02*
X025553Y046206D01*
D29*
X018764Y045608D03*
X018764Y044428D03*
X010202Y017983D03*
X010202Y016803D03*
X010202Y015983D03*
X010202Y014803D03*
X004952Y015803D03*
X004952Y016983D03*
D30*
X023017Y014887D03*
X032387Y014887D03*
X055517Y007387D03*
X064887Y007387D03*
D31*
X064887Y013387D03*
X064889Y013393D03*
X055517Y013387D03*
X055514Y013393D03*
X032389Y020893D03*
X032387Y020887D03*
X023017Y020887D03*
X023014Y020893D03*
D32*
X007202Y017018D03*
X004827Y014893D03*
X056452Y045393D03*
D33*
X061514Y043893D03*
X021702Y044206D03*
X017889Y044143D03*
X009952Y021393D03*
D34*
X001389Y005143D03*
X008202Y005143D03*
X015702Y005143D03*
X023202Y005143D03*
X032702Y005143D03*
X042202Y005143D03*
X051702Y005143D03*
X061452Y005143D03*
X065202Y005143D03*
X069264Y005143D03*
X069264Y055643D03*
X071452Y055643D03*
X065202Y055643D03*
X061452Y055643D03*
X056202Y055643D03*
X047202Y055643D03*
X039702Y055643D03*
X032202Y055643D03*
X021202Y055643D03*
X010202Y055643D03*
X001389Y055643D03*
X001389Y046893D03*
X001389Y039393D03*
X001389Y031893D03*
X001389Y022893D03*
X001389Y013893D03*
D35*
X010202Y024393D03*
X010202Y031893D03*
X010827Y039393D03*
X010202Y046893D03*
X025827Y036393D03*
X023827Y028893D03*
X035202Y028893D03*
X042702Y028893D03*
X050202Y028893D03*
X057702Y028893D03*
X065202Y028893D03*
X065202Y021393D03*
X057702Y021393D03*
X050202Y021393D03*
X042702Y021393D03*
X035202Y021393D03*
X041452Y013518D03*
X050202Y013893D03*
X057702Y014393D03*
X057702Y036393D03*
X065202Y036393D03*
X065202Y043893D03*
X065202Y046893D03*
X050202Y036393D03*
X042702Y036393D03*
X035202Y036393D03*
X032202Y046893D03*
X039702Y046893D03*
X047202Y046893D03*
X025077Y014018D03*
X017702Y013893D03*
M02*
