G75*
G70*
%OFA0B0*%
%FSLAX24Y24*%
%IPPOS*%
%LPD*%
%AMOC8*
5,1,8,0,0,1.08239X$1,22.5*
%
%ADD10C,0.1500*%
%ADD11C,0.1012*%
%ADD12C,0.0860*%
%ADD13C,0.1181*%
%ADD14R,0.0827X0.0827*%
%ADD15C,0.0515*%
%ADD16C,0.0827*%
%ADD17C,0.0906*%
%ADD18C,0.0240*%
%ADD19R,0.0906X0.0906*%
%ADD20C,0.0320*%
%ADD21C,0.0160*%
%ADD22C,0.1969*%
%ADD23C,0.0787*%
%ADD24C,0.0500*%
D10*
X014206Y004688D03*
X016706Y005688D03*
X021706Y004688D03*
X024206Y005688D03*
X029206Y004688D03*
X031706Y005688D03*
X036831Y004688D03*
X039331Y005688D03*
X043331Y004688D03*
X044456Y004688D03*
X045831Y005688D03*
X046956Y005688D03*
X052831Y004688D03*
X055331Y005688D03*
X054206Y012188D03*
X056706Y013188D03*
X061706Y012188D03*
X064206Y013188D03*
X069206Y012188D03*
X071706Y013188D03*
X076706Y012188D03*
X079206Y013188D03*
X076706Y019688D03*
X079206Y020688D03*
X076706Y027188D03*
X079206Y028188D03*
X076706Y034688D03*
X079206Y035688D03*
X071706Y035688D03*
X069206Y034688D03*
X064206Y035688D03*
X061706Y034688D03*
X056706Y035688D03*
X054206Y034688D03*
X049206Y035688D03*
X046706Y034688D03*
X041706Y035688D03*
X039206Y034688D03*
X039706Y028188D03*
X037206Y027188D03*
X038706Y020688D03*
X036206Y019688D03*
X037956Y013188D03*
X035456Y012188D03*
X046706Y012188D03*
X049206Y013188D03*
X046706Y019688D03*
X049206Y020688D03*
X054206Y019688D03*
X056706Y020688D03*
X061706Y019688D03*
X064206Y020688D03*
X069206Y019688D03*
X071706Y020688D03*
X069206Y027188D03*
X071706Y028188D03*
X064206Y028188D03*
X061706Y027188D03*
X056706Y028188D03*
X054206Y027188D03*
X049206Y028188D03*
X046706Y027188D03*
X034206Y035688D03*
X031706Y034688D03*
X024206Y031188D03*
X021706Y030188D03*
X016706Y031188D03*
X014206Y030188D03*
X016706Y023688D03*
X014206Y022688D03*
X021706Y022688D03*
X024206Y023688D03*
X024206Y013188D03*
X021706Y012188D03*
X021706Y037688D03*
X024206Y038688D03*
X021706Y045188D03*
X024206Y046188D03*
X016706Y046188D03*
X014206Y045188D03*
X016706Y038688D03*
X014206Y037688D03*
X036206Y045188D03*
X038706Y046188D03*
X043706Y045188D03*
X046206Y046188D03*
X051206Y045188D03*
X053706Y046188D03*
X058706Y045188D03*
X061206Y046188D03*
X069206Y045188D03*
X071706Y046188D03*
X076706Y045188D03*
X079206Y046188D03*
X070456Y005688D03*
X067956Y004688D03*
D11*
X066956Y006688D03*
X070956Y006688D03*
X072206Y014188D03*
X075706Y014188D03*
X079706Y014188D03*
X079706Y021688D03*
X075706Y021688D03*
X072206Y021688D03*
X068206Y021688D03*
X064706Y021688D03*
X060706Y021688D03*
X057206Y021688D03*
X053206Y021688D03*
X049706Y021688D03*
X045706Y021688D03*
X045706Y014188D03*
X049706Y014188D03*
X053206Y014188D03*
X057206Y014188D03*
X060706Y014188D03*
X064706Y014188D03*
X068206Y014188D03*
X068206Y029188D03*
X064706Y029188D03*
X060706Y029188D03*
X057206Y029188D03*
X053206Y029188D03*
X049706Y029188D03*
X045706Y029188D03*
X040206Y029188D03*
X036206Y029188D03*
X035206Y021688D03*
X039206Y021688D03*
X038456Y014188D03*
X034456Y014188D03*
X035831Y006688D03*
X032206Y006688D03*
X028206Y006688D03*
X024706Y006688D03*
X020706Y006688D03*
X017206Y006688D03*
X013206Y006688D03*
X020706Y014188D03*
X024706Y014188D03*
X024706Y024688D03*
X020706Y024688D03*
X017206Y024688D03*
X013206Y024688D03*
X013206Y032188D03*
X017206Y032188D03*
X020706Y032188D03*
X024706Y032188D03*
X024706Y039688D03*
X020706Y039688D03*
X017206Y039688D03*
X013206Y039688D03*
X013206Y047188D03*
X017206Y047188D03*
X020706Y047188D03*
X024706Y047188D03*
X030706Y036688D03*
X034706Y036688D03*
X038206Y036688D03*
X042206Y036688D03*
X045706Y036688D03*
X049706Y036688D03*
X053206Y036688D03*
X057206Y036688D03*
X060706Y036688D03*
X064706Y036688D03*
X068206Y036688D03*
X072206Y036688D03*
X075706Y036688D03*
X079706Y036688D03*
X079706Y029188D03*
X075706Y029188D03*
X072206Y029188D03*
X072206Y047188D03*
X075706Y047188D03*
X079706Y047188D03*
X068206Y047188D03*
X061706Y047188D03*
X057706Y047188D03*
X054206Y047188D03*
X050206Y047188D03*
X046706Y047188D03*
X042706Y047188D03*
X039206Y047188D03*
X035206Y047188D03*
X039831Y006688D03*
X042331Y006688D03*
X043456Y006688D03*
X046331Y006688D03*
X047456Y006688D03*
X051831Y006688D03*
X055831Y006688D03*
D12*
X055331Y008258D02*
X055331Y009118D01*
X054331Y009118D02*
X054331Y008258D01*
X053331Y008258D02*
X053331Y009118D01*
X052331Y009118D02*
X052331Y008258D01*
X046956Y008258D02*
X046956Y009118D01*
X045956Y009118D02*
X045956Y008258D01*
X044956Y008258D02*
X044956Y009118D01*
X043956Y009118D02*
X043956Y008258D01*
X039331Y008258D02*
X039331Y009118D01*
X038331Y009118D02*
X038331Y008258D01*
X037331Y008258D02*
X037331Y009118D01*
X036331Y009118D02*
X036331Y008258D01*
X031706Y008258D02*
X031706Y009118D01*
X030706Y009118D02*
X030706Y008258D01*
X029706Y008258D02*
X029706Y009118D01*
X028706Y009118D02*
X028706Y008258D01*
X024206Y008258D02*
X024206Y009118D01*
X023206Y009118D02*
X023206Y008258D01*
X022206Y008258D02*
X022206Y009118D01*
X021206Y009118D02*
X021206Y008258D01*
X016706Y008258D02*
X016706Y009118D01*
X015706Y009118D02*
X015706Y008258D01*
X014706Y008258D02*
X014706Y009118D01*
X013706Y009118D02*
X013706Y008258D01*
X021206Y015758D02*
X021206Y016618D01*
X022206Y016618D02*
X022206Y015758D01*
X023206Y015758D02*
X023206Y016618D01*
X024206Y016618D02*
X024206Y015758D01*
X024206Y026258D02*
X024206Y027118D01*
X023206Y027118D02*
X023206Y026258D01*
X022206Y026258D02*
X022206Y027118D01*
X021206Y027118D02*
X021206Y026258D01*
X016706Y026258D02*
X016706Y027118D01*
X015706Y027118D02*
X015706Y026258D01*
X014706Y026258D02*
X014706Y027118D01*
X013706Y027118D02*
X013706Y026258D01*
X013706Y033758D02*
X013706Y034618D01*
X014706Y034618D02*
X014706Y033758D01*
X015706Y033758D02*
X015706Y034618D01*
X016706Y034618D02*
X016706Y033758D01*
X021206Y033758D02*
X021206Y034618D01*
X022206Y034618D02*
X022206Y033758D01*
X023206Y033758D02*
X023206Y034618D01*
X024206Y034618D02*
X024206Y033758D01*
X024206Y041258D02*
X024206Y042118D01*
X023206Y042118D02*
X023206Y041258D01*
X022206Y041258D02*
X022206Y042118D01*
X021206Y042118D02*
X021206Y041258D01*
X016706Y041258D02*
X016706Y042118D01*
X015706Y042118D02*
X015706Y041258D01*
X014706Y041258D02*
X014706Y042118D01*
X013706Y042118D02*
X013706Y041258D01*
X013706Y048758D02*
X013706Y049618D01*
X014706Y049618D02*
X014706Y048758D01*
X015706Y048758D02*
X015706Y049618D01*
X016706Y049618D02*
X016706Y048758D01*
X021206Y048758D02*
X021206Y049618D01*
X022206Y049618D02*
X022206Y048758D01*
X023206Y048758D02*
X023206Y049618D01*
X024206Y049618D02*
X024206Y048758D01*
X031206Y039118D02*
X031206Y038258D01*
X032206Y038258D02*
X032206Y039118D01*
X033206Y039118D02*
X033206Y038258D01*
X034206Y038258D02*
X034206Y039118D01*
X038706Y039118D02*
X038706Y038258D01*
X039706Y038258D02*
X039706Y039118D01*
X040706Y039118D02*
X040706Y038258D01*
X041706Y038258D02*
X041706Y039118D01*
X046206Y039118D02*
X046206Y038258D01*
X047206Y038258D02*
X047206Y039118D01*
X048206Y039118D02*
X048206Y038258D01*
X049206Y038258D02*
X049206Y039118D01*
X053706Y039118D02*
X053706Y038258D01*
X054706Y038258D02*
X054706Y039118D01*
X055706Y039118D02*
X055706Y038258D01*
X056706Y038258D02*
X056706Y039118D01*
X061206Y039118D02*
X061206Y038258D01*
X062206Y038258D02*
X062206Y039118D01*
X063206Y039118D02*
X063206Y038258D01*
X064206Y038258D02*
X064206Y039118D01*
X068706Y039118D02*
X068706Y038258D01*
X069706Y038258D02*
X069706Y039118D01*
X070706Y039118D02*
X070706Y038258D01*
X071706Y038258D02*
X071706Y039118D01*
X076206Y039118D02*
X076206Y038258D01*
X077206Y038258D02*
X077206Y039118D01*
X078206Y039118D02*
X078206Y038258D01*
X079206Y038258D02*
X079206Y039118D01*
X079206Y031618D02*
X079206Y030758D01*
X078206Y030758D02*
X078206Y031618D01*
X077206Y031618D02*
X077206Y030758D01*
X076206Y030758D02*
X076206Y031618D01*
X071706Y031618D02*
X071706Y030758D01*
X070706Y030758D02*
X070706Y031618D01*
X069706Y031618D02*
X069706Y030758D01*
X068706Y030758D02*
X068706Y031618D01*
X064206Y031618D02*
X064206Y030758D01*
X063206Y030758D02*
X063206Y031618D01*
X062206Y031618D02*
X062206Y030758D01*
X061206Y030758D02*
X061206Y031618D01*
X056706Y031618D02*
X056706Y030758D01*
X055706Y030758D02*
X055706Y031618D01*
X054706Y031618D02*
X054706Y030758D01*
X053706Y030758D02*
X053706Y031618D01*
X049206Y031618D02*
X049206Y030758D01*
X048206Y030758D02*
X048206Y031618D01*
X047206Y031618D02*
X047206Y030758D01*
X046206Y030758D02*
X046206Y031618D01*
X039706Y031618D02*
X039706Y030758D01*
X038706Y030758D02*
X038706Y031618D01*
X037706Y031618D02*
X037706Y030758D01*
X036706Y030758D02*
X036706Y031618D01*
X036706Y024118D02*
X036706Y023258D01*
X037706Y023258D02*
X037706Y024118D01*
X038706Y024118D02*
X038706Y023258D01*
X035706Y023258D02*
X035706Y024118D01*
X035956Y016618D02*
X035956Y015758D01*
X036956Y015758D02*
X036956Y016618D01*
X037956Y016618D02*
X037956Y015758D01*
X034956Y015758D02*
X034956Y016618D01*
X046206Y016618D02*
X046206Y015758D01*
X047206Y015758D02*
X047206Y016618D01*
X048206Y016618D02*
X048206Y015758D01*
X049206Y015758D02*
X049206Y016618D01*
X053706Y016618D02*
X053706Y015758D01*
X054706Y015758D02*
X054706Y016618D01*
X055706Y016618D02*
X055706Y015758D01*
X056706Y015758D02*
X056706Y016618D01*
X061206Y016618D02*
X061206Y015758D01*
X062206Y015758D02*
X062206Y016618D01*
X063206Y016618D02*
X063206Y015758D01*
X064206Y015758D02*
X064206Y016618D01*
X068706Y016618D02*
X068706Y015758D01*
X069706Y015758D02*
X069706Y016618D01*
X070706Y016618D02*
X070706Y015758D01*
X071706Y015758D02*
X071706Y016618D01*
X076206Y016618D02*
X076206Y015758D01*
X077206Y015758D02*
X077206Y016618D01*
X078206Y016618D02*
X078206Y015758D01*
X079206Y015758D02*
X079206Y016618D01*
X079206Y023258D02*
X079206Y024118D01*
X078206Y024118D02*
X078206Y023258D01*
X077206Y023258D02*
X077206Y024118D01*
X076206Y024118D02*
X076206Y023258D01*
X071706Y023258D02*
X071706Y024118D01*
X070706Y024118D02*
X070706Y023258D01*
X069706Y023258D02*
X069706Y024118D01*
X068706Y024118D02*
X068706Y023258D01*
X064206Y023258D02*
X064206Y024118D01*
X063206Y024118D02*
X063206Y023258D01*
X062206Y023258D02*
X062206Y024118D01*
X061206Y024118D02*
X061206Y023258D01*
X056706Y023258D02*
X056706Y024118D01*
X055706Y024118D02*
X055706Y023258D01*
X054706Y023258D02*
X054706Y024118D01*
X053706Y024118D02*
X053706Y023258D01*
X049206Y023258D02*
X049206Y024118D01*
X048206Y024118D02*
X048206Y023258D01*
X047206Y023258D02*
X047206Y024118D01*
X046206Y024118D02*
X046206Y023258D01*
X046206Y048758D02*
X046206Y049618D01*
X045206Y049618D02*
X045206Y048758D01*
X044206Y048758D02*
X044206Y049618D01*
X043206Y049618D02*
X043206Y048758D01*
X038706Y048758D02*
X038706Y049618D01*
X037706Y049618D02*
X037706Y048758D01*
X036706Y048758D02*
X036706Y049618D01*
X035706Y049618D02*
X035706Y048758D01*
X050706Y048758D02*
X050706Y049618D01*
X051706Y049618D02*
X051706Y048758D01*
X052706Y048758D02*
X052706Y049618D01*
X053706Y049618D02*
X053706Y048758D01*
X058206Y048758D02*
X058206Y049618D01*
X059206Y049618D02*
X059206Y048758D01*
X060206Y048758D02*
X060206Y049618D01*
X061206Y049618D02*
X061206Y048758D01*
X068706Y048758D02*
X068706Y049618D01*
X069706Y049618D02*
X069706Y048758D01*
X070706Y048758D02*
X070706Y049618D01*
X071706Y049618D02*
X071706Y048758D01*
X076206Y048758D02*
X076206Y049618D01*
X077206Y049618D02*
X077206Y048758D01*
X078206Y048758D02*
X078206Y049618D01*
X079206Y049618D02*
X079206Y048758D01*
X070456Y009118D02*
X070456Y008258D01*
X069456Y008258D02*
X069456Y009118D01*
X068456Y009118D02*
X068456Y008258D01*
X067456Y008258D02*
X067456Y009118D01*
D13*
X068956Y006688D03*
X070206Y014188D03*
X070206Y021688D03*
X070206Y029188D03*
X077706Y029188D03*
X077706Y021688D03*
X077706Y014188D03*
X062706Y014188D03*
X062706Y021688D03*
X062706Y029188D03*
X062706Y036688D03*
X070206Y036688D03*
X077706Y036688D03*
X077706Y047188D03*
X070206Y047188D03*
X059706Y047188D03*
X052206Y047188D03*
X044706Y047188D03*
X037206Y047188D03*
X040206Y036688D03*
X038206Y029188D03*
X037206Y021688D03*
X036456Y014188D03*
X037831Y006688D03*
X045456Y006688D03*
X047706Y014188D03*
X047706Y021688D03*
X047706Y029188D03*
X047706Y036688D03*
X055206Y036688D03*
X055206Y029188D03*
X055206Y021688D03*
X055206Y014188D03*
X053831Y006688D03*
X032706Y036688D03*
X022706Y039688D03*
X022706Y032188D03*
X022706Y024688D03*
X022706Y014188D03*
X022706Y006688D03*
X030206Y006688D03*
X015206Y006688D03*
X015206Y024688D03*
X015206Y032188D03*
X015206Y039688D03*
X015206Y047188D03*
X022706Y047188D03*
D14*
X017706Y017938D03*
X017706Y016938D03*
X017706Y015938D03*
X017706Y014938D03*
X017706Y013938D03*
X017706Y012938D03*
X017706Y011938D03*
X014706Y011938D03*
X014706Y012938D03*
X014706Y013938D03*
X014706Y014938D03*
X014706Y015938D03*
X014706Y016938D03*
X014706Y017938D03*
X062206Y040438D03*
X063206Y040438D03*
X064206Y040438D03*
X065206Y040438D03*
X066206Y040438D03*
X067206Y040438D03*
X068206Y040438D03*
X069206Y040438D03*
X069206Y043438D03*
X068206Y043438D03*
X067206Y043438D03*
X066206Y043438D03*
X065206Y043438D03*
X064206Y043438D03*
X063206Y043438D03*
X062206Y043438D03*
D15*
X044331Y006688D03*
D16*
X029307Y033751D02*
X028480Y033751D01*
X028480Y034751D02*
X029307Y034751D01*
X029307Y035751D02*
X028480Y035751D01*
X028480Y036751D02*
X029307Y036751D01*
X029307Y037751D02*
X028480Y037751D01*
X028480Y038751D02*
X029307Y038751D01*
X029307Y039751D02*
X028480Y039751D01*
X028480Y040751D02*
X029307Y040751D01*
X033480Y040751D02*
X034307Y040751D01*
X034307Y041751D02*
X033480Y041751D01*
X033480Y042751D02*
X034307Y042751D01*
D17*
X015956Y013563D03*
X013581Y011563D03*
X065206Y041938D03*
D18*
X062206Y041938D01*
X062206Y043438D01*
X062206Y041938D02*
X035206Y041938D01*
X035206Y043688D01*
X032581Y043688D01*
X032581Y041938D01*
X028893Y041938D01*
X028893Y040751D01*
X038831Y041188D02*
X038956Y041188D01*
X069206Y041188D01*
X069206Y040438D01*
X018706Y019438D02*
X015956Y019438D01*
X015956Y013563D01*
X013581Y011563D02*
X013581Y016813D01*
X011706Y016813D01*
D19*
X018706Y017938D03*
D20*
X018706Y019438D01*
X028893Y019438D01*
X028893Y033751D01*
X011706Y028313D02*
X011706Y016813D01*
D21*
X028893Y033751D02*
X037081Y033751D01*
X037081Y041188D01*
X038956Y041188D01*
D22*
X010143Y001688D03*
X016956Y001688D03*
X010143Y010438D03*
X010143Y019438D03*
X010143Y028438D03*
X010143Y035938D03*
X010143Y043438D03*
X010143Y052188D03*
X018956Y052188D03*
X029956Y052188D03*
X040956Y052188D03*
X048456Y052188D03*
X055956Y052188D03*
X064956Y052188D03*
X070206Y052188D03*
X073956Y052188D03*
X078018Y052188D03*
X080206Y052188D03*
X078018Y001688D03*
X073956Y001688D03*
X070206Y001688D03*
X060456Y001688D03*
X050956Y001688D03*
X041456Y001688D03*
X031956Y001688D03*
X024456Y001688D03*
D23*
X026456Y010438D03*
X018956Y020938D03*
X018956Y028438D03*
X019581Y035938D03*
X018956Y043438D03*
X040956Y043438D03*
X048456Y043438D03*
X055956Y043438D03*
X058956Y032938D03*
X058956Y025438D03*
X058956Y017938D03*
X058956Y010438D03*
X051456Y017938D03*
X050206Y010063D03*
X043956Y017938D03*
X041456Y010438D03*
X043956Y025438D03*
X043956Y032938D03*
X051456Y032938D03*
X051456Y025438D03*
X066456Y025438D03*
X066456Y032938D03*
X073956Y032938D03*
X073956Y025438D03*
X073956Y017938D03*
X073956Y010438D03*
X066456Y010938D03*
X066456Y017938D03*
X073956Y040438D03*
X073956Y043438D03*
D24*
X028893Y040751D02*
X027081Y040751D01*
X027081Y028688D01*
X020956Y028688D01*
X019581Y030313D01*
X018081Y030313D01*
X017456Y029938D01*
X016706Y029188D01*
X016706Y028313D01*
X011706Y028313D01*
M02*
