G75*
G70*
%OFA0B0*%
%FSLAX24Y24*%
%IPPOS*%
%LPD*%
%AMOC8*
5,1,8,0,0,1.08239X$1,22.5*
%
%ADD10C,0.1580*%
%ADD11C,0.1092*%
%ADD12C,0.0474*%
%ADD13C,0.0940*%
%ADD14C,0.1261*%
%ADD15R,0.0710X0.0540*%
%ADD16R,0.0540X0.0710*%
%ADD17R,0.0060X0.0720*%
%ADD18R,0.0720X0.0060*%
%ADD19R,0.0789X0.0631*%
%ADD20R,0.0631X0.0789*%
%ADD21R,0.0907X0.0907*%
%ADD22R,0.0552X0.0789*%
%ADD23R,0.0552X0.0671*%
%ADD24R,0.0671X0.0552*%
%ADD25R,0.0671X0.0592*%
%ADD26C,0.0907*%
%ADD27OC8,0.0907*%
%ADD28R,0.0710X0.0592*%
%ADD29R,0.0592X0.0710*%
%ADD30C,0.1655*%
%ADD31C,0.0595*%
%ADD32R,0.0986X0.0986*%
%ADD33C,0.2049*%
%ADD34C,0.0867*%
D10*
X008049Y004688D03*
X010549Y005688D03*
X015549Y004688D03*
X018049Y005688D03*
X023049Y004688D03*
X025549Y005688D03*
X030674Y004688D03*
X033174Y005688D03*
X037174Y004688D03*
X038299Y004688D03*
X039674Y005688D03*
X040799Y005688D03*
X046674Y004688D03*
X049174Y005688D03*
X048049Y012188D03*
X050549Y013188D03*
X055549Y012188D03*
X058049Y013188D03*
X063049Y012188D03*
X065549Y013188D03*
X070549Y012188D03*
X073049Y013188D03*
X070549Y019688D03*
X073049Y020688D03*
X070549Y027188D03*
X073049Y028188D03*
X070549Y034688D03*
X073049Y035688D03*
X065549Y035688D03*
X063049Y034688D03*
X058049Y035688D03*
X055549Y034688D03*
X050549Y035688D03*
X048049Y034688D03*
X043049Y035688D03*
X040549Y034688D03*
X035549Y035688D03*
X033049Y034688D03*
X028049Y035688D03*
X025549Y034688D03*
X018049Y031188D03*
X015549Y030188D03*
X010549Y031188D03*
X008049Y030188D03*
X010549Y023688D03*
X008049Y022688D03*
X015549Y022688D03*
X018049Y023688D03*
X018049Y013188D03*
X015549Y012188D03*
X029299Y012188D03*
X031799Y013188D03*
X030049Y019688D03*
X032549Y020688D03*
X031049Y027188D03*
X033549Y028188D03*
X040549Y027188D03*
X043049Y028188D03*
X048049Y027188D03*
X050549Y028188D03*
X055549Y027188D03*
X058049Y028188D03*
X063049Y027188D03*
X065549Y028188D03*
X065549Y020688D03*
X063049Y019688D03*
X058049Y020688D03*
X055549Y019688D03*
X050549Y020688D03*
X048049Y019688D03*
X043049Y020688D03*
X040549Y019688D03*
X043049Y013188D03*
X040549Y012188D03*
X061799Y004688D03*
X064299Y005688D03*
X063049Y045188D03*
X065549Y046188D03*
X070549Y045188D03*
X073049Y046188D03*
X055049Y046188D03*
X052549Y045188D03*
X047549Y046188D03*
X045049Y045188D03*
X040049Y046188D03*
X037549Y045188D03*
X032549Y046188D03*
X030049Y045188D03*
X018049Y046188D03*
X015549Y045188D03*
X010549Y046188D03*
X008049Y045188D03*
X010549Y038688D03*
X008049Y037688D03*
X015549Y037688D03*
X018049Y038688D03*
D11*
X018549Y039688D03*
X014549Y039688D03*
X011049Y039688D03*
X007049Y039688D03*
X007049Y032188D03*
X011049Y032188D03*
X014549Y032188D03*
X018549Y032188D03*
X024549Y036688D03*
X028549Y036688D03*
X032049Y036688D03*
X036049Y036688D03*
X039549Y036688D03*
X043549Y036688D03*
X047049Y036688D03*
X051049Y036688D03*
X054549Y036688D03*
X058549Y036688D03*
X062049Y036688D03*
X066049Y036688D03*
X069549Y036688D03*
X073549Y036688D03*
X073549Y029188D03*
X069549Y029188D03*
X066049Y029188D03*
X062049Y029188D03*
X058549Y029188D03*
X054549Y029188D03*
X051049Y029188D03*
X047049Y029188D03*
X043549Y029188D03*
X039549Y029188D03*
X034049Y029188D03*
X030049Y029188D03*
X029049Y021688D03*
X033049Y021688D03*
X039549Y021688D03*
X043549Y021688D03*
X047049Y021688D03*
X051049Y021688D03*
X054549Y021688D03*
X058549Y021688D03*
X062049Y021688D03*
X066049Y021688D03*
X069549Y021688D03*
X073549Y021688D03*
X073549Y014188D03*
X069549Y014188D03*
X066049Y014188D03*
X062049Y014188D03*
X058549Y014188D03*
X054549Y014188D03*
X051049Y014188D03*
X047049Y014188D03*
X043549Y014188D03*
X039549Y014188D03*
X032299Y014188D03*
X028299Y014188D03*
X029674Y006688D03*
X026049Y006688D03*
X022049Y006688D03*
X018549Y006688D03*
X014549Y006688D03*
X011049Y006688D03*
X007049Y006688D03*
X014549Y014188D03*
X018549Y014188D03*
X018549Y024688D03*
X014549Y024688D03*
X011049Y024688D03*
X007049Y024688D03*
X007049Y047188D03*
X011049Y047188D03*
X014549Y047188D03*
X018549Y047188D03*
X029049Y047188D03*
X033049Y047188D03*
X036549Y047188D03*
X040549Y047188D03*
X044049Y047188D03*
X048049Y047188D03*
X051549Y047188D03*
X055549Y047188D03*
X062049Y047188D03*
X066049Y047188D03*
X069549Y047188D03*
X073549Y047188D03*
X064799Y006688D03*
X060799Y006688D03*
X049674Y006688D03*
X045674Y006688D03*
X041299Y006688D03*
X040174Y006688D03*
X037299Y006688D03*
X036174Y006688D03*
X033674Y006688D03*
D12*
X031674Y006688D03*
X024049Y006688D03*
X016549Y006688D03*
X009049Y006688D03*
X016549Y014188D03*
X016549Y024688D03*
X009049Y024688D03*
X009049Y032188D03*
X016549Y032188D03*
X016549Y039688D03*
X009049Y039688D03*
X009049Y047188D03*
X016549Y047188D03*
X026549Y036688D03*
X034049Y036688D03*
X041549Y036688D03*
X049049Y036688D03*
X056549Y036688D03*
X064049Y036688D03*
X071549Y036688D03*
X071549Y029188D03*
X064049Y029188D03*
X056549Y029188D03*
X049049Y029188D03*
X041549Y029188D03*
X041549Y021688D03*
X049049Y021688D03*
X056549Y021688D03*
X064049Y021688D03*
X071549Y021688D03*
X071549Y014188D03*
X064049Y014188D03*
X056549Y014188D03*
X049049Y014188D03*
X041549Y014188D03*
X039299Y006688D03*
X047674Y006688D03*
X062799Y006688D03*
X032049Y029188D03*
X031049Y021688D03*
X030299Y014188D03*
X031049Y047188D03*
X038549Y047188D03*
X046049Y047188D03*
X053549Y047188D03*
X064049Y047188D03*
X071549Y047188D03*
D13*
X071049Y048758D02*
X071049Y049618D01*
X072049Y049618D02*
X072049Y048758D01*
X073049Y048758D02*
X073049Y049618D01*
X070049Y049618D02*
X070049Y048758D01*
X065549Y048758D02*
X065549Y049618D01*
X064549Y049618D02*
X064549Y048758D01*
X063549Y048758D02*
X063549Y049618D01*
X062549Y049618D02*
X062549Y048758D01*
X055049Y048758D02*
X055049Y049618D01*
X054049Y049618D02*
X054049Y048758D01*
X053049Y048758D02*
X053049Y049618D01*
X052049Y049618D02*
X052049Y048758D01*
X047549Y048758D02*
X047549Y049618D01*
X046549Y049618D02*
X046549Y048758D01*
X045549Y048758D02*
X045549Y049618D01*
X044549Y049618D02*
X044549Y048758D01*
X040049Y048758D02*
X040049Y049618D01*
X039049Y049618D02*
X039049Y048758D01*
X038049Y048758D02*
X038049Y049618D01*
X037049Y049618D02*
X037049Y048758D01*
X032549Y048758D02*
X032549Y049618D01*
X031549Y049618D02*
X031549Y048758D01*
X030549Y048758D02*
X030549Y049618D01*
X029549Y049618D02*
X029549Y048758D01*
X028049Y039118D02*
X028049Y038258D01*
X027049Y038258D02*
X027049Y039118D01*
X026049Y039118D02*
X026049Y038258D01*
X025049Y038258D02*
X025049Y039118D01*
X018049Y041258D02*
X018049Y042118D01*
X017049Y042118D02*
X017049Y041258D01*
X016049Y041258D02*
X016049Y042118D01*
X015049Y042118D02*
X015049Y041258D01*
X010549Y041258D02*
X010549Y042118D01*
X009549Y042118D02*
X009549Y041258D01*
X008549Y041258D02*
X008549Y042118D01*
X007549Y042118D02*
X007549Y041258D01*
X007549Y034618D02*
X007549Y033758D01*
X008549Y033758D02*
X008549Y034618D01*
X009549Y034618D02*
X009549Y033758D01*
X010549Y033758D02*
X010549Y034618D01*
X015049Y034618D02*
X015049Y033758D01*
X016049Y033758D02*
X016049Y034618D01*
X017049Y034618D02*
X017049Y033758D01*
X018049Y033758D02*
X018049Y034618D01*
X018049Y027118D02*
X018049Y026258D01*
X017049Y026258D02*
X017049Y027118D01*
X016049Y027118D02*
X016049Y026258D01*
X015049Y026258D02*
X015049Y027118D01*
X010549Y027118D02*
X010549Y026258D01*
X009549Y026258D02*
X009549Y027118D01*
X008549Y027118D02*
X008549Y026258D01*
X007549Y026258D02*
X007549Y027118D01*
X015049Y016618D02*
X015049Y015758D01*
X016049Y015758D02*
X016049Y016618D01*
X017049Y016618D02*
X017049Y015758D01*
X018049Y015758D02*
X018049Y016618D01*
X018049Y009118D02*
X018049Y008258D01*
X017049Y008258D02*
X017049Y009118D01*
X016049Y009118D02*
X016049Y008258D01*
X015049Y008258D02*
X015049Y009118D01*
X010549Y009118D02*
X010549Y008258D01*
X009549Y008258D02*
X009549Y009118D01*
X008549Y009118D02*
X008549Y008258D01*
X007549Y008258D02*
X007549Y009118D01*
X022549Y009118D02*
X022549Y008258D01*
X023549Y008258D02*
X023549Y009118D01*
X024549Y009118D02*
X024549Y008258D01*
X025549Y008258D02*
X025549Y009118D01*
X030174Y009118D02*
X030174Y008258D01*
X031174Y008258D02*
X031174Y009118D01*
X032174Y009118D02*
X032174Y008258D01*
X033174Y008258D02*
X033174Y009118D01*
X037799Y009118D02*
X037799Y008258D01*
X038799Y008258D02*
X038799Y009118D01*
X039799Y009118D02*
X039799Y008258D01*
X040799Y008258D02*
X040799Y009118D01*
X046174Y009118D02*
X046174Y008258D01*
X047174Y008258D02*
X047174Y009118D01*
X048174Y009118D02*
X048174Y008258D01*
X049174Y008258D02*
X049174Y009118D01*
X049549Y015758D02*
X049549Y016618D01*
X048549Y016618D02*
X048549Y015758D01*
X047549Y015758D02*
X047549Y016618D01*
X050549Y016618D02*
X050549Y015758D01*
X055049Y015758D02*
X055049Y016618D01*
X056049Y016618D02*
X056049Y015758D01*
X057049Y015758D02*
X057049Y016618D01*
X058049Y016618D02*
X058049Y015758D01*
X062549Y015758D02*
X062549Y016618D01*
X063549Y016618D02*
X063549Y015758D01*
X064549Y015758D02*
X064549Y016618D01*
X065549Y016618D02*
X065549Y015758D01*
X070049Y015758D02*
X070049Y016618D01*
X071049Y016618D02*
X071049Y015758D01*
X072049Y015758D02*
X072049Y016618D01*
X073049Y016618D02*
X073049Y015758D01*
X073049Y023258D02*
X073049Y024118D01*
X072049Y024118D02*
X072049Y023258D01*
X071049Y023258D02*
X071049Y024118D01*
X070049Y024118D02*
X070049Y023258D01*
X065549Y023258D02*
X065549Y024118D01*
X064549Y024118D02*
X064549Y023258D01*
X063549Y023258D02*
X063549Y024118D01*
X062549Y024118D02*
X062549Y023258D01*
X058049Y023258D02*
X058049Y024118D01*
X057049Y024118D02*
X057049Y023258D01*
X056049Y023258D02*
X056049Y024118D01*
X055049Y024118D02*
X055049Y023258D01*
X050549Y023258D02*
X050549Y024118D01*
X049549Y024118D02*
X049549Y023258D01*
X048549Y023258D02*
X048549Y024118D01*
X047549Y024118D02*
X047549Y023258D01*
X043049Y023258D02*
X043049Y024118D01*
X042049Y024118D02*
X042049Y023258D01*
X041049Y023258D02*
X041049Y024118D01*
X040049Y024118D02*
X040049Y023258D01*
X040049Y016618D02*
X040049Y015758D01*
X041049Y015758D02*
X041049Y016618D01*
X042049Y016618D02*
X042049Y015758D01*
X043049Y015758D02*
X043049Y016618D01*
X032549Y023258D02*
X032549Y024118D01*
X031549Y024118D02*
X031549Y023258D01*
X030549Y023258D02*
X030549Y024118D01*
X029549Y024118D02*
X029549Y023258D01*
X029799Y016618D02*
X029799Y015758D01*
X028799Y015758D02*
X028799Y016618D01*
X030799Y016618D02*
X030799Y015758D01*
X031799Y015758D02*
X031799Y016618D01*
X031549Y030758D02*
X031549Y031618D01*
X030549Y031618D02*
X030549Y030758D01*
X032549Y030758D02*
X032549Y031618D01*
X033549Y031618D02*
X033549Y030758D01*
X040049Y030758D02*
X040049Y031618D01*
X041049Y031618D02*
X041049Y030758D01*
X042049Y030758D02*
X042049Y031618D01*
X043049Y031618D02*
X043049Y030758D01*
X047549Y030758D02*
X047549Y031618D01*
X048549Y031618D02*
X048549Y030758D01*
X049549Y030758D02*
X049549Y031618D01*
X050549Y031618D02*
X050549Y030758D01*
X055049Y030758D02*
X055049Y031618D01*
X056049Y031618D02*
X056049Y030758D01*
X057049Y030758D02*
X057049Y031618D01*
X058049Y031618D02*
X058049Y030758D01*
X062549Y030758D02*
X062549Y031618D01*
X063549Y031618D02*
X063549Y030758D01*
X064549Y030758D02*
X064549Y031618D01*
X065549Y031618D02*
X065549Y030758D01*
X070049Y030758D02*
X070049Y031618D01*
X071049Y031618D02*
X071049Y030758D01*
X072049Y030758D02*
X072049Y031618D01*
X073049Y031618D02*
X073049Y030758D01*
X073049Y038258D02*
X073049Y039118D01*
X072049Y039118D02*
X072049Y038258D01*
X071049Y038258D02*
X071049Y039118D01*
X070049Y039118D02*
X070049Y038258D01*
X065549Y038258D02*
X065549Y039118D01*
X064549Y039118D02*
X064549Y038258D01*
X063549Y038258D02*
X063549Y039118D01*
X062549Y039118D02*
X062549Y038258D01*
X058049Y038258D02*
X058049Y039118D01*
X057049Y039118D02*
X057049Y038258D01*
X056049Y038258D02*
X056049Y039118D01*
X055049Y039118D02*
X055049Y038258D01*
X050549Y038258D02*
X050549Y039118D01*
X049549Y039118D02*
X049549Y038258D01*
X048549Y038258D02*
X048549Y039118D01*
X047549Y039118D02*
X047549Y038258D01*
X043049Y038258D02*
X043049Y039118D01*
X042049Y039118D02*
X042049Y038258D01*
X041049Y038258D02*
X041049Y039118D01*
X040049Y039118D02*
X040049Y038258D01*
X035549Y038258D02*
X035549Y039118D01*
X034549Y039118D02*
X034549Y038258D01*
X033549Y038258D02*
X033549Y039118D01*
X032549Y039118D02*
X032549Y038258D01*
X018049Y048758D02*
X018049Y049618D01*
X017049Y049618D02*
X017049Y048758D01*
X016049Y048758D02*
X016049Y049618D01*
X015049Y049618D02*
X015049Y048758D01*
X010549Y048758D02*
X010549Y049618D01*
X009549Y049618D02*
X009549Y048758D01*
X008549Y048758D02*
X008549Y049618D01*
X007549Y049618D02*
X007549Y048758D01*
X061299Y009118D02*
X061299Y008258D01*
X062299Y008258D02*
X062299Y009118D01*
X063299Y009118D02*
X063299Y008258D01*
X064299Y008258D02*
X064299Y009118D01*
D14*
X062799Y006688D03*
X064049Y014188D03*
X056549Y014188D03*
X049049Y014188D03*
X041549Y014188D03*
X041549Y021688D03*
X049049Y021688D03*
X056549Y021688D03*
X064049Y021688D03*
X071549Y021688D03*
X071549Y014188D03*
X071549Y029188D03*
X064049Y029188D03*
X056549Y029188D03*
X049049Y029188D03*
X041549Y029188D03*
X041549Y036688D03*
X034049Y036688D03*
X026549Y036688D03*
X032049Y029188D03*
X031049Y021688D03*
X030299Y014188D03*
X031674Y006688D03*
X024049Y006688D03*
X016549Y006688D03*
X009049Y006688D03*
X016549Y014188D03*
X016549Y024688D03*
X009049Y024688D03*
X009049Y032188D03*
X016549Y032188D03*
X016549Y039688D03*
X009049Y039688D03*
X009049Y047188D03*
X016549Y047188D03*
X031049Y047188D03*
X038549Y047188D03*
X046049Y047188D03*
X053549Y047188D03*
X064049Y047188D03*
X071549Y047188D03*
X071549Y036688D03*
X064049Y036688D03*
X056549Y036688D03*
X049049Y036688D03*
X047674Y006688D03*
X039299Y006688D03*
D15*
X035799Y004238D03*
X035799Y003638D03*
X031924Y003638D03*
X031924Y004238D03*
X024299Y004238D03*
X024299Y003638D03*
X016799Y003638D03*
X016799Y004238D03*
X014799Y011138D03*
X014799Y011738D03*
X019799Y013638D03*
X019799Y014238D03*
X016549Y021388D03*
X016549Y021988D03*
X019799Y023638D03*
X019799Y024238D03*
X016799Y029138D03*
X016799Y029738D03*
X019799Y031388D03*
X019799Y031988D03*
X016549Y036138D03*
X016549Y036738D03*
X019674Y038763D03*
X019674Y039363D03*
X016799Y044388D03*
X016799Y044988D03*
X012299Y039738D03*
X012299Y039138D03*
X009299Y037238D03*
X009299Y036638D03*
X012299Y032238D03*
X012299Y031638D03*
X009049Y029488D03*
X009049Y028888D03*
X012299Y024738D03*
X012299Y024138D03*
X009299Y022238D03*
X009299Y021638D03*
X009424Y004238D03*
X009424Y003638D03*
X031299Y018638D03*
X031299Y019238D03*
X034549Y021138D03*
X034549Y021738D03*
X032299Y025888D03*
X032299Y026488D03*
X035549Y028388D03*
X035549Y028988D03*
X034299Y033638D03*
X034299Y034238D03*
X037299Y036138D03*
X037299Y036738D03*
X041799Y034238D03*
X041799Y033638D03*
X044674Y036263D03*
X044674Y036863D03*
X049299Y034238D03*
X049299Y033638D03*
X052299Y036138D03*
X052299Y036738D03*
X056549Y033738D03*
X056549Y033138D03*
X059799Y036638D03*
X059799Y037238D03*
X067299Y036238D03*
X067299Y035638D03*
X069799Y033613D03*
X069799Y033013D03*
X072174Y034013D03*
X072174Y034613D03*
X067299Y029238D03*
X067299Y028638D03*
X064299Y026488D03*
X064299Y025888D03*
X067299Y021738D03*
X067299Y021138D03*
X064299Y019238D03*
X064299Y018638D03*
X059799Y020888D03*
X059799Y021488D03*
X056799Y019238D03*
X056799Y018638D03*
X052299Y020888D03*
X052299Y021488D03*
X049299Y019238D03*
X049299Y018638D03*
X044799Y020888D03*
X044799Y021488D03*
X041799Y019238D03*
X041799Y018638D03*
X042049Y012238D03*
X042049Y011638D03*
X050174Y011738D03*
X050174Y011138D03*
X053174Y013263D03*
X053174Y013863D03*
X057049Y012363D03*
X057049Y011763D03*
X060799Y013388D03*
X060799Y013988D03*
X064549Y012363D03*
X064549Y011763D03*
X069299Y012513D03*
X069299Y013113D03*
X069924Y017888D03*
X069924Y018488D03*
X072174Y019013D03*
X072174Y019613D03*
X070049Y025138D03*
X070049Y025738D03*
X072174Y026638D03*
X072174Y027238D03*
X059799Y028388D03*
X059799Y028988D03*
X056549Y026488D03*
X056549Y025888D03*
X052299Y028388D03*
X052299Y028988D03*
X049049Y026488D03*
X049049Y025888D03*
X044799Y028388D03*
X044799Y028988D03*
X041799Y026488D03*
X041799Y025888D03*
X029299Y033638D03*
X029299Y034238D03*
X031299Y044138D03*
X031299Y044738D03*
X038799Y044738D03*
X038799Y044138D03*
X056049Y044888D03*
X056049Y045488D03*
X064549Y045238D03*
X064549Y044638D03*
X072299Y044513D03*
X072299Y045113D03*
X031799Y012113D03*
X031799Y011513D03*
X048049Y004363D03*
X048049Y003763D03*
X060424Y003763D03*
X060424Y004363D03*
X065924Y005263D03*
X065924Y005863D03*
X009549Y044638D03*
X009549Y045238D03*
X006799Y044488D03*
X006799Y043888D03*
D16*
X019249Y046188D03*
X019849Y046188D03*
X023624Y034688D03*
X024224Y034688D03*
X033749Y046188D03*
X034349Y046188D03*
X041249Y046438D03*
X041849Y046438D03*
X043249Y045938D03*
X043849Y045938D03*
X048749Y046188D03*
X049349Y046188D03*
X050499Y045438D03*
X051099Y045438D03*
X060999Y045688D03*
X061599Y045688D03*
X068749Y045938D03*
X069349Y045938D03*
X061849Y035188D03*
X061249Y035188D03*
X046974Y013063D03*
X046374Y013063D03*
X039474Y013063D03*
X038874Y013063D03*
X041999Y005688D03*
X042599Y005688D03*
X034974Y005688D03*
X034374Y005688D03*
X027349Y005688D03*
X026749Y005688D03*
X019849Y005688D03*
X019249Y005688D03*
X012349Y005688D03*
X011749Y005688D03*
X027499Y012188D03*
X028099Y012188D03*
X050499Y005688D03*
X051099Y005688D03*
G36*
X071396Y011786D02*
X071777Y012167D01*
X072278Y011666D01*
X071897Y011285D01*
X071396Y011786D01*
G37*
G36*
X071820Y012210D02*
X072201Y012591D01*
X072702Y012090D01*
X072321Y011709D01*
X071820Y012210D01*
G37*
D17*
X049049Y046188D03*
X041549Y046438D03*
X019549Y046188D03*
D18*
X012299Y031938D03*
D19*
X012299Y033019D03*
X012299Y034357D03*
X019299Y034607D03*
X019299Y033269D03*
X019799Y026857D03*
X019799Y025519D03*
X019674Y018232D03*
X020674Y018232D03*
X020674Y016894D03*
X019674Y016894D03*
X012299Y025519D03*
X012299Y026857D03*
X012299Y040519D03*
X012299Y041857D03*
X010299Y043269D03*
X010299Y044607D03*
X019549Y044019D03*
X019549Y045357D03*
X019549Y042232D03*
X019549Y040894D03*
X035549Y031482D03*
X035549Y030144D03*
X034549Y023857D03*
X034549Y022519D03*
X044799Y022269D03*
X044799Y023607D03*
X044799Y029769D03*
X044799Y031107D03*
X044674Y037644D03*
X044674Y038982D03*
X047424Y043519D03*
X047424Y044857D03*
X040049Y044794D03*
X040049Y043455D03*
X037424Y043607D03*
X037424Y042269D03*
X037424Y039107D03*
X037424Y037769D03*
X052299Y031107D03*
X052299Y029769D03*
X052299Y023607D03*
X052299Y022269D03*
X053174Y016107D03*
X053174Y014769D03*
X057987Y011607D03*
X057987Y010269D03*
X060799Y014769D03*
X060799Y016107D03*
X065549Y011607D03*
X065549Y010269D03*
X065924Y007857D03*
X065924Y006519D03*
X059799Y022269D03*
X059799Y023607D03*
X059799Y029769D03*
X059799Y031107D03*
X067299Y031357D03*
X067299Y030019D03*
X067299Y023857D03*
X067299Y022519D03*
X067299Y037269D03*
X067299Y038607D03*
X065299Y043144D03*
X065299Y044482D03*
X072299Y043857D03*
X072299Y042519D03*
X045049Y013732D03*
X045049Y012394D03*
D20*
X044380Y015438D03*
X045719Y015438D03*
X038344Y014938D03*
X037005Y014938D03*
X036880Y012188D03*
X038219Y012188D03*
X024469Y013938D03*
X023130Y013938D03*
X005969Y012063D03*
X004630Y012063D03*
X002219Y014188D03*
X000880Y014188D03*
X004130Y015938D03*
X005469Y015938D03*
X020005Y034688D03*
X021344Y034688D03*
X052380Y037938D03*
X053719Y037938D03*
X060130Y038063D03*
X061469Y038063D03*
G36*
X055524Y044856D02*
X055078Y044410D01*
X054522Y044966D01*
X054968Y045412D01*
X055524Y044856D01*
G37*
G36*
X054577Y043910D02*
X054131Y043464D01*
X053575Y044020D01*
X054021Y044466D01*
X054577Y043910D01*
G37*
X072005Y032938D03*
X073344Y032938D03*
X073344Y025438D03*
X072005Y025438D03*
X072005Y017938D03*
X073344Y017938D03*
X068344Y013188D03*
X067005Y013188D03*
D21*
X063049Y040438D03*
X062049Y040438D03*
X061049Y040438D03*
X060049Y040438D03*
X059049Y040438D03*
X058049Y040438D03*
X057049Y040438D03*
X056049Y040438D03*
X056049Y043438D03*
X057049Y043438D03*
X058049Y043438D03*
X059049Y043438D03*
X060049Y043438D03*
X061049Y043438D03*
X062049Y043438D03*
X063049Y043438D03*
X010799Y017938D03*
X010799Y016938D03*
X010799Y015938D03*
X010799Y014938D03*
X010799Y013938D03*
X010799Y012938D03*
X010799Y011938D03*
X007799Y011938D03*
X007799Y012938D03*
X007799Y013938D03*
X007799Y014938D03*
X007799Y015938D03*
X007799Y016938D03*
X007799Y017938D03*
D22*
X025549Y044848D03*
X026549Y044848D03*
X026549Y046028D03*
X025549Y046028D03*
X061049Y042528D03*
X061049Y041348D03*
D23*
X059924Y047098D03*
X058799Y047098D03*
X057674Y047098D03*
X057674Y048278D03*
X058799Y048278D03*
X059924Y048278D03*
X070049Y042528D03*
X070049Y041348D03*
X058049Y034278D03*
X058049Y033098D03*
X057924Y026528D03*
X057924Y025348D03*
X058174Y019278D03*
X058174Y018098D03*
X050799Y018098D03*
X050799Y019278D03*
X050549Y025348D03*
X050549Y026528D03*
X043049Y026528D03*
X043049Y025348D03*
X043299Y019278D03*
X043299Y018098D03*
X034799Y018098D03*
X034799Y019278D03*
X034549Y025348D03*
X034549Y026528D03*
X035424Y033098D03*
X035424Y034278D03*
X031424Y034278D03*
X031424Y033098D03*
X020549Y044098D03*
X020549Y045278D03*
X027549Y044848D03*
X027549Y046028D03*
X018174Y036778D03*
X018174Y035598D03*
X018799Y029778D03*
X018799Y028598D03*
X019674Y021903D03*
X019674Y020723D03*
X010549Y028348D03*
X010549Y029528D03*
X010549Y036098D03*
X010549Y037278D03*
X012924Y045098D03*
X012924Y046278D03*
X045674Y036153D03*
X045674Y034973D03*
X065549Y026528D03*
X065549Y025348D03*
X065799Y019278D03*
X065799Y018098D03*
D24*
X046139Y039813D03*
X046139Y040813D03*
X046139Y041813D03*
X046139Y042813D03*
X044959Y042813D03*
X044959Y041813D03*
X044959Y040813D03*
X044959Y039813D03*
X039764Y040063D03*
X039764Y040938D03*
X039764Y041813D03*
X038584Y041813D03*
X038584Y040938D03*
X038584Y040063D03*
X032264Y040313D03*
X031084Y040313D03*
X031084Y041313D03*
X031084Y042313D03*
X032264Y042313D03*
X032264Y041313D03*
X053334Y042313D03*
X053334Y043188D03*
X054514Y043188D03*
X054514Y042313D03*
X055014Y041313D03*
X055139Y040563D03*
X053959Y040563D03*
X053834Y041313D03*
X064709Y041938D03*
X065889Y041938D03*
X007764Y035813D03*
X006584Y035813D03*
X006209Y029063D03*
X007389Y029063D03*
X007389Y028188D03*
X006209Y028188D03*
X005889Y012938D03*
X004709Y012938D03*
D25*
X007799Y011687D03*
X007799Y010939D03*
D26*
X022011Y031438D02*
X022838Y031438D01*
X022838Y032438D02*
X022011Y032438D01*
X022011Y033438D02*
X022838Y033438D01*
X022838Y034438D02*
X022011Y034438D01*
X022011Y035438D02*
X022838Y035438D01*
X022838Y036438D02*
X022011Y036438D01*
X022011Y037438D02*
X022838Y037438D01*
X022838Y038438D02*
X022011Y038438D01*
X022011Y039438D02*
X022838Y039438D01*
X022838Y040438D02*
X022011Y040438D01*
X022011Y041438D02*
X022838Y041438D01*
X022838Y042438D02*
X022011Y042438D01*
X022011Y043438D02*
X022838Y043438D01*
D27*
X023299Y046063D03*
X024299Y046063D03*
X024299Y048938D03*
X023299Y048938D03*
D28*
X006674Y018187D03*
X006674Y017439D03*
X009799Y015562D03*
X009799Y014814D03*
D29*
X009923Y013813D03*
X009175Y013813D03*
X009175Y011938D03*
X009923Y011938D03*
X006923Y014313D03*
X006175Y014313D03*
X004798Y013813D03*
X004050Y013813D03*
D30*
X038174Y006688D03*
D31*
X038174Y006688D03*
D32*
X006049Y010938D03*
D33*
X003987Y001688D03*
X010799Y001688D03*
X018299Y001688D03*
X025799Y001688D03*
X035299Y001688D03*
X044799Y001688D03*
X054299Y001688D03*
X064049Y001688D03*
X067799Y001688D03*
X071862Y001688D03*
X071862Y052188D03*
X074049Y052188D03*
X067799Y052188D03*
X064049Y052188D03*
X058799Y052188D03*
X049799Y052188D03*
X042299Y052188D03*
X034799Y052188D03*
X023799Y052188D03*
X012799Y052188D03*
X003987Y052188D03*
X003987Y043438D03*
X003987Y035938D03*
X003987Y028438D03*
X003987Y019438D03*
X003987Y010438D03*
D34*
X012799Y020938D03*
X012799Y028438D03*
X012799Y035938D03*
X012799Y043438D03*
X034799Y043438D03*
X042299Y043438D03*
X049799Y043438D03*
X052799Y032938D03*
X045299Y032938D03*
X037799Y032938D03*
X037799Y025438D03*
X045299Y025438D03*
X052799Y025438D03*
X060299Y025438D03*
X067799Y025438D03*
X067799Y017938D03*
X060299Y017938D03*
X060299Y010938D03*
X052799Y010438D03*
X052799Y017938D03*
X045299Y017938D03*
X037799Y017938D03*
X035299Y010438D03*
X044424Y010438D03*
X067799Y010438D03*
X067799Y032938D03*
X060299Y032938D03*
X067799Y040438D03*
X067799Y043438D03*
X020299Y010438D03*
M02*
