G75*
G70*
%OFA0B0*%
%FSLAX24Y24*%
%IPPOS*%
%LPD*%
%AMOC8*
5,1,8,0,0,1.08239X$1,22.5*
%
%ADD10C,0.0100*%
%ADD11C,0.0051*%
%ADD12C,0.0110*%
%ADD13C,0.0050*%
%ADD14C,0.0040*%
%ADD15C,0.0079*%
%ADD16C,0.0060*%
%ADD17R,0.0571X0.0295*%
%ADD18R,0.0689X0.0295*%
%ADD19R,0.0295X0.0689*%
%ADD20R,0.0200X0.0100*%
%ADD21C,0.0080*%
%ADD22C,0.0000*%
D10*
X022799Y045313D02*
X022842Y045259D01*
X022888Y045207D01*
X022937Y045158D01*
X022989Y045111D01*
X023043Y045068D01*
X023099Y045027D01*
X023158Y044990D01*
X023218Y044956D01*
X023281Y044926D01*
X023344Y044899D01*
X023410Y044875D01*
X023476Y044855D01*
X023544Y044839D01*
X023612Y044827D01*
X023681Y044819D01*
X023750Y044814D01*
X023820Y044813D01*
X023889Y044816D01*
X023958Y044823D01*
X024026Y044834D01*
X024094Y044848D01*
X024161Y044867D01*
X024227Y044889D01*
X024292Y044914D01*
X024355Y044943D01*
X024416Y044976D01*
X024475Y045012D01*
X024532Y045051D01*
X024588Y045093D01*
X024640Y045138D01*
X024690Y045186D01*
X024737Y045237D01*
X024782Y045291D01*
X024823Y045346D01*
X024861Y045404D01*
X024896Y045464D01*
X024928Y045526D01*
X024956Y045589D01*
X024980Y045654D01*
X025001Y045720D01*
X025018Y045788D01*
X025032Y045856D01*
X025041Y045925D01*
X025047Y045994D01*
X025049Y046063D01*
X025047Y046132D01*
X025041Y046201D01*
X025032Y046270D01*
X025018Y046338D01*
X025001Y046406D01*
X024980Y046472D01*
X024956Y046537D01*
X024928Y046600D01*
X024896Y046662D01*
X024861Y046722D01*
X024823Y046780D01*
X024782Y046835D01*
X024737Y046889D01*
X024690Y046940D01*
X024640Y046988D01*
X024588Y047033D01*
X024532Y047075D01*
X024475Y047114D01*
X024416Y047150D01*
X024355Y047183D01*
X024292Y047212D01*
X024227Y047237D01*
X024161Y047259D01*
X024094Y047278D01*
X024026Y047292D01*
X023958Y047303D01*
X023889Y047310D01*
X023820Y047313D01*
X023750Y047312D01*
X023681Y047307D01*
X023612Y047299D01*
X023544Y047287D01*
X023476Y047271D01*
X023410Y047251D01*
X023344Y047227D01*
X023281Y047200D01*
X023218Y047170D01*
X023158Y047136D01*
X023099Y047099D01*
X023043Y047058D01*
X022989Y047015D01*
X022937Y046968D01*
X022888Y046919D01*
X022842Y046867D01*
X022799Y046813D01*
X022799Y048188D02*
X022842Y048134D01*
X022888Y048082D01*
X022937Y048033D01*
X022989Y047986D01*
X023043Y047943D01*
X023099Y047902D01*
X023158Y047865D01*
X023218Y047831D01*
X023281Y047801D01*
X023344Y047774D01*
X023410Y047750D01*
X023476Y047730D01*
X023544Y047714D01*
X023612Y047702D01*
X023681Y047694D01*
X023750Y047689D01*
X023820Y047688D01*
X023889Y047691D01*
X023958Y047698D01*
X024026Y047709D01*
X024094Y047723D01*
X024161Y047742D01*
X024227Y047764D01*
X024292Y047789D01*
X024355Y047818D01*
X024416Y047851D01*
X024475Y047887D01*
X024532Y047926D01*
X024588Y047968D01*
X024640Y048013D01*
X024690Y048061D01*
X024737Y048112D01*
X024782Y048166D01*
X024823Y048221D01*
X024861Y048279D01*
X024896Y048339D01*
X024928Y048401D01*
X024956Y048464D01*
X024980Y048529D01*
X025001Y048595D01*
X025018Y048663D01*
X025032Y048731D01*
X025041Y048800D01*
X025047Y048869D01*
X025049Y048938D01*
X025047Y049007D01*
X025041Y049076D01*
X025032Y049145D01*
X025018Y049213D01*
X025001Y049281D01*
X024980Y049347D01*
X024956Y049412D01*
X024928Y049475D01*
X024896Y049537D01*
X024861Y049597D01*
X024823Y049655D01*
X024782Y049710D01*
X024737Y049764D01*
X024690Y049815D01*
X024640Y049863D01*
X024588Y049908D01*
X024532Y049950D01*
X024475Y049989D01*
X024416Y050025D01*
X024355Y050058D01*
X024292Y050087D01*
X024227Y050112D01*
X024161Y050134D01*
X024094Y050153D01*
X024026Y050167D01*
X023958Y050178D01*
X023889Y050185D01*
X023820Y050188D01*
X023750Y050187D01*
X023681Y050182D01*
X023612Y050174D01*
X023544Y050162D01*
X023476Y050146D01*
X023410Y050126D01*
X023344Y050102D01*
X023281Y050075D01*
X023218Y050045D01*
X023158Y050011D01*
X023099Y049974D01*
X023043Y049933D01*
X022989Y049890D01*
X022937Y049843D01*
X022888Y049794D01*
X022842Y049742D01*
X022799Y049688D01*
X066815Y040438D02*
X066817Y040500D01*
X066823Y040563D01*
X066833Y040624D01*
X066847Y040685D01*
X066864Y040745D01*
X066885Y040804D01*
X066911Y040861D01*
X066939Y040916D01*
X066971Y040970D01*
X067007Y041021D01*
X067045Y041071D01*
X067087Y041117D01*
X067131Y041161D01*
X067179Y041202D01*
X067228Y041240D01*
X067280Y041274D01*
X067334Y041305D01*
X067390Y041333D01*
X067448Y041357D01*
X067507Y041378D01*
X067567Y041394D01*
X067628Y041407D01*
X067690Y041416D01*
X067752Y041421D01*
X067815Y041422D01*
X067877Y041419D01*
X067939Y041412D01*
X068001Y041401D01*
X068061Y041386D01*
X068121Y041368D01*
X068179Y041346D01*
X068236Y041320D01*
X068291Y041290D01*
X068344Y041257D01*
X068395Y041221D01*
X068443Y041182D01*
X068489Y041139D01*
X068532Y041094D01*
X068572Y041046D01*
X068609Y040996D01*
X068643Y040943D01*
X068674Y040889D01*
X068700Y040833D01*
X068724Y040775D01*
X068743Y040715D01*
X068759Y040655D01*
X068771Y040593D01*
X068779Y040532D01*
X068783Y040469D01*
X068783Y040407D01*
X068779Y040344D01*
X068771Y040283D01*
X068759Y040221D01*
X068743Y040161D01*
X068724Y040101D01*
X068700Y040043D01*
X068674Y039987D01*
X068643Y039933D01*
X068609Y039880D01*
X068572Y039830D01*
X068532Y039782D01*
X068489Y039737D01*
X068443Y039694D01*
X068395Y039655D01*
X068344Y039619D01*
X068291Y039586D01*
X068236Y039556D01*
X068179Y039530D01*
X068121Y039508D01*
X068061Y039490D01*
X068001Y039475D01*
X067939Y039464D01*
X067877Y039457D01*
X067815Y039454D01*
X067752Y039455D01*
X067690Y039460D01*
X067628Y039469D01*
X067567Y039482D01*
X067507Y039498D01*
X067448Y039519D01*
X067390Y039543D01*
X067334Y039571D01*
X067280Y039602D01*
X067228Y039636D01*
X067179Y039674D01*
X067131Y039715D01*
X067087Y039759D01*
X067045Y039805D01*
X067007Y039855D01*
X066971Y039906D01*
X066939Y039960D01*
X066911Y040015D01*
X066885Y040072D01*
X066864Y040131D01*
X066847Y040191D01*
X066833Y040252D01*
X066823Y040313D01*
X066817Y040376D01*
X066815Y040438D01*
X066815Y032938D02*
X066817Y033000D01*
X066823Y033063D01*
X066833Y033124D01*
X066847Y033185D01*
X066864Y033245D01*
X066885Y033304D01*
X066911Y033361D01*
X066939Y033416D01*
X066971Y033470D01*
X067007Y033521D01*
X067045Y033571D01*
X067087Y033617D01*
X067131Y033661D01*
X067179Y033702D01*
X067228Y033740D01*
X067280Y033774D01*
X067334Y033805D01*
X067390Y033833D01*
X067448Y033857D01*
X067507Y033878D01*
X067567Y033894D01*
X067628Y033907D01*
X067690Y033916D01*
X067752Y033921D01*
X067815Y033922D01*
X067877Y033919D01*
X067939Y033912D01*
X068001Y033901D01*
X068061Y033886D01*
X068121Y033868D01*
X068179Y033846D01*
X068236Y033820D01*
X068291Y033790D01*
X068344Y033757D01*
X068395Y033721D01*
X068443Y033682D01*
X068489Y033639D01*
X068532Y033594D01*
X068572Y033546D01*
X068609Y033496D01*
X068643Y033443D01*
X068674Y033389D01*
X068700Y033333D01*
X068724Y033275D01*
X068743Y033215D01*
X068759Y033155D01*
X068771Y033093D01*
X068779Y033032D01*
X068783Y032969D01*
X068783Y032907D01*
X068779Y032844D01*
X068771Y032783D01*
X068759Y032721D01*
X068743Y032661D01*
X068724Y032601D01*
X068700Y032543D01*
X068674Y032487D01*
X068643Y032433D01*
X068609Y032380D01*
X068572Y032330D01*
X068532Y032282D01*
X068489Y032237D01*
X068443Y032194D01*
X068395Y032155D01*
X068344Y032119D01*
X068291Y032086D01*
X068236Y032056D01*
X068179Y032030D01*
X068121Y032008D01*
X068061Y031990D01*
X068001Y031975D01*
X067939Y031964D01*
X067877Y031957D01*
X067815Y031954D01*
X067752Y031955D01*
X067690Y031960D01*
X067628Y031969D01*
X067567Y031982D01*
X067507Y031998D01*
X067448Y032019D01*
X067390Y032043D01*
X067334Y032071D01*
X067280Y032102D01*
X067228Y032136D01*
X067179Y032174D01*
X067131Y032215D01*
X067087Y032259D01*
X067045Y032305D01*
X067007Y032355D01*
X066971Y032406D01*
X066939Y032460D01*
X066911Y032515D01*
X066885Y032572D01*
X066864Y032631D01*
X066847Y032691D01*
X066833Y032752D01*
X066823Y032813D01*
X066817Y032876D01*
X066815Y032938D01*
X066815Y025438D02*
X066817Y025500D01*
X066823Y025563D01*
X066833Y025624D01*
X066847Y025685D01*
X066864Y025745D01*
X066885Y025804D01*
X066911Y025861D01*
X066939Y025916D01*
X066971Y025970D01*
X067007Y026021D01*
X067045Y026071D01*
X067087Y026117D01*
X067131Y026161D01*
X067179Y026202D01*
X067228Y026240D01*
X067280Y026274D01*
X067334Y026305D01*
X067390Y026333D01*
X067448Y026357D01*
X067507Y026378D01*
X067567Y026394D01*
X067628Y026407D01*
X067690Y026416D01*
X067752Y026421D01*
X067815Y026422D01*
X067877Y026419D01*
X067939Y026412D01*
X068001Y026401D01*
X068061Y026386D01*
X068121Y026368D01*
X068179Y026346D01*
X068236Y026320D01*
X068291Y026290D01*
X068344Y026257D01*
X068395Y026221D01*
X068443Y026182D01*
X068489Y026139D01*
X068532Y026094D01*
X068572Y026046D01*
X068609Y025996D01*
X068643Y025943D01*
X068674Y025889D01*
X068700Y025833D01*
X068724Y025775D01*
X068743Y025715D01*
X068759Y025655D01*
X068771Y025593D01*
X068779Y025532D01*
X068783Y025469D01*
X068783Y025407D01*
X068779Y025344D01*
X068771Y025283D01*
X068759Y025221D01*
X068743Y025161D01*
X068724Y025101D01*
X068700Y025043D01*
X068674Y024987D01*
X068643Y024933D01*
X068609Y024880D01*
X068572Y024830D01*
X068532Y024782D01*
X068489Y024737D01*
X068443Y024694D01*
X068395Y024655D01*
X068344Y024619D01*
X068291Y024586D01*
X068236Y024556D01*
X068179Y024530D01*
X068121Y024508D01*
X068061Y024490D01*
X068001Y024475D01*
X067939Y024464D01*
X067877Y024457D01*
X067815Y024454D01*
X067752Y024455D01*
X067690Y024460D01*
X067628Y024469D01*
X067567Y024482D01*
X067507Y024498D01*
X067448Y024519D01*
X067390Y024543D01*
X067334Y024571D01*
X067280Y024602D01*
X067228Y024636D01*
X067179Y024674D01*
X067131Y024715D01*
X067087Y024759D01*
X067045Y024805D01*
X067007Y024855D01*
X066971Y024906D01*
X066939Y024960D01*
X066911Y025015D01*
X066885Y025072D01*
X066864Y025131D01*
X066847Y025191D01*
X066833Y025252D01*
X066823Y025313D01*
X066817Y025376D01*
X066815Y025438D01*
X066815Y017938D02*
X066817Y018000D01*
X066823Y018063D01*
X066833Y018124D01*
X066847Y018185D01*
X066864Y018245D01*
X066885Y018304D01*
X066911Y018361D01*
X066939Y018416D01*
X066971Y018470D01*
X067007Y018521D01*
X067045Y018571D01*
X067087Y018617D01*
X067131Y018661D01*
X067179Y018702D01*
X067228Y018740D01*
X067280Y018774D01*
X067334Y018805D01*
X067390Y018833D01*
X067448Y018857D01*
X067507Y018878D01*
X067567Y018894D01*
X067628Y018907D01*
X067690Y018916D01*
X067752Y018921D01*
X067815Y018922D01*
X067877Y018919D01*
X067939Y018912D01*
X068001Y018901D01*
X068061Y018886D01*
X068121Y018868D01*
X068179Y018846D01*
X068236Y018820D01*
X068291Y018790D01*
X068344Y018757D01*
X068395Y018721D01*
X068443Y018682D01*
X068489Y018639D01*
X068532Y018594D01*
X068572Y018546D01*
X068609Y018496D01*
X068643Y018443D01*
X068674Y018389D01*
X068700Y018333D01*
X068724Y018275D01*
X068743Y018215D01*
X068759Y018155D01*
X068771Y018093D01*
X068779Y018032D01*
X068783Y017969D01*
X068783Y017907D01*
X068779Y017844D01*
X068771Y017783D01*
X068759Y017721D01*
X068743Y017661D01*
X068724Y017601D01*
X068700Y017543D01*
X068674Y017487D01*
X068643Y017433D01*
X068609Y017380D01*
X068572Y017330D01*
X068532Y017282D01*
X068489Y017237D01*
X068443Y017194D01*
X068395Y017155D01*
X068344Y017119D01*
X068291Y017086D01*
X068236Y017056D01*
X068179Y017030D01*
X068121Y017008D01*
X068061Y016990D01*
X068001Y016975D01*
X067939Y016964D01*
X067877Y016957D01*
X067815Y016954D01*
X067752Y016955D01*
X067690Y016960D01*
X067628Y016969D01*
X067567Y016982D01*
X067507Y016998D01*
X067448Y017019D01*
X067390Y017043D01*
X067334Y017071D01*
X067280Y017102D01*
X067228Y017136D01*
X067179Y017174D01*
X067131Y017215D01*
X067087Y017259D01*
X067045Y017305D01*
X067007Y017355D01*
X066971Y017406D01*
X066939Y017460D01*
X066911Y017515D01*
X066885Y017572D01*
X066864Y017631D01*
X066847Y017691D01*
X066833Y017752D01*
X066823Y017813D01*
X066817Y017876D01*
X066815Y017938D01*
X066815Y010438D02*
X066817Y010500D01*
X066823Y010563D01*
X066833Y010624D01*
X066847Y010685D01*
X066864Y010745D01*
X066885Y010804D01*
X066911Y010861D01*
X066939Y010916D01*
X066971Y010970D01*
X067007Y011021D01*
X067045Y011071D01*
X067087Y011117D01*
X067131Y011161D01*
X067179Y011202D01*
X067228Y011240D01*
X067280Y011274D01*
X067334Y011305D01*
X067390Y011333D01*
X067448Y011357D01*
X067507Y011378D01*
X067567Y011394D01*
X067628Y011407D01*
X067690Y011416D01*
X067752Y011421D01*
X067815Y011422D01*
X067877Y011419D01*
X067939Y011412D01*
X068001Y011401D01*
X068061Y011386D01*
X068121Y011368D01*
X068179Y011346D01*
X068236Y011320D01*
X068291Y011290D01*
X068344Y011257D01*
X068395Y011221D01*
X068443Y011182D01*
X068489Y011139D01*
X068532Y011094D01*
X068572Y011046D01*
X068609Y010996D01*
X068643Y010943D01*
X068674Y010889D01*
X068700Y010833D01*
X068724Y010775D01*
X068743Y010715D01*
X068759Y010655D01*
X068771Y010593D01*
X068779Y010532D01*
X068783Y010469D01*
X068783Y010407D01*
X068779Y010344D01*
X068771Y010283D01*
X068759Y010221D01*
X068743Y010161D01*
X068724Y010101D01*
X068700Y010043D01*
X068674Y009987D01*
X068643Y009933D01*
X068609Y009880D01*
X068572Y009830D01*
X068532Y009782D01*
X068489Y009737D01*
X068443Y009694D01*
X068395Y009655D01*
X068344Y009619D01*
X068291Y009586D01*
X068236Y009556D01*
X068179Y009530D01*
X068121Y009508D01*
X068061Y009490D01*
X068001Y009475D01*
X067939Y009464D01*
X067877Y009457D01*
X067815Y009454D01*
X067752Y009455D01*
X067690Y009460D01*
X067628Y009469D01*
X067567Y009482D01*
X067507Y009498D01*
X067448Y009519D01*
X067390Y009543D01*
X067334Y009571D01*
X067280Y009602D01*
X067228Y009636D01*
X067179Y009674D01*
X067131Y009715D01*
X067087Y009759D01*
X067045Y009805D01*
X067007Y009855D01*
X066971Y009906D01*
X066939Y009960D01*
X066911Y010015D01*
X066885Y010072D01*
X066864Y010131D01*
X066847Y010191D01*
X066833Y010252D01*
X066823Y010313D01*
X066817Y010376D01*
X066815Y010438D01*
D11*
X002737Y000126D02*
X002737Y061038D01*
X002737Y060251D02*
X001713Y060148D01*
X001713Y060125D02*
X002737Y060251D01*
X001713Y060353D01*
X001713Y060376D02*
X001713Y060125D01*
X001713Y060199D02*
X002737Y060251D01*
X001713Y060302D01*
X001713Y060376D02*
X002737Y060251D01*
X000689Y060251D01*
X001049Y056850D02*
X001049Y053438D01*
X001049Y056063D02*
X002073Y055961D01*
X002073Y055937D02*
X001049Y056063D01*
X002073Y056165D01*
X002073Y056189D02*
X002073Y055937D01*
X002073Y056012D02*
X001049Y056063D01*
X002073Y056114D01*
X002073Y056189D02*
X001049Y056063D01*
X075299Y056063D01*
X074276Y055961D01*
X074276Y055937D02*
X075299Y056063D01*
X074276Y056165D01*
X074276Y056189D02*
X074276Y055937D01*
X074276Y056012D02*
X075299Y056063D01*
X074276Y056114D01*
X074276Y056189D02*
X075299Y056063D01*
X075299Y056850D02*
X075299Y053063D01*
X032285Y065188D02*
X027424Y065188D01*
X028448Y065086D01*
X028448Y065062D02*
X027424Y065188D01*
X028448Y065290D01*
X028448Y065314D02*
X028448Y065062D01*
X028448Y065137D02*
X027424Y065188D01*
X028448Y065239D01*
X028448Y065314D02*
X027424Y065188D01*
X027424Y065975D02*
X027424Y056813D01*
X027424Y055725D02*
X027424Y050938D01*
X023799Y047563D02*
X023799Y062225D01*
X023799Y062813D02*
X023799Y065975D01*
X023799Y065188D02*
X022776Y065086D01*
X022776Y065062D02*
X023799Y065188D01*
X022776Y065290D01*
X022776Y065314D02*
X022776Y065062D01*
X022776Y065137D02*
X023799Y065188D01*
X022776Y065239D01*
X022776Y065314D02*
X023799Y065188D01*
X021752Y065188D01*
X020174Y062225D02*
X020174Y056563D01*
X020174Y055725D02*
X020174Y051313D01*
X020174Y054938D02*
X021198Y054836D01*
X021198Y054812D02*
X020174Y054938D01*
X021198Y055040D01*
X021198Y055064D02*
X021198Y054812D01*
X021198Y054887D02*
X020174Y054938D01*
X021198Y054989D01*
X021198Y055064D02*
X020174Y054938D01*
X027424Y054938D01*
X026401Y054836D01*
X026401Y054812D02*
X027424Y054938D01*
X026401Y055040D01*
X026401Y055064D02*
X026401Y054812D01*
X026401Y054887D02*
X027424Y054938D01*
X026401Y054989D01*
X026401Y055064D02*
X027424Y054938D01*
X028660Y061438D02*
X023799Y061438D01*
X024823Y061336D01*
X024823Y061312D02*
X023799Y061438D01*
X024823Y061540D01*
X024823Y061564D02*
X024823Y061312D01*
X024823Y061387D02*
X023799Y061438D01*
X024823Y061489D01*
X024823Y061564D02*
X023799Y061438D01*
X020174Y061438D02*
X019151Y061336D01*
X019151Y061312D02*
X020174Y061438D01*
X019151Y061540D01*
X019151Y061564D02*
X019151Y061312D01*
X019151Y061387D02*
X020174Y061438D01*
X019151Y061489D01*
X019151Y061564D02*
X020174Y061438D01*
X018127Y061438D01*
X010348Y060251D02*
X005487Y060251D01*
X006510Y060148D01*
X006510Y060125D02*
X005487Y060251D01*
X006510Y060353D01*
X006510Y060376D02*
X006510Y060125D01*
X006510Y060199D02*
X005487Y060251D01*
X006510Y060302D01*
X006510Y060376D02*
X005487Y060251D01*
X005487Y061038D02*
X005487Y003001D01*
D12*
X021387Y055387D02*
X022233Y055387D01*
X021810Y055387D02*
X021810Y056656D01*
X021387Y056233D01*
X022656Y056233D02*
X022868Y056021D01*
X023291Y056021D01*
X023502Y055810D01*
X023502Y055598D01*
X023291Y055387D01*
X022868Y055387D01*
X022656Y055598D01*
X022656Y055810D01*
X022868Y056021D01*
X022656Y056233D02*
X022656Y056444D01*
X022868Y056656D01*
X023291Y056656D01*
X023502Y056444D01*
X023502Y056233D01*
X023291Y056021D01*
X023925Y055598D02*
X024136Y055598D01*
X024136Y055387D01*
X023925Y055387D01*
X023925Y055598D01*
X024559Y056021D02*
X025405Y056021D01*
X025828Y056444D02*
X026040Y056656D01*
X026463Y056656D01*
X026674Y056444D01*
X026674Y056233D01*
X025828Y055387D01*
X026674Y055387D01*
X025194Y055387D02*
X025194Y056656D01*
X024559Y056021D01*
X025089Y061887D02*
X024878Y062098D01*
X025089Y061887D02*
X025512Y061887D01*
X025724Y062098D01*
X025724Y062944D01*
X025512Y063156D01*
X025089Y063156D01*
X024878Y062944D01*
X024878Y062733D01*
X025089Y062521D01*
X025724Y062521D01*
X026147Y062098D02*
X026358Y062098D01*
X026358Y061887D01*
X026147Y061887D01*
X026147Y062098D01*
X026781Y061887D02*
X027627Y062733D01*
X027627Y062944D01*
X027416Y063156D01*
X026993Y063156D01*
X026781Y062944D01*
X026781Y061887D02*
X027627Y061887D01*
X028050Y061887D02*
X028896Y061887D01*
X028473Y061887D02*
X028473Y063156D01*
X028050Y062733D01*
X028714Y065637D02*
X028503Y065848D01*
X028714Y065637D02*
X029137Y065637D01*
X029349Y065848D01*
X029349Y066694D01*
X029137Y066906D01*
X028714Y066906D01*
X028503Y066694D01*
X028503Y066483D01*
X028714Y066271D01*
X029349Y066271D01*
X029772Y065848D02*
X029983Y065848D01*
X029983Y065637D01*
X029772Y065637D01*
X029772Y065848D01*
X030406Y065637D02*
X031252Y066483D01*
X031252Y066694D01*
X031041Y066906D01*
X030618Y066906D01*
X030406Y066694D01*
X030406Y065637D02*
X031252Y065637D01*
X031675Y065637D02*
X032521Y065637D01*
X032098Y065637D02*
X032098Y066906D01*
X031675Y066483D01*
X036185Y057781D02*
X036185Y056512D01*
X035762Y056512D02*
X036608Y056512D01*
X037031Y056723D02*
X037031Y056935D01*
X037243Y057146D01*
X037666Y057146D01*
X037877Y056935D01*
X037877Y056723D01*
X037666Y056512D01*
X037243Y056512D01*
X037031Y056723D01*
X037243Y057146D02*
X037031Y057358D01*
X037031Y057569D01*
X037243Y057781D01*
X037666Y057781D01*
X037877Y057569D01*
X037877Y057358D01*
X037666Y057146D01*
X038300Y056935D02*
X038511Y057146D01*
X038934Y057146D01*
X039146Y056935D01*
X039146Y056723D01*
X038934Y056512D01*
X038511Y056512D01*
X038300Y056723D01*
X038300Y056935D01*
X038511Y057146D02*
X038300Y057358D01*
X038300Y057569D01*
X038511Y057781D01*
X038934Y057781D01*
X039146Y057569D01*
X039146Y057358D01*
X038934Y057146D01*
X039569Y056723D02*
X039569Y056512D01*
X039780Y056512D01*
X039780Y056723D01*
X039569Y056723D01*
X040203Y056723D02*
X040415Y056512D01*
X040838Y056512D01*
X041049Y056723D01*
X041049Y056935D01*
X040838Y057146D01*
X040203Y057146D01*
X040203Y056723D01*
X040203Y057146D02*
X040626Y057569D01*
X041049Y057781D01*
X036185Y057781D02*
X035762Y057358D01*
X010583Y060911D02*
X010583Y061757D01*
X010372Y061968D01*
X009949Y061968D01*
X009737Y061757D01*
X009737Y061545D01*
X009949Y061334D01*
X010583Y061334D01*
X010583Y060911D02*
X010372Y060699D01*
X009949Y060699D01*
X009737Y060911D01*
X009315Y060911D02*
X009315Y061757D01*
X009103Y061968D01*
X008680Y061968D01*
X008469Y061757D01*
X008469Y061545D01*
X008680Y061334D01*
X009315Y061334D01*
X009315Y060911D02*
X009103Y060699D01*
X008680Y060699D01*
X008469Y060911D01*
X008046Y060911D02*
X008046Y060699D01*
X007834Y060699D01*
X007834Y060911D01*
X008046Y060911D01*
X007411Y060911D02*
X007200Y060699D01*
X006777Y060699D01*
X006565Y060911D01*
X006565Y061334D01*
X007200Y061334D01*
X007411Y061122D01*
X007411Y060911D01*
X006988Y061757D02*
X006565Y061334D01*
X006988Y061757D02*
X007411Y061968D01*
D13*
X006049Y050188D02*
X012049Y050188D01*
X012049Y044188D01*
X006049Y044188D01*
X006049Y050188D01*
X013549Y050188D02*
X013549Y044188D01*
X019549Y044188D01*
X019549Y050188D01*
X013549Y050188D01*
X019812Y045753D02*
X019812Y045678D01*
X019887Y045603D01*
X020037Y045603D01*
X020112Y045528D01*
X020112Y045453D01*
X020037Y045378D01*
X019887Y045378D01*
X019812Y045453D01*
X019812Y045753D02*
X019887Y045828D01*
X020037Y045828D01*
X020112Y045753D01*
X020272Y045753D02*
X020272Y045453D01*
X020347Y045378D01*
X020497Y045378D01*
X020573Y045453D01*
X020733Y045378D02*
X020733Y045828D01*
X020958Y045828D01*
X021033Y045753D01*
X021033Y045603D01*
X020958Y045528D01*
X020733Y045528D01*
X020883Y045528D02*
X021033Y045378D01*
X021193Y045453D02*
X021268Y045378D01*
X021418Y045378D01*
X021493Y045453D01*
X021493Y045753D01*
X021418Y045828D01*
X021268Y045828D01*
X021193Y045753D01*
X021193Y045453D01*
X021653Y045378D02*
X021954Y045378D01*
X022114Y045378D02*
X022414Y045378D01*
X022114Y045378D02*
X022114Y045828D01*
X021653Y045828D02*
X021653Y045378D01*
X020573Y045753D02*
X020497Y045828D01*
X020347Y045828D01*
X020272Y045753D01*
X021424Y043774D02*
X021499Y043774D01*
X021574Y043699D01*
X021649Y043774D01*
X021724Y043774D01*
X021799Y043699D01*
X021799Y043549D01*
X021724Y043473D01*
X021799Y043313D02*
X021799Y043013D01*
X021799Y043163D02*
X021349Y043163D01*
X021499Y043013D01*
X021424Y043473D02*
X021349Y043549D01*
X021349Y043699D01*
X021424Y043774D01*
X021574Y043699D02*
X021574Y043624D01*
X019549Y042688D02*
X019549Y036688D01*
X013549Y036688D01*
X013549Y042688D01*
X019549Y042688D01*
X023549Y039688D02*
X029549Y039688D01*
X029549Y033688D01*
X023549Y033688D01*
X023549Y039688D01*
X019549Y035188D02*
X019549Y029188D01*
X013549Y029188D01*
X013549Y035188D01*
X019549Y035188D01*
X021299Y033609D02*
X021374Y033684D01*
X021449Y033684D01*
X021524Y033609D01*
X021599Y033684D01*
X021674Y033684D01*
X021749Y033609D01*
X021749Y033459D01*
X021674Y033384D01*
X021599Y033224D02*
X021299Y033224D01*
X021374Y033384D02*
X021299Y033459D01*
X021299Y033609D01*
X021524Y033609D02*
X021524Y033534D01*
X021599Y033224D02*
X021749Y033074D01*
X021599Y032923D01*
X021299Y032923D01*
X021374Y032763D02*
X021299Y032688D01*
X021299Y032538D01*
X021374Y032463D01*
X021449Y032463D01*
X021524Y032538D01*
X021524Y032688D01*
X021599Y032763D01*
X021674Y032763D01*
X021749Y032688D01*
X021749Y032538D01*
X021674Y032463D01*
X021799Y031563D02*
X021799Y031263D01*
X021799Y031413D02*
X021349Y031413D01*
X021499Y031263D01*
X019549Y027688D02*
X019549Y021688D01*
X013549Y021688D01*
X013549Y027688D01*
X019549Y027688D01*
X012049Y027688D02*
X012049Y021688D01*
X006049Y021688D01*
X006049Y027688D01*
X012049Y027688D01*
X012049Y029188D02*
X012049Y035188D01*
X006049Y035188D01*
X006049Y029188D01*
X012049Y029188D01*
X012049Y036688D02*
X006049Y036688D01*
X006049Y042688D01*
X012049Y042688D01*
X012049Y036688D01*
X020808Y048253D02*
X020958Y048253D01*
X021033Y048328D01*
X021193Y048253D02*
X021193Y048553D01*
X021343Y048703D01*
X021493Y048553D01*
X021493Y048253D01*
X021653Y048253D02*
X021653Y048703D01*
X021879Y048703D01*
X021954Y048628D01*
X021954Y048478D01*
X021879Y048403D01*
X021653Y048403D01*
X021493Y048478D02*
X021193Y048478D01*
X021033Y048628D02*
X020958Y048703D01*
X020808Y048703D01*
X020733Y048628D01*
X020733Y048328D01*
X020808Y048253D01*
X022114Y048328D02*
X022189Y048253D01*
X022339Y048253D01*
X022414Y048328D01*
X022414Y048403D01*
X022339Y048478D01*
X022189Y048478D01*
X022114Y048553D01*
X022114Y048628D01*
X022189Y048703D01*
X022339Y048703D01*
X022414Y048628D01*
X028049Y050188D02*
X028049Y044188D01*
X034049Y044188D01*
X034049Y050188D01*
X028049Y050188D01*
X035549Y050188D02*
X035549Y044188D01*
X041549Y044188D01*
X041549Y050188D01*
X035549Y050188D01*
X043049Y050188D02*
X043049Y044188D01*
X049049Y044188D01*
X049049Y050188D01*
X043049Y050188D01*
X050549Y050188D02*
X050549Y044188D01*
X056549Y044188D01*
X056549Y050188D01*
X050549Y050188D01*
X054924Y041884D02*
X055374Y041884D01*
X055374Y041734D02*
X055374Y042034D01*
X055074Y041734D02*
X054924Y041884D01*
X054999Y041574D02*
X054924Y041499D01*
X054924Y041273D01*
X055374Y041273D01*
X055374Y041499D01*
X055299Y041574D01*
X054999Y041574D01*
X055374Y041113D02*
X055374Y040813D01*
X055374Y040963D02*
X054924Y040963D01*
X055074Y040813D01*
X053549Y039688D02*
X059549Y039688D01*
X059549Y033688D01*
X053549Y033688D01*
X053549Y039688D01*
X052049Y039688D02*
X052049Y033688D01*
X046049Y033688D01*
X046049Y039688D01*
X052049Y039688D01*
X044549Y039688D02*
X044549Y033688D01*
X038549Y033688D01*
X038549Y039688D01*
X044549Y039688D01*
X037049Y039688D02*
X037049Y033688D01*
X031049Y033688D01*
X031049Y039688D01*
X037049Y039688D01*
X038549Y032188D02*
X044549Y032188D01*
X044549Y026188D01*
X038549Y026188D01*
X038549Y032188D01*
X035049Y032188D02*
X035049Y026188D01*
X029049Y026188D01*
X029049Y032188D01*
X035049Y032188D01*
X034049Y024688D02*
X028049Y024688D01*
X028049Y018688D01*
X034049Y018688D01*
X034049Y024688D01*
X038549Y024688D02*
X044549Y024688D01*
X044549Y018688D01*
X038549Y018688D01*
X038549Y024688D01*
X046049Y024688D02*
X046049Y018688D01*
X052049Y018688D01*
X052049Y024688D01*
X046049Y024688D01*
X046049Y026188D02*
X046049Y032188D01*
X052049Y032188D01*
X052049Y026188D01*
X046049Y026188D01*
X053549Y026188D02*
X053549Y032188D01*
X059549Y032188D01*
X059549Y026188D01*
X053549Y026188D01*
X053549Y024688D02*
X059549Y024688D01*
X059549Y018688D01*
X053549Y018688D01*
X053549Y024688D01*
X061049Y024688D02*
X061049Y018688D01*
X067049Y018688D01*
X067049Y024688D01*
X061049Y024688D01*
X061049Y026188D02*
X061049Y032188D01*
X067049Y032188D01*
X067049Y026188D01*
X061049Y026188D01*
X068549Y026188D02*
X068549Y032188D01*
X074549Y032188D01*
X074549Y026188D01*
X068549Y026188D01*
X068549Y024688D02*
X074549Y024688D01*
X074549Y018688D01*
X068549Y018688D01*
X068549Y024688D01*
X068549Y017188D02*
X074549Y017188D01*
X074549Y011188D01*
X068549Y011188D01*
X068549Y017188D01*
X067049Y017188D02*
X067049Y011188D01*
X061049Y011188D01*
X061049Y017188D01*
X067049Y017188D01*
X059549Y017188D02*
X059549Y011188D01*
X053549Y011188D01*
X053549Y017188D01*
X059549Y017188D01*
X052049Y017188D02*
X052049Y011188D01*
X046049Y011188D01*
X046049Y017188D01*
X052049Y017188D01*
X044549Y017188D02*
X044549Y011188D01*
X038549Y011188D01*
X038549Y017188D01*
X044549Y017188D01*
X044674Y009688D02*
X050674Y009688D01*
X050674Y003688D01*
X044674Y003688D01*
X044674Y009688D01*
X042299Y009688D02*
X042299Y003688D01*
X036299Y003688D01*
X036299Y009688D01*
X042299Y009688D01*
X041174Y009688D02*
X041174Y003688D01*
X035174Y003688D01*
X035174Y009688D01*
X041174Y009688D01*
X034674Y009688D02*
X034674Y003688D01*
X028674Y003688D01*
X028674Y009688D01*
X034674Y009688D01*
X033299Y011188D02*
X033299Y017188D01*
X027299Y017188D01*
X027299Y011188D01*
X033299Y011188D01*
X027049Y009688D02*
X027049Y003688D01*
X021049Y003688D01*
X021049Y009688D01*
X027049Y009688D01*
X019549Y009688D02*
X019549Y003688D01*
X013549Y003688D01*
X013549Y009688D01*
X019549Y009688D01*
X019549Y011188D02*
X019549Y017188D01*
X013549Y017188D01*
X013549Y011188D01*
X019549Y011188D01*
X013106Y006538D02*
X012805Y006238D01*
X012880Y006163D01*
X013031Y006163D01*
X013106Y006238D01*
X013106Y006538D01*
X013031Y006613D01*
X012880Y006613D01*
X012805Y006538D01*
X012805Y006238D01*
X012645Y006163D02*
X012345Y006163D01*
X012495Y006163D02*
X012495Y006613D01*
X012345Y006463D01*
X012185Y006463D02*
X012110Y006388D01*
X011885Y006388D01*
X012110Y006388D02*
X012185Y006313D01*
X012185Y006238D01*
X012110Y006163D01*
X011885Y006163D01*
X011885Y006613D01*
X012110Y006613D01*
X012185Y006538D01*
X012185Y006463D01*
X011724Y006613D02*
X011574Y006613D01*
X011649Y006613D02*
X011649Y006238D01*
X011574Y006163D01*
X011499Y006163D01*
X011424Y006238D01*
X012049Y003688D02*
X012049Y009688D01*
X006049Y009688D01*
X006049Y003688D01*
X012049Y003688D01*
X010364Y010813D02*
X010064Y010813D01*
X010214Y010813D02*
X010214Y011263D01*
X010064Y011113D01*
X009904Y011188D02*
X009829Y011263D01*
X009679Y011263D01*
X009603Y011188D01*
X009603Y010888D01*
X009679Y010813D01*
X009829Y010813D01*
X009904Y010888D01*
X009447Y010813D02*
X009297Y010813D01*
X009372Y010813D02*
X009372Y011263D01*
X009297Y011263D02*
X009447Y011263D01*
X059799Y009688D02*
X059799Y003688D01*
X065799Y003688D01*
X065799Y009688D01*
X059799Y009688D01*
X061049Y033688D02*
X061049Y039688D01*
X067049Y039688D01*
X067049Y033688D01*
X061049Y033688D01*
X068549Y033688D02*
X068549Y039688D01*
X074549Y039688D01*
X074549Y033688D01*
X068549Y033688D01*
X068549Y044188D02*
X068549Y050188D01*
X074549Y050188D01*
X074549Y044188D01*
X068549Y044188D01*
X067049Y044188D02*
X067049Y050188D01*
X061049Y050188D01*
X061049Y044188D01*
X067049Y044188D01*
D14*
X062416Y048092D02*
X062109Y047785D01*
X062109Y047708D01*
X061955Y047708D02*
X061648Y047708D01*
X061802Y047708D02*
X061802Y048168D01*
X061648Y048015D01*
X061495Y048092D02*
X061418Y048168D01*
X061265Y048168D01*
X061188Y048092D01*
X061188Y048015D01*
X061265Y047938D01*
X061418Y047938D01*
X061495Y047862D01*
X061495Y047785D01*
X061418Y047708D01*
X061265Y047708D01*
X061188Y047785D01*
X062109Y048168D02*
X062416Y048168D01*
X062416Y048092D01*
X052166Y046543D02*
X052012Y046467D01*
X051859Y046313D01*
X052089Y046313D01*
X052166Y046237D01*
X052166Y046160D01*
X052089Y046083D01*
X051936Y046083D01*
X051859Y046160D01*
X051859Y046313D01*
X051705Y046083D02*
X051398Y046083D01*
X051552Y046083D02*
X051552Y046543D01*
X051398Y046390D01*
X051245Y046467D02*
X051168Y046543D01*
X051015Y046543D01*
X050938Y046467D01*
X050938Y046390D01*
X051015Y046313D01*
X051168Y046313D01*
X051245Y046237D01*
X051245Y046160D01*
X051168Y046083D01*
X051015Y046083D01*
X050938Y046160D01*
X045166Y046285D02*
X045089Y046208D01*
X044936Y046208D01*
X044859Y046285D01*
X044859Y046438D02*
X045012Y046515D01*
X045089Y046515D01*
X045166Y046438D01*
X045166Y046285D01*
X044859Y046438D02*
X044859Y046668D01*
X045166Y046668D01*
X044552Y046668D02*
X044552Y046208D01*
X044705Y046208D02*
X044398Y046208D01*
X044245Y046285D02*
X044168Y046208D01*
X044015Y046208D01*
X043938Y046285D01*
X044015Y046438D02*
X044168Y046438D01*
X044245Y046362D01*
X044245Y046285D01*
X044398Y046515D02*
X044552Y046668D01*
X044245Y046592D02*
X044168Y046668D01*
X044015Y046668D01*
X043938Y046592D01*
X043938Y046515D01*
X044015Y046438D01*
X036916Y046063D02*
X036609Y046063D01*
X036839Y046293D01*
X036839Y045833D01*
X036455Y045833D02*
X036148Y045833D01*
X036302Y045833D02*
X036302Y046293D01*
X036148Y046140D01*
X035995Y046217D02*
X035918Y046293D01*
X035765Y046293D01*
X035688Y046217D01*
X035688Y046140D01*
X035765Y046063D01*
X035918Y046063D01*
X035995Y045987D01*
X035995Y045910D01*
X035918Y045833D01*
X035765Y045833D01*
X035688Y045910D01*
X029666Y046160D02*
X029589Y046083D01*
X029436Y046083D01*
X029359Y046160D01*
X029205Y046083D02*
X028898Y046083D01*
X029052Y046083D02*
X029052Y046543D01*
X028898Y046390D01*
X028745Y046467D02*
X028668Y046543D01*
X028515Y046543D01*
X028438Y046467D01*
X028438Y046390D01*
X028515Y046313D01*
X028668Y046313D01*
X028745Y046237D01*
X028745Y046160D01*
X028668Y046083D01*
X028515Y046083D01*
X028438Y046160D01*
X029359Y046467D02*
X029436Y046543D01*
X029589Y046543D01*
X029666Y046467D01*
X029666Y046390D01*
X029589Y046313D01*
X029666Y046237D01*
X029666Y046160D01*
X029589Y046313D02*
X029512Y046313D01*
X031765Y036043D02*
X031688Y035967D01*
X031688Y035890D01*
X031765Y035813D01*
X031918Y035813D01*
X031995Y035737D01*
X031995Y035660D01*
X031918Y035583D01*
X031765Y035583D01*
X031688Y035660D01*
X031765Y036043D02*
X031918Y036043D01*
X031995Y035967D01*
X032148Y035890D02*
X032302Y036043D01*
X032302Y035583D01*
X032455Y035583D02*
X032148Y035583D01*
X032609Y035660D02*
X032686Y035583D01*
X032839Y035583D01*
X032916Y035660D01*
X032916Y035967D01*
X032839Y036043D01*
X032686Y036043D01*
X032609Y035967D01*
X032609Y035890D01*
X032686Y035813D01*
X032916Y035813D01*
X028916Y034217D02*
X028916Y034140D01*
X028839Y034063D01*
X028686Y034063D01*
X028609Y034140D01*
X028609Y034217D01*
X028686Y034293D01*
X028839Y034293D01*
X028916Y034217D01*
X028839Y034063D02*
X028916Y033987D01*
X028916Y033910D01*
X028839Y033833D01*
X028686Y033833D01*
X028609Y033910D01*
X028609Y033987D01*
X028686Y034063D01*
X028455Y033987D02*
X028455Y033910D01*
X028379Y033833D01*
X028225Y033833D01*
X028148Y033910D01*
X028148Y033987D01*
X028225Y034063D01*
X028379Y034063D01*
X028455Y033987D01*
X028379Y034063D02*
X028455Y034140D01*
X028455Y034217D01*
X028379Y034293D01*
X028225Y034293D01*
X028148Y034217D01*
X028148Y034140D01*
X028225Y034063D01*
X027995Y033987D02*
X027995Y033910D01*
X027918Y033833D01*
X027765Y033833D01*
X027688Y033910D01*
X027765Y034063D02*
X027918Y034063D01*
X027995Y033987D01*
X027995Y034217D02*
X027918Y034293D01*
X027765Y034293D01*
X027688Y034217D01*
X027688Y034140D01*
X027765Y034063D01*
X033265Y026793D02*
X033188Y026717D01*
X033188Y026640D01*
X033265Y026563D01*
X033418Y026563D01*
X033495Y026487D01*
X033495Y026410D01*
X033418Y026333D01*
X033265Y026333D01*
X033188Y026410D01*
X033265Y026793D02*
X033418Y026793D01*
X033495Y026717D01*
X033648Y026717D02*
X033725Y026793D01*
X033879Y026793D01*
X033955Y026717D01*
X033955Y026640D01*
X033648Y026333D01*
X033955Y026333D01*
X034109Y026410D02*
X034186Y026333D01*
X034339Y026333D01*
X034416Y026410D01*
X034416Y026563D01*
X034339Y026640D01*
X034262Y026640D01*
X034109Y026563D01*
X034109Y026793D01*
X034416Y026793D01*
X038688Y027910D02*
X038765Y027833D01*
X038918Y027833D01*
X038995Y027910D01*
X038995Y027987D01*
X038918Y028063D01*
X038765Y028063D01*
X038688Y028140D01*
X038688Y028217D01*
X038765Y028293D01*
X038918Y028293D01*
X038995Y028217D01*
X039148Y028217D02*
X039225Y028293D01*
X039379Y028293D01*
X039455Y028217D01*
X039455Y028140D01*
X039148Y027833D01*
X039455Y027833D01*
X039609Y027910D02*
X039686Y027833D01*
X039839Y027833D01*
X039916Y027910D01*
X039916Y027987D01*
X039839Y028063D01*
X039609Y028063D01*
X039609Y027910D01*
X039609Y028063D02*
X039762Y028217D01*
X039916Y028293D01*
X046438Y028390D02*
X046515Y028313D01*
X046668Y028313D01*
X046745Y028237D01*
X046745Y028160D01*
X046668Y028083D01*
X046515Y028083D01*
X046438Y028160D01*
X046438Y028390D02*
X046438Y028467D01*
X046515Y028543D01*
X046668Y028543D01*
X046745Y028467D01*
X046898Y028467D02*
X046975Y028543D01*
X047129Y028543D01*
X047205Y028467D01*
X047205Y028390D01*
X046898Y028083D01*
X047205Y028083D01*
X047359Y028083D02*
X047359Y028160D01*
X047666Y028467D01*
X047666Y028543D01*
X047359Y028543D01*
X053688Y028217D02*
X053688Y028140D01*
X053765Y028063D01*
X053918Y028063D01*
X053995Y027987D01*
X053995Y027910D01*
X053918Y027833D01*
X053765Y027833D01*
X053688Y027910D01*
X053688Y028217D02*
X053765Y028293D01*
X053918Y028293D01*
X053995Y028217D01*
X054148Y028217D02*
X054225Y028293D01*
X054379Y028293D01*
X054455Y028217D01*
X054455Y028140D01*
X054148Y027833D01*
X054455Y027833D01*
X054609Y027910D02*
X054609Y027987D01*
X054686Y028063D01*
X054839Y028063D01*
X054916Y027987D01*
X054916Y027910D01*
X054839Y027833D01*
X054686Y027833D01*
X054609Y027910D01*
X054686Y028063D02*
X054609Y028140D01*
X054609Y028217D01*
X054686Y028293D01*
X054839Y028293D01*
X054916Y028217D01*
X054916Y028140D01*
X054839Y028063D01*
X061438Y028160D02*
X061515Y028083D01*
X061668Y028083D01*
X061745Y028160D01*
X061745Y028237D01*
X061668Y028313D01*
X061515Y028313D01*
X061438Y028390D01*
X061438Y028467D01*
X061515Y028543D01*
X061668Y028543D01*
X061745Y028467D01*
X061898Y028467D02*
X061975Y028543D01*
X062129Y028543D01*
X062205Y028467D01*
X062205Y028390D01*
X061898Y028083D01*
X062205Y028083D01*
X062359Y028160D02*
X062436Y028083D01*
X062589Y028083D01*
X062666Y028160D01*
X062666Y028467D01*
X062589Y028543D01*
X062436Y028543D01*
X062359Y028467D01*
X062359Y028390D01*
X062436Y028313D01*
X062666Y028313D01*
X068688Y028217D02*
X068688Y028140D01*
X068765Y028063D01*
X068918Y028063D01*
X068995Y027987D01*
X068995Y027910D01*
X068918Y027833D01*
X068765Y027833D01*
X068688Y027910D01*
X068688Y028217D02*
X068765Y028293D01*
X068918Y028293D01*
X068995Y028217D01*
X069148Y028217D02*
X069225Y028293D01*
X069379Y028293D01*
X069455Y028217D01*
X069455Y028140D01*
X069379Y028063D01*
X069455Y027987D01*
X069455Y027910D01*
X069379Y027833D01*
X069225Y027833D01*
X069148Y027910D01*
X069302Y028063D02*
X069379Y028063D01*
X069609Y027910D02*
X069916Y028217D01*
X069916Y027910D01*
X069839Y027833D01*
X069686Y027833D01*
X069609Y027910D01*
X069609Y028217D01*
X069686Y028293D01*
X069839Y028293D01*
X069916Y028217D01*
X069916Y021043D02*
X069762Y020967D01*
X069609Y020813D01*
X069839Y020813D01*
X069916Y020737D01*
X069916Y020660D01*
X069839Y020583D01*
X069686Y020583D01*
X069609Y020660D01*
X069609Y020813D01*
X069455Y020737D02*
X069455Y020660D01*
X069379Y020583D01*
X069225Y020583D01*
X069148Y020660D01*
X068995Y020660D02*
X068918Y020583D01*
X068765Y020583D01*
X068688Y020660D01*
X068765Y020813D02*
X068918Y020813D01*
X068995Y020737D01*
X068995Y020660D01*
X068765Y020813D02*
X068688Y020890D01*
X068688Y020967D01*
X068765Y021043D01*
X068918Y021043D01*
X068995Y020967D01*
X069148Y020967D02*
X069225Y021043D01*
X069379Y021043D01*
X069455Y020967D01*
X069455Y020890D01*
X069379Y020813D01*
X069455Y020737D01*
X069379Y020813D02*
X069302Y020813D01*
X062416Y020813D02*
X062416Y020660D01*
X062339Y020583D01*
X062186Y020583D01*
X062109Y020660D01*
X062109Y020813D02*
X062262Y020890D01*
X062339Y020890D01*
X062416Y020813D01*
X062416Y021043D02*
X062109Y021043D01*
X062109Y020813D01*
X061955Y020737D02*
X061955Y020660D01*
X061879Y020583D01*
X061725Y020583D01*
X061648Y020660D01*
X061495Y020660D02*
X061418Y020583D01*
X061265Y020583D01*
X061188Y020660D01*
X061265Y020813D02*
X061418Y020813D01*
X061495Y020737D01*
X061495Y020660D01*
X061265Y020813D02*
X061188Y020890D01*
X061188Y020967D01*
X061265Y021043D01*
X061418Y021043D01*
X061495Y020967D01*
X061648Y020967D02*
X061725Y021043D01*
X061879Y021043D01*
X061955Y020967D01*
X061955Y020890D01*
X061879Y020813D01*
X061955Y020737D01*
X061879Y020813D02*
X061802Y020813D01*
X061879Y015293D02*
X061648Y015063D01*
X061955Y015063D01*
X062109Y015140D02*
X062262Y015293D01*
X062262Y014833D01*
X062109Y014833D02*
X062416Y014833D01*
X061879Y014833D02*
X061879Y015293D01*
X061495Y015217D02*
X061418Y015293D01*
X061265Y015293D01*
X061188Y015217D01*
X061188Y015140D01*
X061265Y015063D01*
X061418Y015063D01*
X061495Y014987D01*
X061495Y014910D01*
X061418Y014833D01*
X061265Y014833D01*
X061188Y014910D01*
X055166Y013467D02*
X054859Y013160D01*
X054936Y013083D01*
X055089Y013083D01*
X055166Y013160D01*
X055166Y013467D01*
X055089Y013543D01*
X054936Y013543D01*
X054859Y013467D01*
X054859Y013160D01*
X054705Y013313D02*
X054398Y013313D01*
X054629Y013543D01*
X054629Y013083D01*
X054245Y013160D02*
X054168Y013083D01*
X054015Y013083D01*
X053938Y013160D01*
X054015Y013313D02*
X054168Y013313D01*
X054245Y013237D01*
X054245Y013160D01*
X054015Y013313D02*
X053938Y013390D01*
X053938Y013467D01*
X054015Y013543D01*
X054168Y013543D01*
X054245Y013467D01*
X047666Y013467D02*
X047589Y013543D01*
X047436Y013543D01*
X047359Y013467D01*
X047359Y013390D01*
X047436Y013313D01*
X047666Y013313D01*
X047666Y013160D02*
X047666Y013467D01*
X047666Y013160D02*
X047589Y013083D01*
X047436Y013083D01*
X047359Y013160D01*
X047205Y013160D02*
X047129Y013083D01*
X046975Y013083D01*
X046898Y013160D01*
X046745Y013160D02*
X046668Y013083D01*
X046515Y013083D01*
X046438Y013160D01*
X046515Y013313D02*
X046668Y013313D01*
X046745Y013237D01*
X046745Y013160D01*
X046515Y013313D02*
X046438Y013390D01*
X046438Y013467D01*
X046515Y013543D01*
X046668Y013543D01*
X046745Y013467D01*
X046898Y013467D02*
X046975Y013543D01*
X047129Y013543D01*
X047205Y013467D01*
X047205Y013390D01*
X047129Y013313D01*
X047205Y013237D01*
X047205Y013160D01*
X047129Y013313D02*
X047052Y013313D01*
X042339Y008668D02*
X042109Y008438D01*
X042416Y008438D01*
X042339Y008208D02*
X042339Y008668D01*
X041955Y008438D02*
X041648Y008438D01*
X041879Y008668D01*
X041879Y008208D01*
X041495Y008285D02*
X041418Y008208D01*
X041265Y008208D01*
X041188Y008285D01*
X041265Y008438D02*
X041418Y008438D01*
X041495Y008362D01*
X041495Y008285D01*
X041265Y008438D02*
X041188Y008515D01*
X041188Y008592D01*
X041265Y008668D01*
X041418Y008668D01*
X041495Y008592D01*
X045188Y007592D02*
X045188Y007515D01*
X045265Y007438D01*
X045418Y007438D01*
X045495Y007362D01*
X045495Y007285D01*
X045418Y007208D01*
X045265Y007208D01*
X045188Y007285D01*
X045188Y007592D02*
X045265Y007668D01*
X045418Y007668D01*
X045495Y007592D01*
X045648Y007438D02*
X045955Y007438D01*
X046109Y007438D02*
X046262Y007515D01*
X046339Y007515D01*
X046416Y007438D01*
X046416Y007285D01*
X046339Y007208D01*
X046186Y007208D01*
X046109Y007285D01*
X046109Y007438D02*
X046109Y007668D01*
X046416Y007668D01*
X045879Y007668D02*
X045879Y007208D01*
X045648Y007438D02*
X045879Y007668D01*
X039916Y012910D02*
X039839Y012833D01*
X039686Y012833D01*
X039609Y012910D01*
X039609Y012987D01*
X039686Y013063D01*
X039839Y013063D01*
X039916Y012987D01*
X039916Y012910D01*
X039839Y013063D02*
X039916Y013140D01*
X039916Y013217D01*
X039839Y013293D01*
X039686Y013293D01*
X039609Y013217D01*
X039609Y013140D01*
X039686Y013063D01*
X039455Y012987D02*
X039455Y012910D01*
X039379Y012833D01*
X039225Y012833D01*
X039148Y012910D01*
X038995Y012910D02*
X038918Y012833D01*
X038765Y012833D01*
X038688Y012910D01*
X038765Y013063D02*
X038918Y013063D01*
X038995Y012987D01*
X038995Y012910D01*
X038765Y013063D02*
X038688Y013140D01*
X038688Y013217D01*
X038765Y013293D01*
X038918Y013293D01*
X038995Y013217D01*
X039148Y013217D02*
X039225Y013293D01*
X039379Y013293D01*
X039455Y013217D01*
X039455Y013140D01*
X039379Y013063D01*
X039455Y012987D01*
X039379Y013063D02*
X039302Y013063D01*
X036762Y008793D02*
X036916Y008640D01*
X036916Y008333D01*
X036916Y008563D02*
X036609Y008563D01*
X036609Y008640D02*
X036762Y008793D01*
X036609Y008640D02*
X036609Y008333D01*
X036379Y008333D02*
X036379Y008793D01*
X036148Y008563D01*
X036455Y008563D01*
X035995Y008563D02*
X035688Y008563D01*
X035918Y008793D01*
X035918Y008333D01*
X035535Y008410D02*
X035458Y008333D01*
X035304Y008333D01*
X035228Y008410D01*
X035304Y008563D02*
X035458Y008563D01*
X035535Y008487D01*
X035535Y008410D01*
X035304Y008563D02*
X035228Y008640D01*
X035228Y008717D01*
X035304Y008793D01*
X035458Y008793D01*
X035535Y008717D01*
X031166Y011092D02*
X030859Y010785D01*
X030859Y010708D01*
X030705Y010785D02*
X030629Y010708D01*
X030475Y010708D01*
X030398Y010785D01*
X030245Y010785D02*
X030168Y010708D01*
X030015Y010708D01*
X029938Y010785D01*
X030015Y010938D02*
X030168Y010938D01*
X030245Y010862D01*
X030245Y010785D01*
X030015Y010938D02*
X029938Y011015D01*
X029938Y011092D01*
X030015Y011168D01*
X030168Y011168D01*
X030245Y011092D01*
X030398Y011092D02*
X030475Y011168D01*
X030629Y011168D01*
X030705Y011092D01*
X030705Y011015D01*
X030629Y010938D01*
X030705Y010862D01*
X030705Y010785D01*
X030629Y010938D02*
X030552Y010938D01*
X030859Y011168D02*
X031166Y011168D01*
X031166Y011092D01*
X029714Y007793D02*
X029791Y007717D01*
X029791Y007640D01*
X029714Y007563D01*
X029791Y007487D01*
X029791Y007410D01*
X029714Y007333D01*
X029561Y007333D01*
X029484Y007410D01*
X029637Y007563D02*
X029714Y007563D01*
X029714Y007793D02*
X029561Y007793D01*
X029484Y007717D01*
X029330Y007563D02*
X029023Y007563D01*
X029254Y007793D01*
X029254Y007333D01*
X028870Y007410D02*
X028793Y007333D01*
X028640Y007333D01*
X028563Y007410D01*
X028640Y007563D02*
X028793Y007563D01*
X028870Y007487D01*
X028870Y007410D01*
X028640Y007563D02*
X028563Y007640D01*
X028563Y007717D01*
X028640Y007793D01*
X028793Y007793D01*
X028870Y007717D01*
X026339Y004293D02*
X026186Y004293D01*
X026109Y004217D01*
X026339Y004293D02*
X026416Y004217D01*
X026416Y004140D01*
X026109Y003833D01*
X026416Y003833D01*
X025955Y003833D02*
X025648Y003833D01*
X025802Y003833D02*
X025802Y004293D01*
X025648Y004140D01*
X025495Y004217D02*
X025418Y004293D01*
X025265Y004293D01*
X025188Y004217D01*
X025188Y004140D01*
X025265Y004063D01*
X025418Y004063D01*
X025495Y003987D01*
X025495Y003910D01*
X025418Y003833D01*
X025265Y003833D01*
X025188Y003910D01*
X018916Y003833D02*
X018609Y003833D01*
X018762Y003833D02*
X018762Y004293D01*
X018609Y004140D01*
X018455Y003833D02*
X018148Y003833D01*
X018302Y003833D02*
X018302Y004293D01*
X018148Y004140D01*
X017995Y004217D02*
X017918Y004293D01*
X017765Y004293D01*
X017688Y004217D01*
X017688Y004140D01*
X017765Y004063D01*
X017918Y004063D01*
X017995Y003987D01*
X017995Y003910D01*
X017918Y003833D01*
X017765Y003833D01*
X017688Y003910D01*
X011416Y003910D02*
X011339Y003833D01*
X011186Y003833D01*
X011109Y003910D01*
X011416Y004217D01*
X011416Y003910D01*
X011416Y004217D02*
X011339Y004293D01*
X011186Y004293D01*
X011109Y004217D01*
X011109Y003910D01*
X010955Y003833D02*
X010648Y003833D01*
X010802Y003833D02*
X010802Y004293D01*
X010648Y004140D01*
X010495Y004217D02*
X010418Y004293D01*
X010265Y004293D01*
X010188Y004217D01*
X010188Y004140D01*
X010265Y004063D01*
X010418Y004063D01*
X010495Y003987D01*
X010495Y003910D01*
X010418Y003833D01*
X010265Y003833D01*
X010188Y003910D01*
X007828Y010702D02*
X007521Y010702D01*
X007444Y010779D01*
X007444Y010932D01*
X007521Y011009D01*
X007597Y011162D02*
X007444Y011316D01*
X007904Y011316D01*
X007904Y011469D02*
X007904Y011162D01*
X007828Y011009D02*
X007904Y010932D01*
X007904Y010779D01*
X007828Y010702D01*
X007184Y011413D02*
X007184Y011713D01*
X007444Y011623D02*
X007444Y011930D01*
X007521Y011930D01*
X007828Y011623D01*
X007904Y011623D01*
X006664Y011703D02*
X006664Y011413D01*
X018148Y011410D02*
X018225Y011333D01*
X018379Y011333D01*
X018455Y011410D01*
X018455Y011487D01*
X018379Y011563D01*
X018225Y011563D01*
X018148Y011640D01*
X018148Y011717D01*
X018225Y011793D01*
X018379Y011793D01*
X018455Y011717D01*
X018609Y011717D02*
X018609Y011640D01*
X018686Y011563D01*
X018916Y011563D01*
X018916Y011410D02*
X018916Y011717D01*
X018839Y011793D01*
X018686Y011793D01*
X018609Y011717D01*
X018609Y011410D02*
X018686Y011333D01*
X018839Y011333D01*
X018916Y011410D01*
X032188Y018910D02*
X032265Y018833D01*
X032418Y018833D01*
X032495Y018910D01*
X032495Y018987D01*
X032418Y019063D01*
X032265Y019063D01*
X032188Y019140D01*
X032188Y019217D01*
X032265Y019293D01*
X032418Y019293D01*
X032495Y019217D01*
X032648Y019217D02*
X032725Y019293D01*
X032879Y019293D01*
X032955Y019217D01*
X032955Y019140D01*
X032879Y019063D01*
X032955Y018987D01*
X032955Y018910D01*
X032879Y018833D01*
X032725Y018833D01*
X032648Y018910D01*
X032802Y019063D02*
X032879Y019063D01*
X033109Y019140D02*
X033262Y019293D01*
X033262Y018833D01*
X033109Y018833D02*
X033416Y018833D01*
X038688Y020410D02*
X038765Y020333D01*
X038918Y020333D01*
X038995Y020410D01*
X038995Y020487D01*
X038918Y020563D01*
X038765Y020563D01*
X038688Y020640D01*
X038688Y020717D01*
X038765Y020793D01*
X038918Y020793D01*
X038995Y020717D01*
X039148Y020717D02*
X039225Y020793D01*
X039379Y020793D01*
X039455Y020717D01*
X039455Y020640D01*
X039379Y020563D01*
X039455Y020487D01*
X039455Y020410D01*
X039379Y020333D01*
X039225Y020333D01*
X039148Y020410D01*
X039302Y020563D02*
X039379Y020563D01*
X039609Y020717D02*
X039686Y020793D01*
X039839Y020793D01*
X039916Y020717D01*
X039916Y020640D01*
X039609Y020333D01*
X039916Y020333D01*
X046188Y020410D02*
X046265Y020333D01*
X046418Y020333D01*
X046495Y020410D01*
X046495Y020487D01*
X046418Y020563D01*
X046265Y020563D01*
X046188Y020640D01*
X046188Y020717D01*
X046265Y020793D01*
X046418Y020793D01*
X046495Y020717D01*
X046648Y020717D02*
X046725Y020793D01*
X046879Y020793D01*
X046955Y020717D01*
X046955Y020640D01*
X046879Y020563D01*
X046955Y020487D01*
X046955Y020410D01*
X046879Y020333D01*
X046725Y020333D01*
X046648Y020410D01*
X046802Y020563D02*
X046879Y020563D01*
X047109Y020410D02*
X047186Y020333D01*
X047339Y020333D01*
X047416Y020410D01*
X047416Y020487D01*
X047339Y020563D01*
X047262Y020563D01*
X047339Y020563D02*
X047416Y020640D01*
X047416Y020717D01*
X047339Y020793D01*
X047186Y020793D01*
X047109Y020717D01*
X053938Y020660D02*
X054015Y020583D01*
X054168Y020583D01*
X054245Y020660D01*
X054245Y020737D01*
X054168Y020813D01*
X054015Y020813D01*
X053938Y020890D01*
X053938Y020967D01*
X054015Y021043D01*
X054168Y021043D01*
X054245Y020967D01*
X054398Y020967D02*
X054475Y021043D01*
X054629Y021043D01*
X054705Y020967D01*
X054705Y020890D01*
X054629Y020813D01*
X054705Y020737D01*
X054705Y020660D01*
X054629Y020583D01*
X054475Y020583D01*
X054398Y020660D01*
X054552Y020813D02*
X054629Y020813D01*
X054859Y020813D02*
X055166Y020813D01*
X055089Y020583D02*
X055089Y021043D01*
X054859Y020813D01*
X068688Y013467D02*
X068688Y013390D01*
X068765Y013313D01*
X068918Y013313D01*
X068995Y013237D01*
X068995Y013160D01*
X068918Y013083D01*
X068765Y013083D01*
X068688Y013160D01*
X068688Y013467D02*
X068765Y013543D01*
X068918Y013543D01*
X068995Y013467D01*
X069148Y013313D02*
X069455Y013313D01*
X069609Y013467D02*
X069686Y013543D01*
X069839Y013543D01*
X069916Y013467D01*
X069916Y013390D01*
X069609Y013083D01*
X069916Y013083D01*
X069379Y013083D02*
X069379Y013543D01*
X069148Y013313D01*
X065166Y004293D02*
X065012Y004217D01*
X064859Y004063D01*
X065089Y004063D01*
X065166Y003987D01*
X065166Y003910D01*
X065089Y003833D01*
X064936Y003833D01*
X064859Y003910D01*
X064859Y004063D01*
X064705Y004063D02*
X064398Y004063D01*
X064629Y004293D01*
X064629Y003833D01*
X064245Y003910D02*
X064168Y003833D01*
X064015Y003833D01*
X063938Y003910D01*
X064015Y004063D02*
X064168Y004063D01*
X064245Y003987D01*
X064245Y003910D01*
X064015Y004063D02*
X063938Y004140D01*
X063938Y004217D01*
X064015Y004293D01*
X064168Y004293D01*
X064245Y004217D01*
X063089Y035583D02*
X062936Y035583D01*
X062859Y035660D01*
X062705Y035583D02*
X062398Y035583D01*
X062705Y035890D01*
X062705Y035967D01*
X062629Y036043D01*
X062475Y036043D01*
X062398Y035967D01*
X062245Y035967D02*
X062168Y036043D01*
X062015Y036043D01*
X061938Y035967D01*
X061938Y035890D01*
X062015Y035813D01*
X062168Y035813D01*
X062245Y035737D01*
X062245Y035660D01*
X062168Y035583D01*
X062015Y035583D01*
X061938Y035660D01*
X062859Y035967D02*
X062936Y036043D01*
X063089Y036043D01*
X063166Y035967D01*
X063166Y035890D01*
X063089Y035813D01*
X063166Y035737D01*
X063166Y035660D01*
X063089Y035583D01*
X063089Y035813D02*
X063012Y035813D01*
X068688Y037410D02*
X068765Y037333D01*
X068918Y037333D01*
X068995Y037410D01*
X068995Y037487D01*
X068918Y037563D01*
X068765Y037563D01*
X068688Y037640D01*
X068688Y037717D01*
X068765Y037793D01*
X068918Y037793D01*
X068995Y037717D01*
X069148Y037717D02*
X069225Y037793D01*
X069379Y037793D01*
X069455Y037717D01*
X069455Y037640D01*
X069148Y037333D01*
X069455Y037333D01*
X069609Y037563D02*
X069916Y037563D01*
X069839Y037333D02*
X069839Y037793D01*
X069609Y037563D01*
X072765Y044333D02*
X072688Y044410D01*
X072765Y044333D02*
X072918Y044333D01*
X072995Y044410D01*
X072995Y044487D01*
X072918Y044563D01*
X072765Y044563D01*
X072688Y044640D01*
X072688Y044717D01*
X072765Y044793D01*
X072918Y044793D01*
X072995Y044717D01*
X073148Y044640D02*
X073302Y044793D01*
X073302Y044333D01*
X073455Y044333D02*
X073148Y044333D01*
X073609Y044410D02*
X073609Y044487D01*
X073686Y044563D01*
X073839Y044563D01*
X073916Y044487D01*
X073916Y044410D01*
X073839Y044333D01*
X073686Y044333D01*
X073609Y044410D01*
X073686Y044563D02*
X073609Y044640D01*
X073609Y044717D01*
X073686Y044793D01*
X073839Y044793D01*
X073916Y044717D01*
X073916Y044640D01*
X073839Y044563D01*
X054916Y035717D02*
X054839Y035793D01*
X054686Y035793D01*
X054609Y035717D01*
X054455Y035717D02*
X054379Y035793D01*
X054225Y035793D01*
X054148Y035717D01*
X053995Y035717D02*
X053918Y035793D01*
X053765Y035793D01*
X053688Y035717D01*
X053688Y035640D01*
X053765Y035563D01*
X053918Y035563D01*
X053995Y035487D01*
X053995Y035410D01*
X053918Y035333D01*
X053765Y035333D01*
X053688Y035410D01*
X054148Y035333D02*
X054455Y035640D01*
X054455Y035717D01*
X054455Y035333D02*
X054148Y035333D01*
X054609Y035333D02*
X054916Y035640D01*
X054916Y035717D01*
X054916Y035333D02*
X054609Y035333D01*
X047666Y035583D02*
X047359Y035583D01*
X047512Y035583D02*
X047512Y036043D01*
X047359Y035890D01*
X047205Y035890D02*
X047205Y035967D01*
X047129Y036043D01*
X046975Y036043D01*
X046898Y035967D01*
X046745Y035967D02*
X046668Y036043D01*
X046515Y036043D01*
X046438Y035967D01*
X046438Y035890D01*
X046515Y035813D01*
X046668Y035813D01*
X046745Y035737D01*
X046745Y035660D01*
X046668Y035583D01*
X046515Y035583D01*
X046438Y035660D01*
X046898Y035583D02*
X047205Y035890D01*
X047205Y035583D02*
X046898Y035583D01*
X039916Y035717D02*
X039609Y035410D01*
X039686Y035333D01*
X039839Y035333D01*
X039916Y035410D01*
X039916Y035717D01*
X039839Y035793D01*
X039686Y035793D01*
X039609Y035717D01*
X039609Y035410D01*
X039455Y035333D02*
X039148Y035333D01*
X039455Y035640D01*
X039455Y035717D01*
X039379Y035793D01*
X039225Y035793D01*
X039148Y035717D01*
X038995Y035717D02*
X038918Y035793D01*
X038765Y035793D01*
X038688Y035717D01*
X038688Y035640D01*
X038765Y035563D01*
X038918Y035563D01*
X038995Y035487D01*
X038995Y035410D01*
X038918Y035333D01*
X038765Y035333D01*
X038688Y035410D01*
X014666Y033293D02*
X014512Y033217D01*
X014359Y033063D01*
X014589Y033063D01*
X014666Y032987D01*
X014666Y032910D01*
X014589Y032833D01*
X014436Y032833D01*
X014359Y032910D01*
X014359Y033063D01*
X014205Y032987D02*
X014205Y032910D01*
X014129Y032833D01*
X013975Y032833D01*
X013898Y032910D01*
X013975Y033063D02*
X014129Y033063D01*
X014205Y032987D01*
X014205Y033217D02*
X014129Y033293D01*
X013975Y033293D01*
X013898Y033217D01*
X013898Y033140D01*
X013975Y033063D01*
X006916Y031293D02*
X006609Y031293D01*
X006609Y031063D01*
X006762Y031140D01*
X006839Y031140D01*
X006916Y031063D01*
X006916Y030910D01*
X006839Y030833D01*
X006686Y030833D01*
X006609Y030910D01*
X006455Y030910D02*
X006379Y030833D01*
X006225Y030833D01*
X006148Y030910D01*
X006225Y031063D02*
X006379Y031063D01*
X006455Y030987D01*
X006455Y030910D01*
X006225Y031063D02*
X006148Y031140D01*
X006148Y031217D01*
X006225Y031293D01*
X006379Y031293D01*
X006455Y031217D01*
X013648Y025717D02*
X013648Y025640D01*
X013725Y025563D01*
X013879Y025563D01*
X013955Y025487D01*
X013955Y025410D01*
X013879Y025333D01*
X013725Y025333D01*
X013648Y025410D01*
X013648Y025717D02*
X013725Y025793D01*
X013879Y025793D01*
X013955Y025717D01*
X014109Y025717D02*
X014109Y025640D01*
X014186Y025563D01*
X014339Y025563D01*
X014416Y025487D01*
X014416Y025410D01*
X014339Y025333D01*
X014186Y025333D01*
X014109Y025410D01*
X014109Y025487D01*
X014186Y025563D01*
X014339Y025563D02*
X014416Y025640D01*
X014416Y025717D01*
X014339Y025793D01*
X014186Y025793D01*
X014109Y025717D01*
X007416Y023793D02*
X007416Y023717D01*
X007109Y023410D01*
X007109Y023333D01*
X006955Y023410D02*
X006879Y023333D01*
X006725Y023333D01*
X006648Y023410D01*
X006725Y023563D02*
X006879Y023563D01*
X006955Y023487D01*
X006955Y023410D01*
X006725Y023563D02*
X006648Y023640D01*
X006648Y023717D01*
X006725Y023793D01*
X006879Y023793D01*
X006955Y023717D01*
X007109Y023793D02*
X007416Y023793D01*
X007089Y038583D02*
X006936Y038583D01*
X006859Y038660D01*
X006705Y038660D02*
X006629Y038583D01*
X006475Y038583D01*
X006398Y038660D01*
X006475Y038813D02*
X006629Y038813D01*
X006705Y038737D01*
X006705Y038660D01*
X006475Y038813D02*
X006398Y038890D01*
X006398Y038967D01*
X006475Y039043D01*
X006629Y039043D01*
X006705Y038967D01*
X006859Y038967D02*
X006936Y039043D01*
X007089Y039043D01*
X007166Y038967D01*
X007166Y038890D01*
X007089Y038813D01*
X007166Y038737D01*
X007166Y038660D01*
X007089Y038583D01*
X007089Y038813D02*
X007012Y038813D01*
X013898Y040410D02*
X013975Y040333D01*
X014129Y040333D01*
X014205Y040410D01*
X014205Y040487D01*
X014129Y040563D01*
X013975Y040563D01*
X013898Y040640D01*
X013898Y040717D01*
X013975Y040793D01*
X014129Y040793D01*
X014205Y040717D01*
X014359Y040563D02*
X014666Y040563D01*
X014589Y040333D02*
X014589Y040793D01*
X014359Y040563D01*
X014359Y046083D02*
X014666Y046390D01*
X014666Y046467D01*
X014589Y046543D01*
X014436Y046543D01*
X014359Y046467D01*
X014205Y046467D02*
X014129Y046543D01*
X013975Y046543D01*
X013898Y046467D01*
X013898Y046390D01*
X013975Y046313D01*
X014129Y046313D01*
X014205Y046237D01*
X014205Y046160D01*
X014129Y046083D01*
X013975Y046083D01*
X013898Y046160D01*
X014359Y046083D02*
X014666Y046083D01*
X006916Y047833D02*
X006609Y047833D01*
X006762Y047833D02*
X006762Y048293D01*
X006609Y048140D01*
X006455Y048217D02*
X006379Y048293D01*
X006225Y048293D01*
X006148Y048217D01*
X006148Y048140D01*
X006225Y048063D01*
X006379Y048063D01*
X006455Y047987D01*
X006455Y047910D01*
X006379Y047833D01*
X006225Y047833D01*
X006148Y047910D01*
D15*
X005506Y050731D02*
X012593Y043645D01*
X012593Y050731D01*
X005506Y043645D01*
X012593Y043645D01*
X013006Y043645D02*
X020093Y050731D01*
X020093Y043645D01*
X013006Y050731D01*
X013006Y043645D01*
X020093Y043645D01*
X020093Y043231D02*
X013006Y036145D01*
X020093Y036145D01*
X013006Y043231D01*
X013006Y036145D01*
X012593Y036145D02*
X005506Y043231D01*
X005506Y036145D01*
X012593Y043231D01*
X012593Y036145D01*
X005506Y036145D01*
X005506Y035731D02*
X012593Y028645D01*
X012593Y035731D01*
X005506Y028645D01*
X012593Y028645D01*
X013006Y028645D02*
X020093Y035731D01*
X020093Y028645D01*
X013006Y035731D01*
X013006Y028645D01*
X020093Y028645D01*
X020093Y028231D02*
X013006Y021145D01*
X020093Y021145D01*
X013006Y028231D01*
X013006Y021145D01*
X012593Y021145D02*
X005506Y028231D01*
X005506Y021145D01*
X012593Y028231D01*
X012593Y021145D01*
X005506Y021145D01*
X005506Y028231D02*
X012593Y028231D01*
X013006Y028231D02*
X020093Y028231D01*
X020093Y021145D01*
X020093Y017731D02*
X013006Y010645D01*
X020093Y010645D01*
X013006Y017731D01*
X020093Y017731D01*
X020093Y010645D01*
X020093Y010231D02*
X013006Y003145D01*
X020093Y003145D01*
X013006Y010231D01*
X020093Y010231D01*
X020093Y003145D01*
X020506Y003145D02*
X027593Y010231D01*
X027593Y003145D01*
X020506Y010231D01*
X020506Y003145D01*
X027593Y003145D01*
X028131Y003145D02*
X035218Y010231D01*
X028131Y010231D01*
X035218Y003145D01*
X035218Y010231D01*
X035631Y010231D02*
X042718Y003145D01*
X042718Y010231D01*
X035631Y003145D01*
X042718Y003145D01*
X042702Y003145D02*
X033647Y010231D01*
X033647Y003145D01*
X042702Y010231D01*
X042702Y003145D01*
X033647Y003145D01*
X035218Y003145D02*
X028131Y003145D01*
X028131Y010231D01*
X027593Y010231D02*
X020506Y010231D01*
X023016Y010645D02*
X037583Y017731D01*
X037583Y010645D01*
X023016Y017731D01*
X023016Y010645D01*
X037583Y010645D01*
X038006Y010645D02*
X045093Y017731D01*
X045093Y010645D01*
X038006Y017731D01*
X038006Y010645D01*
X045093Y010645D01*
X045506Y010645D02*
X052593Y017731D01*
X045506Y017731D01*
X052593Y010645D01*
X052593Y017731D01*
X053006Y017731D02*
X060093Y010645D01*
X060093Y017731D01*
X053006Y010645D01*
X060093Y010645D01*
X060506Y010645D02*
X067593Y017731D01*
X067593Y010645D01*
X060506Y017731D01*
X060506Y010645D01*
X067593Y010645D01*
X068006Y010645D02*
X075093Y017731D01*
X075093Y010645D01*
X068006Y017731D01*
X068006Y010645D01*
X075093Y010645D01*
X073035Y010231D02*
X052563Y003145D01*
X073035Y003145D01*
X052563Y010231D01*
X052563Y003145D01*
X052202Y003145D02*
X043147Y010231D01*
X043147Y003145D01*
X052202Y010231D01*
X052202Y003145D01*
X043147Y003145D01*
X035631Y003145D02*
X035631Y010231D01*
X042718Y010231D01*
X042702Y010231D02*
X033647Y010231D01*
X037583Y017731D02*
X023016Y017731D01*
X024553Y018145D02*
X037545Y025231D01*
X037545Y018145D01*
X024553Y025231D01*
X024553Y018145D01*
X037545Y018145D01*
X038006Y018145D02*
X045093Y025231D01*
X045093Y018145D01*
X038006Y025231D01*
X038006Y018145D01*
X045093Y018145D01*
X045506Y018145D02*
X052593Y025231D01*
X045506Y025231D01*
X052593Y018145D01*
X052593Y025231D01*
X053006Y025231D02*
X060093Y018145D01*
X060093Y025231D01*
X053006Y018145D01*
X060093Y018145D01*
X060506Y018145D02*
X067593Y025231D01*
X067593Y018145D01*
X060506Y025231D01*
X060506Y018145D01*
X067593Y018145D01*
X068006Y018145D02*
X075093Y025231D01*
X075093Y018145D01*
X068006Y025231D01*
X068006Y018145D01*
X075093Y018145D01*
X075093Y017731D02*
X068006Y017731D01*
X067593Y017731D02*
X060506Y017731D01*
X060093Y017731D02*
X053006Y017731D01*
X053006Y010645D01*
X052593Y010645D02*
X045506Y010645D01*
X045506Y017731D01*
X045093Y017731D02*
X038006Y017731D01*
X045506Y018145D02*
X052593Y018145D01*
X053006Y018145D02*
X053006Y025231D01*
X060093Y025231D01*
X060506Y025231D02*
X067593Y025231D01*
X068006Y025231D02*
X075093Y025231D01*
X075093Y025645D02*
X068006Y032731D01*
X068006Y025645D01*
X075093Y032731D01*
X075093Y025645D01*
X068006Y025645D01*
X067593Y025645D02*
X060506Y032731D01*
X060506Y025645D01*
X067593Y032731D01*
X067593Y025645D01*
X060506Y025645D01*
X060093Y025645D02*
X053006Y032731D01*
X053006Y025645D01*
X060093Y032731D01*
X060093Y025645D01*
X053006Y025645D01*
X052593Y025645D02*
X045506Y032731D01*
X052593Y032731D01*
X045506Y025645D01*
X052593Y025645D01*
X052593Y032731D01*
X053006Y032731D02*
X060093Y032731D01*
X060506Y032731D02*
X067593Y032731D01*
X068006Y032731D02*
X075093Y032731D01*
X075093Y033145D02*
X068006Y040231D01*
X068006Y033145D01*
X075093Y040231D01*
X075093Y033145D01*
X068006Y033145D01*
X067593Y033145D02*
X060506Y040231D01*
X060506Y033145D01*
X067593Y040231D01*
X067593Y033145D01*
X060506Y033145D01*
X060093Y033145D02*
X053006Y040231D01*
X053006Y033145D01*
X060093Y040231D01*
X060093Y033145D01*
X053006Y033145D01*
X052593Y033145D02*
X045506Y040231D01*
X052593Y040231D01*
X045506Y033145D01*
X052593Y033145D01*
X052593Y040231D01*
X053006Y040231D02*
X060093Y040231D01*
X060506Y040231D02*
X067593Y040231D01*
X068006Y040231D02*
X075093Y040231D01*
X075093Y043645D02*
X068006Y050731D01*
X068006Y043645D01*
X075093Y050731D01*
X075093Y043645D01*
X068006Y043645D01*
X067593Y043645D02*
X060506Y050731D01*
X060506Y043645D01*
X067593Y050731D01*
X067593Y043645D01*
X060506Y043645D01*
X057093Y043645D02*
X050006Y050731D01*
X050006Y043645D01*
X057093Y050731D01*
X057093Y043645D01*
X050006Y043645D01*
X049593Y043645D02*
X042506Y050731D01*
X042506Y043645D01*
X049593Y050731D01*
X049593Y043645D01*
X042506Y043645D01*
X042093Y043645D02*
X035006Y050731D01*
X035006Y043645D01*
X042093Y050731D01*
X042093Y043645D01*
X035006Y043645D01*
X034593Y043645D02*
X027506Y050731D01*
X027506Y043645D01*
X034593Y050731D01*
X034593Y043645D01*
X027506Y043645D01*
X030093Y040231D02*
X023006Y033145D01*
X030093Y033145D01*
X023006Y040231D01*
X023006Y033145D01*
X020093Y035731D02*
X013006Y035731D01*
X012593Y035731D02*
X005506Y035731D01*
X005506Y028645D01*
X013006Y017731D02*
X013006Y010645D01*
X013006Y010231D02*
X013006Y003145D01*
X012593Y003145D02*
X005506Y010231D01*
X012593Y010231D01*
X005506Y003145D01*
X012593Y003145D01*
X012593Y010231D01*
X005506Y010231D02*
X005506Y003145D01*
X024553Y025231D02*
X037545Y025231D01*
X037561Y025645D02*
X026537Y032731D01*
X026537Y025645D01*
X037561Y032731D01*
X037561Y025645D01*
X026537Y025645D01*
X026537Y032731D02*
X037561Y032731D01*
X037593Y033145D02*
X030506Y040231D01*
X030506Y033145D01*
X037593Y040231D01*
X037593Y033145D01*
X030506Y033145D01*
X030093Y033145D02*
X030093Y040231D01*
X023006Y040231D01*
X020093Y043231D02*
X020093Y036145D01*
X020093Y043231D02*
X013006Y043231D01*
X012593Y043231D02*
X005506Y043231D01*
X005506Y043645D02*
X005506Y050731D01*
X012593Y050731D01*
X013006Y050731D02*
X020093Y050731D01*
X027506Y050731D02*
X034593Y050731D01*
X035006Y050731D02*
X042093Y050731D01*
X042506Y050731D02*
X049593Y050731D01*
X050006Y050731D02*
X057093Y050731D01*
X060506Y050731D02*
X067593Y050731D01*
X068006Y050731D02*
X075093Y050731D01*
X045506Y040231D02*
X045506Y033145D01*
X045093Y033145D02*
X038006Y040231D01*
X038006Y033145D01*
X045093Y040231D01*
X045093Y033145D01*
X038006Y033145D01*
X038006Y032731D02*
X045093Y025645D01*
X045093Y032731D01*
X038006Y025645D01*
X045093Y025645D01*
X045506Y025645D02*
X045506Y032731D01*
X045093Y032731D02*
X038006Y032731D01*
X038006Y025645D01*
X038006Y025231D02*
X045093Y025231D01*
X045506Y025231D02*
X045506Y018145D01*
X043147Y010231D02*
X052202Y010231D01*
X052563Y010231D02*
X073035Y010231D01*
X073035Y003145D01*
X045093Y040231D02*
X038006Y040231D01*
X037593Y040231D02*
X030506Y040231D01*
D16*
X031315Y039998D02*
X032024Y039998D01*
X032024Y040628D02*
X031315Y040628D01*
X031315Y040998D02*
X032024Y040998D01*
X032024Y041628D02*
X031315Y041628D01*
X031315Y041998D02*
X032024Y041998D01*
X032024Y042628D02*
X031315Y042628D01*
X027864Y045088D02*
X027864Y045798D01*
X027234Y045798D02*
X027234Y045088D01*
X022799Y046063D02*
X022801Y046126D01*
X022807Y046188D01*
X022817Y046250D01*
X022830Y046312D01*
X022848Y046372D01*
X022869Y046431D01*
X022894Y046489D01*
X022923Y046545D01*
X022955Y046599D01*
X022990Y046651D01*
X023028Y046700D01*
X023070Y046748D01*
X023114Y046792D01*
X023162Y046834D01*
X023211Y046872D01*
X023263Y046907D01*
X023317Y046939D01*
X023373Y046968D01*
X023431Y046993D01*
X023490Y047014D01*
X023550Y047032D01*
X023612Y047045D01*
X023674Y047055D01*
X023736Y047061D01*
X023799Y047063D01*
X023862Y047061D01*
X023924Y047055D01*
X023986Y047045D01*
X024048Y047032D01*
X024108Y047014D01*
X024167Y046993D01*
X024225Y046968D01*
X024281Y046939D01*
X024335Y046907D01*
X024387Y046872D01*
X024436Y046834D01*
X024484Y046792D01*
X024528Y046748D01*
X024570Y046700D01*
X024608Y046651D01*
X024643Y046599D01*
X024675Y046545D01*
X024704Y046489D01*
X024729Y046431D01*
X024750Y046372D01*
X024768Y046312D01*
X024781Y046250D01*
X024791Y046188D01*
X024797Y046126D01*
X024799Y046063D01*
X024797Y046000D01*
X024791Y045938D01*
X024781Y045876D01*
X024768Y045814D01*
X024750Y045754D01*
X024729Y045695D01*
X024704Y045637D01*
X024675Y045581D01*
X024643Y045527D01*
X024608Y045475D01*
X024570Y045426D01*
X024528Y045378D01*
X024484Y045334D01*
X024436Y045292D01*
X024387Y045254D01*
X024335Y045219D01*
X024281Y045187D01*
X024225Y045158D01*
X024167Y045133D01*
X024108Y045112D01*
X024048Y045094D01*
X023986Y045081D01*
X023924Y045071D01*
X023862Y045065D01*
X023799Y045063D01*
X023736Y045065D01*
X023674Y045071D01*
X023612Y045081D01*
X023550Y045094D01*
X023490Y045112D01*
X023431Y045133D01*
X023373Y045158D01*
X023317Y045187D01*
X023263Y045219D01*
X023211Y045254D01*
X023162Y045292D01*
X023114Y045334D01*
X023070Y045378D01*
X023028Y045426D01*
X022990Y045475D01*
X022955Y045527D01*
X022923Y045581D01*
X022894Y045637D01*
X022869Y045695D01*
X022848Y045754D01*
X022830Y045814D01*
X022817Y045876D01*
X022807Y045938D01*
X022801Y046000D01*
X022799Y046063D01*
X022949Y046063D02*
X022951Y046119D01*
X022956Y046174D01*
X022965Y046229D01*
X022978Y046283D01*
X022994Y046336D01*
X023014Y046388D01*
X023037Y046439D01*
X023063Y046488D01*
X023092Y046535D01*
X023125Y046580D01*
X023160Y046623D01*
X023198Y046664D01*
X023239Y046702D01*
X023282Y046737D01*
X023327Y046770D01*
X023374Y046799D01*
X023423Y046825D01*
X023474Y046848D01*
X023526Y046868D01*
X023579Y046884D01*
X023633Y046897D01*
X023688Y046906D01*
X023743Y046911D01*
X023799Y046913D01*
X024649Y046063D02*
X024647Y046007D01*
X024642Y045952D01*
X024633Y045897D01*
X024620Y045843D01*
X024604Y045790D01*
X024584Y045738D01*
X024561Y045687D01*
X024535Y045638D01*
X024506Y045591D01*
X024473Y045546D01*
X024438Y045503D01*
X024400Y045462D01*
X024359Y045424D01*
X024316Y045389D01*
X024271Y045356D01*
X024224Y045327D01*
X024175Y045301D01*
X024124Y045278D01*
X024072Y045258D01*
X024019Y045242D01*
X023965Y045229D01*
X023910Y045220D01*
X023855Y045215D01*
X023799Y045213D01*
X022924Y043938D02*
X022924Y043038D01*
X022824Y042938D01*
X022924Y042838D01*
X022924Y042038D01*
X022824Y041938D01*
X022924Y041838D01*
X022924Y041038D01*
X022824Y040938D01*
X022924Y040838D01*
X022924Y040038D01*
X022824Y039938D01*
X022924Y039838D01*
X022924Y039038D01*
X022824Y038938D01*
X022924Y038838D01*
X022924Y038038D01*
X022824Y037938D01*
X022924Y037838D01*
X022924Y037038D01*
X022824Y036938D01*
X022924Y036838D01*
X022924Y036038D01*
X022824Y035938D01*
X022924Y035838D01*
X022924Y035038D01*
X022824Y034938D01*
X022924Y034838D01*
X022924Y034038D01*
X022824Y033938D01*
X022924Y033838D01*
X022924Y033038D01*
X022824Y032938D01*
X022924Y032838D01*
X022924Y032038D01*
X022824Y031938D01*
X022924Y031838D01*
X022924Y030938D01*
X021924Y030938D01*
X021924Y031838D01*
X022024Y031938D01*
X021924Y032038D01*
X021924Y032838D01*
X022024Y032938D01*
X021924Y033038D01*
X021924Y033838D01*
X022024Y033938D01*
X021924Y034038D01*
X021924Y034838D01*
X022024Y034938D01*
X021924Y035038D01*
X021924Y035838D01*
X022024Y035938D01*
X021924Y036038D01*
X021924Y036838D01*
X022024Y036938D01*
X021924Y037038D01*
X021924Y037838D01*
X022024Y037938D01*
X021924Y038038D01*
X021924Y038838D01*
X022024Y038938D01*
X021924Y039038D01*
X021924Y039838D01*
X022024Y039938D01*
X021924Y040038D01*
X021924Y040838D01*
X022024Y040938D01*
X021924Y041038D01*
X021924Y041838D01*
X022024Y041938D01*
X021924Y042038D01*
X021924Y042838D01*
X022024Y042938D01*
X021924Y043038D01*
X021924Y043938D01*
X022924Y043938D01*
X022624Y043638D02*
X022224Y043638D01*
X022224Y043538D01*
X022124Y043538D01*
X022124Y043338D01*
X022224Y043338D01*
X022224Y043238D01*
X022624Y043238D01*
X022624Y043338D01*
X022724Y043338D01*
X022724Y043538D01*
X022624Y043538D01*
X022624Y043638D01*
X022624Y042638D02*
X022224Y042638D01*
X022224Y042538D01*
X022124Y042538D01*
X022124Y042338D01*
X022224Y042338D01*
X022224Y042238D01*
X022624Y042238D01*
X022624Y042338D01*
X022724Y042338D01*
X022724Y042538D01*
X022624Y042538D01*
X022624Y042638D01*
X022624Y041638D02*
X022224Y041638D01*
X022224Y041538D01*
X022124Y041538D01*
X022124Y041338D01*
X022224Y041338D01*
X022224Y041238D01*
X022624Y041238D01*
X022624Y041338D01*
X022724Y041338D01*
X022724Y041538D01*
X022624Y041538D01*
X022624Y041638D01*
X022624Y040638D02*
X022224Y040638D01*
X022224Y040538D01*
X022124Y040538D01*
X022124Y040338D01*
X022224Y040338D01*
X022224Y040238D01*
X022624Y040238D01*
X022624Y040338D01*
X022724Y040338D01*
X022724Y040538D01*
X022624Y040538D01*
X022624Y040638D01*
X022624Y039638D02*
X022224Y039638D01*
X022224Y039538D01*
X022124Y039538D01*
X022124Y039338D01*
X022224Y039338D01*
X022224Y039238D01*
X022624Y039238D01*
X022624Y039338D01*
X022724Y039338D01*
X022724Y039538D01*
X022624Y039538D01*
X022624Y039638D01*
X022624Y038638D02*
X022224Y038638D01*
X022224Y038538D01*
X022124Y038538D01*
X022124Y038338D01*
X022224Y038338D01*
X022224Y038238D01*
X022624Y038238D01*
X022624Y038338D01*
X022724Y038338D01*
X022724Y038538D01*
X022624Y038538D01*
X022624Y038638D01*
X022624Y037638D02*
X022224Y037638D01*
X022224Y037538D01*
X022124Y037538D01*
X022124Y037338D01*
X022224Y037338D01*
X022224Y037238D01*
X022624Y037238D01*
X022624Y037338D01*
X022724Y037338D01*
X022724Y037538D01*
X022624Y037538D01*
X022624Y037638D01*
X022624Y036638D02*
X022224Y036638D01*
X022224Y036538D01*
X022124Y036538D01*
X022124Y036338D01*
X022224Y036338D01*
X022224Y036238D01*
X022624Y036238D01*
X022624Y036338D01*
X022724Y036338D01*
X022724Y036538D01*
X022624Y036538D01*
X022624Y036638D01*
X022624Y035638D02*
X022224Y035638D01*
X022224Y035538D01*
X022124Y035538D01*
X022124Y035338D01*
X022224Y035338D01*
X022224Y035238D01*
X022624Y035238D01*
X022624Y035338D01*
X022724Y035338D01*
X022724Y035538D01*
X022624Y035538D01*
X022624Y035638D01*
X022624Y034638D02*
X022224Y034638D01*
X022224Y034538D01*
X022124Y034538D01*
X022124Y034338D01*
X022224Y034338D01*
X022224Y034238D01*
X022624Y034238D01*
X022624Y034338D01*
X022724Y034338D01*
X022724Y034538D01*
X022624Y034538D01*
X022624Y034638D01*
X022624Y033638D02*
X022224Y033638D01*
X022224Y033538D01*
X022124Y033538D01*
X022124Y033338D01*
X022224Y033338D01*
X022224Y033238D01*
X022624Y033238D01*
X022624Y033338D01*
X022724Y033338D01*
X022724Y033538D01*
X022624Y033538D01*
X022624Y033638D01*
X022624Y032638D02*
X022224Y032638D01*
X022224Y032538D01*
X022124Y032538D01*
X022124Y032338D01*
X022224Y032338D01*
X022224Y032238D01*
X022624Y032238D01*
X022624Y032338D01*
X022724Y032338D01*
X022724Y032538D01*
X022624Y032538D01*
X022624Y032638D01*
X022624Y031638D02*
X022224Y031638D01*
X022224Y031538D01*
X022124Y031538D01*
X022124Y031338D01*
X022224Y031338D01*
X022224Y031238D01*
X022624Y031238D01*
X022624Y031338D01*
X022724Y031338D01*
X022724Y031538D01*
X022624Y031538D01*
X022624Y031638D01*
X019114Y029538D02*
X019114Y028829D01*
X018484Y028829D02*
X018484Y029538D01*
X018489Y035838D02*
X018489Y036548D01*
X017859Y036548D02*
X017859Y035838D01*
X010864Y036338D02*
X010864Y037048D01*
X010234Y037048D02*
X010234Y036338D01*
X007534Y036128D02*
X006825Y036128D01*
X006825Y035498D02*
X007534Y035498D01*
X007159Y029378D02*
X006450Y029378D01*
X006450Y028748D02*
X007159Y028748D01*
X007149Y028503D02*
X006440Y028503D01*
X006440Y027873D02*
X007149Y027873D01*
X010234Y028579D02*
X010234Y029288D01*
X010864Y029288D02*
X010864Y028579D01*
X019359Y021663D02*
X019359Y020954D01*
X019989Y020954D02*
X019989Y021663D01*
X010449Y018438D02*
X008149Y018438D01*
X008149Y011438D01*
X008899Y011438D01*
X008901Y011477D01*
X008907Y011516D01*
X008916Y011554D01*
X008929Y011591D01*
X008946Y011627D01*
X008966Y011660D01*
X008990Y011692D01*
X009016Y011721D01*
X009045Y011747D01*
X009077Y011771D01*
X009110Y011791D01*
X009146Y011808D01*
X009183Y011821D01*
X009221Y011830D01*
X009260Y011836D01*
X009299Y011838D01*
X009338Y011836D01*
X009377Y011830D01*
X009415Y011821D01*
X009452Y011808D01*
X009488Y011791D01*
X009521Y011771D01*
X009553Y011747D01*
X009582Y011721D01*
X009608Y011692D01*
X009632Y011660D01*
X009652Y011627D01*
X009669Y011591D01*
X009682Y011554D01*
X009691Y011516D01*
X009697Y011477D01*
X009699Y011438D01*
X010449Y011438D01*
X010449Y018438D01*
X005649Y013253D02*
X004940Y013253D01*
X004940Y012623D02*
X005649Y012623D01*
X031109Y033338D02*
X031109Y034048D01*
X031739Y034048D02*
X031739Y033338D01*
X035109Y033338D02*
X035109Y034048D01*
X035739Y034048D02*
X035739Y033338D01*
X038815Y039748D02*
X039524Y039748D01*
X039524Y040378D02*
X038815Y040378D01*
X038815Y040623D02*
X039524Y040623D01*
X039524Y041253D02*
X038815Y041253D01*
X038815Y041498D02*
X039524Y041498D01*
X039524Y042128D02*
X038815Y042128D01*
X045190Y042128D02*
X045899Y042128D01*
X045909Y042498D02*
X045200Y042498D01*
X045200Y043128D02*
X045909Y043128D01*
X045899Y041498D02*
X045190Y041498D01*
X045190Y041128D02*
X045899Y041128D01*
X045899Y040498D02*
X045190Y040498D01*
X045190Y040128D02*
X045899Y040128D01*
X045899Y039498D02*
X045190Y039498D01*
X045359Y035923D02*
X045359Y035213D01*
X045989Y035213D02*
X045989Y035923D01*
X054190Y040248D02*
X054899Y040248D01*
X054899Y040878D02*
X054190Y040878D01*
X054065Y040998D02*
X054774Y040998D01*
X054774Y041628D02*
X054065Y041628D01*
X054274Y041998D02*
X053565Y041998D01*
X053565Y042628D02*
X054274Y042628D01*
X054284Y042873D02*
X053575Y042873D01*
X053575Y043503D02*
X054284Y043503D01*
X055549Y043088D02*
X055549Y042338D01*
X055588Y042336D01*
X055627Y042330D01*
X055665Y042321D01*
X055702Y042308D01*
X055738Y042291D01*
X055771Y042271D01*
X055803Y042247D01*
X055832Y042221D01*
X055858Y042192D01*
X055882Y042160D01*
X055902Y042127D01*
X055919Y042091D01*
X055932Y042054D01*
X055941Y042016D01*
X055947Y041977D01*
X055949Y041938D01*
X055947Y041899D01*
X055941Y041860D01*
X055932Y041822D01*
X055919Y041785D01*
X055902Y041749D01*
X055882Y041716D01*
X055858Y041684D01*
X055832Y041655D01*
X055803Y041629D01*
X055771Y041605D01*
X055738Y041585D01*
X055702Y041568D01*
X055665Y041555D01*
X055627Y041546D01*
X055588Y041540D01*
X055549Y041538D01*
X055549Y040788D01*
X063549Y040788D01*
X063549Y043088D01*
X055549Y043088D01*
X057359Y047329D02*
X057359Y048038D01*
X057989Y048038D02*
X057989Y047329D01*
X058484Y047329D02*
X058484Y048038D01*
X059114Y048038D02*
X059114Y047329D01*
X059609Y047329D02*
X059609Y048038D01*
X060239Y048038D02*
X060239Y047329D01*
X064940Y042253D02*
X065649Y042253D01*
X065649Y041623D02*
X064940Y041623D01*
X069734Y041579D02*
X069734Y042288D01*
X070364Y042288D02*
X070364Y041579D01*
X058364Y034048D02*
X058364Y033338D01*
X057734Y033338D02*
X057734Y034048D01*
X057609Y026288D02*
X057609Y025579D01*
X058239Y025579D02*
X058239Y026288D01*
X065234Y026288D02*
X065234Y025579D01*
X065864Y025579D02*
X065864Y026288D01*
X066114Y019048D02*
X066114Y018338D01*
X065484Y018338D02*
X065484Y019048D01*
X058489Y019048D02*
X058489Y018338D01*
X057859Y018338D02*
X057859Y019048D01*
X051114Y019038D02*
X051114Y018329D01*
X050484Y018329D02*
X050484Y019038D01*
X050234Y025579D02*
X050234Y026288D01*
X050864Y026288D02*
X050864Y025579D01*
X043364Y025579D02*
X043364Y026288D01*
X042734Y026288D02*
X042734Y025579D01*
X042984Y019038D02*
X042984Y018329D01*
X043614Y018329D02*
X043614Y019038D01*
X035114Y019038D02*
X035114Y018329D01*
X034484Y018329D02*
X034484Y019038D01*
X034234Y025579D02*
X034234Y026288D01*
X034864Y026288D02*
X034864Y025579D01*
X020864Y044338D02*
X020864Y045048D01*
X020234Y045048D02*
X020234Y044338D01*
X023149Y046063D02*
X023151Y046112D01*
X023156Y046160D01*
X023165Y046208D01*
X023178Y046255D01*
X023194Y046300D01*
X023213Y046345D01*
X023236Y046388D01*
X023262Y046429D01*
X023291Y046468D01*
X023323Y046505D01*
X023357Y046539D01*
X023394Y046571D01*
X023433Y046600D01*
X023474Y046626D01*
X023517Y046649D01*
X023562Y046668D01*
X023607Y046684D01*
X023654Y046697D01*
X023702Y046706D01*
X023750Y046711D01*
X023799Y046713D01*
X024449Y046063D02*
X024447Y046014D01*
X024442Y045966D01*
X024433Y045918D01*
X024420Y045871D01*
X024404Y045826D01*
X024385Y045781D01*
X024362Y045738D01*
X024336Y045697D01*
X024307Y045658D01*
X024275Y045621D01*
X024241Y045587D01*
X024204Y045555D01*
X024165Y045526D01*
X024124Y045500D01*
X024081Y045477D01*
X024036Y045458D01*
X023991Y045442D01*
X023944Y045429D01*
X023896Y045420D01*
X023848Y045415D01*
X023799Y045413D01*
X023349Y046063D02*
X023351Y046105D01*
X023357Y046146D01*
X023366Y046186D01*
X023379Y046226D01*
X023396Y046264D01*
X023416Y046300D01*
X023440Y046334D01*
X023466Y046366D01*
X023496Y046396D01*
X023528Y046422D01*
X023562Y046446D01*
X023598Y046466D01*
X023636Y046483D01*
X023676Y046496D01*
X023716Y046505D01*
X023757Y046511D01*
X023799Y046513D01*
X024249Y046063D02*
X024247Y046021D01*
X024241Y045980D01*
X024232Y045940D01*
X024219Y045900D01*
X024202Y045862D01*
X024182Y045826D01*
X024158Y045792D01*
X024132Y045760D01*
X024102Y045730D01*
X024070Y045704D01*
X024036Y045680D01*
X024000Y045660D01*
X023962Y045643D01*
X023922Y045630D01*
X023882Y045621D01*
X023841Y045615D01*
X023799Y045613D01*
X022799Y048938D02*
X022801Y049001D01*
X022807Y049063D01*
X022817Y049125D01*
X022830Y049187D01*
X022848Y049247D01*
X022869Y049306D01*
X022894Y049364D01*
X022923Y049420D01*
X022955Y049474D01*
X022990Y049526D01*
X023028Y049575D01*
X023070Y049623D01*
X023114Y049667D01*
X023162Y049709D01*
X023211Y049747D01*
X023263Y049782D01*
X023317Y049814D01*
X023373Y049843D01*
X023431Y049868D01*
X023490Y049889D01*
X023550Y049907D01*
X023612Y049920D01*
X023674Y049930D01*
X023736Y049936D01*
X023799Y049938D01*
X023862Y049936D01*
X023924Y049930D01*
X023986Y049920D01*
X024048Y049907D01*
X024108Y049889D01*
X024167Y049868D01*
X024225Y049843D01*
X024281Y049814D01*
X024335Y049782D01*
X024387Y049747D01*
X024436Y049709D01*
X024484Y049667D01*
X024528Y049623D01*
X024570Y049575D01*
X024608Y049526D01*
X024643Y049474D01*
X024675Y049420D01*
X024704Y049364D01*
X024729Y049306D01*
X024750Y049247D01*
X024768Y049187D01*
X024781Y049125D01*
X024791Y049063D01*
X024797Y049001D01*
X024799Y048938D01*
X024797Y048875D01*
X024791Y048813D01*
X024781Y048751D01*
X024768Y048689D01*
X024750Y048629D01*
X024729Y048570D01*
X024704Y048512D01*
X024675Y048456D01*
X024643Y048402D01*
X024608Y048350D01*
X024570Y048301D01*
X024528Y048253D01*
X024484Y048209D01*
X024436Y048167D01*
X024387Y048129D01*
X024335Y048094D01*
X024281Y048062D01*
X024225Y048033D01*
X024167Y048008D01*
X024108Y047987D01*
X024048Y047969D01*
X023986Y047956D01*
X023924Y047946D01*
X023862Y047940D01*
X023799Y047938D01*
X023736Y047940D01*
X023674Y047946D01*
X023612Y047956D01*
X023550Y047969D01*
X023490Y047987D01*
X023431Y048008D01*
X023373Y048033D01*
X023317Y048062D01*
X023263Y048094D01*
X023211Y048129D01*
X023162Y048167D01*
X023114Y048209D01*
X023070Y048253D01*
X023028Y048301D01*
X022990Y048350D01*
X022955Y048402D01*
X022923Y048456D01*
X022894Y048512D01*
X022869Y048570D01*
X022848Y048629D01*
X022830Y048689D01*
X022817Y048751D01*
X022807Y048813D01*
X022801Y048875D01*
X022799Y048938D01*
X022949Y048938D02*
X022951Y048994D01*
X022956Y049049D01*
X022965Y049104D01*
X022978Y049158D01*
X022994Y049211D01*
X023014Y049263D01*
X023037Y049314D01*
X023063Y049363D01*
X023092Y049410D01*
X023125Y049455D01*
X023160Y049498D01*
X023198Y049539D01*
X023239Y049577D01*
X023282Y049612D01*
X023327Y049645D01*
X023374Y049674D01*
X023423Y049700D01*
X023474Y049723D01*
X023526Y049743D01*
X023579Y049759D01*
X023633Y049772D01*
X023688Y049781D01*
X023743Y049786D01*
X023799Y049788D01*
X024649Y048938D02*
X024647Y048882D01*
X024642Y048827D01*
X024633Y048772D01*
X024620Y048718D01*
X024604Y048665D01*
X024584Y048613D01*
X024561Y048562D01*
X024535Y048513D01*
X024506Y048466D01*
X024473Y048421D01*
X024438Y048378D01*
X024400Y048337D01*
X024359Y048299D01*
X024316Y048264D01*
X024271Y048231D01*
X024224Y048202D01*
X024175Y048176D01*
X024124Y048153D01*
X024072Y048133D01*
X024019Y048117D01*
X023965Y048104D01*
X023910Y048095D01*
X023855Y048090D01*
X023799Y048088D01*
X023149Y048938D02*
X023151Y048987D01*
X023156Y049035D01*
X023165Y049083D01*
X023178Y049130D01*
X023194Y049175D01*
X023213Y049220D01*
X023236Y049263D01*
X023262Y049304D01*
X023291Y049343D01*
X023323Y049380D01*
X023357Y049414D01*
X023394Y049446D01*
X023433Y049475D01*
X023474Y049501D01*
X023517Y049524D01*
X023562Y049543D01*
X023607Y049559D01*
X023654Y049572D01*
X023702Y049581D01*
X023750Y049586D01*
X023799Y049588D01*
X024449Y048938D02*
X024447Y048889D01*
X024442Y048841D01*
X024433Y048793D01*
X024420Y048746D01*
X024404Y048701D01*
X024385Y048656D01*
X024362Y048613D01*
X024336Y048572D01*
X024307Y048533D01*
X024275Y048496D01*
X024241Y048462D01*
X024204Y048430D01*
X024165Y048401D01*
X024124Y048375D01*
X024081Y048352D01*
X024036Y048333D01*
X023991Y048317D01*
X023944Y048304D01*
X023896Y048295D01*
X023848Y048290D01*
X023799Y048288D01*
X023349Y048938D02*
X023351Y048980D01*
X023357Y049021D01*
X023366Y049061D01*
X023379Y049101D01*
X023396Y049139D01*
X023416Y049175D01*
X023440Y049209D01*
X023466Y049241D01*
X023496Y049271D01*
X023528Y049297D01*
X023562Y049321D01*
X023598Y049341D01*
X023636Y049358D01*
X023676Y049371D01*
X023716Y049380D01*
X023757Y049386D01*
X023799Y049388D01*
X024249Y048938D02*
X024247Y048896D01*
X024241Y048855D01*
X024232Y048815D01*
X024219Y048775D01*
X024202Y048737D01*
X024182Y048701D01*
X024158Y048667D01*
X024132Y048635D01*
X024102Y048605D01*
X024070Y048579D01*
X024036Y048555D01*
X024000Y048535D01*
X023962Y048518D01*
X023922Y048505D01*
X023882Y048496D01*
X023841Y048490D01*
X023799Y048488D01*
X013239Y046048D02*
X013239Y045338D01*
X012609Y045338D02*
X012609Y046048D01*
D17*
X006925Y011845D03*
X006925Y011275D03*
D18*
X019675Y020811D03*
X019675Y021811D03*
X018800Y028686D03*
X018800Y029686D03*
X018174Y035690D03*
X018174Y036690D03*
X010549Y036190D03*
X010549Y037190D03*
X012924Y045190D03*
X012924Y046190D03*
X020549Y045190D03*
X020549Y044190D03*
X027549Y044940D03*
X027549Y045940D03*
X031424Y034190D03*
X031424Y033190D03*
X035424Y033190D03*
X035424Y034190D03*
X034550Y026436D03*
X034550Y025436D03*
X034800Y019186D03*
X034800Y018186D03*
X043300Y018186D03*
X043300Y019186D03*
X043050Y025436D03*
X043050Y026436D03*
X050550Y026436D03*
X050550Y025436D03*
X050800Y019186D03*
X050800Y018186D03*
X058174Y018190D03*
X058174Y019190D03*
X057925Y025436D03*
X057925Y026436D03*
X058049Y033190D03*
X058049Y034190D03*
X065550Y026436D03*
X065550Y025436D03*
X065799Y019190D03*
X065799Y018190D03*
X045674Y035065D03*
X045674Y036065D03*
X057675Y047186D03*
X058800Y047186D03*
X058800Y048186D03*
X057675Y048186D03*
X059925Y048186D03*
X059925Y047186D03*
X070050Y042436D03*
X070050Y041436D03*
X010550Y029436D03*
X010550Y028436D03*
D19*
X007297Y028188D03*
X006297Y028188D03*
X006302Y029064D03*
X007302Y029064D03*
X007677Y035814D03*
X006677Y035814D03*
X031172Y040313D03*
X032172Y040313D03*
X032172Y041313D03*
X032172Y042313D03*
X031172Y042313D03*
X031172Y041313D03*
X038672Y040938D03*
X038672Y041813D03*
X039672Y041813D03*
X039672Y040938D03*
X039672Y040063D03*
X038672Y040063D03*
X045047Y039813D03*
X045047Y040813D03*
X045047Y041813D03*
X046047Y041813D03*
X046047Y040813D03*
X046047Y039813D03*
X046052Y042814D03*
X045052Y042814D03*
X053427Y043189D03*
X053422Y042313D03*
X053922Y041313D03*
X054047Y040563D03*
X055047Y040563D03*
X054922Y041313D03*
X054422Y042313D03*
X054427Y043189D03*
X064797Y041938D03*
X065797Y041938D03*
X005797Y012938D03*
X004797Y012938D03*
D20*
X022224Y031438D03*
X022624Y031438D03*
X022624Y032438D03*
X022224Y032438D03*
X022224Y033438D03*
X022624Y033438D03*
X022624Y034438D03*
X022224Y034438D03*
X022224Y035438D03*
X022624Y035438D03*
X022624Y036438D03*
X022224Y036438D03*
X022224Y037438D03*
X022624Y037438D03*
X022624Y038438D03*
X022224Y038438D03*
X022224Y039438D03*
X022624Y039438D03*
X022624Y040438D03*
X022224Y040438D03*
X022224Y041438D03*
X022624Y041438D03*
X022624Y042438D03*
X022224Y042438D03*
X022224Y043438D03*
X022624Y043438D03*
D21*
X022799Y045313D02*
X022799Y046813D01*
X022799Y048188D02*
X022799Y049688D01*
D22*
X023299Y048938D02*
X023299Y046063D01*
X056049Y043438D01*
X061049Y042528D01*
X031084Y042313D02*
X022424Y042438D01*
X022424Y041438D02*
X031084Y041313D01*
X031084Y040313D02*
X022424Y040438D01*
X022424Y039438D02*
X025549Y044848D01*
X026549Y044848D02*
X022424Y038438D01*
X022424Y037438D02*
X022299Y025063D01*
X022799Y024938D02*
X022424Y035438D01*
X022424Y034438D02*
X023799Y023688D01*
X024424Y023813D02*
X022424Y033438D01*
X022424Y032438D02*
X025174Y023063D01*
X023299Y024563D02*
X022424Y036438D01*
X020005Y034688D02*
X031049Y036313D01*
X029299Y033638D02*
X020724Y033638D01*
X022424Y031438D02*
X010799Y017938D01*
X010799Y015938D02*
X010674Y015938D01*
X009799Y015562D01*
X009799Y014814D02*
X009175Y013813D01*
X009175Y011938D01*
X006924Y011189D01*
X006924Y011937D02*
X007799Y010939D01*
X007799Y011687D02*
X007799Y011938D01*
X005969Y012063D01*
X004630Y012063D02*
X002219Y014188D01*
X000880Y014188D02*
X004798Y013813D01*
X006175Y014313D01*
X009175Y013813D01*
X009923Y013813D02*
X010799Y013938D01*
X021549Y012688D01*
X023130Y013938D02*
X019674Y018232D01*
X024469Y013938D02*
X027499Y012188D01*
X011799Y011938D02*
X010799Y011938D01*
X009923Y011938D01*
X007799Y012938D02*
X005889Y012938D01*
X006175Y014313D02*
X006674Y018187D01*
X022424Y043438D01*
X023299Y046063D01*
X024299Y046063D02*
X025549Y046028D01*
X026549Y046028D02*
X024299Y048938D01*
X007799Y016938D02*
X006674Y017439D01*
X005799Y017188D01*
X004799Y015473D02*
X006923Y014313D01*
X007799Y014938D01*
X004050Y013813D02*
X003424Y013973D01*
M02*
