G75*
G70*
%OFA0B0*%
%FSLAX24Y24*%
%IPPOS*%
%LPD*%
%AMOC8*
5,1,8,0,0,1.08239X$1,22.5*
%
%ADD10C,0.0140*%
%ADD11C,0.1500*%
%ADD12C,0.1012*%
%ADD13C,0.0860*%
%ADD14C,0.1181*%
%ADD15R,0.0630X0.0460*%
%ADD16C,0.0320*%
%ADD17R,0.0460X0.0630*%
%ADD18R,0.0709X0.0551*%
%ADD19R,0.0551X0.0709*%
%ADD20R,0.0827X0.0827*%
%ADD21R,0.0709X0.0472*%
%ADD22R,0.0591X0.0512*%
%ADD23R,0.0472X0.0591*%
%ADD24R,0.0591X0.0472*%
%ADD25C,0.0515*%
%ADD26C,0.0827*%
%ADD27R,0.0472X0.0709*%
%ADD28C,0.0400*%
%ADD29C,0.0240*%
%ADD30C,0.0906*%
%ADD31C,0.0160*%
%ADD32R,0.0906X0.0906*%
%ADD33C,0.1969*%
%ADD34C,0.0787*%
%ADD35C,0.0079*%
D10*
X062657Y001510D02*
X062657Y001637D01*
X062783Y001763D01*
X063164Y001763D01*
X063164Y001510D01*
X063037Y001383D01*
X062783Y001383D01*
X062657Y001510D01*
X062910Y002017D02*
X063164Y001763D01*
X062910Y002017D02*
X062657Y002144D01*
X063739Y002144D02*
X063739Y001383D01*
X063992Y001383D02*
X063485Y001383D01*
X063992Y001890D02*
X063739Y002144D01*
X064314Y001763D02*
X064821Y001763D01*
X065143Y001637D02*
X065143Y001510D01*
X065270Y001383D01*
X065523Y001383D01*
X065650Y001510D01*
X065650Y001637D01*
X065523Y001763D01*
X065270Y001763D01*
X065143Y001637D01*
X065270Y001763D02*
X065143Y001890D01*
X065143Y002017D01*
X065270Y002144D01*
X065523Y002144D01*
X065650Y002017D01*
X065650Y001890D01*
X065523Y001763D01*
X065971Y002017D02*
X066479Y001510D01*
X066479Y001383D01*
X066800Y001383D02*
X067307Y001383D01*
X067054Y001383D02*
X067054Y002144D01*
X067307Y001890D01*
X067629Y001383D02*
X068136Y001383D01*
X067882Y001383D02*
X067882Y002144D01*
X068136Y001890D01*
X066479Y002144D02*
X065971Y002144D01*
X065971Y002017D01*
D11*
X067956Y004688D03*
X070456Y005688D03*
X069206Y012188D03*
X071706Y013188D03*
X076706Y012188D03*
X079206Y013188D03*
X076706Y019688D03*
X079206Y020688D03*
X076706Y027188D03*
X079206Y028188D03*
X076706Y034688D03*
X079206Y035688D03*
X071706Y035688D03*
X069206Y034688D03*
X064206Y035688D03*
X061706Y034688D03*
X056706Y035688D03*
X054206Y034688D03*
X049206Y035688D03*
X046706Y034688D03*
X041706Y035688D03*
X039206Y034688D03*
X039706Y028188D03*
X037206Y027188D03*
X038706Y020688D03*
X036206Y019688D03*
X037956Y013188D03*
X035456Y012188D03*
X031706Y005688D03*
X029206Y004688D03*
X024206Y005688D03*
X021706Y004688D03*
X016706Y005688D03*
X014206Y004688D03*
X021706Y012188D03*
X024206Y013188D03*
X021706Y022688D03*
X024206Y023688D03*
X021706Y030188D03*
X024206Y031188D03*
X021706Y037688D03*
X024206Y038688D03*
X021706Y045188D03*
X024206Y046188D03*
X016706Y046188D03*
X014206Y045188D03*
X016706Y038688D03*
X014206Y037688D03*
X016706Y031188D03*
X014206Y030188D03*
X016706Y023688D03*
X014206Y022688D03*
X031706Y034688D03*
X034206Y035688D03*
X036206Y045188D03*
X038706Y046188D03*
X043706Y045188D03*
X046206Y046188D03*
X051206Y045188D03*
X053706Y046188D03*
X058706Y045188D03*
X061206Y046188D03*
X069206Y045188D03*
X071706Y046188D03*
X076706Y045188D03*
X079206Y046188D03*
X071706Y028188D03*
X069206Y027188D03*
X064206Y028188D03*
X061706Y027188D03*
X056706Y028188D03*
X054206Y027188D03*
X049206Y028188D03*
X046706Y027188D03*
X049206Y020688D03*
X046706Y019688D03*
X049206Y013188D03*
X046706Y012188D03*
X046956Y005688D03*
X045831Y005688D03*
X044456Y004688D03*
X043331Y004688D03*
X039331Y005688D03*
X036831Y004688D03*
X052831Y004688D03*
X055331Y005688D03*
X054206Y012188D03*
X056706Y013188D03*
X061706Y012188D03*
X064206Y013188D03*
X061706Y019688D03*
X064206Y020688D03*
X069206Y019688D03*
X071706Y020688D03*
X056706Y020688D03*
X054206Y019688D03*
D12*
X053206Y021688D03*
X057206Y021688D03*
X060706Y021688D03*
X064706Y021688D03*
X068206Y021688D03*
X072206Y021688D03*
X075706Y021688D03*
X079706Y021688D03*
X079706Y014188D03*
X075706Y014188D03*
X072206Y014188D03*
X068206Y014188D03*
X064706Y014188D03*
X060706Y014188D03*
X057206Y014188D03*
X053206Y014188D03*
X049706Y014188D03*
X045706Y014188D03*
X045706Y021688D03*
X049706Y021688D03*
X049706Y029188D03*
X045706Y029188D03*
X040206Y029188D03*
X036206Y029188D03*
X035206Y021688D03*
X039206Y021688D03*
X038456Y014188D03*
X034456Y014188D03*
X035831Y006688D03*
X032206Y006688D03*
X028206Y006688D03*
X024706Y006688D03*
X020706Y006688D03*
X017206Y006688D03*
X013206Y006688D03*
X020706Y014188D03*
X024706Y014188D03*
X024706Y024688D03*
X020706Y024688D03*
X017206Y024688D03*
X013206Y024688D03*
X013206Y032188D03*
X017206Y032188D03*
X020706Y032188D03*
X024706Y032188D03*
X024706Y039688D03*
X020706Y039688D03*
X017206Y039688D03*
X013206Y039688D03*
X013206Y047188D03*
X017206Y047188D03*
X020706Y047188D03*
X024706Y047188D03*
X030706Y036688D03*
X034706Y036688D03*
X038206Y036688D03*
X042206Y036688D03*
X045706Y036688D03*
X049706Y036688D03*
X053206Y036688D03*
X057206Y036688D03*
X060706Y036688D03*
X064706Y036688D03*
X068206Y036688D03*
X072206Y036688D03*
X075706Y036688D03*
X079706Y036688D03*
X079706Y029188D03*
X075706Y029188D03*
X072206Y029188D03*
X068206Y029188D03*
X064706Y029188D03*
X060706Y029188D03*
X057206Y029188D03*
X053206Y029188D03*
X054206Y047188D03*
X050206Y047188D03*
X046706Y047188D03*
X042706Y047188D03*
X039206Y047188D03*
X035206Y047188D03*
X057706Y047188D03*
X061706Y047188D03*
X068206Y047188D03*
X072206Y047188D03*
X075706Y047188D03*
X079706Y047188D03*
X070956Y006688D03*
X066956Y006688D03*
X055831Y006688D03*
X051831Y006688D03*
X047456Y006688D03*
X046331Y006688D03*
X043456Y006688D03*
X042331Y006688D03*
X039831Y006688D03*
D13*
X039331Y008258D02*
X039331Y009118D01*
X038331Y009118D02*
X038331Y008258D01*
X037331Y008258D02*
X037331Y009118D01*
X036331Y009118D02*
X036331Y008258D01*
X031706Y008258D02*
X031706Y009118D01*
X030706Y009118D02*
X030706Y008258D01*
X029706Y008258D02*
X029706Y009118D01*
X028706Y009118D02*
X028706Y008258D01*
X024206Y008258D02*
X024206Y009118D01*
X023206Y009118D02*
X023206Y008258D01*
X022206Y008258D02*
X022206Y009118D01*
X021206Y009118D02*
X021206Y008258D01*
X016706Y008258D02*
X016706Y009118D01*
X015706Y009118D02*
X015706Y008258D01*
X014706Y008258D02*
X014706Y009118D01*
X013706Y009118D02*
X013706Y008258D01*
X021206Y015758D02*
X021206Y016618D01*
X022206Y016618D02*
X022206Y015758D01*
X023206Y015758D02*
X023206Y016618D01*
X024206Y016618D02*
X024206Y015758D01*
X024206Y026258D02*
X024206Y027118D01*
X023206Y027118D02*
X023206Y026258D01*
X022206Y026258D02*
X022206Y027118D01*
X021206Y027118D02*
X021206Y026258D01*
X016706Y026258D02*
X016706Y027118D01*
X015706Y027118D02*
X015706Y026258D01*
X014706Y026258D02*
X014706Y027118D01*
X013706Y027118D02*
X013706Y026258D01*
X013706Y033758D02*
X013706Y034618D01*
X014706Y034618D02*
X014706Y033758D01*
X015706Y033758D02*
X015706Y034618D01*
X016706Y034618D02*
X016706Y033758D01*
X021206Y033758D02*
X021206Y034618D01*
X022206Y034618D02*
X022206Y033758D01*
X023206Y033758D02*
X023206Y034618D01*
X024206Y034618D02*
X024206Y033758D01*
X024206Y041258D02*
X024206Y042118D01*
X023206Y042118D02*
X023206Y041258D01*
X022206Y041258D02*
X022206Y042118D01*
X021206Y042118D02*
X021206Y041258D01*
X016706Y041258D02*
X016706Y042118D01*
X015706Y042118D02*
X015706Y041258D01*
X014706Y041258D02*
X014706Y042118D01*
X013706Y042118D02*
X013706Y041258D01*
X013706Y048758D02*
X013706Y049618D01*
X014706Y049618D02*
X014706Y048758D01*
X015706Y048758D02*
X015706Y049618D01*
X016706Y049618D02*
X016706Y048758D01*
X021206Y048758D02*
X021206Y049618D01*
X022206Y049618D02*
X022206Y048758D01*
X023206Y048758D02*
X023206Y049618D01*
X024206Y049618D02*
X024206Y048758D01*
X031206Y039118D02*
X031206Y038258D01*
X032206Y038258D02*
X032206Y039118D01*
X033206Y039118D02*
X033206Y038258D01*
X034206Y038258D02*
X034206Y039118D01*
X038706Y039118D02*
X038706Y038258D01*
X039706Y038258D02*
X039706Y039118D01*
X040706Y039118D02*
X040706Y038258D01*
X041706Y038258D02*
X041706Y039118D01*
X046206Y039118D02*
X046206Y038258D01*
X047206Y038258D02*
X047206Y039118D01*
X048206Y039118D02*
X048206Y038258D01*
X049206Y038258D02*
X049206Y039118D01*
X053706Y039118D02*
X053706Y038258D01*
X054706Y038258D02*
X054706Y039118D01*
X055706Y039118D02*
X055706Y038258D01*
X056706Y038258D02*
X056706Y039118D01*
X061206Y039118D02*
X061206Y038258D01*
X062206Y038258D02*
X062206Y039118D01*
X063206Y039118D02*
X063206Y038258D01*
X064206Y038258D02*
X064206Y039118D01*
X068706Y039118D02*
X068706Y038258D01*
X069706Y038258D02*
X069706Y039118D01*
X070706Y039118D02*
X070706Y038258D01*
X071706Y038258D02*
X071706Y039118D01*
X076206Y039118D02*
X076206Y038258D01*
X077206Y038258D02*
X077206Y039118D01*
X078206Y039118D02*
X078206Y038258D01*
X079206Y038258D02*
X079206Y039118D01*
X079206Y031618D02*
X079206Y030758D01*
X078206Y030758D02*
X078206Y031618D01*
X077206Y031618D02*
X077206Y030758D01*
X076206Y030758D02*
X076206Y031618D01*
X071706Y031618D02*
X071706Y030758D01*
X070706Y030758D02*
X070706Y031618D01*
X069706Y031618D02*
X069706Y030758D01*
X068706Y030758D02*
X068706Y031618D01*
X064206Y031618D02*
X064206Y030758D01*
X063206Y030758D02*
X063206Y031618D01*
X062206Y031618D02*
X062206Y030758D01*
X061206Y030758D02*
X061206Y031618D01*
X056706Y031618D02*
X056706Y030758D01*
X055706Y030758D02*
X055706Y031618D01*
X054706Y031618D02*
X054706Y030758D01*
X053706Y030758D02*
X053706Y031618D01*
X049206Y031618D02*
X049206Y030758D01*
X048206Y030758D02*
X048206Y031618D01*
X047206Y031618D02*
X047206Y030758D01*
X046206Y030758D02*
X046206Y031618D01*
X039706Y031618D02*
X039706Y030758D01*
X038706Y030758D02*
X038706Y031618D01*
X037706Y031618D02*
X037706Y030758D01*
X036706Y030758D02*
X036706Y031618D01*
X036706Y024118D02*
X036706Y023258D01*
X037706Y023258D02*
X037706Y024118D01*
X038706Y024118D02*
X038706Y023258D01*
X035706Y023258D02*
X035706Y024118D01*
X035956Y016618D02*
X035956Y015758D01*
X036956Y015758D02*
X036956Y016618D01*
X037956Y016618D02*
X037956Y015758D01*
X034956Y015758D02*
X034956Y016618D01*
X043956Y009118D02*
X043956Y008258D01*
X044956Y008258D02*
X044956Y009118D01*
X045956Y009118D02*
X045956Y008258D01*
X046956Y008258D02*
X046956Y009118D01*
X052331Y009118D02*
X052331Y008258D01*
X053331Y008258D02*
X053331Y009118D01*
X054331Y009118D02*
X054331Y008258D01*
X055331Y008258D02*
X055331Y009118D01*
X055706Y015758D02*
X055706Y016618D01*
X056706Y016618D02*
X056706Y015758D01*
X054706Y015758D02*
X054706Y016618D01*
X053706Y016618D02*
X053706Y015758D01*
X049206Y015758D02*
X049206Y016618D01*
X048206Y016618D02*
X048206Y015758D01*
X047206Y015758D02*
X047206Y016618D01*
X046206Y016618D02*
X046206Y015758D01*
X046206Y023258D02*
X046206Y024118D01*
X047206Y024118D02*
X047206Y023258D01*
X048206Y023258D02*
X048206Y024118D01*
X049206Y024118D02*
X049206Y023258D01*
X053706Y023258D02*
X053706Y024118D01*
X054706Y024118D02*
X054706Y023258D01*
X055706Y023258D02*
X055706Y024118D01*
X056706Y024118D02*
X056706Y023258D01*
X061206Y023258D02*
X061206Y024118D01*
X062206Y024118D02*
X062206Y023258D01*
X063206Y023258D02*
X063206Y024118D01*
X064206Y024118D02*
X064206Y023258D01*
X068706Y023258D02*
X068706Y024118D01*
X069706Y024118D02*
X069706Y023258D01*
X070706Y023258D02*
X070706Y024118D01*
X071706Y024118D02*
X071706Y023258D01*
X076206Y023258D02*
X076206Y024118D01*
X077206Y024118D02*
X077206Y023258D01*
X078206Y023258D02*
X078206Y024118D01*
X079206Y024118D02*
X079206Y023258D01*
X079206Y016618D02*
X079206Y015758D01*
X078206Y015758D02*
X078206Y016618D01*
X077206Y016618D02*
X077206Y015758D01*
X076206Y015758D02*
X076206Y016618D01*
X071706Y016618D02*
X071706Y015758D01*
X070706Y015758D02*
X070706Y016618D01*
X069706Y016618D02*
X069706Y015758D01*
X068706Y015758D02*
X068706Y016618D01*
X064206Y016618D02*
X064206Y015758D01*
X063206Y015758D02*
X063206Y016618D01*
X062206Y016618D02*
X062206Y015758D01*
X061206Y015758D02*
X061206Y016618D01*
X067456Y009118D02*
X067456Y008258D01*
X068456Y008258D02*
X068456Y009118D01*
X069456Y009118D02*
X069456Y008258D01*
X070456Y008258D02*
X070456Y009118D01*
X070706Y048758D02*
X070706Y049618D01*
X071706Y049618D02*
X071706Y048758D01*
X069706Y048758D02*
X069706Y049618D01*
X068706Y049618D02*
X068706Y048758D01*
X076206Y048758D02*
X076206Y049618D01*
X077206Y049618D02*
X077206Y048758D01*
X078206Y048758D02*
X078206Y049618D01*
X079206Y049618D02*
X079206Y048758D01*
X061206Y048758D02*
X061206Y049618D01*
X060206Y049618D02*
X060206Y048758D01*
X059206Y048758D02*
X059206Y049618D01*
X058206Y049618D02*
X058206Y048758D01*
X053706Y048758D02*
X053706Y049618D01*
X052706Y049618D02*
X052706Y048758D01*
X051706Y048758D02*
X051706Y049618D01*
X050706Y049618D02*
X050706Y048758D01*
X046206Y048758D02*
X046206Y049618D01*
X045206Y049618D02*
X045206Y048758D01*
X044206Y048758D02*
X044206Y049618D01*
X043206Y049618D02*
X043206Y048758D01*
X038706Y048758D02*
X038706Y049618D01*
X037706Y049618D02*
X037706Y048758D01*
X036706Y048758D02*
X036706Y049618D01*
X035706Y049618D02*
X035706Y048758D01*
D14*
X037206Y047188D03*
X044706Y047188D03*
X052206Y047188D03*
X059706Y047188D03*
X062706Y036688D03*
X062706Y029188D03*
X062706Y021688D03*
X062706Y014188D03*
X068956Y006688D03*
X070206Y014188D03*
X070206Y021688D03*
X070206Y029188D03*
X077706Y029188D03*
X077706Y021688D03*
X077706Y014188D03*
X077706Y036688D03*
X070206Y036688D03*
X070206Y047188D03*
X077706Y047188D03*
X055206Y036688D03*
X055206Y029188D03*
X055206Y021688D03*
X055206Y014188D03*
X053831Y006688D03*
X047706Y014188D03*
X047706Y021688D03*
X047706Y029188D03*
X047706Y036688D03*
X040206Y036688D03*
X038206Y029188D03*
X037206Y021688D03*
X036456Y014188D03*
X037831Y006688D03*
X045456Y006688D03*
X030206Y006688D03*
X022706Y006688D03*
X022706Y014188D03*
X022706Y024688D03*
X022706Y032188D03*
X022706Y039688D03*
X022706Y047188D03*
X015206Y047188D03*
X015206Y039688D03*
X015206Y032188D03*
X015206Y024688D03*
X015206Y006688D03*
X032706Y036688D03*
D15*
X032081Y033488D03*
X032081Y032888D03*
X038456Y026488D03*
X038456Y025888D03*
X041706Y028388D03*
X041706Y028988D03*
X040456Y033638D03*
X040456Y034238D03*
X043456Y036138D03*
X043456Y036738D03*
X047956Y034238D03*
X047956Y033638D03*
X050831Y036263D03*
X050831Y036863D03*
X055456Y034238D03*
X055456Y033638D03*
X058456Y036138D03*
X058456Y036738D03*
X062706Y033738D03*
X062706Y033138D03*
X065956Y036638D03*
X065956Y037238D03*
X062206Y044888D03*
X062206Y045488D03*
X070706Y045238D03*
X070706Y044638D03*
X073331Y036363D03*
X073331Y035763D03*
X075331Y035363D03*
X075331Y034763D03*
X079206Y034363D03*
X079206Y033763D03*
X078331Y027238D03*
X078331Y026638D03*
X076206Y025738D03*
X076206Y025138D03*
X073456Y028638D03*
X073456Y029238D03*
X070456Y026488D03*
X070456Y025888D03*
X073456Y021738D03*
X073456Y021138D03*
X076081Y018488D03*
X076081Y017888D03*
X078331Y019013D03*
X078331Y019613D03*
X075456Y013113D03*
X075456Y012513D03*
X070706Y012363D03*
X070706Y011763D03*
X066956Y013388D03*
X066956Y013988D03*
X063206Y012363D03*
X063206Y011763D03*
X059331Y013263D03*
X059331Y013863D03*
X056331Y011738D03*
X056331Y011138D03*
X054206Y004363D03*
X054206Y003763D03*
X048206Y011763D03*
X048206Y012363D03*
X047956Y018638D03*
X047956Y019238D03*
X050956Y020888D03*
X050956Y021488D03*
X047956Y025888D03*
X047956Y026488D03*
X050956Y028388D03*
X050956Y028988D03*
X055206Y026488D03*
X055206Y025888D03*
X058456Y028388D03*
X058456Y028988D03*
X062706Y026488D03*
X062706Y025888D03*
X065956Y028388D03*
X065956Y028988D03*
X065956Y021488D03*
X065956Y020888D03*
X062956Y019238D03*
X062956Y018638D03*
X058456Y020888D03*
X058456Y021488D03*
X055456Y019238D03*
X055456Y018638D03*
X066581Y004363D03*
X066581Y003763D03*
X072081Y005263D03*
X072081Y005863D03*
X070456Y018638D03*
X070456Y019238D03*
X078456Y044513D03*
X078456Y045113D03*
X044956Y044738D03*
X044956Y044138D03*
X037456Y044138D03*
X037456Y044738D03*
X024206Y037488D03*
X024206Y036888D03*
X022956Y044388D03*
X022956Y044988D03*
X015706Y045238D03*
X015706Y044638D03*
X013081Y044488D03*
X013081Y043888D03*
X016706Y037488D03*
X016706Y036888D03*
X018456Y032238D03*
X018456Y031638D03*
X015206Y029488D03*
X015206Y028888D03*
X018456Y024613D03*
X018456Y024013D03*
X014331Y021488D03*
X014331Y020888D03*
X025956Y023763D03*
X025956Y024363D03*
X025956Y014238D03*
X025956Y013638D03*
X022956Y004238D03*
X022956Y003638D03*
X030456Y003638D03*
X030456Y004238D03*
X038081Y004238D03*
X038081Y003638D03*
X041956Y003638D03*
X041956Y004238D03*
X037956Y011513D03*
X037956Y012113D03*
X037456Y018638D03*
X037456Y019238D03*
X040706Y021138D03*
X040706Y021738D03*
D16*
X040706Y021138D01*
X037456Y019238D02*
X037456Y018638D01*
X037956Y012113D02*
X037956Y011513D01*
X034131Y011313D02*
X033531Y011313D01*
X033506Y005688D02*
X032906Y005688D01*
X030456Y004238D02*
X030456Y003638D01*
X026006Y005688D02*
X025406Y005688D01*
X022956Y004238D02*
X022956Y003638D01*
X017881Y004438D02*
X017281Y004438D01*
X013131Y005563D02*
X012531Y005563D01*
X020031Y012938D02*
X020631Y012938D01*
X025956Y013638D02*
X025956Y014238D01*
X025956Y023763D02*
X025956Y024363D01*
X020506Y023188D02*
X019906Y023188D01*
X018456Y024013D02*
X018456Y024613D01*
X014331Y021488D02*
X014331Y020888D01*
X015206Y028888D02*
X015206Y029488D01*
X020156Y031063D02*
X020756Y031063D01*
X023031Y030063D02*
X023631Y030063D01*
X024206Y036888D02*
X024206Y037488D01*
X020543Y038351D02*
X020119Y038775D01*
X016706Y037488D02*
X016706Y036888D01*
X013131Y038563D02*
X012531Y038563D01*
X013081Y043888D02*
X013081Y044488D01*
X015706Y044638D02*
X015706Y045238D01*
X022956Y044988D02*
X022956Y044388D01*
X030206Y033563D02*
X030206Y029688D01*
X032081Y032888D02*
X032081Y033488D01*
X035406Y035688D02*
X036006Y035688D01*
X040456Y034238D02*
X040456Y033638D01*
X043456Y036138D02*
X043456Y036738D01*
X047956Y034238D02*
X047956Y033638D01*
X050831Y036263D02*
X050831Y036863D01*
X055456Y034238D02*
X055456Y033638D01*
X058456Y036138D02*
X058456Y036738D01*
X062706Y033738D02*
X062706Y033138D01*
X065956Y036638D02*
X065956Y037238D01*
X067406Y035188D02*
X068006Y035188D01*
X072831Y037394D02*
X073331Y036363D01*
X073331Y035763D01*
X075331Y035363D02*
X075331Y034763D01*
X076456Y033188D02*
X074956Y031688D01*
X074956Y027938D01*
X074456Y027438D01*
X073706Y027188D01*
X073456Y028638D02*
X073456Y029238D01*
X070456Y026488D02*
X070456Y025888D01*
X073456Y021738D02*
X073456Y021138D01*
X074456Y019938D02*
X075081Y020563D01*
X075081Y024438D01*
X075781Y025138D01*
X076206Y025138D01*
X076206Y025738D01*
X078331Y026638D02*
X078331Y027238D01*
X078631Y033188D02*
X076456Y033188D01*
X078631Y033188D02*
X079206Y033763D01*
X079206Y034363D01*
X079206Y035688D01*
X075956Y041938D02*
X075912Y041982D01*
X075912Y043188D01*
X076581Y043563D02*
X074956Y045063D01*
X072831Y045063D01*
X072206Y044438D01*
X072206Y043438D01*
X071912Y043144D01*
X071456Y043144D01*
X072331Y041938D02*
X072331Y039732D01*
X072831Y038732D01*
X070706Y044638D02*
X070706Y045238D01*
X067756Y045688D02*
X067156Y045688D01*
X066956Y050438D02*
X072456Y050438D01*
X074906Y045938D02*
X075506Y045938D01*
X076581Y043563D02*
X076581Y042528D01*
X078456Y044513D02*
X078456Y045113D01*
X065956Y028988D02*
X065956Y028388D01*
X062706Y026488D02*
X062706Y025888D01*
X065956Y021488D02*
X065956Y020888D01*
X062956Y019238D02*
X062956Y018638D01*
X059331Y013863D02*
X059331Y013263D01*
X056331Y011738D02*
X056331Y011138D01*
X053131Y013063D02*
X052531Y013063D01*
X048206Y012363D02*
X048206Y011763D01*
X045631Y013063D02*
X045031Y013063D01*
X047956Y018638D02*
X047956Y019238D01*
X050956Y020888D02*
X050956Y021488D01*
X047956Y025888D02*
X047956Y026488D01*
X050956Y028388D02*
X050956Y028988D01*
X055206Y026488D02*
X055206Y025888D01*
X058456Y028388D02*
X058456Y028988D01*
X058456Y021488D02*
X058456Y020888D01*
X055456Y019238D02*
X055456Y018638D01*
X063206Y012363D02*
X063206Y011763D01*
X066956Y013388D02*
X066956Y013988D01*
X070706Y012363D02*
X070706Y011763D01*
X075456Y012513D02*
X075456Y013113D01*
X077994Y011726D02*
X078418Y012150D01*
X076081Y017888D02*
X076081Y018488D01*
X078331Y019013D02*
X078331Y019613D01*
X070456Y019238D02*
X070456Y018638D01*
X072081Y005863D02*
X072081Y005263D01*
X066581Y004363D02*
X066581Y003763D01*
X057256Y005688D02*
X056656Y005688D01*
X054206Y004363D02*
X054206Y003763D01*
X048756Y005688D02*
X048156Y005688D01*
X041956Y004238D02*
X041956Y003638D01*
X041131Y005688D02*
X040531Y005688D01*
X038081Y004238D02*
X038081Y003638D01*
X038456Y025888D02*
X038456Y026488D01*
X041706Y028388D02*
X041706Y028988D01*
X044956Y044138D02*
X044956Y044738D01*
X048206Y045188D02*
X049406Y045938D01*
X050006Y045938D01*
X050083Y042813D02*
X051116Y042813D01*
X056656Y045438D02*
X057256Y045438D01*
X062206Y045488D02*
X062206Y044888D01*
X040506Y046188D02*
X039906Y046188D01*
X037456Y044738D02*
X037456Y044138D01*
D17*
X039906Y046188D03*
X040506Y046188D03*
X047406Y046438D03*
X048006Y046438D03*
X049406Y045938D03*
X050006Y045938D03*
X054906Y046188D03*
X055506Y046188D03*
X056656Y045438D03*
X057256Y045438D03*
X067156Y045688D03*
X067756Y045688D03*
X074906Y045938D03*
X075506Y045938D03*
X068006Y035188D03*
X067406Y035188D03*
G36*
X078033Y012210D02*
X078358Y012535D01*
X078803Y012090D01*
X078478Y011765D01*
X078033Y012210D01*
G37*
G36*
X077609Y011786D02*
X077934Y012111D01*
X078379Y011666D01*
X078054Y011341D01*
X077609Y011786D01*
G37*
X057256Y005688D03*
X056656Y005688D03*
X053131Y013063D03*
X052531Y013063D03*
X048756Y005688D03*
X048156Y005688D03*
X045631Y013063D03*
X045031Y013063D03*
X041131Y005688D03*
X040531Y005688D03*
X033506Y005688D03*
X032906Y005688D03*
X033531Y011313D03*
X034131Y011313D03*
X026006Y005688D03*
X025406Y005688D03*
X020631Y012938D03*
X020031Y012938D03*
X017881Y004438D03*
X017281Y004438D03*
X013131Y005563D03*
X012531Y005563D03*
X019906Y023188D03*
X020506Y023188D03*
X023031Y030063D03*
X023631Y030063D03*
X020756Y031063D03*
X020156Y031063D03*
G36*
X020483Y037966D02*
X020158Y038291D01*
X020603Y038736D01*
X020928Y038411D01*
X020483Y037966D01*
G37*
G36*
X020059Y038390D02*
X019734Y038715D01*
X020179Y039160D01*
X020504Y038835D01*
X020059Y038390D01*
G37*
X013131Y038563D03*
X012531Y038563D03*
X025406Y046438D03*
X026006Y046438D03*
X035406Y035688D03*
X036006Y035688D03*
D18*
X041706Y031482D03*
X041706Y030144D03*
X040706Y023857D03*
X040706Y022519D03*
X050956Y022269D03*
X050956Y023607D03*
X050956Y029769D03*
X050956Y031107D03*
X050831Y037644D03*
X050831Y038982D03*
X053581Y043519D03*
X053581Y044857D03*
X046206Y044794D03*
X046206Y043455D03*
X043581Y043607D03*
X043581Y042269D03*
X043581Y039107D03*
X043581Y037769D03*
X030706Y018545D03*
X030706Y017206D03*
X026956Y017607D03*
X026956Y016269D03*
X025956Y025519D03*
X025956Y026857D03*
X018456Y026607D03*
X018456Y025269D03*
X017956Y033019D03*
X017956Y034357D03*
X012581Y040644D03*
X012581Y041982D03*
X016456Y043269D03*
X016456Y044607D03*
X025706Y044019D03*
X025706Y045357D03*
X012831Y013732D03*
X012831Y012394D03*
X051206Y012394D03*
X051206Y013732D03*
X058456Y022269D03*
X058456Y023607D03*
X058456Y029769D03*
X058456Y031107D03*
X065956Y031107D03*
X065956Y029769D03*
X065956Y023607D03*
X065956Y022269D03*
X066956Y016107D03*
X066956Y014769D03*
X064143Y011607D03*
X064143Y010269D03*
X059331Y014769D03*
X059331Y016107D03*
X071706Y011607D03*
X071706Y010269D03*
X072081Y007857D03*
X072081Y006519D03*
X073456Y022519D03*
X073456Y023857D03*
X073456Y030019D03*
X073456Y031357D03*
X072831Y037394D03*
X072831Y038732D03*
X071456Y043144D03*
X071456Y044482D03*
D19*
X075912Y043188D03*
X077250Y043188D03*
X075250Y038063D03*
X073912Y038063D03*
X067625Y038063D03*
X066287Y038063D03*
G36*
X061623Y044856D02*
X061234Y044467D01*
X060735Y044966D01*
X061124Y045355D01*
X061623Y044856D01*
G37*
G36*
X060677Y043910D02*
X060288Y043521D01*
X059789Y044020D01*
X060178Y044409D01*
X060677Y043910D01*
G37*
X059875Y037938D03*
X058537Y037938D03*
X051875Y015438D03*
X050537Y015438D03*
X044500Y014938D03*
X043162Y014938D03*
X043037Y012188D03*
X044375Y012188D03*
X028250Y014063D03*
X026912Y014063D03*
X024375Y029188D03*
X023037Y029188D03*
X020250Y040938D03*
X018912Y040938D03*
X035662Y038313D03*
X037000Y038313D03*
X017125Y010688D03*
X015787Y010688D03*
X015000Y010688D03*
X013662Y010688D03*
X073162Y013188D03*
X074500Y013188D03*
X078162Y017938D03*
X079500Y017938D03*
X079500Y025438D03*
X078162Y025438D03*
D20*
X069206Y040438D03*
X068206Y040438D03*
X067206Y040438D03*
X066206Y040438D03*
X065206Y040438D03*
X064206Y040438D03*
X063206Y040438D03*
X062206Y040438D03*
X062206Y043438D03*
X063206Y043438D03*
X064206Y043438D03*
X065206Y043438D03*
X066206Y043438D03*
X067206Y043438D03*
X068206Y043438D03*
X069206Y043438D03*
X017706Y017938D03*
X017706Y016938D03*
X017706Y015938D03*
X017706Y014938D03*
X017706Y013938D03*
X017706Y012938D03*
X017706Y011938D03*
X014706Y011938D03*
X014706Y012938D03*
X014706Y013938D03*
X014706Y014938D03*
X014706Y015938D03*
X014706Y016938D03*
X014706Y017938D03*
D21*
G36*
X018497Y009563D02*
X017997Y010063D01*
X018331Y010397D01*
X018831Y009897D01*
X018497Y009563D01*
G37*
G36*
X019331Y008729D02*
X018831Y009229D01*
X019165Y009563D01*
X019665Y009063D01*
X019331Y008729D01*
G37*
X068616Y041563D03*
X069796Y041563D03*
D22*
X066206Y041189D03*
X066206Y041937D03*
X031768Y020312D03*
X031768Y019564D03*
X016581Y012187D03*
X016581Y011439D03*
X015706Y011689D03*
X015706Y012437D03*
D23*
X018831Y008028D03*
X018831Y006848D03*
X015331Y020223D03*
X015331Y021403D03*
X016581Y028348D03*
X016581Y029528D03*
X018706Y037723D03*
X018706Y038903D03*
X022956Y036778D03*
X022956Y035598D03*
X025331Y028778D03*
X025331Y027598D03*
X036456Y033098D03*
X037581Y033098D03*
X037581Y034278D03*
X036456Y034278D03*
X041581Y034278D03*
X041581Y033098D03*
X040706Y026528D03*
X040706Y025348D03*
X040956Y019278D03*
X040956Y018098D03*
X049456Y018098D03*
X049456Y019278D03*
X049206Y025348D03*
X049206Y026528D03*
X051831Y034973D03*
X051831Y036153D03*
X056706Y026528D03*
X056706Y025348D03*
X056956Y019278D03*
X056956Y018098D03*
X064331Y018098D03*
X064331Y019278D03*
X064081Y025348D03*
X064081Y026528D03*
X064206Y033098D03*
X064206Y034278D03*
X071706Y026528D03*
X071706Y025348D03*
X071956Y019278D03*
X071956Y018098D03*
X076581Y041348D03*
X076581Y042528D03*
X066081Y047098D03*
X064956Y047098D03*
X063831Y047098D03*
X063831Y048278D03*
X064956Y048278D03*
X066081Y048278D03*
X033331Y048598D03*
X033331Y049778D03*
X026706Y045278D03*
X026706Y044098D03*
X019081Y045348D03*
X019081Y046528D03*
D24*
G36*
X024455Y043730D02*
X024039Y044146D01*
X024373Y044480D01*
X024789Y044064D01*
X024455Y043730D01*
G37*
G36*
X025289Y042896D02*
X024873Y043312D01*
X025207Y043646D01*
X025623Y043230D01*
X025289Y042896D01*
G37*
G36*
X016207Y036271D02*
X016623Y035855D01*
X016289Y035521D01*
X015873Y035937D01*
X016207Y036271D01*
G37*
G36*
X015373Y037105D02*
X015789Y036689D01*
X015455Y036355D01*
X015039Y036771D01*
X015373Y037105D01*
G37*
X012921Y030813D03*
X011741Y030813D03*
X012366Y029063D03*
X012366Y028188D03*
X013546Y028188D03*
X013546Y029063D03*
X023866Y021938D03*
X023866Y021063D03*
X023866Y020188D03*
X023866Y019313D03*
X023866Y018438D03*
X025046Y018438D03*
X025046Y019313D03*
X025046Y020188D03*
X025046Y021063D03*
X025046Y021938D03*
X026366Y021563D03*
X026366Y020563D03*
X026366Y019563D03*
X026366Y018563D03*
X027546Y018563D03*
X027546Y019563D03*
X027546Y020563D03*
X027546Y021563D03*
X027546Y022563D03*
X026366Y022563D03*
X037241Y040313D03*
X037241Y041313D03*
X037241Y042313D03*
X038421Y042313D03*
X038421Y041313D03*
X038421Y040313D03*
X044741Y040063D03*
X044741Y040938D03*
X044741Y041813D03*
X045921Y041813D03*
X045921Y040938D03*
X045921Y040063D03*
X051116Y039813D03*
X051116Y040813D03*
X051116Y041813D03*
X051116Y042813D03*
X052296Y042813D03*
X052296Y041813D03*
X052296Y040813D03*
X052296Y039813D03*
X059491Y042313D03*
X059491Y043188D03*
X060671Y043188D03*
X060671Y042313D03*
X061171Y041313D03*
X061296Y040563D03*
X060116Y040563D03*
X059991Y041313D03*
D25*
X044331Y006688D03*
D26*
X029307Y033751D02*
X028480Y033751D01*
X028480Y034751D02*
X029307Y034751D01*
X029307Y035751D02*
X028480Y035751D01*
X028480Y036751D02*
X029307Y036751D01*
X029307Y037751D02*
X028480Y037751D01*
X028480Y038751D02*
X029307Y038751D01*
X029307Y039751D02*
X028480Y039751D01*
X028480Y040751D02*
X029307Y040751D01*
X033480Y040751D02*
X034307Y040751D01*
X034307Y041751D02*
X033480Y041751D01*
X033480Y042751D02*
X034307Y042751D01*
D27*
X027081Y042153D03*
X027081Y040973D03*
X018956Y014528D03*
X018956Y013348D03*
X018956Y012528D03*
X018956Y011348D03*
X013706Y012348D03*
X013706Y013528D03*
D28*
X014706Y011938D02*
X015706Y011689D01*
X016581Y011439D01*
X016956Y011313D01*
X017125Y010688D01*
X018414Y009980D01*
X018956Y011348D01*
X018956Y012528D02*
X018956Y013348D01*
X018956Y014528D02*
X018956Y015938D01*
X017706Y015938D01*
X017706Y017938D02*
X018706Y017938D01*
X020631Y012938D02*
X021706Y012188D01*
X020331Y010188D02*
X020331Y009063D01*
X020331Y008063D01*
X020248Y009146D02*
X019248Y009146D01*
X017706Y011938D02*
X016581Y012187D01*
X015787Y010688D02*
X015000Y010688D01*
X013662Y010688D02*
X013581Y011563D01*
X014331Y021488D02*
X014206Y022688D01*
X016706Y023688D02*
X018456Y024013D01*
X018456Y024613D02*
X018456Y025269D01*
X020506Y023188D02*
X021706Y022688D01*
X024206Y023688D02*
X025956Y023763D01*
X025956Y024363D02*
X025956Y025519D01*
X025956Y026857D02*
X025331Y027598D01*
X023631Y030063D02*
X024206Y031188D01*
X021706Y030188D02*
X020756Y031063D01*
X018456Y031638D02*
X016706Y031188D01*
X018456Y032238D02*
X017956Y033019D01*
X015206Y029488D02*
X014206Y030188D01*
X014206Y037688D02*
X013131Y038563D01*
X016706Y038688D02*
X016706Y037488D01*
X020543Y038351D02*
X021706Y037688D01*
X024206Y037488D02*
X024206Y038688D01*
X022956Y044988D02*
X021706Y045188D01*
X024206Y046188D02*
X025406Y046438D01*
X026006Y046438D02*
X025956Y045938D01*
X025706Y045357D01*
X031706Y034688D02*
X032081Y033488D01*
X034206Y035688D02*
X035406Y035688D01*
X036006Y035688D02*
X035662Y038313D01*
X037456Y044738D02*
X036206Y045188D01*
X038706Y046188D02*
X039906Y046188D01*
X043706Y045188D02*
X044956Y044738D01*
X046206Y046188D02*
X047406Y046438D01*
X050006Y045938D02*
X051206Y045188D01*
X053706Y046188D02*
X054906Y046188D01*
X056656Y045438D02*
X056656Y049388D01*
X057256Y045438D02*
X058706Y045188D01*
X061179Y044911D02*
X062206Y044888D01*
X062206Y045488D02*
X061206Y046188D01*
X061296Y040563D02*
X062081Y040563D01*
X062206Y040438D01*
X065206Y040438D02*
X066206Y040438D01*
X066287Y038063D02*
X065956Y037238D01*
X065956Y036638D02*
X065206Y035938D01*
X064206Y035688D01*
X062706Y033738D02*
X061706Y034688D01*
X058456Y036138D02*
X056706Y035688D01*
X055456Y034238D02*
X054206Y034688D01*
X050831Y036263D02*
X049206Y035688D01*
X047956Y034238D02*
X046706Y034688D01*
X045750Y032607D02*
X044706Y031188D01*
X043331Y031188D01*
X041956Y032563D01*
X041581Y033098D01*
X040581Y032563D02*
X038116Y032563D01*
X037581Y033098D01*
X039206Y034688D02*
X040456Y034238D01*
X040581Y032563D02*
X041662Y031482D01*
X041706Y031482D01*
X041706Y030144D02*
X041706Y028988D01*
X041706Y028388D02*
X039706Y028188D01*
X038456Y026488D02*
X037206Y027188D01*
X040706Y025348D02*
X040706Y023857D01*
X040912Y024063D01*
X042956Y024063D01*
X043581Y023438D01*
X043581Y020813D01*
X042046Y019278D01*
X040956Y019278D01*
X040956Y018098D02*
X041671Y018098D01*
X043162Y016107D01*
X043162Y014938D01*
X043831Y015563D02*
X046081Y017688D01*
X048546Y017688D01*
X049376Y017893D01*
X050537Y016232D01*
X050537Y015438D01*
X051875Y015438D02*
X051875Y014344D01*
X052531Y013063D01*
X053131Y013063D02*
X054206Y012188D01*
X053506Y011138D02*
X052581Y012063D01*
X053506Y011138D02*
X056331Y011138D01*
X057156Y011138D01*
X058206Y012188D01*
X059706Y012188D01*
X059331Y013263D02*
X061706Y012188D01*
X061206Y010813D02*
X062331Y010813D01*
X063206Y011763D01*
X063206Y012363D02*
X064206Y013188D01*
X066956Y013388D02*
X069206Y012188D01*
X068706Y010938D02*
X067081Y012438D01*
X067662Y010144D02*
X071706Y010269D01*
X072552Y008784D02*
X072081Y008313D01*
X072081Y007857D01*
X072551Y008784D02*
X072566Y008796D01*
X072584Y008805D01*
X072602Y008811D01*
X072622Y008813D01*
X074706Y008813D01*
X075427Y009534D01*
X075497Y009563D02*
X077331Y009563D01*
X080625Y012857D01*
X080625Y016813D01*
X079500Y017938D01*
X080581Y019019D01*
X080581Y024438D01*
X079581Y025438D01*
X079500Y025438D01*
X080581Y026519D01*
X079206Y028188D02*
X078331Y027238D01*
X078331Y026638D02*
X078162Y025438D01*
X076206Y025738D02*
X076706Y027188D01*
X073456Y028638D02*
X071706Y028188D01*
X073456Y029238D02*
X073456Y030019D01*
X070456Y026488D02*
X069206Y027188D01*
X068506Y025888D02*
X067456Y027063D01*
X068506Y025888D02*
X070456Y025888D01*
X073456Y022519D02*
X073456Y021738D01*
X073456Y021138D02*
X071706Y020688D01*
X070456Y019238D02*
X069206Y019688D01*
X065956Y020888D02*
X064206Y020688D01*
X062956Y019238D02*
X061706Y019688D01*
X059331Y016107D02*
X058537Y016107D01*
X056956Y017688D01*
X056956Y018098D01*
X055456Y019238D02*
X054206Y019688D01*
X056706Y020688D02*
X058456Y020888D01*
X058456Y021488D02*
X058456Y022269D01*
X055206Y026488D02*
X054206Y027188D01*
X056706Y028188D02*
X058456Y028388D01*
X058456Y028988D02*
X058456Y029769D01*
X061706Y027188D02*
X062706Y026488D01*
X064206Y028188D02*
X065956Y028388D01*
X065956Y028988D02*
X065956Y029769D01*
X068006Y035188D02*
X069206Y034688D01*
X071706Y035688D02*
X073331Y035763D01*
X075331Y034763D02*
X076706Y034688D01*
X074581Y038688D02*
X076581Y040813D01*
X076581Y041348D01*
X077206Y041938D02*
X078456Y041938D01*
X080581Y039813D01*
X077250Y043188D02*
X078456Y044513D01*
X078456Y045113D02*
X079206Y046188D01*
X076706Y045188D02*
X075506Y045938D01*
X074906Y045938D02*
X073456Y047388D01*
X073456Y049438D01*
X072456Y050438D01*
X071706Y046188D02*
X070706Y045238D01*
X070706Y044638D02*
X071456Y044482D01*
X069206Y045188D02*
X067756Y045688D01*
X067156Y045688D02*
X066956Y046313D01*
X066956Y047688D01*
X066956Y050438D01*
X068206Y044188D02*
X068206Y043438D01*
X058537Y037938D02*
X058456Y036738D01*
X050831Y036863D02*
X050831Y037644D01*
X049706Y032607D02*
X045750Y032607D01*
X043456Y036138D02*
X041706Y035688D01*
X043456Y036738D02*
X043581Y037769D01*
X046706Y027188D02*
X047956Y026488D01*
X049206Y028188D02*
X050956Y028388D01*
X050956Y028988D02*
X050956Y029769D01*
X050956Y022269D02*
X050956Y021488D01*
X050956Y020888D02*
X049206Y020688D01*
X047956Y019238D02*
X046706Y019688D01*
X049456Y018098D02*
X049376Y017893D01*
X049206Y013188D02*
X048206Y012363D01*
X048206Y011763D02*
X047281Y011013D01*
X047956Y010313D02*
X043456Y010188D01*
X041256Y007238D01*
X041206Y006688D01*
X041131Y005688D01*
X040531Y005688D02*
X039331Y005688D01*
X038081Y004238D02*
X036831Y004688D01*
X033506Y005688D02*
X033506Y007863D01*
X035706Y010063D01*
X038956Y010063D01*
X040706Y012188D01*
X043037Y012188D01*
X045031Y013063D02*
X044500Y014469D01*
X044500Y014938D01*
X045631Y013063D02*
X046706Y012188D01*
X051706Y009813D02*
X051206Y008513D01*
X048756Y005688D01*
X048156Y005688D02*
X046956Y005688D01*
X045831Y005688D01*
X044456Y004688D02*
X043331Y004688D01*
X041956Y004238D01*
X037331Y010813D02*
X035331Y010813D01*
X033956Y009438D01*
X032831Y009438D01*
X032206Y010063D01*
X029206Y010063D01*
X027581Y011688D01*
X027581Y013188D01*
X025956Y013638D02*
X024206Y013188D01*
X025956Y014238D02*
X026956Y016269D01*
X026366Y018563D02*
X025046Y018438D01*
X025046Y019313D02*
X026366Y019563D01*
X026366Y020563D02*
X025046Y020188D01*
X025046Y021063D02*
X026366Y021563D01*
X026366Y022563D02*
X025046Y021938D01*
X032206Y017688D02*
X040546Y017688D01*
X040956Y018098D01*
X040706Y021138D02*
X038706Y020688D01*
X037456Y019238D02*
X036206Y019688D01*
X040706Y021738D02*
X040706Y022519D01*
X037956Y013188D02*
X037956Y012113D01*
X035456Y012188D02*
X034131Y011313D01*
X032906Y005688D02*
X031706Y005688D01*
X030456Y004238D02*
X029206Y004688D01*
X025406Y005688D02*
X024206Y005688D01*
X022956Y004238D02*
X021706Y004688D01*
X022206Y003313D02*
X021081Y003313D01*
X020331Y004063D01*
X022206Y003313D02*
X022956Y003638D01*
X016456Y044607D02*
X015706Y044638D01*
X015706Y045238D02*
X016706Y046188D01*
X014206Y045188D02*
X013081Y044488D01*
X051706Y009813D02*
X052331Y010313D01*
X056956Y010188D01*
X056331Y011738D02*
X056706Y013188D01*
X059331Y013863D02*
X059331Y014769D01*
X065956Y021488D02*
X065956Y022269D01*
X071706Y013188D02*
X070706Y012363D01*
X074500Y013188D02*
X075456Y013113D01*
X075456Y012513D02*
X076706Y012188D01*
X078418Y012150D02*
X079206Y013188D01*
X078162Y017938D02*
X078331Y019013D01*
X078331Y019613D02*
X079206Y020688D01*
X076706Y019688D02*
X076081Y018488D01*
X075497Y009563D02*
X075477Y009561D01*
X075459Y009555D01*
X075441Y009546D01*
X075426Y009534D01*
X072081Y005263D02*
X070456Y005688D01*
X067956Y004688D02*
X066581Y004363D01*
X056656Y005688D02*
X055331Y005688D01*
X054206Y004363D02*
X052831Y004688D01*
D29*
X054206Y003763D02*
X060756Y003763D01*
X061706Y002813D01*
X065631Y002813D01*
X066581Y003763D01*
X066206Y009188D02*
X065706Y009188D01*
X065331Y009563D01*
X061206Y009563D01*
X059831Y008188D01*
X058331Y008188D01*
X057381Y007238D01*
X057256Y005688D01*
X058287Y008857D02*
X059584Y008857D01*
X059655Y008887D02*
X060956Y010188D01*
X064021Y010188D01*
X064092Y010217D02*
X064143Y010269D01*
X064092Y010217D02*
X064077Y010205D01*
X064059Y010196D01*
X064041Y010190D01*
X064021Y010188D01*
X064456Y010938D02*
X063406Y010938D01*
X063206Y011763D01*
X064143Y011607D02*
X065456Y012938D01*
X065706Y013688D01*
X065706Y015938D01*
X066956Y016107D01*
X065706Y015938D02*
X065206Y016857D01*
X064331Y018098D01*
X064831Y018688D02*
X065956Y019563D01*
X067206Y019563D01*
X068256Y018638D01*
X070456Y018638D01*
X071456Y018688D01*
X072706Y018688D01*
X073456Y019438D01*
X074456Y019938D01*
X073706Y020188D02*
X072866Y019938D01*
X071956Y019278D01*
X071956Y018098D02*
X072625Y017304D01*
X073260Y016304D01*
X073260Y014179D01*
X073162Y013188D01*
X072956Y012688D01*
X072250Y011982D01*
X071706Y011607D01*
X072206Y010938D02*
X070706Y010938D01*
X070706Y011763D01*
X070706Y010938D02*
X068706Y010938D01*
X067662Y010144D02*
X066206Y009188D01*
X064456Y010938D02*
X065831Y012438D01*
X067081Y012438D01*
X066956Y013988D02*
X066956Y014769D01*
X064831Y018688D02*
X063456Y018688D01*
X063156Y018638D01*
X062956Y018638D01*
X060756Y018638D01*
X059706Y019688D01*
X058456Y019688D01*
X057456Y018688D01*
X056006Y018688D01*
X055456Y018638D01*
X053256Y018638D01*
X052206Y019688D01*
X051081Y019688D01*
X049831Y018688D01*
X048006Y018688D01*
X047956Y018638D01*
X045756Y018638D01*
X044706Y019688D01*
X043456Y019688D01*
X042406Y018638D01*
X037456Y018638D01*
X031831Y018638D01*
X031831Y019502D01*
X031768Y019564D01*
X031768Y020312D02*
X031768Y023501D01*
X030831Y024438D01*
X030831Y033938D01*
X030206Y033563D02*
X029893Y034751D01*
X028893Y034751D01*
X027706Y033313D02*
X029456Y031563D01*
X029456Y023813D01*
X029956Y023313D01*
X029956Y021188D01*
X028331Y019563D01*
X027546Y019563D01*
X027546Y018563D02*
X028456Y018563D01*
X030831Y020938D01*
X030831Y023438D01*
X030206Y024063D01*
X030206Y029688D01*
X028831Y031063D02*
X027206Y032688D01*
X026831Y031938D02*
X028206Y030563D01*
X028206Y023313D01*
X028456Y023063D01*
X028456Y021813D01*
X028206Y021563D01*
X027546Y021563D01*
X027546Y020563D02*
X028331Y020563D01*
X029206Y021438D01*
X029206Y023313D01*
X028831Y023688D01*
X028831Y031063D01*
X027581Y029938D02*
X026456Y031063D01*
X026081Y030563D02*
X026081Y028438D01*
X025831Y028188D01*
X020956Y028188D01*
X019581Y026813D01*
X019581Y023813D01*
X019081Y023313D01*
X018081Y023313D01*
X016706Y022438D01*
X015331Y021403D01*
X015831Y020813D02*
X014831Y020813D01*
X014331Y020888D01*
X013893Y020013D01*
X013893Y017313D01*
X014206Y016938D01*
X014706Y016938D01*
X014706Y017938D02*
X014706Y019598D01*
X015331Y020223D01*
X015831Y020813D02*
X016156Y021388D01*
X018206Y022813D01*
X019831Y022813D01*
X019906Y022888D01*
X019906Y023188D01*
X019831Y022813D02*
X021206Y021438D01*
X022331Y021438D01*
X023331Y022563D01*
X024456Y022563D01*
X024456Y018063D01*
X024331Y017438D02*
X020581Y017438D01*
X019081Y015938D01*
X018956Y015938D01*
X019656Y013938D02*
X017706Y013938D01*
X015956Y013563D02*
X015706Y012437D01*
X014706Y012938D02*
X012706Y012938D01*
X011956Y013313D01*
X011956Y017813D01*
X012393Y018251D01*
X012393Y020063D01*
X011831Y020688D01*
X011831Y022813D01*
X011206Y023688D01*
X011206Y025438D01*
X011706Y027063D01*
X011706Y028688D01*
X012081Y029063D01*
X012366Y029063D01*
X012956Y029438D02*
X012331Y030188D01*
X012331Y031188D01*
X011831Y031813D01*
X011831Y036938D01*
X010956Y037813D01*
X010956Y041638D01*
X013081Y043888D01*
X016906Y043888D01*
X017581Y045313D01*
X018331Y045938D01*
X020081Y045938D01*
X020831Y044063D01*
X022256Y044063D01*
X022956Y044388D01*
X023406Y044388D01*
X024081Y045063D01*
X024831Y045063D01*
X025331Y044688D01*
X027206Y044688D01*
X027456Y044938D01*
X027456Y048813D01*
X027831Y049188D01*
X033706Y049188D01*
X034206Y048688D01*
X034206Y045438D01*
X035506Y044138D01*
X037456Y044138D01*
X038406Y044138D01*
X039456Y045188D01*
X041456Y045188D01*
X042706Y043938D01*
X042706Y042938D01*
X044331Y042938D01*
X044956Y043563D01*
X044956Y044138D01*
X045506Y044188D01*
X046956Y044188D01*
X048206Y045188D01*
X047862Y045794D02*
X048006Y046438D01*
X047862Y045794D02*
X046206Y044794D01*
X046206Y043455D02*
X045331Y042580D01*
X045331Y039438D01*
X045000Y039107D01*
X044456Y039107D01*
X044456Y035813D01*
X043831Y035188D01*
X042956Y035188D01*
X042046Y034403D01*
X041581Y034278D01*
X042081Y033688D02*
X040506Y033688D01*
X040456Y033638D01*
X033456Y033638D01*
X033331Y034063D01*
X032956Y034938D01*
X031456Y036063D01*
X031456Y037313D01*
X030331Y037813D01*
X030331Y041188D01*
X029831Y041563D01*
X025956Y041563D01*
X025581Y040188D01*
X025581Y037713D01*
X024881Y036888D01*
X024206Y036888D01*
X023506Y036188D01*
X021706Y036188D01*
X020206Y037438D01*
X019206Y038313D01*
X017956Y038313D01*
X017956Y037813D01*
X017031Y036888D01*
X016706Y036888D01*
X016331Y036813D01*
X015331Y035813D01*
X013706Y035813D01*
X012331Y034438D01*
X012331Y031938D01*
X012831Y031438D01*
X012921Y030813D01*
X011741Y030813D02*
X011706Y030028D01*
X011706Y029563D01*
X011331Y029063D01*
X011331Y027188D01*
X010706Y025563D01*
X010706Y023188D01*
X011206Y022563D01*
X011206Y020438D01*
X011831Y019813D01*
X011831Y018438D01*
X011456Y018063D01*
X011456Y012938D01*
X011956Y012563D01*
X011956Y011813D01*
X012206Y010938D01*
X012206Y008313D01*
X011706Y007813D01*
X011706Y004688D01*
X013081Y003313D01*
X018081Y003313D01*
X018831Y004063D01*
X018831Y006848D01*
X018456Y007438D02*
X019581Y007438D01*
X019581Y004813D01*
X020331Y004063D01*
X022956Y003638D02*
X030456Y003638D01*
X038081Y003638D01*
X041956Y003638D01*
X054206Y003763D01*
X058287Y008857D02*
X056956Y010188D01*
X059584Y008857D02*
X059604Y008859D01*
X059622Y008865D01*
X059640Y008874D01*
X059655Y008886D01*
X061206Y010813D02*
X059706Y012188D01*
X056546Y017688D02*
X056956Y018098D01*
X056546Y017688D02*
X053581Y017688D01*
X052206Y016313D01*
X051581Y016313D01*
X051206Y015813D01*
X051206Y013732D01*
X051706Y012938D02*
X050706Y012938D01*
X049706Y012188D01*
X048906Y011763D01*
X048206Y011763D01*
X049206Y011313D02*
X047956Y010313D01*
X047281Y011013D02*
X044381Y011013D01*
X043706Y011688D01*
X043706Y012563D01*
X043331Y012938D01*
X040331Y012938D01*
X038906Y011513D01*
X037956Y011513D01*
X037331Y010813D01*
X033531Y011313D02*
X033031Y010813D01*
X029831Y010813D01*
X028956Y011688D01*
X028956Y015063D01*
X030706Y016813D01*
X030706Y017206D01*
X030125Y017688D02*
X029706Y016938D01*
X028250Y015357D01*
X028250Y014063D01*
X027581Y013188D02*
X027581Y015688D01*
X027831Y015938D01*
X027831Y016688D01*
X028456Y017063D02*
X029831Y018063D01*
X029393Y018545D02*
X030706Y018545D01*
X031456Y018063D02*
X031781Y018638D01*
X031831Y018638D01*
X029393Y018545D02*
X028125Y017607D01*
X026956Y017607D01*
X026956Y026188D01*
X026537Y026857D01*
X025956Y026857D01*
X025331Y028778D02*
X024375Y029188D01*
X025581Y030894D01*
X025581Y034938D01*
X024921Y035598D01*
X022956Y035598D01*
X022956Y036778D02*
X022956Y037813D01*
X022206Y038688D01*
X021831Y038688D01*
X021456Y039063D01*
X021456Y040188D01*
X020956Y040563D01*
X020625Y040563D01*
X020250Y040938D01*
X020331Y041857D01*
X020331Y042188D01*
X020831Y042938D01*
X024081Y042938D01*
X025081Y043938D01*
X025706Y044019D01*
X026706Y044098D01*
X026706Y045278D02*
X026706Y049063D01*
X027331Y049688D01*
X031456Y049688D01*
X032706Y050938D01*
X039456Y050938D01*
X040706Y049813D01*
X041331Y049813D01*
X042331Y050813D01*
X047206Y050813D01*
X048206Y049813D01*
X049081Y049813D01*
X050331Y051063D01*
X054331Y051063D01*
X055206Y050188D01*
X055831Y050188D01*
X057081Y051438D01*
X062706Y051438D01*
X064956Y049188D01*
X064956Y048278D01*
X066081Y048278D02*
X066081Y049063D01*
X063206Y051938D01*
X056956Y051938D01*
X055706Y050688D01*
X055456Y050688D01*
X054706Y051438D01*
X049956Y051438D01*
X048956Y050438D01*
X048456Y050438D01*
X047456Y051438D01*
X042206Y051438D01*
X041206Y050438D01*
X040706Y050438D01*
X039706Y051438D01*
X032081Y051438D01*
X030831Y050188D01*
X025581Y050188D01*
X024831Y050938D01*
X020956Y050938D01*
X019081Y049063D01*
X019081Y046528D01*
X019081Y045348D02*
X018491Y045348D01*
X017956Y044813D01*
X017456Y043637D01*
X017134Y043420D01*
X016456Y043269D01*
X013367Y043269D01*
X012581Y042482D01*
X012581Y041982D01*
X011581Y041232D01*
X011581Y038313D01*
X013331Y036563D01*
X015246Y036563D01*
X015414Y036730D01*
X016248Y035896D02*
X016658Y035896D01*
X017697Y034857D01*
X017956Y034357D01*
X018581Y033688D01*
X019331Y032563D01*
X019331Y031188D01*
X018956Y030813D01*
X018116Y030813D01*
X016581Y029528D01*
X017081Y028938D02*
X015256Y028938D01*
X015206Y028888D01*
X014096Y028888D01*
X013546Y029063D01*
X012956Y029438D02*
X012956Y027563D01*
X012206Y024938D01*
X012206Y024313D01*
X012956Y023438D01*
X012956Y021688D01*
X013393Y020938D01*
X013393Y017688D01*
X012956Y017188D01*
X012956Y016438D01*
X013706Y015688D01*
X013706Y014938D01*
X013706Y013528D01*
X012831Y013732D02*
X012581Y015063D01*
X012456Y015938D01*
X012456Y017545D01*
X012893Y017982D01*
X012893Y020563D01*
X012331Y021313D01*
X012331Y023188D01*
X011706Y023938D01*
X011706Y025188D01*
X012366Y027348D01*
X012366Y028188D01*
X013546Y028188D02*
X016546Y028188D01*
X016581Y028348D01*
X018456Y026607D01*
X017081Y028938D02*
X018331Y030188D01*
X019456Y030188D01*
X019831Y031063D01*
X020156Y031063D01*
X019831Y031063D02*
X019831Y033563D01*
X017456Y035938D01*
X017456Y036473D01*
X018706Y037723D01*
X018706Y038903D02*
X018581Y039313D01*
X018206Y039563D01*
X018206Y041938D01*
X019581Y041938D01*
X019831Y042063D01*
X019831Y042313D01*
X020456Y043438D01*
X022831Y043438D01*
X023956Y044063D01*
X024414Y044105D01*
X025248Y043271D02*
X027081Y042153D01*
X027831Y042063D01*
X030831Y042063D01*
X032956Y039938D01*
X034456Y039938D01*
X036331Y038938D01*
X036331Y037813D01*
X036706Y036313D01*
X036831Y035938D01*
X036831Y035028D01*
X036456Y034278D01*
X037581Y034278D02*
X037581Y035938D01*
X037206Y036688D01*
X037206Y037563D01*
X037000Y038313D01*
X037831Y039519D01*
X037831Y043188D01*
X035616Y043188D01*
X033706Y045098D01*
X033706Y048098D01*
X033331Y048598D01*
X033331Y049778D02*
X033331Y050063D01*
X033706Y050438D01*
X039206Y050438D01*
X040456Y049188D01*
X041456Y049188D01*
X042706Y050438D01*
X046706Y050438D01*
X047956Y049188D01*
X049206Y049188D01*
X050456Y050438D01*
X054206Y050438D01*
X054956Y049688D01*
X056206Y049688D01*
X057456Y050938D01*
X062206Y050938D01*
X063831Y049313D01*
X063831Y048278D01*
X063206Y047688D02*
X066956Y047688D01*
X066081Y047098D02*
X066081Y045313D01*
X067206Y044188D01*
X067206Y043438D01*
X066957Y042688D02*
X069581Y042688D01*
X069796Y042473D01*
X069796Y041563D01*
X069206Y042188D02*
X067456Y042188D01*
X066644Y041377D01*
X066206Y041189D01*
X066206Y040438D01*
X067206Y040438D02*
X067206Y041063D01*
X067768Y041563D01*
X068616Y041563D01*
X068206Y040438D02*
X068206Y039938D01*
X067625Y039357D01*
X066956Y039357D01*
X066956Y036188D01*
X064206Y034278D01*
X063706Y034438D01*
X062456Y035688D01*
X060456Y035688D01*
X059956Y036188D01*
X059956Y037438D01*
X059875Y037938D01*
X059875Y039357D01*
X060706Y040188D01*
X060706Y040688D01*
X060581Y041063D01*
X060581Y041688D01*
X060081Y041938D01*
X060081Y043563D01*
X060162Y043769D01*
X060233Y043965D01*
X059491Y043188D02*
X059081Y043188D01*
X057331Y041376D01*
X054831Y041376D01*
X053456Y042813D01*
X052296Y042813D01*
X051706Y043188D02*
X052037Y043519D01*
X053581Y043519D01*
X055162Y041876D01*
X056956Y041876D01*
X058956Y043938D01*
X059491Y042313D02*
X057928Y040876D01*
X054643Y040876D01*
X053706Y041813D01*
X052296Y041813D01*
X052296Y040813D02*
X053831Y040813D01*
X054331Y040438D01*
X058456Y040438D01*
X059456Y041313D01*
X059991Y041313D01*
X060116Y040563D02*
X059491Y039938D01*
X053706Y039938D01*
X053581Y039813D01*
X052296Y039813D01*
X051706Y038982D02*
X051831Y038857D01*
X051831Y036153D01*
X051331Y035563D02*
X049581Y033688D01*
X048006Y033688D01*
X047956Y033638D01*
X045506Y033638D01*
X044456Y034688D01*
X043331Y034688D01*
X042081Y033688D01*
X041706Y031482D02*
X042287Y031107D01*
X042956Y030438D01*
X042956Y028278D01*
X041206Y026528D01*
X040706Y026528D01*
X041706Y025938D02*
X038506Y025938D01*
X038456Y025888D01*
X035831Y025888D01*
X035831Y027813D01*
X035331Y028313D01*
X035331Y030063D01*
X035706Y030438D01*
X035706Y032348D01*
X036456Y033098D01*
X033456Y033638D02*
X033406Y033638D01*
X032581Y032813D01*
X032156Y032813D01*
X032081Y032888D01*
X028893Y036751D02*
X028018Y036751D01*
X027331Y036063D01*
X026956Y037063D02*
X027643Y037751D01*
X028893Y037751D01*
X028893Y038751D02*
X027268Y038751D01*
X026581Y038063D01*
X026206Y039188D02*
X026768Y039751D01*
X028893Y039751D01*
X028893Y040751D02*
X027303Y040751D01*
X027081Y040973D01*
X033893Y040751D02*
X035456Y040313D01*
X037241Y040313D01*
X037241Y041313D02*
X035456Y041313D01*
X034893Y041751D01*
X033893Y041751D01*
X033893Y042751D02*
X034956Y042751D01*
X035456Y042313D01*
X037241Y042313D01*
X037831Y043188D02*
X038706Y043188D01*
X040081Y041813D01*
X041831Y041813D01*
X042287Y042269D01*
X043581Y042269D01*
X043581Y043607D02*
X042125Y045438D01*
X040506Y046188D01*
X043581Y039107D02*
X044456Y039107D01*
X045921Y040063D02*
X049956Y040063D01*
X050206Y039813D01*
X051116Y039813D01*
X050831Y038982D02*
X051706Y038982D01*
X051706Y043188D01*
X051706Y044063D02*
X050581Y044063D01*
X049406Y045238D01*
X049406Y045938D01*
X050083Y042813D02*
X049081Y041813D01*
X047581Y041813D01*
X046206Y043455D01*
X045921Y041813D02*
X046581Y041813D01*
X047206Y041188D01*
X049831Y041188D01*
X050456Y041813D01*
X051116Y041813D01*
X051116Y040813D02*
X050991Y040688D01*
X046706Y040688D01*
X046456Y040938D01*
X045921Y040938D01*
X051331Y035563D02*
X052456Y035563D01*
X053506Y033638D01*
X055456Y033638D01*
X056006Y033688D01*
X057206Y033688D01*
X058456Y034688D01*
X059706Y034688D01*
X061256Y033138D01*
X062706Y033138D01*
X063156Y033138D01*
X063706Y033688D01*
X064706Y033688D01*
X066456Y034938D01*
X066906Y034938D01*
X067406Y035188D01*
X069081Y036063D02*
X071206Y034438D01*
X072206Y034438D01*
X072706Y034938D01*
X073956Y034938D01*
X074206Y035188D01*
X074206Y036938D01*
X074581Y037563D01*
X074581Y038688D01*
X075250Y038063D02*
X074831Y036813D01*
X074831Y035863D01*
X075331Y035363D01*
X073912Y038063D02*
X072831Y038732D01*
X072331Y041938D02*
X071206Y041938D01*
X069831Y043438D01*
X069206Y043438D01*
X069956Y044188D02*
X071456Y043144D01*
X072331Y041938D02*
X075956Y041938D01*
X077206Y041938D01*
X080581Y039813D02*
X080581Y033938D01*
X079831Y033188D01*
X079831Y032438D01*
X080581Y031688D01*
X080581Y026519D01*
X074331Y028188D02*
X073706Y027813D01*
X073116Y027688D01*
X071706Y026528D01*
X072156Y025888D02*
X073706Y027188D01*
X074331Y028188D02*
X074331Y030688D01*
X074037Y031107D01*
X073456Y031357D01*
X072456Y032348D01*
X072206Y032598D01*
X072206Y034438D01*
X069081Y036063D02*
X069081Y036938D01*
X068456Y037563D01*
X068125Y037563D01*
X067625Y038063D01*
X066206Y041937D02*
X065206Y041938D01*
X064268Y042251D02*
X065081Y043063D01*
X065206Y043438D01*
X066206Y043438D02*
X066206Y044188D01*
X064956Y045438D01*
X064956Y047098D01*
X063831Y047098D02*
X063831Y044813D01*
X063206Y044188D01*
X063206Y043438D01*
X064206Y043438D02*
X064206Y042938D01*
X063956Y042688D01*
X063081Y041813D02*
X064206Y040688D01*
X064206Y040438D01*
X063206Y040438D02*
X063206Y040813D01*
X062706Y041313D01*
X061171Y041313D01*
X066206Y041937D02*
X066957Y042688D01*
X068206Y044188D02*
X069956Y044188D01*
X063206Y047688D02*
X062581Y048313D01*
X062581Y049438D01*
X061581Y050438D01*
X057706Y050438D01*
X056656Y049388D01*
X055506Y046188D02*
X055425Y045607D01*
X053581Y044857D01*
X053956Y044188D02*
X051831Y044188D01*
X051706Y044063D01*
X053956Y044188D02*
X056456Y045438D01*
X056656Y045438D01*
X051831Y034973D02*
X052331Y034563D01*
X053331Y032938D01*
X056625Y032938D01*
X058456Y031107D01*
X059037Y031107D01*
X059456Y030688D01*
X059456Y028188D01*
X058956Y027688D01*
X057956Y027688D01*
X057046Y026778D01*
X056706Y026528D01*
X057206Y025938D02*
X055756Y025938D01*
X055206Y025888D01*
X053506Y025888D01*
X052581Y027063D01*
X050831Y027063D01*
X049706Y025938D01*
X048006Y025938D01*
X047956Y025888D01*
X046006Y025888D01*
X044706Y027188D01*
X042956Y027188D01*
X041706Y025938D01*
X049206Y025348D02*
X050956Y023607D01*
X051537Y023607D01*
X052206Y022938D01*
X052206Y020688D01*
X051706Y020188D01*
X050706Y020188D01*
X049546Y019278D01*
X049456Y019278D01*
X051706Y012938D02*
X052581Y012063D01*
X051206Y012394D02*
X050500Y012063D01*
X049206Y011313D01*
X044375Y012188D02*
X043831Y014107D01*
X043831Y015563D01*
X049206Y026528D02*
X049456Y026688D01*
X050331Y027563D01*
X051581Y027563D01*
X051956Y027938D01*
X051956Y030688D01*
X051537Y031107D01*
X050956Y031107D01*
X049706Y032607D01*
X057206Y025938D02*
X058456Y027188D01*
X059456Y027188D01*
X060756Y025888D01*
X062706Y025888D01*
X063256Y025938D01*
X064581Y025938D01*
X065831Y027063D01*
X067456Y027063D01*
X066581Y027563D02*
X066956Y027938D01*
X066956Y030607D01*
X065956Y031107D01*
X064456Y032598D01*
X064206Y033098D01*
X065581Y027563D02*
X066581Y027563D01*
X065581Y027563D02*
X064296Y026528D01*
X064081Y026528D01*
X064081Y025348D02*
X065206Y024357D01*
X065956Y023607D01*
X066537Y023607D01*
X066956Y023188D01*
X066956Y020438D01*
X066706Y020188D01*
X065866Y020188D01*
X064331Y019278D01*
X059456Y020438D02*
X059456Y023188D01*
X059037Y023607D01*
X058456Y023607D01*
X056715Y025348D01*
X056706Y025348D01*
X059456Y020438D02*
X059206Y020188D01*
X057956Y020188D01*
X056956Y019278D01*
X070456Y025888D02*
X072156Y025888D01*
X071706Y025348D02*
X072206Y025107D01*
X073456Y023857D01*
X073912Y023857D01*
X074456Y023313D01*
X074456Y020938D01*
X073706Y020188D01*
X076081Y017888D02*
X075331Y017138D01*
X075331Y015063D01*
X074031Y014138D01*
X073831Y013938D01*
X073831Y012188D01*
X073331Y012188D01*
X072206Y010938D01*
X073831Y012188D02*
X074706Y012188D01*
X076081Y010813D01*
X077081Y010813D01*
X077994Y011726D01*
X072081Y006519D02*
X072081Y005863D01*
X026831Y013188D02*
X026912Y014063D01*
X026831Y013188D02*
X024581Y011063D01*
X024581Y010063D01*
X026006Y008638D01*
X026006Y005688D01*
X020331Y008063D02*
X019581Y007438D01*
X018831Y008028D02*
X018331Y008813D01*
X018456Y009188D01*
X019706Y010438D01*
X019706Y011688D01*
X019456Y011938D01*
X017706Y011938D01*
X020031Y012363D02*
X020031Y012938D01*
X019656Y013938D01*
X020031Y012363D02*
X020331Y012063D01*
X020331Y010188D01*
X020248Y009146D02*
X020331Y009063D01*
X018456Y007438D02*
X018081Y007063D01*
X018081Y004638D01*
X017881Y004438D01*
X017281Y004438D02*
X016706Y005688D01*
X014206Y004688D02*
X013131Y005563D01*
X012531Y005563D02*
X012406Y006113D01*
X012206Y006313D01*
X012206Y007313D01*
X012831Y007938D01*
X012831Y010894D01*
X012706Y011519D01*
X012831Y012394D01*
X013706Y012348D02*
X013581Y011563D01*
X013706Y014938D02*
X014706Y014938D01*
X015456Y019063D02*
X015456Y019313D01*
X016581Y020438D01*
X016831Y021188D01*
X018331Y022313D01*
X019581Y022313D01*
X021081Y020813D01*
X022456Y020813D01*
X023206Y021563D01*
X023866Y021938D01*
X023866Y021063D02*
X023581Y021063D01*
X022581Y020063D01*
X020956Y020063D01*
X020581Y019688D01*
X020081Y019688D01*
X020831Y019188D02*
X021206Y019563D01*
X022956Y019563D01*
X023581Y020188D01*
X023866Y020188D01*
X023866Y019313D02*
X023116Y018938D01*
X021331Y018938D01*
X021081Y018688D01*
X020831Y018688D01*
X020456Y018188D02*
X023116Y018188D01*
X023866Y018438D01*
X023866Y019313D02*
X023706Y019313D01*
X020456Y018188D02*
X020206Y017938D01*
X027546Y022563D02*
X027581Y022598D01*
X027581Y029938D01*
X023031Y030063D02*
X023037Y029188D01*
X020119Y038775D02*
X019456Y039563D01*
X018912Y040938D01*
X017134Y043420D02*
X017073Y043379D01*
X012581Y040644D02*
X012206Y040144D01*
X012206Y038888D01*
X012531Y038563D01*
D30*
X015956Y013563D03*
X013581Y011563D03*
X065206Y041938D03*
D31*
X064268Y042251D02*
X061609Y042251D01*
X060671Y043188D01*
X061331Y043063D02*
X061706Y042688D01*
X063956Y042688D01*
X063081Y041813D02*
X061581Y041813D01*
X060956Y042188D01*
X060671Y042313D01*
X061331Y043063D02*
X061331Y043813D01*
X060331Y044813D01*
X059956Y044813D01*
X058956Y043938D01*
X069206Y042188D02*
X069206Y040438D01*
X044741Y040063D02*
X042456Y040063D01*
X042331Y039938D01*
X039331Y039938D01*
X038956Y040313D01*
X038421Y040313D01*
X038421Y041313D02*
X039081Y041313D01*
X039831Y040563D01*
X042206Y040563D01*
X042581Y040938D01*
X044741Y040938D01*
X044741Y041813D02*
X044331Y041813D01*
X043956Y041438D01*
X042331Y041438D01*
X041956Y041063D01*
X040081Y041063D01*
X038956Y042188D01*
X038421Y042313D01*
X029956Y040438D02*
X029956Y036313D01*
X030456Y035813D01*
X030456Y034688D01*
X030831Y033938D01*
X028893Y035751D02*
X028268Y035751D01*
X027706Y035188D01*
X027706Y033313D01*
X027206Y032688D02*
X027206Y035938D01*
X027331Y036063D01*
X026831Y036938D02*
X026956Y037063D01*
X026831Y036938D02*
X026831Y031938D01*
X026456Y031063D02*
X026456Y037938D01*
X026581Y038063D01*
X026081Y039063D02*
X026206Y039188D01*
X026081Y039063D02*
X026081Y030563D01*
X029956Y040438D02*
X029643Y040751D01*
X028893Y040751D01*
X029831Y018063D02*
X031456Y018063D01*
X032206Y017688D02*
X030125Y017688D01*
X028456Y017063D02*
X026331Y017063D01*
X025456Y017688D01*
X024831Y017688D01*
X024456Y018063D01*
X024331Y017438D02*
X025456Y016813D01*
X027706Y016813D01*
X027831Y016688D01*
X020831Y018688D02*
X017206Y018688D01*
X016706Y018188D01*
X016706Y015563D01*
X017206Y014938D01*
X017706Y014938D01*
X016206Y015063D02*
X016956Y013313D01*
X017706Y012938D01*
X015706Y014438D02*
X015706Y015688D01*
X015831Y015938D01*
X015831Y018688D01*
X016831Y019688D01*
X020081Y019688D01*
X020831Y019188D02*
X017081Y019188D01*
X016206Y018438D01*
X016206Y015063D01*
X015706Y014438D02*
X015206Y013938D01*
X014706Y013938D01*
X014706Y015938D02*
X015206Y015938D01*
X015456Y016188D01*
X015456Y019063D01*
X017706Y016938D02*
X019206Y016938D01*
X020206Y017938D01*
D32*
X018706Y017938D03*
D33*
X010143Y001688D03*
X016956Y001688D03*
X010143Y010438D03*
X010143Y019438D03*
X010143Y028438D03*
X010143Y035938D03*
X010143Y043438D03*
X010143Y052188D03*
X018956Y052188D03*
X029956Y052188D03*
X040956Y052188D03*
X048456Y052188D03*
X055956Y052188D03*
X064956Y052188D03*
X070206Y052188D03*
X073956Y052188D03*
X078018Y052188D03*
X080206Y052188D03*
X078018Y001688D03*
X073956Y001688D03*
X070206Y001688D03*
X060456Y001688D03*
X050956Y001688D03*
X041456Y001688D03*
X031956Y001688D03*
X024456Y001688D03*
D34*
X026456Y010438D03*
X018956Y020938D03*
X018956Y028438D03*
X019581Y035938D03*
X018956Y043438D03*
X040956Y043438D03*
X048456Y043438D03*
X055956Y043438D03*
X058956Y032938D03*
X058956Y025438D03*
X058956Y017938D03*
X058956Y010438D03*
X051456Y017938D03*
X050206Y010063D03*
X043956Y017938D03*
X041456Y010438D03*
X043956Y025438D03*
X043956Y032938D03*
X051456Y032938D03*
X051456Y025438D03*
X066456Y025438D03*
X066456Y032938D03*
X073956Y032938D03*
X073956Y025438D03*
X073956Y017938D03*
X073956Y010438D03*
X066456Y010938D03*
X066456Y017938D03*
X073956Y040438D03*
X073956Y043438D03*
D35*
X065081Y008938D02*
X061331Y009063D01*
X060081Y007688D01*
X058956Y007688D01*
X058956Y004313D01*
X060956Y004313D01*
X061956Y003313D01*
X065331Y003313D01*
X065706Y003688D01*
X065706Y005063D01*
X065831Y008313D01*
X065081Y008938D01*
X065016Y008940D02*
X065016Y003313D01*
X065336Y003318D02*
X065336Y008726D01*
X065393Y008678D02*
X060981Y008678D01*
X060856Y008541D02*
X060856Y004313D01*
X061071Y004198D02*
X065706Y004198D01*
X065706Y003878D02*
X061391Y003878D01*
X061496Y003773D02*
X061496Y009058D01*
X061272Y008998D02*
X063281Y008998D01*
X063416Y008994D02*
X063416Y003313D01*
X063736Y003313D02*
X063736Y008983D01*
X064056Y008972D02*
X064056Y003313D01*
X064376Y003313D02*
X064376Y008962D01*
X064696Y008951D02*
X064696Y003313D01*
X065576Y003558D02*
X061711Y003558D01*
X061816Y003453D02*
X061816Y009047D01*
X062136Y009036D02*
X062136Y003313D01*
X062456Y003313D02*
X062456Y009026D01*
X062776Y009015D02*
X062776Y003313D01*
X063096Y003313D02*
X063096Y009004D01*
X061176Y008893D02*
X061176Y004093D01*
X060536Y004313D02*
X060536Y008189D01*
X060399Y008038D02*
X065820Y008038D01*
X065808Y007718D02*
X060108Y007718D01*
X060216Y007837D02*
X060216Y004313D01*
X059896Y004313D02*
X059896Y007688D01*
X059576Y007688D02*
X059576Y004313D01*
X059256Y004313D02*
X059256Y007688D01*
X058956Y007398D02*
X065796Y007398D01*
X065783Y007078D02*
X058956Y007078D01*
X058956Y006758D02*
X065771Y006758D01*
X065759Y006438D02*
X058956Y006438D01*
X058956Y006118D02*
X065747Y006118D01*
X065734Y005798D02*
X058956Y005798D01*
X058956Y005478D02*
X065722Y005478D01*
X065710Y005158D02*
X058956Y005158D01*
X058956Y004838D02*
X065706Y004838D01*
X065706Y004518D02*
X058956Y004518D01*
X060690Y008358D02*
X065777Y008358D01*
X065656Y008459D02*
X065656Y003638D01*
X072831Y003558D02*
X078790Y003558D01*
X078790Y003238D02*
X072831Y003238D01*
X072831Y003188D02*
X078790Y003188D01*
X078790Y008938D01*
X075831Y008938D01*
X075081Y008188D01*
X072831Y008188D01*
X072831Y003188D01*
X073016Y003188D02*
X073016Y008188D01*
X072831Y008038D02*
X078790Y008038D01*
X078790Y007718D02*
X072831Y007718D01*
X072831Y007398D02*
X078790Y007398D01*
X078790Y007078D02*
X072831Y007078D01*
X072831Y006758D02*
X078790Y006758D01*
X078790Y006438D02*
X072831Y006438D01*
X072831Y006118D02*
X078790Y006118D01*
X078790Y005798D02*
X072831Y005798D01*
X072831Y005478D02*
X078790Y005478D01*
X078790Y005158D02*
X072831Y005158D01*
X072831Y004838D02*
X078790Y004838D01*
X078790Y004518D02*
X072831Y004518D01*
X072831Y004198D02*
X078790Y004198D01*
X078790Y003878D02*
X072831Y003878D01*
X073336Y003188D02*
X073336Y008188D01*
X073656Y008188D02*
X073656Y003188D01*
X073976Y003188D02*
X073976Y008188D01*
X074296Y008188D02*
X074296Y003188D01*
X074616Y003188D02*
X074616Y008188D01*
X074936Y008188D02*
X074936Y003188D01*
X075256Y003188D02*
X075256Y008363D01*
X075251Y008358D02*
X078790Y008358D01*
X078790Y008678D02*
X075571Y008678D01*
X075576Y008683D02*
X075576Y003188D01*
X075896Y003188D02*
X075896Y008938D01*
X076216Y008938D02*
X076216Y003188D01*
X076536Y003188D02*
X076536Y008938D01*
X076856Y008938D02*
X076856Y003188D01*
X077176Y003188D02*
X077176Y008938D01*
X077496Y008938D02*
X077496Y003188D01*
X077816Y003188D02*
X077816Y008938D01*
X078136Y008938D02*
X078136Y003188D01*
X078456Y003188D02*
X078456Y008938D01*
X078776Y008938D02*
X078776Y003188D01*
X042956Y013438D02*
X039456Y013438D01*
X039456Y017188D01*
X041456Y017188D01*
X042456Y015938D01*
X042456Y014188D01*
X042956Y014188D01*
X042956Y013438D01*
X042936Y013438D02*
X042936Y014188D01*
X042956Y014118D02*
X039456Y014118D01*
X039456Y013798D02*
X042956Y013798D01*
X042956Y013478D02*
X039456Y013478D01*
X039736Y013438D02*
X039736Y017188D01*
X040056Y017188D02*
X040056Y013438D01*
X040376Y013438D02*
X040376Y017188D01*
X040696Y017188D02*
X040696Y013438D01*
X041016Y013438D02*
X041016Y017188D01*
X041336Y017188D02*
X041336Y013438D01*
X041656Y013438D02*
X041656Y016938D01*
X041608Y016998D02*
X039456Y016998D01*
X039456Y016678D02*
X041864Y016678D01*
X041976Y016538D02*
X041976Y013438D01*
X042296Y013438D02*
X042296Y016138D01*
X042376Y016038D02*
X039456Y016038D01*
X039456Y015718D02*
X042456Y015718D01*
X042456Y015398D02*
X039456Y015398D01*
X039456Y015078D02*
X042456Y015078D01*
X042456Y014758D02*
X039456Y014758D01*
X039456Y014438D02*
X042456Y014438D01*
X042616Y014188D02*
X042616Y013438D01*
X042120Y016358D02*
X039456Y016358D01*
X033456Y016358D02*
X030915Y016358D01*
X030776Y016211D02*
X030776Y011313D01*
X031096Y011313D02*
X031096Y016550D01*
X031217Y016678D02*
X033456Y016678D01*
X033456Y016998D02*
X031520Y016998D01*
X031581Y017063D02*
X033456Y017063D01*
X033456Y012063D01*
X032831Y012063D01*
X032831Y011313D01*
X030206Y011313D01*
X029456Y011938D01*
X029456Y014813D01*
X031581Y017063D01*
X031736Y017063D02*
X031736Y011313D01*
X032056Y011313D02*
X032056Y017063D01*
X032376Y017063D02*
X032376Y011313D01*
X032696Y011313D02*
X032696Y017063D01*
X033016Y017063D02*
X033016Y012063D01*
X032831Y011878D02*
X029528Y011878D01*
X029496Y011905D02*
X029496Y014855D01*
X029456Y014758D02*
X033456Y014758D01*
X033456Y014438D02*
X029456Y014438D01*
X029456Y014118D02*
X033456Y014118D01*
X033456Y013798D02*
X029456Y013798D01*
X029456Y013478D02*
X033456Y013478D01*
X033456Y013158D02*
X029456Y013158D01*
X029456Y012838D02*
X033456Y012838D01*
X033456Y012518D02*
X029456Y012518D01*
X029456Y012198D02*
X033456Y012198D01*
X033336Y012063D02*
X033336Y017063D01*
X033456Y016038D02*
X030613Y016038D01*
X030456Y015872D02*
X030456Y011313D01*
X030136Y011371D02*
X030136Y015533D01*
X030008Y015398D02*
X033456Y015398D01*
X033456Y015078D02*
X029706Y015078D01*
X029816Y015194D02*
X029816Y011638D01*
X029912Y011558D02*
X032831Y011558D01*
X031416Y011313D02*
X031416Y016888D01*
X030311Y015718D02*
X033456Y015718D01*
M02*
