G75*
G70*
%OFA0B0*%
%FSLAX24Y24*%
%IPPOS*%
%LPD*%
%AMOC8*
5,1,8,0,0,1.08239X$1,22.5*
%
%ADD10C,0.1500*%
%ADD11C,0.1012*%
%ADD12C,0.0860*%
%ADD13C,0.1181*%
%ADD14R,0.0827X0.0827*%
%ADD15C,0.0515*%
%ADD16C,0.0827*%
%ADD17C,0.1575*%
%ADD18C,0.0906*%
%ADD19C,0.0240*%
%ADD20R,0.0906X0.0906*%
%ADD21C,0.0320*%
%ADD22C,0.0160*%
%ADD23C,0.0400*%
%ADD24C,0.1969*%
%ADD25C,0.0787*%
%ADD26C,0.0500*%
D10*
X005452Y008143D03*
X007952Y009143D03*
X012952Y008143D03*
X015452Y009143D03*
X020452Y008143D03*
X022952Y009143D03*
X028077Y008143D03*
X029077Y008143D03*
X030577Y009143D03*
X031577Y009143D03*
X034577Y008143D03*
X035577Y008143D03*
X037077Y009143D03*
X038077Y009143D03*
X044077Y008143D03*
X046577Y009143D03*
X045452Y015643D03*
X047952Y016643D03*
X052952Y015643D03*
X055452Y016643D03*
X060452Y015643D03*
X062952Y016643D03*
X067952Y015643D03*
X070452Y016643D03*
X067952Y023143D03*
X070452Y024143D03*
X062952Y024143D03*
X060452Y023143D03*
X055452Y024143D03*
X052952Y023143D03*
X047952Y024143D03*
X045452Y023143D03*
X040452Y024143D03*
X037952Y023143D03*
X029952Y024143D03*
X027452Y023143D03*
X029202Y016643D03*
X026702Y015643D03*
X015452Y016643D03*
X012952Y015643D03*
X012952Y026143D03*
X015452Y027143D03*
X007952Y027143D03*
X005452Y026143D03*
X005452Y033643D03*
X007952Y034643D03*
X012952Y033643D03*
X015452Y034643D03*
X022952Y038143D03*
X025452Y039143D03*
X030452Y038143D03*
X032952Y039143D03*
X037952Y038143D03*
X040452Y039143D03*
X045452Y038143D03*
X047952Y039143D03*
X052952Y038143D03*
X055452Y039143D03*
X060452Y038143D03*
X062952Y039143D03*
X067952Y038143D03*
X070452Y039143D03*
X070452Y031643D03*
X067952Y030643D03*
X062952Y031643D03*
X060452Y030643D03*
X055452Y031643D03*
X052952Y030643D03*
X047952Y031643D03*
X045452Y030643D03*
X040452Y031643D03*
X037952Y030643D03*
X030952Y031643D03*
X028452Y030643D03*
X015452Y042143D03*
X012952Y041143D03*
X007952Y042143D03*
X005452Y041143D03*
X005452Y048643D03*
X007952Y049643D03*
X012952Y048643D03*
X015452Y049643D03*
X027452Y048643D03*
X029952Y049643D03*
X034952Y048643D03*
X037452Y049643D03*
X042452Y048643D03*
X044952Y049643D03*
X049952Y048643D03*
X052452Y049643D03*
X060452Y048643D03*
X062952Y049643D03*
X067952Y048643D03*
X070452Y049643D03*
X040452Y016643D03*
X037952Y015643D03*
X059202Y008143D03*
X061702Y009143D03*
D11*
X062202Y010143D03*
X058202Y010143D03*
X059452Y017643D03*
X055952Y017643D03*
X051952Y017643D03*
X048452Y017643D03*
X044452Y017643D03*
X040952Y017643D03*
X036952Y017643D03*
X029702Y017643D03*
X025702Y017643D03*
X026452Y025143D03*
X030452Y025143D03*
X036952Y025143D03*
X040952Y025143D03*
X044452Y025143D03*
X048452Y025143D03*
X051952Y025143D03*
X055952Y025143D03*
X059452Y025143D03*
X063452Y025143D03*
X066952Y025143D03*
X070952Y025143D03*
X070952Y017643D03*
X066952Y017643D03*
X063452Y017643D03*
X047077Y010143D03*
X043077Y010143D03*
X038577Y010143D03*
X037577Y010143D03*
X034577Y010143D03*
X033577Y010143D03*
X032077Y010143D03*
X031077Y010143D03*
X028077Y010143D03*
X027077Y010143D03*
X023452Y010143D03*
X019452Y010143D03*
X015952Y010143D03*
X011952Y010143D03*
X008452Y010143D03*
X004452Y010143D03*
X011952Y017643D03*
X015952Y017643D03*
X015952Y028143D03*
X011952Y028143D03*
X008452Y028143D03*
X004452Y028143D03*
X004452Y035643D03*
X008452Y035643D03*
X011952Y035643D03*
X015952Y035643D03*
X021952Y040143D03*
X025952Y040143D03*
X029452Y040143D03*
X033452Y040143D03*
X036952Y040143D03*
X040952Y040143D03*
X044452Y040143D03*
X048452Y040143D03*
X051952Y040143D03*
X055952Y040143D03*
X059452Y040143D03*
X063452Y040143D03*
X066952Y040143D03*
X070952Y040143D03*
X070952Y032643D03*
X066952Y032643D03*
X063452Y032643D03*
X059452Y032643D03*
X055952Y032643D03*
X051952Y032643D03*
X048452Y032643D03*
X044452Y032643D03*
X040952Y032643D03*
X036952Y032643D03*
X031452Y032643D03*
X027452Y032643D03*
X015952Y043143D03*
X011952Y043143D03*
X008452Y043143D03*
X004452Y043143D03*
X004452Y050643D03*
X008452Y050643D03*
X011952Y050643D03*
X015952Y050643D03*
X026452Y050643D03*
X030452Y050643D03*
X033952Y050643D03*
X037952Y050643D03*
X041452Y050643D03*
X045452Y050643D03*
X048952Y050643D03*
X052952Y050643D03*
X059452Y050643D03*
X063452Y050643D03*
X066952Y050643D03*
X070952Y050643D03*
D12*
X070452Y052213D02*
X070452Y053073D01*
X069452Y053073D02*
X069452Y052213D01*
X068452Y052213D02*
X068452Y053073D01*
X067452Y053073D02*
X067452Y052213D01*
X062952Y052213D02*
X062952Y053073D01*
X061952Y053073D02*
X061952Y052213D01*
X060952Y052213D02*
X060952Y053073D01*
X059952Y053073D02*
X059952Y052213D01*
X052452Y052213D02*
X052452Y053073D01*
X051452Y053073D02*
X051452Y052213D01*
X050452Y052213D02*
X050452Y053073D01*
X049452Y053073D02*
X049452Y052213D01*
X044952Y052213D02*
X044952Y053073D01*
X043952Y053073D02*
X043952Y052213D01*
X042952Y052213D02*
X042952Y053073D01*
X041952Y053073D02*
X041952Y052213D01*
X037452Y052213D02*
X037452Y053073D01*
X036452Y053073D02*
X036452Y052213D01*
X035452Y052213D02*
X035452Y053073D01*
X034452Y053073D02*
X034452Y052213D01*
X029952Y052213D02*
X029952Y053073D01*
X028952Y053073D02*
X028952Y052213D01*
X027952Y052213D02*
X027952Y053073D01*
X026952Y053073D02*
X026952Y052213D01*
X015452Y052213D02*
X015452Y053073D01*
X014452Y053073D02*
X014452Y052213D01*
X013452Y052213D02*
X013452Y053073D01*
X012452Y053073D02*
X012452Y052213D01*
X007952Y052213D02*
X007952Y053073D01*
X006952Y053073D02*
X006952Y052213D01*
X005952Y052213D02*
X005952Y053073D01*
X004952Y053073D02*
X004952Y052213D01*
X004952Y045573D02*
X004952Y044713D01*
X005952Y044713D02*
X005952Y045573D01*
X006952Y045573D02*
X006952Y044713D01*
X007952Y044713D02*
X007952Y045573D01*
X012452Y045573D02*
X012452Y044713D01*
X013452Y044713D02*
X013452Y045573D01*
X014452Y045573D02*
X014452Y044713D01*
X015452Y044713D02*
X015452Y045573D01*
X022452Y042573D02*
X022452Y041713D01*
X023452Y041713D02*
X023452Y042573D01*
X024452Y042573D02*
X024452Y041713D01*
X025452Y041713D02*
X025452Y042573D01*
X029952Y042573D02*
X029952Y041713D01*
X030952Y041713D02*
X030952Y042573D01*
X031952Y042573D02*
X031952Y041713D01*
X032952Y041713D02*
X032952Y042573D01*
X037452Y042573D02*
X037452Y041713D01*
X038452Y041713D02*
X038452Y042573D01*
X039452Y042573D02*
X039452Y041713D01*
X040452Y041713D02*
X040452Y042573D01*
X044952Y042573D02*
X044952Y041713D01*
X045952Y041713D02*
X045952Y042573D01*
X046952Y042573D02*
X046952Y041713D01*
X047952Y041713D02*
X047952Y042573D01*
X052452Y042573D02*
X052452Y041713D01*
X053452Y041713D02*
X053452Y042573D01*
X054452Y042573D02*
X054452Y041713D01*
X055452Y041713D02*
X055452Y042573D01*
X059952Y042573D02*
X059952Y041713D01*
X060952Y041713D02*
X060952Y042573D01*
X061952Y042573D02*
X061952Y041713D01*
X062952Y041713D02*
X062952Y042573D01*
X067452Y042573D02*
X067452Y041713D01*
X068452Y041713D02*
X068452Y042573D01*
X069452Y042573D02*
X069452Y041713D01*
X070452Y041713D02*
X070452Y042573D01*
X070452Y035073D02*
X070452Y034213D01*
X069452Y034213D02*
X069452Y035073D01*
X068452Y035073D02*
X068452Y034213D01*
X067452Y034213D02*
X067452Y035073D01*
X062952Y035073D02*
X062952Y034213D01*
X061952Y034213D02*
X061952Y035073D01*
X060952Y035073D02*
X060952Y034213D01*
X059952Y034213D02*
X059952Y035073D01*
X055452Y035073D02*
X055452Y034213D01*
X054452Y034213D02*
X054452Y035073D01*
X053452Y035073D02*
X053452Y034213D01*
X052452Y034213D02*
X052452Y035073D01*
X047952Y035073D02*
X047952Y034213D01*
X046952Y034213D02*
X046952Y035073D01*
X045952Y035073D02*
X045952Y034213D01*
X044952Y034213D02*
X044952Y035073D01*
X040452Y035073D02*
X040452Y034213D01*
X039452Y034213D02*
X039452Y035073D01*
X038452Y035073D02*
X038452Y034213D01*
X037452Y034213D02*
X037452Y035073D01*
X030952Y035073D02*
X030952Y034213D01*
X029952Y034213D02*
X029952Y035073D01*
X028952Y035073D02*
X028952Y034213D01*
X027952Y034213D02*
X027952Y035073D01*
X027952Y027573D02*
X027952Y026713D01*
X028952Y026713D02*
X028952Y027573D01*
X029952Y027573D02*
X029952Y026713D01*
X026952Y026713D02*
X026952Y027573D01*
X027202Y020073D02*
X027202Y019213D01*
X028202Y019213D02*
X028202Y020073D01*
X029202Y020073D02*
X029202Y019213D01*
X026202Y019213D02*
X026202Y020073D01*
X028577Y012573D02*
X028577Y011713D01*
X029577Y011713D02*
X029577Y012573D01*
X030577Y012573D02*
X030577Y011713D01*
X031577Y011713D02*
X031577Y012573D01*
X034077Y012573D02*
X034077Y011713D01*
X035077Y011713D02*
X035077Y012573D01*
X036077Y012573D02*
X036077Y011713D01*
X037077Y011713D02*
X037077Y012573D01*
X043577Y012573D02*
X043577Y011713D01*
X044577Y011713D02*
X044577Y012573D01*
X045577Y012573D02*
X045577Y011713D01*
X046577Y011713D02*
X046577Y012573D01*
X046952Y019213D02*
X046952Y020073D01*
X047952Y020073D02*
X047952Y019213D01*
X045952Y019213D02*
X045952Y020073D01*
X044952Y020073D02*
X044952Y019213D01*
X040452Y019213D02*
X040452Y020073D01*
X039452Y020073D02*
X039452Y019213D01*
X038452Y019213D02*
X038452Y020073D01*
X037452Y020073D02*
X037452Y019213D01*
X037452Y026713D02*
X037452Y027573D01*
X038452Y027573D02*
X038452Y026713D01*
X039452Y026713D02*
X039452Y027573D01*
X040452Y027573D02*
X040452Y026713D01*
X044952Y026713D02*
X044952Y027573D01*
X045952Y027573D02*
X045952Y026713D01*
X046952Y026713D02*
X046952Y027573D01*
X047952Y027573D02*
X047952Y026713D01*
X052452Y026713D02*
X052452Y027573D01*
X053452Y027573D02*
X053452Y026713D01*
X054452Y026713D02*
X054452Y027573D01*
X055452Y027573D02*
X055452Y026713D01*
X059952Y026713D02*
X059952Y027573D01*
X060952Y027573D02*
X060952Y026713D01*
X061952Y026713D02*
X061952Y027573D01*
X062952Y027573D02*
X062952Y026713D01*
X067452Y026713D02*
X067452Y027573D01*
X068452Y027573D02*
X068452Y026713D01*
X069452Y026713D02*
X069452Y027573D01*
X070452Y027573D02*
X070452Y026713D01*
X070452Y020073D02*
X070452Y019213D01*
X069452Y019213D02*
X069452Y020073D01*
X068452Y020073D02*
X068452Y019213D01*
X067452Y019213D02*
X067452Y020073D01*
X062952Y020073D02*
X062952Y019213D01*
X061952Y019213D02*
X061952Y020073D01*
X060952Y020073D02*
X060952Y019213D01*
X059952Y019213D02*
X059952Y020073D01*
X055452Y020073D02*
X055452Y019213D01*
X054452Y019213D02*
X054452Y020073D01*
X053452Y020073D02*
X053452Y019213D01*
X052452Y019213D02*
X052452Y020073D01*
X058702Y012573D02*
X058702Y011713D01*
X059702Y011713D02*
X059702Y012573D01*
X060702Y012573D02*
X060702Y011713D01*
X061702Y011713D02*
X061702Y012573D01*
X022952Y012573D02*
X022952Y011713D01*
X021952Y011713D02*
X021952Y012573D01*
X020952Y012573D02*
X020952Y011713D01*
X019952Y011713D02*
X019952Y012573D01*
X015452Y012573D02*
X015452Y011713D01*
X014452Y011713D02*
X014452Y012573D01*
X013452Y012573D02*
X013452Y011713D01*
X012452Y011713D02*
X012452Y012573D01*
X007952Y012573D02*
X007952Y011713D01*
X006952Y011713D02*
X006952Y012573D01*
X005952Y012573D02*
X005952Y011713D01*
X004952Y011713D02*
X004952Y012573D01*
X012452Y019213D02*
X012452Y020073D01*
X013452Y020073D02*
X013452Y019213D01*
X014452Y019213D02*
X014452Y020073D01*
X015452Y020073D02*
X015452Y019213D01*
X015452Y029713D02*
X015452Y030573D01*
X014452Y030573D02*
X014452Y029713D01*
X013452Y029713D02*
X013452Y030573D01*
X012452Y030573D02*
X012452Y029713D01*
X007952Y029713D02*
X007952Y030573D01*
X006952Y030573D02*
X006952Y029713D01*
X005952Y029713D02*
X005952Y030573D01*
X004952Y030573D02*
X004952Y029713D01*
X004952Y037213D02*
X004952Y038073D01*
X005952Y038073D02*
X005952Y037213D01*
X006952Y037213D02*
X006952Y038073D01*
X007952Y038073D02*
X007952Y037213D01*
X012452Y037213D02*
X012452Y038073D01*
X013452Y038073D02*
X013452Y037213D01*
X014452Y037213D02*
X014452Y038073D01*
X015452Y038073D02*
X015452Y037213D01*
D13*
X013952Y035643D03*
X006452Y035643D03*
X006452Y028143D03*
X013952Y028143D03*
X013952Y017643D03*
X013952Y010143D03*
X021452Y010143D03*
X023014Y014893D03*
X027702Y017643D03*
X032389Y014893D03*
X030077Y010143D03*
X035577Y010143D03*
X038952Y017643D03*
X046452Y017643D03*
X053952Y017643D03*
X061452Y017643D03*
X068952Y017643D03*
X068952Y025143D03*
X061452Y025143D03*
X053952Y025143D03*
X046452Y025143D03*
X038952Y025143D03*
X038952Y032643D03*
X046452Y032643D03*
X053952Y032643D03*
X061452Y032643D03*
X068952Y032643D03*
X068952Y040143D03*
X061452Y040143D03*
X053952Y040143D03*
X046452Y040143D03*
X038952Y040143D03*
X031452Y040143D03*
X023952Y040143D03*
X029452Y032643D03*
X028452Y025143D03*
X045077Y010143D03*
X055514Y007393D03*
X060202Y010143D03*
X064889Y007393D03*
X013952Y043143D03*
X006452Y043143D03*
X006452Y050643D03*
X013952Y050643D03*
X028452Y050643D03*
X035952Y050643D03*
X043452Y050643D03*
X050952Y050643D03*
X061452Y050643D03*
X068952Y050643D03*
X006452Y010143D03*
D14*
X005952Y015393D03*
X005952Y016393D03*
X005952Y017393D03*
X005952Y018393D03*
X005952Y019393D03*
X005952Y020393D03*
X005952Y021393D03*
X008952Y021393D03*
X008952Y020393D03*
X008952Y019393D03*
X008952Y018393D03*
X008952Y017393D03*
X008952Y016393D03*
X008952Y015393D03*
X053452Y043893D03*
X054452Y043893D03*
X055452Y043893D03*
X056452Y043893D03*
X057452Y043893D03*
X058452Y043893D03*
X059452Y043893D03*
X060452Y043893D03*
X060452Y046893D03*
X059452Y046893D03*
X058452Y046893D03*
X057452Y046893D03*
X056452Y046893D03*
X055452Y046893D03*
X054452Y046893D03*
X053452Y046893D03*
D15*
X036577Y010143D03*
X029077Y010143D03*
D16*
X020553Y037206D02*
X019726Y037206D01*
X019726Y038206D02*
X020553Y038206D01*
X020553Y039206D02*
X019726Y039206D01*
X019726Y040206D02*
X020553Y040206D01*
X020553Y041206D02*
X019726Y041206D01*
X019726Y042206D02*
X020553Y042206D01*
X020553Y043206D02*
X019726Y043206D01*
X019726Y044206D02*
X020553Y044206D01*
X024726Y044206D02*
X025553Y044206D01*
X025553Y045206D02*
X024726Y045206D01*
X024726Y046206D02*
X025553Y046206D01*
D17*
X023014Y020893D03*
X032389Y020893D03*
X055514Y013393D03*
X064889Y013393D03*
D18*
X056452Y045393D03*
X007202Y017018D03*
X004827Y014893D03*
D19*
X004827Y020268D01*
X002952Y020268D01*
X007202Y022893D02*
X007202Y017018D01*
X007202Y022893D02*
X009952Y022893D01*
X020139Y037206D02*
X023577Y034706D01*
X024577Y037893D01*
X028327Y037893D01*
X026452Y043393D02*
X023827Y043393D01*
X023827Y045393D01*
X021702Y045393D01*
X021702Y044206D01*
X026452Y043393D02*
X026452Y045393D01*
X053452Y045393D01*
X053452Y046893D01*
X053452Y045393D02*
X056452Y045393D01*
X060452Y044643D02*
X030202Y044643D01*
X030077Y044643D01*
D20*
X021702Y044206D03*
X017889Y044143D03*
X009952Y021393D03*
X061514Y043893D03*
D21*
X020139Y037206D02*
X020139Y022893D01*
X009952Y022893D01*
X009952Y021393D01*
X002952Y020268D02*
X002952Y031768D01*
D22*
X028327Y037893D02*
X028327Y044643D01*
X030202Y044643D01*
D23*
X060452Y044643D02*
X061514Y044643D01*
X061514Y043893D01*
D24*
X001389Y005143D03*
X008202Y005143D03*
X015702Y005143D03*
X023202Y005143D03*
X032702Y005143D03*
X042202Y005143D03*
X051702Y005143D03*
X061452Y005143D03*
X065202Y005143D03*
X069264Y005143D03*
X069264Y055643D03*
X071452Y055643D03*
X065202Y055643D03*
X061452Y055643D03*
X056202Y055643D03*
X047202Y055643D03*
X039702Y055643D03*
X032202Y055643D03*
X021202Y055643D03*
X010202Y055643D03*
X001389Y055643D03*
X001389Y046893D03*
X001389Y039393D03*
X001389Y031893D03*
X001389Y022893D03*
X001389Y013893D03*
D25*
X010202Y024393D03*
X010202Y031893D03*
X010827Y039393D03*
X010202Y046893D03*
X025827Y036393D03*
X023827Y028893D03*
X035202Y028893D03*
X042702Y028893D03*
X050202Y028893D03*
X057702Y028893D03*
X065202Y028893D03*
X065202Y021393D03*
X057702Y021393D03*
X050202Y021393D03*
X042702Y021393D03*
X035202Y021393D03*
X041452Y013518D03*
X050202Y013893D03*
X057702Y014393D03*
X057702Y036393D03*
X065202Y036393D03*
X065202Y043893D03*
X065202Y046893D03*
X050202Y036393D03*
X042702Y036393D03*
X035202Y036393D03*
X032202Y046893D03*
X039702Y046893D03*
X047202Y046893D03*
X025077Y014018D03*
X017702Y013893D03*
D26*
X017889Y032143D02*
X012202Y032143D01*
X010827Y033768D01*
X009327Y033768D01*
X008702Y033393D01*
X007952Y032643D01*
X007952Y031768D01*
X002952Y031768D01*
X017889Y032143D02*
X017889Y044143D01*
M02*
