G75*
G70*
%OFA0B0*%
%FSLAX24Y24*%
%IPPOS*%
%LPD*%
%AMOC8*
5,1,8,0,0,1.08239X$1,22.5*
%
%ADD10C,0.0079*%
%ADD11C,0.0100*%
%ADD12C,0.0000*%
D10*
X001389Y003893D02*
X069264Y003893D01*
X069332Y003895D01*
X069399Y003900D01*
X069466Y003909D01*
X069533Y003922D01*
X069598Y003939D01*
X069663Y003958D01*
X069727Y003982D01*
X069789Y004009D01*
X069850Y004039D01*
X069908Y004072D01*
X069965Y004108D01*
X070020Y004148D01*
X070073Y004190D01*
X070124Y004236D01*
X070171Y004283D01*
X070217Y004334D01*
X070259Y004387D01*
X070299Y004442D01*
X070335Y004499D01*
X070368Y004557D01*
X070398Y004618D01*
X070425Y004680D01*
X070449Y004744D01*
X070468Y004809D01*
X070485Y004874D01*
X070498Y004941D01*
X070507Y005008D01*
X070512Y005075D01*
X070514Y005143D01*
X070514Y012768D01*
X070514Y014018D01*
X071452Y014018D01*
X071764Y014018D01*
X072702Y014018D01*
X072702Y015268D01*
X072702Y055643D01*
X072700Y055711D01*
X072695Y055778D01*
X072686Y055845D01*
X072673Y055912D01*
X072656Y055977D01*
X072637Y056042D01*
X072613Y056106D01*
X072586Y056168D01*
X072556Y056229D01*
X072523Y056287D01*
X072487Y056344D01*
X072447Y056399D01*
X072405Y056452D01*
X072359Y056503D01*
X072312Y056550D01*
X072261Y056596D01*
X072208Y056638D01*
X072153Y056678D01*
X072096Y056714D01*
X072038Y056747D01*
X071977Y056777D01*
X071915Y056804D01*
X071851Y056828D01*
X071786Y056847D01*
X071721Y056864D01*
X071654Y056877D01*
X071587Y056886D01*
X071520Y056891D01*
X071452Y056893D01*
X001389Y056893D01*
X001321Y056891D01*
X001254Y056886D01*
X001187Y056877D01*
X001120Y056864D01*
X001055Y056847D01*
X000990Y056828D01*
X000926Y056804D01*
X000864Y056777D01*
X000803Y056747D01*
X000745Y056714D01*
X000688Y056678D01*
X000633Y056638D01*
X000580Y056596D01*
X000529Y056550D01*
X000482Y056503D01*
X000436Y056452D01*
X000394Y056399D01*
X000354Y056344D01*
X000318Y056287D01*
X000285Y056229D01*
X000255Y056168D01*
X000228Y056106D01*
X000204Y056042D01*
X000185Y055977D01*
X000168Y055912D01*
X000155Y055845D01*
X000146Y055778D01*
X000141Y055711D01*
X000139Y055643D01*
X000139Y005143D01*
X000141Y005075D01*
X000146Y005008D01*
X000155Y004941D01*
X000168Y004874D01*
X000185Y004809D01*
X000204Y004744D01*
X000228Y004680D01*
X000255Y004618D01*
X000285Y004557D01*
X000318Y004499D01*
X000354Y004442D01*
X000394Y004387D01*
X000436Y004334D01*
X000482Y004283D01*
X000529Y004236D01*
X000580Y004190D01*
X000633Y004148D01*
X000688Y004108D01*
X000745Y004072D01*
X000803Y004039D01*
X000864Y004009D01*
X000926Y003982D01*
X000990Y003958D01*
X001055Y003939D01*
X001120Y003922D01*
X001187Y003909D01*
X001254Y003900D01*
X001321Y003895D01*
X001389Y003893D01*
X019452Y046081D02*
X019452Y052081D01*
X024202Y052081D01*
X024202Y046081D01*
X019452Y046081D01*
X071452Y014018D02*
X071520Y014020D01*
X071587Y014025D01*
X071654Y014034D01*
X071721Y014047D01*
X071786Y014064D01*
X071851Y014083D01*
X071915Y014107D01*
X071977Y014134D01*
X072038Y014164D01*
X072096Y014197D01*
X072153Y014233D01*
X072208Y014273D01*
X072261Y014315D01*
X072312Y014361D01*
X072359Y014408D01*
X072405Y014459D01*
X072447Y014512D01*
X072487Y014567D01*
X072523Y014624D01*
X072556Y014682D01*
X072586Y014743D01*
X072613Y014805D01*
X072637Y014869D01*
X072656Y014934D01*
X072673Y014999D01*
X072686Y015066D01*
X072695Y015133D01*
X072700Y015200D01*
X072702Y015268D01*
X071764Y014018D02*
X071696Y014016D01*
X071629Y014011D01*
X071562Y014002D01*
X071495Y013989D01*
X071430Y013972D01*
X071365Y013953D01*
X071301Y013929D01*
X071239Y013902D01*
X071178Y013872D01*
X071120Y013839D01*
X071063Y013803D01*
X071008Y013763D01*
X070955Y013721D01*
X070904Y013675D01*
X070857Y013628D01*
X070811Y013577D01*
X070769Y013524D01*
X070729Y013469D01*
X070693Y013412D01*
X070660Y013354D01*
X070630Y013293D01*
X070603Y013231D01*
X070579Y013167D01*
X070560Y013102D01*
X070543Y013037D01*
X070530Y012970D01*
X070521Y012903D01*
X070516Y012836D01*
X070514Y012768D01*
D11*
X064611Y021393D02*
X064613Y021441D01*
X064619Y021489D01*
X064629Y021536D01*
X064642Y021582D01*
X064660Y021627D01*
X064680Y021671D01*
X064705Y021713D01*
X064733Y021752D01*
X064763Y021789D01*
X064797Y021823D01*
X064834Y021855D01*
X064872Y021884D01*
X064913Y021909D01*
X064956Y021931D01*
X065001Y021949D01*
X065047Y021963D01*
X065094Y021974D01*
X065142Y021981D01*
X065190Y021984D01*
X065238Y021983D01*
X065286Y021978D01*
X065334Y021969D01*
X065380Y021957D01*
X065425Y021940D01*
X065469Y021920D01*
X065511Y021897D01*
X065551Y021870D01*
X065589Y021840D01*
X065624Y021807D01*
X065656Y021771D01*
X065686Y021733D01*
X065712Y021692D01*
X065734Y021649D01*
X065754Y021605D01*
X065769Y021560D01*
X065781Y021513D01*
X065789Y021465D01*
X065793Y021417D01*
X065793Y021369D01*
X065789Y021321D01*
X065781Y021273D01*
X065769Y021226D01*
X065754Y021181D01*
X065734Y021137D01*
X065712Y021094D01*
X065686Y021053D01*
X065656Y021015D01*
X065624Y020979D01*
X065589Y020946D01*
X065551Y020916D01*
X065511Y020889D01*
X065469Y020866D01*
X065425Y020846D01*
X065380Y020829D01*
X065334Y020817D01*
X065286Y020808D01*
X065238Y020803D01*
X065190Y020802D01*
X065142Y020805D01*
X065094Y020812D01*
X065047Y020823D01*
X065001Y020837D01*
X064956Y020855D01*
X064913Y020877D01*
X064872Y020902D01*
X064834Y020931D01*
X064797Y020963D01*
X064763Y020997D01*
X064733Y021034D01*
X064705Y021073D01*
X064680Y021115D01*
X064660Y021159D01*
X064642Y021204D01*
X064629Y021250D01*
X064619Y021297D01*
X064613Y021345D01*
X064611Y021393D01*
X056718Y021393D02*
X056720Y021455D01*
X056726Y021518D01*
X056736Y021579D01*
X056750Y021640D01*
X056767Y021700D01*
X056788Y021759D01*
X056814Y021816D01*
X056842Y021871D01*
X056874Y021925D01*
X056910Y021976D01*
X056948Y022026D01*
X056990Y022072D01*
X057034Y022116D01*
X057082Y022157D01*
X057131Y022195D01*
X057183Y022229D01*
X057237Y022260D01*
X057293Y022288D01*
X057351Y022312D01*
X057410Y022333D01*
X057470Y022349D01*
X057531Y022362D01*
X057593Y022371D01*
X057655Y022376D01*
X057718Y022377D01*
X057780Y022374D01*
X057842Y022367D01*
X057904Y022356D01*
X057964Y022341D01*
X058024Y022323D01*
X058082Y022301D01*
X058139Y022275D01*
X058194Y022245D01*
X058247Y022212D01*
X058298Y022176D01*
X058346Y022137D01*
X058392Y022094D01*
X058435Y022049D01*
X058475Y022001D01*
X058512Y021951D01*
X058546Y021898D01*
X058577Y021844D01*
X058603Y021788D01*
X058627Y021730D01*
X058646Y021670D01*
X058662Y021610D01*
X058674Y021548D01*
X058682Y021487D01*
X058686Y021424D01*
X058686Y021362D01*
X058682Y021299D01*
X058674Y021238D01*
X058662Y021176D01*
X058646Y021116D01*
X058627Y021056D01*
X058603Y020998D01*
X058577Y020942D01*
X058546Y020888D01*
X058512Y020835D01*
X058475Y020785D01*
X058435Y020737D01*
X058392Y020692D01*
X058346Y020649D01*
X058298Y020610D01*
X058247Y020574D01*
X058194Y020541D01*
X058139Y020511D01*
X058082Y020485D01*
X058024Y020463D01*
X057964Y020445D01*
X057904Y020430D01*
X057842Y020419D01*
X057780Y020412D01*
X057718Y020409D01*
X057655Y020410D01*
X057593Y020415D01*
X057531Y020424D01*
X057470Y020437D01*
X057410Y020453D01*
X057351Y020474D01*
X057293Y020498D01*
X057237Y020526D01*
X057183Y020557D01*
X057131Y020591D01*
X057082Y020629D01*
X057034Y020670D01*
X056990Y020714D01*
X056948Y020760D01*
X056910Y020810D01*
X056874Y020861D01*
X056842Y020915D01*
X056814Y020970D01*
X056788Y021027D01*
X056767Y021086D01*
X056750Y021146D01*
X056736Y021207D01*
X056726Y021268D01*
X056720Y021331D01*
X056718Y021393D01*
X049218Y021393D02*
X049220Y021455D01*
X049226Y021518D01*
X049236Y021579D01*
X049250Y021640D01*
X049267Y021700D01*
X049288Y021759D01*
X049314Y021816D01*
X049342Y021871D01*
X049374Y021925D01*
X049410Y021976D01*
X049448Y022026D01*
X049490Y022072D01*
X049534Y022116D01*
X049582Y022157D01*
X049631Y022195D01*
X049683Y022229D01*
X049737Y022260D01*
X049793Y022288D01*
X049851Y022312D01*
X049910Y022333D01*
X049970Y022349D01*
X050031Y022362D01*
X050093Y022371D01*
X050155Y022376D01*
X050218Y022377D01*
X050280Y022374D01*
X050342Y022367D01*
X050404Y022356D01*
X050464Y022341D01*
X050524Y022323D01*
X050582Y022301D01*
X050639Y022275D01*
X050694Y022245D01*
X050747Y022212D01*
X050798Y022176D01*
X050846Y022137D01*
X050892Y022094D01*
X050935Y022049D01*
X050975Y022001D01*
X051012Y021951D01*
X051046Y021898D01*
X051077Y021844D01*
X051103Y021788D01*
X051127Y021730D01*
X051146Y021670D01*
X051162Y021610D01*
X051174Y021548D01*
X051182Y021487D01*
X051186Y021424D01*
X051186Y021362D01*
X051182Y021299D01*
X051174Y021238D01*
X051162Y021176D01*
X051146Y021116D01*
X051127Y021056D01*
X051103Y020998D01*
X051077Y020942D01*
X051046Y020888D01*
X051012Y020835D01*
X050975Y020785D01*
X050935Y020737D01*
X050892Y020692D01*
X050846Y020649D01*
X050798Y020610D01*
X050747Y020574D01*
X050694Y020541D01*
X050639Y020511D01*
X050582Y020485D01*
X050524Y020463D01*
X050464Y020445D01*
X050404Y020430D01*
X050342Y020419D01*
X050280Y020412D01*
X050218Y020409D01*
X050155Y020410D01*
X050093Y020415D01*
X050031Y020424D01*
X049970Y020437D01*
X049910Y020453D01*
X049851Y020474D01*
X049793Y020498D01*
X049737Y020526D01*
X049683Y020557D01*
X049631Y020591D01*
X049582Y020629D01*
X049534Y020670D01*
X049490Y020714D01*
X049448Y020760D01*
X049410Y020810D01*
X049374Y020861D01*
X049342Y020915D01*
X049314Y020970D01*
X049288Y021027D01*
X049267Y021086D01*
X049250Y021146D01*
X049236Y021207D01*
X049226Y021268D01*
X049220Y021331D01*
X049218Y021393D01*
X041718Y021393D02*
X041720Y021455D01*
X041726Y021518D01*
X041736Y021579D01*
X041750Y021640D01*
X041767Y021700D01*
X041788Y021759D01*
X041814Y021816D01*
X041842Y021871D01*
X041874Y021925D01*
X041910Y021976D01*
X041948Y022026D01*
X041990Y022072D01*
X042034Y022116D01*
X042082Y022157D01*
X042131Y022195D01*
X042183Y022229D01*
X042237Y022260D01*
X042293Y022288D01*
X042351Y022312D01*
X042410Y022333D01*
X042470Y022349D01*
X042531Y022362D01*
X042593Y022371D01*
X042655Y022376D01*
X042718Y022377D01*
X042780Y022374D01*
X042842Y022367D01*
X042904Y022356D01*
X042964Y022341D01*
X043024Y022323D01*
X043082Y022301D01*
X043139Y022275D01*
X043194Y022245D01*
X043247Y022212D01*
X043298Y022176D01*
X043346Y022137D01*
X043392Y022094D01*
X043435Y022049D01*
X043475Y022001D01*
X043512Y021951D01*
X043546Y021898D01*
X043577Y021844D01*
X043603Y021788D01*
X043627Y021730D01*
X043646Y021670D01*
X043662Y021610D01*
X043674Y021548D01*
X043682Y021487D01*
X043686Y021424D01*
X043686Y021362D01*
X043682Y021299D01*
X043674Y021238D01*
X043662Y021176D01*
X043646Y021116D01*
X043627Y021056D01*
X043603Y020998D01*
X043577Y020942D01*
X043546Y020888D01*
X043512Y020835D01*
X043475Y020785D01*
X043435Y020737D01*
X043392Y020692D01*
X043346Y020649D01*
X043298Y020610D01*
X043247Y020574D01*
X043194Y020541D01*
X043139Y020511D01*
X043082Y020485D01*
X043024Y020463D01*
X042964Y020445D01*
X042904Y020430D01*
X042842Y020419D01*
X042780Y020412D01*
X042718Y020409D01*
X042655Y020410D01*
X042593Y020415D01*
X042531Y020424D01*
X042470Y020437D01*
X042410Y020453D01*
X042351Y020474D01*
X042293Y020498D01*
X042237Y020526D01*
X042183Y020557D01*
X042131Y020591D01*
X042082Y020629D01*
X042034Y020670D01*
X041990Y020714D01*
X041948Y020760D01*
X041910Y020810D01*
X041874Y020861D01*
X041842Y020915D01*
X041814Y020970D01*
X041788Y021027D01*
X041767Y021086D01*
X041750Y021146D01*
X041736Y021207D01*
X041726Y021268D01*
X041720Y021331D01*
X041718Y021393D01*
X034218Y021393D02*
X034220Y021455D01*
X034226Y021518D01*
X034236Y021579D01*
X034250Y021640D01*
X034267Y021700D01*
X034288Y021759D01*
X034314Y021816D01*
X034342Y021871D01*
X034374Y021925D01*
X034410Y021976D01*
X034448Y022026D01*
X034490Y022072D01*
X034534Y022116D01*
X034582Y022157D01*
X034631Y022195D01*
X034683Y022229D01*
X034737Y022260D01*
X034793Y022288D01*
X034851Y022312D01*
X034910Y022333D01*
X034970Y022349D01*
X035031Y022362D01*
X035093Y022371D01*
X035155Y022376D01*
X035218Y022377D01*
X035280Y022374D01*
X035342Y022367D01*
X035404Y022356D01*
X035464Y022341D01*
X035524Y022323D01*
X035582Y022301D01*
X035639Y022275D01*
X035694Y022245D01*
X035747Y022212D01*
X035798Y022176D01*
X035846Y022137D01*
X035892Y022094D01*
X035935Y022049D01*
X035975Y022001D01*
X036012Y021951D01*
X036046Y021898D01*
X036077Y021844D01*
X036103Y021788D01*
X036127Y021730D01*
X036146Y021670D01*
X036162Y021610D01*
X036174Y021548D01*
X036182Y021487D01*
X036186Y021424D01*
X036186Y021362D01*
X036182Y021299D01*
X036174Y021238D01*
X036162Y021176D01*
X036146Y021116D01*
X036127Y021056D01*
X036103Y020998D01*
X036077Y020942D01*
X036046Y020888D01*
X036012Y020835D01*
X035975Y020785D01*
X035935Y020737D01*
X035892Y020692D01*
X035846Y020649D01*
X035798Y020610D01*
X035747Y020574D01*
X035694Y020541D01*
X035639Y020511D01*
X035582Y020485D01*
X035524Y020463D01*
X035464Y020445D01*
X035404Y020430D01*
X035342Y020419D01*
X035280Y020412D01*
X035218Y020409D01*
X035155Y020410D01*
X035093Y020415D01*
X035031Y020424D01*
X034970Y020437D01*
X034910Y020453D01*
X034851Y020474D01*
X034793Y020498D01*
X034737Y020526D01*
X034683Y020557D01*
X034631Y020591D01*
X034582Y020629D01*
X034534Y020670D01*
X034490Y020714D01*
X034448Y020760D01*
X034410Y020810D01*
X034374Y020861D01*
X034342Y020915D01*
X034314Y020970D01*
X034288Y021027D01*
X034267Y021086D01*
X034250Y021146D01*
X034236Y021207D01*
X034226Y021268D01*
X034220Y021331D01*
X034218Y021393D01*
X034218Y028893D02*
X034220Y028955D01*
X034226Y029018D01*
X034236Y029079D01*
X034250Y029140D01*
X034267Y029200D01*
X034288Y029259D01*
X034314Y029316D01*
X034342Y029371D01*
X034374Y029425D01*
X034410Y029476D01*
X034448Y029526D01*
X034490Y029572D01*
X034534Y029616D01*
X034582Y029657D01*
X034631Y029695D01*
X034683Y029729D01*
X034737Y029760D01*
X034793Y029788D01*
X034851Y029812D01*
X034910Y029833D01*
X034970Y029849D01*
X035031Y029862D01*
X035093Y029871D01*
X035155Y029876D01*
X035218Y029877D01*
X035280Y029874D01*
X035342Y029867D01*
X035404Y029856D01*
X035464Y029841D01*
X035524Y029823D01*
X035582Y029801D01*
X035639Y029775D01*
X035694Y029745D01*
X035747Y029712D01*
X035798Y029676D01*
X035846Y029637D01*
X035892Y029594D01*
X035935Y029549D01*
X035975Y029501D01*
X036012Y029451D01*
X036046Y029398D01*
X036077Y029344D01*
X036103Y029288D01*
X036127Y029230D01*
X036146Y029170D01*
X036162Y029110D01*
X036174Y029048D01*
X036182Y028987D01*
X036186Y028924D01*
X036186Y028862D01*
X036182Y028799D01*
X036174Y028738D01*
X036162Y028676D01*
X036146Y028616D01*
X036127Y028556D01*
X036103Y028498D01*
X036077Y028442D01*
X036046Y028388D01*
X036012Y028335D01*
X035975Y028285D01*
X035935Y028237D01*
X035892Y028192D01*
X035846Y028149D01*
X035798Y028110D01*
X035747Y028074D01*
X035694Y028041D01*
X035639Y028011D01*
X035582Y027985D01*
X035524Y027963D01*
X035464Y027945D01*
X035404Y027930D01*
X035342Y027919D01*
X035280Y027912D01*
X035218Y027909D01*
X035155Y027910D01*
X035093Y027915D01*
X035031Y027924D01*
X034970Y027937D01*
X034910Y027953D01*
X034851Y027974D01*
X034793Y027998D01*
X034737Y028026D01*
X034683Y028057D01*
X034631Y028091D01*
X034582Y028129D01*
X034534Y028170D01*
X034490Y028214D01*
X034448Y028260D01*
X034410Y028310D01*
X034374Y028361D01*
X034342Y028415D01*
X034314Y028470D01*
X034288Y028527D01*
X034267Y028586D01*
X034250Y028646D01*
X034236Y028707D01*
X034226Y028768D01*
X034220Y028831D01*
X034218Y028893D01*
X041718Y028893D02*
X041720Y028955D01*
X041726Y029018D01*
X041736Y029079D01*
X041750Y029140D01*
X041767Y029200D01*
X041788Y029259D01*
X041814Y029316D01*
X041842Y029371D01*
X041874Y029425D01*
X041910Y029476D01*
X041948Y029526D01*
X041990Y029572D01*
X042034Y029616D01*
X042082Y029657D01*
X042131Y029695D01*
X042183Y029729D01*
X042237Y029760D01*
X042293Y029788D01*
X042351Y029812D01*
X042410Y029833D01*
X042470Y029849D01*
X042531Y029862D01*
X042593Y029871D01*
X042655Y029876D01*
X042718Y029877D01*
X042780Y029874D01*
X042842Y029867D01*
X042904Y029856D01*
X042964Y029841D01*
X043024Y029823D01*
X043082Y029801D01*
X043139Y029775D01*
X043194Y029745D01*
X043247Y029712D01*
X043298Y029676D01*
X043346Y029637D01*
X043392Y029594D01*
X043435Y029549D01*
X043475Y029501D01*
X043512Y029451D01*
X043546Y029398D01*
X043577Y029344D01*
X043603Y029288D01*
X043627Y029230D01*
X043646Y029170D01*
X043662Y029110D01*
X043674Y029048D01*
X043682Y028987D01*
X043686Y028924D01*
X043686Y028862D01*
X043682Y028799D01*
X043674Y028738D01*
X043662Y028676D01*
X043646Y028616D01*
X043627Y028556D01*
X043603Y028498D01*
X043577Y028442D01*
X043546Y028388D01*
X043512Y028335D01*
X043475Y028285D01*
X043435Y028237D01*
X043392Y028192D01*
X043346Y028149D01*
X043298Y028110D01*
X043247Y028074D01*
X043194Y028041D01*
X043139Y028011D01*
X043082Y027985D01*
X043024Y027963D01*
X042964Y027945D01*
X042904Y027930D01*
X042842Y027919D01*
X042780Y027912D01*
X042718Y027909D01*
X042655Y027910D01*
X042593Y027915D01*
X042531Y027924D01*
X042470Y027937D01*
X042410Y027953D01*
X042351Y027974D01*
X042293Y027998D01*
X042237Y028026D01*
X042183Y028057D01*
X042131Y028091D01*
X042082Y028129D01*
X042034Y028170D01*
X041990Y028214D01*
X041948Y028260D01*
X041910Y028310D01*
X041874Y028361D01*
X041842Y028415D01*
X041814Y028470D01*
X041788Y028527D01*
X041767Y028586D01*
X041750Y028646D01*
X041736Y028707D01*
X041726Y028768D01*
X041720Y028831D01*
X041718Y028893D01*
X049218Y028893D02*
X049220Y028955D01*
X049226Y029018D01*
X049236Y029079D01*
X049250Y029140D01*
X049267Y029200D01*
X049288Y029259D01*
X049314Y029316D01*
X049342Y029371D01*
X049374Y029425D01*
X049410Y029476D01*
X049448Y029526D01*
X049490Y029572D01*
X049534Y029616D01*
X049582Y029657D01*
X049631Y029695D01*
X049683Y029729D01*
X049737Y029760D01*
X049793Y029788D01*
X049851Y029812D01*
X049910Y029833D01*
X049970Y029849D01*
X050031Y029862D01*
X050093Y029871D01*
X050155Y029876D01*
X050218Y029877D01*
X050280Y029874D01*
X050342Y029867D01*
X050404Y029856D01*
X050464Y029841D01*
X050524Y029823D01*
X050582Y029801D01*
X050639Y029775D01*
X050694Y029745D01*
X050747Y029712D01*
X050798Y029676D01*
X050846Y029637D01*
X050892Y029594D01*
X050935Y029549D01*
X050975Y029501D01*
X051012Y029451D01*
X051046Y029398D01*
X051077Y029344D01*
X051103Y029288D01*
X051127Y029230D01*
X051146Y029170D01*
X051162Y029110D01*
X051174Y029048D01*
X051182Y028987D01*
X051186Y028924D01*
X051186Y028862D01*
X051182Y028799D01*
X051174Y028738D01*
X051162Y028676D01*
X051146Y028616D01*
X051127Y028556D01*
X051103Y028498D01*
X051077Y028442D01*
X051046Y028388D01*
X051012Y028335D01*
X050975Y028285D01*
X050935Y028237D01*
X050892Y028192D01*
X050846Y028149D01*
X050798Y028110D01*
X050747Y028074D01*
X050694Y028041D01*
X050639Y028011D01*
X050582Y027985D01*
X050524Y027963D01*
X050464Y027945D01*
X050404Y027930D01*
X050342Y027919D01*
X050280Y027912D01*
X050218Y027909D01*
X050155Y027910D01*
X050093Y027915D01*
X050031Y027924D01*
X049970Y027937D01*
X049910Y027953D01*
X049851Y027974D01*
X049793Y027998D01*
X049737Y028026D01*
X049683Y028057D01*
X049631Y028091D01*
X049582Y028129D01*
X049534Y028170D01*
X049490Y028214D01*
X049448Y028260D01*
X049410Y028310D01*
X049374Y028361D01*
X049342Y028415D01*
X049314Y028470D01*
X049288Y028527D01*
X049267Y028586D01*
X049250Y028646D01*
X049236Y028707D01*
X049226Y028768D01*
X049220Y028831D01*
X049218Y028893D01*
X056718Y028893D02*
X056720Y028955D01*
X056726Y029018D01*
X056736Y029079D01*
X056750Y029140D01*
X056767Y029200D01*
X056788Y029259D01*
X056814Y029316D01*
X056842Y029371D01*
X056874Y029425D01*
X056910Y029476D01*
X056948Y029526D01*
X056990Y029572D01*
X057034Y029616D01*
X057082Y029657D01*
X057131Y029695D01*
X057183Y029729D01*
X057237Y029760D01*
X057293Y029788D01*
X057351Y029812D01*
X057410Y029833D01*
X057470Y029849D01*
X057531Y029862D01*
X057593Y029871D01*
X057655Y029876D01*
X057718Y029877D01*
X057780Y029874D01*
X057842Y029867D01*
X057904Y029856D01*
X057964Y029841D01*
X058024Y029823D01*
X058082Y029801D01*
X058139Y029775D01*
X058194Y029745D01*
X058247Y029712D01*
X058298Y029676D01*
X058346Y029637D01*
X058392Y029594D01*
X058435Y029549D01*
X058475Y029501D01*
X058512Y029451D01*
X058546Y029398D01*
X058577Y029344D01*
X058603Y029288D01*
X058627Y029230D01*
X058646Y029170D01*
X058662Y029110D01*
X058674Y029048D01*
X058682Y028987D01*
X058686Y028924D01*
X058686Y028862D01*
X058682Y028799D01*
X058674Y028738D01*
X058662Y028676D01*
X058646Y028616D01*
X058627Y028556D01*
X058603Y028498D01*
X058577Y028442D01*
X058546Y028388D01*
X058512Y028335D01*
X058475Y028285D01*
X058435Y028237D01*
X058392Y028192D01*
X058346Y028149D01*
X058298Y028110D01*
X058247Y028074D01*
X058194Y028041D01*
X058139Y028011D01*
X058082Y027985D01*
X058024Y027963D01*
X057964Y027945D01*
X057904Y027930D01*
X057842Y027919D01*
X057780Y027912D01*
X057718Y027909D01*
X057655Y027910D01*
X057593Y027915D01*
X057531Y027924D01*
X057470Y027937D01*
X057410Y027953D01*
X057351Y027974D01*
X057293Y027998D01*
X057237Y028026D01*
X057183Y028057D01*
X057131Y028091D01*
X057082Y028129D01*
X057034Y028170D01*
X056990Y028214D01*
X056948Y028260D01*
X056910Y028310D01*
X056874Y028361D01*
X056842Y028415D01*
X056814Y028470D01*
X056788Y028527D01*
X056767Y028586D01*
X056750Y028646D01*
X056736Y028707D01*
X056726Y028768D01*
X056720Y028831D01*
X056718Y028893D01*
X064611Y028893D02*
X064613Y028941D01*
X064619Y028989D01*
X064629Y029036D01*
X064642Y029082D01*
X064660Y029127D01*
X064680Y029171D01*
X064705Y029213D01*
X064733Y029252D01*
X064763Y029289D01*
X064797Y029323D01*
X064834Y029355D01*
X064872Y029384D01*
X064913Y029409D01*
X064956Y029431D01*
X065001Y029449D01*
X065047Y029463D01*
X065094Y029474D01*
X065142Y029481D01*
X065190Y029484D01*
X065238Y029483D01*
X065286Y029478D01*
X065334Y029469D01*
X065380Y029457D01*
X065425Y029440D01*
X065469Y029420D01*
X065511Y029397D01*
X065551Y029370D01*
X065589Y029340D01*
X065624Y029307D01*
X065656Y029271D01*
X065686Y029233D01*
X065712Y029192D01*
X065734Y029149D01*
X065754Y029105D01*
X065769Y029060D01*
X065781Y029013D01*
X065789Y028965D01*
X065793Y028917D01*
X065793Y028869D01*
X065789Y028821D01*
X065781Y028773D01*
X065769Y028726D01*
X065754Y028681D01*
X065734Y028637D01*
X065712Y028594D01*
X065686Y028553D01*
X065656Y028515D01*
X065624Y028479D01*
X065589Y028446D01*
X065551Y028416D01*
X065511Y028389D01*
X065469Y028366D01*
X065425Y028346D01*
X065380Y028329D01*
X065334Y028317D01*
X065286Y028308D01*
X065238Y028303D01*
X065190Y028302D01*
X065142Y028305D01*
X065094Y028312D01*
X065047Y028323D01*
X065001Y028337D01*
X064956Y028355D01*
X064913Y028377D01*
X064872Y028402D01*
X064834Y028431D01*
X064797Y028463D01*
X064763Y028497D01*
X064733Y028534D01*
X064705Y028573D01*
X064680Y028615D01*
X064660Y028659D01*
X064642Y028704D01*
X064629Y028750D01*
X064619Y028797D01*
X064613Y028845D01*
X064611Y028893D01*
X064611Y036393D02*
X064613Y036441D01*
X064619Y036489D01*
X064629Y036536D01*
X064642Y036582D01*
X064660Y036627D01*
X064680Y036671D01*
X064705Y036713D01*
X064733Y036752D01*
X064763Y036789D01*
X064797Y036823D01*
X064834Y036855D01*
X064872Y036884D01*
X064913Y036909D01*
X064956Y036931D01*
X065001Y036949D01*
X065047Y036963D01*
X065094Y036974D01*
X065142Y036981D01*
X065190Y036984D01*
X065238Y036983D01*
X065286Y036978D01*
X065334Y036969D01*
X065380Y036957D01*
X065425Y036940D01*
X065469Y036920D01*
X065511Y036897D01*
X065551Y036870D01*
X065589Y036840D01*
X065624Y036807D01*
X065656Y036771D01*
X065686Y036733D01*
X065712Y036692D01*
X065734Y036649D01*
X065754Y036605D01*
X065769Y036560D01*
X065781Y036513D01*
X065789Y036465D01*
X065793Y036417D01*
X065793Y036369D01*
X065789Y036321D01*
X065781Y036273D01*
X065769Y036226D01*
X065754Y036181D01*
X065734Y036137D01*
X065712Y036094D01*
X065686Y036053D01*
X065656Y036015D01*
X065624Y035979D01*
X065589Y035946D01*
X065551Y035916D01*
X065511Y035889D01*
X065469Y035866D01*
X065425Y035846D01*
X065380Y035829D01*
X065334Y035817D01*
X065286Y035808D01*
X065238Y035803D01*
X065190Y035802D01*
X065142Y035805D01*
X065094Y035812D01*
X065047Y035823D01*
X065001Y035837D01*
X064956Y035855D01*
X064913Y035877D01*
X064872Y035902D01*
X064834Y035931D01*
X064797Y035963D01*
X064763Y035997D01*
X064733Y036034D01*
X064705Y036073D01*
X064680Y036115D01*
X064660Y036159D01*
X064642Y036204D01*
X064629Y036250D01*
X064619Y036297D01*
X064613Y036345D01*
X064611Y036393D01*
X056718Y036393D02*
X056720Y036455D01*
X056726Y036518D01*
X056736Y036579D01*
X056750Y036640D01*
X056767Y036700D01*
X056788Y036759D01*
X056814Y036816D01*
X056842Y036871D01*
X056874Y036925D01*
X056910Y036976D01*
X056948Y037026D01*
X056990Y037072D01*
X057034Y037116D01*
X057082Y037157D01*
X057131Y037195D01*
X057183Y037229D01*
X057237Y037260D01*
X057293Y037288D01*
X057351Y037312D01*
X057410Y037333D01*
X057470Y037349D01*
X057531Y037362D01*
X057593Y037371D01*
X057655Y037376D01*
X057718Y037377D01*
X057780Y037374D01*
X057842Y037367D01*
X057904Y037356D01*
X057964Y037341D01*
X058024Y037323D01*
X058082Y037301D01*
X058139Y037275D01*
X058194Y037245D01*
X058247Y037212D01*
X058298Y037176D01*
X058346Y037137D01*
X058392Y037094D01*
X058435Y037049D01*
X058475Y037001D01*
X058512Y036951D01*
X058546Y036898D01*
X058577Y036844D01*
X058603Y036788D01*
X058627Y036730D01*
X058646Y036670D01*
X058662Y036610D01*
X058674Y036548D01*
X058682Y036487D01*
X058686Y036424D01*
X058686Y036362D01*
X058682Y036299D01*
X058674Y036238D01*
X058662Y036176D01*
X058646Y036116D01*
X058627Y036056D01*
X058603Y035998D01*
X058577Y035942D01*
X058546Y035888D01*
X058512Y035835D01*
X058475Y035785D01*
X058435Y035737D01*
X058392Y035692D01*
X058346Y035649D01*
X058298Y035610D01*
X058247Y035574D01*
X058194Y035541D01*
X058139Y035511D01*
X058082Y035485D01*
X058024Y035463D01*
X057964Y035445D01*
X057904Y035430D01*
X057842Y035419D01*
X057780Y035412D01*
X057718Y035409D01*
X057655Y035410D01*
X057593Y035415D01*
X057531Y035424D01*
X057470Y035437D01*
X057410Y035453D01*
X057351Y035474D01*
X057293Y035498D01*
X057237Y035526D01*
X057183Y035557D01*
X057131Y035591D01*
X057082Y035629D01*
X057034Y035670D01*
X056990Y035714D01*
X056948Y035760D01*
X056910Y035810D01*
X056874Y035861D01*
X056842Y035915D01*
X056814Y035970D01*
X056788Y036027D01*
X056767Y036086D01*
X056750Y036146D01*
X056736Y036207D01*
X056726Y036268D01*
X056720Y036331D01*
X056718Y036393D01*
X049218Y036393D02*
X049220Y036455D01*
X049226Y036518D01*
X049236Y036579D01*
X049250Y036640D01*
X049267Y036700D01*
X049288Y036759D01*
X049314Y036816D01*
X049342Y036871D01*
X049374Y036925D01*
X049410Y036976D01*
X049448Y037026D01*
X049490Y037072D01*
X049534Y037116D01*
X049582Y037157D01*
X049631Y037195D01*
X049683Y037229D01*
X049737Y037260D01*
X049793Y037288D01*
X049851Y037312D01*
X049910Y037333D01*
X049970Y037349D01*
X050031Y037362D01*
X050093Y037371D01*
X050155Y037376D01*
X050218Y037377D01*
X050280Y037374D01*
X050342Y037367D01*
X050404Y037356D01*
X050464Y037341D01*
X050524Y037323D01*
X050582Y037301D01*
X050639Y037275D01*
X050694Y037245D01*
X050747Y037212D01*
X050798Y037176D01*
X050846Y037137D01*
X050892Y037094D01*
X050935Y037049D01*
X050975Y037001D01*
X051012Y036951D01*
X051046Y036898D01*
X051077Y036844D01*
X051103Y036788D01*
X051127Y036730D01*
X051146Y036670D01*
X051162Y036610D01*
X051174Y036548D01*
X051182Y036487D01*
X051186Y036424D01*
X051186Y036362D01*
X051182Y036299D01*
X051174Y036238D01*
X051162Y036176D01*
X051146Y036116D01*
X051127Y036056D01*
X051103Y035998D01*
X051077Y035942D01*
X051046Y035888D01*
X051012Y035835D01*
X050975Y035785D01*
X050935Y035737D01*
X050892Y035692D01*
X050846Y035649D01*
X050798Y035610D01*
X050747Y035574D01*
X050694Y035541D01*
X050639Y035511D01*
X050582Y035485D01*
X050524Y035463D01*
X050464Y035445D01*
X050404Y035430D01*
X050342Y035419D01*
X050280Y035412D01*
X050218Y035409D01*
X050155Y035410D01*
X050093Y035415D01*
X050031Y035424D01*
X049970Y035437D01*
X049910Y035453D01*
X049851Y035474D01*
X049793Y035498D01*
X049737Y035526D01*
X049683Y035557D01*
X049631Y035591D01*
X049582Y035629D01*
X049534Y035670D01*
X049490Y035714D01*
X049448Y035760D01*
X049410Y035810D01*
X049374Y035861D01*
X049342Y035915D01*
X049314Y035970D01*
X049288Y036027D01*
X049267Y036086D01*
X049250Y036146D01*
X049236Y036207D01*
X049226Y036268D01*
X049220Y036331D01*
X049218Y036393D01*
X041718Y036393D02*
X041720Y036455D01*
X041726Y036518D01*
X041736Y036579D01*
X041750Y036640D01*
X041767Y036700D01*
X041788Y036759D01*
X041814Y036816D01*
X041842Y036871D01*
X041874Y036925D01*
X041910Y036976D01*
X041948Y037026D01*
X041990Y037072D01*
X042034Y037116D01*
X042082Y037157D01*
X042131Y037195D01*
X042183Y037229D01*
X042237Y037260D01*
X042293Y037288D01*
X042351Y037312D01*
X042410Y037333D01*
X042470Y037349D01*
X042531Y037362D01*
X042593Y037371D01*
X042655Y037376D01*
X042718Y037377D01*
X042780Y037374D01*
X042842Y037367D01*
X042904Y037356D01*
X042964Y037341D01*
X043024Y037323D01*
X043082Y037301D01*
X043139Y037275D01*
X043194Y037245D01*
X043247Y037212D01*
X043298Y037176D01*
X043346Y037137D01*
X043392Y037094D01*
X043435Y037049D01*
X043475Y037001D01*
X043512Y036951D01*
X043546Y036898D01*
X043577Y036844D01*
X043603Y036788D01*
X043627Y036730D01*
X043646Y036670D01*
X043662Y036610D01*
X043674Y036548D01*
X043682Y036487D01*
X043686Y036424D01*
X043686Y036362D01*
X043682Y036299D01*
X043674Y036238D01*
X043662Y036176D01*
X043646Y036116D01*
X043627Y036056D01*
X043603Y035998D01*
X043577Y035942D01*
X043546Y035888D01*
X043512Y035835D01*
X043475Y035785D01*
X043435Y035737D01*
X043392Y035692D01*
X043346Y035649D01*
X043298Y035610D01*
X043247Y035574D01*
X043194Y035541D01*
X043139Y035511D01*
X043082Y035485D01*
X043024Y035463D01*
X042964Y035445D01*
X042904Y035430D01*
X042842Y035419D01*
X042780Y035412D01*
X042718Y035409D01*
X042655Y035410D01*
X042593Y035415D01*
X042531Y035424D01*
X042470Y035437D01*
X042410Y035453D01*
X042351Y035474D01*
X042293Y035498D01*
X042237Y035526D01*
X042183Y035557D01*
X042131Y035591D01*
X042082Y035629D01*
X042034Y035670D01*
X041990Y035714D01*
X041948Y035760D01*
X041910Y035810D01*
X041874Y035861D01*
X041842Y035915D01*
X041814Y035970D01*
X041788Y036027D01*
X041767Y036086D01*
X041750Y036146D01*
X041736Y036207D01*
X041726Y036268D01*
X041720Y036331D01*
X041718Y036393D01*
X034218Y036393D02*
X034220Y036455D01*
X034226Y036518D01*
X034236Y036579D01*
X034250Y036640D01*
X034267Y036700D01*
X034288Y036759D01*
X034314Y036816D01*
X034342Y036871D01*
X034374Y036925D01*
X034410Y036976D01*
X034448Y037026D01*
X034490Y037072D01*
X034534Y037116D01*
X034582Y037157D01*
X034631Y037195D01*
X034683Y037229D01*
X034737Y037260D01*
X034793Y037288D01*
X034851Y037312D01*
X034910Y037333D01*
X034970Y037349D01*
X035031Y037362D01*
X035093Y037371D01*
X035155Y037376D01*
X035218Y037377D01*
X035280Y037374D01*
X035342Y037367D01*
X035404Y037356D01*
X035464Y037341D01*
X035524Y037323D01*
X035582Y037301D01*
X035639Y037275D01*
X035694Y037245D01*
X035747Y037212D01*
X035798Y037176D01*
X035846Y037137D01*
X035892Y037094D01*
X035935Y037049D01*
X035975Y037001D01*
X036012Y036951D01*
X036046Y036898D01*
X036077Y036844D01*
X036103Y036788D01*
X036127Y036730D01*
X036146Y036670D01*
X036162Y036610D01*
X036174Y036548D01*
X036182Y036487D01*
X036186Y036424D01*
X036186Y036362D01*
X036182Y036299D01*
X036174Y036238D01*
X036162Y036176D01*
X036146Y036116D01*
X036127Y036056D01*
X036103Y035998D01*
X036077Y035942D01*
X036046Y035888D01*
X036012Y035835D01*
X035975Y035785D01*
X035935Y035737D01*
X035892Y035692D01*
X035846Y035649D01*
X035798Y035610D01*
X035747Y035574D01*
X035694Y035541D01*
X035639Y035511D01*
X035582Y035485D01*
X035524Y035463D01*
X035464Y035445D01*
X035404Y035430D01*
X035342Y035419D01*
X035280Y035412D01*
X035218Y035409D01*
X035155Y035410D01*
X035093Y035415D01*
X035031Y035424D01*
X034970Y035437D01*
X034910Y035453D01*
X034851Y035474D01*
X034793Y035498D01*
X034737Y035526D01*
X034683Y035557D01*
X034631Y035591D01*
X034582Y035629D01*
X034534Y035670D01*
X034490Y035714D01*
X034448Y035760D01*
X034410Y035810D01*
X034374Y035861D01*
X034342Y035915D01*
X034314Y035970D01*
X034288Y036027D01*
X034267Y036086D01*
X034250Y036146D01*
X034236Y036207D01*
X034226Y036268D01*
X034220Y036331D01*
X034218Y036393D01*
X024843Y036393D02*
X024845Y036455D01*
X024851Y036518D01*
X024861Y036579D01*
X024875Y036640D01*
X024892Y036700D01*
X024913Y036759D01*
X024939Y036816D01*
X024967Y036871D01*
X024999Y036925D01*
X025035Y036976D01*
X025073Y037026D01*
X025115Y037072D01*
X025159Y037116D01*
X025207Y037157D01*
X025256Y037195D01*
X025308Y037229D01*
X025362Y037260D01*
X025418Y037288D01*
X025476Y037312D01*
X025535Y037333D01*
X025595Y037349D01*
X025656Y037362D01*
X025718Y037371D01*
X025780Y037376D01*
X025843Y037377D01*
X025905Y037374D01*
X025967Y037367D01*
X026029Y037356D01*
X026089Y037341D01*
X026149Y037323D01*
X026207Y037301D01*
X026264Y037275D01*
X026319Y037245D01*
X026372Y037212D01*
X026423Y037176D01*
X026471Y037137D01*
X026517Y037094D01*
X026560Y037049D01*
X026600Y037001D01*
X026637Y036951D01*
X026671Y036898D01*
X026702Y036844D01*
X026728Y036788D01*
X026752Y036730D01*
X026771Y036670D01*
X026787Y036610D01*
X026799Y036548D01*
X026807Y036487D01*
X026811Y036424D01*
X026811Y036362D01*
X026807Y036299D01*
X026799Y036238D01*
X026787Y036176D01*
X026771Y036116D01*
X026752Y036056D01*
X026728Y035998D01*
X026702Y035942D01*
X026671Y035888D01*
X026637Y035835D01*
X026600Y035785D01*
X026560Y035737D01*
X026517Y035692D01*
X026471Y035649D01*
X026423Y035610D01*
X026372Y035574D01*
X026319Y035541D01*
X026264Y035511D01*
X026207Y035485D01*
X026149Y035463D01*
X026089Y035445D01*
X026029Y035430D01*
X025967Y035419D01*
X025905Y035412D01*
X025843Y035409D01*
X025780Y035410D01*
X025718Y035415D01*
X025656Y035424D01*
X025595Y035437D01*
X025535Y035453D01*
X025476Y035474D01*
X025418Y035498D01*
X025362Y035526D01*
X025308Y035557D01*
X025256Y035591D01*
X025207Y035629D01*
X025159Y035670D01*
X025115Y035714D01*
X025073Y035760D01*
X025035Y035810D01*
X024999Y035861D01*
X024967Y035915D01*
X024939Y035970D01*
X024913Y036027D01*
X024892Y036086D01*
X024875Y036146D01*
X024861Y036207D01*
X024851Y036268D01*
X024845Y036331D01*
X024843Y036393D01*
X022843Y028893D02*
X022845Y028955D01*
X022851Y029018D01*
X022861Y029079D01*
X022875Y029140D01*
X022892Y029200D01*
X022913Y029259D01*
X022939Y029316D01*
X022967Y029371D01*
X022999Y029425D01*
X023035Y029476D01*
X023073Y029526D01*
X023115Y029572D01*
X023159Y029616D01*
X023207Y029657D01*
X023256Y029695D01*
X023308Y029729D01*
X023362Y029760D01*
X023418Y029788D01*
X023476Y029812D01*
X023535Y029833D01*
X023595Y029849D01*
X023656Y029862D01*
X023718Y029871D01*
X023780Y029876D01*
X023843Y029877D01*
X023905Y029874D01*
X023967Y029867D01*
X024029Y029856D01*
X024089Y029841D01*
X024149Y029823D01*
X024207Y029801D01*
X024264Y029775D01*
X024319Y029745D01*
X024372Y029712D01*
X024423Y029676D01*
X024471Y029637D01*
X024517Y029594D01*
X024560Y029549D01*
X024600Y029501D01*
X024637Y029451D01*
X024671Y029398D01*
X024702Y029344D01*
X024728Y029288D01*
X024752Y029230D01*
X024771Y029170D01*
X024787Y029110D01*
X024799Y029048D01*
X024807Y028987D01*
X024811Y028924D01*
X024811Y028862D01*
X024807Y028799D01*
X024799Y028738D01*
X024787Y028676D01*
X024771Y028616D01*
X024752Y028556D01*
X024728Y028498D01*
X024702Y028442D01*
X024671Y028388D01*
X024637Y028335D01*
X024600Y028285D01*
X024560Y028237D01*
X024517Y028192D01*
X024471Y028149D01*
X024423Y028110D01*
X024372Y028074D01*
X024319Y028041D01*
X024264Y028011D01*
X024207Y027985D01*
X024149Y027963D01*
X024089Y027945D01*
X024029Y027930D01*
X023967Y027919D01*
X023905Y027912D01*
X023843Y027909D01*
X023780Y027910D01*
X023718Y027915D01*
X023656Y027924D01*
X023595Y027937D01*
X023535Y027953D01*
X023476Y027974D01*
X023418Y027998D01*
X023362Y028026D01*
X023308Y028057D01*
X023256Y028091D01*
X023207Y028129D01*
X023159Y028170D01*
X023115Y028214D01*
X023073Y028260D01*
X023035Y028310D01*
X022999Y028361D01*
X022967Y028415D01*
X022939Y028470D01*
X022913Y028527D01*
X022892Y028586D01*
X022875Y028646D01*
X022861Y028707D01*
X022851Y028768D01*
X022845Y028831D01*
X022843Y028893D01*
X009218Y031893D02*
X009220Y031955D01*
X009226Y032018D01*
X009236Y032079D01*
X009250Y032140D01*
X009267Y032200D01*
X009288Y032259D01*
X009314Y032316D01*
X009342Y032371D01*
X009374Y032425D01*
X009410Y032476D01*
X009448Y032526D01*
X009490Y032572D01*
X009534Y032616D01*
X009582Y032657D01*
X009631Y032695D01*
X009683Y032729D01*
X009737Y032760D01*
X009793Y032788D01*
X009851Y032812D01*
X009910Y032833D01*
X009970Y032849D01*
X010031Y032862D01*
X010093Y032871D01*
X010155Y032876D01*
X010218Y032877D01*
X010280Y032874D01*
X010342Y032867D01*
X010404Y032856D01*
X010464Y032841D01*
X010524Y032823D01*
X010582Y032801D01*
X010639Y032775D01*
X010694Y032745D01*
X010747Y032712D01*
X010798Y032676D01*
X010846Y032637D01*
X010892Y032594D01*
X010935Y032549D01*
X010975Y032501D01*
X011012Y032451D01*
X011046Y032398D01*
X011077Y032344D01*
X011103Y032288D01*
X011127Y032230D01*
X011146Y032170D01*
X011162Y032110D01*
X011174Y032048D01*
X011182Y031987D01*
X011186Y031924D01*
X011186Y031862D01*
X011182Y031799D01*
X011174Y031738D01*
X011162Y031676D01*
X011146Y031616D01*
X011127Y031556D01*
X011103Y031498D01*
X011077Y031442D01*
X011046Y031388D01*
X011012Y031335D01*
X010975Y031285D01*
X010935Y031237D01*
X010892Y031192D01*
X010846Y031149D01*
X010798Y031110D01*
X010747Y031074D01*
X010694Y031041D01*
X010639Y031011D01*
X010582Y030985D01*
X010524Y030963D01*
X010464Y030945D01*
X010404Y030930D01*
X010342Y030919D01*
X010280Y030912D01*
X010218Y030909D01*
X010155Y030910D01*
X010093Y030915D01*
X010031Y030924D01*
X009970Y030937D01*
X009910Y030953D01*
X009851Y030974D01*
X009793Y030998D01*
X009737Y031026D01*
X009683Y031057D01*
X009631Y031091D01*
X009582Y031129D01*
X009534Y031170D01*
X009490Y031214D01*
X009448Y031260D01*
X009410Y031310D01*
X009374Y031361D01*
X009342Y031415D01*
X009314Y031470D01*
X009288Y031527D01*
X009267Y031586D01*
X009250Y031646D01*
X009236Y031707D01*
X009226Y031768D01*
X009220Y031831D01*
X009218Y031893D01*
X009218Y024393D02*
X009220Y024455D01*
X009226Y024518D01*
X009236Y024579D01*
X009250Y024640D01*
X009267Y024700D01*
X009288Y024759D01*
X009314Y024816D01*
X009342Y024871D01*
X009374Y024925D01*
X009410Y024976D01*
X009448Y025026D01*
X009490Y025072D01*
X009534Y025116D01*
X009582Y025157D01*
X009631Y025195D01*
X009683Y025229D01*
X009737Y025260D01*
X009793Y025288D01*
X009851Y025312D01*
X009910Y025333D01*
X009970Y025349D01*
X010031Y025362D01*
X010093Y025371D01*
X010155Y025376D01*
X010218Y025377D01*
X010280Y025374D01*
X010342Y025367D01*
X010404Y025356D01*
X010464Y025341D01*
X010524Y025323D01*
X010582Y025301D01*
X010639Y025275D01*
X010694Y025245D01*
X010747Y025212D01*
X010798Y025176D01*
X010846Y025137D01*
X010892Y025094D01*
X010935Y025049D01*
X010975Y025001D01*
X011012Y024951D01*
X011046Y024898D01*
X011077Y024844D01*
X011103Y024788D01*
X011127Y024730D01*
X011146Y024670D01*
X011162Y024610D01*
X011174Y024548D01*
X011182Y024487D01*
X011186Y024424D01*
X011186Y024362D01*
X011182Y024299D01*
X011174Y024238D01*
X011162Y024176D01*
X011146Y024116D01*
X011127Y024056D01*
X011103Y023998D01*
X011077Y023942D01*
X011046Y023888D01*
X011012Y023835D01*
X010975Y023785D01*
X010935Y023737D01*
X010892Y023692D01*
X010846Y023649D01*
X010798Y023610D01*
X010747Y023574D01*
X010694Y023541D01*
X010639Y023511D01*
X010582Y023485D01*
X010524Y023463D01*
X010464Y023445D01*
X010404Y023430D01*
X010342Y023419D01*
X010280Y023412D01*
X010218Y023409D01*
X010155Y023410D01*
X010093Y023415D01*
X010031Y023424D01*
X009970Y023437D01*
X009910Y023453D01*
X009851Y023474D01*
X009793Y023498D01*
X009737Y023526D01*
X009683Y023557D01*
X009631Y023591D01*
X009582Y023629D01*
X009534Y023670D01*
X009490Y023714D01*
X009448Y023760D01*
X009410Y023810D01*
X009374Y023861D01*
X009342Y023915D01*
X009314Y023970D01*
X009288Y024027D01*
X009267Y024086D01*
X009250Y024146D01*
X009236Y024207D01*
X009226Y024268D01*
X009220Y024331D01*
X009218Y024393D01*
X016718Y013893D02*
X016720Y013955D01*
X016726Y014018D01*
X016736Y014079D01*
X016750Y014140D01*
X016767Y014200D01*
X016788Y014259D01*
X016814Y014316D01*
X016842Y014371D01*
X016874Y014425D01*
X016910Y014476D01*
X016948Y014526D01*
X016990Y014572D01*
X017034Y014616D01*
X017082Y014657D01*
X017131Y014695D01*
X017183Y014729D01*
X017237Y014760D01*
X017293Y014788D01*
X017351Y014812D01*
X017410Y014833D01*
X017470Y014849D01*
X017531Y014862D01*
X017593Y014871D01*
X017655Y014876D01*
X017718Y014877D01*
X017780Y014874D01*
X017842Y014867D01*
X017904Y014856D01*
X017964Y014841D01*
X018024Y014823D01*
X018082Y014801D01*
X018139Y014775D01*
X018194Y014745D01*
X018247Y014712D01*
X018298Y014676D01*
X018346Y014637D01*
X018392Y014594D01*
X018435Y014549D01*
X018475Y014501D01*
X018512Y014451D01*
X018546Y014398D01*
X018577Y014344D01*
X018603Y014288D01*
X018627Y014230D01*
X018646Y014170D01*
X018662Y014110D01*
X018674Y014048D01*
X018682Y013987D01*
X018686Y013924D01*
X018686Y013862D01*
X018682Y013799D01*
X018674Y013738D01*
X018662Y013676D01*
X018646Y013616D01*
X018627Y013556D01*
X018603Y013498D01*
X018577Y013442D01*
X018546Y013388D01*
X018512Y013335D01*
X018475Y013285D01*
X018435Y013237D01*
X018392Y013192D01*
X018346Y013149D01*
X018298Y013110D01*
X018247Y013074D01*
X018194Y013041D01*
X018139Y013011D01*
X018082Y012985D01*
X018024Y012963D01*
X017964Y012945D01*
X017904Y012930D01*
X017842Y012919D01*
X017780Y012912D01*
X017718Y012909D01*
X017655Y012910D01*
X017593Y012915D01*
X017531Y012924D01*
X017470Y012937D01*
X017410Y012953D01*
X017351Y012974D01*
X017293Y012998D01*
X017237Y013026D01*
X017183Y013057D01*
X017131Y013091D01*
X017082Y013129D01*
X017034Y013170D01*
X016990Y013214D01*
X016948Y013260D01*
X016910Y013310D01*
X016874Y013361D01*
X016842Y013415D01*
X016814Y013470D01*
X016788Y013527D01*
X016767Y013586D01*
X016750Y013646D01*
X016736Y013707D01*
X016726Y013768D01*
X016720Y013831D01*
X016718Y013893D01*
X024093Y014018D02*
X024095Y014080D01*
X024101Y014143D01*
X024111Y014204D01*
X024125Y014265D01*
X024142Y014325D01*
X024163Y014384D01*
X024189Y014441D01*
X024217Y014496D01*
X024249Y014550D01*
X024285Y014601D01*
X024323Y014651D01*
X024365Y014697D01*
X024409Y014741D01*
X024457Y014782D01*
X024506Y014820D01*
X024558Y014854D01*
X024612Y014885D01*
X024668Y014913D01*
X024726Y014937D01*
X024785Y014958D01*
X024845Y014974D01*
X024906Y014987D01*
X024968Y014996D01*
X025030Y015001D01*
X025093Y015002D01*
X025155Y014999D01*
X025217Y014992D01*
X025279Y014981D01*
X025339Y014966D01*
X025399Y014948D01*
X025457Y014926D01*
X025514Y014900D01*
X025569Y014870D01*
X025622Y014837D01*
X025673Y014801D01*
X025721Y014762D01*
X025767Y014719D01*
X025810Y014674D01*
X025850Y014626D01*
X025887Y014576D01*
X025921Y014523D01*
X025952Y014469D01*
X025978Y014413D01*
X026002Y014355D01*
X026021Y014295D01*
X026037Y014235D01*
X026049Y014173D01*
X026057Y014112D01*
X026061Y014049D01*
X026061Y013987D01*
X026057Y013924D01*
X026049Y013863D01*
X026037Y013801D01*
X026021Y013741D01*
X026002Y013681D01*
X025978Y013623D01*
X025952Y013567D01*
X025921Y013513D01*
X025887Y013460D01*
X025850Y013410D01*
X025810Y013362D01*
X025767Y013317D01*
X025721Y013274D01*
X025673Y013235D01*
X025622Y013199D01*
X025569Y013166D01*
X025514Y013136D01*
X025457Y013110D01*
X025399Y013088D01*
X025339Y013070D01*
X025279Y013055D01*
X025217Y013044D01*
X025155Y013037D01*
X025093Y013034D01*
X025030Y013035D01*
X024968Y013040D01*
X024906Y013049D01*
X024845Y013062D01*
X024785Y013078D01*
X024726Y013099D01*
X024668Y013123D01*
X024612Y013151D01*
X024558Y013182D01*
X024506Y013216D01*
X024457Y013254D01*
X024409Y013295D01*
X024365Y013339D01*
X024323Y013385D01*
X024285Y013435D01*
X024249Y013486D01*
X024217Y013540D01*
X024189Y013595D01*
X024163Y013652D01*
X024142Y013711D01*
X024125Y013771D01*
X024111Y013832D01*
X024101Y013893D01*
X024095Y013956D01*
X024093Y014018D01*
X040468Y013518D02*
X040470Y013580D01*
X040476Y013643D01*
X040486Y013704D01*
X040500Y013765D01*
X040517Y013825D01*
X040538Y013884D01*
X040564Y013941D01*
X040592Y013996D01*
X040624Y014050D01*
X040660Y014101D01*
X040698Y014151D01*
X040740Y014197D01*
X040784Y014241D01*
X040832Y014282D01*
X040881Y014320D01*
X040933Y014354D01*
X040987Y014385D01*
X041043Y014413D01*
X041101Y014437D01*
X041160Y014458D01*
X041220Y014474D01*
X041281Y014487D01*
X041343Y014496D01*
X041405Y014501D01*
X041468Y014502D01*
X041530Y014499D01*
X041592Y014492D01*
X041654Y014481D01*
X041714Y014466D01*
X041774Y014448D01*
X041832Y014426D01*
X041889Y014400D01*
X041944Y014370D01*
X041997Y014337D01*
X042048Y014301D01*
X042096Y014262D01*
X042142Y014219D01*
X042185Y014174D01*
X042225Y014126D01*
X042262Y014076D01*
X042296Y014023D01*
X042327Y013969D01*
X042353Y013913D01*
X042377Y013855D01*
X042396Y013795D01*
X042412Y013735D01*
X042424Y013673D01*
X042432Y013612D01*
X042436Y013549D01*
X042436Y013487D01*
X042432Y013424D01*
X042424Y013363D01*
X042412Y013301D01*
X042396Y013241D01*
X042377Y013181D01*
X042353Y013123D01*
X042327Y013067D01*
X042296Y013013D01*
X042262Y012960D01*
X042225Y012910D01*
X042185Y012862D01*
X042142Y012817D01*
X042096Y012774D01*
X042048Y012735D01*
X041997Y012699D01*
X041944Y012666D01*
X041889Y012636D01*
X041832Y012610D01*
X041774Y012588D01*
X041714Y012570D01*
X041654Y012555D01*
X041592Y012544D01*
X041530Y012537D01*
X041468Y012534D01*
X041405Y012535D01*
X041343Y012540D01*
X041281Y012549D01*
X041220Y012562D01*
X041160Y012578D01*
X041101Y012599D01*
X041043Y012623D01*
X040987Y012651D01*
X040933Y012682D01*
X040881Y012716D01*
X040832Y012754D01*
X040784Y012795D01*
X040740Y012839D01*
X040698Y012885D01*
X040660Y012935D01*
X040624Y012986D01*
X040592Y013040D01*
X040564Y013095D01*
X040538Y013152D01*
X040517Y013211D01*
X040500Y013271D01*
X040486Y013332D01*
X040476Y013393D01*
X040470Y013456D01*
X040468Y013518D01*
X049218Y013893D02*
X049220Y013955D01*
X049226Y014018D01*
X049236Y014079D01*
X049250Y014140D01*
X049267Y014200D01*
X049288Y014259D01*
X049314Y014316D01*
X049342Y014371D01*
X049374Y014425D01*
X049410Y014476D01*
X049448Y014526D01*
X049490Y014572D01*
X049534Y014616D01*
X049582Y014657D01*
X049631Y014695D01*
X049683Y014729D01*
X049737Y014760D01*
X049793Y014788D01*
X049851Y014812D01*
X049910Y014833D01*
X049970Y014849D01*
X050031Y014862D01*
X050093Y014871D01*
X050155Y014876D01*
X050218Y014877D01*
X050280Y014874D01*
X050342Y014867D01*
X050404Y014856D01*
X050464Y014841D01*
X050524Y014823D01*
X050582Y014801D01*
X050639Y014775D01*
X050694Y014745D01*
X050747Y014712D01*
X050798Y014676D01*
X050846Y014637D01*
X050892Y014594D01*
X050935Y014549D01*
X050975Y014501D01*
X051012Y014451D01*
X051046Y014398D01*
X051077Y014344D01*
X051103Y014288D01*
X051127Y014230D01*
X051146Y014170D01*
X051162Y014110D01*
X051174Y014048D01*
X051182Y013987D01*
X051186Y013924D01*
X051186Y013862D01*
X051182Y013799D01*
X051174Y013738D01*
X051162Y013676D01*
X051146Y013616D01*
X051127Y013556D01*
X051103Y013498D01*
X051077Y013442D01*
X051046Y013388D01*
X051012Y013335D01*
X050975Y013285D01*
X050935Y013237D01*
X050892Y013192D01*
X050846Y013149D01*
X050798Y013110D01*
X050747Y013074D01*
X050694Y013041D01*
X050639Y013011D01*
X050582Y012985D01*
X050524Y012963D01*
X050464Y012945D01*
X050404Y012930D01*
X050342Y012919D01*
X050280Y012912D01*
X050218Y012909D01*
X050155Y012910D01*
X050093Y012915D01*
X050031Y012924D01*
X049970Y012937D01*
X049910Y012953D01*
X049851Y012974D01*
X049793Y012998D01*
X049737Y013026D01*
X049683Y013057D01*
X049631Y013091D01*
X049582Y013129D01*
X049534Y013170D01*
X049490Y013214D01*
X049448Y013260D01*
X049410Y013310D01*
X049374Y013361D01*
X049342Y013415D01*
X049314Y013470D01*
X049288Y013527D01*
X049267Y013586D01*
X049250Y013646D01*
X049236Y013707D01*
X049226Y013768D01*
X049220Y013831D01*
X049218Y013893D01*
X056718Y014393D02*
X056720Y014455D01*
X056726Y014518D01*
X056736Y014579D01*
X056750Y014640D01*
X056767Y014700D01*
X056788Y014759D01*
X056814Y014816D01*
X056842Y014871D01*
X056874Y014925D01*
X056910Y014976D01*
X056948Y015026D01*
X056990Y015072D01*
X057034Y015116D01*
X057082Y015157D01*
X057131Y015195D01*
X057183Y015229D01*
X057237Y015260D01*
X057293Y015288D01*
X057351Y015312D01*
X057410Y015333D01*
X057470Y015349D01*
X057531Y015362D01*
X057593Y015371D01*
X057655Y015376D01*
X057718Y015377D01*
X057780Y015374D01*
X057842Y015367D01*
X057904Y015356D01*
X057964Y015341D01*
X058024Y015323D01*
X058082Y015301D01*
X058139Y015275D01*
X058194Y015245D01*
X058247Y015212D01*
X058298Y015176D01*
X058346Y015137D01*
X058392Y015094D01*
X058435Y015049D01*
X058475Y015001D01*
X058512Y014951D01*
X058546Y014898D01*
X058577Y014844D01*
X058603Y014788D01*
X058627Y014730D01*
X058646Y014670D01*
X058662Y014610D01*
X058674Y014548D01*
X058682Y014487D01*
X058686Y014424D01*
X058686Y014362D01*
X058682Y014299D01*
X058674Y014238D01*
X058662Y014176D01*
X058646Y014116D01*
X058627Y014056D01*
X058603Y013998D01*
X058577Y013942D01*
X058546Y013888D01*
X058512Y013835D01*
X058475Y013785D01*
X058435Y013737D01*
X058392Y013692D01*
X058346Y013649D01*
X058298Y013610D01*
X058247Y013574D01*
X058194Y013541D01*
X058139Y013511D01*
X058082Y013485D01*
X058024Y013463D01*
X057964Y013445D01*
X057904Y013430D01*
X057842Y013419D01*
X057780Y013412D01*
X057718Y013409D01*
X057655Y013410D01*
X057593Y013415D01*
X057531Y013424D01*
X057470Y013437D01*
X057410Y013453D01*
X057351Y013474D01*
X057293Y013498D01*
X057237Y013526D01*
X057183Y013557D01*
X057131Y013591D01*
X057082Y013629D01*
X057034Y013670D01*
X056990Y013714D01*
X056948Y013760D01*
X056910Y013810D01*
X056874Y013861D01*
X056842Y013915D01*
X056814Y013970D01*
X056788Y014027D01*
X056767Y014086D01*
X056750Y014146D01*
X056736Y014207D01*
X056726Y014268D01*
X056720Y014331D01*
X056718Y014393D01*
X064611Y043893D02*
X064613Y043941D01*
X064619Y043989D01*
X064629Y044036D01*
X064642Y044082D01*
X064660Y044127D01*
X064680Y044171D01*
X064705Y044213D01*
X064733Y044252D01*
X064763Y044289D01*
X064797Y044323D01*
X064834Y044355D01*
X064872Y044384D01*
X064913Y044409D01*
X064956Y044431D01*
X065001Y044449D01*
X065047Y044463D01*
X065094Y044474D01*
X065142Y044481D01*
X065190Y044484D01*
X065238Y044483D01*
X065286Y044478D01*
X065334Y044469D01*
X065380Y044457D01*
X065425Y044440D01*
X065469Y044420D01*
X065511Y044397D01*
X065551Y044370D01*
X065589Y044340D01*
X065624Y044307D01*
X065656Y044271D01*
X065686Y044233D01*
X065712Y044192D01*
X065734Y044149D01*
X065754Y044105D01*
X065769Y044060D01*
X065781Y044013D01*
X065789Y043965D01*
X065793Y043917D01*
X065793Y043869D01*
X065789Y043821D01*
X065781Y043773D01*
X065769Y043726D01*
X065754Y043681D01*
X065734Y043637D01*
X065712Y043594D01*
X065686Y043553D01*
X065656Y043515D01*
X065624Y043479D01*
X065589Y043446D01*
X065551Y043416D01*
X065511Y043389D01*
X065469Y043366D01*
X065425Y043346D01*
X065380Y043329D01*
X065334Y043317D01*
X065286Y043308D01*
X065238Y043303D01*
X065190Y043302D01*
X065142Y043305D01*
X065094Y043312D01*
X065047Y043323D01*
X065001Y043337D01*
X064956Y043355D01*
X064913Y043377D01*
X064872Y043402D01*
X064834Y043431D01*
X064797Y043463D01*
X064763Y043497D01*
X064733Y043534D01*
X064705Y043573D01*
X064680Y043615D01*
X064660Y043659D01*
X064642Y043704D01*
X064629Y043750D01*
X064619Y043797D01*
X064613Y043845D01*
X064611Y043893D01*
X064218Y046893D02*
X064220Y046955D01*
X064226Y047018D01*
X064236Y047079D01*
X064250Y047140D01*
X064267Y047200D01*
X064288Y047259D01*
X064314Y047316D01*
X064342Y047371D01*
X064374Y047425D01*
X064410Y047476D01*
X064448Y047526D01*
X064490Y047572D01*
X064534Y047616D01*
X064582Y047657D01*
X064631Y047695D01*
X064683Y047729D01*
X064737Y047760D01*
X064793Y047788D01*
X064851Y047812D01*
X064910Y047833D01*
X064970Y047849D01*
X065031Y047862D01*
X065093Y047871D01*
X065155Y047876D01*
X065218Y047877D01*
X065280Y047874D01*
X065342Y047867D01*
X065404Y047856D01*
X065464Y047841D01*
X065524Y047823D01*
X065582Y047801D01*
X065639Y047775D01*
X065694Y047745D01*
X065747Y047712D01*
X065798Y047676D01*
X065846Y047637D01*
X065892Y047594D01*
X065935Y047549D01*
X065975Y047501D01*
X066012Y047451D01*
X066046Y047398D01*
X066077Y047344D01*
X066103Y047288D01*
X066127Y047230D01*
X066146Y047170D01*
X066162Y047110D01*
X066174Y047048D01*
X066182Y046987D01*
X066186Y046924D01*
X066186Y046862D01*
X066182Y046799D01*
X066174Y046738D01*
X066162Y046676D01*
X066146Y046616D01*
X066127Y046556D01*
X066103Y046498D01*
X066077Y046442D01*
X066046Y046388D01*
X066012Y046335D01*
X065975Y046285D01*
X065935Y046237D01*
X065892Y046192D01*
X065846Y046149D01*
X065798Y046110D01*
X065747Y046074D01*
X065694Y046041D01*
X065639Y046011D01*
X065582Y045985D01*
X065524Y045963D01*
X065464Y045945D01*
X065404Y045930D01*
X065342Y045919D01*
X065280Y045912D01*
X065218Y045909D01*
X065155Y045910D01*
X065093Y045915D01*
X065031Y045924D01*
X064970Y045937D01*
X064910Y045953D01*
X064851Y045974D01*
X064793Y045998D01*
X064737Y046026D01*
X064683Y046057D01*
X064631Y046091D01*
X064582Y046129D01*
X064534Y046170D01*
X064490Y046214D01*
X064448Y046260D01*
X064410Y046310D01*
X064374Y046361D01*
X064342Y046415D01*
X064314Y046470D01*
X064288Y046527D01*
X064267Y046586D01*
X064250Y046646D01*
X064236Y046707D01*
X064226Y046768D01*
X064220Y046831D01*
X064218Y046893D01*
X046218Y046893D02*
X046220Y046955D01*
X046226Y047018D01*
X046236Y047079D01*
X046250Y047140D01*
X046267Y047200D01*
X046288Y047259D01*
X046314Y047316D01*
X046342Y047371D01*
X046374Y047425D01*
X046410Y047476D01*
X046448Y047526D01*
X046490Y047572D01*
X046534Y047616D01*
X046582Y047657D01*
X046631Y047695D01*
X046683Y047729D01*
X046737Y047760D01*
X046793Y047788D01*
X046851Y047812D01*
X046910Y047833D01*
X046970Y047849D01*
X047031Y047862D01*
X047093Y047871D01*
X047155Y047876D01*
X047218Y047877D01*
X047280Y047874D01*
X047342Y047867D01*
X047404Y047856D01*
X047464Y047841D01*
X047524Y047823D01*
X047582Y047801D01*
X047639Y047775D01*
X047694Y047745D01*
X047747Y047712D01*
X047798Y047676D01*
X047846Y047637D01*
X047892Y047594D01*
X047935Y047549D01*
X047975Y047501D01*
X048012Y047451D01*
X048046Y047398D01*
X048077Y047344D01*
X048103Y047288D01*
X048127Y047230D01*
X048146Y047170D01*
X048162Y047110D01*
X048174Y047048D01*
X048182Y046987D01*
X048186Y046924D01*
X048186Y046862D01*
X048182Y046799D01*
X048174Y046738D01*
X048162Y046676D01*
X048146Y046616D01*
X048127Y046556D01*
X048103Y046498D01*
X048077Y046442D01*
X048046Y046388D01*
X048012Y046335D01*
X047975Y046285D01*
X047935Y046237D01*
X047892Y046192D01*
X047846Y046149D01*
X047798Y046110D01*
X047747Y046074D01*
X047694Y046041D01*
X047639Y046011D01*
X047582Y045985D01*
X047524Y045963D01*
X047464Y045945D01*
X047404Y045930D01*
X047342Y045919D01*
X047280Y045912D01*
X047218Y045909D01*
X047155Y045910D01*
X047093Y045915D01*
X047031Y045924D01*
X046970Y045937D01*
X046910Y045953D01*
X046851Y045974D01*
X046793Y045998D01*
X046737Y046026D01*
X046683Y046057D01*
X046631Y046091D01*
X046582Y046129D01*
X046534Y046170D01*
X046490Y046214D01*
X046448Y046260D01*
X046410Y046310D01*
X046374Y046361D01*
X046342Y046415D01*
X046314Y046470D01*
X046288Y046527D01*
X046267Y046586D01*
X046250Y046646D01*
X046236Y046707D01*
X046226Y046768D01*
X046220Y046831D01*
X046218Y046893D01*
X038718Y046893D02*
X038720Y046955D01*
X038726Y047018D01*
X038736Y047079D01*
X038750Y047140D01*
X038767Y047200D01*
X038788Y047259D01*
X038814Y047316D01*
X038842Y047371D01*
X038874Y047425D01*
X038910Y047476D01*
X038948Y047526D01*
X038990Y047572D01*
X039034Y047616D01*
X039082Y047657D01*
X039131Y047695D01*
X039183Y047729D01*
X039237Y047760D01*
X039293Y047788D01*
X039351Y047812D01*
X039410Y047833D01*
X039470Y047849D01*
X039531Y047862D01*
X039593Y047871D01*
X039655Y047876D01*
X039718Y047877D01*
X039780Y047874D01*
X039842Y047867D01*
X039904Y047856D01*
X039964Y047841D01*
X040024Y047823D01*
X040082Y047801D01*
X040139Y047775D01*
X040194Y047745D01*
X040247Y047712D01*
X040298Y047676D01*
X040346Y047637D01*
X040392Y047594D01*
X040435Y047549D01*
X040475Y047501D01*
X040512Y047451D01*
X040546Y047398D01*
X040577Y047344D01*
X040603Y047288D01*
X040627Y047230D01*
X040646Y047170D01*
X040662Y047110D01*
X040674Y047048D01*
X040682Y046987D01*
X040686Y046924D01*
X040686Y046862D01*
X040682Y046799D01*
X040674Y046738D01*
X040662Y046676D01*
X040646Y046616D01*
X040627Y046556D01*
X040603Y046498D01*
X040577Y046442D01*
X040546Y046388D01*
X040512Y046335D01*
X040475Y046285D01*
X040435Y046237D01*
X040392Y046192D01*
X040346Y046149D01*
X040298Y046110D01*
X040247Y046074D01*
X040194Y046041D01*
X040139Y046011D01*
X040082Y045985D01*
X040024Y045963D01*
X039964Y045945D01*
X039904Y045930D01*
X039842Y045919D01*
X039780Y045912D01*
X039718Y045909D01*
X039655Y045910D01*
X039593Y045915D01*
X039531Y045924D01*
X039470Y045937D01*
X039410Y045953D01*
X039351Y045974D01*
X039293Y045998D01*
X039237Y046026D01*
X039183Y046057D01*
X039131Y046091D01*
X039082Y046129D01*
X039034Y046170D01*
X038990Y046214D01*
X038948Y046260D01*
X038910Y046310D01*
X038874Y046361D01*
X038842Y046415D01*
X038814Y046470D01*
X038788Y046527D01*
X038767Y046586D01*
X038750Y046646D01*
X038736Y046707D01*
X038726Y046768D01*
X038720Y046831D01*
X038718Y046893D01*
X031218Y046893D02*
X031220Y046955D01*
X031226Y047018D01*
X031236Y047079D01*
X031250Y047140D01*
X031267Y047200D01*
X031288Y047259D01*
X031314Y047316D01*
X031342Y047371D01*
X031374Y047425D01*
X031410Y047476D01*
X031448Y047526D01*
X031490Y047572D01*
X031534Y047616D01*
X031582Y047657D01*
X031631Y047695D01*
X031683Y047729D01*
X031737Y047760D01*
X031793Y047788D01*
X031851Y047812D01*
X031910Y047833D01*
X031970Y047849D01*
X032031Y047862D01*
X032093Y047871D01*
X032155Y047876D01*
X032218Y047877D01*
X032280Y047874D01*
X032342Y047867D01*
X032404Y047856D01*
X032464Y047841D01*
X032524Y047823D01*
X032582Y047801D01*
X032639Y047775D01*
X032694Y047745D01*
X032747Y047712D01*
X032798Y047676D01*
X032846Y047637D01*
X032892Y047594D01*
X032935Y047549D01*
X032975Y047501D01*
X033012Y047451D01*
X033046Y047398D01*
X033077Y047344D01*
X033103Y047288D01*
X033127Y047230D01*
X033146Y047170D01*
X033162Y047110D01*
X033174Y047048D01*
X033182Y046987D01*
X033186Y046924D01*
X033186Y046862D01*
X033182Y046799D01*
X033174Y046738D01*
X033162Y046676D01*
X033146Y046616D01*
X033127Y046556D01*
X033103Y046498D01*
X033077Y046442D01*
X033046Y046388D01*
X033012Y046335D01*
X032975Y046285D01*
X032935Y046237D01*
X032892Y046192D01*
X032846Y046149D01*
X032798Y046110D01*
X032747Y046074D01*
X032694Y046041D01*
X032639Y046011D01*
X032582Y045985D01*
X032524Y045963D01*
X032464Y045945D01*
X032404Y045930D01*
X032342Y045919D01*
X032280Y045912D01*
X032218Y045909D01*
X032155Y045910D01*
X032093Y045915D01*
X032031Y045924D01*
X031970Y045937D01*
X031910Y045953D01*
X031851Y045974D01*
X031793Y045998D01*
X031737Y046026D01*
X031683Y046057D01*
X031631Y046091D01*
X031582Y046129D01*
X031534Y046170D01*
X031490Y046214D01*
X031448Y046260D01*
X031410Y046310D01*
X031374Y046361D01*
X031342Y046415D01*
X031314Y046470D01*
X031288Y046527D01*
X031267Y046586D01*
X031250Y046646D01*
X031236Y046707D01*
X031226Y046768D01*
X031220Y046831D01*
X031218Y046893D01*
X009843Y039393D02*
X009845Y039455D01*
X009851Y039518D01*
X009861Y039579D01*
X009875Y039640D01*
X009892Y039700D01*
X009913Y039759D01*
X009939Y039816D01*
X009967Y039871D01*
X009999Y039925D01*
X010035Y039976D01*
X010073Y040026D01*
X010115Y040072D01*
X010159Y040116D01*
X010207Y040157D01*
X010256Y040195D01*
X010308Y040229D01*
X010362Y040260D01*
X010418Y040288D01*
X010476Y040312D01*
X010535Y040333D01*
X010595Y040349D01*
X010656Y040362D01*
X010718Y040371D01*
X010780Y040376D01*
X010843Y040377D01*
X010905Y040374D01*
X010967Y040367D01*
X011029Y040356D01*
X011089Y040341D01*
X011149Y040323D01*
X011207Y040301D01*
X011264Y040275D01*
X011319Y040245D01*
X011372Y040212D01*
X011423Y040176D01*
X011471Y040137D01*
X011517Y040094D01*
X011560Y040049D01*
X011600Y040001D01*
X011637Y039951D01*
X011671Y039898D01*
X011702Y039844D01*
X011728Y039788D01*
X011752Y039730D01*
X011771Y039670D01*
X011787Y039610D01*
X011799Y039548D01*
X011807Y039487D01*
X011811Y039424D01*
X011811Y039362D01*
X011807Y039299D01*
X011799Y039238D01*
X011787Y039176D01*
X011771Y039116D01*
X011752Y039056D01*
X011728Y038998D01*
X011702Y038942D01*
X011671Y038888D01*
X011637Y038835D01*
X011600Y038785D01*
X011560Y038737D01*
X011517Y038692D01*
X011471Y038649D01*
X011423Y038610D01*
X011372Y038574D01*
X011319Y038541D01*
X011264Y038511D01*
X011207Y038485D01*
X011149Y038463D01*
X011089Y038445D01*
X011029Y038430D01*
X010967Y038419D01*
X010905Y038412D01*
X010843Y038409D01*
X010780Y038410D01*
X010718Y038415D01*
X010656Y038424D01*
X010595Y038437D01*
X010535Y038453D01*
X010476Y038474D01*
X010418Y038498D01*
X010362Y038526D01*
X010308Y038557D01*
X010256Y038591D01*
X010207Y038629D01*
X010159Y038670D01*
X010115Y038714D01*
X010073Y038760D01*
X010035Y038810D01*
X009999Y038861D01*
X009967Y038915D01*
X009939Y038970D01*
X009913Y039027D01*
X009892Y039086D01*
X009875Y039146D01*
X009861Y039207D01*
X009851Y039268D01*
X009845Y039331D01*
X009843Y039393D01*
X009218Y046893D02*
X009220Y046955D01*
X009226Y047018D01*
X009236Y047079D01*
X009250Y047140D01*
X009267Y047200D01*
X009288Y047259D01*
X009314Y047316D01*
X009342Y047371D01*
X009374Y047425D01*
X009410Y047476D01*
X009448Y047526D01*
X009490Y047572D01*
X009534Y047616D01*
X009582Y047657D01*
X009631Y047695D01*
X009683Y047729D01*
X009737Y047760D01*
X009793Y047788D01*
X009851Y047812D01*
X009910Y047833D01*
X009970Y047849D01*
X010031Y047862D01*
X010093Y047871D01*
X010155Y047876D01*
X010218Y047877D01*
X010280Y047874D01*
X010342Y047867D01*
X010404Y047856D01*
X010464Y047841D01*
X010524Y047823D01*
X010582Y047801D01*
X010639Y047775D01*
X010694Y047745D01*
X010747Y047712D01*
X010798Y047676D01*
X010846Y047637D01*
X010892Y047594D01*
X010935Y047549D01*
X010975Y047501D01*
X011012Y047451D01*
X011046Y047398D01*
X011077Y047344D01*
X011103Y047288D01*
X011127Y047230D01*
X011146Y047170D01*
X011162Y047110D01*
X011174Y047048D01*
X011182Y046987D01*
X011186Y046924D01*
X011186Y046862D01*
X011182Y046799D01*
X011174Y046738D01*
X011162Y046676D01*
X011146Y046616D01*
X011127Y046556D01*
X011103Y046498D01*
X011077Y046442D01*
X011046Y046388D01*
X011012Y046335D01*
X010975Y046285D01*
X010935Y046237D01*
X010892Y046192D01*
X010846Y046149D01*
X010798Y046110D01*
X010747Y046074D01*
X010694Y046041D01*
X010639Y046011D01*
X010582Y045985D01*
X010524Y045963D01*
X010464Y045945D01*
X010404Y045930D01*
X010342Y045919D01*
X010280Y045912D01*
X010218Y045909D01*
X010155Y045910D01*
X010093Y045915D01*
X010031Y045924D01*
X009970Y045937D01*
X009910Y045953D01*
X009851Y045974D01*
X009793Y045998D01*
X009737Y046026D01*
X009683Y046057D01*
X009631Y046091D01*
X009582Y046129D01*
X009534Y046170D01*
X009490Y046214D01*
X009448Y046260D01*
X009410Y046310D01*
X009374Y046361D01*
X009342Y046415D01*
X009314Y046470D01*
X009288Y046527D01*
X009267Y046586D01*
X009250Y046646D01*
X009236Y046707D01*
X009226Y046768D01*
X009220Y046831D01*
X009218Y046893D01*
D12*
X006255Y043143D02*
X006257Y043170D01*
X006263Y043197D01*
X006272Y043223D01*
X006285Y043247D01*
X006301Y043270D01*
X006320Y043289D01*
X006342Y043306D01*
X006366Y043320D01*
X006391Y043330D01*
X006418Y043337D01*
X006445Y043340D01*
X006473Y043339D01*
X006500Y043334D01*
X006526Y043326D01*
X006550Y043314D01*
X006573Y043298D01*
X006594Y043280D01*
X006611Y043259D01*
X006626Y043235D01*
X006637Y043210D01*
X006645Y043184D01*
X006649Y043157D01*
X006649Y043129D01*
X006645Y043102D01*
X006637Y043076D01*
X006626Y043051D01*
X006611Y043027D01*
X006594Y043006D01*
X006573Y042988D01*
X006551Y042972D01*
X006526Y042960D01*
X006500Y042952D01*
X006473Y042947D01*
X006445Y042946D01*
X006418Y042949D01*
X006391Y042956D01*
X006366Y042966D01*
X006342Y042980D01*
X006320Y042997D01*
X006301Y043016D01*
X006285Y043039D01*
X006272Y043063D01*
X006263Y043089D01*
X006257Y043116D01*
X006255Y043143D01*
X013755Y043143D02*
X013757Y043170D01*
X013763Y043197D01*
X013772Y043223D01*
X013785Y043247D01*
X013801Y043270D01*
X013820Y043289D01*
X013842Y043306D01*
X013866Y043320D01*
X013891Y043330D01*
X013918Y043337D01*
X013945Y043340D01*
X013973Y043339D01*
X014000Y043334D01*
X014026Y043326D01*
X014050Y043314D01*
X014073Y043298D01*
X014094Y043280D01*
X014111Y043259D01*
X014126Y043235D01*
X014137Y043210D01*
X014145Y043184D01*
X014149Y043157D01*
X014149Y043129D01*
X014145Y043102D01*
X014137Y043076D01*
X014126Y043051D01*
X014111Y043027D01*
X014094Y043006D01*
X014073Y042988D01*
X014051Y042972D01*
X014026Y042960D01*
X014000Y042952D01*
X013973Y042947D01*
X013945Y042946D01*
X013918Y042949D01*
X013891Y042956D01*
X013866Y042966D01*
X013842Y042980D01*
X013820Y042997D01*
X013801Y043016D01*
X013785Y043039D01*
X013772Y043063D01*
X013763Y043089D01*
X013757Y043116D01*
X013755Y043143D01*
X013755Y035643D02*
X013757Y035670D01*
X013763Y035697D01*
X013772Y035723D01*
X013785Y035747D01*
X013801Y035770D01*
X013820Y035789D01*
X013842Y035806D01*
X013866Y035820D01*
X013891Y035830D01*
X013918Y035837D01*
X013945Y035840D01*
X013973Y035839D01*
X014000Y035834D01*
X014026Y035826D01*
X014050Y035814D01*
X014073Y035798D01*
X014094Y035780D01*
X014111Y035759D01*
X014126Y035735D01*
X014137Y035710D01*
X014145Y035684D01*
X014149Y035657D01*
X014149Y035629D01*
X014145Y035602D01*
X014137Y035576D01*
X014126Y035551D01*
X014111Y035527D01*
X014094Y035506D01*
X014073Y035488D01*
X014051Y035472D01*
X014026Y035460D01*
X014000Y035452D01*
X013973Y035447D01*
X013945Y035446D01*
X013918Y035449D01*
X013891Y035456D01*
X013866Y035466D01*
X013842Y035480D01*
X013820Y035497D01*
X013801Y035516D01*
X013785Y035539D01*
X013772Y035563D01*
X013763Y035589D01*
X013757Y035616D01*
X013755Y035643D01*
X006255Y035643D02*
X006257Y035670D01*
X006263Y035697D01*
X006272Y035723D01*
X006285Y035747D01*
X006301Y035770D01*
X006320Y035789D01*
X006342Y035806D01*
X006366Y035820D01*
X006391Y035830D01*
X006418Y035837D01*
X006445Y035840D01*
X006473Y035839D01*
X006500Y035834D01*
X006526Y035826D01*
X006550Y035814D01*
X006573Y035798D01*
X006594Y035780D01*
X006611Y035759D01*
X006626Y035735D01*
X006637Y035710D01*
X006645Y035684D01*
X006649Y035657D01*
X006649Y035629D01*
X006645Y035602D01*
X006637Y035576D01*
X006626Y035551D01*
X006611Y035527D01*
X006594Y035506D01*
X006573Y035488D01*
X006551Y035472D01*
X006526Y035460D01*
X006500Y035452D01*
X006473Y035447D01*
X006445Y035446D01*
X006418Y035449D01*
X006391Y035456D01*
X006366Y035466D01*
X006342Y035480D01*
X006320Y035497D01*
X006301Y035516D01*
X006285Y035539D01*
X006272Y035563D01*
X006263Y035589D01*
X006257Y035616D01*
X006255Y035643D01*
X006255Y028143D02*
X006257Y028170D01*
X006263Y028197D01*
X006272Y028223D01*
X006285Y028247D01*
X006301Y028270D01*
X006320Y028289D01*
X006342Y028306D01*
X006366Y028320D01*
X006391Y028330D01*
X006418Y028337D01*
X006445Y028340D01*
X006473Y028339D01*
X006500Y028334D01*
X006526Y028326D01*
X006550Y028314D01*
X006573Y028298D01*
X006594Y028280D01*
X006611Y028259D01*
X006626Y028235D01*
X006637Y028210D01*
X006645Y028184D01*
X006649Y028157D01*
X006649Y028129D01*
X006645Y028102D01*
X006637Y028076D01*
X006626Y028051D01*
X006611Y028027D01*
X006594Y028006D01*
X006573Y027988D01*
X006551Y027972D01*
X006526Y027960D01*
X006500Y027952D01*
X006473Y027947D01*
X006445Y027946D01*
X006418Y027949D01*
X006391Y027956D01*
X006366Y027966D01*
X006342Y027980D01*
X006320Y027997D01*
X006301Y028016D01*
X006285Y028039D01*
X006272Y028063D01*
X006263Y028089D01*
X006257Y028116D01*
X006255Y028143D01*
X013755Y028143D02*
X013757Y028170D01*
X013763Y028197D01*
X013772Y028223D01*
X013785Y028247D01*
X013801Y028270D01*
X013820Y028289D01*
X013842Y028306D01*
X013866Y028320D01*
X013891Y028330D01*
X013918Y028337D01*
X013945Y028340D01*
X013973Y028339D01*
X014000Y028334D01*
X014026Y028326D01*
X014050Y028314D01*
X014073Y028298D01*
X014094Y028280D01*
X014111Y028259D01*
X014126Y028235D01*
X014137Y028210D01*
X014145Y028184D01*
X014149Y028157D01*
X014149Y028129D01*
X014145Y028102D01*
X014137Y028076D01*
X014126Y028051D01*
X014111Y028027D01*
X014094Y028006D01*
X014073Y027988D01*
X014051Y027972D01*
X014026Y027960D01*
X014000Y027952D01*
X013973Y027947D01*
X013945Y027946D01*
X013918Y027949D01*
X013891Y027956D01*
X013866Y027966D01*
X013842Y027980D01*
X013820Y027997D01*
X013801Y028016D01*
X013785Y028039D01*
X013772Y028063D01*
X013763Y028089D01*
X013757Y028116D01*
X013755Y028143D01*
X022230Y020887D02*
X022232Y020943D01*
X022238Y020998D01*
X022248Y021052D01*
X022261Y021106D01*
X022279Y021159D01*
X022300Y021210D01*
X022324Y021260D01*
X022352Y021308D01*
X022384Y021354D01*
X022418Y021398D01*
X022456Y021439D01*
X022496Y021477D01*
X022539Y021512D01*
X022584Y021544D01*
X022632Y021573D01*
X022681Y021599D01*
X022732Y021621D01*
X022784Y021639D01*
X022838Y021653D01*
X022893Y021664D01*
X022948Y021671D01*
X023003Y021674D01*
X023059Y021673D01*
X023114Y021668D01*
X023169Y021659D01*
X023223Y021647D01*
X023276Y021630D01*
X023328Y021610D01*
X023378Y021586D01*
X023426Y021559D01*
X023473Y021529D01*
X023517Y021495D01*
X023559Y021458D01*
X023597Y021418D01*
X023634Y021376D01*
X023667Y021331D01*
X023696Y021285D01*
X023723Y021236D01*
X023745Y021185D01*
X023765Y021133D01*
X023780Y021079D01*
X023792Y021025D01*
X023800Y020970D01*
X023804Y020915D01*
X023804Y020859D01*
X023800Y020804D01*
X023792Y020749D01*
X023780Y020695D01*
X023765Y020641D01*
X023745Y020589D01*
X023723Y020538D01*
X023696Y020489D01*
X023667Y020443D01*
X023634Y020398D01*
X023597Y020356D01*
X023559Y020316D01*
X023517Y020279D01*
X023473Y020245D01*
X023426Y020215D01*
X023378Y020188D01*
X023328Y020164D01*
X023276Y020144D01*
X023223Y020127D01*
X023169Y020115D01*
X023114Y020106D01*
X023059Y020101D01*
X023003Y020100D01*
X022948Y020103D01*
X022893Y020110D01*
X022838Y020121D01*
X022784Y020135D01*
X022732Y020153D01*
X022681Y020175D01*
X022632Y020201D01*
X022584Y020230D01*
X022539Y020262D01*
X022496Y020297D01*
X022456Y020335D01*
X022418Y020376D01*
X022384Y020420D01*
X022352Y020466D01*
X022324Y020514D01*
X022300Y020564D01*
X022279Y020615D01*
X022261Y020668D01*
X022248Y020722D01*
X022238Y020776D01*
X022232Y020831D01*
X022230Y020887D01*
X027505Y017643D02*
X027507Y017670D01*
X027513Y017697D01*
X027522Y017723D01*
X027535Y017747D01*
X027551Y017770D01*
X027570Y017789D01*
X027592Y017806D01*
X027616Y017820D01*
X027641Y017830D01*
X027668Y017837D01*
X027695Y017840D01*
X027723Y017839D01*
X027750Y017834D01*
X027776Y017826D01*
X027800Y017814D01*
X027823Y017798D01*
X027844Y017780D01*
X027861Y017759D01*
X027876Y017735D01*
X027887Y017710D01*
X027895Y017684D01*
X027899Y017657D01*
X027899Y017629D01*
X027895Y017602D01*
X027887Y017576D01*
X027876Y017551D01*
X027861Y017527D01*
X027844Y017506D01*
X027823Y017488D01*
X027801Y017472D01*
X027776Y017460D01*
X027750Y017452D01*
X027723Y017447D01*
X027695Y017446D01*
X027668Y017449D01*
X027641Y017456D01*
X027616Y017466D01*
X027592Y017480D01*
X027570Y017497D01*
X027551Y017516D01*
X027535Y017539D01*
X027522Y017563D01*
X027513Y017589D01*
X027507Y017616D01*
X027505Y017643D01*
X022417Y014887D02*
X022419Y014936D01*
X022425Y014984D01*
X022435Y015032D01*
X022449Y015079D01*
X022466Y015125D01*
X022487Y015169D01*
X022512Y015211D01*
X022540Y015251D01*
X022572Y015289D01*
X022606Y015324D01*
X022643Y015356D01*
X022682Y015385D01*
X022724Y015411D01*
X022768Y015433D01*
X022813Y015451D01*
X022860Y015466D01*
X022907Y015477D01*
X022956Y015484D01*
X023005Y015487D01*
X023054Y015486D01*
X023102Y015481D01*
X023151Y015472D01*
X023198Y015459D01*
X023244Y015442D01*
X023288Y015422D01*
X023331Y015398D01*
X023372Y015371D01*
X023410Y015340D01*
X023446Y015307D01*
X023478Y015271D01*
X023508Y015232D01*
X023535Y015191D01*
X023558Y015147D01*
X023577Y015102D01*
X023593Y015056D01*
X023605Y015009D01*
X023613Y014960D01*
X023617Y014911D01*
X023617Y014863D01*
X023613Y014814D01*
X023605Y014765D01*
X023593Y014718D01*
X023577Y014672D01*
X023558Y014627D01*
X023535Y014583D01*
X023508Y014542D01*
X023478Y014503D01*
X023446Y014467D01*
X023410Y014434D01*
X023372Y014403D01*
X023331Y014376D01*
X023288Y014352D01*
X023244Y014332D01*
X023198Y014315D01*
X023151Y014302D01*
X023102Y014293D01*
X023054Y014288D01*
X023005Y014287D01*
X022956Y014290D01*
X022907Y014297D01*
X022860Y014308D01*
X022813Y014323D01*
X022768Y014341D01*
X022724Y014363D01*
X022682Y014389D01*
X022643Y014418D01*
X022606Y014450D01*
X022572Y014485D01*
X022540Y014523D01*
X022512Y014563D01*
X022487Y014605D01*
X022466Y014649D01*
X022449Y014695D01*
X022435Y014742D01*
X022425Y014790D01*
X022419Y014838D01*
X022417Y014887D01*
X021255Y010143D02*
X021257Y010170D01*
X021263Y010197D01*
X021272Y010223D01*
X021285Y010247D01*
X021301Y010270D01*
X021320Y010289D01*
X021342Y010306D01*
X021366Y010320D01*
X021391Y010330D01*
X021418Y010337D01*
X021445Y010340D01*
X021473Y010339D01*
X021500Y010334D01*
X021526Y010326D01*
X021550Y010314D01*
X021573Y010298D01*
X021594Y010280D01*
X021611Y010259D01*
X021626Y010235D01*
X021637Y010210D01*
X021645Y010184D01*
X021649Y010157D01*
X021649Y010129D01*
X021645Y010102D01*
X021637Y010076D01*
X021626Y010051D01*
X021611Y010027D01*
X021594Y010006D01*
X021573Y009988D01*
X021551Y009972D01*
X021526Y009960D01*
X021500Y009952D01*
X021473Y009947D01*
X021445Y009946D01*
X021418Y009949D01*
X021391Y009956D01*
X021366Y009966D01*
X021342Y009980D01*
X021320Y009997D01*
X021301Y010016D01*
X021285Y010039D01*
X021272Y010063D01*
X021263Y010089D01*
X021257Y010116D01*
X021255Y010143D01*
X013755Y010143D02*
X013757Y010170D01*
X013763Y010197D01*
X013772Y010223D01*
X013785Y010247D01*
X013801Y010270D01*
X013820Y010289D01*
X013842Y010306D01*
X013866Y010320D01*
X013891Y010330D01*
X013918Y010337D01*
X013945Y010340D01*
X013973Y010339D01*
X014000Y010334D01*
X014026Y010326D01*
X014050Y010314D01*
X014073Y010298D01*
X014094Y010280D01*
X014111Y010259D01*
X014126Y010235D01*
X014137Y010210D01*
X014145Y010184D01*
X014149Y010157D01*
X014149Y010129D01*
X014145Y010102D01*
X014137Y010076D01*
X014126Y010051D01*
X014111Y010027D01*
X014094Y010006D01*
X014073Y009988D01*
X014051Y009972D01*
X014026Y009960D01*
X014000Y009952D01*
X013973Y009947D01*
X013945Y009946D01*
X013918Y009949D01*
X013891Y009956D01*
X013866Y009966D01*
X013842Y009980D01*
X013820Y009997D01*
X013801Y010016D01*
X013785Y010039D01*
X013772Y010063D01*
X013763Y010089D01*
X013757Y010116D01*
X013755Y010143D01*
X006255Y010143D02*
X006257Y010170D01*
X006263Y010197D01*
X006272Y010223D01*
X006285Y010247D01*
X006301Y010270D01*
X006320Y010289D01*
X006342Y010306D01*
X006366Y010320D01*
X006391Y010330D01*
X006418Y010337D01*
X006445Y010340D01*
X006473Y010339D01*
X006500Y010334D01*
X006526Y010326D01*
X006550Y010314D01*
X006573Y010298D01*
X006594Y010280D01*
X006611Y010259D01*
X006626Y010235D01*
X006637Y010210D01*
X006645Y010184D01*
X006649Y010157D01*
X006649Y010129D01*
X006645Y010102D01*
X006637Y010076D01*
X006626Y010051D01*
X006611Y010027D01*
X006594Y010006D01*
X006573Y009988D01*
X006551Y009972D01*
X006526Y009960D01*
X006500Y009952D01*
X006473Y009947D01*
X006445Y009946D01*
X006418Y009949D01*
X006391Y009956D01*
X006366Y009966D01*
X006342Y009980D01*
X006320Y009997D01*
X006301Y010016D01*
X006285Y010039D01*
X006272Y010063D01*
X006263Y010089D01*
X006257Y010116D01*
X006255Y010143D01*
X013755Y017643D02*
X013757Y017670D01*
X013763Y017697D01*
X013772Y017723D01*
X013785Y017747D01*
X013801Y017770D01*
X013820Y017789D01*
X013842Y017806D01*
X013866Y017820D01*
X013891Y017830D01*
X013918Y017837D01*
X013945Y017840D01*
X013973Y017839D01*
X014000Y017834D01*
X014026Y017826D01*
X014050Y017814D01*
X014073Y017798D01*
X014094Y017780D01*
X014111Y017759D01*
X014126Y017735D01*
X014137Y017710D01*
X014145Y017684D01*
X014149Y017657D01*
X014149Y017629D01*
X014145Y017602D01*
X014137Y017576D01*
X014126Y017551D01*
X014111Y017527D01*
X014094Y017506D01*
X014073Y017488D01*
X014051Y017472D01*
X014026Y017460D01*
X014000Y017452D01*
X013973Y017447D01*
X013945Y017446D01*
X013918Y017449D01*
X013891Y017456D01*
X013866Y017466D01*
X013842Y017480D01*
X013820Y017497D01*
X013801Y017516D01*
X013785Y017539D01*
X013772Y017563D01*
X013763Y017589D01*
X013757Y017616D01*
X013755Y017643D01*
X028255Y025143D02*
X028257Y025170D01*
X028263Y025197D01*
X028272Y025223D01*
X028285Y025247D01*
X028301Y025270D01*
X028320Y025289D01*
X028342Y025306D01*
X028366Y025320D01*
X028391Y025330D01*
X028418Y025337D01*
X028445Y025340D01*
X028473Y025339D01*
X028500Y025334D01*
X028526Y025326D01*
X028550Y025314D01*
X028573Y025298D01*
X028594Y025280D01*
X028611Y025259D01*
X028626Y025235D01*
X028637Y025210D01*
X028645Y025184D01*
X028649Y025157D01*
X028649Y025129D01*
X028645Y025102D01*
X028637Y025076D01*
X028626Y025051D01*
X028611Y025027D01*
X028594Y025006D01*
X028573Y024988D01*
X028551Y024972D01*
X028526Y024960D01*
X028500Y024952D01*
X028473Y024947D01*
X028445Y024946D01*
X028418Y024949D01*
X028391Y024956D01*
X028366Y024966D01*
X028342Y024980D01*
X028320Y024997D01*
X028301Y025016D01*
X028285Y025039D01*
X028272Y025063D01*
X028263Y025089D01*
X028257Y025116D01*
X028255Y025143D01*
X031600Y020887D02*
X031602Y020943D01*
X031608Y020998D01*
X031618Y021052D01*
X031631Y021106D01*
X031649Y021159D01*
X031670Y021210D01*
X031694Y021260D01*
X031722Y021308D01*
X031754Y021354D01*
X031788Y021398D01*
X031826Y021439D01*
X031866Y021477D01*
X031909Y021512D01*
X031954Y021544D01*
X032002Y021573D01*
X032051Y021599D01*
X032102Y021621D01*
X032154Y021639D01*
X032208Y021653D01*
X032263Y021664D01*
X032318Y021671D01*
X032373Y021674D01*
X032429Y021673D01*
X032484Y021668D01*
X032539Y021659D01*
X032593Y021647D01*
X032646Y021630D01*
X032698Y021610D01*
X032748Y021586D01*
X032796Y021559D01*
X032843Y021529D01*
X032887Y021495D01*
X032929Y021458D01*
X032967Y021418D01*
X033004Y021376D01*
X033037Y021331D01*
X033066Y021285D01*
X033093Y021236D01*
X033115Y021185D01*
X033135Y021133D01*
X033150Y021079D01*
X033162Y021025D01*
X033170Y020970D01*
X033174Y020915D01*
X033174Y020859D01*
X033170Y020804D01*
X033162Y020749D01*
X033150Y020695D01*
X033135Y020641D01*
X033115Y020589D01*
X033093Y020538D01*
X033066Y020489D01*
X033037Y020443D01*
X033004Y020398D01*
X032967Y020356D01*
X032929Y020316D01*
X032887Y020279D01*
X032843Y020245D01*
X032796Y020215D01*
X032748Y020188D01*
X032698Y020164D01*
X032646Y020144D01*
X032593Y020127D01*
X032539Y020115D01*
X032484Y020106D01*
X032429Y020101D01*
X032373Y020100D01*
X032318Y020103D01*
X032263Y020110D01*
X032208Y020121D01*
X032154Y020135D01*
X032102Y020153D01*
X032051Y020175D01*
X032002Y020201D01*
X031954Y020230D01*
X031909Y020262D01*
X031866Y020297D01*
X031826Y020335D01*
X031788Y020376D01*
X031754Y020420D01*
X031722Y020466D01*
X031694Y020514D01*
X031670Y020564D01*
X031649Y020615D01*
X031631Y020668D01*
X031618Y020722D01*
X031608Y020776D01*
X031602Y020831D01*
X031600Y020887D01*
X031787Y014887D02*
X031789Y014936D01*
X031795Y014984D01*
X031805Y015032D01*
X031819Y015079D01*
X031836Y015125D01*
X031857Y015169D01*
X031882Y015211D01*
X031910Y015251D01*
X031942Y015289D01*
X031976Y015324D01*
X032013Y015356D01*
X032052Y015385D01*
X032094Y015411D01*
X032138Y015433D01*
X032183Y015451D01*
X032230Y015466D01*
X032277Y015477D01*
X032326Y015484D01*
X032375Y015487D01*
X032424Y015486D01*
X032472Y015481D01*
X032521Y015472D01*
X032568Y015459D01*
X032614Y015442D01*
X032658Y015422D01*
X032701Y015398D01*
X032742Y015371D01*
X032780Y015340D01*
X032816Y015307D01*
X032848Y015271D01*
X032878Y015232D01*
X032905Y015191D01*
X032928Y015147D01*
X032947Y015102D01*
X032963Y015056D01*
X032975Y015009D01*
X032983Y014960D01*
X032987Y014911D01*
X032987Y014863D01*
X032983Y014814D01*
X032975Y014765D01*
X032963Y014718D01*
X032947Y014672D01*
X032928Y014627D01*
X032905Y014583D01*
X032878Y014542D01*
X032848Y014503D01*
X032816Y014467D01*
X032780Y014434D01*
X032742Y014403D01*
X032701Y014376D01*
X032658Y014352D01*
X032614Y014332D01*
X032568Y014315D01*
X032521Y014302D01*
X032472Y014293D01*
X032424Y014288D01*
X032375Y014287D01*
X032326Y014290D01*
X032277Y014297D01*
X032230Y014308D01*
X032183Y014323D01*
X032138Y014341D01*
X032094Y014363D01*
X032052Y014389D01*
X032013Y014418D01*
X031976Y014450D01*
X031942Y014485D01*
X031910Y014523D01*
X031882Y014563D01*
X031857Y014605D01*
X031836Y014649D01*
X031819Y014695D01*
X031805Y014742D01*
X031795Y014790D01*
X031789Y014838D01*
X031787Y014887D01*
X029880Y010143D02*
X029882Y010170D01*
X029888Y010197D01*
X029897Y010223D01*
X029910Y010247D01*
X029926Y010270D01*
X029945Y010289D01*
X029967Y010306D01*
X029991Y010320D01*
X030016Y010330D01*
X030043Y010337D01*
X030070Y010340D01*
X030098Y010339D01*
X030125Y010334D01*
X030151Y010326D01*
X030175Y010314D01*
X030198Y010298D01*
X030219Y010280D01*
X030236Y010259D01*
X030251Y010235D01*
X030262Y010210D01*
X030270Y010184D01*
X030274Y010157D01*
X030274Y010129D01*
X030270Y010102D01*
X030262Y010076D01*
X030251Y010051D01*
X030236Y010027D01*
X030219Y010006D01*
X030198Y009988D01*
X030176Y009972D01*
X030151Y009960D01*
X030125Y009952D01*
X030098Y009947D01*
X030070Y009946D01*
X030043Y009949D01*
X030016Y009956D01*
X029991Y009966D01*
X029967Y009980D01*
X029945Y009997D01*
X029926Y010016D01*
X029910Y010039D01*
X029897Y010063D01*
X029888Y010089D01*
X029882Y010116D01*
X029880Y010143D01*
X028290Y010143D02*
X028292Y010199D01*
X028298Y010254D01*
X028308Y010308D01*
X028321Y010362D01*
X028339Y010415D01*
X028360Y010466D01*
X028384Y010516D01*
X028412Y010564D01*
X028444Y010610D01*
X028478Y010654D01*
X028516Y010695D01*
X028556Y010733D01*
X028599Y010768D01*
X028644Y010800D01*
X028692Y010829D01*
X028741Y010855D01*
X028792Y010877D01*
X028844Y010895D01*
X028898Y010909D01*
X028953Y010920D01*
X029008Y010927D01*
X029063Y010930D01*
X029119Y010929D01*
X029174Y010924D01*
X029229Y010915D01*
X029283Y010903D01*
X029336Y010886D01*
X029388Y010866D01*
X029438Y010842D01*
X029486Y010815D01*
X029533Y010785D01*
X029577Y010751D01*
X029619Y010714D01*
X029657Y010674D01*
X029694Y010632D01*
X029727Y010587D01*
X029756Y010541D01*
X029783Y010492D01*
X029805Y010441D01*
X029825Y010389D01*
X029840Y010335D01*
X029852Y010281D01*
X029860Y010226D01*
X029864Y010171D01*
X029864Y010115D01*
X029860Y010060D01*
X029852Y010005D01*
X029840Y009951D01*
X029825Y009897D01*
X029805Y009845D01*
X029783Y009794D01*
X029756Y009745D01*
X029727Y009699D01*
X029694Y009654D01*
X029657Y009612D01*
X029619Y009572D01*
X029577Y009535D01*
X029533Y009501D01*
X029486Y009471D01*
X029438Y009444D01*
X029388Y009420D01*
X029336Y009400D01*
X029283Y009383D01*
X029229Y009371D01*
X029174Y009362D01*
X029119Y009357D01*
X029063Y009356D01*
X029008Y009359D01*
X028953Y009366D01*
X028898Y009377D01*
X028844Y009391D01*
X028792Y009409D01*
X028741Y009431D01*
X028692Y009457D01*
X028644Y009486D01*
X028599Y009518D01*
X028556Y009553D01*
X028516Y009591D01*
X028478Y009632D01*
X028444Y009676D01*
X028412Y009722D01*
X028384Y009770D01*
X028360Y009820D01*
X028339Y009871D01*
X028321Y009924D01*
X028308Y009978D01*
X028298Y010032D01*
X028292Y010087D01*
X028290Y010143D01*
X035380Y010143D02*
X035382Y010170D01*
X035388Y010197D01*
X035397Y010223D01*
X035410Y010247D01*
X035426Y010270D01*
X035445Y010289D01*
X035467Y010306D01*
X035491Y010320D01*
X035516Y010330D01*
X035543Y010337D01*
X035570Y010340D01*
X035598Y010339D01*
X035625Y010334D01*
X035651Y010326D01*
X035675Y010314D01*
X035698Y010298D01*
X035719Y010280D01*
X035736Y010259D01*
X035751Y010235D01*
X035762Y010210D01*
X035770Y010184D01*
X035774Y010157D01*
X035774Y010129D01*
X035770Y010102D01*
X035762Y010076D01*
X035751Y010051D01*
X035736Y010027D01*
X035719Y010006D01*
X035698Y009988D01*
X035676Y009972D01*
X035651Y009960D01*
X035625Y009952D01*
X035598Y009947D01*
X035570Y009946D01*
X035543Y009949D01*
X035516Y009956D01*
X035491Y009966D01*
X035467Y009980D01*
X035445Y009997D01*
X035426Y010016D01*
X035410Y010039D01*
X035397Y010063D01*
X035388Y010089D01*
X035382Y010116D01*
X035380Y010143D01*
X035790Y010143D02*
X035792Y010199D01*
X035798Y010254D01*
X035808Y010308D01*
X035821Y010362D01*
X035839Y010415D01*
X035860Y010466D01*
X035884Y010516D01*
X035912Y010564D01*
X035944Y010610D01*
X035978Y010654D01*
X036016Y010695D01*
X036056Y010733D01*
X036099Y010768D01*
X036144Y010800D01*
X036192Y010829D01*
X036241Y010855D01*
X036292Y010877D01*
X036344Y010895D01*
X036398Y010909D01*
X036453Y010920D01*
X036508Y010927D01*
X036563Y010930D01*
X036619Y010929D01*
X036674Y010924D01*
X036729Y010915D01*
X036783Y010903D01*
X036836Y010886D01*
X036888Y010866D01*
X036938Y010842D01*
X036986Y010815D01*
X037033Y010785D01*
X037077Y010751D01*
X037119Y010714D01*
X037157Y010674D01*
X037194Y010632D01*
X037227Y010587D01*
X037256Y010541D01*
X037283Y010492D01*
X037305Y010441D01*
X037325Y010389D01*
X037340Y010335D01*
X037352Y010281D01*
X037360Y010226D01*
X037364Y010171D01*
X037364Y010115D01*
X037360Y010060D01*
X037352Y010005D01*
X037340Y009951D01*
X037325Y009897D01*
X037305Y009845D01*
X037283Y009794D01*
X037256Y009745D01*
X037227Y009699D01*
X037194Y009654D01*
X037157Y009612D01*
X037119Y009572D01*
X037077Y009535D01*
X037033Y009501D01*
X036986Y009471D01*
X036938Y009444D01*
X036888Y009420D01*
X036836Y009400D01*
X036783Y009383D01*
X036729Y009371D01*
X036674Y009362D01*
X036619Y009357D01*
X036563Y009356D01*
X036508Y009359D01*
X036453Y009366D01*
X036398Y009377D01*
X036344Y009391D01*
X036292Y009409D01*
X036241Y009431D01*
X036192Y009457D01*
X036144Y009486D01*
X036099Y009518D01*
X036056Y009553D01*
X036016Y009591D01*
X035978Y009632D01*
X035944Y009676D01*
X035912Y009722D01*
X035884Y009770D01*
X035860Y009820D01*
X035839Y009871D01*
X035821Y009924D01*
X035808Y009978D01*
X035798Y010032D01*
X035792Y010087D01*
X035790Y010143D01*
X038755Y017643D02*
X038757Y017670D01*
X038763Y017697D01*
X038772Y017723D01*
X038785Y017747D01*
X038801Y017770D01*
X038820Y017789D01*
X038842Y017806D01*
X038866Y017820D01*
X038891Y017830D01*
X038918Y017837D01*
X038945Y017840D01*
X038973Y017839D01*
X039000Y017834D01*
X039026Y017826D01*
X039050Y017814D01*
X039073Y017798D01*
X039094Y017780D01*
X039111Y017759D01*
X039126Y017735D01*
X039137Y017710D01*
X039145Y017684D01*
X039149Y017657D01*
X039149Y017629D01*
X039145Y017602D01*
X039137Y017576D01*
X039126Y017551D01*
X039111Y017527D01*
X039094Y017506D01*
X039073Y017488D01*
X039051Y017472D01*
X039026Y017460D01*
X039000Y017452D01*
X038973Y017447D01*
X038945Y017446D01*
X038918Y017449D01*
X038891Y017456D01*
X038866Y017466D01*
X038842Y017480D01*
X038820Y017497D01*
X038801Y017516D01*
X038785Y017539D01*
X038772Y017563D01*
X038763Y017589D01*
X038757Y017616D01*
X038755Y017643D01*
X046255Y017643D02*
X046257Y017670D01*
X046263Y017697D01*
X046272Y017723D01*
X046285Y017747D01*
X046301Y017770D01*
X046320Y017789D01*
X046342Y017806D01*
X046366Y017820D01*
X046391Y017830D01*
X046418Y017837D01*
X046445Y017840D01*
X046473Y017839D01*
X046500Y017834D01*
X046526Y017826D01*
X046550Y017814D01*
X046573Y017798D01*
X046594Y017780D01*
X046611Y017759D01*
X046626Y017735D01*
X046637Y017710D01*
X046645Y017684D01*
X046649Y017657D01*
X046649Y017629D01*
X046645Y017602D01*
X046637Y017576D01*
X046626Y017551D01*
X046611Y017527D01*
X046594Y017506D01*
X046573Y017488D01*
X046551Y017472D01*
X046526Y017460D01*
X046500Y017452D01*
X046473Y017447D01*
X046445Y017446D01*
X046418Y017449D01*
X046391Y017456D01*
X046366Y017466D01*
X046342Y017480D01*
X046320Y017497D01*
X046301Y017516D01*
X046285Y017539D01*
X046272Y017563D01*
X046263Y017589D01*
X046257Y017616D01*
X046255Y017643D01*
X053755Y017643D02*
X053757Y017670D01*
X053763Y017697D01*
X053772Y017723D01*
X053785Y017747D01*
X053801Y017770D01*
X053820Y017789D01*
X053842Y017806D01*
X053866Y017820D01*
X053891Y017830D01*
X053918Y017837D01*
X053945Y017840D01*
X053973Y017839D01*
X054000Y017834D01*
X054026Y017826D01*
X054050Y017814D01*
X054073Y017798D01*
X054094Y017780D01*
X054111Y017759D01*
X054126Y017735D01*
X054137Y017710D01*
X054145Y017684D01*
X054149Y017657D01*
X054149Y017629D01*
X054145Y017602D01*
X054137Y017576D01*
X054126Y017551D01*
X054111Y017527D01*
X054094Y017506D01*
X054073Y017488D01*
X054051Y017472D01*
X054026Y017460D01*
X054000Y017452D01*
X053973Y017447D01*
X053945Y017446D01*
X053918Y017449D01*
X053891Y017456D01*
X053866Y017466D01*
X053842Y017480D01*
X053820Y017497D01*
X053801Y017516D01*
X053785Y017539D01*
X053772Y017563D01*
X053763Y017589D01*
X053757Y017616D01*
X053755Y017643D01*
X054730Y013387D02*
X054732Y013443D01*
X054738Y013498D01*
X054748Y013552D01*
X054761Y013606D01*
X054779Y013659D01*
X054800Y013710D01*
X054824Y013760D01*
X054852Y013808D01*
X054884Y013854D01*
X054918Y013898D01*
X054956Y013939D01*
X054996Y013977D01*
X055039Y014012D01*
X055084Y014044D01*
X055132Y014073D01*
X055181Y014099D01*
X055232Y014121D01*
X055284Y014139D01*
X055338Y014153D01*
X055393Y014164D01*
X055448Y014171D01*
X055503Y014174D01*
X055559Y014173D01*
X055614Y014168D01*
X055669Y014159D01*
X055723Y014147D01*
X055776Y014130D01*
X055828Y014110D01*
X055878Y014086D01*
X055926Y014059D01*
X055973Y014029D01*
X056017Y013995D01*
X056059Y013958D01*
X056097Y013918D01*
X056134Y013876D01*
X056167Y013831D01*
X056196Y013785D01*
X056223Y013736D01*
X056245Y013685D01*
X056265Y013633D01*
X056280Y013579D01*
X056292Y013525D01*
X056300Y013470D01*
X056304Y013415D01*
X056304Y013359D01*
X056300Y013304D01*
X056292Y013249D01*
X056280Y013195D01*
X056265Y013141D01*
X056245Y013089D01*
X056223Y013038D01*
X056196Y012989D01*
X056167Y012943D01*
X056134Y012898D01*
X056097Y012856D01*
X056059Y012816D01*
X056017Y012779D01*
X055973Y012745D01*
X055926Y012715D01*
X055878Y012688D01*
X055828Y012664D01*
X055776Y012644D01*
X055723Y012627D01*
X055669Y012615D01*
X055614Y012606D01*
X055559Y012601D01*
X055503Y012600D01*
X055448Y012603D01*
X055393Y012610D01*
X055338Y012621D01*
X055284Y012635D01*
X055232Y012653D01*
X055181Y012675D01*
X055132Y012701D01*
X055084Y012730D01*
X055039Y012762D01*
X054996Y012797D01*
X054956Y012835D01*
X054918Y012876D01*
X054884Y012920D01*
X054852Y012966D01*
X054824Y013014D01*
X054800Y013064D01*
X054779Y013115D01*
X054761Y013168D01*
X054748Y013222D01*
X054738Y013276D01*
X054732Y013331D01*
X054730Y013387D01*
X060005Y010143D02*
X060007Y010170D01*
X060013Y010197D01*
X060022Y010223D01*
X060035Y010247D01*
X060051Y010270D01*
X060070Y010289D01*
X060092Y010306D01*
X060116Y010320D01*
X060141Y010330D01*
X060168Y010337D01*
X060195Y010340D01*
X060223Y010339D01*
X060250Y010334D01*
X060276Y010326D01*
X060300Y010314D01*
X060323Y010298D01*
X060344Y010280D01*
X060361Y010259D01*
X060376Y010235D01*
X060387Y010210D01*
X060395Y010184D01*
X060399Y010157D01*
X060399Y010129D01*
X060395Y010102D01*
X060387Y010076D01*
X060376Y010051D01*
X060361Y010027D01*
X060344Y010006D01*
X060323Y009988D01*
X060301Y009972D01*
X060276Y009960D01*
X060250Y009952D01*
X060223Y009947D01*
X060195Y009946D01*
X060168Y009949D01*
X060141Y009956D01*
X060116Y009966D01*
X060092Y009980D01*
X060070Y009997D01*
X060051Y010016D01*
X060035Y010039D01*
X060022Y010063D01*
X060013Y010089D01*
X060007Y010116D01*
X060005Y010143D01*
X054917Y007387D02*
X054919Y007436D01*
X054925Y007484D01*
X054935Y007532D01*
X054949Y007579D01*
X054966Y007625D01*
X054987Y007669D01*
X055012Y007711D01*
X055040Y007751D01*
X055072Y007789D01*
X055106Y007824D01*
X055143Y007856D01*
X055182Y007885D01*
X055224Y007911D01*
X055268Y007933D01*
X055313Y007951D01*
X055360Y007966D01*
X055407Y007977D01*
X055456Y007984D01*
X055505Y007987D01*
X055554Y007986D01*
X055602Y007981D01*
X055651Y007972D01*
X055698Y007959D01*
X055744Y007942D01*
X055788Y007922D01*
X055831Y007898D01*
X055872Y007871D01*
X055910Y007840D01*
X055946Y007807D01*
X055978Y007771D01*
X056008Y007732D01*
X056035Y007691D01*
X056058Y007647D01*
X056077Y007602D01*
X056093Y007556D01*
X056105Y007509D01*
X056113Y007460D01*
X056117Y007411D01*
X056117Y007363D01*
X056113Y007314D01*
X056105Y007265D01*
X056093Y007218D01*
X056077Y007172D01*
X056058Y007127D01*
X056035Y007083D01*
X056008Y007042D01*
X055978Y007003D01*
X055946Y006967D01*
X055910Y006934D01*
X055872Y006903D01*
X055831Y006876D01*
X055788Y006852D01*
X055744Y006832D01*
X055698Y006815D01*
X055651Y006802D01*
X055602Y006793D01*
X055554Y006788D01*
X055505Y006787D01*
X055456Y006790D01*
X055407Y006797D01*
X055360Y006808D01*
X055313Y006823D01*
X055268Y006841D01*
X055224Y006863D01*
X055182Y006889D01*
X055143Y006918D01*
X055106Y006950D01*
X055072Y006985D01*
X055040Y007023D01*
X055012Y007063D01*
X054987Y007105D01*
X054966Y007149D01*
X054949Y007195D01*
X054935Y007242D01*
X054925Y007290D01*
X054919Y007338D01*
X054917Y007387D01*
X064287Y007387D02*
X064289Y007436D01*
X064295Y007484D01*
X064305Y007532D01*
X064319Y007579D01*
X064336Y007625D01*
X064357Y007669D01*
X064382Y007711D01*
X064410Y007751D01*
X064442Y007789D01*
X064476Y007824D01*
X064513Y007856D01*
X064552Y007885D01*
X064594Y007911D01*
X064638Y007933D01*
X064683Y007951D01*
X064730Y007966D01*
X064777Y007977D01*
X064826Y007984D01*
X064875Y007987D01*
X064924Y007986D01*
X064972Y007981D01*
X065021Y007972D01*
X065068Y007959D01*
X065114Y007942D01*
X065158Y007922D01*
X065201Y007898D01*
X065242Y007871D01*
X065280Y007840D01*
X065316Y007807D01*
X065348Y007771D01*
X065378Y007732D01*
X065405Y007691D01*
X065428Y007647D01*
X065447Y007602D01*
X065463Y007556D01*
X065475Y007509D01*
X065483Y007460D01*
X065487Y007411D01*
X065487Y007363D01*
X065483Y007314D01*
X065475Y007265D01*
X065463Y007218D01*
X065447Y007172D01*
X065428Y007127D01*
X065405Y007083D01*
X065378Y007042D01*
X065348Y007003D01*
X065316Y006967D01*
X065280Y006934D01*
X065242Y006903D01*
X065201Y006876D01*
X065158Y006852D01*
X065114Y006832D01*
X065068Y006815D01*
X065021Y006802D01*
X064972Y006793D01*
X064924Y006788D01*
X064875Y006787D01*
X064826Y006790D01*
X064777Y006797D01*
X064730Y006808D01*
X064683Y006823D01*
X064638Y006841D01*
X064594Y006863D01*
X064552Y006889D01*
X064513Y006918D01*
X064476Y006950D01*
X064442Y006985D01*
X064410Y007023D01*
X064382Y007063D01*
X064357Y007105D01*
X064336Y007149D01*
X064319Y007195D01*
X064305Y007242D01*
X064295Y007290D01*
X064289Y007338D01*
X064287Y007387D01*
X064100Y013387D02*
X064102Y013443D01*
X064108Y013498D01*
X064118Y013552D01*
X064131Y013606D01*
X064149Y013659D01*
X064170Y013710D01*
X064194Y013760D01*
X064222Y013808D01*
X064254Y013854D01*
X064288Y013898D01*
X064326Y013939D01*
X064366Y013977D01*
X064409Y014012D01*
X064454Y014044D01*
X064502Y014073D01*
X064551Y014099D01*
X064602Y014121D01*
X064654Y014139D01*
X064708Y014153D01*
X064763Y014164D01*
X064818Y014171D01*
X064873Y014174D01*
X064929Y014173D01*
X064984Y014168D01*
X065039Y014159D01*
X065093Y014147D01*
X065146Y014130D01*
X065198Y014110D01*
X065248Y014086D01*
X065296Y014059D01*
X065343Y014029D01*
X065387Y013995D01*
X065429Y013958D01*
X065467Y013918D01*
X065504Y013876D01*
X065537Y013831D01*
X065566Y013785D01*
X065593Y013736D01*
X065615Y013685D01*
X065635Y013633D01*
X065650Y013579D01*
X065662Y013525D01*
X065670Y013470D01*
X065674Y013415D01*
X065674Y013359D01*
X065670Y013304D01*
X065662Y013249D01*
X065650Y013195D01*
X065635Y013141D01*
X065615Y013089D01*
X065593Y013038D01*
X065566Y012989D01*
X065537Y012943D01*
X065504Y012898D01*
X065467Y012856D01*
X065429Y012816D01*
X065387Y012779D01*
X065343Y012745D01*
X065296Y012715D01*
X065248Y012688D01*
X065198Y012664D01*
X065146Y012644D01*
X065093Y012627D01*
X065039Y012615D01*
X064984Y012606D01*
X064929Y012601D01*
X064873Y012600D01*
X064818Y012603D01*
X064763Y012610D01*
X064708Y012621D01*
X064654Y012635D01*
X064602Y012653D01*
X064551Y012675D01*
X064502Y012701D01*
X064454Y012730D01*
X064409Y012762D01*
X064366Y012797D01*
X064326Y012835D01*
X064288Y012876D01*
X064254Y012920D01*
X064222Y012966D01*
X064194Y013014D01*
X064170Y013064D01*
X064149Y013115D01*
X064131Y013168D01*
X064118Y013222D01*
X064108Y013276D01*
X064102Y013331D01*
X064100Y013387D01*
X061255Y017643D02*
X061257Y017670D01*
X061263Y017697D01*
X061272Y017723D01*
X061285Y017747D01*
X061301Y017770D01*
X061320Y017789D01*
X061342Y017806D01*
X061366Y017820D01*
X061391Y017830D01*
X061418Y017837D01*
X061445Y017840D01*
X061473Y017839D01*
X061500Y017834D01*
X061526Y017826D01*
X061550Y017814D01*
X061573Y017798D01*
X061594Y017780D01*
X061611Y017759D01*
X061626Y017735D01*
X061637Y017710D01*
X061645Y017684D01*
X061649Y017657D01*
X061649Y017629D01*
X061645Y017602D01*
X061637Y017576D01*
X061626Y017551D01*
X061611Y017527D01*
X061594Y017506D01*
X061573Y017488D01*
X061551Y017472D01*
X061526Y017460D01*
X061500Y017452D01*
X061473Y017447D01*
X061445Y017446D01*
X061418Y017449D01*
X061391Y017456D01*
X061366Y017466D01*
X061342Y017480D01*
X061320Y017497D01*
X061301Y017516D01*
X061285Y017539D01*
X061272Y017563D01*
X061263Y017589D01*
X061257Y017616D01*
X061255Y017643D01*
X068755Y017643D02*
X068757Y017670D01*
X068763Y017697D01*
X068772Y017723D01*
X068785Y017747D01*
X068801Y017770D01*
X068820Y017789D01*
X068842Y017806D01*
X068866Y017820D01*
X068891Y017830D01*
X068918Y017837D01*
X068945Y017840D01*
X068973Y017839D01*
X069000Y017834D01*
X069026Y017826D01*
X069050Y017814D01*
X069073Y017798D01*
X069094Y017780D01*
X069111Y017759D01*
X069126Y017735D01*
X069137Y017710D01*
X069145Y017684D01*
X069149Y017657D01*
X069149Y017629D01*
X069145Y017602D01*
X069137Y017576D01*
X069126Y017551D01*
X069111Y017527D01*
X069094Y017506D01*
X069073Y017488D01*
X069051Y017472D01*
X069026Y017460D01*
X069000Y017452D01*
X068973Y017447D01*
X068945Y017446D01*
X068918Y017449D01*
X068891Y017456D01*
X068866Y017466D01*
X068842Y017480D01*
X068820Y017497D01*
X068801Y017516D01*
X068785Y017539D01*
X068772Y017563D01*
X068763Y017589D01*
X068757Y017616D01*
X068755Y017643D01*
X068755Y025143D02*
X068757Y025170D01*
X068763Y025197D01*
X068772Y025223D01*
X068785Y025247D01*
X068801Y025270D01*
X068820Y025289D01*
X068842Y025306D01*
X068866Y025320D01*
X068891Y025330D01*
X068918Y025337D01*
X068945Y025340D01*
X068973Y025339D01*
X069000Y025334D01*
X069026Y025326D01*
X069050Y025314D01*
X069073Y025298D01*
X069094Y025280D01*
X069111Y025259D01*
X069126Y025235D01*
X069137Y025210D01*
X069145Y025184D01*
X069149Y025157D01*
X069149Y025129D01*
X069145Y025102D01*
X069137Y025076D01*
X069126Y025051D01*
X069111Y025027D01*
X069094Y025006D01*
X069073Y024988D01*
X069051Y024972D01*
X069026Y024960D01*
X069000Y024952D01*
X068973Y024947D01*
X068945Y024946D01*
X068918Y024949D01*
X068891Y024956D01*
X068866Y024966D01*
X068842Y024980D01*
X068820Y024997D01*
X068801Y025016D01*
X068785Y025039D01*
X068772Y025063D01*
X068763Y025089D01*
X068757Y025116D01*
X068755Y025143D01*
X061255Y025143D02*
X061257Y025170D01*
X061263Y025197D01*
X061272Y025223D01*
X061285Y025247D01*
X061301Y025270D01*
X061320Y025289D01*
X061342Y025306D01*
X061366Y025320D01*
X061391Y025330D01*
X061418Y025337D01*
X061445Y025340D01*
X061473Y025339D01*
X061500Y025334D01*
X061526Y025326D01*
X061550Y025314D01*
X061573Y025298D01*
X061594Y025280D01*
X061611Y025259D01*
X061626Y025235D01*
X061637Y025210D01*
X061645Y025184D01*
X061649Y025157D01*
X061649Y025129D01*
X061645Y025102D01*
X061637Y025076D01*
X061626Y025051D01*
X061611Y025027D01*
X061594Y025006D01*
X061573Y024988D01*
X061551Y024972D01*
X061526Y024960D01*
X061500Y024952D01*
X061473Y024947D01*
X061445Y024946D01*
X061418Y024949D01*
X061391Y024956D01*
X061366Y024966D01*
X061342Y024980D01*
X061320Y024997D01*
X061301Y025016D01*
X061285Y025039D01*
X061272Y025063D01*
X061263Y025089D01*
X061257Y025116D01*
X061255Y025143D01*
X053755Y025143D02*
X053757Y025170D01*
X053763Y025197D01*
X053772Y025223D01*
X053785Y025247D01*
X053801Y025270D01*
X053820Y025289D01*
X053842Y025306D01*
X053866Y025320D01*
X053891Y025330D01*
X053918Y025337D01*
X053945Y025340D01*
X053973Y025339D01*
X054000Y025334D01*
X054026Y025326D01*
X054050Y025314D01*
X054073Y025298D01*
X054094Y025280D01*
X054111Y025259D01*
X054126Y025235D01*
X054137Y025210D01*
X054145Y025184D01*
X054149Y025157D01*
X054149Y025129D01*
X054145Y025102D01*
X054137Y025076D01*
X054126Y025051D01*
X054111Y025027D01*
X054094Y025006D01*
X054073Y024988D01*
X054051Y024972D01*
X054026Y024960D01*
X054000Y024952D01*
X053973Y024947D01*
X053945Y024946D01*
X053918Y024949D01*
X053891Y024956D01*
X053866Y024966D01*
X053842Y024980D01*
X053820Y024997D01*
X053801Y025016D01*
X053785Y025039D01*
X053772Y025063D01*
X053763Y025089D01*
X053757Y025116D01*
X053755Y025143D01*
X046255Y025143D02*
X046257Y025170D01*
X046263Y025197D01*
X046272Y025223D01*
X046285Y025247D01*
X046301Y025270D01*
X046320Y025289D01*
X046342Y025306D01*
X046366Y025320D01*
X046391Y025330D01*
X046418Y025337D01*
X046445Y025340D01*
X046473Y025339D01*
X046500Y025334D01*
X046526Y025326D01*
X046550Y025314D01*
X046573Y025298D01*
X046594Y025280D01*
X046611Y025259D01*
X046626Y025235D01*
X046637Y025210D01*
X046645Y025184D01*
X046649Y025157D01*
X046649Y025129D01*
X046645Y025102D01*
X046637Y025076D01*
X046626Y025051D01*
X046611Y025027D01*
X046594Y025006D01*
X046573Y024988D01*
X046551Y024972D01*
X046526Y024960D01*
X046500Y024952D01*
X046473Y024947D01*
X046445Y024946D01*
X046418Y024949D01*
X046391Y024956D01*
X046366Y024966D01*
X046342Y024980D01*
X046320Y024997D01*
X046301Y025016D01*
X046285Y025039D01*
X046272Y025063D01*
X046263Y025089D01*
X046257Y025116D01*
X046255Y025143D01*
X038755Y025143D02*
X038757Y025170D01*
X038763Y025197D01*
X038772Y025223D01*
X038785Y025247D01*
X038801Y025270D01*
X038820Y025289D01*
X038842Y025306D01*
X038866Y025320D01*
X038891Y025330D01*
X038918Y025337D01*
X038945Y025340D01*
X038973Y025339D01*
X039000Y025334D01*
X039026Y025326D01*
X039050Y025314D01*
X039073Y025298D01*
X039094Y025280D01*
X039111Y025259D01*
X039126Y025235D01*
X039137Y025210D01*
X039145Y025184D01*
X039149Y025157D01*
X039149Y025129D01*
X039145Y025102D01*
X039137Y025076D01*
X039126Y025051D01*
X039111Y025027D01*
X039094Y025006D01*
X039073Y024988D01*
X039051Y024972D01*
X039026Y024960D01*
X039000Y024952D01*
X038973Y024947D01*
X038945Y024946D01*
X038918Y024949D01*
X038891Y024956D01*
X038866Y024966D01*
X038842Y024980D01*
X038820Y024997D01*
X038801Y025016D01*
X038785Y025039D01*
X038772Y025063D01*
X038763Y025089D01*
X038757Y025116D01*
X038755Y025143D01*
X038755Y032643D02*
X038757Y032670D01*
X038763Y032697D01*
X038772Y032723D01*
X038785Y032747D01*
X038801Y032770D01*
X038820Y032789D01*
X038842Y032806D01*
X038866Y032820D01*
X038891Y032830D01*
X038918Y032837D01*
X038945Y032840D01*
X038973Y032839D01*
X039000Y032834D01*
X039026Y032826D01*
X039050Y032814D01*
X039073Y032798D01*
X039094Y032780D01*
X039111Y032759D01*
X039126Y032735D01*
X039137Y032710D01*
X039145Y032684D01*
X039149Y032657D01*
X039149Y032629D01*
X039145Y032602D01*
X039137Y032576D01*
X039126Y032551D01*
X039111Y032527D01*
X039094Y032506D01*
X039073Y032488D01*
X039051Y032472D01*
X039026Y032460D01*
X039000Y032452D01*
X038973Y032447D01*
X038945Y032446D01*
X038918Y032449D01*
X038891Y032456D01*
X038866Y032466D01*
X038842Y032480D01*
X038820Y032497D01*
X038801Y032516D01*
X038785Y032539D01*
X038772Y032563D01*
X038763Y032589D01*
X038757Y032616D01*
X038755Y032643D01*
X046255Y032643D02*
X046257Y032670D01*
X046263Y032697D01*
X046272Y032723D01*
X046285Y032747D01*
X046301Y032770D01*
X046320Y032789D01*
X046342Y032806D01*
X046366Y032820D01*
X046391Y032830D01*
X046418Y032837D01*
X046445Y032840D01*
X046473Y032839D01*
X046500Y032834D01*
X046526Y032826D01*
X046550Y032814D01*
X046573Y032798D01*
X046594Y032780D01*
X046611Y032759D01*
X046626Y032735D01*
X046637Y032710D01*
X046645Y032684D01*
X046649Y032657D01*
X046649Y032629D01*
X046645Y032602D01*
X046637Y032576D01*
X046626Y032551D01*
X046611Y032527D01*
X046594Y032506D01*
X046573Y032488D01*
X046551Y032472D01*
X046526Y032460D01*
X046500Y032452D01*
X046473Y032447D01*
X046445Y032446D01*
X046418Y032449D01*
X046391Y032456D01*
X046366Y032466D01*
X046342Y032480D01*
X046320Y032497D01*
X046301Y032516D01*
X046285Y032539D01*
X046272Y032563D01*
X046263Y032589D01*
X046257Y032616D01*
X046255Y032643D01*
X053755Y032643D02*
X053757Y032670D01*
X053763Y032697D01*
X053772Y032723D01*
X053785Y032747D01*
X053801Y032770D01*
X053820Y032789D01*
X053842Y032806D01*
X053866Y032820D01*
X053891Y032830D01*
X053918Y032837D01*
X053945Y032840D01*
X053973Y032839D01*
X054000Y032834D01*
X054026Y032826D01*
X054050Y032814D01*
X054073Y032798D01*
X054094Y032780D01*
X054111Y032759D01*
X054126Y032735D01*
X054137Y032710D01*
X054145Y032684D01*
X054149Y032657D01*
X054149Y032629D01*
X054145Y032602D01*
X054137Y032576D01*
X054126Y032551D01*
X054111Y032527D01*
X054094Y032506D01*
X054073Y032488D01*
X054051Y032472D01*
X054026Y032460D01*
X054000Y032452D01*
X053973Y032447D01*
X053945Y032446D01*
X053918Y032449D01*
X053891Y032456D01*
X053866Y032466D01*
X053842Y032480D01*
X053820Y032497D01*
X053801Y032516D01*
X053785Y032539D01*
X053772Y032563D01*
X053763Y032589D01*
X053757Y032616D01*
X053755Y032643D01*
X061255Y032643D02*
X061257Y032670D01*
X061263Y032697D01*
X061272Y032723D01*
X061285Y032747D01*
X061301Y032770D01*
X061320Y032789D01*
X061342Y032806D01*
X061366Y032820D01*
X061391Y032830D01*
X061418Y032837D01*
X061445Y032840D01*
X061473Y032839D01*
X061500Y032834D01*
X061526Y032826D01*
X061550Y032814D01*
X061573Y032798D01*
X061594Y032780D01*
X061611Y032759D01*
X061626Y032735D01*
X061637Y032710D01*
X061645Y032684D01*
X061649Y032657D01*
X061649Y032629D01*
X061645Y032602D01*
X061637Y032576D01*
X061626Y032551D01*
X061611Y032527D01*
X061594Y032506D01*
X061573Y032488D01*
X061551Y032472D01*
X061526Y032460D01*
X061500Y032452D01*
X061473Y032447D01*
X061445Y032446D01*
X061418Y032449D01*
X061391Y032456D01*
X061366Y032466D01*
X061342Y032480D01*
X061320Y032497D01*
X061301Y032516D01*
X061285Y032539D01*
X061272Y032563D01*
X061263Y032589D01*
X061257Y032616D01*
X061255Y032643D01*
X068755Y032643D02*
X068757Y032670D01*
X068763Y032697D01*
X068772Y032723D01*
X068785Y032747D01*
X068801Y032770D01*
X068820Y032789D01*
X068842Y032806D01*
X068866Y032820D01*
X068891Y032830D01*
X068918Y032837D01*
X068945Y032840D01*
X068973Y032839D01*
X069000Y032834D01*
X069026Y032826D01*
X069050Y032814D01*
X069073Y032798D01*
X069094Y032780D01*
X069111Y032759D01*
X069126Y032735D01*
X069137Y032710D01*
X069145Y032684D01*
X069149Y032657D01*
X069149Y032629D01*
X069145Y032602D01*
X069137Y032576D01*
X069126Y032551D01*
X069111Y032527D01*
X069094Y032506D01*
X069073Y032488D01*
X069051Y032472D01*
X069026Y032460D01*
X069000Y032452D01*
X068973Y032447D01*
X068945Y032446D01*
X068918Y032449D01*
X068891Y032456D01*
X068866Y032466D01*
X068842Y032480D01*
X068820Y032497D01*
X068801Y032516D01*
X068785Y032539D01*
X068772Y032563D01*
X068763Y032589D01*
X068757Y032616D01*
X068755Y032643D01*
X068755Y040143D02*
X068757Y040170D01*
X068763Y040197D01*
X068772Y040223D01*
X068785Y040247D01*
X068801Y040270D01*
X068820Y040289D01*
X068842Y040306D01*
X068866Y040320D01*
X068891Y040330D01*
X068918Y040337D01*
X068945Y040340D01*
X068973Y040339D01*
X069000Y040334D01*
X069026Y040326D01*
X069050Y040314D01*
X069073Y040298D01*
X069094Y040280D01*
X069111Y040259D01*
X069126Y040235D01*
X069137Y040210D01*
X069145Y040184D01*
X069149Y040157D01*
X069149Y040129D01*
X069145Y040102D01*
X069137Y040076D01*
X069126Y040051D01*
X069111Y040027D01*
X069094Y040006D01*
X069073Y039988D01*
X069051Y039972D01*
X069026Y039960D01*
X069000Y039952D01*
X068973Y039947D01*
X068945Y039946D01*
X068918Y039949D01*
X068891Y039956D01*
X068866Y039966D01*
X068842Y039980D01*
X068820Y039997D01*
X068801Y040016D01*
X068785Y040039D01*
X068772Y040063D01*
X068763Y040089D01*
X068757Y040116D01*
X068755Y040143D01*
X061255Y040143D02*
X061257Y040170D01*
X061263Y040197D01*
X061272Y040223D01*
X061285Y040247D01*
X061301Y040270D01*
X061320Y040289D01*
X061342Y040306D01*
X061366Y040320D01*
X061391Y040330D01*
X061418Y040337D01*
X061445Y040340D01*
X061473Y040339D01*
X061500Y040334D01*
X061526Y040326D01*
X061550Y040314D01*
X061573Y040298D01*
X061594Y040280D01*
X061611Y040259D01*
X061626Y040235D01*
X061637Y040210D01*
X061645Y040184D01*
X061649Y040157D01*
X061649Y040129D01*
X061645Y040102D01*
X061637Y040076D01*
X061626Y040051D01*
X061611Y040027D01*
X061594Y040006D01*
X061573Y039988D01*
X061551Y039972D01*
X061526Y039960D01*
X061500Y039952D01*
X061473Y039947D01*
X061445Y039946D01*
X061418Y039949D01*
X061391Y039956D01*
X061366Y039966D01*
X061342Y039980D01*
X061320Y039997D01*
X061301Y040016D01*
X061285Y040039D01*
X061272Y040063D01*
X061263Y040089D01*
X061257Y040116D01*
X061255Y040143D01*
X053755Y040143D02*
X053757Y040170D01*
X053763Y040197D01*
X053772Y040223D01*
X053785Y040247D01*
X053801Y040270D01*
X053820Y040289D01*
X053842Y040306D01*
X053866Y040320D01*
X053891Y040330D01*
X053918Y040337D01*
X053945Y040340D01*
X053973Y040339D01*
X054000Y040334D01*
X054026Y040326D01*
X054050Y040314D01*
X054073Y040298D01*
X054094Y040280D01*
X054111Y040259D01*
X054126Y040235D01*
X054137Y040210D01*
X054145Y040184D01*
X054149Y040157D01*
X054149Y040129D01*
X054145Y040102D01*
X054137Y040076D01*
X054126Y040051D01*
X054111Y040027D01*
X054094Y040006D01*
X054073Y039988D01*
X054051Y039972D01*
X054026Y039960D01*
X054000Y039952D01*
X053973Y039947D01*
X053945Y039946D01*
X053918Y039949D01*
X053891Y039956D01*
X053866Y039966D01*
X053842Y039980D01*
X053820Y039997D01*
X053801Y040016D01*
X053785Y040039D01*
X053772Y040063D01*
X053763Y040089D01*
X053757Y040116D01*
X053755Y040143D01*
X046255Y040143D02*
X046257Y040170D01*
X046263Y040197D01*
X046272Y040223D01*
X046285Y040247D01*
X046301Y040270D01*
X046320Y040289D01*
X046342Y040306D01*
X046366Y040320D01*
X046391Y040330D01*
X046418Y040337D01*
X046445Y040340D01*
X046473Y040339D01*
X046500Y040334D01*
X046526Y040326D01*
X046550Y040314D01*
X046573Y040298D01*
X046594Y040280D01*
X046611Y040259D01*
X046626Y040235D01*
X046637Y040210D01*
X046645Y040184D01*
X046649Y040157D01*
X046649Y040129D01*
X046645Y040102D01*
X046637Y040076D01*
X046626Y040051D01*
X046611Y040027D01*
X046594Y040006D01*
X046573Y039988D01*
X046551Y039972D01*
X046526Y039960D01*
X046500Y039952D01*
X046473Y039947D01*
X046445Y039946D01*
X046418Y039949D01*
X046391Y039956D01*
X046366Y039966D01*
X046342Y039980D01*
X046320Y039997D01*
X046301Y040016D01*
X046285Y040039D01*
X046272Y040063D01*
X046263Y040089D01*
X046257Y040116D01*
X046255Y040143D01*
X038755Y040143D02*
X038757Y040170D01*
X038763Y040197D01*
X038772Y040223D01*
X038785Y040247D01*
X038801Y040270D01*
X038820Y040289D01*
X038842Y040306D01*
X038866Y040320D01*
X038891Y040330D01*
X038918Y040337D01*
X038945Y040340D01*
X038973Y040339D01*
X039000Y040334D01*
X039026Y040326D01*
X039050Y040314D01*
X039073Y040298D01*
X039094Y040280D01*
X039111Y040259D01*
X039126Y040235D01*
X039137Y040210D01*
X039145Y040184D01*
X039149Y040157D01*
X039149Y040129D01*
X039145Y040102D01*
X039137Y040076D01*
X039126Y040051D01*
X039111Y040027D01*
X039094Y040006D01*
X039073Y039988D01*
X039051Y039972D01*
X039026Y039960D01*
X039000Y039952D01*
X038973Y039947D01*
X038945Y039946D01*
X038918Y039949D01*
X038891Y039956D01*
X038866Y039966D01*
X038842Y039980D01*
X038820Y039997D01*
X038801Y040016D01*
X038785Y040039D01*
X038772Y040063D01*
X038763Y040089D01*
X038757Y040116D01*
X038755Y040143D01*
X031255Y040143D02*
X031257Y040170D01*
X031263Y040197D01*
X031272Y040223D01*
X031285Y040247D01*
X031301Y040270D01*
X031320Y040289D01*
X031342Y040306D01*
X031366Y040320D01*
X031391Y040330D01*
X031418Y040337D01*
X031445Y040340D01*
X031473Y040339D01*
X031500Y040334D01*
X031526Y040326D01*
X031550Y040314D01*
X031573Y040298D01*
X031594Y040280D01*
X031611Y040259D01*
X031626Y040235D01*
X031637Y040210D01*
X031645Y040184D01*
X031649Y040157D01*
X031649Y040129D01*
X031645Y040102D01*
X031637Y040076D01*
X031626Y040051D01*
X031611Y040027D01*
X031594Y040006D01*
X031573Y039988D01*
X031551Y039972D01*
X031526Y039960D01*
X031500Y039952D01*
X031473Y039947D01*
X031445Y039946D01*
X031418Y039949D01*
X031391Y039956D01*
X031366Y039966D01*
X031342Y039980D01*
X031320Y039997D01*
X031301Y040016D01*
X031285Y040039D01*
X031272Y040063D01*
X031263Y040089D01*
X031257Y040116D01*
X031255Y040143D01*
X023755Y040143D02*
X023757Y040170D01*
X023763Y040197D01*
X023772Y040223D01*
X023785Y040247D01*
X023801Y040270D01*
X023820Y040289D01*
X023842Y040306D01*
X023866Y040320D01*
X023891Y040330D01*
X023918Y040337D01*
X023945Y040340D01*
X023973Y040339D01*
X024000Y040334D01*
X024026Y040326D01*
X024050Y040314D01*
X024073Y040298D01*
X024094Y040280D01*
X024111Y040259D01*
X024126Y040235D01*
X024137Y040210D01*
X024145Y040184D01*
X024149Y040157D01*
X024149Y040129D01*
X024145Y040102D01*
X024137Y040076D01*
X024126Y040051D01*
X024111Y040027D01*
X024094Y040006D01*
X024073Y039988D01*
X024051Y039972D01*
X024026Y039960D01*
X024000Y039952D01*
X023973Y039947D01*
X023945Y039946D01*
X023918Y039949D01*
X023891Y039956D01*
X023866Y039966D01*
X023842Y039980D01*
X023820Y039997D01*
X023801Y040016D01*
X023785Y040039D01*
X023772Y040063D01*
X023763Y040089D01*
X023757Y040116D01*
X023755Y040143D01*
X029255Y032643D02*
X029257Y032670D01*
X029263Y032697D01*
X029272Y032723D01*
X029285Y032747D01*
X029301Y032770D01*
X029320Y032789D01*
X029342Y032806D01*
X029366Y032820D01*
X029391Y032830D01*
X029418Y032837D01*
X029445Y032840D01*
X029473Y032839D01*
X029500Y032834D01*
X029526Y032826D01*
X029550Y032814D01*
X029573Y032798D01*
X029594Y032780D01*
X029611Y032759D01*
X029626Y032735D01*
X029637Y032710D01*
X029645Y032684D01*
X029649Y032657D01*
X029649Y032629D01*
X029645Y032602D01*
X029637Y032576D01*
X029626Y032551D01*
X029611Y032527D01*
X029594Y032506D01*
X029573Y032488D01*
X029551Y032472D01*
X029526Y032460D01*
X029500Y032452D01*
X029473Y032447D01*
X029445Y032446D01*
X029418Y032449D01*
X029391Y032456D01*
X029366Y032466D01*
X029342Y032480D01*
X029320Y032497D01*
X029301Y032516D01*
X029285Y032539D01*
X029272Y032563D01*
X029263Y032589D01*
X029257Y032616D01*
X029255Y032643D01*
X028255Y050643D02*
X028257Y050670D01*
X028263Y050697D01*
X028272Y050723D01*
X028285Y050747D01*
X028301Y050770D01*
X028320Y050789D01*
X028342Y050806D01*
X028366Y050820D01*
X028391Y050830D01*
X028418Y050837D01*
X028445Y050840D01*
X028473Y050839D01*
X028500Y050834D01*
X028526Y050826D01*
X028550Y050814D01*
X028573Y050798D01*
X028594Y050780D01*
X028611Y050759D01*
X028626Y050735D01*
X028637Y050710D01*
X028645Y050684D01*
X028649Y050657D01*
X028649Y050629D01*
X028645Y050602D01*
X028637Y050576D01*
X028626Y050551D01*
X028611Y050527D01*
X028594Y050506D01*
X028573Y050488D01*
X028551Y050472D01*
X028526Y050460D01*
X028500Y050452D01*
X028473Y050447D01*
X028445Y050446D01*
X028418Y050449D01*
X028391Y050456D01*
X028366Y050466D01*
X028342Y050480D01*
X028320Y050497D01*
X028301Y050516D01*
X028285Y050539D01*
X028272Y050563D01*
X028263Y050589D01*
X028257Y050616D01*
X028255Y050643D01*
X035755Y050643D02*
X035757Y050670D01*
X035763Y050697D01*
X035772Y050723D01*
X035785Y050747D01*
X035801Y050770D01*
X035820Y050789D01*
X035842Y050806D01*
X035866Y050820D01*
X035891Y050830D01*
X035918Y050837D01*
X035945Y050840D01*
X035973Y050839D01*
X036000Y050834D01*
X036026Y050826D01*
X036050Y050814D01*
X036073Y050798D01*
X036094Y050780D01*
X036111Y050759D01*
X036126Y050735D01*
X036137Y050710D01*
X036145Y050684D01*
X036149Y050657D01*
X036149Y050629D01*
X036145Y050602D01*
X036137Y050576D01*
X036126Y050551D01*
X036111Y050527D01*
X036094Y050506D01*
X036073Y050488D01*
X036051Y050472D01*
X036026Y050460D01*
X036000Y050452D01*
X035973Y050447D01*
X035945Y050446D01*
X035918Y050449D01*
X035891Y050456D01*
X035866Y050466D01*
X035842Y050480D01*
X035820Y050497D01*
X035801Y050516D01*
X035785Y050539D01*
X035772Y050563D01*
X035763Y050589D01*
X035757Y050616D01*
X035755Y050643D01*
X043255Y050643D02*
X043257Y050670D01*
X043263Y050697D01*
X043272Y050723D01*
X043285Y050747D01*
X043301Y050770D01*
X043320Y050789D01*
X043342Y050806D01*
X043366Y050820D01*
X043391Y050830D01*
X043418Y050837D01*
X043445Y050840D01*
X043473Y050839D01*
X043500Y050834D01*
X043526Y050826D01*
X043550Y050814D01*
X043573Y050798D01*
X043594Y050780D01*
X043611Y050759D01*
X043626Y050735D01*
X043637Y050710D01*
X043645Y050684D01*
X043649Y050657D01*
X043649Y050629D01*
X043645Y050602D01*
X043637Y050576D01*
X043626Y050551D01*
X043611Y050527D01*
X043594Y050506D01*
X043573Y050488D01*
X043551Y050472D01*
X043526Y050460D01*
X043500Y050452D01*
X043473Y050447D01*
X043445Y050446D01*
X043418Y050449D01*
X043391Y050456D01*
X043366Y050466D01*
X043342Y050480D01*
X043320Y050497D01*
X043301Y050516D01*
X043285Y050539D01*
X043272Y050563D01*
X043263Y050589D01*
X043257Y050616D01*
X043255Y050643D01*
X050755Y050643D02*
X050757Y050670D01*
X050763Y050697D01*
X050772Y050723D01*
X050785Y050747D01*
X050801Y050770D01*
X050820Y050789D01*
X050842Y050806D01*
X050866Y050820D01*
X050891Y050830D01*
X050918Y050837D01*
X050945Y050840D01*
X050973Y050839D01*
X051000Y050834D01*
X051026Y050826D01*
X051050Y050814D01*
X051073Y050798D01*
X051094Y050780D01*
X051111Y050759D01*
X051126Y050735D01*
X051137Y050710D01*
X051145Y050684D01*
X051149Y050657D01*
X051149Y050629D01*
X051145Y050602D01*
X051137Y050576D01*
X051126Y050551D01*
X051111Y050527D01*
X051094Y050506D01*
X051073Y050488D01*
X051051Y050472D01*
X051026Y050460D01*
X051000Y050452D01*
X050973Y050447D01*
X050945Y050446D01*
X050918Y050449D01*
X050891Y050456D01*
X050866Y050466D01*
X050842Y050480D01*
X050820Y050497D01*
X050801Y050516D01*
X050785Y050539D01*
X050772Y050563D01*
X050763Y050589D01*
X050757Y050616D01*
X050755Y050643D01*
X061255Y050643D02*
X061257Y050670D01*
X061263Y050697D01*
X061272Y050723D01*
X061285Y050747D01*
X061301Y050770D01*
X061320Y050789D01*
X061342Y050806D01*
X061366Y050820D01*
X061391Y050830D01*
X061418Y050837D01*
X061445Y050840D01*
X061473Y050839D01*
X061500Y050834D01*
X061526Y050826D01*
X061550Y050814D01*
X061573Y050798D01*
X061594Y050780D01*
X061611Y050759D01*
X061626Y050735D01*
X061637Y050710D01*
X061645Y050684D01*
X061649Y050657D01*
X061649Y050629D01*
X061645Y050602D01*
X061637Y050576D01*
X061626Y050551D01*
X061611Y050527D01*
X061594Y050506D01*
X061573Y050488D01*
X061551Y050472D01*
X061526Y050460D01*
X061500Y050452D01*
X061473Y050447D01*
X061445Y050446D01*
X061418Y050449D01*
X061391Y050456D01*
X061366Y050466D01*
X061342Y050480D01*
X061320Y050497D01*
X061301Y050516D01*
X061285Y050539D01*
X061272Y050563D01*
X061263Y050589D01*
X061257Y050616D01*
X061255Y050643D01*
X068755Y050643D02*
X068757Y050670D01*
X068763Y050697D01*
X068772Y050723D01*
X068785Y050747D01*
X068801Y050770D01*
X068820Y050789D01*
X068842Y050806D01*
X068866Y050820D01*
X068891Y050830D01*
X068918Y050837D01*
X068945Y050840D01*
X068973Y050839D01*
X069000Y050834D01*
X069026Y050826D01*
X069050Y050814D01*
X069073Y050798D01*
X069094Y050780D01*
X069111Y050759D01*
X069126Y050735D01*
X069137Y050710D01*
X069145Y050684D01*
X069149Y050657D01*
X069149Y050629D01*
X069145Y050602D01*
X069137Y050576D01*
X069126Y050551D01*
X069111Y050527D01*
X069094Y050506D01*
X069073Y050488D01*
X069051Y050472D01*
X069026Y050460D01*
X069000Y050452D01*
X068973Y050447D01*
X068945Y050446D01*
X068918Y050449D01*
X068891Y050456D01*
X068866Y050466D01*
X068842Y050480D01*
X068820Y050497D01*
X068801Y050516D01*
X068785Y050539D01*
X068772Y050563D01*
X068763Y050589D01*
X068757Y050616D01*
X068755Y050643D01*
X044880Y010143D02*
X044882Y010170D01*
X044888Y010197D01*
X044897Y010223D01*
X044910Y010247D01*
X044926Y010270D01*
X044945Y010289D01*
X044967Y010306D01*
X044991Y010320D01*
X045016Y010330D01*
X045043Y010337D01*
X045070Y010340D01*
X045098Y010339D01*
X045125Y010334D01*
X045151Y010326D01*
X045175Y010314D01*
X045198Y010298D01*
X045219Y010280D01*
X045236Y010259D01*
X045251Y010235D01*
X045262Y010210D01*
X045270Y010184D01*
X045274Y010157D01*
X045274Y010129D01*
X045270Y010102D01*
X045262Y010076D01*
X045251Y010051D01*
X045236Y010027D01*
X045219Y010006D01*
X045198Y009988D01*
X045176Y009972D01*
X045151Y009960D01*
X045125Y009952D01*
X045098Y009947D01*
X045070Y009946D01*
X045043Y009949D01*
X045016Y009956D01*
X044991Y009966D01*
X044967Y009980D01*
X044945Y009997D01*
X044926Y010016D01*
X044910Y010039D01*
X044897Y010063D01*
X044888Y010089D01*
X044882Y010116D01*
X044880Y010143D01*
X013755Y050643D02*
X013757Y050670D01*
X013763Y050697D01*
X013772Y050723D01*
X013785Y050747D01*
X013801Y050770D01*
X013820Y050789D01*
X013842Y050806D01*
X013866Y050820D01*
X013891Y050830D01*
X013918Y050837D01*
X013945Y050840D01*
X013973Y050839D01*
X014000Y050834D01*
X014026Y050826D01*
X014050Y050814D01*
X014073Y050798D01*
X014094Y050780D01*
X014111Y050759D01*
X014126Y050735D01*
X014137Y050710D01*
X014145Y050684D01*
X014149Y050657D01*
X014149Y050629D01*
X014145Y050602D01*
X014137Y050576D01*
X014126Y050551D01*
X014111Y050527D01*
X014094Y050506D01*
X014073Y050488D01*
X014051Y050472D01*
X014026Y050460D01*
X014000Y050452D01*
X013973Y050447D01*
X013945Y050446D01*
X013918Y050449D01*
X013891Y050456D01*
X013866Y050466D01*
X013842Y050480D01*
X013820Y050497D01*
X013801Y050516D01*
X013785Y050539D01*
X013772Y050563D01*
X013763Y050589D01*
X013757Y050616D01*
X013755Y050643D01*
X006255Y050643D02*
X006257Y050670D01*
X006263Y050697D01*
X006272Y050723D01*
X006285Y050747D01*
X006301Y050770D01*
X006320Y050789D01*
X006342Y050806D01*
X006366Y050820D01*
X006391Y050830D01*
X006418Y050837D01*
X006445Y050840D01*
X006473Y050839D01*
X006500Y050834D01*
X006526Y050826D01*
X006550Y050814D01*
X006573Y050798D01*
X006594Y050780D01*
X006611Y050759D01*
X006626Y050735D01*
X006637Y050710D01*
X006645Y050684D01*
X006649Y050657D01*
X006649Y050629D01*
X006645Y050602D01*
X006637Y050576D01*
X006626Y050551D01*
X006611Y050527D01*
X006594Y050506D01*
X006573Y050488D01*
X006551Y050472D01*
X006526Y050460D01*
X006500Y050452D01*
X006473Y050447D01*
X006445Y050446D01*
X006418Y050449D01*
X006391Y050456D01*
X006366Y050466D01*
X006342Y050480D01*
X006320Y050497D01*
X006301Y050516D01*
X006285Y050539D01*
X006272Y050563D01*
X006263Y050589D01*
X006257Y050616D01*
X006255Y050643D01*
M02*
