G75*
G70*
%OFA0B0*%
%FSLAX24Y24*%
%IPPOS*%
%LPD*%
%AMOC8*
5,1,8,0,0,1.08239X$1,22.5*
%
%ADD10C,0.1580*%
%ADD11C,0.1092*%
%ADD12C,0.0474*%
%ADD13C,0.0940*%
%ADD14C,0.1261*%
%ADD15R,0.0720X0.0060*%
%ADD16R,0.0060X0.0720*%
%ADD17R,0.0907X0.0907*%
%ADD18C,0.1655*%
%ADD19C,0.0595*%
%ADD20C,0.0907*%
%ADD21C,0.0256*%
%ADD22R,0.0474X0.0513*%
%ADD23R,0.0986X0.0986*%
%ADD24C,0.2049*%
%ADD25C,0.0867*%
%ADD26C,0.0986*%
D10*
X014206Y007007D03*
X016706Y008007D03*
X021706Y007007D03*
X024206Y008007D03*
X029206Y007007D03*
X031706Y008007D03*
X036831Y007007D03*
X039331Y008007D03*
X043331Y007007D03*
X044456Y007007D03*
X045831Y008007D03*
X046956Y008007D03*
X046706Y014507D03*
X049206Y015507D03*
X054206Y014507D03*
X056706Y015507D03*
X061706Y014507D03*
X064206Y015507D03*
X061706Y022007D03*
X064206Y023007D03*
X061706Y029507D03*
X064206Y030507D03*
X061706Y037007D03*
X064206Y038007D03*
X069206Y037007D03*
X071706Y038007D03*
X076706Y037007D03*
X079206Y038007D03*
X079206Y030507D03*
X076706Y029507D03*
X071706Y030507D03*
X069206Y029507D03*
X071706Y023007D03*
X069206Y022007D03*
X071706Y015507D03*
X069206Y014507D03*
X070456Y008007D03*
X067956Y007007D03*
X076706Y014507D03*
X079206Y015507D03*
X076706Y022007D03*
X079206Y023007D03*
X076706Y047507D03*
X079206Y048507D03*
X071706Y048507D03*
X069206Y047507D03*
X061206Y048507D03*
X058706Y047507D03*
X053706Y048507D03*
X051206Y047507D03*
X046206Y048507D03*
X043706Y047507D03*
X038706Y048507D03*
X036206Y047507D03*
X034206Y038007D03*
X031706Y037007D03*
X037206Y029507D03*
X039706Y030507D03*
X039206Y037007D03*
X041706Y038007D03*
X046706Y037007D03*
X049206Y038007D03*
X054206Y037007D03*
X056706Y038007D03*
X056706Y030507D03*
X054206Y029507D03*
X049206Y030507D03*
X046706Y029507D03*
X049206Y023007D03*
X046706Y022007D03*
X054206Y022007D03*
X056706Y023007D03*
X055331Y008007D03*
X052831Y007007D03*
X037956Y015507D03*
X035456Y014507D03*
X036206Y022007D03*
X038706Y023007D03*
X024206Y026007D03*
X021706Y025007D03*
X016706Y026007D03*
X014206Y025007D03*
X014206Y032507D03*
X016706Y033507D03*
X021706Y032507D03*
X024206Y033507D03*
X021706Y040007D03*
X024206Y041007D03*
X021706Y047507D03*
X024206Y048507D03*
X016706Y048507D03*
X014206Y047507D03*
X016706Y041007D03*
X014206Y040007D03*
X024206Y015507D03*
X021706Y014507D03*
D11*
X020706Y016507D03*
X024706Y016507D03*
X024706Y009007D03*
X028206Y009007D03*
X032206Y009007D03*
X035831Y009007D03*
X039831Y009007D03*
X042331Y009007D03*
X043456Y009007D03*
X046331Y009007D03*
X047456Y009007D03*
X051831Y009007D03*
X055831Y009007D03*
X057206Y016507D03*
X060706Y016507D03*
X064706Y016507D03*
X068206Y016507D03*
X072206Y016507D03*
X075706Y016507D03*
X079706Y016507D03*
X079706Y024007D03*
X075706Y024007D03*
X072206Y024007D03*
X068206Y024007D03*
X064706Y024007D03*
X060706Y024007D03*
X057206Y024007D03*
X053206Y024007D03*
X049706Y024007D03*
X045706Y024007D03*
X045706Y016507D03*
X049706Y016507D03*
X053206Y016507D03*
X053206Y031507D03*
X049706Y031507D03*
X045706Y031507D03*
X045706Y039007D03*
X049706Y039007D03*
X053206Y039007D03*
X057206Y039007D03*
X060706Y039007D03*
X064706Y039007D03*
X068206Y039007D03*
X072206Y039007D03*
X075706Y039007D03*
X079706Y039007D03*
X079706Y031507D03*
X075706Y031507D03*
X072206Y031507D03*
X068206Y031507D03*
X064706Y031507D03*
X060706Y031507D03*
X057206Y031507D03*
X057706Y049507D03*
X054206Y049507D03*
X050206Y049507D03*
X046706Y049507D03*
X042706Y049507D03*
X039206Y049507D03*
X035206Y049507D03*
X034706Y039007D03*
X038206Y039007D03*
X042206Y039007D03*
X040206Y031507D03*
X036206Y031507D03*
X035206Y024007D03*
X039206Y024007D03*
X038456Y016507D03*
X034456Y016507D03*
X024706Y027007D03*
X020706Y027007D03*
X017206Y027007D03*
X013206Y027007D03*
X013206Y034507D03*
X017206Y034507D03*
X020706Y034507D03*
X024706Y034507D03*
X024706Y042007D03*
X020706Y042007D03*
X017206Y042007D03*
X013206Y042007D03*
X013206Y049507D03*
X017206Y049507D03*
X020706Y049507D03*
X024706Y049507D03*
X030706Y039007D03*
X020706Y009007D03*
X017206Y009007D03*
X013206Y009007D03*
X061706Y049507D03*
X068206Y049507D03*
X072206Y049507D03*
X075706Y049507D03*
X079706Y049507D03*
X070956Y009007D03*
X066956Y009007D03*
D12*
X068956Y009007D03*
X070206Y016507D03*
X070206Y024007D03*
X070206Y031507D03*
X070206Y039007D03*
X077706Y039007D03*
X077706Y031507D03*
X077706Y024007D03*
X077706Y016507D03*
X062706Y016507D03*
X062706Y024007D03*
X062706Y031507D03*
X062706Y039007D03*
X055206Y039007D03*
X055206Y031507D03*
X055206Y024007D03*
X055206Y016507D03*
X053831Y009007D03*
X047706Y016507D03*
X047706Y024007D03*
X047706Y031507D03*
X047706Y039007D03*
X040206Y039007D03*
X038206Y031507D03*
X037206Y024007D03*
X036456Y016507D03*
X037831Y009007D03*
X045456Y009007D03*
X030206Y009007D03*
X022706Y009007D03*
X018706Y014257D03*
X019081Y016257D03*
X018831Y018257D03*
X022706Y016507D03*
X022706Y027007D03*
X022706Y034507D03*
X022706Y042007D03*
X022706Y049507D03*
X015206Y049507D03*
X015206Y042007D03*
X015206Y034507D03*
X015206Y027007D03*
X013831Y019257D03*
X013706Y017257D03*
X013831Y015257D03*
X015206Y009007D03*
X032706Y039007D03*
X037206Y049507D03*
X044706Y049507D03*
X052206Y049507D03*
X059706Y049507D03*
X070206Y049507D03*
X077706Y049507D03*
D13*
X078206Y051077D02*
X078206Y051937D01*
X079206Y051937D02*
X079206Y051077D01*
X077206Y051077D02*
X077206Y051937D01*
X076206Y051937D02*
X076206Y051077D01*
X071706Y051077D02*
X071706Y051937D01*
X070706Y051937D02*
X070706Y051077D01*
X069706Y051077D02*
X069706Y051937D01*
X068706Y051937D02*
X068706Y051077D01*
X061206Y051077D02*
X061206Y051937D01*
X060206Y051937D02*
X060206Y051077D01*
X059206Y051077D02*
X059206Y051937D01*
X058206Y051937D02*
X058206Y051077D01*
X053706Y051077D02*
X053706Y051937D01*
X052706Y051937D02*
X052706Y051077D01*
X051706Y051077D02*
X051706Y051937D01*
X050706Y051937D02*
X050706Y051077D01*
X046206Y051077D02*
X046206Y051937D01*
X045206Y051937D02*
X045206Y051077D01*
X044206Y051077D02*
X044206Y051937D01*
X043206Y051937D02*
X043206Y051077D01*
X038706Y051077D02*
X038706Y051937D01*
X037706Y051937D02*
X037706Y051077D01*
X036706Y051077D02*
X036706Y051937D01*
X035706Y051937D02*
X035706Y051077D01*
X034206Y041437D02*
X034206Y040577D01*
X033206Y040577D02*
X033206Y041437D01*
X032206Y041437D02*
X032206Y040577D01*
X031206Y040577D02*
X031206Y041437D01*
X024206Y043577D02*
X024206Y044437D01*
X023206Y044437D02*
X023206Y043577D01*
X022206Y043577D02*
X022206Y044437D01*
X021206Y044437D02*
X021206Y043577D01*
X016706Y043577D02*
X016706Y044437D01*
X015706Y044437D02*
X015706Y043577D01*
X014706Y043577D02*
X014706Y044437D01*
X013706Y044437D02*
X013706Y043577D01*
X013706Y036937D02*
X013706Y036077D01*
X014706Y036077D02*
X014706Y036937D01*
X015706Y036937D02*
X015706Y036077D01*
X016706Y036077D02*
X016706Y036937D01*
X021206Y036937D02*
X021206Y036077D01*
X022206Y036077D02*
X022206Y036937D01*
X023206Y036937D02*
X023206Y036077D01*
X024206Y036077D02*
X024206Y036937D01*
X024206Y029437D02*
X024206Y028577D01*
X023206Y028577D02*
X023206Y029437D01*
X022206Y029437D02*
X022206Y028577D01*
X021206Y028577D02*
X021206Y029437D01*
X016706Y029437D02*
X016706Y028577D01*
X015706Y028577D02*
X015706Y029437D01*
X014706Y029437D02*
X014706Y028577D01*
X013706Y028577D02*
X013706Y029437D01*
X021206Y018937D02*
X021206Y018077D01*
X022206Y018077D02*
X022206Y018937D01*
X023206Y018937D02*
X023206Y018077D01*
X024206Y018077D02*
X024206Y018937D01*
X024206Y011437D02*
X024206Y010577D01*
X023206Y010577D02*
X023206Y011437D01*
X022206Y011437D02*
X022206Y010577D01*
X021206Y010577D02*
X021206Y011437D01*
X016706Y011437D02*
X016706Y010577D01*
X015706Y010577D02*
X015706Y011437D01*
X014706Y011437D02*
X014706Y010577D01*
X013706Y010577D02*
X013706Y011437D01*
X028706Y011437D02*
X028706Y010577D01*
X029706Y010577D02*
X029706Y011437D01*
X030706Y011437D02*
X030706Y010577D01*
X031706Y010577D02*
X031706Y011437D01*
X036331Y011437D02*
X036331Y010577D01*
X037331Y010577D02*
X037331Y011437D01*
X038331Y011437D02*
X038331Y010577D01*
X039331Y010577D02*
X039331Y011437D01*
X043956Y011437D02*
X043956Y010577D01*
X044956Y010577D02*
X044956Y011437D01*
X045956Y011437D02*
X045956Y010577D01*
X046956Y010577D02*
X046956Y011437D01*
X047206Y018077D02*
X047206Y018937D01*
X048206Y018937D02*
X048206Y018077D01*
X049206Y018077D02*
X049206Y018937D01*
X046206Y018937D02*
X046206Y018077D01*
X046206Y025577D02*
X046206Y026437D01*
X047206Y026437D02*
X047206Y025577D01*
X048206Y025577D02*
X048206Y026437D01*
X049206Y026437D02*
X049206Y025577D01*
X053706Y025577D02*
X053706Y026437D01*
X054706Y026437D02*
X054706Y025577D01*
X055706Y025577D02*
X055706Y026437D01*
X056706Y026437D02*
X056706Y025577D01*
X061206Y025577D02*
X061206Y026437D01*
X062206Y026437D02*
X062206Y025577D01*
X063206Y025577D02*
X063206Y026437D01*
X064206Y026437D02*
X064206Y025577D01*
X068706Y025577D02*
X068706Y026437D01*
X069706Y026437D02*
X069706Y025577D01*
X070706Y025577D02*
X070706Y026437D01*
X071706Y026437D02*
X071706Y025577D01*
X076206Y025577D02*
X076206Y026437D01*
X077206Y026437D02*
X077206Y025577D01*
X078206Y025577D02*
X078206Y026437D01*
X079206Y026437D02*
X079206Y025577D01*
X079206Y018937D02*
X079206Y018077D01*
X078206Y018077D02*
X078206Y018937D01*
X077206Y018937D02*
X077206Y018077D01*
X076206Y018077D02*
X076206Y018937D01*
X071706Y018937D02*
X071706Y018077D01*
X070706Y018077D02*
X070706Y018937D01*
X069706Y018937D02*
X069706Y018077D01*
X068706Y018077D02*
X068706Y018937D01*
X064206Y018937D02*
X064206Y018077D01*
X063206Y018077D02*
X063206Y018937D01*
X062206Y018937D02*
X062206Y018077D01*
X061206Y018077D02*
X061206Y018937D01*
X056706Y018937D02*
X056706Y018077D01*
X055706Y018077D02*
X055706Y018937D01*
X054706Y018937D02*
X054706Y018077D01*
X053706Y018077D02*
X053706Y018937D01*
X053331Y011437D02*
X053331Y010577D01*
X054331Y010577D02*
X054331Y011437D01*
X055331Y011437D02*
X055331Y010577D01*
X052331Y010577D02*
X052331Y011437D01*
X067456Y011437D02*
X067456Y010577D01*
X068456Y010577D02*
X068456Y011437D01*
X069456Y011437D02*
X069456Y010577D01*
X070456Y010577D02*
X070456Y011437D01*
X070706Y033077D02*
X070706Y033937D01*
X071706Y033937D02*
X071706Y033077D01*
X069706Y033077D02*
X069706Y033937D01*
X068706Y033937D02*
X068706Y033077D01*
X064206Y033077D02*
X064206Y033937D01*
X063206Y033937D02*
X063206Y033077D01*
X062206Y033077D02*
X062206Y033937D01*
X061206Y033937D02*
X061206Y033077D01*
X056706Y033077D02*
X056706Y033937D01*
X055706Y033937D02*
X055706Y033077D01*
X054706Y033077D02*
X054706Y033937D01*
X053706Y033937D02*
X053706Y033077D01*
X049206Y033077D02*
X049206Y033937D01*
X048206Y033937D02*
X048206Y033077D01*
X047206Y033077D02*
X047206Y033937D01*
X046206Y033937D02*
X046206Y033077D01*
X046206Y040577D02*
X046206Y041437D01*
X047206Y041437D02*
X047206Y040577D01*
X048206Y040577D02*
X048206Y041437D01*
X049206Y041437D02*
X049206Y040577D01*
X053706Y040577D02*
X053706Y041437D01*
X054706Y041437D02*
X054706Y040577D01*
X055706Y040577D02*
X055706Y041437D01*
X056706Y041437D02*
X056706Y040577D01*
X061206Y040577D02*
X061206Y041437D01*
X062206Y041437D02*
X062206Y040577D01*
X063206Y040577D02*
X063206Y041437D01*
X064206Y041437D02*
X064206Y040577D01*
X068706Y040577D02*
X068706Y041437D01*
X069706Y041437D02*
X069706Y040577D01*
X070706Y040577D02*
X070706Y041437D01*
X071706Y041437D02*
X071706Y040577D01*
X076206Y040577D02*
X076206Y041437D01*
X077206Y041437D02*
X077206Y040577D01*
X078206Y040577D02*
X078206Y041437D01*
X079206Y041437D02*
X079206Y040577D01*
X079206Y033937D02*
X079206Y033077D01*
X078206Y033077D02*
X078206Y033937D01*
X077206Y033937D02*
X077206Y033077D01*
X076206Y033077D02*
X076206Y033937D01*
X041706Y040577D02*
X041706Y041437D01*
X040706Y041437D02*
X040706Y040577D01*
X039706Y040577D02*
X039706Y041437D01*
X038706Y041437D02*
X038706Y040577D01*
X038706Y033937D02*
X038706Y033077D01*
X039706Y033077D02*
X039706Y033937D01*
X037706Y033937D02*
X037706Y033077D01*
X036706Y033077D02*
X036706Y033937D01*
X036706Y026437D02*
X036706Y025577D01*
X037706Y025577D02*
X037706Y026437D01*
X038706Y026437D02*
X038706Y025577D01*
X035706Y025577D02*
X035706Y026437D01*
X035956Y018937D02*
X035956Y018077D01*
X036956Y018077D02*
X036956Y018937D01*
X037956Y018937D02*
X037956Y018077D01*
X034956Y018077D02*
X034956Y018937D01*
X024206Y051077D02*
X024206Y051937D01*
X023206Y051937D02*
X023206Y051077D01*
X022206Y051077D02*
X022206Y051937D01*
X021206Y051937D02*
X021206Y051077D01*
X016706Y051077D02*
X016706Y051937D01*
X015706Y051937D02*
X015706Y051077D01*
X014706Y051077D02*
X014706Y051937D01*
X013706Y051937D02*
X013706Y051077D01*
D14*
X015206Y049507D03*
X015206Y042007D03*
X015206Y034507D03*
X015206Y027007D03*
X022706Y027007D03*
X022706Y034507D03*
X022706Y042007D03*
X022706Y049507D03*
X032706Y039007D03*
X038206Y031507D03*
X040206Y039007D03*
X047706Y039007D03*
X047706Y031507D03*
X047706Y024007D03*
X047706Y016507D03*
X045456Y009007D03*
X037831Y009007D03*
X036456Y016507D03*
X037206Y024007D03*
X030206Y009007D03*
X022706Y009007D03*
X022706Y016507D03*
X015206Y009007D03*
X037206Y049507D03*
X044706Y049507D03*
X052206Y049507D03*
X059706Y049507D03*
X062706Y039007D03*
X062706Y031507D03*
X055206Y031507D03*
X055206Y039007D03*
X055206Y024007D03*
X055206Y016507D03*
X053831Y009007D03*
X062706Y016507D03*
X062706Y024007D03*
X070206Y024007D03*
X070206Y016507D03*
X068956Y009007D03*
X077706Y016507D03*
X077706Y024007D03*
X077706Y031507D03*
X077706Y039007D03*
X070206Y039007D03*
X070206Y031507D03*
X070206Y049507D03*
X077706Y049507D03*
D15*
X078456Y047132D03*
X070706Y047257D03*
X073331Y038382D03*
X075331Y037382D03*
X079206Y036382D03*
X078331Y029257D03*
X076206Y027757D03*
X073456Y031257D03*
X070456Y028507D03*
X065956Y031007D03*
X062706Y028507D03*
X058456Y031007D03*
X055206Y028507D03*
X050956Y031007D03*
X047956Y028507D03*
X050956Y023507D03*
X047956Y021257D03*
X048206Y014382D03*
X054206Y006382D03*
X056331Y013757D03*
X059331Y015882D03*
X055456Y021257D03*
X058456Y023507D03*
X062956Y021257D03*
X065956Y023507D03*
X070456Y021257D03*
X073456Y023757D03*
X076081Y020507D03*
X078331Y021632D03*
X075456Y015132D03*
X070706Y014382D03*
X066956Y016007D03*
X063206Y014382D03*
X066581Y006382D03*
X072081Y007882D03*
X062706Y035757D03*
X065956Y039257D03*
X058456Y038757D03*
X055456Y036257D03*
X050831Y038882D03*
X047956Y036257D03*
X043456Y038757D03*
X040456Y036257D03*
X041706Y031007D03*
X038456Y028507D03*
X040706Y023757D03*
X037456Y021257D03*
X037956Y014132D03*
X038081Y006257D03*
X041956Y006257D03*
X030456Y006257D03*
X022956Y006257D03*
X017956Y006257D03*
X025956Y016257D03*
X025956Y026382D03*
X018456Y026757D03*
X014331Y023507D03*
X015206Y031507D03*
X016706Y039507D03*
X015706Y047257D03*
X013081Y046507D03*
X022956Y047007D03*
X024206Y039507D03*
X033081Y036257D03*
X037456Y046757D03*
X044956Y046757D03*
X062206Y047507D03*
D16*
X056956Y047757D03*
X049706Y048257D03*
X040206Y048507D03*
X035706Y038007D03*
X023331Y032382D03*
X020456Y033382D03*
G36*
X020564Y041157D02*
X020606Y041115D01*
X020098Y040607D01*
X020056Y040649D01*
X020564Y041157D01*
G37*
X012831Y040882D03*
X020206Y025507D03*
X020331Y015257D03*
X025706Y008007D03*
X033206Y008007D03*
X034081Y013882D03*
X040831Y008007D03*
X045331Y015382D03*
X048456Y008007D03*
X052831Y015382D03*
X056956Y008007D03*
G36*
X078481Y014024D02*
X078439Y013982D01*
X077931Y014490D01*
X077973Y014532D01*
X078481Y014024D01*
G37*
X067706Y037507D03*
X067456Y048007D03*
X075206Y048257D03*
X012831Y007882D03*
D17*
X014706Y014257D03*
X014706Y015257D03*
X014706Y016257D03*
X014706Y017257D03*
X014706Y018257D03*
X014706Y019257D03*
X014706Y020257D03*
X017706Y020257D03*
X017706Y019257D03*
X017706Y018257D03*
X017706Y017257D03*
X017706Y016257D03*
X017706Y015257D03*
X017706Y014257D03*
X062206Y042757D03*
X063206Y042757D03*
X064206Y042757D03*
X065206Y042757D03*
X066206Y042757D03*
X067206Y042757D03*
X068206Y042757D03*
X069206Y042757D03*
X069206Y045757D03*
X068206Y045757D03*
X067206Y045757D03*
X066206Y045757D03*
X065206Y045757D03*
X064206Y045757D03*
X063206Y045757D03*
X062206Y045757D03*
D18*
X044331Y009007D03*
D19*
X044331Y009007D03*
D20*
X001331Y001420D02*
X001331Y000593D01*
X002331Y000593D02*
X002331Y001420D01*
X003331Y001420D02*
X003331Y000593D01*
X028480Y036069D02*
X029307Y036069D01*
X029307Y037069D02*
X028480Y037069D01*
X028480Y038069D02*
X029307Y038069D01*
X029307Y039069D02*
X028480Y039069D01*
X028480Y040069D02*
X029307Y040069D01*
X029307Y041069D02*
X028480Y041069D01*
X028480Y042069D02*
X029307Y042069D01*
X029307Y043069D02*
X028480Y043069D01*
X033480Y043069D02*
X034307Y043069D01*
X034307Y044069D02*
X033480Y044069D01*
X033480Y045069D02*
X034307Y045069D01*
D21*
X018506Y018257D02*
X018508Y018293D01*
X018514Y018328D01*
X018524Y018363D01*
X018537Y018396D01*
X018554Y018427D01*
X018575Y018457D01*
X018598Y018484D01*
X018624Y018508D01*
X018653Y018529D01*
X018684Y018547D01*
X018717Y018561D01*
X018751Y018572D01*
X018786Y018579D01*
X018822Y018582D01*
X018858Y018581D01*
X018893Y018576D01*
X018928Y018567D01*
X018962Y018555D01*
X018993Y018538D01*
X019023Y018519D01*
X019051Y018496D01*
X019076Y018470D01*
X019098Y018442D01*
X019117Y018412D01*
X019132Y018379D01*
X019144Y018345D01*
X019152Y018310D01*
X019156Y018275D01*
X019156Y018239D01*
X019152Y018204D01*
X019144Y018169D01*
X019132Y018135D01*
X019117Y018102D01*
X019098Y018072D01*
X019076Y018044D01*
X019051Y018018D01*
X019023Y017995D01*
X018994Y017976D01*
X018962Y017959D01*
X018928Y017947D01*
X018893Y017938D01*
X018858Y017933D01*
X018822Y017932D01*
X018786Y017935D01*
X018751Y017942D01*
X018717Y017953D01*
X018684Y017967D01*
X018653Y017985D01*
X018624Y018006D01*
X018598Y018030D01*
X018575Y018057D01*
X018554Y018087D01*
X018537Y018118D01*
X018524Y018151D01*
X018514Y018186D01*
X018508Y018221D01*
X018506Y018257D01*
X018756Y016257D02*
X018758Y016293D01*
X018764Y016328D01*
X018774Y016363D01*
X018787Y016396D01*
X018804Y016427D01*
X018825Y016457D01*
X018848Y016484D01*
X018874Y016508D01*
X018903Y016529D01*
X018934Y016547D01*
X018967Y016561D01*
X019001Y016572D01*
X019036Y016579D01*
X019072Y016582D01*
X019108Y016581D01*
X019143Y016576D01*
X019178Y016567D01*
X019212Y016555D01*
X019243Y016538D01*
X019273Y016519D01*
X019301Y016496D01*
X019326Y016470D01*
X019348Y016442D01*
X019367Y016412D01*
X019382Y016379D01*
X019394Y016345D01*
X019402Y016310D01*
X019406Y016275D01*
X019406Y016239D01*
X019402Y016204D01*
X019394Y016169D01*
X019382Y016135D01*
X019367Y016102D01*
X019348Y016072D01*
X019326Y016044D01*
X019301Y016018D01*
X019273Y015995D01*
X019244Y015976D01*
X019212Y015959D01*
X019178Y015947D01*
X019143Y015938D01*
X019108Y015933D01*
X019072Y015932D01*
X019036Y015935D01*
X019001Y015942D01*
X018967Y015953D01*
X018934Y015967D01*
X018903Y015985D01*
X018874Y016006D01*
X018848Y016030D01*
X018825Y016057D01*
X018804Y016087D01*
X018787Y016118D01*
X018774Y016151D01*
X018764Y016186D01*
X018758Y016221D01*
X018756Y016257D01*
X018381Y014257D02*
X018383Y014293D01*
X018389Y014328D01*
X018399Y014363D01*
X018412Y014396D01*
X018429Y014427D01*
X018450Y014457D01*
X018473Y014484D01*
X018499Y014508D01*
X018528Y014529D01*
X018559Y014547D01*
X018592Y014561D01*
X018626Y014572D01*
X018661Y014579D01*
X018697Y014582D01*
X018733Y014581D01*
X018768Y014576D01*
X018803Y014567D01*
X018837Y014555D01*
X018868Y014538D01*
X018898Y014519D01*
X018926Y014496D01*
X018951Y014470D01*
X018973Y014442D01*
X018992Y014412D01*
X019007Y014379D01*
X019019Y014345D01*
X019027Y014310D01*
X019031Y014275D01*
X019031Y014239D01*
X019027Y014204D01*
X019019Y014169D01*
X019007Y014135D01*
X018992Y014102D01*
X018973Y014072D01*
X018951Y014044D01*
X018926Y014018D01*
X018898Y013995D01*
X018869Y013976D01*
X018837Y013959D01*
X018803Y013947D01*
X018768Y013938D01*
X018733Y013933D01*
X018697Y013932D01*
X018661Y013935D01*
X018626Y013942D01*
X018592Y013953D01*
X018559Y013967D01*
X018528Y013985D01*
X018499Y014006D01*
X018473Y014030D01*
X018450Y014057D01*
X018429Y014087D01*
X018412Y014118D01*
X018399Y014151D01*
X018389Y014186D01*
X018383Y014221D01*
X018381Y014257D01*
X013506Y015257D02*
X013508Y015293D01*
X013514Y015328D01*
X013524Y015363D01*
X013537Y015396D01*
X013554Y015427D01*
X013575Y015457D01*
X013598Y015484D01*
X013624Y015508D01*
X013653Y015529D01*
X013684Y015547D01*
X013717Y015561D01*
X013751Y015572D01*
X013786Y015579D01*
X013822Y015582D01*
X013858Y015581D01*
X013893Y015576D01*
X013928Y015567D01*
X013962Y015555D01*
X013993Y015538D01*
X014023Y015519D01*
X014051Y015496D01*
X014076Y015470D01*
X014098Y015442D01*
X014117Y015412D01*
X014132Y015379D01*
X014144Y015345D01*
X014152Y015310D01*
X014156Y015275D01*
X014156Y015239D01*
X014152Y015204D01*
X014144Y015169D01*
X014132Y015135D01*
X014117Y015102D01*
X014098Y015072D01*
X014076Y015044D01*
X014051Y015018D01*
X014023Y014995D01*
X013994Y014976D01*
X013962Y014959D01*
X013928Y014947D01*
X013893Y014938D01*
X013858Y014933D01*
X013822Y014932D01*
X013786Y014935D01*
X013751Y014942D01*
X013717Y014953D01*
X013684Y014967D01*
X013653Y014985D01*
X013624Y015006D01*
X013598Y015030D01*
X013575Y015057D01*
X013554Y015087D01*
X013537Y015118D01*
X013524Y015151D01*
X013514Y015186D01*
X013508Y015221D01*
X013506Y015257D01*
X013381Y017257D02*
X013383Y017293D01*
X013389Y017328D01*
X013399Y017363D01*
X013412Y017396D01*
X013429Y017427D01*
X013450Y017457D01*
X013473Y017484D01*
X013499Y017508D01*
X013528Y017529D01*
X013559Y017547D01*
X013592Y017561D01*
X013626Y017572D01*
X013661Y017579D01*
X013697Y017582D01*
X013733Y017581D01*
X013768Y017576D01*
X013803Y017567D01*
X013837Y017555D01*
X013868Y017538D01*
X013898Y017519D01*
X013926Y017496D01*
X013951Y017470D01*
X013973Y017442D01*
X013992Y017412D01*
X014007Y017379D01*
X014019Y017345D01*
X014027Y017310D01*
X014031Y017275D01*
X014031Y017239D01*
X014027Y017204D01*
X014019Y017169D01*
X014007Y017135D01*
X013992Y017102D01*
X013973Y017072D01*
X013951Y017044D01*
X013926Y017018D01*
X013898Y016995D01*
X013869Y016976D01*
X013837Y016959D01*
X013803Y016947D01*
X013768Y016938D01*
X013733Y016933D01*
X013697Y016932D01*
X013661Y016935D01*
X013626Y016942D01*
X013592Y016953D01*
X013559Y016967D01*
X013528Y016985D01*
X013499Y017006D01*
X013473Y017030D01*
X013450Y017057D01*
X013429Y017087D01*
X013412Y017118D01*
X013399Y017151D01*
X013389Y017186D01*
X013383Y017221D01*
X013381Y017257D01*
X013506Y019257D02*
X013508Y019293D01*
X013514Y019328D01*
X013524Y019363D01*
X013537Y019396D01*
X013554Y019427D01*
X013575Y019457D01*
X013598Y019484D01*
X013624Y019508D01*
X013653Y019529D01*
X013684Y019547D01*
X013717Y019561D01*
X013751Y019572D01*
X013786Y019579D01*
X013822Y019582D01*
X013858Y019581D01*
X013893Y019576D01*
X013928Y019567D01*
X013962Y019555D01*
X013993Y019538D01*
X014023Y019519D01*
X014051Y019496D01*
X014076Y019470D01*
X014098Y019442D01*
X014117Y019412D01*
X014132Y019379D01*
X014144Y019345D01*
X014152Y019310D01*
X014156Y019275D01*
X014156Y019239D01*
X014152Y019204D01*
X014144Y019169D01*
X014132Y019135D01*
X014117Y019102D01*
X014098Y019072D01*
X014076Y019044D01*
X014051Y019018D01*
X014023Y018995D01*
X013994Y018976D01*
X013962Y018959D01*
X013928Y018947D01*
X013893Y018938D01*
X013858Y018933D01*
X013822Y018932D01*
X013786Y018935D01*
X013751Y018942D01*
X013717Y018953D01*
X013684Y018967D01*
X013653Y018985D01*
X013624Y019006D01*
X013598Y019030D01*
X013575Y019057D01*
X013554Y019087D01*
X013537Y019118D01*
X013524Y019151D01*
X013514Y019186D01*
X013508Y019221D01*
X013506Y019257D01*
D22*
X007291Y017132D03*
X006621Y017132D03*
D23*
X016456Y013257D03*
X018706Y020257D03*
D24*
X010143Y021757D03*
X010143Y012757D03*
X010143Y004007D03*
X016956Y004007D03*
X024456Y004007D03*
X031956Y004007D03*
X041456Y004007D03*
X050956Y004007D03*
X060456Y004007D03*
X070206Y004007D03*
X073956Y004007D03*
X078018Y004007D03*
X078018Y054507D03*
X080206Y054507D03*
X073956Y054507D03*
X070206Y054507D03*
X064956Y054507D03*
X055956Y054507D03*
X048456Y054507D03*
X040956Y054507D03*
X029956Y054507D03*
X018956Y054507D03*
X010143Y054507D03*
X010143Y045757D03*
X010143Y038257D03*
X010143Y030757D03*
D25*
X018956Y030757D03*
X019581Y038257D03*
X018956Y045757D03*
X018956Y023257D03*
X026456Y012757D03*
X041456Y012757D03*
X043956Y020257D03*
X043956Y027757D03*
X043956Y035257D03*
X040956Y045757D03*
X048456Y045757D03*
X051456Y035257D03*
X051456Y027757D03*
X051456Y020257D03*
X050206Y012382D03*
X058956Y012757D03*
X058956Y020257D03*
X058956Y027757D03*
X058956Y035257D03*
X055956Y045757D03*
X066456Y035257D03*
X066456Y027757D03*
X066456Y020257D03*
X066456Y013257D03*
X073956Y012757D03*
X073956Y020257D03*
X073956Y027757D03*
X073956Y035257D03*
X073956Y042757D03*
X073956Y045757D03*
D26*
X065206Y044257D03*
M02*
