G75*
G70*
%OFA0B0*%
%FSLAX24Y24*%
%IPPOS*%
%LPD*%
%AMOC8*
5,1,8,0,0,1.08239X$1,22.5*
%
%ADD10C,0.0079*%
%ADD11C,0.0100*%
%ADD12C,0.0051*%
%ADD13C,0.0110*%
%ADD14C,0.0000*%
D10*
X008893Y004007D02*
X008893Y054507D01*
X008895Y054575D01*
X008900Y054642D01*
X008909Y054709D01*
X008922Y054776D01*
X008939Y054841D01*
X008958Y054906D01*
X008982Y054970D01*
X009009Y055032D01*
X009039Y055093D01*
X009072Y055151D01*
X009108Y055208D01*
X009148Y055263D01*
X009190Y055316D01*
X009236Y055367D01*
X009283Y055414D01*
X009334Y055460D01*
X009387Y055502D01*
X009442Y055542D01*
X009499Y055578D01*
X009557Y055611D01*
X009618Y055641D01*
X009680Y055668D01*
X009744Y055692D01*
X009809Y055711D01*
X009874Y055728D01*
X009941Y055741D01*
X010008Y055750D01*
X010075Y055755D01*
X010143Y055757D01*
X080206Y055757D01*
X080274Y055755D01*
X080341Y055750D01*
X080408Y055741D01*
X080475Y055728D01*
X080540Y055711D01*
X080605Y055692D01*
X080669Y055668D01*
X080731Y055641D01*
X080792Y055611D01*
X080850Y055578D01*
X080907Y055542D01*
X080962Y055502D01*
X081015Y055460D01*
X081066Y055414D01*
X081113Y055367D01*
X081159Y055316D01*
X081201Y055263D01*
X081241Y055208D01*
X081277Y055151D01*
X081310Y055093D01*
X081340Y055032D01*
X081367Y054970D01*
X081391Y054906D01*
X081410Y054841D01*
X081427Y054776D01*
X081440Y054709D01*
X081449Y054642D01*
X081454Y054575D01*
X081456Y054507D01*
X081456Y012882D01*
X079268Y012882D01*
X079268Y004007D01*
X079266Y003939D01*
X079261Y003872D01*
X079252Y003805D01*
X079239Y003738D01*
X079222Y003673D01*
X079203Y003608D01*
X079179Y003544D01*
X079152Y003482D01*
X079122Y003421D01*
X079089Y003363D01*
X079053Y003306D01*
X079013Y003251D01*
X078971Y003198D01*
X078925Y003147D01*
X078878Y003100D01*
X078827Y003054D01*
X078774Y003012D01*
X078719Y002972D01*
X078662Y002936D01*
X078604Y002903D01*
X078543Y002873D01*
X078481Y002846D01*
X078417Y002822D01*
X078352Y002803D01*
X078287Y002786D01*
X078220Y002773D01*
X078153Y002764D01*
X078086Y002759D01*
X078018Y002757D01*
X010143Y002757D01*
X010075Y002759D01*
X010008Y002764D01*
X009941Y002773D01*
X009874Y002786D01*
X009809Y002803D01*
X009744Y002822D01*
X009680Y002846D01*
X009618Y002873D01*
X009557Y002903D01*
X009499Y002936D01*
X009442Y002972D01*
X009387Y003012D01*
X009334Y003054D01*
X009283Y003100D01*
X009236Y003147D01*
X009190Y003198D01*
X009148Y003251D01*
X009108Y003306D01*
X009072Y003363D01*
X009039Y003421D01*
X009009Y003482D01*
X008982Y003544D01*
X008958Y003608D01*
X008939Y003673D01*
X008922Y003738D01*
X008909Y003805D01*
X008900Y003872D01*
X008895Y003939D01*
X008893Y004007D01*
X028206Y044944D02*
X028206Y050944D01*
X031831Y050944D01*
X031831Y044944D01*
X028206Y044944D01*
D11*
X017972Y045757D02*
X017974Y045819D01*
X017980Y045882D01*
X017990Y045943D01*
X018004Y046004D01*
X018021Y046064D01*
X018042Y046123D01*
X018068Y046180D01*
X018096Y046235D01*
X018128Y046289D01*
X018164Y046340D01*
X018202Y046390D01*
X018244Y046436D01*
X018288Y046480D01*
X018336Y046521D01*
X018385Y046559D01*
X018437Y046593D01*
X018491Y046624D01*
X018547Y046652D01*
X018605Y046676D01*
X018664Y046697D01*
X018724Y046713D01*
X018785Y046726D01*
X018847Y046735D01*
X018909Y046740D01*
X018972Y046741D01*
X019034Y046738D01*
X019096Y046731D01*
X019158Y046720D01*
X019218Y046705D01*
X019278Y046687D01*
X019336Y046665D01*
X019393Y046639D01*
X019448Y046609D01*
X019501Y046576D01*
X019552Y046540D01*
X019600Y046501D01*
X019646Y046458D01*
X019689Y046413D01*
X019729Y046365D01*
X019766Y046315D01*
X019800Y046262D01*
X019831Y046208D01*
X019857Y046152D01*
X019881Y046094D01*
X019900Y046034D01*
X019916Y045974D01*
X019928Y045912D01*
X019936Y045851D01*
X019940Y045788D01*
X019940Y045726D01*
X019936Y045663D01*
X019928Y045602D01*
X019916Y045540D01*
X019900Y045480D01*
X019881Y045420D01*
X019857Y045362D01*
X019831Y045306D01*
X019800Y045252D01*
X019766Y045199D01*
X019729Y045149D01*
X019689Y045101D01*
X019646Y045056D01*
X019600Y045013D01*
X019552Y044974D01*
X019501Y044938D01*
X019448Y044905D01*
X019393Y044875D01*
X019336Y044849D01*
X019278Y044827D01*
X019218Y044809D01*
X019158Y044794D01*
X019096Y044783D01*
X019034Y044776D01*
X018972Y044773D01*
X018909Y044774D01*
X018847Y044779D01*
X018785Y044788D01*
X018724Y044801D01*
X018664Y044817D01*
X018605Y044838D01*
X018547Y044862D01*
X018491Y044890D01*
X018437Y044921D01*
X018385Y044955D01*
X018336Y044993D01*
X018288Y045034D01*
X018244Y045078D01*
X018202Y045124D01*
X018164Y045174D01*
X018128Y045225D01*
X018096Y045279D01*
X018068Y045334D01*
X018042Y045391D01*
X018021Y045450D01*
X018004Y045510D01*
X017990Y045571D01*
X017980Y045632D01*
X017974Y045695D01*
X017972Y045757D01*
X018597Y038257D02*
X018599Y038319D01*
X018605Y038382D01*
X018615Y038443D01*
X018629Y038504D01*
X018646Y038564D01*
X018667Y038623D01*
X018693Y038680D01*
X018721Y038735D01*
X018753Y038789D01*
X018789Y038840D01*
X018827Y038890D01*
X018869Y038936D01*
X018913Y038980D01*
X018961Y039021D01*
X019010Y039059D01*
X019062Y039093D01*
X019116Y039124D01*
X019172Y039152D01*
X019230Y039176D01*
X019289Y039197D01*
X019349Y039213D01*
X019410Y039226D01*
X019472Y039235D01*
X019534Y039240D01*
X019597Y039241D01*
X019659Y039238D01*
X019721Y039231D01*
X019783Y039220D01*
X019843Y039205D01*
X019903Y039187D01*
X019961Y039165D01*
X020018Y039139D01*
X020073Y039109D01*
X020126Y039076D01*
X020177Y039040D01*
X020225Y039001D01*
X020271Y038958D01*
X020314Y038913D01*
X020354Y038865D01*
X020391Y038815D01*
X020425Y038762D01*
X020456Y038708D01*
X020482Y038652D01*
X020506Y038594D01*
X020525Y038534D01*
X020541Y038474D01*
X020553Y038412D01*
X020561Y038351D01*
X020565Y038288D01*
X020565Y038226D01*
X020561Y038163D01*
X020553Y038102D01*
X020541Y038040D01*
X020525Y037980D01*
X020506Y037920D01*
X020482Y037862D01*
X020456Y037806D01*
X020425Y037752D01*
X020391Y037699D01*
X020354Y037649D01*
X020314Y037601D01*
X020271Y037556D01*
X020225Y037513D01*
X020177Y037474D01*
X020126Y037438D01*
X020073Y037405D01*
X020018Y037375D01*
X019961Y037349D01*
X019903Y037327D01*
X019843Y037309D01*
X019783Y037294D01*
X019721Y037283D01*
X019659Y037276D01*
X019597Y037273D01*
X019534Y037274D01*
X019472Y037279D01*
X019410Y037288D01*
X019349Y037301D01*
X019289Y037317D01*
X019230Y037338D01*
X019172Y037362D01*
X019116Y037390D01*
X019062Y037421D01*
X019010Y037455D01*
X018961Y037493D01*
X018913Y037534D01*
X018869Y037578D01*
X018827Y037624D01*
X018789Y037674D01*
X018753Y037725D01*
X018721Y037779D01*
X018693Y037834D01*
X018667Y037891D01*
X018646Y037950D01*
X018629Y038010D01*
X018615Y038071D01*
X018605Y038132D01*
X018599Y038195D01*
X018597Y038257D01*
X017972Y030757D02*
X017974Y030819D01*
X017980Y030882D01*
X017990Y030943D01*
X018004Y031004D01*
X018021Y031064D01*
X018042Y031123D01*
X018068Y031180D01*
X018096Y031235D01*
X018128Y031289D01*
X018164Y031340D01*
X018202Y031390D01*
X018244Y031436D01*
X018288Y031480D01*
X018336Y031521D01*
X018385Y031559D01*
X018437Y031593D01*
X018491Y031624D01*
X018547Y031652D01*
X018605Y031676D01*
X018664Y031697D01*
X018724Y031713D01*
X018785Y031726D01*
X018847Y031735D01*
X018909Y031740D01*
X018972Y031741D01*
X019034Y031738D01*
X019096Y031731D01*
X019158Y031720D01*
X019218Y031705D01*
X019278Y031687D01*
X019336Y031665D01*
X019393Y031639D01*
X019448Y031609D01*
X019501Y031576D01*
X019552Y031540D01*
X019600Y031501D01*
X019646Y031458D01*
X019689Y031413D01*
X019729Y031365D01*
X019766Y031315D01*
X019800Y031262D01*
X019831Y031208D01*
X019857Y031152D01*
X019881Y031094D01*
X019900Y031034D01*
X019916Y030974D01*
X019928Y030912D01*
X019936Y030851D01*
X019940Y030788D01*
X019940Y030726D01*
X019936Y030663D01*
X019928Y030602D01*
X019916Y030540D01*
X019900Y030480D01*
X019881Y030420D01*
X019857Y030362D01*
X019831Y030306D01*
X019800Y030252D01*
X019766Y030199D01*
X019729Y030149D01*
X019689Y030101D01*
X019646Y030056D01*
X019600Y030013D01*
X019552Y029974D01*
X019501Y029938D01*
X019448Y029905D01*
X019393Y029875D01*
X019336Y029849D01*
X019278Y029827D01*
X019218Y029809D01*
X019158Y029794D01*
X019096Y029783D01*
X019034Y029776D01*
X018972Y029773D01*
X018909Y029774D01*
X018847Y029779D01*
X018785Y029788D01*
X018724Y029801D01*
X018664Y029817D01*
X018605Y029838D01*
X018547Y029862D01*
X018491Y029890D01*
X018437Y029921D01*
X018385Y029955D01*
X018336Y029993D01*
X018288Y030034D01*
X018244Y030078D01*
X018202Y030124D01*
X018164Y030174D01*
X018128Y030225D01*
X018096Y030279D01*
X018068Y030334D01*
X018042Y030391D01*
X018021Y030450D01*
X018004Y030510D01*
X017990Y030571D01*
X017980Y030632D01*
X017974Y030695D01*
X017972Y030757D01*
X017972Y023257D02*
X017974Y023319D01*
X017980Y023382D01*
X017990Y023443D01*
X018004Y023504D01*
X018021Y023564D01*
X018042Y023623D01*
X018068Y023680D01*
X018096Y023735D01*
X018128Y023789D01*
X018164Y023840D01*
X018202Y023890D01*
X018244Y023936D01*
X018288Y023980D01*
X018336Y024021D01*
X018385Y024059D01*
X018437Y024093D01*
X018491Y024124D01*
X018547Y024152D01*
X018605Y024176D01*
X018664Y024197D01*
X018724Y024213D01*
X018785Y024226D01*
X018847Y024235D01*
X018909Y024240D01*
X018972Y024241D01*
X019034Y024238D01*
X019096Y024231D01*
X019158Y024220D01*
X019218Y024205D01*
X019278Y024187D01*
X019336Y024165D01*
X019393Y024139D01*
X019448Y024109D01*
X019501Y024076D01*
X019552Y024040D01*
X019600Y024001D01*
X019646Y023958D01*
X019689Y023913D01*
X019729Y023865D01*
X019766Y023815D01*
X019800Y023762D01*
X019831Y023708D01*
X019857Y023652D01*
X019881Y023594D01*
X019900Y023534D01*
X019916Y023474D01*
X019928Y023412D01*
X019936Y023351D01*
X019940Y023288D01*
X019940Y023226D01*
X019936Y023163D01*
X019928Y023102D01*
X019916Y023040D01*
X019900Y022980D01*
X019881Y022920D01*
X019857Y022862D01*
X019831Y022806D01*
X019800Y022752D01*
X019766Y022699D01*
X019729Y022649D01*
X019689Y022601D01*
X019646Y022556D01*
X019600Y022513D01*
X019552Y022474D01*
X019501Y022438D01*
X019448Y022405D01*
X019393Y022375D01*
X019336Y022349D01*
X019278Y022327D01*
X019218Y022309D01*
X019158Y022294D01*
X019096Y022283D01*
X019034Y022276D01*
X018972Y022273D01*
X018909Y022274D01*
X018847Y022279D01*
X018785Y022288D01*
X018724Y022301D01*
X018664Y022317D01*
X018605Y022338D01*
X018547Y022362D01*
X018491Y022390D01*
X018437Y022421D01*
X018385Y022455D01*
X018336Y022493D01*
X018288Y022534D01*
X018244Y022578D01*
X018202Y022624D01*
X018164Y022674D01*
X018128Y022725D01*
X018096Y022779D01*
X018068Y022834D01*
X018042Y022891D01*
X018021Y022950D01*
X018004Y023010D01*
X017990Y023071D01*
X017980Y023132D01*
X017974Y023195D01*
X017972Y023257D01*
X025472Y012757D02*
X025474Y012819D01*
X025480Y012882D01*
X025490Y012943D01*
X025504Y013004D01*
X025521Y013064D01*
X025542Y013123D01*
X025568Y013180D01*
X025596Y013235D01*
X025628Y013289D01*
X025664Y013340D01*
X025702Y013390D01*
X025744Y013436D01*
X025788Y013480D01*
X025836Y013521D01*
X025885Y013559D01*
X025937Y013593D01*
X025991Y013624D01*
X026047Y013652D01*
X026105Y013676D01*
X026164Y013697D01*
X026224Y013713D01*
X026285Y013726D01*
X026347Y013735D01*
X026409Y013740D01*
X026472Y013741D01*
X026534Y013738D01*
X026596Y013731D01*
X026658Y013720D01*
X026718Y013705D01*
X026778Y013687D01*
X026836Y013665D01*
X026893Y013639D01*
X026948Y013609D01*
X027001Y013576D01*
X027052Y013540D01*
X027100Y013501D01*
X027146Y013458D01*
X027189Y013413D01*
X027229Y013365D01*
X027266Y013315D01*
X027300Y013262D01*
X027331Y013208D01*
X027357Y013152D01*
X027381Y013094D01*
X027400Y013034D01*
X027416Y012974D01*
X027428Y012912D01*
X027436Y012851D01*
X027440Y012788D01*
X027440Y012726D01*
X027436Y012663D01*
X027428Y012602D01*
X027416Y012540D01*
X027400Y012480D01*
X027381Y012420D01*
X027357Y012362D01*
X027331Y012306D01*
X027300Y012252D01*
X027266Y012199D01*
X027229Y012149D01*
X027189Y012101D01*
X027146Y012056D01*
X027100Y012013D01*
X027052Y011974D01*
X027001Y011938D01*
X026948Y011905D01*
X026893Y011875D01*
X026836Y011849D01*
X026778Y011827D01*
X026718Y011809D01*
X026658Y011794D01*
X026596Y011783D01*
X026534Y011776D01*
X026472Y011773D01*
X026409Y011774D01*
X026347Y011779D01*
X026285Y011788D01*
X026224Y011801D01*
X026164Y011817D01*
X026105Y011838D01*
X026047Y011862D01*
X025991Y011890D01*
X025937Y011921D01*
X025885Y011955D01*
X025836Y011993D01*
X025788Y012034D01*
X025744Y012078D01*
X025702Y012124D01*
X025664Y012174D01*
X025628Y012225D01*
X025596Y012279D01*
X025568Y012334D01*
X025542Y012391D01*
X025521Y012450D01*
X025504Y012510D01*
X025490Y012571D01*
X025480Y012632D01*
X025474Y012695D01*
X025472Y012757D01*
X040472Y012757D02*
X040474Y012819D01*
X040480Y012882D01*
X040490Y012943D01*
X040504Y013004D01*
X040521Y013064D01*
X040542Y013123D01*
X040568Y013180D01*
X040596Y013235D01*
X040628Y013289D01*
X040664Y013340D01*
X040702Y013390D01*
X040744Y013436D01*
X040788Y013480D01*
X040836Y013521D01*
X040885Y013559D01*
X040937Y013593D01*
X040991Y013624D01*
X041047Y013652D01*
X041105Y013676D01*
X041164Y013697D01*
X041224Y013713D01*
X041285Y013726D01*
X041347Y013735D01*
X041409Y013740D01*
X041472Y013741D01*
X041534Y013738D01*
X041596Y013731D01*
X041658Y013720D01*
X041718Y013705D01*
X041778Y013687D01*
X041836Y013665D01*
X041893Y013639D01*
X041948Y013609D01*
X042001Y013576D01*
X042052Y013540D01*
X042100Y013501D01*
X042146Y013458D01*
X042189Y013413D01*
X042229Y013365D01*
X042266Y013315D01*
X042300Y013262D01*
X042331Y013208D01*
X042357Y013152D01*
X042381Y013094D01*
X042400Y013034D01*
X042416Y012974D01*
X042428Y012912D01*
X042436Y012851D01*
X042440Y012788D01*
X042440Y012726D01*
X042436Y012663D01*
X042428Y012602D01*
X042416Y012540D01*
X042400Y012480D01*
X042381Y012420D01*
X042357Y012362D01*
X042331Y012306D01*
X042300Y012252D01*
X042266Y012199D01*
X042229Y012149D01*
X042189Y012101D01*
X042146Y012056D01*
X042100Y012013D01*
X042052Y011974D01*
X042001Y011938D01*
X041948Y011905D01*
X041893Y011875D01*
X041836Y011849D01*
X041778Y011827D01*
X041718Y011809D01*
X041658Y011794D01*
X041596Y011783D01*
X041534Y011776D01*
X041472Y011773D01*
X041409Y011774D01*
X041347Y011779D01*
X041285Y011788D01*
X041224Y011801D01*
X041164Y011817D01*
X041105Y011838D01*
X041047Y011862D01*
X040991Y011890D01*
X040937Y011921D01*
X040885Y011955D01*
X040836Y011993D01*
X040788Y012034D01*
X040744Y012078D01*
X040702Y012124D01*
X040664Y012174D01*
X040628Y012225D01*
X040596Y012279D01*
X040568Y012334D01*
X040542Y012391D01*
X040521Y012450D01*
X040504Y012510D01*
X040490Y012571D01*
X040480Y012632D01*
X040474Y012695D01*
X040472Y012757D01*
X042972Y020257D02*
X042974Y020319D01*
X042980Y020382D01*
X042990Y020443D01*
X043004Y020504D01*
X043021Y020564D01*
X043042Y020623D01*
X043068Y020680D01*
X043096Y020735D01*
X043128Y020789D01*
X043164Y020840D01*
X043202Y020890D01*
X043244Y020936D01*
X043288Y020980D01*
X043336Y021021D01*
X043385Y021059D01*
X043437Y021093D01*
X043491Y021124D01*
X043547Y021152D01*
X043605Y021176D01*
X043664Y021197D01*
X043724Y021213D01*
X043785Y021226D01*
X043847Y021235D01*
X043909Y021240D01*
X043972Y021241D01*
X044034Y021238D01*
X044096Y021231D01*
X044158Y021220D01*
X044218Y021205D01*
X044278Y021187D01*
X044336Y021165D01*
X044393Y021139D01*
X044448Y021109D01*
X044501Y021076D01*
X044552Y021040D01*
X044600Y021001D01*
X044646Y020958D01*
X044689Y020913D01*
X044729Y020865D01*
X044766Y020815D01*
X044800Y020762D01*
X044831Y020708D01*
X044857Y020652D01*
X044881Y020594D01*
X044900Y020534D01*
X044916Y020474D01*
X044928Y020412D01*
X044936Y020351D01*
X044940Y020288D01*
X044940Y020226D01*
X044936Y020163D01*
X044928Y020102D01*
X044916Y020040D01*
X044900Y019980D01*
X044881Y019920D01*
X044857Y019862D01*
X044831Y019806D01*
X044800Y019752D01*
X044766Y019699D01*
X044729Y019649D01*
X044689Y019601D01*
X044646Y019556D01*
X044600Y019513D01*
X044552Y019474D01*
X044501Y019438D01*
X044448Y019405D01*
X044393Y019375D01*
X044336Y019349D01*
X044278Y019327D01*
X044218Y019309D01*
X044158Y019294D01*
X044096Y019283D01*
X044034Y019276D01*
X043972Y019273D01*
X043909Y019274D01*
X043847Y019279D01*
X043785Y019288D01*
X043724Y019301D01*
X043664Y019317D01*
X043605Y019338D01*
X043547Y019362D01*
X043491Y019390D01*
X043437Y019421D01*
X043385Y019455D01*
X043336Y019493D01*
X043288Y019534D01*
X043244Y019578D01*
X043202Y019624D01*
X043164Y019674D01*
X043128Y019725D01*
X043096Y019779D01*
X043068Y019834D01*
X043042Y019891D01*
X043021Y019950D01*
X043004Y020010D01*
X042990Y020071D01*
X042980Y020132D01*
X042974Y020195D01*
X042972Y020257D01*
X042972Y027757D02*
X042974Y027819D01*
X042980Y027882D01*
X042990Y027943D01*
X043004Y028004D01*
X043021Y028064D01*
X043042Y028123D01*
X043068Y028180D01*
X043096Y028235D01*
X043128Y028289D01*
X043164Y028340D01*
X043202Y028390D01*
X043244Y028436D01*
X043288Y028480D01*
X043336Y028521D01*
X043385Y028559D01*
X043437Y028593D01*
X043491Y028624D01*
X043547Y028652D01*
X043605Y028676D01*
X043664Y028697D01*
X043724Y028713D01*
X043785Y028726D01*
X043847Y028735D01*
X043909Y028740D01*
X043972Y028741D01*
X044034Y028738D01*
X044096Y028731D01*
X044158Y028720D01*
X044218Y028705D01*
X044278Y028687D01*
X044336Y028665D01*
X044393Y028639D01*
X044448Y028609D01*
X044501Y028576D01*
X044552Y028540D01*
X044600Y028501D01*
X044646Y028458D01*
X044689Y028413D01*
X044729Y028365D01*
X044766Y028315D01*
X044800Y028262D01*
X044831Y028208D01*
X044857Y028152D01*
X044881Y028094D01*
X044900Y028034D01*
X044916Y027974D01*
X044928Y027912D01*
X044936Y027851D01*
X044940Y027788D01*
X044940Y027726D01*
X044936Y027663D01*
X044928Y027602D01*
X044916Y027540D01*
X044900Y027480D01*
X044881Y027420D01*
X044857Y027362D01*
X044831Y027306D01*
X044800Y027252D01*
X044766Y027199D01*
X044729Y027149D01*
X044689Y027101D01*
X044646Y027056D01*
X044600Y027013D01*
X044552Y026974D01*
X044501Y026938D01*
X044448Y026905D01*
X044393Y026875D01*
X044336Y026849D01*
X044278Y026827D01*
X044218Y026809D01*
X044158Y026794D01*
X044096Y026783D01*
X044034Y026776D01*
X043972Y026773D01*
X043909Y026774D01*
X043847Y026779D01*
X043785Y026788D01*
X043724Y026801D01*
X043664Y026817D01*
X043605Y026838D01*
X043547Y026862D01*
X043491Y026890D01*
X043437Y026921D01*
X043385Y026955D01*
X043336Y026993D01*
X043288Y027034D01*
X043244Y027078D01*
X043202Y027124D01*
X043164Y027174D01*
X043128Y027225D01*
X043096Y027279D01*
X043068Y027334D01*
X043042Y027391D01*
X043021Y027450D01*
X043004Y027510D01*
X042990Y027571D01*
X042980Y027632D01*
X042974Y027695D01*
X042972Y027757D01*
X042972Y035257D02*
X042974Y035319D01*
X042980Y035382D01*
X042990Y035443D01*
X043004Y035504D01*
X043021Y035564D01*
X043042Y035623D01*
X043068Y035680D01*
X043096Y035735D01*
X043128Y035789D01*
X043164Y035840D01*
X043202Y035890D01*
X043244Y035936D01*
X043288Y035980D01*
X043336Y036021D01*
X043385Y036059D01*
X043437Y036093D01*
X043491Y036124D01*
X043547Y036152D01*
X043605Y036176D01*
X043664Y036197D01*
X043724Y036213D01*
X043785Y036226D01*
X043847Y036235D01*
X043909Y036240D01*
X043972Y036241D01*
X044034Y036238D01*
X044096Y036231D01*
X044158Y036220D01*
X044218Y036205D01*
X044278Y036187D01*
X044336Y036165D01*
X044393Y036139D01*
X044448Y036109D01*
X044501Y036076D01*
X044552Y036040D01*
X044600Y036001D01*
X044646Y035958D01*
X044689Y035913D01*
X044729Y035865D01*
X044766Y035815D01*
X044800Y035762D01*
X044831Y035708D01*
X044857Y035652D01*
X044881Y035594D01*
X044900Y035534D01*
X044916Y035474D01*
X044928Y035412D01*
X044936Y035351D01*
X044940Y035288D01*
X044940Y035226D01*
X044936Y035163D01*
X044928Y035102D01*
X044916Y035040D01*
X044900Y034980D01*
X044881Y034920D01*
X044857Y034862D01*
X044831Y034806D01*
X044800Y034752D01*
X044766Y034699D01*
X044729Y034649D01*
X044689Y034601D01*
X044646Y034556D01*
X044600Y034513D01*
X044552Y034474D01*
X044501Y034438D01*
X044448Y034405D01*
X044393Y034375D01*
X044336Y034349D01*
X044278Y034327D01*
X044218Y034309D01*
X044158Y034294D01*
X044096Y034283D01*
X044034Y034276D01*
X043972Y034273D01*
X043909Y034274D01*
X043847Y034279D01*
X043785Y034288D01*
X043724Y034301D01*
X043664Y034317D01*
X043605Y034338D01*
X043547Y034362D01*
X043491Y034390D01*
X043437Y034421D01*
X043385Y034455D01*
X043336Y034493D01*
X043288Y034534D01*
X043244Y034578D01*
X043202Y034624D01*
X043164Y034674D01*
X043128Y034725D01*
X043096Y034779D01*
X043068Y034834D01*
X043042Y034891D01*
X043021Y034950D01*
X043004Y035010D01*
X042990Y035071D01*
X042980Y035132D01*
X042974Y035195D01*
X042972Y035257D01*
X039972Y045757D02*
X039974Y045819D01*
X039980Y045882D01*
X039990Y045943D01*
X040004Y046004D01*
X040021Y046064D01*
X040042Y046123D01*
X040068Y046180D01*
X040096Y046235D01*
X040128Y046289D01*
X040164Y046340D01*
X040202Y046390D01*
X040244Y046436D01*
X040288Y046480D01*
X040336Y046521D01*
X040385Y046559D01*
X040437Y046593D01*
X040491Y046624D01*
X040547Y046652D01*
X040605Y046676D01*
X040664Y046697D01*
X040724Y046713D01*
X040785Y046726D01*
X040847Y046735D01*
X040909Y046740D01*
X040972Y046741D01*
X041034Y046738D01*
X041096Y046731D01*
X041158Y046720D01*
X041218Y046705D01*
X041278Y046687D01*
X041336Y046665D01*
X041393Y046639D01*
X041448Y046609D01*
X041501Y046576D01*
X041552Y046540D01*
X041600Y046501D01*
X041646Y046458D01*
X041689Y046413D01*
X041729Y046365D01*
X041766Y046315D01*
X041800Y046262D01*
X041831Y046208D01*
X041857Y046152D01*
X041881Y046094D01*
X041900Y046034D01*
X041916Y045974D01*
X041928Y045912D01*
X041936Y045851D01*
X041940Y045788D01*
X041940Y045726D01*
X041936Y045663D01*
X041928Y045602D01*
X041916Y045540D01*
X041900Y045480D01*
X041881Y045420D01*
X041857Y045362D01*
X041831Y045306D01*
X041800Y045252D01*
X041766Y045199D01*
X041729Y045149D01*
X041689Y045101D01*
X041646Y045056D01*
X041600Y045013D01*
X041552Y044974D01*
X041501Y044938D01*
X041448Y044905D01*
X041393Y044875D01*
X041336Y044849D01*
X041278Y044827D01*
X041218Y044809D01*
X041158Y044794D01*
X041096Y044783D01*
X041034Y044776D01*
X040972Y044773D01*
X040909Y044774D01*
X040847Y044779D01*
X040785Y044788D01*
X040724Y044801D01*
X040664Y044817D01*
X040605Y044838D01*
X040547Y044862D01*
X040491Y044890D01*
X040437Y044921D01*
X040385Y044955D01*
X040336Y044993D01*
X040288Y045034D01*
X040244Y045078D01*
X040202Y045124D01*
X040164Y045174D01*
X040128Y045225D01*
X040096Y045279D01*
X040068Y045334D01*
X040042Y045391D01*
X040021Y045450D01*
X040004Y045510D01*
X039990Y045571D01*
X039980Y045632D01*
X039974Y045695D01*
X039972Y045757D01*
X047472Y045757D02*
X047474Y045819D01*
X047480Y045882D01*
X047490Y045943D01*
X047504Y046004D01*
X047521Y046064D01*
X047542Y046123D01*
X047568Y046180D01*
X047596Y046235D01*
X047628Y046289D01*
X047664Y046340D01*
X047702Y046390D01*
X047744Y046436D01*
X047788Y046480D01*
X047836Y046521D01*
X047885Y046559D01*
X047937Y046593D01*
X047991Y046624D01*
X048047Y046652D01*
X048105Y046676D01*
X048164Y046697D01*
X048224Y046713D01*
X048285Y046726D01*
X048347Y046735D01*
X048409Y046740D01*
X048472Y046741D01*
X048534Y046738D01*
X048596Y046731D01*
X048658Y046720D01*
X048718Y046705D01*
X048778Y046687D01*
X048836Y046665D01*
X048893Y046639D01*
X048948Y046609D01*
X049001Y046576D01*
X049052Y046540D01*
X049100Y046501D01*
X049146Y046458D01*
X049189Y046413D01*
X049229Y046365D01*
X049266Y046315D01*
X049300Y046262D01*
X049331Y046208D01*
X049357Y046152D01*
X049381Y046094D01*
X049400Y046034D01*
X049416Y045974D01*
X049428Y045912D01*
X049436Y045851D01*
X049440Y045788D01*
X049440Y045726D01*
X049436Y045663D01*
X049428Y045602D01*
X049416Y045540D01*
X049400Y045480D01*
X049381Y045420D01*
X049357Y045362D01*
X049331Y045306D01*
X049300Y045252D01*
X049266Y045199D01*
X049229Y045149D01*
X049189Y045101D01*
X049146Y045056D01*
X049100Y045013D01*
X049052Y044974D01*
X049001Y044938D01*
X048948Y044905D01*
X048893Y044875D01*
X048836Y044849D01*
X048778Y044827D01*
X048718Y044809D01*
X048658Y044794D01*
X048596Y044783D01*
X048534Y044776D01*
X048472Y044773D01*
X048409Y044774D01*
X048347Y044779D01*
X048285Y044788D01*
X048224Y044801D01*
X048164Y044817D01*
X048105Y044838D01*
X048047Y044862D01*
X047991Y044890D01*
X047937Y044921D01*
X047885Y044955D01*
X047836Y044993D01*
X047788Y045034D01*
X047744Y045078D01*
X047702Y045124D01*
X047664Y045174D01*
X047628Y045225D01*
X047596Y045279D01*
X047568Y045334D01*
X047542Y045391D01*
X047521Y045450D01*
X047504Y045510D01*
X047490Y045571D01*
X047480Y045632D01*
X047474Y045695D01*
X047472Y045757D01*
X050472Y035257D02*
X050474Y035319D01*
X050480Y035382D01*
X050490Y035443D01*
X050504Y035504D01*
X050521Y035564D01*
X050542Y035623D01*
X050568Y035680D01*
X050596Y035735D01*
X050628Y035789D01*
X050664Y035840D01*
X050702Y035890D01*
X050744Y035936D01*
X050788Y035980D01*
X050836Y036021D01*
X050885Y036059D01*
X050937Y036093D01*
X050991Y036124D01*
X051047Y036152D01*
X051105Y036176D01*
X051164Y036197D01*
X051224Y036213D01*
X051285Y036226D01*
X051347Y036235D01*
X051409Y036240D01*
X051472Y036241D01*
X051534Y036238D01*
X051596Y036231D01*
X051658Y036220D01*
X051718Y036205D01*
X051778Y036187D01*
X051836Y036165D01*
X051893Y036139D01*
X051948Y036109D01*
X052001Y036076D01*
X052052Y036040D01*
X052100Y036001D01*
X052146Y035958D01*
X052189Y035913D01*
X052229Y035865D01*
X052266Y035815D01*
X052300Y035762D01*
X052331Y035708D01*
X052357Y035652D01*
X052381Y035594D01*
X052400Y035534D01*
X052416Y035474D01*
X052428Y035412D01*
X052436Y035351D01*
X052440Y035288D01*
X052440Y035226D01*
X052436Y035163D01*
X052428Y035102D01*
X052416Y035040D01*
X052400Y034980D01*
X052381Y034920D01*
X052357Y034862D01*
X052331Y034806D01*
X052300Y034752D01*
X052266Y034699D01*
X052229Y034649D01*
X052189Y034601D01*
X052146Y034556D01*
X052100Y034513D01*
X052052Y034474D01*
X052001Y034438D01*
X051948Y034405D01*
X051893Y034375D01*
X051836Y034349D01*
X051778Y034327D01*
X051718Y034309D01*
X051658Y034294D01*
X051596Y034283D01*
X051534Y034276D01*
X051472Y034273D01*
X051409Y034274D01*
X051347Y034279D01*
X051285Y034288D01*
X051224Y034301D01*
X051164Y034317D01*
X051105Y034338D01*
X051047Y034362D01*
X050991Y034390D01*
X050937Y034421D01*
X050885Y034455D01*
X050836Y034493D01*
X050788Y034534D01*
X050744Y034578D01*
X050702Y034624D01*
X050664Y034674D01*
X050628Y034725D01*
X050596Y034779D01*
X050568Y034834D01*
X050542Y034891D01*
X050521Y034950D01*
X050504Y035010D01*
X050490Y035071D01*
X050480Y035132D01*
X050474Y035195D01*
X050472Y035257D01*
X050472Y027757D02*
X050474Y027819D01*
X050480Y027882D01*
X050490Y027943D01*
X050504Y028004D01*
X050521Y028064D01*
X050542Y028123D01*
X050568Y028180D01*
X050596Y028235D01*
X050628Y028289D01*
X050664Y028340D01*
X050702Y028390D01*
X050744Y028436D01*
X050788Y028480D01*
X050836Y028521D01*
X050885Y028559D01*
X050937Y028593D01*
X050991Y028624D01*
X051047Y028652D01*
X051105Y028676D01*
X051164Y028697D01*
X051224Y028713D01*
X051285Y028726D01*
X051347Y028735D01*
X051409Y028740D01*
X051472Y028741D01*
X051534Y028738D01*
X051596Y028731D01*
X051658Y028720D01*
X051718Y028705D01*
X051778Y028687D01*
X051836Y028665D01*
X051893Y028639D01*
X051948Y028609D01*
X052001Y028576D01*
X052052Y028540D01*
X052100Y028501D01*
X052146Y028458D01*
X052189Y028413D01*
X052229Y028365D01*
X052266Y028315D01*
X052300Y028262D01*
X052331Y028208D01*
X052357Y028152D01*
X052381Y028094D01*
X052400Y028034D01*
X052416Y027974D01*
X052428Y027912D01*
X052436Y027851D01*
X052440Y027788D01*
X052440Y027726D01*
X052436Y027663D01*
X052428Y027602D01*
X052416Y027540D01*
X052400Y027480D01*
X052381Y027420D01*
X052357Y027362D01*
X052331Y027306D01*
X052300Y027252D01*
X052266Y027199D01*
X052229Y027149D01*
X052189Y027101D01*
X052146Y027056D01*
X052100Y027013D01*
X052052Y026974D01*
X052001Y026938D01*
X051948Y026905D01*
X051893Y026875D01*
X051836Y026849D01*
X051778Y026827D01*
X051718Y026809D01*
X051658Y026794D01*
X051596Y026783D01*
X051534Y026776D01*
X051472Y026773D01*
X051409Y026774D01*
X051347Y026779D01*
X051285Y026788D01*
X051224Y026801D01*
X051164Y026817D01*
X051105Y026838D01*
X051047Y026862D01*
X050991Y026890D01*
X050937Y026921D01*
X050885Y026955D01*
X050836Y026993D01*
X050788Y027034D01*
X050744Y027078D01*
X050702Y027124D01*
X050664Y027174D01*
X050628Y027225D01*
X050596Y027279D01*
X050568Y027334D01*
X050542Y027391D01*
X050521Y027450D01*
X050504Y027510D01*
X050490Y027571D01*
X050480Y027632D01*
X050474Y027695D01*
X050472Y027757D01*
X050472Y020257D02*
X050474Y020319D01*
X050480Y020382D01*
X050490Y020443D01*
X050504Y020504D01*
X050521Y020564D01*
X050542Y020623D01*
X050568Y020680D01*
X050596Y020735D01*
X050628Y020789D01*
X050664Y020840D01*
X050702Y020890D01*
X050744Y020936D01*
X050788Y020980D01*
X050836Y021021D01*
X050885Y021059D01*
X050937Y021093D01*
X050991Y021124D01*
X051047Y021152D01*
X051105Y021176D01*
X051164Y021197D01*
X051224Y021213D01*
X051285Y021226D01*
X051347Y021235D01*
X051409Y021240D01*
X051472Y021241D01*
X051534Y021238D01*
X051596Y021231D01*
X051658Y021220D01*
X051718Y021205D01*
X051778Y021187D01*
X051836Y021165D01*
X051893Y021139D01*
X051948Y021109D01*
X052001Y021076D01*
X052052Y021040D01*
X052100Y021001D01*
X052146Y020958D01*
X052189Y020913D01*
X052229Y020865D01*
X052266Y020815D01*
X052300Y020762D01*
X052331Y020708D01*
X052357Y020652D01*
X052381Y020594D01*
X052400Y020534D01*
X052416Y020474D01*
X052428Y020412D01*
X052436Y020351D01*
X052440Y020288D01*
X052440Y020226D01*
X052436Y020163D01*
X052428Y020102D01*
X052416Y020040D01*
X052400Y019980D01*
X052381Y019920D01*
X052357Y019862D01*
X052331Y019806D01*
X052300Y019752D01*
X052266Y019699D01*
X052229Y019649D01*
X052189Y019601D01*
X052146Y019556D01*
X052100Y019513D01*
X052052Y019474D01*
X052001Y019438D01*
X051948Y019405D01*
X051893Y019375D01*
X051836Y019349D01*
X051778Y019327D01*
X051718Y019309D01*
X051658Y019294D01*
X051596Y019283D01*
X051534Y019276D01*
X051472Y019273D01*
X051409Y019274D01*
X051347Y019279D01*
X051285Y019288D01*
X051224Y019301D01*
X051164Y019317D01*
X051105Y019338D01*
X051047Y019362D01*
X050991Y019390D01*
X050937Y019421D01*
X050885Y019455D01*
X050836Y019493D01*
X050788Y019534D01*
X050744Y019578D01*
X050702Y019624D01*
X050664Y019674D01*
X050628Y019725D01*
X050596Y019779D01*
X050568Y019834D01*
X050542Y019891D01*
X050521Y019950D01*
X050504Y020010D01*
X050490Y020071D01*
X050480Y020132D01*
X050474Y020195D01*
X050472Y020257D01*
X049222Y012382D02*
X049224Y012444D01*
X049230Y012507D01*
X049240Y012568D01*
X049254Y012629D01*
X049271Y012689D01*
X049292Y012748D01*
X049318Y012805D01*
X049346Y012860D01*
X049378Y012914D01*
X049414Y012965D01*
X049452Y013015D01*
X049494Y013061D01*
X049538Y013105D01*
X049586Y013146D01*
X049635Y013184D01*
X049687Y013218D01*
X049741Y013249D01*
X049797Y013277D01*
X049855Y013301D01*
X049914Y013322D01*
X049974Y013338D01*
X050035Y013351D01*
X050097Y013360D01*
X050159Y013365D01*
X050222Y013366D01*
X050284Y013363D01*
X050346Y013356D01*
X050408Y013345D01*
X050468Y013330D01*
X050528Y013312D01*
X050586Y013290D01*
X050643Y013264D01*
X050698Y013234D01*
X050751Y013201D01*
X050802Y013165D01*
X050850Y013126D01*
X050896Y013083D01*
X050939Y013038D01*
X050979Y012990D01*
X051016Y012940D01*
X051050Y012887D01*
X051081Y012833D01*
X051107Y012777D01*
X051131Y012719D01*
X051150Y012659D01*
X051166Y012599D01*
X051178Y012537D01*
X051186Y012476D01*
X051190Y012413D01*
X051190Y012351D01*
X051186Y012288D01*
X051178Y012227D01*
X051166Y012165D01*
X051150Y012105D01*
X051131Y012045D01*
X051107Y011987D01*
X051081Y011931D01*
X051050Y011877D01*
X051016Y011824D01*
X050979Y011774D01*
X050939Y011726D01*
X050896Y011681D01*
X050850Y011638D01*
X050802Y011599D01*
X050751Y011563D01*
X050698Y011530D01*
X050643Y011500D01*
X050586Y011474D01*
X050528Y011452D01*
X050468Y011434D01*
X050408Y011419D01*
X050346Y011408D01*
X050284Y011401D01*
X050222Y011398D01*
X050159Y011399D01*
X050097Y011404D01*
X050035Y011413D01*
X049974Y011426D01*
X049914Y011442D01*
X049855Y011463D01*
X049797Y011487D01*
X049741Y011515D01*
X049687Y011546D01*
X049635Y011580D01*
X049586Y011618D01*
X049538Y011659D01*
X049494Y011703D01*
X049452Y011749D01*
X049414Y011799D01*
X049378Y011850D01*
X049346Y011904D01*
X049318Y011959D01*
X049292Y012016D01*
X049271Y012075D01*
X049254Y012135D01*
X049240Y012196D01*
X049230Y012257D01*
X049224Y012320D01*
X049222Y012382D01*
X057972Y012757D02*
X057974Y012819D01*
X057980Y012882D01*
X057990Y012943D01*
X058004Y013004D01*
X058021Y013064D01*
X058042Y013123D01*
X058068Y013180D01*
X058096Y013235D01*
X058128Y013289D01*
X058164Y013340D01*
X058202Y013390D01*
X058244Y013436D01*
X058288Y013480D01*
X058336Y013521D01*
X058385Y013559D01*
X058437Y013593D01*
X058491Y013624D01*
X058547Y013652D01*
X058605Y013676D01*
X058664Y013697D01*
X058724Y013713D01*
X058785Y013726D01*
X058847Y013735D01*
X058909Y013740D01*
X058972Y013741D01*
X059034Y013738D01*
X059096Y013731D01*
X059158Y013720D01*
X059218Y013705D01*
X059278Y013687D01*
X059336Y013665D01*
X059393Y013639D01*
X059448Y013609D01*
X059501Y013576D01*
X059552Y013540D01*
X059600Y013501D01*
X059646Y013458D01*
X059689Y013413D01*
X059729Y013365D01*
X059766Y013315D01*
X059800Y013262D01*
X059831Y013208D01*
X059857Y013152D01*
X059881Y013094D01*
X059900Y013034D01*
X059916Y012974D01*
X059928Y012912D01*
X059936Y012851D01*
X059940Y012788D01*
X059940Y012726D01*
X059936Y012663D01*
X059928Y012602D01*
X059916Y012540D01*
X059900Y012480D01*
X059881Y012420D01*
X059857Y012362D01*
X059831Y012306D01*
X059800Y012252D01*
X059766Y012199D01*
X059729Y012149D01*
X059689Y012101D01*
X059646Y012056D01*
X059600Y012013D01*
X059552Y011974D01*
X059501Y011938D01*
X059448Y011905D01*
X059393Y011875D01*
X059336Y011849D01*
X059278Y011827D01*
X059218Y011809D01*
X059158Y011794D01*
X059096Y011783D01*
X059034Y011776D01*
X058972Y011773D01*
X058909Y011774D01*
X058847Y011779D01*
X058785Y011788D01*
X058724Y011801D01*
X058664Y011817D01*
X058605Y011838D01*
X058547Y011862D01*
X058491Y011890D01*
X058437Y011921D01*
X058385Y011955D01*
X058336Y011993D01*
X058288Y012034D01*
X058244Y012078D01*
X058202Y012124D01*
X058164Y012174D01*
X058128Y012225D01*
X058096Y012279D01*
X058068Y012334D01*
X058042Y012391D01*
X058021Y012450D01*
X058004Y012510D01*
X057990Y012571D01*
X057980Y012632D01*
X057974Y012695D01*
X057972Y012757D01*
X057972Y020257D02*
X057974Y020319D01*
X057980Y020382D01*
X057990Y020443D01*
X058004Y020504D01*
X058021Y020564D01*
X058042Y020623D01*
X058068Y020680D01*
X058096Y020735D01*
X058128Y020789D01*
X058164Y020840D01*
X058202Y020890D01*
X058244Y020936D01*
X058288Y020980D01*
X058336Y021021D01*
X058385Y021059D01*
X058437Y021093D01*
X058491Y021124D01*
X058547Y021152D01*
X058605Y021176D01*
X058664Y021197D01*
X058724Y021213D01*
X058785Y021226D01*
X058847Y021235D01*
X058909Y021240D01*
X058972Y021241D01*
X059034Y021238D01*
X059096Y021231D01*
X059158Y021220D01*
X059218Y021205D01*
X059278Y021187D01*
X059336Y021165D01*
X059393Y021139D01*
X059448Y021109D01*
X059501Y021076D01*
X059552Y021040D01*
X059600Y021001D01*
X059646Y020958D01*
X059689Y020913D01*
X059729Y020865D01*
X059766Y020815D01*
X059800Y020762D01*
X059831Y020708D01*
X059857Y020652D01*
X059881Y020594D01*
X059900Y020534D01*
X059916Y020474D01*
X059928Y020412D01*
X059936Y020351D01*
X059940Y020288D01*
X059940Y020226D01*
X059936Y020163D01*
X059928Y020102D01*
X059916Y020040D01*
X059900Y019980D01*
X059881Y019920D01*
X059857Y019862D01*
X059831Y019806D01*
X059800Y019752D01*
X059766Y019699D01*
X059729Y019649D01*
X059689Y019601D01*
X059646Y019556D01*
X059600Y019513D01*
X059552Y019474D01*
X059501Y019438D01*
X059448Y019405D01*
X059393Y019375D01*
X059336Y019349D01*
X059278Y019327D01*
X059218Y019309D01*
X059158Y019294D01*
X059096Y019283D01*
X059034Y019276D01*
X058972Y019273D01*
X058909Y019274D01*
X058847Y019279D01*
X058785Y019288D01*
X058724Y019301D01*
X058664Y019317D01*
X058605Y019338D01*
X058547Y019362D01*
X058491Y019390D01*
X058437Y019421D01*
X058385Y019455D01*
X058336Y019493D01*
X058288Y019534D01*
X058244Y019578D01*
X058202Y019624D01*
X058164Y019674D01*
X058128Y019725D01*
X058096Y019779D01*
X058068Y019834D01*
X058042Y019891D01*
X058021Y019950D01*
X058004Y020010D01*
X057990Y020071D01*
X057980Y020132D01*
X057974Y020195D01*
X057972Y020257D01*
X057972Y027757D02*
X057974Y027819D01*
X057980Y027882D01*
X057990Y027943D01*
X058004Y028004D01*
X058021Y028064D01*
X058042Y028123D01*
X058068Y028180D01*
X058096Y028235D01*
X058128Y028289D01*
X058164Y028340D01*
X058202Y028390D01*
X058244Y028436D01*
X058288Y028480D01*
X058336Y028521D01*
X058385Y028559D01*
X058437Y028593D01*
X058491Y028624D01*
X058547Y028652D01*
X058605Y028676D01*
X058664Y028697D01*
X058724Y028713D01*
X058785Y028726D01*
X058847Y028735D01*
X058909Y028740D01*
X058972Y028741D01*
X059034Y028738D01*
X059096Y028731D01*
X059158Y028720D01*
X059218Y028705D01*
X059278Y028687D01*
X059336Y028665D01*
X059393Y028639D01*
X059448Y028609D01*
X059501Y028576D01*
X059552Y028540D01*
X059600Y028501D01*
X059646Y028458D01*
X059689Y028413D01*
X059729Y028365D01*
X059766Y028315D01*
X059800Y028262D01*
X059831Y028208D01*
X059857Y028152D01*
X059881Y028094D01*
X059900Y028034D01*
X059916Y027974D01*
X059928Y027912D01*
X059936Y027851D01*
X059940Y027788D01*
X059940Y027726D01*
X059936Y027663D01*
X059928Y027602D01*
X059916Y027540D01*
X059900Y027480D01*
X059881Y027420D01*
X059857Y027362D01*
X059831Y027306D01*
X059800Y027252D01*
X059766Y027199D01*
X059729Y027149D01*
X059689Y027101D01*
X059646Y027056D01*
X059600Y027013D01*
X059552Y026974D01*
X059501Y026938D01*
X059448Y026905D01*
X059393Y026875D01*
X059336Y026849D01*
X059278Y026827D01*
X059218Y026809D01*
X059158Y026794D01*
X059096Y026783D01*
X059034Y026776D01*
X058972Y026773D01*
X058909Y026774D01*
X058847Y026779D01*
X058785Y026788D01*
X058724Y026801D01*
X058664Y026817D01*
X058605Y026838D01*
X058547Y026862D01*
X058491Y026890D01*
X058437Y026921D01*
X058385Y026955D01*
X058336Y026993D01*
X058288Y027034D01*
X058244Y027078D01*
X058202Y027124D01*
X058164Y027174D01*
X058128Y027225D01*
X058096Y027279D01*
X058068Y027334D01*
X058042Y027391D01*
X058021Y027450D01*
X058004Y027510D01*
X057990Y027571D01*
X057980Y027632D01*
X057974Y027695D01*
X057972Y027757D01*
X057972Y035257D02*
X057974Y035319D01*
X057980Y035382D01*
X057990Y035443D01*
X058004Y035504D01*
X058021Y035564D01*
X058042Y035623D01*
X058068Y035680D01*
X058096Y035735D01*
X058128Y035789D01*
X058164Y035840D01*
X058202Y035890D01*
X058244Y035936D01*
X058288Y035980D01*
X058336Y036021D01*
X058385Y036059D01*
X058437Y036093D01*
X058491Y036124D01*
X058547Y036152D01*
X058605Y036176D01*
X058664Y036197D01*
X058724Y036213D01*
X058785Y036226D01*
X058847Y036235D01*
X058909Y036240D01*
X058972Y036241D01*
X059034Y036238D01*
X059096Y036231D01*
X059158Y036220D01*
X059218Y036205D01*
X059278Y036187D01*
X059336Y036165D01*
X059393Y036139D01*
X059448Y036109D01*
X059501Y036076D01*
X059552Y036040D01*
X059600Y036001D01*
X059646Y035958D01*
X059689Y035913D01*
X059729Y035865D01*
X059766Y035815D01*
X059800Y035762D01*
X059831Y035708D01*
X059857Y035652D01*
X059881Y035594D01*
X059900Y035534D01*
X059916Y035474D01*
X059928Y035412D01*
X059936Y035351D01*
X059940Y035288D01*
X059940Y035226D01*
X059936Y035163D01*
X059928Y035102D01*
X059916Y035040D01*
X059900Y034980D01*
X059881Y034920D01*
X059857Y034862D01*
X059831Y034806D01*
X059800Y034752D01*
X059766Y034699D01*
X059729Y034649D01*
X059689Y034601D01*
X059646Y034556D01*
X059600Y034513D01*
X059552Y034474D01*
X059501Y034438D01*
X059448Y034405D01*
X059393Y034375D01*
X059336Y034349D01*
X059278Y034327D01*
X059218Y034309D01*
X059158Y034294D01*
X059096Y034283D01*
X059034Y034276D01*
X058972Y034273D01*
X058909Y034274D01*
X058847Y034279D01*
X058785Y034288D01*
X058724Y034301D01*
X058664Y034317D01*
X058605Y034338D01*
X058547Y034362D01*
X058491Y034390D01*
X058437Y034421D01*
X058385Y034455D01*
X058336Y034493D01*
X058288Y034534D01*
X058244Y034578D01*
X058202Y034624D01*
X058164Y034674D01*
X058128Y034725D01*
X058096Y034779D01*
X058068Y034834D01*
X058042Y034891D01*
X058021Y034950D01*
X058004Y035010D01*
X057990Y035071D01*
X057980Y035132D01*
X057974Y035195D01*
X057972Y035257D01*
X054972Y045757D02*
X054974Y045819D01*
X054980Y045882D01*
X054990Y045943D01*
X055004Y046004D01*
X055021Y046064D01*
X055042Y046123D01*
X055068Y046180D01*
X055096Y046235D01*
X055128Y046289D01*
X055164Y046340D01*
X055202Y046390D01*
X055244Y046436D01*
X055288Y046480D01*
X055336Y046521D01*
X055385Y046559D01*
X055437Y046593D01*
X055491Y046624D01*
X055547Y046652D01*
X055605Y046676D01*
X055664Y046697D01*
X055724Y046713D01*
X055785Y046726D01*
X055847Y046735D01*
X055909Y046740D01*
X055972Y046741D01*
X056034Y046738D01*
X056096Y046731D01*
X056158Y046720D01*
X056218Y046705D01*
X056278Y046687D01*
X056336Y046665D01*
X056393Y046639D01*
X056448Y046609D01*
X056501Y046576D01*
X056552Y046540D01*
X056600Y046501D01*
X056646Y046458D01*
X056689Y046413D01*
X056729Y046365D01*
X056766Y046315D01*
X056800Y046262D01*
X056831Y046208D01*
X056857Y046152D01*
X056881Y046094D01*
X056900Y046034D01*
X056916Y045974D01*
X056928Y045912D01*
X056936Y045851D01*
X056940Y045788D01*
X056940Y045726D01*
X056936Y045663D01*
X056928Y045602D01*
X056916Y045540D01*
X056900Y045480D01*
X056881Y045420D01*
X056857Y045362D01*
X056831Y045306D01*
X056800Y045252D01*
X056766Y045199D01*
X056729Y045149D01*
X056689Y045101D01*
X056646Y045056D01*
X056600Y045013D01*
X056552Y044974D01*
X056501Y044938D01*
X056448Y044905D01*
X056393Y044875D01*
X056336Y044849D01*
X056278Y044827D01*
X056218Y044809D01*
X056158Y044794D01*
X056096Y044783D01*
X056034Y044776D01*
X055972Y044773D01*
X055909Y044774D01*
X055847Y044779D01*
X055785Y044788D01*
X055724Y044801D01*
X055664Y044817D01*
X055605Y044838D01*
X055547Y044862D01*
X055491Y044890D01*
X055437Y044921D01*
X055385Y044955D01*
X055336Y044993D01*
X055288Y045034D01*
X055244Y045078D01*
X055202Y045124D01*
X055164Y045174D01*
X055128Y045225D01*
X055096Y045279D01*
X055068Y045334D01*
X055042Y045391D01*
X055021Y045450D01*
X055004Y045510D01*
X054990Y045571D01*
X054980Y045632D01*
X054974Y045695D01*
X054972Y045757D01*
X065472Y035257D02*
X065474Y035319D01*
X065480Y035382D01*
X065490Y035443D01*
X065504Y035504D01*
X065521Y035564D01*
X065542Y035623D01*
X065568Y035680D01*
X065596Y035735D01*
X065628Y035789D01*
X065664Y035840D01*
X065702Y035890D01*
X065744Y035936D01*
X065788Y035980D01*
X065836Y036021D01*
X065885Y036059D01*
X065937Y036093D01*
X065991Y036124D01*
X066047Y036152D01*
X066105Y036176D01*
X066164Y036197D01*
X066224Y036213D01*
X066285Y036226D01*
X066347Y036235D01*
X066409Y036240D01*
X066472Y036241D01*
X066534Y036238D01*
X066596Y036231D01*
X066658Y036220D01*
X066718Y036205D01*
X066778Y036187D01*
X066836Y036165D01*
X066893Y036139D01*
X066948Y036109D01*
X067001Y036076D01*
X067052Y036040D01*
X067100Y036001D01*
X067146Y035958D01*
X067189Y035913D01*
X067229Y035865D01*
X067266Y035815D01*
X067300Y035762D01*
X067331Y035708D01*
X067357Y035652D01*
X067381Y035594D01*
X067400Y035534D01*
X067416Y035474D01*
X067428Y035412D01*
X067436Y035351D01*
X067440Y035288D01*
X067440Y035226D01*
X067436Y035163D01*
X067428Y035102D01*
X067416Y035040D01*
X067400Y034980D01*
X067381Y034920D01*
X067357Y034862D01*
X067331Y034806D01*
X067300Y034752D01*
X067266Y034699D01*
X067229Y034649D01*
X067189Y034601D01*
X067146Y034556D01*
X067100Y034513D01*
X067052Y034474D01*
X067001Y034438D01*
X066948Y034405D01*
X066893Y034375D01*
X066836Y034349D01*
X066778Y034327D01*
X066718Y034309D01*
X066658Y034294D01*
X066596Y034283D01*
X066534Y034276D01*
X066472Y034273D01*
X066409Y034274D01*
X066347Y034279D01*
X066285Y034288D01*
X066224Y034301D01*
X066164Y034317D01*
X066105Y034338D01*
X066047Y034362D01*
X065991Y034390D01*
X065937Y034421D01*
X065885Y034455D01*
X065836Y034493D01*
X065788Y034534D01*
X065744Y034578D01*
X065702Y034624D01*
X065664Y034674D01*
X065628Y034725D01*
X065596Y034779D01*
X065568Y034834D01*
X065542Y034891D01*
X065521Y034950D01*
X065504Y035010D01*
X065490Y035071D01*
X065480Y035132D01*
X065474Y035195D01*
X065472Y035257D01*
X065472Y027757D02*
X065474Y027819D01*
X065480Y027882D01*
X065490Y027943D01*
X065504Y028004D01*
X065521Y028064D01*
X065542Y028123D01*
X065568Y028180D01*
X065596Y028235D01*
X065628Y028289D01*
X065664Y028340D01*
X065702Y028390D01*
X065744Y028436D01*
X065788Y028480D01*
X065836Y028521D01*
X065885Y028559D01*
X065937Y028593D01*
X065991Y028624D01*
X066047Y028652D01*
X066105Y028676D01*
X066164Y028697D01*
X066224Y028713D01*
X066285Y028726D01*
X066347Y028735D01*
X066409Y028740D01*
X066472Y028741D01*
X066534Y028738D01*
X066596Y028731D01*
X066658Y028720D01*
X066718Y028705D01*
X066778Y028687D01*
X066836Y028665D01*
X066893Y028639D01*
X066948Y028609D01*
X067001Y028576D01*
X067052Y028540D01*
X067100Y028501D01*
X067146Y028458D01*
X067189Y028413D01*
X067229Y028365D01*
X067266Y028315D01*
X067300Y028262D01*
X067331Y028208D01*
X067357Y028152D01*
X067381Y028094D01*
X067400Y028034D01*
X067416Y027974D01*
X067428Y027912D01*
X067436Y027851D01*
X067440Y027788D01*
X067440Y027726D01*
X067436Y027663D01*
X067428Y027602D01*
X067416Y027540D01*
X067400Y027480D01*
X067381Y027420D01*
X067357Y027362D01*
X067331Y027306D01*
X067300Y027252D01*
X067266Y027199D01*
X067229Y027149D01*
X067189Y027101D01*
X067146Y027056D01*
X067100Y027013D01*
X067052Y026974D01*
X067001Y026938D01*
X066948Y026905D01*
X066893Y026875D01*
X066836Y026849D01*
X066778Y026827D01*
X066718Y026809D01*
X066658Y026794D01*
X066596Y026783D01*
X066534Y026776D01*
X066472Y026773D01*
X066409Y026774D01*
X066347Y026779D01*
X066285Y026788D01*
X066224Y026801D01*
X066164Y026817D01*
X066105Y026838D01*
X066047Y026862D01*
X065991Y026890D01*
X065937Y026921D01*
X065885Y026955D01*
X065836Y026993D01*
X065788Y027034D01*
X065744Y027078D01*
X065702Y027124D01*
X065664Y027174D01*
X065628Y027225D01*
X065596Y027279D01*
X065568Y027334D01*
X065542Y027391D01*
X065521Y027450D01*
X065504Y027510D01*
X065490Y027571D01*
X065480Y027632D01*
X065474Y027695D01*
X065472Y027757D01*
X065472Y020257D02*
X065474Y020319D01*
X065480Y020382D01*
X065490Y020443D01*
X065504Y020504D01*
X065521Y020564D01*
X065542Y020623D01*
X065568Y020680D01*
X065596Y020735D01*
X065628Y020789D01*
X065664Y020840D01*
X065702Y020890D01*
X065744Y020936D01*
X065788Y020980D01*
X065836Y021021D01*
X065885Y021059D01*
X065937Y021093D01*
X065991Y021124D01*
X066047Y021152D01*
X066105Y021176D01*
X066164Y021197D01*
X066224Y021213D01*
X066285Y021226D01*
X066347Y021235D01*
X066409Y021240D01*
X066472Y021241D01*
X066534Y021238D01*
X066596Y021231D01*
X066658Y021220D01*
X066718Y021205D01*
X066778Y021187D01*
X066836Y021165D01*
X066893Y021139D01*
X066948Y021109D01*
X067001Y021076D01*
X067052Y021040D01*
X067100Y021001D01*
X067146Y020958D01*
X067189Y020913D01*
X067229Y020865D01*
X067266Y020815D01*
X067300Y020762D01*
X067331Y020708D01*
X067357Y020652D01*
X067381Y020594D01*
X067400Y020534D01*
X067416Y020474D01*
X067428Y020412D01*
X067436Y020351D01*
X067440Y020288D01*
X067440Y020226D01*
X067436Y020163D01*
X067428Y020102D01*
X067416Y020040D01*
X067400Y019980D01*
X067381Y019920D01*
X067357Y019862D01*
X067331Y019806D01*
X067300Y019752D01*
X067266Y019699D01*
X067229Y019649D01*
X067189Y019601D01*
X067146Y019556D01*
X067100Y019513D01*
X067052Y019474D01*
X067001Y019438D01*
X066948Y019405D01*
X066893Y019375D01*
X066836Y019349D01*
X066778Y019327D01*
X066718Y019309D01*
X066658Y019294D01*
X066596Y019283D01*
X066534Y019276D01*
X066472Y019273D01*
X066409Y019274D01*
X066347Y019279D01*
X066285Y019288D01*
X066224Y019301D01*
X066164Y019317D01*
X066105Y019338D01*
X066047Y019362D01*
X065991Y019390D01*
X065937Y019421D01*
X065885Y019455D01*
X065836Y019493D01*
X065788Y019534D01*
X065744Y019578D01*
X065702Y019624D01*
X065664Y019674D01*
X065628Y019725D01*
X065596Y019779D01*
X065568Y019834D01*
X065542Y019891D01*
X065521Y019950D01*
X065504Y020010D01*
X065490Y020071D01*
X065480Y020132D01*
X065474Y020195D01*
X065472Y020257D01*
X065472Y013257D02*
X065474Y013319D01*
X065480Y013382D01*
X065490Y013443D01*
X065504Y013504D01*
X065521Y013564D01*
X065542Y013623D01*
X065568Y013680D01*
X065596Y013735D01*
X065628Y013789D01*
X065664Y013840D01*
X065702Y013890D01*
X065744Y013936D01*
X065788Y013980D01*
X065836Y014021D01*
X065885Y014059D01*
X065937Y014093D01*
X065991Y014124D01*
X066047Y014152D01*
X066105Y014176D01*
X066164Y014197D01*
X066224Y014213D01*
X066285Y014226D01*
X066347Y014235D01*
X066409Y014240D01*
X066472Y014241D01*
X066534Y014238D01*
X066596Y014231D01*
X066658Y014220D01*
X066718Y014205D01*
X066778Y014187D01*
X066836Y014165D01*
X066893Y014139D01*
X066948Y014109D01*
X067001Y014076D01*
X067052Y014040D01*
X067100Y014001D01*
X067146Y013958D01*
X067189Y013913D01*
X067229Y013865D01*
X067266Y013815D01*
X067300Y013762D01*
X067331Y013708D01*
X067357Y013652D01*
X067381Y013594D01*
X067400Y013534D01*
X067416Y013474D01*
X067428Y013412D01*
X067436Y013351D01*
X067440Y013288D01*
X067440Y013226D01*
X067436Y013163D01*
X067428Y013102D01*
X067416Y013040D01*
X067400Y012980D01*
X067381Y012920D01*
X067357Y012862D01*
X067331Y012806D01*
X067300Y012752D01*
X067266Y012699D01*
X067229Y012649D01*
X067189Y012601D01*
X067146Y012556D01*
X067100Y012513D01*
X067052Y012474D01*
X067001Y012438D01*
X066948Y012405D01*
X066893Y012375D01*
X066836Y012349D01*
X066778Y012327D01*
X066718Y012309D01*
X066658Y012294D01*
X066596Y012283D01*
X066534Y012276D01*
X066472Y012273D01*
X066409Y012274D01*
X066347Y012279D01*
X066285Y012288D01*
X066224Y012301D01*
X066164Y012317D01*
X066105Y012338D01*
X066047Y012362D01*
X065991Y012390D01*
X065937Y012421D01*
X065885Y012455D01*
X065836Y012493D01*
X065788Y012534D01*
X065744Y012578D01*
X065702Y012624D01*
X065664Y012674D01*
X065628Y012725D01*
X065596Y012779D01*
X065568Y012834D01*
X065542Y012891D01*
X065521Y012950D01*
X065504Y013010D01*
X065490Y013071D01*
X065480Y013132D01*
X065474Y013195D01*
X065472Y013257D01*
X073365Y012757D02*
X073367Y012805D01*
X073373Y012853D01*
X073383Y012900D01*
X073396Y012946D01*
X073414Y012991D01*
X073434Y013035D01*
X073459Y013077D01*
X073487Y013116D01*
X073517Y013153D01*
X073551Y013187D01*
X073588Y013219D01*
X073626Y013248D01*
X073667Y013273D01*
X073710Y013295D01*
X073755Y013313D01*
X073801Y013327D01*
X073848Y013338D01*
X073896Y013345D01*
X073944Y013348D01*
X073992Y013347D01*
X074040Y013342D01*
X074088Y013333D01*
X074134Y013321D01*
X074179Y013304D01*
X074223Y013284D01*
X074265Y013261D01*
X074305Y013234D01*
X074343Y013204D01*
X074378Y013171D01*
X074410Y013135D01*
X074440Y013097D01*
X074466Y013056D01*
X074488Y013013D01*
X074508Y012969D01*
X074523Y012924D01*
X074535Y012877D01*
X074543Y012829D01*
X074547Y012781D01*
X074547Y012733D01*
X074543Y012685D01*
X074535Y012637D01*
X074523Y012590D01*
X074508Y012545D01*
X074488Y012501D01*
X074466Y012458D01*
X074440Y012417D01*
X074410Y012379D01*
X074378Y012343D01*
X074343Y012310D01*
X074305Y012280D01*
X074265Y012253D01*
X074223Y012230D01*
X074179Y012210D01*
X074134Y012193D01*
X074088Y012181D01*
X074040Y012172D01*
X073992Y012167D01*
X073944Y012166D01*
X073896Y012169D01*
X073848Y012176D01*
X073801Y012187D01*
X073755Y012201D01*
X073710Y012219D01*
X073667Y012241D01*
X073626Y012266D01*
X073588Y012295D01*
X073551Y012327D01*
X073517Y012361D01*
X073487Y012398D01*
X073459Y012437D01*
X073434Y012479D01*
X073414Y012523D01*
X073396Y012568D01*
X073383Y012614D01*
X073373Y012661D01*
X073367Y012709D01*
X073365Y012757D01*
X073365Y020257D02*
X073367Y020305D01*
X073373Y020353D01*
X073383Y020400D01*
X073396Y020446D01*
X073414Y020491D01*
X073434Y020535D01*
X073459Y020577D01*
X073487Y020616D01*
X073517Y020653D01*
X073551Y020687D01*
X073588Y020719D01*
X073626Y020748D01*
X073667Y020773D01*
X073710Y020795D01*
X073755Y020813D01*
X073801Y020827D01*
X073848Y020838D01*
X073896Y020845D01*
X073944Y020848D01*
X073992Y020847D01*
X074040Y020842D01*
X074088Y020833D01*
X074134Y020821D01*
X074179Y020804D01*
X074223Y020784D01*
X074265Y020761D01*
X074305Y020734D01*
X074343Y020704D01*
X074378Y020671D01*
X074410Y020635D01*
X074440Y020597D01*
X074466Y020556D01*
X074488Y020513D01*
X074508Y020469D01*
X074523Y020424D01*
X074535Y020377D01*
X074543Y020329D01*
X074547Y020281D01*
X074547Y020233D01*
X074543Y020185D01*
X074535Y020137D01*
X074523Y020090D01*
X074508Y020045D01*
X074488Y020001D01*
X074466Y019958D01*
X074440Y019917D01*
X074410Y019879D01*
X074378Y019843D01*
X074343Y019810D01*
X074305Y019780D01*
X074265Y019753D01*
X074223Y019730D01*
X074179Y019710D01*
X074134Y019693D01*
X074088Y019681D01*
X074040Y019672D01*
X073992Y019667D01*
X073944Y019666D01*
X073896Y019669D01*
X073848Y019676D01*
X073801Y019687D01*
X073755Y019701D01*
X073710Y019719D01*
X073667Y019741D01*
X073626Y019766D01*
X073588Y019795D01*
X073551Y019827D01*
X073517Y019861D01*
X073487Y019898D01*
X073459Y019937D01*
X073434Y019979D01*
X073414Y020023D01*
X073396Y020068D01*
X073383Y020114D01*
X073373Y020161D01*
X073367Y020209D01*
X073365Y020257D01*
X073365Y027757D02*
X073367Y027805D01*
X073373Y027853D01*
X073383Y027900D01*
X073396Y027946D01*
X073414Y027991D01*
X073434Y028035D01*
X073459Y028077D01*
X073487Y028116D01*
X073517Y028153D01*
X073551Y028187D01*
X073588Y028219D01*
X073626Y028248D01*
X073667Y028273D01*
X073710Y028295D01*
X073755Y028313D01*
X073801Y028327D01*
X073848Y028338D01*
X073896Y028345D01*
X073944Y028348D01*
X073992Y028347D01*
X074040Y028342D01*
X074088Y028333D01*
X074134Y028321D01*
X074179Y028304D01*
X074223Y028284D01*
X074265Y028261D01*
X074305Y028234D01*
X074343Y028204D01*
X074378Y028171D01*
X074410Y028135D01*
X074440Y028097D01*
X074466Y028056D01*
X074488Y028013D01*
X074508Y027969D01*
X074523Y027924D01*
X074535Y027877D01*
X074543Y027829D01*
X074547Y027781D01*
X074547Y027733D01*
X074543Y027685D01*
X074535Y027637D01*
X074523Y027590D01*
X074508Y027545D01*
X074488Y027501D01*
X074466Y027458D01*
X074440Y027417D01*
X074410Y027379D01*
X074378Y027343D01*
X074343Y027310D01*
X074305Y027280D01*
X074265Y027253D01*
X074223Y027230D01*
X074179Y027210D01*
X074134Y027193D01*
X074088Y027181D01*
X074040Y027172D01*
X073992Y027167D01*
X073944Y027166D01*
X073896Y027169D01*
X073848Y027176D01*
X073801Y027187D01*
X073755Y027201D01*
X073710Y027219D01*
X073667Y027241D01*
X073626Y027266D01*
X073588Y027295D01*
X073551Y027327D01*
X073517Y027361D01*
X073487Y027398D01*
X073459Y027437D01*
X073434Y027479D01*
X073414Y027523D01*
X073396Y027568D01*
X073383Y027614D01*
X073373Y027661D01*
X073367Y027709D01*
X073365Y027757D01*
X073365Y035257D02*
X073367Y035305D01*
X073373Y035353D01*
X073383Y035400D01*
X073396Y035446D01*
X073414Y035491D01*
X073434Y035535D01*
X073459Y035577D01*
X073487Y035616D01*
X073517Y035653D01*
X073551Y035687D01*
X073588Y035719D01*
X073626Y035748D01*
X073667Y035773D01*
X073710Y035795D01*
X073755Y035813D01*
X073801Y035827D01*
X073848Y035838D01*
X073896Y035845D01*
X073944Y035848D01*
X073992Y035847D01*
X074040Y035842D01*
X074088Y035833D01*
X074134Y035821D01*
X074179Y035804D01*
X074223Y035784D01*
X074265Y035761D01*
X074305Y035734D01*
X074343Y035704D01*
X074378Y035671D01*
X074410Y035635D01*
X074440Y035597D01*
X074466Y035556D01*
X074488Y035513D01*
X074508Y035469D01*
X074523Y035424D01*
X074535Y035377D01*
X074543Y035329D01*
X074547Y035281D01*
X074547Y035233D01*
X074543Y035185D01*
X074535Y035137D01*
X074523Y035090D01*
X074508Y035045D01*
X074488Y035001D01*
X074466Y034958D01*
X074440Y034917D01*
X074410Y034879D01*
X074378Y034843D01*
X074343Y034810D01*
X074305Y034780D01*
X074265Y034753D01*
X074223Y034730D01*
X074179Y034710D01*
X074134Y034693D01*
X074088Y034681D01*
X074040Y034672D01*
X073992Y034667D01*
X073944Y034666D01*
X073896Y034669D01*
X073848Y034676D01*
X073801Y034687D01*
X073755Y034701D01*
X073710Y034719D01*
X073667Y034741D01*
X073626Y034766D01*
X073588Y034795D01*
X073551Y034827D01*
X073517Y034861D01*
X073487Y034898D01*
X073459Y034937D01*
X073434Y034979D01*
X073414Y035023D01*
X073396Y035068D01*
X073383Y035114D01*
X073373Y035161D01*
X073367Y035209D01*
X073365Y035257D01*
X073365Y042757D02*
X073367Y042805D01*
X073373Y042853D01*
X073383Y042900D01*
X073396Y042946D01*
X073414Y042991D01*
X073434Y043035D01*
X073459Y043077D01*
X073487Y043116D01*
X073517Y043153D01*
X073551Y043187D01*
X073588Y043219D01*
X073626Y043248D01*
X073667Y043273D01*
X073710Y043295D01*
X073755Y043313D01*
X073801Y043327D01*
X073848Y043338D01*
X073896Y043345D01*
X073944Y043348D01*
X073992Y043347D01*
X074040Y043342D01*
X074088Y043333D01*
X074134Y043321D01*
X074179Y043304D01*
X074223Y043284D01*
X074265Y043261D01*
X074305Y043234D01*
X074343Y043204D01*
X074378Y043171D01*
X074410Y043135D01*
X074440Y043097D01*
X074466Y043056D01*
X074488Y043013D01*
X074508Y042969D01*
X074523Y042924D01*
X074535Y042877D01*
X074543Y042829D01*
X074547Y042781D01*
X074547Y042733D01*
X074543Y042685D01*
X074535Y042637D01*
X074523Y042590D01*
X074508Y042545D01*
X074488Y042501D01*
X074466Y042458D01*
X074440Y042417D01*
X074410Y042379D01*
X074378Y042343D01*
X074343Y042310D01*
X074305Y042280D01*
X074265Y042253D01*
X074223Y042230D01*
X074179Y042210D01*
X074134Y042193D01*
X074088Y042181D01*
X074040Y042172D01*
X073992Y042167D01*
X073944Y042166D01*
X073896Y042169D01*
X073848Y042176D01*
X073801Y042187D01*
X073755Y042201D01*
X073710Y042219D01*
X073667Y042241D01*
X073626Y042266D01*
X073588Y042295D01*
X073551Y042327D01*
X073517Y042361D01*
X073487Y042398D01*
X073459Y042437D01*
X073434Y042479D01*
X073414Y042523D01*
X073396Y042568D01*
X073383Y042614D01*
X073373Y042661D01*
X073367Y042709D01*
X073365Y042757D01*
X072972Y045757D02*
X072974Y045819D01*
X072980Y045882D01*
X072990Y045943D01*
X073004Y046004D01*
X073021Y046064D01*
X073042Y046123D01*
X073068Y046180D01*
X073096Y046235D01*
X073128Y046289D01*
X073164Y046340D01*
X073202Y046390D01*
X073244Y046436D01*
X073288Y046480D01*
X073336Y046521D01*
X073385Y046559D01*
X073437Y046593D01*
X073491Y046624D01*
X073547Y046652D01*
X073605Y046676D01*
X073664Y046697D01*
X073724Y046713D01*
X073785Y046726D01*
X073847Y046735D01*
X073909Y046740D01*
X073972Y046741D01*
X074034Y046738D01*
X074096Y046731D01*
X074158Y046720D01*
X074218Y046705D01*
X074278Y046687D01*
X074336Y046665D01*
X074393Y046639D01*
X074448Y046609D01*
X074501Y046576D01*
X074552Y046540D01*
X074600Y046501D01*
X074646Y046458D01*
X074689Y046413D01*
X074729Y046365D01*
X074766Y046315D01*
X074800Y046262D01*
X074831Y046208D01*
X074857Y046152D01*
X074881Y046094D01*
X074900Y046034D01*
X074916Y045974D01*
X074928Y045912D01*
X074936Y045851D01*
X074940Y045788D01*
X074940Y045726D01*
X074936Y045663D01*
X074928Y045602D01*
X074916Y045540D01*
X074900Y045480D01*
X074881Y045420D01*
X074857Y045362D01*
X074831Y045306D01*
X074800Y045252D01*
X074766Y045199D01*
X074729Y045149D01*
X074689Y045101D01*
X074646Y045056D01*
X074600Y045013D01*
X074552Y044974D01*
X074501Y044938D01*
X074448Y044905D01*
X074393Y044875D01*
X074336Y044849D01*
X074278Y044827D01*
X074218Y044809D01*
X074158Y044794D01*
X074096Y044783D01*
X074034Y044776D01*
X073972Y044773D01*
X073909Y044774D01*
X073847Y044779D01*
X073785Y044788D01*
X073724Y044801D01*
X073664Y044817D01*
X073605Y044838D01*
X073547Y044862D01*
X073491Y044890D01*
X073437Y044921D01*
X073385Y044955D01*
X073336Y044993D01*
X073288Y045034D01*
X073244Y045078D01*
X073202Y045124D01*
X073164Y045174D01*
X073128Y045225D01*
X073096Y045279D01*
X073068Y045334D01*
X073042Y045391D01*
X073021Y045450D01*
X073004Y045510D01*
X072990Y045571D01*
X072980Y045632D01*
X072974Y045695D01*
X072972Y045757D01*
D12*
X073768Y053007D02*
X073768Y061544D01*
X074268Y061544D02*
X074268Y053007D01*
X075292Y060631D02*
X074268Y060757D01*
X075292Y060654D01*
X075292Y060631D02*
X075292Y060882D01*
X074268Y060757D01*
X075292Y060859D01*
X075292Y060808D02*
X074268Y060757D01*
X075292Y060706D01*
X074268Y060757D02*
X079130Y060757D01*
X073768Y060757D02*
X072745Y060654D01*
X072745Y060631D02*
X073768Y060757D01*
X072745Y060859D01*
X072745Y060882D02*
X072745Y060631D01*
X072745Y060706D02*
X073768Y060757D01*
X072745Y060808D01*
X072745Y060882D02*
X073768Y060757D01*
X071721Y060757D01*
D13*
X075347Y061205D02*
X076193Y061205D01*
X076616Y061205D02*
X076827Y061205D01*
X076827Y061417D01*
X076616Y061417D01*
X076616Y061205D01*
X077250Y061205D02*
X078096Y062051D01*
X078096Y062263D01*
X077885Y062475D01*
X077462Y062475D01*
X077250Y062263D01*
X077250Y061205D02*
X078096Y061205D01*
X078519Y061205D02*
X078519Y061417D01*
X079365Y062263D01*
X079365Y062475D01*
X078519Y062475D01*
X075770Y062475D02*
X075770Y061205D01*
X075347Y062051D02*
X075770Y062475D01*
D14*
X077509Y049507D02*
X077511Y049534D01*
X077517Y049561D01*
X077526Y049587D01*
X077539Y049611D01*
X077555Y049634D01*
X077574Y049653D01*
X077596Y049670D01*
X077620Y049684D01*
X077645Y049694D01*
X077672Y049701D01*
X077699Y049704D01*
X077727Y049703D01*
X077754Y049698D01*
X077780Y049690D01*
X077804Y049678D01*
X077827Y049662D01*
X077848Y049644D01*
X077865Y049623D01*
X077880Y049599D01*
X077891Y049574D01*
X077899Y049548D01*
X077903Y049521D01*
X077903Y049493D01*
X077899Y049466D01*
X077891Y049440D01*
X077880Y049415D01*
X077865Y049391D01*
X077848Y049370D01*
X077827Y049352D01*
X077805Y049336D01*
X077780Y049324D01*
X077754Y049316D01*
X077727Y049311D01*
X077699Y049310D01*
X077672Y049313D01*
X077645Y049320D01*
X077620Y049330D01*
X077596Y049344D01*
X077574Y049361D01*
X077555Y049380D01*
X077539Y049403D01*
X077526Y049427D01*
X077517Y049453D01*
X077511Y049480D01*
X077509Y049507D01*
X070009Y049507D02*
X070011Y049534D01*
X070017Y049561D01*
X070026Y049587D01*
X070039Y049611D01*
X070055Y049634D01*
X070074Y049653D01*
X070096Y049670D01*
X070120Y049684D01*
X070145Y049694D01*
X070172Y049701D01*
X070199Y049704D01*
X070227Y049703D01*
X070254Y049698D01*
X070280Y049690D01*
X070304Y049678D01*
X070327Y049662D01*
X070348Y049644D01*
X070365Y049623D01*
X070380Y049599D01*
X070391Y049574D01*
X070399Y049548D01*
X070403Y049521D01*
X070403Y049493D01*
X070399Y049466D01*
X070391Y049440D01*
X070380Y049415D01*
X070365Y049391D01*
X070348Y049370D01*
X070327Y049352D01*
X070305Y049336D01*
X070280Y049324D01*
X070254Y049316D01*
X070227Y049311D01*
X070199Y049310D01*
X070172Y049313D01*
X070145Y049320D01*
X070120Y049330D01*
X070096Y049344D01*
X070074Y049361D01*
X070055Y049380D01*
X070039Y049403D01*
X070026Y049427D01*
X070017Y049453D01*
X070011Y049480D01*
X070009Y049507D01*
X070009Y039007D02*
X070011Y039034D01*
X070017Y039061D01*
X070026Y039087D01*
X070039Y039111D01*
X070055Y039134D01*
X070074Y039153D01*
X070096Y039170D01*
X070120Y039184D01*
X070145Y039194D01*
X070172Y039201D01*
X070199Y039204D01*
X070227Y039203D01*
X070254Y039198D01*
X070280Y039190D01*
X070304Y039178D01*
X070327Y039162D01*
X070348Y039144D01*
X070365Y039123D01*
X070380Y039099D01*
X070391Y039074D01*
X070399Y039048D01*
X070403Y039021D01*
X070403Y038993D01*
X070399Y038966D01*
X070391Y038940D01*
X070380Y038915D01*
X070365Y038891D01*
X070348Y038870D01*
X070327Y038852D01*
X070305Y038836D01*
X070280Y038824D01*
X070254Y038816D01*
X070227Y038811D01*
X070199Y038810D01*
X070172Y038813D01*
X070145Y038820D01*
X070120Y038830D01*
X070096Y038844D01*
X070074Y038861D01*
X070055Y038880D01*
X070039Y038903D01*
X070026Y038927D01*
X070017Y038953D01*
X070011Y038980D01*
X070009Y039007D01*
X070009Y031507D02*
X070011Y031534D01*
X070017Y031561D01*
X070026Y031587D01*
X070039Y031611D01*
X070055Y031634D01*
X070074Y031653D01*
X070096Y031670D01*
X070120Y031684D01*
X070145Y031694D01*
X070172Y031701D01*
X070199Y031704D01*
X070227Y031703D01*
X070254Y031698D01*
X070280Y031690D01*
X070304Y031678D01*
X070327Y031662D01*
X070348Y031644D01*
X070365Y031623D01*
X070380Y031599D01*
X070391Y031574D01*
X070399Y031548D01*
X070403Y031521D01*
X070403Y031493D01*
X070399Y031466D01*
X070391Y031440D01*
X070380Y031415D01*
X070365Y031391D01*
X070348Y031370D01*
X070327Y031352D01*
X070305Y031336D01*
X070280Y031324D01*
X070254Y031316D01*
X070227Y031311D01*
X070199Y031310D01*
X070172Y031313D01*
X070145Y031320D01*
X070120Y031330D01*
X070096Y031344D01*
X070074Y031361D01*
X070055Y031380D01*
X070039Y031403D01*
X070026Y031427D01*
X070017Y031453D01*
X070011Y031480D01*
X070009Y031507D01*
X070009Y024007D02*
X070011Y024034D01*
X070017Y024061D01*
X070026Y024087D01*
X070039Y024111D01*
X070055Y024134D01*
X070074Y024153D01*
X070096Y024170D01*
X070120Y024184D01*
X070145Y024194D01*
X070172Y024201D01*
X070199Y024204D01*
X070227Y024203D01*
X070254Y024198D01*
X070280Y024190D01*
X070304Y024178D01*
X070327Y024162D01*
X070348Y024144D01*
X070365Y024123D01*
X070380Y024099D01*
X070391Y024074D01*
X070399Y024048D01*
X070403Y024021D01*
X070403Y023993D01*
X070399Y023966D01*
X070391Y023940D01*
X070380Y023915D01*
X070365Y023891D01*
X070348Y023870D01*
X070327Y023852D01*
X070305Y023836D01*
X070280Y023824D01*
X070254Y023816D01*
X070227Y023811D01*
X070199Y023810D01*
X070172Y023813D01*
X070145Y023820D01*
X070120Y023830D01*
X070096Y023844D01*
X070074Y023861D01*
X070055Y023880D01*
X070039Y023903D01*
X070026Y023927D01*
X070017Y023953D01*
X070011Y023980D01*
X070009Y024007D01*
X070009Y016507D02*
X070011Y016534D01*
X070017Y016561D01*
X070026Y016587D01*
X070039Y016611D01*
X070055Y016634D01*
X070074Y016653D01*
X070096Y016670D01*
X070120Y016684D01*
X070145Y016694D01*
X070172Y016701D01*
X070199Y016704D01*
X070227Y016703D01*
X070254Y016698D01*
X070280Y016690D01*
X070304Y016678D01*
X070327Y016662D01*
X070348Y016644D01*
X070365Y016623D01*
X070380Y016599D01*
X070391Y016574D01*
X070399Y016548D01*
X070403Y016521D01*
X070403Y016493D01*
X070399Y016466D01*
X070391Y016440D01*
X070380Y016415D01*
X070365Y016391D01*
X070348Y016370D01*
X070327Y016352D01*
X070305Y016336D01*
X070280Y016324D01*
X070254Y016316D01*
X070227Y016311D01*
X070199Y016310D01*
X070172Y016313D01*
X070145Y016320D01*
X070120Y016330D01*
X070096Y016344D01*
X070074Y016361D01*
X070055Y016380D01*
X070039Y016403D01*
X070026Y016427D01*
X070017Y016453D01*
X070011Y016480D01*
X070009Y016507D01*
X068759Y009007D02*
X068761Y009034D01*
X068767Y009061D01*
X068776Y009087D01*
X068789Y009111D01*
X068805Y009134D01*
X068824Y009153D01*
X068846Y009170D01*
X068870Y009184D01*
X068895Y009194D01*
X068922Y009201D01*
X068949Y009204D01*
X068977Y009203D01*
X069004Y009198D01*
X069030Y009190D01*
X069054Y009178D01*
X069077Y009162D01*
X069098Y009144D01*
X069115Y009123D01*
X069130Y009099D01*
X069141Y009074D01*
X069149Y009048D01*
X069153Y009021D01*
X069153Y008993D01*
X069149Y008966D01*
X069141Y008940D01*
X069130Y008915D01*
X069115Y008891D01*
X069098Y008870D01*
X069077Y008852D01*
X069055Y008836D01*
X069030Y008824D01*
X069004Y008816D01*
X068977Y008811D01*
X068949Y008810D01*
X068922Y008813D01*
X068895Y008820D01*
X068870Y008830D01*
X068846Y008844D01*
X068824Y008861D01*
X068805Y008880D01*
X068789Y008903D01*
X068776Y008927D01*
X068767Y008953D01*
X068761Y008980D01*
X068759Y009007D01*
X062509Y016507D02*
X062511Y016534D01*
X062517Y016561D01*
X062526Y016587D01*
X062539Y016611D01*
X062555Y016634D01*
X062574Y016653D01*
X062596Y016670D01*
X062620Y016684D01*
X062645Y016694D01*
X062672Y016701D01*
X062699Y016704D01*
X062727Y016703D01*
X062754Y016698D01*
X062780Y016690D01*
X062804Y016678D01*
X062827Y016662D01*
X062848Y016644D01*
X062865Y016623D01*
X062880Y016599D01*
X062891Y016574D01*
X062899Y016548D01*
X062903Y016521D01*
X062903Y016493D01*
X062899Y016466D01*
X062891Y016440D01*
X062880Y016415D01*
X062865Y016391D01*
X062848Y016370D01*
X062827Y016352D01*
X062805Y016336D01*
X062780Y016324D01*
X062754Y016316D01*
X062727Y016311D01*
X062699Y016310D01*
X062672Y016313D01*
X062645Y016320D01*
X062620Y016330D01*
X062596Y016344D01*
X062574Y016361D01*
X062555Y016380D01*
X062539Y016403D01*
X062526Y016427D01*
X062517Y016453D01*
X062511Y016480D01*
X062509Y016507D01*
X062509Y024007D02*
X062511Y024034D01*
X062517Y024061D01*
X062526Y024087D01*
X062539Y024111D01*
X062555Y024134D01*
X062574Y024153D01*
X062596Y024170D01*
X062620Y024184D01*
X062645Y024194D01*
X062672Y024201D01*
X062699Y024204D01*
X062727Y024203D01*
X062754Y024198D01*
X062780Y024190D01*
X062804Y024178D01*
X062827Y024162D01*
X062848Y024144D01*
X062865Y024123D01*
X062880Y024099D01*
X062891Y024074D01*
X062899Y024048D01*
X062903Y024021D01*
X062903Y023993D01*
X062899Y023966D01*
X062891Y023940D01*
X062880Y023915D01*
X062865Y023891D01*
X062848Y023870D01*
X062827Y023852D01*
X062805Y023836D01*
X062780Y023824D01*
X062754Y023816D01*
X062727Y023811D01*
X062699Y023810D01*
X062672Y023813D01*
X062645Y023820D01*
X062620Y023830D01*
X062596Y023844D01*
X062574Y023861D01*
X062555Y023880D01*
X062539Y023903D01*
X062526Y023927D01*
X062517Y023953D01*
X062511Y023980D01*
X062509Y024007D01*
X055009Y024007D02*
X055011Y024034D01*
X055017Y024061D01*
X055026Y024087D01*
X055039Y024111D01*
X055055Y024134D01*
X055074Y024153D01*
X055096Y024170D01*
X055120Y024184D01*
X055145Y024194D01*
X055172Y024201D01*
X055199Y024204D01*
X055227Y024203D01*
X055254Y024198D01*
X055280Y024190D01*
X055304Y024178D01*
X055327Y024162D01*
X055348Y024144D01*
X055365Y024123D01*
X055380Y024099D01*
X055391Y024074D01*
X055399Y024048D01*
X055403Y024021D01*
X055403Y023993D01*
X055399Y023966D01*
X055391Y023940D01*
X055380Y023915D01*
X055365Y023891D01*
X055348Y023870D01*
X055327Y023852D01*
X055305Y023836D01*
X055280Y023824D01*
X055254Y023816D01*
X055227Y023811D01*
X055199Y023810D01*
X055172Y023813D01*
X055145Y023820D01*
X055120Y023830D01*
X055096Y023844D01*
X055074Y023861D01*
X055055Y023880D01*
X055039Y023903D01*
X055026Y023927D01*
X055017Y023953D01*
X055011Y023980D01*
X055009Y024007D01*
X055009Y016507D02*
X055011Y016534D01*
X055017Y016561D01*
X055026Y016587D01*
X055039Y016611D01*
X055055Y016634D01*
X055074Y016653D01*
X055096Y016670D01*
X055120Y016684D01*
X055145Y016694D01*
X055172Y016701D01*
X055199Y016704D01*
X055227Y016703D01*
X055254Y016698D01*
X055280Y016690D01*
X055304Y016678D01*
X055327Y016662D01*
X055348Y016644D01*
X055365Y016623D01*
X055380Y016599D01*
X055391Y016574D01*
X055399Y016548D01*
X055403Y016521D01*
X055403Y016493D01*
X055399Y016466D01*
X055391Y016440D01*
X055380Y016415D01*
X055365Y016391D01*
X055348Y016370D01*
X055327Y016352D01*
X055305Y016336D01*
X055280Y016324D01*
X055254Y016316D01*
X055227Y016311D01*
X055199Y016310D01*
X055172Y016313D01*
X055145Y016320D01*
X055120Y016330D01*
X055096Y016344D01*
X055074Y016361D01*
X055055Y016380D01*
X055039Y016403D01*
X055026Y016427D01*
X055017Y016453D01*
X055011Y016480D01*
X055009Y016507D01*
X053634Y009007D02*
X053636Y009034D01*
X053642Y009061D01*
X053651Y009087D01*
X053664Y009111D01*
X053680Y009134D01*
X053699Y009153D01*
X053721Y009170D01*
X053745Y009184D01*
X053770Y009194D01*
X053797Y009201D01*
X053824Y009204D01*
X053852Y009203D01*
X053879Y009198D01*
X053905Y009190D01*
X053929Y009178D01*
X053952Y009162D01*
X053973Y009144D01*
X053990Y009123D01*
X054005Y009099D01*
X054016Y009074D01*
X054024Y009048D01*
X054028Y009021D01*
X054028Y008993D01*
X054024Y008966D01*
X054016Y008940D01*
X054005Y008915D01*
X053990Y008891D01*
X053973Y008870D01*
X053952Y008852D01*
X053930Y008836D01*
X053905Y008824D01*
X053879Y008816D01*
X053852Y008811D01*
X053824Y008810D01*
X053797Y008813D01*
X053770Y008820D01*
X053745Y008830D01*
X053721Y008844D01*
X053699Y008861D01*
X053680Y008880D01*
X053664Y008903D01*
X053651Y008927D01*
X053642Y008953D01*
X053636Y008980D01*
X053634Y009007D01*
X047509Y016507D02*
X047511Y016534D01*
X047517Y016561D01*
X047526Y016587D01*
X047539Y016611D01*
X047555Y016634D01*
X047574Y016653D01*
X047596Y016670D01*
X047620Y016684D01*
X047645Y016694D01*
X047672Y016701D01*
X047699Y016704D01*
X047727Y016703D01*
X047754Y016698D01*
X047780Y016690D01*
X047804Y016678D01*
X047827Y016662D01*
X047848Y016644D01*
X047865Y016623D01*
X047880Y016599D01*
X047891Y016574D01*
X047899Y016548D01*
X047903Y016521D01*
X047903Y016493D01*
X047899Y016466D01*
X047891Y016440D01*
X047880Y016415D01*
X047865Y016391D01*
X047848Y016370D01*
X047827Y016352D01*
X047805Y016336D01*
X047780Y016324D01*
X047754Y016316D01*
X047727Y016311D01*
X047699Y016310D01*
X047672Y016313D01*
X047645Y016320D01*
X047620Y016330D01*
X047596Y016344D01*
X047574Y016361D01*
X047555Y016380D01*
X047539Y016403D01*
X047526Y016427D01*
X047517Y016453D01*
X047511Y016480D01*
X047509Y016507D01*
X047509Y024007D02*
X047511Y024034D01*
X047517Y024061D01*
X047526Y024087D01*
X047539Y024111D01*
X047555Y024134D01*
X047574Y024153D01*
X047596Y024170D01*
X047620Y024184D01*
X047645Y024194D01*
X047672Y024201D01*
X047699Y024204D01*
X047727Y024203D01*
X047754Y024198D01*
X047780Y024190D01*
X047804Y024178D01*
X047827Y024162D01*
X047848Y024144D01*
X047865Y024123D01*
X047880Y024099D01*
X047891Y024074D01*
X047899Y024048D01*
X047903Y024021D01*
X047903Y023993D01*
X047899Y023966D01*
X047891Y023940D01*
X047880Y023915D01*
X047865Y023891D01*
X047848Y023870D01*
X047827Y023852D01*
X047805Y023836D01*
X047780Y023824D01*
X047754Y023816D01*
X047727Y023811D01*
X047699Y023810D01*
X047672Y023813D01*
X047645Y023820D01*
X047620Y023830D01*
X047596Y023844D01*
X047574Y023861D01*
X047555Y023880D01*
X047539Y023903D01*
X047526Y023927D01*
X047517Y023953D01*
X047511Y023980D01*
X047509Y024007D01*
X047509Y031507D02*
X047511Y031534D01*
X047517Y031561D01*
X047526Y031587D01*
X047539Y031611D01*
X047555Y031634D01*
X047574Y031653D01*
X047596Y031670D01*
X047620Y031684D01*
X047645Y031694D01*
X047672Y031701D01*
X047699Y031704D01*
X047727Y031703D01*
X047754Y031698D01*
X047780Y031690D01*
X047804Y031678D01*
X047827Y031662D01*
X047848Y031644D01*
X047865Y031623D01*
X047880Y031599D01*
X047891Y031574D01*
X047899Y031548D01*
X047903Y031521D01*
X047903Y031493D01*
X047899Y031466D01*
X047891Y031440D01*
X047880Y031415D01*
X047865Y031391D01*
X047848Y031370D01*
X047827Y031352D01*
X047805Y031336D01*
X047780Y031324D01*
X047754Y031316D01*
X047727Y031311D01*
X047699Y031310D01*
X047672Y031313D01*
X047645Y031320D01*
X047620Y031330D01*
X047596Y031344D01*
X047574Y031361D01*
X047555Y031380D01*
X047539Y031403D01*
X047526Y031427D01*
X047517Y031453D01*
X047511Y031480D01*
X047509Y031507D01*
X047509Y039007D02*
X047511Y039034D01*
X047517Y039061D01*
X047526Y039087D01*
X047539Y039111D01*
X047555Y039134D01*
X047574Y039153D01*
X047596Y039170D01*
X047620Y039184D01*
X047645Y039194D01*
X047672Y039201D01*
X047699Y039204D01*
X047727Y039203D01*
X047754Y039198D01*
X047780Y039190D01*
X047804Y039178D01*
X047827Y039162D01*
X047848Y039144D01*
X047865Y039123D01*
X047880Y039099D01*
X047891Y039074D01*
X047899Y039048D01*
X047903Y039021D01*
X047903Y038993D01*
X047899Y038966D01*
X047891Y038940D01*
X047880Y038915D01*
X047865Y038891D01*
X047848Y038870D01*
X047827Y038852D01*
X047805Y038836D01*
X047780Y038824D01*
X047754Y038816D01*
X047727Y038811D01*
X047699Y038810D01*
X047672Y038813D01*
X047645Y038820D01*
X047620Y038830D01*
X047596Y038844D01*
X047574Y038861D01*
X047555Y038880D01*
X047539Y038903D01*
X047526Y038927D01*
X047517Y038953D01*
X047511Y038980D01*
X047509Y039007D01*
X040009Y039007D02*
X040011Y039034D01*
X040017Y039061D01*
X040026Y039087D01*
X040039Y039111D01*
X040055Y039134D01*
X040074Y039153D01*
X040096Y039170D01*
X040120Y039184D01*
X040145Y039194D01*
X040172Y039201D01*
X040199Y039204D01*
X040227Y039203D01*
X040254Y039198D01*
X040280Y039190D01*
X040304Y039178D01*
X040327Y039162D01*
X040348Y039144D01*
X040365Y039123D01*
X040380Y039099D01*
X040391Y039074D01*
X040399Y039048D01*
X040403Y039021D01*
X040403Y038993D01*
X040399Y038966D01*
X040391Y038940D01*
X040380Y038915D01*
X040365Y038891D01*
X040348Y038870D01*
X040327Y038852D01*
X040305Y038836D01*
X040280Y038824D01*
X040254Y038816D01*
X040227Y038811D01*
X040199Y038810D01*
X040172Y038813D01*
X040145Y038820D01*
X040120Y038830D01*
X040096Y038844D01*
X040074Y038861D01*
X040055Y038880D01*
X040039Y038903D01*
X040026Y038927D01*
X040017Y038953D01*
X040011Y038980D01*
X040009Y039007D01*
X038009Y031507D02*
X038011Y031534D01*
X038017Y031561D01*
X038026Y031587D01*
X038039Y031611D01*
X038055Y031634D01*
X038074Y031653D01*
X038096Y031670D01*
X038120Y031684D01*
X038145Y031694D01*
X038172Y031701D01*
X038199Y031704D01*
X038227Y031703D01*
X038254Y031698D01*
X038280Y031690D01*
X038304Y031678D01*
X038327Y031662D01*
X038348Y031644D01*
X038365Y031623D01*
X038380Y031599D01*
X038391Y031574D01*
X038399Y031548D01*
X038403Y031521D01*
X038403Y031493D01*
X038399Y031466D01*
X038391Y031440D01*
X038380Y031415D01*
X038365Y031391D01*
X038348Y031370D01*
X038327Y031352D01*
X038305Y031336D01*
X038280Y031324D01*
X038254Y031316D01*
X038227Y031311D01*
X038199Y031310D01*
X038172Y031313D01*
X038145Y031320D01*
X038120Y031330D01*
X038096Y031344D01*
X038074Y031361D01*
X038055Y031380D01*
X038039Y031403D01*
X038026Y031427D01*
X038017Y031453D01*
X038011Y031480D01*
X038009Y031507D01*
X037009Y024007D02*
X037011Y024034D01*
X037017Y024061D01*
X037026Y024087D01*
X037039Y024111D01*
X037055Y024134D01*
X037074Y024153D01*
X037096Y024170D01*
X037120Y024184D01*
X037145Y024194D01*
X037172Y024201D01*
X037199Y024204D01*
X037227Y024203D01*
X037254Y024198D01*
X037280Y024190D01*
X037304Y024178D01*
X037327Y024162D01*
X037348Y024144D01*
X037365Y024123D01*
X037380Y024099D01*
X037391Y024074D01*
X037399Y024048D01*
X037403Y024021D01*
X037403Y023993D01*
X037399Y023966D01*
X037391Y023940D01*
X037380Y023915D01*
X037365Y023891D01*
X037348Y023870D01*
X037327Y023852D01*
X037305Y023836D01*
X037280Y023824D01*
X037254Y023816D01*
X037227Y023811D01*
X037199Y023810D01*
X037172Y023813D01*
X037145Y023820D01*
X037120Y023830D01*
X037096Y023844D01*
X037074Y023861D01*
X037055Y023880D01*
X037039Y023903D01*
X037026Y023927D01*
X037017Y023953D01*
X037011Y023980D01*
X037009Y024007D01*
X036259Y016507D02*
X036261Y016534D01*
X036267Y016561D01*
X036276Y016587D01*
X036289Y016611D01*
X036305Y016634D01*
X036324Y016653D01*
X036346Y016670D01*
X036370Y016684D01*
X036395Y016694D01*
X036422Y016701D01*
X036449Y016704D01*
X036477Y016703D01*
X036504Y016698D01*
X036530Y016690D01*
X036554Y016678D01*
X036577Y016662D01*
X036598Y016644D01*
X036615Y016623D01*
X036630Y016599D01*
X036641Y016574D01*
X036649Y016548D01*
X036653Y016521D01*
X036653Y016493D01*
X036649Y016466D01*
X036641Y016440D01*
X036630Y016415D01*
X036615Y016391D01*
X036598Y016370D01*
X036577Y016352D01*
X036555Y016336D01*
X036530Y016324D01*
X036504Y016316D01*
X036477Y016311D01*
X036449Y016310D01*
X036422Y016313D01*
X036395Y016320D01*
X036370Y016330D01*
X036346Y016344D01*
X036324Y016361D01*
X036305Y016380D01*
X036289Y016403D01*
X036276Y016427D01*
X036267Y016453D01*
X036261Y016480D01*
X036259Y016507D01*
X037634Y009007D02*
X037636Y009034D01*
X037642Y009061D01*
X037651Y009087D01*
X037664Y009111D01*
X037680Y009134D01*
X037699Y009153D01*
X037721Y009170D01*
X037745Y009184D01*
X037770Y009194D01*
X037797Y009201D01*
X037824Y009204D01*
X037852Y009203D01*
X037879Y009198D01*
X037905Y009190D01*
X037929Y009178D01*
X037952Y009162D01*
X037973Y009144D01*
X037990Y009123D01*
X038005Y009099D01*
X038016Y009074D01*
X038024Y009048D01*
X038028Y009021D01*
X038028Y008993D01*
X038024Y008966D01*
X038016Y008940D01*
X038005Y008915D01*
X037990Y008891D01*
X037973Y008870D01*
X037952Y008852D01*
X037930Y008836D01*
X037905Y008824D01*
X037879Y008816D01*
X037852Y008811D01*
X037824Y008810D01*
X037797Y008813D01*
X037770Y008820D01*
X037745Y008830D01*
X037721Y008844D01*
X037699Y008861D01*
X037680Y008880D01*
X037664Y008903D01*
X037651Y008927D01*
X037642Y008953D01*
X037636Y008980D01*
X037634Y009007D01*
X030009Y009007D02*
X030011Y009034D01*
X030017Y009061D01*
X030026Y009087D01*
X030039Y009111D01*
X030055Y009134D01*
X030074Y009153D01*
X030096Y009170D01*
X030120Y009184D01*
X030145Y009194D01*
X030172Y009201D01*
X030199Y009204D01*
X030227Y009203D01*
X030254Y009198D01*
X030280Y009190D01*
X030304Y009178D01*
X030327Y009162D01*
X030348Y009144D01*
X030365Y009123D01*
X030380Y009099D01*
X030391Y009074D01*
X030399Y009048D01*
X030403Y009021D01*
X030403Y008993D01*
X030399Y008966D01*
X030391Y008940D01*
X030380Y008915D01*
X030365Y008891D01*
X030348Y008870D01*
X030327Y008852D01*
X030305Y008836D01*
X030280Y008824D01*
X030254Y008816D01*
X030227Y008811D01*
X030199Y008810D01*
X030172Y008813D01*
X030145Y008820D01*
X030120Y008830D01*
X030096Y008844D01*
X030074Y008861D01*
X030055Y008880D01*
X030039Y008903D01*
X030026Y008927D01*
X030017Y008953D01*
X030011Y008980D01*
X030009Y009007D01*
X022509Y009007D02*
X022511Y009034D01*
X022517Y009061D01*
X022526Y009087D01*
X022539Y009111D01*
X022555Y009134D01*
X022574Y009153D01*
X022596Y009170D01*
X022620Y009184D01*
X022645Y009194D01*
X022672Y009201D01*
X022699Y009204D01*
X022727Y009203D01*
X022754Y009198D01*
X022780Y009190D01*
X022804Y009178D01*
X022827Y009162D01*
X022848Y009144D01*
X022865Y009123D01*
X022880Y009099D01*
X022891Y009074D01*
X022899Y009048D01*
X022903Y009021D01*
X022903Y008993D01*
X022899Y008966D01*
X022891Y008940D01*
X022880Y008915D01*
X022865Y008891D01*
X022848Y008870D01*
X022827Y008852D01*
X022805Y008836D01*
X022780Y008824D01*
X022754Y008816D01*
X022727Y008811D01*
X022699Y008810D01*
X022672Y008813D01*
X022645Y008820D01*
X022620Y008830D01*
X022596Y008844D01*
X022574Y008861D01*
X022555Y008880D01*
X022539Y008903D01*
X022526Y008927D01*
X022517Y008953D01*
X022511Y008980D01*
X022509Y009007D01*
X018509Y014257D02*
X018511Y014284D01*
X018517Y014311D01*
X018526Y014337D01*
X018539Y014361D01*
X018555Y014384D01*
X018574Y014403D01*
X018596Y014420D01*
X018620Y014434D01*
X018645Y014444D01*
X018672Y014451D01*
X018699Y014454D01*
X018727Y014453D01*
X018754Y014448D01*
X018780Y014440D01*
X018804Y014428D01*
X018827Y014412D01*
X018848Y014394D01*
X018865Y014373D01*
X018880Y014349D01*
X018891Y014324D01*
X018899Y014298D01*
X018903Y014271D01*
X018903Y014243D01*
X018899Y014216D01*
X018891Y014190D01*
X018880Y014165D01*
X018865Y014141D01*
X018848Y014120D01*
X018827Y014102D01*
X018805Y014086D01*
X018780Y014074D01*
X018754Y014066D01*
X018727Y014061D01*
X018699Y014060D01*
X018672Y014063D01*
X018645Y014070D01*
X018620Y014080D01*
X018596Y014094D01*
X018574Y014111D01*
X018555Y014130D01*
X018539Y014153D01*
X018526Y014177D01*
X018517Y014203D01*
X018511Y014230D01*
X018509Y014257D01*
X018884Y016257D02*
X018886Y016284D01*
X018892Y016311D01*
X018901Y016337D01*
X018914Y016361D01*
X018930Y016384D01*
X018949Y016403D01*
X018971Y016420D01*
X018995Y016434D01*
X019020Y016444D01*
X019047Y016451D01*
X019074Y016454D01*
X019102Y016453D01*
X019129Y016448D01*
X019155Y016440D01*
X019179Y016428D01*
X019202Y016412D01*
X019223Y016394D01*
X019240Y016373D01*
X019255Y016349D01*
X019266Y016324D01*
X019274Y016298D01*
X019278Y016271D01*
X019278Y016243D01*
X019274Y016216D01*
X019266Y016190D01*
X019255Y016165D01*
X019240Y016141D01*
X019223Y016120D01*
X019202Y016102D01*
X019180Y016086D01*
X019155Y016074D01*
X019129Y016066D01*
X019102Y016061D01*
X019074Y016060D01*
X019047Y016063D01*
X019020Y016070D01*
X018995Y016080D01*
X018971Y016094D01*
X018949Y016111D01*
X018930Y016130D01*
X018914Y016153D01*
X018901Y016177D01*
X018892Y016203D01*
X018886Y016230D01*
X018884Y016257D01*
X018634Y018257D02*
X018636Y018284D01*
X018642Y018311D01*
X018651Y018337D01*
X018664Y018361D01*
X018680Y018384D01*
X018699Y018403D01*
X018721Y018420D01*
X018745Y018434D01*
X018770Y018444D01*
X018797Y018451D01*
X018824Y018454D01*
X018852Y018453D01*
X018879Y018448D01*
X018905Y018440D01*
X018929Y018428D01*
X018952Y018412D01*
X018973Y018394D01*
X018990Y018373D01*
X019005Y018349D01*
X019016Y018324D01*
X019024Y018298D01*
X019028Y018271D01*
X019028Y018243D01*
X019024Y018216D01*
X019016Y018190D01*
X019005Y018165D01*
X018990Y018141D01*
X018973Y018120D01*
X018952Y018102D01*
X018930Y018086D01*
X018905Y018074D01*
X018879Y018066D01*
X018852Y018061D01*
X018824Y018060D01*
X018797Y018063D01*
X018770Y018070D01*
X018745Y018080D01*
X018721Y018094D01*
X018699Y018111D01*
X018680Y018130D01*
X018664Y018153D01*
X018651Y018177D01*
X018642Y018203D01*
X018636Y018230D01*
X018634Y018257D01*
X022509Y016507D02*
X022511Y016534D01*
X022517Y016561D01*
X022526Y016587D01*
X022539Y016611D01*
X022555Y016634D01*
X022574Y016653D01*
X022596Y016670D01*
X022620Y016684D01*
X022645Y016694D01*
X022672Y016701D01*
X022699Y016704D01*
X022727Y016703D01*
X022754Y016698D01*
X022780Y016690D01*
X022804Y016678D01*
X022827Y016662D01*
X022848Y016644D01*
X022865Y016623D01*
X022880Y016599D01*
X022891Y016574D01*
X022899Y016548D01*
X022903Y016521D01*
X022903Y016493D01*
X022899Y016466D01*
X022891Y016440D01*
X022880Y016415D01*
X022865Y016391D01*
X022848Y016370D01*
X022827Y016352D01*
X022805Y016336D01*
X022780Y016324D01*
X022754Y016316D01*
X022727Y016311D01*
X022699Y016310D01*
X022672Y016313D01*
X022645Y016320D01*
X022620Y016330D01*
X022596Y016344D01*
X022574Y016361D01*
X022555Y016380D01*
X022539Y016403D01*
X022526Y016427D01*
X022517Y016453D01*
X022511Y016480D01*
X022509Y016507D01*
X015009Y009007D02*
X015011Y009034D01*
X015017Y009061D01*
X015026Y009087D01*
X015039Y009111D01*
X015055Y009134D01*
X015074Y009153D01*
X015096Y009170D01*
X015120Y009184D01*
X015145Y009194D01*
X015172Y009201D01*
X015199Y009204D01*
X015227Y009203D01*
X015254Y009198D01*
X015280Y009190D01*
X015304Y009178D01*
X015327Y009162D01*
X015348Y009144D01*
X015365Y009123D01*
X015380Y009099D01*
X015391Y009074D01*
X015399Y009048D01*
X015403Y009021D01*
X015403Y008993D01*
X015399Y008966D01*
X015391Y008940D01*
X015380Y008915D01*
X015365Y008891D01*
X015348Y008870D01*
X015327Y008852D01*
X015305Y008836D01*
X015280Y008824D01*
X015254Y008816D01*
X015227Y008811D01*
X015199Y008810D01*
X015172Y008813D01*
X015145Y008820D01*
X015120Y008830D01*
X015096Y008844D01*
X015074Y008861D01*
X015055Y008880D01*
X015039Y008903D01*
X015026Y008927D01*
X015017Y008953D01*
X015011Y008980D01*
X015009Y009007D01*
X013634Y015257D02*
X013636Y015284D01*
X013642Y015311D01*
X013651Y015337D01*
X013664Y015361D01*
X013680Y015384D01*
X013699Y015403D01*
X013721Y015420D01*
X013745Y015434D01*
X013770Y015444D01*
X013797Y015451D01*
X013824Y015454D01*
X013852Y015453D01*
X013879Y015448D01*
X013905Y015440D01*
X013929Y015428D01*
X013952Y015412D01*
X013973Y015394D01*
X013990Y015373D01*
X014005Y015349D01*
X014016Y015324D01*
X014024Y015298D01*
X014028Y015271D01*
X014028Y015243D01*
X014024Y015216D01*
X014016Y015190D01*
X014005Y015165D01*
X013990Y015141D01*
X013973Y015120D01*
X013952Y015102D01*
X013930Y015086D01*
X013905Y015074D01*
X013879Y015066D01*
X013852Y015061D01*
X013824Y015060D01*
X013797Y015063D01*
X013770Y015070D01*
X013745Y015080D01*
X013721Y015094D01*
X013699Y015111D01*
X013680Y015130D01*
X013664Y015153D01*
X013651Y015177D01*
X013642Y015203D01*
X013636Y015230D01*
X013634Y015257D01*
X013509Y017257D02*
X013511Y017284D01*
X013517Y017311D01*
X013526Y017337D01*
X013539Y017361D01*
X013555Y017384D01*
X013574Y017403D01*
X013596Y017420D01*
X013620Y017434D01*
X013645Y017444D01*
X013672Y017451D01*
X013699Y017454D01*
X013727Y017453D01*
X013754Y017448D01*
X013780Y017440D01*
X013804Y017428D01*
X013827Y017412D01*
X013848Y017394D01*
X013865Y017373D01*
X013880Y017349D01*
X013891Y017324D01*
X013899Y017298D01*
X013903Y017271D01*
X013903Y017243D01*
X013899Y017216D01*
X013891Y017190D01*
X013880Y017165D01*
X013865Y017141D01*
X013848Y017120D01*
X013827Y017102D01*
X013805Y017086D01*
X013780Y017074D01*
X013754Y017066D01*
X013727Y017061D01*
X013699Y017060D01*
X013672Y017063D01*
X013645Y017070D01*
X013620Y017080D01*
X013596Y017094D01*
X013574Y017111D01*
X013555Y017130D01*
X013539Y017153D01*
X013526Y017177D01*
X013517Y017203D01*
X013511Y017230D01*
X013509Y017257D01*
X013634Y019257D02*
X013636Y019284D01*
X013642Y019311D01*
X013651Y019337D01*
X013664Y019361D01*
X013680Y019384D01*
X013699Y019403D01*
X013721Y019420D01*
X013745Y019434D01*
X013770Y019444D01*
X013797Y019451D01*
X013824Y019454D01*
X013852Y019453D01*
X013879Y019448D01*
X013905Y019440D01*
X013929Y019428D01*
X013952Y019412D01*
X013973Y019394D01*
X013990Y019373D01*
X014005Y019349D01*
X014016Y019324D01*
X014024Y019298D01*
X014028Y019271D01*
X014028Y019243D01*
X014024Y019216D01*
X014016Y019190D01*
X014005Y019165D01*
X013990Y019141D01*
X013973Y019120D01*
X013952Y019102D01*
X013930Y019086D01*
X013905Y019074D01*
X013879Y019066D01*
X013852Y019061D01*
X013824Y019060D01*
X013797Y019063D01*
X013770Y019070D01*
X013745Y019080D01*
X013721Y019094D01*
X013699Y019111D01*
X013680Y019130D01*
X013664Y019153D01*
X013651Y019177D01*
X013642Y019203D01*
X013636Y019230D01*
X013634Y019257D01*
X015009Y027007D02*
X015011Y027034D01*
X015017Y027061D01*
X015026Y027087D01*
X015039Y027111D01*
X015055Y027134D01*
X015074Y027153D01*
X015096Y027170D01*
X015120Y027184D01*
X015145Y027194D01*
X015172Y027201D01*
X015199Y027204D01*
X015227Y027203D01*
X015254Y027198D01*
X015280Y027190D01*
X015304Y027178D01*
X015327Y027162D01*
X015348Y027144D01*
X015365Y027123D01*
X015380Y027099D01*
X015391Y027074D01*
X015399Y027048D01*
X015403Y027021D01*
X015403Y026993D01*
X015399Y026966D01*
X015391Y026940D01*
X015380Y026915D01*
X015365Y026891D01*
X015348Y026870D01*
X015327Y026852D01*
X015305Y026836D01*
X015280Y026824D01*
X015254Y026816D01*
X015227Y026811D01*
X015199Y026810D01*
X015172Y026813D01*
X015145Y026820D01*
X015120Y026830D01*
X015096Y026844D01*
X015074Y026861D01*
X015055Y026880D01*
X015039Y026903D01*
X015026Y026927D01*
X015017Y026953D01*
X015011Y026980D01*
X015009Y027007D01*
X015009Y034507D02*
X015011Y034534D01*
X015017Y034561D01*
X015026Y034587D01*
X015039Y034611D01*
X015055Y034634D01*
X015074Y034653D01*
X015096Y034670D01*
X015120Y034684D01*
X015145Y034694D01*
X015172Y034701D01*
X015199Y034704D01*
X015227Y034703D01*
X015254Y034698D01*
X015280Y034690D01*
X015304Y034678D01*
X015327Y034662D01*
X015348Y034644D01*
X015365Y034623D01*
X015380Y034599D01*
X015391Y034574D01*
X015399Y034548D01*
X015403Y034521D01*
X015403Y034493D01*
X015399Y034466D01*
X015391Y034440D01*
X015380Y034415D01*
X015365Y034391D01*
X015348Y034370D01*
X015327Y034352D01*
X015305Y034336D01*
X015280Y034324D01*
X015254Y034316D01*
X015227Y034311D01*
X015199Y034310D01*
X015172Y034313D01*
X015145Y034320D01*
X015120Y034330D01*
X015096Y034344D01*
X015074Y034361D01*
X015055Y034380D01*
X015039Y034403D01*
X015026Y034427D01*
X015017Y034453D01*
X015011Y034480D01*
X015009Y034507D01*
X015009Y042007D02*
X015011Y042034D01*
X015017Y042061D01*
X015026Y042087D01*
X015039Y042111D01*
X015055Y042134D01*
X015074Y042153D01*
X015096Y042170D01*
X015120Y042184D01*
X015145Y042194D01*
X015172Y042201D01*
X015199Y042204D01*
X015227Y042203D01*
X015254Y042198D01*
X015280Y042190D01*
X015304Y042178D01*
X015327Y042162D01*
X015348Y042144D01*
X015365Y042123D01*
X015380Y042099D01*
X015391Y042074D01*
X015399Y042048D01*
X015403Y042021D01*
X015403Y041993D01*
X015399Y041966D01*
X015391Y041940D01*
X015380Y041915D01*
X015365Y041891D01*
X015348Y041870D01*
X015327Y041852D01*
X015305Y041836D01*
X015280Y041824D01*
X015254Y041816D01*
X015227Y041811D01*
X015199Y041810D01*
X015172Y041813D01*
X015145Y041820D01*
X015120Y041830D01*
X015096Y041844D01*
X015074Y041861D01*
X015055Y041880D01*
X015039Y041903D01*
X015026Y041927D01*
X015017Y041953D01*
X015011Y041980D01*
X015009Y042007D01*
X015009Y049507D02*
X015011Y049534D01*
X015017Y049561D01*
X015026Y049587D01*
X015039Y049611D01*
X015055Y049634D01*
X015074Y049653D01*
X015096Y049670D01*
X015120Y049684D01*
X015145Y049694D01*
X015172Y049701D01*
X015199Y049704D01*
X015227Y049703D01*
X015254Y049698D01*
X015280Y049690D01*
X015304Y049678D01*
X015327Y049662D01*
X015348Y049644D01*
X015365Y049623D01*
X015380Y049599D01*
X015391Y049574D01*
X015399Y049548D01*
X015403Y049521D01*
X015403Y049493D01*
X015399Y049466D01*
X015391Y049440D01*
X015380Y049415D01*
X015365Y049391D01*
X015348Y049370D01*
X015327Y049352D01*
X015305Y049336D01*
X015280Y049324D01*
X015254Y049316D01*
X015227Y049311D01*
X015199Y049310D01*
X015172Y049313D01*
X015145Y049320D01*
X015120Y049330D01*
X015096Y049344D01*
X015074Y049361D01*
X015055Y049380D01*
X015039Y049403D01*
X015026Y049427D01*
X015017Y049453D01*
X015011Y049480D01*
X015009Y049507D01*
X022509Y049507D02*
X022511Y049534D01*
X022517Y049561D01*
X022526Y049587D01*
X022539Y049611D01*
X022555Y049634D01*
X022574Y049653D01*
X022596Y049670D01*
X022620Y049684D01*
X022645Y049694D01*
X022672Y049701D01*
X022699Y049704D01*
X022727Y049703D01*
X022754Y049698D01*
X022780Y049690D01*
X022804Y049678D01*
X022827Y049662D01*
X022848Y049644D01*
X022865Y049623D01*
X022880Y049599D01*
X022891Y049574D01*
X022899Y049548D01*
X022903Y049521D01*
X022903Y049493D01*
X022899Y049466D01*
X022891Y049440D01*
X022880Y049415D01*
X022865Y049391D01*
X022848Y049370D01*
X022827Y049352D01*
X022805Y049336D01*
X022780Y049324D01*
X022754Y049316D01*
X022727Y049311D01*
X022699Y049310D01*
X022672Y049313D01*
X022645Y049320D01*
X022620Y049330D01*
X022596Y049344D01*
X022574Y049361D01*
X022555Y049380D01*
X022539Y049403D01*
X022526Y049427D01*
X022517Y049453D01*
X022511Y049480D01*
X022509Y049507D01*
X022509Y042007D02*
X022511Y042034D01*
X022517Y042061D01*
X022526Y042087D01*
X022539Y042111D01*
X022555Y042134D01*
X022574Y042153D01*
X022596Y042170D01*
X022620Y042184D01*
X022645Y042194D01*
X022672Y042201D01*
X022699Y042204D01*
X022727Y042203D01*
X022754Y042198D01*
X022780Y042190D01*
X022804Y042178D01*
X022827Y042162D01*
X022848Y042144D01*
X022865Y042123D01*
X022880Y042099D01*
X022891Y042074D01*
X022899Y042048D01*
X022903Y042021D01*
X022903Y041993D01*
X022899Y041966D01*
X022891Y041940D01*
X022880Y041915D01*
X022865Y041891D01*
X022848Y041870D01*
X022827Y041852D01*
X022805Y041836D01*
X022780Y041824D01*
X022754Y041816D01*
X022727Y041811D01*
X022699Y041810D01*
X022672Y041813D01*
X022645Y041820D01*
X022620Y041830D01*
X022596Y041844D01*
X022574Y041861D01*
X022555Y041880D01*
X022539Y041903D01*
X022526Y041927D01*
X022517Y041953D01*
X022511Y041980D01*
X022509Y042007D01*
X022509Y034507D02*
X022511Y034534D01*
X022517Y034561D01*
X022526Y034587D01*
X022539Y034611D01*
X022555Y034634D01*
X022574Y034653D01*
X022596Y034670D01*
X022620Y034684D01*
X022645Y034694D01*
X022672Y034701D01*
X022699Y034704D01*
X022727Y034703D01*
X022754Y034698D01*
X022780Y034690D01*
X022804Y034678D01*
X022827Y034662D01*
X022848Y034644D01*
X022865Y034623D01*
X022880Y034599D01*
X022891Y034574D01*
X022899Y034548D01*
X022903Y034521D01*
X022903Y034493D01*
X022899Y034466D01*
X022891Y034440D01*
X022880Y034415D01*
X022865Y034391D01*
X022848Y034370D01*
X022827Y034352D01*
X022805Y034336D01*
X022780Y034324D01*
X022754Y034316D01*
X022727Y034311D01*
X022699Y034310D01*
X022672Y034313D01*
X022645Y034320D01*
X022620Y034330D01*
X022596Y034344D01*
X022574Y034361D01*
X022555Y034380D01*
X022539Y034403D01*
X022526Y034427D01*
X022517Y034453D01*
X022511Y034480D01*
X022509Y034507D01*
X022509Y027007D02*
X022511Y027034D01*
X022517Y027061D01*
X022526Y027087D01*
X022539Y027111D01*
X022555Y027134D01*
X022574Y027153D01*
X022596Y027170D01*
X022620Y027184D01*
X022645Y027194D01*
X022672Y027201D01*
X022699Y027204D01*
X022727Y027203D01*
X022754Y027198D01*
X022780Y027190D01*
X022804Y027178D01*
X022827Y027162D01*
X022848Y027144D01*
X022865Y027123D01*
X022880Y027099D01*
X022891Y027074D01*
X022899Y027048D01*
X022903Y027021D01*
X022903Y026993D01*
X022899Y026966D01*
X022891Y026940D01*
X022880Y026915D01*
X022865Y026891D01*
X022848Y026870D01*
X022827Y026852D01*
X022805Y026836D01*
X022780Y026824D01*
X022754Y026816D01*
X022727Y026811D01*
X022699Y026810D01*
X022672Y026813D01*
X022645Y026820D01*
X022620Y026830D01*
X022596Y026844D01*
X022574Y026861D01*
X022555Y026880D01*
X022539Y026903D01*
X022526Y026927D01*
X022517Y026953D01*
X022511Y026980D01*
X022509Y027007D01*
X032509Y039007D02*
X032511Y039034D01*
X032517Y039061D01*
X032526Y039087D01*
X032539Y039111D01*
X032555Y039134D01*
X032574Y039153D01*
X032596Y039170D01*
X032620Y039184D01*
X032645Y039194D01*
X032672Y039201D01*
X032699Y039204D01*
X032727Y039203D01*
X032754Y039198D01*
X032780Y039190D01*
X032804Y039178D01*
X032827Y039162D01*
X032848Y039144D01*
X032865Y039123D01*
X032880Y039099D01*
X032891Y039074D01*
X032899Y039048D01*
X032903Y039021D01*
X032903Y038993D01*
X032899Y038966D01*
X032891Y038940D01*
X032880Y038915D01*
X032865Y038891D01*
X032848Y038870D01*
X032827Y038852D01*
X032805Y038836D01*
X032780Y038824D01*
X032754Y038816D01*
X032727Y038811D01*
X032699Y038810D01*
X032672Y038813D01*
X032645Y038820D01*
X032620Y038830D01*
X032596Y038844D01*
X032574Y038861D01*
X032555Y038880D01*
X032539Y038903D01*
X032526Y038927D01*
X032517Y038953D01*
X032511Y038980D01*
X032509Y039007D01*
X037009Y049507D02*
X037011Y049534D01*
X037017Y049561D01*
X037026Y049587D01*
X037039Y049611D01*
X037055Y049634D01*
X037074Y049653D01*
X037096Y049670D01*
X037120Y049684D01*
X037145Y049694D01*
X037172Y049701D01*
X037199Y049704D01*
X037227Y049703D01*
X037254Y049698D01*
X037280Y049690D01*
X037304Y049678D01*
X037327Y049662D01*
X037348Y049644D01*
X037365Y049623D01*
X037380Y049599D01*
X037391Y049574D01*
X037399Y049548D01*
X037403Y049521D01*
X037403Y049493D01*
X037399Y049466D01*
X037391Y049440D01*
X037380Y049415D01*
X037365Y049391D01*
X037348Y049370D01*
X037327Y049352D01*
X037305Y049336D01*
X037280Y049324D01*
X037254Y049316D01*
X037227Y049311D01*
X037199Y049310D01*
X037172Y049313D01*
X037145Y049320D01*
X037120Y049330D01*
X037096Y049344D01*
X037074Y049361D01*
X037055Y049380D01*
X037039Y049403D01*
X037026Y049427D01*
X037017Y049453D01*
X037011Y049480D01*
X037009Y049507D01*
X044509Y049507D02*
X044511Y049534D01*
X044517Y049561D01*
X044526Y049587D01*
X044539Y049611D01*
X044555Y049634D01*
X044574Y049653D01*
X044596Y049670D01*
X044620Y049684D01*
X044645Y049694D01*
X044672Y049701D01*
X044699Y049704D01*
X044727Y049703D01*
X044754Y049698D01*
X044780Y049690D01*
X044804Y049678D01*
X044827Y049662D01*
X044848Y049644D01*
X044865Y049623D01*
X044880Y049599D01*
X044891Y049574D01*
X044899Y049548D01*
X044903Y049521D01*
X044903Y049493D01*
X044899Y049466D01*
X044891Y049440D01*
X044880Y049415D01*
X044865Y049391D01*
X044848Y049370D01*
X044827Y049352D01*
X044805Y049336D01*
X044780Y049324D01*
X044754Y049316D01*
X044727Y049311D01*
X044699Y049310D01*
X044672Y049313D01*
X044645Y049320D01*
X044620Y049330D01*
X044596Y049344D01*
X044574Y049361D01*
X044555Y049380D01*
X044539Y049403D01*
X044526Y049427D01*
X044517Y049453D01*
X044511Y049480D01*
X044509Y049507D01*
X052009Y049507D02*
X052011Y049534D01*
X052017Y049561D01*
X052026Y049587D01*
X052039Y049611D01*
X052055Y049634D01*
X052074Y049653D01*
X052096Y049670D01*
X052120Y049684D01*
X052145Y049694D01*
X052172Y049701D01*
X052199Y049704D01*
X052227Y049703D01*
X052254Y049698D01*
X052280Y049690D01*
X052304Y049678D01*
X052327Y049662D01*
X052348Y049644D01*
X052365Y049623D01*
X052380Y049599D01*
X052391Y049574D01*
X052399Y049548D01*
X052403Y049521D01*
X052403Y049493D01*
X052399Y049466D01*
X052391Y049440D01*
X052380Y049415D01*
X052365Y049391D01*
X052348Y049370D01*
X052327Y049352D01*
X052305Y049336D01*
X052280Y049324D01*
X052254Y049316D01*
X052227Y049311D01*
X052199Y049310D01*
X052172Y049313D01*
X052145Y049320D01*
X052120Y049330D01*
X052096Y049344D01*
X052074Y049361D01*
X052055Y049380D01*
X052039Y049403D01*
X052026Y049427D01*
X052017Y049453D01*
X052011Y049480D01*
X052009Y049507D01*
X059509Y049507D02*
X059511Y049534D01*
X059517Y049561D01*
X059526Y049587D01*
X059539Y049611D01*
X059555Y049634D01*
X059574Y049653D01*
X059596Y049670D01*
X059620Y049684D01*
X059645Y049694D01*
X059672Y049701D01*
X059699Y049704D01*
X059727Y049703D01*
X059754Y049698D01*
X059780Y049690D01*
X059804Y049678D01*
X059827Y049662D01*
X059848Y049644D01*
X059865Y049623D01*
X059880Y049599D01*
X059891Y049574D01*
X059899Y049548D01*
X059903Y049521D01*
X059903Y049493D01*
X059899Y049466D01*
X059891Y049440D01*
X059880Y049415D01*
X059865Y049391D01*
X059848Y049370D01*
X059827Y049352D01*
X059805Y049336D01*
X059780Y049324D01*
X059754Y049316D01*
X059727Y049311D01*
X059699Y049310D01*
X059672Y049313D01*
X059645Y049320D01*
X059620Y049330D01*
X059596Y049344D01*
X059574Y049361D01*
X059555Y049380D01*
X059539Y049403D01*
X059526Y049427D01*
X059517Y049453D01*
X059511Y049480D01*
X059509Y049507D01*
X062509Y039007D02*
X062511Y039034D01*
X062517Y039061D01*
X062526Y039087D01*
X062539Y039111D01*
X062555Y039134D01*
X062574Y039153D01*
X062596Y039170D01*
X062620Y039184D01*
X062645Y039194D01*
X062672Y039201D01*
X062699Y039204D01*
X062727Y039203D01*
X062754Y039198D01*
X062780Y039190D01*
X062804Y039178D01*
X062827Y039162D01*
X062848Y039144D01*
X062865Y039123D01*
X062880Y039099D01*
X062891Y039074D01*
X062899Y039048D01*
X062903Y039021D01*
X062903Y038993D01*
X062899Y038966D01*
X062891Y038940D01*
X062880Y038915D01*
X062865Y038891D01*
X062848Y038870D01*
X062827Y038852D01*
X062805Y038836D01*
X062780Y038824D01*
X062754Y038816D01*
X062727Y038811D01*
X062699Y038810D01*
X062672Y038813D01*
X062645Y038820D01*
X062620Y038830D01*
X062596Y038844D01*
X062574Y038861D01*
X062555Y038880D01*
X062539Y038903D01*
X062526Y038927D01*
X062517Y038953D01*
X062511Y038980D01*
X062509Y039007D01*
X062509Y031507D02*
X062511Y031534D01*
X062517Y031561D01*
X062526Y031587D01*
X062539Y031611D01*
X062555Y031634D01*
X062574Y031653D01*
X062596Y031670D01*
X062620Y031684D01*
X062645Y031694D01*
X062672Y031701D01*
X062699Y031704D01*
X062727Y031703D01*
X062754Y031698D01*
X062780Y031690D01*
X062804Y031678D01*
X062827Y031662D01*
X062848Y031644D01*
X062865Y031623D01*
X062880Y031599D01*
X062891Y031574D01*
X062899Y031548D01*
X062903Y031521D01*
X062903Y031493D01*
X062899Y031466D01*
X062891Y031440D01*
X062880Y031415D01*
X062865Y031391D01*
X062848Y031370D01*
X062827Y031352D01*
X062805Y031336D01*
X062780Y031324D01*
X062754Y031316D01*
X062727Y031311D01*
X062699Y031310D01*
X062672Y031313D01*
X062645Y031320D01*
X062620Y031330D01*
X062596Y031344D01*
X062574Y031361D01*
X062555Y031380D01*
X062539Y031403D01*
X062526Y031427D01*
X062517Y031453D01*
X062511Y031480D01*
X062509Y031507D01*
X055009Y031507D02*
X055011Y031534D01*
X055017Y031561D01*
X055026Y031587D01*
X055039Y031611D01*
X055055Y031634D01*
X055074Y031653D01*
X055096Y031670D01*
X055120Y031684D01*
X055145Y031694D01*
X055172Y031701D01*
X055199Y031704D01*
X055227Y031703D01*
X055254Y031698D01*
X055280Y031690D01*
X055304Y031678D01*
X055327Y031662D01*
X055348Y031644D01*
X055365Y031623D01*
X055380Y031599D01*
X055391Y031574D01*
X055399Y031548D01*
X055403Y031521D01*
X055403Y031493D01*
X055399Y031466D01*
X055391Y031440D01*
X055380Y031415D01*
X055365Y031391D01*
X055348Y031370D01*
X055327Y031352D01*
X055305Y031336D01*
X055280Y031324D01*
X055254Y031316D01*
X055227Y031311D01*
X055199Y031310D01*
X055172Y031313D01*
X055145Y031320D01*
X055120Y031330D01*
X055096Y031344D01*
X055074Y031361D01*
X055055Y031380D01*
X055039Y031403D01*
X055026Y031427D01*
X055017Y031453D01*
X055011Y031480D01*
X055009Y031507D01*
X055009Y039007D02*
X055011Y039034D01*
X055017Y039061D01*
X055026Y039087D01*
X055039Y039111D01*
X055055Y039134D01*
X055074Y039153D01*
X055096Y039170D01*
X055120Y039184D01*
X055145Y039194D01*
X055172Y039201D01*
X055199Y039204D01*
X055227Y039203D01*
X055254Y039198D01*
X055280Y039190D01*
X055304Y039178D01*
X055327Y039162D01*
X055348Y039144D01*
X055365Y039123D01*
X055380Y039099D01*
X055391Y039074D01*
X055399Y039048D01*
X055403Y039021D01*
X055403Y038993D01*
X055399Y038966D01*
X055391Y038940D01*
X055380Y038915D01*
X055365Y038891D01*
X055348Y038870D01*
X055327Y038852D01*
X055305Y038836D01*
X055280Y038824D01*
X055254Y038816D01*
X055227Y038811D01*
X055199Y038810D01*
X055172Y038813D01*
X055145Y038820D01*
X055120Y038830D01*
X055096Y038844D01*
X055074Y038861D01*
X055055Y038880D01*
X055039Y038903D01*
X055026Y038927D01*
X055017Y038953D01*
X055011Y038980D01*
X055009Y039007D01*
X045259Y009007D02*
X045261Y009034D01*
X045267Y009061D01*
X045276Y009087D01*
X045289Y009111D01*
X045305Y009134D01*
X045324Y009153D01*
X045346Y009170D01*
X045370Y009184D01*
X045395Y009194D01*
X045422Y009201D01*
X045449Y009204D01*
X045477Y009203D01*
X045504Y009198D01*
X045530Y009190D01*
X045554Y009178D01*
X045577Y009162D01*
X045598Y009144D01*
X045615Y009123D01*
X045630Y009099D01*
X045641Y009074D01*
X045649Y009048D01*
X045653Y009021D01*
X045653Y008993D01*
X045649Y008966D01*
X045641Y008940D01*
X045630Y008915D01*
X045615Y008891D01*
X045598Y008870D01*
X045577Y008852D01*
X045555Y008836D01*
X045530Y008824D01*
X045504Y008816D01*
X045477Y008811D01*
X045449Y008810D01*
X045422Y008813D01*
X045395Y008820D01*
X045370Y008830D01*
X045346Y008844D01*
X045324Y008861D01*
X045305Y008880D01*
X045289Y008903D01*
X045276Y008927D01*
X045267Y008953D01*
X045261Y008980D01*
X045259Y009007D01*
X043544Y009007D02*
X043546Y009063D01*
X043552Y009118D01*
X043562Y009172D01*
X043575Y009226D01*
X043593Y009279D01*
X043614Y009330D01*
X043638Y009380D01*
X043666Y009428D01*
X043698Y009474D01*
X043732Y009518D01*
X043770Y009559D01*
X043810Y009597D01*
X043853Y009632D01*
X043898Y009664D01*
X043946Y009693D01*
X043995Y009719D01*
X044046Y009741D01*
X044098Y009759D01*
X044152Y009773D01*
X044207Y009784D01*
X044262Y009791D01*
X044317Y009794D01*
X044373Y009793D01*
X044428Y009788D01*
X044483Y009779D01*
X044537Y009767D01*
X044590Y009750D01*
X044642Y009730D01*
X044692Y009706D01*
X044740Y009679D01*
X044787Y009649D01*
X044831Y009615D01*
X044873Y009578D01*
X044911Y009538D01*
X044948Y009496D01*
X044981Y009451D01*
X045010Y009405D01*
X045037Y009356D01*
X045059Y009305D01*
X045079Y009253D01*
X045094Y009199D01*
X045106Y009145D01*
X045114Y009090D01*
X045118Y009035D01*
X045118Y008979D01*
X045114Y008924D01*
X045106Y008869D01*
X045094Y008815D01*
X045079Y008761D01*
X045059Y008709D01*
X045037Y008658D01*
X045010Y008609D01*
X044981Y008563D01*
X044948Y008518D01*
X044911Y008476D01*
X044873Y008436D01*
X044831Y008399D01*
X044787Y008365D01*
X044740Y008335D01*
X044692Y008308D01*
X044642Y008284D01*
X044590Y008264D01*
X044537Y008247D01*
X044483Y008235D01*
X044428Y008226D01*
X044373Y008221D01*
X044317Y008220D01*
X044262Y008223D01*
X044207Y008230D01*
X044152Y008241D01*
X044098Y008255D01*
X044046Y008273D01*
X043995Y008295D01*
X043946Y008321D01*
X043898Y008350D01*
X043853Y008382D01*
X043810Y008417D01*
X043770Y008455D01*
X043732Y008496D01*
X043698Y008540D01*
X043666Y008586D01*
X043638Y008634D01*
X043614Y008684D01*
X043593Y008735D01*
X043575Y008788D01*
X043562Y008842D01*
X043552Y008896D01*
X043546Y008951D01*
X043544Y009007D01*
X077509Y016507D02*
X077511Y016534D01*
X077517Y016561D01*
X077526Y016587D01*
X077539Y016611D01*
X077555Y016634D01*
X077574Y016653D01*
X077596Y016670D01*
X077620Y016684D01*
X077645Y016694D01*
X077672Y016701D01*
X077699Y016704D01*
X077727Y016703D01*
X077754Y016698D01*
X077780Y016690D01*
X077804Y016678D01*
X077827Y016662D01*
X077848Y016644D01*
X077865Y016623D01*
X077880Y016599D01*
X077891Y016574D01*
X077899Y016548D01*
X077903Y016521D01*
X077903Y016493D01*
X077899Y016466D01*
X077891Y016440D01*
X077880Y016415D01*
X077865Y016391D01*
X077848Y016370D01*
X077827Y016352D01*
X077805Y016336D01*
X077780Y016324D01*
X077754Y016316D01*
X077727Y016311D01*
X077699Y016310D01*
X077672Y016313D01*
X077645Y016320D01*
X077620Y016330D01*
X077596Y016344D01*
X077574Y016361D01*
X077555Y016380D01*
X077539Y016403D01*
X077526Y016427D01*
X077517Y016453D01*
X077511Y016480D01*
X077509Y016507D01*
X077509Y024007D02*
X077511Y024034D01*
X077517Y024061D01*
X077526Y024087D01*
X077539Y024111D01*
X077555Y024134D01*
X077574Y024153D01*
X077596Y024170D01*
X077620Y024184D01*
X077645Y024194D01*
X077672Y024201D01*
X077699Y024204D01*
X077727Y024203D01*
X077754Y024198D01*
X077780Y024190D01*
X077804Y024178D01*
X077827Y024162D01*
X077848Y024144D01*
X077865Y024123D01*
X077880Y024099D01*
X077891Y024074D01*
X077899Y024048D01*
X077903Y024021D01*
X077903Y023993D01*
X077899Y023966D01*
X077891Y023940D01*
X077880Y023915D01*
X077865Y023891D01*
X077848Y023870D01*
X077827Y023852D01*
X077805Y023836D01*
X077780Y023824D01*
X077754Y023816D01*
X077727Y023811D01*
X077699Y023810D01*
X077672Y023813D01*
X077645Y023820D01*
X077620Y023830D01*
X077596Y023844D01*
X077574Y023861D01*
X077555Y023880D01*
X077539Y023903D01*
X077526Y023927D01*
X077517Y023953D01*
X077511Y023980D01*
X077509Y024007D01*
X077509Y031507D02*
X077511Y031534D01*
X077517Y031561D01*
X077526Y031587D01*
X077539Y031611D01*
X077555Y031634D01*
X077574Y031653D01*
X077596Y031670D01*
X077620Y031684D01*
X077645Y031694D01*
X077672Y031701D01*
X077699Y031704D01*
X077727Y031703D01*
X077754Y031698D01*
X077780Y031690D01*
X077804Y031678D01*
X077827Y031662D01*
X077848Y031644D01*
X077865Y031623D01*
X077880Y031599D01*
X077891Y031574D01*
X077899Y031548D01*
X077903Y031521D01*
X077903Y031493D01*
X077899Y031466D01*
X077891Y031440D01*
X077880Y031415D01*
X077865Y031391D01*
X077848Y031370D01*
X077827Y031352D01*
X077805Y031336D01*
X077780Y031324D01*
X077754Y031316D01*
X077727Y031311D01*
X077699Y031310D01*
X077672Y031313D01*
X077645Y031320D01*
X077620Y031330D01*
X077596Y031344D01*
X077574Y031361D01*
X077555Y031380D01*
X077539Y031403D01*
X077526Y031427D01*
X077517Y031453D01*
X077511Y031480D01*
X077509Y031507D01*
X077509Y039007D02*
X077511Y039034D01*
X077517Y039061D01*
X077526Y039087D01*
X077539Y039111D01*
X077555Y039134D01*
X077574Y039153D01*
X077596Y039170D01*
X077620Y039184D01*
X077645Y039194D01*
X077672Y039201D01*
X077699Y039204D01*
X077727Y039203D01*
X077754Y039198D01*
X077780Y039190D01*
X077804Y039178D01*
X077827Y039162D01*
X077848Y039144D01*
X077865Y039123D01*
X077880Y039099D01*
X077891Y039074D01*
X077899Y039048D01*
X077903Y039021D01*
X077903Y038993D01*
X077899Y038966D01*
X077891Y038940D01*
X077880Y038915D01*
X077865Y038891D01*
X077848Y038870D01*
X077827Y038852D01*
X077805Y038836D01*
X077780Y038824D01*
X077754Y038816D01*
X077727Y038811D01*
X077699Y038810D01*
X077672Y038813D01*
X077645Y038820D01*
X077620Y038830D01*
X077596Y038844D01*
X077574Y038861D01*
X077555Y038880D01*
X077539Y038903D01*
X077526Y038927D01*
X077517Y038953D01*
X077511Y038980D01*
X077509Y039007D01*
M02*
