G75*
G70*
%OFA0B0*%
%FSLAX24Y24*%
%IPPOS*%
%LPD*%
%AMOC8*
5,1,8,0,0,1.08239X$1,22.5*
%
%ADD10C,0.0100*%
%ADD11C,0.0079*%
%ADD12C,0.0000*%
D10*
X012888Y010139D02*
X012890Y010208D01*
X012896Y010276D01*
X012906Y010344D01*
X012920Y010411D01*
X012938Y010478D01*
X012959Y010543D01*
X012985Y010607D01*
X013014Y010669D01*
X013046Y010729D01*
X013082Y010788D01*
X013122Y010844D01*
X013164Y010898D01*
X013210Y010949D01*
X013259Y010998D01*
X013310Y011044D01*
X013364Y011086D01*
X013420Y011126D01*
X013478Y011162D01*
X013539Y011194D01*
X013601Y011223D01*
X013665Y011249D01*
X013730Y011270D01*
X013797Y011288D01*
X013864Y011302D01*
X013932Y011312D01*
X014000Y011318D01*
X014069Y011320D01*
X014138Y011318D01*
X014206Y011312D01*
X014274Y011302D01*
X014341Y011288D01*
X014408Y011270D01*
X014473Y011249D01*
X014537Y011223D01*
X014599Y011194D01*
X014659Y011162D01*
X014718Y011126D01*
X014774Y011086D01*
X014828Y011044D01*
X014879Y010998D01*
X014928Y010949D01*
X014974Y010898D01*
X015016Y010844D01*
X015056Y010788D01*
X015092Y010729D01*
X015124Y010669D01*
X015153Y010607D01*
X015179Y010543D01*
X015200Y010478D01*
X015218Y010411D01*
X015232Y010344D01*
X015242Y010276D01*
X015248Y010208D01*
X015250Y010139D01*
X015248Y010070D01*
X015242Y010002D01*
X015232Y009934D01*
X015218Y009867D01*
X015200Y009800D01*
X015179Y009735D01*
X015153Y009671D01*
X015124Y009609D01*
X015092Y009548D01*
X015056Y009490D01*
X015016Y009434D01*
X014974Y009380D01*
X014928Y009329D01*
X014879Y009280D01*
X014828Y009234D01*
X014774Y009192D01*
X014718Y009152D01*
X014660Y009116D01*
X014599Y009084D01*
X014537Y009055D01*
X014473Y009029D01*
X014408Y009008D01*
X014341Y008990D01*
X014274Y008976D01*
X014206Y008966D01*
X014138Y008960D01*
X014069Y008958D01*
X014000Y008960D01*
X013932Y008966D01*
X013864Y008976D01*
X013797Y008990D01*
X013730Y009008D01*
X013665Y009029D01*
X013601Y009055D01*
X013539Y009084D01*
X013478Y009116D01*
X013420Y009152D01*
X013364Y009192D01*
X013310Y009234D01*
X013259Y009280D01*
X013210Y009329D01*
X013164Y009380D01*
X013122Y009434D01*
X013082Y009490D01*
X013046Y009548D01*
X013014Y009609D01*
X012985Y009671D01*
X012959Y009735D01*
X012938Y009800D01*
X012920Y009867D01*
X012906Y009934D01*
X012896Y010002D01*
X012890Y010070D01*
X012888Y010139D01*
X012888Y017639D02*
X012890Y017708D01*
X012896Y017776D01*
X012906Y017844D01*
X012920Y017911D01*
X012938Y017978D01*
X012959Y018043D01*
X012985Y018107D01*
X013014Y018169D01*
X013046Y018229D01*
X013082Y018288D01*
X013122Y018344D01*
X013164Y018398D01*
X013210Y018449D01*
X013259Y018498D01*
X013310Y018544D01*
X013364Y018586D01*
X013420Y018626D01*
X013478Y018662D01*
X013539Y018694D01*
X013601Y018723D01*
X013665Y018749D01*
X013730Y018770D01*
X013797Y018788D01*
X013864Y018802D01*
X013932Y018812D01*
X014000Y018818D01*
X014069Y018820D01*
X014138Y018818D01*
X014206Y018812D01*
X014274Y018802D01*
X014341Y018788D01*
X014408Y018770D01*
X014473Y018749D01*
X014537Y018723D01*
X014599Y018694D01*
X014659Y018662D01*
X014718Y018626D01*
X014774Y018586D01*
X014828Y018544D01*
X014879Y018498D01*
X014928Y018449D01*
X014974Y018398D01*
X015016Y018344D01*
X015056Y018288D01*
X015092Y018229D01*
X015124Y018169D01*
X015153Y018107D01*
X015179Y018043D01*
X015200Y017978D01*
X015218Y017911D01*
X015232Y017844D01*
X015242Y017776D01*
X015248Y017708D01*
X015250Y017639D01*
X015248Y017570D01*
X015242Y017502D01*
X015232Y017434D01*
X015218Y017367D01*
X015200Y017300D01*
X015179Y017235D01*
X015153Y017171D01*
X015124Y017109D01*
X015092Y017048D01*
X015056Y016990D01*
X015016Y016934D01*
X014974Y016880D01*
X014928Y016829D01*
X014879Y016780D01*
X014828Y016734D01*
X014774Y016692D01*
X014718Y016652D01*
X014660Y016616D01*
X014599Y016584D01*
X014537Y016555D01*
X014473Y016529D01*
X014408Y016508D01*
X014341Y016490D01*
X014274Y016476D01*
X014206Y016466D01*
X014138Y016460D01*
X014069Y016458D01*
X014000Y016460D01*
X013932Y016466D01*
X013864Y016476D01*
X013797Y016490D01*
X013730Y016508D01*
X013665Y016529D01*
X013601Y016555D01*
X013539Y016584D01*
X013478Y016616D01*
X013420Y016652D01*
X013364Y016692D01*
X013310Y016734D01*
X013259Y016780D01*
X013210Y016829D01*
X013164Y016880D01*
X013122Y016934D01*
X013082Y016990D01*
X013046Y017048D01*
X013014Y017109D01*
X012985Y017171D01*
X012959Y017235D01*
X012938Y017300D01*
X012920Y017367D01*
X012906Y017434D01*
X012896Y017502D01*
X012890Y017570D01*
X012888Y017639D01*
X012888Y025139D02*
X012890Y025208D01*
X012896Y025276D01*
X012906Y025344D01*
X012920Y025411D01*
X012938Y025478D01*
X012959Y025543D01*
X012985Y025607D01*
X013014Y025669D01*
X013046Y025729D01*
X013082Y025788D01*
X013122Y025844D01*
X013164Y025898D01*
X013210Y025949D01*
X013259Y025998D01*
X013310Y026044D01*
X013364Y026086D01*
X013420Y026126D01*
X013478Y026162D01*
X013539Y026194D01*
X013601Y026223D01*
X013665Y026249D01*
X013730Y026270D01*
X013797Y026288D01*
X013864Y026302D01*
X013932Y026312D01*
X014000Y026318D01*
X014069Y026320D01*
X014138Y026318D01*
X014206Y026312D01*
X014274Y026302D01*
X014341Y026288D01*
X014408Y026270D01*
X014473Y026249D01*
X014537Y026223D01*
X014599Y026194D01*
X014659Y026162D01*
X014718Y026126D01*
X014774Y026086D01*
X014828Y026044D01*
X014879Y025998D01*
X014928Y025949D01*
X014974Y025898D01*
X015016Y025844D01*
X015056Y025788D01*
X015092Y025729D01*
X015124Y025669D01*
X015153Y025607D01*
X015179Y025543D01*
X015200Y025478D01*
X015218Y025411D01*
X015232Y025344D01*
X015242Y025276D01*
X015248Y025208D01*
X015250Y025139D01*
X015248Y025070D01*
X015242Y025002D01*
X015232Y024934D01*
X015218Y024867D01*
X015200Y024800D01*
X015179Y024735D01*
X015153Y024671D01*
X015124Y024609D01*
X015092Y024548D01*
X015056Y024490D01*
X015016Y024434D01*
X014974Y024380D01*
X014928Y024329D01*
X014879Y024280D01*
X014828Y024234D01*
X014774Y024192D01*
X014718Y024152D01*
X014660Y024116D01*
X014599Y024084D01*
X014537Y024055D01*
X014473Y024029D01*
X014408Y024008D01*
X014341Y023990D01*
X014274Y023976D01*
X014206Y023966D01*
X014138Y023960D01*
X014069Y023958D01*
X014000Y023960D01*
X013932Y023966D01*
X013864Y023976D01*
X013797Y023990D01*
X013730Y024008D01*
X013665Y024029D01*
X013601Y024055D01*
X013539Y024084D01*
X013478Y024116D01*
X013420Y024152D01*
X013364Y024192D01*
X013310Y024234D01*
X013259Y024280D01*
X013210Y024329D01*
X013164Y024380D01*
X013122Y024434D01*
X013082Y024490D01*
X013046Y024548D01*
X013014Y024609D01*
X012985Y024671D01*
X012959Y024735D01*
X012938Y024800D01*
X012920Y024867D01*
X012906Y024934D01*
X012896Y025002D01*
X012890Y025070D01*
X012888Y025139D01*
X012888Y032639D02*
X012890Y032708D01*
X012896Y032776D01*
X012906Y032844D01*
X012920Y032911D01*
X012938Y032978D01*
X012959Y033043D01*
X012985Y033107D01*
X013014Y033169D01*
X013046Y033229D01*
X013082Y033288D01*
X013122Y033344D01*
X013164Y033398D01*
X013210Y033449D01*
X013259Y033498D01*
X013310Y033544D01*
X013364Y033586D01*
X013420Y033626D01*
X013478Y033662D01*
X013539Y033694D01*
X013601Y033723D01*
X013665Y033749D01*
X013730Y033770D01*
X013797Y033788D01*
X013864Y033802D01*
X013932Y033812D01*
X014000Y033818D01*
X014069Y033820D01*
X014138Y033818D01*
X014206Y033812D01*
X014274Y033802D01*
X014341Y033788D01*
X014408Y033770D01*
X014473Y033749D01*
X014537Y033723D01*
X014599Y033694D01*
X014659Y033662D01*
X014718Y033626D01*
X014774Y033586D01*
X014828Y033544D01*
X014879Y033498D01*
X014928Y033449D01*
X014974Y033398D01*
X015016Y033344D01*
X015056Y033288D01*
X015092Y033229D01*
X015124Y033169D01*
X015153Y033107D01*
X015179Y033043D01*
X015200Y032978D01*
X015218Y032911D01*
X015232Y032844D01*
X015242Y032776D01*
X015248Y032708D01*
X015250Y032639D01*
X015248Y032570D01*
X015242Y032502D01*
X015232Y032434D01*
X015218Y032367D01*
X015200Y032300D01*
X015179Y032235D01*
X015153Y032171D01*
X015124Y032109D01*
X015092Y032048D01*
X015056Y031990D01*
X015016Y031934D01*
X014974Y031880D01*
X014928Y031829D01*
X014879Y031780D01*
X014828Y031734D01*
X014774Y031692D01*
X014718Y031652D01*
X014660Y031616D01*
X014599Y031584D01*
X014537Y031555D01*
X014473Y031529D01*
X014408Y031508D01*
X014341Y031490D01*
X014274Y031476D01*
X014206Y031466D01*
X014138Y031460D01*
X014069Y031458D01*
X014000Y031460D01*
X013932Y031466D01*
X013864Y031476D01*
X013797Y031490D01*
X013730Y031508D01*
X013665Y031529D01*
X013601Y031555D01*
X013539Y031584D01*
X013478Y031616D01*
X013420Y031652D01*
X013364Y031692D01*
X013310Y031734D01*
X013259Y031780D01*
X013210Y031829D01*
X013164Y031880D01*
X013122Y031934D01*
X013082Y031990D01*
X013046Y032048D01*
X013014Y032109D01*
X012985Y032171D01*
X012959Y032235D01*
X012938Y032300D01*
X012920Y032367D01*
X012906Y032434D01*
X012896Y032502D01*
X012890Y032570D01*
X012888Y032639D01*
X012888Y040139D02*
X012890Y040208D01*
X012896Y040276D01*
X012906Y040344D01*
X012920Y040411D01*
X012938Y040478D01*
X012959Y040543D01*
X012985Y040607D01*
X013014Y040669D01*
X013046Y040729D01*
X013082Y040788D01*
X013122Y040844D01*
X013164Y040898D01*
X013210Y040949D01*
X013259Y040998D01*
X013310Y041044D01*
X013364Y041086D01*
X013420Y041126D01*
X013478Y041162D01*
X013539Y041194D01*
X013601Y041223D01*
X013665Y041249D01*
X013730Y041270D01*
X013797Y041288D01*
X013864Y041302D01*
X013932Y041312D01*
X014000Y041318D01*
X014069Y041320D01*
X014138Y041318D01*
X014206Y041312D01*
X014274Y041302D01*
X014341Y041288D01*
X014408Y041270D01*
X014473Y041249D01*
X014537Y041223D01*
X014599Y041194D01*
X014659Y041162D01*
X014718Y041126D01*
X014774Y041086D01*
X014828Y041044D01*
X014879Y040998D01*
X014928Y040949D01*
X014974Y040898D01*
X015016Y040844D01*
X015056Y040788D01*
X015092Y040729D01*
X015124Y040669D01*
X015153Y040607D01*
X015179Y040543D01*
X015200Y040478D01*
X015218Y040411D01*
X015232Y040344D01*
X015242Y040276D01*
X015248Y040208D01*
X015250Y040139D01*
X015248Y040070D01*
X015242Y040002D01*
X015232Y039934D01*
X015218Y039867D01*
X015200Y039800D01*
X015179Y039735D01*
X015153Y039671D01*
X015124Y039609D01*
X015092Y039548D01*
X015056Y039490D01*
X015016Y039434D01*
X014974Y039380D01*
X014928Y039329D01*
X014879Y039280D01*
X014828Y039234D01*
X014774Y039192D01*
X014718Y039152D01*
X014660Y039116D01*
X014599Y039084D01*
X014537Y039055D01*
X014473Y039029D01*
X014408Y039008D01*
X014341Y038990D01*
X014274Y038976D01*
X014206Y038966D01*
X014138Y038960D01*
X014069Y038958D01*
X014000Y038960D01*
X013932Y038966D01*
X013864Y038976D01*
X013797Y038990D01*
X013730Y039008D01*
X013665Y039029D01*
X013601Y039055D01*
X013539Y039084D01*
X013478Y039116D01*
X013420Y039152D01*
X013364Y039192D01*
X013310Y039234D01*
X013259Y039280D01*
X013210Y039329D01*
X013164Y039380D01*
X013122Y039434D01*
X013082Y039490D01*
X013046Y039548D01*
X013014Y039609D01*
X012985Y039671D01*
X012959Y039735D01*
X012938Y039800D01*
X012920Y039867D01*
X012906Y039934D01*
X012896Y040002D01*
X012890Y040070D01*
X012888Y040139D01*
X020388Y040139D02*
X020390Y040208D01*
X020396Y040276D01*
X020406Y040344D01*
X020420Y040411D01*
X020438Y040478D01*
X020459Y040543D01*
X020485Y040607D01*
X020514Y040669D01*
X020546Y040729D01*
X020582Y040788D01*
X020622Y040844D01*
X020664Y040898D01*
X020710Y040949D01*
X020759Y040998D01*
X020810Y041044D01*
X020864Y041086D01*
X020920Y041126D01*
X020978Y041162D01*
X021039Y041194D01*
X021101Y041223D01*
X021165Y041249D01*
X021230Y041270D01*
X021297Y041288D01*
X021364Y041302D01*
X021432Y041312D01*
X021500Y041318D01*
X021569Y041320D01*
X021638Y041318D01*
X021706Y041312D01*
X021774Y041302D01*
X021841Y041288D01*
X021908Y041270D01*
X021973Y041249D01*
X022037Y041223D01*
X022099Y041194D01*
X022159Y041162D01*
X022218Y041126D01*
X022274Y041086D01*
X022328Y041044D01*
X022379Y040998D01*
X022428Y040949D01*
X022474Y040898D01*
X022516Y040844D01*
X022556Y040788D01*
X022592Y040729D01*
X022624Y040669D01*
X022653Y040607D01*
X022679Y040543D01*
X022700Y040478D01*
X022718Y040411D01*
X022732Y040344D01*
X022742Y040276D01*
X022748Y040208D01*
X022750Y040139D01*
X022748Y040070D01*
X022742Y040002D01*
X022732Y039934D01*
X022718Y039867D01*
X022700Y039800D01*
X022679Y039735D01*
X022653Y039671D01*
X022624Y039609D01*
X022592Y039548D01*
X022556Y039490D01*
X022516Y039434D01*
X022474Y039380D01*
X022428Y039329D01*
X022379Y039280D01*
X022328Y039234D01*
X022274Y039192D01*
X022218Y039152D01*
X022160Y039116D01*
X022099Y039084D01*
X022037Y039055D01*
X021973Y039029D01*
X021908Y039008D01*
X021841Y038990D01*
X021774Y038976D01*
X021706Y038966D01*
X021638Y038960D01*
X021569Y038958D01*
X021500Y038960D01*
X021432Y038966D01*
X021364Y038976D01*
X021297Y038990D01*
X021230Y039008D01*
X021165Y039029D01*
X021101Y039055D01*
X021039Y039084D01*
X020978Y039116D01*
X020920Y039152D01*
X020864Y039192D01*
X020810Y039234D01*
X020759Y039280D01*
X020710Y039329D01*
X020664Y039380D01*
X020622Y039434D01*
X020582Y039490D01*
X020546Y039548D01*
X020514Y039609D01*
X020485Y039671D01*
X020459Y039735D01*
X020438Y039800D01*
X020420Y039867D01*
X020406Y039934D01*
X020396Y040002D01*
X020390Y040070D01*
X020388Y040139D01*
X020388Y032639D02*
X020390Y032708D01*
X020396Y032776D01*
X020406Y032844D01*
X020420Y032911D01*
X020438Y032978D01*
X020459Y033043D01*
X020485Y033107D01*
X020514Y033169D01*
X020546Y033229D01*
X020582Y033288D01*
X020622Y033344D01*
X020664Y033398D01*
X020710Y033449D01*
X020759Y033498D01*
X020810Y033544D01*
X020864Y033586D01*
X020920Y033626D01*
X020978Y033662D01*
X021039Y033694D01*
X021101Y033723D01*
X021165Y033749D01*
X021230Y033770D01*
X021297Y033788D01*
X021364Y033802D01*
X021432Y033812D01*
X021500Y033818D01*
X021569Y033820D01*
X021638Y033818D01*
X021706Y033812D01*
X021774Y033802D01*
X021841Y033788D01*
X021908Y033770D01*
X021973Y033749D01*
X022037Y033723D01*
X022099Y033694D01*
X022159Y033662D01*
X022218Y033626D01*
X022274Y033586D01*
X022328Y033544D01*
X022379Y033498D01*
X022428Y033449D01*
X022474Y033398D01*
X022516Y033344D01*
X022556Y033288D01*
X022592Y033229D01*
X022624Y033169D01*
X022653Y033107D01*
X022679Y033043D01*
X022700Y032978D01*
X022718Y032911D01*
X022732Y032844D01*
X022742Y032776D01*
X022748Y032708D01*
X022750Y032639D01*
X022748Y032570D01*
X022742Y032502D01*
X022732Y032434D01*
X022718Y032367D01*
X022700Y032300D01*
X022679Y032235D01*
X022653Y032171D01*
X022624Y032109D01*
X022592Y032048D01*
X022556Y031990D01*
X022516Y031934D01*
X022474Y031880D01*
X022428Y031829D01*
X022379Y031780D01*
X022328Y031734D01*
X022274Y031692D01*
X022218Y031652D01*
X022160Y031616D01*
X022099Y031584D01*
X022037Y031555D01*
X021973Y031529D01*
X021908Y031508D01*
X021841Y031490D01*
X021774Y031476D01*
X021706Y031466D01*
X021638Y031460D01*
X021569Y031458D01*
X021500Y031460D01*
X021432Y031466D01*
X021364Y031476D01*
X021297Y031490D01*
X021230Y031508D01*
X021165Y031529D01*
X021101Y031555D01*
X021039Y031584D01*
X020978Y031616D01*
X020920Y031652D01*
X020864Y031692D01*
X020810Y031734D01*
X020759Y031780D01*
X020710Y031829D01*
X020664Y031880D01*
X020622Y031934D01*
X020582Y031990D01*
X020546Y032048D01*
X020514Y032109D01*
X020485Y032171D01*
X020459Y032235D01*
X020438Y032300D01*
X020420Y032367D01*
X020406Y032434D01*
X020396Y032502D01*
X020390Y032570D01*
X020388Y032639D01*
X020388Y025139D02*
X020390Y025208D01*
X020396Y025276D01*
X020406Y025344D01*
X020420Y025411D01*
X020438Y025478D01*
X020459Y025543D01*
X020485Y025607D01*
X020514Y025669D01*
X020546Y025729D01*
X020582Y025788D01*
X020622Y025844D01*
X020664Y025898D01*
X020710Y025949D01*
X020759Y025998D01*
X020810Y026044D01*
X020864Y026086D01*
X020920Y026126D01*
X020978Y026162D01*
X021039Y026194D01*
X021101Y026223D01*
X021165Y026249D01*
X021230Y026270D01*
X021297Y026288D01*
X021364Y026302D01*
X021432Y026312D01*
X021500Y026318D01*
X021569Y026320D01*
X021638Y026318D01*
X021706Y026312D01*
X021774Y026302D01*
X021841Y026288D01*
X021908Y026270D01*
X021973Y026249D01*
X022037Y026223D01*
X022099Y026194D01*
X022159Y026162D01*
X022218Y026126D01*
X022274Y026086D01*
X022328Y026044D01*
X022379Y025998D01*
X022428Y025949D01*
X022474Y025898D01*
X022516Y025844D01*
X022556Y025788D01*
X022592Y025729D01*
X022624Y025669D01*
X022653Y025607D01*
X022679Y025543D01*
X022700Y025478D01*
X022718Y025411D01*
X022732Y025344D01*
X022742Y025276D01*
X022748Y025208D01*
X022750Y025139D01*
X022748Y025070D01*
X022742Y025002D01*
X022732Y024934D01*
X022718Y024867D01*
X022700Y024800D01*
X022679Y024735D01*
X022653Y024671D01*
X022624Y024609D01*
X022592Y024548D01*
X022556Y024490D01*
X022516Y024434D01*
X022474Y024380D01*
X022428Y024329D01*
X022379Y024280D01*
X022328Y024234D01*
X022274Y024192D01*
X022218Y024152D01*
X022160Y024116D01*
X022099Y024084D01*
X022037Y024055D01*
X021973Y024029D01*
X021908Y024008D01*
X021841Y023990D01*
X021774Y023976D01*
X021706Y023966D01*
X021638Y023960D01*
X021569Y023958D01*
X021500Y023960D01*
X021432Y023966D01*
X021364Y023976D01*
X021297Y023990D01*
X021230Y024008D01*
X021165Y024029D01*
X021101Y024055D01*
X021039Y024084D01*
X020978Y024116D01*
X020920Y024152D01*
X020864Y024192D01*
X020810Y024234D01*
X020759Y024280D01*
X020710Y024329D01*
X020664Y024380D01*
X020622Y024434D01*
X020582Y024490D01*
X020546Y024548D01*
X020514Y024609D01*
X020485Y024671D01*
X020459Y024735D01*
X020438Y024800D01*
X020420Y024867D01*
X020406Y024934D01*
X020396Y025002D01*
X020390Y025070D01*
X020388Y025139D01*
X020388Y017639D02*
X020390Y017708D01*
X020396Y017776D01*
X020406Y017844D01*
X020420Y017911D01*
X020438Y017978D01*
X020459Y018043D01*
X020485Y018107D01*
X020514Y018169D01*
X020546Y018229D01*
X020582Y018288D01*
X020622Y018344D01*
X020664Y018398D01*
X020710Y018449D01*
X020759Y018498D01*
X020810Y018544D01*
X020864Y018586D01*
X020920Y018626D01*
X020978Y018662D01*
X021039Y018694D01*
X021101Y018723D01*
X021165Y018749D01*
X021230Y018770D01*
X021297Y018788D01*
X021364Y018802D01*
X021432Y018812D01*
X021500Y018818D01*
X021569Y018820D01*
X021638Y018818D01*
X021706Y018812D01*
X021774Y018802D01*
X021841Y018788D01*
X021908Y018770D01*
X021973Y018749D01*
X022037Y018723D01*
X022099Y018694D01*
X022159Y018662D01*
X022218Y018626D01*
X022274Y018586D01*
X022328Y018544D01*
X022379Y018498D01*
X022428Y018449D01*
X022474Y018398D01*
X022516Y018344D01*
X022556Y018288D01*
X022592Y018229D01*
X022624Y018169D01*
X022653Y018107D01*
X022679Y018043D01*
X022700Y017978D01*
X022718Y017911D01*
X022732Y017844D01*
X022742Y017776D01*
X022748Y017708D01*
X022750Y017639D01*
X022748Y017570D01*
X022742Y017502D01*
X022732Y017434D01*
X022718Y017367D01*
X022700Y017300D01*
X022679Y017235D01*
X022653Y017171D01*
X022624Y017109D01*
X022592Y017048D01*
X022556Y016990D01*
X022516Y016934D01*
X022474Y016880D01*
X022428Y016829D01*
X022379Y016780D01*
X022328Y016734D01*
X022274Y016692D01*
X022218Y016652D01*
X022160Y016616D01*
X022099Y016584D01*
X022037Y016555D01*
X021973Y016529D01*
X021908Y016508D01*
X021841Y016490D01*
X021774Y016476D01*
X021706Y016466D01*
X021638Y016460D01*
X021569Y016458D01*
X021500Y016460D01*
X021432Y016466D01*
X021364Y016476D01*
X021297Y016490D01*
X021230Y016508D01*
X021165Y016529D01*
X021101Y016555D01*
X021039Y016584D01*
X020978Y016616D01*
X020920Y016652D01*
X020864Y016692D01*
X020810Y016734D01*
X020759Y016780D01*
X020710Y016829D01*
X020664Y016880D01*
X020622Y016934D01*
X020582Y016990D01*
X020546Y017048D01*
X020514Y017109D01*
X020485Y017171D01*
X020459Y017235D01*
X020438Y017300D01*
X020420Y017367D01*
X020406Y017434D01*
X020396Y017502D01*
X020390Y017570D01*
X020388Y017639D01*
X020388Y010139D02*
X020390Y010208D01*
X020396Y010276D01*
X020406Y010344D01*
X020420Y010411D01*
X020438Y010478D01*
X020459Y010543D01*
X020485Y010607D01*
X020514Y010669D01*
X020546Y010729D01*
X020582Y010788D01*
X020622Y010844D01*
X020664Y010898D01*
X020710Y010949D01*
X020759Y010998D01*
X020810Y011044D01*
X020864Y011086D01*
X020920Y011126D01*
X020978Y011162D01*
X021039Y011194D01*
X021101Y011223D01*
X021165Y011249D01*
X021230Y011270D01*
X021297Y011288D01*
X021364Y011302D01*
X021432Y011312D01*
X021500Y011318D01*
X021569Y011320D01*
X021638Y011318D01*
X021706Y011312D01*
X021774Y011302D01*
X021841Y011288D01*
X021908Y011270D01*
X021973Y011249D01*
X022037Y011223D01*
X022099Y011194D01*
X022159Y011162D01*
X022218Y011126D01*
X022274Y011086D01*
X022328Y011044D01*
X022379Y010998D01*
X022428Y010949D01*
X022474Y010898D01*
X022516Y010844D01*
X022556Y010788D01*
X022592Y010729D01*
X022624Y010669D01*
X022653Y010607D01*
X022679Y010543D01*
X022700Y010478D01*
X022718Y010411D01*
X022732Y010344D01*
X022742Y010276D01*
X022748Y010208D01*
X022750Y010139D01*
X022748Y010070D01*
X022742Y010002D01*
X022732Y009934D01*
X022718Y009867D01*
X022700Y009800D01*
X022679Y009735D01*
X022653Y009671D01*
X022624Y009609D01*
X022592Y009548D01*
X022556Y009490D01*
X022516Y009434D01*
X022474Y009380D01*
X022428Y009329D01*
X022379Y009280D01*
X022328Y009234D01*
X022274Y009192D01*
X022218Y009152D01*
X022160Y009116D01*
X022099Y009084D01*
X022037Y009055D01*
X021973Y009029D01*
X021908Y009008D01*
X021841Y008990D01*
X021774Y008976D01*
X021706Y008966D01*
X021638Y008960D01*
X021569Y008958D01*
X021500Y008960D01*
X021432Y008966D01*
X021364Y008976D01*
X021297Y008990D01*
X021230Y009008D01*
X021165Y009029D01*
X021101Y009055D01*
X021039Y009084D01*
X020978Y009116D01*
X020920Y009152D01*
X020864Y009192D01*
X020810Y009234D01*
X020759Y009280D01*
X020710Y009329D01*
X020664Y009380D01*
X020622Y009434D01*
X020582Y009490D01*
X020546Y009548D01*
X020514Y009609D01*
X020485Y009671D01*
X020459Y009735D01*
X020438Y009800D01*
X020420Y009867D01*
X020406Y009934D01*
X020396Y010002D01*
X020390Y010070D01*
X020388Y010139D01*
X027888Y010139D02*
X027890Y010208D01*
X027896Y010276D01*
X027906Y010344D01*
X027920Y010411D01*
X027938Y010478D01*
X027959Y010543D01*
X027985Y010607D01*
X028014Y010669D01*
X028046Y010729D01*
X028082Y010788D01*
X028122Y010844D01*
X028164Y010898D01*
X028210Y010949D01*
X028259Y010998D01*
X028310Y011044D01*
X028364Y011086D01*
X028420Y011126D01*
X028478Y011162D01*
X028539Y011194D01*
X028601Y011223D01*
X028665Y011249D01*
X028730Y011270D01*
X028797Y011288D01*
X028864Y011302D01*
X028932Y011312D01*
X029000Y011318D01*
X029069Y011320D01*
X029138Y011318D01*
X029206Y011312D01*
X029274Y011302D01*
X029341Y011288D01*
X029408Y011270D01*
X029473Y011249D01*
X029537Y011223D01*
X029599Y011194D01*
X029659Y011162D01*
X029718Y011126D01*
X029774Y011086D01*
X029828Y011044D01*
X029879Y010998D01*
X029928Y010949D01*
X029974Y010898D01*
X030016Y010844D01*
X030056Y010788D01*
X030092Y010729D01*
X030124Y010669D01*
X030153Y010607D01*
X030179Y010543D01*
X030200Y010478D01*
X030218Y010411D01*
X030232Y010344D01*
X030242Y010276D01*
X030248Y010208D01*
X030250Y010139D01*
X030248Y010070D01*
X030242Y010002D01*
X030232Y009934D01*
X030218Y009867D01*
X030200Y009800D01*
X030179Y009735D01*
X030153Y009671D01*
X030124Y009609D01*
X030092Y009548D01*
X030056Y009490D01*
X030016Y009434D01*
X029974Y009380D01*
X029928Y009329D01*
X029879Y009280D01*
X029828Y009234D01*
X029774Y009192D01*
X029718Y009152D01*
X029660Y009116D01*
X029599Y009084D01*
X029537Y009055D01*
X029473Y009029D01*
X029408Y009008D01*
X029341Y008990D01*
X029274Y008976D01*
X029206Y008966D01*
X029138Y008960D01*
X029069Y008958D01*
X029000Y008960D01*
X028932Y008966D01*
X028864Y008976D01*
X028797Y008990D01*
X028730Y009008D01*
X028665Y009029D01*
X028601Y009055D01*
X028539Y009084D01*
X028478Y009116D01*
X028420Y009152D01*
X028364Y009192D01*
X028310Y009234D01*
X028259Y009280D01*
X028210Y009329D01*
X028164Y009380D01*
X028122Y009434D01*
X028082Y009490D01*
X028046Y009548D01*
X028014Y009609D01*
X027985Y009671D01*
X027959Y009735D01*
X027938Y009800D01*
X027920Y009867D01*
X027906Y009934D01*
X027896Y010002D01*
X027890Y010070D01*
X027888Y010139D01*
X027888Y017639D02*
X027890Y017708D01*
X027896Y017776D01*
X027906Y017844D01*
X027920Y017911D01*
X027938Y017978D01*
X027959Y018043D01*
X027985Y018107D01*
X028014Y018169D01*
X028046Y018229D01*
X028082Y018288D01*
X028122Y018344D01*
X028164Y018398D01*
X028210Y018449D01*
X028259Y018498D01*
X028310Y018544D01*
X028364Y018586D01*
X028420Y018626D01*
X028478Y018662D01*
X028539Y018694D01*
X028601Y018723D01*
X028665Y018749D01*
X028730Y018770D01*
X028797Y018788D01*
X028864Y018802D01*
X028932Y018812D01*
X029000Y018818D01*
X029069Y018820D01*
X029138Y018818D01*
X029206Y018812D01*
X029274Y018802D01*
X029341Y018788D01*
X029408Y018770D01*
X029473Y018749D01*
X029537Y018723D01*
X029599Y018694D01*
X029659Y018662D01*
X029718Y018626D01*
X029774Y018586D01*
X029828Y018544D01*
X029879Y018498D01*
X029928Y018449D01*
X029974Y018398D01*
X030016Y018344D01*
X030056Y018288D01*
X030092Y018229D01*
X030124Y018169D01*
X030153Y018107D01*
X030179Y018043D01*
X030200Y017978D01*
X030218Y017911D01*
X030232Y017844D01*
X030242Y017776D01*
X030248Y017708D01*
X030250Y017639D01*
X030248Y017570D01*
X030242Y017502D01*
X030232Y017434D01*
X030218Y017367D01*
X030200Y017300D01*
X030179Y017235D01*
X030153Y017171D01*
X030124Y017109D01*
X030092Y017048D01*
X030056Y016990D01*
X030016Y016934D01*
X029974Y016880D01*
X029928Y016829D01*
X029879Y016780D01*
X029828Y016734D01*
X029774Y016692D01*
X029718Y016652D01*
X029660Y016616D01*
X029599Y016584D01*
X029537Y016555D01*
X029473Y016529D01*
X029408Y016508D01*
X029341Y016490D01*
X029274Y016476D01*
X029206Y016466D01*
X029138Y016460D01*
X029069Y016458D01*
X029000Y016460D01*
X028932Y016466D01*
X028864Y016476D01*
X028797Y016490D01*
X028730Y016508D01*
X028665Y016529D01*
X028601Y016555D01*
X028539Y016584D01*
X028478Y016616D01*
X028420Y016652D01*
X028364Y016692D01*
X028310Y016734D01*
X028259Y016780D01*
X028210Y016829D01*
X028164Y016880D01*
X028122Y016934D01*
X028082Y016990D01*
X028046Y017048D01*
X028014Y017109D01*
X027985Y017171D01*
X027959Y017235D01*
X027938Y017300D01*
X027920Y017367D01*
X027906Y017434D01*
X027896Y017502D01*
X027890Y017570D01*
X027888Y017639D01*
X027888Y025139D02*
X027890Y025208D01*
X027896Y025276D01*
X027906Y025344D01*
X027920Y025411D01*
X027938Y025478D01*
X027959Y025543D01*
X027985Y025607D01*
X028014Y025669D01*
X028046Y025729D01*
X028082Y025788D01*
X028122Y025844D01*
X028164Y025898D01*
X028210Y025949D01*
X028259Y025998D01*
X028310Y026044D01*
X028364Y026086D01*
X028420Y026126D01*
X028478Y026162D01*
X028539Y026194D01*
X028601Y026223D01*
X028665Y026249D01*
X028730Y026270D01*
X028797Y026288D01*
X028864Y026302D01*
X028932Y026312D01*
X029000Y026318D01*
X029069Y026320D01*
X029138Y026318D01*
X029206Y026312D01*
X029274Y026302D01*
X029341Y026288D01*
X029408Y026270D01*
X029473Y026249D01*
X029537Y026223D01*
X029599Y026194D01*
X029659Y026162D01*
X029718Y026126D01*
X029774Y026086D01*
X029828Y026044D01*
X029879Y025998D01*
X029928Y025949D01*
X029974Y025898D01*
X030016Y025844D01*
X030056Y025788D01*
X030092Y025729D01*
X030124Y025669D01*
X030153Y025607D01*
X030179Y025543D01*
X030200Y025478D01*
X030218Y025411D01*
X030232Y025344D01*
X030242Y025276D01*
X030248Y025208D01*
X030250Y025139D01*
X030248Y025070D01*
X030242Y025002D01*
X030232Y024934D01*
X030218Y024867D01*
X030200Y024800D01*
X030179Y024735D01*
X030153Y024671D01*
X030124Y024609D01*
X030092Y024548D01*
X030056Y024490D01*
X030016Y024434D01*
X029974Y024380D01*
X029928Y024329D01*
X029879Y024280D01*
X029828Y024234D01*
X029774Y024192D01*
X029718Y024152D01*
X029660Y024116D01*
X029599Y024084D01*
X029537Y024055D01*
X029473Y024029D01*
X029408Y024008D01*
X029341Y023990D01*
X029274Y023976D01*
X029206Y023966D01*
X029138Y023960D01*
X029069Y023958D01*
X029000Y023960D01*
X028932Y023966D01*
X028864Y023976D01*
X028797Y023990D01*
X028730Y024008D01*
X028665Y024029D01*
X028601Y024055D01*
X028539Y024084D01*
X028478Y024116D01*
X028420Y024152D01*
X028364Y024192D01*
X028310Y024234D01*
X028259Y024280D01*
X028210Y024329D01*
X028164Y024380D01*
X028122Y024434D01*
X028082Y024490D01*
X028046Y024548D01*
X028014Y024609D01*
X027985Y024671D01*
X027959Y024735D01*
X027938Y024800D01*
X027920Y024867D01*
X027906Y024934D01*
X027896Y025002D01*
X027890Y025070D01*
X027888Y025139D01*
X027888Y032639D02*
X027890Y032708D01*
X027896Y032776D01*
X027906Y032844D01*
X027920Y032911D01*
X027938Y032978D01*
X027959Y033043D01*
X027985Y033107D01*
X028014Y033169D01*
X028046Y033229D01*
X028082Y033288D01*
X028122Y033344D01*
X028164Y033398D01*
X028210Y033449D01*
X028259Y033498D01*
X028310Y033544D01*
X028364Y033586D01*
X028420Y033626D01*
X028478Y033662D01*
X028539Y033694D01*
X028601Y033723D01*
X028665Y033749D01*
X028730Y033770D01*
X028797Y033788D01*
X028864Y033802D01*
X028932Y033812D01*
X029000Y033818D01*
X029069Y033820D01*
X029138Y033818D01*
X029206Y033812D01*
X029274Y033802D01*
X029341Y033788D01*
X029408Y033770D01*
X029473Y033749D01*
X029537Y033723D01*
X029599Y033694D01*
X029659Y033662D01*
X029718Y033626D01*
X029774Y033586D01*
X029828Y033544D01*
X029879Y033498D01*
X029928Y033449D01*
X029974Y033398D01*
X030016Y033344D01*
X030056Y033288D01*
X030092Y033229D01*
X030124Y033169D01*
X030153Y033107D01*
X030179Y033043D01*
X030200Y032978D01*
X030218Y032911D01*
X030232Y032844D01*
X030242Y032776D01*
X030248Y032708D01*
X030250Y032639D01*
X030248Y032570D01*
X030242Y032502D01*
X030232Y032434D01*
X030218Y032367D01*
X030200Y032300D01*
X030179Y032235D01*
X030153Y032171D01*
X030124Y032109D01*
X030092Y032048D01*
X030056Y031990D01*
X030016Y031934D01*
X029974Y031880D01*
X029928Y031829D01*
X029879Y031780D01*
X029828Y031734D01*
X029774Y031692D01*
X029718Y031652D01*
X029660Y031616D01*
X029599Y031584D01*
X029537Y031555D01*
X029473Y031529D01*
X029408Y031508D01*
X029341Y031490D01*
X029274Y031476D01*
X029206Y031466D01*
X029138Y031460D01*
X029069Y031458D01*
X029000Y031460D01*
X028932Y031466D01*
X028864Y031476D01*
X028797Y031490D01*
X028730Y031508D01*
X028665Y031529D01*
X028601Y031555D01*
X028539Y031584D01*
X028478Y031616D01*
X028420Y031652D01*
X028364Y031692D01*
X028310Y031734D01*
X028259Y031780D01*
X028210Y031829D01*
X028164Y031880D01*
X028122Y031934D01*
X028082Y031990D01*
X028046Y032048D01*
X028014Y032109D01*
X027985Y032171D01*
X027959Y032235D01*
X027938Y032300D01*
X027920Y032367D01*
X027906Y032434D01*
X027896Y032502D01*
X027890Y032570D01*
X027888Y032639D01*
X027888Y040139D02*
X027890Y040208D01*
X027896Y040276D01*
X027906Y040344D01*
X027920Y040411D01*
X027938Y040478D01*
X027959Y040543D01*
X027985Y040607D01*
X028014Y040669D01*
X028046Y040729D01*
X028082Y040788D01*
X028122Y040844D01*
X028164Y040898D01*
X028210Y040949D01*
X028259Y040998D01*
X028310Y041044D01*
X028364Y041086D01*
X028420Y041126D01*
X028478Y041162D01*
X028539Y041194D01*
X028601Y041223D01*
X028665Y041249D01*
X028730Y041270D01*
X028797Y041288D01*
X028864Y041302D01*
X028932Y041312D01*
X029000Y041318D01*
X029069Y041320D01*
X029138Y041318D01*
X029206Y041312D01*
X029274Y041302D01*
X029341Y041288D01*
X029408Y041270D01*
X029473Y041249D01*
X029537Y041223D01*
X029599Y041194D01*
X029659Y041162D01*
X029718Y041126D01*
X029774Y041086D01*
X029828Y041044D01*
X029879Y040998D01*
X029928Y040949D01*
X029974Y040898D01*
X030016Y040844D01*
X030056Y040788D01*
X030092Y040729D01*
X030124Y040669D01*
X030153Y040607D01*
X030179Y040543D01*
X030200Y040478D01*
X030218Y040411D01*
X030232Y040344D01*
X030242Y040276D01*
X030248Y040208D01*
X030250Y040139D01*
X030248Y040070D01*
X030242Y040002D01*
X030232Y039934D01*
X030218Y039867D01*
X030200Y039800D01*
X030179Y039735D01*
X030153Y039671D01*
X030124Y039609D01*
X030092Y039548D01*
X030056Y039490D01*
X030016Y039434D01*
X029974Y039380D01*
X029928Y039329D01*
X029879Y039280D01*
X029828Y039234D01*
X029774Y039192D01*
X029718Y039152D01*
X029660Y039116D01*
X029599Y039084D01*
X029537Y039055D01*
X029473Y039029D01*
X029408Y039008D01*
X029341Y038990D01*
X029274Y038976D01*
X029206Y038966D01*
X029138Y038960D01*
X029069Y038958D01*
X029000Y038960D01*
X028932Y038966D01*
X028864Y038976D01*
X028797Y038990D01*
X028730Y039008D01*
X028665Y039029D01*
X028601Y039055D01*
X028539Y039084D01*
X028478Y039116D01*
X028420Y039152D01*
X028364Y039192D01*
X028310Y039234D01*
X028259Y039280D01*
X028210Y039329D01*
X028164Y039380D01*
X028122Y039434D01*
X028082Y039490D01*
X028046Y039548D01*
X028014Y039609D01*
X027985Y039671D01*
X027959Y039735D01*
X027938Y039800D01*
X027920Y039867D01*
X027906Y039934D01*
X027896Y040002D01*
X027890Y040070D01*
X027888Y040139D01*
D11*
X004069Y055139D02*
X004069Y001389D01*
X004071Y001321D01*
X004076Y001254D01*
X004085Y001187D01*
X004098Y001120D01*
X004115Y001055D01*
X004134Y000990D01*
X004158Y000926D01*
X004185Y000864D01*
X004215Y000803D01*
X004248Y000745D01*
X004284Y000688D01*
X004324Y000633D01*
X004366Y000580D01*
X004412Y000529D01*
X004459Y000482D01*
X004510Y000436D01*
X004563Y000394D01*
X004618Y000354D01*
X004675Y000318D01*
X004733Y000285D01*
X004794Y000255D01*
X004856Y000228D01*
X004920Y000204D01*
X004985Y000185D01*
X005050Y000168D01*
X005117Y000155D01*
X005184Y000146D01*
X005251Y000141D01*
X005319Y000139D01*
X037819Y000139D01*
X037887Y000141D01*
X037954Y000146D01*
X038021Y000155D01*
X038088Y000168D01*
X038153Y000185D01*
X038218Y000204D01*
X038282Y000228D01*
X038344Y000255D01*
X038405Y000285D01*
X038463Y000318D01*
X038520Y000354D01*
X038575Y000394D01*
X038628Y000436D01*
X038679Y000482D01*
X038726Y000529D01*
X038772Y000580D01*
X038814Y000633D01*
X038854Y000688D01*
X038890Y000745D01*
X038923Y000803D01*
X038953Y000864D01*
X038980Y000926D01*
X039004Y000990D01*
X039023Y001055D01*
X039040Y001120D01*
X039053Y001187D01*
X039062Y001254D01*
X039067Y001321D01*
X039069Y001389D01*
X039069Y055139D01*
X039067Y055207D01*
X039062Y055274D01*
X039053Y055341D01*
X039040Y055408D01*
X039023Y055473D01*
X039004Y055538D01*
X038980Y055602D01*
X038953Y055664D01*
X038923Y055725D01*
X038890Y055783D01*
X038854Y055840D01*
X038814Y055895D01*
X038772Y055948D01*
X038726Y055999D01*
X038679Y056046D01*
X038628Y056092D01*
X038575Y056134D01*
X038520Y056174D01*
X038463Y056210D01*
X038405Y056243D01*
X038344Y056273D01*
X038282Y056300D01*
X038218Y056324D01*
X038153Y056343D01*
X038088Y056360D01*
X038021Y056373D01*
X037954Y056382D01*
X037887Y056387D01*
X037819Y056389D01*
X005319Y056389D01*
X005251Y056387D01*
X005184Y056382D01*
X005117Y056373D01*
X005050Y056360D01*
X004985Y056343D01*
X004920Y056324D01*
X004856Y056300D01*
X004794Y056273D01*
X004733Y056243D01*
X004675Y056210D01*
X004618Y056174D01*
X004563Y056134D01*
X004510Y056092D01*
X004459Y056046D01*
X004412Y055999D01*
X004366Y055948D01*
X004324Y055895D01*
X004284Y055840D01*
X004248Y055783D01*
X004215Y055725D01*
X004185Y055664D01*
X004158Y055602D01*
X004134Y055538D01*
X004115Y055473D01*
X004098Y055408D01*
X004085Y055341D01*
X004076Y055274D01*
X004071Y055207D01*
X004069Y055139D01*
D12*
X010122Y043889D02*
X010124Y043916D01*
X010130Y043943D01*
X010139Y043969D01*
X010152Y043993D01*
X010168Y044016D01*
X010187Y044035D01*
X010209Y044052D01*
X010233Y044066D01*
X010258Y044076D01*
X010285Y044083D01*
X010312Y044086D01*
X010340Y044085D01*
X010367Y044080D01*
X010393Y044072D01*
X010417Y044060D01*
X010440Y044044D01*
X010461Y044026D01*
X010478Y044005D01*
X010493Y043981D01*
X010504Y043956D01*
X010512Y043930D01*
X010516Y043903D01*
X010516Y043875D01*
X010512Y043848D01*
X010504Y043822D01*
X010493Y043797D01*
X010478Y043773D01*
X010461Y043752D01*
X010440Y043734D01*
X010418Y043718D01*
X010393Y043706D01*
X010367Y043698D01*
X010340Y043693D01*
X010312Y043692D01*
X010285Y043695D01*
X010258Y043702D01*
X010233Y043712D01*
X010209Y043726D01*
X010187Y043743D01*
X010168Y043762D01*
X010152Y043785D01*
X010139Y043809D01*
X010130Y043835D01*
X010124Y043862D01*
X010122Y043889D01*
X010122Y036389D02*
X010124Y036416D01*
X010130Y036443D01*
X010139Y036469D01*
X010152Y036493D01*
X010168Y036516D01*
X010187Y036535D01*
X010209Y036552D01*
X010233Y036566D01*
X010258Y036576D01*
X010285Y036583D01*
X010312Y036586D01*
X010340Y036585D01*
X010367Y036580D01*
X010393Y036572D01*
X010417Y036560D01*
X010440Y036544D01*
X010461Y036526D01*
X010478Y036505D01*
X010493Y036481D01*
X010504Y036456D01*
X010512Y036430D01*
X010516Y036403D01*
X010516Y036375D01*
X010512Y036348D01*
X010504Y036322D01*
X010493Y036297D01*
X010478Y036273D01*
X010461Y036252D01*
X010440Y036234D01*
X010418Y036218D01*
X010393Y036206D01*
X010367Y036198D01*
X010340Y036193D01*
X010312Y036192D01*
X010285Y036195D01*
X010258Y036202D01*
X010233Y036212D01*
X010209Y036226D01*
X010187Y036243D01*
X010168Y036262D01*
X010152Y036285D01*
X010139Y036309D01*
X010130Y036335D01*
X010124Y036362D01*
X010122Y036389D01*
X010122Y028889D02*
X010124Y028916D01*
X010130Y028943D01*
X010139Y028969D01*
X010152Y028993D01*
X010168Y029016D01*
X010187Y029035D01*
X010209Y029052D01*
X010233Y029066D01*
X010258Y029076D01*
X010285Y029083D01*
X010312Y029086D01*
X010340Y029085D01*
X010367Y029080D01*
X010393Y029072D01*
X010417Y029060D01*
X010440Y029044D01*
X010461Y029026D01*
X010478Y029005D01*
X010493Y028981D01*
X010504Y028956D01*
X010512Y028930D01*
X010516Y028903D01*
X010516Y028875D01*
X010512Y028848D01*
X010504Y028822D01*
X010493Y028797D01*
X010478Y028773D01*
X010461Y028752D01*
X010440Y028734D01*
X010418Y028718D01*
X010393Y028706D01*
X010367Y028698D01*
X010340Y028693D01*
X010312Y028692D01*
X010285Y028695D01*
X010258Y028702D01*
X010233Y028712D01*
X010209Y028726D01*
X010187Y028743D01*
X010168Y028762D01*
X010152Y028785D01*
X010139Y028809D01*
X010130Y028835D01*
X010124Y028862D01*
X010122Y028889D01*
X010122Y021389D02*
X010124Y021416D01*
X010130Y021443D01*
X010139Y021469D01*
X010152Y021493D01*
X010168Y021516D01*
X010187Y021535D01*
X010209Y021552D01*
X010233Y021566D01*
X010258Y021576D01*
X010285Y021583D01*
X010312Y021586D01*
X010340Y021585D01*
X010367Y021580D01*
X010393Y021572D01*
X010417Y021560D01*
X010440Y021544D01*
X010461Y021526D01*
X010478Y021505D01*
X010493Y021481D01*
X010504Y021456D01*
X010512Y021430D01*
X010516Y021403D01*
X010516Y021375D01*
X010512Y021348D01*
X010504Y021322D01*
X010493Y021297D01*
X010478Y021273D01*
X010461Y021252D01*
X010440Y021234D01*
X010418Y021218D01*
X010393Y021206D01*
X010367Y021198D01*
X010340Y021193D01*
X010312Y021192D01*
X010285Y021195D01*
X010258Y021202D01*
X010233Y021212D01*
X010209Y021226D01*
X010187Y021243D01*
X010168Y021262D01*
X010152Y021285D01*
X010139Y021309D01*
X010130Y021335D01*
X010124Y021362D01*
X010122Y021389D01*
X010122Y013889D02*
X010124Y013916D01*
X010130Y013943D01*
X010139Y013969D01*
X010152Y013993D01*
X010168Y014016D01*
X010187Y014035D01*
X010209Y014052D01*
X010233Y014066D01*
X010258Y014076D01*
X010285Y014083D01*
X010312Y014086D01*
X010340Y014085D01*
X010367Y014080D01*
X010393Y014072D01*
X010417Y014060D01*
X010440Y014044D01*
X010461Y014026D01*
X010478Y014005D01*
X010493Y013981D01*
X010504Y013956D01*
X010512Y013930D01*
X010516Y013903D01*
X010516Y013875D01*
X010512Y013848D01*
X010504Y013822D01*
X010493Y013797D01*
X010478Y013773D01*
X010461Y013752D01*
X010440Y013734D01*
X010418Y013718D01*
X010393Y013706D01*
X010367Y013698D01*
X010340Y013693D01*
X010312Y013692D01*
X010285Y013695D01*
X010258Y013702D01*
X010233Y013712D01*
X010209Y013726D01*
X010187Y013743D01*
X010168Y013762D01*
X010152Y013785D01*
X010139Y013809D01*
X010130Y013835D01*
X010124Y013862D01*
X010122Y013889D01*
X010122Y006389D02*
X010124Y006416D01*
X010130Y006443D01*
X010139Y006469D01*
X010152Y006493D01*
X010168Y006516D01*
X010187Y006535D01*
X010209Y006552D01*
X010233Y006566D01*
X010258Y006576D01*
X010285Y006583D01*
X010312Y006586D01*
X010340Y006585D01*
X010367Y006580D01*
X010393Y006572D01*
X010417Y006560D01*
X010440Y006544D01*
X010461Y006526D01*
X010478Y006505D01*
X010493Y006481D01*
X010504Y006456D01*
X010512Y006430D01*
X010516Y006403D01*
X010516Y006375D01*
X010512Y006348D01*
X010504Y006322D01*
X010493Y006297D01*
X010478Y006273D01*
X010461Y006252D01*
X010440Y006234D01*
X010418Y006218D01*
X010393Y006206D01*
X010367Y006198D01*
X010340Y006193D01*
X010312Y006192D01*
X010285Y006195D01*
X010258Y006202D01*
X010233Y006212D01*
X010209Y006226D01*
X010187Y006243D01*
X010168Y006262D01*
X010152Y006285D01*
X010139Y006309D01*
X010130Y006335D01*
X010124Y006362D01*
X010122Y006389D01*
X017622Y006389D02*
X017624Y006416D01*
X017630Y006443D01*
X017639Y006469D01*
X017652Y006493D01*
X017668Y006516D01*
X017687Y006535D01*
X017709Y006552D01*
X017733Y006566D01*
X017758Y006576D01*
X017785Y006583D01*
X017812Y006586D01*
X017840Y006585D01*
X017867Y006580D01*
X017893Y006572D01*
X017917Y006560D01*
X017940Y006544D01*
X017961Y006526D01*
X017978Y006505D01*
X017993Y006481D01*
X018004Y006456D01*
X018012Y006430D01*
X018016Y006403D01*
X018016Y006375D01*
X018012Y006348D01*
X018004Y006322D01*
X017993Y006297D01*
X017978Y006273D01*
X017961Y006252D01*
X017940Y006234D01*
X017918Y006218D01*
X017893Y006206D01*
X017867Y006198D01*
X017840Y006193D01*
X017812Y006192D01*
X017785Y006195D01*
X017758Y006202D01*
X017733Y006212D01*
X017709Y006226D01*
X017687Y006243D01*
X017668Y006262D01*
X017652Y006285D01*
X017639Y006309D01*
X017630Y006335D01*
X017624Y006362D01*
X017622Y006389D01*
X017622Y013889D02*
X017624Y013916D01*
X017630Y013943D01*
X017639Y013969D01*
X017652Y013993D01*
X017668Y014016D01*
X017687Y014035D01*
X017709Y014052D01*
X017733Y014066D01*
X017758Y014076D01*
X017785Y014083D01*
X017812Y014086D01*
X017840Y014085D01*
X017867Y014080D01*
X017893Y014072D01*
X017917Y014060D01*
X017940Y014044D01*
X017961Y014026D01*
X017978Y014005D01*
X017993Y013981D01*
X018004Y013956D01*
X018012Y013930D01*
X018016Y013903D01*
X018016Y013875D01*
X018012Y013848D01*
X018004Y013822D01*
X017993Y013797D01*
X017978Y013773D01*
X017961Y013752D01*
X017940Y013734D01*
X017918Y013718D01*
X017893Y013706D01*
X017867Y013698D01*
X017840Y013693D01*
X017812Y013692D01*
X017785Y013695D01*
X017758Y013702D01*
X017733Y013712D01*
X017709Y013726D01*
X017687Y013743D01*
X017668Y013762D01*
X017652Y013785D01*
X017639Y013809D01*
X017630Y013835D01*
X017624Y013862D01*
X017622Y013889D01*
X017622Y021389D02*
X017624Y021416D01*
X017630Y021443D01*
X017639Y021469D01*
X017652Y021493D01*
X017668Y021516D01*
X017687Y021535D01*
X017709Y021552D01*
X017733Y021566D01*
X017758Y021576D01*
X017785Y021583D01*
X017812Y021586D01*
X017840Y021585D01*
X017867Y021580D01*
X017893Y021572D01*
X017917Y021560D01*
X017940Y021544D01*
X017961Y021526D01*
X017978Y021505D01*
X017993Y021481D01*
X018004Y021456D01*
X018012Y021430D01*
X018016Y021403D01*
X018016Y021375D01*
X018012Y021348D01*
X018004Y021322D01*
X017993Y021297D01*
X017978Y021273D01*
X017961Y021252D01*
X017940Y021234D01*
X017918Y021218D01*
X017893Y021206D01*
X017867Y021198D01*
X017840Y021193D01*
X017812Y021192D01*
X017785Y021195D01*
X017758Y021202D01*
X017733Y021212D01*
X017709Y021226D01*
X017687Y021243D01*
X017668Y021262D01*
X017652Y021285D01*
X017639Y021309D01*
X017630Y021335D01*
X017624Y021362D01*
X017622Y021389D01*
X017622Y028889D02*
X017624Y028916D01*
X017630Y028943D01*
X017639Y028969D01*
X017652Y028993D01*
X017668Y029016D01*
X017687Y029035D01*
X017709Y029052D01*
X017733Y029066D01*
X017758Y029076D01*
X017785Y029083D01*
X017812Y029086D01*
X017840Y029085D01*
X017867Y029080D01*
X017893Y029072D01*
X017917Y029060D01*
X017940Y029044D01*
X017961Y029026D01*
X017978Y029005D01*
X017993Y028981D01*
X018004Y028956D01*
X018012Y028930D01*
X018016Y028903D01*
X018016Y028875D01*
X018012Y028848D01*
X018004Y028822D01*
X017993Y028797D01*
X017978Y028773D01*
X017961Y028752D01*
X017940Y028734D01*
X017918Y028718D01*
X017893Y028706D01*
X017867Y028698D01*
X017840Y028693D01*
X017812Y028692D01*
X017785Y028695D01*
X017758Y028702D01*
X017733Y028712D01*
X017709Y028726D01*
X017687Y028743D01*
X017668Y028762D01*
X017652Y028785D01*
X017639Y028809D01*
X017630Y028835D01*
X017624Y028862D01*
X017622Y028889D01*
X017622Y036389D02*
X017624Y036416D01*
X017630Y036443D01*
X017639Y036469D01*
X017652Y036493D01*
X017668Y036516D01*
X017687Y036535D01*
X017709Y036552D01*
X017733Y036566D01*
X017758Y036576D01*
X017785Y036583D01*
X017812Y036586D01*
X017840Y036585D01*
X017867Y036580D01*
X017893Y036572D01*
X017917Y036560D01*
X017940Y036544D01*
X017961Y036526D01*
X017978Y036505D01*
X017993Y036481D01*
X018004Y036456D01*
X018012Y036430D01*
X018016Y036403D01*
X018016Y036375D01*
X018012Y036348D01*
X018004Y036322D01*
X017993Y036297D01*
X017978Y036273D01*
X017961Y036252D01*
X017940Y036234D01*
X017918Y036218D01*
X017893Y036206D01*
X017867Y036198D01*
X017840Y036193D01*
X017812Y036192D01*
X017785Y036195D01*
X017758Y036202D01*
X017733Y036212D01*
X017709Y036226D01*
X017687Y036243D01*
X017668Y036262D01*
X017652Y036285D01*
X017639Y036309D01*
X017630Y036335D01*
X017624Y036362D01*
X017622Y036389D01*
X017622Y043889D02*
X017624Y043916D01*
X017630Y043943D01*
X017639Y043969D01*
X017652Y043993D01*
X017668Y044016D01*
X017687Y044035D01*
X017709Y044052D01*
X017733Y044066D01*
X017758Y044076D01*
X017785Y044083D01*
X017812Y044086D01*
X017840Y044085D01*
X017867Y044080D01*
X017893Y044072D01*
X017917Y044060D01*
X017940Y044044D01*
X017961Y044026D01*
X017978Y044005D01*
X017993Y043981D01*
X018004Y043956D01*
X018012Y043930D01*
X018016Y043903D01*
X018016Y043875D01*
X018012Y043848D01*
X018004Y043822D01*
X017993Y043797D01*
X017978Y043773D01*
X017961Y043752D01*
X017940Y043734D01*
X017918Y043718D01*
X017893Y043706D01*
X017867Y043698D01*
X017840Y043693D01*
X017812Y043692D01*
X017785Y043695D01*
X017758Y043702D01*
X017733Y043712D01*
X017709Y043726D01*
X017687Y043743D01*
X017668Y043762D01*
X017652Y043785D01*
X017639Y043809D01*
X017630Y043835D01*
X017624Y043862D01*
X017622Y043889D01*
X025122Y043889D02*
X025124Y043916D01*
X025130Y043943D01*
X025139Y043969D01*
X025152Y043993D01*
X025168Y044016D01*
X025187Y044035D01*
X025209Y044052D01*
X025233Y044066D01*
X025258Y044076D01*
X025285Y044083D01*
X025312Y044086D01*
X025340Y044085D01*
X025367Y044080D01*
X025393Y044072D01*
X025417Y044060D01*
X025440Y044044D01*
X025461Y044026D01*
X025478Y044005D01*
X025493Y043981D01*
X025504Y043956D01*
X025512Y043930D01*
X025516Y043903D01*
X025516Y043875D01*
X025512Y043848D01*
X025504Y043822D01*
X025493Y043797D01*
X025478Y043773D01*
X025461Y043752D01*
X025440Y043734D01*
X025418Y043718D01*
X025393Y043706D01*
X025367Y043698D01*
X025340Y043693D01*
X025312Y043692D01*
X025285Y043695D01*
X025258Y043702D01*
X025233Y043712D01*
X025209Y043726D01*
X025187Y043743D01*
X025168Y043762D01*
X025152Y043785D01*
X025139Y043809D01*
X025130Y043835D01*
X025124Y043862D01*
X025122Y043889D01*
X025122Y036389D02*
X025124Y036416D01*
X025130Y036443D01*
X025139Y036469D01*
X025152Y036493D01*
X025168Y036516D01*
X025187Y036535D01*
X025209Y036552D01*
X025233Y036566D01*
X025258Y036576D01*
X025285Y036583D01*
X025312Y036586D01*
X025340Y036585D01*
X025367Y036580D01*
X025393Y036572D01*
X025417Y036560D01*
X025440Y036544D01*
X025461Y036526D01*
X025478Y036505D01*
X025493Y036481D01*
X025504Y036456D01*
X025512Y036430D01*
X025516Y036403D01*
X025516Y036375D01*
X025512Y036348D01*
X025504Y036322D01*
X025493Y036297D01*
X025478Y036273D01*
X025461Y036252D01*
X025440Y036234D01*
X025418Y036218D01*
X025393Y036206D01*
X025367Y036198D01*
X025340Y036193D01*
X025312Y036192D01*
X025285Y036195D01*
X025258Y036202D01*
X025233Y036212D01*
X025209Y036226D01*
X025187Y036243D01*
X025168Y036262D01*
X025152Y036285D01*
X025139Y036309D01*
X025130Y036335D01*
X025124Y036362D01*
X025122Y036389D01*
X025122Y028889D02*
X025124Y028916D01*
X025130Y028943D01*
X025139Y028969D01*
X025152Y028993D01*
X025168Y029016D01*
X025187Y029035D01*
X025209Y029052D01*
X025233Y029066D01*
X025258Y029076D01*
X025285Y029083D01*
X025312Y029086D01*
X025340Y029085D01*
X025367Y029080D01*
X025393Y029072D01*
X025417Y029060D01*
X025440Y029044D01*
X025461Y029026D01*
X025478Y029005D01*
X025493Y028981D01*
X025504Y028956D01*
X025512Y028930D01*
X025516Y028903D01*
X025516Y028875D01*
X025512Y028848D01*
X025504Y028822D01*
X025493Y028797D01*
X025478Y028773D01*
X025461Y028752D01*
X025440Y028734D01*
X025418Y028718D01*
X025393Y028706D01*
X025367Y028698D01*
X025340Y028693D01*
X025312Y028692D01*
X025285Y028695D01*
X025258Y028702D01*
X025233Y028712D01*
X025209Y028726D01*
X025187Y028743D01*
X025168Y028762D01*
X025152Y028785D01*
X025139Y028809D01*
X025130Y028835D01*
X025124Y028862D01*
X025122Y028889D01*
X025122Y021389D02*
X025124Y021416D01*
X025130Y021443D01*
X025139Y021469D01*
X025152Y021493D01*
X025168Y021516D01*
X025187Y021535D01*
X025209Y021552D01*
X025233Y021566D01*
X025258Y021576D01*
X025285Y021583D01*
X025312Y021586D01*
X025340Y021585D01*
X025367Y021580D01*
X025393Y021572D01*
X025417Y021560D01*
X025440Y021544D01*
X025461Y021526D01*
X025478Y021505D01*
X025493Y021481D01*
X025504Y021456D01*
X025512Y021430D01*
X025516Y021403D01*
X025516Y021375D01*
X025512Y021348D01*
X025504Y021322D01*
X025493Y021297D01*
X025478Y021273D01*
X025461Y021252D01*
X025440Y021234D01*
X025418Y021218D01*
X025393Y021206D01*
X025367Y021198D01*
X025340Y021193D01*
X025312Y021192D01*
X025285Y021195D01*
X025258Y021202D01*
X025233Y021212D01*
X025209Y021226D01*
X025187Y021243D01*
X025168Y021262D01*
X025152Y021285D01*
X025139Y021309D01*
X025130Y021335D01*
X025124Y021362D01*
X025122Y021389D01*
X025122Y013889D02*
X025124Y013916D01*
X025130Y013943D01*
X025139Y013969D01*
X025152Y013993D01*
X025168Y014016D01*
X025187Y014035D01*
X025209Y014052D01*
X025233Y014066D01*
X025258Y014076D01*
X025285Y014083D01*
X025312Y014086D01*
X025340Y014085D01*
X025367Y014080D01*
X025393Y014072D01*
X025417Y014060D01*
X025440Y014044D01*
X025461Y014026D01*
X025478Y014005D01*
X025493Y013981D01*
X025504Y013956D01*
X025512Y013930D01*
X025516Y013903D01*
X025516Y013875D01*
X025512Y013848D01*
X025504Y013822D01*
X025493Y013797D01*
X025478Y013773D01*
X025461Y013752D01*
X025440Y013734D01*
X025418Y013718D01*
X025393Y013706D01*
X025367Y013698D01*
X025340Y013693D01*
X025312Y013692D01*
X025285Y013695D01*
X025258Y013702D01*
X025233Y013712D01*
X025209Y013726D01*
X025187Y013743D01*
X025168Y013762D01*
X025152Y013785D01*
X025139Y013809D01*
X025130Y013835D01*
X025124Y013862D01*
X025122Y013889D01*
X025122Y006389D02*
X025124Y006416D01*
X025130Y006443D01*
X025139Y006469D01*
X025152Y006493D01*
X025168Y006516D01*
X025187Y006535D01*
X025209Y006552D01*
X025233Y006566D01*
X025258Y006576D01*
X025285Y006583D01*
X025312Y006586D01*
X025340Y006585D01*
X025367Y006580D01*
X025393Y006572D01*
X025417Y006560D01*
X025440Y006544D01*
X025461Y006526D01*
X025478Y006505D01*
X025493Y006481D01*
X025504Y006456D01*
X025512Y006430D01*
X025516Y006403D01*
X025516Y006375D01*
X025512Y006348D01*
X025504Y006322D01*
X025493Y006297D01*
X025478Y006273D01*
X025461Y006252D01*
X025440Y006234D01*
X025418Y006218D01*
X025393Y006206D01*
X025367Y006198D01*
X025340Y006193D01*
X025312Y006192D01*
X025285Y006195D01*
X025258Y006202D01*
X025233Y006212D01*
X025209Y006226D01*
X025187Y006243D01*
X025168Y006262D01*
X025152Y006285D01*
X025139Y006309D01*
X025130Y006335D01*
X025124Y006362D01*
X025122Y006389D01*
X032622Y010139D02*
X032624Y010166D01*
X032630Y010193D01*
X032639Y010219D01*
X032652Y010243D01*
X032668Y010266D01*
X032687Y010285D01*
X032709Y010302D01*
X032733Y010316D01*
X032758Y010326D01*
X032785Y010333D01*
X032812Y010336D01*
X032840Y010335D01*
X032867Y010330D01*
X032893Y010322D01*
X032917Y010310D01*
X032940Y010294D01*
X032961Y010276D01*
X032978Y010255D01*
X032993Y010231D01*
X033004Y010206D01*
X033012Y010180D01*
X033016Y010153D01*
X033016Y010125D01*
X033012Y010098D01*
X033004Y010072D01*
X032993Y010047D01*
X032978Y010023D01*
X032961Y010002D01*
X032940Y009984D01*
X032918Y009968D01*
X032893Y009956D01*
X032867Y009948D01*
X032840Y009943D01*
X032812Y009942D01*
X032785Y009945D01*
X032758Y009952D01*
X032733Y009962D01*
X032709Y009976D01*
X032687Y009993D01*
X032668Y010012D01*
X032652Y010035D01*
X032639Y010059D01*
X032630Y010085D01*
X032624Y010112D01*
X032622Y010139D01*
X032622Y013889D02*
X032624Y013916D01*
X032630Y013943D01*
X032639Y013969D01*
X032652Y013993D01*
X032668Y014016D01*
X032687Y014035D01*
X032709Y014052D01*
X032733Y014066D01*
X032758Y014076D01*
X032785Y014083D01*
X032812Y014086D01*
X032840Y014085D01*
X032867Y014080D01*
X032893Y014072D01*
X032917Y014060D01*
X032940Y014044D01*
X032961Y014026D01*
X032978Y014005D01*
X032993Y013981D01*
X033004Y013956D01*
X033012Y013930D01*
X033016Y013903D01*
X033016Y013875D01*
X033012Y013848D01*
X033004Y013822D01*
X032993Y013797D01*
X032978Y013773D01*
X032961Y013752D01*
X032940Y013734D01*
X032918Y013718D01*
X032893Y013706D01*
X032867Y013698D01*
X032840Y013693D01*
X032812Y013692D01*
X032785Y013695D01*
X032758Y013702D01*
X032733Y013712D01*
X032709Y013726D01*
X032687Y013743D01*
X032668Y013762D01*
X032652Y013785D01*
X032639Y013809D01*
X032630Y013835D01*
X032624Y013862D01*
X032622Y013889D01*
X032622Y021389D02*
X032624Y021416D01*
X032630Y021443D01*
X032639Y021469D01*
X032652Y021493D01*
X032668Y021516D01*
X032687Y021535D01*
X032709Y021552D01*
X032733Y021566D01*
X032758Y021576D01*
X032785Y021583D01*
X032812Y021586D01*
X032840Y021585D01*
X032867Y021580D01*
X032893Y021572D01*
X032917Y021560D01*
X032940Y021544D01*
X032961Y021526D01*
X032978Y021505D01*
X032993Y021481D01*
X033004Y021456D01*
X033012Y021430D01*
X033016Y021403D01*
X033016Y021375D01*
X033012Y021348D01*
X033004Y021322D01*
X032993Y021297D01*
X032978Y021273D01*
X032961Y021252D01*
X032940Y021234D01*
X032918Y021218D01*
X032893Y021206D01*
X032867Y021198D01*
X032840Y021193D01*
X032812Y021192D01*
X032785Y021195D01*
X032758Y021202D01*
X032733Y021212D01*
X032709Y021226D01*
X032687Y021243D01*
X032668Y021262D01*
X032652Y021285D01*
X032639Y021309D01*
X032630Y021335D01*
X032624Y021362D01*
X032622Y021389D01*
X032622Y028889D02*
X032624Y028916D01*
X032630Y028943D01*
X032639Y028969D01*
X032652Y028993D01*
X032668Y029016D01*
X032687Y029035D01*
X032709Y029052D01*
X032733Y029066D01*
X032758Y029076D01*
X032785Y029083D01*
X032812Y029086D01*
X032840Y029085D01*
X032867Y029080D01*
X032893Y029072D01*
X032917Y029060D01*
X032940Y029044D01*
X032961Y029026D01*
X032978Y029005D01*
X032993Y028981D01*
X033004Y028956D01*
X033012Y028930D01*
X033016Y028903D01*
X033016Y028875D01*
X033012Y028848D01*
X033004Y028822D01*
X032993Y028797D01*
X032978Y028773D01*
X032961Y028752D01*
X032940Y028734D01*
X032918Y028718D01*
X032893Y028706D01*
X032867Y028698D01*
X032840Y028693D01*
X032812Y028692D01*
X032785Y028695D01*
X032758Y028702D01*
X032733Y028712D01*
X032709Y028726D01*
X032687Y028743D01*
X032668Y028762D01*
X032652Y028785D01*
X032639Y028809D01*
X032630Y028835D01*
X032624Y028862D01*
X032622Y028889D01*
X032622Y036389D02*
X032624Y036416D01*
X032630Y036443D01*
X032639Y036469D01*
X032652Y036493D01*
X032668Y036516D01*
X032687Y036535D01*
X032709Y036552D01*
X032733Y036566D01*
X032758Y036576D01*
X032785Y036583D01*
X032812Y036586D01*
X032840Y036585D01*
X032867Y036580D01*
X032893Y036572D01*
X032917Y036560D01*
X032940Y036544D01*
X032961Y036526D01*
X032978Y036505D01*
X032993Y036481D01*
X033004Y036456D01*
X033012Y036430D01*
X033016Y036403D01*
X033016Y036375D01*
X033012Y036348D01*
X033004Y036322D01*
X032993Y036297D01*
X032978Y036273D01*
X032961Y036252D01*
X032940Y036234D01*
X032918Y036218D01*
X032893Y036206D01*
X032867Y036198D01*
X032840Y036193D01*
X032812Y036192D01*
X032785Y036195D01*
X032758Y036202D01*
X032733Y036212D01*
X032709Y036226D01*
X032687Y036243D01*
X032668Y036262D01*
X032652Y036285D01*
X032639Y036309D01*
X032630Y036335D01*
X032624Y036362D01*
X032622Y036389D01*
X032622Y043889D02*
X032624Y043916D01*
X032630Y043943D01*
X032639Y043969D01*
X032652Y043993D01*
X032668Y044016D01*
X032687Y044035D01*
X032709Y044052D01*
X032733Y044066D01*
X032758Y044076D01*
X032785Y044083D01*
X032812Y044086D01*
X032840Y044085D01*
X032867Y044080D01*
X032893Y044072D01*
X032917Y044060D01*
X032940Y044044D01*
X032961Y044026D01*
X032978Y044005D01*
X032993Y043981D01*
X033004Y043956D01*
X033012Y043930D01*
X033016Y043903D01*
X033016Y043875D01*
X033012Y043848D01*
X033004Y043822D01*
X032993Y043797D01*
X032978Y043773D01*
X032961Y043752D01*
X032940Y043734D01*
X032918Y043718D01*
X032893Y043706D01*
X032867Y043698D01*
X032840Y043693D01*
X032812Y043692D01*
X032785Y043695D01*
X032758Y043702D01*
X032733Y043712D01*
X032709Y043726D01*
X032687Y043743D01*
X032668Y043762D01*
X032652Y043785D01*
X032639Y043809D01*
X032630Y043835D01*
X032624Y043862D01*
X032622Y043889D01*
M02*
