G75*
G70*
%OFA0B0*%
%FSLAX24Y24*%
%IPPOS*%
%LPD*%
%AMOC8*
5,1,8,0,0,1.08239X$1,22.5*
%
%ADD10C,0.0050*%
%ADD11C,0.0040*%
%ADD12C,0.0079*%
%ADD13C,0.0060*%
%ADD14R,0.0100X0.0200*%
%ADD15C,0.0080*%
%ADD16C,0.0100*%
%ADD17R,0.0295X0.0669*%
%ADD18C,0.0059*%
D10*
X007319Y003389D02*
X007319Y009389D01*
X013319Y009389D01*
X013319Y003389D01*
X007319Y003389D01*
X007319Y010889D02*
X007319Y016889D01*
X013319Y016889D01*
X013319Y010889D01*
X007319Y010889D01*
X007319Y018389D02*
X007319Y024389D01*
X013319Y024389D01*
X013319Y018389D01*
X007319Y018389D01*
X007319Y025889D02*
X007319Y031889D01*
X013319Y031889D01*
X013319Y025889D01*
X007319Y025889D01*
X007319Y033389D02*
X007319Y039389D01*
X013319Y039389D01*
X013319Y033389D01*
X007319Y033389D01*
X007319Y040889D02*
X007319Y046889D01*
X013319Y046889D01*
X013319Y040889D01*
X007319Y040889D01*
X007969Y047314D02*
X007894Y047389D01*
X007969Y047314D02*
X008119Y047314D01*
X008194Y047389D01*
X008194Y047464D01*
X008119Y047540D01*
X008044Y047540D01*
X008119Y047540D02*
X008194Y047615D01*
X008194Y047690D01*
X008119Y047765D01*
X007969Y047765D01*
X007894Y047690D01*
X008354Y047765D02*
X008354Y047314D01*
X008579Y047314D01*
X008654Y047389D01*
X008654Y047690D01*
X008579Y047765D01*
X008354Y047765D01*
X008814Y047690D02*
X008889Y047765D01*
X009039Y047765D01*
X009115Y047690D01*
X009115Y047615D01*
X008814Y047314D01*
X009115Y047314D01*
X014819Y046889D02*
X014819Y040889D01*
X020819Y040889D01*
X020819Y046889D01*
X014819Y046889D01*
X014752Y048454D02*
X015052Y048454D01*
X015212Y048454D02*
X015513Y048454D01*
X015673Y048454D02*
X015898Y048454D01*
X015973Y048529D01*
X015973Y048830D01*
X015898Y048905D01*
X015673Y048905D01*
X015673Y048454D01*
X015362Y048680D02*
X015212Y048680D01*
X015212Y048905D02*
X015212Y048454D01*
X015212Y048905D02*
X015513Y048905D01*
X016133Y048755D02*
X016283Y048905D01*
X016283Y048454D01*
X016133Y048454D02*
X016433Y048454D01*
X014752Y048454D02*
X014752Y048905D01*
X015873Y053789D02*
X015798Y053864D01*
X015873Y053789D02*
X016023Y053789D01*
X016098Y053864D01*
X016098Y053939D01*
X016023Y054015D01*
X015873Y054015D01*
X015798Y054090D01*
X015798Y054165D01*
X015873Y054240D01*
X016023Y054240D01*
X016098Y054165D01*
X016258Y054090D02*
X016408Y054240D01*
X016408Y053789D01*
X016258Y053789D02*
X016558Y053789D01*
X019019Y053639D02*
X019319Y053639D01*
X019169Y053639D02*
X019169Y054090D01*
X019019Y053940D01*
X024094Y051815D02*
X024094Y051740D01*
X024169Y051665D01*
X024319Y051665D01*
X024394Y051589D01*
X024394Y051514D01*
X024319Y051439D01*
X024169Y051439D01*
X024094Y051514D01*
X024094Y051815D02*
X024169Y051890D01*
X024319Y051890D01*
X024394Y051815D01*
X024554Y051890D02*
X024554Y051589D01*
X024704Y051439D01*
X024854Y051589D01*
X024854Y051890D01*
X025014Y051740D02*
X025164Y051890D01*
X025164Y051439D01*
X025014Y051439D02*
X025315Y051439D01*
X027094Y053639D02*
X027244Y053639D01*
X027319Y053714D01*
X027319Y054015D01*
X027244Y054090D01*
X027094Y054090D01*
X027019Y054015D01*
X027019Y053940D01*
X027094Y053865D01*
X027319Y053865D01*
X027094Y053639D02*
X027019Y053714D01*
X028319Y046889D02*
X022319Y046889D01*
X022319Y040889D01*
X028319Y040889D01*
X028319Y046889D01*
X029819Y046889D02*
X035819Y046889D01*
X035819Y040889D01*
X029819Y040889D01*
X029819Y046889D01*
X029819Y039389D02*
X035819Y039389D01*
X035819Y033389D01*
X029819Y033389D01*
X029819Y039389D01*
X028319Y039389D02*
X028319Y033389D01*
X022319Y033389D01*
X022319Y039389D01*
X028319Y039389D01*
X028319Y031889D02*
X028319Y025889D01*
X022319Y025889D01*
X022319Y031889D01*
X028319Y031889D01*
X029819Y031889D02*
X035819Y031889D01*
X035819Y025889D01*
X029819Y025889D01*
X029819Y031889D01*
X029819Y024389D02*
X035819Y024389D01*
X035819Y018389D01*
X029819Y018389D01*
X029819Y024389D01*
X028319Y024389D02*
X028319Y018389D01*
X022319Y018389D01*
X022319Y024389D01*
X028319Y024389D01*
X028319Y016889D02*
X028319Y010889D01*
X022319Y010889D01*
X022319Y016889D01*
X028319Y016889D01*
X029819Y016889D02*
X035819Y016889D01*
X035819Y010889D01*
X029819Y010889D01*
X029819Y016889D01*
X029819Y013139D02*
X035819Y013139D01*
X035819Y007139D01*
X029819Y007139D01*
X029819Y013139D01*
X028319Y009389D02*
X028319Y003389D01*
X022319Y003389D01*
X022319Y009389D01*
X028319Y009389D01*
X020819Y009389D02*
X020819Y003389D01*
X014819Y003389D01*
X014819Y009389D01*
X020819Y009389D01*
X020819Y010889D02*
X020819Y016889D01*
X014819Y016889D01*
X014819Y010889D01*
X020819Y010889D01*
X020819Y018389D02*
X020819Y024389D01*
X014819Y024389D01*
X014819Y018389D01*
X020819Y018389D01*
X020819Y025889D02*
X020819Y031889D01*
X014819Y031889D01*
X014819Y025889D01*
X020819Y025889D01*
X020819Y033389D02*
X020819Y039389D01*
X014819Y039389D01*
X014819Y033389D01*
X020819Y033389D01*
X036751Y051377D02*
X036673Y051667D01*
X036712Y051522D02*
X037147Y051639D01*
X036963Y051745D01*
X036994Y051919D02*
X037048Y052011D01*
X036989Y052228D01*
X036554Y052112D01*
X036613Y051894D01*
X036704Y051841D01*
X036994Y051919D01*
X036875Y052364D02*
X036803Y052344D01*
X036711Y052397D01*
X036658Y052305D01*
X036585Y052286D01*
X036493Y052339D01*
X036454Y052484D01*
X036508Y052576D01*
X036691Y052470D02*
X036711Y052397D01*
X036875Y052364D02*
X036928Y052456D01*
X036890Y052601D01*
X036798Y052654D01*
D11*
X034032Y041870D02*
X034032Y041409D01*
X034185Y041409D02*
X033878Y041409D01*
X033725Y041486D02*
X033725Y041793D01*
X033648Y041870D01*
X033494Y041870D01*
X033418Y041793D01*
X033418Y041716D01*
X033494Y041640D01*
X033725Y041640D01*
X033725Y041486D02*
X033648Y041409D01*
X033494Y041409D01*
X033418Y041486D01*
X033264Y041486D02*
X033188Y041409D01*
X033034Y041409D01*
X032957Y041486D01*
X033034Y041640D02*
X033188Y041640D01*
X033264Y041563D01*
X033264Y041486D01*
X033034Y041640D02*
X032957Y041716D01*
X032957Y041793D01*
X033034Y041870D01*
X033188Y041870D01*
X033264Y041793D01*
X033878Y041716D02*
X034032Y041870D01*
X034185Y034370D02*
X033878Y034370D01*
X033878Y034140D01*
X034032Y034216D01*
X034108Y034216D01*
X034185Y034140D01*
X034185Y033986D01*
X034108Y033909D01*
X033955Y033909D01*
X033878Y033986D01*
X033725Y033986D02*
X033725Y034293D01*
X033648Y034370D01*
X033494Y034370D01*
X033418Y034293D01*
X033418Y034216D01*
X033494Y034140D01*
X033725Y034140D01*
X033725Y033986D02*
X033648Y033909D01*
X033494Y033909D01*
X033418Y033986D01*
X033264Y033986D02*
X033188Y033909D01*
X033034Y033909D01*
X032957Y033986D01*
X033034Y034140D02*
X033188Y034140D01*
X033264Y034063D01*
X033264Y033986D01*
X033034Y034140D02*
X032957Y034216D01*
X032957Y034293D01*
X033034Y034370D01*
X033188Y034370D01*
X033264Y034293D01*
X031108Y028120D02*
X030955Y028120D01*
X030878Y028043D01*
X030878Y027966D01*
X030955Y027890D01*
X031185Y027890D01*
X031185Y028043D02*
X031108Y028120D01*
X031185Y028043D02*
X031185Y027736D01*
X031108Y027659D01*
X030955Y027659D01*
X030878Y027736D01*
X030725Y027736D02*
X030725Y028043D01*
X030648Y028120D01*
X030494Y028120D01*
X030418Y028043D01*
X030418Y027966D01*
X030494Y027890D01*
X030725Y027890D01*
X030725Y027736D02*
X030648Y027659D01*
X030494Y027659D01*
X030418Y027736D01*
X030264Y027736D02*
X030188Y027659D01*
X030034Y027659D01*
X029957Y027736D01*
X030034Y027890D02*
X030188Y027890D01*
X030264Y027813D01*
X030264Y027736D01*
X030034Y027890D02*
X029957Y027966D01*
X029957Y028043D01*
X030034Y028120D01*
X030188Y028120D01*
X030264Y028043D01*
X026685Y026793D02*
X026685Y026716D01*
X026608Y026640D01*
X026455Y026640D01*
X026378Y026716D01*
X026378Y026793D01*
X026455Y026870D01*
X026608Y026870D01*
X026685Y026793D01*
X026608Y026640D02*
X026685Y026563D01*
X026685Y026486D01*
X026608Y026409D01*
X026455Y026409D01*
X026378Y026486D01*
X026378Y026563D01*
X026455Y026640D01*
X026225Y026640D02*
X025994Y026640D01*
X025918Y026716D01*
X025918Y026793D01*
X025994Y026870D01*
X026148Y026870D01*
X026225Y026793D01*
X026225Y026486D01*
X026148Y026409D01*
X025994Y026409D01*
X025918Y026486D01*
X025764Y026486D02*
X025688Y026409D01*
X025534Y026409D01*
X025457Y026486D01*
X025534Y026640D02*
X025688Y026640D01*
X025764Y026563D01*
X025764Y026486D01*
X025534Y026640D02*
X025457Y026716D01*
X025457Y026793D01*
X025534Y026870D01*
X025688Y026870D01*
X025764Y026793D01*
X025688Y033909D02*
X025534Y033909D01*
X025457Y033986D01*
X025534Y034140D02*
X025688Y034140D01*
X025764Y034063D01*
X025764Y033986D01*
X025688Y033909D01*
X025918Y033986D02*
X025994Y033909D01*
X026148Y033909D01*
X026225Y033986D01*
X026225Y034293D01*
X026148Y034370D01*
X025994Y034370D01*
X025918Y034293D01*
X025918Y034216D01*
X025994Y034140D01*
X026225Y034140D01*
X026378Y034140D02*
X026685Y034140D01*
X026608Y034370D02*
X026608Y033909D01*
X026378Y034140D02*
X026608Y034370D01*
X025764Y034293D02*
X025688Y034370D01*
X025534Y034370D01*
X025457Y034293D01*
X025457Y034216D01*
X025534Y034140D01*
X025534Y041409D02*
X025457Y041486D01*
X025534Y041409D02*
X025688Y041409D01*
X025764Y041486D01*
X025764Y041563D01*
X025688Y041640D01*
X025534Y041640D01*
X025457Y041716D01*
X025457Y041793D01*
X025534Y041870D01*
X025688Y041870D01*
X025764Y041793D01*
X025918Y041793D02*
X025918Y041716D01*
X025994Y041640D01*
X026225Y041640D01*
X026225Y041793D02*
X026148Y041870D01*
X025994Y041870D01*
X025918Y041793D01*
X026225Y041793D02*
X026225Y041486D01*
X026148Y041409D01*
X025994Y041409D01*
X025918Y041486D01*
X026378Y041486D02*
X026685Y041793D01*
X026685Y041486D01*
X026608Y041409D01*
X026455Y041409D01*
X026378Y041486D01*
X026378Y041793D01*
X026455Y041870D01*
X026608Y041870D01*
X026685Y041793D01*
X019185Y041793D02*
X019108Y041870D01*
X018955Y041870D01*
X018878Y041793D01*
X018878Y041716D01*
X018955Y041640D01*
X019185Y041640D01*
X019185Y041793D02*
X019185Y041486D01*
X019108Y041409D01*
X018955Y041409D01*
X018878Y041486D01*
X018725Y041486D02*
X018648Y041409D01*
X018494Y041409D01*
X018418Y041486D01*
X018418Y041563D01*
X018494Y041640D01*
X018648Y041640D01*
X018725Y041563D01*
X018725Y041486D01*
X018648Y041640D02*
X018725Y041716D01*
X018725Y041793D01*
X018648Y041870D01*
X018494Y041870D01*
X018418Y041793D01*
X018418Y041716D01*
X018494Y041640D01*
X018264Y041563D02*
X018264Y041486D01*
X018188Y041409D01*
X018034Y041409D01*
X017957Y041486D01*
X018034Y041640D02*
X018188Y041640D01*
X018264Y041563D01*
X018264Y041793D02*
X018188Y041870D01*
X018034Y041870D01*
X017957Y041793D01*
X017957Y041716D01*
X018034Y041640D01*
X018034Y034370D02*
X017957Y034293D01*
X017957Y034216D01*
X018034Y034140D01*
X018188Y034140D01*
X018264Y034063D01*
X018264Y033986D01*
X018188Y033909D01*
X018034Y033909D01*
X017957Y033986D01*
X018034Y034370D02*
X018188Y034370D01*
X018264Y034293D01*
X018418Y034293D02*
X018418Y034216D01*
X018494Y034140D01*
X018725Y034140D01*
X018725Y034293D02*
X018725Y033986D01*
X018648Y033909D01*
X018494Y033909D01*
X018418Y033986D01*
X018418Y034293D02*
X018494Y034370D01*
X018648Y034370D01*
X018725Y034293D01*
X018878Y034293D02*
X018955Y034370D01*
X019108Y034370D01*
X019185Y034293D01*
X019185Y034216D01*
X019108Y034140D01*
X019185Y034063D01*
X019185Y033986D01*
X019108Y033909D01*
X018955Y033909D01*
X018878Y033986D01*
X019032Y034140D02*
X019108Y034140D01*
X018935Y026620D02*
X018935Y026543D01*
X018628Y026236D01*
X018628Y026159D01*
X018475Y026236D02*
X018475Y026543D01*
X018398Y026620D01*
X018244Y026620D01*
X018168Y026543D01*
X018168Y026466D01*
X018244Y026390D01*
X018475Y026390D01*
X018475Y026236D02*
X018398Y026159D01*
X018244Y026159D01*
X018168Y026236D01*
X018014Y026236D02*
X017938Y026159D01*
X017784Y026159D01*
X017707Y026236D01*
X017784Y026390D02*
X017938Y026390D01*
X018014Y026313D01*
X018014Y026236D01*
X017784Y026390D02*
X017707Y026466D01*
X017707Y026543D01*
X017784Y026620D01*
X017938Y026620D01*
X018014Y026543D01*
X018628Y026620D02*
X018935Y026620D01*
X019032Y019370D02*
X018878Y019216D01*
X018725Y019293D02*
X018418Y018986D01*
X018494Y018909D01*
X018648Y018909D01*
X018725Y018986D01*
X018725Y019293D01*
X018648Y019370D01*
X018494Y019370D01*
X018418Y019293D01*
X018418Y018986D01*
X018264Y018909D02*
X017957Y018909D01*
X018111Y018909D02*
X018111Y019370D01*
X017957Y019216D01*
X017804Y019293D02*
X017727Y019370D01*
X017574Y019370D01*
X017497Y019293D01*
X017497Y019216D01*
X017574Y019140D01*
X017727Y019140D01*
X017804Y019063D01*
X017804Y018986D01*
X017727Y018909D01*
X017574Y018909D01*
X017497Y018986D01*
X018878Y018909D02*
X019185Y018909D01*
X019032Y018909D02*
X019032Y019370D01*
X024997Y019293D02*
X024997Y019216D01*
X025074Y019140D01*
X025227Y019140D01*
X025304Y019063D01*
X025304Y018986D01*
X025227Y018909D01*
X025074Y018909D01*
X024997Y018986D01*
X024997Y019293D02*
X025074Y019370D01*
X025227Y019370D01*
X025304Y019293D01*
X025457Y019216D02*
X025611Y019370D01*
X025611Y018909D01*
X025764Y018909D02*
X025457Y018909D01*
X025918Y018986D02*
X025918Y019293D01*
X025994Y019370D01*
X026148Y019370D01*
X026225Y019293D01*
X025918Y018986D01*
X025994Y018909D01*
X026148Y018909D01*
X026225Y018986D01*
X026225Y019293D01*
X026378Y019293D02*
X026455Y019370D01*
X026608Y019370D01*
X026685Y019293D01*
X026685Y019216D01*
X026378Y018909D01*
X026685Y018909D01*
X026685Y011870D02*
X026532Y011793D01*
X026378Y011640D01*
X026608Y011640D01*
X026685Y011563D01*
X026685Y011486D01*
X026608Y011409D01*
X026455Y011409D01*
X026378Y011486D01*
X026378Y011640D01*
X026225Y011793D02*
X025918Y011486D01*
X025994Y011409D01*
X026148Y011409D01*
X026225Y011486D01*
X026225Y011793D01*
X026148Y011870D01*
X025994Y011870D01*
X025918Y011793D01*
X025918Y011486D01*
X025764Y011409D02*
X025457Y011409D01*
X025611Y011409D02*
X025611Y011870D01*
X025457Y011716D01*
X025304Y011793D02*
X025227Y011870D01*
X025074Y011870D01*
X024997Y011793D01*
X024997Y011716D01*
X025074Y011640D01*
X025227Y011640D01*
X025304Y011563D01*
X025304Y011486D01*
X025227Y011409D01*
X025074Y011409D01*
X024997Y011486D01*
X029537Y007543D02*
X029537Y007466D01*
X029613Y007390D01*
X029767Y007390D01*
X029843Y007313D01*
X029843Y007236D01*
X029767Y007159D01*
X029613Y007159D01*
X029537Y007236D01*
X029537Y007543D02*
X029613Y007620D01*
X029767Y007620D01*
X029843Y007543D01*
X029997Y007466D02*
X030150Y007620D01*
X030150Y007159D01*
X029997Y007159D02*
X030304Y007159D01*
X030457Y007236D02*
X030764Y007543D01*
X030764Y007236D01*
X030688Y007159D01*
X030534Y007159D01*
X030457Y007236D01*
X030457Y007543D01*
X030534Y007620D01*
X030688Y007620D01*
X030764Y007543D01*
X030918Y007620D02*
X031225Y007620D01*
X031225Y007543D01*
X030918Y007236D01*
X030918Y007159D01*
X031378Y007159D02*
X031378Y007620D01*
X031608Y007620D01*
X031685Y007543D01*
X031685Y007466D01*
X031608Y007390D01*
X031378Y007390D01*
X031608Y007390D02*
X031685Y007313D01*
X031685Y007236D01*
X031608Y007159D01*
X031378Y007159D01*
X026685Y004293D02*
X026685Y003986D01*
X026608Y003909D01*
X026455Y003909D01*
X026378Y003986D01*
X026685Y004293D01*
X026608Y004370D01*
X026455Y004370D01*
X026378Y004293D01*
X026378Y003986D01*
X026225Y003909D02*
X025918Y003909D01*
X026071Y003909D02*
X026071Y004370D01*
X025918Y004216D01*
X025764Y003909D02*
X025457Y003909D01*
X025611Y003909D02*
X025611Y004370D01*
X025457Y004216D01*
X025304Y004293D02*
X025227Y004370D01*
X025074Y004370D01*
X024997Y004293D01*
X024997Y004216D01*
X025074Y004140D01*
X025227Y004140D01*
X025304Y004063D01*
X025304Y003986D01*
X025227Y003909D01*
X025074Y003909D01*
X024997Y003986D01*
X019185Y003986D02*
X019185Y004293D01*
X019108Y004370D01*
X018955Y004370D01*
X018878Y004293D01*
X018878Y004216D01*
X018955Y004140D01*
X019185Y004140D01*
X019185Y003986D02*
X019108Y003909D01*
X018955Y003909D01*
X018878Y003986D01*
X018725Y003986D02*
X018648Y003909D01*
X018494Y003909D01*
X018418Y003986D01*
X018725Y004293D01*
X018725Y003986D01*
X018725Y004293D02*
X018648Y004370D01*
X018494Y004370D01*
X018418Y004293D01*
X018418Y003986D01*
X018264Y003909D02*
X017957Y003909D01*
X018111Y003909D02*
X018111Y004370D01*
X017957Y004216D01*
X017804Y004293D02*
X017727Y004370D01*
X017574Y004370D01*
X017497Y004293D01*
X017497Y004216D01*
X017574Y004140D01*
X017727Y004140D01*
X017804Y004063D01*
X017804Y003986D01*
X017727Y003909D01*
X017574Y003909D01*
X017497Y003986D01*
X011685Y003986D02*
X011608Y003909D01*
X011455Y003909D01*
X011378Y003986D01*
X011378Y004063D01*
X011455Y004140D01*
X011608Y004140D01*
X011685Y004063D01*
X011685Y003986D01*
X011608Y004140D02*
X011685Y004216D01*
X011685Y004293D01*
X011608Y004370D01*
X011455Y004370D01*
X011378Y004293D01*
X011378Y004216D01*
X011455Y004140D01*
X011225Y004293D02*
X011225Y003986D01*
X011148Y003909D01*
X010994Y003909D01*
X010918Y003986D01*
X011225Y004293D01*
X011148Y004370D01*
X010994Y004370D01*
X010918Y004293D01*
X010918Y003986D01*
X010764Y003909D02*
X010457Y003909D01*
X010611Y003909D02*
X010611Y004370D01*
X010457Y004216D01*
X010304Y004293D02*
X010227Y004370D01*
X010074Y004370D01*
X009997Y004293D01*
X009997Y004216D01*
X010074Y004140D01*
X010227Y004140D01*
X010304Y004063D01*
X010304Y003986D01*
X010227Y003909D01*
X010074Y003909D01*
X009997Y003986D01*
X010074Y011409D02*
X009997Y011486D01*
X010074Y011409D02*
X010227Y011409D01*
X010304Y011486D01*
X010304Y011563D01*
X010227Y011640D01*
X010074Y011640D01*
X009997Y011716D01*
X009997Y011793D01*
X010074Y011870D01*
X010227Y011870D01*
X010304Y011793D01*
X010457Y011716D02*
X010611Y011870D01*
X010611Y011409D01*
X010764Y011409D02*
X010457Y011409D01*
X010918Y011486D02*
X011225Y011793D01*
X011225Y011486D01*
X011148Y011409D01*
X010994Y011409D01*
X010918Y011486D01*
X010918Y011793D01*
X010994Y011870D01*
X011148Y011870D01*
X011225Y011793D01*
X011378Y011640D02*
X011685Y011640D01*
X011608Y011870D02*
X011378Y011640D01*
X011608Y011409D02*
X011608Y011870D01*
X011608Y018909D02*
X011455Y018909D01*
X011378Y018986D01*
X011685Y019293D01*
X011685Y018986D01*
X011608Y018909D01*
X011378Y018986D02*
X011378Y019293D01*
X011455Y019370D01*
X011608Y019370D01*
X011685Y019293D01*
X011225Y019293D02*
X011225Y018986D01*
X011148Y018909D01*
X010994Y018909D01*
X010918Y018986D01*
X011225Y019293D01*
X011148Y019370D01*
X010994Y019370D01*
X010918Y019293D01*
X010918Y018986D01*
X010764Y018909D02*
X010457Y018909D01*
X010611Y018909D02*
X010611Y019370D01*
X010457Y019216D01*
X010304Y019293D02*
X010227Y019370D01*
X010074Y019370D01*
X009997Y019293D01*
X009997Y019216D01*
X010074Y019140D01*
X010227Y019140D01*
X010304Y019063D01*
X010304Y018986D01*
X010227Y018909D01*
X010074Y018909D01*
X009997Y018986D01*
X010534Y026409D02*
X010457Y026486D01*
X010534Y026409D02*
X010688Y026409D01*
X010764Y026486D01*
X010764Y026563D01*
X010688Y026640D01*
X010534Y026640D01*
X010457Y026716D01*
X010457Y026793D01*
X010534Y026870D01*
X010688Y026870D01*
X010764Y026793D01*
X010918Y026793D02*
X010918Y026716D01*
X010994Y026640D01*
X011225Y026640D01*
X011225Y026793D02*
X011148Y026870D01*
X010994Y026870D01*
X010918Y026793D01*
X011225Y026793D02*
X011225Y026486D01*
X011148Y026409D01*
X010994Y026409D01*
X010918Y026486D01*
X011378Y026486D02*
X011455Y026409D01*
X011608Y026409D01*
X011685Y026486D01*
X011685Y026563D01*
X011608Y026640D01*
X011378Y026640D01*
X011378Y026486D01*
X011378Y026640D02*
X011532Y026793D01*
X011685Y026870D01*
X011685Y033909D02*
X011378Y033909D01*
X011685Y034216D01*
X011685Y034293D01*
X011608Y034370D01*
X011455Y034370D01*
X011378Y034293D01*
X011225Y034293D02*
X011148Y034370D01*
X010994Y034370D01*
X010918Y034293D01*
X010918Y034216D01*
X010994Y034140D01*
X011225Y034140D01*
X011225Y034293D02*
X011225Y033986D01*
X011148Y033909D01*
X010994Y033909D01*
X010918Y033986D01*
X010764Y033986D02*
X010688Y033909D01*
X010534Y033909D01*
X010457Y033986D01*
X010534Y034140D02*
X010688Y034140D01*
X010764Y034063D01*
X010764Y033986D01*
X010534Y034140D02*
X010457Y034216D01*
X010457Y034293D01*
X010534Y034370D01*
X010688Y034370D01*
X010764Y034293D01*
X010688Y041409D02*
X010534Y041409D01*
X010457Y041486D01*
X010534Y041640D02*
X010688Y041640D01*
X010764Y041563D01*
X010764Y041486D01*
X010688Y041409D01*
X010918Y041486D02*
X010918Y041563D01*
X010994Y041640D01*
X011148Y041640D01*
X011225Y041563D01*
X011225Y041486D01*
X011148Y041409D01*
X010994Y041409D01*
X010918Y041486D01*
X010994Y041640D02*
X010918Y041716D01*
X010918Y041793D01*
X010994Y041870D01*
X011148Y041870D01*
X011225Y041793D01*
X011225Y041716D01*
X011148Y041640D01*
X011378Y041716D02*
X011378Y041793D01*
X011455Y041870D01*
X011608Y041870D01*
X011685Y041793D01*
X011685Y041716D01*
X011608Y041640D01*
X011455Y041640D01*
X011378Y041716D01*
X011455Y041640D02*
X011378Y041563D01*
X011378Y041486D01*
X011455Y041409D01*
X011608Y041409D01*
X011685Y041486D01*
X011685Y041563D01*
X011608Y041640D01*
X010764Y041793D02*
X010688Y041870D01*
X010534Y041870D01*
X010457Y041793D01*
X010457Y041716D01*
X010534Y041640D01*
X009698Y053205D02*
X008939Y053205D01*
X008939Y053824D02*
X009698Y053824D01*
X009606Y054034D02*
X009299Y054034D01*
X009606Y054341D01*
X009606Y054418D01*
X009529Y054495D01*
X009376Y054495D01*
X009299Y054418D01*
X009145Y054418D02*
X009069Y054495D01*
X008915Y054495D01*
X008839Y054418D01*
X008839Y054111D01*
X008915Y054034D01*
X009069Y054034D01*
X009145Y054111D01*
X032574Y019370D02*
X032497Y019293D01*
X032497Y019216D01*
X032574Y019140D01*
X032727Y019140D01*
X032804Y019063D01*
X032804Y018986D01*
X032727Y018909D01*
X032574Y018909D01*
X032497Y018986D01*
X032574Y019370D02*
X032727Y019370D01*
X032804Y019293D01*
X032957Y019216D02*
X033111Y019370D01*
X033111Y018909D01*
X033264Y018909D02*
X032957Y018909D01*
X033418Y018986D02*
X033418Y019293D01*
X033494Y019370D01*
X033648Y019370D01*
X033725Y019293D01*
X033418Y018986D01*
X033494Y018909D01*
X033648Y018909D01*
X033725Y018986D01*
X033725Y019293D01*
X033878Y019293D02*
X033955Y019370D01*
X034108Y019370D01*
X034185Y019293D01*
X034185Y019216D01*
X034108Y019140D01*
X034185Y019063D01*
X034185Y018986D01*
X034108Y018909D01*
X033955Y018909D01*
X033878Y018986D01*
X034032Y019140D02*
X034108Y019140D01*
X034119Y014870D02*
X034043Y014793D01*
X034043Y014486D01*
X034350Y014793D01*
X034350Y014486D01*
X034273Y014409D01*
X034119Y014409D01*
X034043Y014486D01*
X033889Y014409D02*
X033582Y014409D01*
X033736Y014409D02*
X033736Y014870D01*
X033582Y014716D01*
X033429Y014793D02*
X033352Y014870D01*
X033199Y014870D01*
X033122Y014793D01*
X033122Y014716D01*
X033199Y014640D01*
X033352Y014640D01*
X033429Y014563D01*
X033429Y014486D01*
X033352Y014409D01*
X033199Y014409D01*
X033122Y014486D01*
X034119Y014870D02*
X034273Y014870D01*
X034350Y014793D01*
X034503Y014870D02*
X034810Y014870D01*
X034810Y014793D01*
X034503Y014486D01*
X034503Y014409D01*
X019185Y011870D02*
X018878Y011870D01*
X018878Y011640D01*
X019032Y011716D01*
X019108Y011716D01*
X019185Y011640D01*
X019185Y011486D01*
X019108Y011409D01*
X018955Y011409D01*
X018878Y011486D01*
X018725Y011486D02*
X018648Y011409D01*
X018494Y011409D01*
X018418Y011486D01*
X018725Y011793D01*
X018725Y011486D01*
X018725Y011793D02*
X018648Y011870D01*
X018494Y011870D01*
X018418Y011793D01*
X018418Y011486D01*
X018264Y011409D02*
X017957Y011409D01*
X018111Y011409D02*
X018111Y011870D01*
X017957Y011716D01*
X017804Y011793D02*
X017727Y011870D01*
X017574Y011870D01*
X017497Y011793D01*
X017497Y011716D01*
X017574Y011640D01*
X017727Y011640D01*
X017804Y011563D01*
X017804Y011486D01*
X017727Y011409D01*
X017574Y011409D01*
X017497Y011486D01*
D12*
X013862Y009933D02*
X006775Y002846D01*
X013862Y002846D01*
X006775Y009933D01*
X006775Y002846D01*
X006775Y009933D02*
X013862Y009933D01*
X013862Y002846D01*
X014275Y002846D02*
X021362Y009933D01*
X021362Y002846D01*
X014275Y009933D01*
X014275Y002846D01*
X021362Y002846D01*
X021775Y002846D02*
X028862Y009933D01*
X028862Y002846D01*
X021775Y009933D01*
X021775Y002846D01*
X028862Y002846D01*
X029275Y002846D02*
X036362Y009933D01*
X036362Y002846D01*
X029275Y009933D01*
X029275Y002846D01*
X036362Y002846D01*
X036362Y002856D02*
X029275Y017423D01*
X036362Y017423D01*
X029275Y002856D01*
X036362Y002856D01*
X036362Y017423D01*
X036362Y017433D02*
X029275Y010346D01*
X036362Y010346D01*
X029275Y017433D01*
X029275Y010346D01*
X028862Y010346D02*
X021775Y017433D01*
X021775Y010346D01*
X028862Y017433D01*
X028862Y010346D01*
X021775Y010346D01*
X021362Y010346D02*
X014275Y017433D01*
X014275Y010346D01*
X021362Y017433D01*
X021362Y010346D01*
X014275Y010346D01*
X013862Y010346D02*
X006775Y017433D01*
X006775Y010346D01*
X013862Y017433D01*
X013862Y010346D01*
X006775Y010346D01*
X006775Y017433D02*
X013862Y017433D01*
X013862Y017846D02*
X006775Y024933D01*
X006775Y017846D01*
X013862Y024933D01*
X013862Y017846D01*
X006775Y017846D01*
X006775Y024933D02*
X013862Y024933D01*
X013862Y025346D02*
X006775Y032433D01*
X006775Y025346D01*
X013862Y032433D01*
X013862Y025346D01*
X006775Y025346D01*
X006775Y032433D02*
X013862Y032433D01*
X013862Y032846D02*
X006775Y039933D01*
X006775Y032846D01*
X013862Y039933D01*
X013862Y032846D01*
X006775Y032846D01*
X006775Y039933D02*
X013862Y039933D01*
X013862Y040346D02*
X006775Y047433D01*
X006775Y040346D01*
X013862Y047433D01*
X013862Y040346D01*
X006775Y040346D01*
X006775Y047433D02*
X013862Y047433D01*
X014275Y047433D02*
X021362Y040346D01*
X021362Y047433D01*
X014275Y040346D01*
X021362Y040346D01*
X021775Y040346D02*
X028862Y047433D01*
X028862Y040346D01*
X021775Y047433D01*
X021775Y040346D01*
X028862Y040346D01*
X029275Y040346D02*
X036362Y047433D01*
X036362Y040346D01*
X029275Y047433D01*
X029275Y040346D01*
X036362Y040346D01*
X036362Y039933D02*
X029275Y032846D01*
X036362Y032846D01*
X029275Y039933D01*
X029275Y032846D01*
X028862Y032846D02*
X021775Y039933D01*
X021775Y032846D01*
X028862Y039933D01*
X028862Y032846D01*
X021775Y032846D01*
X021362Y032846D02*
X014275Y039933D01*
X014275Y032846D01*
X021362Y039933D01*
X021362Y032846D01*
X014275Y032846D01*
X014275Y032433D02*
X021362Y025346D01*
X021362Y032433D01*
X014275Y025346D01*
X021362Y025346D01*
X021775Y025346D02*
X028862Y032433D01*
X028862Y025346D01*
X021775Y032433D01*
X021775Y025346D01*
X028862Y025346D01*
X029275Y025346D02*
X036362Y032433D01*
X036362Y025346D01*
X029275Y032433D01*
X029275Y025346D01*
X036362Y025346D01*
X036362Y024933D02*
X029275Y017846D01*
X036362Y017846D01*
X029275Y024933D01*
X029275Y017846D01*
X028862Y017846D02*
X021775Y024933D01*
X021775Y017846D01*
X028862Y024933D01*
X028862Y017846D01*
X021775Y017846D01*
X021362Y017846D02*
X014275Y024933D01*
X014275Y017846D01*
X021362Y024933D01*
X021362Y017846D01*
X014275Y017846D01*
X014275Y017433D02*
X021362Y017433D01*
X021775Y017433D02*
X028862Y017433D01*
X029275Y017433D02*
X036362Y017433D01*
X036362Y010346D01*
X036362Y009933D02*
X029275Y009933D01*
X028862Y009933D02*
X021775Y009933D01*
X021362Y009933D02*
X014275Y009933D01*
X014275Y024933D02*
X021362Y024933D01*
X021775Y024933D02*
X028862Y024933D01*
X029275Y024933D02*
X036362Y024933D01*
X036362Y017846D01*
X029275Y017423D02*
X029275Y002856D01*
X014275Y025346D02*
X014275Y032433D01*
X021362Y032433D01*
X021775Y032433D02*
X028862Y032433D01*
X029275Y032433D02*
X036362Y032433D01*
X036362Y032846D02*
X036362Y039933D01*
X029275Y039933D01*
X028862Y039933D02*
X021775Y039933D01*
X021362Y039933D02*
X014275Y039933D01*
X014275Y040346D02*
X014275Y047433D01*
X021362Y047433D01*
X021775Y047433D02*
X028862Y047433D01*
X029275Y047433D02*
X036362Y047433D01*
D13*
X036855Y050314D02*
X036661Y051038D01*
X036661Y051039D02*
X036622Y051030D01*
X036583Y051026D01*
X036544Y051025D01*
X036505Y051028D01*
X036466Y051035D01*
X036428Y051046D01*
X036392Y051061D01*
X036357Y051079D01*
X036324Y051100D01*
X036293Y051124D01*
X036265Y051152D01*
X036240Y051181D01*
X036217Y051214D01*
X036198Y051248D01*
X036183Y051284D01*
X036171Y051321D01*
X036162Y051360D01*
X036158Y051399D01*
X036157Y051438D01*
X036160Y051477D01*
X036167Y051516D01*
X036178Y051554D01*
X036193Y051590D01*
X036211Y051625D01*
X036232Y051658D01*
X036256Y051689D01*
X036284Y051717D01*
X036313Y051742D01*
X036346Y051765D01*
X036380Y051784D01*
X036416Y051799D01*
X036453Y051811D01*
X036454Y051811D02*
X036260Y052535D01*
X028532Y050465D01*
X029127Y048243D01*
X036855Y050314D01*
X027694Y052514D02*
X026794Y052514D01*
X026694Y052614D01*
X026594Y052514D01*
X025794Y052514D01*
X025694Y052614D01*
X025594Y052514D01*
X024794Y052514D01*
X024694Y052614D01*
X024594Y052514D01*
X023794Y052514D01*
X023694Y052614D01*
X023594Y052514D01*
X022794Y052514D01*
X022694Y052614D01*
X022594Y052514D01*
X021794Y052514D01*
X021694Y052614D01*
X021594Y052514D01*
X020794Y052514D01*
X020694Y052614D01*
X020594Y052514D01*
X019794Y052514D01*
X019694Y052614D01*
X019594Y052514D01*
X018694Y052514D01*
X018694Y053514D01*
X019594Y053514D01*
X019694Y053414D01*
X019794Y053514D01*
X020594Y053514D01*
X020694Y053414D01*
X020794Y053514D01*
X021594Y053514D01*
X021694Y053414D01*
X021794Y053514D01*
X022594Y053514D01*
X022694Y053414D01*
X022794Y053514D01*
X023594Y053514D01*
X023694Y053414D01*
X023794Y053514D01*
X024594Y053514D01*
X024694Y053414D01*
X024794Y053514D01*
X025594Y053514D01*
X025694Y053414D01*
X025794Y053514D01*
X026594Y053514D01*
X026694Y053414D01*
X026794Y053514D01*
X027694Y053514D01*
X027694Y052514D01*
X027394Y052814D02*
X027394Y053214D01*
X027294Y053214D01*
X027294Y053314D01*
X027094Y053314D01*
X027094Y053214D01*
X026994Y053214D01*
X026994Y052814D01*
X027094Y052814D01*
X027094Y052714D01*
X027294Y052714D01*
X027294Y052814D01*
X027394Y052814D01*
X026394Y052814D02*
X026394Y053214D01*
X026294Y053214D01*
X026294Y053314D01*
X026094Y053314D01*
X026094Y053214D01*
X025994Y053214D01*
X025994Y052814D01*
X026094Y052814D01*
X026094Y052714D01*
X026294Y052714D01*
X026294Y052814D01*
X026394Y052814D01*
X025394Y052814D02*
X025394Y053214D01*
X025294Y053214D01*
X025294Y053314D01*
X025094Y053314D01*
X025094Y053214D01*
X024994Y053214D01*
X024994Y052814D01*
X025094Y052814D01*
X025094Y052714D01*
X025294Y052714D01*
X025294Y052814D01*
X025394Y052814D01*
X024394Y052814D02*
X024394Y053214D01*
X024294Y053214D01*
X024294Y053314D01*
X024094Y053314D01*
X024094Y053214D01*
X023994Y053214D01*
X023994Y052814D01*
X024094Y052814D01*
X024094Y052714D01*
X024294Y052714D01*
X024294Y052814D01*
X024394Y052814D01*
X023394Y052814D02*
X023394Y053214D01*
X023294Y053214D01*
X023294Y053314D01*
X023094Y053314D01*
X023094Y053214D01*
X022994Y053214D01*
X022994Y052814D01*
X023094Y052814D01*
X023094Y052714D01*
X023294Y052714D01*
X023294Y052814D01*
X023394Y052814D01*
X022394Y052814D02*
X022394Y053214D01*
X022294Y053214D01*
X022294Y053314D01*
X022094Y053314D01*
X022094Y053214D01*
X021994Y053214D01*
X021994Y052814D01*
X022094Y052814D01*
X022094Y052714D01*
X022294Y052714D01*
X022294Y052814D01*
X022394Y052814D01*
X021394Y052814D02*
X021394Y053214D01*
X021294Y053214D01*
X021294Y053314D01*
X021094Y053314D01*
X021094Y053214D01*
X020994Y053214D01*
X020994Y052814D01*
X021094Y052814D01*
X021094Y052714D01*
X021294Y052714D01*
X021294Y052814D01*
X021394Y052814D01*
X020394Y052814D02*
X020394Y053214D01*
X020294Y053214D01*
X020294Y053314D01*
X020094Y053314D01*
X020094Y053214D01*
X019994Y053214D01*
X019994Y052814D01*
X020094Y052814D01*
X020094Y052714D01*
X020294Y052714D01*
X020294Y052814D01*
X020394Y052814D01*
X019394Y052814D02*
X019394Y053214D01*
X019294Y053214D01*
X019294Y053314D01*
X019094Y053314D01*
X019094Y053214D01*
X018994Y053214D01*
X018994Y052814D01*
X019094Y052814D01*
X019094Y052714D01*
X019294Y052714D01*
X019294Y052814D01*
X019394Y052814D01*
X017769Y052664D02*
X017769Y051264D01*
X017769Y050214D01*
X017669Y050214D01*
X017669Y051264D01*
X017669Y051464D01*
X017669Y052064D01*
X017669Y052564D01*
X016569Y052564D01*
X016069Y052564D01*
X014969Y052564D01*
X014969Y052064D01*
X014969Y051464D01*
X014969Y051264D01*
X015269Y051264D01*
X015269Y051164D01*
X015619Y051164D01*
X015619Y051264D01*
X016019Y051264D01*
X016019Y051364D01*
X016619Y051364D01*
X016619Y051264D01*
X017069Y051264D01*
X017069Y051164D01*
X017369Y051164D01*
X017369Y051264D01*
X017669Y051264D01*
X016969Y051614D02*
X016619Y051614D01*
X016119Y051764D01*
X016119Y051614D02*
X015669Y051614D01*
X016219Y051914D02*
X016319Y051914D01*
X016419Y051914D01*
X016319Y051914D02*
X016319Y051764D01*
X016569Y052164D02*
X016069Y052164D01*
X016069Y052564D01*
X015819Y052764D02*
X015319Y052764D01*
X015319Y052664D01*
X017769Y052664D01*
X017319Y052664D02*
X017319Y052764D01*
X016819Y052764D01*
X015819Y052764D01*
X015819Y052914D01*
X016819Y052914D01*
X016819Y052764D01*
X016569Y052564D02*
X016569Y052164D01*
X015319Y052664D02*
X014869Y052664D01*
X014869Y051264D01*
X014869Y050214D01*
X014969Y050214D01*
X014969Y051264D01*
X013819Y051414D02*
X013819Y049114D01*
X006819Y049114D01*
X006819Y049864D01*
X006858Y049866D01*
X006897Y049872D01*
X006935Y049881D01*
X006972Y049894D01*
X007008Y049911D01*
X007041Y049931D01*
X007073Y049955D01*
X007102Y049981D01*
X007128Y050010D01*
X007152Y050042D01*
X007172Y050075D01*
X007189Y050111D01*
X007202Y050148D01*
X007211Y050186D01*
X007217Y050225D01*
X007219Y050264D01*
X007217Y050303D01*
X007211Y050342D01*
X007202Y050380D01*
X007189Y050417D01*
X007172Y050453D01*
X007152Y050486D01*
X007128Y050518D01*
X007102Y050547D01*
X007073Y050573D01*
X007041Y050597D01*
X007008Y050617D01*
X006972Y050634D01*
X006935Y050647D01*
X006897Y050656D01*
X006858Y050662D01*
X006819Y050664D01*
X006819Y051414D01*
X013819Y051414D01*
X016819Y049139D02*
X016821Y049202D01*
X016827Y049264D01*
X016837Y049326D01*
X016850Y049388D01*
X016868Y049448D01*
X016889Y049507D01*
X016914Y049565D01*
X016943Y049621D01*
X016975Y049675D01*
X017010Y049727D01*
X017048Y049776D01*
X017090Y049824D01*
X017134Y049868D01*
X017182Y049910D01*
X017231Y049948D01*
X017283Y049983D01*
X017337Y050015D01*
X017393Y050044D01*
X017451Y050069D01*
X017510Y050090D01*
X017570Y050108D01*
X017632Y050121D01*
X017694Y050131D01*
X017756Y050137D01*
X017819Y050139D01*
X017882Y050137D01*
X017944Y050131D01*
X018006Y050121D01*
X018068Y050108D01*
X018128Y050090D01*
X018187Y050069D01*
X018245Y050044D01*
X018301Y050015D01*
X018355Y049983D01*
X018407Y049948D01*
X018456Y049910D01*
X018504Y049868D01*
X018548Y049824D01*
X018590Y049776D01*
X018628Y049727D01*
X018663Y049675D01*
X018695Y049621D01*
X018724Y049565D01*
X018749Y049507D01*
X018770Y049448D01*
X018788Y049388D01*
X018801Y049326D01*
X018811Y049264D01*
X018817Y049202D01*
X018819Y049139D01*
X018817Y049076D01*
X018811Y049014D01*
X018801Y048952D01*
X018788Y048890D01*
X018770Y048830D01*
X018749Y048771D01*
X018724Y048713D01*
X018695Y048657D01*
X018663Y048603D01*
X018628Y048551D01*
X018590Y048502D01*
X018548Y048454D01*
X018504Y048410D01*
X018456Y048368D01*
X018407Y048330D01*
X018355Y048295D01*
X018301Y048263D01*
X018245Y048234D01*
X018187Y048209D01*
X018128Y048188D01*
X018068Y048170D01*
X018006Y048157D01*
X017944Y048147D01*
X017882Y048141D01*
X017819Y048139D01*
X017756Y048141D01*
X017694Y048147D01*
X017632Y048157D01*
X017570Y048170D01*
X017510Y048188D01*
X017451Y048209D01*
X017393Y048234D01*
X017337Y048263D01*
X017283Y048295D01*
X017231Y048330D01*
X017182Y048368D01*
X017134Y048410D01*
X017090Y048454D01*
X017048Y048502D01*
X017010Y048551D01*
X016975Y048603D01*
X016943Y048657D01*
X016914Y048713D01*
X016889Y048771D01*
X016868Y048830D01*
X016850Y048890D01*
X016837Y048952D01*
X016827Y049014D01*
X016821Y049076D01*
X016819Y049139D01*
X016969Y049139D02*
X016971Y049195D01*
X016976Y049250D01*
X016985Y049305D01*
X016998Y049359D01*
X017014Y049412D01*
X017034Y049464D01*
X017057Y049515D01*
X017083Y049564D01*
X017112Y049611D01*
X017145Y049656D01*
X017180Y049699D01*
X017218Y049740D01*
X017259Y049778D01*
X017302Y049813D01*
X017347Y049846D01*
X017394Y049875D01*
X017443Y049901D01*
X017494Y049924D01*
X017546Y049944D01*
X017599Y049960D01*
X017653Y049973D01*
X017708Y049982D01*
X017763Y049987D01*
X017819Y049989D01*
X018669Y049139D02*
X018667Y049083D01*
X018662Y049028D01*
X018653Y048973D01*
X018640Y048919D01*
X018624Y048866D01*
X018604Y048814D01*
X018581Y048763D01*
X018555Y048714D01*
X018526Y048667D01*
X018493Y048622D01*
X018458Y048579D01*
X018420Y048538D01*
X018379Y048500D01*
X018336Y048465D01*
X018291Y048432D01*
X018244Y048403D01*
X018195Y048377D01*
X018144Y048354D01*
X018092Y048334D01*
X018039Y048318D01*
X017985Y048305D01*
X017930Y048296D01*
X017875Y048291D01*
X017819Y048289D01*
X017169Y049139D02*
X017171Y049188D01*
X017176Y049236D01*
X017185Y049284D01*
X017198Y049331D01*
X017214Y049376D01*
X017233Y049421D01*
X017256Y049464D01*
X017282Y049505D01*
X017311Y049544D01*
X017343Y049581D01*
X017377Y049615D01*
X017414Y049647D01*
X017453Y049676D01*
X017494Y049702D01*
X017537Y049725D01*
X017582Y049744D01*
X017627Y049760D01*
X017674Y049773D01*
X017722Y049782D01*
X017770Y049787D01*
X017819Y049789D01*
X018469Y049139D02*
X018467Y049090D01*
X018462Y049042D01*
X018453Y048994D01*
X018440Y048947D01*
X018424Y048902D01*
X018405Y048857D01*
X018382Y048814D01*
X018356Y048773D01*
X018327Y048734D01*
X018295Y048697D01*
X018261Y048663D01*
X018224Y048631D01*
X018185Y048602D01*
X018144Y048576D01*
X018101Y048553D01*
X018056Y048534D01*
X018011Y048518D01*
X017964Y048505D01*
X017916Y048496D01*
X017868Y048491D01*
X017819Y048489D01*
X017369Y049139D02*
X017371Y049181D01*
X017377Y049222D01*
X017386Y049262D01*
X017399Y049302D01*
X017416Y049340D01*
X017436Y049376D01*
X017460Y049410D01*
X017486Y049442D01*
X017516Y049472D01*
X017548Y049498D01*
X017582Y049522D01*
X017618Y049542D01*
X017656Y049559D01*
X017696Y049572D01*
X017736Y049581D01*
X017777Y049587D01*
X017819Y049589D01*
X018269Y049139D02*
X018267Y049097D01*
X018261Y049056D01*
X018252Y049016D01*
X018239Y048976D01*
X018222Y048938D01*
X018202Y048902D01*
X018178Y048868D01*
X018152Y048836D01*
X018122Y048806D01*
X018090Y048780D01*
X018056Y048756D01*
X018020Y048736D01*
X017982Y048719D01*
X017942Y048706D01*
X017902Y048697D01*
X017861Y048691D01*
X017819Y048689D01*
D14*
X019194Y052814D03*
X019194Y053214D03*
X020194Y053214D03*
X020194Y052814D03*
X021194Y052814D03*
X021194Y053214D03*
X022194Y053214D03*
X022194Y052814D03*
X023194Y052814D03*
X023194Y053214D03*
X024194Y053214D03*
X024194Y052814D03*
X025194Y052814D03*
X025194Y053214D03*
X026194Y053214D03*
X026194Y052814D03*
X027194Y052814D03*
X027194Y053214D03*
D15*
X016819Y049889D02*
X016819Y048389D01*
D16*
X016862Y048335D01*
X016908Y048283D01*
X016957Y048234D01*
X017009Y048187D01*
X017063Y048144D01*
X017119Y048103D01*
X017178Y048066D01*
X017238Y048032D01*
X017301Y048002D01*
X017364Y047975D01*
X017430Y047951D01*
X017496Y047931D01*
X017564Y047915D01*
X017632Y047903D01*
X017701Y047895D01*
X017770Y047890D01*
X017840Y047889D01*
X017909Y047892D01*
X017978Y047899D01*
X018046Y047910D01*
X018114Y047924D01*
X018181Y047943D01*
X018247Y047965D01*
X018312Y047990D01*
X018375Y048019D01*
X018436Y048052D01*
X018495Y048088D01*
X018552Y048127D01*
X018608Y048169D01*
X018660Y048214D01*
X018710Y048262D01*
X018757Y048313D01*
X018802Y048367D01*
X018843Y048422D01*
X018881Y048480D01*
X018916Y048540D01*
X018948Y048602D01*
X018976Y048665D01*
X019000Y048730D01*
X019021Y048796D01*
X019038Y048864D01*
X019052Y048932D01*
X019061Y049001D01*
X019067Y049070D01*
X019069Y049139D01*
X019067Y049208D01*
X019061Y049277D01*
X019052Y049346D01*
X019038Y049414D01*
X019021Y049482D01*
X019000Y049548D01*
X018976Y049613D01*
X018948Y049676D01*
X018916Y049738D01*
X018881Y049798D01*
X018843Y049856D01*
X018802Y049911D01*
X018757Y049965D01*
X018710Y050016D01*
X018660Y050064D01*
X018608Y050109D01*
X018552Y050151D01*
X018495Y050190D01*
X018436Y050226D01*
X018375Y050259D01*
X018312Y050288D01*
X018247Y050313D01*
X018181Y050335D01*
X018114Y050354D01*
X018046Y050368D01*
X017978Y050379D01*
X017909Y050386D01*
X017840Y050389D01*
X017770Y050388D01*
X017701Y050383D01*
X017632Y050375D01*
X017564Y050363D01*
X017496Y050347D01*
X017430Y050327D01*
X017364Y050303D01*
X017301Y050276D01*
X017238Y050246D01*
X017178Y050212D01*
X017119Y050175D01*
X017063Y050134D01*
X017009Y050091D01*
X016957Y050044D01*
X016908Y049995D01*
X016862Y049943D01*
X016819Y049889D01*
D17*
X009841Y053515D03*
X008796Y053514D03*
D18*
X030141Y013210D02*
X030535Y013210D01*
X030141Y013211D02*
X030102Y013209D01*
X030064Y013203D01*
X030027Y013194D01*
X029990Y013181D01*
X029955Y013164D01*
X029922Y013145D01*
X029891Y013122D01*
X029862Y013096D01*
X029836Y013067D01*
X029813Y013036D01*
X029794Y013003D01*
X029777Y012968D01*
X029764Y012931D01*
X029755Y012894D01*
X029749Y012856D01*
X029747Y012817D01*
X029748Y012817D02*
X029748Y012423D01*
X029748Y007856D02*
X029748Y007462D01*
X029747Y007462D02*
X029749Y007423D01*
X029755Y007385D01*
X029764Y007348D01*
X029777Y007311D01*
X029794Y007276D01*
X029813Y007243D01*
X029836Y007212D01*
X029862Y007183D01*
X029891Y007157D01*
X029922Y007134D01*
X029955Y007115D01*
X029990Y007098D01*
X030027Y007085D01*
X030064Y007076D01*
X030102Y007070D01*
X030141Y007068D01*
X030141Y007069D02*
X030535Y007069D01*
X035102Y007069D02*
X035496Y007069D01*
X035496Y007068D02*
X035535Y007070D01*
X035573Y007076D01*
X035610Y007085D01*
X035647Y007098D01*
X035682Y007115D01*
X035715Y007134D01*
X035746Y007157D01*
X035775Y007183D01*
X035801Y007212D01*
X035824Y007243D01*
X035843Y007276D01*
X035860Y007311D01*
X035873Y007348D01*
X035882Y007385D01*
X035888Y007423D01*
X035890Y007462D01*
X035889Y007462D02*
X035889Y007856D01*
X035889Y012423D02*
X035889Y012817D01*
X035890Y012817D02*
X035888Y012856D01*
X035882Y012894D01*
X035873Y012931D01*
X035860Y012968D01*
X035843Y013003D01*
X035824Y013036D01*
X035801Y013067D01*
X035775Y013096D01*
X035746Y013122D01*
X035715Y013145D01*
X035682Y013164D01*
X035647Y013181D01*
X035610Y013194D01*
X035573Y013203D01*
X035535Y013209D01*
X035496Y013211D01*
X035496Y013210D02*
X035102Y013210D01*
M02*
