G75*
G70*
%OFA0B0*%
%FSLAX24Y24*%
%IPPOS*%
%LPD*%
%AMOC8*
5,1,8,0,0,1.08239X$1,22.5*
%
%ADD10C,0.1580*%
%ADD11C,0.1092*%
%ADD12C,0.0474*%
%ADD13C,0.0940*%
%ADD14C,0.1261*%
%ADD15R,0.0060X0.0720*%
%ADD16R,0.0720X0.0060*%
%ADD17C,0.0907*%
%ADD18C,0.0907*%
%ADD19R,0.0907X0.0907*%
%ADD20OC8,0.0907*%
%ADD21C,0.1064*%
%ADD22R,0.1064X0.1064*%
%ADD23R,0.0907X0.0907*%
%ADD24R,0.0710X0.0789*%
%ADD25C,0.1281*%
%ADD26C,0.1655*%
%ADD27C,0.0946*%
%ADD28C,0.0986*%
%ADD29C,0.2049*%
%ADD30C,0.0867*%
D10*
X009319Y004389D03*
X011819Y005389D03*
X009319Y011889D03*
X011819Y012889D03*
X009319Y019389D03*
X011819Y020389D03*
X009319Y026889D03*
X011819Y027889D03*
X009319Y034389D03*
X011819Y035389D03*
X009319Y041889D03*
X011819Y042889D03*
X016819Y041889D03*
X019319Y042889D03*
X024319Y041889D03*
X026819Y042889D03*
X031819Y041889D03*
X034319Y042889D03*
X034319Y035389D03*
X031819Y034389D03*
X026819Y035389D03*
X024319Y034389D03*
X026819Y027889D03*
X024319Y026889D03*
X026819Y020389D03*
X024319Y019389D03*
X026819Y012889D03*
X024319Y011889D03*
X026819Y005389D03*
X024319Y004389D03*
X019319Y005389D03*
X016819Y004389D03*
X016819Y011889D03*
X019319Y012889D03*
X016819Y019389D03*
X019319Y020389D03*
X016819Y026889D03*
X019319Y027889D03*
X016819Y034389D03*
X019319Y035389D03*
X031819Y026889D03*
X034319Y027889D03*
X034319Y020389D03*
X031819Y019389D03*
X034319Y012889D03*
X031819Y011889D03*
X030819Y011139D03*
X031819Y008639D03*
D11*
X032819Y008139D03*
X032819Y012139D03*
X034819Y013889D03*
X030819Y013889D03*
X027319Y013889D03*
X023319Y013889D03*
X019819Y013889D03*
X015819Y013889D03*
X012319Y013889D03*
X008319Y013889D03*
X008319Y021389D03*
X012319Y021389D03*
X015819Y021389D03*
X019819Y021389D03*
X023319Y021389D03*
X027319Y021389D03*
X030819Y021389D03*
X034819Y021389D03*
X034819Y028889D03*
X030819Y028889D03*
X027319Y028889D03*
X023319Y028889D03*
X019819Y028889D03*
X015819Y028889D03*
X012319Y028889D03*
X008319Y028889D03*
X008319Y036389D03*
X012319Y036389D03*
X015819Y036389D03*
X019819Y036389D03*
X023319Y036389D03*
X027319Y036389D03*
X030819Y036389D03*
X034819Y036389D03*
X034819Y043889D03*
X030819Y043889D03*
X027319Y043889D03*
X023319Y043889D03*
X019819Y043889D03*
X015819Y043889D03*
X012319Y043889D03*
X008319Y043889D03*
X008319Y006389D03*
X012319Y006389D03*
X015819Y006389D03*
X019819Y006389D03*
X023319Y006389D03*
X027319Y006389D03*
D12*
X025319Y006389D03*
X025319Y013889D03*
X025319Y021389D03*
X025319Y028889D03*
X025319Y036389D03*
X025319Y043889D03*
X032819Y043889D03*
X032819Y036389D03*
X032819Y028889D03*
X032819Y021389D03*
X032819Y013889D03*
X032819Y010139D03*
X017819Y006389D03*
X017819Y013889D03*
X017819Y021389D03*
X017819Y028889D03*
X017819Y036389D03*
X017819Y043889D03*
X010319Y043889D03*
X010319Y036389D03*
X010319Y028889D03*
X010319Y021389D03*
X010319Y013889D03*
X010319Y006389D03*
D13*
X010819Y007959D02*
X010819Y008819D01*
X011819Y008819D02*
X011819Y007959D01*
X009819Y007959D02*
X009819Y008819D01*
X008819Y008819D02*
X008819Y007959D01*
X008819Y015459D02*
X008819Y016319D01*
X009819Y016319D02*
X009819Y015459D01*
X010819Y015459D02*
X010819Y016319D01*
X011819Y016319D02*
X011819Y015459D01*
X016319Y015459D02*
X016319Y016319D01*
X017319Y016319D02*
X017319Y015459D01*
X018319Y015459D02*
X018319Y016319D01*
X019319Y016319D02*
X019319Y015459D01*
X023819Y015459D02*
X023819Y016319D01*
X024819Y016319D02*
X024819Y015459D01*
X025819Y015459D02*
X025819Y016319D01*
X026819Y016319D02*
X026819Y015459D01*
X031319Y015459D02*
X031319Y016319D01*
X032319Y016319D02*
X032319Y015459D01*
X033319Y015459D02*
X033319Y016319D01*
X034319Y016319D02*
X034319Y015459D01*
X034389Y011639D02*
X035249Y011639D01*
X035249Y010639D02*
X034389Y010639D01*
X034389Y009639D02*
X035249Y009639D01*
X035249Y008639D02*
X034389Y008639D01*
X026819Y008819D02*
X026819Y007959D01*
X025819Y007959D02*
X025819Y008819D01*
X024819Y008819D02*
X024819Y007959D01*
X023819Y007959D02*
X023819Y008819D01*
X019319Y008819D02*
X019319Y007959D01*
X018319Y007959D02*
X018319Y008819D01*
X017319Y008819D02*
X017319Y007959D01*
X016319Y007959D02*
X016319Y008819D01*
X016319Y022959D02*
X016319Y023819D01*
X017319Y023819D02*
X017319Y022959D01*
X018319Y022959D02*
X018319Y023819D01*
X019319Y023819D02*
X019319Y022959D01*
X023819Y022959D02*
X023819Y023819D01*
X024819Y023819D02*
X024819Y022959D01*
X025819Y022959D02*
X025819Y023819D01*
X026819Y023819D02*
X026819Y022959D01*
X031319Y022959D02*
X031319Y023819D01*
X032319Y023819D02*
X032319Y022959D01*
X033319Y022959D02*
X033319Y023819D01*
X034319Y023819D02*
X034319Y022959D01*
X034319Y030459D02*
X034319Y031319D01*
X033319Y031319D02*
X033319Y030459D01*
X032319Y030459D02*
X032319Y031319D01*
X031319Y031319D02*
X031319Y030459D01*
X026819Y030459D02*
X026819Y031319D01*
X025819Y031319D02*
X025819Y030459D01*
X024819Y030459D02*
X024819Y031319D01*
X023819Y031319D02*
X023819Y030459D01*
X019319Y030459D02*
X019319Y031319D01*
X018319Y031319D02*
X018319Y030459D01*
X017319Y030459D02*
X017319Y031319D01*
X016319Y031319D02*
X016319Y030459D01*
X011819Y030459D02*
X011819Y031319D01*
X010819Y031319D02*
X010819Y030459D01*
X009819Y030459D02*
X009819Y031319D01*
X008819Y031319D02*
X008819Y030459D01*
X008819Y023819D02*
X008819Y022959D01*
X009819Y022959D02*
X009819Y023819D01*
X010819Y023819D02*
X010819Y022959D01*
X011819Y022959D02*
X011819Y023819D01*
X011819Y037959D02*
X011819Y038819D01*
X010819Y038819D02*
X010819Y037959D01*
X009819Y037959D02*
X009819Y038819D01*
X008819Y038819D02*
X008819Y037959D01*
X008819Y045459D02*
X008819Y046319D01*
X009819Y046319D02*
X009819Y045459D01*
X010819Y045459D02*
X010819Y046319D01*
X011819Y046319D02*
X011819Y045459D01*
X016319Y045459D02*
X016319Y046319D01*
X017319Y046319D02*
X017319Y045459D01*
X018319Y045459D02*
X018319Y046319D01*
X019319Y046319D02*
X019319Y045459D01*
X023819Y045459D02*
X023819Y046319D01*
X024819Y046319D02*
X024819Y045459D01*
X025819Y045459D02*
X025819Y046319D01*
X026819Y046319D02*
X026819Y045459D01*
X031319Y045459D02*
X031319Y046319D01*
X032319Y046319D02*
X032319Y045459D01*
X033319Y045459D02*
X033319Y046319D01*
X034319Y046319D02*
X034319Y045459D01*
X034319Y038819D02*
X034319Y037959D01*
X033319Y037959D02*
X033319Y038819D01*
X032319Y038819D02*
X032319Y037959D01*
X031319Y037959D02*
X031319Y038819D01*
X026819Y038819D02*
X026819Y037959D01*
X025819Y037959D02*
X025819Y038819D01*
X024819Y038819D02*
X024819Y037959D01*
X023819Y037959D02*
X023819Y038819D01*
X019319Y038819D02*
X019319Y037959D01*
X018319Y037959D02*
X018319Y038819D01*
X017319Y038819D02*
X017319Y037959D01*
X016319Y037959D02*
X016319Y038819D01*
D14*
X017819Y036389D03*
X017819Y028889D03*
X017819Y021389D03*
X017819Y013889D03*
X017819Y006389D03*
X025319Y006389D03*
X030069Y005452D03*
X032819Y010139D03*
X032819Y013889D03*
X030069Y014827D03*
X025319Y013889D03*
X025319Y021389D03*
X025319Y028889D03*
X025319Y036389D03*
X025319Y043889D03*
X032819Y043889D03*
X032819Y036389D03*
X032819Y028889D03*
X032819Y021389D03*
X017819Y043889D03*
X010319Y043889D03*
X010319Y036389D03*
X010319Y028889D03*
X010319Y021389D03*
X010319Y013889D03*
X010319Y006389D03*
D15*
X013319Y005389D03*
X015319Y004389D03*
X015569Y012514D03*
X013319Y012889D03*
X015444Y020139D03*
X013319Y020389D03*
X015569Y026889D03*
X020569Y020514D03*
X023069Y019389D03*
X023069Y012639D03*
X020819Y012639D03*
X022819Y004639D03*
X026444Y004014D03*
X028444Y013014D03*
X030444Y012639D03*
X030569Y019389D03*
X033444Y019264D03*
X036319Y013139D03*
X033819Y026389D03*
X030319Y026889D03*
X028069Y027889D03*
X025819Y026389D03*
X020819Y027889D03*
X018569Y033889D03*
X015319Y035014D03*
X015569Y042639D03*
X013319Y042639D03*
X007319Y041889D03*
X007319Y034389D03*
X007319Y026889D03*
X007319Y019389D03*
X007319Y011889D03*
X007319Y004389D03*
X025819Y033889D03*
X028319Y035389D03*
X030444Y034514D03*
X030319Y042264D03*
X023069Y042639D03*
D16*
X020569Y045014D03*
X028569Y044389D03*
X033319Y041639D03*
X033319Y034139D03*
X026819Y019139D03*
X020319Y004139D03*
X011819Y026139D03*
X011819Y033639D03*
D17*
X012319Y048351D02*
X012319Y049178D01*
X011319Y049178D02*
X011319Y048351D01*
X010319Y048351D02*
X010319Y049178D01*
X009319Y049178D02*
X009319Y048351D01*
X008319Y048351D02*
X008319Y049178D01*
X007319Y049178D02*
X007319Y048351D01*
X007319Y051351D02*
X007319Y052178D01*
X008319Y052178D02*
X008319Y051351D01*
X009319Y051351D02*
X009319Y052178D01*
X010319Y052178D02*
X010319Y051351D01*
X011319Y051351D02*
X011319Y052178D01*
X012319Y052178D02*
X012319Y051351D01*
X013319Y051351D02*
X013319Y052178D01*
X013319Y049178D02*
X013319Y048351D01*
X019194Y052601D02*
X019194Y053428D01*
X020194Y053428D02*
X020194Y052601D01*
X023194Y052601D02*
X023194Y053428D01*
X024194Y053428D02*
X024194Y052601D01*
X025194Y052601D02*
X025194Y053428D01*
X026194Y053428D02*
X026194Y052601D01*
X027194Y052601D02*
X027194Y053428D01*
X029890Y051191D02*
X030104Y050393D01*
X030560Y048693D02*
X030774Y047894D01*
X031740Y048153D02*
X031526Y048952D01*
X032492Y049210D02*
X032706Y048412D01*
X033672Y048671D02*
X033458Y049469D01*
X034424Y049728D02*
X034638Y048929D01*
X035604Y049188D02*
X035390Y049987D01*
X036355Y050246D02*
X036569Y049447D01*
X034827Y052086D02*
X034613Y052885D01*
X035579Y053143D02*
X035793Y052345D01*
X033861Y051827D02*
X033647Y052626D01*
X029594Y048434D02*
X029808Y047635D01*
D18*
X028925Y050932D03*
D19*
G36*
X030536Y050896D02*
X030302Y051770D01*
X031176Y052004D01*
X031410Y051130D01*
X030536Y050896D01*
G37*
G36*
X031502Y051155D02*
X031268Y052029D01*
X032142Y052263D01*
X032376Y051389D01*
X031502Y051155D01*
G37*
G36*
X032468Y051414D02*
X032234Y052288D01*
X033108Y052522D01*
X033342Y051648D01*
X032468Y051414D01*
G37*
D20*
X018319Y049139D03*
X017319Y049139D03*
X017209Y051754D03*
X015429Y051754D03*
D21*
X016748Y050520D02*
X017699Y050774D01*
D22*
G36*
X014233Y050517D02*
X014682Y051480D01*
X015645Y051031D01*
X015196Y050068D01*
X014233Y050517D01*
G37*
D23*
X021194Y053014D03*
X022194Y053014D03*
D24*
X009870Y053514D03*
X008767Y053514D03*
D25*
X030063Y014824D03*
X030063Y005454D03*
D26*
X036063Y005454D03*
X036069Y005452D03*
X036063Y014824D03*
X036069Y014827D03*
D27*
X027069Y050139D03*
D28*
X018194Y053639D03*
X014444Y048889D03*
D29*
X005319Y001389D03*
X005319Y010139D03*
X005319Y017639D03*
X005319Y025139D03*
X005319Y032639D03*
X005319Y040139D03*
X005319Y047639D03*
X005319Y055139D03*
X014069Y055139D03*
X021569Y055139D03*
X029069Y055139D03*
X037819Y055139D03*
X037819Y047639D03*
X037819Y040139D03*
X037819Y032639D03*
X037819Y025139D03*
X037819Y017639D03*
X037819Y010139D03*
X037819Y001389D03*
X029069Y001389D03*
X021569Y001389D03*
X014069Y001389D03*
D30*
X014069Y010139D03*
X014069Y017639D03*
X014069Y025139D03*
X013819Y032764D03*
X014069Y040139D03*
X021569Y040139D03*
X021569Y032639D03*
X021569Y025139D03*
X021569Y017639D03*
X021569Y010139D03*
X029069Y010139D03*
X029069Y017639D03*
X029069Y025139D03*
X029069Y032639D03*
X029069Y040139D03*
M02*
