G75*
G70*
%OFA0B0*%
%FSLAX24Y24*%
%IPPOS*%
%LPD*%
%AMOC8*
5,1,8,0,0,1.08239X$1,22.5*
%
%ADD10C,0.0120*%
%ADD11C,0.0079*%
%ADD12C,0.0100*%
D10*
X049425Y054093D02*
X115550Y054093D01*
X115550Y074093D01*
X049425Y074093D01*
X049425Y054093D01*
D11*
X046238Y054343D02*
X046238Y075530D01*
X046240Y075598D01*
X046245Y075665D01*
X046254Y075732D01*
X046267Y075799D01*
X046284Y075864D01*
X046303Y075929D01*
X046327Y075993D01*
X046354Y076055D01*
X046384Y076116D01*
X046417Y076174D01*
X046453Y076231D01*
X046493Y076286D01*
X046535Y076339D01*
X046581Y076390D01*
X046628Y076437D01*
X046679Y076483D01*
X046732Y076525D01*
X046787Y076565D01*
X046844Y076601D01*
X046902Y076634D01*
X046963Y076664D01*
X047025Y076691D01*
X047089Y076715D01*
X047154Y076734D01*
X047219Y076751D01*
X047286Y076764D01*
X047353Y076773D01*
X047420Y076778D01*
X047488Y076780D01*
X117550Y076780D01*
X117618Y076778D01*
X117685Y076773D01*
X117752Y076764D01*
X117819Y076751D01*
X117884Y076734D01*
X117949Y076715D01*
X118013Y076691D01*
X118075Y076664D01*
X118136Y076634D01*
X118194Y076601D01*
X118251Y076565D01*
X118306Y076525D01*
X118359Y076483D01*
X118410Y076437D01*
X118457Y076390D01*
X118503Y076339D01*
X118545Y076286D01*
X118585Y076231D01*
X118621Y076174D01*
X118654Y076116D01*
X118684Y076055D01*
X118711Y075993D01*
X118735Y075929D01*
X118754Y075864D01*
X118771Y075799D01*
X118784Y075732D01*
X118793Y075665D01*
X118798Y075598D01*
X118800Y075530D01*
X118800Y054093D01*
X160613Y102030D02*
X160613Y108030D01*
X165363Y108030D01*
X165363Y102030D01*
X160613Y102030D01*
X142550Y112843D02*
X142482Y112841D01*
X142415Y112836D01*
X142348Y112827D01*
X142281Y112814D01*
X142216Y112797D01*
X142151Y112778D01*
X142087Y112754D01*
X142025Y112727D01*
X141964Y112697D01*
X141906Y112664D01*
X141849Y112628D01*
X141794Y112588D01*
X141741Y112546D01*
X141690Y112500D01*
X141643Y112453D01*
X141597Y112402D01*
X141555Y112349D01*
X141515Y112294D01*
X141479Y112237D01*
X141446Y112179D01*
X141416Y112118D01*
X141389Y112056D01*
X141365Y111992D01*
X141346Y111927D01*
X141329Y111862D01*
X141316Y111795D01*
X141307Y111728D01*
X141302Y111661D01*
X141300Y111593D01*
X142550Y112843D02*
X212613Y112843D01*
X212681Y112841D01*
X212748Y112836D01*
X212815Y112827D01*
X212882Y112814D01*
X212947Y112797D01*
X213012Y112778D01*
X213076Y112754D01*
X213138Y112727D01*
X213199Y112697D01*
X213257Y112664D01*
X213314Y112628D01*
X213369Y112588D01*
X213422Y112546D01*
X213473Y112500D01*
X213520Y112453D01*
X213566Y112402D01*
X213608Y112349D01*
X213648Y112294D01*
X213684Y112237D01*
X213717Y112179D01*
X213747Y112118D01*
X213774Y112056D01*
X213798Y111992D01*
X213817Y111927D01*
X213834Y111862D01*
X213847Y111795D01*
X213856Y111728D01*
X213861Y111661D01*
X213863Y111593D01*
D12*
X205379Y102843D02*
X205381Y102905D01*
X205387Y102968D01*
X205397Y103029D01*
X205411Y103090D01*
X205428Y103150D01*
X205449Y103209D01*
X205475Y103266D01*
X205503Y103321D01*
X205535Y103375D01*
X205571Y103426D01*
X205609Y103476D01*
X205651Y103522D01*
X205695Y103566D01*
X205743Y103607D01*
X205792Y103645D01*
X205844Y103679D01*
X205898Y103710D01*
X205954Y103738D01*
X206012Y103762D01*
X206071Y103783D01*
X206131Y103799D01*
X206192Y103812D01*
X206254Y103821D01*
X206316Y103826D01*
X206379Y103827D01*
X206441Y103824D01*
X206503Y103817D01*
X206565Y103806D01*
X206625Y103791D01*
X206685Y103773D01*
X206743Y103751D01*
X206800Y103725D01*
X206855Y103695D01*
X206908Y103662D01*
X206959Y103626D01*
X207007Y103587D01*
X207053Y103544D01*
X207096Y103499D01*
X207136Y103451D01*
X207173Y103401D01*
X207207Y103348D01*
X207238Y103294D01*
X207264Y103238D01*
X207288Y103180D01*
X207307Y103120D01*
X207323Y103060D01*
X207335Y102998D01*
X207343Y102937D01*
X207347Y102874D01*
X207347Y102812D01*
X207343Y102749D01*
X207335Y102688D01*
X207323Y102626D01*
X207307Y102566D01*
X207288Y102506D01*
X207264Y102448D01*
X207238Y102392D01*
X207207Y102338D01*
X207173Y102285D01*
X207136Y102235D01*
X207096Y102187D01*
X207053Y102142D01*
X207007Y102099D01*
X206959Y102060D01*
X206908Y102024D01*
X206855Y101991D01*
X206800Y101961D01*
X206743Y101935D01*
X206685Y101913D01*
X206625Y101895D01*
X206565Y101880D01*
X206503Y101869D01*
X206441Y101862D01*
X206379Y101859D01*
X206316Y101860D01*
X206254Y101865D01*
X206192Y101874D01*
X206131Y101887D01*
X206071Y101903D01*
X206012Y101924D01*
X205954Y101948D01*
X205898Y101976D01*
X205844Y102007D01*
X205792Y102041D01*
X205743Y102079D01*
X205695Y102120D01*
X205651Y102164D01*
X205609Y102210D01*
X205571Y102260D01*
X205535Y102311D01*
X205503Y102365D01*
X205475Y102420D01*
X205449Y102477D01*
X205428Y102536D01*
X205411Y102596D01*
X205397Y102657D01*
X205387Y102718D01*
X205381Y102781D01*
X205379Y102843D01*
X205772Y099843D02*
X205774Y099891D01*
X205780Y099939D01*
X205790Y099986D01*
X205803Y100032D01*
X205821Y100077D01*
X205841Y100121D01*
X205866Y100163D01*
X205894Y100202D01*
X205924Y100239D01*
X205958Y100273D01*
X205995Y100305D01*
X206033Y100334D01*
X206074Y100359D01*
X206117Y100381D01*
X206162Y100399D01*
X206208Y100413D01*
X206255Y100424D01*
X206303Y100431D01*
X206351Y100434D01*
X206399Y100433D01*
X206447Y100428D01*
X206495Y100419D01*
X206541Y100407D01*
X206586Y100390D01*
X206630Y100370D01*
X206672Y100347D01*
X206712Y100320D01*
X206750Y100290D01*
X206785Y100257D01*
X206817Y100221D01*
X206847Y100183D01*
X206873Y100142D01*
X206895Y100099D01*
X206915Y100055D01*
X206930Y100010D01*
X206942Y099963D01*
X206950Y099915D01*
X206954Y099867D01*
X206954Y099819D01*
X206950Y099771D01*
X206942Y099723D01*
X206930Y099676D01*
X206915Y099631D01*
X206895Y099587D01*
X206873Y099544D01*
X206847Y099503D01*
X206817Y099465D01*
X206785Y099429D01*
X206750Y099396D01*
X206712Y099366D01*
X206672Y099339D01*
X206630Y099316D01*
X206586Y099296D01*
X206541Y099279D01*
X206495Y099267D01*
X206447Y099258D01*
X206399Y099253D01*
X206351Y099252D01*
X206303Y099255D01*
X206255Y099262D01*
X206208Y099273D01*
X206162Y099287D01*
X206117Y099305D01*
X206074Y099327D01*
X206033Y099352D01*
X205995Y099381D01*
X205958Y099413D01*
X205924Y099447D01*
X205894Y099484D01*
X205866Y099523D01*
X205841Y099565D01*
X205821Y099609D01*
X205803Y099654D01*
X205790Y099700D01*
X205780Y099747D01*
X205774Y099795D01*
X205772Y099843D01*
X205772Y092343D02*
X205774Y092391D01*
X205780Y092439D01*
X205790Y092486D01*
X205803Y092532D01*
X205821Y092577D01*
X205841Y092621D01*
X205866Y092663D01*
X205894Y092702D01*
X205924Y092739D01*
X205958Y092773D01*
X205995Y092805D01*
X206033Y092834D01*
X206074Y092859D01*
X206117Y092881D01*
X206162Y092899D01*
X206208Y092913D01*
X206255Y092924D01*
X206303Y092931D01*
X206351Y092934D01*
X206399Y092933D01*
X206447Y092928D01*
X206495Y092919D01*
X206541Y092907D01*
X206586Y092890D01*
X206630Y092870D01*
X206672Y092847D01*
X206712Y092820D01*
X206750Y092790D01*
X206785Y092757D01*
X206817Y092721D01*
X206847Y092683D01*
X206873Y092642D01*
X206895Y092599D01*
X206915Y092555D01*
X206930Y092510D01*
X206942Y092463D01*
X206950Y092415D01*
X206954Y092367D01*
X206954Y092319D01*
X206950Y092271D01*
X206942Y092223D01*
X206930Y092176D01*
X206915Y092131D01*
X206895Y092087D01*
X206873Y092044D01*
X206847Y092003D01*
X206817Y091965D01*
X206785Y091929D01*
X206750Y091896D01*
X206712Y091866D01*
X206672Y091839D01*
X206630Y091816D01*
X206586Y091796D01*
X206541Y091779D01*
X206495Y091767D01*
X206447Y091758D01*
X206399Y091753D01*
X206351Y091752D01*
X206303Y091755D01*
X206255Y091762D01*
X206208Y091773D01*
X206162Y091787D01*
X206117Y091805D01*
X206074Y091827D01*
X206033Y091852D01*
X205995Y091881D01*
X205958Y091913D01*
X205924Y091947D01*
X205894Y091984D01*
X205866Y092023D01*
X205841Y092065D01*
X205821Y092109D01*
X205803Y092154D01*
X205790Y092200D01*
X205780Y092247D01*
X205774Y092295D01*
X205772Y092343D01*
X197879Y092343D02*
X197881Y092405D01*
X197887Y092468D01*
X197897Y092529D01*
X197911Y092590D01*
X197928Y092650D01*
X197949Y092709D01*
X197975Y092766D01*
X198003Y092821D01*
X198035Y092875D01*
X198071Y092926D01*
X198109Y092976D01*
X198151Y093022D01*
X198195Y093066D01*
X198243Y093107D01*
X198292Y093145D01*
X198344Y093179D01*
X198398Y093210D01*
X198454Y093238D01*
X198512Y093262D01*
X198571Y093283D01*
X198631Y093299D01*
X198692Y093312D01*
X198754Y093321D01*
X198816Y093326D01*
X198879Y093327D01*
X198941Y093324D01*
X199003Y093317D01*
X199065Y093306D01*
X199125Y093291D01*
X199185Y093273D01*
X199243Y093251D01*
X199300Y093225D01*
X199355Y093195D01*
X199408Y093162D01*
X199459Y093126D01*
X199507Y093087D01*
X199553Y093044D01*
X199596Y092999D01*
X199636Y092951D01*
X199673Y092901D01*
X199707Y092848D01*
X199738Y092794D01*
X199764Y092738D01*
X199788Y092680D01*
X199807Y092620D01*
X199823Y092560D01*
X199835Y092498D01*
X199843Y092437D01*
X199847Y092374D01*
X199847Y092312D01*
X199843Y092249D01*
X199835Y092188D01*
X199823Y092126D01*
X199807Y092066D01*
X199788Y092006D01*
X199764Y091948D01*
X199738Y091892D01*
X199707Y091838D01*
X199673Y091785D01*
X199636Y091735D01*
X199596Y091687D01*
X199553Y091642D01*
X199507Y091599D01*
X199459Y091560D01*
X199408Y091524D01*
X199355Y091491D01*
X199300Y091461D01*
X199243Y091435D01*
X199185Y091413D01*
X199125Y091395D01*
X199065Y091380D01*
X199003Y091369D01*
X198941Y091362D01*
X198879Y091359D01*
X198816Y091360D01*
X198754Y091365D01*
X198692Y091374D01*
X198631Y091387D01*
X198571Y091403D01*
X198512Y091424D01*
X198454Y091448D01*
X198398Y091476D01*
X198344Y091507D01*
X198292Y091541D01*
X198243Y091579D01*
X198195Y091620D01*
X198151Y091664D01*
X198109Y091710D01*
X198071Y091760D01*
X198035Y091811D01*
X198003Y091865D01*
X197975Y091920D01*
X197949Y091977D01*
X197928Y092036D01*
X197911Y092096D01*
X197897Y092157D01*
X197887Y092218D01*
X197881Y092281D01*
X197879Y092343D01*
X190379Y092343D02*
X190381Y092405D01*
X190387Y092468D01*
X190397Y092529D01*
X190411Y092590D01*
X190428Y092650D01*
X190449Y092709D01*
X190475Y092766D01*
X190503Y092821D01*
X190535Y092875D01*
X190571Y092926D01*
X190609Y092976D01*
X190651Y093022D01*
X190695Y093066D01*
X190743Y093107D01*
X190792Y093145D01*
X190844Y093179D01*
X190898Y093210D01*
X190954Y093238D01*
X191012Y093262D01*
X191071Y093283D01*
X191131Y093299D01*
X191192Y093312D01*
X191254Y093321D01*
X191316Y093326D01*
X191379Y093327D01*
X191441Y093324D01*
X191503Y093317D01*
X191565Y093306D01*
X191625Y093291D01*
X191685Y093273D01*
X191743Y093251D01*
X191800Y093225D01*
X191855Y093195D01*
X191908Y093162D01*
X191959Y093126D01*
X192007Y093087D01*
X192053Y093044D01*
X192096Y092999D01*
X192136Y092951D01*
X192173Y092901D01*
X192207Y092848D01*
X192238Y092794D01*
X192264Y092738D01*
X192288Y092680D01*
X192307Y092620D01*
X192323Y092560D01*
X192335Y092498D01*
X192343Y092437D01*
X192347Y092374D01*
X192347Y092312D01*
X192343Y092249D01*
X192335Y092188D01*
X192323Y092126D01*
X192307Y092066D01*
X192288Y092006D01*
X192264Y091948D01*
X192238Y091892D01*
X192207Y091838D01*
X192173Y091785D01*
X192136Y091735D01*
X192096Y091687D01*
X192053Y091642D01*
X192007Y091599D01*
X191959Y091560D01*
X191908Y091524D01*
X191855Y091491D01*
X191800Y091461D01*
X191743Y091435D01*
X191685Y091413D01*
X191625Y091395D01*
X191565Y091380D01*
X191503Y091369D01*
X191441Y091362D01*
X191379Y091359D01*
X191316Y091360D01*
X191254Y091365D01*
X191192Y091374D01*
X191131Y091387D01*
X191071Y091403D01*
X191012Y091424D01*
X190954Y091448D01*
X190898Y091476D01*
X190844Y091507D01*
X190792Y091541D01*
X190743Y091579D01*
X190695Y091620D01*
X190651Y091664D01*
X190609Y091710D01*
X190571Y091760D01*
X190535Y091811D01*
X190503Y091865D01*
X190475Y091920D01*
X190449Y091977D01*
X190428Y092036D01*
X190411Y092096D01*
X190397Y092157D01*
X190387Y092218D01*
X190381Y092281D01*
X190379Y092343D01*
X182879Y092343D02*
X182881Y092405D01*
X182887Y092468D01*
X182897Y092529D01*
X182911Y092590D01*
X182928Y092650D01*
X182949Y092709D01*
X182975Y092766D01*
X183003Y092821D01*
X183035Y092875D01*
X183071Y092926D01*
X183109Y092976D01*
X183151Y093022D01*
X183195Y093066D01*
X183243Y093107D01*
X183292Y093145D01*
X183344Y093179D01*
X183398Y093210D01*
X183454Y093238D01*
X183512Y093262D01*
X183571Y093283D01*
X183631Y093299D01*
X183692Y093312D01*
X183754Y093321D01*
X183816Y093326D01*
X183879Y093327D01*
X183941Y093324D01*
X184003Y093317D01*
X184065Y093306D01*
X184125Y093291D01*
X184185Y093273D01*
X184243Y093251D01*
X184300Y093225D01*
X184355Y093195D01*
X184408Y093162D01*
X184459Y093126D01*
X184507Y093087D01*
X184553Y093044D01*
X184596Y092999D01*
X184636Y092951D01*
X184673Y092901D01*
X184707Y092848D01*
X184738Y092794D01*
X184764Y092738D01*
X184788Y092680D01*
X184807Y092620D01*
X184823Y092560D01*
X184835Y092498D01*
X184843Y092437D01*
X184847Y092374D01*
X184847Y092312D01*
X184843Y092249D01*
X184835Y092188D01*
X184823Y092126D01*
X184807Y092066D01*
X184788Y092006D01*
X184764Y091948D01*
X184738Y091892D01*
X184707Y091838D01*
X184673Y091785D01*
X184636Y091735D01*
X184596Y091687D01*
X184553Y091642D01*
X184507Y091599D01*
X184459Y091560D01*
X184408Y091524D01*
X184355Y091491D01*
X184300Y091461D01*
X184243Y091435D01*
X184185Y091413D01*
X184125Y091395D01*
X184065Y091380D01*
X184003Y091369D01*
X183941Y091362D01*
X183879Y091359D01*
X183816Y091360D01*
X183754Y091365D01*
X183692Y091374D01*
X183631Y091387D01*
X183571Y091403D01*
X183512Y091424D01*
X183454Y091448D01*
X183398Y091476D01*
X183344Y091507D01*
X183292Y091541D01*
X183243Y091579D01*
X183195Y091620D01*
X183151Y091664D01*
X183109Y091710D01*
X183071Y091760D01*
X183035Y091811D01*
X183003Y091865D01*
X182975Y091920D01*
X182949Y091977D01*
X182928Y092036D01*
X182911Y092096D01*
X182897Y092157D01*
X182887Y092218D01*
X182881Y092281D01*
X182879Y092343D01*
X175379Y092343D02*
X175381Y092405D01*
X175387Y092468D01*
X175397Y092529D01*
X175411Y092590D01*
X175428Y092650D01*
X175449Y092709D01*
X175475Y092766D01*
X175503Y092821D01*
X175535Y092875D01*
X175571Y092926D01*
X175609Y092976D01*
X175651Y093022D01*
X175695Y093066D01*
X175743Y093107D01*
X175792Y093145D01*
X175844Y093179D01*
X175898Y093210D01*
X175954Y093238D01*
X176012Y093262D01*
X176071Y093283D01*
X176131Y093299D01*
X176192Y093312D01*
X176254Y093321D01*
X176316Y093326D01*
X176379Y093327D01*
X176441Y093324D01*
X176503Y093317D01*
X176565Y093306D01*
X176625Y093291D01*
X176685Y093273D01*
X176743Y093251D01*
X176800Y093225D01*
X176855Y093195D01*
X176908Y093162D01*
X176959Y093126D01*
X177007Y093087D01*
X177053Y093044D01*
X177096Y092999D01*
X177136Y092951D01*
X177173Y092901D01*
X177207Y092848D01*
X177238Y092794D01*
X177264Y092738D01*
X177288Y092680D01*
X177307Y092620D01*
X177323Y092560D01*
X177335Y092498D01*
X177343Y092437D01*
X177347Y092374D01*
X177347Y092312D01*
X177343Y092249D01*
X177335Y092188D01*
X177323Y092126D01*
X177307Y092066D01*
X177288Y092006D01*
X177264Y091948D01*
X177238Y091892D01*
X177207Y091838D01*
X177173Y091785D01*
X177136Y091735D01*
X177096Y091687D01*
X177053Y091642D01*
X177007Y091599D01*
X176959Y091560D01*
X176908Y091524D01*
X176855Y091491D01*
X176800Y091461D01*
X176743Y091435D01*
X176685Y091413D01*
X176625Y091395D01*
X176565Y091380D01*
X176503Y091369D01*
X176441Y091362D01*
X176379Y091359D01*
X176316Y091360D01*
X176254Y091365D01*
X176192Y091374D01*
X176131Y091387D01*
X176071Y091403D01*
X176012Y091424D01*
X175954Y091448D01*
X175898Y091476D01*
X175844Y091507D01*
X175792Y091541D01*
X175743Y091579D01*
X175695Y091620D01*
X175651Y091664D01*
X175609Y091710D01*
X175571Y091760D01*
X175535Y091811D01*
X175503Y091865D01*
X175475Y091920D01*
X175449Y091977D01*
X175428Y092036D01*
X175411Y092096D01*
X175397Y092157D01*
X175387Y092218D01*
X175381Y092281D01*
X175379Y092343D01*
X166004Y092343D02*
X166006Y092405D01*
X166012Y092468D01*
X166022Y092529D01*
X166036Y092590D01*
X166053Y092650D01*
X166074Y092709D01*
X166100Y092766D01*
X166128Y092821D01*
X166160Y092875D01*
X166196Y092926D01*
X166234Y092976D01*
X166276Y093022D01*
X166320Y093066D01*
X166368Y093107D01*
X166417Y093145D01*
X166469Y093179D01*
X166523Y093210D01*
X166579Y093238D01*
X166637Y093262D01*
X166696Y093283D01*
X166756Y093299D01*
X166817Y093312D01*
X166879Y093321D01*
X166941Y093326D01*
X167004Y093327D01*
X167066Y093324D01*
X167128Y093317D01*
X167190Y093306D01*
X167250Y093291D01*
X167310Y093273D01*
X167368Y093251D01*
X167425Y093225D01*
X167480Y093195D01*
X167533Y093162D01*
X167584Y093126D01*
X167632Y093087D01*
X167678Y093044D01*
X167721Y092999D01*
X167761Y092951D01*
X167798Y092901D01*
X167832Y092848D01*
X167863Y092794D01*
X167889Y092738D01*
X167913Y092680D01*
X167932Y092620D01*
X167948Y092560D01*
X167960Y092498D01*
X167968Y092437D01*
X167972Y092374D01*
X167972Y092312D01*
X167968Y092249D01*
X167960Y092188D01*
X167948Y092126D01*
X167932Y092066D01*
X167913Y092006D01*
X167889Y091948D01*
X167863Y091892D01*
X167832Y091838D01*
X167798Y091785D01*
X167761Y091735D01*
X167721Y091687D01*
X167678Y091642D01*
X167632Y091599D01*
X167584Y091560D01*
X167533Y091524D01*
X167480Y091491D01*
X167425Y091461D01*
X167368Y091435D01*
X167310Y091413D01*
X167250Y091395D01*
X167190Y091380D01*
X167128Y091369D01*
X167066Y091362D01*
X167004Y091359D01*
X166941Y091360D01*
X166879Y091365D01*
X166817Y091374D01*
X166756Y091387D01*
X166696Y091403D01*
X166637Y091424D01*
X166579Y091448D01*
X166523Y091476D01*
X166469Y091507D01*
X166417Y091541D01*
X166368Y091579D01*
X166320Y091620D01*
X166276Y091664D01*
X166234Y091710D01*
X166196Y091760D01*
X166160Y091811D01*
X166128Y091865D01*
X166100Y091920D01*
X166074Y091977D01*
X166053Y092036D01*
X166036Y092096D01*
X166022Y092157D01*
X166012Y092218D01*
X166006Y092281D01*
X166004Y092343D01*
X151004Y095343D02*
X151006Y095405D01*
X151012Y095468D01*
X151022Y095529D01*
X151036Y095590D01*
X151053Y095650D01*
X151074Y095709D01*
X151100Y095766D01*
X151128Y095821D01*
X151160Y095875D01*
X151196Y095926D01*
X151234Y095976D01*
X151276Y096022D01*
X151320Y096066D01*
X151368Y096107D01*
X151417Y096145D01*
X151469Y096179D01*
X151523Y096210D01*
X151579Y096238D01*
X151637Y096262D01*
X151696Y096283D01*
X151756Y096299D01*
X151817Y096312D01*
X151879Y096321D01*
X151941Y096326D01*
X152004Y096327D01*
X152066Y096324D01*
X152128Y096317D01*
X152190Y096306D01*
X152250Y096291D01*
X152310Y096273D01*
X152368Y096251D01*
X152425Y096225D01*
X152480Y096195D01*
X152533Y096162D01*
X152584Y096126D01*
X152632Y096087D01*
X152678Y096044D01*
X152721Y095999D01*
X152761Y095951D01*
X152798Y095901D01*
X152832Y095848D01*
X152863Y095794D01*
X152889Y095738D01*
X152913Y095680D01*
X152932Y095620D01*
X152948Y095560D01*
X152960Y095498D01*
X152968Y095437D01*
X152972Y095374D01*
X152972Y095312D01*
X152968Y095249D01*
X152960Y095188D01*
X152948Y095126D01*
X152932Y095066D01*
X152913Y095006D01*
X152889Y094948D01*
X152863Y094892D01*
X152832Y094838D01*
X152798Y094785D01*
X152761Y094735D01*
X152721Y094687D01*
X152678Y094642D01*
X152632Y094599D01*
X152584Y094560D01*
X152533Y094524D01*
X152480Y094491D01*
X152425Y094461D01*
X152368Y094435D01*
X152310Y094413D01*
X152250Y094395D01*
X152190Y094380D01*
X152128Y094369D01*
X152066Y094362D01*
X152004Y094359D01*
X151941Y094360D01*
X151879Y094365D01*
X151817Y094374D01*
X151756Y094387D01*
X151696Y094403D01*
X151637Y094424D01*
X151579Y094448D01*
X151523Y094476D01*
X151469Y094507D01*
X151417Y094541D01*
X151368Y094579D01*
X151320Y094620D01*
X151276Y094664D01*
X151234Y094710D01*
X151196Y094760D01*
X151160Y094811D01*
X151128Y094865D01*
X151100Y094920D01*
X151074Y094977D01*
X151053Y095036D01*
X151036Y095096D01*
X151022Y095157D01*
X151012Y095218D01*
X151006Y095281D01*
X151004Y095343D01*
X150379Y087843D02*
X150381Y087905D01*
X150387Y087968D01*
X150397Y088029D01*
X150411Y088090D01*
X150428Y088150D01*
X150449Y088209D01*
X150475Y088266D01*
X150503Y088321D01*
X150535Y088375D01*
X150571Y088426D01*
X150609Y088476D01*
X150651Y088522D01*
X150695Y088566D01*
X150743Y088607D01*
X150792Y088645D01*
X150844Y088679D01*
X150898Y088710D01*
X150954Y088738D01*
X151012Y088762D01*
X151071Y088783D01*
X151131Y088799D01*
X151192Y088812D01*
X151254Y088821D01*
X151316Y088826D01*
X151379Y088827D01*
X151441Y088824D01*
X151503Y088817D01*
X151565Y088806D01*
X151625Y088791D01*
X151685Y088773D01*
X151743Y088751D01*
X151800Y088725D01*
X151855Y088695D01*
X151908Y088662D01*
X151959Y088626D01*
X152007Y088587D01*
X152053Y088544D01*
X152096Y088499D01*
X152136Y088451D01*
X152173Y088401D01*
X152207Y088348D01*
X152238Y088294D01*
X152264Y088238D01*
X152288Y088180D01*
X152307Y088120D01*
X152323Y088060D01*
X152335Y087998D01*
X152343Y087937D01*
X152347Y087874D01*
X152347Y087812D01*
X152343Y087749D01*
X152335Y087688D01*
X152323Y087626D01*
X152307Y087566D01*
X152288Y087506D01*
X152264Y087448D01*
X152238Y087392D01*
X152207Y087338D01*
X152173Y087285D01*
X152136Y087235D01*
X152096Y087187D01*
X152053Y087142D01*
X152007Y087099D01*
X151959Y087060D01*
X151908Y087024D01*
X151855Y086991D01*
X151800Y086961D01*
X151743Y086935D01*
X151685Y086913D01*
X151625Y086895D01*
X151565Y086880D01*
X151503Y086869D01*
X151441Y086862D01*
X151379Y086859D01*
X151316Y086860D01*
X151254Y086865D01*
X151192Y086874D01*
X151131Y086887D01*
X151071Y086903D01*
X151012Y086924D01*
X150954Y086948D01*
X150898Y086976D01*
X150844Y087007D01*
X150792Y087041D01*
X150743Y087079D01*
X150695Y087120D01*
X150651Y087164D01*
X150609Y087210D01*
X150571Y087260D01*
X150535Y087311D01*
X150503Y087365D01*
X150475Y087420D01*
X150449Y087477D01*
X150428Y087536D01*
X150411Y087596D01*
X150397Y087657D01*
X150387Y087718D01*
X150381Y087781D01*
X150379Y087843D01*
X150379Y102843D02*
X150381Y102905D01*
X150387Y102968D01*
X150397Y103029D01*
X150411Y103090D01*
X150428Y103150D01*
X150449Y103209D01*
X150475Y103266D01*
X150503Y103321D01*
X150535Y103375D01*
X150571Y103426D01*
X150609Y103476D01*
X150651Y103522D01*
X150695Y103566D01*
X150743Y103607D01*
X150792Y103645D01*
X150844Y103679D01*
X150898Y103710D01*
X150954Y103738D01*
X151012Y103762D01*
X151071Y103783D01*
X151131Y103799D01*
X151192Y103812D01*
X151254Y103821D01*
X151316Y103826D01*
X151379Y103827D01*
X151441Y103824D01*
X151503Y103817D01*
X151565Y103806D01*
X151625Y103791D01*
X151685Y103773D01*
X151743Y103751D01*
X151800Y103725D01*
X151855Y103695D01*
X151908Y103662D01*
X151959Y103626D01*
X152007Y103587D01*
X152053Y103544D01*
X152096Y103499D01*
X152136Y103451D01*
X152173Y103401D01*
X152207Y103348D01*
X152238Y103294D01*
X152264Y103238D01*
X152288Y103180D01*
X152307Y103120D01*
X152323Y103060D01*
X152335Y102998D01*
X152343Y102937D01*
X152347Y102874D01*
X152347Y102812D01*
X152343Y102749D01*
X152335Y102688D01*
X152323Y102626D01*
X152307Y102566D01*
X152288Y102506D01*
X152264Y102448D01*
X152238Y102392D01*
X152207Y102338D01*
X152173Y102285D01*
X152136Y102235D01*
X152096Y102187D01*
X152053Y102142D01*
X152007Y102099D01*
X151959Y102060D01*
X151908Y102024D01*
X151855Y101991D01*
X151800Y101961D01*
X151743Y101935D01*
X151685Y101913D01*
X151625Y101895D01*
X151565Y101880D01*
X151503Y101869D01*
X151441Y101862D01*
X151379Y101859D01*
X151316Y101860D01*
X151254Y101865D01*
X151192Y101874D01*
X151131Y101887D01*
X151071Y101903D01*
X151012Y101924D01*
X150954Y101948D01*
X150898Y101976D01*
X150844Y102007D01*
X150792Y102041D01*
X150743Y102079D01*
X150695Y102120D01*
X150651Y102164D01*
X150609Y102210D01*
X150571Y102260D01*
X150535Y102311D01*
X150503Y102365D01*
X150475Y102420D01*
X150449Y102477D01*
X150428Y102536D01*
X150411Y102596D01*
X150397Y102657D01*
X150387Y102718D01*
X150381Y102781D01*
X150379Y102843D01*
X172379Y102843D02*
X172381Y102905D01*
X172387Y102968D01*
X172397Y103029D01*
X172411Y103090D01*
X172428Y103150D01*
X172449Y103209D01*
X172475Y103266D01*
X172503Y103321D01*
X172535Y103375D01*
X172571Y103426D01*
X172609Y103476D01*
X172651Y103522D01*
X172695Y103566D01*
X172743Y103607D01*
X172792Y103645D01*
X172844Y103679D01*
X172898Y103710D01*
X172954Y103738D01*
X173012Y103762D01*
X173071Y103783D01*
X173131Y103799D01*
X173192Y103812D01*
X173254Y103821D01*
X173316Y103826D01*
X173379Y103827D01*
X173441Y103824D01*
X173503Y103817D01*
X173565Y103806D01*
X173625Y103791D01*
X173685Y103773D01*
X173743Y103751D01*
X173800Y103725D01*
X173855Y103695D01*
X173908Y103662D01*
X173959Y103626D01*
X174007Y103587D01*
X174053Y103544D01*
X174096Y103499D01*
X174136Y103451D01*
X174173Y103401D01*
X174207Y103348D01*
X174238Y103294D01*
X174264Y103238D01*
X174288Y103180D01*
X174307Y103120D01*
X174323Y103060D01*
X174335Y102998D01*
X174343Y102937D01*
X174347Y102874D01*
X174347Y102812D01*
X174343Y102749D01*
X174335Y102688D01*
X174323Y102626D01*
X174307Y102566D01*
X174288Y102506D01*
X174264Y102448D01*
X174238Y102392D01*
X174207Y102338D01*
X174173Y102285D01*
X174136Y102235D01*
X174096Y102187D01*
X174053Y102142D01*
X174007Y102099D01*
X173959Y102060D01*
X173908Y102024D01*
X173855Y101991D01*
X173800Y101961D01*
X173743Y101935D01*
X173685Y101913D01*
X173625Y101895D01*
X173565Y101880D01*
X173503Y101869D01*
X173441Y101862D01*
X173379Y101859D01*
X173316Y101860D01*
X173254Y101865D01*
X173192Y101874D01*
X173131Y101887D01*
X173071Y101903D01*
X173012Y101924D01*
X172954Y101948D01*
X172898Y101976D01*
X172844Y102007D01*
X172792Y102041D01*
X172743Y102079D01*
X172695Y102120D01*
X172651Y102164D01*
X172609Y102210D01*
X172571Y102260D01*
X172535Y102311D01*
X172503Y102365D01*
X172475Y102420D01*
X172449Y102477D01*
X172428Y102536D01*
X172411Y102596D01*
X172397Y102657D01*
X172387Y102718D01*
X172381Y102781D01*
X172379Y102843D01*
X179879Y102843D02*
X179881Y102905D01*
X179887Y102968D01*
X179897Y103029D01*
X179911Y103090D01*
X179928Y103150D01*
X179949Y103209D01*
X179975Y103266D01*
X180003Y103321D01*
X180035Y103375D01*
X180071Y103426D01*
X180109Y103476D01*
X180151Y103522D01*
X180195Y103566D01*
X180243Y103607D01*
X180292Y103645D01*
X180344Y103679D01*
X180398Y103710D01*
X180454Y103738D01*
X180512Y103762D01*
X180571Y103783D01*
X180631Y103799D01*
X180692Y103812D01*
X180754Y103821D01*
X180816Y103826D01*
X180879Y103827D01*
X180941Y103824D01*
X181003Y103817D01*
X181065Y103806D01*
X181125Y103791D01*
X181185Y103773D01*
X181243Y103751D01*
X181300Y103725D01*
X181355Y103695D01*
X181408Y103662D01*
X181459Y103626D01*
X181507Y103587D01*
X181553Y103544D01*
X181596Y103499D01*
X181636Y103451D01*
X181673Y103401D01*
X181707Y103348D01*
X181738Y103294D01*
X181764Y103238D01*
X181788Y103180D01*
X181807Y103120D01*
X181823Y103060D01*
X181835Y102998D01*
X181843Y102937D01*
X181847Y102874D01*
X181847Y102812D01*
X181843Y102749D01*
X181835Y102688D01*
X181823Y102626D01*
X181807Y102566D01*
X181788Y102506D01*
X181764Y102448D01*
X181738Y102392D01*
X181707Y102338D01*
X181673Y102285D01*
X181636Y102235D01*
X181596Y102187D01*
X181553Y102142D01*
X181507Y102099D01*
X181459Y102060D01*
X181408Y102024D01*
X181355Y101991D01*
X181300Y101961D01*
X181243Y101935D01*
X181185Y101913D01*
X181125Y101895D01*
X181065Y101880D01*
X181003Y101869D01*
X180941Y101862D01*
X180879Y101859D01*
X180816Y101860D01*
X180754Y101865D01*
X180692Y101874D01*
X180631Y101887D01*
X180571Y101903D01*
X180512Y101924D01*
X180454Y101948D01*
X180398Y101976D01*
X180344Y102007D01*
X180292Y102041D01*
X180243Y102079D01*
X180195Y102120D01*
X180151Y102164D01*
X180109Y102210D01*
X180071Y102260D01*
X180035Y102311D01*
X180003Y102365D01*
X179975Y102420D01*
X179949Y102477D01*
X179928Y102536D01*
X179911Y102596D01*
X179897Y102657D01*
X179887Y102718D01*
X179881Y102781D01*
X179879Y102843D01*
X187379Y102843D02*
X187381Y102905D01*
X187387Y102968D01*
X187397Y103029D01*
X187411Y103090D01*
X187428Y103150D01*
X187449Y103209D01*
X187475Y103266D01*
X187503Y103321D01*
X187535Y103375D01*
X187571Y103426D01*
X187609Y103476D01*
X187651Y103522D01*
X187695Y103566D01*
X187743Y103607D01*
X187792Y103645D01*
X187844Y103679D01*
X187898Y103710D01*
X187954Y103738D01*
X188012Y103762D01*
X188071Y103783D01*
X188131Y103799D01*
X188192Y103812D01*
X188254Y103821D01*
X188316Y103826D01*
X188379Y103827D01*
X188441Y103824D01*
X188503Y103817D01*
X188565Y103806D01*
X188625Y103791D01*
X188685Y103773D01*
X188743Y103751D01*
X188800Y103725D01*
X188855Y103695D01*
X188908Y103662D01*
X188959Y103626D01*
X189007Y103587D01*
X189053Y103544D01*
X189096Y103499D01*
X189136Y103451D01*
X189173Y103401D01*
X189207Y103348D01*
X189238Y103294D01*
X189264Y103238D01*
X189288Y103180D01*
X189307Y103120D01*
X189323Y103060D01*
X189335Y102998D01*
X189343Y102937D01*
X189347Y102874D01*
X189347Y102812D01*
X189343Y102749D01*
X189335Y102688D01*
X189323Y102626D01*
X189307Y102566D01*
X189288Y102506D01*
X189264Y102448D01*
X189238Y102392D01*
X189207Y102338D01*
X189173Y102285D01*
X189136Y102235D01*
X189096Y102187D01*
X189053Y102142D01*
X189007Y102099D01*
X188959Y102060D01*
X188908Y102024D01*
X188855Y101991D01*
X188800Y101961D01*
X188743Y101935D01*
X188685Y101913D01*
X188625Y101895D01*
X188565Y101880D01*
X188503Y101869D01*
X188441Y101862D01*
X188379Y101859D01*
X188316Y101860D01*
X188254Y101865D01*
X188192Y101874D01*
X188131Y101887D01*
X188071Y101903D01*
X188012Y101924D01*
X187954Y101948D01*
X187898Y101976D01*
X187844Y102007D01*
X187792Y102041D01*
X187743Y102079D01*
X187695Y102120D01*
X187651Y102164D01*
X187609Y102210D01*
X187571Y102260D01*
X187535Y102311D01*
X187503Y102365D01*
X187475Y102420D01*
X187449Y102477D01*
X187428Y102536D01*
X187411Y102596D01*
X187397Y102657D01*
X187387Y102718D01*
X187381Y102781D01*
X187379Y102843D01*
X110316Y066780D02*
X110318Y066842D01*
X110324Y066905D01*
X110334Y066966D01*
X110348Y067027D01*
X110365Y067087D01*
X110386Y067146D01*
X110412Y067203D01*
X110440Y067258D01*
X110472Y067312D01*
X110508Y067363D01*
X110546Y067413D01*
X110588Y067459D01*
X110632Y067503D01*
X110680Y067544D01*
X110729Y067582D01*
X110781Y067616D01*
X110835Y067647D01*
X110891Y067675D01*
X110949Y067699D01*
X111008Y067720D01*
X111068Y067736D01*
X111129Y067749D01*
X111191Y067758D01*
X111253Y067763D01*
X111316Y067764D01*
X111378Y067761D01*
X111440Y067754D01*
X111502Y067743D01*
X111562Y067728D01*
X111622Y067710D01*
X111680Y067688D01*
X111737Y067662D01*
X111792Y067632D01*
X111845Y067599D01*
X111896Y067563D01*
X111944Y067524D01*
X111990Y067481D01*
X112033Y067436D01*
X112073Y067388D01*
X112110Y067338D01*
X112144Y067285D01*
X112175Y067231D01*
X112201Y067175D01*
X112225Y067117D01*
X112244Y067057D01*
X112260Y066997D01*
X112272Y066935D01*
X112280Y066874D01*
X112284Y066811D01*
X112284Y066749D01*
X112280Y066686D01*
X112272Y066625D01*
X112260Y066563D01*
X112244Y066503D01*
X112225Y066443D01*
X112201Y066385D01*
X112175Y066329D01*
X112144Y066275D01*
X112110Y066222D01*
X112073Y066172D01*
X112033Y066124D01*
X111990Y066079D01*
X111944Y066036D01*
X111896Y065997D01*
X111845Y065961D01*
X111792Y065928D01*
X111737Y065898D01*
X111680Y065872D01*
X111622Y065850D01*
X111562Y065832D01*
X111502Y065817D01*
X111440Y065806D01*
X111378Y065799D01*
X111316Y065796D01*
X111253Y065797D01*
X111191Y065802D01*
X111129Y065811D01*
X111068Y065824D01*
X111008Y065840D01*
X110949Y065861D01*
X110891Y065885D01*
X110835Y065913D01*
X110781Y065944D01*
X110729Y065978D01*
X110680Y066016D01*
X110632Y066057D01*
X110588Y066101D01*
X110546Y066147D01*
X110508Y066197D01*
X110472Y066248D01*
X110440Y066302D01*
X110412Y066357D01*
X110386Y066414D01*
X110365Y066473D01*
X110348Y066533D01*
X110334Y066594D01*
X110324Y066655D01*
X110318Y066718D01*
X110316Y066780D01*
X110709Y063780D02*
X110711Y063828D01*
X110717Y063876D01*
X110727Y063923D01*
X110740Y063969D01*
X110758Y064014D01*
X110778Y064058D01*
X110803Y064100D01*
X110831Y064139D01*
X110861Y064176D01*
X110895Y064210D01*
X110932Y064242D01*
X110970Y064271D01*
X111011Y064296D01*
X111054Y064318D01*
X111099Y064336D01*
X111145Y064350D01*
X111192Y064361D01*
X111240Y064368D01*
X111288Y064371D01*
X111336Y064370D01*
X111384Y064365D01*
X111432Y064356D01*
X111478Y064344D01*
X111523Y064327D01*
X111567Y064307D01*
X111609Y064284D01*
X111649Y064257D01*
X111687Y064227D01*
X111722Y064194D01*
X111754Y064158D01*
X111784Y064120D01*
X111810Y064079D01*
X111832Y064036D01*
X111852Y063992D01*
X111867Y063947D01*
X111879Y063900D01*
X111887Y063852D01*
X111891Y063804D01*
X111891Y063756D01*
X111887Y063708D01*
X111879Y063660D01*
X111867Y063613D01*
X111852Y063568D01*
X111832Y063524D01*
X111810Y063481D01*
X111784Y063440D01*
X111754Y063402D01*
X111722Y063366D01*
X111687Y063333D01*
X111649Y063303D01*
X111609Y063276D01*
X111567Y063253D01*
X111523Y063233D01*
X111478Y063216D01*
X111432Y063204D01*
X111384Y063195D01*
X111336Y063190D01*
X111288Y063189D01*
X111240Y063192D01*
X111192Y063199D01*
X111145Y063210D01*
X111099Y063224D01*
X111054Y063242D01*
X111011Y063264D01*
X110970Y063289D01*
X110932Y063318D01*
X110895Y063350D01*
X110861Y063384D01*
X110831Y063421D01*
X110803Y063460D01*
X110778Y063502D01*
X110758Y063546D01*
X110740Y063591D01*
X110727Y063637D01*
X110717Y063684D01*
X110711Y063732D01*
X110709Y063780D01*
X110709Y056280D02*
X110711Y056328D01*
X110717Y056376D01*
X110727Y056423D01*
X110740Y056469D01*
X110758Y056514D01*
X110778Y056558D01*
X110803Y056600D01*
X110831Y056639D01*
X110861Y056676D01*
X110895Y056710D01*
X110932Y056742D01*
X110970Y056771D01*
X111011Y056796D01*
X111054Y056818D01*
X111099Y056836D01*
X111145Y056850D01*
X111192Y056861D01*
X111240Y056868D01*
X111288Y056871D01*
X111336Y056870D01*
X111384Y056865D01*
X111432Y056856D01*
X111478Y056844D01*
X111523Y056827D01*
X111567Y056807D01*
X111609Y056784D01*
X111649Y056757D01*
X111687Y056727D01*
X111722Y056694D01*
X111754Y056658D01*
X111784Y056620D01*
X111810Y056579D01*
X111832Y056536D01*
X111852Y056492D01*
X111867Y056447D01*
X111879Y056400D01*
X111887Y056352D01*
X111891Y056304D01*
X111891Y056256D01*
X111887Y056208D01*
X111879Y056160D01*
X111867Y056113D01*
X111852Y056068D01*
X111832Y056024D01*
X111810Y055981D01*
X111784Y055940D01*
X111754Y055902D01*
X111722Y055866D01*
X111687Y055833D01*
X111649Y055803D01*
X111609Y055776D01*
X111567Y055753D01*
X111523Y055733D01*
X111478Y055716D01*
X111432Y055704D01*
X111384Y055695D01*
X111336Y055690D01*
X111288Y055689D01*
X111240Y055692D01*
X111192Y055699D01*
X111145Y055710D01*
X111099Y055724D01*
X111054Y055742D01*
X111011Y055764D01*
X110970Y055789D01*
X110932Y055818D01*
X110895Y055850D01*
X110861Y055884D01*
X110831Y055921D01*
X110803Y055960D01*
X110778Y056002D01*
X110758Y056046D01*
X110740Y056091D01*
X110727Y056137D01*
X110717Y056184D01*
X110711Y056232D01*
X110709Y056280D01*
X102816Y056280D02*
X102818Y056342D01*
X102824Y056405D01*
X102834Y056466D01*
X102848Y056527D01*
X102865Y056587D01*
X102886Y056646D01*
X102912Y056703D01*
X102940Y056758D01*
X102972Y056812D01*
X103008Y056863D01*
X103046Y056913D01*
X103088Y056959D01*
X103132Y057003D01*
X103180Y057044D01*
X103229Y057082D01*
X103281Y057116D01*
X103335Y057147D01*
X103391Y057175D01*
X103449Y057199D01*
X103508Y057220D01*
X103568Y057236D01*
X103629Y057249D01*
X103691Y057258D01*
X103753Y057263D01*
X103816Y057264D01*
X103878Y057261D01*
X103940Y057254D01*
X104002Y057243D01*
X104062Y057228D01*
X104122Y057210D01*
X104180Y057188D01*
X104237Y057162D01*
X104292Y057132D01*
X104345Y057099D01*
X104396Y057063D01*
X104444Y057024D01*
X104490Y056981D01*
X104533Y056936D01*
X104573Y056888D01*
X104610Y056838D01*
X104644Y056785D01*
X104675Y056731D01*
X104701Y056675D01*
X104725Y056617D01*
X104744Y056557D01*
X104760Y056497D01*
X104772Y056435D01*
X104780Y056374D01*
X104784Y056311D01*
X104784Y056249D01*
X104780Y056186D01*
X104772Y056125D01*
X104760Y056063D01*
X104744Y056003D01*
X104725Y055943D01*
X104701Y055885D01*
X104675Y055829D01*
X104644Y055775D01*
X104610Y055722D01*
X104573Y055672D01*
X104533Y055624D01*
X104490Y055579D01*
X104444Y055536D01*
X104396Y055497D01*
X104345Y055461D01*
X104292Y055428D01*
X104237Y055398D01*
X104180Y055372D01*
X104122Y055350D01*
X104062Y055332D01*
X104002Y055317D01*
X103940Y055306D01*
X103878Y055299D01*
X103816Y055296D01*
X103753Y055297D01*
X103691Y055302D01*
X103629Y055311D01*
X103568Y055324D01*
X103508Y055340D01*
X103449Y055361D01*
X103391Y055385D01*
X103335Y055413D01*
X103281Y055444D01*
X103229Y055478D01*
X103180Y055516D01*
X103132Y055557D01*
X103088Y055601D01*
X103046Y055647D01*
X103008Y055697D01*
X102972Y055748D01*
X102940Y055802D01*
X102912Y055857D01*
X102886Y055914D01*
X102865Y055973D01*
X102848Y056033D01*
X102834Y056094D01*
X102824Y056155D01*
X102818Y056218D01*
X102816Y056280D01*
X095316Y056280D02*
X095318Y056342D01*
X095324Y056405D01*
X095334Y056466D01*
X095348Y056527D01*
X095365Y056587D01*
X095386Y056646D01*
X095412Y056703D01*
X095440Y056758D01*
X095472Y056812D01*
X095508Y056863D01*
X095546Y056913D01*
X095588Y056959D01*
X095632Y057003D01*
X095680Y057044D01*
X095729Y057082D01*
X095781Y057116D01*
X095835Y057147D01*
X095891Y057175D01*
X095949Y057199D01*
X096008Y057220D01*
X096068Y057236D01*
X096129Y057249D01*
X096191Y057258D01*
X096253Y057263D01*
X096316Y057264D01*
X096378Y057261D01*
X096440Y057254D01*
X096502Y057243D01*
X096562Y057228D01*
X096622Y057210D01*
X096680Y057188D01*
X096737Y057162D01*
X096792Y057132D01*
X096845Y057099D01*
X096896Y057063D01*
X096944Y057024D01*
X096990Y056981D01*
X097033Y056936D01*
X097073Y056888D01*
X097110Y056838D01*
X097144Y056785D01*
X097175Y056731D01*
X097201Y056675D01*
X097225Y056617D01*
X097244Y056557D01*
X097260Y056497D01*
X097272Y056435D01*
X097280Y056374D01*
X097284Y056311D01*
X097284Y056249D01*
X097280Y056186D01*
X097272Y056125D01*
X097260Y056063D01*
X097244Y056003D01*
X097225Y055943D01*
X097201Y055885D01*
X097175Y055829D01*
X097144Y055775D01*
X097110Y055722D01*
X097073Y055672D01*
X097033Y055624D01*
X096990Y055579D01*
X096944Y055536D01*
X096896Y055497D01*
X096845Y055461D01*
X096792Y055428D01*
X096737Y055398D01*
X096680Y055372D01*
X096622Y055350D01*
X096562Y055332D01*
X096502Y055317D01*
X096440Y055306D01*
X096378Y055299D01*
X096316Y055296D01*
X096253Y055297D01*
X096191Y055302D01*
X096129Y055311D01*
X096068Y055324D01*
X096008Y055340D01*
X095949Y055361D01*
X095891Y055385D01*
X095835Y055413D01*
X095781Y055444D01*
X095729Y055478D01*
X095680Y055516D01*
X095632Y055557D01*
X095588Y055601D01*
X095546Y055647D01*
X095508Y055697D01*
X095472Y055748D01*
X095440Y055802D01*
X095412Y055857D01*
X095386Y055914D01*
X095365Y055973D01*
X095348Y056033D01*
X095334Y056094D01*
X095324Y056155D01*
X095318Y056218D01*
X095316Y056280D01*
X087816Y056280D02*
X087818Y056342D01*
X087824Y056405D01*
X087834Y056466D01*
X087848Y056527D01*
X087865Y056587D01*
X087886Y056646D01*
X087912Y056703D01*
X087940Y056758D01*
X087972Y056812D01*
X088008Y056863D01*
X088046Y056913D01*
X088088Y056959D01*
X088132Y057003D01*
X088180Y057044D01*
X088229Y057082D01*
X088281Y057116D01*
X088335Y057147D01*
X088391Y057175D01*
X088449Y057199D01*
X088508Y057220D01*
X088568Y057236D01*
X088629Y057249D01*
X088691Y057258D01*
X088753Y057263D01*
X088816Y057264D01*
X088878Y057261D01*
X088940Y057254D01*
X089002Y057243D01*
X089062Y057228D01*
X089122Y057210D01*
X089180Y057188D01*
X089237Y057162D01*
X089292Y057132D01*
X089345Y057099D01*
X089396Y057063D01*
X089444Y057024D01*
X089490Y056981D01*
X089533Y056936D01*
X089573Y056888D01*
X089610Y056838D01*
X089644Y056785D01*
X089675Y056731D01*
X089701Y056675D01*
X089725Y056617D01*
X089744Y056557D01*
X089760Y056497D01*
X089772Y056435D01*
X089780Y056374D01*
X089784Y056311D01*
X089784Y056249D01*
X089780Y056186D01*
X089772Y056125D01*
X089760Y056063D01*
X089744Y056003D01*
X089725Y055943D01*
X089701Y055885D01*
X089675Y055829D01*
X089644Y055775D01*
X089610Y055722D01*
X089573Y055672D01*
X089533Y055624D01*
X089490Y055579D01*
X089444Y055536D01*
X089396Y055497D01*
X089345Y055461D01*
X089292Y055428D01*
X089237Y055398D01*
X089180Y055372D01*
X089122Y055350D01*
X089062Y055332D01*
X089002Y055317D01*
X088940Y055306D01*
X088878Y055299D01*
X088816Y055296D01*
X088753Y055297D01*
X088691Y055302D01*
X088629Y055311D01*
X088568Y055324D01*
X088508Y055340D01*
X088449Y055361D01*
X088391Y055385D01*
X088335Y055413D01*
X088281Y055444D01*
X088229Y055478D01*
X088180Y055516D01*
X088132Y055557D01*
X088088Y055601D01*
X088046Y055647D01*
X088008Y055697D01*
X087972Y055748D01*
X087940Y055802D01*
X087912Y055857D01*
X087886Y055914D01*
X087865Y055973D01*
X087848Y056033D01*
X087834Y056094D01*
X087824Y056155D01*
X087818Y056218D01*
X087816Y056280D01*
X080316Y056280D02*
X080318Y056342D01*
X080324Y056405D01*
X080334Y056466D01*
X080348Y056527D01*
X080365Y056587D01*
X080386Y056646D01*
X080412Y056703D01*
X080440Y056758D01*
X080472Y056812D01*
X080508Y056863D01*
X080546Y056913D01*
X080588Y056959D01*
X080632Y057003D01*
X080680Y057044D01*
X080729Y057082D01*
X080781Y057116D01*
X080835Y057147D01*
X080891Y057175D01*
X080949Y057199D01*
X081008Y057220D01*
X081068Y057236D01*
X081129Y057249D01*
X081191Y057258D01*
X081253Y057263D01*
X081316Y057264D01*
X081378Y057261D01*
X081440Y057254D01*
X081502Y057243D01*
X081562Y057228D01*
X081622Y057210D01*
X081680Y057188D01*
X081737Y057162D01*
X081792Y057132D01*
X081845Y057099D01*
X081896Y057063D01*
X081944Y057024D01*
X081990Y056981D01*
X082033Y056936D01*
X082073Y056888D01*
X082110Y056838D01*
X082144Y056785D01*
X082175Y056731D01*
X082201Y056675D01*
X082225Y056617D01*
X082244Y056557D01*
X082260Y056497D01*
X082272Y056435D01*
X082280Y056374D01*
X082284Y056311D01*
X082284Y056249D01*
X082280Y056186D01*
X082272Y056125D01*
X082260Y056063D01*
X082244Y056003D01*
X082225Y055943D01*
X082201Y055885D01*
X082175Y055829D01*
X082144Y055775D01*
X082110Y055722D01*
X082073Y055672D01*
X082033Y055624D01*
X081990Y055579D01*
X081944Y055536D01*
X081896Y055497D01*
X081845Y055461D01*
X081792Y055428D01*
X081737Y055398D01*
X081680Y055372D01*
X081622Y055350D01*
X081562Y055332D01*
X081502Y055317D01*
X081440Y055306D01*
X081378Y055299D01*
X081316Y055296D01*
X081253Y055297D01*
X081191Y055302D01*
X081129Y055311D01*
X081068Y055324D01*
X081008Y055340D01*
X080949Y055361D01*
X080891Y055385D01*
X080835Y055413D01*
X080781Y055444D01*
X080729Y055478D01*
X080680Y055516D01*
X080632Y055557D01*
X080588Y055601D01*
X080546Y055647D01*
X080508Y055697D01*
X080472Y055748D01*
X080440Y055802D01*
X080412Y055857D01*
X080386Y055914D01*
X080365Y055973D01*
X080348Y056033D01*
X080334Y056094D01*
X080324Y056155D01*
X080318Y056218D01*
X080316Y056280D01*
X070941Y056280D02*
X070943Y056342D01*
X070949Y056405D01*
X070959Y056466D01*
X070973Y056527D01*
X070990Y056587D01*
X071011Y056646D01*
X071037Y056703D01*
X071065Y056758D01*
X071097Y056812D01*
X071133Y056863D01*
X071171Y056913D01*
X071213Y056959D01*
X071257Y057003D01*
X071305Y057044D01*
X071354Y057082D01*
X071406Y057116D01*
X071460Y057147D01*
X071516Y057175D01*
X071574Y057199D01*
X071633Y057220D01*
X071693Y057236D01*
X071754Y057249D01*
X071816Y057258D01*
X071878Y057263D01*
X071941Y057264D01*
X072003Y057261D01*
X072065Y057254D01*
X072127Y057243D01*
X072187Y057228D01*
X072247Y057210D01*
X072305Y057188D01*
X072362Y057162D01*
X072417Y057132D01*
X072470Y057099D01*
X072521Y057063D01*
X072569Y057024D01*
X072615Y056981D01*
X072658Y056936D01*
X072698Y056888D01*
X072735Y056838D01*
X072769Y056785D01*
X072800Y056731D01*
X072826Y056675D01*
X072850Y056617D01*
X072869Y056557D01*
X072885Y056497D01*
X072897Y056435D01*
X072905Y056374D01*
X072909Y056311D01*
X072909Y056249D01*
X072905Y056186D01*
X072897Y056125D01*
X072885Y056063D01*
X072869Y056003D01*
X072850Y055943D01*
X072826Y055885D01*
X072800Y055829D01*
X072769Y055775D01*
X072735Y055722D01*
X072698Y055672D01*
X072658Y055624D01*
X072615Y055579D01*
X072569Y055536D01*
X072521Y055497D01*
X072470Y055461D01*
X072417Y055428D01*
X072362Y055398D01*
X072305Y055372D01*
X072247Y055350D01*
X072187Y055332D01*
X072127Y055317D01*
X072065Y055306D01*
X072003Y055299D01*
X071941Y055296D01*
X071878Y055297D01*
X071816Y055302D01*
X071754Y055311D01*
X071693Y055324D01*
X071633Y055340D01*
X071574Y055361D01*
X071516Y055385D01*
X071460Y055413D01*
X071406Y055444D01*
X071354Y055478D01*
X071305Y055516D01*
X071257Y055557D01*
X071213Y055601D01*
X071171Y055647D01*
X071133Y055697D01*
X071097Y055748D01*
X071065Y055802D01*
X071037Y055857D01*
X071011Y055914D01*
X070990Y055973D01*
X070973Y056033D01*
X070959Y056094D01*
X070949Y056155D01*
X070943Y056218D01*
X070941Y056280D01*
M02*
