G75*
G70*
%OFA0B0*%
%FSLAX24Y24*%
%IPPOS*%
%LPD*%
%AMOC8*
5,1,8,0,0,1.08239X$1,22.5*
%
%ADD10C,0.0160*%
%ADD11C,0.0060*%
%ADD12C,0.0050*%
%ADD13C,0.0040*%
%ADD14R,0.0374X0.1299*%
%ADD15C,0.0030*%
%ADD16R,0.0276X0.0138*%
%ADD17R,0.0138X0.0276*%
%ADD18R,0.0866X0.0079*%
%ADD19R,0.1063X0.0256*%
%ADD20R,0.0571X0.0295*%
%ADD21R,0.0160X0.0340*%
%ADD22R,0.0256X0.0551*%
%ADD23R,0.0157X0.0089*%
%ADD24R,0.0098X0.0089*%
%ADD25R,0.0551X0.0256*%
%ADD26R,0.0295X0.0689*%
D10*
X018693Y014617D02*
X021093Y014617D01*
X021150Y014619D01*
X021206Y014625D01*
X021262Y014634D01*
X021318Y014647D01*
X021372Y014664D01*
X021425Y014684D01*
X021476Y014708D01*
X021526Y014736D01*
X021574Y014766D01*
X021620Y014800D01*
X021663Y014837D01*
X021704Y014876D01*
X021742Y014918D01*
X021777Y014963D01*
X021809Y015010D01*
X021838Y015059D01*
X021864Y015109D01*
X021886Y015162D01*
X021905Y015215D01*
X021920Y015270D01*
X021931Y015326D01*
X021939Y015382D01*
X021943Y015439D01*
X021943Y015495D01*
X021939Y015552D01*
X021931Y015608D01*
X021920Y015664D01*
X021905Y015719D01*
X021886Y015772D01*
X021864Y015825D01*
X021838Y015875D01*
X021809Y015924D01*
X021777Y015971D01*
X021742Y016016D01*
X021704Y016058D01*
X021663Y016097D01*
X021620Y016134D01*
X021574Y016168D01*
X021526Y016198D01*
X021476Y016226D01*
X021425Y016250D01*
X021372Y016270D01*
X021318Y016287D01*
X021262Y016300D01*
X021206Y016309D01*
X021150Y016315D01*
X021093Y016317D01*
X018693Y016317D01*
X018636Y016315D01*
X018580Y016309D01*
X018524Y016300D01*
X018468Y016287D01*
X018414Y016270D01*
X018361Y016250D01*
X018310Y016226D01*
X018260Y016198D01*
X018212Y016168D01*
X018166Y016134D01*
X018123Y016097D01*
X018082Y016058D01*
X018044Y016016D01*
X018009Y015971D01*
X017977Y015924D01*
X017948Y015875D01*
X017922Y015825D01*
X017900Y015772D01*
X017881Y015719D01*
X017866Y015664D01*
X017855Y015608D01*
X017847Y015552D01*
X017843Y015495D01*
X017843Y015439D01*
X017847Y015382D01*
X017855Y015326D01*
X017866Y015270D01*
X017881Y015215D01*
X017900Y015162D01*
X017922Y015109D01*
X017948Y015059D01*
X017977Y015010D01*
X018009Y014963D01*
X018044Y014918D01*
X018082Y014876D01*
X018123Y014837D01*
X018166Y014800D01*
X018212Y014766D01*
X018260Y014736D01*
X018310Y014708D01*
X018361Y014684D01*
X018414Y014664D01*
X018468Y014647D01*
X018524Y014634D01*
X018580Y014625D01*
X018636Y014619D01*
X018693Y014617D01*
X035293Y047642D02*
X035293Y050042D01*
X035295Y050099D01*
X035301Y050155D01*
X035310Y050211D01*
X035323Y050267D01*
X035340Y050321D01*
X035360Y050374D01*
X035384Y050425D01*
X035412Y050475D01*
X035442Y050523D01*
X035476Y050569D01*
X035513Y050612D01*
X035552Y050653D01*
X035594Y050691D01*
X035639Y050726D01*
X035686Y050758D01*
X035735Y050787D01*
X035785Y050813D01*
X035838Y050835D01*
X035891Y050854D01*
X035946Y050869D01*
X036002Y050880D01*
X036058Y050888D01*
X036115Y050892D01*
X036171Y050892D01*
X036228Y050888D01*
X036284Y050880D01*
X036340Y050869D01*
X036395Y050854D01*
X036448Y050835D01*
X036501Y050813D01*
X036551Y050787D01*
X036600Y050758D01*
X036647Y050726D01*
X036692Y050691D01*
X036734Y050653D01*
X036773Y050612D01*
X036810Y050569D01*
X036844Y050523D01*
X036874Y050475D01*
X036902Y050425D01*
X036926Y050374D01*
X036946Y050321D01*
X036963Y050267D01*
X036976Y050211D01*
X036985Y050155D01*
X036991Y050099D01*
X036993Y050042D01*
X036993Y047642D01*
X036991Y047585D01*
X036985Y047529D01*
X036976Y047473D01*
X036963Y047417D01*
X036946Y047363D01*
X036926Y047310D01*
X036902Y047259D01*
X036874Y047209D01*
X036844Y047161D01*
X036810Y047115D01*
X036773Y047072D01*
X036734Y047031D01*
X036692Y046993D01*
X036647Y046958D01*
X036600Y046926D01*
X036551Y046897D01*
X036501Y046871D01*
X036448Y046849D01*
X036395Y046830D01*
X036340Y046815D01*
X036284Y046804D01*
X036228Y046796D01*
X036171Y046792D01*
X036115Y046792D01*
X036058Y046796D01*
X036002Y046804D01*
X035946Y046815D01*
X035891Y046830D01*
X035838Y046849D01*
X035785Y046871D01*
X035735Y046897D01*
X035686Y046926D01*
X035639Y046958D01*
X035594Y046993D01*
X035552Y047031D01*
X035513Y047072D01*
X035476Y047115D01*
X035442Y047161D01*
X035412Y047209D01*
X035384Y047259D01*
X035360Y047310D01*
X035340Y047363D01*
X035323Y047417D01*
X035310Y047473D01*
X035301Y047529D01*
X035295Y047585D01*
X035293Y047642D01*
D11*
X035493Y047642D02*
X035493Y050042D01*
X035495Y050092D01*
X035501Y050141D01*
X035510Y050190D01*
X035523Y050238D01*
X035540Y050285D01*
X035560Y050330D01*
X035584Y050374D01*
X035611Y050416D01*
X035642Y050456D01*
X035675Y050493D01*
X035711Y050527D01*
X035749Y050559D01*
X035790Y050588D01*
X035832Y050613D01*
X035877Y050635D01*
X035923Y050654D01*
X035971Y050669D01*
X036019Y050680D01*
X036068Y050688D01*
X036118Y050692D01*
X036168Y050692D01*
X036218Y050688D01*
X036267Y050680D01*
X036315Y050669D01*
X036363Y050654D01*
X036409Y050635D01*
X036454Y050613D01*
X036496Y050588D01*
X036537Y050559D01*
X036575Y050527D01*
X036611Y050493D01*
X036644Y050456D01*
X036675Y050416D01*
X036702Y050374D01*
X036726Y050330D01*
X036746Y050285D01*
X036763Y050238D01*
X036776Y050190D01*
X036785Y050141D01*
X036791Y050092D01*
X036793Y050042D01*
X036793Y047642D01*
X036791Y047592D01*
X036785Y047543D01*
X036776Y047494D01*
X036763Y047446D01*
X036746Y047399D01*
X036726Y047354D01*
X036702Y047310D01*
X036675Y047268D01*
X036644Y047228D01*
X036611Y047191D01*
X036575Y047157D01*
X036537Y047125D01*
X036496Y047096D01*
X036454Y047071D01*
X036409Y047049D01*
X036363Y047030D01*
X036315Y047015D01*
X036267Y047004D01*
X036218Y046996D01*
X036168Y046992D01*
X036118Y046992D01*
X036068Y046996D01*
X036019Y047004D01*
X035971Y047015D01*
X035923Y047030D01*
X035877Y047049D01*
X035832Y047071D01*
X035790Y047096D01*
X035749Y047125D01*
X035711Y047157D01*
X035675Y047191D01*
X035642Y047228D01*
X035611Y047268D01*
X035584Y047310D01*
X035560Y047354D01*
X035540Y047399D01*
X035523Y047446D01*
X035510Y047494D01*
X035501Y047543D01*
X035495Y047592D01*
X035493Y047642D01*
X036143Y048342D02*
X036143Y048592D01*
X035843Y048592D01*
X035843Y048742D02*
X036443Y048742D01*
X036443Y048942D01*
X035843Y048942D01*
X035843Y048742D01*
X036143Y048592D02*
X036443Y048592D01*
X036443Y049092D02*
X036143Y049092D01*
X036143Y049342D01*
X036143Y049092D02*
X035843Y049092D01*
X035305Y052467D02*
X034982Y052467D01*
X034982Y052967D02*
X035305Y052967D01*
X033939Y053764D02*
X033598Y053764D01*
X033598Y054044D02*
X033939Y054044D01*
X033814Y054702D02*
X033473Y054702D01*
X033473Y054982D02*
X033814Y054982D01*
X035549Y055067D02*
X036050Y055569D01*
X036495Y055123D02*
X035994Y054622D01*
X031893Y048878D02*
X031893Y048555D01*
X031393Y048555D02*
X031393Y048878D01*
X029805Y049342D02*
X029482Y049342D01*
X029482Y049842D02*
X029805Y049842D01*
X021093Y016117D02*
X018693Y016117D01*
X018643Y016115D01*
X018594Y016109D01*
X018545Y016100D01*
X018497Y016087D01*
X018450Y016070D01*
X018405Y016050D01*
X018361Y016026D01*
X018319Y015999D01*
X018279Y015968D01*
X018242Y015935D01*
X018208Y015899D01*
X018176Y015861D01*
X018147Y015820D01*
X018122Y015778D01*
X018100Y015733D01*
X018081Y015687D01*
X018066Y015639D01*
X018055Y015591D01*
X018047Y015542D01*
X018043Y015492D01*
X018043Y015442D01*
X018047Y015392D01*
X018055Y015343D01*
X018066Y015295D01*
X018081Y015247D01*
X018100Y015201D01*
X018122Y015156D01*
X018147Y015114D01*
X018176Y015073D01*
X018208Y015035D01*
X018242Y014999D01*
X018279Y014966D01*
X018319Y014935D01*
X018361Y014908D01*
X018405Y014884D01*
X018450Y014864D01*
X018497Y014847D01*
X018545Y014834D01*
X018594Y014825D01*
X018643Y014819D01*
X018693Y014817D01*
X021093Y014817D01*
X021143Y014819D01*
X021192Y014825D01*
X021241Y014834D01*
X021289Y014847D01*
X021336Y014864D01*
X021381Y014884D01*
X021425Y014908D01*
X021467Y014935D01*
X021507Y014966D01*
X021544Y014999D01*
X021578Y015035D01*
X021610Y015073D01*
X021639Y015114D01*
X021664Y015156D01*
X021686Y015201D01*
X021705Y015247D01*
X021720Y015295D01*
X021731Y015343D01*
X021739Y015392D01*
X021743Y015442D01*
X021743Y015492D01*
X021739Y015542D01*
X021731Y015591D01*
X021720Y015639D01*
X021705Y015687D01*
X021686Y015733D01*
X021664Y015778D01*
X021639Y015820D01*
X021610Y015861D01*
X021578Y015899D01*
X021544Y015935D01*
X021507Y015968D01*
X021467Y015999D01*
X021425Y016026D01*
X021381Y016050D01*
X021336Y016070D01*
X021289Y016087D01*
X021241Y016100D01*
X021192Y016109D01*
X021143Y016115D01*
X021093Y016117D01*
X020393Y015467D02*
X020143Y015467D01*
X020143Y015167D01*
X019993Y015167D02*
X019993Y015767D01*
X019793Y015767D01*
X019793Y015167D01*
X019993Y015167D01*
X020143Y015467D02*
X020143Y015767D01*
X019643Y015767D02*
X019643Y015467D01*
X019393Y015467D01*
X019643Y015467D02*
X019643Y015167D01*
D12*
X020647Y016542D02*
X020647Y016842D01*
X020798Y016992D01*
X020948Y016842D01*
X020948Y016542D01*
X021108Y016542D02*
X021408Y016542D01*
X021258Y016542D02*
X021258Y016992D01*
X021408Y016842D01*
X021568Y016917D02*
X021868Y016617D01*
X021868Y016542D01*
X021568Y016542D01*
X021568Y016917D02*
X021568Y016992D01*
X021868Y016992D01*
X020948Y016767D02*
X020647Y016767D01*
X034593Y047992D02*
X034593Y048292D01*
X034669Y048452D02*
X034593Y048527D01*
X034593Y048677D01*
X034669Y048752D01*
X034969Y048752D01*
X035044Y048677D01*
X035044Y048527D01*
X034969Y048452D01*
X034669Y048452D01*
X034744Y048602D02*
X034593Y048752D01*
X034593Y048912D02*
X034593Y049213D01*
X034593Y049063D02*
X035044Y049063D01*
X034894Y048912D01*
X034969Y048292D02*
X034669Y047992D01*
X034593Y047992D01*
X035044Y047992D02*
X035044Y048292D01*
X034969Y048292D01*
D13*
X033297Y049987D02*
X033374Y050063D01*
X033374Y050217D01*
X033297Y050294D01*
X033297Y050447D02*
X033374Y050524D01*
X033374Y050677D01*
X033297Y050754D01*
X033220Y050754D01*
X032913Y050447D01*
X032913Y050754D01*
X032990Y050907D02*
X032913Y050984D01*
X032913Y051138D01*
X032990Y051214D01*
X033067Y051214D01*
X033144Y051138D01*
X033144Y050907D01*
X032990Y050907D01*
X033144Y050907D02*
X033297Y051061D01*
X033374Y051214D01*
X032653Y050617D02*
X032653Y050317D01*
X032913Y050217D02*
X032990Y050294D01*
X032913Y050217D02*
X032913Y050063D01*
X032990Y049987D01*
X033297Y049987D01*
X032134Y050327D02*
X032134Y050617D01*
X031797Y048004D02*
X031720Y048004D01*
X031644Y047927D01*
X031644Y047774D01*
X031720Y047697D01*
X031797Y047697D01*
X031874Y047774D01*
X031874Y047927D01*
X031797Y048004D01*
X031644Y047927D02*
X031567Y048004D01*
X031490Y048004D01*
X031413Y047927D01*
X031413Y047774D01*
X031490Y047697D01*
X031567Y047697D01*
X031644Y047774D01*
X031644Y047544D02*
X031567Y047467D01*
X031567Y047237D01*
X031567Y047390D02*
X031413Y047544D01*
X031644Y047544D02*
X031797Y047544D01*
X031874Y047467D01*
X031874Y047237D01*
X031413Y047237D01*
X030064Y047329D02*
X030064Y047604D01*
X029473Y047604D01*
X029473Y047329D01*
X030064Y047329D01*
X029946Y047349D02*
X029946Y047585D01*
X029847Y047604D02*
X029690Y047604D01*
X029591Y047585D02*
X029591Y047349D01*
X029690Y047329D02*
X029847Y047329D01*
X029847Y047829D02*
X029690Y047829D01*
X029591Y047849D02*
X029591Y048085D01*
X029690Y048104D02*
X029847Y048104D01*
X029946Y048085D02*
X029946Y047849D01*
X030064Y047829D02*
X030064Y048104D01*
X029473Y048104D01*
X029473Y047829D01*
X030064Y047829D01*
X030064Y048329D02*
X030064Y048604D01*
X029473Y048604D01*
X029473Y048329D01*
X030064Y048329D01*
X029946Y048349D02*
X029946Y048585D01*
X029847Y048604D02*
X029690Y048604D01*
X029591Y048585D02*
X029591Y048349D01*
X029690Y048329D02*
X029847Y048329D01*
X029847Y048829D02*
X029690Y048829D01*
X029591Y048849D02*
X029591Y049085D01*
X029690Y049104D02*
X029847Y049104D01*
X029946Y049085D02*
X029946Y048849D01*
X030064Y048829D02*
X030064Y049104D01*
X029473Y049104D01*
X029473Y048829D01*
X030064Y048829D01*
X029142Y048755D02*
X029142Y049216D01*
X029142Y048986D02*
X028835Y048986D01*
X028835Y049216D02*
X028835Y048755D01*
X028682Y048755D02*
X028375Y048755D01*
X028221Y048755D02*
X027914Y048755D01*
X028068Y048755D02*
X028068Y049216D01*
X028221Y049062D01*
X028459Y049362D02*
X028459Y049438D01*
X028152Y049745D01*
X028152Y049822D01*
X028459Y049822D01*
X028612Y049745D02*
X028612Y049592D01*
X028689Y049515D01*
X028919Y049515D01*
X028766Y049515D02*
X028612Y049362D01*
X028682Y049216D02*
X028682Y048755D01*
X028682Y048591D02*
X028682Y048130D01*
X028375Y048130D01*
X028221Y048207D02*
X028145Y048130D01*
X027991Y048130D01*
X027914Y048207D01*
X027914Y048284D01*
X027991Y048361D01*
X028068Y048361D01*
X027991Y048361D02*
X027914Y048437D01*
X027914Y048514D01*
X027991Y048591D01*
X028145Y048591D01*
X028221Y048514D01*
X027991Y047966D02*
X028221Y047736D01*
X027914Y047736D01*
X027991Y047966D02*
X027991Y047505D01*
X027991Y047341D02*
X028145Y047341D01*
X028221Y047264D01*
X027991Y047341D02*
X027914Y047264D01*
X027914Y047187D01*
X028221Y046880D01*
X027914Y046880D01*
X028375Y046880D02*
X028682Y046880D01*
X028682Y047341D01*
X028835Y047341D02*
X028835Y046880D01*
X028835Y047111D02*
X029142Y047111D01*
X029142Y047341D02*
X029142Y046880D01*
X029142Y047505D02*
X029142Y047966D01*
X029142Y048130D02*
X029142Y048591D01*
X029142Y048361D02*
X028835Y048361D01*
X028835Y048591D02*
X028835Y048130D01*
X028835Y047966D02*
X028835Y047505D01*
X028682Y047505D02*
X028375Y047505D01*
X028682Y047505D02*
X028682Y047966D01*
X028835Y047736D02*
X029142Y047736D01*
X028919Y049362D02*
X028919Y049822D01*
X028689Y049822D01*
X028612Y049745D01*
X028938Y053712D02*
X030098Y053712D01*
X030098Y054972D02*
X028948Y054972D01*
X028175Y054837D02*
X028175Y056097D01*
X027112Y056097D01*
X027112Y054837D01*
X028175Y054837D01*
X028294Y054322D02*
X027987Y054322D01*
X027834Y054169D02*
X027680Y054322D01*
X027680Y053862D01*
X027527Y053862D02*
X027834Y053862D01*
X028141Y054092D02*
X028294Y054092D01*
X028294Y053862D02*
X028294Y054322D01*
X026778Y055317D02*
X026778Y055607D01*
X026259Y055617D02*
X026259Y055317D01*
X026158Y056287D02*
X026158Y056747D01*
X026388Y056517D01*
X026081Y056517D01*
X026542Y056670D02*
X026618Y056747D01*
X026772Y056747D01*
X026848Y056670D01*
X026848Y056363D01*
X026772Y056287D01*
X026618Y056287D01*
X026542Y056363D01*
X033527Y054572D02*
X033834Y054572D01*
X033834Y054342D01*
X033680Y054419D01*
X033604Y054419D01*
X033527Y054342D01*
X033527Y054188D01*
X033604Y054112D01*
X033757Y054112D01*
X033834Y054188D01*
X033987Y054112D02*
X034141Y054265D01*
X034064Y054265D02*
X034294Y054265D01*
X034294Y054112D02*
X034294Y054572D01*
X034064Y054572D01*
X033987Y054495D01*
X033987Y054342D01*
X034064Y054265D01*
X034189Y053635D02*
X034112Y053558D01*
X034112Y053404D01*
X034189Y053328D01*
X034419Y053328D01*
X034266Y053328D02*
X034112Y053174D01*
X034064Y053204D02*
X034064Y053479D01*
X033473Y053479D01*
X033473Y053204D01*
X034064Y053204D01*
X033959Y053404D02*
X033652Y053404D01*
X033729Y053174D02*
X033729Y053635D01*
X033959Y053404D01*
X034189Y053635D02*
X034419Y053635D01*
X034419Y053174D01*
X035027Y052197D02*
X035180Y052120D01*
X035334Y051967D01*
X035104Y051967D01*
X035027Y051890D01*
X035027Y051813D01*
X035104Y051737D01*
X035257Y051737D01*
X035334Y051813D01*
X035334Y051967D01*
X035487Y051967D02*
X035564Y051890D01*
X035794Y051890D01*
X035641Y051890D02*
X035487Y051737D01*
X035487Y051967D02*
X035487Y052120D01*
X035564Y052197D01*
X035794Y052197D01*
X035794Y051737D01*
X035531Y055296D02*
X035256Y055296D01*
X035256Y055887D01*
X035531Y055887D01*
X035531Y055296D01*
D14*
X030275Y054342D03*
X028765Y054342D03*
D15*
X027942Y056482D02*
X027818Y056482D01*
X027757Y056543D01*
X027635Y056543D02*
X027573Y056482D01*
X027450Y056482D01*
X027388Y056543D01*
X027388Y056605D01*
X027450Y056667D01*
X027512Y056667D01*
X027450Y056667D02*
X027388Y056729D01*
X027388Y056790D01*
X027450Y056852D01*
X027573Y056852D01*
X027635Y056790D01*
X027757Y056790D02*
X027818Y056852D01*
X027942Y056852D01*
X028003Y056790D01*
X028003Y056543D01*
X027942Y056482D01*
X033361Y054059D02*
X033422Y054121D01*
X033546Y054121D01*
X033607Y054059D01*
X033729Y054121D02*
X033729Y053812D01*
X033791Y053750D01*
X033914Y053750D01*
X033976Y053812D01*
X033976Y054121D01*
X034097Y054059D02*
X034097Y053936D01*
X034159Y053874D01*
X034344Y053874D01*
X034221Y053874D02*
X034097Y053750D01*
X034344Y053750D02*
X034344Y054121D01*
X034159Y054121D01*
X034097Y054059D01*
X033607Y053750D02*
X033361Y053997D01*
X033361Y054059D01*
X033361Y053750D02*
X033607Y053750D01*
X035802Y055016D02*
X036172Y055016D01*
X036172Y055201D01*
X036111Y055263D01*
X035987Y055263D01*
X035926Y055201D01*
X035926Y055016D01*
X035926Y055140D02*
X035802Y055263D01*
X035864Y055384D02*
X035802Y055446D01*
X035802Y055570D01*
X035864Y055631D01*
X036172Y055631D01*
X036049Y055753D02*
X036172Y055876D01*
X035802Y055876D01*
X035802Y055753D02*
X035802Y056000D01*
X035864Y055384D02*
X036172Y055384D01*
D16*
X035393Y055365D03*
X035393Y055818D03*
D17*
X033995Y053342D03*
X033542Y053342D03*
D18*
X027643Y054817D03*
X027643Y056116D03*
D19*
X027643Y054965D03*
D20*
X026518Y055179D03*
X026518Y055749D03*
X032394Y050754D03*
X032394Y050184D03*
D21*
X033518Y053904D03*
X034018Y053904D03*
X033893Y054842D03*
X033393Y054842D03*
D22*
X034851Y052716D03*
X035431Y052716D03*
X029931Y049591D03*
X029351Y049591D03*
D23*
X029847Y049080D03*
X029690Y048353D03*
X029690Y047853D03*
X029847Y047580D03*
D24*
X029818Y047580D03*
X029719Y047853D03*
X029719Y048353D03*
X029818Y049080D03*
D25*
X031644Y049005D03*
X031644Y048425D03*
D26*
G36*
X035320Y054878D02*
X035528Y055086D01*
X036014Y054600D01*
X035806Y054392D01*
X035320Y054878D01*
G37*
G36*
X036027Y055586D02*
X036235Y055794D01*
X036721Y055308D01*
X036513Y055100D01*
X036027Y055586D01*
G37*
M02*
