G75*
G70*
%OFA0B0*%
%FSLAX24Y24*%
%IPPOS*%
%LPD*%
%AMOC8*
5,1,8,0,0,1.08239X$1,22.5*
%
%ADD10C,0.0912*%
%ADD11R,0.0912X0.0912*%
%ADD12OC8,0.0966*%
%ADD13C,0.0912*%
%ADD14R,0.0828X0.1419*%
%ADD15R,0.0474X0.0474*%
%ADD16R,0.1025X0.0710*%
%ADD17R,0.0671X0.0592*%
%ADD18C,0.0986*%
%ADD19C,0.1261*%
%ADD20R,0.0474X0.0513*%
%ADD21R,0.0592X0.0671*%
%ADD22R,0.0395X0.0395*%
%ADD23C,0.1222*%
%ADD24C,0.0992*%
%ADD25OC8,0.0992*%
%ADD26C,0.1520*%
%ADD27R,0.0540X0.0710*%
%ADD28R,0.0060X0.0720*%
%ADD29C,0.0867*%
%ADD30C,0.2049*%
D10*
X033393Y039801D02*
X033393Y040633D01*
X034393Y040633D02*
X034393Y039801D01*
X035393Y039801D02*
X035393Y040633D01*
X036393Y040633D02*
X036393Y039801D01*
X037393Y039801D02*
X037393Y040633D01*
X038393Y040633D02*
X038393Y039801D01*
X039393Y039801D02*
X039393Y040633D01*
X040393Y040633D02*
X040393Y039801D01*
X040018Y042551D02*
X040018Y043383D01*
X039018Y043383D02*
X039018Y042551D01*
X041018Y042551D02*
X041018Y043383D01*
X042018Y043383D02*
X042018Y042551D01*
X043018Y042551D02*
X043018Y043383D01*
X036018Y043383D02*
X036018Y042551D01*
X035018Y042551D02*
X035018Y043383D01*
X025059Y043342D02*
X024228Y043342D01*
X024228Y044342D02*
X025059Y044342D01*
X025059Y045342D02*
X024228Y045342D01*
X024228Y046342D02*
X025059Y046342D01*
X025059Y047342D02*
X024228Y047342D01*
X024228Y048342D02*
X025059Y048342D01*
X025059Y049342D02*
X024228Y049342D01*
X024228Y050342D02*
X025059Y050342D01*
X025059Y051342D02*
X024228Y051342D01*
X024228Y052342D02*
X025059Y052342D01*
X025059Y053342D02*
X024228Y053342D01*
X024228Y042342D02*
X025059Y042342D01*
X025059Y041342D02*
X024228Y041342D01*
X045393Y052301D02*
X045393Y053133D01*
X046393Y053133D02*
X046393Y052301D01*
X047393Y052301D02*
X047393Y053133D01*
X048393Y053133D02*
X048393Y052301D01*
X048393Y055301D02*
X048393Y056133D01*
X047393Y056133D02*
X047393Y055301D01*
X046393Y055301D02*
X046393Y056133D01*
X045393Y056133D02*
X045393Y055301D01*
D11*
X038018Y042967D03*
X037018Y042967D03*
X041393Y040217D03*
X042393Y040217D03*
X043393Y040217D03*
D12*
X020518Y021092D03*
X020518Y022092D03*
X021518Y022092D03*
X021518Y021092D03*
X022518Y021092D03*
X022518Y022092D03*
D13*
X016218Y023842D03*
X014318Y023842D03*
X042068Y047092D03*
X043968Y047092D03*
X036565Y049013D03*
X035222Y047670D03*
D14*
X041126Y053342D03*
X042661Y053342D03*
X030286Y054092D03*
X028751Y054092D03*
D15*
X033375Y053342D03*
X034162Y053342D03*
X035393Y055198D03*
X035393Y055985D03*
D16*
X027643Y056057D03*
X027643Y054876D03*
D17*
X026518Y055093D03*
X026518Y055841D03*
X031643Y050216D03*
X031643Y049468D03*
X032393Y050093D03*
X032393Y050841D03*
X044393Y052718D03*
X044393Y053466D03*
D18*
X042646Y054852D03*
X041662Y054852D03*
X040875Y054852D03*
X039890Y054852D03*
X032511Y054962D03*
X032511Y053925D03*
X031464Y053925D03*
X031464Y054962D03*
X037409Y046342D03*
X039378Y046342D03*
D19*
X034389Y055967D03*
X029648Y055967D03*
D20*
X033309Y054842D03*
X033978Y054842D03*
X034103Y053904D03*
X033434Y053904D03*
D21*
X034769Y052717D03*
X035517Y052717D03*
X041019Y055967D03*
X041767Y055967D03*
X045269Y053967D03*
X046017Y053967D03*
X030017Y049467D03*
X029269Y049467D03*
D22*
X029473Y048842D03*
X029473Y048342D03*
X029473Y047842D03*
X029473Y047342D03*
X030064Y047342D03*
X030064Y047842D03*
X030064Y048342D03*
X030064Y048842D03*
D23*
X058143Y031542D03*
X058143Y029642D03*
D24*
X068018Y031717D03*
D25*
X068018Y032717D03*
X069018Y032717D03*
X069018Y031717D03*
X070018Y031717D03*
X070018Y032717D03*
D26*
X043855Y055919D03*
X038682Y055919D03*
D27*
X038968Y052467D03*
X039568Y052467D03*
X038568Y051342D03*
X037968Y051342D03*
X034193Y051092D03*
X033593Y051092D03*
X033718Y050092D03*
X034318Y050092D03*
D28*
X034018Y050092D03*
X033893Y051092D03*
X038268Y051342D03*
X039268Y052467D03*
D29*
X036268Y052717D03*
X034893Y053967D03*
X034768Y054842D03*
X029768Y050842D03*
X030768Y049592D03*
X030768Y048717D03*
X030768Y047842D03*
X032143Y046967D03*
X015518Y072092D03*
X015518Y079592D03*
X037518Y079592D03*
X045018Y079592D03*
X052518Y079592D03*
X070518Y079592D03*
X070518Y076592D03*
D30*
X070518Y088342D03*
X074581Y088342D03*
X076768Y088342D03*
X066768Y088342D03*
X061518Y088342D03*
X052518Y088342D03*
X045018Y088342D03*
X037518Y088342D03*
X026518Y088342D03*
X015518Y088342D03*
X006706Y088342D03*
X006706Y079592D03*
X006706Y072092D03*
X037518Y058842D03*
M02*
