G75*
G70*
%OFA0B0*%
%FSLAX24Y24*%
%IPPOS*%
%LPD*%
%AMOC8*
5,1,8,0,0,1.08239X$1,22.5*
%
%ADD10C,0.0160*%
%ADD11C,0.0060*%
%ADD12C,0.0050*%
%ADD13C,0.0040*%
%ADD14R,0.0374X0.1299*%
%ADD15C,0.0030*%
%ADD16R,0.0276X0.0138*%
%ADD17R,0.0138X0.0276*%
%ADD18R,0.0866X0.0079*%
%ADD19R,0.1063X0.0256*%
%ADD20R,0.0571X0.0295*%
%ADD21R,0.0160X0.0340*%
%ADD22R,0.0256X0.0551*%
%ADD23R,0.0157X0.0089*%
%ADD24R,0.0098X0.0089*%
%ADD25R,0.0551X0.0256*%
%ADD26R,0.0295X0.0689*%
%ADD27R,0.0295X0.0571*%
D10*
X014068Y022992D02*
X016468Y022992D01*
X016525Y022994D01*
X016581Y023000D01*
X016637Y023009D01*
X016693Y023022D01*
X016747Y023039D01*
X016800Y023059D01*
X016851Y023083D01*
X016901Y023111D01*
X016949Y023141D01*
X016995Y023175D01*
X017038Y023212D01*
X017079Y023251D01*
X017117Y023293D01*
X017152Y023338D01*
X017184Y023385D01*
X017213Y023434D01*
X017239Y023484D01*
X017261Y023537D01*
X017280Y023590D01*
X017295Y023645D01*
X017306Y023701D01*
X017314Y023757D01*
X017318Y023814D01*
X017318Y023870D01*
X017314Y023927D01*
X017306Y023983D01*
X017295Y024039D01*
X017280Y024094D01*
X017261Y024147D01*
X017239Y024200D01*
X017213Y024250D01*
X017184Y024299D01*
X017152Y024346D01*
X017117Y024391D01*
X017079Y024433D01*
X017038Y024472D01*
X016995Y024509D01*
X016949Y024543D01*
X016901Y024573D01*
X016851Y024601D01*
X016800Y024625D01*
X016747Y024645D01*
X016693Y024662D01*
X016637Y024675D01*
X016581Y024684D01*
X016525Y024690D01*
X016468Y024692D01*
X014068Y024692D01*
X014011Y024690D01*
X013955Y024684D01*
X013899Y024675D01*
X013843Y024662D01*
X013789Y024645D01*
X013736Y024625D01*
X013685Y024601D01*
X013635Y024573D01*
X013587Y024543D01*
X013541Y024509D01*
X013498Y024472D01*
X013457Y024433D01*
X013419Y024391D01*
X013384Y024346D01*
X013352Y024299D01*
X013323Y024250D01*
X013297Y024200D01*
X013275Y024147D01*
X013256Y024094D01*
X013241Y024039D01*
X013230Y023983D01*
X013222Y023927D01*
X013218Y023870D01*
X013218Y023814D01*
X013222Y023757D01*
X013230Y023701D01*
X013241Y023645D01*
X013256Y023590D01*
X013275Y023537D01*
X013297Y023484D01*
X013323Y023434D01*
X013352Y023385D01*
X013384Y023338D01*
X013419Y023293D01*
X013457Y023251D01*
X013498Y023212D01*
X013541Y023175D01*
X013587Y023141D01*
X013635Y023111D01*
X013685Y023083D01*
X013736Y023059D01*
X013789Y023039D01*
X013843Y023022D01*
X013899Y023009D01*
X013955Y023000D01*
X014011Y022994D01*
X014068Y022992D01*
X035646Y046892D02*
X037343Y048589D01*
X037383Y048631D01*
X037419Y048676D01*
X037453Y048724D01*
X037483Y048773D01*
X037510Y048825D01*
X037533Y048878D01*
X037552Y048933D01*
X037568Y048989D01*
X037580Y049046D01*
X037588Y049103D01*
X037592Y049161D01*
X037592Y049219D01*
X037588Y049277D01*
X037580Y049334D01*
X037568Y049391D01*
X037552Y049447D01*
X037533Y049502D01*
X037510Y049555D01*
X037483Y049607D01*
X037453Y049656D01*
X037419Y049704D01*
X037383Y049749D01*
X037343Y049791D01*
X037301Y049831D01*
X037256Y049867D01*
X037208Y049901D01*
X037159Y049931D01*
X037107Y049958D01*
X037054Y049981D01*
X036999Y050000D01*
X036943Y050016D01*
X036886Y050028D01*
X036829Y050036D01*
X036771Y050040D01*
X036713Y050040D01*
X036655Y050036D01*
X036598Y050028D01*
X036541Y050016D01*
X036485Y050000D01*
X036430Y049981D01*
X036377Y049958D01*
X036325Y049931D01*
X036276Y049901D01*
X036228Y049867D01*
X036183Y049831D01*
X036141Y049791D01*
X034444Y048094D01*
X034405Y048053D01*
X034369Y048009D01*
X034336Y047962D01*
X034307Y047914D01*
X034280Y047864D01*
X034257Y047812D01*
X034237Y047758D01*
X034222Y047704D01*
X034209Y047648D01*
X034201Y047592D01*
X034196Y047536D01*
X034195Y047479D01*
X034198Y047422D01*
X034205Y047366D01*
X034215Y047310D01*
X034229Y047255D01*
X034247Y047201D01*
X034268Y047148D01*
X034293Y047097D01*
X034321Y047048D01*
X034352Y047000D01*
X034387Y046955D01*
X034424Y046912D01*
X034464Y046872D01*
X034507Y046835D01*
X034552Y046800D01*
X034600Y046769D01*
X034649Y046741D01*
X034700Y046716D01*
X034753Y046695D01*
X034807Y046677D01*
X034862Y046663D01*
X034918Y046653D01*
X034974Y046646D01*
X035031Y046643D01*
X035088Y046644D01*
X035144Y046649D01*
X035200Y046657D01*
X035256Y046670D01*
X035310Y046685D01*
X035364Y046705D01*
X035416Y046728D01*
X035466Y046755D01*
X035514Y046784D01*
X035561Y046817D01*
X035605Y046853D01*
X035646Y046892D01*
D11*
X035505Y047034D02*
X037202Y048731D01*
X037202Y048730D02*
X037235Y048767D01*
X037266Y048806D01*
X037294Y048847D01*
X037319Y048890D01*
X037340Y048936D01*
X037358Y048982D01*
X037372Y049030D01*
X037382Y049078D01*
X037389Y049128D01*
X037392Y049178D01*
X037391Y049227D01*
X037386Y049277D01*
X037378Y049326D01*
X037365Y049374D01*
X037349Y049421D01*
X037330Y049467D01*
X037307Y049511D01*
X037281Y049554D01*
X037251Y049594D01*
X037219Y049632D01*
X037184Y049667D01*
X037146Y049699D01*
X037106Y049729D01*
X037063Y049755D01*
X037019Y049778D01*
X036973Y049797D01*
X036926Y049813D01*
X036878Y049826D01*
X036829Y049834D01*
X036779Y049839D01*
X036730Y049840D01*
X036680Y049837D01*
X036630Y049830D01*
X036582Y049820D01*
X036534Y049806D01*
X036488Y049788D01*
X036442Y049767D01*
X036399Y049742D01*
X036358Y049714D01*
X036319Y049683D01*
X036282Y049650D01*
X034585Y047953D01*
X034552Y047916D01*
X034521Y047877D01*
X034493Y047836D01*
X034468Y047793D01*
X034447Y047747D01*
X034429Y047701D01*
X034415Y047653D01*
X034405Y047605D01*
X034398Y047555D01*
X034395Y047505D01*
X034396Y047456D01*
X034401Y047406D01*
X034409Y047357D01*
X034422Y047309D01*
X034438Y047262D01*
X034457Y047216D01*
X034480Y047172D01*
X034506Y047129D01*
X034536Y047089D01*
X034568Y047051D01*
X034603Y047016D01*
X034641Y046984D01*
X034681Y046954D01*
X034724Y046928D01*
X034768Y046905D01*
X034814Y046886D01*
X034861Y046870D01*
X034909Y046857D01*
X034958Y046849D01*
X035008Y046844D01*
X035057Y046843D01*
X035107Y046846D01*
X035157Y046853D01*
X035205Y046863D01*
X035253Y046877D01*
X035299Y046895D01*
X035345Y046916D01*
X035388Y046941D01*
X035429Y046969D01*
X035468Y047000D01*
X035505Y047033D01*
X035540Y047988D02*
X035717Y048165D01*
X035505Y048377D01*
X035611Y048483D02*
X036035Y048059D01*
X036176Y048200D01*
X035752Y048625D01*
X035611Y048483D01*
X035717Y048165D02*
X035929Y047953D01*
X036282Y048306D02*
X036070Y048518D01*
X036247Y048695D01*
X036070Y048518D02*
X035858Y048731D01*
X034668Y049792D02*
X034668Y050392D01*
X034666Y050409D01*
X034662Y050426D01*
X034655Y050442D01*
X034645Y050456D01*
X034632Y050469D01*
X034618Y050479D01*
X034602Y050486D01*
X034585Y050490D01*
X034568Y050492D01*
X033468Y050492D01*
X033451Y050490D01*
X033434Y050486D01*
X033418Y050479D01*
X033404Y050469D01*
X033391Y050456D01*
X033381Y050442D01*
X033374Y050426D01*
X033370Y050409D01*
X033368Y050392D01*
X033368Y049792D01*
X033370Y049775D01*
X033374Y049758D01*
X033381Y049742D01*
X033391Y049728D01*
X033404Y049715D01*
X033418Y049705D01*
X033434Y049698D01*
X033451Y049694D01*
X033468Y049692D01*
X034568Y049692D01*
X034585Y049694D01*
X034602Y049698D01*
X034618Y049705D01*
X034632Y049715D01*
X034645Y049728D01*
X034655Y049742D01*
X034662Y049758D01*
X034666Y049775D01*
X034668Y049792D01*
X034618Y050092D02*
X034418Y050092D01*
X034443Y050692D02*
X033343Y050692D01*
X033326Y050694D01*
X033309Y050698D01*
X033293Y050705D01*
X033279Y050715D01*
X033266Y050728D01*
X033256Y050742D01*
X033249Y050758D01*
X033245Y050775D01*
X033243Y050792D01*
X033243Y051392D01*
X033245Y051409D01*
X033249Y051426D01*
X033256Y051442D01*
X033266Y051456D01*
X033279Y051469D01*
X033293Y051479D01*
X033309Y051486D01*
X033326Y051490D01*
X033343Y051492D01*
X034443Y051492D01*
X034460Y051490D01*
X034477Y051486D01*
X034493Y051479D01*
X034507Y051469D01*
X034520Y051456D01*
X034530Y051442D01*
X034537Y051426D01*
X034541Y051409D01*
X034543Y051392D01*
X034543Y050792D01*
X034541Y050775D01*
X034537Y050758D01*
X034530Y050742D01*
X034520Y050728D01*
X034507Y050715D01*
X034493Y050705D01*
X034477Y050698D01*
X034460Y050694D01*
X034443Y050692D01*
X034493Y051092D02*
X034293Y051092D01*
X033493Y051092D02*
X033293Y051092D01*
X033418Y050092D02*
X033618Y050092D01*
X034982Y052467D02*
X035305Y052467D01*
X035305Y052967D02*
X034982Y052967D01*
X033939Y053764D02*
X033598Y053764D01*
X033598Y054044D02*
X033939Y054044D01*
X033814Y054702D02*
X033473Y054702D01*
X033473Y054982D02*
X033814Y054982D01*
X035549Y055067D02*
X036050Y055569D01*
X036495Y055123D02*
X035994Y054622D01*
X038618Y052767D02*
X038618Y052167D01*
X038620Y052150D01*
X038624Y052133D01*
X038631Y052117D01*
X038641Y052103D01*
X038654Y052090D01*
X038668Y052080D01*
X038684Y052073D01*
X038701Y052069D01*
X038718Y052067D01*
X039818Y052067D01*
X039835Y052069D01*
X039852Y052073D01*
X039868Y052080D01*
X039882Y052090D01*
X039895Y052103D01*
X039905Y052117D01*
X039912Y052133D01*
X039916Y052150D01*
X039918Y052167D01*
X039918Y052767D01*
X039916Y052784D01*
X039912Y052801D01*
X039905Y052817D01*
X039895Y052831D01*
X039882Y052844D01*
X039868Y052854D01*
X039852Y052861D01*
X039835Y052865D01*
X039818Y052867D01*
X038718Y052867D01*
X038701Y052865D01*
X038684Y052861D01*
X038668Y052854D01*
X038654Y052844D01*
X038641Y052831D01*
X038631Y052817D01*
X038624Y052801D01*
X038620Y052784D01*
X038618Y052767D01*
X038668Y052467D02*
X038868Y052467D01*
X038818Y051742D02*
X037718Y051742D01*
X037701Y051740D01*
X037684Y051736D01*
X037668Y051729D01*
X037654Y051719D01*
X037641Y051706D01*
X037631Y051692D01*
X037624Y051676D01*
X037620Y051659D01*
X037618Y051642D01*
X037618Y051042D01*
X037620Y051025D01*
X037624Y051008D01*
X037631Y050992D01*
X037641Y050978D01*
X037654Y050965D01*
X037668Y050955D01*
X037684Y050948D01*
X037701Y050944D01*
X037718Y050942D01*
X038818Y050942D01*
X038835Y050944D01*
X038852Y050948D01*
X038868Y050955D01*
X038882Y050965D01*
X038895Y050978D01*
X038905Y050992D01*
X038912Y051008D01*
X038916Y051025D01*
X038918Y051042D01*
X038918Y051642D01*
X038916Y051659D01*
X038912Y051676D01*
X038905Y051692D01*
X038895Y051706D01*
X038882Y051719D01*
X038868Y051729D01*
X038852Y051736D01*
X038835Y051740D01*
X038818Y051742D01*
X038868Y051342D02*
X038668Y051342D01*
X037868Y051342D02*
X037668Y051342D01*
X039668Y052467D02*
X039868Y052467D01*
X044143Y052930D02*
X044143Y053253D01*
X044643Y053253D02*
X044643Y052930D01*
X045482Y053717D02*
X045805Y053717D01*
X045805Y054217D02*
X045482Y054217D01*
X031893Y050003D02*
X031893Y049680D01*
X031393Y049680D02*
X031393Y050003D01*
X029805Y049717D02*
X029482Y049717D01*
X029482Y049217D02*
X029805Y049217D01*
X016468Y024492D02*
X014068Y024492D01*
X014018Y024490D01*
X013969Y024484D01*
X013920Y024475D01*
X013872Y024462D01*
X013825Y024445D01*
X013780Y024425D01*
X013736Y024401D01*
X013694Y024374D01*
X013654Y024343D01*
X013617Y024310D01*
X013583Y024274D01*
X013551Y024236D01*
X013522Y024195D01*
X013497Y024153D01*
X013475Y024108D01*
X013456Y024062D01*
X013441Y024014D01*
X013430Y023966D01*
X013422Y023917D01*
X013418Y023867D01*
X013418Y023817D01*
X013422Y023767D01*
X013430Y023718D01*
X013441Y023670D01*
X013456Y023622D01*
X013475Y023576D01*
X013497Y023531D01*
X013522Y023489D01*
X013551Y023448D01*
X013583Y023410D01*
X013617Y023374D01*
X013654Y023341D01*
X013694Y023310D01*
X013736Y023283D01*
X013780Y023259D01*
X013825Y023239D01*
X013872Y023222D01*
X013920Y023209D01*
X013969Y023200D01*
X014018Y023194D01*
X014068Y023192D01*
X016468Y023192D01*
X016518Y023194D01*
X016567Y023200D01*
X016616Y023209D01*
X016664Y023222D01*
X016711Y023239D01*
X016756Y023259D01*
X016800Y023283D01*
X016842Y023310D01*
X016882Y023341D01*
X016919Y023374D01*
X016953Y023410D01*
X016985Y023448D01*
X017014Y023489D01*
X017039Y023531D01*
X017061Y023576D01*
X017080Y023622D01*
X017095Y023670D01*
X017106Y023718D01*
X017114Y023767D01*
X017118Y023817D01*
X017118Y023867D01*
X017114Y023917D01*
X017106Y023966D01*
X017095Y024014D01*
X017080Y024062D01*
X017061Y024108D01*
X017039Y024153D01*
X017014Y024195D01*
X016985Y024236D01*
X016953Y024274D01*
X016919Y024310D01*
X016882Y024343D01*
X016842Y024374D01*
X016800Y024401D01*
X016756Y024425D01*
X016711Y024445D01*
X016664Y024462D01*
X016616Y024475D01*
X016567Y024484D01*
X016518Y024490D01*
X016468Y024492D01*
X015768Y023842D02*
X015518Y023842D01*
X015518Y023542D01*
X015368Y023542D02*
X015368Y024142D01*
X015168Y024142D01*
X015168Y023542D01*
X015368Y023542D01*
X015518Y023842D02*
X015518Y024142D01*
X015018Y024142D02*
X015018Y023842D01*
X014768Y023842D01*
X015018Y023842D02*
X015018Y023542D01*
D12*
X016022Y024917D02*
X016022Y025217D01*
X016173Y025367D01*
X016323Y025217D01*
X016323Y024917D01*
X016483Y024917D02*
X016783Y024917D01*
X016633Y024917D02*
X016633Y025367D01*
X016783Y025217D01*
X016943Y025292D02*
X017243Y024992D01*
X017243Y024917D01*
X016943Y024917D01*
X016943Y025292D02*
X016943Y025367D01*
X017243Y025367D01*
X016323Y025142D02*
X016022Y025142D01*
X034592Y048596D02*
X034805Y048809D01*
X034699Y048702D02*
X034380Y049021D01*
X034592Y049021D01*
X034653Y049187D02*
X035077Y049187D01*
X035130Y049134D01*
X034918Y048922D01*
X034653Y049187D02*
X034600Y049240D01*
X034812Y049453D01*
X035031Y049672D02*
X035350Y049354D01*
X035456Y049460D02*
X035244Y049247D01*
X035244Y049672D02*
X035031Y049672D01*
X034142Y049819D02*
X034119Y050092D01*
X034119Y050092D01*
X034142Y050365D01*
X034143Y050366D01*
X034175Y050361D01*
X034207Y050352D01*
X034237Y050340D01*
X034265Y050324D01*
X034292Y050305D01*
X034316Y050283D01*
X034337Y050259D01*
X034355Y050232D01*
X034370Y050203D01*
X034381Y050172D01*
X034389Y050141D01*
X034393Y050108D01*
X034393Y050076D01*
X034389Y050043D01*
X034381Y050012D01*
X034370Y049981D01*
X034355Y049952D01*
X034337Y049925D01*
X034316Y049901D01*
X034292Y049879D01*
X034265Y049860D01*
X034237Y049844D01*
X034207Y049832D01*
X034175Y049823D01*
X034143Y049818D01*
X034143Y049865D01*
X034171Y049870D01*
X034199Y049879D01*
X034225Y049891D01*
X034250Y049906D01*
X034273Y049924D01*
X034293Y049945D01*
X034310Y049969D01*
X034324Y049994D01*
X034335Y050021D01*
X034342Y050049D01*
X034346Y050078D01*
X034346Y050106D01*
X034342Y050135D01*
X034335Y050163D01*
X034324Y050190D01*
X034310Y050215D01*
X034293Y050239D01*
X034273Y050260D01*
X034250Y050278D01*
X034225Y050293D01*
X034199Y050305D01*
X034171Y050314D01*
X034143Y050319D01*
X034143Y050271D01*
X034168Y050266D01*
X034193Y050257D01*
X034215Y050245D01*
X034236Y050229D01*
X034255Y050211D01*
X034270Y050190D01*
X034283Y050167D01*
X034292Y050143D01*
X034297Y050118D01*
X034299Y050092D01*
X034297Y050066D01*
X034292Y050041D01*
X034283Y050017D01*
X034270Y049994D01*
X034255Y049973D01*
X034236Y049955D01*
X034215Y049939D01*
X034193Y049927D01*
X034168Y049918D01*
X034143Y049913D01*
X034143Y049960D01*
X034164Y049966D01*
X034184Y049975D01*
X034202Y049987D01*
X034218Y050002D01*
X034231Y050020D01*
X034241Y050039D01*
X034248Y050060D01*
X034252Y050081D01*
X034252Y050103D01*
X034248Y050124D01*
X034241Y050145D01*
X034231Y050164D01*
X034218Y050182D01*
X034202Y050197D01*
X034184Y050209D01*
X034164Y050218D01*
X034143Y050224D01*
X034143Y050175D01*
X034159Y050169D01*
X034173Y050160D01*
X034185Y050147D01*
X034195Y050133D01*
X034201Y050117D01*
X034205Y050101D01*
X034205Y050083D01*
X034201Y050067D01*
X034195Y050051D01*
X034185Y050037D01*
X034173Y050024D01*
X034159Y050015D01*
X034143Y050009D01*
X034141Y050060D01*
X034149Y050067D01*
X034155Y050076D01*
X034158Y050087D01*
X034158Y050097D01*
X034155Y050108D01*
X034149Y050117D01*
X034141Y050124D01*
X033894Y050365D02*
X033917Y050092D01*
X033917Y050092D01*
X033894Y049819D01*
X033893Y049818D01*
X033861Y049823D01*
X033829Y049832D01*
X033799Y049844D01*
X033771Y049860D01*
X033744Y049879D01*
X033720Y049901D01*
X033699Y049925D01*
X033681Y049952D01*
X033666Y049981D01*
X033655Y050012D01*
X033647Y050043D01*
X033643Y050076D01*
X033643Y050108D01*
X033647Y050141D01*
X033655Y050172D01*
X033666Y050203D01*
X033681Y050232D01*
X033699Y050259D01*
X033720Y050283D01*
X033744Y050305D01*
X033771Y050324D01*
X033799Y050340D01*
X033829Y050352D01*
X033861Y050361D01*
X033893Y050366D01*
X033893Y050319D01*
X033865Y050314D01*
X033837Y050305D01*
X033811Y050293D01*
X033786Y050278D01*
X033763Y050260D01*
X033743Y050239D01*
X033726Y050215D01*
X033712Y050190D01*
X033701Y050163D01*
X033694Y050135D01*
X033690Y050106D01*
X033690Y050078D01*
X033694Y050049D01*
X033701Y050021D01*
X033712Y049994D01*
X033726Y049969D01*
X033743Y049945D01*
X033763Y049924D01*
X033786Y049906D01*
X033811Y049891D01*
X033837Y049879D01*
X033865Y049870D01*
X033893Y049865D01*
X033893Y049913D01*
X033868Y049918D01*
X033843Y049927D01*
X033821Y049939D01*
X033800Y049955D01*
X033781Y049973D01*
X033766Y049994D01*
X033753Y050017D01*
X033744Y050041D01*
X033739Y050066D01*
X033737Y050092D01*
X033739Y050118D01*
X033744Y050143D01*
X033753Y050167D01*
X033766Y050190D01*
X033781Y050211D01*
X033800Y050229D01*
X033821Y050245D01*
X033843Y050257D01*
X033868Y050266D01*
X033893Y050271D01*
X033893Y050224D01*
X033872Y050218D01*
X033852Y050209D01*
X033834Y050197D01*
X033818Y050182D01*
X033805Y050164D01*
X033795Y050145D01*
X033788Y050124D01*
X033784Y050103D01*
X033784Y050081D01*
X033788Y050060D01*
X033795Y050039D01*
X033805Y050020D01*
X033818Y050002D01*
X033834Y049987D01*
X033852Y049975D01*
X033872Y049966D01*
X033893Y049960D01*
X033893Y050009D01*
X033877Y050015D01*
X033863Y050024D01*
X033851Y050037D01*
X033841Y050051D01*
X033835Y050067D01*
X033831Y050083D01*
X033831Y050101D01*
X033835Y050117D01*
X033841Y050133D01*
X033851Y050147D01*
X033863Y050160D01*
X033877Y050169D01*
X033893Y050175D01*
X033895Y050124D01*
X033887Y050117D01*
X033881Y050108D01*
X033878Y050097D01*
X033878Y050087D01*
X033881Y050076D01*
X033887Y050067D01*
X033895Y050060D01*
X033883Y050492D02*
X034183Y050492D01*
X034343Y050642D02*
X034343Y051017D01*
X034643Y051017D02*
X034643Y050642D01*
X034568Y050567D01*
X034418Y050567D01*
X034343Y050642D01*
X034017Y050819D02*
X033994Y051092D01*
X033994Y051092D01*
X034017Y051365D01*
X034018Y051366D01*
X034050Y051361D01*
X034082Y051352D01*
X034112Y051340D01*
X034140Y051324D01*
X034167Y051305D01*
X034191Y051283D01*
X034212Y051259D01*
X034230Y051232D01*
X034245Y051203D01*
X034256Y051172D01*
X034264Y051141D01*
X034268Y051108D01*
X034268Y051076D01*
X034264Y051043D01*
X034256Y051012D01*
X034245Y050981D01*
X034230Y050952D01*
X034212Y050925D01*
X034191Y050901D01*
X034167Y050879D01*
X034140Y050860D01*
X034112Y050844D01*
X034082Y050832D01*
X034050Y050823D01*
X034018Y050818D01*
X034018Y050865D01*
X034046Y050870D01*
X034074Y050879D01*
X034100Y050891D01*
X034125Y050906D01*
X034148Y050924D01*
X034168Y050945D01*
X034185Y050969D01*
X034199Y050994D01*
X034210Y051021D01*
X034217Y051049D01*
X034221Y051078D01*
X034221Y051106D01*
X034217Y051135D01*
X034210Y051163D01*
X034199Y051190D01*
X034185Y051215D01*
X034168Y051239D01*
X034148Y051260D01*
X034125Y051278D01*
X034100Y051293D01*
X034074Y051305D01*
X034046Y051314D01*
X034018Y051319D01*
X034018Y051271D01*
X034043Y051266D01*
X034068Y051257D01*
X034090Y051245D01*
X034111Y051229D01*
X034130Y051211D01*
X034145Y051190D01*
X034158Y051167D01*
X034167Y051143D01*
X034172Y051118D01*
X034174Y051092D01*
X034172Y051066D01*
X034167Y051041D01*
X034158Y051017D01*
X034145Y050994D01*
X034130Y050973D01*
X034111Y050955D01*
X034090Y050939D01*
X034068Y050927D01*
X034043Y050918D01*
X034018Y050913D01*
X034018Y050960D01*
X034039Y050966D01*
X034059Y050975D01*
X034077Y050987D01*
X034093Y051002D01*
X034106Y051020D01*
X034116Y051039D01*
X034123Y051060D01*
X034127Y051081D01*
X034127Y051103D01*
X034123Y051124D01*
X034116Y051145D01*
X034106Y051164D01*
X034093Y051182D01*
X034077Y051197D01*
X034059Y051209D01*
X034039Y051218D01*
X034018Y051224D01*
X034018Y051175D01*
X034034Y051169D01*
X034048Y051160D01*
X034060Y051147D01*
X034070Y051133D01*
X034076Y051117D01*
X034080Y051101D01*
X034080Y051083D01*
X034076Y051067D01*
X034070Y051051D01*
X034060Y051037D01*
X034048Y051024D01*
X034034Y051015D01*
X034018Y051009D01*
X034016Y051060D01*
X034024Y051067D01*
X034030Y051076D01*
X034033Y051087D01*
X034033Y051097D01*
X034030Y051108D01*
X034024Y051117D01*
X034016Y051124D01*
X033769Y051365D02*
X033792Y051092D01*
X033792Y051092D01*
X033769Y050819D01*
X033768Y050818D01*
X033736Y050823D01*
X033704Y050832D01*
X033674Y050844D01*
X033646Y050860D01*
X033619Y050879D01*
X033595Y050901D01*
X033574Y050925D01*
X033556Y050952D01*
X033541Y050981D01*
X033530Y051012D01*
X033522Y051043D01*
X033518Y051076D01*
X033518Y051108D01*
X033522Y051141D01*
X033530Y051172D01*
X033541Y051203D01*
X033556Y051232D01*
X033574Y051259D01*
X033595Y051283D01*
X033619Y051305D01*
X033646Y051324D01*
X033674Y051340D01*
X033704Y051352D01*
X033736Y051361D01*
X033768Y051366D01*
X033768Y051319D01*
X033740Y051314D01*
X033712Y051305D01*
X033686Y051293D01*
X033661Y051278D01*
X033638Y051260D01*
X033618Y051239D01*
X033601Y051215D01*
X033587Y051190D01*
X033576Y051163D01*
X033569Y051135D01*
X033565Y051106D01*
X033565Y051078D01*
X033569Y051049D01*
X033576Y051021D01*
X033587Y050994D01*
X033601Y050969D01*
X033618Y050945D01*
X033638Y050924D01*
X033661Y050906D01*
X033686Y050891D01*
X033712Y050879D01*
X033740Y050870D01*
X033768Y050865D01*
X033768Y050913D01*
X033743Y050918D01*
X033718Y050927D01*
X033696Y050939D01*
X033675Y050955D01*
X033656Y050973D01*
X033641Y050994D01*
X033628Y051017D01*
X033619Y051041D01*
X033614Y051066D01*
X033612Y051092D01*
X033614Y051118D01*
X033619Y051143D01*
X033628Y051167D01*
X033641Y051190D01*
X033656Y051211D01*
X033675Y051229D01*
X033696Y051245D01*
X033718Y051257D01*
X033743Y051266D01*
X033768Y051271D01*
X033768Y051224D01*
X033747Y051218D01*
X033727Y051209D01*
X033709Y051197D01*
X033693Y051182D01*
X033680Y051164D01*
X033670Y051145D01*
X033663Y051124D01*
X033659Y051103D01*
X033659Y051081D01*
X033663Y051060D01*
X033670Y051039D01*
X033680Y051020D01*
X033693Y051002D01*
X033709Y050987D01*
X033727Y050975D01*
X033747Y050966D01*
X033768Y050960D01*
X033768Y051009D01*
X033752Y051015D01*
X033738Y051024D01*
X033726Y051037D01*
X033716Y051051D01*
X033710Y051067D01*
X033706Y051083D01*
X033706Y051101D01*
X033710Y051117D01*
X033716Y051133D01*
X033726Y051147D01*
X033738Y051160D01*
X033752Y051169D01*
X033768Y051175D01*
X033770Y051124D01*
X033762Y051117D01*
X033756Y051108D01*
X033753Y051097D01*
X033753Y051087D01*
X033756Y051076D01*
X033762Y051067D01*
X033770Y051060D01*
X033723Y051017D02*
X033723Y050642D01*
X033648Y050567D01*
X033497Y050567D01*
X033422Y050642D01*
X033422Y051017D01*
X033262Y050867D02*
X033112Y051017D01*
X033112Y050567D01*
X033262Y050567D02*
X032962Y050567D01*
X032837Y051567D02*
X033137Y051567D01*
X032837Y051867D01*
X032837Y051942D01*
X032912Y052017D01*
X033062Y052017D01*
X033137Y051942D01*
X033297Y052017D02*
X033297Y051642D01*
X033372Y051567D01*
X033523Y051567D01*
X033598Y051642D01*
X033598Y052017D01*
X033758Y051492D02*
X034058Y051492D01*
X034218Y051642D02*
X034218Y052017D01*
X034518Y052017D02*
X034518Y051642D01*
X034443Y051567D01*
X034293Y051567D01*
X034218Y051642D01*
X037212Y052042D02*
X037512Y052042D01*
X037287Y052267D01*
X037287Y051817D01*
X037672Y051892D02*
X037672Y052267D01*
X037973Y052267D02*
X037973Y051892D01*
X037898Y051817D01*
X037747Y051817D01*
X037672Y051892D01*
X038133Y051742D02*
X038433Y051742D01*
X038593Y051892D02*
X038593Y052267D01*
X038893Y052267D02*
X038893Y051892D01*
X038818Y051817D01*
X038668Y051817D01*
X038593Y051892D01*
X038392Y051069D02*
X038369Y051342D01*
X038369Y051342D01*
X038392Y051615D01*
X038393Y051616D01*
X038425Y051611D01*
X038457Y051602D01*
X038487Y051590D01*
X038515Y051574D01*
X038542Y051555D01*
X038566Y051533D01*
X038587Y051509D01*
X038605Y051482D01*
X038620Y051453D01*
X038631Y051422D01*
X038639Y051391D01*
X038643Y051358D01*
X038643Y051326D01*
X038639Y051293D01*
X038631Y051262D01*
X038620Y051231D01*
X038605Y051202D01*
X038587Y051175D01*
X038566Y051151D01*
X038542Y051129D01*
X038515Y051110D01*
X038487Y051094D01*
X038457Y051082D01*
X038425Y051073D01*
X038393Y051068D01*
X038393Y051115D01*
X038421Y051120D01*
X038449Y051129D01*
X038475Y051141D01*
X038500Y051156D01*
X038523Y051174D01*
X038543Y051195D01*
X038560Y051219D01*
X038574Y051244D01*
X038585Y051271D01*
X038592Y051299D01*
X038596Y051328D01*
X038596Y051356D01*
X038592Y051385D01*
X038585Y051413D01*
X038574Y051440D01*
X038560Y051465D01*
X038543Y051489D01*
X038523Y051510D01*
X038500Y051528D01*
X038475Y051543D01*
X038449Y051555D01*
X038421Y051564D01*
X038393Y051569D01*
X038393Y051521D01*
X038418Y051516D01*
X038443Y051507D01*
X038465Y051495D01*
X038486Y051479D01*
X038505Y051461D01*
X038520Y051440D01*
X038533Y051417D01*
X038542Y051393D01*
X038547Y051368D01*
X038549Y051342D01*
X038547Y051316D01*
X038542Y051291D01*
X038533Y051267D01*
X038520Y051244D01*
X038505Y051223D01*
X038486Y051205D01*
X038465Y051189D01*
X038443Y051177D01*
X038418Y051168D01*
X038393Y051163D01*
X038393Y051210D01*
X038414Y051216D01*
X038434Y051225D01*
X038452Y051237D01*
X038468Y051252D01*
X038481Y051270D01*
X038491Y051289D01*
X038498Y051310D01*
X038502Y051331D01*
X038502Y051353D01*
X038498Y051374D01*
X038491Y051395D01*
X038481Y051414D01*
X038468Y051432D01*
X038452Y051447D01*
X038434Y051459D01*
X038414Y051468D01*
X038393Y051474D01*
X038393Y051425D01*
X038409Y051419D01*
X038423Y051410D01*
X038435Y051397D01*
X038445Y051383D01*
X038451Y051367D01*
X038455Y051351D01*
X038455Y051333D01*
X038451Y051317D01*
X038445Y051301D01*
X038435Y051287D01*
X038423Y051274D01*
X038409Y051265D01*
X038393Y051259D01*
X038391Y051310D01*
X038399Y051317D01*
X038405Y051326D01*
X038408Y051337D01*
X038408Y051347D01*
X038405Y051358D01*
X038399Y051367D01*
X038391Y051374D01*
X038144Y051615D02*
X038167Y051342D01*
X038167Y051342D01*
X038144Y051069D01*
X038143Y051068D01*
X038111Y051073D01*
X038079Y051082D01*
X038049Y051094D01*
X038021Y051110D01*
X037994Y051129D01*
X037970Y051151D01*
X037949Y051175D01*
X037931Y051202D01*
X037916Y051231D01*
X037905Y051262D01*
X037897Y051293D01*
X037893Y051326D01*
X037893Y051358D01*
X037897Y051391D01*
X037905Y051422D01*
X037916Y051453D01*
X037931Y051482D01*
X037949Y051509D01*
X037970Y051533D01*
X037994Y051555D01*
X038021Y051574D01*
X038049Y051590D01*
X038079Y051602D01*
X038111Y051611D01*
X038143Y051616D01*
X038143Y051569D01*
X038115Y051564D01*
X038087Y051555D01*
X038061Y051543D01*
X038036Y051528D01*
X038013Y051510D01*
X037993Y051489D01*
X037976Y051465D01*
X037962Y051440D01*
X037951Y051413D01*
X037944Y051385D01*
X037940Y051356D01*
X037940Y051328D01*
X037944Y051299D01*
X037951Y051271D01*
X037962Y051244D01*
X037976Y051219D01*
X037993Y051195D01*
X038013Y051174D01*
X038036Y051156D01*
X038061Y051141D01*
X038087Y051129D01*
X038115Y051120D01*
X038143Y051115D01*
X038143Y051163D01*
X038118Y051168D01*
X038093Y051177D01*
X038071Y051189D01*
X038050Y051205D01*
X038031Y051223D01*
X038016Y051244D01*
X038003Y051267D01*
X037994Y051291D01*
X037989Y051316D01*
X037987Y051342D01*
X037989Y051368D01*
X037994Y051393D01*
X038003Y051417D01*
X038016Y051440D01*
X038031Y051461D01*
X038050Y051479D01*
X038071Y051495D01*
X038093Y051507D01*
X038118Y051516D01*
X038143Y051521D01*
X038143Y051474D01*
X038122Y051468D01*
X038102Y051459D01*
X038084Y051447D01*
X038068Y051432D01*
X038055Y051414D01*
X038045Y051395D01*
X038038Y051374D01*
X038034Y051353D01*
X038034Y051331D01*
X038038Y051310D01*
X038045Y051289D01*
X038055Y051270D01*
X038068Y051252D01*
X038084Y051237D01*
X038102Y051225D01*
X038122Y051216D01*
X038143Y051210D01*
X038143Y051259D01*
X038127Y051265D01*
X038113Y051274D01*
X038101Y051287D01*
X038091Y051301D01*
X038085Y051317D01*
X038081Y051333D01*
X038081Y051351D01*
X038085Y051367D01*
X038091Y051383D01*
X038101Y051397D01*
X038113Y051410D01*
X038127Y051419D01*
X038143Y051425D01*
X038145Y051374D01*
X038137Y051367D01*
X038131Y051358D01*
X038128Y051347D01*
X038128Y051337D01*
X038131Y051326D01*
X038137Y051317D01*
X038145Y051310D01*
X039144Y052740D02*
X039167Y052467D01*
X039167Y052467D01*
X039144Y052194D01*
X039143Y052193D01*
X039111Y052198D01*
X039079Y052207D01*
X039049Y052219D01*
X039021Y052235D01*
X038994Y052254D01*
X038970Y052276D01*
X038949Y052300D01*
X038931Y052327D01*
X038916Y052356D01*
X038905Y052387D01*
X038897Y052418D01*
X038893Y052451D01*
X038893Y052483D01*
X038897Y052516D01*
X038905Y052547D01*
X038916Y052578D01*
X038931Y052607D01*
X038949Y052634D01*
X038970Y052658D01*
X038994Y052680D01*
X039021Y052699D01*
X039049Y052715D01*
X039079Y052727D01*
X039111Y052736D01*
X039143Y052741D01*
X039143Y052694D01*
X039115Y052689D01*
X039087Y052680D01*
X039061Y052668D01*
X039036Y052653D01*
X039013Y052635D01*
X038993Y052614D01*
X038976Y052590D01*
X038962Y052565D01*
X038951Y052538D01*
X038944Y052510D01*
X038940Y052481D01*
X038940Y052453D01*
X038944Y052424D01*
X038951Y052396D01*
X038962Y052369D01*
X038976Y052344D01*
X038993Y052320D01*
X039013Y052299D01*
X039036Y052281D01*
X039061Y052266D01*
X039087Y052254D01*
X039115Y052245D01*
X039143Y052240D01*
X039143Y052288D01*
X039118Y052293D01*
X039093Y052302D01*
X039071Y052314D01*
X039050Y052330D01*
X039031Y052348D01*
X039016Y052369D01*
X039003Y052392D01*
X038994Y052416D01*
X038989Y052441D01*
X038987Y052467D01*
X038989Y052493D01*
X038994Y052518D01*
X039003Y052542D01*
X039016Y052565D01*
X039031Y052586D01*
X039050Y052604D01*
X039071Y052620D01*
X039093Y052632D01*
X039118Y052641D01*
X039143Y052646D01*
X039143Y052599D01*
X039122Y052593D01*
X039102Y052584D01*
X039084Y052572D01*
X039068Y052557D01*
X039055Y052539D01*
X039045Y052520D01*
X039038Y052499D01*
X039034Y052478D01*
X039034Y052456D01*
X039038Y052435D01*
X039045Y052414D01*
X039055Y052395D01*
X039068Y052377D01*
X039084Y052362D01*
X039102Y052350D01*
X039122Y052341D01*
X039143Y052335D01*
X039143Y052384D01*
X039127Y052390D01*
X039113Y052399D01*
X039101Y052412D01*
X039091Y052426D01*
X039085Y052442D01*
X039081Y052458D01*
X039081Y052476D01*
X039085Y052492D01*
X039091Y052508D01*
X039101Y052522D01*
X039113Y052535D01*
X039127Y052544D01*
X039143Y052550D01*
X039145Y052499D01*
X039137Y052492D01*
X039131Y052483D01*
X039128Y052472D01*
X039128Y052462D01*
X039131Y052451D01*
X039137Y052442D01*
X039145Y052435D01*
X039392Y052194D02*
X039369Y052467D01*
X039369Y052467D01*
X039392Y052740D01*
X039393Y052741D01*
X039425Y052736D01*
X039457Y052727D01*
X039487Y052715D01*
X039515Y052699D01*
X039542Y052680D01*
X039566Y052658D01*
X039587Y052634D01*
X039605Y052607D01*
X039620Y052578D01*
X039631Y052547D01*
X039639Y052516D01*
X039643Y052483D01*
X039643Y052451D01*
X039639Y052418D01*
X039631Y052387D01*
X039620Y052356D01*
X039605Y052327D01*
X039587Y052300D01*
X039566Y052276D01*
X039542Y052254D01*
X039515Y052235D01*
X039487Y052219D01*
X039457Y052207D01*
X039425Y052198D01*
X039393Y052193D01*
X039393Y052240D01*
X039421Y052245D01*
X039449Y052254D01*
X039475Y052266D01*
X039500Y052281D01*
X039523Y052299D01*
X039543Y052320D01*
X039560Y052344D01*
X039574Y052369D01*
X039585Y052396D01*
X039592Y052424D01*
X039596Y052453D01*
X039596Y052481D01*
X039592Y052510D01*
X039585Y052538D01*
X039574Y052565D01*
X039560Y052590D01*
X039543Y052614D01*
X039523Y052635D01*
X039500Y052653D01*
X039475Y052668D01*
X039449Y052680D01*
X039421Y052689D01*
X039393Y052694D01*
X039393Y052646D01*
X039418Y052641D01*
X039443Y052632D01*
X039465Y052620D01*
X039486Y052604D01*
X039505Y052586D01*
X039520Y052565D01*
X039533Y052542D01*
X039542Y052518D01*
X039547Y052493D01*
X039549Y052467D01*
X039547Y052441D01*
X039542Y052416D01*
X039533Y052392D01*
X039520Y052369D01*
X039505Y052348D01*
X039486Y052330D01*
X039465Y052314D01*
X039443Y052302D01*
X039418Y052293D01*
X039393Y052288D01*
X039393Y052335D01*
X039414Y052341D01*
X039434Y052350D01*
X039452Y052362D01*
X039468Y052377D01*
X039481Y052395D01*
X039491Y052414D01*
X039498Y052435D01*
X039502Y052456D01*
X039502Y052478D01*
X039498Y052499D01*
X039491Y052520D01*
X039481Y052539D01*
X039468Y052557D01*
X039452Y052572D01*
X039434Y052584D01*
X039414Y052593D01*
X039393Y052599D01*
X039393Y052550D01*
X039409Y052544D01*
X039423Y052535D01*
X039435Y052522D01*
X039445Y052508D01*
X039451Y052492D01*
X039455Y052476D01*
X039455Y052458D01*
X039451Y052442D01*
X039445Y052426D01*
X039435Y052412D01*
X039423Y052399D01*
X039409Y052390D01*
X039393Y052384D01*
X039391Y052435D01*
X039399Y052442D01*
X039405Y052451D01*
X039408Y052462D01*
X039408Y052472D01*
X039405Y052483D01*
X039399Y052492D01*
X039391Y052499D01*
X039433Y052867D02*
X039133Y052867D01*
X038973Y053017D02*
X038898Y052942D01*
X038747Y052942D01*
X038672Y053017D01*
X038672Y053392D01*
X038512Y053317D02*
X038437Y053392D01*
X038287Y053392D01*
X038212Y053317D01*
X038212Y053242D01*
X038287Y053167D01*
X038212Y053092D01*
X038212Y053017D01*
X038287Y052942D01*
X038437Y052942D01*
X038512Y053017D01*
X038362Y053167D02*
X038287Y053167D01*
X038973Y053017D02*
X038973Y053392D01*
X039593Y053392D02*
X039593Y053017D01*
X039668Y052942D01*
X039818Y052942D01*
X039893Y053017D01*
X039893Y053392D01*
D13*
X041323Y053972D02*
X042473Y053972D01*
X042473Y052712D02*
X041313Y052712D01*
X041354Y052572D02*
X041507Y052572D01*
X041584Y052495D01*
X041737Y052572D02*
X042044Y052572D01*
X042044Y052112D01*
X042044Y052342D02*
X041891Y052342D01*
X041584Y052112D02*
X041277Y052419D01*
X041277Y052495D01*
X041354Y052572D01*
X041277Y052112D02*
X041584Y052112D01*
X044913Y052862D02*
X045220Y053169D01*
X045297Y053169D01*
X045374Y053092D01*
X045374Y052938D01*
X045297Y052862D01*
X044913Y052862D02*
X044913Y053169D01*
X044913Y053322D02*
X045374Y053322D01*
X045374Y053552D01*
X045297Y053629D01*
X045144Y053629D01*
X045067Y053552D01*
X045067Y053322D01*
X045067Y053476D02*
X044913Y053629D01*
X044990Y053782D02*
X044913Y053859D01*
X044913Y054013D01*
X044990Y054089D01*
X045297Y054089D01*
X045374Y054013D01*
X045374Y053859D01*
X045297Y053782D01*
X045220Y053782D01*
X045144Y053859D01*
X045144Y054089D01*
X045106Y054487D02*
X045260Y054640D01*
X045183Y054640D02*
X045413Y054640D01*
X045413Y054487D02*
X045413Y054947D01*
X045183Y054947D01*
X045106Y054870D01*
X045106Y054717D01*
X045183Y054640D01*
X044953Y054487D02*
X044646Y054487D01*
X044799Y054487D02*
X044799Y054947D01*
X044953Y054794D01*
X044492Y054870D02*
X044416Y054947D01*
X044262Y054947D01*
X044185Y054870D01*
X044492Y054563D01*
X044416Y054487D01*
X044262Y054487D01*
X044185Y054563D01*
X044185Y054870D01*
X044492Y054870D02*
X044492Y054563D01*
X045567Y054487D02*
X045873Y054487D01*
X045567Y054794D01*
X045567Y054870D01*
X045643Y054947D01*
X045797Y054947D01*
X045873Y054870D01*
X041873Y056487D02*
X041567Y056487D01*
X041720Y056487D02*
X041720Y056947D01*
X041873Y056794D01*
X041413Y056870D02*
X041413Y056563D01*
X041336Y056487D01*
X041183Y056487D01*
X041106Y056563D01*
X040953Y056487D02*
X040646Y056487D01*
X040799Y056487D02*
X040799Y056947D01*
X040953Y056794D01*
X041106Y056870D02*
X041183Y056947D01*
X041336Y056947D01*
X041413Y056870D01*
X041543Y056227D02*
X041243Y056227D01*
X041243Y055707D02*
X041534Y055707D01*
X040492Y056563D02*
X040185Y056870D01*
X040185Y056563D01*
X040262Y056487D01*
X040416Y056487D01*
X040492Y056563D01*
X040492Y056870D01*
X040416Y056947D01*
X040262Y056947D01*
X040185Y056870D01*
X035531Y055887D02*
X035256Y055887D01*
X035256Y055296D01*
X035531Y055296D01*
X035531Y055887D01*
X034601Y054572D02*
X034601Y054112D01*
X034448Y054112D02*
X034755Y054112D01*
X034755Y054419D02*
X034601Y054572D01*
X034294Y054572D02*
X034064Y054572D01*
X033987Y054495D01*
X033987Y054342D01*
X034064Y054265D01*
X034294Y054265D01*
X034141Y054265D02*
X033987Y054112D01*
X033834Y054112D02*
X033527Y054419D01*
X033527Y054495D01*
X033604Y054572D01*
X033757Y054572D01*
X033834Y054495D01*
X033834Y054112D02*
X033527Y054112D01*
X033805Y053635D02*
X033805Y053174D01*
X033652Y053174D02*
X033959Y053174D01*
X034064Y053204D02*
X034064Y053479D01*
X033473Y053479D01*
X033473Y053204D01*
X034064Y053204D01*
X034112Y053174D02*
X034266Y053328D01*
X034189Y053328D02*
X034419Y053328D01*
X034419Y053174D02*
X034419Y053635D01*
X034189Y053635D01*
X034112Y053558D01*
X034112Y053404D01*
X034189Y053328D01*
X033959Y053481D02*
X033805Y053635D01*
X034294Y054112D02*
X034294Y054572D01*
X034726Y053635D02*
X034726Y053174D01*
X034573Y053174D02*
X034880Y053174D01*
X034880Y053481D02*
X034726Y053635D01*
X035104Y052197D02*
X035027Y052120D01*
X035027Y052044D01*
X035104Y051967D01*
X035257Y051967D01*
X035334Y052044D01*
X035334Y052120D01*
X035257Y052197D01*
X035104Y052197D01*
X035104Y051967D02*
X035027Y051890D01*
X035027Y051813D01*
X035104Y051737D01*
X035257Y051737D01*
X035334Y051813D01*
X035334Y051890D01*
X035257Y051967D01*
X035487Y051967D02*
X035564Y051890D01*
X035794Y051890D01*
X035641Y051890D02*
X035487Y051737D01*
X035487Y051967D02*
X035487Y052120D01*
X035564Y052197D01*
X035794Y052197D01*
X035794Y051737D01*
X035948Y051737D02*
X036255Y051737D01*
X036101Y051737D02*
X036101Y052197D01*
X036255Y052044D01*
X033374Y051138D02*
X033374Y050984D01*
X033297Y050907D01*
X033220Y050907D01*
X033144Y050984D01*
X033144Y051214D01*
X033297Y051214D02*
X033374Y051138D01*
X033297Y051214D02*
X032990Y051214D01*
X032913Y051138D01*
X032913Y050984D01*
X032990Y050907D01*
X032990Y050754D02*
X032913Y050677D01*
X032913Y050524D01*
X032990Y050447D01*
X033297Y050447D01*
X033374Y050524D01*
X033374Y050677D01*
X033297Y050754D01*
X032913Y050294D02*
X032913Y049987D01*
X032913Y050140D02*
X033374Y050140D01*
X033220Y049987D01*
X032653Y050317D02*
X032653Y050617D01*
X032134Y050617D02*
X032134Y050327D01*
X031874Y050211D02*
X031874Y049980D01*
X031413Y049980D01*
X031413Y049827D02*
X031413Y049520D01*
X031413Y049674D02*
X031874Y049674D01*
X031720Y049520D01*
X031567Y049980D02*
X031567Y050211D01*
X031644Y050287D01*
X031797Y050287D01*
X031874Y050211D01*
X031720Y050441D02*
X031874Y050594D01*
X031413Y050594D01*
X031413Y050441D02*
X031413Y050748D01*
X031490Y050901D02*
X031797Y051208D01*
X031490Y051208D01*
X031413Y051131D01*
X031413Y050978D01*
X031490Y050901D01*
X031797Y050901D01*
X031874Y050978D01*
X031874Y051131D01*
X031797Y051208D01*
X031413Y050287D02*
X031567Y050134D01*
X030064Y048979D02*
X030064Y048704D01*
X029473Y048704D01*
X029473Y048979D01*
X030064Y048979D01*
X029946Y048960D02*
X029946Y048724D01*
X029847Y048704D02*
X029690Y048704D01*
X029591Y048724D02*
X029591Y048960D01*
X029690Y048979D02*
X029847Y048979D01*
X029847Y048479D02*
X029690Y048479D01*
X029591Y048460D02*
X029591Y048224D01*
X029690Y048204D02*
X029847Y048204D01*
X029946Y048224D02*
X029946Y048460D01*
X030064Y048479D02*
X029473Y048479D01*
X029473Y048204D01*
X030064Y048204D01*
X030064Y048479D01*
X030064Y047979D02*
X029473Y047979D01*
X029473Y047704D01*
X030064Y047704D01*
X030064Y047979D01*
X029946Y047960D02*
X029946Y047724D01*
X029847Y047704D02*
X029690Y047704D01*
X029591Y047724D02*
X029591Y047960D01*
X029690Y047979D02*
X029847Y047979D01*
X029847Y047479D02*
X029690Y047479D01*
X029591Y047460D02*
X029591Y047224D01*
X029690Y047204D02*
X029847Y047204D01*
X029946Y047224D02*
X029946Y047460D01*
X030064Y047479D02*
X030064Y047204D01*
X029473Y047204D01*
X029473Y047479D01*
X030064Y047479D01*
X029142Y047380D02*
X029142Y047841D01*
X029142Y048005D02*
X029142Y048466D01*
X029142Y048630D02*
X029142Y049091D01*
X029073Y049237D02*
X029380Y049237D01*
X029226Y049237D02*
X029226Y049697D01*
X029380Y049544D01*
X028919Y049697D02*
X028689Y049697D01*
X028612Y049620D01*
X028612Y049467D01*
X028689Y049390D01*
X028919Y049390D01*
X028766Y049390D02*
X028612Y049237D01*
X028682Y049091D02*
X028682Y048630D01*
X028375Y048630D01*
X028221Y048630D02*
X027914Y048630D01*
X028068Y048630D02*
X028068Y049091D01*
X028221Y048937D01*
X028229Y049237D02*
X028152Y049313D01*
X028152Y049620D01*
X028229Y049697D01*
X028382Y049697D01*
X028459Y049620D01*
X028459Y049544D01*
X028382Y049467D01*
X028152Y049467D01*
X028229Y049237D02*
X028382Y049237D01*
X028459Y049313D01*
X028835Y049091D02*
X028835Y048630D01*
X028835Y048466D02*
X028835Y048005D01*
X028682Y048005D02*
X028375Y048005D01*
X028221Y048082D02*
X028145Y048005D01*
X027991Y048005D01*
X027914Y048082D01*
X027914Y048159D01*
X027991Y048236D01*
X028068Y048236D01*
X027991Y048236D02*
X027914Y048312D01*
X027914Y048389D01*
X027991Y048466D01*
X028145Y048466D01*
X028221Y048389D01*
X028682Y048466D02*
X028682Y048005D01*
X028682Y047841D02*
X028682Y047380D01*
X028375Y047380D01*
X028221Y047611D02*
X027914Y047611D01*
X027991Y047841D02*
X028221Y047611D01*
X027991Y047380D02*
X027991Y047841D01*
X027991Y047216D02*
X028145Y047216D01*
X028221Y047139D01*
X027991Y047216D02*
X027914Y047139D01*
X027914Y047062D01*
X028221Y046755D01*
X027914Y046755D01*
X028375Y046755D02*
X028682Y046755D01*
X028682Y047216D01*
X028835Y047216D02*
X028835Y046755D01*
X028835Y046986D02*
X029142Y046986D01*
X029142Y047216D02*
X029142Y046755D01*
X028835Y047380D02*
X028835Y047841D01*
X028835Y047611D02*
X029142Y047611D01*
X029142Y048236D02*
X028835Y048236D01*
X028835Y048861D02*
X029142Y048861D01*
X028919Y049237D02*
X028919Y049697D01*
X028938Y053462D02*
X030098Y053462D01*
X030098Y054722D02*
X028948Y054722D01*
X028175Y054837D02*
X027112Y054837D01*
X027112Y056097D01*
X028175Y056097D01*
X028175Y054837D01*
X028294Y054072D02*
X027987Y054072D01*
X027834Y053919D02*
X027680Y054072D01*
X027680Y053612D01*
X027527Y053612D02*
X027834Y053612D01*
X028141Y053842D02*
X028294Y053842D01*
X028294Y053612D02*
X028294Y054072D01*
X026778Y055317D02*
X026778Y055607D01*
X026259Y055617D02*
X026259Y055317D01*
X026311Y056287D02*
X026158Y056287D01*
X026081Y056363D01*
X025928Y056363D02*
X025928Y056440D01*
X025851Y056517D01*
X025697Y056517D01*
X025621Y056440D01*
X025621Y056363D01*
X025697Y056287D01*
X025851Y056287D01*
X025928Y056363D01*
X025851Y056517D02*
X025928Y056594D01*
X025928Y056670D01*
X025851Y056747D01*
X025697Y056747D01*
X025621Y056670D01*
X025621Y056594D01*
X025697Y056517D01*
X026081Y056670D02*
X026158Y056747D01*
X026311Y056747D01*
X026388Y056670D01*
X026388Y056363D01*
X026311Y056287D01*
X026542Y056287D02*
X026848Y056287D01*
X026695Y056287D02*
X026695Y056747D01*
X026848Y056594D01*
D14*
X028765Y054092D03*
X030275Y054092D03*
X041140Y053342D03*
X042650Y053342D03*
D15*
X036172Y055016D02*
X036172Y055201D01*
X036111Y055263D01*
X035987Y055263D01*
X035926Y055201D01*
X035926Y055016D01*
X035926Y055140D02*
X035802Y055263D01*
X035864Y055384D02*
X035802Y055446D01*
X035802Y055570D01*
X035864Y055631D01*
X036172Y055631D01*
X036049Y055753D02*
X036172Y055876D01*
X035802Y055876D01*
X035802Y055753D02*
X035802Y056000D01*
X035864Y055384D02*
X036172Y055384D01*
X036172Y055016D02*
X035802Y055016D01*
X034344Y054121D02*
X034344Y053750D01*
X034344Y053874D02*
X034159Y053874D01*
X034097Y053936D01*
X034097Y054059D01*
X034159Y054121D01*
X034344Y054121D01*
X034221Y053874D02*
X034097Y053750D01*
X033976Y053812D02*
X033914Y053750D01*
X033791Y053750D01*
X033729Y053812D01*
X033729Y054121D01*
X033607Y054059D02*
X033546Y054121D01*
X033422Y054121D01*
X033361Y054059D01*
X033361Y053997D01*
X033607Y053750D01*
X033361Y053750D01*
X033976Y053812D02*
X033976Y054121D01*
X028003Y056482D02*
X027757Y056482D01*
X027880Y056482D02*
X027880Y056852D01*
X028003Y056729D01*
X027635Y056790D02*
X027635Y056543D01*
X027573Y056482D01*
X027450Y056482D01*
X027388Y056543D01*
X027267Y056543D02*
X027267Y056482D01*
X027267Y056543D02*
X027020Y056790D01*
X027020Y056852D01*
X027267Y056852D01*
X027388Y056790D02*
X027450Y056852D01*
X027573Y056852D01*
X027635Y056790D01*
D16*
X035393Y055818D03*
X035393Y055365D03*
D17*
X033995Y053342D03*
X033542Y053342D03*
D18*
X027643Y054817D03*
X027643Y056116D03*
D19*
X027643Y054965D03*
D20*
X026518Y055179D03*
X026518Y055749D03*
X032394Y050754D03*
X032394Y050184D03*
D21*
X033518Y053904D03*
X034018Y053904D03*
X033893Y054842D03*
X033393Y054842D03*
D22*
X034851Y052716D03*
X035431Y052716D03*
X029931Y049466D03*
X029351Y049466D03*
X045356Y053967D03*
X045936Y053967D03*
D23*
X029847Y048955D03*
X029690Y048228D03*
X029690Y047728D03*
X029847Y047455D03*
D24*
X029818Y047455D03*
X029719Y047728D03*
X029719Y048228D03*
X029818Y048955D03*
D25*
X031643Y049554D03*
X031643Y050134D03*
X044394Y052800D03*
X044394Y053380D03*
D26*
G36*
X036027Y055586D02*
X036235Y055794D01*
X036721Y055308D01*
X036513Y055100D01*
X036027Y055586D01*
G37*
G36*
X035320Y054878D02*
X035528Y055086D01*
X036014Y054600D01*
X035806Y054392D01*
X035320Y054878D01*
G37*
D27*
X041106Y055967D03*
X041676Y055967D03*
M02*
