G75*
G70*
%OFA0B0*%
%FSLAX24Y24*%
%IPPOS*%
%LPD*%
%AMOC8*
5,1,8,0,0,1.08239X$1,22.5*
%
%ADD10C,0.0347*%
%ADD11R,0.1025X0.1025*%
%ADD12R,0.0710X0.1025*%
%ADD13R,0.0277X0.0336*%
%ADD14R,0.0198X0.0552*%
%ADD15C,0.0912*%
%ADD16R,0.0912X0.0912*%
%ADD17R,0.0592X0.0710*%
%ADD18R,0.0671X0.0218*%
%ADD19OC8,0.0966*%
%ADD20C,0.0320*%
%ADD21R,0.0552X0.0474*%
%ADD22C,0.0095*%
%ADD23R,0.0592X0.0493*%
%ADD24R,0.0631X0.0789*%
%ADD25C,0.0206*%
%ADD26C,0.0474*%
%ADD27C,0.0912*%
%ADD28C,0.0986*%
%ADD29C,0.1261*%
%ADD30R,0.0592X0.0671*%
%ADD31R,0.0710X0.0789*%
%ADD32R,0.0552X0.0789*%
%ADD33R,0.0671X0.0592*%
%ADD34R,0.0474X0.0513*%
%ADD35R,0.0217X0.0630*%
%ADD36R,0.0789X0.0552*%
%ADD37R,0.0710X0.1143*%
%ADD38R,0.0540X0.0710*%
%ADD39R,0.0060X0.0720*%
%ADD40R,0.0710X0.0790*%
%ADD41R,0.0580X0.0300*%
%ADD42R,0.0300X0.0580*%
%ADD43C,0.1222*%
%ADD44C,0.0992*%
%ADD45OC8,0.0992*%
%ADD46R,0.0880X0.0340*%
%ADD47C,0.1520*%
%ADD48R,0.0671X0.0552*%
%ADD49R,0.0710X0.0540*%
%ADD50R,0.0720X0.0060*%
%ADD51C,0.0867*%
%ADD52C,0.2049*%
D10*
X012124Y015134D02*
X012124Y015300D01*
X012212Y015300D01*
X012212Y015134D01*
X012124Y015134D01*
X012824Y015134D02*
X012824Y015300D01*
X012912Y015300D01*
X012912Y015134D01*
X012824Y015134D01*
X014624Y015384D02*
X014624Y015550D01*
X014712Y015550D01*
X014712Y015384D01*
X014624Y015384D01*
X015324Y015384D02*
X015324Y015550D01*
X015412Y015550D01*
X015412Y015384D01*
X015324Y015384D01*
X017935Y016198D02*
X018101Y016198D01*
X017935Y016198D02*
X017935Y016286D01*
X018101Y016286D01*
X018101Y016198D01*
X018101Y016898D02*
X017935Y016898D01*
X017935Y016986D01*
X018101Y016986D01*
X018101Y016898D01*
X019499Y014925D02*
X019587Y014925D01*
X019587Y014759D01*
X019499Y014759D01*
X019499Y014925D01*
X020199Y014925D02*
X020287Y014925D01*
X020287Y014759D01*
X020199Y014759D01*
X020199Y014925D01*
X020685Y016198D02*
X020851Y016198D01*
X020685Y016198D02*
X020685Y016286D01*
X020851Y016286D01*
X020851Y016198D01*
X020851Y016898D02*
X020685Y016898D01*
X020685Y016986D01*
X020851Y016986D01*
X020851Y016898D01*
X022962Y020009D02*
X022962Y020175D01*
X022962Y020009D02*
X022874Y020009D01*
X022874Y020175D01*
X022962Y020175D01*
X023662Y020175D02*
X023662Y020009D01*
X023574Y020009D01*
X023574Y020175D01*
X023662Y020175D01*
X029462Y024009D02*
X029462Y024175D01*
X029462Y024009D02*
X029374Y024009D01*
X029374Y024175D01*
X029462Y024175D01*
X030162Y024175D02*
X030162Y024009D01*
X030074Y024009D01*
X030074Y024175D01*
X030162Y024175D01*
X021949Y006925D02*
X021949Y006759D01*
X021949Y006925D02*
X022037Y006925D01*
X022037Y006759D01*
X021949Y006759D01*
X021249Y006759D02*
X021249Y006925D01*
X021337Y006925D01*
X021337Y006759D01*
X021249Y006759D01*
X015912Y019259D02*
X015912Y019425D01*
X015912Y019259D02*
X015824Y019259D01*
X015824Y019425D01*
X015912Y019425D01*
X015212Y019425D02*
X015212Y019259D01*
X015124Y019259D01*
X015124Y019425D01*
X015212Y019425D01*
X013162Y020009D02*
X013162Y020175D01*
X013162Y020009D02*
X013074Y020009D01*
X013074Y020175D01*
X013162Y020175D01*
X012462Y020175D02*
X012462Y020009D01*
X012374Y020009D01*
X012374Y020175D01*
X012462Y020175D01*
X010662Y019675D02*
X010662Y019509D01*
X010574Y019509D01*
X010574Y019675D01*
X010662Y019675D01*
X009962Y019675D02*
X009962Y019509D01*
X009874Y019509D01*
X009874Y019675D01*
X009962Y019675D01*
X009199Y030009D02*
X009199Y030175D01*
X009287Y030175D01*
X009287Y030009D01*
X009199Y030009D01*
X008499Y030009D02*
X008499Y030175D01*
X008587Y030175D01*
X008587Y030009D01*
X008499Y030009D01*
D11*
X034902Y028592D03*
X036635Y028592D03*
D12*
X021359Y028592D03*
X020178Y028592D03*
X019359Y028592D03*
X018178Y028592D03*
D13*
X018111Y031326D03*
X018426Y031326D03*
X018741Y031326D03*
X018741Y031857D03*
X018426Y031857D03*
X018111Y031857D03*
X017796Y031857D03*
X017796Y031326D03*
X014991Y013107D03*
X014676Y013107D03*
X014361Y013107D03*
X014046Y013107D03*
X014046Y012576D03*
X014361Y012576D03*
X014676Y012576D03*
X014991Y012576D03*
X035546Y053451D03*
X035861Y053451D03*
X036176Y053451D03*
X036491Y053451D03*
X036491Y053982D03*
X036176Y053982D03*
X035861Y053982D03*
X035546Y053982D03*
D14*
X024152Y018423D03*
X023896Y018423D03*
X023640Y018423D03*
X023384Y018423D03*
X023384Y016760D03*
X023640Y016760D03*
X023896Y016760D03*
X024152Y016760D03*
D15*
X038643Y039301D02*
X038643Y040133D01*
X039643Y040133D02*
X039643Y039301D01*
X040643Y039301D02*
X040643Y040133D01*
X041643Y040133D02*
X041643Y039301D01*
X042643Y039301D02*
X042643Y040133D01*
X043643Y040133D02*
X043643Y039301D01*
X044643Y039301D02*
X044643Y040133D01*
X045643Y040133D02*
X045643Y039301D01*
X046018Y042551D02*
X046018Y043383D01*
X045018Y043383D02*
X045018Y042551D01*
X044018Y042551D02*
X044018Y043383D01*
X047018Y043383D02*
X047018Y042551D01*
X048018Y042551D02*
X048018Y043383D01*
X041018Y043383D02*
X041018Y042551D01*
X040018Y042551D02*
X040018Y043383D01*
X061518Y045051D02*
X061518Y045883D01*
X062518Y045883D02*
X062518Y045051D01*
X063518Y045051D02*
X063518Y045883D01*
X064518Y045883D02*
X064518Y045051D01*
X064518Y048051D02*
X064518Y048883D01*
X063518Y048883D02*
X063518Y048051D01*
X062518Y048051D02*
X062518Y048883D01*
X061518Y048883D02*
X061518Y048051D01*
X015559Y048342D02*
X014728Y048342D01*
X014728Y049342D02*
X015559Y049342D01*
X015559Y050342D02*
X014728Y050342D01*
X014728Y051342D02*
X015559Y051342D01*
X015559Y052342D02*
X014728Y052342D01*
X014728Y053342D02*
X015559Y053342D01*
X015559Y047342D02*
X014728Y047342D01*
X014728Y046342D02*
X015559Y046342D01*
X015559Y045342D02*
X014728Y045342D01*
X014728Y044342D02*
X015559Y044342D01*
X015559Y043342D02*
X014728Y043342D01*
X014728Y042342D02*
X015559Y042342D01*
X015559Y041342D02*
X014728Y041342D01*
D16*
X042018Y042967D03*
X043018Y042967D03*
X046643Y039717D03*
X047643Y039717D03*
X048643Y039717D03*
D17*
X010769Y014217D03*
X011517Y014217D03*
X011017Y018967D03*
X010269Y018967D03*
D18*
X032955Y049204D03*
X032955Y049456D03*
X032955Y049708D03*
X032955Y049960D03*
X032955Y050212D03*
X032955Y050464D03*
X032955Y050724D03*
X032955Y050968D03*
X032955Y051220D03*
X032955Y051472D03*
X032955Y051724D03*
X032955Y051976D03*
X032955Y052227D03*
X032955Y052479D03*
X035081Y052479D03*
X035081Y052227D03*
X035081Y051976D03*
X035081Y051724D03*
X035081Y051472D03*
X035081Y051220D03*
X035081Y050968D03*
X035081Y050716D03*
X035081Y050464D03*
X035081Y050212D03*
X035081Y049960D03*
X035081Y049708D03*
X035081Y049456D03*
X035081Y049204D03*
D19*
X044893Y024467D03*
X044893Y023467D03*
X045893Y023467D03*
X045893Y024467D03*
X046893Y024467D03*
X046893Y023467D03*
X009393Y026092D03*
X008393Y026092D03*
X007393Y026092D03*
X007393Y027092D03*
X008393Y027092D03*
X009393Y027092D03*
D20*
X008917Y032774D02*
X008881Y032774D01*
X008917Y032774D02*
X008917Y032660D01*
X008881Y032660D01*
X008881Y032774D01*
X008406Y032774D02*
X008370Y032774D01*
X008406Y032774D02*
X008406Y032660D01*
X008370Y032660D01*
X008370Y032774D01*
X013370Y017274D02*
X013406Y017274D01*
X013406Y017160D01*
X013370Y017160D01*
X013370Y017274D01*
X013881Y017274D02*
X013917Y017274D01*
X013917Y017160D01*
X013881Y017160D01*
X013881Y017274D01*
D21*
X005827Y021467D03*
X004960Y021467D03*
X005210Y032592D03*
X006077Y032592D03*
D22*
X013026Y008678D02*
X013026Y008062D01*
X012490Y008062D01*
X012490Y008678D01*
X013026Y008678D01*
X013026Y008156D02*
X012490Y008156D01*
X012490Y008250D02*
X013026Y008250D01*
X013026Y008344D02*
X012490Y008344D01*
X012490Y008438D02*
X013026Y008438D01*
X013026Y008532D02*
X012490Y008532D01*
X012490Y008626D02*
X013026Y008626D01*
X014797Y008678D02*
X014797Y008062D01*
X014261Y008062D01*
X014261Y008678D01*
X014797Y008678D01*
X014797Y008156D02*
X014261Y008156D01*
X014261Y008250D02*
X014797Y008250D01*
X014797Y008344D02*
X014261Y008344D01*
X014261Y008438D02*
X014797Y008438D01*
X014797Y008532D02*
X014261Y008532D01*
X014261Y008626D02*
X014797Y008626D01*
X014797Y005371D02*
X014797Y004755D01*
X014261Y004755D01*
X014261Y005371D01*
X014797Y005371D01*
X014797Y004849D02*
X014261Y004849D01*
X014261Y004943D02*
X014797Y004943D01*
X014797Y005037D02*
X014261Y005037D01*
X014261Y005131D02*
X014797Y005131D01*
X014797Y005225D02*
X014261Y005225D01*
X014261Y005319D02*
X014797Y005319D01*
X013911Y005371D02*
X013911Y004755D01*
X013375Y004755D01*
X013375Y005371D01*
X013911Y005371D01*
X013911Y004849D02*
X013375Y004849D01*
X013375Y004943D02*
X013911Y004943D01*
X013911Y005037D02*
X013375Y005037D01*
X013375Y005131D02*
X013911Y005131D01*
X013911Y005225D02*
X013375Y005225D01*
X013375Y005319D02*
X013911Y005319D01*
X013026Y005371D02*
X013026Y004755D01*
X012490Y004755D01*
X012490Y005371D01*
X013026Y005371D01*
X013026Y004849D02*
X012490Y004849D01*
X012490Y004943D02*
X013026Y004943D01*
X013026Y005037D02*
X012490Y005037D01*
X012490Y005131D02*
X013026Y005131D01*
X013026Y005225D02*
X012490Y005225D01*
X012490Y005319D02*
X013026Y005319D01*
D23*
X018941Y016227D03*
X018941Y016956D03*
X019846Y016956D03*
X019846Y016227D03*
D24*
X012063Y030842D03*
X010724Y030842D03*
D25*
X018294Y013087D02*
X018344Y013087D01*
X018344Y012663D01*
X018294Y012663D01*
X018294Y013087D01*
X018294Y012868D02*
X018344Y012868D01*
X018344Y013073D02*
X018294Y013073D01*
X018609Y013087D02*
X018659Y013087D01*
X018659Y012663D01*
X018609Y012663D01*
X018609Y013087D01*
X018609Y012868D02*
X018659Y012868D01*
X018659Y013073D02*
X018609Y013073D01*
X018924Y013087D02*
X018974Y013087D01*
X018974Y012663D01*
X018924Y012663D01*
X018924Y013087D01*
X018924Y012868D02*
X018974Y012868D01*
X018974Y013073D02*
X018924Y013073D01*
X019239Y013087D02*
X019289Y013087D01*
X019289Y012663D01*
X019239Y012663D01*
X019239Y013087D01*
X019239Y012868D02*
X019289Y012868D01*
X019289Y013073D02*
X019239Y013073D01*
X019554Y013087D02*
X019604Y013087D01*
X019604Y012663D01*
X019554Y012663D01*
X019554Y013087D01*
X019554Y012868D02*
X019604Y012868D01*
X019604Y013073D02*
X019554Y013073D01*
X019868Y013087D02*
X019918Y013087D01*
X019918Y012663D01*
X019868Y012663D01*
X019868Y013087D01*
X019868Y012868D02*
X019918Y012868D01*
X019918Y013073D02*
X019868Y013073D01*
X020183Y013087D02*
X020233Y013087D01*
X020233Y012663D01*
X020183Y012663D01*
X020183Y013087D01*
X020183Y012868D02*
X020233Y012868D01*
X020233Y013073D02*
X020183Y013073D01*
X020498Y013087D02*
X020548Y013087D01*
X020548Y012663D01*
X020498Y012663D01*
X020498Y013087D01*
X020498Y012868D02*
X020548Y012868D01*
X020548Y013073D02*
X020498Y013073D01*
X020813Y013087D02*
X020863Y013087D01*
X020863Y012663D01*
X020813Y012663D01*
X020813Y013087D01*
X020813Y012868D02*
X020863Y012868D01*
X020863Y013073D02*
X020813Y013073D01*
X021128Y013087D02*
X021178Y013087D01*
X021178Y012663D01*
X021128Y012663D01*
X021128Y013087D01*
X021128Y012868D02*
X021178Y012868D01*
X021178Y013073D02*
X021128Y013073D01*
X021443Y013087D02*
X021493Y013087D01*
X021493Y012663D01*
X021443Y012663D01*
X021443Y013087D01*
X021443Y012868D02*
X021493Y012868D01*
X021493Y013073D02*
X021443Y013073D01*
X021965Y012191D02*
X022389Y012191D01*
X022389Y012141D01*
X021965Y012141D01*
X021965Y012191D01*
X021965Y011877D02*
X022389Y011877D01*
X022389Y011827D01*
X021965Y011827D01*
X021965Y011877D01*
X021965Y011562D02*
X022389Y011562D01*
X022389Y011512D01*
X021965Y011512D01*
X021965Y011562D01*
X021965Y011247D02*
X022389Y011247D01*
X022389Y011197D01*
X021965Y011197D01*
X021965Y011247D01*
X021965Y010932D02*
X022389Y010932D01*
X022389Y010882D01*
X021965Y010882D01*
X021965Y010932D01*
X021965Y010617D02*
X022389Y010617D01*
X022389Y010567D01*
X021965Y010567D01*
X021965Y010617D01*
X021965Y010302D02*
X022389Y010302D01*
X022389Y010252D01*
X021965Y010252D01*
X021965Y010302D01*
X021965Y009987D02*
X022389Y009987D01*
X022389Y009937D01*
X021965Y009937D01*
X021965Y009987D01*
X021965Y009672D02*
X022389Y009672D01*
X022389Y009622D01*
X021965Y009622D01*
X021965Y009672D01*
X021965Y009357D02*
X022389Y009357D01*
X022389Y009307D01*
X021965Y009307D01*
X021965Y009357D01*
X021965Y009042D02*
X022389Y009042D01*
X022389Y008992D01*
X021965Y008992D01*
X021965Y009042D01*
X021493Y008520D02*
X021443Y008520D01*
X021493Y008520D02*
X021493Y008096D01*
X021443Y008096D01*
X021443Y008520D01*
X021443Y008301D02*
X021493Y008301D01*
X021493Y008506D02*
X021443Y008506D01*
X021178Y008520D02*
X021128Y008520D01*
X021178Y008520D02*
X021178Y008096D01*
X021128Y008096D01*
X021128Y008520D01*
X021128Y008301D02*
X021178Y008301D01*
X021178Y008506D02*
X021128Y008506D01*
X020863Y008520D02*
X020813Y008520D01*
X020863Y008520D02*
X020863Y008096D01*
X020813Y008096D01*
X020813Y008520D01*
X020813Y008301D02*
X020863Y008301D01*
X020863Y008506D02*
X020813Y008506D01*
X020548Y008520D02*
X020498Y008520D01*
X020548Y008520D02*
X020548Y008096D01*
X020498Y008096D01*
X020498Y008520D01*
X020498Y008301D02*
X020548Y008301D01*
X020548Y008506D02*
X020498Y008506D01*
X020233Y008520D02*
X020183Y008520D01*
X020233Y008520D02*
X020233Y008096D01*
X020183Y008096D01*
X020183Y008520D01*
X020183Y008301D02*
X020233Y008301D01*
X020233Y008506D02*
X020183Y008506D01*
X019918Y008520D02*
X019868Y008520D01*
X019918Y008520D02*
X019918Y008096D01*
X019868Y008096D01*
X019868Y008520D01*
X019868Y008301D02*
X019918Y008301D01*
X019918Y008506D02*
X019868Y008506D01*
X019604Y008520D02*
X019554Y008520D01*
X019604Y008520D02*
X019604Y008096D01*
X019554Y008096D01*
X019554Y008520D01*
X019554Y008301D02*
X019604Y008301D01*
X019604Y008506D02*
X019554Y008506D01*
X019289Y008520D02*
X019239Y008520D01*
X019289Y008520D02*
X019289Y008096D01*
X019239Y008096D01*
X019239Y008520D01*
X019239Y008301D02*
X019289Y008301D01*
X019289Y008506D02*
X019239Y008506D01*
X018974Y008520D02*
X018924Y008520D01*
X018974Y008520D02*
X018974Y008096D01*
X018924Y008096D01*
X018924Y008520D01*
X018924Y008301D02*
X018974Y008301D01*
X018974Y008506D02*
X018924Y008506D01*
X018659Y008520D02*
X018609Y008520D01*
X018659Y008520D02*
X018659Y008096D01*
X018609Y008096D01*
X018609Y008520D01*
X018609Y008301D02*
X018659Y008301D01*
X018659Y008506D02*
X018609Y008506D01*
X018344Y008520D02*
X018294Y008520D01*
X018344Y008520D02*
X018344Y008096D01*
X018294Y008096D01*
X018294Y008520D01*
X018294Y008301D02*
X018344Y008301D01*
X018344Y008506D02*
X018294Y008506D01*
X017822Y009042D02*
X017398Y009042D01*
X017822Y009042D02*
X017822Y008992D01*
X017398Y008992D01*
X017398Y009042D01*
X017398Y009357D02*
X017822Y009357D01*
X017822Y009307D01*
X017398Y009307D01*
X017398Y009357D01*
X017398Y009672D02*
X017822Y009672D01*
X017822Y009622D01*
X017398Y009622D01*
X017398Y009672D01*
X017398Y009987D02*
X017822Y009987D01*
X017822Y009937D01*
X017398Y009937D01*
X017398Y009987D01*
X017398Y010302D02*
X017822Y010302D01*
X017822Y010252D01*
X017398Y010252D01*
X017398Y010302D01*
X017398Y010617D02*
X017822Y010617D01*
X017822Y010567D01*
X017398Y010567D01*
X017398Y010617D01*
X017398Y010932D02*
X017822Y010932D01*
X017822Y010882D01*
X017398Y010882D01*
X017398Y010932D01*
X017398Y011247D02*
X017822Y011247D01*
X017822Y011197D01*
X017398Y011197D01*
X017398Y011247D01*
X017398Y011562D02*
X017822Y011562D01*
X017822Y011512D01*
X017398Y011512D01*
X017398Y011562D01*
X017398Y011877D02*
X017822Y011877D01*
X017822Y011827D01*
X017398Y011827D01*
X017398Y011877D01*
X017398Y012191D02*
X017822Y012191D01*
X017822Y012141D01*
X017398Y012141D01*
X017398Y012191D01*
D26*
X019893Y010592D03*
D27*
X018943Y015467D03*
X020843Y015467D03*
X036143Y047892D03*
X036143Y049792D03*
X047318Y054092D03*
X049218Y054092D03*
D28*
X042646Y054852D03*
X041662Y054852D03*
X040875Y054852D03*
X039890Y054852D03*
X032511Y054962D03*
X032511Y053925D03*
X031464Y053925D03*
X031464Y054962D03*
X019268Y043826D03*
X019268Y041857D03*
D29*
X029648Y055967D03*
X034389Y055967D03*
D30*
X034392Y048342D03*
X033644Y048342D03*
X027892Y049717D03*
X027144Y049717D03*
X049809Y053092D03*
X050478Y053092D03*
X050309Y054092D03*
X050978Y054092D03*
X052059Y047967D03*
X052728Y047967D03*
X051392Y046467D03*
X050644Y046467D03*
X053019Y045842D03*
X053767Y045842D03*
X062769Y052342D03*
X063517Y052342D03*
X045017Y016467D03*
X044269Y016467D03*
X043142Y016467D03*
X042394Y016467D03*
X041017Y016467D03*
X040269Y016467D03*
D31*
X034695Y047467D03*
X033592Y047467D03*
X028070Y050467D03*
X026967Y050467D03*
D32*
X028018Y051377D03*
X028018Y052557D03*
X030518Y052057D03*
X030518Y050877D03*
D33*
X028768Y050718D03*
X028768Y051466D03*
X027018Y051218D03*
X027018Y051966D03*
X028768Y049341D03*
X028768Y048593D03*
X032393Y048466D03*
X032393Y047718D03*
D34*
X036893Y047882D03*
X036893Y048551D03*
X036893Y049132D03*
X036893Y049801D03*
X052684Y050967D03*
X053353Y050967D03*
X053684Y049717D03*
X054353Y049717D03*
X055184Y048717D03*
X055853Y048717D03*
X055559Y047592D03*
X056228Y047592D03*
X055603Y051842D03*
X054934Y051842D03*
X057309Y051842D03*
X057978Y051842D03*
D35*
X051182Y051781D03*
X050926Y051781D03*
X050670Y051781D03*
X050414Y051781D03*
X050158Y051781D03*
X049902Y051781D03*
X049646Y051781D03*
X049391Y051781D03*
X049135Y051781D03*
X048879Y051781D03*
X048623Y051781D03*
X048367Y051781D03*
X048111Y051781D03*
X047855Y051781D03*
X047855Y048902D03*
X048111Y048902D03*
X048367Y048902D03*
X048623Y048902D03*
X048879Y048902D03*
X049135Y048902D03*
X049391Y048902D03*
X049646Y048902D03*
X049902Y048902D03*
X050158Y048902D03*
X050414Y048902D03*
X050670Y048902D03*
X050926Y048902D03*
X051182Y048902D03*
D36*
X055553Y049717D03*
X056734Y049717D03*
X059303Y050342D03*
X060484Y050342D03*
D37*
X054570Y052967D03*
X053467Y052967D03*
D38*
X058968Y045717D03*
X059568Y045717D03*
X060593Y043842D03*
X061193Y043842D03*
X060693Y042592D03*
X060093Y042592D03*
X058443Y043592D03*
X057843Y043592D03*
X057068Y043592D03*
X056468Y043592D03*
X054193Y043967D03*
X053593Y043967D03*
D39*
X053893Y043967D03*
X056768Y043592D03*
X058143Y043592D03*
X059268Y045717D03*
X060893Y043842D03*
X060393Y042592D03*
D40*
X048953Y047092D03*
X047834Y047092D03*
D41*
X043458Y024569D03*
X043458Y024254D03*
X043458Y023939D03*
X043458Y023624D03*
X043458Y023309D03*
X043458Y022994D03*
X043458Y022679D03*
X043458Y022364D03*
X040078Y022364D03*
X040078Y022679D03*
X040078Y022994D03*
X040078Y023309D03*
X040078Y023624D03*
X040078Y023939D03*
X040078Y024254D03*
X040078Y024569D03*
D42*
X040666Y025157D03*
X040981Y025157D03*
X041296Y025157D03*
X041611Y025157D03*
X041926Y025157D03*
X042241Y025157D03*
X042556Y025157D03*
X042871Y025157D03*
X042871Y021777D03*
X042556Y021777D03*
X042241Y021777D03*
X041926Y021777D03*
X041611Y021777D03*
X041296Y021777D03*
X040981Y021777D03*
X040666Y021777D03*
D43*
X045068Y019717D03*
X046968Y019717D03*
D44*
X040518Y019092D03*
D45*
X040518Y020092D03*
X041518Y020092D03*
X041518Y019092D03*
X042518Y019092D03*
X042518Y020092D03*
D46*
X062288Y005717D03*
X062288Y005217D03*
X062288Y004717D03*
X062288Y004217D03*
X062288Y003717D03*
X062288Y003217D03*
X062288Y002717D03*
X062288Y002217D03*
X062288Y001717D03*
X062288Y001217D03*
X066248Y001217D03*
X066248Y001717D03*
X066248Y002217D03*
X066248Y002717D03*
X066248Y003217D03*
X066248Y003717D03*
X066248Y004217D03*
X066248Y004717D03*
X066248Y005217D03*
X066248Y005717D03*
D47*
X043855Y055919D03*
X038682Y055919D03*
D48*
G36*
X036868Y055550D02*
X036395Y055077D01*
X036004Y055468D01*
X036477Y055941D01*
X036868Y055550D01*
G37*
G36*
X036033Y054715D02*
X035560Y054242D01*
X035169Y054633D01*
X035642Y055106D01*
X036033Y054715D01*
G37*
D49*
X037143Y053517D03*
X037143Y052917D03*
D50*
X037143Y053217D03*
D51*
X036268Y052717D03*
X034768Y053967D03*
X034768Y054842D03*
X030768Y049592D03*
X030768Y048717D03*
X030768Y047842D03*
X032393Y046967D03*
X029768Y050842D03*
X015518Y072092D03*
X015518Y079592D03*
X037518Y079592D03*
X045018Y079592D03*
X052518Y079592D03*
X070518Y079592D03*
X070518Y076592D03*
D52*
X070518Y088342D03*
X066768Y088342D03*
X061518Y088342D03*
X052518Y088342D03*
X045018Y088342D03*
X037518Y088342D03*
X026518Y088342D03*
X015518Y088342D03*
X006706Y088342D03*
X006706Y079592D03*
X006706Y072092D03*
X037518Y058842D03*
X074581Y088342D03*
X076768Y088342D03*
M02*
