G75*
G70*
%OFA0B0*%
%FSLAX24Y24*%
%IPPOS*%
%LPD*%
%AMOC8*
5,1,8,0,0,1.08239X$1,22.5*
%
%ADD10C,0.0912*%
%ADD11R,0.0912X0.0912*%
%ADD12R,0.0671X0.0218*%
%ADD13OC8,0.0966*%
%ADD14C,0.0347*%
%ADD15R,0.0671X0.0592*%
%ADD16R,0.0513X0.0474*%
%ADD17R,0.0474X0.0552*%
%ADD18R,0.0474X0.0513*%
%ADD19C,0.0095*%
%ADD20R,0.0493X0.0592*%
%ADD21R,0.0631X0.0789*%
%ADD22C,0.0206*%
%ADD23C,0.0474*%
%ADD24C,0.0912*%
%ADD25R,0.0552X0.0474*%
%ADD26C,0.0986*%
%ADD27C,0.1261*%
%ADD28R,0.0277X0.0336*%
%ADD29R,0.0592X0.0671*%
%ADD30R,0.0710X0.0789*%
%ADD31R,0.0552X0.0789*%
%ADD32R,0.0630X0.0217*%
%ADD33R,0.1143X0.0710*%
%ADD34R,0.0710X0.0540*%
%ADD35R,0.0720X0.0060*%
%ADD36R,0.0540X0.0710*%
%ADD37R,0.0060X0.0720*%
%ADD38C,0.1520*%
%ADD39R,0.0671X0.0552*%
%ADD40OC8,0.0986*%
%ADD41OC8,0.0912*%
%ADD42C,0.0992*%
%ADD43OC8,0.0992*%
%ADD44OC8,0.1261*%
%ADD45R,0.0710X0.0592*%
%ADD46R,0.0710X0.0867*%
%ADD47R,0.0592X0.0710*%
%ADD48C,0.0952*%
%ADD49R,0.0340X0.0880*%
%ADD50R,0.0880X0.0340*%
%ADD51C,0.0992*%
%ADD52C,0.0867*%
%ADD53C,0.0437*%
%ADD54C,0.2049*%
D10*
X065822Y057093D02*
X066653Y057093D01*
X066653Y058093D02*
X065822Y058093D01*
X065822Y059093D02*
X066653Y059093D01*
X066653Y060093D02*
X065822Y060093D01*
X065822Y061093D02*
X066653Y061093D01*
X066653Y062093D02*
X065822Y062093D01*
X065822Y063093D02*
X066653Y063093D01*
X066653Y064093D02*
X065822Y064093D01*
X070822Y064093D02*
X071653Y064093D01*
X071653Y065093D02*
X070822Y065093D01*
X070822Y066093D02*
X071653Y066093D01*
X074822Y069093D02*
X075653Y069093D01*
X075653Y070093D02*
X074822Y070093D01*
X074822Y071093D02*
X075653Y071093D01*
X075653Y072093D02*
X074822Y072093D01*
X074822Y073093D02*
X075653Y073093D01*
X075653Y074093D02*
X074822Y074093D01*
X074822Y075093D02*
X075653Y075093D01*
X075653Y076093D02*
X074822Y076093D01*
X093738Y073446D02*
X093738Y072614D01*
X094738Y072614D02*
X094738Y073446D01*
X095738Y073446D02*
X095738Y072614D01*
X096738Y072614D02*
X096738Y073446D01*
X096738Y070446D02*
X096738Y069614D01*
X095738Y069614D02*
X095738Y070446D01*
X094738Y070446D02*
X094738Y069614D01*
X093738Y069614D02*
X093738Y070446D01*
X084050Y061633D02*
X084050Y060802D01*
X083050Y060802D02*
X083050Y061633D01*
X082050Y061633D02*
X082050Y060802D01*
X081050Y060802D02*
X081050Y061633D01*
X080050Y061633D02*
X080050Y060802D01*
X079675Y059133D02*
X079675Y058302D01*
X078675Y058302D02*
X078675Y059133D01*
X077675Y059133D02*
X077675Y058302D01*
X076675Y058302D02*
X076675Y059133D01*
X075675Y059133D02*
X075675Y058302D01*
X076050Y060802D02*
X076050Y061633D01*
X077050Y061633D02*
X077050Y060802D01*
X080675Y059133D02*
X080675Y058302D01*
X081675Y058302D02*
X081675Y059133D01*
X082675Y059133D02*
X082675Y058302D01*
D11*
X083675Y058718D03*
X084675Y058718D03*
X085675Y058718D03*
X079050Y061218D03*
X078050Y061218D03*
X075238Y066093D03*
X075238Y067093D03*
X075238Y068093D03*
D12*
X082987Y067970D03*
X082987Y067718D03*
X082987Y067474D03*
X082987Y067215D03*
X082987Y066963D03*
X082987Y066711D03*
X082987Y066459D03*
X082987Y066207D03*
X082987Y065955D03*
X085113Y065955D03*
X085113Y066207D03*
X085113Y066459D03*
X085113Y066711D03*
X085113Y066963D03*
X085113Y067215D03*
X085113Y067467D03*
X085113Y067718D03*
X085113Y067970D03*
X085113Y068222D03*
X085113Y068474D03*
X085113Y068726D03*
X085113Y068978D03*
X085113Y069230D03*
X082987Y069230D03*
X082987Y068978D03*
X082987Y068726D03*
X082987Y068474D03*
X082987Y068222D03*
D13*
X009113Y070655D03*
X009113Y071655D03*
X009113Y072655D03*
X008113Y072655D03*
X008113Y071655D03*
X008113Y070655D03*
X002800Y059093D03*
X001800Y059093D03*
X000800Y059093D03*
X000800Y058093D03*
X001800Y058093D03*
X002800Y058093D03*
D14*
X016717Y064011D02*
X016883Y064011D01*
X016717Y064011D02*
X016717Y064099D01*
X016883Y064099D01*
X016883Y064011D01*
X016883Y064711D02*
X016717Y064711D01*
X016717Y064799D01*
X016883Y064799D01*
X016883Y064711D01*
X017592Y064086D02*
X017758Y064086D01*
X017592Y064086D02*
X017592Y064174D01*
X017758Y064174D01*
X017758Y064086D01*
X017758Y063386D02*
X017592Y063386D01*
X017592Y063474D01*
X017758Y063474D01*
X017758Y063386D01*
X007008Y071099D02*
X006842Y071099D01*
X007008Y071099D02*
X007008Y071011D01*
X006842Y071011D01*
X006842Y071099D01*
X006842Y071799D02*
X007008Y071799D01*
X007008Y071711D01*
X006842Y071711D01*
X006842Y071799D01*
D15*
X008925Y063904D03*
X008925Y063156D03*
X077050Y067968D03*
X077050Y068717D03*
X078800Y068217D03*
X078800Y067468D03*
X078800Y066092D03*
X078800Y065343D03*
X082300Y065217D03*
X082300Y064468D03*
X088800Y065656D03*
X088800Y066404D03*
X091300Y064927D03*
X091300Y064258D03*
X099550Y065718D03*
X099550Y066467D03*
D16*
X098925Y066758D03*
X098925Y067427D03*
X097800Y067052D03*
X097800Y066383D03*
X092300Y065552D03*
X092300Y064883D03*
X085260Y065218D03*
X084590Y065218D03*
G36*
X014197Y067405D02*
X013836Y067044D01*
X013501Y067379D01*
X013862Y067740D01*
X014197Y067405D01*
G37*
G36*
X013724Y066931D02*
X013363Y066570D01*
X013028Y066905D01*
X013389Y067266D01*
X013724Y066931D01*
G37*
X007510Y064405D03*
X006840Y064405D03*
X006840Y061655D03*
X007510Y061655D03*
D17*
X015988Y065284D03*
X015988Y066151D03*
D18*
X016800Y062177D03*
X016800Y061508D03*
X086550Y064383D03*
X086550Y065052D03*
X091215Y068843D03*
X091885Y068843D03*
X091885Y069530D03*
X091215Y069530D03*
X091215Y070218D03*
X091885Y070218D03*
X089447Y070093D03*
X088778Y070093D03*
X088465Y070718D03*
X089135Y070718D03*
D19*
X013668Y043992D02*
X013668Y043376D01*
X013668Y043992D02*
X014204Y043992D01*
X014204Y043376D01*
X013668Y043376D01*
X013668Y043470D02*
X014204Y043470D01*
X014204Y043564D02*
X013668Y043564D01*
X013668Y043658D02*
X014204Y043658D01*
X014204Y043752D02*
X013668Y043752D01*
X013668Y043846D02*
X014204Y043846D01*
X014204Y043940D02*
X013668Y043940D01*
X012782Y043992D02*
X012782Y043376D01*
X012782Y043992D02*
X013318Y043992D01*
X013318Y043376D01*
X012782Y043376D01*
X012782Y043470D02*
X013318Y043470D01*
X013318Y043564D02*
X012782Y043564D01*
X012782Y043658D02*
X013318Y043658D01*
X013318Y043752D02*
X012782Y043752D01*
X012782Y043846D02*
X013318Y043846D01*
X013318Y043940D02*
X012782Y043940D01*
X011896Y043992D02*
X011896Y043376D01*
X011896Y043992D02*
X012432Y043992D01*
X012432Y043376D01*
X011896Y043376D01*
X011896Y043470D02*
X012432Y043470D01*
X012432Y043564D02*
X011896Y043564D01*
X011896Y043658D02*
X012432Y043658D01*
X012432Y043752D02*
X011896Y043752D01*
X011896Y043846D02*
X012432Y043846D01*
X012432Y043940D02*
X011896Y043940D01*
X011896Y040684D02*
X011896Y040068D01*
X011896Y040684D02*
X012432Y040684D01*
X012432Y040068D01*
X011896Y040068D01*
X011896Y040162D02*
X012432Y040162D01*
X012432Y040256D02*
X011896Y040256D01*
X011896Y040350D02*
X012432Y040350D01*
X012432Y040444D02*
X011896Y040444D01*
X011896Y040538D02*
X012432Y040538D01*
X012432Y040632D02*
X011896Y040632D01*
X013668Y040684D02*
X013668Y040068D01*
X013668Y040684D02*
X014204Y040684D01*
X014204Y040068D01*
X013668Y040068D01*
X013668Y040162D02*
X014204Y040162D01*
X014204Y040256D02*
X013668Y040256D01*
X013668Y040350D02*
X014204Y040350D01*
X014204Y040444D02*
X013668Y040444D01*
X013668Y040538D02*
X014204Y040538D01*
X014204Y040632D02*
X013668Y040632D01*
D20*
X007539Y062577D03*
X006811Y062577D03*
X006811Y063483D03*
X007539Y063483D03*
D21*
X007318Y066843D03*
X008657Y066843D03*
D22*
X010680Y065130D02*
X010680Y065080D01*
X010680Y065130D02*
X011104Y065130D01*
X011104Y065080D01*
X010680Y065080D01*
X010680Y064815D02*
X010680Y064765D01*
X010680Y064815D02*
X011104Y064815D01*
X011104Y064765D01*
X010680Y064765D01*
X010680Y064500D02*
X010680Y064450D01*
X010680Y064500D02*
X011104Y064500D01*
X011104Y064450D01*
X010680Y064450D01*
X010680Y064185D02*
X010680Y064135D01*
X010680Y064185D02*
X011104Y064185D01*
X011104Y064135D01*
X010680Y064135D01*
X010680Y063870D02*
X010680Y063820D01*
X010680Y063870D02*
X011104Y063870D01*
X011104Y063820D01*
X010680Y063820D01*
X010680Y063555D02*
X010680Y063505D01*
X010680Y063555D02*
X011104Y063555D01*
X011104Y063505D01*
X010680Y063505D01*
X010680Y063240D02*
X010680Y063190D01*
X010680Y063240D02*
X011104Y063240D01*
X011104Y063190D01*
X010680Y063190D01*
X010680Y062925D02*
X010680Y062875D01*
X010680Y062925D02*
X011104Y062925D01*
X011104Y062875D01*
X010680Y062875D01*
X010680Y062610D02*
X010680Y062560D01*
X010680Y062610D02*
X011104Y062610D01*
X011104Y062560D01*
X010680Y062560D01*
X010680Y062295D02*
X010680Y062245D01*
X010680Y062295D02*
X011104Y062295D01*
X011104Y062245D01*
X010680Y062245D01*
X010680Y061980D02*
X010680Y061930D01*
X010680Y061980D02*
X011104Y061980D01*
X011104Y061930D01*
X010680Y061930D01*
X011575Y061459D02*
X011575Y061035D01*
X011575Y061459D02*
X011625Y061459D01*
X011625Y061035D01*
X011575Y061035D01*
X011575Y061240D02*
X011625Y061240D01*
X011625Y061445D02*
X011575Y061445D01*
X011890Y061459D02*
X011890Y061035D01*
X011890Y061459D02*
X011940Y061459D01*
X011940Y061035D01*
X011890Y061035D01*
X011890Y061240D02*
X011940Y061240D01*
X011940Y061445D02*
X011890Y061445D01*
X012205Y061459D02*
X012205Y061035D01*
X012205Y061459D02*
X012255Y061459D01*
X012255Y061035D01*
X012205Y061035D01*
X012205Y061240D02*
X012255Y061240D01*
X012255Y061445D02*
X012205Y061445D01*
X012520Y061459D02*
X012520Y061035D01*
X012520Y061459D02*
X012570Y061459D01*
X012570Y061035D01*
X012520Y061035D01*
X012520Y061240D02*
X012570Y061240D01*
X012570Y061445D02*
X012520Y061445D01*
X012835Y061459D02*
X012835Y061035D01*
X012835Y061459D02*
X012885Y061459D01*
X012885Y061035D01*
X012835Y061035D01*
X012835Y061240D02*
X012885Y061240D01*
X012885Y061445D02*
X012835Y061445D01*
X013150Y061459D02*
X013150Y061035D01*
X013150Y061459D02*
X013200Y061459D01*
X013200Y061035D01*
X013150Y061035D01*
X013150Y061240D02*
X013200Y061240D01*
X013200Y061445D02*
X013150Y061445D01*
X013465Y061459D02*
X013465Y061035D01*
X013465Y061459D02*
X013515Y061459D01*
X013515Y061035D01*
X013465Y061035D01*
X013465Y061240D02*
X013515Y061240D01*
X013515Y061445D02*
X013465Y061445D01*
X013780Y061459D02*
X013780Y061035D01*
X013780Y061459D02*
X013830Y061459D01*
X013830Y061035D01*
X013780Y061035D01*
X013780Y061240D02*
X013830Y061240D01*
X013830Y061445D02*
X013780Y061445D01*
X014095Y061459D02*
X014095Y061035D01*
X014095Y061459D02*
X014145Y061459D01*
X014145Y061035D01*
X014095Y061035D01*
X014095Y061240D02*
X014145Y061240D01*
X014145Y061445D02*
X014095Y061445D01*
X014410Y061459D02*
X014410Y061035D01*
X014410Y061459D02*
X014460Y061459D01*
X014460Y061035D01*
X014410Y061035D01*
X014410Y061240D02*
X014460Y061240D01*
X014460Y061445D02*
X014410Y061445D01*
X014725Y061459D02*
X014725Y061035D01*
X014725Y061459D02*
X014775Y061459D01*
X014775Y061035D01*
X014725Y061035D01*
X014725Y061240D02*
X014775Y061240D01*
X014775Y061445D02*
X014725Y061445D01*
X015246Y061930D02*
X015246Y061980D01*
X015670Y061980D01*
X015670Y061930D01*
X015246Y061930D01*
X015246Y062245D02*
X015246Y062295D01*
X015670Y062295D01*
X015670Y062245D01*
X015246Y062245D01*
X015246Y062560D02*
X015246Y062610D01*
X015670Y062610D01*
X015670Y062560D01*
X015246Y062560D01*
X015246Y062875D02*
X015246Y062925D01*
X015670Y062925D01*
X015670Y062875D01*
X015246Y062875D01*
X015246Y063190D02*
X015246Y063240D01*
X015670Y063240D01*
X015670Y063190D01*
X015246Y063190D01*
X015246Y063505D02*
X015246Y063555D01*
X015670Y063555D01*
X015670Y063505D01*
X015246Y063505D01*
X015246Y063820D02*
X015246Y063870D01*
X015670Y063870D01*
X015670Y063820D01*
X015246Y063820D01*
X015246Y064135D02*
X015246Y064185D01*
X015670Y064185D01*
X015670Y064135D01*
X015246Y064135D01*
X015246Y064450D02*
X015246Y064500D01*
X015670Y064500D01*
X015670Y064450D01*
X015246Y064450D01*
X015246Y064765D02*
X015246Y064815D01*
X015670Y064815D01*
X015670Y064765D01*
X015246Y064765D01*
X015246Y065080D02*
X015246Y065130D01*
X015670Y065130D01*
X015670Y065080D01*
X015246Y065080D01*
X014725Y065601D02*
X014725Y066025D01*
X014775Y066025D01*
X014775Y065601D01*
X014725Y065601D01*
X014725Y065806D02*
X014775Y065806D01*
X014775Y066011D02*
X014725Y066011D01*
X014410Y066025D02*
X014410Y065601D01*
X014410Y066025D02*
X014460Y066025D01*
X014460Y065601D01*
X014410Y065601D01*
X014410Y065806D02*
X014460Y065806D01*
X014460Y066011D02*
X014410Y066011D01*
X014095Y066025D02*
X014095Y065601D01*
X014095Y066025D02*
X014145Y066025D01*
X014145Y065601D01*
X014095Y065601D01*
X014095Y065806D02*
X014145Y065806D01*
X014145Y066011D02*
X014095Y066011D01*
X013780Y066025D02*
X013780Y065601D01*
X013780Y066025D02*
X013830Y066025D01*
X013830Y065601D01*
X013780Y065601D01*
X013780Y065806D02*
X013830Y065806D01*
X013830Y066011D02*
X013780Y066011D01*
X013465Y066025D02*
X013465Y065601D01*
X013465Y066025D02*
X013515Y066025D01*
X013515Y065601D01*
X013465Y065601D01*
X013465Y065806D02*
X013515Y065806D01*
X013515Y066011D02*
X013465Y066011D01*
X013150Y066025D02*
X013150Y065601D01*
X013150Y066025D02*
X013200Y066025D01*
X013200Y065601D01*
X013150Y065601D01*
X013150Y065806D02*
X013200Y065806D01*
X013200Y066011D02*
X013150Y066011D01*
X012835Y066025D02*
X012835Y065601D01*
X012835Y066025D02*
X012885Y066025D01*
X012885Y065601D01*
X012835Y065601D01*
X012835Y065806D02*
X012885Y065806D01*
X012885Y066011D02*
X012835Y066011D01*
X012520Y066025D02*
X012520Y065601D01*
X012520Y066025D02*
X012570Y066025D01*
X012570Y065601D01*
X012520Y065601D01*
X012520Y065806D02*
X012570Y065806D01*
X012570Y066011D02*
X012520Y066011D01*
X012205Y066025D02*
X012205Y065601D01*
X012205Y066025D02*
X012255Y066025D01*
X012255Y065601D01*
X012205Y065601D01*
X012205Y065806D02*
X012255Y065806D01*
X012255Y066011D02*
X012205Y066011D01*
X011890Y066025D02*
X011890Y065601D01*
X011890Y066025D02*
X011940Y066025D01*
X011940Y065601D01*
X011890Y065601D01*
X011890Y065806D02*
X011940Y065806D01*
X011940Y066011D02*
X011890Y066011D01*
X011575Y066025D02*
X011575Y065601D01*
X011575Y066025D02*
X011625Y066025D01*
X011625Y065601D01*
X011575Y065601D01*
X011575Y065806D02*
X011625Y065806D01*
X011625Y066011D02*
X011575Y066011D01*
D23*
X013175Y063530D03*
D24*
X008300Y062580D03*
X008300Y064480D03*
X037038Y050343D03*
X038938Y050343D03*
X085253Y064421D03*
X086597Y065764D03*
X092100Y063718D03*
X094000Y063718D03*
D25*
X008171Y068218D03*
X007304Y068218D03*
D26*
X081495Y070676D03*
X081495Y071713D03*
X082542Y071713D03*
X082542Y070676D03*
X088172Y071603D03*
X089156Y071603D03*
X089944Y071603D03*
X090928Y071603D03*
D27*
X084420Y072718D03*
X079680Y072718D03*
X043488Y052043D03*
X045050Y022730D03*
D28*
X085578Y070202D03*
X085893Y070202D03*
X086207Y070202D03*
X086522Y070202D03*
X086522Y070733D03*
X086207Y070733D03*
X085893Y070733D03*
X085578Y070733D03*
D29*
X091465Y067968D03*
X092135Y067968D03*
X092840Y063093D03*
X093510Y063093D03*
X083924Y065093D03*
X083176Y065093D03*
X077924Y066468D03*
X077176Y066468D03*
D30*
X076999Y067218D03*
X078101Y067218D03*
X083124Y064218D03*
X084226Y064218D03*
D31*
X080550Y067627D03*
X080550Y068808D03*
X078050Y069308D03*
X078050Y068127D03*
X091550Y066933D03*
X091550Y065752D03*
X100425Y066308D03*
X100425Y065127D03*
D32*
X096364Y065060D03*
X096364Y064804D03*
X096364Y065316D03*
X096364Y065572D03*
X096364Y065828D03*
X096364Y066084D03*
X096364Y066340D03*
X096364Y066595D03*
X096364Y066851D03*
X096364Y067107D03*
X096364Y067363D03*
X096364Y067619D03*
X096364Y067875D03*
X096364Y068131D03*
X093486Y068131D03*
X093486Y067875D03*
X093486Y067619D03*
X093486Y067363D03*
X093486Y067107D03*
X093486Y066851D03*
X093486Y066595D03*
X093486Y066340D03*
X093486Y066084D03*
X093486Y065828D03*
X093486Y065572D03*
X093486Y065316D03*
X093486Y065060D03*
X093486Y064804D03*
D33*
X090550Y066041D03*
X090550Y067144D03*
D34*
X087175Y069668D03*
X087175Y070268D03*
X095675Y061643D03*
X095675Y061043D03*
X097425Y061418D03*
X097425Y062018D03*
X098800Y058268D03*
X098800Y057668D03*
D35*
X098800Y057968D03*
X097425Y061718D03*
X095675Y061343D03*
X087175Y069968D03*
D36*
X093250Y071530D03*
X093850Y071530D03*
X099375Y068218D03*
X099975Y068218D03*
X099850Y063718D03*
X099250Y063718D03*
X099100Y062343D03*
X098500Y062343D03*
D37*
X098800Y062343D03*
X099550Y063718D03*
X099675Y068218D03*
X093550Y071530D03*
D38*
X092137Y072670D03*
X086963Y072670D03*
D39*
G36*
X086899Y072301D02*
X086426Y071828D01*
X086035Y072219D01*
X086508Y072692D01*
X086899Y072301D01*
G37*
G36*
X086065Y071466D02*
X085592Y070993D01*
X085201Y071384D01*
X085674Y071857D01*
X086065Y071466D01*
G37*
D40*
X040550Y015530D03*
X039550Y015530D03*
X038550Y015530D03*
D41*
X048550Y021530D03*
X049550Y021530D03*
X047550Y022530D03*
X047550Y023530D03*
X044050Y025030D03*
X043050Y025030D03*
X055050Y023530D03*
X055050Y027530D03*
D42*
X028800Y015280D03*
X028800Y016280D03*
X020550Y026030D03*
D43*
X020550Y027030D03*
X019550Y027030D03*
X018550Y027030D03*
X018550Y026030D03*
X019550Y026030D03*
X014738Y057530D03*
X013488Y057655D03*
X014113Y058655D03*
X015425Y058655D03*
X012800Y058655D03*
X012175Y059718D03*
X010800Y059843D03*
X010050Y060780D03*
X009363Y059780D03*
X008675Y060780D03*
X007175Y060780D03*
X009550Y066843D03*
X010738Y066343D03*
X012113Y068343D03*
X011425Y069343D03*
X012863Y069405D03*
X013550Y070468D03*
X015300Y066905D03*
D44*
X043488Y050643D03*
X045050Y021330D03*
D45*
X071800Y034906D03*
X071800Y035654D03*
X073300Y035904D03*
X073300Y035156D03*
X019300Y050781D03*
X019300Y051529D03*
X014863Y050842D03*
X014863Y050093D03*
X013175Y050656D03*
X013175Y051404D03*
X012300Y051467D03*
X012300Y050718D03*
X011238Y050781D03*
X011238Y051529D03*
X010488Y051842D03*
X010488Y051093D03*
X009738Y051031D03*
X009738Y051779D03*
X008925Y051904D03*
X008925Y051156D03*
X007738Y051156D03*
X007738Y051904D03*
X009550Y065218D03*
X009550Y065967D03*
D46*
G36*
X016588Y061509D02*
X016132Y060965D01*
X015470Y061521D01*
X015926Y062065D01*
X016588Y061509D01*
G37*
G36*
X015880Y060664D02*
X015424Y060120D01*
X014762Y060676D01*
X015218Y061220D01*
X015880Y060664D01*
G37*
D47*
X020488Y062093D03*
X021237Y062093D03*
X021676Y062718D03*
X022424Y062718D03*
X022112Y063718D03*
X021363Y063718D03*
X021113Y064655D03*
X021862Y064655D03*
X022049Y066030D03*
X021301Y066030D03*
X021551Y066780D03*
X022299Y066780D03*
X007549Y059780D03*
X006801Y059780D03*
X087426Y040280D03*
X088174Y040280D03*
D48*
X075986Y033780D02*
X075114Y033780D01*
X075114Y032780D02*
X075986Y032780D01*
X075986Y031780D02*
X075114Y031780D01*
X033611Y039843D02*
X032739Y039843D01*
X032739Y040843D02*
X033611Y040843D01*
X002361Y066405D02*
X001489Y066405D01*
X001489Y067405D02*
X002361Y067405D01*
D49*
X090113Y045573D03*
X090613Y045573D03*
X091113Y045573D03*
X091613Y045573D03*
X092113Y045573D03*
X092613Y045573D03*
X093113Y045573D03*
X093613Y045573D03*
X094113Y045573D03*
X094613Y045573D03*
X094613Y041613D03*
X094113Y041613D03*
X093613Y041613D03*
X093113Y041613D03*
X092613Y041613D03*
X092113Y041613D03*
X091613Y041613D03*
X091113Y041613D03*
X090613Y041613D03*
X090113Y041613D03*
D50*
X088260Y042280D03*
X088260Y042780D03*
X088260Y043280D03*
X088260Y043780D03*
X088260Y044280D03*
X088260Y044780D03*
X088260Y045280D03*
X085840Y045280D03*
X085840Y044780D03*
X085840Y044280D03*
X085840Y043780D03*
X085840Y043280D03*
X085840Y042780D03*
X085840Y042280D03*
D51*
X096344Y042280D02*
X097256Y042280D01*
X097256Y041280D02*
X096344Y041280D01*
X096344Y043280D02*
X097256Y043280D01*
D52*
X096300Y056280D03*
X103800Y056280D03*
X111300Y056280D03*
X111300Y063780D03*
X111300Y066780D03*
X088800Y056280D03*
X081300Y056280D03*
X071925Y056280D03*
X080800Y064593D03*
X080800Y065468D03*
X080800Y066343D03*
X079800Y067593D03*
X082175Y063718D03*
X086300Y069468D03*
X084925Y070718D03*
X084800Y071593D03*
X151363Y087843D03*
X151988Y095343D03*
X151363Y102843D03*
X166988Y092343D03*
X176363Y092343D03*
X183863Y092343D03*
X191363Y092343D03*
X198863Y092343D03*
X206363Y092343D03*
X206363Y099843D03*
X206363Y102843D03*
X188363Y102843D03*
X180863Y102843D03*
X173363Y102843D03*
D53*
X087550Y075593D03*
D54*
X085800Y075530D03*
X093300Y075530D03*
X102300Y075530D03*
X107550Y075530D03*
X111300Y075530D03*
X115363Y075530D03*
X117550Y075530D03*
X142550Y087843D03*
X142550Y095343D03*
X142550Y102843D03*
X142550Y111593D03*
X151363Y111593D03*
X162363Y111593D03*
X173363Y111593D03*
X180863Y111593D03*
X188363Y111593D03*
X197363Y111593D03*
X202613Y111593D03*
X206363Y111593D03*
X210425Y111593D03*
X212613Y111593D03*
X078300Y075530D03*
X067300Y075530D03*
X056300Y075530D03*
X047488Y075530D03*
X047488Y066780D03*
X047488Y059280D03*
M02*
