G75*
G70*
%OFA0B0*%
%FSLAX24Y24*%
%IPPOS*%
%LPD*%
%AMOC8*
5,1,8,0,0,1.08239X$1,22.5*
%
%ADD10C,0.0912*%
%ADD11R,0.0912X0.0912*%
%ADD12OC8,0.0966*%
%ADD13C,0.0912*%
%ADD14R,0.0828X0.1419*%
%ADD15R,0.0474X0.0474*%
%ADD16R,0.1025X0.0710*%
%ADD17R,0.0671X0.0592*%
%ADD18C,0.0986*%
%ADD19C,0.1261*%
%ADD20R,0.0474X0.0513*%
%ADD21R,0.0592X0.0671*%
%ADD22R,0.0395X0.0395*%
%ADD23C,0.1222*%
%ADD24C,0.0992*%
%ADD25OC8,0.0992*%
%ADD26C,0.1520*%
%ADD27C,0.0867*%
%ADD28C,0.2049*%
D10*
X014728Y041342D02*
X015559Y041342D01*
X015559Y042342D02*
X014728Y042342D01*
X014728Y043342D02*
X015559Y043342D01*
X015559Y044342D02*
X014728Y044342D01*
X014728Y045342D02*
X015559Y045342D01*
X015559Y046342D02*
X014728Y046342D01*
X014728Y047342D02*
X015559Y047342D01*
X015559Y048342D02*
X014728Y048342D01*
X014728Y049342D02*
X015559Y049342D01*
X015559Y050342D02*
X014728Y050342D01*
X014728Y051342D02*
X015559Y051342D01*
X015559Y052342D02*
X014728Y052342D01*
X014728Y053342D02*
X015559Y053342D01*
X038643Y040133D02*
X038643Y039301D01*
X039643Y039301D02*
X039643Y040133D01*
X040643Y040133D02*
X040643Y039301D01*
X041643Y039301D02*
X041643Y040133D01*
X042643Y040133D02*
X042643Y039301D01*
X043643Y039301D02*
X043643Y040133D01*
X044643Y040133D02*
X044643Y039301D01*
X045643Y039301D02*
X045643Y040133D01*
X046018Y042551D02*
X046018Y043383D01*
X045018Y043383D02*
X045018Y042551D01*
X044018Y042551D02*
X044018Y043383D01*
X047018Y043383D02*
X047018Y042551D01*
X048018Y042551D02*
X048018Y043383D01*
X041018Y043383D02*
X041018Y042551D01*
X040018Y042551D02*
X040018Y043383D01*
X061518Y045051D02*
X061518Y045883D01*
X062518Y045883D02*
X062518Y045051D01*
X063518Y045051D02*
X063518Y045883D01*
X064518Y045883D02*
X064518Y045051D01*
X064518Y048051D02*
X064518Y048883D01*
X063518Y048883D02*
X063518Y048051D01*
X062518Y048051D02*
X062518Y048883D01*
X061518Y048883D02*
X061518Y048051D01*
D11*
X048643Y039717D03*
X047643Y039717D03*
X046643Y039717D03*
X043018Y042967D03*
X042018Y042967D03*
D12*
X044893Y024467D03*
X044893Y023467D03*
X045893Y023467D03*
X045893Y024467D03*
X046893Y024467D03*
X046893Y023467D03*
X009393Y026092D03*
X008393Y026092D03*
X007393Y026092D03*
X007393Y027092D03*
X008393Y027092D03*
X009393Y027092D03*
D13*
X018943Y015467D03*
X020843Y015467D03*
X036143Y047892D03*
X036143Y049792D03*
X047318Y054092D03*
X049218Y054092D03*
D14*
X030286Y054342D03*
X028751Y054342D03*
D15*
X033375Y053342D03*
X034162Y053342D03*
X035393Y055198D03*
X035393Y055985D03*
D16*
X027643Y056057D03*
X027643Y054876D03*
D17*
X026518Y055093D03*
X026518Y055841D03*
X031643Y049091D03*
X031643Y048343D03*
X032393Y050093D03*
X032393Y050841D03*
D18*
X032511Y053925D03*
X032511Y054962D03*
X031464Y054962D03*
X031464Y053925D03*
X039890Y054852D03*
X040875Y054852D03*
X041662Y054852D03*
X042646Y054852D03*
X019268Y043826D03*
X019268Y041857D03*
D19*
X029648Y055967D03*
X034389Y055967D03*
D20*
X033978Y054842D03*
X033309Y054842D03*
X033434Y053904D03*
X034103Y053904D03*
D21*
X034769Y052717D03*
X035517Y052717D03*
X030017Y049592D03*
X029269Y049592D03*
D22*
X029473Y048967D03*
X029473Y048467D03*
X029473Y047967D03*
X029473Y047467D03*
X030064Y047467D03*
X030064Y047967D03*
X030064Y048467D03*
X030064Y048967D03*
D23*
X045068Y019717D03*
X046968Y019717D03*
D24*
X040518Y019092D03*
D25*
X040518Y020092D03*
X041518Y020092D03*
X041518Y019092D03*
X042518Y019092D03*
X042518Y020092D03*
D26*
X043855Y055919D03*
X038682Y055919D03*
D27*
X036268Y052717D03*
X034768Y053967D03*
X034768Y054842D03*
X030768Y049592D03*
X030768Y048717D03*
X030768Y047842D03*
X032393Y046967D03*
X029768Y050842D03*
X015518Y072092D03*
X015518Y079592D03*
X037518Y079592D03*
X045018Y079592D03*
X052518Y079592D03*
X070518Y079592D03*
X070518Y076592D03*
D28*
X070518Y088342D03*
X066768Y088342D03*
X061518Y088342D03*
X052518Y088342D03*
X045018Y088342D03*
X037518Y088342D03*
X026518Y088342D03*
X015518Y088342D03*
X006706Y088342D03*
X006706Y079592D03*
X006706Y072092D03*
X037518Y058842D03*
X074581Y088342D03*
X076768Y088342D03*
M02*
