G75*
G70*
%OFA0B0*%
%FSLAX24Y24*%
%IPPOS*%
%LPD*%
%AMOC8*
5,1,8,0,0,1.08239X$1,22.5*
%
%ADD10C,0.0079*%
%ADD11C,0.0100*%
%ADD12C,0.0000*%
D10*
X001389Y003819D02*
X065639Y003819D01*
X065707Y003821D01*
X065774Y003826D01*
X065841Y003835D01*
X065908Y003848D01*
X065973Y003865D01*
X066038Y003884D01*
X066102Y003908D01*
X066164Y003935D01*
X066225Y003965D01*
X066283Y003998D01*
X066340Y004034D01*
X066395Y004074D01*
X066448Y004116D01*
X066499Y004162D01*
X066546Y004209D01*
X066592Y004260D01*
X066634Y004313D01*
X066674Y004368D01*
X066710Y004425D01*
X066743Y004483D01*
X066773Y004544D01*
X066800Y004606D01*
X066824Y004670D01*
X066843Y004735D01*
X066860Y004800D01*
X066873Y004867D01*
X066882Y004934D01*
X066887Y005001D01*
X066889Y005069D01*
X066889Y055569D01*
X066887Y055637D01*
X066882Y055704D01*
X066873Y055771D01*
X066860Y055838D01*
X066843Y055903D01*
X066824Y055968D01*
X066800Y056032D01*
X066773Y056094D01*
X066743Y056155D01*
X066710Y056213D01*
X066674Y056270D01*
X066634Y056325D01*
X066592Y056378D01*
X066546Y056429D01*
X066499Y056476D01*
X066448Y056522D01*
X066395Y056564D01*
X066340Y056604D01*
X066283Y056640D01*
X066225Y056673D01*
X066164Y056703D01*
X066102Y056730D01*
X066038Y056754D01*
X065973Y056773D01*
X065908Y056790D01*
X065841Y056803D01*
X065774Y056812D01*
X065707Y056817D01*
X065639Y056819D01*
X001389Y056819D01*
X001321Y056817D01*
X001254Y056812D01*
X001187Y056803D01*
X001120Y056790D01*
X001055Y056773D01*
X000990Y056754D01*
X000926Y056730D01*
X000864Y056703D01*
X000803Y056673D01*
X000745Y056640D01*
X000688Y056604D01*
X000633Y056564D01*
X000580Y056522D01*
X000529Y056476D01*
X000482Y056429D01*
X000436Y056378D01*
X000394Y056325D01*
X000354Y056270D01*
X000318Y056213D01*
X000285Y056155D01*
X000255Y056094D01*
X000228Y056032D01*
X000204Y055968D01*
X000185Y055903D01*
X000168Y055838D01*
X000155Y055771D01*
X000146Y055704D01*
X000141Y055637D01*
X000139Y055569D01*
X000139Y005069D01*
X000141Y005001D01*
X000146Y004934D01*
X000155Y004867D01*
X000168Y004800D01*
X000185Y004735D01*
X000204Y004670D01*
X000228Y004606D01*
X000255Y004544D01*
X000285Y004483D01*
X000318Y004425D01*
X000354Y004368D01*
X000394Y004313D01*
X000436Y004260D01*
X000482Y004209D01*
X000529Y004162D01*
X000580Y004116D01*
X000633Y004074D01*
X000688Y004034D01*
X000745Y003998D01*
X000803Y003965D01*
X000864Y003935D01*
X000926Y003908D01*
X000990Y003884D01*
X001055Y003865D01*
X001120Y003848D01*
X001187Y003835D01*
X001254Y003826D01*
X001321Y003821D01*
X001389Y003819D01*
D11*
X006530Y013569D02*
X006532Y013631D01*
X006538Y013694D01*
X006548Y013755D01*
X006562Y013816D01*
X006579Y013876D01*
X006600Y013935D01*
X006626Y013992D01*
X006654Y014047D01*
X006686Y014101D01*
X006722Y014152D01*
X006760Y014202D01*
X006802Y014248D01*
X006846Y014292D01*
X006894Y014333D01*
X006943Y014371D01*
X006995Y014405D01*
X007049Y014436D01*
X007105Y014464D01*
X007163Y014488D01*
X007222Y014509D01*
X007282Y014525D01*
X007343Y014538D01*
X007405Y014547D01*
X007467Y014552D01*
X007530Y014553D01*
X007592Y014550D01*
X007654Y014543D01*
X007716Y014532D01*
X007776Y014517D01*
X007836Y014499D01*
X007894Y014477D01*
X007951Y014451D01*
X008006Y014421D01*
X008059Y014388D01*
X008110Y014352D01*
X008158Y014313D01*
X008204Y014270D01*
X008247Y014225D01*
X008287Y014177D01*
X008324Y014127D01*
X008358Y014074D01*
X008389Y014020D01*
X008415Y013964D01*
X008439Y013906D01*
X008458Y013846D01*
X008474Y013786D01*
X008486Y013724D01*
X008494Y013663D01*
X008498Y013600D01*
X008498Y013538D01*
X008494Y013475D01*
X008486Y013414D01*
X008474Y013352D01*
X008458Y013292D01*
X008439Y013232D01*
X008415Y013174D01*
X008389Y013118D01*
X008358Y013064D01*
X008324Y013011D01*
X008287Y012961D01*
X008247Y012913D01*
X008204Y012868D01*
X008158Y012825D01*
X008110Y012786D01*
X008059Y012750D01*
X008006Y012717D01*
X007951Y012687D01*
X007894Y012661D01*
X007836Y012639D01*
X007776Y012621D01*
X007716Y012606D01*
X007654Y012595D01*
X007592Y012588D01*
X007530Y012585D01*
X007467Y012586D01*
X007405Y012591D01*
X007343Y012600D01*
X007282Y012613D01*
X007222Y012629D01*
X007163Y012650D01*
X007105Y012674D01*
X007049Y012702D01*
X006995Y012733D01*
X006943Y012767D01*
X006894Y012805D01*
X006846Y012846D01*
X006802Y012890D01*
X006760Y012936D01*
X006722Y012986D01*
X006686Y013037D01*
X006654Y013091D01*
X006626Y013146D01*
X006600Y013203D01*
X006579Y013262D01*
X006562Y013322D01*
X006548Y013383D01*
X006538Y013444D01*
X006532Y013507D01*
X006530Y013569D01*
X014155Y013819D02*
X014157Y013881D01*
X014163Y013944D01*
X014173Y014005D01*
X014187Y014066D01*
X014204Y014126D01*
X014225Y014185D01*
X014251Y014242D01*
X014279Y014297D01*
X014311Y014351D01*
X014347Y014402D01*
X014385Y014452D01*
X014427Y014498D01*
X014471Y014542D01*
X014519Y014583D01*
X014568Y014621D01*
X014620Y014655D01*
X014674Y014686D01*
X014730Y014714D01*
X014788Y014738D01*
X014847Y014759D01*
X014907Y014775D01*
X014968Y014788D01*
X015030Y014797D01*
X015092Y014802D01*
X015155Y014803D01*
X015217Y014800D01*
X015279Y014793D01*
X015341Y014782D01*
X015401Y014767D01*
X015461Y014749D01*
X015519Y014727D01*
X015576Y014701D01*
X015631Y014671D01*
X015684Y014638D01*
X015735Y014602D01*
X015783Y014563D01*
X015829Y014520D01*
X015872Y014475D01*
X015912Y014427D01*
X015949Y014377D01*
X015983Y014324D01*
X016014Y014270D01*
X016040Y014214D01*
X016064Y014156D01*
X016083Y014096D01*
X016099Y014036D01*
X016111Y013974D01*
X016119Y013913D01*
X016123Y013850D01*
X016123Y013788D01*
X016119Y013725D01*
X016111Y013664D01*
X016099Y013602D01*
X016083Y013542D01*
X016064Y013482D01*
X016040Y013424D01*
X016014Y013368D01*
X015983Y013314D01*
X015949Y013261D01*
X015912Y013211D01*
X015872Y013163D01*
X015829Y013118D01*
X015783Y013075D01*
X015735Y013036D01*
X015684Y013000D01*
X015631Y012967D01*
X015576Y012937D01*
X015519Y012911D01*
X015461Y012889D01*
X015401Y012871D01*
X015341Y012856D01*
X015279Y012845D01*
X015217Y012838D01*
X015155Y012835D01*
X015092Y012836D01*
X015030Y012841D01*
X014968Y012850D01*
X014907Y012863D01*
X014847Y012879D01*
X014788Y012900D01*
X014730Y012924D01*
X014674Y012952D01*
X014620Y012983D01*
X014568Y013017D01*
X014519Y013055D01*
X014471Y013096D01*
X014427Y013140D01*
X014385Y013186D01*
X014347Y013236D01*
X014311Y013287D01*
X014279Y013341D01*
X014251Y013396D01*
X014225Y013453D01*
X014204Y013512D01*
X014187Y013572D01*
X014173Y013633D01*
X014163Y013694D01*
X014157Y013757D01*
X014155Y013819D01*
X020155Y013819D02*
X020157Y013881D01*
X020163Y013944D01*
X020173Y014005D01*
X020187Y014066D01*
X020204Y014126D01*
X020225Y014185D01*
X020251Y014242D01*
X020279Y014297D01*
X020311Y014351D01*
X020347Y014402D01*
X020385Y014452D01*
X020427Y014498D01*
X020471Y014542D01*
X020519Y014583D01*
X020568Y014621D01*
X020620Y014655D01*
X020674Y014686D01*
X020730Y014714D01*
X020788Y014738D01*
X020847Y014759D01*
X020907Y014775D01*
X020968Y014788D01*
X021030Y014797D01*
X021092Y014802D01*
X021155Y014803D01*
X021217Y014800D01*
X021279Y014793D01*
X021341Y014782D01*
X021401Y014767D01*
X021461Y014749D01*
X021519Y014727D01*
X021576Y014701D01*
X021631Y014671D01*
X021684Y014638D01*
X021735Y014602D01*
X021783Y014563D01*
X021829Y014520D01*
X021872Y014475D01*
X021912Y014427D01*
X021949Y014377D01*
X021983Y014324D01*
X022014Y014270D01*
X022040Y014214D01*
X022064Y014156D01*
X022083Y014096D01*
X022099Y014036D01*
X022111Y013974D01*
X022119Y013913D01*
X022123Y013850D01*
X022123Y013788D01*
X022119Y013725D01*
X022111Y013664D01*
X022099Y013602D01*
X022083Y013542D01*
X022064Y013482D01*
X022040Y013424D01*
X022014Y013368D01*
X021983Y013314D01*
X021949Y013261D01*
X021912Y013211D01*
X021872Y013163D01*
X021829Y013118D01*
X021783Y013075D01*
X021735Y013036D01*
X021684Y013000D01*
X021631Y012967D01*
X021576Y012937D01*
X021519Y012911D01*
X021461Y012889D01*
X021401Y012871D01*
X021341Y012856D01*
X021279Y012845D01*
X021217Y012838D01*
X021155Y012835D01*
X021092Y012836D01*
X021030Y012841D01*
X020968Y012850D01*
X020907Y012863D01*
X020847Y012879D01*
X020788Y012900D01*
X020730Y012924D01*
X020674Y012952D01*
X020620Y012983D01*
X020568Y013017D01*
X020519Y013055D01*
X020471Y013096D01*
X020427Y013140D01*
X020385Y013186D01*
X020347Y013236D01*
X020311Y013287D01*
X020279Y013341D01*
X020251Y013396D01*
X020225Y013453D01*
X020204Y013512D01*
X020187Y013572D01*
X020173Y013633D01*
X020163Y013694D01*
X020157Y013757D01*
X020155Y013819D01*
X021655Y021319D02*
X021657Y021381D01*
X021663Y021444D01*
X021673Y021505D01*
X021687Y021566D01*
X021704Y021626D01*
X021725Y021685D01*
X021751Y021742D01*
X021779Y021797D01*
X021811Y021851D01*
X021847Y021902D01*
X021885Y021952D01*
X021927Y021998D01*
X021971Y022042D01*
X022019Y022083D01*
X022068Y022121D01*
X022120Y022155D01*
X022174Y022186D01*
X022230Y022214D01*
X022288Y022238D01*
X022347Y022259D01*
X022407Y022275D01*
X022468Y022288D01*
X022530Y022297D01*
X022592Y022302D01*
X022655Y022303D01*
X022717Y022300D01*
X022779Y022293D01*
X022841Y022282D01*
X022901Y022267D01*
X022961Y022249D01*
X023019Y022227D01*
X023076Y022201D01*
X023131Y022171D01*
X023184Y022138D01*
X023235Y022102D01*
X023283Y022063D01*
X023329Y022020D01*
X023372Y021975D01*
X023412Y021927D01*
X023449Y021877D01*
X023483Y021824D01*
X023514Y021770D01*
X023540Y021714D01*
X023564Y021656D01*
X023583Y021596D01*
X023599Y021536D01*
X023611Y021474D01*
X023619Y021413D01*
X023623Y021350D01*
X023623Y021288D01*
X023619Y021225D01*
X023611Y021164D01*
X023599Y021102D01*
X023583Y021042D01*
X023564Y020982D01*
X023540Y020924D01*
X023514Y020868D01*
X023483Y020814D01*
X023449Y020761D01*
X023412Y020711D01*
X023372Y020663D01*
X023329Y020618D01*
X023283Y020575D01*
X023235Y020536D01*
X023184Y020500D01*
X023131Y020467D01*
X023076Y020437D01*
X023019Y020411D01*
X022961Y020389D01*
X022901Y020371D01*
X022841Y020356D01*
X022779Y020345D01*
X022717Y020338D01*
X022655Y020335D01*
X022592Y020336D01*
X022530Y020341D01*
X022468Y020350D01*
X022407Y020363D01*
X022347Y020379D01*
X022288Y020400D01*
X022230Y020424D01*
X022174Y020452D01*
X022120Y020483D01*
X022068Y020517D01*
X022019Y020555D01*
X021971Y020596D01*
X021927Y020640D01*
X021885Y020686D01*
X021847Y020736D01*
X021811Y020787D01*
X021779Y020841D01*
X021751Y020896D01*
X021725Y020953D01*
X021704Y021012D01*
X021687Y021072D01*
X021673Y021133D01*
X021663Y021194D01*
X021657Y021257D01*
X021655Y021319D01*
X014155Y021319D02*
X014157Y021381D01*
X014163Y021444D01*
X014173Y021505D01*
X014187Y021566D01*
X014204Y021626D01*
X014225Y021685D01*
X014251Y021742D01*
X014279Y021797D01*
X014311Y021851D01*
X014347Y021902D01*
X014385Y021952D01*
X014427Y021998D01*
X014471Y022042D01*
X014519Y022083D01*
X014568Y022121D01*
X014620Y022155D01*
X014674Y022186D01*
X014730Y022214D01*
X014788Y022238D01*
X014847Y022259D01*
X014907Y022275D01*
X014968Y022288D01*
X015030Y022297D01*
X015092Y022302D01*
X015155Y022303D01*
X015217Y022300D01*
X015279Y022293D01*
X015341Y022282D01*
X015401Y022267D01*
X015461Y022249D01*
X015519Y022227D01*
X015576Y022201D01*
X015631Y022171D01*
X015684Y022138D01*
X015735Y022102D01*
X015783Y022063D01*
X015829Y022020D01*
X015872Y021975D01*
X015912Y021927D01*
X015949Y021877D01*
X015983Y021824D01*
X016014Y021770D01*
X016040Y021714D01*
X016064Y021656D01*
X016083Y021596D01*
X016099Y021536D01*
X016111Y021474D01*
X016119Y021413D01*
X016123Y021350D01*
X016123Y021288D01*
X016119Y021225D01*
X016111Y021164D01*
X016099Y021102D01*
X016083Y021042D01*
X016064Y020982D01*
X016040Y020924D01*
X016014Y020868D01*
X015983Y020814D01*
X015949Y020761D01*
X015912Y020711D01*
X015872Y020663D01*
X015829Y020618D01*
X015783Y020575D01*
X015735Y020536D01*
X015684Y020500D01*
X015631Y020467D01*
X015576Y020437D01*
X015519Y020411D01*
X015461Y020389D01*
X015401Y020371D01*
X015341Y020356D01*
X015279Y020345D01*
X015217Y020338D01*
X015155Y020335D01*
X015092Y020336D01*
X015030Y020341D01*
X014968Y020350D01*
X014907Y020363D01*
X014847Y020379D01*
X014788Y020400D01*
X014730Y020424D01*
X014674Y020452D01*
X014620Y020483D01*
X014568Y020517D01*
X014519Y020555D01*
X014471Y020596D01*
X014427Y020640D01*
X014385Y020686D01*
X014347Y020736D01*
X014311Y020787D01*
X014279Y020841D01*
X014251Y020896D01*
X014225Y020953D01*
X014204Y021012D01*
X014187Y021072D01*
X014173Y021133D01*
X014163Y021194D01*
X014157Y021257D01*
X014155Y021319D01*
X006655Y021319D02*
X006657Y021381D01*
X006663Y021444D01*
X006673Y021505D01*
X006687Y021566D01*
X006704Y021626D01*
X006725Y021685D01*
X006751Y021742D01*
X006779Y021797D01*
X006811Y021851D01*
X006847Y021902D01*
X006885Y021952D01*
X006927Y021998D01*
X006971Y022042D01*
X007019Y022083D01*
X007068Y022121D01*
X007120Y022155D01*
X007174Y022186D01*
X007230Y022214D01*
X007288Y022238D01*
X007347Y022259D01*
X007407Y022275D01*
X007468Y022288D01*
X007530Y022297D01*
X007592Y022302D01*
X007655Y022303D01*
X007717Y022300D01*
X007779Y022293D01*
X007841Y022282D01*
X007901Y022267D01*
X007961Y022249D01*
X008019Y022227D01*
X008076Y022201D01*
X008131Y022171D01*
X008184Y022138D01*
X008235Y022102D01*
X008283Y022063D01*
X008329Y022020D01*
X008372Y021975D01*
X008412Y021927D01*
X008449Y021877D01*
X008483Y021824D01*
X008514Y021770D01*
X008540Y021714D01*
X008564Y021656D01*
X008583Y021596D01*
X008599Y021536D01*
X008611Y021474D01*
X008619Y021413D01*
X008623Y021350D01*
X008623Y021288D01*
X008619Y021225D01*
X008611Y021164D01*
X008599Y021102D01*
X008583Y021042D01*
X008564Y020982D01*
X008540Y020924D01*
X008514Y020868D01*
X008483Y020814D01*
X008449Y020761D01*
X008412Y020711D01*
X008372Y020663D01*
X008329Y020618D01*
X008283Y020575D01*
X008235Y020536D01*
X008184Y020500D01*
X008131Y020467D01*
X008076Y020437D01*
X008019Y020411D01*
X007961Y020389D01*
X007901Y020371D01*
X007841Y020356D01*
X007779Y020345D01*
X007717Y020338D01*
X007655Y020335D01*
X007592Y020336D01*
X007530Y020341D01*
X007468Y020350D01*
X007407Y020363D01*
X007347Y020379D01*
X007288Y020400D01*
X007230Y020424D01*
X007174Y020452D01*
X007120Y020483D01*
X007068Y020517D01*
X007019Y020555D01*
X006971Y020596D01*
X006927Y020640D01*
X006885Y020686D01*
X006847Y020736D01*
X006811Y020787D01*
X006779Y020841D01*
X006751Y020896D01*
X006725Y020953D01*
X006704Y021012D01*
X006687Y021072D01*
X006673Y021133D01*
X006663Y021194D01*
X006657Y021257D01*
X006655Y021319D01*
X006530Y028694D02*
X006532Y028756D01*
X006538Y028819D01*
X006548Y028880D01*
X006562Y028941D01*
X006579Y029001D01*
X006600Y029060D01*
X006626Y029117D01*
X006654Y029172D01*
X006686Y029226D01*
X006722Y029277D01*
X006760Y029327D01*
X006802Y029373D01*
X006846Y029417D01*
X006894Y029458D01*
X006943Y029496D01*
X006995Y029530D01*
X007049Y029561D01*
X007105Y029589D01*
X007163Y029613D01*
X007222Y029634D01*
X007282Y029650D01*
X007343Y029663D01*
X007405Y029672D01*
X007467Y029677D01*
X007530Y029678D01*
X007592Y029675D01*
X007654Y029668D01*
X007716Y029657D01*
X007776Y029642D01*
X007836Y029624D01*
X007894Y029602D01*
X007951Y029576D01*
X008006Y029546D01*
X008059Y029513D01*
X008110Y029477D01*
X008158Y029438D01*
X008204Y029395D01*
X008247Y029350D01*
X008287Y029302D01*
X008324Y029252D01*
X008358Y029199D01*
X008389Y029145D01*
X008415Y029089D01*
X008439Y029031D01*
X008458Y028971D01*
X008474Y028911D01*
X008486Y028849D01*
X008494Y028788D01*
X008498Y028725D01*
X008498Y028663D01*
X008494Y028600D01*
X008486Y028539D01*
X008474Y028477D01*
X008458Y028417D01*
X008439Y028357D01*
X008415Y028299D01*
X008389Y028243D01*
X008358Y028189D01*
X008324Y028136D01*
X008287Y028086D01*
X008247Y028038D01*
X008204Y027993D01*
X008158Y027950D01*
X008110Y027911D01*
X008059Y027875D01*
X008006Y027842D01*
X007951Y027812D01*
X007894Y027786D01*
X007836Y027764D01*
X007776Y027746D01*
X007716Y027731D01*
X007654Y027720D01*
X007592Y027713D01*
X007530Y027710D01*
X007467Y027711D01*
X007405Y027716D01*
X007343Y027725D01*
X007282Y027738D01*
X007222Y027754D01*
X007163Y027775D01*
X007105Y027799D01*
X007049Y027827D01*
X006995Y027858D01*
X006943Y027892D01*
X006894Y027930D01*
X006846Y027971D01*
X006802Y028015D01*
X006760Y028061D01*
X006722Y028111D01*
X006686Y028162D01*
X006654Y028216D01*
X006626Y028271D01*
X006600Y028328D01*
X006579Y028387D01*
X006562Y028447D01*
X006548Y028508D01*
X006538Y028569D01*
X006532Y028632D01*
X006530Y028694D01*
X014155Y028819D02*
X014157Y028881D01*
X014163Y028944D01*
X014173Y029005D01*
X014187Y029066D01*
X014204Y029126D01*
X014225Y029185D01*
X014251Y029242D01*
X014279Y029297D01*
X014311Y029351D01*
X014347Y029402D01*
X014385Y029452D01*
X014427Y029498D01*
X014471Y029542D01*
X014519Y029583D01*
X014568Y029621D01*
X014620Y029655D01*
X014674Y029686D01*
X014730Y029714D01*
X014788Y029738D01*
X014847Y029759D01*
X014907Y029775D01*
X014968Y029788D01*
X015030Y029797D01*
X015092Y029802D01*
X015155Y029803D01*
X015217Y029800D01*
X015279Y029793D01*
X015341Y029782D01*
X015401Y029767D01*
X015461Y029749D01*
X015519Y029727D01*
X015576Y029701D01*
X015631Y029671D01*
X015684Y029638D01*
X015735Y029602D01*
X015783Y029563D01*
X015829Y029520D01*
X015872Y029475D01*
X015912Y029427D01*
X015949Y029377D01*
X015983Y029324D01*
X016014Y029270D01*
X016040Y029214D01*
X016064Y029156D01*
X016083Y029096D01*
X016099Y029036D01*
X016111Y028974D01*
X016119Y028913D01*
X016123Y028850D01*
X016123Y028788D01*
X016119Y028725D01*
X016111Y028664D01*
X016099Y028602D01*
X016083Y028542D01*
X016064Y028482D01*
X016040Y028424D01*
X016014Y028368D01*
X015983Y028314D01*
X015949Y028261D01*
X015912Y028211D01*
X015872Y028163D01*
X015829Y028118D01*
X015783Y028075D01*
X015735Y028036D01*
X015684Y028000D01*
X015631Y027967D01*
X015576Y027937D01*
X015519Y027911D01*
X015461Y027889D01*
X015401Y027871D01*
X015341Y027856D01*
X015279Y027845D01*
X015217Y027838D01*
X015155Y027835D01*
X015092Y027836D01*
X015030Y027841D01*
X014968Y027850D01*
X014907Y027863D01*
X014847Y027879D01*
X014788Y027900D01*
X014730Y027924D01*
X014674Y027952D01*
X014620Y027983D01*
X014568Y028017D01*
X014519Y028055D01*
X014471Y028096D01*
X014427Y028140D01*
X014385Y028186D01*
X014347Y028236D01*
X014311Y028287D01*
X014279Y028341D01*
X014251Y028396D01*
X014225Y028453D01*
X014204Y028512D01*
X014187Y028572D01*
X014173Y028633D01*
X014163Y028694D01*
X014157Y028757D01*
X014155Y028819D01*
X022030Y028819D02*
X022032Y028881D01*
X022038Y028944D01*
X022048Y029005D01*
X022062Y029066D01*
X022079Y029126D01*
X022100Y029185D01*
X022126Y029242D01*
X022154Y029297D01*
X022186Y029351D01*
X022222Y029402D01*
X022260Y029452D01*
X022302Y029498D01*
X022346Y029542D01*
X022394Y029583D01*
X022443Y029621D01*
X022495Y029655D01*
X022549Y029686D01*
X022605Y029714D01*
X022663Y029738D01*
X022722Y029759D01*
X022782Y029775D01*
X022843Y029788D01*
X022905Y029797D01*
X022967Y029802D01*
X023030Y029803D01*
X023092Y029800D01*
X023154Y029793D01*
X023216Y029782D01*
X023276Y029767D01*
X023336Y029749D01*
X023394Y029727D01*
X023451Y029701D01*
X023506Y029671D01*
X023559Y029638D01*
X023610Y029602D01*
X023658Y029563D01*
X023704Y029520D01*
X023747Y029475D01*
X023787Y029427D01*
X023824Y029377D01*
X023858Y029324D01*
X023889Y029270D01*
X023915Y029214D01*
X023939Y029156D01*
X023958Y029096D01*
X023974Y029036D01*
X023986Y028974D01*
X023994Y028913D01*
X023998Y028850D01*
X023998Y028788D01*
X023994Y028725D01*
X023986Y028664D01*
X023974Y028602D01*
X023958Y028542D01*
X023939Y028482D01*
X023915Y028424D01*
X023889Y028368D01*
X023858Y028314D01*
X023824Y028261D01*
X023787Y028211D01*
X023747Y028163D01*
X023704Y028118D01*
X023658Y028075D01*
X023610Y028036D01*
X023559Y028000D01*
X023506Y027967D01*
X023451Y027937D01*
X023394Y027911D01*
X023336Y027889D01*
X023276Y027871D01*
X023216Y027856D01*
X023154Y027845D01*
X023092Y027838D01*
X023030Y027835D01*
X022967Y027836D01*
X022905Y027841D01*
X022843Y027850D01*
X022782Y027863D01*
X022722Y027879D01*
X022663Y027900D01*
X022605Y027924D01*
X022549Y027952D01*
X022495Y027983D01*
X022443Y028017D01*
X022394Y028055D01*
X022346Y028096D01*
X022302Y028140D01*
X022260Y028186D01*
X022222Y028236D01*
X022186Y028287D01*
X022154Y028341D01*
X022126Y028396D01*
X022100Y028453D01*
X022079Y028512D01*
X022062Y028572D01*
X022048Y028633D01*
X022038Y028694D01*
X022032Y028757D01*
X022030Y028819D01*
X029155Y028819D02*
X029157Y028881D01*
X029163Y028944D01*
X029173Y029005D01*
X029187Y029066D01*
X029204Y029126D01*
X029225Y029185D01*
X029251Y029242D01*
X029279Y029297D01*
X029311Y029351D01*
X029347Y029402D01*
X029385Y029452D01*
X029427Y029498D01*
X029471Y029542D01*
X029519Y029583D01*
X029568Y029621D01*
X029620Y029655D01*
X029674Y029686D01*
X029730Y029714D01*
X029788Y029738D01*
X029847Y029759D01*
X029907Y029775D01*
X029968Y029788D01*
X030030Y029797D01*
X030092Y029802D01*
X030155Y029803D01*
X030217Y029800D01*
X030279Y029793D01*
X030341Y029782D01*
X030401Y029767D01*
X030461Y029749D01*
X030519Y029727D01*
X030576Y029701D01*
X030631Y029671D01*
X030684Y029638D01*
X030735Y029602D01*
X030783Y029563D01*
X030829Y029520D01*
X030872Y029475D01*
X030912Y029427D01*
X030949Y029377D01*
X030983Y029324D01*
X031014Y029270D01*
X031040Y029214D01*
X031064Y029156D01*
X031083Y029096D01*
X031099Y029036D01*
X031111Y028974D01*
X031119Y028913D01*
X031123Y028850D01*
X031123Y028788D01*
X031119Y028725D01*
X031111Y028664D01*
X031099Y028602D01*
X031083Y028542D01*
X031064Y028482D01*
X031040Y028424D01*
X031014Y028368D01*
X030983Y028314D01*
X030949Y028261D01*
X030912Y028211D01*
X030872Y028163D01*
X030829Y028118D01*
X030783Y028075D01*
X030735Y028036D01*
X030684Y028000D01*
X030631Y027967D01*
X030576Y027937D01*
X030519Y027911D01*
X030461Y027889D01*
X030401Y027871D01*
X030341Y027856D01*
X030279Y027845D01*
X030217Y027838D01*
X030155Y027835D01*
X030092Y027836D01*
X030030Y027841D01*
X029968Y027850D01*
X029907Y027863D01*
X029847Y027879D01*
X029788Y027900D01*
X029730Y027924D01*
X029674Y027952D01*
X029620Y027983D01*
X029568Y028017D01*
X029519Y028055D01*
X029471Y028096D01*
X029427Y028140D01*
X029385Y028186D01*
X029347Y028236D01*
X029311Y028287D01*
X029279Y028341D01*
X029251Y028396D01*
X029225Y028453D01*
X029204Y028512D01*
X029187Y028572D01*
X029173Y028633D01*
X029163Y028694D01*
X029157Y028757D01*
X029155Y028819D01*
X029093Y021819D02*
X029095Y021881D01*
X029101Y021944D01*
X029111Y022005D01*
X029125Y022066D01*
X029142Y022126D01*
X029163Y022185D01*
X029189Y022242D01*
X029217Y022297D01*
X029249Y022351D01*
X029285Y022402D01*
X029323Y022452D01*
X029365Y022498D01*
X029409Y022542D01*
X029457Y022583D01*
X029506Y022621D01*
X029558Y022655D01*
X029612Y022686D01*
X029668Y022714D01*
X029726Y022738D01*
X029785Y022759D01*
X029845Y022775D01*
X029906Y022788D01*
X029968Y022797D01*
X030030Y022802D01*
X030093Y022803D01*
X030155Y022800D01*
X030217Y022793D01*
X030279Y022782D01*
X030339Y022767D01*
X030399Y022749D01*
X030457Y022727D01*
X030514Y022701D01*
X030569Y022671D01*
X030622Y022638D01*
X030673Y022602D01*
X030721Y022563D01*
X030767Y022520D01*
X030810Y022475D01*
X030850Y022427D01*
X030887Y022377D01*
X030921Y022324D01*
X030952Y022270D01*
X030978Y022214D01*
X031002Y022156D01*
X031021Y022096D01*
X031037Y022036D01*
X031049Y021974D01*
X031057Y021913D01*
X031061Y021850D01*
X031061Y021788D01*
X031057Y021725D01*
X031049Y021664D01*
X031037Y021602D01*
X031021Y021542D01*
X031002Y021482D01*
X030978Y021424D01*
X030952Y021368D01*
X030921Y021314D01*
X030887Y021261D01*
X030850Y021211D01*
X030810Y021163D01*
X030767Y021118D01*
X030721Y021075D01*
X030673Y021036D01*
X030622Y021000D01*
X030569Y020967D01*
X030514Y020937D01*
X030457Y020911D01*
X030399Y020889D01*
X030339Y020871D01*
X030279Y020856D01*
X030217Y020845D01*
X030155Y020838D01*
X030093Y020835D01*
X030030Y020836D01*
X029968Y020841D01*
X029906Y020850D01*
X029845Y020863D01*
X029785Y020879D01*
X029726Y020900D01*
X029668Y020924D01*
X029612Y020952D01*
X029558Y020983D01*
X029506Y021017D01*
X029457Y021055D01*
X029409Y021096D01*
X029365Y021140D01*
X029323Y021186D01*
X029285Y021236D01*
X029249Y021287D01*
X029217Y021341D01*
X029189Y021396D01*
X029163Y021453D01*
X029142Y021512D01*
X029125Y021572D01*
X029111Y021633D01*
X029101Y021694D01*
X029095Y021757D01*
X029093Y021819D01*
X036655Y021319D02*
X036657Y021381D01*
X036663Y021444D01*
X036673Y021505D01*
X036687Y021566D01*
X036704Y021626D01*
X036725Y021685D01*
X036751Y021742D01*
X036779Y021797D01*
X036811Y021851D01*
X036847Y021902D01*
X036885Y021952D01*
X036927Y021998D01*
X036971Y022042D01*
X037019Y022083D01*
X037068Y022121D01*
X037120Y022155D01*
X037174Y022186D01*
X037230Y022214D01*
X037288Y022238D01*
X037347Y022259D01*
X037407Y022275D01*
X037468Y022288D01*
X037530Y022297D01*
X037592Y022302D01*
X037655Y022303D01*
X037717Y022300D01*
X037779Y022293D01*
X037841Y022282D01*
X037901Y022267D01*
X037961Y022249D01*
X038019Y022227D01*
X038076Y022201D01*
X038131Y022171D01*
X038184Y022138D01*
X038235Y022102D01*
X038283Y022063D01*
X038329Y022020D01*
X038372Y021975D01*
X038412Y021927D01*
X038449Y021877D01*
X038483Y021824D01*
X038514Y021770D01*
X038540Y021714D01*
X038564Y021656D01*
X038583Y021596D01*
X038599Y021536D01*
X038611Y021474D01*
X038619Y021413D01*
X038623Y021350D01*
X038623Y021288D01*
X038619Y021225D01*
X038611Y021164D01*
X038599Y021102D01*
X038583Y021042D01*
X038564Y020982D01*
X038540Y020924D01*
X038514Y020868D01*
X038483Y020814D01*
X038449Y020761D01*
X038412Y020711D01*
X038372Y020663D01*
X038329Y020618D01*
X038283Y020575D01*
X038235Y020536D01*
X038184Y020500D01*
X038131Y020467D01*
X038076Y020437D01*
X038019Y020411D01*
X037961Y020389D01*
X037901Y020371D01*
X037841Y020356D01*
X037779Y020345D01*
X037717Y020338D01*
X037655Y020335D01*
X037592Y020336D01*
X037530Y020341D01*
X037468Y020350D01*
X037407Y020363D01*
X037347Y020379D01*
X037288Y020400D01*
X037230Y020424D01*
X037174Y020452D01*
X037120Y020483D01*
X037068Y020517D01*
X037019Y020555D01*
X036971Y020596D01*
X036927Y020640D01*
X036885Y020686D01*
X036847Y020736D01*
X036811Y020787D01*
X036779Y020841D01*
X036751Y020896D01*
X036725Y020953D01*
X036704Y021012D01*
X036687Y021072D01*
X036673Y021133D01*
X036663Y021194D01*
X036657Y021257D01*
X036655Y021319D01*
X044155Y021319D02*
X044157Y021381D01*
X044163Y021444D01*
X044173Y021505D01*
X044187Y021566D01*
X044204Y021626D01*
X044225Y021685D01*
X044251Y021742D01*
X044279Y021797D01*
X044311Y021851D01*
X044347Y021902D01*
X044385Y021952D01*
X044427Y021998D01*
X044471Y022042D01*
X044519Y022083D01*
X044568Y022121D01*
X044620Y022155D01*
X044674Y022186D01*
X044730Y022214D01*
X044788Y022238D01*
X044847Y022259D01*
X044907Y022275D01*
X044968Y022288D01*
X045030Y022297D01*
X045092Y022302D01*
X045155Y022303D01*
X045217Y022300D01*
X045279Y022293D01*
X045341Y022282D01*
X045401Y022267D01*
X045461Y022249D01*
X045519Y022227D01*
X045576Y022201D01*
X045631Y022171D01*
X045684Y022138D01*
X045735Y022102D01*
X045783Y022063D01*
X045829Y022020D01*
X045872Y021975D01*
X045912Y021927D01*
X045949Y021877D01*
X045983Y021824D01*
X046014Y021770D01*
X046040Y021714D01*
X046064Y021656D01*
X046083Y021596D01*
X046099Y021536D01*
X046111Y021474D01*
X046119Y021413D01*
X046123Y021350D01*
X046123Y021288D01*
X046119Y021225D01*
X046111Y021164D01*
X046099Y021102D01*
X046083Y021042D01*
X046064Y020982D01*
X046040Y020924D01*
X046014Y020868D01*
X045983Y020814D01*
X045949Y020761D01*
X045912Y020711D01*
X045872Y020663D01*
X045829Y020618D01*
X045783Y020575D01*
X045735Y020536D01*
X045684Y020500D01*
X045631Y020467D01*
X045576Y020437D01*
X045519Y020411D01*
X045461Y020389D01*
X045401Y020371D01*
X045341Y020356D01*
X045279Y020345D01*
X045217Y020338D01*
X045155Y020335D01*
X045092Y020336D01*
X045030Y020341D01*
X044968Y020350D01*
X044907Y020363D01*
X044847Y020379D01*
X044788Y020400D01*
X044730Y020424D01*
X044674Y020452D01*
X044620Y020483D01*
X044568Y020517D01*
X044519Y020555D01*
X044471Y020596D01*
X044427Y020640D01*
X044385Y020686D01*
X044347Y020736D01*
X044311Y020787D01*
X044279Y020841D01*
X044251Y020896D01*
X044225Y020953D01*
X044204Y021012D01*
X044187Y021072D01*
X044173Y021133D01*
X044163Y021194D01*
X044157Y021257D01*
X044155Y021319D01*
X051905Y021319D02*
X051907Y021381D01*
X051913Y021444D01*
X051923Y021505D01*
X051937Y021566D01*
X051954Y021626D01*
X051975Y021685D01*
X052001Y021742D01*
X052029Y021797D01*
X052061Y021851D01*
X052097Y021902D01*
X052135Y021952D01*
X052177Y021998D01*
X052221Y022042D01*
X052269Y022083D01*
X052318Y022121D01*
X052370Y022155D01*
X052424Y022186D01*
X052480Y022214D01*
X052538Y022238D01*
X052597Y022259D01*
X052657Y022275D01*
X052718Y022288D01*
X052780Y022297D01*
X052842Y022302D01*
X052905Y022303D01*
X052967Y022300D01*
X053029Y022293D01*
X053091Y022282D01*
X053151Y022267D01*
X053211Y022249D01*
X053269Y022227D01*
X053326Y022201D01*
X053381Y022171D01*
X053434Y022138D01*
X053485Y022102D01*
X053533Y022063D01*
X053579Y022020D01*
X053622Y021975D01*
X053662Y021927D01*
X053699Y021877D01*
X053733Y021824D01*
X053764Y021770D01*
X053790Y021714D01*
X053814Y021656D01*
X053833Y021596D01*
X053849Y021536D01*
X053861Y021474D01*
X053869Y021413D01*
X053873Y021350D01*
X053873Y021288D01*
X053869Y021225D01*
X053861Y021164D01*
X053849Y021102D01*
X053833Y021042D01*
X053814Y020982D01*
X053790Y020924D01*
X053764Y020868D01*
X053733Y020814D01*
X053699Y020761D01*
X053662Y020711D01*
X053622Y020663D01*
X053579Y020618D01*
X053533Y020575D01*
X053485Y020536D01*
X053434Y020500D01*
X053381Y020467D01*
X053326Y020437D01*
X053269Y020411D01*
X053211Y020389D01*
X053151Y020371D01*
X053091Y020356D01*
X053029Y020345D01*
X052967Y020338D01*
X052905Y020335D01*
X052842Y020336D01*
X052780Y020341D01*
X052718Y020350D01*
X052657Y020363D01*
X052597Y020379D01*
X052538Y020400D01*
X052480Y020424D01*
X052424Y020452D01*
X052370Y020483D01*
X052318Y020517D01*
X052269Y020555D01*
X052221Y020596D01*
X052177Y020640D01*
X052135Y020686D01*
X052097Y020736D01*
X052061Y020787D01*
X052029Y020841D01*
X052001Y020896D01*
X051975Y020953D01*
X051954Y021012D01*
X051937Y021072D01*
X051923Y021133D01*
X051913Y021194D01*
X051907Y021257D01*
X051905Y021319D01*
X051655Y028819D02*
X051657Y028881D01*
X051663Y028944D01*
X051673Y029005D01*
X051687Y029066D01*
X051704Y029126D01*
X051725Y029185D01*
X051751Y029242D01*
X051779Y029297D01*
X051811Y029351D01*
X051847Y029402D01*
X051885Y029452D01*
X051927Y029498D01*
X051971Y029542D01*
X052019Y029583D01*
X052068Y029621D01*
X052120Y029655D01*
X052174Y029686D01*
X052230Y029714D01*
X052288Y029738D01*
X052347Y029759D01*
X052407Y029775D01*
X052468Y029788D01*
X052530Y029797D01*
X052592Y029802D01*
X052655Y029803D01*
X052717Y029800D01*
X052779Y029793D01*
X052841Y029782D01*
X052901Y029767D01*
X052961Y029749D01*
X053019Y029727D01*
X053076Y029701D01*
X053131Y029671D01*
X053184Y029638D01*
X053235Y029602D01*
X053283Y029563D01*
X053329Y029520D01*
X053372Y029475D01*
X053412Y029427D01*
X053449Y029377D01*
X053483Y029324D01*
X053514Y029270D01*
X053540Y029214D01*
X053564Y029156D01*
X053583Y029096D01*
X053599Y029036D01*
X053611Y028974D01*
X053619Y028913D01*
X053623Y028850D01*
X053623Y028788D01*
X053619Y028725D01*
X053611Y028664D01*
X053599Y028602D01*
X053583Y028542D01*
X053564Y028482D01*
X053540Y028424D01*
X053514Y028368D01*
X053483Y028314D01*
X053449Y028261D01*
X053412Y028211D01*
X053372Y028163D01*
X053329Y028118D01*
X053283Y028075D01*
X053235Y028036D01*
X053184Y028000D01*
X053131Y027967D01*
X053076Y027937D01*
X053019Y027911D01*
X052961Y027889D01*
X052901Y027871D01*
X052841Y027856D01*
X052779Y027845D01*
X052717Y027838D01*
X052655Y027835D01*
X052592Y027836D01*
X052530Y027841D01*
X052468Y027850D01*
X052407Y027863D01*
X052347Y027879D01*
X052288Y027900D01*
X052230Y027924D01*
X052174Y027952D01*
X052120Y027983D01*
X052068Y028017D01*
X052019Y028055D01*
X051971Y028096D01*
X051927Y028140D01*
X051885Y028186D01*
X051847Y028236D01*
X051811Y028287D01*
X051779Y028341D01*
X051751Y028396D01*
X051725Y028453D01*
X051704Y028512D01*
X051687Y028572D01*
X051673Y028633D01*
X051663Y028694D01*
X051657Y028757D01*
X051655Y028819D01*
X044155Y028819D02*
X044157Y028881D01*
X044163Y028944D01*
X044173Y029005D01*
X044187Y029066D01*
X044204Y029126D01*
X044225Y029185D01*
X044251Y029242D01*
X044279Y029297D01*
X044311Y029351D01*
X044347Y029402D01*
X044385Y029452D01*
X044427Y029498D01*
X044471Y029542D01*
X044519Y029583D01*
X044568Y029621D01*
X044620Y029655D01*
X044674Y029686D01*
X044730Y029714D01*
X044788Y029738D01*
X044847Y029759D01*
X044907Y029775D01*
X044968Y029788D01*
X045030Y029797D01*
X045092Y029802D01*
X045155Y029803D01*
X045217Y029800D01*
X045279Y029793D01*
X045341Y029782D01*
X045401Y029767D01*
X045461Y029749D01*
X045519Y029727D01*
X045576Y029701D01*
X045631Y029671D01*
X045684Y029638D01*
X045735Y029602D01*
X045783Y029563D01*
X045829Y029520D01*
X045872Y029475D01*
X045912Y029427D01*
X045949Y029377D01*
X045983Y029324D01*
X046014Y029270D01*
X046040Y029214D01*
X046064Y029156D01*
X046083Y029096D01*
X046099Y029036D01*
X046111Y028974D01*
X046119Y028913D01*
X046123Y028850D01*
X046123Y028788D01*
X046119Y028725D01*
X046111Y028664D01*
X046099Y028602D01*
X046083Y028542D01*
X046064Y028482D01*
X046040Y028424D01*
X046014Y028368D01*
X045983Y028314D01*
X045949Y028261D01*
X045912Y028211D01*
X045872Y028163D01*
X045829Y028118D01*
X045783Y028075D01*
X045735Y028036D01*
X045684Y028000D01*
X045631Y027967D01*
X045576Y027937D01*
X045519Y027911D01*
X045461Y027889D01*
X045401Y027871D01*
X045341Y027856D01*
X045279Y027845D01*
X045217Y027838D01*
X045155Y027835D01*
X045092Y027836D01*
X045030Y027841D01*
X044968Y027850D01*
X044907Y027863D01*
X044847Y027879D01*
X044788Y027900D01*
X044730Y027924D01*
X044674Y027952D01*
X044620Y027983D01*
X044568Y028017D01*
X044519Y028055D01*
X044471Y028096D01*
X044427Y028140D01*
X044385Y028186D01*
X044347Y028236D01*
X044311Y028287D01*
X044279Y028341D01*
X044251Y028396D01*
X044225Y028453D01*
X044204Y028512D01*
X044187Y028572D01*
X044173Y028633D01*
X044163Y028694D01*
X044157Y028757D01*
X044155Y028819D01*
X036655Y028819D02*
X036657Y028881D01*
X036663Y028944D01*
X036673Y029005D01*
X036687Y029066D01*
X036704Y029126D01*
X036725Y029185D01*
X036751Y029242D01*
X036779Y029297D01*
X036811Y029351D01*
X036847Y029402D01*
X036885Y029452D01*
X036927Y029498D01*
X036971Y029542D01*
X037019Y029583D01*
X037068Y029621D01*
X037120Y029655D01*
X037174Y029686D01*
X037230Y029714D01*
X037288Y029738D01*
X037347Y029759D01*
X037407Y029775D01*
X037468Y029788D01*
X037530Y029797D01*
X037592Y029802D01*
X037655Y029803D01*
X037717Y029800D01*
X037779Y029793D01*
X037841Y029782D01*
X037901Y029767D01*
X037961Y029749D01*
X038019Y029727D01*
X038076Y029701D01*
X038131Y029671D01*
X038184Y029638D01*
X038235Y029602D01*
X038283Y029563D01*
X038329Y029520D01*
X038372Y029475D01*
X038412Y029427D01*
X038449Y029377D01*
X038483Y029324D01*
X038514Y029270D01*
X038540Y029214D01*
X038564Y029156D01*
X038583Y029096D01*
X038599Y029036D01*
X038611Y028974D01*
X038619Y028913D01*
X038623Y028850D01*
X038623Y028788D01*
X038619Y028725D01*
X038611Y028664D01*
X038599Y028602D01*
X038583Y028542D01*
X038564Y028482D01*
X038540Y028424D01*
X038514Y028368D01*
X038483Y028314D01*
X038449Y028261D01*
X038412Y028211D01*
X038372Y028163D01*
X038329Y028118D01*
X038283Y028075D01*
X038235Y028036D01*
X038184Y028000D01*
X038131Y027967D01*
X038076Y027937D01*
X038019Y027911D01*
X037961Y027889D01*
X037901Y027871D01*
X037841Y027856D01*
X037779Y027845D01*
X037717Y027838D01*
X037655Y027835D01*
X037592Y027836D01*
X037530Y027841D01*
X037468Y027850D01*
X037407Y027863D01*
X037347Y027879D01*
X037288Y027900D01*
X037230Y027924D01*
X037174Y027952D01*
X037120Y027983D01*
X037068Y028017D01*
X037019Y028055D01*
X036971Y028096D01*
X036927Y028140D01*
X036885Y028186D01*
X036847Y028236D01*
X036811Y028287D01*
X036779Y028341D01*
X036751Y028396D01*
X036725Y028453D01*
X036704Y028512D01*
X036687Y028572D01*
X036673Y028633D01*
X036663Y028694D01*
X036657Y028757D01*
X036655Y028819D01*
X036655Y036319D02*
X036657Y036381D01*
X036663Y036444D01*
X036673Y036505D01*
X036687Y036566D01*
X036704Y036626D01*
X036725Y036685D01*
X036751Y036742D01*
X036779Y036797D01*
X036811Y036851D01*
X036847Y036902D01*
X036885Y036952D01*
X036927Y036998D01*
X036971Y037042D01*
X037019Y037083D01*
X037068Y037121D01*
X037120Y037155D01*
X037174Y037186D01*
X037230Y037214D01*
X037288Y037238D01*
X037347Y037259D01*
X037407Y037275D01*
X037468Y037288D01*
X037530Y037297D01*
X037592Y037302D01*
X037655Y037303D01*
X037717Y037300D01*
X037779Y037293D01*
X037841Y037282D01*
X037901Y037267D01*
X037961Y037249D01*
X038019Y037227D01*
X038076Y037201D01*
X038131Y037171D01*
X038184Y037138D01*
X038235Y037102D01*
X038283Y037063D01*
X038329Y037020D01*
X038372Y036975D01*
X038412Y036927D01*
X038449Y036877D01*
X038483Y036824D01*
X038514Y036770D01*
X038540Y036714D01*
X038564Y036656D01*
X038583Y036596D01*
X038599Y036536D01*
X038611Y036474D01*
X038619Y036413D01*
X038623Y036350D01*
X038623Y036288D01*
X038619Y036225D01*
X038611Y036164D01*
X038599Y036102D01*
X038583Y036042D01*
X038564Y035982D01*
X038540Y035924D01*
X038514Y035868D01*
X038483Y035814D01*
X038449Y035761D01*
X038412Y035711D01*
X038372Y035663D01*
X038329Y035618D01*
X038283Y035575D01*
X038235Y035536D01*
X038184Y035500D01*
X038131Y035467D01*
X038076Y035437D01*
X038019Y035411D01*
X037961Y035389D01*
X037901Y035371D01*
X037841Y035356D01*
X037779Y035345D01*
X037717Y035338D01*
X037655Y035335D01*
X037592Y035336D01*
X037530Y035341D01*
X037468Y035350D01*
X037407Y035363D01*
X037347Y035379D01*
X037288Y035400D01*
X037230Y035424D01*
X037174Y035452D01*
X037120Y035483D01*
X037068Y035517D01*
X037019Y035555D01*
X036971Y035596D01*
X036927Y035640D01*
X036885Y035686D01*
X036847Y035736D01*
X036811Y035787D01*
X036779Y035841D01*
X036751Y035896D01*
X036725Y035953D01*
X036704Y036012D01*
X036687Y036072D01*
X036673Y036133D01*
X036663Y036194D01*
X036657Y036257D01*
X036655Y036319D01*
X029155Y036319D02*
X029157Y036381D01*
X029163Y036444D01*
X029173Y036505D01*
X029187Y036566D01*
X029204Y036626D01*
X029225Y036685D01*
X029251Y036742D01*
X029279Y036797D01*
X029311Y036851D01*
X029347Y036902D01*
X029385Y036952D01*
X029427Y036998D01*
X029471Y037042D01*
X029519Y037083D01*
X029568Y037121D01*
X029620Y037155D01*
X029674Y037186D01*
X029730Y037214D01*
X029788Y037238D01*
X029847Y037259D01*
X029907Y037275D01*
X029968Y037288D01*
X030030Y037297D01*
X030092Y037302D01*
X030155Y037303D01*
X030217Y037300D01*
X030279Y037293D01*
X030341Y037282D01*
X030401Y037267D01*
X030461Y037249D01*
X030519Y037227D01*
X030576Y037201D01*
X030631Y037171D01*
X030684Y037138D01*
X030735Y037102D01*
X030783Y037063D01*
X030829Y037020D01*
X030872Y036975D01*
X030912Y036927D01*
X030949Y036877D01*
X030983Y036824D01*
X031014Y036770D01*
X031040Y036714D01*
X031064Y036656D01*
X031083Y036596D01*
X031099Y036536D01*
X031111Y036474D01*
X031119Y036413D01*
X031123Y036350D01*
X031123Y036288D01*
X031119Y036225D01*
X031111Y036164D01*
X031099Y036102D01*
X031083Y036042D01*
X031064Y035982D01*
X031040Y035924D01*
X031014Y035868D01*
X030983Y035814D01*
X030949Y035761D01*
X030912Y035711D01*
X030872Y035663D01*
X030829Y035618D01*
X030783Y035575D01*
X030735Y035536D01*
X030684Y035500D01*
X030631Y035467D01*
X030576Y035437D01*
X030519Y035411D01*
X030461Y035389D01*
X030401Y035371D01*
X030341Y035356D01*
X030279Y035345D01*
X030217Y035338D01*
X030155Y035335D01*
X030092Y035336D01*
X030030Y035341D01*
X029968Y035350D01*
X029907Y035363D01*
X029847Y035379D01*
X029788Y035400D01*
X029730Y035424D01*
X029674Y035452D01*
X029620Y035483D01*
X029568Y035517D01*
X029519Y035555D01*
X029471Y035596D01*
X029427Y035640D01*
X029385Y035686D01*
X029347Y035736D01*
X029311Y035787D01*
X029279Y035841D01*
X029251Y035896D01*
X029225Y035953D01*
X029204Y036012D01*
X029187Y036072D01*
X029173Y036133D01*
X029163Y036194D01*
X029157Y036257D01*
X029155Y036319D01*
X022030Y036444D02*
X022032Y036506D01*
X022038Y036569D01*
X022048Y036630D01*
X022062Y036691D01*
X022079Y036751D01*
X022100Y036810D01*
X022126Y036867D01*
X022154Y036922D01*
X022186Y036976D01*
X022222Y037027D01*
X022260Y037077D01*
X022302Y037123D01*
X022346Y037167D01*
X022394Y037208D01*
X022443Y037246D01*
X022495Y037280D01*
X022549Y037311D01*
X022605Y037339D01*
X022663Y037363D01*
X022722Y037384D01*
X022782Y037400D01*
X022843Y037413D01*
X022905Y037422D01*
X022967Y037427D01*
X023030Y037428D01*
X023092Y037425D01*
X023154Y037418D01*
X023216Y037407D01*
X023276Y037392D01*
X023336Y037374D01*
X023394Y037352D01*
X023451Y037326D01*
X023506Y037296D01*
X023559Y037263D01*
X023610Y037227D01*
X023658Y037188D01*
X023704Y037145D01*
X023747Y037100D01*
X023787Y037052D01*
X023824Y037002D01*
X023858Y036949D01*
X023889Y036895D01*
X023915Y036839D01*
X023939Y036781D01*
X023958Y036721D01*
X023974Y036661D01*
X023986Y036599D01*
X023994Y036538D01*
X023998Y036475D01*
X023998Y036413D01*
X023994Y036350D01*
X023986Y036289D01*
X023974Y036227D01*
X023958Y036167D01*
X023939Y036107D01*
X023915Y036049D01*
X023889Y035993D01*
X023858Y035939D01*
X023824Y035886D01*
X023787Y035836D01*
X023747Y035788D01*
X023704Y035743D01*
X023658Y035700D01*
X023610Y035661D01*
X023559Y035625D01*
X023506Y035592D01*
X023451Y035562D01*
X023394Y035536D01*
X023336Y035514D01*
X023276Y035496D01*
X023216Y035481D01*
X023154Y035470D01*
X023092Y035463D01*
X023030Y035460D01*
X022967Y035461D01*
X022905Y035466D01*
X022843Y035475D01*
X022782Y035488D01*
X022722Y035504D01*
X022663Y035525D01*
X022605Y035549D01*
X022549Y035577D01*
X022495Y035608D01*
X022443Y035642D01*
X022394Y035680D01*
X022346Y035721D01*
X022302Y035765D01*
X022260Y035811D01*
X022222Y035861D01*
X022186Y035912D01*
X022154Y035966D01*
X022126Y036021D01*
X022100Y036078D01*
X022079Y036137D01*
X022062Y036197D01*
X022048Y036258D01*
X022038Y036319D01*
X022032Y036382D01*
X022030Y036444D01*
X014155Y036319D02*
X014157Y036381D01*
X014163Y036444D01*
X014173Y036505D01*
X014187Y036566D01*
X014204Y036626D01*
X014225Y036685D01*
X014251Y036742D01*
X014279Y036797D01*
X014311Y036851D01*
X014347Y036902D01*
X014385Y036952D01*
X014427Y036998D01*
X014471Y037042D01*
X014519Y037083D01*
X014568Y037121D01*
X014620Y037155D01*
X014674Y037186D01*
X014730Y037214D01*
X014788Y037238D01*
X014847Y037259D01*
X014907Y037275D01*
X014968Y037288D01*
X015030Y037297D01*
X015092Y037302D01*
X015155Y037303D01*
X015217Y037300D01*
X015279Y037293D01*
X015341Y037282D01*
X015401Y037267D01*
X015461Y037249D01*
X015519Y037227D01*
X015576Y037201D01*
X015631Y037171D01*
X015684Y037138D01*
X015735Y037102D01*
X015783Y037063D01*
X015829Y037020D01*
X015872Y036975D01*
X015912Y036927D01*
X015949Y036877D01*
X015983Y036824D01*
X016014Y036770D01*
X016040Y036714D01*
X016064Y036656D01*
X016083Y036596D01*
X016099Y036536D01*
X016111Y036474D01*
X016119Y036413D01*
X016123Y036350D01*
X016123Y036288D01*
X016119Y036225D01*
X016111Y036164D01*
X016099Y036102D01*
X016083Y036042D01*
X016064Y035982D01*
X016040Y035924D01*
X016014Y035868D01*
X015983Y035814D01*
X015949Y035761D01*
X015912Y035711D01*
X015872Y035663D01*
X015829Y035618D01*
X015783Y035575D01*
X015735Y035536D01*
X015684Y035500D01*
X015631Y035467D01*
X015576Y035437D01*
X015519Y035411D01*
X015461Y035389D01*
X015401Y035371D01*
X015341Y035356D01*
X015279Y035345D01*
X015217Y035338D01*
X015155Y035335D01*
X015092Y035336D01*
X015030Y035341D01*
X014968Y035350D01*
X014907Y035363D01*
X014847Y035379D01*
X014788Y035400D01*
X014730Y035424D01*
X014674Y035452D01*
X014620Y035483D01*
X014568Y035517D01*
X014519Y035555D01*
X014471Y035596D01*
X014427Y035640D01*
X014385Y035686D01*
X014347Y035736D01*
X014311Y035787D01*
X014279Y035841D01*
X014251Y035896D01*
X014225Y035953D01*
X014204Y036012D01*
X014187Y036072D01*
X014173Y036133D01*
X014163Y036194D01*
X014157Y036257D01*
X014155Y036319D01*
X006655Y036756D02*
X006657Y036818D01*
X006663Y036881D01*
X006673Y036942D01*
X006687Y037003D01*
X006704Y037063D01*
X006725Y037122D01*
X006751Y037179D01*
X006779Y037234D01*
X006811Y037288D01*
X006847Y037339D01*
X006885Y037389D01*
X006927Y037435D01*
X006971Y037479D01*
X007019Y037520D01*
X007068Y037558D01*
X007120Y037592D01*
X007174Y037623D01*
X007230Y037651D01*
X007288Y037675D01*
X007347Y037696D01*
X007407Y037712D01*
X007468Y037725D01*
X007530Y037734D01*
X007592Y037739D01*
X007655Y037740D01*
X007717Y037737D01*
X007779Y037730D01*
X007841Y037719D01*
X007901Y037704D01*
X007961Y037686D01*
X008019Y037664D01*
X008076Y037638D01*
X008131Y037608D01*
X008184Y037575D01*
X008235Y037539D01*
X008283Y037500D01*
X008329Y037457D01*
X008372Y037412D01*
X008412Y037364D01*
X008449Y037314D01*
X008483Y037261D01*
X008514Y037207D01*
X008540Y037151D01*
X008564Y037093D01*
X008583Y037033D01*
X008599Y036973D01*
X008611Y036911D01*
X008619Y036850D01*
X008623Y036787D01*
X008623Y036725D01*
X008619Y036662D01*
X008611Y036601D01*
X008599Y036539D01*
X008583Y036479D01*
X008564Y036419D01*
X008540Y036361D01*
X008514Y036305D01*
X008483Y036251D01*
X008449Y036198D01*
X008412Y036148D01*
X008372Y036100D01*
X008329Y036055D01*
X008283Y036012D01*
X008235Y035973D01*
X008184Y035937D01*
X008131Y035904D01*
X008076Y035874D01*
X008019Y035848D01*
X007961Y035826D01*
X007901Y035808D01*
X007841Y035793D01*
X007779Y035782D01*
X007717Y035775D01*
X007655Y035772D01*
X007592Y035773D01*
X007530Y035778D01*
X007468Y035787D01*
X007407Y035800D01*
X007347Y035816D01*
X007288Y035837D01*
X007230Y035861D01*
X007174Y035889D01*
X007120Y035920D01*
X007068Y035954D01*
X007019Y035992D01*
X006971Y036033D01*
X006927Y036077D01*
X006885Y036123D01*
X006847Y036173D01*
X006811Y036224D01*
X006779Y036278D01*
X006751Y036333D01*
X006725Y036390D01*
X006704Y036449D01*
X006687Y036509D01*
X006673Y036570D01*
X006663Y036631D01*
X006657Y036694D01*
X006655Y036756D01*
X006655Y048444D02*
X006657Y048506D01*
X006663Y048569D01*
X006673Y048630D01*
X006687Y048691D01*
X006704Y048751D01*
X006725Y048810D01*
X006751Y048867D01*
X006779Y048922D01*
X006811Y048976D01*
X006847Y049027D01*
X006885Y049077D01*
X006927Y049123D01*
X006971Y049167D01*
X007019Y049208D01*
X007068Y049246D01*
X007120Y049280D01*
X007174Y049311D01*
X007230Y049339D01*
X007288Y049363D01*
X007347Y049384D01*
X007407Y049400D01*
X007468Y049413D01*
X007530Y049422D01*
X007592Y049427D01*
X007655Y049428D01*
X007717Y049425D01*
X007779Y049418D01*
X007841Y049407D01*
X007901Y049392D01*
X007961Y049374D01*
X008019Y049352D01*
X008076Y049326D01*
X008131Y049296D01*
X008184Y049263D01*
X008235Y049227D01*
X008283Y049188D01*
X008329Y049145D01*
X008372Y049100D01*
X008412Y049052D01*
X008449Y049002D01*
X008483Y048949D01*
X008514Y048895D01*
X008540Y048839D01*
X008564Y048781D01*
X008583Y048721D01*
X008599Y048661D01*
X008611Y048599D01*
X008619Y048538D01*
X008623Y048475D01*
X008623Y048413D01*
X008619Y048350D01*
X008611Y048289D01*
X008599Y048227D01*
X008583Y048167D01*
X008564Y048107D01*
X008540Y048049D01*
X008514Y047993D01*
X008483Y047939D01*
X008449Y047886D01*
X008412Y047836D01*
X008372Y047788D01*
X008329Y047743D01*
X008283Y047700D01*
X008235Y047661D01*
X008184Y047625D01*
X008131Y047592D01*
X008076Y047562D01*
X008019Y047536D01*
X007961Y047514D01*
X007901Y047496D01*
X007841Y047481D01*
X007779Y047470D01*
X007717Y047463D01*
X007655Y047460D01*
X007592Y047461D01*
X007530Y047466D01*
X007468Y047475D01*
X007407Y047488D01*
X007347Y047504D01*
X007288Y047525D01*
X007230Y047549D01*
X007174Y047577D01*
X007120Y047608D01*
X007068Y047642D01*
X007019Y047680D01*
X006971Y047721D01*
X006927Y047765D01*
X006885Y047811D01*
X006847Y047861D01*
X006811Y047912D01*
X006779Y047966D01*
X006751Y048021D01*
X006725Y048078D01*
X006704Y048137D01*
X006687Y048197D01*
X006673Y048258D01*
X006663Y048319D01*
X006657Y048382D01*
X006655Y048444D01*
X021905Y043756D02*
X021907Y043818D01*
X021913Y043881D01*
X021923Y043942D01*
X021937Y044003D01*
X021954Y044063D01*
X021975Y044122D01*
X022001Y044179D01*
X022029Y044234D01*
X022061Y044288D01*
X022097Y044339D01*
X022135Y044389D01*
X022177Y044435D01*
X022221Y044479D01*
X022269Y044520D01*
X022318Y044558D01*
X022370Y044592D01*
X022424Y044623D01*
X022480Y044651D01*
X022538Y044675D01*
X022597Y044696D01*
X022657Y044712D01*
X022718Y044725D01*
X022780Y044734D01*
X022842Y044739D01*
X022905Y044740D01*
X022967Y044737D01*
X023029Y044730D01*
X023091Y044719D01*
X023151Y044704D01*
X023211Y044686D01*
X023269Y044664D01*
X023326Y044638D01*
X023381Y044608D01*
X023434Y044575D01*
X023485Y044539D01*
X023533Y044500D01*
X023579Y044457D01*
X023622Y044412D01*
X023662Y044364D01*
X023699Y044314D01*
X023733Y044261D01*
X023764Y044207D01*
X023790Y044151D01*
X023814Y044093D01*
X023833Y044033D01*
X023849Y043973D01*
X023861Y043911D01*
X023869Y043850D01*
X023873Y043787D01*
X023873Y043725D01*
X023869Y043662D01*
X023861Y043601D01*
X023849Y043539D01*
X023833Y043479D01*
X023814Y043419D01*
X023790Y043361D01*
X023764Y043305D01*
X023733Y043251D01*
X023699Y043198D01*
X023662Y043148D01*
X023622Y043100D01*
X023579Y043055D01*
X023533Y043012D01*
X023485Y042973D01*
X023434Y042937D01*
X023381Y042904D01*
X023326Y042874D01*
X023269Y042848D01*
X023211Y042826D01*
X023151Y042808D01*
X023091Y042793D01*
X023029Y042782D01*
X022967Y042775D01*
X022905Y042772D01*
X022842Y042773D01*
X022780Y042778D01*
X022718Y042787D01*
X022657Y042800D01*
X022597Y042816D01*
X022538Y042837D01*
X022480Y042861D01*
X022424Y042889D01*
X022370Y042920D01*
X022318Y042954D01*
X022269Y042992D01*
X022221Y043033D01*
X022177Y043077D01*
X022135Y043123D01*
X022097Y043173D01*
X022061Y043224D01*
X022029Y043278D01*
X022001Y043333D01*
X021975Y043390D01*
X021954Y043449D01*
X021937Y043509D01*
X021923Y043570D01*
X021913Y043631D01*
X021907Y043694D01*
X021905Y043756D01*
X024593Y046944D02*
X024595Y047006D01*
X024601Y047069D01*
X024611Y047130D01*
X024625Y047191D01*
X024642Y047251D01*
X024663Y047310D01*
X024689Y047367D01*
X024717Y047422D01*
X024749Y047476D01*
X024785Y047527D01*
X024823Y047577D01*
X024865Y047623D01*
X024909Y047667D01*
X024957Y047708D01*
X025006Y047746D01*
X025058Y047780D01*
X025112Y047811D01*
X025168Y047839D01*
X025226Y047863D01*
X025285Y047884D01*
X025345Y047900D01*
X025406Y047913D01*
X025468Y047922D01*
X025530Y047927D01*
X025593Y047928D01*
X025655Y047925D01*
X025717Y047918D01*
X025779Y047907D01*
X025839Y047892D01*
X025899Y047874D01*
X025957Y047852D01*
X026014Y047826D01*
X026069Y047796D01*
X026122Y047763D01*
X026173Y047727D01*
X026221Y047688D01*
X026267Y047645D01*
X026310Y047600D01*
X026350Y047552D01*
X026387Y047502D01*
X026421Y047449D01*
X026452Y047395D01*
X026478Y047339D01*
X026502Y047281D01*
X026521Y047221D01*
X026537Y047161D01*
X026549Y047099D01*
X026557Y047038D01*
X026561Y046975D01*
X026561Y046913D01*
X026557Y046850D01*
X026549Y046789D01*
X026537Y046727D01*
X026521Y046667D01*
X026502Y046607D01*
X026478Y046549D01*
X026452Y046493D01*
X026421Y046439D01*
X026387Y046386D01*
X026350Y046336D01*
X026310Y046288D01*
X026267Y046243D01*
X026221Y046200D01*
X026173Y046161D01*
X026122Y046125D01*
X026069Y046092D01*
X026014Y046062D01*
X025957Y046036D01*
X025899Y046014D01*
X025839Y045996D01*
X025779Y045981D01*
X025717Y045970D01*
X025655Y045963D01*
X025593Y045960D01*
X025530Y045961D01*
X025468Y045966D01*
X025406Y045975D01*
X025345Y045988D01*
X025285Y046004D01*
X025226Y046025D01*
X025168Y046049D01*
X025112Y046077D01*
X025058Y046108D01*
X025006Y046142D01*
X024957Y046180D01*
X024909Y046221D01*
X024865Y046265D01*
X024823Y046311D01*
X024785Y046361D01*
X024749Y046412D01*
X024717Y046466D01*
X024689Y046521D01*
X024663Y046578D01*
X024642Y046637D01*
X024625Y046697D01*
X024611Y046758D01*
X024601Y046819D01*
X024595Y046882D01*
X024593Y046944D01*
X029155Y044006D02*
X029157Y044068D01*
X029163Y044131D01*
X029173Y044192D01*
X029187Y044253D01*
X029204Y044313D01*
X029225Y044372D01*
X029251Y044429D01*
X029279Y044484D01*
X029311Y044538D01*
X029347Y044589D01*
X029385Y044639D01*
X029427Y044685D01*
X029471Y044729D01*
X029519Y044770D01*
X029568Y044808D01*
X029620Y044842D01*
X029674Y044873D01*
X029730Y044901D01*
X029788Y044925D01*
X029847Y044946D01*
X029907Y044962D01*
X029968Y044975D01*
X030030Y044984D01*
X030092Y044989D01*
X030155Y044990D01*
X030217Y044987D01*
X030279Y044980D01*
X030341Y044969D01*
X030401Y044954D01*
X030461Y044936D01*
X030519Y044914D01*
X030576Y044888D01*
X030631Y044858D01*
X030684Y044825D01*
X030735Y044789D01*
X030783Y044750D01*
X030829Y044707D01*
X030872Y044662D01*
X030912Y044614D01*
X030949Y044564D01*
X030983Y044511D01*
X031014Y044457D01*
X031040Y044401D01*
X031064Y044343D01*
X031083Y044283D01*
X031099Y044223D01*
X031111Y044161D01*
X031119Y044100D01*
X031123Y044037D01*
X031123Y043975D01*
X031119Y043912D01*
X031111Y043851D01*
X031099Y043789D01*
X031083Y043729D01*
X031064Y043669D01*
X031040Y043611D01*
X031014Y043555D01*
X030983Y043501D01*
X030949Y043448D01*
X030912Y043398D01*
X030872Y043350D01*
X030829Y043305D01*
X030783Y043262D01*
X030735Y043223D01*
X030684Y043187D01*
X030631Y043154D01*
X030576Y043124D01*
X030519Y043098D01*
X030461Y043076D01*
X030401Y043058D01*
X030341Y043043D01*
X030279Y043032D01*
X030217Y043025D01*
X030155Y043022D01*
X030092Y043023D01*
X030030Y043028D01*
X029968Y043037D01*
X029907Y043050D01*
X029847Y043066D01*
X029788Y043087D01*
X029730Y043111D01*
X029674Y043139D01*
X029620Y043170D01*
X029568Y043204D01*
X029519Y043242D01*
X029471Y043283D01*
X029427Y043327D01*
X029385Y043373D01*
X029347Y043423D01*
X029311Y043474D01*
X029279Y043528D01*
X029251Y043583D01*
X029225Y043640D01*
X029204Y043699D01*
X029187Y043759D01*
X029173Y043820D01*
X029163Y043881D01*
X029157Y043944D01*
X029155Y044006D01*
X032155Y046881D02*
X032157Y046943D01*
X032163Y047006D01*
X032173Y047067D01*
X032187Y047128D01*
X032204Y047188D01*
X032225Y047247D01*
X032251Y047304D01*
X032279Y047359D01*
X032311Y047413D01*
X032347Y047464D01*
X032385Y047514D01*
X032427Y047560D01*
X032471Y047604D01*
X032519Y047645D01*
X032568Y047683D01*
X032620Y047717D01*
X032674Y047748D01*
X032730Y047776D01*
X032788Y047800D01*
X032847Y047821D01*
X032907Y047837D01*
X032968Y047850D01*
X033030Y047859D01*
X033092Y047864D01*
X033155Y047865D01*
X033217Y047862D01*
X033279Y047855D01*
X033341Y047844D01*
X033401Y047829D01*
X033461Y047811D01*
X033519Y047789D01*
X033576Y047763D01*
X033631Y047733D01*
X033684Y047700D01*
X033735Y047664D01*
X033783Y047625D01*
X033829Y047582D01*
X033872Y047537D01*
X033912Y047489D01*
X033949Y047439D01*
X033983Y047386D01*
X034014Y047332D01*
X034040Y047276D01*
X034064Y047218D01*
X034083Y047158D01*
X034099Y047098D01*
X034111Y047036D01*
X034119Y046975D01*
X034123Y046912D01*
X034123Y046850D01*
X034119Y046787D01*
X034111Y046726D01*
X034099Y046664D01*
X034083Y046604D01*
X034064Y046544D01*
X034040Y046486D01*
X034014Y046430D01*
X033983Y046376D01*
X033949Y046323D01*
X033912Y046273D01*
X033872Y046225D01*
X033829Y046180D01*
X033783Y046137D01*
X033735Y046098D01*
X033684Y046062D01*
X033631Y046029D01*
X033576Y045999D01*
X033519Y045973D01*
X033461Y045951D01*
X033401Y045933D01*
X033341Y045918D01*
X033279Y045907D01*
X033217Y045900D01*
X033155Y045897D01*
X033092Y045898D01*
X033030Y045903D01*
X032968Y045912D01*
X032907Y045925D01*
X032847Y045941D01*
X032788Y045962D01*
X032730Y045986D01*
X032674Y046014D01*
X032620Y046045D01*
X032568Y046079D01*
X032519Y046117D01*
X032471Y046158D01*
X032427Y046202D01*
X032385Y046248D01*
X032347Y046298D01*
X032311Y046349D01*
X032279Y046403D01*
X032251Y046458D01*
X032225Y046515D01*
X032204Y046574D01*
X032187Y046634D01*
X032173Y046695D01*
X032163Y046756D01*
X032157Y046819D01*
X032155Y046881D01*
X036780Y043631D02*
X036782Y043693D01*
X036788Y043756D01*
X036798Y043817D01*
X036812Y043878D01*
X036829Y043938D01*
X036850Y043997D01*
X036876Y044054D01*
X036904Y044109D01*
X036936Y044163D01*
X036972Y044214D01*
X037010Y044264D01*
X037052Y044310D01*
X037096Y044354D01*
X037144Y044395D01*
X037193Y044433D01*
X037245Y044467D01*
X037299Y044498D01*
X037355Y044526D01*
X037413Y044550D01*
X037472Y044571D01*
X037532Y044587D01*
X037593Y044600D01*
X037655Y044609D01*
X037717Y044614D01*
X037780Y044615D01*
X037842Y044612D01*
X037904Y044605D01*
X037966Y044594D01*
X038026Y044579D01*
X038086Y044561D01*
X038144Y044539D01*
X038201Y044513D01*
X038256Y044483D01*
X038309Y044450D01*
X038360Y044414D01*
X038408Y044375D01*
X038454Y044332D01*
X038497Y044287D01*
X038537Y044239D01*
X038574Y044189D01*
X038608Y044136D01*
X038639Y044082D01*
X038665Y044026D01*
X038689Y043968D01*
X038708Y043908D01*
X038724Y043848D01*
X038736Y043786D01*
X038744Y043725D01*
X038748Y043662D01*
X038748Y043600D01*
X038744Y043537D01*
X038736Y043476D01*
X038724Y043414D01*
X038708Y043354D01*
X038689Y043294D01*
X038665Y043236D01*
X038639Y043180D01*
X038608Y043126D01*
X038574Y043073D01*
X038537Y043023D01*
X038497Y042975D01*
X038454Y042930D01*
X038408Y042887D01*
X038360Y042848D01*
X038309Y042812D01*
X038256Y042779D01*
X038201Y042749D01*
X038144Y042723D01*
X038086Y042701D01*
X038026Y042683D01*
X037966Y042668D01*
X037904Y042657D01*
X037842Y042650D01*
X037780Y042647D01*
X037717Y042648D01*
X037655Y042653D01*
X037593Y042662D01*
X037532Y042675D01*
X037472Y042691D01*
X037413Y042712D01*
X037355Y042736D01*
X037299Y042764D01*
X037245Y042795D01*
X037193Y042829D01*
X037144Y042867D01*
X037096Y042908D01*
X037052Y042952D01*
X037010Y042998D01*
X036972Y043048D01*
X036936Y043099D01*
X036904Y043153D01*
X036876Y043208D01*
X036850Y043265D01*
X036829Y043324D01*
X036812Y043384D01*
X036798Y043445D01*
X036788Y043506D01*
X036782Y043569D01*
X036780Y043631D01*
X039593Y046944D02*
X039595Y047006D01*
X039601Y047069D01*
X039611Y047130D01*
X039625Y047191D01*
X039642Y047251D01*
X039663Y047310D01*
X039689Y047367D01*
X039717Y047422D01*
X039749Y047476D01*
X039785Y047527D01*
X039823Y047577D01*
X039865Y047623D01*
X039909Y047667D01*
X039957Y047708D01*
X040006Y047746D01*
X040058Y047780D01*
X040112Y047811D01*
X040168Y047839D01*
X040226Y047863D01*
X040285Y047884D01*
X040345Y047900D01*
X040406Y047913D01*
X040468Y047922D01*
X040530Y047927D01*
X040593Y047928D01*
X040655Y047925D01*
X040717Y047918D01*
X040779Y047907D01*
X040839Y047892D01*
X040899Y047874D01*
X040957Y047852D01*
X041014Y047826D01*
X041069Y047796D01*
X041122Y047763D01*
X041173Y047727D01*
X041221Y047688D01*
X041267Y047645D01*
X041310Y047600D01*
X041350Y047552D01*
X041387Y047502D01*
X041421Y047449D01*
X041452Y047395D01*
X041478Y047339D01*
X041502Y047281D01*
X041521Y047221D01*
X041537Y047161D01*
X041549Y047099D01*
X041557Y047038D01*
X041561Y046975D01*
X041561Y046913D01*
X041557Y046850D01*
X041549Y046789D01*
X041537Y046727D01*
X041521Y046667D01*
X041502Y046607D01*
X041478Y046549D01*
X041452Y046493D01*
X041421Y046439D01*
X041387Y046386D01*
X041350Y046336D01*
X041310Y046288D01*
X041267Y046243D01*
X041221Y046200D01*
X041173Y046161D01*
X041122Y046125D01*
X041069Y046092D01*
X041014Y046062D01*
X040957Y046036D01*
X040899Y046014D01*
X040839Y045996D01*
X040779Y045981D01*
X040717Y045970D01*
X040655Y045963D01*
X040593Y045960D01*
X040530Y045961D01*
X040468Y045966D01*
X040406Y045975D01*
X040345Y045988D01*
X040285Y046004D01*
X040226Y046025D01*
X040168Y046049D01*
X040112Y046077D01*
X040058Y046108D01*
X040006Y046142D01*
X039957Y046180D01*
X039909Y046221D01*
X039865Y046265D01*
X039823Y046311D01*
X039785Y046361D01*
X039749Y046412D01*
X039717Y046466D01*
X039689Y046521D01*
X039663Y046578D01*
X039642Y046637D01*
X039625Y046697D01*
X039611Y046758D01*
X039601Y046819D01*
X039595Y046882D01*
X039593Y046944D01*
X044280Y043694D02*
X044282Y043756D01*
X044288Y043819D01*
X044298Y043880D01*
X044312Y043941D01*
X044329Y044001D01*
X044350Y044060D01*
X044376Y044117D01*
X044404Y044172D01*
X044436Y044226D01*
X044472Y044277D01*
X044510Y044327D01*
X044552Y044373D01*
X044596Y044417D01*
X044644Y044458D01*
X044693Y044496D01*
X044745Y044530D01*
X044799Y044561D01*
X044855Y044589D01*
X044913Y044613D01*
X044972Y044634D01*
X045032Y044650D01*
X045093Y044663D01*
X045155Y044672D01*
X045217Y044677D01*
X045280Y044678D01*
X045342Y044675D01*
X045404Y044668D01*
X045466Y044657D01*
X045526Y044642D01*
X045586Y044624D01*
X045644Y044602D01*
X045701Y044576D01*
X045756Y044546D01*
X045809Y044513D01*
X045860Y044477D01*
X045908Y044438D01*
X045954Y044395D01*
X045997Y044350D01*
X046037Y044302D01*
X046074Y044252D01*
X046108Y044199D01*
X046139Y044145D01*
X046165Y044089D01*
X046189Y044031D01*
X046208Y043971D01*
X046224Y043911D01*
X046236Y043849D01*
X046244Y043788D01*
X046248Y043725D01*
X046248Y043663D01*
X046244Y043600D01*
X046236Y043539D01*
X046224Y043477D01*
X046208Y043417D01*
X046189Y043357D01*
X046165Y043299D01*
X046139Y043243D01*
X046108Y043189D01*
X046074Y043136D01*
X046037Y043086D01*
X045997Y043038D01*
X045954Y042993D01*
X045908Y042950D01*
X045860Y042911D01*
X045809Y042875D01*
X045756Y042842D01*
X045701Y042812D01*
X045644Y042786D01*
X045586Y042764D01*
X045526Y042746D01*
X045466Y042731D01*
X045404Y042720D01*
X045342Y042713D01*
X045280Y042710D01*
X045217Y042711D01*
X045155Y042716D01*
X045093Y042725D01*
X045032Y042738D01*
X044972Y042754D01*
X044913Y042775D01*
X044855Y042799D01*
X044799Y042827D01*
X044745Y042858D01*
X044693Y042892D01*
X044644Y042930D01*
X044596Y042971D01*
X044552Y043015D01*
X044510Y043061D01*
X044472Y043111D01*
X044436Y043162D01*
X044404Y043216D01*
X044376Y043271D01*
X044350Y043328D01*
X044329Y043387D01*
X044312Y043447D01*
X044298Y043508D01*
X044288Y043569D01*
X044282Y043632D01*
X044280Y043694D01*
X051905Y046819D02*
X051907Y046881D01*
X051913Y046944D01*
X051923Y047005D01*
X051937Y047066D01*
X051954Y047126D01*
X051975Y047185D01*
X052001Y047242D01*
X052029Y047297D01*
X052061Y047351D01*
X052097Y047402D01*
X052135Y047452D01*
X052177Y047498D01*
X052221Y047542D01*
X052269Y047583D01*
X052318Y047621D01*
X052370Y047655D01*
X052424Y047686D01*
X052480Y047714D01*
X052538Y047738D01*
X052597Y047759D01*
X052657Y047775D01*
X052718Y047788D01*
X052780Y047797D01*
X052842Y047802D01*
X052905Y047803D01*
X052967Y047800D01*
X053029Y047793D01*
X053091Y047782D01*
X053151Y047767D01*
X053211Y047749D01*
X053269Y047727D01*
X053326Y047701D01*
X053381Y047671D01*
X053434Y047638D01*
X053485Y047602D01*
X053533Y047563D01*
X053579Y047520D01*
X053622Y047475D01*
X053662Y047427D01*
X053699Y047377D01*
X053733Y047324D01*
X053764Y047270D01*
X053790Y047214D01*
X053814Y047156D01*
X053833Y047096D01*
X053849Y047036D01*
X053861Y046974D01*
X053869Y046913D01*
X053873Y046850D01*
X053873Y046788D01*
X053869Y046725D01*
X053861Y046664D01*
X053849Y046602D01*
X053833Y046542D01*
X053814Y046482D01*
X053790Y046424D01*
X053764Y046368D01*
X053733Y046314D01*
X053699Y046261D01*
X053662Y046211D01*
X053622Y046163D01*
X053579Y046118D01*
X053533Y046075D01*
X053485Y046036D01*
X053434Y046000D01*
X053381Y045967D01*
X053326Y045937D01*
X053269Y045911D01*
X053211Y045889D01*
X053151Y045871D01*
X053091Y045856D01*
X053029Y045845D01*
X052967Y045838D01*
X052905Y045835D01*
X052842Y045836D01*
X052780Y045841D01*
X052718Y045850D01*
X052657Y045863D01*
X052597Y045879D01*
X052538Y045900D01*
X052480Y045924D01*
X052424Y045952D01*
X052370Y045983D01*
X052318Y046017D01*
X052269Y046055D01*
X052221Y046096D01*
X052177Y046140D01*
X052135Y046186D01*
X052097Y046236D01*
X052061Y046287D01*
X052029Y046341D01*
X052001Y046396D01*
X051975Y046453D01*
X051954Y046512D01*
X051937Y046572D01*
X051923Y046633D01*
X051913Y046694D01*
X051907Y046757D01*
X051905Y046819D01*
X051718Y036256D02*
X051720Y036318D01*
X051726Y036381D01*
X051736Y036442D01*
X051750Y036503D01*
X051767Y036563D01*
X051788Y036622D01*
X051814Y036679D01*
X051842Y036734D01*
X051874Y036788D01*
X051910Y036839D01*
X051948Y036889D01*
X051990Y036935D01*
X052034Y036979D01*
X052082Y037020D01*
X052131Y037058D01*
X052183Y037092D01*
X052237Y037123D01*
X052293Y037151D01*
X052351Y037175D01*
X052410Y037196D01*
X052470Y037212D01*
X052531Y037225D01*
X052593Y037234D01*
X052655Y037239D01*
X052718Y037240D01*
X052780Y037237D01*
X052842Y037230D01*
X052904Y037219D01*
X052964Y037204D01*
X053024Y037186D01*
X053082Y037164D01*
X053139Y037138D01*
X053194Y037108D01*
X053247Y037075D01*
X053298Y037039D01*
X053346Y037000D01*
X053392Y036957D01*
X053435Y036912D01*
X053475Y036864D01*
X053512Y036814D01*
X053546Y036761D01*
X053577Y036707D01*
X053603Y036651D01*
X053627Y036593D01*
X053646Y036533D01*
X053662Y036473D01*
X053674Y036411D01*
X053682Y036350D01*
X053686Y036287D01*
X053686Y036225D01*
X053682Y036162D01*
X053674Y036101D01*
X053662Y036039D01*
X053646Y035979D01*
X053627Y035919D01*
X053603Y035861D01*
X053577Y035805D01*
X053546Y035751D01*
X053512Y035698D01*
X053475Y035648D01*
X053435Y035600D01*
X053392Y035555D01*
X053346Y035512D01*
X053298Y035473D01*
X053247Y035437D01*
X053194Y035404D01*
X053139Y035374D01*
X053082Y035348D01*
X053024Y035326D01*
X052964Y035308D01*
X052904Y035293D01*
X052842Y035282D01*
X052780Y035275D01*
X052718Y035272D01*
X052655Y035273D01*
X052593Y035278D01*
X052531Y035287D01*
X052470Y035300D01*
X052410Y035316D01*
X052351Y035337D01*
X052293Y035361D01*
X052237Y035389D01*
X052183Y035420D01*
X052131Y035454D01*
X052082Y035492D01*
X052034Y035533D01*
X051990Y035577D01*
X051948Y035623D01*
X051910Y035673D01*
X051874Y035724D01*
X051842Y035778D01*
X051814Y035833D01*
X051788Y035890D01*
X051767Y035949D01*
X051750Y036009D01*
X051736Y036070D01*
X051726Y036131D01*
X051720Y036194D01*
X051718Y036256D01*
X044155Y036319D02*
X044157Y036381D01*
X044163Y036444D01*
X044173Y036505D01*
X044187Y036566D01*
X044204Y036626D01*
X044225Y036685D01*
X044251Y036742D01*
X044279Y036797D01*
X044311Y036851D01*
X044347Y036902D01*
X044385Y036952D01*
X044427Y036998D01*
X044471Y037042D01*
X044519Y037083D01*
X044568Y037121D01*
X044620Y037155D01*
X044674Y037186D01*
X044730Y037214D01*
X044788Y037238D01*
X044847Y037259D01*
X044907Y037275D01*
X044968Y037288D01*
X045030Y037297D01*
X045092Y037302D01*
X045155Y037303D01*
X045217Y037300D01*
X045279Y037293D01*
X045341Y037282D01*
X045401Y037267D01*
X045461Y037249D01*
X045519Y037227D01*
X045576Y037201D01*
X045631Y037171D01*
X045684Y037138D01*
X045735Y037102D01*
X045783Y037063D01*
X045829Y037020D01*
X045872Y036975D01*
X045912Y036927D01*
X045949Y036877D01*
X045983Y036824D01*
X046014Y036770D01*
X046040Y036714D01*
X046064Y036656D01*
X046083Y036596D01*
X046099Y036536D01*
X046111Y036474D01*
X046119Y036413D01*
X046123Y036350D01*
X046123Y036288D01*
X046119Y036225D01*
X046111Y036164D01*
X046099Y036102D01*
X046083Y036042D01*
X046064Y035982D01*
X046040Y035924D01*
X046014Y035868D01*
X045983Y035814D01*
X045949Y035761D01*
X045912Y035711D01*
X045872Y035663D01*
X045829Y035618D01*
X045783Y035575D01*
X045735Y035536D01*
X045684Y035500D01*
X045631Y035467D01*
X045576Y035437D01*
X045519Y035411D01*
X045461Y035389D01*
X045401Y035371D01*
X045341Y035356D01*
X045279Y035345D01*
X045217Y035338D01*
X045155Y035335D01*
X045092Y035336D01*
X045030Y035341D01*
X044968Y035350D01*
X044907Y035363D01*
X044847Y035379D01*
X044788Y035400D01*
X044730Y035424D01*
X044674Y035452D01*
X044620Y035483D01*
X044568Y035517D01*
X044519Y035555D01*
X044471Y035596D01*
X044427Y035640D01*
X044385Y035686D01*
X044347Y035736D01*
X044311Y035787D01*
X044279Y035841D01*
X044251Y035896D01*
X044225Y035953D01*
X044204Y036012D01*
X044187Y036072D01*
X044173Y036133D01*
X044163Y036194D01*
X044157Y036257D01*
X044155Y036319D01*
X059030Y036444D02*
X059032Y036506D01*
X059038Y036569D01*
X059048Y036630D01*
X059062Y036691D01*
X059079Y036751D01*
X059100Y036810D01*
X059126Y036867D01*
X059154Y036922D01*
X059186Y036976D01*
X059222Y037027D01*
X059260Y037077D01*
X059302Y037123D01*
X059346Y037167D01*
X059394Y037208D01*
X059443Y037246D01*
X059495Y037280D01*
X059549Y037311D01*
X059605Y037339D01*
X059663Y037363D01*
X059722Y037384D01*
X059782Y037400D01*
X059843Y037413D01*
X059905Y037422D01*
X059967Y037427D01*
X060030Y037428D01*
X060092Y037425D01*
X060154Y037418D01*
X060216Y037407D01*
X060276Y037392D01*
X060336Y037374D01*
X060394Y037352D01*
X060451Y037326D01*
X060506Y037296D01*
X060559Y037263D01*
X060610Y037227D01*
X060658Y037188D01*
X060704Y037145D01*
X060747Y037100D01*
X060787Y037052D01*
X060824Y037002D01*
X060858Y036949D01*
X060889Y036895D01*
X060915Y036839D01*
X060939Y036781D01*
X060958Y036721D01*
X060974Y036661D01*
X060986Y036599D01*
X060994Y036538D01*
X060998Y036475D01*
X060998Y036413D01*
X060994Y036350D01*
X060986Y036289D01*
X060974Y036227D01*
X060958Y036167D01*
X060939Y036107D01*
X060915Y036049D01*
X060889Y035993D01*
X060858Y035939D01*
X060824Y035886D01*
X060787Y035836D01*
X060747Y035788D01*
X060704Y035743D01*
X060658Y035700D01*
X060610Y035661D01*
X060559Y035625D01*
X060506Y035592D01*
X060451Y035562D01*
X060394Y035536D01*
X060336Y035514D01*
X060276Y035496D01*
X060216Y035481D01*
X060154Y035470D01*
X060092Y035463D01*
X060030Y035460D01*
X059967Y035461D01*
X059905Y035466D01*
X059843Y035475D01*
X059782Y035488D01*
X059722Y035504D01*
X059663Y035525D01*
X059605Y035549D01*
X059549Y035577D01*
X059495Y035608D01*
X059443Y035642D01*
X059394Y035680D01*
X059346Y035721D01*
X059302Y035765D01*
X059260Y035811D01*
X059222Y035861D01*
X059186Y035912D01*
X059154Y035966D01*
X059126Y036021D01*
X059100Y036078D01*
X059079Y036137D01*
X059062Y036197D01*
X059048Y036258D01*
X059038Y036319D01*
X059032Y036382D01*
X059030Y036444D01*
X061030Y026569D02*
X061032Y026631D01*
X061038Y026694D01*
X061048Y026755D01*
X061062Y026816D01*
X061079Y026876D01*
X061100Y026935D01*
X061126Y026992D01*
X061154Y027047D01*
X061186Y027101D01*
X061222Y027152D01*
X061260Y027202D01*
X061302Y027248D01*
X061346Y027292D01*
X061394Y027333D01*
X061443Y027371D01*
X061495Y027405D01*
X061549Y027436D01*
X061605Y027464D01*
X061663Y027488D01*
X061722Y027509D01*
X061782Y027525D01*
X061843Y027538D01*
X061905Y027547D01*
X061967Y027552D01*
X062030Y027553D01*
X062092Y027550D01*
X062154Y027543D01*
X062216Y027532D01*
X062276Y027517D01*
X062336Y027499D01*
X062394Y027477D01*
X062451Y027451D01*
X062506Y027421D01*
X062559Y027388D01*
X062610Y027352D01*
X062658Y027313D01*
X062704Y027270D01*
X062747Y027225D01*
X062787Y027177D01*
X062824Y027127D01*
X062858Y027074D01*
X062889Y027020D01*
X062915Y026964D01*
X062939Y026906D01*
X062958Y026846D01*
X062974Y026786D01*
X062986Y026724D01*
X062994Y026663D01*
X062998Y026600D01*
X062998Y026538D01*
X062994Y026475D01*
X062986Y026414D01*
X062974Y026352D01*
X062958Y026292D01*
X062939Y026232D01*
X062915Y026174D01*
X062889Y026118D01*
X062858Y026064D01*
X062824Y026011D01*
X062787Y025961D01*
X062747Y025913D01*
X062704Y025868D01*
X062658Y025825D01*
X062610Y025786D01*
X062559Y025750D01*
X062506Y025717D01*
X062451Y025687D01*
X062394Y025661D01*
X062336Y025639D01*
X062276Y025621D01*
X062216Y025606D01*
X062154Y025595D01*
X062092Y025588D01*
X062030Y025585D01*
X061967Y025586D01*
X061905Y025591D01*
X061843Y025600D01*
X061782Y025613D01*
X061722Y025629D01*
X061663Y025650D01*
X061605Y025674D01*
X061549Y025702D01*
X061495Y025733D01*
X061443Y025767D01*
X061394Y025805D01*
X061346Y025846D01*
X061302Y025890D01*
X061260Y025936D01*
X061222Y025986D01*
X061186Y026037D01*
X061154Y026091D01*
X061126Y026146D01*
X061100Y026203D01*
X061079Y026262D01*
X061062Y026322D01*
X061048Y026383D01*
X061038Y026444D01*
X061032Y026507D01*
X061030Y026569D01*
X061030Y022194D02*
X061032Y022256D01*
X061038Y022319D01*
X061048Y022380D01*
X061062Y022441D01*
X061079Y022501D01*
X061100Y022560D01*
X061126Y022617D01*
X061154Y022672D01*
X061186Y022726D01*
X061222Y022777D01*
X061260Y022827D01*
X061302Y022873D01*
X061346Y022917D01*
X061394Y022958D01*
X061443Y022996D01*
X061495Y023030D01*
X061549Y023061D01*
X061605Y023089D01*
X061663Y023113D01*
X061722Y023134D01*
X061782Y023150D01*
X061843Y023163D01*
X061905Y023172D01*
X061967Y023177D01*
X062030Y023178D01*
X062092Y023175D01*
X062154Y023168D01*
X062216Y023157D01*
X062276Y023142D01*
X062336Y023124D01*
X062394Y023102D01*
X062451Y023076D01*
X062506Y023046D01*
X062559Y023013D01*
X062610Y022977D01*
X062658Y022938D01*
X062704Y022895D01*
X062747Y022850D01*
X062787Y022802D01*
X062824Y022752D01*
X062858Y022699D01*
X062889Y022645D01*
X062915Y022589D01*
X062939Y022531D01*
X062958Y022471D01*
X062974Y022411D01*
X062986Y022349D01*
X062994Y022288D01*
X062998Y022225D01*
X062998Y022163D01*
X062994Y022100D01*
X062986Y022039D01*
X062974Y021977D01*
X062958Y021917D01*
X062939Y021857D01*
X062915Y021799D01*
X062889Y021743D01*
X062858Y021689D01*
X062824Y021636D01*
X062787Y021586D01*
X062747Y021538D01*
X062704Y021493D01*
X062658Y021450D01*
X062610Y021411D01*
X062559Y021375D01*
X062506Y021342D01*
X062451Y021312D01*
X062394Y021286D01*
X062336Y021264D01*
X062276Y021246D01*
X062216Y021231D01*
X062154Y021220D01*
X062092Y021213D01*
X062030Y021210D01*
X061967Y021211D01*
X061905Y021216D01*
X061843Y021225D01*
X061782Y021238D01*
X061722Y021254D01*
X061663Y021275D01*
X061605Y021299D01*
X061549Y021327D01*
X061495Y021358D01*
X061443Y021392D01*
X061394Y021430D01*
X061346Y021471D01*
X061302Y021515D01*
X061260Y021561D01*
X061222Y021611D01*
X061186Y021662D01*
X061154Y021716D01*
X061126Y021771D01*
X061100Y021828D01*
X061079Y021887D01*
X061062Y021947D01*
X061048Y022008D01*
X061038Y022069D01*
X061032Y022132D01*
X061030Y022194D01*
X055655Y013694D02*
X055657Y013756D01*
X055663Y013819D01*
X055673Y013880D01*
X055687Y013941D01*
X055704Y014001D01*
X055725Y014060D01*
X055751Y014117D01*
X055779Y014172D01*
X055811Y014226D01*
X055847Y014277D01*
X055885Y014327D01*
X055927Y014373D01*
X055971Y014417D01*
X056019Y014458D01*
X056068Y014496D01*
X056120Y014530D01*
X056174Y014561D01*
X056230Y014589D01*
X056288Y014613D01*
X056347Y014634D01*
X056407Y014650D01*
X056468Y014663D01*
X056530Y014672D01*
X056592Y014677D01*
X056655Y014678D01*
X056717Y014675D01*
X056779Y014668D01*
X056841Y014657D01*
X056901Y014642D01*
X056961Y014624D01*
X057019Y014602D01*
X057076Y014576D01*
X057131Y014546D01*
X057184Y014513D01*
X057235Y014477D01*
X057283Y014438D01*
X057329Y014395D01*
X057372Y014350D01*
X057412Y014302D01*
X057449Y014252D01*
X057483Y014199D01*
X057514Y014145D01*
X057540Y014089D01*
X057564Y014031D01*
X057583Y013971D01*
X057599Y013911D01*
X057611Y013849D01*
X057619Y013788D01*
X057623Y013725D01*
X057623Y013663D01*
X057619Y013600D01*
X057611Y013539D01*
X057599Y013477D01*
X057583Y013417D01*
X057564Y013357D01*
X057540Y013299D01*
X057514Y013243D01*
X057483Y013189D01*
X057449Y013136D01*
X057412Y013086D01*
X057372Y013038D01*
X057329Y012993D01*
X057283Y012950D01*
X057235Y012911D01*
X057184Y012875D01*
X057131Y012842D01*
X057076Y012812D01*
X057019Y012786D01*
X056961Y012764D01*
X056901Y012746D01*
X056841Y012731D01*
X056779Y012720D01*
X056717Y012713D01*
X056655Y012710D01*
X056592Y012711D01*
X056530Y012716D01*
X056468Y012725D01*
X056407Y012738D01*
X056347Y012754D01*
X056288Y012775D01*
X056230Y012799D01*
X056174Y012827D01*
X056120Y012858D01*
X056068Y012892D01*
X056019Y012930D01*
X055971Y012971D01*
X055927Y013015D01*
X055885Y013061D01*
X055847Y013111D01*
X055811Y013162D01*
X055779Y013216D01*
X055751Y013271D01*
X055725Y013328D01*
X055704Y013387D01*
X055687Y013447D01*
X055673Y013508D01*
X055663Y013569D01*
X055657Y013632D01*
X055655Y013694D01*
X051655Y013819D02*
X051657Y013881D01*
X051663Y013944D01*
X051673Y014005D01*
X051687Y014066D01*
X051704Y014126D01*
X051725Y014185D01*
X051751Y014242D01*
X051779Y014297D01*
X051811Y014351D01*
X051847Y014402D01*
X051885Y014452D01*
X051927Y014498D01*
X051971Y014542D01*
X052019Y014583D01*
X052068Y014621D01*
X052120Y014655D01*
X052174Y014686D01*
X052230Y014714D01*
X052288Y014738D01*
X052347Y014759D01*
X052407Y014775D01*
X052468Y014788D01*
X052530Y014797D01*
X052592Y014802D01*
X052655Y014803D01*
X052717Y014800D01*
X052779Y014793D01*
X052841Y014782D01*
X052901Y014767D01*
X052961Y014749D01*
X053019Y014727D01*
X053076Y014701D01*
X053131Y014671D01*
X053184Y014638D01*
X053235Y014602D01*
X053283Y014563D01*
X053329Y014520D01*
X053372Y014475D01*
X053412Y014427D01*
X053449Y014377D01*
X053483Y014324D01*
X053514Y014270D01*
X053540Y014214D01*
X053564Y014156D01*
X053583Y014096D01*
X053599Y014036D01*
X053611Y013974D01*
X053619Y013913D01*
X053623Y013850D01*
X053623Y013788D01*
X053619Y013725D01*
X053611Y013664D01*
X053599Y013602D01*
X053583Y013542D01*
X053564Y013482D01*
X053540Y013424D01*
X053514Y013368D01*
X053483Y013314D01*
X053449Y013261D01*
X053412Y013211D01*
X053372Y013163D01*
X053329Y013118D01*
X053283Y013075D01*
X053235Y013036D01*
X053184Y013000D01*
X053131Y012967D01*
X053076Y012937D01*
X053019Y012911D01*
X052961Y012889D01*
X052901Y012871D01*
X052841Y012856D01*
X052779Y012845D01*
X052717Y012838D01*
X052655Y012835D01*
X052592Y012836D01*
X052530Y012841D01*
X052468Y012850D01*
X052407Y012863D01*
X052347Y012879D01*
X052288Y012900D01*
X052230Y012924D01*
X052174Y012952D01*
X052120Y012983D01*
X052068Y013017D01*
X052019Y013055D01*
X051971Y013096D01*
X051927Y013140D01*
X051885Y013186D01*
X051847Y013236D01*
X051811Y013287D01*
X051779Y013341D01*
X051751Y013396D01*
X051725Y013453D01*
X051704Y013512D01*
X051687Y013572D01*
X051673Y013633D01*
X051663Y013694D01*
X051657Y013757D01*
X051655Y013819D01*
X046780Y013819D02*
X046782Y013881D01*
X046788Y013944D01*
X046798Y014005D01*
X046812Y014066D01*
X046829Y014126D01*
X046850Y014185D01*
X046876Y014242D01*
X046904Y014297D01*
X046936Y014351D01*
X046972Y014402D01*
X047010Y014452D01*
X047052Y014498D01*
X047096Y014542D01*
X047144Y014583D01*
X047193Y014621D01*
X047245Y014655D01*
X047299Y014686D01*
X047355Y014714D01*
X047413Y014738D01*
X047472Y014759D01*
X047532Y014775D01*
X047593Y014788D01*
X047655Y014797D01*
X047717Y014802D01*
X047780Y014803D01*
X047842Y014800D01*
X047904Y014793D01*
X047966Y014782D01*
X048026Y014767D01*
X048086Y014749D01*
X048144Y014727D01*
X048201Y014701D01*
X048256Y014671D01*
X048309Y014638D01*
X048360Y014602D01*
X048408Y014563D01*
X048454Y014520D01*
X048497Y014475D01*
X048537Y014427D01*
X048574Y014377D01*
X048608Y014324D01*
X048639Y014270D01*
X048665Y014214D01*
X048689Y014156D01*
X048708Y014096D01*
X048724Y014036D01*
X048736Y013974D01*
X048744Y013913D01*
X048748Y013850D01*
X048748Y013788D01*
X048744Y013725D01*
X048736Y013664D01*
X048724Y013602D01*
X048708Y013542D01*
X048689Y013482D01*
X048665Y013424D01*
X048639Y013368D01*
X048608Y013314D01*
X048574Y013261D01*
X048537Y013211D01*
X048497Y013163D01*
X048454Y013118D01*
X048408Y013075D01*
X048360Y013036D01*
X048309Y013000D01*
X048256Y012967D01*
X048201Y012937D01*
X048144Y012911D01*
X048086Y012889D01*
X048026Y012871D01*
X047966Y012856D01*
X047904Y012845D01*
X047842Y012838D01*
X047780Y012835D01*
X047717Y012836D01*
X047655Y012841D01*
X047593Y012850D01*
X047532Y012863D01*
X047472Y012879D01*
X047413Y012900D01*
X047355Y012924D01*
X047299Y012952D01*
X047245Y012983D01*
X047193Y013017D01*
X047144Y013055D01*
X047096Y013096D01*
X047052Y013140D01*
X047010Y013186D01*
X046972Y013236D01*
X046936Y013287D01*
X046904Y013341D01*
X046876Y013396D01*
X046850Y013453D01*
X046829Y013512D01*
X046812Y013572D01*
X046798Y013633D01*
X046788Y013694D01*
X046782Y013757D01*
X046780Y013819D01*
X037030Y013819D02*
X037032Y013881D01*
X037038Y013944D01*
X037048Y014005D01*
X037062Y014066D01*
X037079Y014126D01*
X037100Y014185D01*
X037126Y014242D01*
X037154Y014297D01*
X037186Y014351D01*
X037222Y014402D01*
X037260Y014452D01*
X037302Y014498D01*
X037346Y014542D01*
X037394Y014583D01*
X037443Y014621D01*
X037495Y014655D01*
X037549Y014686D01*
X037605Y014714D01*
X037663Y014738D01*
X037722Y014759D01*
X037782Y014775D01*
X037843Y014788D01*
X037905Y014797D01*
X037967Y014802D01*
X038030Y014803D01*
X038092Y014800D01*
X038154Y014793D01*
X038216Y014782D01*
X038276Y014767D01*
X038336Y014749D01*
X038394Y014727D01*
X038451Y014701D01*
X038506Y014671D01*
X038559Y014638D01*
X038610Y014602D01*
X038658Y014563D01*
X038704Y014520D01*
X038747Y014475D01*
X038787Y014427D01*
X038824Y014377D01*
X038858Y014324D01*
X038889Y014270D01*
X038915Y014214D01*
X038939Y014156D01*
X038958Y014096D01*
X038974Y014036D01*
X038986Y013974D01*
X038994Y013913D01*
X038998Y013850D01*
X038998Y013788D01*
X038994Y013725D01*
X038986Y013664D01*
X038974Y013602D01*
X038958Y013542D01*
X038939Y013482D01*
X038915Y013424D01*
X038889Y013368D01*
X038858Y013314D01*
X038824Y013261D01*
X038787Y013211D01*
X038747Y013163D01*
X038704Y013118D01*
X038658Y013075D01*
X038610Y013036D01*
X038559Y013000D01*
X038506Y012967D01*
X038451Y012937D01*
X038394Y012911D01*
X038336Y012889D01*
X038276Y012871D01*
X038216Y012856D01*
X038154Y012845D01*
X038092Y012838D01*
X038030Y012835D01*
X037967Y012836D01*
X037905Y012841D01*
X037843Y012850D01*
X037782Y012863D01*
X037722Y012879D01*
X037663Y012900D01*
X037605Y012924D01*
X037549Y012952D01*
X037495Y012983D01*
X037443Y013017D01*
X037394Y013055D01*
X037346Y013096D01*
X037302Y013140D01*
X037260Y013186D01*
X037222Y013236D01*
X037186Y013287D01*
X037154Y013341D01*
X037126Y013396D01*
X037100Y013453D01*
X037079Y013512D01*
X037062Y013572D01*
X037048Y013633D01*
X037038Y013694D01*
X037032Y013757D01*
X037030Y013819D01*
X028905Y013944D02*
X028907Y014006D01*
X028913Y014069D01*
X028923Y014130D01*
X028937Y014191D01*
X028954Y014251D01*
X028975Y014310D01*
X029001Y014367D01*
X029029Y014422D01*
X029061Y014476D01*
X029097Y014527D01*
X029135Y014577D01*
X029177Y014623D01*
X029221Y014667D01*
X029269Y014708D01*
X029318Y014746D01*
X029370Y014780D01*
X029424Y014811D01*
X029480Y014839D01*
X029538Y014863D01*
X029597Y014884D01*
X029657Y014900D01*
X029718Y014913D01*
X029780Y014922D01*
X029842Y014927D01*
X029905Y014928D01*
X029967Y014925D01*
X030029Y014918D01*
X030091Y014907D01*
X030151Y014892D01*
X030211Y014874D01*
X030269Y014852D01*
X030326Y014826D01*
X030381Y014796D01*
X030434Y014763D01*
X030485Y014727D01*
X030533Y014688D01*
X030579Y014645D01*
X030622Y014600D01*
X030662Y014552D01*
X030699Y014502D01*
X030733Y014449D01*
X030764Y014395D01*
X030790Y014339D01*
X030814Y014281D01*
X030833Y014221D01*
X030849Y014161D01*
X030861Y014099D01*
X030869Y014038D01*
X030873Y013975D01*
X030873Y013913D01*
X030869Y013850D01*
X030861Y013789D01*
X030849Y013727D01*
X030833Y013667D01*
X030814Y013607D01*
X030790Y013549D01*
X030764Y013493D01*
X030733Y013439D01*
X030699Y013386D01*
X030662Y013336D01*
X030622Y013288D01*
X030579Y013243D01*
X030533Y013200D01*
X030485Y013161D01*
X030434Y013125D01*
X030381Y013092D01*
X030326Y013062D01*
X030269Y013036D01*
X030211Y013014D01*
X030151Y012996D01*
X030091Y012981D01*
X030029Y012970D01*
X029967Y012963D01*
X029905Y012960D01*
X029842Y012961D01*
X029780Y012966D01*
X029718Y012975D01*
X029657Y012988D01*
X029597Y013004D01*
X029538Y013025D01*
X029480Y013049D01*
X029424Y013077D01*
X029370Y013108D01*
X029318Y013142D01*
X029269Y013180D01*
X029221Y013221D01*
X029177Y013265D01*
X029135Y013311D01*
X029097Y013361D01*
X029061Y013412D01*
X029029Y013466D01*
X029001Y013521D01*
X028975Y013578D01*
X028954Y013637D01*
X028937Y013697D01*
X028923Y013758D01*
X028913Y013819D01*
X028907Y013882D01*
X028905Y013944D01*
D12*
X026192Y017569D02*
X026194Y017596D01*
X026200Y017623D01*
X026209Y017649D01*
X026222Y017673D01*
X026238Y017696D01*
X026257Y017715D01*
X026279Y017732D01*
X026303Y017746D01*
X026328Y017756D01*
X026355Y017763D01*
X026382Y017766D01*
X026410Y017765D01*
X026437Y017760D01*
X026463Y017752D01*
X026487Y017740D01*
X026510Y017724D01*
X026531Y017706D01*
X026548Y017685D01*
X026563Y017661D01*
X026574Y017636D01*
X026582Y017610D01*
X026586Y017583D01*
X026586Y017555D01*
X026582Y017528D01*
X026574Y017502D01*
X026563Y017477D01*
X026548Y017453D01*
X026531Y017432D01*
X026510Y017414D01*
X026488Y017398D01*
X026463Y017386D01*
X026437Y017378D01*
X026410Y017373D01*
X026382Y017372D01*
X026355Y017375D01*
X026328Y017382D01*
X026303Y017392D01*
X026279Y017406D01*
X026257Y017423D01*
X026238Y017442D01*
X026222Y017465D01*
X026209Y017489D01*
X026200Y017515D01*
X026194Y017542D01*
X026192Y017569D01*
X018692Y017569D02*
X018694Y017596D01*
X018700Y017623D01*
X018709Y017649D01*
X018722Y017673D01*
X018738Y017696D01*
X018757Y017715D01*
X018779Y017732D01*
X018803Y017746D01*
X018828Y017756D01*
X018855Y017763D01*
X018882Y017766D01*
X018910Y017765D01*
X018937Y017760D01*
X018963Y017752D01*
X018987Y017740D01*
X019010Y017724D01*
X019031Y017706D01*
X019048Y017685D01*
X019063Y017661D01*
X019074Y017636D01*
X019082Y017610D01*
X019086Y017583D01*
X019086Y017555D01*
X019082Y017528D01*
X019074Y017502D01*
X019063Y017477D01*
X019048Y017453D01*
X019031Y017432D01*
X019010Y017414D01*
X018988Y017398D01*
X018963Y017386D01*
X018937Y017378D01*
X018910Y017373D01*
X018882Y017372D01*
X018855Y017375D01*
X018828Y017382D01*
X018803Y017392D01*
X018779Y017406D01*
X018757Y017423D01*
X018738Y017442D01*
X018722Y017465D01*
X018709Y017489D01*
X018700Y017515D01*
X018694Y017542D01*
X018692Y017569D01*
X011192Y017569D02*
X011194Y017596D01*
X011200Y017623D01*
X011209Y017649D01*
X011222Y017673D01*
X011238Y017696D01*
X011257Y017715D01*
X011279Y017732D01*
X011303Y017746D01*
X011328Y017756D01*
X011355Y017763D01*
X011382Y017766D01*
X011410Y017765D01*
X011437Y017760D01*
X011463Y017752D01*
X011487Y017740D01*
X011510Y017724D01*
X011531Y017706D01*
X011548Y017685D01*
X011563Y017661D01*
X011574Y017636D01*
X011582Y017610D01*
X011586Y017583D01*
X011586Y017555D01*
X011582Y017528D01*
X011574Y017502D01*
X011563Y017477D01*
X011548Y017453D01*
X011531Y017432D01*
X011510Y017414D01*
X011488Y017398D01*
X011463Y017386D01*
X011437Y017378D01*
X011410Y017373D01*
X011382Y017372D01*
X011355Y017375D01*
X011328Y017382D01*
X011303Y017392D01*
X011279Y017406D01*
X011257Y017423D01*
X011238Y017442D01*
X011222Y017465D01*
X011209Y017489D01*
X011200Y017515D01*
X011194Y017542D01*
X011192Y017569D01*
X003692Y017569D02*
X003694Y017596D01*
X003700Y017623D01*
X003709Y017649D01*
X003722Y017673D01*
X003738Y017696D01*
X003757Y017715D01*
X003779Y017732D01*
X003803Y017746D01*
X003828Y017756D01*
X003855Y017763D01*
X003882Y017766D01*
X003910Y017765D01*
X003937Y017760D01*
X003963Y017752D01*
X003987Y017740D01*
X004010Y017724D01*
X004031Y017706D01*
X004048Y017685D01*
X004063Y017661D01*
X004074Y017636D01*
X004082Y017610D01*
X004086Y017583D01*
X004086Y017555D01*
X004082Y017528D01*
X004074Y017502D01*
X004063Y017477D01*
X004048Y017453D01*
X004031Y017432D01*
X004010Y017414D01*
X003988Y017398D01*
X003963Y017386D01*
X003937Y017378D01*
X003910Y017373D01*
X003882Y017372D01*
X003855Y017375D01*
X003828Y017382D01*
X003803Y017392D01*
X003779Y017406D01*
X003757Y017423D01*
X003738Y017442D01*
X003722Y017465D01*
X003709Y017489D01*
X003700Y017515D01*
X003694Y017542D01*
X003692Y017569D01*
X010442Y010069D02*
X010444Y010096D01*
X010450Y010123D01*
X010459Y010149D01*
X010472Y010173D01*
X010488Y010196D01*
X010507Y010215D01*
X010529Y010232D01*
X010553Y010246D01*
X010578Y010256D01*
X010605Y010263D01*
X010632Y010266D01*
X010660Y010265D01*
X010687Y010260D01*
X010713Y010252D01*
X010737Y010240D01*
X010760Y010224D01*
X010781Y010206D01*
X010798Y010185D01*
X010813Y010161D01*
X010824Y010136D01*
X010832Y010110D01*
X010836Y010083D01*
X010836Y010055D01*
X010832Y010028D01*
X010824Y010002D01*
X010813Y009977D01*
X010798Y009953D01*
X010781Y009932D01*
X010760Y009914D01*
X010738Y009898D01*
X010713Y009886D01*
X010687Y009878D01*
X010660Y009873D01*
X010632Y009872D01*
X010605Y009875D01*
X010578Y009882D01*
X010553Y009892D01*
X010529Y009906D01*
X010507Y009923D01*
X010488Y009942D01*
X010472Y009965D01*
X010459Y009989D01*
X010450Y010015D01*
X010444Y010042D01*
X010442Y010069D01*
X025692Y010069D02*
X025694Y010096D01*
X025700Y010123D01*
X025709Y010149D01*
X025722Y010173D01*
X025738Y010196D01*
X025757Y010215D01*
X025779Y010232D01*
X025803Y010246D01*
X025828Y010256D01*
X025855Y010263D01*
X025882Y010266D01*
X025910Y010265D01*
X025937Y010260D01*
X025963Y010252D01*
X025987Y010240D01*
X026010Y010224D01*
X026031Y010206D01*
X026048Y010185D01*
X026063Y010161D01*
X026074Y010136D01*
X026082Y010110D01*
X026086Y010083D01*
X026086Y010055D01*
X026082Y010028D01*
X026074Y010002D01*
X026063Y009977D01*
X026048Y009953D01*
X026031Y009932D01*
X026010Y009914D01*
X025988Y009898D01*
X025963Y009886D01*
X025937Y009878D01*
X025910Y009873D01*
X025882Y009872D01*
X025855Y009875D01*
X025828Y009882D01*
X025803Y009892D01*
X025779Y009906D01*
X025757Y009923D01*
X025738Y009942D01*
X025722Y009965D01*
X025709Y009989D01*
X025700Y010015D01*
X025694Y010042D01*
X025692Y010069D01*
X034192Y010069D02*
X034194Y010096D01*
X034200Y010123D01*
X034209Y010149D01*
X034222Y010173D01*
X034238Y010196D01*
X034257Y010215D01*
X034279Y010232D01*
X034303Y010246D01*
X034328Y010256D01*
X034355Y010263D01*
X034382Y010266D01*
X034410Y010265D01*
X034437Y010260D01*
X034463Y010252D01*
X034487Y010240D01*
X034510Y010224D01*
X034531Y010206D01*
X034548Y010185D01*
X034563Y010161D01*
X034574Y010136D01*
X034582Y010110D01*
X034586Y010083D01*
X034586Y010055D01*
X034582Y010028D01*
X034574Y010002D01*
X034563Y009977D01*
X034548Y009953D01*
X034531Y009932D01*
X034510Y009914D01*
X034488Y009898D01*
X034463Y009886D01*
X034437Y009878D01*
X034410Y009873D01*
X034382Y009872D01*
X034355Y009875D01*
X034328Y009882D01*
X034303Y009892D01*
X034279Y009906D01*
X034257Y009923D01*
X034238Y009942D01*
X034222Y009965D01*
X034209Y009989D01*
X034200Y010015D01*
X034194Y010042D01*
X034192Y010069D01*
X033692Y017569D02*
X033694Y017596D01*
X033700Y017623D01*
X033709Y017649D01*
X033722Y017673D01*
X033738Y017696D01*
X033757Y017715D01*
X033779Y017732D01*
X033803Y017746D01*
X033828Y017756D01*
X033855Y017763D01*
X033882Y017766D01*
X033910Y017765D01*
X033937Y017760D01*
X033963Y017752D01*
X033987Y017740D01*
X034010Y017724D01*
X034031Y017706D01*
X034048Y017685D01*
X034063Y017661D01*
X034074Y017636D01*
X034082Y017610D01*
X034086Y017583D01*
X034086Y017555D01*
X034082Y017528D01*
X034074Y017502D01*
X034063Y017477D01*
X034048Y017453D01*
X034031Y017432D01*
X034010Y017414D01*
X033988Y017398D01*
X033963Y017386D01*
X033937Y017378D01*
X033910Y017373D01*
X033882Y017372D01*
X033855Y017375D01*
X033828Y017382D01*
X033803Y017392D01*
X033779Y017406D01*
X033757Y017423D01*
X033738Y017442D01*
X033722Y017465D01*
X033709Y017489D01*
X033700Y017515D01*
X033694Y017542D01*
X033692Y017569D01*
X041192Y017569D02*
X041194Y017596D01*
X041200Y017623D01*
X041209Y017649D01*
X041222Y017673D01*
X041238Y017696D01*
X041257Y017715D01*
X041279Y017732D01*
X041303Y017746D01*
X041328Y017756D01*
X041355Y017763D01*
X041382Y017766D01*
X041410Y017765D01*
X041437Y017760D01*
X041463Y017752D01*
X041487Y017740D01*
X041510Y017724D01*
X041531Y017706D01*
X041548Y017685D01*
X041563Y017661D01*
X041574Y017636D01*
X041582Y017610D01*
X041586Y017583D01*
X041586Y017555D01*
X041582Y017528D01*
X041574Y017502D01*
X041563Y017477D01*
X041548Y017453D01*
X041531Y017432D01*
X041510Y017414D01*
X041488Y017398D01*
X041463Y017386D01*
X041437Y017378D01*
X041410Y017373D01*
X041382Y017372D01*
X041355Y017375D01*
X041328Y017382D01*
X041303Y017392D01*
X041279Y017406D01*
X041257Y017423D01*
X041238Y017442D01*
X041222Y017465D01*
X041209Y017489D01*
X041200Y017515D01*
X041194Y017542D01*
X041192Y017569D01*
X048692Y017569D02*
X048694Y017596D01*
X048700Y017623D01*
X048709Y017649D01*
X048722Y017673D01*
X048738Y017696D01*
X048757Y017715D01*
X048779Y017732D01*
X048803Y017746D01*
X048828Y017756D01*
X048855Y017763D01*
X048882Y017766D01*
X048910Y017765D01*
X048937Y017760D01*
X048963Y017752D01*
X048987Y017740D01*
X049010Y017724D01*
X049031Y017706D01*
X049048Y017685D01*
X049063Y017661D01*
X049074Y017636D01*
X049082Y017610D01*
X049086Y017583D01*
X049086Y017555D01*
X049082Y017528D01*
X049074Y017502D01*
X049063Y017477D01*
X049048Y017453D01*
X049031Y017432D01*
X049010Y017414D01*
X048988Y017398D01*
X048963Y017386D01*
X048937Y017378D01*
X048910Y017373D01*
X048882Y017372D01*
X048855Y017375D01*
X048828Y017382D01*
X048803Y017392D01*
X048779Y017406D01*
X048757Y017423D01*
X048738Y017442D01*
X048722Y017465D01*
X048709Y017489D01*
X048700Y017515D01*
X048694Y017542D01*
X048692Y017569D01*
X057192Y017569D02*
X057194Y017596D01*
X057200Y017623D01*
X057209Y017649D01*
X057222Y017673D01*
X057238Y017696D01*
X057257Y017715D01*
X057279Y017732D01*
X057303Y017746D01*
X057328Y017756D01*
X057355Y017763D01*
X057382Y017766D01*
X057410Y017765D01*
X057437Y017760D01*
X057463Y017752D01*
X057487Y017740D01*
X057510Y017724D01*
X057531Y017706D01*
X057548Y017685D01*
X057563Y017661D01*
X057574Y017636D01*
X057582Y017610D01*
X057586Y017583D01*
X057586Y017555D01*
X057582Y017528D01*
X057574Y017502D01*
X057563Y017477D01*
X057548Y017453D01*
X057531Y017432D01*
X057510Y017414D01*
X057488Y017398D01*
X057463Y017386D01*
X057437Y017378D01*
X057410Y017373D01*
X057382Y017372D01*
X057355Y017375D01*
X057328Y017382D01*
X057303Y017392D01*
X057279Y017406D01*
X057257Y017423D01*
X057238Y017442D01*
X057222Y017465D01*
X057209Y017489D01*
X057200Y017515D01*
X057194Y017542D01*
X057192Y017569D01*
X060692Y010069D02*
X060694Y010096D01*
X060700Y010123D01*
X060709Y010149D01*
X060722Y010173D01*
X060738Y010196D01*
X060757Y010215D01*
X060779Y010232D01*
X060803Y010246D01*
X060828Y010256D01*
X060855Y010263D01*
X060882Y010266D01*
X060910Y010265D01*
X060937Y010260D01*
X060963Y010252D01*
X060987Y010240D01*
X061010Y010224D01*
X061031Y010206D01*
X061048Y010185D01*
X061063Y010161D01*
X061074Y010136D01*
X061082Y010110D01*
X061086Y010083D01*
X061086Y010055D01*
X061082Y010028D01*
X061074Y010002D01*
X061063Y009977D01*
X061048Y009953D01*
X061031Y009932D01*
X061010Y009914D01*
X060988Y009898D01*
X060963Y009886D01*
X060937Y009878D01*
X060910Y009873D01*
X060882Y009872D01*
X060855Y009875D01*
X060828Y009882D01*
X060803Y009892D01*
X060779Y009906D01*
X060757Y009923D01*
X060738Y009942D01*
X060722Y009965D01*
X060709Y009989D01*
X060700Y010015D01*
X060694Y010042D01*
X060692Y010069D01*
X052192Y010069D02*
X052194Y010096D01*
X052200Y010123D01*
X052209Y010149D01*
X052222Y010173D01*
X052238Y010196D01*
X052257Y010215D01*
X052279Y010232D01*
X052303Y010246D01*
X052328Y010256D01*
X052355Y010263D01*
X052382Y010266D01*
X052410Y010265D01*
X052437Y010260D01*
X052463Y010252D01*
X052487Y010240D01*
X052510Y010224D01*
X052531Y010206D01*
X052548Y010185D01*
X052563Y010161D01*
X052574Y010136D01*
X052582Y010110D01*
X052586Y010083D01*
X052586Y010055D01*
X052582Y010028D01*
X052574Y010002D01*
X052563Y009977D01*
X052548Y009953D01*
X052531Y009932D01*
X052510Y009914D01*
X052488Y009898D01*
X052463Y009886D01*
X052437Y009878D01*
X052410Y009873D01*
X052382Y009872D01*
X052355Y009875D01*
X052328Y009882D01*
X052303Y009892D01*
X052279Y009906D01*
X052257Y009923D01*
X052238Y009942D01*
X052222Y009965D01*
X052209Y009989D01*
X052200Y010015D01*
X052194Y010042D01*
X052192Y010069D01*
X042692Y010069D02*
X042694Y010096D01*
X042700Y010123D01*
X042709Y010149D01*
X042722Y010173D01*
X042738Y010196D01*
X042757Y010215D01*
X042779Y010232D01*
X042803Y010246D01*
X042828Y010256D01*
X042855Y010263D01*
X042882Y010266D01*
X042910Y010265D01*
X042937Y010260D01*
X042963Y010252D01*
X042987Y010240D01*
X043010Y010224D01*
X043031Y010206D01*
X043048Y010185D01*
X043063Y010161D01*
X043074Y010136D01*
X043082Y010110D01*
X043086Y010083D01*
X043086Y010055D01*
X043082Y010028D01*
X043074Y010002D01*
X043063Y009977D01*
X043048Y009953D01*
X043031Y009932D01*
X043010Y009914D01*
X042988Y009898D01*
X042963Y009886D01*
X042937Y009878D01*
X042910Y009873D01*
X042882Y009872D01*
X042855Y009875D01*
X042828Y009882D01*
X042803Y009892D01*
X042779Y009906D01*
X042757Y009923D01*
X042738Y009942D01*
X042722Y009965D01*
X042709Y009989D01*
X042700Y010015D01*
X042694Y010042D01*
X042692Y010069D01*
X041192Y025069D02*
X041194Y025096D01*
X041200Y025123D01*
X041209Y025149D01*
X041222Y025173D01*
X041238Y025196D01*
X041257Y025215D01*
X041279Y025232D01*
X041303Y025246D01*
X041328Y025256D01*
X041355Y025263D01*
X041382Y025266D01*
X041410Y025265D01*
X041437Y025260D01*
X041463Y025252D01*
X041487Y025240D01*
X041510Y025224D01*
X041531Y025206D01*
X041548Y025185D01*
X041563Y025161D01*
X041574Y025136D01*
X041582Y025110D01*
X041586Y025083D01*
X041586Y025055D01*
X041582Y025028D01*
X041574Y025002D01*
X041563Y024977D01*
X041548Y024953D01*
X041531Y024932D01*
X041510Y024914D01*
X041488Y024898D01*
X041463Y024886D01*
X041437Y024878D01*
X041410Y024873D01*
X041382Y024872D01*
X041355Y024875D01*
X041328Y024882D01*
X041303Y024892D01*
X041279Y024906D01*
X041257Y024923D01*
X041238Y024942D01*
X041222Y024965D01*
X041209Y024989D01*
X041200Y025015D01*
X041194Y025042D01*
X041192Y025069D01*
X033692Y025069D02*
X033694Y025096D01*
X033700Y025123D01*
X033709Y025149D01*
X033722Y025173D01*
X033738Y025196D01*
X033757Y025215D01*
X033779Y025232D01*
X033803Y025246D01*
X033828Y025256D01*
X033855Y025263D01*
X033882Y025266D01*
X033910Y025265D01*
X033937Y025260D01*
X033963Y025252D01*
X033987Y025240D01*
X034010Y025224D01*
X034031Y025206D01*
X034048Y025185D01*
X034063Y025161D01*
X034074Y025136D01*
X034082Y025110D01*
X034086Y025083D01*
X034086Y025055D01*
X034082Y025028D01*
X034074Y025002D01*
X034063Y024977D01*
X034048Y024953D01*
X034031Y024932D01*
X034010Y024914D01*
X033988Y024898D01*
X033963Y024886D01*
X033937Y024878D01*
X033910Y024873D01*
X033882Y024872D01*
X033855Y024875D01*
X033828Y024882D01*
X033803Y024892D01*
X033779Y024906D01*
X033757Y024923D01*
X033738Y024942D01*
X033722Y024965D01*
X033709Y024989D01*
X033700Y025015D01*
X033694Y025042D01*
X033692Y025069D01*
X026192Y025069D02*
X026194Y025096D01*
X026200Y025123D01*
X026209Y025149D01*
X026222Y025173D01*
X026238Y025196D01*
X026257Y025215D01*
X026279Y025232D01*
X026303Y025246D01*
X026328Y025256D01*
X026355Y025263D01*
X026382Y025266D01*
X026410Y025265D01*
X026437Y025260D01*
X026463Y025252D01*
X026487Y025240D01*
X026510Y025224D01*
X026531Y025206D01*
X026548Y025185D01*
X026563Y025161D01*
X026574Y025136D01*
X026582Y025110D01*
X026586Y025083D01*
X026586Y025055D01*
X026582Y025028D01*
X026574Y025002D01*
X026563Y024977D01*
X026548Y024953D01*
X026531Y024932D01*
X026510Y024914D01*
X026488Y024898D01*
X026463Y024886D01*
X026437Y024878D01*
X026410Y024873D01*
X026382Y024872D01*
X026355Y024875D01*
X026328Y024882D01*
X026303Y024892D01*
X026279Y024906D01*
X026257Y024923D01*
X026238Y024942D01*
X026222Y024965D01*
X026209Y024989D01*
X026200Y025015D01*
X026194Y025042D01*
X026192Y025069D01*
X018692Y025069D02*
X018694Y025096D01*
X018700Y025123D01*
X018709Y025149D01*
X018722Y025173D01*
X018738Y025196D01*
X018757Y025215D01*
X018779Y025232D01*
X018803Y025246D01*
X018828Y025256D01*
X018855Y025263D01*
X018882Y025266D01*
X018910Y025265D01*
X018937Y025260D01*
X018963Y025252D01*
X018987Y025240D01*
X019010Y025224D01*
X019031Y025206D01*
X019048Y025185D01*
X019063Y025161D01*
X019074Y025136D01*
X019082Y025110D01*
X019086Y025083D01*
X019086Y025055D01*
X019082Y025028D01*
X019074Y025002D01*
X019063Y024977D01*
X019048Y024953D01*
X019031Y024932D01*
X019010Y024914D01*
X018988Y024898D01*
X018963Y024886D01*
X018937Y024878D01*
X018910Y024873D01*
X018882Y024872D01*
X018855Y024875D01*
X018828Y024882D01*
X018803Y024892D01*
X018779Y024906D01*
X018757Y024923D01*
X018738Y024942D01*
X018722Y024965D01*
X018709Y024989D01*
X018700Y025015D01*
X018694Y025042D01*
X018692Y025069D01*
X011192Y025069D02*
X011194Y025096D01*
X011200Y025123D01*
X011209Y025149D01*
X011222Y025173D01*
X011238Y025196D01*
X011257Y025215D01*
X011279Y025232D01*
X011303Y025246D01*
X011328Y025256D01*
X011355Y025263D01*
X011382Y025266D01*
X011410Y025265D01*
X011437Y025260D01*
X011463Y025252D01*
X011487Y025240D01*
X011510Y025224D01*
X011531Y025206D01*
X011548Y025185D01*
X011563Y025161D01*
X011574Y025136D01*
X011582Y025110D01*
X011586Y025083D01*
X011586Y025055D01*
X011582Y025028D01*
X011574Y025002D01*
X011563Y024977D01*
X011548Y024953D01*
X011531Y024932D01*
X011510Y024914D01*
X011488Y024898D01*
X011463Y024886D01*
X011437Y024878D01*
X011410Y024873D01*
X011382Y024872D01*
X011355Y024875D01*
X011328Y024882D01*
X011303Y024892D01*
X011279Y024906D01*
X011257Y024923D01*
X011238Y024942D01*
X011222Y024965D01*
X011209Y024989D01*
X011200Y025015D01*
X011194Y025042D01*
X011192Y025069D01*
X003692Y025069D02*
X003694Y025096D01*
X003700Y025123D01*
X003709Y025149D01*
X003722Y025173D01*
X003738Y025196D01*
X003757Y025215D01*
X003779Y025232D01*
X003803Y025246D01*
X003828Y025256D01*
X003855Y025263D01*
X003882Y025266D01*
X003910Y025265D01*
X003937Y025260D01*
X003963Y025252D01*
X003987Y025240D01*
X004010Y025224D01*
X004031Y025206D01*
X004048Y025185D01*
X004063Y025161D01*
X004074Y025136D01*
X004082Y025110D01*
X004086Y025083D01*
X004086Y025055D01*
X004082Y025028D01*
X004074Y025002D01*
X004063Y024977D01*
X004048Y024953D01*
X004031Y024932D01*
X004010Y024914D01*
X003988Y024898D01*
X003963Y024886D01*
X003937Y024878D01*
X003910Y024873D01*
X003882Y024872D01*
X003855Y024875D01*
X003828Y024882D01*
X003803Y024892D01*
X003779Y024906D01*
X003757Y024923D01*
X003738Y024942D01*
X003722Y024965D01*
X003709Y024989D01*
X003700Y025015D01*
X003694Y025042D01*
X003692Y025069D01*
X003692Y032569D02*
X003694Y032596D01*
X003700Y032623D01*
X003709Y032649D01*
X003722Y032673D01*
X003738Y032696D01*
X003757Y032715D01*
X003779Y032732D01*
X003803Y032746D01*
X003828Y032756D01*
X003855Y032763D01*
X003882Y032766D01*
X003910Y032765D01*
X003937Y032760D01*
X003963Y032752D01*
X003987Y032740D01*
X004010Y032724D01*
X004031Y032706D01*
X004048Y032685D01*
X004063Y032661D01*
X004074Y032636D01*
X004082Y032610D01*
X004086Y032583D01*
X004086Y032555D01*
X004082Y032528D01*
X004074Y032502D01*
X004063Y032477D01*
X004048Y032453D01*
X004031Y032432D01*
X004010Y032414D01*
X003988Y032398D01*
X003963Y032386D01*
X003937Y032378D01*
X003910Y032373D01*
X003882Y032372D01*
X003855Y032375D01*
X003828Y032382D01*
X003803Y032392D01*
X003779Y032406D01*
X003757Y032423D01*
X003738Y032442D01*
X003722Y032465D01*
X003709Y032489D01*
X003700Y032515D01*
X003694Y032542D01*
X003692Y032569D01*
X011192Y032569D02*
X011194Y032596D01*
X011200Y032623D01*
X011209Y032649D01*
X011222Y032673D01*
X011238Y032696D01*
X011257Y032715D01*
X011279Y032732D01*
X011303Y032746D01*
X011328Y032756D01*
X011355Y032763D01*
X011382Y032766D01*
X011410Y032765D01*
X011437Y032760D01*
X011463Y032752D01*
X011487Y032740D01*
X011510Y032724D01*
X011531Y032706D01*
X011548Y032685D01*
X011563Y032661D01*
X011574Y032636D01*
X011582Y032610D01*
X011586Y032583D01*
X011586Y032555D01*
X011582Y032528D01*
X011574Y032502D01*
X011563Y032477D01*
X011548Y032453D01*
X011531Y032432D01*
X011510Y032414D01*
X011488Y032398D01*
X011463Y032386D01*
X011437Y032378D01*
X011410Y032373D01*
X011382Y032372D01*
X011355Y032375D01*
X011328Y032382D01*
X011303Y032392D01*
X011279Y032406D01*
X011257Y032423D01*
X011238Y032442D01*
X011222Y032465D01*
X011209Y032489D01*
X011200Y032515D01*
X011194Y032542D01*
X011192Y032569D01*
X018692Y032569D02*
X018694Y032596D01*
X018700Y032623D01*
X018709Y032649D01*
X018722Y032673D01*
X018738Y032696D01*
X018757Y032715D01*
X018779Y032732D01*
X018803Y032746D01*
X018828Y032756D01*
X018855Y032763D01*
X018882Y032766D01*
X018910Y032765D01*
X018937Y032760D01*
X018963Y032752D01*
X018987Y032740D01*
X019010Y032724D01*
X019031Y032706D01*
X019048Y032685D01*
X019063Y032661D01*
X019074Y032636D01*
X019082Y032610D01*
X019086Y032583D01*
X019086Y032555D01*
X019082Y032528D01*
X019074Y032502D01*
X019063Y032477D01*
X019048Y032453D01*
X019031Y032432D01*
X019010Y032414D01*
X018988Y032398D01*
X018963Y032386D01*
X018937Y032378D01*
X018910Y032373D01*
X018882Y032372D01*
X018855Y032375D01*
X018828Y032382D01*
X018803Y032392D01*
X018779Y032406D01*
X018757Y032423D01*
X018738Y032442D01*
X018722Y032465D01*
X018709Y032489D01*
X018700Y032515D01*
X018694Y032542D01*
X018692Y032569D01*
X026192Y032569D02*
X026194Y032596D01*
X026200Y032623D01*
X026209Y032649D01*
X026222Y032673D01*
X026238Y032696D01*
X026257Y032715D01*
X026279Y032732D01*
X026303Y032746D01*
X026328Y032756D01*
X026355Y032763D01*
X026382Y032766D01*
X026410Y032765D01*
X026437Y032760D01*
X026463Y032752D01*
X026487Y032740D01*
X026510Y032724D01*
X026531Y032706D01*
X026548Y032685D01*
X026563Y032661D01*
X026574Y032636D01*
X026582Y032610D01*
X026586Y032583D01*
X026586Y032555D01*
X026582Y032528D01*
X026574Y032502D01*
X026563Y032477D01*
X026548Y032453D01*
X026531Y032432D01*
X026510Y032414D01*
X026488Y032398D01*
X026463Y032386D01*
X026437Y032378D01*
X026410Y032373D01*
X026382Y032372D01*
X026355Y032375D01*
X026328Y032382D01*
X026303Y032392D01*
X026279Y032406D01*
X026257Y032423D01*
X026238Y032442D01*
X026222Y032465D01*
X026209Y032489D01*
X026200Y032515D01*
X026194Y032542D01*
X026192Y032569D01*
X033692Y032569D02*
X033694Y032596D01*
X033700Y032623D01*
X033709Y032649D01*
X033722Y032673D01*
X033738Y032696D01*
X033757Y032715D01*
X033779Y032732D01*
X033803Y032746D01*
X033828Y032756D01*
X033855Y032763D01*
X033882Y032766D01*
X033910Y032765D01*
X033937Y032760D01*
X033963Y032752D01*
X033987Y032740D01*
X034010Y032724D01*
X034031Y032706D01*
X034048Y032685D01*
X034063Y032661D01*
X034074Y032636D01*
X034082Y032610D01*
X034086Y032583D01*
X034086Y032555D01*
X034082Y032528D01*
X034074Y032502D01*
X034063Y032477D01*
X034048Y032453D01*
X034031Y032432D01*
X034010Y032414D01*
X033988Y032398D01*
X033963Y032386D01*
X033937Y032378D01*
X033910Y032373D01*
X033882Y032372D01*
X033855Y032375D01*
X033828Y032382D01*
X033803Y032392D01*
X033779Y032406D01*
X033757Y032423D01*
X033738Y032442D01*
X033722Y032465D01*
X033709Y032489D01*
X033700Y032515D01*
X033694Y032542D01*
X033692Y032569D01*
X041192Y032569D02*
X041194Y032596D01*
X041200Y032623D01*
X041209Y032649D01*
X041222Y032673D01*
X041238Y032696D01*
X041257Y032715D01*
X041279Y032732D01*
X041303Y032746D01*
X041328Y032756D01*
X041355Y032763D01*
X041382Y032766D01*
X041410Y032765D01*
X041437Y032760D01*
X041463Y032752D01*
X041487Y032740D01*
X041510Y032724D01*
X041531Y032706D01*
X041548Y032685D01*
X041563Y032661D01*
X041574Y032636D01*
X041582Y032610D01*
X041586Y032583D01*
X041586Y032555D01*
X041582Y032528D01*
X041574Y032502D01*
X041563Y032477D01*
X041548Y032453D01*
X041531Y032432D01*
X041510Y032414D01*
X041488Y032398D01*
X041463Y032386D01*
X041437Y032378D01*
X041410Y032373D01*
X041382Y032372D01*
X041355Y032375D01*
X041328Y032382D01*
X041303Y032392D01*
X041279Y032406D01*
X041257Y032423D01*
X041238Y032442D01*
X041222Y032465D01*
X041209Y032489D01*
X041200Y032515D01*
X041194Y032542D01*
X041192Y032569D01*
X048692Y032569D02*
X048694Y032596D01*
X048700Y032623D01*
X048709Y032649D01*
X048722Y032673D01*
X048738Y032696D01*
X048757Y032715D01*
X048779Y032732D01*
X048803Y032746D01*
X048828Y032756D01*
X048855Y032763D01*
X048882Y032766D01*
X048910Y032765D01*
X048937Y032760D01*
X048963Y032752D01*
X048987Y032740D01*
X049010Y032724D01*
X049031Y032706D01*
X049048Y032685D01*
X049063Y032661D01*
X049074Y032636D01*
X049082Y032610D01*
X049086Y032583D01*
X049086Y032555D01*
X049082Y032528D01*
X049074Y032502D01*
X049063Y032477D01*
X049048Y032453D01*
X049031Y032432D01*
X049010Y032414D01*
X048988Y032398D01*
X048963Y032386D01*
X048937Y032378D01*
X048910Y032373D01*
X048882Y032372D01*
X048855Y032375D01*
X048828Y032382D01*
X048803Y032392D01*
X048779Y032406D01*
X048757Y032423D01*
X048738Y032442D01*
X048722Y032465D01*
X048709Y032489D01*
X048700Y032515D01*
X048694Y032542D01*
X048692Y032569D01*
X055602Y032569D02*
X055604Y032625D01*
X055610Y032680D01*
X055620Y032734D01*
X055633Y032788D01*
X055651Y032841D01*
X055672Y032892D01*
X055696Y032942D01*
X055724Y032990D01*
X055756Y033036D01*
X055790Y033080D01*
X055828Y033121D01*
X055868Y033159D01*
X055911Y033194D01*
X055956Y033226D01*
X056004Y033255D01*
X056053Y033281D01*
X056104Y033303D01*
X056156Y033321D01*
X056210Y033335D01*
X056265Y033346D01*
X056320Y033353D01*
X056375Y033356D01*
X056431Y033355D01*
X056486Y033350D01*
X056541Y033341D01*
X056595Y033329D01*
X056648Y033312D01*
X056700Y033292D01*
X056750Y033268D01*
X056798Y033241D01*
X056845Y033211D01*
X056889Y033177D01*
X056931Y033140D01*
X056969Y033100D01*
X057006Y033058D01*
X057039Y033013D01*
X057068Y032967D01*
X057095Y032918D01*
X057117Y032867D01*
X057137Y032815D01*
X057152Y032761D01*
X057164Y032707D01*
X057172Y032652D01*
X057176Y032597D01*
X057176Y032541D01*
X057172Y032486D01*
X057164Y032431D01*
X057152Y032377D01*
X057137Y032323D01*
X057117Y032271D01*
X057095Y032220D01*
X057068Y032171D01*
X057039Y032125D01*
X057006Y032080D01*
X056969Y032038D01*
X056931Y031998D01*
X056889Y031961D01*
X056845Y031927D01*
X056798Y031897D01*
X056750Y031870D01*
X056700Y031846D01*
X056648Y031826D01*
X056595Y031809D01*
X056541Y031797D01*
X056486Y031788D01*
X056431Y031783D01*
X056375Y031782D01*
X056320Y031785D01*
X056265Y031792D01*
X056210Y031803D01*
X056156Y031817D01*
X056104Y031835D01*
X056053Y031857D01*
X056004Y031883D01*
X055956Y031912D01*
X055911Y031944D01*
X055868Y031979D01*
X055828Y032017D01*
X055790Y032058D01*
X055756Y032102D01*
X055724Y032148D01*
X055696Y032196D01*
X055672Y032246D01*
X055651Y032297D01*
X055633Y032350D01*
X055620Y032404D01*
X055610Y032458D01*
X055604Y032513D01*
X055602Y032569D01*
X058192Y032569D02*
X058194Y032596D01*
X058200Y032623D01*
X058209Y032649D01*
X058222Y032673D01*
X058238Y032696D01*
X058257Y032715D01*
X058279Y032732D01*
X058303Y032746D01*
X058328Y032756D01*
X058355Y032763D01*
X058382Y032766D01*
X058410Y032765D01*
X058437Y032760D01*
X058463Y032752D01*
X058487Y032740D01*
X058510Y032724D01*
X058531Y032706D01*
X058548Y032685D01*
X058563Y032661D01*
X058574Y032636D01*
X058582Y032610D01*
X058586Y032583D01*
X058586Y032555D01*
X058582Y032528D01*
X058574Y032502D01*
X058563Y032477D01*
X058548Y032453D01*
X058531Y032432D01*
X058510Y032414D01*
X058488Y032398D01*
X058463Y032386D01*
X058437Y032378D01*
X058410Y032373D01*
X058382Y032372D01*
X058355Y032375D01*
X058328Y032382D01*
X058303Y032392D01*
X058279Y032406D01*
X058257Y032423D01*
X058238Y032442D01*
X058222Y032465D01*
X058209Y032489D01*
X058200Y032515D01*
X058194Y032542D01*
X058192Y032569D01*
X053442Y025069D02*
X053444Y025096D01*
X053450Y025123D01*
X053459Y025149D01*
X053472Y025173D01*
X053488Y025196D01*
X053507Y025215D01*
X053529Y025232D01*
X053553Y025246D01*
X053578Y025256D01*
X053605Y025263D01*
X053632Y025266D01*
X053660Y025265D01*
X053687Y025260D01*
X053713Y025252D01*
X053737Y025240D01*
X053760Y025224D01*
X053781Y025206D01*
X053798Y025185D01*
X053813Y025161D01*
X053824Y025136D01*
X053832Y025110D01*
X053836Y025083D01*
X053836Y025055D01*
X053832Y025028D01*
X053824Y025002D01*
X053813Y024977D01*
X053798Y024953D01*
X053781Y024932D01*
X053760Y024914D01*
X053738Y024898D01*
X053713Y024886D01*
X053687Y024878D01*
X053660Y024873D01*
X053632Y024872D01*
X053605Y024875D01*
X053578Y024882D01*
X053553Y024892D01*
X053529Y024906D01*
X053507Y024923D01*
X053488Y024942D01*
X053472Y024965D01*
X053459Y024989D01*
X053450Y025015D01*
X053444Y025042D01*
X053442Y025069D01*
X051852Y025069D02*
X051854Y025125D01*
X051860Y025180D01*
X051870Y025234D01*
X051883Y025288D01*
X051901Y025341D01*
X051922Y025392D01*
X051946Y025442D01*
X051974Y025490D01*
X052006Y025536D01*
X052040Y025580D01*
X052078Y025621D01*
X052118Y025659D01*
X052161Y025694D01*
X052206Y025726D01*
X052254Y025755D01*
X052303Y025781D01*
X052354Y025803D01*
X052406Y025821D01*
X052460Y025835D01*
X052515Y025846D01*
X052570Y025853D01*
X052625Y025856D01*
X052681Y025855D01*
X052736Y025850D01*
X052791Y025841D01*
X052845Y025829D01*
X052898Y025812D01*
X052950Y025792D01*
X053000Y025768D01*
X053048Y025741D01*
X053095Y025711D01*
X053139Y025677D01*
X053181Y025640D01*
X053219Y025600D01*
X053256Y025558D01*
X053289Y025513D01*
X053318Y025467D01*
X053345Y025418D01*
X053367Y025367D01*
X053387Y025315D01*
X053402Y025261D01*
X053414Y025207D01*
X053422Y025152D01*
X053426Y025097D01*
X053426Y025041D01*
X053422Y024986D01*
X053414Y024931D01*
X053402Y024877D01*
X053387Y024823D01*
X053367Y024771D01*
X053345Y024720D01*
X053318Y024671D01*
X053289Y024625D01*
X053256Y024580D01*
X053219Y024538D01*
X053181Y024498D01*
X053139Y024461D01*
X053095Y024427D01*
X053048Y024397D01*
X053000Y024370D01*
X052950Y024346D01*
X052898Y024326D01*
X052845Y024309D01*
X052791Y024297D01*
X052736Y024288D01*
X052681Y024283D01*
X052625Y024282D01*
X052570Y024285D01*
X052515Y024292D01*
X052460Y024303D01*
X052406Y024317D01*
X052354Y024335D01*
X052303Y024357D01*
X052254Y024383D01*
X052206Y024412D01*
X052161Y024444D01*
X052118Y024479D01*
X052078Y024517D01*
X052040Y024558D01*
X052006Y024602D01*
X051974Y024648D01*
X051946Y024696D01*
X051922Y024746D01*
X051901Y024797D01*
X051883Y024850D01*
X051870Y024904D01*
X051860Y024958D01*
X051854Y025013D01*
X051852Y025069D01*
X052442Y040069D02*
X052444Y040096D01*
X052450Y040123D01*
X052459Y040149D01*
X052472Y040173D01*
X052488Y040196D01*
X052507Y040215D01*
X052529Y040232D01*
X052553Y040246D01*
X052578Y040256D01*
X052605Y040263D01*
X052632Y040266D01*
X052660Y040265D01*
X052687Y040260D01*
X052713Y040252D01*
X052737Y040240D01*
X052760Y040224D01*
X052781Y040206D01*
X052798Y040185D01*
X052813Y040161D01*
X052824Y040136D01*
X052832Y040110D01*
X052836Y040083D01*
X052836Y040055D01*
X052832Y040028D01*
X052824Y040002D01*
X052813Y039977D01*
X052798Y039953D01*
X052781Y039932D01*
X052760Y039914D01*
X052738Y039898D01*
X052713Y039886D01*
X052687Y039878D01*
X052660Y039873D01*
X052632Y039872D01*
X052605Y039875D01*
X052578Y039882D01*
X052553Y039892D01*
X052529Y039906D01*
X052507Y039923D01*
X052488Y039942D01*
X052472Y039965D01*
X052459Y039989D01*
X052450Y040015D01*
X052444Y040042D01*
X052442Y040069D01*
X041192Y040069D02*
X041194Y040096D01*
X041200Y040123D01*
X041209Y040149D01*
X041222Y040173D01*
X041238Y040196D01*
X041257Y040215D01*
X041279Y040232D01*
X041303Y040246D01*
X041328Y040256D01*
X041355Y040263D01*
X041382Y040266D01*
X041410Y040265D01*
X041437Y040260D01*
X041463Y040252D01*
X041487Y040240D01*
X041510Y040224D01*
X041531Y040206D01*
X041548Y040185D01*
X041563Y040161D01*
X041574Y040136D01*
X041582Y040110D01*
X041586Y040083D01*
X041586Y040055D01*
X041582Y040028D01*
X041574Y040002D01*
X041563Y039977D01*
X041548Y039953D01*
X041531Y039932D01*
X041510Y039914D01*
X041488Y039898D01*
X041463Y039886D01*
X041437Y039878D01*
X041410Y039873D01*
X041382Y039872D01*
X041355Y039875D01*
X041328Y039882D01*
X041303Y039892D01*
X041279Y039906D01*
X041257Y039923D01*
X041238Y039942D01*
X041222Y039965D01*
X041209Y039989D01*
X041200Y040015D01*
X041194Y040042D01*
X041192Y040069D01*
X033692Y040069D02*
X033694Y040096D01*
X033700Y040123D01*
X033709Y040149D01*
X033722Y040173D01*
X033738Y040196D01*
X033757Y040215D01*
X033779Y040232D01*
X033803Y040246D01*
X033828Y040256D01*
X033855Y040263D01*
X033882Y040266D01*
X033910Y040265D01*
X033937Y040260D01*
X033963Y040252D01*
X033987Y040240D01*
X034010Y040224D01*
X034031Y040206D01*
X034048Y040185D01*
X034063Y040161D01*
X034074Y040136D01*
X034082Y040110D01*
X034086Y040083D01*
X034086Y040055D01*
X034082Y040028D01*
X034074Y040002D01*
X034063Y039977D01*
X034048Y039953D01*
X034031Y039932D01*
X034010Y039914D01*
X033988Y039898D01*
X033963Y039886D01*
X033937Y039878D01*
X033910Y039873D01*
X033882Y039872D01*
X033855Y039875D01*
X033828Y039882D01*
X033803Y039892D01*
X033779Y039906D01*
X033757Y039923D01*
X033738Y039942D01*
X033722Y039965D01*
X033709Y039989D01*
X033700Y040015D01*
X033694Y040042D01*
X033692Y040069D01*
X026192Y040069D02*
X026194Y040096D01*
X026200Y040123D01*
X026209Y040149D01*
X026222Y040173D01*
X026238Y040196D01*
X026257Y040215D01*
X026279Y040232D01*
X026303Y040246D01*
X026328Y040256D01*
X026355Y040263D01*
X026382Y040266D01*
X026410Y040265D01*
X026437Y040260D01*
X026463Y040252D01*
X026487Y040240D01*
X026510Y040224D01*
X026531Y040206D01*
X026548Y040185D01*
X026563Y040161D01*
X026574Y040136D01*
X026582Y040110D01*
X026586Y040083D01*
X026586Y040055D01*
X026582Y040028D01*
X026574Y040002D01*
X026563Y039977D01*
X026548Y039953D01*
X026531Y039932D01*
X026510Y039914D01*
X026488Y039898D01*
X026463Y039886D01*
X026437Y039878D01*
X026410Y039873D01*
X026382Y039872D01*
X026355Y039875D01*
X026328Y039882D01*
X026303Y039892D01*
X026279Y039906D01*
X026257Y039923D01*
X026238Y039942D01*
X026222Y039965D01*
X026209Y039989D01*
X026200Y040015D01*
X026194Y040042D01*
X026192Y040069D01*
X018692Y040069D02*
X018694Y040096D01*
X018700Y040123D01*
X018709Y040149D01*
X018722Y040173D01*
X018738Y040196D01*
X018757Y040215D01*
X018779Y040232D01*
X018803Y040246D01*
X018828Y040256D01*
X018855Y040263D01*
X018882Y040266D01*
X018910Y040265D01*
X018937Y040260D01*
X018963Y040252D01*
X018987Y040240D01*
X019010Y040224D01*
X019031Y040206D01*
X019048Y040185D01*
X019063Y040161D01*
X019074Y040136D01*
X019082Y040110D01*
X019086Y040083D01*
X019086Y040055D01*
X019082Y040028D01*
X019074Y040002D01*
X019063Y039977D01*
X019048Y039953D01*
X019031Y039932D01*
X019010Y039914D01*
X018988Y039898D01*
X018963Y039886D01*
X018937Y039878D01*
X018910Y039873D01*
X018882Y039872D01*
X018855Y039875D01*
X018828Y039882D01*
X018803Y039892D01*
X018779Y039906D01*
X018757Y039923D01*
X018738Y039942D01*
X018722Y039965D01*
X018709Y039989D01*
X018700Y040015D01*
X018694Y040042D01*
X018692Y040069D01*
X011192Y040069D02*
X011194Y040096D01*
X011200Y040123D01*
X011209Y040149D01*
X011222Y040173D01*
X011238Y040196D01*
X011257Y040215D01*
X011279Y040232D01*
X011303Y040246D01*
X011328Y040256D01*
X011355Y040263D01*
X011382Y040266D01*
X011410Y040265D01*
X011437Y040260D01*
X011463Y040252D01*
X011487Y040240D01*
X011510Y040224D01*
X011531Y040206D01*
X011548Y040185D01*
X011563Y040161D01*
X011574Y040136D01*
X011582Y040110D01*
X011586Y040083D01*
X011586Y040055D01*
X011582Y040028D01*
X011574Y040002D01*
X011563Y039977D01*
X011548Y039953D01*
X011531Y039932D01*
X011510Y039914D01*
X011488Y039898D01*
X011463Y039886D01*
X011437Y039878D01*
X011410Y039873D01*
X011382Y039872D01*
X011355Y039875D01*
X011328Y039882D01*
X011303Y039892D01*
X011279Y039906D01*
X011257Y039923D01*
X011238Y039942D01*
X011222Y039965D01*
X011209Y039989D01*
X011200Y040015D01*
X011194Y040042D01*
X011192Y040069D01*
X003692Y040069D02*
X003694Y040096D01*
X003700Y040123D01*
X003709Y040149D01*
X003722Y040173D01*
X003738Y040196D01*
X003757Y040215D01*
X003779Y040232D01*
X003803Y040246D01*
X003828Y040256D01*
X003855Y040263D01*
X003882Y040266D01*
X003910Y040265D01*
X003937Y040260D01*
X003963Y040252D01*
X003987Y040240D01*
X004010Y040224D01*
X004031Y040206D01*
X004048Y040185D01*
X004063Y040161D01*
X004074Y040136D01*
X004082Y040110D01*
X004086Y040083D01*
X004086Y040055D01*
X004082Y040028D01*
X004074Y040002D01*
X004063Y039977D01*
X004048Y039953D01*
X004031Y039932D01*
X004010Y039914D01*
X003988Y039898D01*
X003963Y039886D01*
X003937Y039878D01*
X003910Y039873D01*
X003882Y039872D01*
X003855Y039875D01*
X003828Y039882D01*
X003803Y039892D01*
X003779Y039906D01*
X003757Y039923D01*
X003738Y039942D01*
X003722Y039965D01*
X003709Y039989D01*
X003700Y040015D01*
X003694Y040042D01*
X003692Y040069D01*
X003692Y050569D02*
X003694Y050596D01*
X003700Y050623D01*
X003709Y050649D01*
X003722Y050673D01*
X003738Y050696D01*
X003757Y050715D01*
X003779Y050732D01*
X003803Y050746D01*
X003828Y050756D01*
X003855Y050763D01*
X003882Y050766D01*
X003910Y050765D01*
X003937Y050760D01*
X003963Y050752D01*
X003987Y050740D01*
X004010Y050724D01*
X004031Y050706D01*
X004048Y050685D01*
X004063Y050661D01*
X004074Y050636D01*
X004082Y050610D01*
X004086Y050583D01*
X004086Y050555D01*
X004082Y050528D01*
X004074Y050502D01*
X004063Y050477D01*
X004048Y050453D01*
X004031Y050432D01*
X004010Y050414D01*
X003988Y050398D01*
X003963Y050386D01*
X003937Y050378D01*
X003910Y050373D01*
X003882Y050372D01*
X003855Y050375D01*
X003828Y050382D01*
X003803Y050392D01*
X003779Y050406D01*
X003757Y050423D01*
X003738Y050442D01*
X003722Y050465D01*
X003709Y050489D01*
X003700Y050515D01*
X003694Y050542D01*
X003692Y050569D01*
X011192Y050569D02*
X011194Y050596D01*
X011200Y050623D01*
X011209Y050649D01*
X011222Y050673D01*
X011238Y050696D01*
X011257Y050715D01*
X011279Y050732D01*
X011303Y050746D01*
X011328Y050756D01*
X011355Y050763D01*
X011382Y050766D01*
X011410Y050765D01*
X011437Y050760D01*
X011463Y050752D01*
X011487Y050740D01*
X011510Y050724D01*
X011531Y050706D01*
X011548Y050685D01*
X011563Y050661D01*
X011574Y050636D01*
X011582Y050610D01*
X011586Y050583D01*
X011586Y050555D01*
X011582Y050528D01*
X011574Y050502D01*
X011563Y050477D01*
X011548Y050453D01*
X011531Y050432D01*
X011510Y050414D01*
X011488Y050398D01*
X011463Y050386D01*
X011437Y050378D01*
X011410Y050373D01*
X011382Y050372D01*
X011355Y050375D01*
X011328Y050382D01*
X011303Y050392D01*
X011279Y050406D01*
X011257Y050423D01*
X011238Y050442D01*
X011222Y050465D01*
X011209Y050489D01*
X011200Y050515D01*
X011194Y050542D01*
X011192Y050569D01*
X021692Y050569D02*
X021694Y050596D01*
X021700Y050623D01*
X021709Y050649D01*
X021722Y050673D01*
X021738Y050696D01*
X021757Y050715D01*
X021779Y050732D01*
X021803Y050746D01*
X021828Y050756D01*
X021855Y050763D01*
X021882Y050766D01*
X021910Y050765D01*
X021937Y050760D01*
X021963Y050752D01*
X021987Y050740D01*
X022010Y050724D01*
X022031Y050706D01*
X022048Y050685D01*
X022063Y050661D01*
X022074Y050636D01*
X022082Y050610D01*
X022086Y050583D01*
X022086Y050555D01*
X022082Y050528D01*
X022074Y050502D01*
X022063Y050477D01*
X022048Y050453D01*
X022031Y050432D01*
X022010Y050414D01*
X021988Y050398D01*
X021963Y050386D01*
X021937Y050378D01*
X021910Y050373D01*
X021882Y050372D01*
X021855Y050375D01*
X021828Y050382D01*
X021803Y050392D01*
X021779Y050406D01*
X021757Y050423D01*
X021738Y050442D01*
X021722Y050465D01*
X021709Y050489D01*
X021700Y050515D01*
X021694Y050542D01*
X021692Y050569D01*
X029192Y050569D02*
X029194Y050596D01*
X029200Y050623D01*
X029209Y050649D01*
X029222Y050673D01*
X029238Y050696D01*
X029257Y050715D01*
X029279Y050732D01*
X029303Y050746D01*
X029328Y050756D01*
X029355Y050763D01*
X029382Y050766D01*
X029410Y050765D01*
X029437Y050760D01*
X029463Y050752D01*
X029487Y050740D01*
X029510Y050724D01*
X029531Y050706D01*
X029548Y050685D01*
X029563Y050661D01*
X029574Y050636D01*
X029582Y050610D01*
X029586Y050583D01*
X029586Y050555D01*
X029582Y050528D01*
X029574Y050502D01*
X029563Y050477D01*
X029548Y050453D01*
X029531Y050432D01*
X029510Y050414D01*
X029488Y050398D01*
X029463Y050386D01*
X029437Y050378D01*
X029410Y050373D01*
X029382Y050372D01*
X029355Y050375D01*
X029328Y050382D01*
X029303Y050392D01*
X029279Y050406D01*
X029257Y050423D01*
X029238Y050442D01*
X029222Y050465D01*
X029209Y050489D01*
X029200Y050515D01*
X029194Y050542D01*
X029192Y050569D01*
X036692Y050569D02*
X036694Y050596D01*
X036700Y050623D01*
X036709Y050649D01*
X036722Y050673D01*
X036738Y050696D01*
X036757Y050715D01*
X036779Y050732D01*
X036803Y050746D01*
X036828Y050756D01*
X036855Y050763D01*
X036882Y050766D01*
X036910Y050765D01*
X036937Y050760D01*
X036963Y050752D01*
X036987Y050740D01*
X037010Y050724D01*
X037031Y050706D01*
X037048Y050685D01*
X037063Y050661D01*
X037074Y050636D01*
X037082Y050610D01*
X037086Y050583D01*
X037086Y050555D01*
X037082Y050528D01*
X037074Y050502D01*
X037063Y050477D01*
X037048Y050453D01*
X037031Y050432D01*
X037010Y050414D01*
X036988Y050398D01*
X036963Y050386D01*
X036937Y050378D01*
X036910Y050373D01*
X036882Y050372D01*
X036855Y050375D01*
X036828Y050382D01*
X036803Y050392D01*
X036779Y050406D01*
X036757Y050423D01*
X036738Y050442D01*
X036722Y050465D01*
X036709Y050489D01*
X036700Y050515D01*
X036694Y050542D01*
X036692Y050569D01*
X044192Y050569D02*
X044194Y050596D01*
X044200Y050623D01*
X044209Y050649D01*
X044222Y050673D01*
X044238Y050696D01*
X044257Y050715D01*
X044279Y050732D01*
X044303Y050746D01*
X044328Y050756D01*
X044355Y050763D01*
X044382Y050766D01*
X044410Y050765D01*
X044437Y050760D01*
X044463Y050752D01*
X044487Y050740D01*
X044510Y050724D01*
X044531Y050706D01*
X044548Y050685D01*
X044563Y050661D01*
X044574Y050636D01*
X044582Y050610D01*
X044586Y050583D01*
X044586Y050555D01*
X044582Y050528D01*
X044574Y050502D01*
X044563Y050477D01*
X044548Y050453D01*
X044531Y050432D01*
X044510Y050414D01*
X044488Y050398D01*
X044463Y050386D01*
X044437Y050378D01*
X044410Y050373D01*
X044382Y050372D01*
X044355Y050375D01*
X044328Y050382D01*
X044303Y050392D01*
X044279Y050406D01*
X044257Y050423D01*
X044238Y050442D01*
X044222Y050465D01*
X044209Y050489D01*
X044200Y050515D01*
X044194Y050542D01*
X044192Y050569D01*
X056192Y050569D02*
X056194Y050596D01*
X056200Y050623D01*
X056209Y050649D01*
X056222Y050673D01*
X056238Y050696D01*
X056257Y050715D01*
X056279Y050732D01*
X056303Y050746D01*
X056328Y050756D01*
X056355Y050763D01*
X056382Y050766D01*
X056410Y050765D01*
X056437Y050760D01*
X056463Y050752D01*
X056487Y050740D01*
X056510Y050724D01*
X056531Y050706D01*
X056548Y050685D01*
X056563Y050661D01*
X056574Y050636D01*
X056582Y050610D01*
X056586Y050583D01*
X056586Y050555D01*
X056582Y050528D01*
X056574Y050502D01*
X056563Y050477D01*
X056548Y050453D01*
X056531Y050432D01*
X056510Y050414D01*
X056488Y050398D01*
X056463Y050386D01*
X056437Y050378D01*
X056410Y050373D01*
X056382Y050372D01*
X056355Y050375D01*
X056328Y050382D01*
X056303Y050392D01*
X056279Y050406D01*
X056257Y050423D01*
X056238Y050442D01*
X056222Y050465D01*
X056209Y050489D01*
X056200Y050515D01*
X056194Y050542D01*
X056192Y050569D01*
M02*
